<?xml version="1.0" encoding="utf-8"?>
<!-- Generator: Adobe Illustrator 26.0.1, SVG Export Plug-In . SVG Version: 6.00 Build 0)  -->
<svg version="1.1" id="Calque_1" xmlns="http://www.w3.org/2000/svg" xmlns:xlink="http://www.w3.org/1999/xlink" x="0px" y="0px"
	 viewBox="0 0 89.3 86" style="enable-background:new 0 0 89.3 86;" xml:space="preserve">
<style type="text/css">
	.st0{fill:#A5A5A5;}
	.st1{fill:#666666;}
	.st2{fill:#E6EEE1;}
</style>
<g>
	<g>
		<g>
			<path class="st0" d="M65.4,20.2c-0.8,0-1.5,0-2.2,0.1c-0.9-9.9-9.3-17.6-19.4-17.5c-10.1,0-18.3,7.8-19.2,17.6
				c-0.3,0-0.6,0-0.8,0C11.7,20.5,2,30.3,2,42.3c0.1,12,9.9,21.8,21.9,21.7c9.8,0,18-6.5,20.8-15.4c2.8,8.9,11.1,15.3,20.9,15.2
				c12-0.1,21.8-9.9,21.7-21.9S77.4,20.2,65.4,20.2z"/>
			<g>
				<path class="st1" d="M78.6,48.6c-1.8-0.2-3.6-0.2-5.3-0.2l0,0C65.6,48.4,59,50,53.6,53c-1.5-4.6-5.5-8.8-7.4-10.6
					c-0.4-0.4-0.9-0.6-1.4-0.6c-0.6-0.2-1.1,0.2-1.5,0.7l0,0c-1.9,1.8-5.8,6-7.3,10.6c-5.5-3-12.1-4.6-19.7-4.5l0,0
					c-1.9,0-3.8,0.1-5.8,0.3l-4.1,0.6c-0.4,0.1-0.9,0.1-1.3,0.2l-0.8,0.1c-0.6,0.1-1.2,0.5-1.5,1.1c-0.3,0.6-0.3,1.3,0.1,1.8
					l0.4,0.7c1,1.7,10.4,16.5,29.2,16.4c2.6,0,5.2-0.3,7.9-0.9c0.5,1.6,1.1,4.3,1.1,8.3c0,1.1,0,2.2,0,3.4l0,0.4
					c0,0.5,0.2,1.1,0.6,1.5s0.9,0.6,1.4,0.6l2.9,0c0.5,0,1.1-0.2,1.4-0.6c0.4-0.4,0.6-0.9,0.5-1.5l0-0.4c0-1.2-0.1-2.4-0.1-3.4
					c0-4,0.6-6.7,1.1-8.3c2.7,0.6,5.4,0.8,7.9,0.8c18.9-0.1,28.1-15,29.1-16.8l0.4-0.7c0.3-0.6,0.3-1.3,0.1-1.8
					c-0.3-0.6-0.8-1-1.5-1.1l-0.7-0.1c-0.6-0.1-1.2-0.1-1.8-0.2"/>
			</g>
		</g>
	</g>
</g>
<path class="st2" d="M69.2,13.6c0.1,0.1,0.2,0.2,0.3,0.3c-0.2,0.5-0.4,1-0.9,1.2C68.5,14.5,68.8,14,69.2,13.6z"/>
</svg>
