<?xml version="1.0" encoding="utf-8"?>
<!-- Generator: Adobe Illustrator 25.2.2, SVG Export Plug-In . SVG Version: 6.00 Build 0)  -->
<svg version="1.1" id="Calque_1" xmlns:serif="http://www.serif.com/"
	 xmlns="http://www.w3.org/2000/svg" xmlns:xlink="http://www.w3.org/1999/xlink" x="0px" y="0px" viewBox="0 0 425.2 595.3"
	 style="enable-background:new 0 0 425.2 595.3;" xml:space="preserve">
<style type="text/css">
	.st0{fill:#666666;}
</style>
<g transform="matrix(1,0,0,1,-1510.98,-970.037)">
	<g>
		<g transform="matrix(4.16667,0,0,4.16667,1812.34,1000.25)">
			<path class="st0" d="M24.7,93.1c0,2.7-2.2,4.9-4.9,4.9h-82.4c-2.7,0-4.9-2.2-4.9-4.9V35c0-2.7,2.2-4.9,4.9-4.9h82.4
				c2.7,0,4.9,2.2,4.9,4.9V93.1z M19.8,25.2h-82.4c-5.4,0-9.7,4.4-9.7,9.7v58.2c0,5.4,4.4,9.7,9.7,9.7h82.4c5.4,0,9.7-4.4,9.7-9.7
				V35C29.5,29.6,25.2,25.2,19.8,25.2"/>
		</g>
		<g transform="matrix(4.16667,0,0,4.16667,1770.43,1130.69)">
			<path class="st0" d="M21.3,42h-65.2c-1,0-1.8,0.8-1.8,1.8c0,1,0.8,1.8,1.8,1.8h65.2c1,0,1.8-0.8,1.8-1.8
				C23.1,42.8,22.3,42,21.3,42"/>
		</g>
		<g transform="matrix(4.16667,0,0,4.16667,1661.31,1157.19)">
			<path class="st0" d="M12.3,44.2h-30c-1,0-1.8,0.8-1.8,1.8c0,1,0.8,1.8,1.8,1.8h30c1,0,1.8-0.8,1.8-1.8
				C14.1,45,13.3,44.2,12.3,44.2"/>
		</g>
		<g transform="matrix(4.16667,0,0,4.16667,1770.43,1157.19)">
			<path class="st0" d="M21.3,44.2H6.7c-1,0-1.8,0.8-1.8,1.8c0,1,0.8,1.8,1.8,1.8h14.6c1,0,1.8-0.8,1.8-1.8
				C23.1,45,22.3,44.2,21.3,44.2"/>
		</g>
		<g transform="matrix(4.16667,0,0,4.16667,1605.32,1046.49)">
			<path class="st0" d="M7.7,48.3c0.1,0,0.2,0,0.3,0.1c0.1,0,0.2,0.1,0.3,0.2l1.8,1.9c-0.8,1-1.8,1.8-3,2.4
				c-1.2,0.5-2.6,0.8-4.3,0.8c-1.5,0-2.9-0.3-4.1-0.8c-1.2-0.5-2.2-1.2-3-2.1c-0.8-0.9-1.5-2-1.9-3.2c-0.4-1.2-0.7-2.6-0.7-4
				c0-1.5,0.2-2.8,0.7-4.1c0.5-1.2,1.2-2.3,2-3.2c0.9-0.9,1.9-1.6,3.1-2.1c1.2-0.5,2.6-0.7,4-0.7c0.7,0,1.4,0.1,2.1,0.2
				c0.7,0.1,1.3,0.3,1.8,0.5c0.6,0.2,1.1,0.5,1.6,0.8c0.5,0.3,0.9,0.7,1.3,1.1l-1.6,2.1c-0.1,0.1-0.2,0.2-0.4,0.3
				c-0.1,0.1-0.3,0.2-0.6,0.2c-0.2,0-0.3,0-0.5-0.1c-0.1-0.1-0.3-0.2-0.5-0.3C6.4,38.1,6.2,38,6,37.9c-0.2-0.1-0.4-0.2-0.7-0.3
				c-0.3-0.1-0.6-0.2-0.9-0.3c-0.4-0.1-0.8-0.1-1.3-0.1c-0.8,0-1.5,0.1-2.1,0.4c-0.6,0.3-1.2,0.7-1.6,1.2c-0.5,0.5-0.8,1.2-1.1,2
				C-1.9,41.6-2,42.5-2,43.5c0,1,0.1,1.9,0.4,2.7c0.3,0.8,0.7,1.5,1.1,2c0.5,0.5,1,1,1.7,1.2c0.6,0.3,1.3,0.4,2,0.4
				c0.4,0,0.8,0,1.1-0.1c0.3,0,0.7-0.1,1-0.2c0.3-0.1,0.6-0.2,0.8-0.4c0.3-0.2,0.5-0.4,0.8-0.6c0.1-0.1,0.2-0.2,0.4-0.2
				C7.5,48.4,7.6,48.3,7.7,48.3"/>
		</g>
		<g transform="matrix(4.16667,0,0,4.16667,1656.43,1041.96)">
			<path class="st0" d="M11.9,50.9v3.7h-12V34.7h4.6v16.2H11.9z"/>
		</g>
		<g transform="matrix(4.16667,0,0,4.16667,1688.19,1042.5)">
			<path class="st0" d="M14.5,50.8c0.6,0,1.2-0.1,1.7-0.3c0.5-0.2,0.9-0.5,1.2-0.9c0.3-0.4,0.6-0.8,0.8-1.4c0.2-0.5,0.3-1.2,0.3-1.9
				V34.6H23v11.8c0,1.2-0.2,2.3-0.6,3.4c-0.4,1-1,1.9-1.7,2.6C20,53,19.1,53.6,18.1,54c-1.1,0.4-2.2,0.6-3.6,0.6
				c-1.3,0-2.5-0.2-3.6-0.6c-1.1-0.4-1.9-1-2.7-1.7c-0.7-0.7-1.3-1.6-1.7-2.6c-0.4-1-0.6-2.1-0.6-3.4V34.6h4.6v11.8
				c0,0.7,0.1,1.3,0.3,1.9c0.2,0.5,0.4,1,0.8,1.4c0.3,0.4,0.7,0.7,1.2,0.9C13.3,50.7,13.9,50.8,14.5,50.8"/>
		</g>
		<g transform="matrix(4.16667,0,0,4.16667,1750.26,1041.32)">
			<path class="st0" d="M19.6,51.2c0.6,0,1.1-0.1,1.5-0.2c0.4-0.2,0.7-0.4,0.9-0.6s0.4-0.5,0.5-0.8c0.1-0.3,0.1-0.6,0.1-0.9
				c0-0.4,0-0.7-0.1-1c-0.1-0.3-0.3-0.5-0.5-0.7c-0.2-0.2-0.5-0.4-0.9-0.5c-0.4-0.1-0.9-0.2-1.4-0.2h-3.2v4.9H19.6z M16.4,38.3v4.9
				h2.4c0.5,0,1,0,1.4-0.1c0.4-0.1,0.8-0.2,1-0.4c0.3-0.2,0.5-0.4,0.7-0.7c0.2-0.3,0.2-0.7,0.2-1.2c0-0.5-0.1-0.9-0.2-1.2
				c-0.1-0.3-0.3-0.6-0.5-0.8c-0.2-0.2-0.6-0.3-0.9-0.4c-0.4-0.1-0.8-0.1-1.3-0.1H16.4z M19.1,34.8c1.4,0,2.5,0.1,3.5,0.4
				c1,0.3,1.7,0.6,2.4,1.1s1.1,1,1.3,1.7c0.3,0.7,0.4,1.4,0.4,2.2c0,0.4-0.1,0.9-0.2,1.3c-0.1,0.4-0.3,0.8-0.6,1.2
				c-0.3,0.4-0.6,0.7-1,1c-0.4,0.3-0.9,0.6-1.5,0.8c1.3,0.3,2.3,0.8,2.9,1.5c0.6,0.7,0.9,1.6,0.9,2.8c0,0.8-0.2,1.6-0.5,2.4
				c-0.3,0.7-0.8,1.4-1.4,1.9c-0.6,0.5-1.4,1-2.3,1.3c-0.9,0.3-2,0.5-3.2,0.5h-7.9V34.8H19.1z"/>
		</g>
	</g>
</g>
</svg>
