<?xml version="1.0" encoding="utf-8"?>
<!-- Generator: Adobe Illustrator 26.0.1, SVG Export Plug-In . SVG Version: 6.00 Build 0)  -->
<svg version="1.1" id="Calque_1" xmlns="http://www.w3.org/2000/svg" xmlns:xlink="http://www.w3.org/1999/xlink" x="0px" y="0px"
	 viewBox="0 0 89.3 86" style="enable-background:new 0 0 89.3 86;" xml:space="preserve">
<style type="text/css">
	.st0{fill:#E6EEE1;}
	.st1{fill:#666666;}
</style>
<path class="st0" d="M69.2,13.6c0.1,0.1,0.2,0.2,0.3,0.3c-0.2,0.5-0.4,1-0.9,1.2C68.5,14.5,68.8,14,69.2,13.6z"/>
<g>
	<path class="st1" d="M51.2,29.4c0.2-0.6,0.3-1.2,0.5-1.7c0.5-1.7,1.1-3.4,1.7-5.1c1-3.2,1.9-6.4,2.9-9.6c0.5-1.7,1.1-3.4,1.6-5.1
		c0.4-1.2,0.6-2.3,0.9-3.5c0.1-0.2,0.1-0.4,0.2-0.7c0.1-0.3,0.3-0.5,0.6-0.5c0.6-0.1,1.2,0,1.7,0.1c2.7,0.6,5.4,1.3,8.1,1.9
		C71.7,5.7,73.8,6,75.9,6c1.2,0,2.5-0.2,3.7-0.4c1.4-0.2,2.8-0.6,4.1-1c0.2-0.1,0.4-0.1,0.7-0.1c0.2,0,0.4,0,0.7,0
		c0.2,0,0.3,0.1,0.3,0.3c0,0.3,0,0.6,0,0.8c-0.3,1.1-0.6,2.1-0.9,3.2c-0.9,3.3-1.9,6.5-3,9.7c-0.8,2.3-1.7,4.7-2.4,7.1
		c-0.2,0.7-0.5,1.4-0.8,2.1c-0.4,1-0.8,2.1-1.1,3.1c-0.1,0.4-0.3,0.8-0.3,1.3c-0.1,0.3,0,0.6-0.1,0.8c-0.1,0.9-0.5,1.6-1,2.3
		c-0.2,0.2-0.3,0.4-0.5,0.6c-0.3,0.5-0.8,0.8-1.4,1c0,0-0.1,0-0.1,0c-0.9,0.5-1.9,0.6-3,0.3c-0.6-0.1-1.2-0.3-1.7-0.6
		c-0.1-0.1-0.2-0.1-0.3-0.2c-0.7-0.6-1.3-1.1-1.7-1.9c-0.4-0.7-0.5-1.4-0.3-2.2c0.1-0.2,0-0.5,0-0.8c0.2-1.7,0.9-2.9,2.5-3.6
		c1.1-0.5,2.3-0.4,3.4,0c1.3,0.5,2.4,1.1,3.3,2.2c0,0,0,0,0.1,0.1c0-0.1,0-0.2,0.1-0.2c0.5-1.8,0.9-3.7,1.5-5.5
		c0.5-1.7,1.1-3.3,1.6-5c0.9-2.8,1.9-5.6,2.8-8.4c0,0,0-0.1,0-0.2c-0.3,0.1-0.7,0.1-1,0.2c-1.5,0.2-3.1,0.4-4.6,0.4
		c-0.4,0-0.8,0.1-1.2,0.1c-1,0-2,0.1-3,0.1c-1.4,0-2.8,0-4.2-0.1c-1.5-0.1-3-0.2-4.6-0.3c-1.3-0.1-2.7-0.2-4-0.4c-0.2,0-0.5,0-0.7,0
		c-0.1,0-0.1,0.1-0.2,0.1c-0.4,1.4-0.9,2.8-1.3,4.2c-0.5,1.6-1,3.3-1.6,4.9c-0.6,1.7-1.1,3.5-1.6,5.2c-0.5,1.7-0.8,3.4-1.2,5.1
		c-0.2,0.8-0.4,1.6-0.7,2.4c-0.1,0.4-0.2,0.8-0.3,1.2c0,0.2-0.1,0.4-0.1,0.6c0,0.1-0.1,0.1-0.1,0.2c0,0-0.1,0.1-0.1,0.1
		c-0.6,1.1-1.5,1.8-2.6,2.2c-0.2,0.1-0.4,0.2-0.7,0.3c-0.4,0.1-0.7,0.2-1.1,0.1c-0.2,0-0.5,0-0.7,0c-0.6,0-1.2,0.1-1.8-0.1
		c-0.9-0.2-1.6-0.7-2.1-1.4c-1.2-1.7-1.5-3.6-0.7-5.5c0.6-1.5,1.8-2.4,3.4-2.8c0.3-0.1,0.6-0.2,0.9-0.3c0.5-0.1,1-0.1,1.6,0
		c1.3,0.4,2.5,1,3.4,2.1C51.1,29.3,51.2,29.3,51.2,29.4z M83.4,7c-0.3,0.1-0.6,0.1-0.8,0.2c-1.1,0.1-2.1,0.2-3.2,0.3
		c-1.4,0-2.8,0-4.2-0.1c-0.8,0-1.6,0-2.4-0.1c-1.3-0.1-2.6-0.3-3.9-0.4c-1.1-0.1-2.3-0.3-3.4-0.7c-0.7-0.2-1.4-0.5-2.1-0.6
		c-0.9-0.2-1.8-0.3-2.7-0.5c-0.2,0-0.3-0.1-0.5-0.1c-0.2,1.7-0.8,3.2-1.3,4.7c0.4,0,0.8,0.1,1.2,0.1c1.2,0.1,2.4,0.2,3.6,0.3
		c1.6,0.1,3.2,0.2,4.8,0.3c1.6,0,3.2,0,4.8,0c1.9,0,3.9,0.1,5.8-0.1c1.1-0.1,2.2-0.2,3.2-0.5c0.1,0,0.2-0.1,0.2-0.2
		c0.1-0.4,0.3-0.8,0.5-1.2C83.1,7.9,83.2,7.5,83.4,7z"/>
</g>
<g>
	<path class="st1" d="M47.9,52.1c0.1,0.1,0.2,0.2,0.3,0.3c0.8,0.8,1.5,1.6,2.4,2.3c0.9,0.7,2,1.2,3.3,1.4c1,0.2,2,0.4,2.9,0.7
		c2.1,0.7,3.3,2,3.6,3.8c0.1,0.8,0.1,1.7,0,2.5c0,0.4,0,0.8-0.1,1.2c0,0.3-0.2,0.4-0.4,0.4c-0.3,0-0.5-0.1-0.6-0.4
		c-0.1-0.3-0.2-0.6-0.3-0.9c-0.2-0.6-0.6-1.2-1.2-1.6c-1.2-0.9-2.4-1.6-3.8-2.2c-0.8-0.3-1.7-0.6-2.4-1c-1.4-0.7-2.6-1.5-3.5-2.5
		c-0.3-0.3-0.5-0.5-0.8-0.8c-0.1,0.1-0.2,0.1-0.2,0.2c-1,1-1.6,2.1-2,3.4c-0.3,1-0.6,1.9-0.9,2.9C44,62.2,44,62.6,43.9,63
		c-0.2,1.3-0.4,2.7-0.5,4c-0.3,2.1-0.5,4.3-0.7,6.4c-0.1,1,0,1.9,0,2.9c0,0.6,0,1.3,0.1,1.9c0,0.1,0,0.2,0.1,0.2
		c0.2,0.5,0.4,0.9,0.4,1.4c0,0.8-0.4,1.4-1.1,1.9c-1.3,0.9-2.8,1.3-4.6,1c-1.3-0.2-2.6-0.5-3.8-1.1c-1.4-0.7-2.5-1.6-3.2-2.8
		c-0.5-0.9-0.6-1.9-0.1-2.8c0.6-1.1,1.7-1.6,3.1-1.7c0.3,0,0.7,0,1,0c0.8,0,1.6,0.1,2.4,0.1c1.3,0.1,2.4,0.5,3.4,1.3
		c0.2,0.2,0.5,0.4,0.7,0.6c0-0.1,0-0.1,0-0.2c0.2-1.9,0.4-3.7,0.6-5.6c0.2-1.8,0.4-3.7,0.6-5.5c0.1-1,0.3-2,0.5-3
		c0.2-1,0.5-2.1,0.8-3.1c0.4-1.2,0.8-2.3,1.4-3.4c0.4-0.6,0.8-1.2,1.2-1.8c0.3-0.5,0.7-1,1.1-1.4c0.1-0.1,0.2-0.1,0.3-0.2
		C47.8,52.1,47.9,52.1,47.9,52.1z M43.3,64.8C43.3,64.9,43.3,64.9,43.3,64.8c0-0.2,0.1-0.5,0.1-0.7c0,0,0,0,0,0
		C43.3,64.4,43.3,64.6,43.3,64.8z"/>
	<path class="st1" d="M43.3,64.8c0-0.2,0.1-0.5,0.1-0.7c0,0,0,0,0,0C43.4,64.4,43.3,64.6,43.3,64.8C43.3,64.9,43.3,64.9,43.3,64.8z"
		/>
</g>
<g>
	<path class="st1" d="M22.6,13.8c0.1,0.1,0.2,0.3,0.3,0.4c0.7,1,1.4,2,2.3,2.8c0.9,0.9,2,1.4,3.2,1.7c1,0.2,2,0.4,2.9,0.8
		c2.1,0.9,3.3,2.4,3.5,4.7c0.1,1.1,0,2.1,0,3.2c0,0.5-0.1,1-0.1,1.5c0,0.4-0.2,0.6-0.5,0.6c-0.3,0-0.5-0.2-0.6-0.5
		c-0.1-0.4-0.2-0.8-0.3-1.2c-0.2-0.8-0.6-1.5-1.2-2.1c-1.1-1.1-2.3-2-3.8-2.7c-0.8-0.4-1.6-0.8-2.4-1.2c-1.3-0.8-2.5-1.8-3.5-3.1
		c-0.3-0.3-0.5-0.7-0.8-1c-0.1,0.1-0.2,0.2-0.2,0.3c-1,1.3-1.7,2.8-2.1,4.4c-0.3,1.2-0.7,2.5-1,3.7c-0.1,0.6-0.2,1.1-0.3,1.7
		c-0.2,1.7-0.4,3.4-0.6,5.1c-0.3,2.7-0.7,5.4-0.9,8.2c-0.1,1.2-0.1,2.4-0.1,3.7c0,0.8,0,1.6,0,2.4c0,0.1,0,0.2,0.1,0.3
		c0.2,0.6,0.4,1.2,0.3,1.8c0,1-0.4,1.8-1.1,2.5c-1.3,1.2-2.9,1.7-4.7,1.4c-1.3-0.2-2.6-0.6-3.8-1.3C6,51.1,4.9,50,4.3,48.4
		c-0.4-1.2-0.5-2.4,0-3.5c0.6-1.4,1.8-2,3.2-2.3c0.3-0.1,0.7-0.1,1-0.1c0.8,0,1.6,0.1,2.4,0.1c1.3,0,2.4,0.6,3.4,1.5
		c0.2,0.2,0.4,0.4,0.7,0.7c0-0.1,0-0.2,0-0.3c0.3-2.4,0.5-4.8,0.8-7.1c0.3-2.3,0.5-4.7,0.8-7c0.2-1.3,0.3-2.6,0.6-3.8
		c0.3-1.3,0.6-2.6,0.9-3.9c0.4-1.5,0.9-3,1.5-4.4c0.4-0.8,0.8-1.6,1.3-2.4c0.4-0.6,0.8-1.2,1.2-1.9c0.1-0.1,0.2-0.2,0.3-0.3
		C22.5,13.8,22.6,13.8,22.6,13.8z M17.6,30.2C17.6,30.2,17.6,30.2,17.6,30.2c0-0.3,0.1-0.6,0.1-0.9c0,0,0,0,0,0
		C17.6,29.6,17.6,29.9,17.6,30.2z"/>
	<path class="st1" d="M17.6,30.2c0-0.3,0.1-0.6,0.1-0.9c0,0,0,0,0,0C17.7,29.6,17.6,29.9,17.6,30.2C17.6,30.2,17.6,30.2,17.6,30.2z"
		/>
</g>
</svg>
