<?xml version="1.0" encoding="utf-8"?>
<!-- Generator: Adobe Illustrator 25.2.0, SVG Export Plug-In . SVG Version: 6.00 Build 0)  -->
<svg version="1.0" id="Calque_1" xmlns="http://www.w3.org/2000/svg" xmlns:xlink="http://www.w3.org/1999/xlink" x="0px" y="0px"
	 viewBox="0 0 165 86" style="enable-background:new 0 0 165 86;" xml:space="preserve">
<style type="text/css">
	.st0{fill:#666666;}
	.st1{fill:none;stroke:#231F20;stroke-width:0.54;stroke-miterlimit:10;}
	.st2{fill:none;stroke:#666666;stroke-miterlimit:10;}
</style>
<g>
	<g id="Calque_2-2">
		<path class="st0" d="M44.5,65.2c0,0.7,0,1.6,0.8,1.6c0.6,0,0.7-0.7,0.7-1h0.7c0,0.8-0.6,1.5-1.4,1.5c0,0,0,0-0.1,0
			c-1,0-1.5-0.7-1.5-2.2c0-1.1,0.2-2.3,1.5-2.3s1.4,1.1,1.4,2v0.3 M46,64.6v-0.2c0-0.5-0.2-1-0.7-1s-0.8,0.9-0.8,1.1v0.2L46,64.6z"
			/>
		<path class="st0" d="M49.2,64.2c0-0.5-0.1-0.8-0.6-0.8c-0.3,0-0.6,0.2-0.7,0.5V64c0,0.5,0.5,0.6,1,0.8s1,0.4,1,1.2
			c0,0.7-0.5,1.3-1.1,1.3c-0.1,0-0.1,0-0.2,0c-0.7,0.1-1.4-0.4-1.5-1.1c0-0.1,0-0.3,0-0.4h0.7c0,0.5,0.1,1,0.8,1
			c0.4,0,0.7-0.2,0.7-0.6v-0.1c0-0.6-0.5-0.7-1-0.9s-1-0.3-1-1.2c0-0.9,0.6-1.2,1.3-1.2c1.2,0,1.3,0.9,1.3,1.3"/>
		<path class="st0" d="M50.8,61.7h0.7V63h0.7v0.5h-0.7v2.7c0,0.3,0.1,0.5,0.4,0.5h0.3v0.6c-0.2,0-0.4,0-0.5,0
			c-0.7,0-0.8-0.3-0.8-0.8v-2.9h-0.6V63h0.6"/>
		<path class="st0" d="M53.2,65.2c0,0.7,0,1.6,0.8,1.6c0.6,0,0.7-0.7,0.7-1h0.7c0,0.8-0.5,1.5-1.3,1.5H54c-1,0-1.5-0.7-1.5-2.2
			c0-1.1,0.2-2.3,1.5-2.3s1.4,1.1,1.4,2v0.3 M54.8,64.6v-0.2c0-0.5-0.2-1-0.7-1s-0.8,0.9-0.8,1.1v0.2L54.8,64.6z"/>
		<path class="st0" d="M59,67.2h-0.6v-0.5l0,0c-0.2,0.4-0.5,0.6-0.9,0.6c-1,0-1.4-0.9-1.4-2.2c0-0.9,0.2-2.2,1.3-2.2
			c0.4,0,0.8,0.2,0.9,0.6l0,0v-1.9H59 M57.5,66.7c0.7,0,0.8-0.7,0.8-1.7s-0.1-1.7-0.8-1.7S56.7,64,56.7,65S56.9,66.7,57.5,66.7"/>
		<path class="st0" d="M62,63.5h-0.6V63H62v-0.5c0-0.6,0.3-1,0.9-1h0.5v0.6h-0.3c-0.3,0-0.4,0.1-0.4,0.4V63h0.7v0.5h-0.7v3.7H62"/>
		<path class="st0" d="M65.2,62.8c1.2,0,1.5,1,1.5,2.2c0,1.2-0.3,2.2-1.5,2.2s-1.5-1-1.5-2.2S63.9,62.8,65.2,62.8 M66,65.1
			c0-0.9-0.1-1.7-0.8-1.7s-0.8,0.8-0.8,1.7s0.1,1.7,0.8,1.7S66,66,66,65.1"/>
		<path class="st0" d="M67.4,63H68v0.6l0,0c0.2-0.4,0.4-0.8,0.9-0.8c0.1,0,0.2,0,0.3,0v0.7c-0.1,0-0.2,0-0.4,0c-0.5,0-0.9,0.5-0.9,1
			v2.7h-0.7"/>
		<path class="st0" d="M71.6,61.5h0.7v1.9l0,0c0.2-0.4,0.6-0.6,1-0.6c1.1,0,1.1,0.8,1.1,1.3v3h-0.7v-2.9c0-0.3,0-0.9-0.6-0.9
			c-0.5,0-0.8,0.4-0.8,0.8l0,0V67h-0.7"/>
		<path class="st0" d="M75.2,64.2c0-1,0.4-1.4,1.4-1.4c1.3,0,1.3,0.8,1.3,1.2v2.4c0,0.2,0,0.3,0.2,0.3c0,0,0.1,0,0.2,0v0.5
			c-0.1,0-0.3,0-0.4,0c-0.3,0-0.6,0-0.6-0.5l0,0c-0.2,0.4-0.6,0.6-1,0.6c-0.8,0-1.2-0.5-1.2-1.2c-0.1-0.5,0.3-1,0.8-1.2l0.9-0.3
			c0.5-0.2,0.5-0.3,0.5-0.6c0-0.3-0.2-0.6-0.5-0.6h-0.1c-0.4,0-0.7,0.3-0.7,0.7v0.1l0,0 M77.3,64.9c-0.2,0.3-0.8,0.3-1.1,0.5
			c-0.2,0.1-0.4,0.4-0.3,0.7c0,0.4,0.2,0.7,0.6,0.7c0.5,0,0.8-0.4,0.8-0.8V64.9z"/>
		<path class="st0" d="M78.8,63h0.7v0.6l0,0c0.2-0.4,0.4-0.8,0.9-0.8c0.1,0,0.2,0,0.3,0v0.7c-0.1,0-0.2,0-0.4,0
			c-0.5,0-0.9,0.5-0.9,1v2.7h-0.6"/>
		<path class="st0" d="M81.2,63h0.6v0.5l0,0c0.2-0.4,0.6-0.6,1-0.6c0.4-0.1,0.8,0.2,0.9,0.7c0.2-0.4,0.6-0.7,1-0.7
			c1.1,0,1.1,0.8,1.1,1.3v3h-0.7v-3c0-0.3,0-0.9-0.6-0.9c-0.4,0-0.8,0.3-0.8,0.8v0.1v2.9H83v-2.9c0-0.3,0-0.9-0.6-0.9
			c-0.4,0-0.8,0.3-0.8,0.8v0.1v2.9h-0.7"/>
		<path class="st0" d="M87.1,63.5h-0.6V63h0.6v-0.5c0-0.6,0.3-1,0.9-1h0.5v0.6h-0.3c-0.3,0-0.4,0.1-0.4,0.4V63h0.7v0.5h-0.7v3.7
			h-0.7"/>
		<path class="st0" d="M91.7,67.2h-0.6v-0.5l0,0c-0.2,0.4-0.6,0.6-1,0.6C89,67.3,89,66.5,89,66v-3h0.7v2.9c0,0.3,0,0.9,0.6,0.9
			c0.5,0,0.8-0.3,0.8-0.8c0,0,0,0,0-0.1V63h0.7"/>
		<rect x="92.6" y="61.5" class="st0" width="0.7" height="5.7"/>
		<path class="st0" d="M97.9,64.2c0-0.5-0.1-0.8-0.6-0.8c-0.3,0-0.6,0.2-0.7,0.5V64c0,0.5,0.5,0.6,1,0.8s1,0.4,1,1.2
			c0.1,0.7-0.5,1.3-1.1,1.3c-0.1,0-0.2,0-0.2,0c-0.7,0.1-1.4-0.4-1.5-1.1c0-0.1,0-0.3,0-0.4h0.7c0,0.5,0.1,1,0.8,1
			c0.4,0,0.7-0.3,0.7-0.6v-0.1c0-0.6-0.5-0.7-1-0.9s-1-0.3-1-1.2c0-0.9,0.6-1.2,1.3-1.2c1.2,0,1.3,0.9,1.3,1.3"/>
		<path class="st0" d="M102.1,67.2h-0.6v-0.5l0,0c-0.2,0.4-0.6,0.6-1,0.6c-1.1,0-1.1-0.8-1.1-1.3v-3h0.6v2.9c0,0.3,0,0.9,0.6,0.9
			c0.5,0,0.8-0.3,0.8-0.8c0,0,0,0,0-0.1V63h0.7"/>
		<path class="st0" d="M103,61.5h0.7v1.9l0,0c0.2-0.4,0.6-0.6,1-0.6c1.2,0,1.3,1.3,1.3,2.2c0,1.2-0.4,2.2-1.4,2.2
			c-0.4,0-0.8-0.3-0.9-0.6l0,0v0.5H103 M104.5,66.7c0.6,0,0.8-0.7,0.8-1.7s-0.2-1.7-0.8-1.7s-0.8,0.8-0.8,1.7S103.8,66.7,104.5,66.7
			"/>
		<path class="st0" d="M108.5,64.2c0-0.5-0.1-0.8-0.6-0.8c-0.3,0-0.6,0.2-0.7,0.5V64c0,0.5,0.5,0.6,1,0.8s1,0.4,1,1.2
			c0,0.7-0.5,1.3-1.1,1.3c-0.1,0-0.1,0-0.2,0c-0.7,0.1-1.4-0.4-1.5-1.1c0-0.1,0-0.3,0-0.4h0.7c0,0.5,0.1,1,0.8,1
			c0.4,0,0.7-0.3,0.7-0.6v-0.1c0-0.6-0.5-0.7-1-0.9s-1-0.3-1-1.2c0-0.7,0.5-1.2,1.2-1.2c0.1,0,0.1,0,0.2,0c1.2,0,1.3,0.9,1.3,1.3"/>
		<path class="st0" d="M110.1,61.7h0.7V63h0.7v0.5h-0.7v2.7c0,0.3,0.1,0.5,0.4,0.5h0.3v0.6c-0.2,0-0.4,0-0.5,0
			c-0.7,0-0.9-0.3-0.9-0.8v-2.9h-0.6V63h0.6"/>
		<path class="st0" d="M111.9,64.2c0-1,0.4-1.4,1.4-1.4c1.3,0,1.3,0.8,1.3,1.2v2.4c0,0.2,0,0.3,0.2,0.3c0,0,0.1,0,0.2,0v0.5
			c-0.1,0-0.3,0-0.4,0c-0.2,0-0.6,0-0.6-0.5l0,0c-0.2,0.4-0.6,0.6-1,0.6c-0.6,0.1-1.1-0.4-1.2-1c0-0.1,0-0.2,0-0.3
			c-0.1-0.5,0.3-1,0.8-1.2l0.9-0.3c0.5-0.2,0.5-0.3,0.5-0.6c0-0.3-0.2-0.6-0.5-0.6h-0.1c-0.4,0-0.7,0.3-0.7,0.7v0.1l0,0 M114,64.9
			c-0.2,0.3-0.8,0.3-1.1,0.5c-0.2,0.1-0.4,0.4-0.3,0.7c0,0.4,0.2,0.7,0.6,0.7c0.5,0,0.8-0.3,0.9-0.8L114,64.9L114,64.9z"/>
		<path class="st0" d="M115.5,63h0.6v0.5l0,0c0.2-0.4,0.6-0.6,1-0.6c1.1,0,1.1,0.8,1.1,1.3v3h-0.7v-3c0-0.3,0-0.9-0.6-0.9
			c-0.5,0-0.8,0.4-0.8,0.8c0,0,0,0,0,0.1v2.9h-0.7"/>
		<path class="st0" d="M121.2,64.2c0-0.4-0.2-0.9-0.7-0.9s-0.8,0.2-0.8,1.8c0,0.6,0,1.7,0.8,1.7c0.6,0,0.7-0.6,0.7-1.1h0.7
			c0.1,0.8-0.5,1.5-1.3,1.6h-0.1c-1,0-1.5-0.7-1.5-2.2c0-1.1,0.2-2.3,1.5-2.3c0.7,0,1.3,0.5,1.4,1.2c0,0.1,0,0.1,0,0.2"/>
		<path class="st0" d="M123.1,65.2c0,0.7,0,1.6,0.8,1.6c0.6,0,0.7-0.7,0.7-1h0.7c0,0.8-0.6,1.5-1.4,1.5c0,0,0,0-0.1,0
			c-1,0-1.5-0.7-1.5-2.2c0-1.1,0.2-2.3,1.5-2.3s1.4,1.1,1.4,2v0.3 M124.6,64.6v-0.2c0-0.5-0.2-1-0.7-1s-0.8,0.9-0.8,1.1v0.2
			L124.6,64.6z"/>
		<path class="st0" d="M127.9,64.2c0-0.5-0.2-0.8-0.6-0.8c-0.3,0-0.6,0.2-0.7,0.5V64c0,0.5,0.5,0.6,1,0.8s1,0.4,1,1.2
			c0.1,0.7-0.5,1.3-1.1,1.3c-0.1,0-0.2,0-0.2,0c-0.7,0.1-1.4-0.4-1.5-1.1c0-0.1,0-0.3,0-0.4h0.7c0,0.5,0.1,1,0.8,1
			c0.4,0,0.7-0.3,0.7-0.6v-0.1c0-0.6-0.5-0.7-1-0.9s-1-0.3-1-1.2c0-0.9,0.6-1.2,1.3-1.2c1.2,0,1.3,0.9,1.3,1.3"/>
		<rect x="129.4" y="66.4" class="st0" width="0.7" height="0.8"/>
		<polyline class="st0" points="33.8,72.5 34.5,72.5 35.2,75.9 35.2,75.9 35.9,72.5 36.7,72.5 37.4,75.9 37.4,75.9 38.1,72.5 
			38.8,72.5 37.8,76.7 37,76.7 36.3,73.2 36.3,73.2 35.6,76.7 34.8,76.7 		"/>
		<polyline class="st0" points="38.9,72.5 39.6,72.5 40.3,75.9 40.3,75.9 41,72.5 41.8,72.5 42.5,75.9 42.5,75.9 43.2,72.5 
			43.9,72.5 42.9,76.7 42.2,76.7 41.4,73.2 41.4,73.2 40.7,76.7 39.9,76.7 		"/>
		<polyline class="st0" points="44.1,72.5 44.8,72.5 45.4,75.9 45.5,75.9 46.2,72.5 47,72.5 47.7,75.9 47.7,75.9 48.3,72.5 49,72.5 
			48,76.7 47.3,76.7 46.6,73.2 46.5,73.2 45.8,76.7 45.1,76.7 		"/>
		<rect x="49.4" y="75.9" class="st0" width="0.7" height="0.8"/>
		<path class="st0" d="M52.5,72.4c1.2,0,1.5,1,1.5,2.2s-0.3,2.2-1.5,2.2s-1.5-1-1.5-2.2S51.3,72.4,52.5,72.4 M53.4,74.6
			c0-0.9-0.1-1.7-0.8-1.7s-0.8,0.8-0.8,1.7s0.1,1.7,0.8,1.7S53.4,75.5,53.4,74.6"/>
		<path class="st0" d="M55.2,74.7c0,0.6,0,1.6,0.8,1.6c0.6,0,0.7-0.7,0.7-1h0.7c0,0.8-0.6,1.5-1.4,1.5h-0.1c-1,0-1.5-0.7-1.5-2.2
			c0-1.1,0.2-2.3,1.5-2.3s1.4,1.1,1.4,2.1v0.3 M56.8,74.2V74c0-0.5-0.2-1-0.7-1s-0.8,0.8-0.8,1.1v0.2L56.8,74.2z"/>
		<polyline class="st0" points="61.4,76.7 60.6,76.7 59.4,74.6 58.9,75.3 58.9,76.7 58.2,76.7 58.2,71.1 58.9,71.1 58.9,74.4 
			58.9,74.4 60.4,72.5 61.2,72.5 59.9,74.1 		"/>
		<path class="st0" d="M63,72.4c1.2,0,1.5,1,1.5,2.2s-0.3,2.2-1.5,2.2s-1.5-1-1.5-2.2S61.8,72.4,63,72.4 M63.9,74.6
			c0-0.9-0.1-1.7-0.8-1.7s-0.8,0.8-0.8,1.7s0.1,1.7,0.8,1.7S63.9,75.5,63.9,74.6"/>
		<rect x="65.2" y="74.2" class="st0" width="1.9" height="0.6"/>
		<path class="st0" d="M68.2,71.2h0.7v1.2h0.7V73h-0.7v2.7c0,0.3,0.1,0.5,0.4,0.5c0.1,0,0.2,0,0.3,0v0.6c-0.2,0-0.4,0-0.5,0.1
			c-0.7,0-0.8-0.3-0.8-0.8v-3h-0.6v-0.5h0.6"/>
		<path class="st0" d="M70.7,74.7c0,0.6,0,1.6,0.8,1.6c0.6,0,0.7-0.7,0.7-1h0.7c0,0.8-0.6,1.5-1.4,1.5c0,0,0,0-0.1,0
			c-1,0-1.5-0.7-1.5-2.2c0-1.1,0.2-2.3,1.5-2.3s1.4,1.1,1.4,2.1v0.3 M72.2,74.1v-0.2c0-0.5-0.2-1-0.7-1s-0.8,0.8-0.8,1.1v0.2
			L72.2,74.1z"/>
		<polyline class="st0" points="73.3,72.5 74,72.5 74.8,74 75.6,72.5 76.3,72.5 75.2,74.5 76.3,76.7 75.6,76.7 74.8,75 73.9,76.7 
			73.2,76.7 74.4,74.5 		"/>
		<rect x="77" y="75.9" class="st0" width="0.7" height="0.8"/>
		<path class="st0" d="M80.8,73.8c0-0.4-0.2-0.9-0.7-0.9s-0.8,0.2-0.8,1.8c0,0.6,0,1.7,0.8,1.7c0.6,0,0.7-0.6,0.7-1.1h0.7
			c0.1,0.8-0.5,1.5-1.3,1.6h-0.1c-1,0-1.5-0.7-1.5-2.2c0-1.1,0.2-2.3,1.5-2.3c0.7,0,1.3,0.5,1.4,1.2c0,0.1,0,0.1,0,0.2"/>
		<path class="st0" d="M83.4,72.4c1.2,0,1.5,1,1.5,2.2s-0.3,2.2-1.5,2.2s-1.5-1-1.5-2.2S82.2,72.4,83.4,72.4 M84.3,74.6
			c0-0.9-0.1-1.7-0.8-1.7s-0.8,0.8-0.8,1.7s0.1,1.7,0.8,1.7S84.3,75.5,84.3,74.6"/>
		<path class="st0" d="M85.7,72.5h0.6V73l0,0c0.2-0.4,0.6-0.6,1-0.6s0.8,0.2,0.9,0.7c0.2-0.4,0.6-0.7,1-0.7c1.1,0,1.1,0.8,1.1,1.3v3
			h-0.7v-3c0-0.3,0-0.8-0.6-0.8c-0.4,0-0.8,0.3-0.8,0.8v0.1v2.9h-0.7v-2.9c0-0.3,0-0.8-0.6-0.8c-0.4,0-0.8,0.3-0.8,0.8v0.1v2.9h-0.6
			"/>
		<polygon class="st0" points="92.7,71 93.2,71 91.4,76.8 90.8,76.8 		"/>
		<path class="st0" d="M95.4,73.7c0-0.5-0.1-0.8-0.6-0.8c-0.3,0-0.6,0.2-0.7,0.5v0.1c0,0.5,0.5,0.6,1,0.8s1,0.3,1,1.2
			c0.1,0.7-0.5,1.3-1.1,1.3c-0.1,0-0.2,0-0.2,0c-0.7,0.1-1.4-0.4-1.5-1.1c0-0.1,0-0.3,0-0.4H94c0,0.5,0.1,1,0.8,1
			c0.4,0,0.7-0.3,0.7-0.6c0,0,0,0,0-0.1c0-0.6-0.5-0.7-1-0.9s-1-0.3-1-1.2c0-0.7,0.5-1.2,1.2-1.2h0.1c1.2,0,1.3,0.9,1.3,1.4"/>
		<path class="st0" d="M97,71.2h0.7v1.2h0.7V73h-0.7v2.7c0,0.3,0.1,0.5,0.4,0.5c0.1,0,0.2,0,0.3,0v0.6c-0.2,0-0.4,0-0.5,0.1
			c-0.7,0-0.8-0.3-0.8-0.8v-3h-0.6v-0.5H97"/>
		<path class="st0" d="M98.7,73.8c0-1,0.4-1.4,1.4-1.4c1.3,0,1.3,0.8,1.3,1.2V76c0,0.2,0,0.3,0.2,0.3c0,0,0.1,0,0.2,0v0.5
			c-0.1,0-0.3,0-0.4,0.1c-0.3,0-0.6,0-0.6-0.6l0,0c-0.2,0.4-0.6,0.6-1,0.6c-0.6,0.1-1.1-0.4-1.2-1c0-0.1,0-0.2,0-0.2
			c-0.1-0.5,0.3-1,0.8-1.2l0.9-0.3c0.5-0.2,0.5-0.3,0.5-0.7s-0.2-0.6-0.7-0.6c-0.4,0-0.7,0.3-0.7,0.7v0.1l0,0 M100.8,74.4
			c-0.2,0.3-0.8,0.3-1.1,0.5c-0.2,0.1-0.4,0.4-0.3,0.7c0,0.4,0.2,0.7,0.6,0.7c0.5,0,0.8-0.4,0.9-0.8L100.8,74.4L100.8,74.4z"/>
		<path class="st0" d="M102.4,72.5h0.6V73l0,0c0.2-0.4,0.6-0.6,1-0.6c1.1,0,1.1,0.8,1.1,1.3v3h-0.7v-3c0-0.3,0-0.8-0.6-0.8
			c-0.4,0-0.8,0.3-0.8,0.8c0,0,0,0,0,0.1v2.9h-0.7"/>
		<path class="st0" d="M108.8,76.7h-0.6v-0.5l0,0c-0.1,0.4-0.5,0.6-0.9,0.6c-1,0-1.4-0.9-1.4-2.2c0-0.9,0.1-2.2,1.3-2.2
			c0.4,0,0.8,0.2,0.9,0.6l0,0v-1.9h0.7 M107.3,76.3c0.7,0,0.9-0.7,0.9-1.7s-0.1-1.7-0.9-1.7s-0.8,0.7-0.8,1.7S106.7,76.3,107.3,76.3
			"/>
		<path class="st0" d="M109.6,73.8c0-1,0.4-1.4,1.4-1.4c1.3,0,1.3,0.8,1.3,1.2V76c0,0.2,0,0.3,0.2,0.3c0,0,0.1,0,0.2,0v0.5
			c-0.1,0-0.3,0-0.4,0.1c-0.2,0-0.6,0-0.6-0.6l0,0c-0.2,0.4-0.6,0.6-1,0.6c-0.6,0.1-1.1-0.4-1.2-1c0-0.1,0-0.2,0-0.2
			c-0.1-0.5,0.3-1,0.8-1.2l0.9-0.3c0.5-0.2,0.5-0.3,0.5-0.7s-0.2-0.6-0.7-0.6c-0.4,0-0.7,0.3-0.7,0.7v0.1l0,0 M111.7,74.4
			c-0.2,0.3-0.8,0.3-1.1,0.5c-0.2,0.1-0.4,0.4-0.3,0.7c0,0.4,0.2,0.7,0.6,0.7c0.5,0,0.8-0.4,0.9-0.8L111.7,74.4L111.7,74.4z"/>
		<path class="st0" d="M113.2,72.5h0.7v0.6l0,0c0.2-0.4,0.4-0.8,0.9-0.8c0.1,0,0.2,0,0.3,0.1V73c-0.1,0-0.2,0-0.4,0
			c-0.5,0-0.9,0.5-0.9,1v2.7h-0.7"/>
		<path class="st0" d="M118.4,76.7h-0.6v-0.5l0,0c-0.2,0.4-0.5,0.6-0.9,0.6c-1,0-1.4-0.9-1.4-2.2c0-0.9,0.1-2.2,1.3-2.2
			c0.4,0,0.8,0.2,0.9,0.6l0,0v-1.9h0.7 M116.9,76.3c0.7,0,0.8-0.7,0.8-1.7s-0.1-1.7-0.8-1.7s-0.8,0.7-0.8,1.7S116.3,76.3,116.9,76.3
			"/>
		<path class="st0" d="M119.3,72c0.7,0,1.3-0.1,1.4-0.9h0.5v5.6h-0.7v-4.2h-1.2"/>
		<path class="st0" d="M122.9,74c0-1.2,0.1-2.9,1.6-2.9s1.6,1.5,1.6,2.9c0,1.2-0.1,2.8-1.6,2.8S122.9,75.3,122.9,74 M124.5,76.3
			c0.9,0,0.9-1.1,0.9-2.3s0-2.4-0.9-2.4s-0.9,1.1-0.9,2.4S123.7,76.3,124.5,76.3"/>
		<path class="st0" d="M126.7,74c0-1.2,0.1-2.9,1.6-2.9c1.5,0,1.6,1.5,1.6,2.9c0,1.2-0.1,2.8-1.6,2.8S126.7,75.3,126.7,74
			 M128.3,76.3c0.9,0,0.9-1.1,0.9-2.3s-0.1-2.4-0.9-2.4s-0.9,1.1-0.9,2.4S127.4,76.3,128.3,76.3"/>
		<rect x="0.5" y="0.5" class="st1" width="164" height="85"/>
		<path class="st0" d="M38.1,27.2L38.1,27.2c-0.2,0.1-0.3,0.2-0.3,0.2c-0.1,0-0.2,0.1-0.4,0.1s-0.3,0-0.5,0c-0.3,0-0.7,0-1-0.2
			c-0.3-0.1-0.5-0.3-0.7-0.5s-0.3-0.5-0.4-0.8c-0.1-0.3-0.1-0.7-0.1-1s0-0.7,0.1-1s0.2-0.5,0.4-0.8c0.2-0.2,0.4-0.4,0.7-0.5
			s0.6-0.2,0.9-0.2c0.2,0,0.3,0,0.5,0l0.4,0.1c0.1,0,0.2,0.1,0.3,0.1s0.1,0.1,0.2,0.1l0.1,0.1c0,0.1,0,0.1,0,0.2s0,0.2-0.1,0.3
			c-0.1,0.1-0.1,0.2-0.2,0.2c-0.1-0.1-0.1-0.1-0.2-0.2c-0.1-0.1-0.1-0.1-0.2-0.1c-0.1,0-0.2-0.1-0.3-0.1s-0.2,0-0.4,0
			c-0.4,0-0.8,0.2-1,0.5c-0.1,0.2-0.2,0.3-0.2,0.5s-0.1,0.4-0.1,0.6s0,0.4,0.1,0.6c0,0.2,0.1,0.4,0.2,0.5c0.1,0.1,0.2,0.3,0.4,0.4
			s0.4,0.1,0.6,0.1c0.1,0,0.2,0,0.4,0l0.3-0.1l0.2-0.1l0.2-0.1l0.1,0.1l0.1,0.1l0.1,0.1v0.1v0.1C38.1,27,38.1,27.1,38.1,27.2"/>
		<path class="st0" d="M43.7,25.2c0,0.3,0,0.6-0.1,0.9s-0.2,0.5-0.4,0.8c-0.2,0.2-0.4,0.4-0.7,0.5c-0.6,0.3-1.3,0.3-1.9,0
			c-0.3-0.1-0.5-0.3-0.6-0.5c-0.2-0.2-0.3-0.5-0.4-0.8c-0.1-0.3-0.1-0.6-0.1-0.9s0-0.6,0.1-0.9s0.2-0.5,0.4-0.8
			c0.2-0.2,0.4-0.4,0.7-0.5s0.6-0.2,1-0.2c0.3,0,0.6,0.1,0.9,0.2c0.2,0.1,0.5,0.3,0.6,0.5c0.2,0.2,0.3,0.5,0.4,0.8
			C43.7,24.5,43.7,24.8,43.7,25.2 M42.7,25.2c0-0.2,0-0.4-0.1-0.6c0-0.2-0.1-0.4-0.1-0.5c-0.1-0.1-0.2-0.3-0.3-0.4
			c-0.2-0.1-0.3-0.1-0.5-0.1s-0.4,0-0.5,0.1s-0.3,0.2-0.3,0.4c-0.1,0.2-0.2,0.3-0.2,0.5c-0.1,0.4-0.1,0.8,0,1.3
			c0,0.2,0.1,0.4,0.2,0.5c0.1,0.2,0.2,0.3,0.3,0.4c0.3,0.2,0.7,0.2,1,0c0.1-0.1,0.3-0.2,0.3-0.4c0.1-0.2,0.2-0.4,0.2-0.5
			C42.7,25.6,42.7,25.4,42.7,25.2"/>
		<path class="st0" d="M49,27.5h-0.8l-2-3v3h-0.9v-4.6h0.2h0.2c0.1,0,0.2,0,0.3,0.1s0.2,0.1,0.2,0.2L48,26v-3.1h0.2h0.1
			c0.1,0,0.1,0,0.2,0c0.1,0,0.1,0,0.2,0.1c0.1,0,0.1,0.1,0.1,0.2s0.1,0.2,0.1,0.3"/>
		<path class="st0" d="M51.8,24.7h1.5v0.7h-1.5v2.1h-0.9v-4.6h2.9V23v0.1c0,0.1,0,0.2-0.1,0.3c-0.1,0.1-0.3,0.2-0.4,0.1h-1.4"/>
		<path class="st0" d="M55.2,22.9h0.2h0.1c0.1,0,0.1,0,0.2,0c0.1,0,0.1,0,0.2,0.1c0.1,0,0.1,0.1,0.2,0.2c0,0.1,0.1,0.2,0.1,0.3v4.1
			h-0.9"/>
		<path class="st0" d="M61.7,25.1c0,0.3,0,0.6-0.1,0.9s-0.2,0.5-0.4,0.8c-0.2,0.2-0.4,0.4-0.7,0.5s-0.7,0.2-1,0.2H58v-4.6
			c0.2,0,0.5-0.1,0.8-0.1h0.5c0.4,0,0.8,0.1,1.1,0.2s0.5,0.3,0.7,0.5s0.3,0.5,0.4,0.7C61.6,24.5,61.7,24.8,61.7,25.1 M60.7,25.1
			c0-0.2,0-0.4-0.1-0.6c0-0.2-0.1-0.3-0.2-0.5c-0.1-0.1-0.2-0.3-0.4-0.3c-0.2-0.1-0.4-0.1-0.7-0.1h-0.4v3.2h0.4c0.2,0,0.5,0,0.7-0.1
			s0.3-0.2,0.4-0.3c0.1-0.2,0.2-0.3,0.2-0.5C60.6,25.5,60.7,25.3,60.7,25.1"/>
		<path class="st0" d="M65.7,26.7c0.2,0,0.3,0,0.4,0.1s0.1,0.2,0.1,0.3v0.1v0.1h-3v-4.6h2.9v0.1v0.1c0,0.1,0,0.3-0.1,0.4
			s-0.3,0.1-0.5,0.1h-1.3v1.1h1.4v0.7h-1.4v1.3"/>
		<path class="st0" d="M71.4,27.5h-0.8l-2-3v3h-0.9v-4.6h0.2h0.2c0.1,0,0.2,0,0.3,0.1c0.1,0.1,0.2,0.1,0.2,0.2l1.8,2.8v-3.1h0.2h0.1
			c0.1,0,0.1,0,0.2,0s0.1,0,0.2,0.1c0.1,0,0.1,0.1,0.1,0.2s0.1,0.2,0.1,0.3"/>
		<path class="st0" d="M76.6,27.2l-0.1,0.1c-0.1,0-0.2,0.1-0.2,0.1c-0.1,0.1-0.2,0.1-0.4,0.1c-0.2,0-0.3,0-0.5,0c-0.3,0-0.7,0-1-0.2
			c-0.3-0.1-0.5-0.3-0.7-0.5s-0.3-0.5-0.4-0.8s-0.1-0.7-0.1-1s0-0.7,0.1-1s0.2-0.5,0.4-0.8c0.2-0.2,0.4-0.4,0.7-0.5
			c0.3-0.1,0.7-0.2,1-0.2c0.2,0,0.3,0,0.5,0l0.4,0.1c0.1,0,0.2,0.1,0.3,0.1c0.1,0,0.1,0.1,0.2,0.1l0.1,0.1c0,0.1,0,0.1,0,0.2
			s0,0.2-0.1,0.3L76.4,24c-0.1-0.1-0.1-0.1-0.2-0.2s-0.1-0.1-0.2-0.1l-0.3-0.1c-0.1,0-0.2,0-0.4,0c-0.2,0-0.4,0-0.6,0.1
			s-0.3,0.2-0.4,0.4c-0.1,0.2-0.2,0.3-0.2,0.5S74,25,74,25.2s0,0.4,0.1,0.6c0,0.2,0.1,0.4,0.2,0.5c0.1,0.2,0.2,0.3,0.4,0.4
			c0.2,0.1,0.4,0.1,0.6,0.1c0.1,0,0.2,0,0.3,0c0.1,0,0.2-0.1,0.3-0.1c0.1,0,0.2-0.1,0.2-0.1c0.1,0,0.1-0.1,0.2-0.1l0.1,0.1l0.1,0.1
			l0.1,0.1v0.1V27C76.6,27.2,76.6,27.2,76.6,27.2"/>
		<path class="st0" d="M80.8,26.7c0.2,0,0.3,0,0.4,0.1s0.1,0.2,0.1,0.3v0.1v0.1h-3v-4.6h2.9v0.1v0.1c0,0.1,0,0.3-0.1,0.4
			s-0.3,0.1-0.5,0.1h-1.3v1.1h1.4v0.7h-1.4v1.3"/>
		<path class="st0" d="M85.3,22.9h0.2h0.1c0.1,0,0.1,0,0.2,0s0.3,0.1,0.3,0.2s0.1,0.2,0.1,0.3v4.1h-0.9"/>
		<path class="st0" d="M91.7,27.5h-0.8l-2-3v3H88v-4.6h0.2h0.2c0.1,0,0.2,0,0.3,0.1c0.1,0.1,0.2,0.1,0.2,0.2l1.8,2.8v-3.1H91h0.1
			c0.1,0,0.1,0,0.2,0s0.1,0,0.2,0.1c0.1,0,0.1,0.1,0.2,0.2c0,0.1,0,0.2,0,0.3"/>
		<path class="st0" d="M97,23.6h-1.4v-0.1v-0.1c0-0.1,0-0.3,0.1-0.4s0.3-0.2,0.4-0.1h3.2c0,0.1,0,0.2,0,0.3c0,0.1,0,0.2-0.1,0.3
			c-0.1,0.1-0.3,0.2-0.4,0.2H98v3.8h-1"/>
		<path class="st0" d="M103.2,26.7c0.2,0,0.3,0,0.4,0.1s0.1,0.2,0.1,0.3v0.1v0.1h-3v-4.6h2.9v0.1v0.1c0,0.1,0,0.3-0.1,0.4
			s-0.3,0.1-0.5,0.1h-1.3v1.1h1.4v0.7h-1.4v1.3"/>
		<path class="st0" d="M106.8,26l-0.8,1.5h-1l1.4-2.3l-1.3-2.2l0.3-0.1c0.1,0,0.2,0,0.3,0c0.2,0,0.4,0.1,0.6,0.3l0.7,1.2l0.7-1.2
			c0.1-0.1,0.2-0.2,0.3-0.3c0.1-0.1,0.2-0.1,0.4-0.1c0.1,0,0.2,0,0.3,0c0.1,0,0.2,0.1,0.2,0.1l-1.3,2.2l1.3,2.3
			c-0.1,0-0.2,0.1-0.3,0.1c-0.1,0-0.2,0-0.3,0c-0.1,0-0.3,0-0.4-0.1s-0.2-0.2-0.3-0.3"/>
		<path class="st0" d="M111.3,23.6h-1.4v-0.1v-0.1c0-0.1,0-0.2,0.1-0.3c0.1-0.1,0.3-0.2,0.4-0.1h3.2c0,0.1,0,0.2,0,0.3
			c0,0.1,0,0.2-0.1,0.3c-0.1,0.1-0.3,0.2-0.4,0.2h-0.9v3.8h-0.9"/>
		<path class="st0" d="M115,22.9h0.2h0.1c0.1,0,0.1,0,0.2,0s0.1,0,0.2,0.1c0.1,0,0.1,0.1,0.2,0.2c0,0.1,0.1,0.2,0.1,0.3v4.1h-1"/>
		<path class="st0" d="M118.7,26.7h1.3c0.1,0,0.2,0,0.3,0c0.1,0,0.1,0.1,0.2,0.1c0,0,0.1,0.1,0.1,0.2s0,0.1,0,0.2v0.2v0.1h-2.8v-4.6
			h0.2h0.1c0.1,0,0.1,0,0.2,0s0.1,0,0.2,0.1c0.1,0,0.1,0.1,0.2,0.2c0,0.1,0,0.2,0,0.3"/>
		<path class="st0" d="M124.6,26.7c0.2,0,0.3,0,0.4,0.1s0.2,0.3,0.1,0.5v0.1h-3v-4.6h2.8v0.1V23c0,0.1,0,0.3-0.1,0.4
			s-0.3,0.1-0.5,0.1H123v1.1h1.4v0.7H123v1.3"/>
		<path class="st0" d="M126.7,26.4c0.2,0.1,0.3,0.2,0.5,0.3c0.2,0.1,0.4,0.1,0.7,0.1c0.1,0,0.2,0,0.3,0s0.2-0.1,0.2-0.1
			c0.1-0.1,0.1-0.1,0.2-0.2c0-0.1,0.1-0.2,0.1-0.3c0-0.1,0-0.2-0.1-0.3c-0.1-0.1-0.1-0.2-0.2-0.2c-0.1-0.1-0.2-0.1-0.3-0.1l-0.3-0.1
			l-0.4-0.2c-0.1-0.1-0.3-0.1-0.4-0.2s-0.2-0.2-0.3-0.4c-0.1-0.2-0.1-0.4-0.1-0.6s0-0.4,0.1-0.6s0.2-0.3,0.3-0.4
			c0.2-0.1,0.3-0.2,0.5-0.2c0.2-0.1,0.4-0.1,0.6-0.1c0.1,0,0.3,0,0.4,0l0.4,0.1l0.3,0.1c0.1,0,0.1,0.1,0.2,0.1
			c0.1,0.1,0.2,0.2,0.2,0.3c0,0.1,0,0.2-0.1,0.2c-0.1,0.1-0.1,0.2-0.2,0.3c-0.1-0.1-0.3-0.2-0.4-0.3c-0.2-0.1-0.4-0.1-0.6-0.1h-0.2
			c-0.1,0-0.2,0-0.2,0.1c-0.1,0-0.1,0.1-0.2,0.2c-0.1,0.2-0.1,0.3,0,0.5c0.1,0.1,0.1,0.1,0.2,0.2s0.2,0.1,0.3,0.1l0.3,0.1l0.4,0.2
			c0.1,0.1,0.3,0.1,0.4,0.2c0.1,0.1,0.2,0.2,0.3,0.4c0.1,0.2,0.1,0.4,0.1,0.6s0,0.4-0.1,0.6c-0.2,0.4-0.5,0.7-0.9,0.8
			c-0.2,0.1-0.5,0.1-0.7,0.1c-0.3,0-0.5,0-0.8-0.1c-0.2,0-0.3-0.1-0.4-0.2c-0.1,0-0.1-0.1-0.1-0.1c0-0.1,0-0.1,0-0.2s0-0.2,0.1-0.3
			C126.6,26.6,126.6,26.5,126.7,26.4"/>
		<path class="st0" d="M44.8,12.3c0,0.8-0.1,1.7-0.3,2.5c-0.2,0.7-0.5,1.4-1,2.1c-0.5,0.6-1.1,1.1-1.7,1.4c-0.8,0.4-1.7,0.5-2.6,0.5
			c-0.9,0-1.7-0.2-2.5-0.5c-0.6-0.3-1.2-0.8-1.6-1.4c-0.5-0.6-0.8-1.3-1-2c-0.2-0.8-0.3-1.6-0.3-2.5c0-0.8,0.1-1.7,0.3-2.5
			c0.2-0.7,0.5-1.4,1-2c0.5-0.6,1.1-1.1,1.8-1.4c1.6-0.7,3.4-0.7,5,0c0.7,0.3,1.2,0.8,1.7,1.3c0.5,0.6,0.8,1.3,1,2
			C44.7,10.6,44.8,11.5,44.8,12.3 M42.2,12.3c0-0.6-0.1-1.1-0.2-1.7c-0.1-0.5-0.2-1-0.5-1.4c-0.2-0.4-0.5-0.7-0.9-0.9
			C40.2,8.1,39.8,8,39.3,8s-1,0.1-1.4,0.3S37.2,8.9,37,9.2c-0.3,0.4-0.4,0.9-0.5,1.4s-0.2,1.1-0.2,1.7c0,0.6,0,1.1,0.1,1.7
			c0.1,0.5,0.3,1,0.5,1.4s0.5,0.7,0.9,1c0.9,0.5,1.9,0.5,2.8,0c0.4-0.3,0.7-0.6,0.9-1c0.2-0.5,0.4-0.9,0.5-1.4
			C42.1,13.4,42.2,12.9,42.2,12.3"/>
		<path class="st0" d="M53.4,16.5c0.4-0.1,0.9,0.1,1.2,0.4c0.2,0.3,0.3,0.6,0.3,0.9c0,0.1,0,0.2,0,0.3c0,0.1,0,0.2,0,0.3h-8V6.2h7.6
			c0,0.1,0,0.2,0,0.3c0,0.1,0,0.2,0,0.3c0,0.4-0.1,0.7-0.3,1c-0.3,0.3-0.8,0.4-1.2,0.3h-3.6v3h3.9V13h-3.9v3.4"/>
		<path class="st0" d="M56.5,6.2L57,6.1h0.4c0.2,0,0.4,0,0.6,0.1c0.2,0,0.4,0.1,0.5,0.2c0.2,0.1,0.3,0.3,0.4,0.4
			C59,7,59.1,7.3,59.1,7.6V12c0-0.3,0.1-0.6,0.2-0.8c0.1-0.3,0.3-0.5,0.5-0.8l2.5-3.3c0.2-0.3,0.5-0.6,0.8-0.8
			c0.3-0.1,0.6-0.2,0.9-0.2s0.6,0,0.9,0.2c0.2,0.1,0.4,0.2,0.6,0.4l-4,5.4l4.6,6.2c-0.4,0.3-0.9,0.4-1.4,0.4c-0.8,0-1.5-0.3-2-1
			L60,14.2c-0.2-0.3-0.4-0.6-0.6-0.9c-0.2-0.3-0.3-0.6-0.3-1v6.2h-2.5"/>
		<path class="st0" d="M77.1,12.3c0,0.8-0.1,1.7-0.3,2.5c-0.2,0.7-0.5,1.4-1,2.1c-0.5,0.6-1.1,1.1-1.7,1.4c-0.8,0.4-1.7,0.5-2.6,0.5
			s-1.7-0.2-2.5-0.5c-0.7-0.3-1.3-0.8-1.7-1.4c-0.5-0.6-0.8-1.3-1-2C66.1,14,66,13.1,66,12.3s0.1-1.6,0.3-2.4c0.2-0.7,0.5-1.4,1-2
			c0.5-0.6,1.1-1.1,1.8-1.4C69.9,6.1,70.8,6,71.6,6c0.9,0,1.7,0.2,2.5,0.5c0.7,0.3,1.2,0.8,1.7,1.3c0.5,0.6,0.8,1.3,1,2
			C77,10.6,77.1,11.4,77.1,12.3 M74.5,12.3c0-0.6,0-1.1-0.1-1.7c-0.1-0.5-0.3-1-0.5-1.4S73.4,8.5,73,8.3C72.6,8.1,72.1,8,71.7,8
			c-0.5,0-1,0.1-1.4,0.3s-0.7,0.6-0.9,0.9c-0.2,0.4-0.4,0.9-0.5,1.4s-0.2,1.1-0.2,1.7c0,0.6,0.1,1.1,0.2,1.7c0.1,0.5,0.3,1,0.5,1.4
			s0.5,0.8,0.9,1c0.4,0.3,0.9,0.4,1.4,0.4s1-0.1,1.4-0.4s0.7-0.6,0.9-1c0.2-0.5,0.4-0.9,0.5-1.4C74.5,13.4,74.6,12.9,74.5,12.3"/>
		<path class="st0" d="M80.5,14.3c-0.9,0-1.3-0.4-1.3-1.1c0-0.3,0-0.5,0.1-0.8h4.6c0.3,0,0.7,0,1,0.2c0.3,0.1,0.4,0.4,0.4,1V14v0.4"
			/>
		<path class="st0" d="M88.5,8.2h-3.8l0,0c0-0.1,0-0.2,0-0.4c0-0.1,0-0.2,0-0.3c0-0.3,0.1-0.7,0.3-0.9c0.3-0.3,0.8-0.5,1.2-0.4h8.6
			c0,0.3,0,0.5,0,0.8s-0.1,0.6-0.3,0.9c-0.3,0.3-0.7,0.4-1.2,0.4H91v10.2h-2.5"/>
		<path class="st0" d="M102.7,16.5c0.4-0.1,0.9,0.1,1.2,0.4c0.2,0.3,0.3,0.6,0.3,0.9v0.3c0,0.1,0,0.2,0,0.3h-8V6.2h7.6
			c0,0.1,0,0.2,0,0.3c0,0.1,0,0.2,0,0.3c0,0.4-0.1,0.7-0.3,1c-0.4,0.3-0.8,0.4-1.2,0.3h-3.5v3h3.9V13h-3.9v3.4"/>
		<path class="st0" d="M109.9,14.4l-2.3,4.1h-2.7l3.6-6.1l-3.2-5.8c0.2-0.1,0.5-0.2,0.8-0.3c0.3-0.1,0.5-0.1,0.8-0.1
			c0.6,0,1.2,0.3,1.5,0.9l1.8,3.3l1.8-3.1c0.2-0.3,0.4-0.6,0.7-0.8c0.3-0.2,0.6-0.3,1-0.2c0.2,0,0.5,0,0.7,0.1s0.4,0.2,0.7,0.3
			l-3.4,5.8l3.6,6.1c-0.2,0.1-0.5,0.2-0.8,0.2c-0.2,0-0.5,0.1-0.7,0.1c-0.4,0-0.8-0.1-1.1-0.3c-0.3-0.2-0.5-0.5-0.7-0.8"/>
		<path class="st0" d="M124.2,7.4c2.7,0,4.9,2.2,4.9,4.9s-2.2,4.9-4.9,4.9s-4.9-2.2-4.9-4.9l0,0C119.3,9.6,121.5,7.4,124.2,7.4
			 M124.2,5.9c-3.6,0-6.5,2.9-6.5,6.5s2.9,6.5,6.5,6.5s6.5-2.9,6.5-6.5S127.8,5.9,124.2,5.9L124.2,5.9"/>
		<path class="st0" d="M126.6,10.9c0,0.2,0,0.5-0.1,0.7c-0.1,0.4-0.3,0.7-0.7,0.9c-0.1,0.1-0.3,0.2-0.4,0.2l1.6,2.6
			c-0.1,0.1-0.3,0.1-0.4,0.1s-0.3,0-0.4,0.1c-0.2,0-0.4-0.1-0.6-0.2c-0.2-0.1-0.3-0.3-0.4-0.5l-1.1-1.8h-0.5v2.4h-1.3V9.1
			c0.3,0,0.6-0.1,0.9-0.1s0.6,0,0.8,0c0.7-0.1,1.4,0.1,2,0.5C126.4,9.8,126.6,10.3,126.6,10.9 M125.2,11c0-0.3-0.1-0.6-0.3-0.8
			c-0.3-0.2-0.5-0.3-0.8-0.2h-0.3c-0.1,0-0.1,0-0.2,0v2.2h0.5c0.3,0,0.6-0.1,0.9-0.3C125.1,11.6,125.2,11.3,125.2,11"/>
		<path class="st0" d="M147.4,50.2c-1.1,0-2-0.9-2-2c0.1-1.1,0.8-2.2,1.8-2.8l-0.3-0.4c-0.5,0.1-1.1,0.1-1.6,0s-1-0.1-1.4-0.1
			c0.2,0.9,0,1.9-0.4,2.8c-0.6,0.9-1.8,1.3-2.7,0.7s-1.3-1.8-0.7-2.7c0.7-0.9,1.8-1.5,2.9-1.5c0-0.2,0-0.4-0.1-0.6
			c-0.5-0.2-1-0.4-1.4-0.8c-0.4-0.3-0.8-0.6-1.2-0.8c-0.3,0.9-0.9,1.7-1.7,2.2c-1,0.5-2.2,0.2-2.7-0.7c-0.5-1-0.2-2.2,0.7-2.7
			c1.1-0.4,2.3-0.4,3.3,0.2l0.2-0.5c-0.4-0.4-0.6-0.9-0.8-1.4c-0.2-0.4-0.4-0.9-0.6-1.3c-0.7,0.6-1.6,0.9-2.6,1c-1.1,0-2-0.9-2-2
			s0.9-2,2-2c1.1,0.1,2.2,0.8,2.8,1.8l0.4-0.3c-0.1-0.5-0.1-1.1-0.1-1.6c0.1-0.5,0.1-1,0.1-1.4c-0.3,0-0.6,0-0.9,0
			c-0.6,0-1.3-0.1-1.9-0.4c-0.5-0.3-0.8-0.7-0.9-1.2c-0.3-1.1,0.4-2.2,1.4-2.4c0.5-0.1,1-0.1,1.5,0.2c0.9,0.7,1.5,1.8,1.5,2.9
			l0.5-0.1c0.2-0.5,0.4-1,0.8-1.4c0.3-0.4,0.6-0.8,0.8-1.2c-0.9-0.3-1.7-0.9-2.2-1.7c-0.5-0.9-0.2-2.2,0.7-2.7
			c1-0.5,2.2-0.2,2.7,0.7c0.4,1.1,0.4,2.3-0.2,3.3c0.2,0.1,0.4,0.1,0.5,0.2c0.4-0.4,0.9-0.6,1.4-0.8c0.4-0.2,0.9-0.4,1.3-0.6
			c-0.6-0.7-1-1.6-1.1-2.6c0-1.1,0.9-2,2-2s2,0.9,2,2c-0.1,1.1-0.8,2.2-1.8,2.8c0.1,0.2,0.2,0.3,0.3,0.5c0.5-0.1,1.1-0.1,1.6,0
			s1,0.1,1.4,0.1c-0.2-0.9,0-1.9,0.4-2.8c0.6-0.9,1.8-1.2,2.7-0.7c0.9,0.6,1.3,1.8,0.7,2.7c-0.7,0.9-1.8,1.5-2.9,1.5
			c0,0.2,0,0.4,0.1,0.5c0.5,0.2,1,0.4,1.4,0.8c0.4,0.3,0.8,0.6,1.2,0.8c0.3-0.9,0.9-1.7,1.7-2.2c1-0.5,2.2-0.2,2.7,0.8
			c0.3,0.5,0.3,1,0.2,1.5c-0.1,0.5-0.5,0.9-0.9,1.2c-1.1,0.4-2.3,0.4-3.3-0.2c-0.1,0.2-0.1,0.3-0.2,0.5c0.3,0.4,0.6,0.9,0.8,1.4
			c0.2,0.4,0.4,0.9,0.6,1.3c0.7-0.6,1.6-1,2.6-1c1.1,0,2,0.9,2,2s-0.9,2-2,2c-1.1-0.1-2.1-0.8-2.7-1.7l-0.4,0.3
			c0.1,0.5,0.1,1.1,0,1.6s-0.1,1-0.1,1.4c0.3,0,0.6-0.1,0.9-0.1c0.6,0,1.3,0.1,1.9,0.4c0.9,0.6,1.3,1.8,0.7,2.7s-1.8,1.3-2.7,0.7
			c-0.9-0.7-1.5-1.8-1.5-2.9l-0.5,0.1c-0.2,0.5-0.4,1-0.8,1.4c-0.3,0.4-0.6,0.8-0.8,1.2c0.9,0.3,1.7,0.9,2.2,1.7
			c0.5,1,0.2,2.2-0.7,2.7s-2.2,0.2-2.7-0.7c-0.4-1.1-0.4-2.3,0.2-3.3c-0.2-0.1-0.4-0.1-0.5-0.2c-0.4,0.3-0.9,0.6-1.4,0.8
			s-0.9,0.4-1.3,0.6c0.6,0.7,0.9,1.6,1,2.6S148.5,50.2,147.4,50.2 M147.6,46.1c-0.8,0.5-1.3,1.2-1.5,2.1c0,0.7,0.5,1.2,1.2,1.2
			s1.2-0.5,1.2-1.2C148.5,47.4,148.2,46.7,147.6,46.1 M152.2,44.7c-0.4,0.8-0.5,1.7-0.2,2.6c0.3,0.6,1.1,0.8,1.6,0.4
			c0.6-0.3,0.8-1.1,0.4-1.6C153.6,45.5,152.9,45,152.2,44.7 M143,45c-0.9,0-1.8,0.4-2.3,1.1c-0.3,0.6-0.1,1.3,0.4,1.6l0,0
			c0.6,0.3,1.3,0.1,1.6-0.4C143.1,46.6,143.2,45.8,143,45 M147.8,45L147.8,45c0.5-0.3,1-0.5,1.5-0.7c0.3-0.1,0.6-0.3,0.9-0.5
			c-0.3-0.2-0.6-0.4-0.8-0.7c-0.4-0.6-0.2-1.4,0.5-1.8c0.6-0.3,1.4-0.1,1.8,0.5c0.3,0.6,0.3,1.3-0.1,1.8l0.3,0.1l0,0
			c0.3-0.5,0.6-0.9,0.9-1.4c0.2-0.3,0.4-0.6,0.5-0.9c-0.3,0-0.7-0.1-1-0.2c-0.6-0.4-0.8-1.2-0.5-1.8c0.4-0.6,1.1-0.8,1.8-0.5
			c0.5,0.4,0.8,1,0.8,1.6h0.3l0,0c0-0.6,0-1.1,0.1-1.7c0-0.3,0-0.7,0-1c-0.3,0.2-0.6,0.3-1,0.3c-0.7,0.1-1.3-0.5-1.4-1.2
			s0.5-1.3,1.2-1.4c0.1,0,0.2,0,0.2,0c0.6,0,1.2,0.4,1.5,1l0.2-0.2l0,0c-0.3-0.5-0.5-1-0.7-1.5c-0.1-0.3-0.3-0.6-0.5-0.9
			c-0.2,0.3-0.4,0.6-0.7,0.8c-0.6,0.3-1.4,0.1-1.8-0.5c-0.2-0.3-0.2-0.7-0.1-1c0.1-0.3,0.3-0.6,0.6-0.8c0.6-0.3,1.3-0.2,1.8,0.2
			l0.1-0.3l0,0c-0.5-0.3-0.9-0.6-1.4-0.9c-0.2-0.2-0.5-0.4-0.8-0.5c0,0.3-0.1,0.7-0.3,1c-0.4,0.6-1.1,0.8-1.8,0.5
			c-0.6-0.4-0.8-1.1-0.5-1.8l0,0c0.3-0.6,1-0.9,1.6-0.8c0-0.1,0-0.2,0-0.3l0,0c-0.5,0-1.1,0-1.6-0.1c-0.3,0-0.7,0-1,0
			c0.2,0.3,0.3,0.6,0.3,1c0,0.7-0.6,1.3-1.3,1.3s-1.3-0.6-1.3-1.3c0-0.6,0.4-1.2,1-1.5l-0.2-0.2l0,0c-0.5,0.3-1,0.5-1.5,0.7
			c-0.3,0.1-0.6,0.3-0.9,0.5c0.3,0.2,0.6,0.4,0.8,0.7c0.4,0.6,0.1,1.4-0.5,1.8c-0.2,0.1-0.4,0.2-0.6,0.2c-0.5,0-0.9-0.2-1.1-0.7
			c-0.3-0.6-0.2-1.3,0.2-1.8L143,30l0,0c-0.3,0.5-0.6,0.9-0.9,1.4c-0.2,0.3-0.4,0.6-0.5,0.9c0.3,0,0.7,0.1,1,0.3
			c0.6,0.3,0.8,1.1,0.5,1.7l0,0c-0.4,0.6-1.1,0.8-1.8,0.5c-0.6-0.3-0.9-1-0.8-1.6h-0.3l0,0c0,0.5,0,1.1-0.1,1.6c0,0.3,0,0.7,0,1
			c0.3-0.2,0.6-0.3,1-0.3c0.7-0.1,1.3,0.5,1.4,1.2s-0.5,1.3-1.2,1.4c-0.1,0-0.2,0-0.2,0c-0.6,0-1.2-0.4-1.5-1l-0.3,0.2l0,0
			c0.3,0.5,0.5,1,0.7,1.5c0.1,0.3,0.3,0.6,0.5,0.9c0.2-0.3,0.4-0.6,0.7-0.8c0.6-0.3,1.4-0.1,1.8,0.5c0.4,0.6,0.1,1.4-0.5,1.8
			c-0.6,0.3-1.3,0.2-1.8-0.2l-0.1,0.3l0,0c0.5,0.3,0.9,0.6,1.4,0.9c0.3,0.2,0.6,0.4,0.9,0.5c0-0.3,0.1-0.7,0.2-1
			c0.4-0.6,1.1-0.8,1.8-0.5c0.6,0.4,0.8,1.1,0.5,1.8c-0.4,0.5-1,0.8-1.6,0.8c0,0.1,0,0.2,0,0.3l0,0c0.5,0,1.1,0,1.6,0.1
			c0.3,0,0.7,0,1,0c-0.2-0.3-0.3-0.6-0.3-1c0-0.7,0.6-1.3,1.3-1.3s1.3,0.6,1.3,1.3c0,0.6-0.4,1.2-1,1.5L147.8,45 M147.4,42.7
			c-0.3,0-0.5,0.2-0.5,0.5l0,0c0,0.3,0.1,0.6,0.3,0.8c0.4-0.2,0.7-0.5,0.7-0.8C147.9,43,147.7,42.7,147.4,42.7L147.4,42.7
			 M155.5,41.2c0,0.9,0.4,1.8,1.1,2.3c0.6,0.3,1.3,0.1,1.6-0.5s0.1-1.3-0.4-1.6c-0.4-0.2-1-0.3-1.5-0.3
			C156,41.2,155.8,41.2,155.5,41.2 M137.9,41.3c-0.3,0-0.6,0.1-0.9,0.2c-0.6,0.3-0.8,1-0.4,1.6l0,0c0.3,0.6,1.1,0.7,1.6,0.4
			c0.6-0.5,1.1-1.1,1.4-1.9C139.1,41.5,138.5,41.3,137.9,41.3 M150.6,41.9c-0.1,0-0.2,0-0.2,0.1c-0.2,0.1-0.3,0.4-0.2,0.7
			c0.2,0.2,0.4,0.4,0.7,0.6c0.2-0.3,0.3-0.7,0.2-1C150.9,42,150.7,41.9,150.6,41.9 M143.7,43c0.4,0.1,0.8-0.1,1-0.4
			c0.1-0.2,0-0.5-0.2-0.7l0,0c-0.2-0.1-0.5-0.1-0.7,0.2C143.7,42.4,143.6,42.7,143.7,43 M152.9,39.6c-0.3,0-0.5,0.2-0.5,0.5
			c0,0.2,0.1,0.3,0.2,0.4c0.3,0.1,0.6,0.2,0.9,0.2c0.1-0.4-0.1-0.8-0.4-1C153.1,39.6,153,39.6,152.9,39.6 M141.1,40.3
			c0.3,0.2,0.7,0.3,1,0.2c0.2-0.1,0.3-0.4,0.2-0.7c-0.2-0.2-0.4-0.3-0.7-0.2C141.4,39.8,141.2,40.1,141.1,40.3 M156.6,36.6
			c0.5,0.8,1.2,1.3,2.1,1.5c0.7,0,1.2-0.5,1.2-1.2s-0.5-1.2-1.2-1.2l0,0C157.9,35.8,157.1,36.1,156.6,36.6 M136.1,35.7
			c-0.7,0-1.2,0.5-1.2,1.2s0.5,1.2,1.2,1.2c0.8-0.1,1.5-0.4,2.1-0.9C137.7,36.4,136.9,35.9,136.1,35.7 M153.7,36.4
			c-0.3,0-0.5,0.2-0.5,0.5s0.2,0.5,0.5,0.5s0.6-0.1,0.8-0.3C154.3,36.7,154,36.4,153.7,36.4 M140.2,36.7c0.2,0.5,0.5,0.7,0.8,0.7
			s0.5-0.2,0.5-0.5s-0.2-0.5-0.5-0.5S140.4,36.5,140.2,36.7 M153,33.2c-0.1,0-0.2,0-0.3,0.1s-0.2,0.2-0.2,0.3
			c-0.1,0.1-0.1,0.3,0,0.4c0.1,0.2,0.4,0.3,0.7,0.2c0.2-0.2,0.4-0.4,0.6-0.7C153.5,33.3,153.2,33.2,153,33.2 M141.3,33.1
			c-0.1,0.4,0.1,0.8,0.4,1c0.2,0.1,0.5,0.1,0.7-0.2c0.1-0.1,0.1-0.3,0-0.4c0-0.1-0.1-0.2-0.2-0.3C141.8,33.1,141.5,33.1,141.3,33.1
			 M137.6,30c-0.4,0-0.8,0.2-1,0.6c-0.2,0.3-0.2,0.6-0.1,0.9c0.1,0.3,0.3,0.6,0.6,0.7c0.5,0.2,1,0.4,1.5,0.3c0.3,0,0.6,0,0.8,0
			c0-0.9-0.4-1.8-1.1-2.3C138.1,30.1,137.9,30,137.6,30 M155.3,32c0.8,0.4,1.7,0.5,2.6,0.2c0.3-0.2,0.5-0.4,0.6-0.7
			c0.1-0.3,0-0.6-0.1-0.9c-0.3-0.6-1.1-0.7-1.6-0.4C156,30.6,155.5,31.3,155.3,32 M151,30.8c-0.3,0-0.6,0.1-0.8,0.4
			c0,0.1,0,0.3,0,0.4s0.1,0.2,0.2,0.3c0.2,0.1,0.5,0,0.7-0.2c0.1-0.3,0.2-0.6,0.1-0.9L151,30.8 M144,30.6c-0.3,0.3-0.3,0.7-0.2,1
			c0.1,0.2,0.3,0.3,0.4,0.2c0.1,0,0.2,0,0.2-0.1c0.2-0.1,0.3-0.4,0.2-0.7C144.5,30.9,144.3,30.7,144,30.6 M147.6,29.7
			c-0.4,0.2-0.7,0.5-0.7,0.8s0.2,0.5,0.5,0.5s0.5-0.2,0.5-0.5C147.9,30.3,147.8,30,147.6,29.7 M141.8,25.9c-0.2,0-0.4,0.1-0.6,0.2
			c-0.6,0.3-0.8,1-0.4,1.6l0,0c0.5,0.6,1.1,1.1,1.9,1.4c0.5-0.8,0.5-1.7,0.2-2.6C142.6,26.1,142.2,25.9,141.8,25.9 M153.1,25.9
			c-0.4,0-0.8,0.2-1,0.6c-0.3,0.7-0.4,1.5-0.3,2.3c0.9,0,1.8-0.4,2.3-1.1c0.3-0.6,0.1-1.3-0.4-1.6C153.5,26,153.3,25.9,153.1,25.9
			 M147.5,24.4c-0.7,0-1.2,0.5-1.2,1.2l0,0c0.1,0.8,0.4,1.5,0.9,2.1c0.8-0.5,1.3-1.2,1.5-2.1C148.7,24.9,148.1,24.4,147.5,24.4"/>
		<path class="st0" d="M143,36.7c0-0.7,0.2-1.3,0.5-1.9h1.5c-0.1,0.6-0.2,1.3-0.2,1.9"/>
		<path class="st0" d="M145.1,39.5c0.1,0.5,0.4,1,0.6,1.5c-0.8-0.3-1.5-0.8-2-1.5"/>
		<path class="st0" d="M144.8,37.1c0,0.6,0.1,1.3,0.2,1.9h-1.5c-0.3-0.6-0.5-1.2-0.6-1.9"/>
		<path class="st0" d="M143.8,34.3c0.5-0.7,1.2-1.2,2-1.5c-0.3,0.5-0.5,1-0.6,1.5"/>
		<path class="st0" d="M149.1,32.7c0.8,0.3,1.5,0.8,2,1.5h-1.3C149.6,33.7,149.4,33.2,149.1,32.7"/>
		<path class="st0" d="M151,39.5c-0.5,0.7-1.2,1.2-2,1.5c0.3-0.5,0.5-1,0.6-1.5"/>
		<path class="st0" d="M151.9,37.1c0,0.7-0.2,1.3-0.6,1.9h-1.5c0.1-0.6,0.2-1.3,0.2-1.9"/>
		<path class="st0" d="M151.3,34.8c0.3,0.6,0.5,1.2,0.6,1.9H150c0-0.6-0.1-1.3-0.2-1.9"/>
		<path class="st0" d="M146.6,32.5c0.2,0,0.4-0.1,0.6-0.1v1.8h-1.6C145.8,33.6,146.1,33,146.6,32.5"/>
		<path class="st0" d="M145.3,36.7c0-0.6,0.1-1.3,0.2-1.9h1.7v1.9"/>
		<path class="st0" d="M145.5,39c-0.1-0.6-0.2-1.3-0.2-1.9h1.9V39"/>
		<path class="st0" d="M147.2,41.3c-0.2,0-0.4,0-0.6-0.1c-0.4-0.5-0.8-1.1-0.9-1.8h1.6"/>
		<path class="st0" d="M149.2,39.5c-0.2,0.6-0.5,1.2-0.9,1.8c-0.2,0-0.4,0.1-0.6,0.1v-1.8"/>
		<path class="st0" d="M149.6,37.1c0,0.6-0.1,1.3-0.2,1.9h-1.7v-1.9"/>
		<path class="st0" d="M149.3,34.8c0.1,0.6,0.2,1.3,0.2,1.9h-1.9v-1.9"/>
		<path class="st0" d="M147.7,32.4c0.2,0,0.4,0,0.6,0.1c0.4,0.5,0.8,1.1,0.9,1.8h-1.6"/>
		<path class="st0" d="M22.9,40.4c0.4,0.3,0.7,0.5,1.1,0.7c0.5,0.2,1,0.4,1.6,0.3c0.2,0,0.5,0,0.7-0.1c0.2,0,0.4-0.1,0.6-0.2
			c0.2-0.1,0.3-0.3,0.4-0.5s0.2-0.4,0.2-0.7s-0.1-0.5-0.2-0.7s-0.3-0.4-0.5-0.5s-0.4-0.3-0.7-0.3l-0.8-0.3c-0.4-0.1-0.7-0.3-1.1-0.4
			c-0.4-0.1-0.7-0.3-1-0.5s-0.5-0.5-0.7-0.9c-0.6-1.3-0.3-2.9,0.9-3.8c0.4-0.3,0.8-0.5,1.3-0.6c0.5-0.1,1-0.2,1.5-0.2
			c0.3,0,0.7,0,1,0.1s0.6,0.1,0.8,0.2c0.2,0.1,0.4,0.1,0.6,0.2c0.1,0.1,0.3,0.1,0.4,0.2c0.3,0.1,0.5,0.4,0.5,0.7
			c0,0.2-0.1,0.4-0.2,0.5c-0.1,0.2-0.3,0.5-0.5,0.7c-0.3-0.2-0.7-0.5-1.1-0.6c-0.4-0.2-0.9-0.3-1.4-0.3c-0.2,0-0.4,0-0.6,0.1
			c-0.2,0-0.4,0.1-0.6,0.2c-0.2,0.1-0.3,0.2-0.4,0.4s-0.2,0.4-0.2,0.6c0,0.2,0,0.4,0.2,0.6c0.1,0.2,0.3,0.3,0.5,0.5
			c0.2,0.1,0.4,0.2,0.6,0.3l0.8,0.3c0.4,0.1,0.7,0.3,1.1,0.4c0.4,0.1,0.7,0.3,1,0.6c0.3,0.2,0.6,0.5,0.7,0.9
			c0.2,0.4,0.3,0.9,0.3,1.3c0,0.5-0.1,1-0.3,1.5c-0.2,0.4-0.5,0.8-0.9,1.1s-0.8,0.6-1.3,0.7c-0.5,0.2-1.1,0.2-1.7,0.2
			s-1.3-0.1-1.9-0.2c-0.4-0.1-0.7-0.3-1.1-0.4c-0.1-0.1-0.2-0.2-0.3-0.3c-0.1-0.1-0.1-0.3-0.1-0.4c0-0.2,0.1-0.5,0.2-0.7
			C22.5,40.9,22.7,40.7,22.9,40.4"/>
		<path class="st0" d="M33.9,33.8h-3.4l0,0c0-0.1,0-0.2,0-0.3s0-0.2,0-0.3c0-0.3,0.1-0.6,0.3-0.8c0.3-0.3,0.7-0.4,1-0.4h7.7
			c0,0.2,0,0.5,0,0.7c0,0.3-0.1,0.6-0.3,0.8c-0.3,0.3-0.7,0.4-1,0.3h-2V43h-2.3"/>
		<path class="st0" d="M45.8,42.9l-0.9-2.7h-3.8l-0.9,2.7H38l3.8-10.8c0.2-0.1,0.4-0.1,0.6-0.2c0.3,0,0.5-0.1,0.8-0.1h0.4
			c0.2,0,0.3,0.1,0.4,0.1c0.3,0.2,0.6,0.5,0.7,0.8l3.5,10 M43,34l-1.5,4.7h2.9L43,34z"/>
		<path class="st0" d="M58.1,42.9h-1.9l-4.7-7.2v7.2h-2.1V32c0.1,0,0.3-0.1,0.4-0.1c0.2,0,0.4,0,0.6,0c0.3,0,0.6,0,0.8,0.2
			c0.2,0.1,0.4,0.3,0.5,0.6l4.2,6.9V32l0.4-0.1h0.3c0.2,0,0.3,0,0.5,0s0.3,0.1,0.5,0.2c0.1,0.1,0.3,0.2,0.3,0.4
			c0.1,0.2,0.1,0.4,0.1,0.7"/>
		<path class="st0" d="M69,37.3c0,0.7-0.1,1.5-0.3,2.2c-0.2,0.7-0.5,1.3-1,1.8c-0.4,0.5-1,0.9-1.6,1.2c-0.7,0.3-1.5,0.5-2.3,0.5
			h-3.4V32.1c0.7-0.1,1.3-0.1,1.8-0.2h1.3c0.9,0,1.9,0.1,2.7,0.4c0.7,0.2,1.3,0.6,1.7,1.2c0.4,0.5,0.8,1.1,0.9,1.7
			C68.9,35.9,69,36.6,69,37.3 M66.7,37.3c0-0.5,0-1-0.1-1.4s-0.3-0.8-0.5-1.2c-0.3-0.3-0.6-0.6-1-0.8c-0.5-0.2-1-0.3-1.6-0.3
			c-0.3,0-0.7,0-1,0v7.5h0.9c0.5,0,1.1-0.1,1.6-0.3c0.4-0.2,0.7-0.5,1-0.8c0.3-0.4,0.4-0.8,0.5-1.2C66.6,38.3,66.7,37.8,66.7,37.3"
			/>
		<path class="st0" d="M77.1,42.9l-0.9-2.7h-3.8l-0.9,2.7h-2.2L73,32.1c0.1,0,0.3-0.1,0.6-0.2c0.3,0,0.5-0.1,0.8-0.1h0.4
			c0.2,0,0.3,0.1,0.4,0.1c0.3,0.2,0.6,0.5,0.7,0.8l3.5,10 M74.2,33.9l-1.5,4.7h3L74.2,33.9z"/>
		<path class="st0" d="M88.1,35.1c0,0.4,0,0.8-0.1,1.2c-0.1,0.3-0.3,0.6-0.5,0.9c-0.2,0.3-0.4,0.5-0.7,0.7c-0.2,0.2-0.5,0.3-0.8,0.4
			l2.7,4.5C88.5,42.9,88.3,43,88,43c-0.2,0.1-0.4,0.1-0.7,0.1c-0.4,0-0.7-0.1-1-0.3s-0.6-0.5-0.8-0.8l-1.9-3.2h-0.9v4.1h-2.3V32
			c0.5,0,1-0.1,1.5-0.1s1,0,1.4,0c1.2-0.1,2.4,0.2,3.5,0.8C87.8,33.3,88.2,34.2,88.1,35.1 M85.8,35.3c0.1-0.5-0.1-1.1-0.6-1.5
			c-0.4-0.3-1-0.4-1.5-0.4h-0.5h-0.4v3.8h0.8c0.6,0,1.1-0.1,1.6-0.5C85.6,36.4,85.8,35.8,85.8,35.3"/>
		<path class="st0" d="M98.8,37.3c0,0.7-0.1,1.5-0.3,2.2c-0.2,0.7-0.6,1.3-1,1.8c-0.5,0.5-1,0.9-1.6,1.2c-0.7,0.3-1.5,0.5-2.3,0.5
			H90V32.1c0.7-0.1,1.3-0.1,1.8-0.2h1.3c0.9,0,1.9,0.1,2.7,0.4c0.7,0.2,1.3,0.6,1.7,1.2c0.4,0.5,0.8,1.1,0.9,1.7
			C98.7,35.9,98.8,36.6,98.8,37.3 M96.5,37.3c0-0.5,0-1-0.2-1.4c-0.1-0.4-0.3-0.8-0.5-1.2c-0.3-0.3-0.6-0.6-1-0.8
			c-0.5-0.2-1-0.3-1.6-0.3c-0.3,0-0.6,0-1,0v7.5h0.9c0.6,0,1.1-0.1,1.6-0.3c0.4-0.2,0.7-0.5,1-0.8c0.3-0.4,0.4-0.8,0.5-1.2
			C96.4,38.3,96.5,37.8,96.5,37.3"/>
		<path class="st0" d="M107.6,42.9v-8.3l-2.2,1.1c-0.2-0.2-0.3-0.4-0.4-0.7c-0.1-0.2-0.2-0.4-0.2-0.7c0-0.1,0-0.3,0.1-0.4
			c0.1-0.1,0.2-0.3,0.4-0.3l2.3-1.2c0.2-0.1,0.4-0.2,0.6-0.3s0.4-0.1,0.6-0.1s0.4,0,0.6,0.1c0.1,0,0.2,0.1,0.4,0.2v10.6"/>
		<path class="st0" d="M120.9,37.6c0.1,1.4-0.3,2.9-1,4.1c-0.7,1-1.9,1.5-3.1,1.5c-1.2,0.1-2.4-0.4-3.1-1.4c-0.8-1.3-1.1-2.7-1-4.2
			c0-0.8,0.1-1.6,0.3-2.3c0.1-0.6,0.4-1.2,0.8-1.8c0.3-0.5,0.8-0.9,1.3-1.1c0.6-0.3,1.2-0.4,1.9-0.3c0.6,0,1.3,0.1,1.8,0.4
			c0.5,0.3,0.9,0.6,1.2,1.1c0.3,0.5,0.6,1.1,0.7,1.8C120.9,36,120.9,36.8,120.9,37.6 M118.7,37.6c0-0.6,0-1.2-0.1-1.8
			c-0.1-0.4-0.2-0.8-0.3-1.2c-0.1-0.3-0.3-0.5-0.6-0.7c-0.5-0.3-1.1-0.3-1.5,0c-0.3,0.2-0.5,0.4-0.6,0.7c-0.2,0.4-0.3,0.8-0.4,1.2
			c-0.1,0.6-0.1,1.2-0.1,1.8s0,1.2,0.1,1.8c0.1,0.4,0.2,0.8,0.4,1.2c0.1,0.3,0.3,0.5,0.6,0.7c0.5,0.3,1.1,0.3,1.5,0
			c0.2-0.2,0.4-0.4,0.6-0.7c0.2-0.4,0.3-0.8,0.3-1.2C118.7,38.8,118.7,38.2,118.7,37.6"/>
		<path class="st0" d="M130,37.6c0.1,1.4-0.3,2.9-1,4.1c-0.7,1-1.9,1.5-3.1,1.5c-1.2,0.1-2.4-0.4-3.1-1.4c-0.8-1.3-1.1-2.7-1-4.2
			c0-0.8,0.1-1.6,0.2-2.3c0.1-0.6,0.4-1.2,0.8-1.8c0.3-0.5,0.8-0.9,1.3-1.1c1.2-0.5,2.5-0.5,3.7,0c0.5,0.3,0.9,0.6,1.2,1.1
			s0.6,1.1,0.7,1.8C129.9,36,129.9,36.8,130,37.6 M127.7,37.6c0-0.6,0-1.2-0.1-1.8c-0.1-0.4-0.2-0.8-0.4-1.2
			c-0.1-0.3-0.3-0.5-0.6-0.7c-0.2-0.1-0.5-0.2-0.8-0.2s-0.5,0.1-0.8,0.2c-0.3,0.2-0.5,0.4-0.6,0.7c-0.2,0.4-0.3,0.8-0.4,1.2
			c-0.1,0.6-0.1,1.2-0.1,1.8s0,1.2,0.1,1.8c0.1,0.4,0.2,0.8,0.4,1.2c0.1,0.3,0.3,0.5,0.6,0.7c0.2,0.1,0.5,0.2,0.8,0.2
			s0.5-0.1,0.8-0.2c0.2-0.2,0.4-0.4,0.6-0.7c0.2-0.4,0.3-0.8,0.4-1.2C127.7,38.8,127.7,38.2,127.7,37.6"/>
		<path class="st0" d="M59.9,53.6v-4.4l-1.1,0.6l-0.2-0.3c-0.1-0.1-0.1-0.2-0.1-0.3s0-0.1,0.1-0.2s0.1-0.1,0.2-0.2l1.3-0.6
			c0.1,0,0.2-0.1,0.3-0.1c0.1-0.1,0.2-0.1,0.3-0.1s0.2,0,0.3,0s0.1,0,0.2,0.1v5.6L59.9,53.6"/>
		<path class="st0" d="M65.6,51.7c0-0.3-0.1-0.5-0.2-0.8c-0.1-0.2-0.4-0.3-0.6-0.3c-0.1,0-0.2,0-0.3,0c-0.1,0-0.2,0-0.2,0.1
			c-0.1,0-0.1,0.1-0.2,0.1S64,50.9,64,50.9c0,0.1,0,0.2,0,0.2c0,0.1,0,0.2,0,0.3c0,0.2,0,0.3,0,0.5s0.1,0.3,0.1,0.5
			c0,0.1,0.2,0.2,0.3,0.3c0.1,0.1,0.3,0.1,0.4,0.1c0.2,0,0.4-0.1,0.6-0.3C65.5,52.3,65.5,52,65.6,51.7 M66.8,51.6
			c0,0.3-0.1,0.6-0.2,0.9c-0.1,0.2-0.3,0.5-0.4,0.7c-0.2,0.2-0.4,0.3-0.6,0.4c-0.3,0.1-0.5,0.1-0.8,0.1s-0.6-0.1-0.9-0.2
			c-0.2-0.1-0.5-0.3-0.6-0.5c-0.2-0.2-0.3-0.5-0.4-0.8c-0.1-0.3-0.1-0.7-0.1-1c0-0.5,0.1-1,0.3-1.5c0.1-0.4,0.4-0.8,0.7-1.1
			c0.2-0.3,0.6-0.5,0.9-0.6s0.7-0.2,1-0.2c0.2,0,0.3,0,0.5,0.1c0.1,0,0.2,0.2,0.2,0.4c-0.1,0,0,0.1,0,0.2s0,0.2,0,0.2h-0.2
			c0,0-0.1,0-0.2,0c-0.2,0-0.5,0-0.7,0.1s-0.4,0.2-0.5,0.3s-0.3,0.2-0.3,0.4c-0.1,0.1-0.2,0.3-0.2,0.4c0-0.1,0.2-0.2,0.4-0.3
			c0.2-0.1,0.5-0.2,0.7-0.1c0.3,0,0.5,0,0.7,0.2c0.2,0.1,0.4,0.2,0.5,0.4s0.2,0.4,0.3,0.6C66.7,51.1,66.8,51.3,66.8,51.6"/>
		<path class="st0" d="M69.4,53.6v-4.4l-1.1,0.6L68,49.5c-0.1-0.1-0.1-0.2-0.1-0.3s0-0.1,0.1-0.2s0.1-0.1,0.2-0.2l1.2-0.6
			c0.1-0.1,0.2-0.1,0.3-0.2c0.1-0.1,0.2-0.1,0.3-0.1c0.1,0,0.2,0,0.3,0c0.1,0,0.1,0,0.2,0.1v5.6H69.4"/>
		<path class="st0" d="M72.3,53.6v-0.8c0.1-0.1,0.2-0.2,0.4-0.3s0.3-0.3,0.4-0.4c0.1-0.2,0.3-0.3,0.5-0.5c0.1-0.2,0.3-0.3,0.5-0.5
			c0.2-0.3,0.4-0.5,0.5-0.7s0.2-0.5,0.2-0.8c-0.1-0.2,0-0.3-0.1-0.4c0-0.1-0.1-0.2-0.2-0.2c-0.1-0.1-0.2-0.1-0.3-0.1
			c-0.1-0.1-0.2,0-0.3,0c-0.3,0-0.5,0-0.8,0.2c-0.2,0.1-0.4,0.3-0.6,0.4c-0.1-0.1-0.2-0.2-0.3-0.4c-0.1-0.2-0.1-0.2-0.1-0.3
			s0-0.1,0.1-0.2s0.1-0.1,0.2-0.2s0.1-0.1,0.2-0.2s0.2-0.1,0.4-0.2c0.2-0.1,0.3-0.1,0.5-0.2c0.2-0.1,0.4-0.1,0.6-0.1s0.5,0,0.7,0.1
			c0.2,0,0.4,0.1,0.6,0.3c0.2,0.1,0.3,0.3,0.4,0.5s0.1,0.5,0.1,0.8c0,0.1,0,0.4-0.1,0.6s-0.2,0.4-0.3,0.6c-0.1,0.2-0.3,0.4-0.4,0.5
			c-0.2,0.2-0.3,0.3-0.4,0.5c-0.2,0.1-0.3,0.3-0.5,0.5c-0.2,0.1-0.3,0.2-0.4,0.4h1.7c0.1,0,0.2,0,0.3,0.1c0,0,0.2,0.1,0.2,0.2
			s0.1,0.1,0.1,0.2s0,0.2,0,0.2s0,0.1,0,0.2s0,0.1,0,0.2L72.3,53.6"/>
		<path class="st0" d="M79.9,50.8c0-0.4,0-0.7-0.1-1c0-0.2-0.1-0.4-0.2-0.6c-0.1-0.1-0.2-0.3-0.3-0.3c-0.1-0.1-0.3-0.1-0.4-0.1
			s-0.3,0-0.4,0.1s-0.2,0.2-0.3,0.3C78,49.3,78,49.6,78,49.8c-0.1,0.3-0.1,0.7-0.1,1s0,0.6,0.1,0.9c0,0.2,0.1,0.4,0.2,0.6
			c0,0.1,0.2,0.3,0.3,0.3s0.2,0.1,0.4,0.1c0.1,0,0.3-0.1,0.4-0.1c0.1-0.1,0.2-0.2,0.3-0.3c0.1-0.2,0.1-0.4,0.2-0.6
			C79.8,51.5,79.9,51.2,79.9,50.8 M81.1,50.8c0,0.8-0.1,1.5-0.5,2.2c-0.4,0.5-1,0.8-1.6,0.8s-1.2-0.3-1.6-0.7
			c-0.4-0.7-0.6-1.4-0.5-2.2c0-0.4,0.1-0.8,0.2-1.2c0-0.3,0.2-0.7,0.4-0.9c0.1-0.3,0.4-0.5,0.7-0.6c0.3-0.2,0.7-0.2,1-0.2
			s0.7,0.1,1,0.2c0.3,0.1,0.5,0.3,0.7,0.6s0.3,0.6,0.4,0.9c0.1,0.4,0.1,0.8,0.1,1.2"/>
		<path class="st0" d="M84.4,51.7c0-0.3-0.1-0.5-0.2-0.8c-0.1-0.2-0.4-0.3-0.6-0.3c-0.1,0-0.2,0-0.2,0c-0.1,0-0.2,0-0.2,0.1
			c-0.1,0-0.1,0.1-0.2,0.1s-0.1,0.1-0.1,0.1c0,0.1,0,0.2,0,0.2c0,0.1,0,0.2,0,0.3c0,0.2,0,0.3,0,0.5s0,0.3,0.1,0.5
			c0,0.1,0.2,0.2,0.3,0.3c0.1,0.1,0.3,0.1,0.5,0.1s0.4-0.1,0.6-0.3C84.3,52.3,84.4,52,84.4,51.7 M85.6,51.6c0,0.3-0.1,0.6-0.2,0.9
			c-0.1,0.2-0.3,0.5-0.4,0.7c-0.2,0.2-0.4,0.3-0.6,0.4c-0.3,0.1-0.5,0.1-0.8,0.1s-0.6-0.1-0.9-0.2c-0.2-0.1-0.5-0.3-0.6-0.5
			c-0.2-0.2-0.3-0.5-0.4-0.8s-0.1-0.7-0.1-1c0-0.5,0.1-1,0.2-1.5c0.1-0.4,0.3-0.8,0.7-1.1c0.2-0.3,0.6-0.5,0.9-0.6s0.7-0.2,1-0.2
			c0.2,0,0.3,0,0.5,0.1c0.1,0,0.2,0.2,0.2,0.4c-0.1,0,0,0.1,0,0.2s0,0.2,0,0.2h-0.2c0,0-0.1,0-0.2,0c-0.2,0-0.4,0-0.6,0.2
			c-0.2,0.1-0.4,0.2-0.5,0.3s-0.3,0.2-0.3,0.4C83,49.8,83,50,83,50.1c0-0.1,0.2-0.2,0.4-0.3c0.2-0.1,0.5-0.2,0.7-0.1
			c0.3,0,0.5,0,0.7,0.2c0.2,0.1,0.4,0.2,0.5,0.4s0.2,0.4,0.3,0.6C85.6,51.1,85.7,51.4,85.6,51.6"/>
		<path class="st0" d="M89.2,51.7c0-0.3-0.1-0.5-0.2-0.8c-0.1-0.2-0.4-0.3-0.6-0.3c-0.1,0-0.2,0-0.3,0c-0.1,0-0.2,0-0.2,0.1
			c-0.1,0-0.1,0.1-0.2,0.1s-0.1,0.1-0.1,0.1c0,0.1,0,0.2,0,0.2c0,0.1,0,0.2,0,0.3c0,0.2,0,0.3,0,0.5s0.1,0.3,0.1,0.5
			c0,0.1,0.2,0.2,0.3,0.3c0.1,0.1,0.3,0.1,0.4,0.1c0.2,0,0.4-0.1,0.6-0.3C89,52.3,89.1,52,89.2,51.7 M90.3,51.6
			c0,0.3-0.1,0.6-0.2,0.9c-0.1,0.2-0.3,0.5-0.4,0.7c-0.2,0.2-0.4,0.3-0.6,0.4c-0.3,0.1-0.5,0.1-0.8,0.1s-0.6-0.1-0.9-0.2
			c-0.2-0.1-0.5-0.3-0.6-0.5c-0.2-0.2-0.3-0.5-0.4-0.8s-0.1-0.7-0.1-1c0-0.5,0.1-1,0.2-1.5c0.1-0.4,0.4-0.8,0.7-1.1
			c0.2-0.3,0.6-0.5,0.9-0.6s0.7-0.2,1-0.2c0.2,0,0.3,0,0.5,0.1c0.1,0,0.2,0.2,0.2,0.4c-0.1,0,0,0.1,0,0.2s0,0.2,0,0.2h-0.2
			c0,0-0.1,0-0.2,0c-0.2,0-0.5,0-0.7,0.1s-0.4,0.2-0.5,0.3s-0.3,0.2-0.3,0.4c-0.1,0.1-0.2,0.3-0.2,0.4c0-0.1,0.2-0.2,0.4-0.3
			c0.2-0.1,0.5-0.2,0.7-0.1c0.3,0,0.5,0,0.7,0.2c0.2,0.1,0.4,0.2,0.5,0.4s0.2,0.4,0.3,0.6C90.3,51.1,90.3,51.4,90.3,51.6"/>
		<path class="st0" d="M97.3,53.3c-0.1,0-0.1,0.1-0.2,0.1l-0.3,0.2c-0.2,0-0.3,0.1-0.5,0.1s-0.4,0.1-0.6,0.1c-0.4,0-0.8-0.1-1.2-0.2
			c-0.3-0.1-0.6-0.3-0.8-0.6c-0.3-0.3-0.4-0.6-0.5-1S93,51.2,93,50.8s0-0.8,0.2-1.2c0.1-0.4,0.2-0.7,0.5-1c0.2-0.3,0.5-0.5,0.8-0.6
			c0.4-0.2,0.8-0.3,1.2-0.2c0.2,0,0.4,0,0.6,0.1c0.2,0,0.3,0.1,0.5,0.1c0.1,0,0.2,0.1,0.3,0.2c0.1,0,0.2,0.1,0.2,0.2
			c0.1,0,0.1,0.1,0.1,0.2c0,0.1,0,0.1,0.1,0.2c-0.1,0,0,0.2-0.1,0.3s-0.2,0.2-0.3,0.3c-0.1-0.1-0.2-0.1-0.2-0.2
			c-0.1-0.1-0.2-0.1-0.3-0.2c-0.1-0.1-0.2-0.1-0.4-0.1c-0.1,0-0.3,0-0.4,0c-0.3,0-0.5,0-0.7,0.2c-0.2,0.1-0.4,0.3-0.5,0.5
			s-0.2,0.4-0.2,0.7c-0.1,0.2-0.1,0.5-0.1,0.8s0,0.5,0.1,0.8c0,0.2,0.1,0.5,0.3,0.7c0.1,0.2,0.3,0.3,0.5,0.5
			c0.2,0.1,0.5,0.2,0.8,0.2c0.2,0,0.3,0,0.4-0.1c0.1,0,0.2-0.1,0.4-0.2c0-0.1,0.2-0.1,0.3-0.2s0.2-0.1,0.2-0.2s0.1,0.1,0.1,0.1
			s0.1,0.1,0.1,0.2c0,0.1,0.1,0.1,0.1,0.2c0,0,0,0.1,0,0.2s0,0.1,0,0.2S97.4,53.3,97.3,53.3"/>
		<path class="st0" d="M100.9,51.1c0-0.2-0.1-0.5-0.2-0.7s-0.4-0.3-0.6-0.3s-0.4,0.1-0.6,0.2c-0.2,0.2-0.2,0.4-0.2,0.7L100.9,51.1
			 M100.4,52.9c0.1,0,0.3,0,0.4,0l0.3-0.1c0.1-0.1,0.2-0.1,0.2-0.2s0.1-0.1,0.2-0.2s0.1,0.2,0.2,0.3s0.1,0.2,0.1,0.3
			c-0.1,0.1-0.1,0.3-0.2,0.4c-0.2,0.1-0.3,0.2-0.5,0.2c-0.3,0.1-0.5,0.1-0.8,0.1c-0.3-0.1-0.5,0-0.8-0.1s-0.5-0.2-0.7-0.4
			s-0.4-0.4-0.5-0.7c-0.2-0.3-0.2-0.7-0.2-1.1c0-0.3,0-0.6,0.2-0.9c0.1-0.3,0.2-0.5,0.4-0.7c0.2-0.2,0.4-0.3,0.6-0.4
			c0.2-0.1,0.5-0.1,0.7-0.1c0.3,0,0.6,0,0.8,0.2c0.2,0.1,0.4,0.2,0.6,0.4s0.3,0.4,0.3,0.6c0,0.2,0.1,0.4,0.1,0.7v0.1v0.1
			c0,0,0,0.1,0,0.2v0.1h-2.6c0,0.3,0.1,0.6,0.3,0.8C99.8,52.7,100.1,52.9,100.4,52.9"/>
		<path class="st0" d="M104,53.6h-1.2v-4.1h0.1c0-0.1,0.1,0,0.1,0s0.1,0,0.2,0c0.2,0,0.3,0,0.5,0.1c0.1,0.1,0.2,0.2,0.2,0.3
			c0.1-0.2,0.2-0.3,0.5-0.4c0.3-0.1,0.5-0.2,0.8-0.2s0.6,0.1,0.9,0.2c0.2,0.2,0.3,0.4,0.4,0.6c0,0.1,0,0.3,0.1,0.4s0,0.3,0,0.5v2.4
			h-1.2V51c0-0.1,0-0.2,0-0.3s0-0.2-0.1-0.3c0-0.2-0.1-0.1-0.2-0.2c-0.1,0-0.2-0.1-0.3-0.1c-0.2,0-0.4,0-0.5,0.1
			c-0.1,0-0.2,0.2-0.2,0.3L104,53.6"/>
		<path class="st0" d="M107.6,53c-0.1-0.1-0.1-0.2-0.1-0.4c0-0.1,0-0.3,0-0.4v-4h0.1l0.1-0.1c0-0.1,0.1,0,0.1,0s0.2,0,0.3,0
			s0.2,0,0.3,0.1c0.1,0.1,0.1,0.1,0.2,0.2c0,0.1,0.1,0.2,0.1,0.3v0.6h1.2v0.9h-1.2V52c-0.1,0.3,0.1,0.5,0.3,0.6h0.1
			c0.1,0,0.2,0,0.2,0c0.1,0,0.1-0.1,0.2-0.1c0-0.1,0.1-0.1,0.2-0.1s0.1-0.1,0.1-0.1s0.2,0.2,0.2,0.3s0.1,0.2,0.1,0.3
			c-0.1,0,0,0.2-0.1,0.2s-0.1,0.1-0.2,0.2s-0.2,0.1-0.4,0.2s-0.3,0.1-0.5,0.1c-0.3,0-0.6-0.1-0.8-0.2
			C107.8,53.4,107.7,53.3,107.6,53"/>
		<path class="st0" d="M113.3,51.1c0-0.2,0-0.5-0.2-0.7c-0.1-0.2-0.4-0.3-0.6-0.3s-0.4,0.1-0.6,0.2c-0.2,0.2-0.2,0.4-0.2,0.7
			L113.3,51.1 M112.8,52.9c0.1,0,0.3,0,0.4,0s0.2-0.1,0.3-0.1s0.2-0.1,0.2-0.2s0.1-0.1,0.2-0.2s0.1,0.2,0.2,0.3s0.1,0.2,0.1,0.3
			s-0.1,0.3-0.2,0.4c-0.2,0.1-0.3,0.2-0.5,0.2c-0.3,0.1-0.5,0.1-0.8,0.1c-0.3-0.1-0.5,0-0.8-0.1s-0.5-0.2-0.7-0.4s-0.4-0.4-0.5-0.7
			s-0.2-0.7-0.2-1.1c0-0.3,0-0.6,0.2-0.9c0.1-0.3,0.2-0.5,0.5-0.7c0.2-0.2,0.4-0.3,0.6-0.4c0.2-0.1,0.5-0.1,0.7-0.1
			c0.3,0,0.6,0,0.8,0.2c0.2,0.1,0.4,0.2,0.6,0.4c0.1,0.2,0.3,0.4,0.3,0.6c0,0.2,0.1,0.4,0.1,0.7v0.1v0.1c0,0,0,0.1,0,0.2v0.1h-2.6
			c0,0.3,0.1,0.6,0.3,0.8C112.3,52.7,112.5,52.8,112.8,52.9"/>
		<path class="st0" d="M116.8,50.8l0.5-0.8c0.1-0.2,0.2-0.3,0.3-0.4c0.1-0.1,0.3-0.1,0.5-0.1c0.1-0.1,0.2,0,0.3,0
			c0.1,0,0.2,0.1,0.3,0.1l-1.3,2l1.2,2c-0.2,0.1-0.4,0.1-0.5,0.1c-0.2,0-0.3,0-0.5-0.1c-0.1-0.1-0.3-0.2-0.4-0.4l-0.5-0.8l-0.7,1.2
			h-1.2l1.3-2l-1.2-1.9c0-0.1,0.2-0.1,0.3-0.1c0.1,0,0.2,0,0.4,0c0.2,0,0.3,0,0.5,0.1c0.1,0.1,0.2,0.2,0.3,0.3L116.8,50.8"/>
		<path class="st0" d="M122,51.5c0-0.2,0-0.3,0-0.5s-0.1-0.3-0.1-0.4c-0.1-0.1-0.2-0.2-0.3-0.2c-0.1-0.1-0.2-0.1-0.4-0.1
			c-0.2,0-0.4,0-0.5,0.1s-0.2,0.2-0.1,0.3v1.9c0,0,0.1,0.1,0.2,0.2s0.3,0.1,0.4,0.1c0.3,0,0.5-0.1,0.6-0.3
			C122,52.2,122.1,51.8,122,51.5 M120.5,49.8c0-0.1,0.2-0.2,0.4-0.3c0.2-0.1,0.4-0.1,0.6-0.1s0.4,0,0.7,0.1c0.2,0.1,0.4,0.2,0.5,0.3
			c0.2,0.2,0.3,0.4,0.4,0.6c0.1,0.3,0.2,0.7,0.2,1c0,0.4-0.1,0.8-0.2,1.1s-0.2,0.5-0.4,0.7c-0.2,0.1-0.4,0.3-0.6,0.4
			c-0.2,0.1-0.4,0.1-0.6,0.1c-0.2-0.1-0.3,0-0.5-0.1c-0.1,0-0.2-0.1-0.3-0.2c-0.1,0-0.1-0.1-0.2-0.2c-0.1-0.1-0.1-0.1-0.1-0.1
			s0,0.2-0.1,0.2s-0.1,0.1-0.2,0.1h-0.8v-6.1c0,0,0,0,0.1,0s0.2,0,0.3,0s0.2,0,0.3,0s0.2,0.1,0.3,0.1s0.1,0.1,0.2,0.2
			c0,0.1,0.1,0.2,0.1,0.3v1.9H120.5z"/>
		<path class="st0" d="M126.6,51.1c0-0.2-0.1-0.5-0.2-0.7s-0.4-0.3-0.6-0.3s-0.4,0.1-0.6,0.2c-0.2,0.2-0.2,0.4-0.2,0.7L126.6,51.1
			 M126.1,52.9c0.1,0,0.3,0,0.4,0l0.3-0.1c0.1-0.1,0.2-0.1,0.2-0.2s0.1-0.1,0.2-0.2c0.1,0.1,0.1,0.2,0.2,0.3s0.1,0.2,0.1,0.3
			s-0.1,0.3-0.2,0.4c-0.2,0.1-0.3,0.2-0.5,0.2c-0.3,0.1-0.5,0.1-0.8,0.1c-0.3-0.1-0.5,0-0.8-0.1s-0.5-0.2-0.7-0.4s-0.4-0.4-0.5-0.7
			c-0.2-0.3-0.2-0.7-0.2-1.1c0-0.3,0-0.6,0.2-0.9c0.1-0.3,0.2-0.5,0.4-0.7c0.2-0.2,0.4-0.3,0.6-0.4c0.2-0.1,0.5-0.1,0.7-0.1
			c0.3,0,0.6,0,0.8,0.2c0.2,0.1,0.4,0.2,0.6,0.4s0.3,0.4,0.3,0.6c0,0.2,0.1,0.4,0.1,0.7v0.1v0.1c0,0,0,0.1,0,0.2v0.1H125
			c0,0.3,0.1,0.6,0.3,0.8C125.5,52.7,125.8,52.9,126.1,52.9"/>
		<path class="st0" d="M129.7,53.7c-0.1,0-0.1,0-0.2,0c-0.1,0-0.2,0-0.3,0c-0.2,0-0.2,0-0.3,0s-0.2-0.1-0.2-0.1
			c-0.1-0.1-0.1-0.1-0.2-0.2c-0.1-0.1-0.1-0.2-0.1-0.3v-5.5c0,0,0,0,0.1,0s0.2,0,0.3,0s0.2,0,0.3,0s0.2,0,0.3,0.1s0.1,0.1,0.2,0.2
			c0,0.1,0.1,0.2,0.1,0.3L129.7,53.7"/>
		<rect x="0.5" y="0.5" class="st2" width="164" height="85"/>
	</g>
	<polyline class="st0" points="42.5,67.2 41.8,67.2 41.8,62.2 40.4,62.2 40.4,61.6 43.9,61.6 43.9,62.2 42.5,62.2 	"/>
</g>
</svg>
