<?xml version="1.0" encoding="utf-8"?>
<!-- Generator: Adobe Illustrator 27.0.1, SVG Export Plug-In . SVG Version: 6.00 Build 0)  -->
<svg version="1.1" id="Layer_1" xmlns="http://www.w3.org/2000/svg" xmlns:xlink="http://www.w3.org/1999/xlink" x="0px" y="0px"
	 viewBox="0 0 283.5 283.5" style="enable-background:new 0 0 283.5 283.5;" xml:space="preserve">
<style type="text/css">
	.st0{fill:#FFFFFF;}
</style>
<path class="st0" d="M268.9,74.1c0-3.3-0.4-6.6-1.1-9.8c-4.9-21.4-23.5-36.2-45.5-36.3c-26.7-0.1-53.4,0-80.1,0
	c-26.9,0-53.7-0.1-80.6,0c-25.7,0.1-46.2,20.7-46.3,46.3c-0.1,18.1-0.3,36.2,0.1,54.3c0.2,8.6,1.1,17.4,3.1,25.8
	c15.3,67.3,79.7,109.4,147.6,96.9c58.5-10.9,102.5-63,103-122.5C269.1,110.6,269,92.3,268.9,74.1 M91.5,225.1
	c-31.3-17.1-50.6-42.8-58.2-77.6c14-4.1,37.4-0.7,52.8,18.1C101,183.9,101.4,208.3,91.5,225.1 M234.2,187.7
	c-11.6,17.4-26.8,30.4-45.8,39.3c-10.9-17.3-10.9-42.3,4-60.9c15.2-18.9,39.4-23.8,57.9-17.5C247.6,162.7,242.2,175.7,234.2,187.7
	 M252.5,127.9v3.9c-29.4-6-54.4,1.1-73,24.6c-18.6,23.5-19.7,49.5-7.1,76.6c-22,6.1-43.7,5.7-65.4-1.4c11.6-26,10.5-51-6.6-73.8
	c-17.1-22.8-40.6-31-69-27.1v-2.8c0-11.8,0-23.7,0-35.5H73c4.6,0,8.3-3.7,8.3-8.2c0-4.5-3.7-8.3-8.3-8.3H31.6v-1.5
	c0.1-16.6,13.3-29.9,29.9-29.9c53.7-0.1,107.4-0.1,161.1,0c16.6,0,29.8,13.2,29.9,29.8v1.6h-41c-4.5,0-8.2,3.7-8.2,8.3
	c0,4.5,3.7,8.2,8.2,8.2h41.1C252.6,104.2,252.5,116,252.5,127.9"/>
</svg>
