<?xml version="1.0" encoding="utf-8"?>
<!-- Generator: Adobe Illustrator 27.0.1, SVG Export Plug-In . SVG Version: 6.00 Build 0)  -->
<svg version="1.1" id="Layer_1" xmlns="http://www.w3.org/2000/svg" xmlns:xlink="http://www.w3.org/1999/xlink" x="0px" y="0px"
	 viewBox="0 0 283.5 283.5" style="enable-background:new 0 0 283.5 283.5;" xml:space="preserve">
<style type="text/css">
	.st0{fill:#FFFFFF;}
</style>
<path class="st0" d="M269,74c0-3.3-0.4-6.6-1.1-9.8c-4.9-21.5-23.5-36.2-45.5-36.3c-26.7-0.1-53.4,0-80.2,0c-26.9,0-53.8-0.1-80.6,0
	c-25.7,0.1-46.3,20.7-46.4,46.4c-0.1,18.1-0.3,36.2,0.1,54.3c0.2,8.6,1.1,17.4,3.1,25.8c15.4,67.3,79.8,109.5,147.7,96.9
	c58.6-10.8,102.5-63.1,103.1-122.6C269.2,110.5,269.1,92.3,269,74 M91.5,225.2c-31.3-17.1-50.7-42.9-58.2-77.6
	c14-4.1,37.4-0.7,52.8,18.1C101,183.9,101.3,208.3,91.5,225.2 M234.3,187.7c-11.5,17.4-26.8,30.4-45.8,39.3
	c-10.9-17.3-10.9-42.3,4-60.9c15.2-18.9,39.5-23.8,57.9-17.5C247.6,162.7,242.2,175.8,234.3,187.7 M252.6,127.8v3.9
	c-29.4-6-54.4,1.1-73,24.6c-18.6,23.5-19.7,49.5-7.1,76.7c-22,6.1-43.8,5.6-65.4-1.4c11.7-26,10.5-51-6.6-73.8
	c-17.1-22.8-40.6-31-69-27.1v-2.8c0-11.8,0-53.6,0-53.6c0.1-16.6,13.3-29.9,29.9-29.9c53.7-0.1,107.5-0.1,161.3,0
	c16.6,0,29.9,13.2,30,29.9C252.6,74.2,252.6,116,252.6,127.8"/>
<path class="st0" d="M74.1,72.6c0,9.4,0,18.7,0,28.1c0,1.3,0,2.7,0,4c0,2.7,2.4,5.3,5.2,5.2c2.8-0.1,5.2-2.3,5.2-5.2
	c0-9.4,0-18.7,0-28.1c0-1.3,0-2.7,0-4c0-2.7-2.4-5.3-5.2-5.2C76.4,67.6,74.1,69.7,74.1,72.6L74.1,72.6z"/>
<path class="st0" d="M54.5,72.6c0,9.4,0,18.7,0,28.1c0,1.3,0,2.7,0,4c0,2.7,2.4,5.3,5.2,5.2c2.8-0.1,5.2-2.3,5.2-5.2
	c0-9.4,0-18.7,0-28.1c0-1.3,0-2.7,0-4c0-2.7-2.4-5.3-5.2-5.2C56.9,67.6,54.5,69.7,54.5,72.6L54.5,72.6z"/>
<path class="st0" d="M216.4,72.6c0,9.4,0,18.7,0,28.1c0,1.3,0,2.7,0,4c0,2.7,2.4,5.3,5.2,5.2c2.8-0.1,5.2-2.3,5.2-5.2
	c0-9.4,0-18.7,0-28.1c0-1.3,0-2.7,0-4c0-2.7-2.4-5.3-5.2-5.2C218.8,67.6,216.4,69.7,216.4,72.6L216.4,72.6z"/>
<path class="st0" d="M196.9,72.6c0,9.4,0,18.7,0,28.1c0,1.3,0,2.7,0,4c0,2.7,2.4,5.3,5.2,5.2c2.8-0.1,5.2-2.3,5.2-5.2
	c0-9.4,0-18.7,0-28.1c0-1.3,0-2.7,0-4c0-2.7-2.4-5.3-5.2-5.2C199.2,67.6,196.9,69.7,196.9,72.6L196.9,72.6z"/>
</svg>
