<?xml version="1.0" encoding="utf-8"?>
<!-- Generator: Adobe Illustrator 27.0.1, SVG Export Plug-In . SVG Version: 6.00 Build 0)  -->
<svg version="1.1" id="Layer_1" xmlns="http://www.w3.org/2000/svg" xmlns:xlink="http://www.w3.org/1999/xlink" x="0px" y="0px"
	 viewBox="0 0 604.5 283.5" style="enable-background:new 0 0 604.5 283.5;" xml:space="preserve">
<style type="text/css">
	.st0{fill:#FFFFFF;}
	.st1{enable-background:new    ;}
	.st2{fill:#94C5C4;}
</style>
<path class="st0" d="M447.5,241H157c-52.5,0-95.5-43-95.5-95.5v0C61.5,93,104.5,50,157,50h290.5C500,50,543,93,543,145.5v0
	C543,198,500,241,447.5,241z"/>
<g class="st1">
	<path class="st2" d="M206,156.1c4.4-2.2,8.4-5.1,11.9-8.6c3.5-3.5,6.3-8.1,8.4-13.8c0.9-2.5,2.2-4.2,4.1-5.2
		c1.8-0.9,3.6-1.2,5.2-0.9c1.7,0.3,3,1.2,3.9,2.7c1,1.5,1.1,3.4,0.3,5.7c-1.9,5.8-4.3,10.8-7.2,14.9c-2.9,4.1-6.1,7.6-9.6,10.4
		s-7.2,5.2-11.2,7c-3.9,1.8-7.9,3.3-11.9,4.6c-0.8,2.3-1.7,4.6-2.6,7c-0.9,2.4-1.7,4.7-2.6,7.1c-1.1,3.3-2.6,6-4.4,8.4
		c-1.8,2.3-3.8,4.3-6.1,5.8c-2.3,1.6-4.7,2.7-7.3,3.4c-2.6,0.7-5.3,1.1-8,1.1c-3.1,0-6.1-0.6-8.9-1.7c-2.8-1.1-5.3-2.7-7.3-4.8
		c-2-2-3.4-4.5-4.2-7.3c-0.8-2.8-0.7-5.9,0.3-9.3c0.8-2.7,2.2-5.1,4.2-7c2-1.9,4.2-3.6,6.7-4.9c2.5-1.3,5.1-2.4,7.9-3.2
		c2.8-0.8,5.5-1.4,8.1-1.9c-3.8-0.8-7-2.6-9.7-5.5s-4-6.5-4-10.8c0-2.2,0.4-4.6,1.2-7l9.9-28.5c0.9-2.6,2.1-4.8,3.6-6.7
		c1.5-1.9,3.1-3.4,5-4.7c1.8-1.2,3.8-2.1,5.8-2.7c2-0.6,4.1-0.9,6.2-0.9c3,0,5.5,0.4,7.7,1.3c2.2,0.9,4.2,2.3,6.2,4.3
		c0.4-1.2,1.1-2.2,1.8-3.1c0.8-0.8,1.6-1.5,2.6-1.9c1-0.4,2-0.7,3-0.8c1-0.1,2,0,3,0.3c0.4,0.1,1.1,0.4,1.8,0.8c0.8,0.4,1.4,1,2,1.8
		c0.6,0.9,0.9,2,1,3.6c0.1,1.5-0.2,3.5-1.1,6L206,156.1z M179.7,178.1c-3.6,1-6.7,2-9.2,3.2c-2.5,1.2-4.2,2.7-5,4.7
		c-0.4,0.9-0.6,1.7-0.6,2.3c0,1,0.3,1.9,0.9,2.6c0.6,0.7,1.6,1,2.8,1c1.7,0,3.3-0.5,4.8-1.6c1.5-1,2.7-2.6,3.5-4.7L179.7,178.1z
		 M201.6,120.5c0.1-0.3,0.1-0.6,0.1-0.8c0-0.3,0-0.5,0-0.7c0-1.9-0.6-3.5-1.8-4.6c-1.2-1.1-2.6-1.8-4.2-1.9
		c-1.3-0.1-2.5,0.2-3.8,0.9c-1.3,0.8-2.2,2-2.8,3.7l-10.4,29.9c-0.1,0.4-0.3,0.8-0.3,1.2c-0.1,0.4-0.1,0.8-0.1,1.1
		c0,1.2,0.4,2.1,1.2,2.7c0.8,0.6,1.8,1,3.1,1.1c2,0.1,3.9-0.5,5.7-1.9c1.8-1.4,3.3-3.2,4.5-5.4L201.6,120.5z"/>
	<path class="st2" d="M279,133.7c0.6-2,1.8-3.3,3.5-4c1.7-0.7,3.5-0.8,5.2-0.4c1.7,0.4,3.1,1.2,4.2,2.4c1.1,1.3,1.3,2.8,0.7,4.7
		c-3.3,9.4-7.5,16.6-12.7,21.8c-5.2,5.1-10.9,7.7-16.9,7.7c-2.3,0-4.5-0.4-6.5-1.2c-2-0.8-3.8-1.8-5.4-3.2s-2.8-3-3.7-5
		c-0.9-1.9-1.3-4.1-1.3-6.6c0-2.1,0.4-4.5,1.3-7.1l4.9-13.5c0.4-1.3,0.5-2.4,0.2-3.3c-0.3-0.8-0.9-1.6-1.6-2.1
		c-0.7-0.6-1.6-1-2.6-1.3c-1-0.3-1.9-0.6-2.8-0.9l-6.2,16.7c-0.7,2-1.9,3.4-3.6,4.3c-1.7,0.9-3.4,1.2-5.1,0.9
		c-1.7-0.3-3-1.1-4.1-2.4c-1.1-1.3-1.2-3.2-0.5-5.5l8.1-21.9c-1.9-2.3-2.8-4.9-2.8-7.9c0-0.8,0.1-1.7,0.3-2.7c0.2-1,0.5-1.8,0.8-2.7
		c0.6-2,1.7-3.6,3.4-4.9c1.7-1.3,3.6-1.9,5.9-1.9c1.5,0,2.9,0.4,4.2,1.1c1.3,0.7,2.4,1.6,3.3,2.8c0.9,1.1,1.5,2.4,1.8,3.9
		s0.2,2.9-0.3,4.5c1.6,0.4,3.4,1.1,5.7,1.9c2.2,0.9,4.4,1.9,6.4,3.3c2.1,1.3,3.8,2.9,5.3,4.8c1.4,1.9,2.2,4.2,2.2,6.8
		c0,1-0.1,1.9-0.3,2.9c-0.2,1-0.5,2.1-0.8,3.2l-6.5,18.2c-0.3,0.8-0.4,1.6-0.4,2.4c0,0.8,0.2,1.5,0.6,2.1c0.4,0.6,1,0.8,1.8,0.8
		c1.2,0,2.4-0.5,3.7-1.4c1.3-1,2.5-2.3,3.8-3.9c1.3-1.7,2.5-3.6,3.7-5.9C276.9,138.9,278,136.4,279,133.7z"/>
	<path class="st2" d="M331.4,134.4c0.6-1.9,1.8-3.3,3.5-4.1c1.7-0.8,3.5-1.1,5.2-0.8c1.7,0.3,3.1,1,4.2,2.3c1.1,1.3,1.2,3,0.5,5.2
		c-1.9,5.3-4.3,9.8-7.2,13.5c-3,3.7-6.3,6.6-9.9,8.9c-3.6,2.3-7.4,4-11.4,5c-4,1-7.9,1.6-11.8,1.6c-4.1,0-7.8-0.5-11.3-1.5
		c-3.5-1-6.5-2.4-9-4.3c-2.6-1.9-4.6-4.2-6-6.8c-1.5-2.7-2.2-5.7-2.2-9c0-1.3,0.1-2.6,0.4-3.9c0.3-1.3,0.6-2.7,1.1-4l6.5-19
		c1-2.7,2.3-5.2,3.9-7.3c1.6-2.1,3.5-3.9,5.5-5.3c2.1-1.4,4.3-2.5,6.7-3.2c2.4-0.7,4.8-1.1,7.3-1.1c3.1,0,6,0.5,8.5,1.4
		c2.6,1,4.8,2.3,6.6,3.9c1.8,1.7,3.2,3.6,4.2,5.9c1,2.3,1.5,4.7,1.5,7.4c0,1.9-0.3,3.9-0.9,6.1c-0.7,2.5-1.8,4.8-3.3,6.8
		c-1.4,2-3.1,3.7-5.1,5.1c-1.9,1.4-4.1,2.5-6.4,3.3s-4.8,1.2-7.3,1.2c-2.2,0-4.3-0.3-6.3-0.9c-2-0.6-3.8-1.4-5.4-2.4l-0.9,2.1
		c-0.4,1-0.6,2-0.6,3.1c0,2.6,1.2,4.8,3.6,6.5c2.4,1.8,5.6,2.7,9.7,2.7c2.4,0,4.8-0.4,7.4-1.1c2.6-0.7,5-1.8,7.3-3.3
		c2.3-1.5,4.5-3.4,6.4-5.7C328.6,140.5,330.2,137.7,331.4,134.4z M307,113.8c-1.3,0-2.5,0.5-3.7,1.4c-1.2,0.9-2.2,2.2-2.8,3.9
		l-2.3,6.7c1,0.6,2.2,1,3.6,1.2c1.4,0.2,2.7,0.2,4.1,0s2.5-0.7,3.6-1.5c1.1-0.8,1.8-1.9,2.3-3.4c0.3-0.8,0.4-1.7,0.4-2.7
		c0-1.6-0.5-2.9-1.4-4C309.8,114.4,308.6,113.8,307,113.8z"/>
	<path class="st2" d="M384,134.4c0.6-1.9,1.8-3.3,3.5-4.1c1.7-0.8,3.5-1.1,5.2-0.8c1.7,0.3,3.1,1,4.2,2.3c1.1,1.3,1.2,3,0.5,5.2
		c-1.9,5.3-4.3,9.8-7.2,13.5c-3,3.7-6.3,6.6-9.9,8.9c-3.6,2.3-7.4,4-11.4,5c-4,1-7.9,1.6-11.8,1.6c-4.1,0-7.8-0.5-11.3-1.5
		c-3.5-1-6.5-2.4-9-4.3c-2.6-1.9-4.6-4.2-6-6.8c-1.5-2.7-2.2-5.7-2.2-9c0-1.3,0.1-2.6,0.4-3.9c0.3-1.3,0.6-2.7,1.1-4l6.5-19
		c1-2.7,2.3-5.2,3.9-7.3c1.6-2.1,3.5-3.9,5.5-5.3c2.1-1.4,4.3-2.5,6.7-3.2c2.4-0.7,4.8-1.1,7.3-1.1c3.1,0,6,0.5,8.5,1.4
		c2.6,1,4.8,2.3,6.6,3.9c1.8,1.7,3.2,3.6,4.2,5.9c1,2.3,1.5,4.7,1.5,7.4c0,1.9-0.3,3.9-0.9,6.1c-0.7,2.5-1.8,4.8-3.3,6.8
		s-3.1,3.7-5.1,5.1c-1.9,1.4-4.1,2.5-6.4,3.3s-4.8,1.2-7.3,1.2c-2.2,0-4.3-0.3-6.3-0.9c-2-0.6-3.8-1.4-5.4-2.4l-0.9,2.1
		c-0.4,1-0.6,2-0.6,3.1c0,2.6,1.2,4.8,3.6,6.5c2.4,1.8,5.6,2.7,9.7,2.7c2.4,0,4.8-0.4,7.4-1.1c2.6-0.7,5-1.8,7.3-3.3
		c2.3-1.5,4.5-3.4,6.4-5.7C381.2,140.5,382.8,137.7,384,134.4z M359.6,113.8c-1.3,0-2.5,0.5-3.7,1.4c-1.2,0.9-2.2,2.2-2.8,3.9
		l-2.3,6.7c1,0.6,2.2,1,3.6,1.2c1.4,0.2,2.7,0.2,4.1,0s2.5-0.7,3.6-1.5c1.1-0.8,1.8-1.9,2.3-3.4c0.3-0.8,0.4-1.7,0.4-2.7
		c0-1.6-0.5-2.9-1.4-4C362.4,114.4,361.2,113.8,359.6,113.8z"/>
	<path class="st2" d="M442.3,133.9c0.7-2.1,1.9-3.5,3.7-4.4c1.8-0.8,3.5-1.1,5.3-0.8c1.7,0.3,3.1,1.2,4.2,2.5c1,1.3,1.1,3.1,0.3,5.3
		c-1.9,5.4-4.1,10-6.5,13.8c-2.4,3.8-5,6.8-7.7,9.1c-2.7,2.3-5.5,4-8.4,5c-2.9,1-5.7,1.5-8.5,1.5c-2.4,0-4.6-0.4-6.7-1.1
		c-2.1-0.7-4-1.7-5.7-3.1c-1.7-1.3-3-3-3.9-4.9c-1-2-1.4-4.2-1.4-6.8c0-2.4,0.5-4.9,1.4-7.3l7.8-22.1c0.1-0.5,0.3-1,0.4-1.5
		c0.1-0.5,0.2-0.9,0.2-1.3c0-1-0.3-1.9-0.9-2.5c-0.6-0.6-1.5-0.9-2.5-0.9c-1.6,0-3.2,0.7-5.1,2c-1.8,1.3-3.5,3.4-4.9,6.2
		c-1,2.7-2,5.5-3.1,8.6c-1.1,3.1-2.2,6.2-3.3,9.3c-1.1,3.1-2.2,6.3-3.3,9.3c-1.1,3.1-2.1,5.9-3.1,8.6c-0.6,1.8-1.5,3.2-2.7,4.3
		c-1.2,1.1-2.5,1.9-3.8,2.4c-1.4,0.5-2.8,0.7-4.2,0.6c-1.4-0.1-2.6-0.5-3.6-1.2c-1-0.7-1.7-1.7-2.2-3c-0.4-1.3-0.4-2.9,0.1-4.7
		l18.5-51.9c0.4-1.5,1.3-2.7,2.7-3.4s2.8-1.1,4.3-1.2c1.5,0,2.9,0.2,4.2,0.8c1.3,0.6,2.1,1.4,2.5,2.4c3-1.7,6.5-2.5,10.7-2.5
		c2.2,0,4.3,0.4,6.3,1.1c2,0.7,3.7,1.8,5.2,3.1c1.5,1.3,2.7,2.9,3.6,4.7c0.9,1.9,1.3,3.9,1.3,6.1c0,1.8-0.4,3.8-1.2,6.1l0.1-0.1
		l-8.8,24.8c-0.4,1.3-0.6,2.2-0.6,2.8c0,2,1,3,3.1,3c2.6,0,5.3-1.5,8.2-4.4C437.2,145.4,439.9,140.6,442.3,133.9z"/>
</g>
</svg>
