<?xml version="1.0" encoding="utf-8"?>
<!-- Generator: Adobe Illustrator 27.0.1, SVG Export Plug-In . SVG Version: 6.00 Build 0)  -->
<svg version="1.1" id="Layer_1" xmlns="http://www.w3.org/2000/svg" xmlns:xlink="http://www.w3.org/1999/xlink" x="0px" y="0px"
	 viewBox="0 0 604.5 283.5" style="enable-background:new 0 0 604.5 283.5;" xml:space="preserve">
<style type="text/css">
	.st0{fill:#94C5C4;}
	.st1{enable-background:new    ;}
	.st2{fill:#FFFFFF;}
</style>
<path class="st0" d="M508.1,241h-410c-52.5,0-95.5-43-95.5-95.5l0,0C2.6,93,45.5,50,98.1,50h410c52.5,0,95.5,43,95.5,95.5l0,0
	C603.6,198,560.6,241,508.1,241z"/>
<g class="st1">
	<path class="st2" d="M149,133.8c0.5-1.6,1.3-2.9,2.3-3.9c1-1,2.1-1.6,3.3-1.9c1.1-0.3,2.3-0.4,3.5-0.1c1.2,0.3,2.2,0.7,3.1,1.4
		c0.9,0.7,1.4,1.6,1.7,2.8c0.3,1.2,0.2,2.6-0.3,4.1c-1.9,5.3-4.2,9.8-7.1,13.6c-2.9,3.8-6.2,6.9-10,9.4c-3.8,2.4-8,4.3-12.7,5.4
		c-4.7,1.2-9.7,1.8-15.1,1.8c-1.3,0-2.7,0-4.2-0.1c-1.4-0.1-2.9-0.2-4.3-0.3c-2.2,0-4.2-0.3-6-1c-1.8-0.7-3.4-1.6-4.9-2.7
		c-0.7,1.8-1.4,3.9-2.1,6c-0.7,2.2-1.5,4.4-2.3,6.7c-0.8,2.3-1.6,4.5-2.3,6.7c-0.8,2.2-1.5,4.2-2.2,6c-0.5,1.6-1.4,2.9-2.6,3.9
		c-1.2,1-2.5,1.6-3.9,1.9c-1.4,0.3-2.8,0.3-4.2,0c-1.4-0.3-2.6-0.9-3.6-1.8c-1-0.9-1.7-2.1-2-3.5c-0.3-1.4-0.1-3.2,0.6-5.2
		l27.6-78.1c0.4-1.6,1.2-2.9,2.2-3.9s2.1-1.7,3.3-2.1c1.2-0.4,2.5-0.6,3.8-0.6c1.3,0,2.5,0.3,3.6,0.7c1,0.4,1.9,1,2.6,1.7
		c0.7,0.7,1,1.5,0.9,2.3c1.3-1,2.7-1.7,4.3-2c1.6-0.3,3.2-0.4,4.7-0.4c2.1,0,4.2,0.4,6.2,1.3c2,0.9,3.7,2.1,5.2,3.6
		c1.5,1.5,2.6,3.2,3.5,5.3c0.9,2,1.3,4.2,1.3,6.4c0,2-0.3,3.9-1,5.8c-1.6,4.3-3.1,8.7-4.7,13.2c-1.6,4.5-3.2,8.8-4.7,13
		c-0.1,0.4-0.3,0.7-0.4,1c-0.1,0.3-0.3,0.7-0.6,1.3c3.8-1.4,7.3-3.6,10.4-6.5C144.8,142.1,147.2,138.4,149,133.8z M104.8,143.8
		c-0.7,2.4-0.6,4.2,0.4,5.4c1,1.2,2.4,1.8,4.2,1.8c1.5-0.1,2.9-0.6,4.3-1.5c1.4-0.9,2.3-2.2,2.9-3.9c0.7-2.1,1.4-4.1,2.1-5.8
		c0.6-1.7,1.2-3.4,1.8-5c0.6-1.6,1.1-3.3,1.7-5c0.6-1.7,1.2-3.7,1.9-5.9c0.7-2.1,0.8-3.9,0.1-5.4c-0.7-1.4-1.9-2.2-3.6-2.4
		c-1.6-0.1-3.1,0.4-4.7,1.4c-1.6,1-2.8,2.5-3.8,4.4l0.2-0.1L104.8,143.8z"/>
	<path class="st2" d="M201.6,133.7c0.6-2,1.8-3.3,3.5-4c1.7-0.7,3.5-0.8,5.2-0.4c1.7,0.4,3.1,1.2,4.2,2.4c1.1,1.3,1.3,2.8,0.7,4.7
		c-3.3,9.4-7.5,16.6-12.7,21.8c-5.2,5.1-10.9,7.7-16.9,7.7c-2.3,0-4.5-0.4-6.5-1.2c-2-0.8-3.8-1.8-5.4-3.2c-1.6-1.4-2.8-3-3.7-5
		c-0.9-1.9-1.3-4.1-1.3-6.6c0-2.1,0.4-4.5,1.3-7.1l4.9-13.5c0.4-1.3,0.5-2.4,0.2-3.3c-0.3-0.8-0.9-1.6-1.6-2.1
		c-0.7-0.6-1.6-1-2.6-1.3c-1-0.3-1.9-0.6-2.8-0.9l-6.2,16.7c-0.7,2-1.9,3.4-3.6,4.3c-1.7,0.9-3.4,1.2-5.1,0.9
		c-1.7-0.3-3-1.1-4.1-2.4c-1.1-1.3-1.2-3.2-0.5-5.5l8.1-21.9c-1.9-2.3-2.8-4.9-2.8-7.9c0-0.8,0.1-1.7,0.3-2.7c0.2-1,0.5-1.8,0.8-2.7
		c0.6-2,1.7-3.6,3.4-4.9c1.7-1.3,3.6-1.9,5.9-1.9c1.5,0,2.9,0.4,4.2,1.1c1.3,0.7,2.4,1.6,3.3,2.8c0.9,1.1,1.5,2.4,1.8,3.9
		s0.2,2.9-0.3,4.5c1.6,0.4,3.4,1.1,5.7,1.9c2.2,0.9,4.4,1.9,6.4,3.3c2.1,1.3,3.8,2.9,5.3,4.8c1.4,1.9,2.2,4.2,2.2,6.8
		c0,1-0.1,1.9-0.3,2.9c-0.2,1-0.5,2.1-0.8,3.2l-6.5,18.2c-0.3,0.8-0.4,1.6-0.4,2.4c0,0.8,0.2,1.5,0.6,2.1c0.4,0.6,1,0.8,1.8,0.8
		c1.2,0,2.4-0.5,3.7-1.4c1.3-1,2.5-2.3,3.8-3.9c1.3-1.7,2.5-3.6,3.7-5.9C199.4,138.9,200.6,136.4,201.6,133.7z"/>
	<path class="st2" d="M254,134.4c0.6-1.9,1.8-3.3,3.5-4.1c1.7-0.8,3.5-1.1,5.2-0.8c1.7,0.3,3.1,1,4.2,2.3c1.1,1.3,1.2,3,0.5,5.2
		c-1.9,5.3-4.3,9.8-7.2,13.5c-3,3.7-6.3,6.6-9.9,8.9c-3.6,2.3-7.4,4-11.4,5c-4,1-7.9,1.6-11.8,1.6c-4.1,0-7.8-0.5-11.3-1.5
		c-3.5-1-6.5-2.4-9-4.3c-2.6-1.9-4.6-4.2-6-6.8c-1.5-2.7-2.2-5.7-2.2-9c0-1.3,0.1-2.6,0.4-3.9c0.3-1.3,0.6-2.7,1.1-4l6.5-19
		c1-2.7,2.3-5.2,3.9-7.3c1.6-2.1,3.5-3.9,5.5-5.3c2.1-1.4,4.3-2.5,6.7-3.2c2.4-0.7,4.8-1.1,7.3-1.1c3.1,0,6,0.5,8.5,1.4
		c2.6,1,4.8,2.3,6.6,3.9c1.8,1.7,3.2,3.6,4.2,5.9c1,2.3,1.5,4.7,1.5,7.4c0,1.9-0.3,3.9-0.9,6.1c-0.7,2.5-1.8,4.8-3.3,6.8
		c-1.4,2-3.1,3.7-5.1,5.1c-1.9,1.4-4.1,2.5-6.4,3.3s-4.8,1.2-7.3,1.2c-2.2,0-4.3-0.3-6.3-0.9c-2-0.6-3.8-1.4-5.4-2.4l-0.9,2.1
		c-0.4,1-0.6,2-0.6,3.1c0,2.6,1.2,4.8,3.6,6.5c2.4,1.8,5.6,2.7,9.7,2.7c2.4,0,4.8-0.4,7.4-1.1c2.6-0.7,5-1.8,7.3-3.3
		c2.3-1.5,4.5-3.4,6.4-5.7C251.1,140.5,252.7,137.7,254,134.4z M229.6,113.8c-1.3,0-2.5,0.5-3.7,1.4c-1.2,0.9-2.2,2.2-2.8,3.9
		l-2.3,6.7c1,0.6,2.2,1,3.6,1.2c1.4,0.2,2.7,0.2,4.1,0s2.5-0.7,3.6-1.5c1.1-0.8,1.8-1.9,2.3-3.4c0.3-0.8,0.4-1.7,0.4-2.7
		c0-1.6-0.5-2.9-1.4-4C232.4,114.4,231.1,113.8,229.6,113.8z"/>
	<path class="st2" d="M341.6,133.9c0.7-2.1,1.9-3.5,3.6-4.3c1.7-0.8,3.5-1.1,5.2-0.8c1.7,0.3,3.1,1.1,4.2,2.4
		c1.1,1.3,1.2,3.1,0.5,5.3c-1.9,5.5-4.1,10.2-6.5,14c-2.4,3.8-5,6.8-7.7,9.1c-2.7,2.3-5.5,3.9-8.3,4.9c-2.8,1-5.6,1.5-8.4,1.5
		c-2.4,0-4.8-0.4-7-1.1c-2.2-0.7-4.1-1.7-5.8-3.1c-1.7-1.3-3-3-4-4.9c-1-2-1.5-4.2-1.5-6.7c0-2.4,0.4-4.8,1.3-7.4l8-22.3
		c0.4-0.7,0.6-1.5,0.6-2.3c0-1-0.3-1.9-1-2.5c-0.7-0.6-1.5-0.9-2.6-0.9c-1.9,0-3.6,0.8-5.4,2.5c-1.7,1.7-3.2,3.9-4.5,6.7v-0.2
		c-1,2.7-2,5.5-3,8.5c-1,3-2.1,6.1-3.2,9.1c-1.1,3-2.2,6.1-3.2,9.1c-1,3-2,5.9-3,8.5c-0.7,1.9-1.6,3.3-2.9,4.4
		c-1.3,1.1-2.6,1.8-4,2.2c-1.4,0.4-2.8,0.4-4.2,0.2c-1.4-0.3-2.5-0.9-3.4-1.8c-0.9-0.9-1.5-2.1-1.8-3.6c-0.3-1.4,0-3.2,0.8-5.2
		l12.7-35.4c0.3-0.7,0.4-1.3,0.4-2c0-1-0.4-1.8-1.1-2.4c-0.7-0.6-1.6-0.8-2.7-0.8c-1.7,0-3.4,0.6-5,1.9c-1.6,1.3-3,3.1-4.2,5.5
		l-12.8,36c-0.5,1.7-1.4,3.1-2.5,4.1c-1.1,1-2.4,1.8-3.8,2.2c-1.4,0.4-2.8,0.5-4.2,0.3s-2.6-0.7-3.6-1.4c-1-0.7-1.7-1.8-2.2-3.1
		c-0.4-1.3-0.4-2.8,0.2-4.5l17.8-50.2c0.5-1.4,1.4-2.5,2.7-3.3c1.3-0.8,2.7-1.3,4.2-1.4c1.5-0.2,2.9-0.1,4.3,0.3
		c1.4,0.4,2.5,1.1,3.2,2.1c1.2-0.4,2.5-0.9,4.1-1.5c1.5-0.6,3.6-0.8,6.3-0.6c2.9,0.1,5.2,0.7,7,1.7c1.8,1,3.2,2.1,4.3,3.3
		c1.5-1.3,3-2.2,4.7-2.9c1.6-0.7,3.2-1.2,4.7-1.6c1.5-0.3,2.9-0.5,4.2-0.6c1.3,0,2.5,0,3.4,0.1c2.3,0.2,4.4,0.7,6.4,1.4
		c2,0.7,3.7,1.7,5.2,3c1.5,1.3,2.6,2.8,3.5,4.5c0.8,1.7,1.3,3.7,1.3,6c0,1-0.1,2-0.3,3.1c-0.2,1.1-0.5,2.1-0.8,3.2
		c-1.5,4.2-3.1,8.6-4.7,13.1c-1.7,4.5-3.2,8.8-4.7,13.1c-0.1,0.3-0.2,0.8-0.2,1.6c0,0.8,0.3,1.5,0.8,2.1c0.6,0.6,1.4,0.8,2.5,0.8
		c2.6,0,5.3-1.5,8.2-4.4C336.5,145.4,339.1,140.6,341.6,133.9z"/>
	<path class="st2" d="M352.6,147c-0.2,0.7-0.3,1.3-0.3,1.8c0,1,0.4,1.9,1.2,2.7c0.8,0.7,1.8,1.1,3.1,1.1c1.1,0,2.3-0.3,3.6-0.9
		c1.3-0.6,2.6-1.7,3.9-3.2c1.3-1.5,2.7-3.4,4.1-5.8c1.4-2.4,2.7-5.4,4.1-9c0.7-2.1,2-3.5,3.8-4.2c1.8-0.7,3.5-0.9,5.2-0.6
		c1.7,0.3,3.1,1.1,4.1,2.4c1,1.3,1.2,2.9,0.6,4.9c-1.9,5.8-4.1,10.5-6.5,14.3c-2.4,3.8-5,6.8-7.7,9.1c-2.7,2.3-5.4,3.9-8.2,4.8
		c-2.8,0.9-5.5,1.4-8.3,1.4c-2.6,0-5-0.4-7.3-1.1c-2.3-0.7-4.3-1.8-6-3.2c-1.7-1.4-3.1-3.1-4.1-5.2c-1-2-1.5-4.3-1.5-6.9
		c0-1,0.1-2.1,0.4-3.4c0.3-1.3,0.6-2.6,0.9-3.7c0.9-2.6,1.8-5.3,2.8-8.2c1-2.9,2-5.8,3.1-8.7c1-2.9,2.1-5.8,3.1-8.8
		c1-2.9,1.9-5.7,2.8-8.3c1-3,2.6-5.1,4.7-6.3c2.1-1.2,4.1-1.6,6-1.1c1.9,0.4,3.4,1.6,4.6,3.6c1.1,2,1.2,4.5,0.2,7.7L352.6,147z
		 M367.6,90.4c-2.5,0-4.7-0.9-6.4-2.7c-1.8-1.8-2.7-4-2.7-6.5c0-2.5,0.9-4.6,2.7-6.4c1.8-1.7,3.9-2.6,6.4-2.6c2.5,0,4.7,0.9,6.4,2.6
		c1.8,1.7,2.7,3.9,2.7,6.4c0,2.6-0.9,4.8-2.7,6.5C372.2,89.5,370.1,90.4,367.6,90.4z"/>
	<path class="st2" d="M431.9,134c0.7-2.1,1.9-3.6,3.6-4.3c1.7-0.7,3.4-0.9,5.1-0.6c1.7,0.4,3,1.2,4.1,2.5c1.1,1.3,1.3,2.9,0.6,4.9
		c-2,5.8-4.2,10.6-6.7,14.4c-2.4,3.8-5,6.8-7.7,9.1c-2.7,2.3-5.4,3.8-8.1,4.8c-2.7,0.9-5.4,1.4-8.1,1.4c-3.3,0-6.4-0.7-9.2-2.1
		c-2.8-1.4-5-3.2-6.7-5.6c-2.1,2.2-4.5,4.1-7.3,5.6c-2.8,1.5-5.8,2.2-9.2,2.2c-2.4,0-4.6-0.4-6.5-1.1c-2-0.7-3.8-1.8-5.3-3.1
		c-1.5-1.3-2.7-2.9-3.6-4.8c-0.8-1.8-1.3-3.9-1.3-6.1c0-1.9,0.3-3.9,1-5.9l13.7-38.2c0.7-1.9,1.6-3.4,2.8-4.4c1.2-1,2.5-1.6,3.9-1.8
		c1.4-0.2,2.7-0.1,4.1,0.3c1.3,0.4,2.5,1.2,3.4,2.2c0.9,1,1.5,2.2,1.8,3.7c0.3,1.4,0.1,3.1-0.6,4.8l-12.8,35
		c-0.4,1.3-0.6,2.3-0.6,3.1c0,1.9,0.8,2.8,2.6,2.8c1.1,0,2.3-0.3,3.4-0.9c1.2-0.6,2.4-1.4,3.6-2.4c1.2-1,2.3-2.2,3.3-3.5
		s1.9-2.8,2.7-4.3l12.2-34.4c1-2.9,2.6-4.8,4.7-5.7c2.1-0.9,4.1-1.1,6-0.4c1.9,0.6,3.4,1.9,4.6,3.7c1.1,1.8,1.2,4,0.3,6.5
		l-13.2,37.4c-0.2,0.6-0.3,1.1-0.3,1.7c0,0.8,0.3,1.5,0.9,1.9c0.6,0.5,1.4,0.7,2.4,0.7c2.5,0,5.2-1.5,8.1-4.5
		C426.7,145.5,429.4,140.7,431.9,134z"/>
	<path class="st2" d="M519.3,133.9c0.7-2.1,1.9-3.5,3.6-4.3c1.7-0.8,3.5-1.1,5.2-0.8c1.7,0.3,3.1,1.1,4.2,2.4
		c1.1,1.3,1.2,3.1,0.5,5.3c-1.9,5.5-4.1,10.2-6.5,14c-2.4,3.8-5,6.8-7.7,9.1c-2.7,2.3-5.5,3.9-8.3,4.9c-2.8,1-5.6,1.5-8.4,1.5
		c-2.4,0-4.8-0.4-7-1.1c-2.2-0.7-4.1-1.7-5.8-3.1c-1.7-1.3-3-3-4-4.9c-1-2-1.5-4.2-1.5-6.7c0-2.4,0.4-4.8,1.3-7.4l8-22.3
		c0.4-0.7,0.6-1.5,0.6-2.3c0-1-0.3-1.9-1-2.5c-0.7-0.6-1.5-0.9-2.6-0.9c-1.9,0-3.6,0.8-5.4,2.5c-1.7,1.7-3.2,3.9-4.5,6.7v-0.2
		c-1,2.7-2,5.5-3,8.5c-1,3-2.1,6.1-3.2,9.1c-1.1,3-2.2,6.1-3.2,9.1c-1,3-2,5.9-3,8.5c-0.7,1.9-1.6,3.3-2.9,4.4
		c-1.3,1.1-2.6,1.8-4,2.2c-1.4,0.4-2.8,0.4-4.2,0.2c-1.4-0.3-2.5-0.9-3.4-1.8c-0.9-0.9-1.5-2.1-1.8-3.6c-0.3-1.4,0-3.2,0.8-5.2
		l12.7-35.4c0.3-0.7,0.4-1.3,0.4-2c0-1-0.4-1.8-1.1-2.4c-0.7-0.6-1.6-0.8-2.7-0.8c-1.7,0-3.4,0.6-5,1.9c-1.6,1.3-3,3.1-4.2,5.5
		l-12.8,36c-0.5,1.7-1.4,3.1-2.5,4.1c-1.1,1-2.4,1.8-3.8,2.2c-1.4,0.4-2.8,0.5-4.2,0.3c-1.4-0.2-2.6-0.7-3.6-1.4
		c-1-0.7-1.7-1.8-2.2-3.1c-0.4-1.3-0.4-2.8,0.2-4.5l17.8-50.2c0.5-1.4,1.4-2.5,2.7-3.3c1.3-0.8,2.7-1.3,4.2-1.4
		c1.5-0.2,2.9-0.1,4.3,0.3c1.4,0.4,2.5,1.1,3.2,2.1c1.2-0.4,2.5-0.9,4.1-1.5c1.5-0.6,3.6-0.8,6.3-0.6c2.9,0.1,5.2,0.7,7,1.7
		c1.8,1,3.2,2.1,4.3,3.3c1.5-1.3,3-2.2,4.7-2.9c1.6-0.7,3.2-1.2,4.7-1.6c1.5-0.3,2.9-0.5,4.2-0.6c1.3,0,2.5,0,3.4,0.1
		c2.3,0.2,4.4,0.7,6.4,1.4c2,0.7,3.7,1.7,5.2,3c1.5,1.3,2.6,2.8,3.5,4.5c0.9,1.7,1.3,3.7,1.3,6c0,1-0.1,2-0.3,3.1
		c-0.2,1.1-0.5,2.1-0.8,3.2c-1.5,4.2-3.1,8.6-4.7,13.1c-1.7,4.5-3.2,8.8-4.7,13.1c-0.1,0.3-0.2,0.8-0.2,1.6c0,0.8,0.3,1.5,0.8,2.1
		c0.6,0.6,1.4,0.8,2.5,0.8c2.6,0,5.3-1.5,8.2-4.4C514.2,145.4,516.8,140.6,519.3,133.9z"/>
</g>
</svg>
