<?xml version="1.0" encoding="UTF-8"?>
<!-- Generator: Adobe Illustrator 25.2.1, SVG Export Plug-In . SVG Version: 6.00 Build 0)  -->
<svg version="1.1" id="Calque_1" xmlns="http://www.w3.org/2000/svg" xmlns:xlink="http://www.w3.org/1999/xlink" x="0px" y="0px" viewBox="0 0 283.5 38.6" style="enable-background:new 0 0 283.5 38.6;" xml:space="preserve">
<style type="text/css">
	.st0{fill:#FFFFFF;}
</style>
<g>
	<path class="st0" d="M27.7,19.2c0,3.7-2.7,7.6-7.8,7.6c-5,0-7.8-3.9-7.8-7.6s2.7-7.6,7.8-7.6C25,11.6,27.7,15.5,27.7,19.2    M39.9,19.2c0-9.1-6.8-18.4-19.9-18.4S0,10.1,0,19.2s6.9,18.4,20,18.4S39.9,28.4,39.9,19.2 M58,15.9c0,1.4-0.5,3.8-3.5,3.8h-1.1   v-7.6h1.1C57.5,12.1,58,14.5,58,15.9 M69.8,13.2c0-7.3-5.2-11.6-14-11.6H42.1h-0.3v0.3v35.4v0.3h0.3L53,36.8h0.3v-0.3V23.8   l5.4,13.7l0.1,0.2H59l12-0.9h0.4l-0.2-0.4l-6.7-14.7C68,20.1,69.8,17.1,69.8,13.2 M83.2,19.2c0-4.7,3.4-7.6,8.9-7.6   c2.5,0,3.9,0.5,5.9,1.3l0.5,0.2l-0.1-0.5l-2-10.8V1.6h-0.2c-1.4-0.4-3-0.8-5.2-0.8c-11.8,0-20,7.7-20,18.7   c0,10.3,8.2,18.1,19.1,18.1c2.5,0,4.9-0.3,6.9-0.8l0.2-0.1v-0.2l1.6-11l0.1-0.6l-0.5,0.3c-2.1,1.1-3.9,1.6-6.4,1.6   C87.6,26.8,83.2,24.2,83.2,19.2 M131.4,36.8h0.3v-0.3V1.1V0.8h-0.3l-11.6,0.8h-0.3v0.3v11.5h-6.3V1.1V0.8h-0.3l-11.6,0.8H101v0.3   v35.4v0.3h0.3l11.6-0.8h0.3v-0.3V23.9h6.3v13.4v0.3h0.3L131.4,36.8z M159,27l0.1-0.4h-0.4h-11.5v-3.1h6.9h0.3v-0.3v-8.6v-0.3h-0.3   h-6.9v-2.8h10.7h0.4l-0.1-0.4l-2.3-9.3l-0.1-0.2h-0.2h-20.3H135v0.3v34.6v0.3h0.3h21.1h0.2l0.1-0.2L159,27z M184,12.3l0.4,0.1V12V2   V1.8h-0.2c-2.8-0.6-6.5-0.9-9.8-0.9c-9,0-14.6,4.5-14.6,11.6c0,7.3,6.1,9.4,10.2,10.8c2.1,0.7,3.8,1.3,3.8,2.3   c0,0.8-0.5,1.6-4.2,1.6c-2.6,0-5.8-0.3-9.1-1l-0.4-0.1v0.4v9.9v0.3h0.2l0.3,0.1c3,0.5,5.3,1,8.9,1c10.7,0,16.9-4.3,16.9-11.9   c0-7.4-6.6-9.7-10.9-11.3c-1.9-0.7-3.6-1.3-3.6-2c0-1.3,2-1.5,4.2-1.5C178.6,11,181.8,11.7,184,12.3 M212.5,12.4h0.3v-0.3V1.9V1.6   h-0.3h-23.9h-0.2l-0.1,0.2L185.8,12l-0.1,0.4h0.4h7.7v24.9v0.3h0.3l11.6-0.8h0.3v-0.3V12.4H212.5z M263.3,22.4h-5l2.5-9.6   L263.3,22.4z M230.5,15.9c0,1.4-0.5,3.8-3.5,3.8h-1.1v-7.6h1.1C230,12.1,230.5,14.5,230.5,15.9 M280.5,36.4L268.2,1.8l-0.1-0.2   h-0.2h-14h-0.2l-0.1,0.2l-11.1,31.7l-5.4-11.9c3.3-1.6,5.2-4.6,5.2-8.5c0-7.3-5.2-11.6-14-11.6h-13.7h-0.3v0.3v35.4v0.3h0.3   l10.9-0.8h0.3v-0.3V23.8l5.4,13.7l0.1,0.2h0.2l11.1-0.7l11.2,0.7h0.2l0.1-0.2l1.8-5.8h9.6l1.7,5.8l0.1,0.2h0.2l12.5-0.8h0.4   L280.5,36.4z M278.5,5.1c0-0.8,0.6-1.4,1.4-1.4c0.3,0,0.6,0.2,0.9,0.3l-0.3-1.2c-0.2-0.1-0.5-0.2-0.8-0.2c-1.4,0-2.4,1.1-2.4,2.5   c0,1.5,1,2.5,2.4,2.5c0.2,0,0.6-0.1,0.8-0.2l0.1-1.3c-0.2,0.2-0.6,0.4-0.9,0.4C279,6.5,278.5,5.9,278.5,5.1 M282.9,5.1   c0,2-1.7,3.7-3.7,3.7s-3.7-1.7-3.7-3.7s1.7-3.7,3.7-3.7S282.9,3,282.9,5.1 M283.5,5.1c0-2.3-1.9-4.3-4.3-4.3   c-2.3,0-4.3,1.9-4.3,4.3c0,2.3,1.9,4.3,4.3,4.3C281.6,9.3,283.5,7.4,283.5,5.1"/>
</g>
</svg>