<?xml version="1.0" encoding="utf-8"?>
<!-- Generator: Adobe Illustrator 25.2.3, SVG Export Plug-In . SVG Version: 6.00 Build 0)  -->
<svg version="1.1" id="Calque_1" xmlns="http://www.w3.org/2000/svg" xmlns:xlink="http://www.w3.org/1999/xlink" x="0px" y="0px"
	 viewBox="0 0 1080 266" style="enable-background:new 0 0 1080 266;" xml:space="preserve">
<style type="text/css">
	.st0{fill:#999999;}
</style>
<g>
	<g>
		<path class="st0" d="M352.8,213.7c-16.2,0-32.5-9.8-32.5-28.6c0-17.6,12.8-28.6,33.3-28.6c9.3,0,14.5,1.8,22,4.8l1.9,0.8l-0.4-2
			l-7.2-40.5l-0.1-0.7l-0.7-0.2c-5.4-1.4-11.4-2.7-19.7-2.7c-44.1,0-74.9,28.9-74.9,70.2c0,38.7,30.8,67.9,71.7,67.9
			c9.3,0,18.2-1.1,25.7-3.1l0.7-0.2l0.1-0.7l5.8-41.3l0.3-2.2l-2,1.1C369.1,212.1,362.4,213.7,352.8,213.7z"/>
		<polygon class="st0" points="457.6,119.1 456.5,119.2 456.5,120.2 456.5,163.4 432.7,163.4 432.7,117.2 432.7,116 431.5,116.1 
			388,119.1 386.9,119.2 386.9,120.2 386.9,253.1 386.9,254.3 388.2,254.2 431.7,251.2 432.7,251.1 432.7,250.1 432.7,202.7 
			456.5,202.7 456.5,253.1 456.5,254.3 457.7,254.2 501.2,251.2 502.3,251.1 502.3,250.1 502.3,117.2 502.3,116 501.1,116.1 		"/>
		<path class="st0" d="M250.6,194.4c12.6-5.9,19.5-17.1,19.5-31.8c0-27.3-19.6-43.5-52.5-43.5h-51.5h-1.1v1.1v132.9v1.2l1.2-0.1
			l40.9-3l1.1-0.1v-1.1v-47.9l20.2,51.3l0.3,0.8l0.8-0.1l45.1-3l1.6-0.1l-0.7-1.5L250.6,194.4z M212.4,187h-4.3v-28.6h4.3
			c11.6,0,13.3,8.9,13.3,14.2C225.7,178,224,187,212.4,187z"/>
		<path class="st0" d="M82.9,116.1C33.7,116.1,8,150.8,8,185.1c0,34.3,25.7,69.1,74.9,69.1c49.2,0,74.9-34.7,74.9-69.1
			C157.8,150.8,132.1,116.1,82.9,116.1z M82.9,213.7c-18.9,0-29.1-14.7-29.1-28.6c0-13.9,10.2-28.6,29.1-28.6
			c18.9,0,29.1,14.7,29.1,28.6C112,199,101.8,213.7,82.9,213.7z"/>
		<polygon class="st0" points="560.4,213 560.4,201.4 586.3,201.4 587.5,201.4 587.5,200.3 587.5,167.9 587.5,166.8 586.3,166.8 
			560.4,166.8 560.4,156.2 600.8,156.2 602.2,156.2 601.9,154.8 593.2,120 593,119.1 592.1,119.1 515.8,119.1 514.6,119.1 
			514.6,120.2 514.6,250.1 514.6,251.2 515.8,251.2 594.9,251.2 595.8,251.2 596.1,250.3 604.9,214.4 605.2,213 603.8,213 		"/>
		<path class="st0" d="M1014.5,119.9l-0.3-0.8h-0.8h-52.5h-0.8l-0.3,0.8L918.3,239l-20.2-44.6c12.6-5.9,19.5-17.1,19.5-31.8
			c0-27.3-19.6-43.5-52.5-43.5h-51.5h-1.2v1.1v132.9v1.2l1.2-0.1l40.9-3l1.1-0.1v-1.1v-47.8l20.2,51.3l0.3,0.8l0.9-0.1l41.8-2.8
			l42.2,2.8l0.9,0.1l0.3-0.9l6.8-21.7h36l6.6,21.7l0.3,0.9l0.9-0.1l47.1-3l1.5-0.1l-0.5-1.4L1014.5,119.9z M859.9,187h-4.2v-28.6
			h4.2c11.6,0,13.3,8.9,13.3,14.2C873.2,178,871.5,187,859.9,187z M977.3,197.1l9.5-36l9.4,36H977.3z"/>
		<path class="st0" d="M666.9,167.2c-7.2-2.6-13.4-4.8-13.4-7.5c0-5.1,7.5-5.5,15.9-5.5c9.1,0,21,2.4,29.2,4.7l1.5,0.4v-1.5v-37.3
			v-0.9l-0.9-0.2c-10.4-2.1-24.5-3.4-36.7-3.4c-33.7,0-54.7,16.8-54.7,43.7c0,27.6,23,35.4,38.2,40.7c8,2.8,14.3,4.9,14.3,8.5
			c0,2.9-1.9,5.9-15.7,5.9c-9.9,0-21.7-1.3-34.1-3.8l-1.4-0.3v1.4v37.1v1l0.9,0.2l1.2,0.2c11.2,2,20,3.6,33.3,3.6
			c40.2,0,63.3-16.3,63.3-44.7C707.7,182,683.1,173.1,666.9,167.2z"/>
		<polygon class="st0" points="715.8,119.1 714.9,119.1 714.7,120 705.5,158.2 705.1,159.6 706.6,159.6 735.3,159.6 735.3,253.1 
			735.3,254.3 736.5,254.2 780,251.2 781.1,251.1 781.1,250.1 781.1,159.6 805.6,159.6 806.7,159.6 806.7,158.5 806.7,120.2 
			806.7,119.1 805.6,119.1 		"/>
		<path class="st0" d="M1056,116c-8.8,0-16,7.2-16,16c0,8.8,7.2,16,16,16c8.8,0,16-7.2,16-16C1072,123.2,1064.8,116,1056,116z
			 M1056,145.8c-7.6,0-13.8-6.2-13.8-13.8c0-7.6,6.2-13.8,13.8-13.8c7.6,0,13.8,6.2,13.8,13.8C1069.9,139.6,1063.7,145.8,1056,145.8
			z"/>
		<path class="st0" d="M1053.3,132.1c0-3,2.1-5.2,5.1-5.2c1.2,0,2.3,0.6,3.2,1.3l-0.7-4.7c-0.9-0.4-1.9-0.6-2.9-0.6
			c-5.4,0-9.2,4-9.2,9.3c0,5.5,3.8,9.2,9.2,9.2c0.8,0,2.4-0.3,3.1-0.6l0.5-4.7c-0.9,0.7-2.2,1.3-3.3,1.3
			C1055.3,137.4,1053.3,135.2,1053.3,132.1z"/>
	</g>
	<g>
		<path class="st0" d="M13.6,23.5c0-0.8,0.6-1.5,1.5-1.5h32.3c0.9,0,1.5,0.7,1.5,1.5V28c0,0.8-0.6,1.5-1.5,1.5H21.9V46h21.6
			c0.8,0,1.5,0.7,1.5,1.5v4.5c0,0.9-0.7,1.5-1.5,1.5H21.9V71h25.6c0.9,0,1.5,0.7,1.5,1.5V77c0,0.8-0.6,1.5-1.5,1.5H15.1
			c-0.9,0-1.5-0.7-1.5-1.5V23.5z"/>
		<path class="st0" d="M71.5,22.6c0-0.8,0.7-1.5,1.5-1.5h0.6c0.8,0,1.4,0,2.4,1.2l34,39.4h0.2V23.5c0-0.8,0.6-1.5,1.5-1.5h5.2
			c0.8,0,1.5,0.7,1.5,1.5v54.4c0,0.8-0.7,1.5-1.5,1.5h-0.7c-0.8,0-1.4,0-2.3-1.1l-34-40.6h-0.2V77c0,0.8-0.6,1.5-1.5,1.5H73
			c-0.8,0-1.5-0.7-1.5-1.5V22.6z"/>
		<path class="st0" d="M175.2,23.5c0-0.8,0.6-1.5,1.5-1.5h32.3c0.9,0,1.5,0.7,1.5,1.5V28c0,0.8-0.6,1.5-1.5,1.5h-25.6V46h21.6
			c0.8,0,1.5,0.7,1.5,1.5v4.5c0,0.9-0.7,1.5-1.5,1.5h-21.6V71h25.6c0.9,0,1.5,0.7,1.5,1.5V77c0,0.8-0.6,1.5-1.5,1.5h-32.3
			c-0.9,0-1.5-0.7-1.5-1.5V23.5z"/>
		<path class="st0" d="M244.7,49.5l-16-25.3c-0.6-1,0-2.3,1.4-2.3h6.9c0.6,0,1.1,0.3,1.4,0.7L249.6,42h0.2l11.6-19.3
			c0.2-0.3,0.6-0.7,1.3-0.7h6.9c1.4,0,2,1.2,1.4,2.3l-16,25.3l16.6,26.8c0.7,1.1,0,2.3-1.4,2.3h-6.2c-0.6,0-1.2-0.4-1.4-0.7
			l-12.6-20.7h-0.3l-12.5,20.7c-0.2,0.3-0.7,0.7-1.4,0.7h-6.2c-1.5,0-2.1-1.2-1.5-2.3L244.7,49.5z"/>
		<path class="st0" d="M317.1,21.1c8.2,0,14.1,2.8,19.6,7.5c0.7,0.6,0.7,1.6,0.1,2.3l-3.6,3.6c-0.6,0.7-1.3,0.7-2,0
			c-3.8-3.3-9-5.4-14-5.4c-11.6,0-20.3,9.7-20.3,21s8.8,20.9,20.4,20.9c5.9,0,10-2.3,13.9-5.3c0.7-0.6,1.5-0.5,1.9-0.1l3.7,3.6
			c0.7,0.6,0.5,1.6-0.1,2.2c-5.5,5.3-12.4,7.8-19.6,7.8c-16.2,0-29.2-12.9-29.2-29S300.9,21.1,317.1,21.1z"/>
		<path class="st0" d="M359.1,23.5c0-0.8,0.6-1.5,1.5-1.5h5.3c0.8,0,1.5,0.7,1.5,1.5V71h21.9c0.9,0,1.5,0.7,1.5,1.5V77
			c0,0.8-0.6,1.5-1.5,1.5h-28.8c-0.9,0-1.5-0.7-1.5-1.5V23.5z"/>
		<path class="st0" d="M408.8,23.5c0-0.8,0.7-1.5,1.5-1.5h5.4c0.9,0,1.5,0.7,1.5,1.5v34c0,8.1,5.2,13.8,13.4,13.8
			c8.3,0,13.6-5.6,13.6-13.6V23.5c0-0.8,0.6-1.5,1.5-1.5h5.4c0.8,0,1.5,0.7,1.5,1.5v34.6c0,12.3-9.3,21.3-22.1,21.3
			c-12.7,0-21.9-9-21.9-21.3V23.5z"/>
		<path class="st0" d="M475.1,70.4l2.1-3.3c0.6-1.1,1.9-1.4,2.7-0.7c3.8,3.2,6.7,5.6,12.9,5.6c5.6,0,9.1-3.4,9.1-7.5
			c0-4.8-4.2-7.9-12.2-11.2c-8.2-3.5-14.7-7.8-14.7-17.1c0-6.3,4.8-15,17.7-15c8.1,0,14.1,4.2,15,4.8c0.6,0.4,1.3,1.5,0.5,2.8
			l-2,3.1c-0.6,1.1-1.7,1.5-2.8,0.8c-3.1-2-6.2-4-10.9-4c-6.8,0-9.1,4.3-9.1,7.3c0,4.6,3.6,7.4,10.3,10.2
			c9.4,3.8,17.4,8.2,17.4,18.1c0,8.4-7.5,15.3-18,15.3c-9.9,0-16.1-5.2-17.4-6.4C474.9,72.3,474.2,71.7,475.1,70.4z"/>
		<path class="st0" d="M533.1,23.5c0-0.8,0.7-1.5,1.5-1.5h5.3c0.8,0,1.5,0.7,1.5,1.5V77c0,0.8-0.7,1.5-1.5,1.5h-5.3
			c-0.8,0-1.5-0.7-1.5-1.5V23.5z"/>
		<path class="st0" d="M560.6,24c-0.5-1,0.2-2.1,1.4-2.1h5.7c0.6,0,1.2,0.5,1.4,0.9l17.8,40h0.4l17.9-40c0.2-0.4,0.6-0.9,1.4-0.9
			h5.7c1.2,0,1.9,1,1.4,2.1l-24.8,54.4c-0.2,0.5-0.7,0.9-1.4,0.9h-0.8c-0.6,0-1.1-0.4-1.4-0.9L560.6,24z"/>
		<path class="st0" d="M632.6,23.5c0-0.8,0.7-1.5,1.5-1.5h5.3c0.8,0,1.5,0.7,1.5,1.5V77c0,0.8-0.7,1.5-1.5,1.5h-5.3
			c-0.8,0-1.5-0.7-1.5-1.5V23.5z"/>
		<path class="st0" d="M676.5,29.5h-13.2c-0.9,0-1.5-0.7-1.5-1.5v-4.5c0-0.8,0.7-1.5,1.5-1.5h34.8c0.9,0,1.5,0.7,1.5,1.5V28
			c0,0.8-0.6,1.5-1.5,1.5h-13.2V77c0,0.8-0.7,1.5-1.5,1.5h-5.3c-0.8,0-1.5-0.7-1.5-1.5V29.5z"/>
		<path class="st0" d="M720.4,23.5c0-0.8,0.6-1.5,1.5-1.5h32.3c0.9,0,1.5,0.7,1.5,1.5V28c0,0.8-0.6,1.5-1.5,1.5h-25.6V46h21.6
			c0.8,0,1.5,0.7,1.5,1.5v4.5c0,0.9-0.7,1.5-1.5,1.5h-21.6V71h25.6c0.9,0,1.5,0.7,1.5,1.5V77c0,0.8-0.6,1.5-1.5,1.5H722
			c-0.9,0-1.5-0.7-1.5-1.5V23.5z M730.4,15.6l-1.1-2.3c-0.3-0.6,0.1-1.3,0.5-1.5l12.7-7.4c0.5-0.3,1.7-0.5,2.1,0.2l1.9,3.6
			c0.5,0.8,0.2,1.6-0.5,2L732.4,16C731.3,16.4,730.8,16.3,730.4,15.6z"/>
		<path class="st0" d="M809,23.5c0-0.8,0.6-1.5,1.5-1.5H829c9.9,0,18.1,8.1,18.1,17.9c0,10-8.2,18.2-18,18.2h-11.7v19
			c0,0.8-0.7,1.5-1.5,1.5h-5.3c-0.9,0-1.5-0.7-1.5-1.5V23.5z M828.8,50.1c5.6,0,9.9-4.5,9.9-10.3c0-5.5-4.4-9.7-9.9-9.7h-11.5v20.1
			H828.8z"/>
		<path class="st0" d="M893.7,21.1c16.2,0,29.1,13,29.1,29.2s-12.9,29-29.1,29s-29-12.9-29-29S877.5,21.1,893.7,21.1z M893.7,71.5
			c11.6,0,21-9.6,21-21.2c0-11.5-9.5-21.3-21-21.3c-11.5,0-20.9,9.9-20.9,21.3C872.7,61.9,882.2,71.5,893.7,71.5z"/>
		<path class="st0" d="M944.8,23.5c0-0.8,0.7-1.5,1.5-1.5h5.4c0.9,0,1.5,0.7,1.5,1.5v34c0,8.1,5.2,13.8,13.4,13.8
			c8.3,0,13.6-5.6,13.6-13.6V23.5c0-0.8,0.6-1.5,1.5-1.5h5.4c0.8,0,1.5,0.7,1.5,1.5v34.6c0,12.3-9.3,21.3-22.1,21.3
			c-12.7,0-21.9-9-21.9-21.3V23.5z"/>
		<path class="st0" d="M1014.2,23.5c0-0.8,0.6-1.5,1.5-1.5h22c9.7,0,17.6,7.7,17.6,17.3c0,7.4-4.9,13.6-12,16.4l11.1,20.5
			c0.6,1,0,2.3-1.4,2.3h-6.1c-0.9,0-1.4-0.4-1.7-1l-10.6-21.1h-12.2V77c0,0.8-0.7,1.5-1.5,1.5h-5.3c-0.9,0-1.5-0.7-1.5-1.5V23.5z
			 M1037.1,49.4c5.3,0,9.9-4.4,9.9-10c0-5.3-4.6-9.6-9.9-9.6h-14.4v19.6H1037.1z"/>
	</g>
</g>
</svg>
