<?xml version="1.0" encoding="utf-8"?>
<!-- Generator: Adobe Illustrator 21.1.0, SVG Export Plug-In . SVG Version: 6.00 Build 0)  -->
<svg version="1.1" id="Calque_1" xmlns="http://www.w3.org/2000/svg" xmlns:xlink="http://www.w3.org/1999/xlink" x="0px" y="0px"
	 viewBox="0 0 176.5 177" style="enable-background:new 0 0 176.5 177;" xml:space="preserve">
<style type="text/css">
	.st0{fill:#5CC8BA;}
	.st1{fill:#FFFFFF;}
</style>
<circle class="st0" cx="88.4" cy="88.4" r="85.9"/>
<g>
	<path class="st1" d="M88,1.1C39.9,1.1,0.8,40.2,0.8,88.3s39.1,87.2,87.2,87.2c48.1,0,87.2-39.1,87.2-87.2S136.1,1.1,88,1.1z
		 M88,171.1c-45.7,0-82.8-37.2-82.8-82.8S42.4,5.5,88,5.5c45.7,0,82.8,37.2,82.8,82.8S133.7,171.1,88,171.1z"/>
	<path class="st1" d="M26.3,52.4l1.5-2.3l8.3,5.4c0.1,0.1,0.4,0.1,0.5-0.1l0.9-1.4c0.1-0.1,0.1-0.4-0.1-0.5L29,48.2l1.5-2.3
		c0.1-0.2,0.1-0.4-0.1-0.5l-1.2-0.8c-0.1-0.1-0.4-0.1-0.5,0.1l-4.2,6.4c-0.1,0.2-0.1,0.4,0.1,0.5l1.2,0.8
		C26,52.6,26.2,52.6,26.3,52.4z"/>
	<path class="st1" d="M44.1,45.5l1.2-1c0.2-0.2,0.2-0.4,0.2-0.6l-0.6-2l4-3.4l1.9,0.9c0.3,0.1,0.4,0.1,0.6-0.1l1.2-1
		c0.2-0.2,0.2-0.4-0.1-0.5l-11.9-5.5c-0.1,0-0.2-0.1-0.4,0l-0.1,0.1C40,32.6,40,32.7,40,32.8l3.6,12.6
		C43.6,45.6,43.9,45.7,44.1,45.5z M43,35.8l3.9,1.8l-2.7,2.3L43,35.8L43,35.8z"/>
	<path class="st1" d="M61.7,32.7l-1.4-6.6c0,0,0,0,0,0l5.4,5.4c0.1,0.1,0.2,0.1,0.3,0.1l0.3-0.1c0.1-0.1,0.2-0.2,0.2-0.3l0.4-7.6
		c0,0,0,0,0,0l3.4,5.9c0.1,0.1,0.3,0.2,0.4,0.1l1.5-0.6c0.2-0.1,0.3-0.3,0.2-0.5l-6.2-10.3c-0.1-0.1-0.2-0.2-0.4-0.1L65.6,18
		c-0.1,0.1-0.2,0.2-0.2,0.3l-0.6,9.2c0,0,0,0,0,0l-6.6-6.4C58,21,57.9,21,57.8,21.1l-0.3,0.1c-0.2,0.1-0.2,0.2-0.2,0.4l2.3,11.8
		c0.1,0.2,0.2,0.3,0.5,0.3l1.5-0.6C61.7,33,61.8,32.8,61.7,32.7z"/>
	<path class="st1" d="M82.5,27.4l4.3-0.1c2.2-0.1,3.8-1.5,3.7-3.5c-0.1-1.7-1.2-2.5-2.2-2.8l0-0.1c0.9-0.5,1.7-1.5,1.7-2.8
		c-0.1-1.9-1.7-3.2-3.8-3.1l-4,0.1c-0.2,0-0.3,0.2-0.3,0.3L82.2,27C82.2,27.2,82.3,27.4,82.5,27.4z M86.6,25.2l-2.2,0.1l-0.1-3.1
		l2.2-0.1c0.9,0,1.6,0.6,1.6,1.5C88.1,24.4,87.5,25.1,86.6,25.2z M86.1,17c0.9,0,1.5,0.6,1.5,1.5c0,0.9-0.5,1.6-1.4,1.6l-1.9,0.1
		l-0.1-3.1L86.1,17z"/>
	<path class="st1" d="M105.7,30c3.4,1,6.9-0.8,7.9-4.2c1-3.4-0.9-6.9-4.2-7.9c-3.4-1-6.9,0.9-7.9,4.3C100.5,25.5,102.3,29,105.7,30z
		 M103.7,22.8c0.6-2.1,2.9-3.4,5-2.7c2.1,0.6,3.3,3,2.7,5.1c-0.6,2.1-2.9,3.3-5.1,2.7C104.3,27.2,103,24.9,103.7,22.8z"/>
	<path class="st1" d="M124.7,39.7c2.8,2.1,6.8,1.6,8.9-1.2c2.1-2.8,1.6-6.8-1.2-8.9c-2.8-2.1-6.8-1.6-8.9,1.3
		C121.3,33.6,121.9,37.6,124.7,39.7z M125.3,32.2c1.3-1.8,3.9-2.2,5.7-0.8c1.8,1.3,2.1,3.9,0.8,5.7c-1.3,1.8-3.9,2.1-5.7,0.8
		C124.3,36.5,124,34,125.3,32.2z"/>
	<path class="st1" d="M142.7,51.4l-2.6,4.6c0,0.1-0.1,0.2,0,0.3l1,1.5c0.2,0.2,0.5,0.2,0.6,0l2.4-4.5c1.4,0.9,3.1,1.1,4.4,0.2
		c1.7-1.2,2.2-3.6,1-5.3l-2.8-4.2c-0.1-0.2-0.3-0.2-0.5-0.1l-9.7,6.5c-0.1,0.1-0.2,0.3-0.1,0.5l0.9,1.3c0.1,0.1,0.3,0.2,0.5,0.1
		l3.7-2.5L142.7,51.4z M146.1,46.8l1.6,2.4c0.5,0.8,0.3,1.9-0.4,2.4c-0.8,0.6-1.9,0.3-2.5-0.4l-1.6-2.4L146.1,46.8z"/>
	<path class="st1" d="M151.5,124.9l-1.2-0.8c-0.1-0.1-0.4-0.1-0.5,0.1l-1.5,2.3l-8.3-5.4c-0.1-0.1-0.4-0.1-0.5,0.1l-0.9,1.4
		c-0.1,0.1-0.1,0.4,0.1,0.5l8.3,5.4l-1.5,2.3c-0.1,0.2-0.1,0.4,0.1,0.5l1.2,0.8c0.1,0.1,0.4,0.1,0.5-0.1l4.2-6.4
		C151.7,125.2,151.6,125,151.5,124.9z"/>
	<path class="st1" d="M132.5,131.2c-0.1-0.2-0.3-0.3-0.5-0.2l-1.2,1c-0.2,0.2-0.2,0.4-0.2,0.6l0.6,2l-4,3.4l-1.9-0.9
		c-0.3-0.1-0.4-0.1-0.6,0.1l-1.2,1c-0.2,0.2-0.2,0.4,0.1,0.5l11.9,5.5c0.1,0,0.2,0.1,0.4,0l0.1-0.1c0.1-0.1,0.1-0.2,0.1-0.3
		L132.5,131.2z M133,140.9l-3.9-1.8l2.7-2.3L133,140.9L133,140.9z"/>
	<path class="st1" d="M116,143l-1.5,0.6c-0.1,0.1-0.2,0.2-0.2,0.4l1.4,6.6c0,0,0,0,0,0l-5.4-5.4c-0.1-0.1-0.2-0.1-0.3-0.1l-0.3,0.1
		c-0.1,0.1-0.2,0.2-0.2,0.3l-0.4,7.6c0,0,0,0,0,0l-3.4-5.9c-0.1-0.1-0.3-0.2-0.4-0.1l-1.5,0.6c-0.2,0.1-0.3,0.3-0.2,0.5l6.2,10.3
		c0.1,0.1,0.2,0.2,0.4,0.1l0.3-0.1c0.1-0.1,0.2-0.2,0.2-0.3l0.6-9.2c0,0,0,0,0,0l6.6,6.4c0.1,0.1,0.2,0.1,0.3,0.1l0.3-0.1
		c0.2-0.1,0.2-0.2,0.2-0.4l-2.3-11.8C116.4,143,116.2,142.9,116,143z"/>
	<path class="st1" d="M93.5,149.3l-4.3,0.1c-2.2,0.1-3.8,1.5-3.7,3.5c0.1,1.7,1.2,2.5,2.2,2.8l0,0.1c-0.9,0.5-1.7,1.5-1.7,2.8
		c0.1,1.9,1.7,3.2,3.8,3.1l4-0.1c0.2,0,0.3-0.2,0.3-0.3l-0.4-11.7C93.9,149.4,93.7,149.3,93.5,149.3z M89.5,151.5l2.2-0.1l0.1,3.1
		l-2.2,0.1c-0.9,0-1.6-0.6-1.6-1.5C88,152.2,88.6,151.5,89.5,151.5z M90,159.6c-0.9,0-1.5-0.6-1.5-1.5c0-0.9,0.5-1.6,1.4-1.6
		l1.9-0.1l0.1,3.1L90,159.6z"/>
	<path class="st1" d="M70.4,146.6c-3.4-1-6.9,0.8-7.9,4.2c-1,3.4,0.9,6.9,4.2,7.9c3.4,1,6.9-0.9,7.9-4.3
		C75.6,151.1,73.7,147.6,70.4,146.6z M72.4,153.9c-0.6,2.1-2.9,3.4-5,2.7c-2.1-0.6-3.3-3-2.7-5.1c0.6-2.1,2.9-3.3,5.1-2.7
		C71.8,149.5,73,151.7,72.4,153.9z"/>
	<path class="st1" d="M51.4,137c-2.8-2.1-6.8-1.6-8.9,1.2c-2.1,2.8-1.6,6.8,1.2,8.9c2.8,2.1,6.8,1.6,8.9-1.3
		C54.7,143,54.2,139.1,51.4,137z M50.8,144.4c-1.3,1.8-3.9,2.2-5.7,0.8c-1.8-1.3-2.1-3.9-0.8-5.7c1.3-1.8,3.9-2.1,5.7-0.8
		C51.8,140.1,52.1,142.7,50.8,144.4z"/>
	<path class="st1" d="M38.7,124.4c-0.1-0.1-0.3-0.2-0.5-0.1l-3.7,2.5l-1.1-1.6l2.6-4.6c0-0.1,0.1-0.2,0-0.3l-1-1.5
		c-0.2-0.2-0.5-0.2-0.6,0l-2.4,4.5c-1.4-0.9-3.1-1.1-4.4-0.2c-1.7,1.2-2.2,3.6-1,5.3l2.8,4.2c0.1,0.2,0.3,0.2,0.5,0.1l9.7-6.5
		c0.1-0.1,0.2-0.3,0.1-0.5L38.7,124.4z M30,129.8l-1.6-2.4c-0.5-0.8-0.3-1.9,0.4-2.4c0.8-0.6,1.9-0.3,2.5,0.4l1.6,2.4L30,129.8z"/>
	<circle class="st1" cx="155.2" cy="88.4" r="2.7"/>
	<circle class="st1" cx="20.8" cy="88.4" r="2.7"/>
	<path class="st1" d="M108.7,116c-0.6,0-3.4,0-5,0c-4.6,0-6.4-0.6-8.2-2.4c-2.7-2.9-2.3-5.8-2.3-10.9V77.3h15.4V62.8H93.2V45.2H76.5
		v17.6H61v14.6h15.4v30c0,9.9,2,14,6.1,18.5c4.1,4.6,10.5,6.8,19.4,6.8c0.8,0,6.6,0,6.8,0L108.7,116z"/>
</g>
</svg>
