<?xml version="1.0" encoding="utf-8"?>
<!-- Generator: Adobe Illustrator 21.1.0, SVG Export Plug-In . SVG Version: 6.00 Build 0)  -->
<svg version="1.1" id="Calque_1" xmlns="http://www.w3.org/2000/svg" xmlns:xlink="http://www.w3.org/1999/xlink" x="0px" y="0px"
	 viewBox="0 0 321.2 91.5" style="enable-background:new 0 0 321.2 91.5;" xml:space="preserve">
<style type="text/css">
	.st0{fill:#F7A289;}
	.st1{fill:#5BC4BC;}
</style>
<g>
	<path class="st0" d="M267.8,72.1c0-1.7-1.3-3.1-2.9-3.1c-0.7,0-1.4,0.3-1.9,0.8c-0.1,0.1-0.1,0.1-0.2,0.2
		c-7.6,7.4-15.7,11.2-24,11.2c-4.2,0-8.6-1.1-13-3.2c-3.5-1.7-7-4.1-10.2-7.2c-0.4-0.4-0.5-0.4-0.6-0.6c-0.1-0.1-0.1-0.1-0.3-0.2
		c-0.2-0.2-0.4-0.4-0.6-0.5l0,0l0,0c-0.4-0.3-0.9-0.5-1.5-0.5c-1.6,0-2.9,1.4-2.9,3.1c0,0.7,0.2,1.3,0.5,1.8l0,0.1l0.2,0.2
		c3.9,4.2,8.4,7.6,13.6,10c5.2,2.4,10.1,3.6,14.7,3.6c4.5,0,9.5-1.2,14.7-3.6c5.2-2.4,9.8-5.8,13.7-10l0.2-0.2l0-0.1
		C267.6,73.4,267.8,72.8,267.8,72.1z"/>
	<g>
		<g>
			<g>
				<path class="st1" d="M190.9,39.3c0-3,0.6-5.9,1.7-8.6c1.1-2.7,2.8-5,5-7.1c2.1-2,4.6-3.6,7.3-4.7c2.7-1.1,5.7-1.6,8.7-1.6
					c3.1,0,6,0.5,8.8,1.6c2.8,1.1,5.3,2.7,7.5,4.7c2.2,2.1,3.8,4.4,4.9,7.1c1.1,2.7,1.7,5.5,1.7,8.5s-0.6,5.9-1.7,8.6
					c-1.1,2.7-2.8,5.1-4.9,7.1c-2.1,2-4.6,3.6-7.4,4.7c-2.8,1.1-5.8,1.6-8.9,1.6c-3.1,0-6-0.5-8.7-1.6c-2.7-1.1-5.1-2.6-7.3-4.7
					c-2.2-2.1-3.8-4.5-5-7.2C191.5,45,190.9,42.2,190.9,39.3z M201.6,39.3c0,3.5,1.2,6.5,3.5,8.8c2.3,2.4,5.1,3.6,8.5,3.6
					c3.3,0,6.2-1.2,8.5-3.7c2.4-2.4,3.6-5.4,3.6-8.7c0-3.6-1.1-6.5-3.4-8.8c-2.3-2.3-5.2-3.5-8.6-3.5c-3.4,0-6.2,1.2-8.5,3.5
					C202.8,32.8,201.6,35.7,201.6,39.3z"/>
				<path class="st1" d="M241,39.3c0-3,0.6-5.9,1.7-8.6c1.1-2.7,2.8-5,5-7.1c2.1-2,4.6-3.6,7.3-4.7c2.7-1.1,5.7-1.6,8.7-1.6
					c3.1,0,6,0.5,8.8,1.6c2.8,1.1,5.3,2.7,7.5,4.7c2.2,2.1,3.8,4.4,4.9,7.1c1.1,2.7,1.7,5.5,1.7,8.5s-0.6,5.9-1.7,8.6
					c-1.1,2.7-2.8,5.1-4.9,7.1c-2.1,2-4.6,3.6-7.4,4.7c-2.8,1.1-5.8,1.6-8.9,1.6c-3.1,0-6-0.5-8.7-1.6c-2.7-1.1-5.1-2.6-7.3-4.7
					c-2.2-2.1-3.8-4.5-5-7.2C241.5,45,241,42.2,241,39.3z M251.7,39.3c0,3.5,1.2,6.5,3.5,8.8c2.3,2.4,5.1,3.6,8.5,3.6
					c3.3,0,6.2-1.2,8.5-3.7c2.4-2.4,3.6-5.4,3.6-8.7c0-3.6-1.1-6.5-3.4-8.8s-5.2-3.5-8.6-3.5c-3.4,0-6.2,1.2-8.5,3.5
					C252.8,32.8,251.7,35.7,251.7,39.3z"/>
			</g>
			<path class="st1" d="M180.2,23.7c-4.2-4.2-9.5-6.2-15.9-6.2c-2.6,0-4.9,0.4-6.9,1.1c-2,0.8-3.8,1.9-5.3,3.4v-19h-10.5v35.9
				c0,6.5,2.1,11.8,6.4,16.1c4.3,4.2,9.6,6.3,16.1,6.3c3,0,5.9-0.5,8.7-1.6c2.8-1.1,5.2-2.6,7.3-4.7c2.1-2,3.7-4.4,4.9-7.1
				s1.7-5.6,1.7-8.6C186.5,33,184.4,27.8,180.2,23.7z M172.2,48c-2.4,2.4-5.2,3.6-8.5,3.6c-3.4,0-6.3-1.2-8.6-3.6
				c-2.3-2.4-3.4-5.3-3.4-8.8c0-3.6,1.1-6.6,3.4-8.9s5.1-3.5,8.6-3.5c3.4,0,6.3,1.2,8.6,3.5c2.3,2.3,3.4,5.3,3.4,8.8
				C175.8,42.7,174.6,45.6,172.2,48z"/>
			<path class="st1" d="M316,16.9c-3.8,0-6.9,0.6-9.3,1.9c-2.5,1.3-4.4,3.3-5.9,6v-7.5h-9.7v43.5h10.6V42.5c0-10,5.9-15.4,11.8-15.4
				l1.5-4.2l2.2-6H316z"/>
			<path class="st1" d="M58.1,16.5c-6.4-0.3-11.9,1.8-16.5,6.5l4.6,6.5c5.7-7.1,13.2-4.7,14.2-4.2c2.4,1.2,3.5,4,3.5,6.5
				c-6.8,2.3-10.8,3.2-16,5.3c-3.1,1.2-5.6,3.1-7,6.1c-1.9,4.2-1.7,10.5,1.7,14c2.8,2.9,6.5,4.2,11,4.2c2.3,0,4.4-0.4,6.2-1.1
				c1.8-0.7,3.4-1.8,4.8-3.2V61h9.3V33.2C73.9,25.4,70.3,17,58.1,16.5z M63.9,45c-0.1,2.7-1.1,4.5-3.7,6.2
				c-2.6,1.7-8.5,3.3-11.3-0.4c-1.8-2.3-0.8-4.4,0.9-5.5c2-1.3,9.8-3.8,14.1-5C63.9,42.4,64,43,63.9,45z"/>
			<path class="st1" d="M135.3,33.5c-0.2-8.8-7.4-16-16.3-16c-4.4,0-8.4,1.7-11.3,4.6c-2.9-2.8-6.9-4.6-11.3-4.6
				c-8.9,0-16.1,7.1-16.3,16h0V61h10.3V33.6c0.1-3.2,2.8-5.8,6-5.8c3.3,0,6,2.7,6,6h0V61h5.2h5.2V33.8h0c0-3.3,2.7-6,6-6
				c3.3,0,5.9,2.6,6,5.8V61h10.3L135.3,33.5L135.3,33.5z"/>
			<path class="st1" d="M33.4,50.9c-0.4,0-2.2,0-3.1,0c-2.9,0-4.1-0.4-5.1-1.5c-1.7-1.8-1.5-3.6-1.5-6.9v-16h9.7v-9.2h-9.7V6.3H13.1
				v11.1H3.3v9.2h9.7v18.9c0,6.2,1.3,8.8,3.9,11.7c2.6,2.9,6.6,4.3,12.2,4.3c0.5,0,4.1,0,4.3,0L33.4,50.9z"/>
		</g>
	</g>
</g>
</svg>
