<?xml version="1.0" encoding="utf-8"?>
<!-- Generator: Adobe Illustrator 21.1.0, SVG Export Plug-In . SVG Version: 6.00 Build 0)  -->
<svg version="1.1" id="Calque_1" xmlns="http://www.w3.org/2000/svg" xmlns:xlink="http://www.w3.org/1999/xlink" x="0px" y="0px"
	 viewBox="0 0 259 93" style="enable-background:new 0 0 259 93;" xml:space="preserve">
<style type="text/css">
	.st0{fill:#FFFFFF;}
</style>
<g>
	<path class="st0" d="M216.8,57.9c0-1.4-1.1-2.6-2.4-2.6c-0.6,0-1.2,0.3-1.7,0.7l-0.1,0.1c-6.2,6-12.8,9.1-19.5,9.1
		c-3.4,0-7-0.9-10.5-2.6c-2.9-1.4-5.7-3.4-8.3-5.8c-0.3-0.3-0.4-0.4-0.5-0.5l-0.2-0.2c-0.4-0.5-1.1-0.9-1.8-0.9
		c-1.3,0-2.4,1.1-2.4,2.5c0,0.5,0.2,1,0.4,1.5l0,0l0.2,0.2c3.1,3.4,6.9,6.2,11.1,8.2c4.2,2,8.2,3,11.9,3c3.7,0,7.7-1,11.9-3
		c4.2-2,8-4.7,11.1-8.2l0.2-0.2l0,0C216.6,59,216.8,58.5,216.8,57.9z"/>
	<g>
		<path class="st0" d="M185.9,18.5c-1.8-1.7-3.8-3-6.1-3.9c-2.3-0.9-4.6-1.3-7.1-1.3c-2.5,0-4.9,0.4-7.1,1.3
			c-2.2,0.9-4.2,2.1-5.9,3.8c-1.8,1.7-3.2,3.6-4.1,5.8c-0.9,2.2-1.4,4.5-1.4,7c0,2.4,0.5,4.7,1.4,6.9c0.9,2.2,2.3,4.1,4.1,5.9
			c1.8,1.7,3.7,3,5.9,3.8c2.2,0.9,4.6,1.3,7.1,1.3c2.5,0,4.9-0.4,7.2-1.3c2.3-0.9,4.3-2.2,6-3.8c1.8-1.7,3.1-3.6,4-5.8
			c0.9-2.2,1.4-4.5,1.4-7c0-2.5-0.5-4.8-1.4-6.9C189,22.1,187.7,20.2,185.9,18.5z M179.7,38.3c-1.9,2-4.2,3-6.9,3
			c-2.8,0-5.1-1-6.9-2.9c-1.9-1.9-2.8-4.3-2.8-7.2c0-2.9,0.9-5.3,2.8-7.2c1.9-1.9,4.2-2.8,6.9-2.8c2.8,0,5.2,0.9,7,2.8
			c1.9,1.9,2.8,4.3,2.8,7.2C182.6,34,181.6,36.4,179.7,38.3z"/>
		<path class="st0" d="M226.6,18.5c-1.8-1.7-3.8-3-6.1-3.9c-2.3-0.9-4.6-1.3-7.1-1.3c-2.5,0-4.9,0.4-7.1,1.3
			c-2.2,0.9-4.2,2.1-5.9,3.8c-1.8,1.7-3.2,3.6-4.1,5.8c-0.9,2.2-1.4,4.5-1.4,7c0,2.4,0.5,4.7,1.4,6.9c0.9,2.2,2.3,4.1,4.1,5.9
			c1.8,1.7,3.7,3,5.9,3.8c2.2,0.9,4.6,1.3,7.1,1.3c2.5,0,4.9-0.4,7.2-1.3c2.3-0.9,4.3-2.2,6-3.8c1.8-1.7,3.1-3.6,4-5.8
			c0.9-2.2,1.4-4.5,1.4-7c0-2.5-0.5-4.8-1.4-6.9C229.7,22.1,228.4,20.2,226.6,18.5z M220.4,38.3c-1.9,2-4.2,3-6.9,3
			c-2.8,0-5.1-1-6.9-2.9c-1.9-1.9-2.8-4.3-2.8-7.2c0-2.9,0.9-5.3,2.8-7.2c1.9-1.9,4.2-2.8,6.9-2.8c2.8,0,5.2,0.9,7,2.8
			c1.9,1.9,2.8,4.3,2.8,7.2C223.3,34,222.3,36.4,220.4,38.3z"/>
		<path class="st0" d="M132.4,49.1c2.5,0,4.8-0.4,7-1.3c2.2-0.9,4.2-2.2,5.9-3.8c1.7-1.6,3-3.6,4-5.8c0.9-2.2,1.4-4.5,1.4-7
			c0-5.1-1.7-9.3-5.2-12.7s-7.8-5.1-12.9-5.1c-2.1,0-4,0.3-5.6,0.9c-1.7,0.6-3.1,1.5-4.3,2.7V1.7h-8.5v29.2c0,5.3,1.7,9.6,5.2,13.1
			C122.8,47.4,127.2,49.1,132.4,49.1z M125.2,24c1.8-1.9,4.2-2.8,7-2.8c2.8,0,5.1,0.9,7,2.8c1.8,1.9,2.8,4.3,2.8,7.2
			c0,2.8-1,5.2-2.9,7.1c-1.9,2-4.2,3-6.9,3c-2.8,0-5.1-1-7-2.9c-1.9-1.9-2.8-4.3-2.8-7.2C122.5,28.3,123.4,25.9,125.2,24z"/>
		<path class="st0" d="M256,13.1c-3.1,0-5.6,0.5-7.6,1.6c-2,1-3.6,2.7-4.8,4.9v-6.1h-7.9v35.4h8.6V33.9c0-8.1,4.8-12.5,9.6-12.5
			l1.2-3.4l1.8-4.9H256z"/>
		<path class="st0" d="M42.6,49.2c1.9,0,3.6-0.3,5.1-0.9c1.5-0.6,2.8-1.5,3.9-2.6v3.2h7.6V26.3c0-6.3-2.9-13.1-12.8-13.5
			c-5.2-0.2-9.7,1.5-13.4,5.3l3.7,5.3c4.7-5.8,10.7-3.8,11.5-3.4c2,1,2.9,3.3,2.9,5.3c-5.5,1.9-8.8,2.6-13,4.3c-2.5,1-4.6,2.5-5.7,5
			c-1.5,3.4-1.4,8.5,1.4,11.4C35.9,48.1,39,49.2,42.6,49.2z M39.6,36.1c1.6-1,8-3.1,11.5-4c0,1.6,0.1,2.1,0,3.8
			c-0.1,2.2-0.9,3.7-3,5.1c-2.1,1.4-6.9,2.7-9.2-0.3C37.4,38.7,38.2,37,39.6,36.1z"/>
		<path class="st0" d="M72.6,26.7c0.1-2.6,2.2-4.7,4.9-4.7c2.7,0,4.9,2.2,4.9,4.9h0v22.1h4.3h4.3V26.8h0c0-2.7,2.2-4.9,4.9-4.9
			c2.6,0,4.8,2.1,4.9,4.7v22.2h8.4V26.5h0c-0.2-7.2-6-13-13.2-13c-3.6,0-6.8,1.4-9.2,3.7c-2.4-2.3-5.6-3.7-9.2-3.7
			c-7.2,0-13.1,5.8-13.2,13h0v22.3h8.4V26.7z"/>
		<path class="st0" d="M23.6,40.7c-2.4,0-3.3-0.3-4.2-1.2c-1.4-1.5-1.2-3-1.2-5.6v-13h7.9v-7.5h-7.9v-9H9.7v9H1.8v7.5h7.9v15.3
			c0,5.1,1,7.2,3.1,9.5c2.1,2.3,5.4,3.5,9.9,3.5c0.4,0,3.4,0,3.5,0l0-8.5C25.9,40.7,24.4,40.7,23.6,40.7z"/>
		<path class="st0" d="M64.9,67.1c-0.1-2.8-2.2-3.6-4.4-3.5l-3.9,0.1l0.2,7.1l4.2-0.1C63,70.6,65,69.5,64.9,67.1z"/>
		<path class="st0" d="M150.9,52.4L27,56.3l10.8,16.6l-9.7,17L152,86l-10.7-16.3L150.9,52.4z M62.1,84.4l-11.2,0.3
			c-0.3,0-0.4-0.2-0.5-0.4l-0.1-2.4c0-0.3,0.2-0.5,0.4-0.5l2.5-0.1l-0.5-17.5l-2.5,0.1c-0.3,0-0.4-0.2-0.5-0.5L49.8,61
			c0-0.3,0.2-0.4,0.4-0.5l11.1-0.3c4.6-0.1,7.4,2.5,7.5,6.4c0.1,2.2-1,4-2.7,5.1c3,0.9,4.2,2.9,4.3,5.5
			C70.5,81.6,67.9,84.3,62.1,84.4z M87.4,83.9c-6.7,0.2-12-4.7-12.3-12.1c-0.2-7.9,5.5-12.3,11.5-12.5c6.1-0.2,12,4,12.3,11.8
			C99.2,78.7,94.1,83.7,87.4,83.9z M126.5,82.6l-8.8,0.3c-0.3,0-0.4-0.2-0.5-0.4l-0.1-2.4c0-0.3,0.2-0.5,0.4-0.5l2-0.1l-5-6.5
			l-4.8,6.8l2-0.1c0.3,0,0.4,0.2,0.5,0.5l0.1,2.4c0,0.3-0.2,0.4-0.4,0.5l-8.8,0.3c-0.3,0-0.4-0.2-0.5-0.4l-0.1-2.4
			c0-0.3,0.2-0.5,0.4-0.5l2.6-0.1l6.6-9l-7.1-8.5l-2.6,0.1c-0.3,0-0.4-0.2-0.5-0.5l-0.1-2.4c0-0.3,0.2-0.4,0.4-0.5l8.8-0.3
			c0.3,0,0.4,0.2,0.5,0.4l0.1,2.4c0,0.3-0.1,0.5-0.4,0.5l-2.1,0.1l5.1,6.3l4.8-6.6l-1.9,0.1c-0.3,0-0.4-0.2-0.5-0.5l-0.1-2.4
			c0-0.3,0.2-0.4,0.4-0.5l8.8-0.3c0.3,0,0.4,0.2,0.5,0.4l0.1,2.4c0,0.3-0.1,0.5-0.4,0.5l-2.7,0.1l-6.6,8.9l7,8.6l2.6-0.1
			c0.3,0,0.4,0.2,0.5,0.5l0.1,2.4C126.9,82.4,126.8,82.5,126.5,82.6z"/>
		<path class="st0" d="M61.5,73.5l-4.6,0.1l0.2,7.6l4.5-0.1c3-0.1,5-1.4,4.9-4.1C66.4,74.6,64.6,73.4,61.5,73.5z"/>
	</g>
</g>
</svg>
