<?xml version="1.0" encoding="utf-8"?>
<!-- Generator: Adobe Illustrator 25.2.3, SVG Export Plug-In . SVG Version: 6.00 Build 0)  -->
<svg version="1.1" id="Calque_1" xmlns="http://www.w3.org/2000/svg" xmlns:xlink="http://www.w3.org/1999/xlink" x="0px" y="0px"
	 viewBox="0 0 660 115.4" style="enable-background:new 0 0 660 115.4;" xml:space="preserve">
<style type="text/css">
	.st0{fill:#69C4B4;}
	.st1{fill:#FFFFFF;}
</style>
<rect x="-3" y="66.8" class="st0" width="666" height="48.8"/>
<circle class="st0" cx="539" cy="74" r="74"/>
<g>
	<path class="st1" d="M568.3,99.7c0-1.7-1.3-3.1-2.9-3.1c-0.7,0-1.4,0.3-1.9,0.8c-0.1,0.1-0.1,0.1-0.2,0.2
		c-7.6,7.4-15.7,11.2-24,11.2c-4.2,0-8.6-1.1-13-3.2c-3.5-1.7-7-4.1-10.2-7.2c-0.4-0.4-0.5-0.4-0.6-0.6c-0.1-0.1-0.1-0.1-0.3-0.2
		c-0.2-0.2-0.4-0.4-0.6-0.5l0,0l0,0c-0.4-0.3-0.9-0.5-1.5-0.5c-1.6,0-2.9,1.4-2.9,3.1c0,0.7,0.2,1.3,0.5,1.8v0.1l0.2,0.2
		c3.9,4.2,8.4,7.6,13.6,10s10.1,3.6,14.7,3.6c4.5,0,9.5-1.2,14.7-3.6s9.8-5.8,13.7-10l0.2-0.2v-0.1
		C568.1,101,568.3,100.4,568.3,99.7z"/>
	<g>
		<g>
			<g>
				<path class="st1" d="M491.4,66.9c0-3,0.6-5.9,1.7-8.6c1.1-2.7,2.8-5,5-7.1c2.1-2,4.6-3.6,7.3-4.7c2.7-1.1,5.7-1.6,8.7-1.6
					c3.1,0,6,0.5,8.8,1.6s5.3,2.7,7.5,4.7c2.2,2.1,3.8,4.4,4.9,7.1c1.1,2.7,1.7,5.5,1.7,8.5s-0.6,5.9-1.7,8.6
					c-1.1,2.7-2.8,5.1-4.9,7.1c-2.1,2-4.6,3.6-7.4,4.7c-2.8,1.1-5.8,1.6-8.9,1.6c-3.1,0-6-0.5-8.7-1.6s-5.1-2.6-7.3-4.7
					c-2.2-2.1-3.8-4.5-5-7.2C492,72.7,491.4,69.8,491.4,66.9z M502.1,66.9c0,3.5,1.2,6.5,3.5,8.8c2.3,2.4,5.1,3.6,8.5,3.6
					c3.3,0,6.2-1.2,8.5-3.7c2.4-2.4,3.6-5.4,3.6-8.7c0-3.6-1.1-6.5-3.4-8.8c-2.3-2.3-5.2-3.5-8.6-3.5c-3.4,0-6.2,1.2-8.5,3.5
					C503.3,60.4,502.1,63.3,502.1,66.9z"/>
				<path class="st1" d="M541.4,66.9c0-3,0.6-5.9,1.7-8.6c1.1-2.7,2.8-5,5-7.1c2.1-2,4.6-3.6,7.3-4.7c2.7-1.1,5.7-1.6,8.7-1.6
					c3.1,0,6,0.5,8.8,1.6s5.3,2.7,7.5,4.7c2.2,2.1,3.8,4.4,4.9,7.1c1.1,2.7,1.7,5.5,1.7,8.5s-0.6,5.9-1.7,8.6
					c-1.1,2.7-2.8,5.1-4.9,7.1c-2.1,2-4.6,3.6-7.4,4.7c-2.8,1.1-5.8,1.6-8.9,1.6c-3.1,0-6-0.5-8.7-1.6s-5.1-2.6-7.3-4.7
					s-3.8-4.5-5-7.2C542,72.7,541.4,69.8,541.4,66.9z M552.2,66.9c0,3.5,1.2,6.5,3.5,8.8c2.3,2.4,5.1,3.6,8.5,3.6
					c3.3,0,6.2-1.2,8.5-3.7c2.4-2.4,3.6-5.4,3.6-8.7c0-3.6-1.1-6.5-3.4-8.8s-5.2-3.5-8.6-3.5c-3.4,0-6.2,1.2-8.5,3.5
					C553.3,60.4,552.2,63.3,552.2,66.9z"/>
			</g>
		</g>
	</g>
</g>
</svg>
