<svg id="Calque_1" data-name="Calque 1" xmlns="http://www.w3.org/2000/svg" viewBox="0 0 255.87 36"><defs><style>.cls-1{fill:#ffc600;}</style></defs><path class="cls-1" d="M222.89,8.87l4.59,9.31,10.28,1.49A2.25,2.25,0,0,1,239,23.51l-7.43,7.24L233.33,41a2.25,2.25,0,0,1-3.27,2.37l-9.18-4.83-9.19,4.83A2.25,2.25,0,0,1,208.42,41l1.76-10.23-7.43-7.24A2.25,2.25,0,0,1,204,19.67l10.28-1.49,4.59-9.31A2.25,2.25,0,0,1,222.89,8.87Z" transform="translate(-202.07 -7.61)"/><path class="cls-1" d="M277.46,8.87l4.59,9.31,10.27,1.49a2.25,2.25,0,0,1,1.24,3.84l-7.43,7.24L287.89,41a2.25,2.25,0,0,1-3.26,2.37l-9.19-4.83-9.19,4.83A2.25,2.25,0,0,1,263,41l1.75-10.23-7.43-7.24a2.25,2.25,0,0,1,1.25-3.84l10.27-1.49,4.59-9.31A2.26,2.26,0,0,1,277.46,8.87Z" transform="translate(-202.07 -7.61)"/><path class="cls-1" d="M332,8.87l4.59,9.31,10.27,1.49a2.26,2.26,0,0,1,1.25,3.84l-7.44,7.24L342.45,41a2.25,2.25,0,0,1-3.26,2.37L330,38.52l-9.19,4.83A2.25,2.25,0,0,1,317.55,41l1.76-10.23-7.44-7.24a2.26,2.26,0,0,1,1.25-3.84l10.27-1.49L328,8.87A2.26,2.26,0,0,1,332,8.87Z" transform="translate(-202.07 -7.61)"/><path class="cls-1" d="M386.58,8.87l4.59,9.31,10.27,1.49a2.25,2.25,0,0,1,1.25,3.84l-7.43,7.24L397,41a2.25,2.25,0,0,1-3.26,2.37l-9.19-4.83-9.19,4.83A2.25,2.25,0,0,1,372.11,41l1.76-10.23-7.43-7.24a2.25,2.25,0,0,1,1.24-3.84L378,18.18l4.59-9.31A2.26,2.26,0,0,1,386.58,8.87Z" transform="translate(-202.07 -7.61)"/><path class="cls-1" d="M441.14,8.87l4.59,9.31L456,19.67a2.25,2.25,0,0,1,1.24,3.84l-7.43,7.24L451.58,41a2.25,2.25,0,0,1-3.27,2.37l-9.19-4.83-9.18,4.83A2.25,2.25,0,0,1,426.67,41l1.76-10.23L421,23.51a2.25,2.25,0,0,1,1.24-3.84l10.28-1.49,4.59-9.31A2.25,2.25,0,0,1,441.14,8.87Z" transform="translate(-202.07 -7.61)"/></svg>