<?xml version="1.0" encoding="utf-8"?>
<!-- Generator: Adobe Illustrator 24.2.0, SVG Export Plug-In . SVG Version: 6.00 Build 0)  -->
<svg version="1.1" id="Calque_1" xmlns="http://www.w3.org/2000/svg" xmlns:xlink="http://www.w3.org/1999/xlink" x="0px" y="0px"
	 viewBox="0 0 46.4 70" style="enable-background:new 0 0 46.4 70;" xml:space="preserve">
<style type="text/css">
	.st0{fill:#6DBFB0;}
	.st1{fill:#FFFFFF;}
</style>
<path class="st0" d="M46.4,23.2C46.4,36,23.2,70,23.2,70S0,36,0,23.2S10.4,0,23.2,0S46.4,10.4,46.4,23.2z"/>
<path class="st1" d="M7.9,18.3c0,0.5-0.4,1-1,1c-0.7,0-1-0.5-1-1s0.4-1,1-1C7.6,17.3,7.9,17.8,7.9,18.3 M9.6,18.3
	c0-1.2-0.9-2.4-2.7-2.4s-2.7,1.2-2.7,2.4s0.9,2.4,2.7,2.4S9.6,19.5,9.6,18.3 M12,17.8c0,0.2-0.1,0.5-0.5,0.5h-0.1v-1h0.1
	C11.9,17.3,12,17.6,12,17.8 M13.6,17.5c0-0.9-0.7-1.5-1.9-1.5H9.9l0,0l0,0v4.6l0,0l0,0l1.5-0.1l0,0l0,0v-1.7l0.7,1.8l0,0l0,0
	l1.6-0.1h0.1v-0.1l-0.9-1.9C13.3,18.4,13.6,18,13.6,17.5 M15.4,18.3c0-0.6,0.5-1,1.2-1c0.3,0,0.5,0.1,0.8,0.2h0.1v-0.1L17.1,16l0,0
	l0,0c-0.2-0.1-0.4-0.1-0.7-0.1c-1.6,0-2.7,1-2.7,2.4c0,1.3,1.1,2.4,2.6,2.4c0.3,0,0.7,0,0.9-0.1l0,0l0,0l0.2-1.4v-0.1h-0.1
	c-0.3,0.1-0.5,0.2-0.9,0.2C15.9,19.2,15.4,18.9,15.4,18.3 M21.8,20.6L21.8,20.6L21.8,20.6V16l0,0l0,0h-1.5l0,0l0,0v1.5h-0.8v-1.6
	l0,0l0,0L17.8,16l0,0l0,0v4.6l0,0l0,0l1.6-0.1l0,0l0,0v-1.6h0.8v1.7l0,0l0,0H21.8z M25.5,19.3L25.5,19.3L25.5,19.3l-1.6-0.1v-0.4
	h0.9l0,0l0,0v-1.1l0,0l0,0h-0.9v-0.4h1.4h0.1v-0.1L25.1,16l0,0l0,0h-2.7l0,0l0,0v4.5l0,0l0,0h2.7l0,0l0,0L25.5,19.3z M28.8,17.4
	L28.8,17.4L28.8,17.4l0.1-1.3l0,0l0,0C28.5,16,28,16,27.6,16c-1.2,0-2,0.6-2,1.5s0.8,1.2,1.4,1.4c0.3,0.1,0.5,0.2,0.5,0.3
	c0,0.1-0.1,0.2-0.6,0.2c-0.3,0-0.8,0-1.2-0.1h-0.1v0.1v1.3l0,0l0,0l0,0c0.4,0.1,0.7,0.1,1.2,0.1c1.4,0,2.3-0.6,2.3-1.5
	c0-1-0.9-1.3-1.5-1.5c-0.3-0.1-0.5-0.2-0.5-0.3c0-0.2,0.3-0.2,0.6-0.2C28.1,17.2,28.5,17.3,28.8,17.4 M32.7,17.4L32.7,17.4
	L32.7,17.4V16l0,0l0,0h-3.2l0,0l0,0l-0.4,1.3v0.1l0,0h1v3.2l0,0l0,0l1.6-0.1l0,0l0,0v-3.1H32.7z M39.4,18.7h-0.7l0.3-1.2L39.4,18.7z
	 M35.1,17.8c0,0.2-0.1,0.5-0.5,0.5h-0.1v-1h0.1C35,17.3,35.1,17.6,35.1,17.8 M41.7,20.5L40.1,16l0,0l0,0h-1.9l0,0l0,0l-1.5,4.1
	L36,18.6c0.4-0.2,0.7-0.6,0.7-1.1c0-0.9-0.7-1.5-1.9-1.5H33l0,0l0,0v4.6l0,0l0,0l1.5-0.1l0,0l0,0v-1.6l0.7,1.8l0,0l0,0l1.5-0.1
	l1.5,0.1l0,0l0,0l0.2-0.8h1.3l0.2,0.8l0,0l0,0L41.7,20.5L41.7,20.5L41.7,20.5z M41.5,16.4c0-0.1,0.1-0.2,0.2-0.2h0.1V16h-0.1
	c-0.2,0-0.3,0.1-0.3,0.3s0.1,0.3,0.3,0.3h0.1v-0.2l-0.1,0.1C41.5,16.6,41.5,16.5,41.5,16.4 M42.1,16.4c0,0.3-0.2,0.5-0.5,0.5
	s-0.5-0.2-0.5-0.5s0.2-0.5,0.5-0.5C41.8,15.9,42.1,16.2,42.1,16.4 M42.1,16.4c0-0.3-0.3-0.6-0.6-0.6s-0.6,0.2-0.6,0.6
	c0,0.3,0.3,0.6,0.6,0.6C41.9,17,42.1,16.7,42.1,16.4"/>
<g>
	<path class="st1" d="M14.6,30.1l-0.2,0.3c0,0,0,0-0.1,0l-0.2-0.1c0,0,0,0,0-0.1l0.6-0.9c0,0,0,0,0.1,0l0.2,0.1c0,0,0,0,0,0.1
		l-0.2,0.3l1.2,0.8c0,0,0,0,0,0.1l-0.1,0.2c0,0,0,0-0.1,0L14.6,30.1z"/>
	<path class="st1" d="M16.8,29.4l-0.5-1.8c0,0,0,0,0,0l0,0c0,0,0,0,0.1,0l1.7,0.8c0,0,0,0.1,0,0.1L18,28.5c0,0-0.1,0-0.1,0l-0.3-0.1
		L17,28.9l0.1,0.3c0,0,0,0.1,0,0.1L16.8,29.4C16.9,29.4,16.9,29.4,16.8,29.4z M17.3,28.3L16.8,28l0,0l0.2,0.6L17.3,28.3z"/>
	<path class="st1" d="M18.8,26C18.8,26,18.8,26,18.8,26L18.8,26c0.1-0.1,0.1-0.1,0.1-0.1l0.9,0.9c0,0,0,0,0,0l0.1-1.3c0,0,0,0,0,0
		l0,0c0,0,0,0,0.1,0L21,27c0,0,0,0.1,0,0.1l-0.2,0.1c0,0,0,0-0.1,0l-0.5-0.8c0,0,0,0,0,0l-0.1,1.1c0,0,0,0,0,0l0,0c0,0,0,0,0,0
		l-0.8-0.8c0,0,0,0,0,0l0.2,0.9c0,0,0,0,0,0.1l-0.2,0.1c0,0-0.1,0-0.1,0L18.8,26z"/>
	<path class="st1" d="M23.2,25.9c0.1,0,0.3,0.2,0.3,0.4c0,0.3-0.2,0.5-0.5,0.5l-0.6,0c0,0,0,0,0,0l-0.1-1.7c0,0,0,0,0,0l0.6,0
		c0.3,0,0.5,0.2,0.5,0.4C23.5,25.7,23.3,25.8,23.2,25.9L23.2,25.9z M22.9,25.8c0.1,0,0.2-0.1,0.2-0.2c0-0.1-0.1-0.2-0.2-0.2l-0.3,0
		l0,0.4L22.9,25.8z M23,26.5c0.1,0,0.2-0.1,0.2-0.2c0-0.1-0.1-0.2-0.2-0.2l-0.3,0l0,0.4L23,26.5z"/>
	<path class="st1" d="M26.2,25.5c0.5,0.1,0.7,0.6,0.6,1.1c-0.1,0.5-0.6,0.7-1.1,0.6c-0.5-0.1-0.7-0.6-0.6-1.1
		C25.2,25.6,25.7,25.3,26.2,25.5z M25.8,26.9c0.3,0.1,0.6-0.1,0.7-0.4c0.1-0.3-0.1-0.6-0.4-0.7c-0.3-0.1-0.6,0.1-0.7,0.4
		C25.3,26.5,25.5,26.8,25.8,26.9z"/>
	<path class="st1" d="M29.5,27.1c0.4,0.3,0.5,0.9,0.2,1.3c-0.3,0.4-0.9,0.5-1.3,0.2c-0.4-0.3-0.5-0.9-0.2-1.3
		C28.5,26.9,29.1,26.8,29.5,27.1z M28.6,28.3c0.3,0.2,0.6,0.1,0.8-0.1c0.2-0.3,0.1-0.6-0.1-0.8c-0.3-0.2-0.6-0.1-0.8,0.1
		C28.3,27.8,28.3,28.1,28.6,28.3z"/>
	<path class="st1" d="M31.4,29.2C31.5,29.2,31.5,29.2,31.4,29.2l0.5,0.6c0.2,0.2,0.1,0.6-0.1,0.8c-0.2,0.1-0.4,0.1-0.6,0l-0.3,0.6
		c0,0-0.1,0-0.1,0L30.6,31c0,0,0,0,0,0l0.4-0.6L30.8,30l-0.5,0.4c0,0-0.1,0-0.1,0l-0.1-0.2c0,0,0-0.1,0-0.1L31.4,29.2z M31.2,30.2
		c0.1,0.1,0.2,0.1,0.4,0.1c0.1-0.1,0.1-0.2,0.1-0.3l-0.2-0.3L31,29.9L31.2,30.2z"/>
	<path class="st1" d="M31.7,40.9l0.2-0.3c0,0,0,0,0.1,0l0.2,0.1c0,0,0,0,0,0.1l-0.6,0.9c0,0,0,0-0.1,0l-0.2-0.1c0,0,0,0,0-0.1
		l0.2-0.3l-1.2-0.8c0,0,0,0,0-0.1l0.1-0.2c0,0,0,0,0.1,0L31.7,40.9z"/>
	<path class="st1" d="M29.5,41.6l0.5,1.8c0,0,0,0,0,0l0,0c0,0,0,0-0.1,0l-1.7-0.8c0,0,0-0.1,0-0.1l0.2-0.1c0,0,0.1,0,0.1,0l0.3,0.1
		l0.6-0.5l-0.1-0.3c0,0,0-0.1,0-0.1L29.5,41.6C29.4,41.6,29.5,41.6,29.5,41.6z M29,42.7l0.5,0.3l0,0l-0.2-0.6L29,42.7z"/>
	<path class="st1" d="M27.5,45C27.5,45,27.5,45,27.5,45L27.5,45c-0.1,0.1-0.1,0.1-0.1,0.1l-0.9-0.9c0,0,0,0,0,0l-0.1,1.3
		c0,0,0,0,0,0l0,0c0,0,0,0-0.1,0L25.4,44c0,0,0-0.1,0-0.1l0.2-0.1c0,0,0,0,0.1,0l0.5,0.8c0,0,0,0,0,0l0.1-1.1c0,0,0,0,0,0l0,0
		c0,0,0,0,0,0l0.8,0.8c0,0,0,0,0,0l-0.2-0.9c0,0,0,0,0-0.1l0.2-0.1c0,0,0.1,0,0.1,0L27.5,45z"/>
	<path class="st1" d="M23.1,45.1c-0.1,0-0.3-0.2-0.3-0.4c0-0.3,0.2-0.5,0.5-0.5l0.6,0c0,0,0,0,0,0l0.1,1.7c0,0,0,0,0,0l-0.6,0
		c-0.3,0-0.5-0.2-0.5-0.4C22.9,45.3,23,45.2,23.1,45.1L23.1,45.1z M23.4,44.5c-0.1,0-0.2,0.1-0.2,0.2c0,0.1,0.1,0.2,0.2,0.2l0.3,0
		l0-0.4L23.4,44.5z M23.4,45.2c-0.1,0-0.2,0.1-0.2,0.2c0,0.1,0.1,0.2,0.2,0.2l0.3,0l0-0.4L23.4,45.2z"/>
	<path class="st1" d="M20.1,45.5c-0.5-0.1-0.7-0.6-0.6-1.1c0.1-0.5,0.6-0.7,1.1-0.6c0.5,0.1,0.7,0.6,0.6,1.1
		C21.1,45.4,20.6,45.7,20.1,45.5z M20.6,44.1c-0.3-0.1-0.6,0.1-0.7,0.4c-0.1,0.3,0.1,0.6,0.4,0.7c0.3,0.1,0.6-0.1,0.7-0.4
		C21,44.5,20.9,44.2,20.6,44.1z"/>
	<path class="st1" d="M16.9,43.9c-0.4-0.3-0.5-0.9-0.2-1.3c0.3-0.4,0.9-0.5,1.3-0.2c0.4,0.3,0.5,0.9,0.2,1.3
		C17.8,44.1,17.3,44.2,16.9,43.9z M17.8,42.7c-0.3-0.2-0.6-0.1-0.8,0.1c-0.2,0.3-0.1,0.6,0.1,0.8c0.3,0.2,0.6,0.1,0.8-0.1
		C18.1,43.2,18,42.9,17.8,42.7z"/>
	<path class="st1" d="M14.9,41.8C14.9,41.8,14.8,41.8,14.9,41.8l-0.5-0.6c-0.2-0.2-0.1-0.6,0.1-0.8c0.2-0.1,0.4-0.1,0.6,0l0.3-0.6
		c0,0,0.1,0,0.1,0l0.1,0.2c0,0,0,0,0,0l-0.4,0.6l0.2,0.2l0.5-0.4c0,0,0.1,0,0.1,0l0.1,0.2c0,0,0,0.1,0,0.1L14.9,41.8z M15.1,40.8
		c-0.1-0.1-0.2-0.1-0.4-0.1c-0.1,0.1-0.1,0.2-0.1,0.3l0.2,0.3l0.4-0.3L15.1,40.8z"/>
	<circle class="st1" cx="32.7" cy="35.5" r="0.4"/>
	<circle class="st1" cx="13.6" cy="35.5" r="0.4"/>
	<path class="st1" d="M26.1,39.4c-0.1,0-0.5,0-0.7,0c-0.7,0-0.9-0.1-1.2-0.3c-0.4-0.4-0.3-0.8-0.3-1.6v-3.6h2.2v-2.1h-2.2v-2.5h-2.4
		v2.5h-2.2v2.1h2.2v4.3c0,1.4,0.3,2,0.9,2.6c0.6,0.6,1.5,1,2.8,1c0.1,0,0.9,0,1,0L26.1,39.4z"/>
</g>
</svg>
