<?xml version="1.0" encoding="utf-8"?>
<!-- Generator: Adobe Illustrator 24.2.0, SVG Export Plug-In . SVG Version: 6.00 Build 0)  -->
<svg version="1.1" id="Calque_1" xmlns="http://www.w3.org/2000/svg" xmlns:xlink="http://www.w3.org/1999/xlink" x="0px" y="0px"
	 viewBox="0 0 46.4 70" style="enable-background:new 0 0 46.4 70;" xml:space="preserve">
<style type="text/css">
	.st0{fill:#D7282F;}
	.st1{fill:#FFFFFF;}
</style>
<path class="st0" d="M46.4,23.2C46.4,36,23.2,70,23.2,70S0,36,0,23.2S10.4,0,23.2,0S46.4,10.4,46.4,23.2z"/>
<path class="st1" d="M6.8,23.7c0,0.5-0.4,1.1-1.1,1.1c-0.7,0-1.1-0.6-1.1-1.1c0-0.5,0.4-1.1,1.1-1.1S6.8,23.2,6.8,23.7 M8.5,23.7
	c0-1.3-1-2.6-2.9-2.6s-2.9,1.3-2.9,2.6s1,2.6,2.9,2.6S8.5,25,8.5,23.7 M11.2,23.2c0,0.2-0.1,0.5-0.5,0.5h-0.2v-1.1h0.2
	C11.1,22.7,11.2,23,11.2,23.2 M12.9,22.8c0-1.1-0.7-1.7-2-1.7h-2h0v0v5.1v0h0l1.6-0.1h0v0v-1.8l0.8,2l0,0h0l1.7-0.1h0.1l0-0.1
	l-1-2.1C12.6,23.8,12.9,23.4,12.9,22.8 M14.8,23.7c0-0.7,0.5-1.1,1.3-1.1c0.4,0,0.6,0.1,0.8,0.2l0.1,0l0-0.1l-0.3-1.6v0h0
	c-0.2-0.1-0.4-0.1-0.7-0.1c-1.7,0-2.9,1.1-2.9,2.7c0,1.5,1.2,2.6,2.8,2.6c0.4,0,0.7,0,1-0.1l0,0v0l0.2-1.6l0-0.1l-0.1,0
	c-0.3,0.2-0.6,0.2-0.9,0.2C15.4,24.8,14.8,24.4,14.8,23.7 M21.7,26.2L21.7,26.2L21.7,26.2l0-5.1v0h0l-1.7,0.1h0v0v1.7h-0.9v-1.8v0h0
	l-1.7,0.1h0v0v5.1v0h0l1.7-0.1h0v0v-1.8H20v1.9v0h0L21.7,26.2z M25.7,24.8L25.7,24.8L25.7,24.8L24,24.8v-0.4h1h0v0V23v0h0h-1v-0.4
	h1.5h0.1l0-0.1l-0.3-1.3l0,0h0h-2.9h0v0v5v0h0h3h0l0,0L25.7,24.8z M29.3,22.7L29.3,22.7L29.3,22.7l0.1-1.5v0h0
	c-0.4-0.1-0.9-0.1-1.4-0.1c-1.3,0-2.1,0.6-2.1,1.7c0,1.1,0.9,1.4,1.5,1.6c0.3,0.1,0.5,0.2,0.5,0.3c0,0.1-0.1,0.2-0.6,0.2
	c-0.4,0-0.8,0-1.3-0.1l-0.1,0v0.1v1.4v0h0l0,0c0.4,0.1,0.8,0.1,1.3,0.1c1.5,0,2.4-0.6,2.4-1.7c0-1.1-1-1.4-1.6-1.6
	c-0.3-0.1-0.5-0.2-0.5-0.3c0-0.2,0.3-0.2,0.6-0.2C28.5,22.5,29,22.6,29.3,22.7 M33.4,22.7L33.4,22.7L33.4,22.7l0-1.5v0h0H30h0l0,0
	l-0.4,1.5l0,0.1h0.1h1.1v3.6v0h0l1.7-0.1h0v0v-3.5H33.4z M40.7,24.2H40l0.4-1.4L40.7,24.2z M36,23.2c0,0.2-0.1,0.5-0.5,0.5h-0.2
	v-1.1h0.2C35.9,22.7,36,23,36,23.2 M43.2,26.2l-1.8-5l0,0h0h-2h0l0,0l-1.6,4.6L36.9,24c0.5-0.2,0.7-0.7,0.7-1.2c0-1.1-0.7-1.7-2-1.7
	h-2h0v0v5.1v0h0l1.6-0.1h0v0v-1.8l0.8,2l0,0h0l1.6-0.1l1.6,0.1h0l0,0l0.3-0.8H41l0.2,0.8l0,0h0L43.2,26.2L43.2,26.2L43.2,26.2z
	 M42.9,21.7c0-0.1,0.1-0.2,0.2-0.2c0,0,0.1,0,0.1,0l0-0.2c0,0-0.1,0-0.1,0c-0.2,0-0.3,0.2-0.3,0.4c0,0.2,0.1,0.4,0.3,0.4
	c0,0,0.1,0,0.1,0l0-0.2c0,0-0.1,0.1-0.1,0.1C43,21.9,42.9,21.8,42.9,21.7 M43.5,21.7c0,0.3-0.2,0.5-0.5,0.5s-0.5-0.2-0.5-0.5
	c0-0.3,0.2-0.5,0.5-0.5S43.5,21.4,43.5,21.7 M43.6,21.7c0-0.3-0.3-0.6-0.6-0.6c-0.3,0-0.6,0.3-0.6,0.6c0,0.3,0.3,0.6,0.6,0.6
	C43.4,22.3,43.6,22,43.6,21.7"/>
</svg>
