<?xml version="1.0" encoding="utf-8"?>
<!-- Generator: Adobe Illustrator 21.1.0, SVG Export Plug-In . SVG Version: 6.00 Build 0)  -->
<svg version="1.1" id="Layer_1" xmlns="http://www.w3.org/2000/svg" xmlns:xlink="http://www.w3.org/1999/xlink" x="0px" y="0px"
	 viewBox="0 0 23 13" style="enable-background:new 0 0 23 13;" xml:space="preserve">
<style type="text/css">
	.st0{fill:#F9A28D;}
</style>
<g id="IDI2Ew.tif">
	<path class="st0" d="M-0.1,0.8C0.3,0.9,0.7,0.9,1.1,1c1.7,0.4,3.1,1.4,4,2.9C6,5.1,6.7,6.3,7.5,7.4c0.5,0.7,1,1.3,1.6,1.9
		c1.4,1.4,3.7,1.3,5-0.1c0.1-0.1,0.1-0.1,0.2-0.2c0.6-0.8,1.2-1.6,1.8-2.4c0.7-1,1.4-2.1,2.2-3.1c1-1.4,2.5-2.4,4.2-2.5H23v2.2
		c-1.1,0-2.1,0.5-2.8,1.3C19.6,5.1,19,6,18.4,6.8C17.7,7.9,17,9,16.2,10c-0.9,1.2-2.1,2-3.5,2.3c-1.6,0.4-3.2,0-4.6-0.9
		C7.3,10.8,6.6,10,6,9.1C5.1,7.8,4.2,6.3,3.3,5c-0.7-1.2-2-1.9-3.4-1.9C-0.1,3.1-0.1,0.8-0.1,0.8z"/>
</g>
</svg>
