<?xml version="1.0" encoding="utf-8"?>
<!-- Generator: Adobe Illustrator 26.1.0, SVG Export Plug-In . SVG Version: 6.00 Build 0)  -->
<svg version="1.1" id="Calque_1" xmlns="http://www.w3.org/2000/svg" xmlns:xlink="http://www.w3.org/1999/xlink" x="0px" y="0px"
	 viewBox="0 0 120 120" style="enable-background:new 0 0 120 120;" xml:space="preserve">
<style type="text/css">
	.st0{fill:#F5F5F5;}
	.st1{clip-path:url(#SVGID_00000072246680574832615950000012943807258032673684_);fill:#999999;}
</style>
<g>
	<circle class="st0" cx="60" cy="60" r="60"/>
	<g>
		<defs>
			<rect id="SVGID_1_" x="25" y="29.8" width="70" height="60.3"/>
		</defs>
		<clipPath id="SVGID_00000016793808462912187770000012156897090299497370_">
			<use xlink:href="#SVGID_1_"  style="overflow:visible;"/>
		</clipPath>
		<path style="clip-path:url(#SVGID_00000016793808462912187770000012156897090299497370_);fill:#999999;" d="M84.6,80.7
			c-1.6,0-3.1-0.6-4.3-1.8c-1.1-1.1-1.8-2.7-1.8-4.3c0-1.1-0.9-2-2-2c-1.1,0-2,0.9-2,2c0,2,0.6,3.9,1.6,5.5c-4.5,3.9-10.1,6-16.1,6
			c-6.6,0-12.8-2.6-17.4-7.2c-0.8-0.8-2.1-0.8-2.9,0c-0.8,0.8-0.8,2.1,0,2.9c5.4,5.4,12.6,8.4,20.3,8.4c7,0,13.7-2.5,18.9-7.2
			c1.6,1.1,3.6,1.7,5.6,1.7c1.1,0,2-0.9,2-2C86.6,81.6,85.7,80.7,84.6,80.7"/>
		<path style="clip-path:url(#SVGID_00000016793808462912187770000012156897090299497370_);fill:#999999;" d="M33.1,46
			c0-4.5,3.6-8.1,8.1-8.1c4.5,0,8.1,3.6,8.1,8.1c0,4.5-3.6,8.1-8.1,8.1C36.7,54.1,33.1,50.5,33.1,46 M57.3,46
			c0-8.9-7.2-16.2-16.2-16.2C32.2,29.8,25,37.1,25,46s7.2,16.2,16.2,16.2C50.1,62.2,57.3,54.9,57.3,46"/>
		<path style="clip-path:url(#SVGID_00000016793808462912187770000012156897090299497370_);fill:#999999;" d="M95,46
			c0-8.9-7.2-16.2-16.2-16.2c-8.9,0-16.2,7.2-16.2,16.2c0,2.2,1.8,4,4,4c2.2,0,4-1.8,4-4v0c0-4.5,3.6-8.1,8.1-8.1s8.1,3.6,8.1,8.1
			c0,2.2,1.8,4,4,4S95,48.2,95,46C95,46,95,46,95,46"/>
	</g>
</g>
</svg>
