<?xml version="1.0" encoding="utf-8"?>
<!-- Generator: Adobe Illustrator 25.2.3, SVG Export Plug-In . SVG Version: 6.00 Build 0)  -->
<svg version="1.1" id="Calque_1" xmlns="http://www.w3.org/2000/svg" xmlns:xlink="http://www.w3.org/1999/xlink" x="0px" y="0px"
	 viewBox="0 0 538.5 145.8" style="enable-background:new 0 0 538.5 145.8;" xml:space="preserve">
<style type="text/css">
	.st0{fill:#F7A289;}
	.st1{fill:#69C4B4;}
</style>
<path class="st0" d="M453.6,118.7c0.1-2.9-2.1-5.3-5-5.4c-1.3,0-2.4,0.5-3.3,1.4c-0.1,0.1-0.2,0.2-0.3,0.3
	c-13.1,12.8-26.9,19.2-41.2,19.2c-7.7-0.1-15.3-2-22.2-5.4c-6.4-3.2-12.3-7.3-17.5-12.3c-0.7-0.7-0.8-0.8-1-1l-0.5-0.4
	c-0.3-0.3-0.6-0.6-1-0.9l-0.1-0.1l0,0c-0.8-0.5-1.6-0.8-2.5-0.8c-2.9,0.1-5.1,2.5-5,5.4c0,0,0,0,0,0c0,1.1,0.3,2.2,0.9,3.1v0.1
	l0.4,0.4c6.6,7.2,14.5,13.1,23.4,17.2c8.9,4.1,17.4,6.3,25.2,6.3s16.3-2.1,25.2-6.3c8.9-4.1,16.9-10,23.5-17.2l0.4-0.4v-0.1
	C453.4,120.8,453.7,119.7,453.6,118.7z"/>
<path class="st1" d="M321.8,62.3c0-5,1-10,2.9-14.7c2-4.6,4.9-8.8,8.6-12.3c3.6-3.5,7.9-6.2,12.5-8c9.7-3.7,20.3-3.7,30,0
	c4.7,1.9,9.1,4.6,12.8,8.1c7.4,7,11.5,16.7,11.4,26.8c0,5.1-1,10.1-3,14.7c-1.9,4.6-4.8,8.8-8.5,12.2c-3.6,3.5-7.9,6.2-12.6,8
	c-4.8,1.9-10,2.8-15.2,2.8c-5.1,0-10.2-0.9-15-2.7c-9.5-3.8-17-11.1-21.1-20.5C322.7,72.2,321.7,67.3,321.8,62.3z M340.2,62.3
	c-0.2,5.7,2,11.1,5.9,15.2c7.9,8,20.8,8.1,28.8,0.2c0.1-0.1,0.3-0.3,0.4-0.4c4-4,6.2-9.4,6.1-15c0.2-5.6-1.9-11.1-5.9-15.2
	c-3.9-4-9.3-6.1-14.8-6c-5.5-0.1-10.8,2-14.6,6C342.1,51.2,340,56.6,340.2,62.3z"/>
<path class="st1" d="M407.6,62.3c0-5,1-10,2.9-14.7c2-4.6,4.9-8.8,8.6-12.3c3.6-3.5,7.9-6.2,12.5-8c9.7-3.7,20.3-3.7,30,0
	c4.7,1.9,9.1,4.6,12.8,8.1c7.4,7,11.5,16.7,11.4,26.8c0,5-1,10-2.9,14.7c-1.9,4.6-4.8,8.8-8.5,12.2c-3.6,3.5-7.9,6.2-12.6,8
	c-4.8,1.9-10,2.8-15.2,2.8c-5.1,0-10.2-0.9-15-2.7c-9.5-3.8-17-11.1-21.1-20.5C408.6,72.2,407.6,67.3,407.6,62.3z M426,62.3
	c-0.2,5.7,2,11.1,6,15.2c7.9,8,20.8,8.1,28.8,0.2c0.1-0.1,0.3-0.3,0.4-0.4c4-4,6.2-9.4,6.1-15c0-6.1-2-11.2-5.9-15.2
	c-8.2-8-21.3-8-29.5,0C428,51.2,425.9,56.6,426,62.3z"/>
<path class="st1" d="M303.3,35.5c-7.3-7.1-16.4-10.7-27.2-10.7c-4.1-0.1-8.1,0.6-11.9,1.9c-3.4,1.2-6.5,3.2-9.1,5.7V0h-18v61.6
	c0,11.1,3.6,20.3,10.9,27.6c7.3,7.3,16.5,10.9,27.6,10.9c5.1,0,10.1-0.9,14.9-2.8c4.7-1.8,8.9-4.5,12.5-8c3.6-3.4,6.5-7.6,8.4-12.2
	c1.9-4.7,2.9-9.7,2.9-14.8C314.2,51.6,310.6,42.7,303.3,35.5z M289.8,77.3c-7.8,8.1-20.7,8.3-28.8,0.5c-0.1-0.1-0.3-0.3-0.4-0.4
	c-3.9-4.1-6-9.5-5.9-15.2c0-6.2,1.9-11.3,5.8-15.2c8.2-7.9,21.3-7.9,29.5,0c3.9,4,5.9,9.1,5.9,15.2
	C295.9,67.9,293.7,73.3,289.8,77.3L289.8,77.3z"/>
<path class="st1" d="M536.4,24c-6.5,0-11.8,1.1-16,3.3c-4.3,2.3-7.9,5.9-10.1,10.3V24.7h-16.7v74.7h18.2V67.9
	c0-17.1,10.1-26.4,20.3-26.4l2.6-7.2l3.8-10.3H536.4z"/>
<path class="st1" d="M94,23.2c-11-0.5-20.5,3.1-28.2,11.1l7.9,11.1c9.9-12.2,22.7-8,24.3-7.3c4.2,2,6,6.9,6,11.1
	c-11.7,4-18.5,5.5-27.5,9.1c-5.2,2.1-9.7,5.3-12,10.5c-3.2,7.3-3,17.9,2.9,24c4.8,4.9,11.2,7.2,18.9,7.2c3.6,0.1,7.3-0.6,10.7-1.8
	c3.1-1.2,5.9-3.1,8.1-5.5v6.8h16V51.8C121,38.5,114.8,24.1,94,23.2z M103.9,72.1c-0.2,4.6-1.8,7.8-6.3,10.7S83,88.4,78.2,82.1
	c-3-4-1.4-7.6,1.5-9.4c3.4-2.2,16.9-6.6,24.2-8.5C103.9,67.6,104,68.6,103.9,72.1L103.9,72.1z"/>
<path class="st1" d="M226.3,52.4C226,37,213.3,24.7,197.9,25c-7,0.1-13.8,2.9-18.9,7.8c-11.1-10.7-28.8-10.4-39.5,0.7
	c-4.9,5.1-7.7,11.8-7.8,18.8l0,0v47.2h17.7V52.7c0.2-5.7,5.1-10.1,10.8-9.9c5.5,0.2,9.8,4.7,9.9,10.2l0,0v46.6h18V53h0.1
	c-0.1-5.7,4.4-10.4,10.1-10.5c5.7-0.1,10.4,4.4,10.5,10.1v46.9h17.7L226.3,52.4L226.3,52.4z"/>
<path class="st1" d="M51.5,82.3h-5.4c-5,0-7-0.6-8.8-2.6c-2.9-3.1-2.5-6.2-2.5-11.8V40.6h16.7V24.8H34.8v-19H16.7v19H0v15.7h16.7
	v32.4c0,10.7,2.2,15.1,6.6,20s11.4,7.4,21,7.4h7.3L51.5,82.3z"/>
</svg>
