<svg id="Layer_1" data-name="Layer 1" xmlns="http://www.w3.org/2000/svg" viewBox="0 0 112 111"><defs><style>.cls-1{fill:#5bbc2e;}</style></defs><title>Google plus</title><path class="cls-1" d="M56.74,96.51A41.19,41.19,0,1,0,15.55,55.32,41.2,41.2,0,0,0,56.74,96.51Zm14.7-44.13h5.9v-5.9h5.9v5.9h5.84v5.9H83.24v5.9h-5.9v-5.9h-5.9ZM58.79,40.09,53.2,45.5c-7.14-7-21-1.89-21,9.8,0,15.86,22.52,17,24.47,4.12H45V52.35H64.42C66.62,63.87,59.18,75.92,45,75.92h0a20.56,20.56,0,0,1-20.6-20.6c0-18.32,21.74-27,34.39-15.23Zm0,0"/></svg>