<svg id="Layer_1" data-name="Layer 1" xmlns="http://www.w3.org/2000/svg" viewBox="0 0 112 111"><defs><style>.cls-1{fill:#5bbc2e;}</style></defs><title>Linkedln</title><path class="cls-1" d="M56.75,15.34a41,41,0,1,0,41,41A41,41,0,0,0,56.75,15.34ZM43.29,79.87H33.19V47.38h10.1Zm-5-36.93a5.85,5.85,0,1,1,5.85-5.85A5.85,5.85,0,0,1,38.25,42.94ZM81.1,79.87H71V64.07c0-3.77-.07-8.61-5.25-8.61s-6.06,4.1-6.06,8.34V79.87H49.62V47.38h9.69v4.44h.13A10.62,10.62,0,0,1,69,46.57c10.23,0,12.11,6.73,12.11,15.48Z"/></svg>