<svg id="Layer_1" data-name="Layer 1" xmlns="http://www.w3.org/2000/svg" viewBox="0 0 112 111"><defs><style>.cls-1{fill:#5bbc2e;}</style></defs><title>Twitter</title><path class="cls-1" d="M57.73,15.23a41,41,0,1,0,41,41A41,41,0,0,0,57.73,15.23Zm19,31.27c0,.42,0,.85,0,1.27,0,13-9.88,27.95-27.95,27.95a27.78,27.78,0,0,1-15.06-4.41,20.18,20.18,0,0,0,2.35.14,19.68,19.68,0,0,0,12.2-4.21,9.84,9.84,0,0,1-9.18-6.82A10.27,10.27,0,0,0,41,60.6a9.69,9.69,0,0,0,2.59-.35,9.82,9.82,0,0,1-7.88-9.63V50.5a9.82,9.82,0,0,0,4.45,1.22,9.83,9.83,0,0,1-3-13.11A27.88,27.88,0,0,0,57.37,48.87a10.32,10.32,0,0,1-.25-2.24,9.83,9.83,0,0,1,17-6.72,19.55,19.55,0,0,0,6.24-2.38A9.87,9.87,0,0,1,76,43a19.71,19.71,0,0,0,5.64-1.55A19.73,19.73,0,0,1,76.77,46.5Z"/></svg>