<?xml version="1.0" encoding="utf-8"?>
<!-- Generator: Adobe Illustrator 22.1.0, SVG Export Plug-In . SVG Version: 6.00 Build 0)  -->
<svg version="1.1" id="Calque_1" xmlns="http://www.w3.org/2000/svg" xmlns:xlink="http://www.w3.org/1999/xlink" x="0px" y="0px"
	 viewBox="0 0 192.9 52.2" style="enable-background:new 0 0 192.9 52.2;" xml:space="preserve">
<style type="text/css">
	.st0{fill:#F7A289;}
	.st1{fill:#6BC4B4;}
</style>
<g>
	<path class="st0" d="M162.5,42.5c0-1.1-0.8-1.9-1.8-1.9c-0.5,0-0.9,0.2-1.2,0.5c0,0-0.1,0.1-0.1,0.1c-4.7,4.6-9.6,6.9-14.7,6.9
		c-2.6,0-5.3-0.7-8-1.9c-2.2-1.1-4.3-2.5-6.3-4.4c-0.3-0.2-0.3-0.3-0.4-0.3c0,0-0.1-0.1-0.2-0.1c-0.1-0.1-0.2-0.2-0.4-0.3l0,0l0,0
		c-0.3-0.2-0.6-0.3-0.9-0.3c-1,0-1.8,0.9-1.8,1.9c0,0.4,0.1,0.8,0.3,1.1l0,0l0.1,0.1c2.4,2.6,5.2,4.7,8.4,6.2c3.2,1.5,6.2,2.2,9,2.2
		c2.8,0,5.8-0.8,9-2.2c3.2-1.5,6-3.6,8.4-6.2l0.1-0.2l0,0C162.4,43.3,162.5,42.9,162.5,42.5z"/>
	<g>
		<g>
			<path class="st1" d="M13.1,45.7c0.1-0.2,0.3-0.4,0.5-0.5c0.2-0.1,0.5-0.2,0.7-0.2c0.6,0,1.1,0.2,1.5,0.7c0.3,0.5,0.5,1,0.5,1.6
				c0,0.6-0.2,1.1-0.5,1.6c-0.3,0.5-0.8,0.7-1.5,0.7c-0.3,0-0.5-0.1-0.8-0.2c-0.2-0.1-0.4-0.3-0.5-0.5v0.6h-1.2v-7.1h1.2L13.1,45.7z
				 M14.1,46.1c-0.3,0-0.5,0.1-0.7,0.4c-0.2,0.2-0.3,0.5-0.3,0.9c0,0.3,0.1,0.6,0.3,0.9c0.2,0.2,0.4,0.4,0.7,0.4
				c0.3,0,0.6-0.1,0.8-0.4c0.2-0.2,0.3-0.5,0.3-0.9c0-0.3-0.1-0.6-0.3-0.9C14.7,46.2,14.4,46.1,14.1,46.1L14.1,46.1z"/>
			<path class="st1" d="M17.6,51.9l1.2-2.7l-1.9-4h1.3l1.2,2.7l1.2-2.7h1.3l-3,6.7H17.6z"/>
		</g>
		<g>
			<path class="st1" d="M31.9,45.8c0,0.7-0.5,1.5-1.5,1.5c-1,0-1.5-0.8-1.5-1.5c0-0.7,0.5-1.5,1.5-1.5C31.3,44.3,31.9,45,31.9,45.8
				 M34.2,45.8c0-1.8-1.3-3.6-3.9-3.6c-2.5,0-3.9,1.8-3.9,3.6c0,1.8,1.3,3.6,3.9,3.6C32.9,49.3,34.2,47.5,34.2,45.8 M37.7,45.1
				c0,0.3-0.1,0.7-0.7,0.7h-0.2v-1.5h0.2C37.7,44.4,37.7,44.8,37.7,45.1 M40,44.6c0-1.4-1-2.3-2.7-2.3h-2.7h-0.1v0.1v6.9v0.1l0.1,0
				l2.1-0.2l0.1,0v-0.1v-2.5l1,2.7l0,0l0,0l2.3-0.2l0.1,0l0-0.1L39,46.2C39.7,45.9,40,45.3,40,44.6 M42.7,45.8
				c0-0.9,0.7-1.5,1.7-1.5c0.5,0,0.8,0.1,1.1,0.3l0.1,0l0-0.1l-0.4-2.1l0,0l0,0c-0.3-0.1-0.6-0.1-1-0.1c-2.3,0-3.9,1.5-3.9,3.6
				c0,2,1.6,3.5,3.7,3.5c0.5,0,0.9-0.1,1.3-0.2l0,0l0,0l0.3-2.1l0-0.1l-0.1,0.1c-0.4,0.2-0.8,0.3-1.2,0.3
				C43.5,47.2,42.7,46.7,42.7,45.8 M52,49.2L52,49.2L52,49.2l0.1-6.9v-0.1l-0.1,0l-2.3,0.2l-0.1,0v0.1v2.2h-1.2v-2.4v-0.1l-0.1,0
				l-2.3,0.2l-0.1,0v0.1v6.9v0.1l0.1,0l2.3-0.2l0.1,0v-0.1v-2.5h1.2v2.6v0.1l0.1,0L52,49.2z M57.4,47.3L57.4,47.3L57.4,47.3
				l-2.3-0.1v-0.6h1.3h0.1v-0.1v-1.7v-0.1h-0.1h-1.3v-0.6h2.1h0.1l0-0.1l-0.4-1.8l0,0h0h-4h-0.1v0.1v6.7v0.1h0.1h4.1h0l0,0
				L57.4,47.3z M62.3,44.4L62.3,44.4L62.3,44.4l0.1-2v0l0,0c-0.5-0.1-1.3-0.2-1.9-0.2c-1.7,0-2.8,0.9-2.8,2.3c0,1.4,1.2,1.8,2,2.1
				c0.4,0.1,0.7,0.3,0.7,0.4c0,0.2-0.1,0.3-0.8,0.3c-0.5,0-1.1-0.1-1.8-0.2l-0.1,0v0.1v1.9v0l0,0l0.1,0c0.6,0.1,1,0.2,1.7,0.2
				c2.1,0,3.3-0.8,3.3-2.3c0-1.4-1.3-1.9-2.1-2.2c-0.4-0.1-0.7-0.3-0.7-0.4c0-0.3,0.4-0.3,0.8-0.3C61.2,44.2,61.8,44.3,62.3,44.4
				 M67.8,44.4L67.8,44.4L67.8,44.4l0.1-2v-0.1h-0.1h-4.7h0l0,0l-0.5,2l0,0.1h0.1h1.5v4.8v0.1l0.1,0l2.3-0.2l0.1,0v-0.1v-4.7H67.8z
				 M77.7,46.4h-1l0.5-1.9L77.7,46.4z M71.3,45.1c0,0.3-0.1,0.7-0.7,0.7h-0.2v-1.5h0.2C71.2,44.4,71.3,44.8,71.3,45.1 M81.1,49.2
				L81.1,49.2l-2.4-6.8l0,0h0h-2.7h0l0,0l-2.2,6.2l-1-2.3c0.7-0.3,1-0.9,1-1.6c0-1.4-1-2.3-2.7-2.3h-2.7h-0.1v0.1v6.9v0.1l0.1,0
				l2.1-0.2l0.1,0v-0.1v-2.5l1,2.7l0,0l0,0l2.2-0.1l2.2,0.1l0,0l0,0l0.4-1.1h1.9l0.3,1.1l0,0l0,0L81.1,49.2L81.1,49.2z"/>
		</g>
		<g>
			<g>
				<path class="st1" d="M115.2,22.3c0-1.9,0.3-3.6,1-5.3c0.7-1.6,1.7-3.1,3.1-4.4c1.3-1.3,2.8-2.2,4.5-2.9c1.7-0.7,3.5-1,5.4-1
					c1.9,0,3.7,0.3,5.4,1c1.7,0.7,3.2,1.6,4.6,2.9c1.3,1.3,2.3,2.7,3,4.4c0.7,1.6,1,3.4,1,5.2s-0.3,3.6-1,5.3
					c-0.7,1.6-1.7,3.1-3,4.4c-1.3,1.2-2.8,2.2-4.5,2.9c-1.7,0.7-3.5,1-5.4,1c-1.9,0-3.7-0.3-5.4-1c-1.7-0.7-3.2-1.6-4.5-2.9
					c-1.3-1.3-2.4-2.8-3.1-4.4C115.6,25.9,115.2,24.1,115.2,22.3z M121.8,22.3c0,2.2,0.7,4,2.1,5.4c1.4,1.5,3.2,2.2,5.2,2.2
					c2,0,3.8-0.7,5.2-2.2c1.5-1.5,2.2-3.3,2.2-5.4c0-2.2-0.7-4-2.1-5.4c-1.4-1.4-3.2-2.1-5.3-2.1c-2.1,0-3.8,0.7-5.2,2.1
					C122.5,18.3,121.8,20.1,121.8,22.3z"/>
				<path class="st1" d="M146,22.3c0-1.9,0.3-3.6,1-5.3c0.7-1.6,1.7-3.1,3.1-4.4c1.3-1.3,2.8-2.2,4.5-2.9c1.7-0.7,3.5-1,5.4-1
					c1.9,0,3.7,0.3,5.4,1c1.7,0.7,3.2,1.6,4.6,2.9c1.3,1.3,2.3,2.7,3,4.4c0.7,1.6,1,3.4,1,5.2s-0.3,3.6-1,5.3
					c-0.7,1.6-1.7,3.1-3,4.4c-1.3,1.2-2.8,2.2-4.5,2.9c-1.7,0.7-3.5,1-5.4,1c-1.9,0-3.7-0.3-5.4-1c-1.7-0.7-3.2-1.6-4.5-2.9
					c-1.3-1.3-2.4-2.8-3.1-4.4C146.3,25.9,146,24.1,146,22.3z M152.6,22.3c0,2.2,0.7,4,2.1,5.4c1.4,1.5,3.2,2.2,5.2,2.2
					c2,0,3.8-0.7,5.2-2.2c1.5-1.5,2.2-3.3,2.2-5.4c0-2.2-0.7-4-2.1-5.4c-1.4-1.4-3.2-2.1-5.3-2.1c-2.1,0-3.8,0.7-5.2,2.1
					C153.3,18.3,152.6,20.1,152.6,22.3z"/>
			</g>
			<path class="st1" d="M108.6,12.7c-2.6-2.6-5.9-3.8-9.8-3.8c-1.6,0-3,0.2-4.3,0.7c-1.3,0.5-2.3,1.2-3.2,2.1V0h-6.5v22.1
				c0,4,1.3,7.3,3.9,9.9c2.6,2.6,5.9,3.9,9.9,3.9c1.9,0,3.6-0.3,5.3-1c1.7-0.7,3.2-1.6,4.5-2.9c1.3-1.2,2.3-2.7,3-4.4
				c0.7-1.7,1-3.4,1-5.3C112.6,18.5,111.3,15.3,108.6,12.7z M103.8,27.7c-1.4,1.5-3.2,2.2-5.2,2.2c-2.1,0-3.9-0.7-5.3-2.2
				c-1.4-1.5-2.1-3.3-2.1-5.4c0-2.2,0.7-4,2.1-5.4s3.1-2.1,5.3-2.1c2.1,0,3.9,0.7,5.3,2.1c1.4,1.4,2.1,3.2,2.1,5.4
				C106,24.4,105.2,26.2,103.8,27.7z"/>
			<path class="st1" d="M192.1,8.6c-2.3,0-4.2,0.4-5.7,1.2c-1.5,0.8-2.7,2-3.6,3.7V8.9h-6v26.8h6.5V24.3c0-6.1,3.6-9.5,7.3-9.5
				l0.9-2.6l1.3-3.7H192.1z"/>
			<path class="st1" d="M33.7,8.3c-4-0.2-7.3,1.1-10.1,4l2.8,4c3.5-4.4,8.1-2.9,8.7-2.6c1.5,0.7,2.2,2.5,2.2,4
				c-4.2,1.4-6.6,2-9.9,3.3c-1.9,0.8-3.5,1.9-4.3,3.8c-1.2,2.6-1.1,6.4,1,8.6c1.7,1.8,4,2.6,6.8,2.6c1.4,0,2.7-0.2,3.8-0.7
				c1.1-0.4,2.1-1.1,2.9-2v2.4h5.7V18.6C43.3,13.8,41.1,8.7,33.7,8.3z M37.2,25.8c-0.1,1.6-0.7,2.8-2.3,3.8c-1.6,1.1-5.2,2-6.9-0.2
				c-1.1-1.4-0.5-2.7,0.5-3.4c1.2-0.8,6-2.3,8.7-3C37.2,24.2,37.3,24.6,37.2,25.8z"/>
			<path class="st1" d="M81.1,18.8c-0.1-5.4-4.5-9.8-10-9.8c-2.7,0-5.1,1.1-6.9,2.8C62.3,10,59.9,9,57.2,9c-5.5,0-9.9,4.4-10,9.8h0
				v16.9h6.3V18.9c0.1-2,1.7-3.6,3.7-3.6c2,0,3.7,1.7,3.7,3.7h0v16.7h3.2h3.2V19h0c0-2,1.7-3.7,3.7-3.7c2,0,3.6,1.6,3.7,3.6v16.8
				h6.3L81.1,18.8L81.1,18.8z"/>
			<path class="st1" d="M18.4,29.5c-0.2,0-1.3,0-1.9,0c-1.8,0-2.5-0.2-3.2-0.9c-1-1.1-0.9-2.2-0.9-4.2v-9.8h6V8.9h-6V2.1H6v6.8H0
				v5.6h6v11.6c0,3.8,0.8,5.4,2.4,7.2c1.6,1.8,4.1,2.6,7.5,2.6c0.3,0,2.5,0,2.6,0L18.4,29.5z"/>
		</g>
	</g>
</g>
</svg>
