<?xml version="1.0" encoding="utf-8"?>
<!-- Generator: Adobe Illustrator 22.1.0, SVG Export Plug-In . SVG Version: 6.00 Build 0)  -->
<svg version="1.1" xmlns="http://www.w3.org/2000/svg" xmlns:xlink="http://www.w3.org/1999/xlink" x="0px" y="0px"
	 viewBox="0 0 350 91" style="enable-background:new 0 0 350 91;" xml:space="preserve">
<style type="text/css">
	.st0{display:none;}
	.st1{fill:#69C4B4;}
</style>
<g id="Calque_2" class="st0">
	<image style="display:inline;overflow:visible;" width="350" height="91" xlink:href="slogan-icones.png" >
	</image>
</g>
<g id="Calque_1">
	<g>
		<g>
			<path class="st1" d="M344.9,37.3c-1-11.1-8.8-19.1-18.6-19.1c-6.5,0-12.5,3.5-15.9,9.1c-3.3-5.7-9.1-9.1-15.5-9.1
				c-9.8,0-17.6,8-18.6,19.1c-0.1,0.5-0.4,3.1,0.6,7.3c1.4,6,4.7,11.6,9.5,15.9l24,21.8l24.4-21.8c4.8-4.4,8.1-9.9,9.5-15.9
				C345.3,40.3,345,37.8,344.9,37.3z M341.8,43.9c-1.3,5.5-4.3,10.6-8.7,14.5l-22.6,20.2l-22.2-20.2c-4.4-4-7.4-9-8.7-14.6
				c-0.9-4-0.6-6.2-0.6-6.2l0-0.1c0.9-9.7,7.6-16.7,16-16.7c6.2,0,11.7,3.8,14.3,10l1.2,2.9l1.2-2.9c2.6-6,8.3-9.9,14.7-9.9
				c8.4,0,15.1,7,16,16.9C342.3,37.7,342.7,39.9,341.8,43.9z"/>
			<path class="st1" d="M297.4,26.2c-7.3,0-13.2,5.9-13.2,13.2c0,0.7,0.6,1.3,1.3,1.3c0.7,0,1.3-0.6,1.3-1.3
				c0-5.8,4.8-10.6,10.6-10.6c0.7,0,1.3-0.6,1.3-1.3C298.7,26.8,298.1,26.2,297.4,26.2z"/>
		</g>
	</g>
	<g>
		<g>
			<g>
				<path class="st1" d="M238,53.1h16.2c0.6,0,1.1-0.9,1.1-2s-0.5-2-1.1-2H238c-0.6,0-1.1,0.9-1.1,2C236.9,52.2,237.4,53.1,238,53.1
					z"/>
				<path class="st1" d="M238,43.6h16.2c0.6,0,1.1-0.9,1.1-2s-0.5-2-1.1-2H238c-0.6,0-1.1,0.9-1.1,2S237.4,43.6,238,43.6z"/>
			</g>
		</g>
	</g>
	<g>
		<g transform="translate(1 1)">
			<g>
				<g>
					<path class="st1" d="M74.1,41.1c0-1.6-1-2.9-2.3-3.3v-1.4c0-3.3-2.6-5.8-5.8-5.8H12.2c-3.3,0-5.8,2.6-5.8,5.8v1.4
						C5,38.3,4,39.6,4,41.1c0,1.6,1,2.9,2.4,3.3c0.1,1.9,0.3,3.8,0.7,5.7c0,0,0,0.1,0,0.1c2.7,12.6,12.6,22.5,25.2,25.2
						c0,0,0,0,0.1,0c2.2,0.5,4.4,0.7,6.7,0.7s4.5-0.2,6.7-0.7c0,0,0,0,0.1,0C58.4,72.8,68.3,62.9,71,50.3c0,0,0-0.1,0-0.1
						c0.4-1.8,0.6-3.7,0.7-5.7C73.1,44,74.1,42.7,74.1,41.1z M70.6,42.3h-7c-0.4,0-0.7-0.2-0.9-0.5c-0.2-0.2-0.2-0.5-0.2-0.7
						c0-0.1,0-0.2,0-0.3c0.2-0.4,0.7-0.8,1.2-0.8h6.9c0.7,0,1.2,0.5,1.2,1.2C71.7,41.8,71.3,42.3,70.6,42.3z M7.5,40h6.9
						c0.5,0,1.1,0.4,1.2,0.8c0,0.1,0,0.2,0,0.3c0,0.3,0,0.6-0.2,0.7c-0.2,0.3-0.5,0.4-0.8,0.5c0,0,0,0,0,0c0,0-0.1,0-0.1,0h-7
						c-0.7,0-1.2-0.5-1.2-1.2S6.8,40,7.5,40z M31.7,72.9C20.8,70.2,12.3,61.7,9.6,50.8c1.3-0.2,2.5-0.4,3.7-0.4
						c10.3,0,18.7,8.4,18.7,18.7C32,70.3,31.9,71.6,31.7,72.9z M33.9,73.4c0.3-1.4,0.4-2.9,0.4-4.2c0-11.6-9.5-21-21-21
						c-1.4,0-2.8,0.1-4.3,0.4c-0.2-1.3-0.4-2.6-0.4-3.9h5.8c1.4,0,2.5-0.7,3.1-1.8c0.4-0.6,0.5-1.5,0.4-2.3c0-0.2-0.1-0.4-0.2-0.7
						c-0.5-1.3-1.7-2.3-3.3-2.3h-0.1H8.7v-1.2c0-2,1.5-3.5,3.5-3.5h2.3v2.3c0,0.7,0.5,1.2,1.2,1.2c0.7,0,1.2-0.5,1.2-1.2V33h3.5v2.3
						c0,0.7,0.5,1.2,1.2,1.2c0.7,0,1.2-0.5,1.2-1.2V33h3.5v2.3c0,0.7,0.5,1.2,1.2,1.2s1.2-0.5,1.2-1.2V33H32v2.3
						c0,0.7,0.5,1.2,1.2,1.2c0.7,0,1.2-0.5,1.2-1.2V33h3.5v2.3c0,0.7,0.5,1.2,1.2,1.2c0.7,0,1.2-0.5,1.2-1.2V33h3.5v2.3
						c0,0.7,0.5,1.2,1.2,1.2c0.7,0,1.2-0.5,1.2-1.2V33h3.5v2.3c0,0.7,0.5,1.2,1.2,1.2c0.7,0,1.2-0.5,1.2-1.2V33h3.5v2.3
						c0,0.7,0.5,1.2,1.2,1.2c0.7,0,1.2-0.5,1.2-1.2V33h3.5v2.3c0,0.7,0.5,1.2,1.2,1.2s1.2-0.5,1.2-1.2V33h2.3c2,0,3.5,1.5,3.5,3.5
						v1.2h-5.7h-0.1c-1.3,0-2.3,0.6-2.9,1.5c-0.3,0.4-0.5,0.9-0.6,1.4c-0.1,0.4,0,0.9,0.1,1.4c0.3,1.6,1.7,2.7,3.4,2.7h5.8
						c0,1.3-0.2,2.6-0.4,3.9c-1.5-0.3-2.9-0.4-4.3-0.4c-11.6,0-21,9.5-21,21c0,1.4,0.1,2.8,0.4,4.2c-1.7,0.3-3.4,0.4-5.1,0.4
						C37.3,73.8,35.6,73.7,33.9,73.4z M46,69.2c0-10.3,8.4-18.7,18.7-18.7c1.3,0,2.5,0.1,3.7,0.4c-2.7,10.9-11.2,19.4-22.1,22.1
						C46.2,71.6,46,70.5,46,69.2z"/>
					<path class="st1" d="M65.5,15.1l3.5-3.5V10l-3.5-3.5h-1.6L60.4,10v1.6l3.5,3.5C63.9,15.1,65.5,15.1,65.5,15.1z M64.7,8.9
						l1.9,1.9l-1.9,1.9l-1.9-1.9L64.7,8.9z"/>
					<path class="st1" d="M23.8,16.6c2,0,3.5,1.5,3.5,3.5c0,0.7,0.5,1.2,1.2,1.2s1.2-0.5,1.2-1.2c0-2,1.5-3.5,3.5-3.5
						c0.7,0,1.2-0.5,1.2-1.2c0-0.7-0.5-1.2-1.2-1.2c-2,0-3.5-1.5-3.5-3.5c0-0.7-0.5-1.2-1.2-1.2s-1.2,0.5-1.2,1.2
						c0,2-1.5,3.5-3.5,3.5c-0.7,0-1.2,0.5-1.2,1.2C22.7,16.2,23.1,16.6,23.8,16.6z M28.5,14.3c0.4,0.5,0.7,0.8,1.2,1.2
						c-0.5,0.4-0.8,0.7-1.2,1.2c-0.4-0.5-0.7-0.8-1.2-1.2C27.8,15.1,28.2,14.8,28.5,14.3z"/>
					<path class="st1" d="M49.5,22.5h1.2v1.2c0,0.7,0.5,1.2,1.2,1.2c0.7,0,1.2-0.5,1.2-1.2v-1.2h1.2c0.7,0,1.2-0.5,1.2-1.2
						s-0.5-1.2-1.2-1.2H53V19c0-0.7-0.5-1.2-1.2-1.2c-0.7,0-1.2,0.5-1.2,1.2v1.2h-1.2c-0.7,0-1.2,0.5-1.2,1.2S48.8,22.5,49.5,22.5z"
						/>
					<path class="st1" d="M18,24.8c0.7,0,1.2-0.5,1.2-1.2c0-0.7-0.5-1.2-1.2-1.2s-1.2,0.5-1.2,1.2S17.3,24.8,18,24.8z"/>
					<path class="st1" d="M8.7,13.1c0.7,0,1.2-0.5,1.2-1.2s-0.5-1.2-1.2-1.2S7.5,11.3,7.5,12S8,13.1,8.7,13.1z"/>
				</g>
			</g>
		</g>
	</g>
	<g>
		<g>
			<g>
				<path class="st1" d="M209.4,26.3l-32.6-15.7c-0.3-0.1-0.6-0.1-0.9,0l-32.6,15.7c-0.4,0.2-0.6,0.5-0.6,0.9v38.2
					c0,0.4,0.2,0.8,0.6,0.9l32.6,15.7c0.1,0.1,0.3,0.1,0.5,0.1s0.3,0,0.5-0.1l32.6-15.7c0.4-0.2,0.6-0.5,0.6-0.9V27.2
					C210,26.8,209.7,26.5,209.4,26.3z M176.3,12.7l30.2,14.6l-8.7,4.2c-0.1,0-0.1-0.1-0.2-0.1l-30-14.5L176.3,12.7z M165.2,18.1
					l30.1,14.5l-6.2,3L159.1,21L165.2,18.1z M196.1,34.6v11l-5.8,2.8v-11L196.1,34.6z M207.9,64.8l-30.5,14.7V43.6l7.3-3.5
					c0.5-0.3,0.7-0.9,0.5-1.4c-0.3-0.5-0.9-0.7-1.4-0.5l-7.4,3.6l-2.9-1.4c-0.5-0.3-1.2,0-1.4,0.5c-0.3,0.5,0,1.2,0.5,1.4l2.8,1.3
					v35.9l-30.5-14.7V28.9L168,40.1c0.1,0.1,0.3,0.1,0.5,0.1c0.4,0,0.8-0.2,0.9-0.6c0.3-0.5,0-1.2-0.5-1.4l-22.8-11l10.4-5
					l31.6,15.2c0,0,0,0,0,0v12.6c0,0.4,0.2,0.7,0.5,0.9c0.2,0.1,0.4,0.2,0.6,0.2c0.2,0,0.3,0,0.5-0.1l7.9-3.8
					c0.4-0.2,0.6-0.5,0.6-0.9V33.6l9.7-4.7V64.8L207.9,64.8z"/>
			</g>
		</g>
		<g>
			<g>
				<path class="st1" d="M153.5,60.7l-4.8-2.3c-0.5-0.3-1.2,0-1.4,0.5s0,1.2,0.5,1.4l4.8,2.3c0.1,0.1,0.3,0.1,0.5,0.1
					c0.4,0,0.8-0.2,0.9-0.6C154.2,61.6,154,60.9,153.5,60.7z"/>
			</g>
		</g>
		<g>
			<g>
				<path class="st1" d="M157.9,57.8l-9.2-4.4c-0.5-0.3-1.2,0-1.4,0.5c-0.3,0.5,0,1.2,0.5,1.4l9.2,4.4c0.1,0.1,0.3,0.1,0.5,0.1
					c0.4,0,0.8-0.2,0.9-0.6C158.6,58.7,158.4,58.1,157.9,57.8z"/>
			</g>
		</g>
	</g>
	<g>
		<g>
			<g>
				<path class="st1" d="M115.8,44.9h-7.5v-7.5c0-0.3-0.5-1.1-1.4-1.1s-1.4,0.7-1.4,1.1v7.5h-7.5c-0.3,0-1.1,0.5-1.1,1.4
					c0,0.9,0.7,1.4,1.1,1.4h7.5v7.5c0,0.3,0.5,1.1,1.4,1.1c0.9,0,1.4-0.7,1.4-1.1v-7.5h7.5c0.3,0,1.1-0.5,1.1-1.4
					C116.9,45.4,116.2,44.9,115.8,44.9z"/>
			</g>
		</g>
	</g>
</g>
</svg>
