<?xml version="1.0" encoding="utf-8"?>
<!-- Generator: Adobe Illustrator 26.5.0, SVG Export Plug-In . SVG Version: 6.00 Build 0)  -->
<svg version="1.1" id="mon_compte" xmlns="http://www.w3.org/2000/svg" xmlns:xlink="http://www.w3.org/1999/xlink" x="0px" y="0px"
	 viewBox="0 0 94.5 94.5" style="enable-background:new 0 0 94.5 94.5;" xml:space="preserve">
<style type="text/css">
	.st0{fill:#F0D7CD;}
	.st1{fill:#E4AE93;}
	.st2{fill:#FFFFFF;}
</style>
<g id="Calque_2_2_">
	<g id="Calque_2-2_2_">
		<path class="st0" d="M7.4,73.6c-10.9-21.2-3.7-57.2,18-68.2c15.6-8,48.3-2.5,59.5,13.2C115.7,61.9,36.9,124.7,7.4,73.6"/>
	</g>
</g>
<g id="Calque_2_1_">
	<g id="Calque_2-2">
		<g id="Calque_2_3_">
			<g id="Calque_2-2_1_">
				<path class="st1" d="M85.1,70.4c-14.5,18-49.2,25.8-67.5,10.9C4.3,70.6-3.7,39.5,5.8,23.4C32-20.9,118.7,24.1,85.1,70.4"/>
			</g>
		</g>
	</g>
</g>
<g>
	<path class="st2" d="M68.4,62.3c-5.5-5.3-16.2-5-20.4-5c-0.4,0-0.6,0-1,0c-0.2,0-0.4,0-0.6,0c-3.6,0-14.9-0.2-20.6,5.3
		c-2,2-3.2,4.6-3.2,7.7c0,0.8,0.6,1.6,1.6,1.6c0.8,0,1.6-0.6,1.6-1.6c0-2.2,0.8-4,2.2-5.7c3-3,9.3-4.4,18.4-4.2c0.2,0,0.6,0,0.8,0
		s0.6,0,1,0c3.6,0,13.7-0.2,18.2,4.2c1.6,1.4,2.2,3.4,2.2,5.7c0,0.8,0.6,1.6,1.6,1.6c0.8,0,1.6-0.6,1.6-1.6
		C71.7,67.1,70.7,64.5,68.4,62.3"/>
	<path class="st2" d="M47.2,25.9c7.3,0,13.1,5.9,13.1,13.1s-5.9,13.1-13.1,13.1s-13.1-5.9-13.1-13.1C34.1,32,40,25.9,47.2,25.9
		 M47.2,55.4c8.9,0,16.4-7.3,16.4-16.4c0-8.9-7.3-16.4-16.4-16.4S30.9,30,30.9,39.1S38.3,55.4,47.2,55.4"/>
</g>
</svg>
