<?xml version="1.0" encoding="utf-8"?>
<!-- Generator: Adobe Illustrator 26.3.1, SVG Export Plug-In . SVG Version: 6.00 Build 0)  -->
<svg version="1.1" id="Calque_1" xmlns="http://www.w3.org/2000/svg" xmlns:xlink="http://www.w3.org/1999/xlink" x="0px" y="0px"
	 viewBox="0 0 99.3 91" style="enable-background:new 0 0 99.3 91;" xml:space="preserve">
<style type="text/css">
	.st0{fill:#FFFFFF;}
</style>
<g>
	<path class="st0" d="M40.9,29.3c0.5-1.2,1.3-2.3,2.2-3.2c2-1.8,4.7-2.7,7.4-2.5c1.5,0,3,0.7,4.2,1.7c0.7,0.5,1.2,0.8,1.8,1.5
		c0.5,0.7,1,1.3,1.3,2.2c0.7,1.5,0.8,3.3,0.7,5c-0.3,1.8-1,3.5-1.8,5c0.8,0.2,1.7,0.7,2.3,1.2c0.3,0.3,0.5,0.7,0.5,1
		c0,0.2,0,0.2,0,0.3c0,0.3,0.2,0-0.2,0.3C59.2,42,58.8,42,58.7,42c-0.5,0-0.8,0-1.3-0.2l-1.7-0.3c-1.2-0.2-2.2-0.3-3.3-0.3
		c-2.2-0.2-4.5-0.3-6.7-0.3s-4.2,0.3-6.4,0.3c-0.7,0-2-0.7-1.3-1.5s2-1,3-1.3c-0.3-0.8-0.7-1.7-1-2.5l-0.2-0.5 M49.8,25.8
		c-1.3,0.2-2.5,0.5-3.5,1.3c-0.8,0.7-1.7,1.5-2.2,2.5c-1.2,2-1.5,4.3-0.7,6.5c0.2,0.5,0.5,1,0.8,1.3c0.7,0.3,1.5,0.3,2.2,0.3
		c1.8,0.2,3.7,0.3,5.4,0.5c0.7,0.2,1.3,0.2,2-0.2c0.5-0.5,1-1,1.3-1.7c0.7-1.3,1.2-2.8,1.2-4.3c0.2-1.5-0.3-3-1.3-4.2
		C53.5,26.7,51.6,25.8,49.8,25.8"/>
	<path class="st0" d="M55.7,19.1c-4-0.3-7.4-3.5-8-7.5c-0.5-3.7,0.3-7.2,3.7-9.4c3.5-2.2,7.9-2,11.2,0.3c1.7,1.2,2.7,2.8,3.2,4.7
		c0.7,2,0.7,4,0,6c-0.8,1.7-2.2,3.2-3.8,4.2C61,18,60,18.5,59,18.8c-0.5,0.2-1.2,0.3-1.7,0.5C57,19.3,56.3,19.3,55.7,19.1
		 M56.7,16.6c2.8,0.2,5.5-1.5,6.5-4.2c0.5-1.5,0.5-3.2,0-4.8c-0.3-1.3-1.2-2.5-2.3-3.3c-2.3-1.2-6-1.8-8,0.2
		c-5.7,5.7-0.3,10.5,0.5,11.2C54.3,16.3,55.5,16.6,56.7,16.6"/>
	<path class="st0" d="M48.5,30.7c0.3-0.5,0.7-0.7,1.2-0.8c0.5,0,1,0,1.3-0.2c1.2-0.8-1-1.5-1.7-1.5c-2.3,0-4,2.8-3.8,4.8
		c0,2,1.7,3.7,3.7,3.7h0.2c0.7,0,2.3-0.5,1.8-1.5c-0.5-1-2.2,0-3-0.5c-0.3-0.2-0.7-0.8-0.3-1.2c0.3-0.3,1-0.3,1.2-0.5
		c0.3-0.2,0.5-0.7,0.5-1c0-0.3-0.2-0.7-0.3-0.7L48.5,30.7"/>
	<path class="st0" d="M59.5,7.6c-0.3-0.3-0.7-0.5-1-0.8c-0.3-0.2-0.8-0.2-1.2-0.2c-0.8,0-1.7,0.3-2.2,1c-1,1-1.3,2.5-1,4
		c0.3,1.7,2,2.8,3.8,2.5c0.5,0,0.8-0.3,1.2-0.7c0.2-0.3,0-0.7-0.3-0.8s-2,0-2.3-0.7s1-0.7,1.3-1.2c0.5-1-0.5-1.8-1-2.3L59.5,7.6"/>
	<path class="st0" d="M48.5,30.7c0.3,0.2,1.2,0.5,1.3,0.8c0.2,0.5,0,0.8-0.3,1.2c-0.3,0.2-0.7,0.3-1,0.5c-0.2,0-0.5,0.2-0.5,0.2
		s0,0.5,0.2,0.7c0.5,1,1.8,0.3,2.7,0.5c1.3,0.3,0.3,1.5-0.5,1.8c-2,0.5-4-0.7-4.5-2.5v-0.2c-0.5-2.2,0.7-4.3,2.7-5.4
		c0.7-0.3,1.5-0.3,2.2,0c0.3,0.2,1,0.5,0.7,1c-0.3,0.5-0.8,0.5-1.3,0.5C49.3,29.8,48.8,30,48.5,30.7"/>
	<path class="st0" d="M59.5,7.6l-3,0.7c0.5,0.7,1.3,1.2,1.2,2c-0.2,0.8-0.8,0.7-1.3,1c-0.8,0.7,0.8,1,1.3,1c0.5,0,1,0,1.3,0.3
		c0.2,0.3,0.2,0.7-0.2,0.8l0,0c-0.8,0.5-2,0.7-2.8,0.2c-0.7-0.3-1.2-1-1.5-1.7c-0.7-1.3-0.5-2.8,0.3-4C55.3,7.1,56,6.6,57,6.4
		c0.5-0.2,1-0.2,1.5,0C58.7,6.9,59.2,7.3,59.5,7.6"/>
	<path class="st0" d="M39.6,35c-0.5-0.2-1-0.2-1.3,0c-1.7,0.3-3.2,0.8-4.7,1.7c-2.5,1.3-4.8,3.2-6.5,5.5c-2,2.8-3.7,5.9-5,9.2
		c-1.5,3.3-2,7-1.3,10.5c0.8,3.3,2.2,6.4,4.2,9.2c0.5,0.7,2.7,3.7,3.3,3.2c0.3-0.3,0.3-0.8,0.7-1.2c0.3-0.3,0-0.2,0.3-0.2
		c0.2,0,0.3,0,0.5,0c0.5,0,0.8,0.2,1.2,0.5c0.2,0.3,0.3,0.8,0.2,1.2c-0.2,0.8-0.5,1.7-0.7,2.3c-0.5,1.8-0.8,3.8-0.8,5.9
		c0,0.8-0.2,1.7-0.2,2.5c0,0.3,0,0.7,0,1.2c0,0.3,0,0.5,0,0.7v0.5h0.2c0.8,0,1.5,0,2.3-0.2l2.8-0.3c0.5,0,1-0.2,1.3-0.5
		c0.3-0.8,0.5-1.7,0.7-2.5c0.7-2,1.3-3.8,2.2-5.7c0.3-0.8,0.8-1.7,1.5-2.3c0,0,0.3-0.3,0.5-0.3c0.2,0,0.3,0.3,0.5,0.3
		c0.2,0.2,0.3,0.3,0.5,0.7c0.2,0.5,0,1-0.2,1.3c-0.3,1-0.7,2.2-1.2,3.2c2.5,0.7,5,0.8,7.7,0.3c3.2-0.2,6.4-0.7,9.5-1.5
		c1.3-0.3,2.5-0.7,3.7-1.3c0.2,0,0.5-0.2,0.7-0.3c0.2-0.2,0-1.2,0-1.5c0-0.5,0.5-1,1-1c0.2,0,0.3,0,0.5,0.2c0.7,0.3,1,1.8,1.3,2.5
		c0.5,1,0.8,2.2,1,3.2c0.3,1.2,0.5,2.2,0.8,3.3c0.2,0.5,0.3,1,0.8,1.2c0.8,0.2,1.7,0.2,2.5,0c1,0.2,2.2,0.2,3.2,0c0.5,0,1-0.5,1-1
		c0-1,0-2.2-0.3-3.2c-0.2-1.3-0.3-2.5-0.5-3.7c0-0.5-0.2-1.2-0.3-1.7c-0.2-0.5-0.3-1-0.7-1.5c-0.3-0.8-0.8-1.8-0.3-2.7
		s1.7-0.3,2,0.3s0.5,0.8,0.8,1.3c0.2,0.2,0.2,0.5,0.3,0.7c0.2,0.2,0.5,0,0.8,0c0.8-0.3,1.7-0.7,2.5-1.3c1.7-1.3,3.2-2.8,4.3-4.5
		c0.7-0.8,1.3-1.7,2-2.5c0.3-0.5,0.5-0.8,0.8-1.3c0.2-0.5,0.5-1,0.8-1.3c0.8-0.7,2.3,0.3,3-0.5c0.2-0.5,0.3-1.2,0.3-1.7
		c0-1.2,0-2.3,0-3.5c0-1.2,0.2-2.2,0-3.2c0-0.7-0.3-0.8-1-0.8s-1.7,0-2.2-0.5c-0.7-0.7-1-1.7-1.3-2.5c-0.8-2-2-3.8-3.5-5.5
		c-0.7-0.8-1.5-1.5-2.3-2.2c-0.8,1-1.7,2-2.7,2.8c-0.3,0.3-0.7,0.8-1.3,0.7c-0.7-0.2-1.2-0.2-1.5-0.5c-0.5-0.8,0.8-2,1.3-2.3
		c0.8-1,1.5-2,2.2-3.2c1.5-2.2,2.5-4.7,3-7.2c0.3-1.2,0.3-2.5,0-3.7c-0.2-0.3,0-0.7-0.5-0.5c-0.3,0-0.5,0.2-0.8,0.2
		c-0.5,0.2-1,0.5-1.5,0.8c-3.8,2.7-6.7,6.7-8.2,11c-0.3,0.8-0.3,2.5-1.7,2.8s-1.5-0.7-1.3-1.7c0.2-1.3,0.5-2.7,0.8-3.8
		c0-0.3,0.2-0.3,0-0.3s-0.3-0.2-0.5-0.2l-0.2-1c-0.7-0.2-1.5-0.3-2.2-0.5c-1.3-0.3-2.7-0.5-4-0.7c-0.5,0-0.8-0.2-1.2-0.5
		c-0.3-0.5-0.3-1-0.2-1.5c0.5-1,2.5-0.5,3.3-0.3c1.5,0.3,2.8,0.7,4.2,1.2l2,0.5c0.2,0,0.3,0.2,0.5,0.2c0.3,0,0,0.2,0.3-0.2
		c0.2-0.3,0.5-0.5,0.7-0.8c0.8-1,1.5-2.2,2.3-3.2c1.7-1.7,3.5-3.2,5.5-4.2c1.2-0.7,4.8-2.8,5.5-0.5c0.2,0.5,0.2,1.2,0.2,1.7
		c0.2,0.7,0.2,1.5,0.2,2.2c0,1.5-0.5,2.8-0.5,4.2c-0.2,1.3-0.3,2.5-0.8,3.7c-0.3,0.5-0.5,1.2-0.8,1.7l-0.3,0.8
		c0,0.2-0.2,0.3-0.2,0.5s0.3,0.3,0.5,0.3c1,0.8,2.2,1.3,3,2.2c0.8,0.7,1.5,1.7,2.2,2.5c0.7,1,1.2,2,1.7,2.8c0.5,0.8,0.7,2,1.8,1.8
		c0.8-0.2,2-0.3,2.3,0.7c0,0.7,0,1.2,0,1.8v2.2c0,1.5,0,3,0,4.3c0,0.7,0,1.3,0,2.2c0,0.5,0,1.2-0.2,1.7c-0.2,0.3-0.7,0.5-1,0.7
		c-0.5,0.2-1,0.2-1.5,0.2c-0.8,0.2-1.5,0.7-2,1.3c-0.7,1-1.2,2-1.8,3c-0.8,1-1.7,2-2.5,2.8c-1.7,1.7-3.7,3-5.9,4
		c-0.3,0.2-1.5,0.3-1.5,0.7c0,0.3,0,0.7,0.2,0.8c0,0.3,0.2,0.8,0.2,1.3c0.2,1.3,0.3,2.8,0.3,4.2c0.2,1.2,0,2.3-0.3,3.3
		c-0.5,0.8-1.5,1.3-2.3,1.3c-1.5,0.2-2.8,0.3-4.3,0.3c-1.2,0.2-2.3,0-3.5-0.2c-2-0.2-2.3-2.2-2.7-3.8c-0.2-0.7-0.3-1.2-0.5-1.8
		c0-0.3-0.2-0.5-0.5-0.5s-0.7,0-1,0.2l-4,1c-1.5,0.3-2.8,0.7-4.3,1c-1.2,0.2-2.5,0.2-3.8,0.2c-2.8,0-5.9,0.2-8.7,0.2
		c-0.8,0-1.3,0.2-1.5,1c-0.2,0.5-0.3,1.2-0.3,1.7s-0.2,0.8-0.3,1.3c-0.7,0.7-2.2,0.7-3,0.8L31.6,90c-1.2,0.3-2.5,0.3-3.8,0
		c-1-0.3-1-1.3-1-2.3c-0.5-2.8-0.3-5.7,0.2-8.5c0.2-0.7,0.3-1.3,0.5-2c0-0.5-0.7-0.8-1-1.2c-1-0.7-1.8-1.5-2.5-2.3
		c-3.3-4-5.4-8.9-5.9-13.9c0-0.3,0-0.7-0.2-1c0-0.2,0-0.3,0-0.5c-0.2,0-0.3,0-0.5,0c-0.7,0-1.3,0.2-1.8,0.3c-1.3,0.2-2.7,0-4-0.2
		c-2-0.3-3.7-1.5-4.7-3.2c-0.7-1.5-0.7-3.3,0.3-4.8c1.2-2,3.5-3,5.7-2.3c1.2,0.2,2,0.8,2.8,1.7c0.3,1,0.3,2-0.3,2.8
		c-0.5-0.2-1.2-0.3-1.7-0.7c-0.5-0.3-0.7-1-1.3-1.2c-1.3-0.3-2.5,0.3-3,1.7c-0.3,1.2,0,2.5,1.2,2.7c1.7,0.3,3.5,0.5,5.4,0.7h1
		c0.3,0,0.8,0,1.2,0c0.2-0.2,0.3-1,0.3-1.3l0.3-1.3c0.5-1.7,0.8-3.3,1.5-5c1.2-2.8,2.8-5.4,5-7.5c1.8-2.2,4-4,6.5-5.5
		c1.2-0.7,2.5-1.3,3.8-1.7c1.3-0.2,2.5-0.5,3.7-0.8c0.8-1,1.5-2,1.8-3.2c0.7-2-0.8,5.5-0.8,5.5L39.6,35z"/>
	<path class="st0" d="M80.9,53.2c0,0.8-0.7,2-1.7,1.8c-1-0.2-1.7-1-1.7-2c0-0.2,0-0.2,0-0.3c0.3-0.8,1.3-1.3,2.2-1
		C80.4,52.2,80.9,52.7,80.9,53.2"/>
</g>
</svg>
