<?xml version="1.0" encoding="utf-8"?>
<!-- Generator: Adobe Illustrator 26.3.1, SVG Export Plug-In . SVG Version: 6.00 Build 0)  -->
<svg version="1.1" id="Calque_1" xmlns="http://www.w3.org/2000/svg" xmlns:xlink="http://www.w3.org/1999/xlink" x="0px" y="0px"
	 viewBox="0 0 672.5 111.6" style="enable-background:new 0 0 672.5 111.6;" xml:space="preserve">
<style type="text/css">
	.st0{fill:#666666;}
	.st1{fill:#555555;}
	.st2{fill:#94C5C4;}
	.st3{fill:none;stroke:#94C5C4;stroke-width:3;stroke-miterlimit:10;}
</style>
<g>
	<g>
		<path class="st0" d="M31.1,94.6c0,2.2-1.7,4.1-4.4,4.1c-3,0-4.7-2.2-4.7-6.1c0-3.1,1.3-6.7,5.1-6.7c1.5,0,3,0.6,3.9,2.5l-1.7,0.7
			c-0.5-1.1-1.3-1.5-2.2-1.5c-1.8,0-3.2,1.9-3.1,4.3c0.6-0.8,1.6-1.5,2.9-1.5C29.4,90.5,31.1,92.4,31.1,94.6z M29.2,94.6
			c0-1.3-1-2.3-2.4-2.4c-1.5,0-2.6,1-2.7,2.3c0,1.4,1.1,2.5,2.5,2.5C28.1,97,29.2,95.9,29.2,94.6z"/>
		<path class="st0" d="M47.6,94.1c0,2.8-2,4.7-4.4,4.7c-1.2,0-2.5-0.6-3.1-1.6v1.3h-1.9V84.8h1.9v6.1c0.6-1,1.8-1.5,3.1-1.5
			C45.6,89.4,47.6,91.2,47.6,94.1z M45.7,94c0-1.7-1.2-2.9-2.8-2.9c-1.4,0-2.8,1.1-2.8,2.9c0,1.8,1.3,2.9,2.8,2.9
			C44.5,97,45.7,95.7,45.7,94z"/>
		<path class="st0" d="M49.2,94.1c0-2.8,2.1-4.7,4.7-4.7s4.7,1.8,4.7,4.7s-2.1,4.7-4.7,4.7S49.2,96.9,49.2,94.1z M56.7,94.1
			c0-1.7-1.3-2.9-2.8-2.9s-2.8,1.2-2.8,2.9c0,1.7,1.3,2.9,2.8,2.9S56.7,95.8,56.7,94.1z"/>
		<path class="st0" d="M68.3,98.5H66l-2.4-3.3l-2.4,3.3h-2.2l3.5-4.9l-2.9-4h2.3l1.7,2.5l1.7-2.5h2.2l-2.9,4L68.3,98.5z"/>
	</g>
	<g>
		<path class="st0" d="M161.5,85.9L161.5,85.9l0.1,12.6h-1.9v-9.9l-2.7,1.1v-1.8L161.5,85.9z"/>
		<path class="st0" d="M167.4,96.7h4.9v1.8h-8v-0.9L169,92c0.7-0.9,1.2-1.8,1.2-2.4c0-1.2-0.8-1.9-2.1-1.9c-1.3,0-2.1,0.7-2.2,1.9
			l-1.7-0.3c0.2-2,1.7-3.3,3.9-3.3c2.4,0,4,1.5,4,3.7c0,1-0.6,2.3-1.4,3.2L167.4,96.7z"/>
		<path class="st0" d="M188.7,94.1c0,2.8-2,4.7-4.4,4.7c-1.2,0-2.5-0.6-3.1-1.6v1.3h-1.9V84.8h1.9v6.1c0.6-1,1.8-1.5,3.1-1.5
			C186.7,89.4,188.7,91.2,188.7,94.1z M186.9,94c0-1.7-1.2-2.9-2.8-2.9c-1.4,0-2.8,1.1-2.8,2.9c0,1.8,1.3,2.9,2.8,2.9
			C185.6,97,186.9,95.7,186.9,94z"/>
		<path class="st0" d="M190.4,94.1c0-2.8,2.1-4.7,4.7-4.7s4.7,1.8,4.7,4.7s-2.1,4.7-4.7,4.7S190.4,96.9,190.4,94.1z M197.8,94.1
			c0-1.7-1.3-2.9-2.8-2.9s-2.8,1.2-2.8,2.9c0,1.7,1.3,2.9,2.8,2.9S197.8,95.8,197.8,94.1z"/>
		<path class="st0" d="M209.4,98.5h-2.2l-2.4-3.3l-2.4,3.3h-2.2l3.5-4.9l-2.9-4h2.3l1.7,2.5l1.7-2.5h2.2l-2.9,4L209.4,98.5z"/>
	</g>
	<g>
		<path class="st0" d="M304.5,85.9L304.5,85.9l0.1,12.6h-1.9v-9.9l-2.7,1.1v-1.8L304.5,85.9z"/>
		<path class="st0" d="M316.7,94.8c0,2.3-2,3.9-4.7,3.9c-2.7,0-4.7-1.6-4.7-3.9c0-1.6,0.9-2.9,2.4-3.5c-0.8-0.5-1.3-1.3-1.3-2.3
			c0-1.8,1.5-3.1,3.6-3.1c2.1,0,3.6,1.3,3.6,3.1c0,1.1-0.5,1.9-1.3,2.3C315.8,91.9,316.7,93.2,316.7,94.8z M314.7,94.7
			c0-1.4-1.2-2.4-2.7-2.4c-1.5,0-2.8,1-2.8,2.4c0,1.3,1.2,2.3,2.8,2.3C313.6,97,314.7,96,314.7,94.7z M310.3,89.2
			c0,0.9,0.7,1.5,1.7,1.5c1,0,1.7-0.7,1.7-1.5c0-0.9-0.7-1.6-1.7-1.6C311,87.6,310.3,88.3,310.3,89.2z"/>
		<path class="st0" d="M333,94.1c0,2.8-2,4.7-4.4,4.7c-1.2,0-2.5-0.6-3.1-1.6v1.3h-1.9V84.8h1.9v6.1c0.6-1,1.8-1.5,3.1-1.5
			C331.1,89.4,333,91.2,333,94.1z M331.2,94c0-1.7-1.2-2.9-2.8-2.9c-1.4,0-2.8,1.1-2.8,2.9c0,1.8,1.3,2.9,2.8,2.9
			C329.9,97,331.2,95.7,331.2,94z"/>
		<path class="st0" d="M334.7,94.1c0-2.8,2.1-4.7,4.7-4.7s4.7,1.8,4.7,4.7s-2.1,4.7-4.7,4.7S334.7,96.9,334.7,94.1z M342.1,94.1
			c0-1.7-1.3-2.9-2.8-2.9s-2.8,1.2-2.8,2.9c0,1.7,1.3,2.9,2.8,2.9S342.1,95.8,342.1,94.1z"/>
		<path class="st0" d="M353.8,98.5h-2.2l-2.4-3.3l-2.4,3.3h-2.2l3.5-4.9l-2.9-4h2.3l1.7,2.5l1.7-2.5h2.2l-2.9,4L353.8,98.5z"/>
	</g>
	<g>
		<path class="st0" d="M448.8,96.7h4.9v1.8h-8v-0.9l4.7-5.7c0.7-0.9,1.2-1.8,1.2-2.4c0-1.2-0.8-1.9-2.1-1.9c-1.3,0-2.1,0.7-2.2,1.9
			l-1.7-0.3c0.2-2,1.7-3.3,3.9-3.3c2.4,0,4,1.5,4,3.7c0,1-0.6,2.3-1.4,3.2L448.8,96.7z"/>
		<path class="st0" d="M464.8,94.2V96H463v2.5h-1.9V96h-6.2v-0.5l7.6-9.4h0.5v8.2H464.8z M457.9,94.2h3.2v-3.9L457.9,94.2z"/>
		<path class="st0" d="M481.1,94.1c0,2.8-2,4.7-4.4,4.7c-1.2,0-2.5-0.6-3.1-1.6v1.3h-1.9V84.8h1.9v6.1c0.6-1,1.8-1.5,3.1-1.5
			C479.1,89.4,481.1,91.2,481.1,94.1z M479.2,94c0-1.7-1.2-2.9-2.8-2.9c-1.4,0-2.8,1.1-2.8,2.9c0,1.8,1.3,2.9,2.8,2.9
			C478,97,479.2,95.7,479.2,94z"/>
		<path class="st0" d="M482.7,94.1c0-2.8,2.1-4.7,4.7-4.7c2.5,0,4.7,1.8,4.7,4.7s-2.1,4.7-4.7,4.7C484.8,98.7,482.7,96.9,482.7,94.1
			z M490.2,94.1c0-1.7-1.3-2.9-2.8-2.9s-2.8,1.2-2.8,2.9c0,1.7,1.3,2.9,2.8,2.9S490.2,95.8,490.2,94.1z"/>
		<path class="st0" d="M501.8,98.5h-2.2l-2.4-3.3l-2.4,3.3h-2.2l3.5-4.9l-2.9-4h2.3l1.7,2.5l1.7-2.5h2.2l-2.9,4L501.8,98.5z"/>
	</g>
	<g>
		<path class="st0" d="M602.3,94.9c0,2.3-1.8,3.9-4.4,3.9c-1.8,0-3.3-0.9-4-2.5l1.5-0.9c0.6,1,1.5,1.7,2.5,1.7
			c1.5,0,2.5-0.9,2.5-2.1c0-1.3-1.1-2.2-2.5-2.2h-1.3v-1.5h1.1c1.3,0,2.1-0.8,2.1-1.8c0-1-0.8-1.6-1.9-1.6c-0.8,0-1.7,0.4-2.2,1.1
			l-1.2-1.1c0.7-1.1,2-1.8,3.5-1.8c2.2,0,3.7,1.3,3.7,3.3c0,1.1-0.6,2.1-1.6,2.6C601.4,92.3,602.3,93.4,602.3,94.9z"/>
		<path class="st0" d="M604.3,92.3c0-3.6,0.9-6.4,4.5-6.4c3.6,0,4.5,2.8,4.5,6.4c0,3.5-0.9,6.4-4.5,6.4
			C605.3,98.7,604.3,95.8,604.3,92.3z M611.5,92.3c0-2.5-0.5-4.6-2.6-4.6c-2.1,0-2.7,2.1-2.7,4.6c0,2.5,0.6,4.7,2.7,4.7
			C610.9,97,611.5,94.8,611.5,92.3z"/>
		<path class="st0" d="M629.9,94.1c0,2.8-2,4.7-4.4,4.7c-1.2,0-2.5-0.6-3.1-1.6v1.3h-1.9V84.8h1.9v6.1c0.6-1,1.8-1.5,3.1-1.5
			C627.9,89.4,629.9,91.2,629.9,94.1z M628,94c0-1.7-1.2-2.9-2.8-2.9c-1.4,0-2.8,1.1-2.8,2.9c0,1.8,1.3,2.9,2.8,2.9
			C626.8,97,628,95.7,628,94z"/>
		<path class="st0" d="M631.5,94.1c0-2.8,2.1-4.7,4.7-4.7c2.5,0,4.7,1.8,4.7,4.7s-2.1,4.7-4.7,4.7C633.7,98.7,631.5,96.9,631.5,94.1
			z M639,94.1c0-1.7-1.3-2.9-2.8-2.9c-1.5,0-2.8,1.2-2.8,2.9c0,1.7,1.3,2.9,2.8,2.9C637.7,97,639,95.8,639,94.1z"/>
		<path class="st0" d="M650.6,98.5h-2.2l-2.4-3.3l-2.4,3.3h-2.2l3.5-4.9l-2.9-4h2.3l1.7,2.5l1.7-2.5h2.2l-2.9,4L650.6,98.5z"/>
	</g>
	<g>
		<path class="st1" d="M40.6,25.6c0,3.6-3.1,5.8-6.3,5.8c-2.2,0-4.7-1.2-5.7-3.1l2.7-1.9c0.5,1,1.9,1.7,2.8,1.7
			c1.7,0,2.9-1.1,2.9-2.5c0-1.4-1.1-2.4-2.7-2.4c-1.2,0-2.4,0.6-3.3,1.4L29,23.3l1.4-7.9h9.2v3.3h-6.2L32.8,21
			c0.7-0.5,1.7-0.7,2.7-0.7C38.5,20.3,40.6,22.6,40.6,25.6z"/>
		<path class="st1" d="M54.4,21.2v1.5H42.8v-1.5h2.5c1.1-3.5,4.2-5.9,8-5.9c3.1,0,5.7,1.4,7.1,3.6l-3.1,2c-0.8-1.3-2.2-2.1-4-2.1
			c-1.8,0-3.2,0.9-4,2.4H54.4z M60.5,27.6c-1.4,2.3-4,3.8-7.2,3.8c-3.9,0-7.1-2.6-8.1-6.1h-2.5v-1.6h11.6v1.6h-5.1
			c0.7,1.6,2.2,2.6,4,2.6c1.8,0,3.3-1,4.1-2.4L60.5,27.6z"/>
	</g>
	<g>
		<path class="st1" d="M168.7,15.2h0.3v16h-3.5V19.9l-3.8,1.4v-3.3L168.7,15.2z"/>
		<path class="st1" d="M172.1,23.3c0-4.5,1.3-8.1,5.9-8.1c4.6,0,5.9,3.6,5.9,8.1c0,4.5-1.3,8.1-5.9,8.1
			C173.4,31.5,172.1,27.8,172.1,23.3z M180.2,23.3c0-2.7-0.6-4.8-2.2-4.8c-1.7,0-2.3,2.1-2.3,4.8c0,2.7,0.6,4.8,2.3,4.8
			C179.7,28.2,180.2,26,180.2,23.3z"/>
		<path class="st1" d="M197.8,21.2v1.5h-11.6v-1.5h2.5c1.1-3.5,4.2-5.9,8-5.9c3.1,0,5.7,1.4,7.1,3.6l-3.1,2c-0.8-1.3-2.2-2.1-4-2.1
			c-1.8,0-3.2,0.9-4,2.4H197.8z M203.9,27.6c-1.4,2.3-4,3.8-7.2,3.8c-3.9,0-7.1-2.6-8.1-6.1h-2.5v-1.6h11.6v1.6h-5.1
			c0.7,1.6,2.2,2.6,4,2.6c1.8,0,3.3-1,4.1-2.4L203.9,27.6z"/>
	</g>
	<g>
		<path class="st1" d="M312.5,15.2h0.3v16h-3.5V19.9l-3.8,1.4v-3.3L312.5,15.2z"/>
		<path class="st1" d="M327.6,25.6c0,3.6-3.1,5.8-6.3,5.8c-2.2,0-4.7-1.2-5.7-3.1l2.7-1.9c0.5,1,1.9,1.7,2.8,1.7
			c1.7,0,2.9-1.1,2.9-2.5c0-1.4-1.1-2.4-2.7-2.4c-1.2,0-2.4,0.6-3.3,1.4l-2.1-1.2l1.4-7.9h9.2v3.3h-6.2l-0.5,2.4
			c0.7-0.5,1.7-0.7,2.7-0.7C325.5,20.3,327.6,22.6,327.6,25.6z"/>
		<path class="st1" d="M341.4,21.2v1.5h-11.6v-1.5h2.5c1.1-3.5,4.2-5.9,8-5.9c3.1,0,5.7,1.4,7.1,3.6l-3.1,2c-0.8-1.3-2.2-2.1-4-2.1
			c-1.8,0-3.2,0.9-4,2.4H341.4z M347.5,27.6c-1.4,2.3-4,3.8-7.2,3.8c-3.9,0-7.1-2.6-8.1-6.1h-2.5v-1.6h11.6v1.6h-5.1
			c0.7,1.6,2.2,2.6,4,2.6c1.8,0,3.3-1,4.1-2.4L347.5,27.6z"/>
	</g>
	<g>
		<path class="st1" d="M456.3,27.9h5.3v3.3h-10.9v-2l6.2-7.5c0.6-0.6,0.9-1.2,0.9-1.7c0-0.9-0.7-1.5-1.8-1.5c-1.2,0-1.9,0.9-2.1,2.3
			l-3.2-0.5c0.4-3,2.2-5,5.5-5c3.2,0,5.3,1.9,5.3,4.8c0,1.6-0.7,2.9-1.7,4L456.3,27.9z"/>
		<path class="st1" d="M464,23.3c0-4.5,1.3-8.1,5.9-8.1c4.6,0,5.9,3.6,5.9,8.1c0,4.5-1.3,8.1-5.9,8.1C465.4,31.5,464,27.8,464,23.3z
			 M472.2,23.3c0-2.7-0.6-4.8-2.2-4.8c-1.7,0-2.3,2.1-2.3,4.8c0,2.7,0.6,4.8,2.3,4.8C471.6,28.2,472.2,26,472.2,23.3z"/>
		<path class="st1" d="M489.8,21.2v1.5h-11.6v-1.5h2.5c1.1-3.5,4.2-5.9,8-5.9c3.1,0,5.7,1.4,7.1,3.6l-3.1,2c-0.8-1.3-2.2-2.1-4-2.1
			c-1.8,0-3.2,0.9-4,2.4H489.8z M495.9,27.6c-1.4,2.3-4,3.8-7.2,3.8c-3.9,0-7.1-2.6-8.1-6.1h-2.5v-1.6h11.6v1.6h-5.1
			c0.7,1.6,2.2,2.6,4,2.6c1.8,0,3.3-1,4.1-2.4L495.9,27.6z"/>
	</g>
	<g>
		<path class="st1" d="M605.1,27.9h5.3v3.3h-10.9v-2l6.2-7.5c0.6-0.6,0.9-1.2,0.9-1.7c0-0.9-0.7-1.5-1.8-1.5c-1.2,0-1.9,0.9-2.1,2.3
			l-3.2-0.5c0.4-3,2.2-5,5.5-5c3.2,0,5.3,1.9,5.3,4.8c0,1.6-0.7,2.9-1.7,4L605.1,27.9z"/>
		<path class="st1" d="M624.6,25.6c0,3.6-3.1,5.8-6.3,5.8c-2.2,0-4.7-1.2-5.7-3.1l2.7-1.9c0.5,1,1.9,1.7,2.8,1.7
			c1.7,0,2.9-1.1,2.9-2.5c0-1.4-1.1-2.4-2.7-2.4c-1.2,0-2.4,0.6-3.3,1.4l-2.1-1.2l1.4-7.9h9.2v3.3h-6.2l-0.5,2.4
			c0.7-0.5,1.7-0.7,2.7-0.7C622.4,20.3,624.6,22.6,624.6,25.6z"/>
		<path class="st1" d="M638.3,21.2v1.5h-11.6v-1.5h2.5c1.1-3.5,4.2-5.9,8-5.9c3.1,0,5.7,1.4,7.1,3.6l-3.1,2c-0.8-1.3-2.2-2.1-4-2.1
			c-1.8,0-3.2,0.9-4,2.4H638.3z M644.5,27.6c-1.4,2.3-4,3.8-7.2,3.8c-3.9,0-7.1-2.6-8.1-6.1h-2.5v-1.6h11.6v1.6h-5.1
			c0.7,1.6,2.2,2.6,4,2.6c1.8,0,3.3-1,4.1-2.4L644.5,27.6z"/>
	</g>
	<circle class="st2" cx="44.7" cy="57.5" r="8.1"/>
	<circle class="st2" cx="189" cy="57.5" r="8.1"/>
	<circle class="st2" cx="333.3" cy="57.5" r="8.1"/>
	<circle class="st2" cx="477.7" cy="57.5" r="8.1"/>
	<circle class="st2" cx="622" cy="57.5" r="8.1"/>
	<line class="st3" x1="42.9" y1="56.8" x2="623" y2="58.2"/>
</g>
</svg>
