<svg xmlns="http://www.w3.org/2000/svg" xmlns:xlink="http://www.w3.org/1999/xlink" viewBox="0 0 114 110"><defs><style>.cls-1{isolation:isolate;}.cls-2{mix-blend-mode:multiply;fill:url(#radial-gradient);}.cls-3{opacity:0.9;fill:url(#linear-gradient);}.cls-4{fill:#fff;}</style><radialGradient id="radial-gradient" cx="-215.96" cy="1368.12" fy="1409.1809589132074" r="43.16" gradientTransform="translate(311.5 -682.36) scale(1.19 0.55)" gradientUnits="userSpaceOnUse"><stop offset="0" stop-color="#949494"/><stop offset="0.02" stop-color="#969696"/><stop offset="0.33" stop-color="#c3c3c3"/><stop offset="0.61" stop-color="#e4e4e4"/><stop offset="0.84" stop-color="#f8f8f8"/><stop offset="1" stop-color="#fff"/></radialGradient><linearGradient id="linear-gradient" x1="31.28" y1="68.88" x2="78.93" y2="21.23" gradientUnits="userSpaceOnUse"><stop offset="0" stop-color="#008200"/><stop offset="1" stop-color="#77c600"/></linearGradient></defs><title>Icon 1</title><g class="cls-1"><g id="Layer_1" data-name="Layer 1"><ellipse class="cls-2" cx="55.58" cy="68.74" rx="51.15" ry="23.7"/><path class="cls-3" d="M89.72,44.51A34.06,34.06,0,1,0,46.51,77.32l9.15,12.92,9.15-12.92A34.08,34.08,0,0,0,89.72,44.51Z"/><path class="cls-4" d="M74.65,56.47H74v-20a3.23,3.23,0,0,0-3.22-3.22H65v1.29h5.8a1.94,1.94,0,0,1,1.94,1.93v20H39.21v-20a1.94,1.94,0,0,1,1.94-1.93h5.79V33.27H41.15a3.25,3.25,0,0,0-3.23,3.22v20h-.64a.64.64,0,0,0-.64.64v2.58a1.92,1.92,0,0,0,1.93,1.93H73.36a1.92,1.92,0,0,0,1.93-1.93V57.11a.64.64,0,0,0-.64-.64ZM59.19,57.76v.64H52.74v-.64ZM74,59.69a.64.64,0,0,1-.64.64H38.57a.65.65,0,0,1-.65-.64V57.76H51.45v.64a1.29,1.29,0,0,0,1.29,1.29h6.45a1.28,1.28,0,0,0,1.28-1.29v-.64H74Zm0,0"/><path class="cls-4" d="M46.94,50a1.29,1.29,0,0,0,1.29,1.29H63.7A1.28,1.28,0,0,0,65,50V48.09h1.29V46.8H65V45.51h1.29V44.23H65V42.94h1.29V41.65H65V40.36h1.29V39.07H65V37.14a1.28,1.28,0,0,0-1.28-1.29h-.65V32.63a7.09,7.09,0,1,0-14.17,0v3.22h-.65a1.29,1.29,0,0,0-1.29,1.29Zm3.23-17.39a5.8,5.8,0,1,1,11.59,0v3.22H60.47V32.63a4.51,4.51,0,0,0-9,0v3.22H50.17Zm9,3.22H52.74V32.63a3.23,3.23,0,0,1,6.45,0Zm-11,1.29H63.7v1.93H62.41v1.29H63.7v1.29H62.41v1.29H63.7v1.29H62.41v1.28H63.7V46.8H62.41v1.29H63.7V50H48.23Zm0,0"/></g></g></svg>