<svg xmlns="http://www.w3.org/2000/svg" xmlns:xlink="http://www.w3.org/1999/xlink" viewBox="0 0 118 110"><defs><style>.cls-1{isolation:isolate;}.cls-2{mix-blend-mode:multiply;fill:url(#radial-gradient);}.cls-3{opacity:0.9;fill:url(#linear-gradient);}.cls-4{fill:#ebe7f2;}.cls-5{fill:#fff;}</style><radialGradient id="radial-gradient" cx="-329.94" cy="1370.2" fy="1411.2606381339162" r="43.16" gradientTransform="translate(449.59 -682.36) scale(1.19 0.55)" gradientUnits="userSpaceOnUse"><stop offset="0" stop-color="#949494"/><stop offset="0.02" stop-color="#969696"/><stop offset="0.33" stop-color="#c3c3c3"/><stop offset="0.61" stop-color="#e4e4e4"/><stop offset="0.84" stop-color="#f8f8f8"/><stop offset="1" stop-color="#fff"/></radialGradient><linearGradient id="linear-gradient" x1="34.28" y1="70.02" x2="81.93" y2="22.37" gradientUnits="userSpaceOnUse"><stop offset="0" stop-color="#008200"/><stop offset="1" stop-color="#77c600"/></linearGradient></defs><title>Icon 5</title><g class="cls-1"><g id="Layer_1" data-name="Layer 1"><ellipse class="cls-2" cx="58.58" cy="69.88" rx="51.15" ry="23.7"/><path class="cls-3" d="M92.72,45.65A34.06,34.06,0,1,0,49.51,78.46l9.15,12.92,9.15-12.92A34.08,34.08,0,0,0,92.72,45.65Z"/><rect class="cls-4" x="42.6" y="59.86" width="32.11" height="3.35"/><path class="cls-5" d="M65.1,38H65A9.76,9.76,0,1,0,52.3,38h-.09A10.29,10.29,0,0,0,41.93,48.31v14.9a.67.67,0,0,0,.67.67H74.72a.67.67,0,0,0,.67-.67V48.31A10.3,10.3,0,0,0,65.1,38ZM74,62.53H43.28V48.31a9,9,0,0,1,8.94-8.94H54.5a.67.67,0,0,0,.31-1.27,8.41,8.41,0,1,1,7.7,0,.68.68,0,0,0-.35.76.66.66,0,0,0,.65.51H65.1A9,9,0,0,1,74,48.31V62.53Zm0,0"/><path class="cls-5" d="M65.88,43.45l-7-3a.67.67,0,0,0-.52,0l-7,3a.65.65,0,0,0-.41.61v9.21a7.63,7.63,0,1,0,15.26,0V44.06a.65.65,0,0,0-.41-.61Zm-.94,7H62.6v-2.6a.67.67,0,0,0-.67-.67h-2.6V42.12l5.61,2.39ZM56.06,51.8H58v1.92H56.06Zm0-1.35V48.52H58v1.93Zm3.27,1.35h1.93v1.92H59.33Zm0-1.35V48.52h1.93v1.93ZM58,42.12v5.06h-2.6a.67.67,0,0,0-.68.67v2.6H52.37V44.51ZM53.87,57.35a6.36,6.36,0,0,1-1.5-4.08V51.8h2.34v2.6a.67.67,0,0,0,.68.67H58v4.45a6.28,6.28,0,0,1-4.12-2.17Zm9.57,0a6.25,6.25,0,0,1-4.11,2.17V55.07h2.6a.67.67,0,0,0,.67-.67V51.8h2.34v1.47a6.3,6.3,0,0,1-1.5,4.08Zm0,0"/></g></g></svg>