<svg xmlns="http://www.w3.org/2000/svg" xmlns:xlink="http://www.w3.org/1999/xlink" viewBox="0 0 118 110"><defs><style>.cls-1{isolation:isolate;}.cls-2{mix-blend-mode:multiply;fill:url(#radial-gradient);}.cls-3{opacity:0.9;fill:url(#linear-gradient);}.cls-4{fill:#fff;}</style><radialGradient id="radial-gradient" cx="-271.21" cy="1373.71" fy="1414.7745325855014" r="43.16" gradientTransform="translate(379.99 -682.36) scale(1.19 0.55)" gradientUnits="userSpaceOnUse"><stop offset="0" stop-color="#949494"/><stop offset="0.02" stop-color="#969696"/><stop offset="0.33" stop-color="#c3c3c3"/><stop offset="0.61" stop-color="#e4e4e4"/><stop offset="0.84" stop-color="#f8f8f8"/><stop offset="1" stop-color="#fff"/></radialGradient><linearGradient id="linear-gradient" x1="34.28" y1="71.95" x2="81.93" y2="24.3" gradientUnits="userSpaceOnUse"><stop offset="0" stop-color="#008200"/><stop offset="1" stop-color="#77c600"/></linearGradient></defs><title>Icon 3</title><g class="cls-1"><g id="Layer_1" data-name="Layer 1"><ellipse class="cls-2" cx="58.58" cy="71.81" rx="51.15" ry="23.7"/><path class="cls-3" d="M92.72,47.58A34.06,34.06,0,1,0,49.51,80.39l9.15,12.92,9.15-12.92A34.08,34.08,0,0,0,92.72,47.58Z"/><path class="cls-4" d="M45.81,60.41V47.56a2.41,2.41,0,0,0-2.41-2.41H37a2.41,2.41,0,0,0-2.41,2.41V60.41A2.41,2.41,0,0,0,37,62.82H43.4a2.41,2.41,0,0,0,2.41-2.41ZM37,46.76H43.4a.8.8,0,0,1,.8.8V58h-8V47.56a.8.8,0,0,1,.8-.8Zm-.8,13.65v-.8h8v.8a.8.8,0,0,1-.8.81H37a.8.8,0,0,1-.8-.81Zm0,0"/><rect class="cls-4" x="38.58" y="47.56" width="3.21" height="1.61"/><path class="cls-4" d="M51.43,38.72h4v3.22h-1.6v1.6h9.64v-1.6H61.87V38.72h4a2.41,2.41,0,0,0,2.41-2.41V26.67a2.41,2.41,0,0,0-2.41-2.41H51.43A2.41,2.41,0,0,0,49,26.67v9.64a2.41,2.41,0,0,0,2.41,2.41Zm8.84,3.22H57.05V38.72h3.22Zm5.62-4.82H51.43a.81.81,0,0,1-.81-.81v-.8H66.69v.8a.8.8,0,0,1-.8.81ZM51.43,25.87H65.89a.8.8,0,0,1,.8.8V33.9H50.62V26.67a.8.8,0,0,1,.81-.8Zm0,0"/><path class="cls-4" d="M82,58.81V49.17a1.61,1.61,0,0,0-1.61-1.61H65.89a1.61,1.61,0,0,0-1.61,1.61v9.64a.8.8,0,0,0-.8.8v1.61a1.61,1.61,0,0,0,1.61,1.6H81.15a1.61,1.61,0,0,0,1.61-1.6V59.61a.8.8,0,0,0-.8-.8ZM65.89,49.17H80.35v9.64H65.89Zm15.26,12H65.09v-.81H81.15Zm0,0"/><path class="cls-4" d="M58.66,70.86a20.08,20.08,0,0,1-15.2-7L42.25,65a21.7,21.7,0,0,0,32.82,0L73.85,63.9a20.06,20.06,0,0,1-15.19,7Zm0,0"/><path class="cls-4" d="M78.2,46.14l1.57-.37a21.63,21.63,0,0,0-9.43-13.28l-.87,1.36A19.94,19.94,0,0,1,78.2,46.14Zm0,0"/><path class="cls-4" d="M47.84,33.85,47,32.49A21.91,21.91,0,0,0,38.3,43.26l1.51.56a20.23,20.23,0,0,1,8-10Zm0,0"/></g></g></svg>