<svg xmlns="http://www.w3.org/2000/svg" xmlns:xlink="http://www.w3.org/1999/xlink" viewBox="0 0 120 110"><defs><style>.cls-1{isolation:isolate;}.cls-2{mix-blend-mode:multiply;fill:url(#radial-gradient);}.cls-3{opacity:0.9;fill:url(#linear-gradient);}.cls-4{fill:#fff;}</style><radialGradient id="radial-gradient" cx="-240.63" cy="1365.45" fy="1406.5132648750457" r="43.16" gradientTransform="translate(345.75 -682.36) scale(1.19 0.55)" gradientUnits="userSpaceOnUse"><stop offset="0" stop-color="#949494"/><stop offset="0.02" stop-color="#969696"/><stop offset="0.33" stop-color="#c3c3c3"/><stop offset="0.61" stop-color="#e4e4e4"/><stop offset="0.84" stop-color="#f8f8f8"/><stop offset="1" stop-color="#fff"/></radialGradient><linearGradient id="linear-gradient" x1="36.28" y1="67.42" x2="83.93" y2="19.76" gradientUnits="userSpaceOnUse"><stop offset="0" stop-color="#008200"/><stop offset="1" stop-color="#77c600"/></linearGradient></defs><title>Icon 2</title><g class="cls-1"><g id="Layer_1" data-name="Layer 1"><ellipse class="cls-2" cx="60.58" cy="67.27" rx="51.15" ry="23.7"/><path class="cls-3" d="M94.72,43.05a34.06,34.06,0,1,0-43.21,32.8l9.15,12.92,9.15-12.92A34.06,34.06,0,0,0,94.72,43.05Z"/><path class="cls-4" d="M78.07,56.68,78,54.89a.63.63,0,0,0-.63-.6h-1.8V46.75H74.31v7.54h-11a1.72,1.72,0,0,0-1.21.5.44.44,0,0,1-.31.13h-5.3a.48.48,0,0,1-.32-.13,1.68,1.68,0,0,0-1.2-.5H44.16v-17a1.89,1.89,0,0,1,1.89-1.88V53H47.3V32.31a1.94,1.94,0,0,1,2.12-1.88H53V29.17H49.42a3.19,3.19,0,0,0-3.37,3.14v1.88a3.15,3.15,0,0,0-3.14,3.14v17H41a.63.63,0,0,0-.63.63V56.8a2.53,2.53,0,0,0,2.52,2.52H75.56a2.52,2.52,0,0,0,2.52-2.52s0-.08,0-.12Zm-1.6,1a1.23,1.23,0,0,1-.91.39H42.91a1.25,1.25,0,0,1-1.26-1.26V55.55H55a.44.44,0,0,1,.32.13,1.68,1.68,0,0,0,1.2.5h5.3a1.68,1.68,0,0,0,1.2-.5.44.44,0,0,1,.32-.13h13.4l.06,1.19a1.23,1.23,0,0,1-.35.93Zm0,0"/><rect class="cls-4" x="71.17" y="46.75" width="1.26" height="6.28"/><rect class="cls-4" x="49.19" y="31.68" width="1.26" height="1.26"/><rect class="cls-4" x="51.7" y="31.68" width="1.26" height="1.26"/><rect class="cls-4" x="49.19" y="34.19" width="3.77" height="1.26"/><path class="cls-4" d="M57.35,45.5h2.31l-1,3.59a.63.63,0,0,0,.43.78.65.65,0,0,0,.54-.09l6.11-4.28h9.23a3.15,3.15,0,0,0,3.14-3.14V28.54a3.15,3.15,0,0,0-3.14-3.14H57.35a3.15,3.15,0,0,0-3.14,3.14V42.36a3.15,3.15,0,0,0,3.14,3.14Zm-1.88-17a1.88,1.88,0,0,1,1.88-1.88H74.94a1.88,1.88,0,0,1,1.88,1.88V42.36a1.88,1.88,0,0,1-1.88,1.88H65.52a.63.63,0,0,0-.37.12l-4.83,3.38.77-2.7a.61.61,0,0,0-.43-.77.47.47,0,0,0-.17,0H57.35a1.88,1.88,0,0,1-1.88-1.88Zm0,0"/><rect class="cls-4" x="49.19" y="36.71" width="1.26" height="1.26"/><rect class="cls-4" x="49.19" y="39.22" width="3.77" height="1.26"/><rect class="cls-4" x="49.19" y="41.73" width="3.77" height="1.26"/><rect class="cls-4" x="49.19" y="44.24" width="4.4" height="1.26"/><rect class="cls-4" x="49.19" y="46.75" width="2.51" height="1.26"/><rect class="cls-4" x="49.19" y="49.27" width="8.16" height="1.26"/><rect class="cls-4" x="64.89" y="46.75" width="4.4" height="1.26"/><rect class="cls-4" x="61.75" y="49.27" width="7.54" height="1.26"/><rect class="cls-4" x="49.19" y="51.78" width="15.7" height="1.26"/><rect class="cls-4" x="51.7" y="36.71" width="1.26" height="1.26"/><rect class="cls-4" x="52.95" y="46.75" width="4.4" height="1.26"/><rect class="cls-4" x="66.14" y="51.78" width="3.14" height="1.26"/><path class="cls-4" d="M63,39.92l-3.68,1a1.5,1.5,0,0,0-.37-.34.63.63,0,0,0-.69,1,.27.27,0,0,1,.08.37.63.63,0,1,0,1.08.65h0a1.67,1.67,0,0,0,.19-.5l3.88-1.09H68.8l3.88,1.09a1.44,1.44,0,0,0,.19.5.62.62,0,0,0,.86.21A.63.63,0,0,0,74,42a.27.27,0,0,1,.07-.37.63.63,0,1,0-.68-1A1.5,1.5,0,0,0,73,41l-3.69-1v-.46l3.69-1a1.24,1.24,0,0,0,.37.35A.63.63,0,1,0,74,37.72a.28.28,0,0,1-.07-.38.63.63,0,0,0-1.08-.65h0a1.44,1.44,0,0,0-.19.5l-1.06.3a1.82,1.82,0,0,0,.18-.79V33.57a5.66,5.66,0,1,0-11.31,0v3.14a1.82,1.82,0,0,0,.18.79l-1.06-.3a1.67,1.67,0,0,0-.19-.5.63.63,0,0,0-1.08.64.29.29,0,0,1-.07.38A.63.63,0,1,0,59,38.77a1.37,1.37,0,0,0,.37-.35l3.68,1Zm-1.25-6.35a4.4,4.4,0,1,1,8.79,0v3.14a.63.63,0,0,1-.63.62H68.66A.63.63,0,0,0,68,38v1.89H64.26V38a.63.63,0,0,0-.63-.63H62.37a.62.62,0,0,1-.62-.62Zm0,0"/><path class="cls-4" d="M65.52,34.19a1.26,1.26,0,1,1-1.26-1.25,1.26,1.26,0,0,1,1.26,1.25Zm0,0"/><path class="cls-4" d="M69.28,34.19A1.26,1.26,0,1,1,68,32.94a1.25,1.25,0,0,1,1.25,1.25Zm0,0"/><rect class="cls-4" x="65.52" y="36.08" width="1.26" height="1.88"/></g></g></svg>