<svg xmlns="http://www.w3.org/2000/svg" xmlns:xlink="http://www.w3.org/1999/xlink" viewBox="0 0 115 110"><defs><style>.cls-1{isolation:isolate;}.cls-2{mix-blend-mode:multiply;fill:url(#radial-gradient);}.cls-3{opacity:0.9;fill:url(#linear-gradient);}.cls-4{fill:#fff;}</style><radialGradient id="radial-gradient" cx="-301.89" cy="1365.58" fy="1406.6423576730065" r="43.16" gradientTransform="translate(415.35 -682.36) scale(1.19 0.55)" gradientUnits="userSpaceOnUse"><stop offset="0" stop-color="#949494"/><stop offset="0.02" stop-color="#969696"/><stop offset="0.33" stop-color="#c3c3c3"/><stop offset="0.61" stop-color="#e4e4e4"/><stop offset="0.84" stop-color="#f8f8f8"/><stop offset="1" stop-color="#fff"/></radialGradient><linearGradient id="linear-gradient" x1="33.28" y1="67.49" x2="80.93" y2="19.84" gradientUnits="userSpaceOnUse"><stop offset="0" stop-color="#008200"/><stop offset="1" stop-color="#77c600"/></linearGradient></defs><title>Icon 4</title><g class="cls-1"><g id="Layer_1" data-name="Layer 1"><ellipse class="cls-2" cx="57.58" cy="67.35" rx="51.15" ry="23.7"/><path class="cls-3" d="M91.72,43.12A34.06,34.06,0,1,0,48.51,75.93l9.15,12.91,9.15-12.91A34.08,34.08,0,0,0,91.72,43.12Z"/><path class="cls-4" d="M57.9,65.22A21.18,21.18,0,1,1,79.1,44,21.2,21.2,0,0,1,57.9,65.22ZM44.2,32.59A17.82,17.82,0,0,0,69.13,57.85L64.48,53.2v1.46c0,1.1-.4,1.49-1.51,1.49H53c-1.36,0-1.69-.32-1.69-1.66,0-4.7,0-9.4,0-14.1a1.3,1.3,0,0,0-.41-1q-2.9-2.85-5.76-5.73C44.79,33.32,44.51,33,44.2,32.59ZM51.27,35c0-.58,0-1.08,0-1.58,0-1.06.41-1.47,1.46-1.47H62.86c1.26,0,1.62.35,1.62,1.62,0,4.72,0,9.45,0,14.17a1.51,1.51,0,0,0,.38.94C67,50.8,69.12,52.92,71.25,55c.13.13.26.24.39.36a17.71,17.71,0,0,0-2-24.82c-7.67-6.68-18-4.95-23-.29ZM63.93,53.91c-.19-.67.2-1.3-.38-1.88-3.75-3.7-7.46-7.43-11.19-11.14-.13-.13-.27-.25-.47-.43V53.91ZM51.77,34.18c.11.62,0,1.36.33,1.7,2.17,2.3,4.43,4.53,6.66,6.78q1.68,1.68,3.37,3.35c.54.53,1.1,1,1.7,1.59V34.18Zm6.14-.71c.73,0,1.46,0,2.18,0,.2,0,.39-.23.58-.35-.19-.1-.38-.29-.57-.3-1.49,0-3,0-4.48,0-.19,0-.37.21-.55.32.18.12.36.32.54.33C56.38,33.49,57.15,33.47,57.91,33.47Zm0,21.2a2,2,0,0,0-.65,0,.71.71,0,0,0-.39.43.55.55,0,0,0,.36.38,4.86,4.86,0,0,0,1.32,0,.61.61,0,0,0,.38-.43c0-.1-.2-.32-.36-.38A2.42,2.42,0,0,0,57.88,54.67Z"/></g></g></svg>