<?xml version="1.0" encoding="utf-8"?>
<!-- Generator: Adobe Illustrator 27.0.1, SVG Export Plug-In . SVG Version: 6.00 Build 0)  -->
<svg version="1.1" id="Siegel" xmlns="http://www.w3.org/2000/svg" xmlns:xlink="http://www.w3.org/1999/xlink" x="0px" y="0px"
	 viewBox="0 0 482.7 329.9" style="enable-background:new 0 0 482.7 329.9;" xml:space="preserve">
<style type="text/css">
	.st0{fill:#FFFFFF;}
	.st1{fill:#489161;}
</style>
<path class="st0" d="M276.3,122.4c4.9,13.3,7.6,27.6,7.6,42.6s-2.7,29.3-7.6,42.6H450v-85.1L276.3,122.4z"/>
<ellipse class="st0" cx="161.5" cy="165" rx="112.6" ry="112.6"/>
<path class="st1" d="M260.8,191.9L260.8,191.9c2.3-8.6,3.6-17.7,3.6-27c0-10.1-1.5-19.9-4.2-29.1l0,0c2.7,9.2,4.2,19,4.2,29.1
	C264.4,174.3,263.1,183.3,260.8,191.9z"/>
<path class="st1" d="M85.4,119.4c5.7,4.4,11.6,4,16.1-1.8s3.3-11.6-2.3-16c-5.7-4.4-11.6-4-16.1,1.8C78.6,109.3,79.7,115,85.4,119.4
	z M86.6,106.1c2.2-2.9,5.7-2,8.8,0.3c2.9,2.3,4.8,5.5,2.6,8.4c-2.2,2.9-5.9,1.9-8.8-0.4C86.1,112.1,84.4,109,86.6,106.1z"/>
<path class="st1" d="M114.3,104.2l-5.2-7.2l1-0.7c1.8-1.3,3-1,6.2,1.4l3.4,2.5l5-3.7l-5.4-3.7c-2.5-1.6-3.6-2.9-5.5-2.1v-0.1
	c1.9-2.2,1.9-4.7,0.2-7.1c-2.3-3.1-6-2.7-9.2-0.3l-8.6,6.3l13.2,18.2L114.3,104.2z M106.6,93.6l-3-4.1l1.3-0.9
	c1.8-1.3,3.8-2.3,5-0.6c1.5,2.1-0.4,3.5-2,4.7L106.6,93.6z"/>
<rect x="123.7" y="72.5" transform="matrix(0.9169 -0.3992 0.3992 0.9169 -22.8957 57.5492)" class="st1" width="6" height="22.5"/>
<path class="st1" d="M149.6,89.4c2-0.4,4.8-1,8.3-2.6l-2.3-12.3l-9.1,1.7l0.8,4.2l3.4-0.7l0.8,4.4c-0.5,0.4-1.2,0.6-2,0.8
	c-4.3,0.8-7.9-1.2-8.7-5.5c-1-5.2,2.6-7.9,7.3-8.8c1.4-0.3,3.6-0.3,5.6,0.4l-0.4-4.9c-2.3-0.4-5.4,0-6.9,0.3
	c-8.1,1.5-13.3,5.8-11.7,14.2C136.3,88.8,143.7,90.5,149.6,89.4z"/>
<rect x="154.6" y="73.4" transform="matrix(3.869120e-02 -0.9993 0.9993 3.869120e-02 83.0795 239.1536)" class="st1" width="22.5" height="6"/>
<polygon class="st1" points="182.5,75 182.5,75 185.7,92 192.8,94.1 199.2,72.6 194,71 189.7,85.7 189.6,85.6 186.7,68.9 
	179.4,66.7 173,88.2 178.3,89.8 "/>
<path class="st1" d="M200.3,98.4l4.2-2.9l6.9,4.8l-1.4,4.9l5.4,3.8l5.7-23.4l-6-4.2L195.3,95L200.3,98.4z M215.4,87.2L215.4,87.2
	l-2.8,8.8l-4.6-3.2L215.4,87.2z"/>
<polygon class="st1" points="226.3,123 229.8,120.2 224,113 238.1,101.7 234.3,97.1 216.8,111.1 "/>
<path class="st1" d="M103.5,210.6l-8.5,6.5V217c0.5-2.2,0.2-4.1-1.3-6c-3.5-4.6-8.4-3.5-12.5-0.3c-4.1,3.1-6.6,7.6-3.1,12.2
	c1.4,1.8,3.2,3,5.5,3v0.1l-1.7,1.3l2.9,3.8l21.7-16.5L103.5,210.6z M89.3,221.4c-2.1,1.6-5.5,2.8-7.4,0.3s0.3-5.4,2.3-6.9
	s5.3-2.9,7.2-0.4C93.3,216.8,91.4,219.8,89.3,221.4z"/>
<path class="st1" d="M107.8,241.4c4.2-5,5.7-9.9,0.4-14.4c-4.5-3.7-9.5-2.1-13,2.1c-3.9,4.7-3.4,9.8,1.3,13.7c2,1.7,3.9,2.6,5.9,3
	l2.5-3c-2-0.4-4.2-1-6-2.5c-2.3-1.9-2.8-4.6-1.1-7L107.8,241.4z M106.2,229.9c2.1,1.7,1.6,4,0.2,5.9l-6.4-5.3
	C101.8,228.8,104.1,228.2,106.2,229.9z"/>
<path class="st1" d="M125.3,238.3c-2.6-1.4-5.7,0.3-6.7,1.8h-0.1l2-3.8l-3.8-2l-8.7,16.5l4.3,2.3l3.2-6.1c1.3-2.4,3.6-6.7,7.1-4.9
	c0.8,0.4,1.5,0.9,1.7,1.4l2.3-4.3C126.2,238.8,125.8,238.5,125.3,238.3z"/>
<path class="st1" d="M149.6,244.8c-2.2-0.5-4.8,0-6.4,1.9c-0.5-2.5-2.1-3.9-4.7-4.4c-1.8-0.4-4.1-0.1-6.1,1.8h-0.1l0.6-2.6l-4.4-1
	l-4.1,18.2l4.7,1.1l2-8.9c0.5-2.4,1.8-6,4.9-5.3c2.7,0.6,2.2,3,1.8,4.7l-2.4,10.9l4.7,1.1l2-8.9c0.5-2.4,1.8-6,4.9-5.3
	c2.7,0.6,2.2,3,1.8,4.7l-2.4,10.9l4.7,1.1l2.6-11.5C154.7,249.1,154.1,245.8,149.6,244.8z"/>
<path class="st1" d="M173.1,256.5l-0.1-2.4c-0.2-5.5-2.7-7.8-8.4-7.6c-2.1,0.1-4.6,0.7-6.4,1.7l0.3,4.2c1.6-1.3,3.6-2.2,5.7-2.3
	c2.9-0.1,4.2,0.9,4.4,3.9l-2.7,0.1c-2,0.1-4.4,0.3-6.2,1.3s-3.1,2.7-3,5.5c0.1,3.6,3.4,5.4,6.7,5.3c2.2-0.1,4.6-1.3,5.6-3.4h0.1
	c0.1,0.6,0.1,1.8,0.3,2.8l4.3-0.2c-0.2-1.4-0.3-2.8-0.4-4.2C173.3,259.8,173.2,258.4,173.1,256.5z M167.9,260.8
	c-0.7,1-1.9,1.7-3.3,1.8c-1.7,0.1-3.1-0.6-3.2-2.2c-0.1-2.9,3.1-3.4,5.3-3.4l2.1-0.1C168.8,258.4,168.6,259.7,167.9,260.8z"/>
<path class="st1" d="M189.3,258.8c-1.8,0.5-2.6-0.9-3-2.4l-2.2-8.4l4.2-1.1l-0.9-3.4l-4.2,1.1l-1.3-5.1l-4.3,2.7l0.9,3.6l-3.5,0.9
	l0.9,3.4l3.5-0.9l2.4,9.2c0.9,3.6,3.6,5.3,7.3,4.4c1.4-0.4,2.5-0.8,3.4-1.3l-1.1-3.7C190.9,258.2,190.1,258.5,189.3,258.8z"/>
<path class="st1" d="M205,252.5c-2.7,1.4-5.3,0.9-6.9-1.6l11.4-6.1c-3.1-5.8-7.1-9-13.2-5.7c-5.1,2.8-5.5,8-3,12.8
	c2.9,5.4,7.8,6.8,13.2,3.9c2.3-1.2,3.9-2.6,5-4.4l-1.9-3.5C208.4,249.6,207.1,251.4,205,252.5z M198.2,242c2.4-1.3,4.3,0,5.6,2
	l-7.3,3.9C195.5,245.6,195.8,243.3,198.2,242z"/>
<path class="st1" d="M212.6,235c-1.1-1.2-0.2-2.6,0.7-3.5c1.3-1.2,2.3-1.7,3.8-2.3l-2.2-2.9c-1.3,0.8-2.7,1.5-4.4,3.1
	c-2.8,2.6-4.2,6.3-1.5,9.2c4.5,5,9.1-2.5,11.6,0.2c1.2,1.3,0.1,3-0.8,3.8c-1.2,1.1-2.7,1.8-4.4,2.3l2.5,3.2c1.6-0.8,3.3-1.9,4.6-3.1
	c2.9-2.7,4.6-6.6,1.7-9.8C219.6,230.1,214.6,237.2,212.6,235z"/>
<path class="st1" d="M235.7,224.9c-1.1,1.5-2.6,0.9-3.8,0l-7-5.3l2.6-3.4l-2.8-2.1l-2.6,3.4l-4.2-3.2l-1.7,4.8l3,2.3l-2.2,2.9
	l2.8,2.1l2.2-2.9l7.6,5.7c3,2.2,6.1,2,8.4-1.1c0.9-1.2,1.4-2.1,1.8-3.1l-3.2-2.2C236.6,223.5,236.3,224.2,235.7,224.9z"/>
<path class="st1" d="M226.6,210.9c2,1.1,4.5,0.4,5.7-1.5s0.4-4.5-1.5-5.7c-2-1.1-4.5-0.5-5.7,1.5
	C223.9,207.2,224.6,209.8,226.6,210.9z M225.9,205.7c0.8-1.4,2.6-1.9,4.3-1c1.7,1,2.1,2.7,1.3,4.2c-0.8,1.4-2.6,1.9-4.3,1
	C225.5,208.9,225,207.2,225.9,205.7z"/>
<path class="st1" d="M230.3,209.1l-1.7-1l0.2-0.4h2.2l0.5-0.9l-2.3,0.1c0.3-0.6,0.3-1.3-0.5-1.7c-0.9-0.5-1.5-0.1-2.1,0.9l-0.9,1.5
	l4,2.3L230.3,209.1z M228.4,207l-0.4,0.7l-1-0.6l0.3-0.6c0.2-0.3,0.5-0.7,0.9-0.5C228.7,206.3,228.6,206.6,228.4,207z"/>
<path class="st1" d="M107,127.9l2.1,1.4c11.8-17.4,31.4-27.7,52.4-27.7c21.4,0,41.2,10.7,52.9,28.5l2.1-1.4
	C204.3,110.1,183.7,99,161.4,99C139.7,99.1,119.3,109.9,107,127.9z"/>
<path class="st1" d="M108.2,199.1l-2.1,1.4c12.2,19,32.9,30.3,55.5,30.3s43.3-11.4,55.5-30.4l-2.2-1.4
	c-11.7,18.3-31.7,29.2-53.4,29.2C139.8,228.3,119.9,217.4,108.2,199.1z"/>
<path class="st1" d="M275,119c-18.2-44.8-62.2-76.5-113.5-76.5C94,42.5,39,97.4,39,165c0,67.5,54.9,122.4,122.4,122.4
	c51.3,0,95.3-31.7,113.5-76.5h178.4V119H275z M161.5,277.5C99.4,277.5,48.9,227,48.9,165c0-62.1,50.5-112.6,112.6-112.6
	S274,102.9,274,165C274,227,223.6,277.5,161.5,277.5z M450,207.5H276.3c4.9-13.3,7.6-27.6,7.6-42.6s-2.7-29.3-7.6-42.6H450V207.5z"
	/>
<path class="st1" d="M62.8,135.8c-2.7,9.2-4.2,19-4.2,29.1c0,9.3,1.3,18.4,3.6,27l0,0h198.7c2.3-8.6,3.6-17.7,3.6-27
	c0-10.1-1.5-19.9-4.2-29.1H62.8L62.8,135.8z M234.5,151.2h16.8v4.5h-5.5v20.6H240v-20.6h-5.5V151.2z M211.5,151.2h6.9l7.3,17.4h0.1
	v-17.4h5.2v25.1h-7l-7.2-18.2h-0.1v18.2h-5.2V151.2z M191.9,151.2h14.5v4.4h-8.8v5.6h8.4v4.4h-8.4v6.3h9.3v4.4H192v-25.1H191.9z
	 M174.1,151.2h5.9v20.6h8.3v4.5h-14.2V151.2z M156.2,151.2h5.9v20.6h8.3v4.5h-14.2V151.2z M136.6,151.2h14.5v4.4h-8.8v5.6h8.4v4.4
	h-8.4v6.3h9.3v4.4h-14.9v-25.1H136.6z M125.6,150.7c3.7,0,5.7,0.8,6.6,1.2l-0.3,4.9c-0.9-0.5-2.4-1.4-5.1-1.4c-4,0-6.5,3.2-6.5,8.3
	c0,4.9,2.8,8.2,6.6,8.2c2.9,0,4.6-1.1,5.1-1.3l0.2,5.3c-1,0.3-3.1,0.9-6.3,0.9c-6.9,0-11.7-5.1-11.7-13.1
	C114.3,154.4,120.5,150.7,125.6,150.7z M92.1,151.2h6.6l3.4,7.9l3.8-7.9h6.3l-6.6,11.8l7.1,13.3h-6.6l-4-9l-4.5,9h-6.3l7.3-13.3
	L92.1,151.2z M73.4,151.2h14.5v4.4h-8.8v5.6h8.4v4.4h-8.4v6.3h9.3v4.4h-15V151.2z"/>
<g>
	<path class="st1" d="M161.6,118.9c0,5.4-2.5,9.7-6.9,9.7c-3.1,0-4.9-1.8-4.9-5.3c0-5.1,2.4-9.7,6.9-9.7
		C159.8,113.6,161.6,115.4,161.6,118.9z M154.7,126c1,0,1.9-1.1,2.5-3s0.8-4,0.8-4.9c0-1.6-0.8-1.9-1.3-1.9c-2.5,0-3.4,6.2-3.4,7.9
		C153.3,125.5,153.8,126,154.7,126z"/>
	<path class="st1" d="M173.7,117.8c0,2.1-1.2,3.6-1.9,4.3c-1.1,1.2-2.3,2-4.4,3.5l0,0h5.1l-0.6,2.7h-10.4l0.5-2.5
		c0.7-0.5,2.2-1.6,3.1-2.2c3.6-2.6,4.7-3.8,4.7-5.1c0-1.3-0.7-2-2-2c-1.1,0-2.4,0.5-3.5,1.1l0.4-3.3c1.3-0.4,2.6-0.6,4.1-0.6
		C171.4,113.6,173.7,114.9,173.7,117.8z"/>
</g>
<g>
	<path class="st1" d="M148.6,204.4c0,2.1-1.2,3.6-1.9,4.3c-1.1,1.2-2.3,2-4.3,3.5l0,0h5l-0.5,2.7h-10.2l0.4-2.5
		c0.7-0.5,2.2-1.6,3.1-2.2c3.5-2.6,4.6-3.8,4.6-5.1s-0.7-2-2-2c-1.1,0-2.4,0.5-3.4,1.1l0.4-3.3c1.2-0.4,2.5-0.6,4.1-0.6
		C146.4,200.3,148.6,201.6,148.6,204.4z"/>
	<path class="st1" d="M161.6,205.5c0,5.4-2.5,9.7-6.8,9.7c-3,0-4.8-1.8-4.8-5.3c0-5.1,2.4-9.7,6.8-9.7
		C159.8,200.3,161.6,202.1,161.6,205.5z M154.9,212.6c1,0,1.8-1.1,2.4-3c0.6-1.9,0.8-4,0.8-4.9c0-1.6-0.8-1.9-1.3-1.9
		c-2.4,0-3.3,6.2-3.3,7.9C153.5,212.1,154,212.6,154.9,212.6z"/>
	<path class="st1" d="M173.4,204.4c0,2.1-1.2,3.6-1.9,4.3c-1.1,1.2-2.3,2-4.3,3.5l0,0h5l-0.5,2.7h-10.2l0.4-2.5
		c0.7-0.5,2.2-1.6,3.1-2.2c3.5-2.6,4.6-3.8,4.6-5.1s-0.7-2-2-2c-1.1,0-2.4,0.5-3.4,1.1l0.4-3.3c1.2-0.4,2.5-0.6,4.1-0.6
		C171.2,200.3,173.4,201.6,173.4,204.4z"/>
	<path class="st1" d="M185.9,204.4c0,2.1-1.2,3.6-1.9,4.3c-1.1,1.2-2.3,2-4.3,3.5l0,0h5l-0.5,2.7H174l0.4-2.5
		c0.7-0.5,2.2-1.6,3.1-2.2c3.5-2.6,4.6-3.8,4.6-5.1s-0.7-2-2-2c-1.1,0-2.4,0.5-3.4,1.1l0.4-3.3c1.2-0.4,2.5-0.6,4.1-0.6
		C183.7,200.3,185.9,201.6,185.9,204.4z"/>
</g>
<g>
	<path class="st1" d="M308.9,158.1v-1.4l0,0c-0.7,1-2,1.7-3.5,1.7c-3,0-4.4-2.6-4.4-5.5c0-2.7,1.4-5.2,4.4-5.2
		c1.5,0,2.7,0.5,3.4,1.6l0,0v-6.2h1.9v15L308.9,158.1L308.9,158.1z M308.8,153c0-1.8-0.9-3.8-3-3.8c-1.9,0-2.8,1.7-2.8,3.7
		c0,2.2,1.1,4,2.8,4C307.9,156.8,308.8,154.7,308.8,153z"/>
	<path class="st1" d="M321.7,157.6c-1.5,0.6-2.4,0.7-3.2,0.7c-3.5,0-5.3-2-5.3-5.5c0-3.1,1.9-5.2,4.8-5.2c3,0,4.5,1.9,4.5,5.8h-7.3
		c0,2,1.6,3.4,3.4,3.4c1.1,0,2.5-0.5,3.1-1V157.6z M320.5,152c0-1.6-1-2.8-2.6-2.8c-1.5,0-2.5,1.1-2.7,2.8H320.5z"/>
	<path class="st1" d="M325,158.1v-10.2h1.8v1.6l0,0c0.5-1.1,1.6-1.8,2.7-1.8c0.4,0,0.8,0,1.2,0.1v1.7c-0.3-0.1-0.7-0.2-1-0.2
		c-1.7,0-2.8,1.7-2.8,4.2v4.6L325,158.1L325,158.1z"/>
	<path class="st1" d="M345.5,158.1V152c0-1.7-0.6-2.8-1.8-2.8c-1.8,0-2.7,1.7-2.7,3.8v5.1h-1.9V152c0-1.7-0.5-2.8-1.8-2.8
		c-1.8,0-2.7,1.7-2.7,3.8v5.1h-1.9v-10.2h1.8v1.5l0,0c0.7-1.2,1.7-1.7,3.2-1.7c1.3,0,2.4,0.7,2.9,2c0.6-1.2,1.9-2,3.2-2
		c2.3,0,3.5,1.4,3.5,3.9v6.5H345.5z"/>
	<path class="st1" d="M356.8,158.1v-1.3l0,0c-0.7,1-1.8,1.6-3.2,1.6c-2.4,0-3.7-1.1-3.7-3.2c0-2.2,2.1-3.4,4.9-3.4
		c0.8,0,1.4,0,1.9,0c0-1.9-0.7-2.7-2.5-2.7c-1,0-2.1,0.4-3,1l-0.1-1.6c0.9-0.6,2.1-1,3.4-1c2.8,0,4.1,1.3,4.1,4.2v4.5
		c0,0.6,0,1.3,0.1,1.8L356.8,158.1L356.8,158.1z M356.6,153.2c0,0-0.8,0-1.2,0c-2.1,0-3.5,0.6-3.5,2c0,1,0.9,1.7,1.9,1.7
		c1.8,0,2.8-1.1,2.8-2.7L356.6,153.2L356.6,153.2z"/>
	<path class="st1" d="M367.3,158c-0.5,0.1-1,0.3-1.6,0.3c-2.1,0-3.1-1.1-3.1-2.9v-6h-2.3v-1.5h2.3v-2.4l1.9-0.6v3h2.7v1.5h-2.7v5.6
		c0,0.9,0.6,1.8,1.6,1.8c0.6,0,1-0.2,1.3-0.4L367.3,158L367.3,158z"/>
	<path class="st1" d="M377.3,157.6c-1.5,0.6-2.4,0.7-3.2,0.7c-3.5,0-5.3-2-5.3-5.5c0-3.1,1.9-5.2,4.8-5.2c3,0,4.5,1.9,4.5,5.8h-7.3
		c0,2,1.6,3.4,3.4,3.4c1.1,0,2.5-0.5,3.1-1V157.6z M376.1,152c0-1.6-1-2.8-2.6-2.8c-1.5,0-2.5,1.1-2.7,2.8H376.1z"/>
	<path class="st1" d="M379.8,156.1c0.6,0.4,1.7,0.7,2.3,0.7c1,0,1.9-0.4,1.9-1.5c0-0.6-0.4-1.1-1.8-1.7c-2.1-0.9-2.6-1.8-2.6-2.9
		c0-2.1,1.6-3.1,3.6-3.1c0.9,0,1.6,0.2,2.3,0.4l-0.2,1.6c-0.4-0.2-1.5-0.5-2-0.5c-1,0-1.8,0.4-1.8,1.2s0.7,1.3,2,1.8
		c1.7,0.8,2.4,1.6,2.4,2.9c0,1.9-1.4,3.2-3.6,3.2c-1.1,0-2-0.1-2.8-0.6L379.8,156.1z"/>
	<path class="st1" d="M393.9,158c-0.5,0.1-1,0.3-1.6,0.3c-2.1,0-3.1-1.1-3.1-2.9v-6h-2.3v-1.5h2.3v-2.4l1.9-0.6v3h2.7v1.5h-2.7v5.6
		c0,0.9,0.6,1.8,1.6,1.8c0.6,0,1-0.2,1.3-0.4L393.9,158L393.9,158z"/>
	<path class="st1" d="M395.3,153.4v-1.5h5.1v1.5H395.3z"/>
	<path class="st1" d="M308.8,180.7L308.8,180.7c-0.8,1-2.1,1.6-3.5,1.6c-2.9,0-4.4-2.4-4.4-5c0-2.8,1.6-5.4,4.6-5.4
		c1.6,0,2.7,0.5,3.4,1.8l0,0v-1.5h1.7v9.8c0,3.1-1.7,4.9-5.3,4.9c-1.3,0-2.2-0.2-3.7-0.7l0.2-1.7c1.5,0.7,2.4,0.9,3.7,0.9
		c2,0,3.2-1.3,3.2-3.5L308.8,180.7L308.8,180.7z M308.8,177.3c0-2.1-1-3.9-3-3.9c-1.8,0-2.8,1.9-2.8,3.8c0,2,1.1,3.6,2.8,3.6
		C307.5,180.8,308.8,179.4,308.8,177.3z"/>
	<path class="st1" d="M320.9,182.3v-1.6l0,0c-0.5,1.1-1.8,1.9-3.3,1.9c-2.6,0-3.8-1.6-3.8-4.4v-6.1h1.9v5.5c0,3.1,1.4,3.4,2.2,3.4
		c1.9,0,3-1.5,3-4.2v-4.7h1.9v10.2L320.9,182.3L320.9,182.3z"/>
	<path class="st1" d="M332,182.3V181l0,0c-0.7,1-1.8,1.6-3.2,1.6c-2.4,0-3.7-1.1-3.7-3.2c0-2.2,2.1-3.4,4.9-3.4c0.8,0,1.4,0,1.9,0
		c0-1.9-0.7-2.7-2.5-2.7c-1,0-2.1,0.4-3,1l-0.1-1.6c0.9-0.6,2.1-1,3.4-1c2.8,0,4.1,1.3,4.1,4.2v4.5c0,0.6,0,1.3,0.1,1.8L332,182.3
		L332,182.3z M331.8,177.5c0,0-0.8,0-1.2,0c-2.1,0-3.5,0.6-3.5,2c0,1,0.9,1.7,1.9,1.7c1.8,0,2.8-1.1,2.8-2.7L331.8,177.5
		L331.8,177.5z"/>
	<path class="st1" d="M336.6,182.3v-10.2h1.8v1.6l0,0c0.5-1.1,1.6-1.8,2.7-1.8c0.4,0,0.8,0,1.2,0.1v1.7c-0.3-0.1-0.7-0.2-1-0.2
		c-1.7,0-2.8,1.7-2.8,4.2v4.6L336.6,182.3L336.6,182.3z"/>
	<path class="st1" d="M350.5,182.3V181l0,0c-0.7,1-1.8,1.6-3.2,1.6c-2.4,0-3.7-1.1-3.7-3.2c0-2.2,2.1-3.4,4.9-3.4c0.8,0,1.4,0,1.9,0
		c0-1.9-0.7-2.7-2.5-2.7c-1,0-2.1,0.4-3,1l-0.1-1.6c0.9-0.6,2.1-1,3.4-1c2.8,0,4.1,1.3,4.1,4.2v4.5c0,0.6,0,1.3,0.1,1.8L350.5,182.3
		L350.5,182.3z M350.3,177.5c0,0-0.8,0-1.2,0c-2.1,0-3.5,0.6-3.5,2c0,1,0.9,1.7,1.9,1.7c1.8,0,2.8-1.1,2.8-2.7L350.3,177.5
		L350.3,177.5z"/>
	<path class="st1" d="M362.3,182.3v-5.5c0-2.7-1-3.4-2.2-3.4c-2,0-3,1.6-3,4.2v4.7h-1.9v-10.2h1.8v1.6l0,0c0.6-1.2,1.9-1.9,3.3-1.9
		c2.6,0,3.8,1.6,3.8,4.3v6.1L362.3,182.3L362.3,182.3z"/>
	<path class="st1" d="M372.7,182.3c-0.5,0.1-1,0.3-1.6,0.3c-2.1,0-3.1-1.1-3.1-2.9v-6h-2.3v-1.5h2.3v-2.4l1.9-0.6v3h2.7v1.5h-2.7
		v5.6c0,0.9,0.6,1.8,1.6,1.8c0.6,0,1-0.2,1.3-0.4L372.7,182.3L372.7,182.3z"/>
	<path class="st1" d="M382.5,181.9c-1.5,0.6-2.4,0.7-3.2,0.7c-3.5,0-5.3-2-5.3-5.5c0-3.1,1.9-5.2,4.8-5.2c3,0,4.5,1.9,4.5,5.8H376
		c0,2,1.6,3.4,3.4,3.4c1.1,0,2.5-0.5,3.1-1V181.9z M381.3,176.2c0-1.6-1-2.8-2.6-2.8c-1.5,0-2.5,1.1-2.7,2.8H381.3z"/>
	<path class="st1" d="M393.5,181.9c-1.5,0.6-2.4,0.7-3.2,0.7c-3.5,0-5.3-2-5.3-5.5c0-3.1,1.9-5.2,4.8-5.2c3,0,4.5,1.9,4.5,5.8H387
		c0,2,1.6,3.4,3.4,3.4c1.1,0,2.5-0.5,3.1-1V181.9z M392.2,176.2c0-1.6-1-2.8-2.6-2.8c-1.5,0-2.5,1.1-2.7,2.8H392.2z"/>
	<path class="st1" d="M396.6,182.3v-2.2h2.2v2.2H396.6z"/>
	<path class="st1" d="M408.6,182.1c-0.6,0.3-1.3,0.4-2.4,0.4c-3.1,0-5.2-2.4-5.2-5.3c0-3.1,2.1-5.3,5.2-5.3c0.7,0,1.7,0.2,2.3,0.4
		l-0.2,1.6c-0.7-0.3-1.4-0.4-2-0.4c-2.1,0-3.3,1.8-3.3,3.8c0,1.8,1,3.8,3.4,3.8c0.6,0,1.4-0.2,2-0.6L408.6,182.1z"/>
	<path class="st1" d="M409.9,177.2c0-3.1,2.1-5.3,5.2-5.3c3,0,5.2,2.1,5.2,5.3c0,2.9-2.1,5.3-5.2,5.3
		C412.1,182.6,409.9,180.2,409.9,177.2z M418.3,177.2c0-2-1.2-3.8-3.2-3.8s-3.2,1.9-3.2,3.8c0,2,1.1,3.8,3.2,3.8
		C417.2,181,418.3,179.2,418.3,177.2z"/>
	<path class="st1" d="M435.4,182.3v-6.1c0-1.7-0.6-2.8-1.8-2.8c-1.8,0-2.7,1.7-2.7,3.8v5.1H429v-6.1c0-1.7-0.5-2.8-1.8-2.8
		c-1.8,0-2.7,1.7-2.7,3.8v5.1h-1.9v-10.2h1.8v1.5l0,0c0.7-1.2,1.7-1.7,3.2-1.7c1.3,0,2.4,0.7,2.9,2c0.6-1.2,1.9-2,3.2-2
		c2.3,0,3.5,1.4,3.5,3.9v6.5H435.4z"/>
</g>
</svg>
