<?xml version="1.0" encoding="utf-8"?>
<!-- Generator: Adobe Illustrator 21.1.0, SVG Export Plug-In . SVG Version: 6.00 Build 0)  -->
<svg version="1.1" id="Calque_1" xmlns="http://www.w3.org/2000/svg" xmlns:xlink="http://www.w3.org/1999/xlink" x="0px" y="0px"
	 viewBox="0 0 100 100" enable-background="new 0 0 100 100" xml:space="preserve">
<g>
	<path fill="#5BFFD0" d="M16.239,30.487l0.813-1.235l4.532,2.981c0.081,0.053,0.202,0.028,0.255-0.053l0.494-0.752
		c0.053-0.081,0.028-0.201-0.052-0.255l-4.532-2.981l0.813-1.236c0.059-0.088,0.028-0.201-0.052-0.255l-0.662-0.435
		c-0.081-0.053-0.196-0.037-0.255,0.053l-2.322,3.53c-0.059,0.088-0.028,0.201,0.053,0.255l0.662,0.435
		C16.066,30.593,16.181,30.576,16.239,30.487z"/>
	<path fill="#5BFFD0" d="M25.986,26.732l0.638-0.548c0.117-0.101,0.12-0.231,0.087-0.329l-0.32-1.101l2.195-1.881l1.039,0.484
		c0.139,0.059,0.229,0.059,0.338-0.036l0.638-0.548c0.111-0.094,0.087-0.24-0.038-0.298l-6.495-3.002
		c-0.06-0.025-0.12-0.037-0.194,0.026l-0.073,0.062c-0.066,0.057-0.071,0.125-0.056,0.187l1.951,6.896
		C25.736,26.781,25.876,26.826,25.986,26.732z M25.411,21.381l2.118,0.985l-1.476,1.264l-0.664-2.231L25.411,21.381z"/>
	<path fill="#5BFFD0" d="M35.658,19.686l-0.788-3.622c0.009-0.004,0.027-0.011,0.027-0.011l2.958,2.936
		c0.048,0.043,0.111,0.071,0.191,0.04l0.162-0.062c0.082-0.031,0.118-0.097,0.115-0.159l0.219-4.154c0,0,0.018-0.007,0.027-0.011
		l1.845,3.217c0.042,0.057,0.142,0.101,0.224,0.069l0.822-0.315c0.117-0.045,0.159-0.154,0.083-0.27l-3.39-5.657
		c-0.037-0.068-0.114-0.112-0.214-0.073l-0.144,0.056c-0.081,0.031-0.112,0.085-0.119,0.149l-0.352,5.023
		c-0.009,0.004-0.009,0.004-0.027,0.011l-3.62-3.499c-0.048-0.044-0.116-0.06-0.188-0.032l-0.144,0.055
		c-0.099,0.038-0.129,0.122-0.111,0.198l1.252,6.479c0.031,0.134,0.134,0.187,0.251,0.142l0.812-0.311
		C35.629,19.853,35.673,19.753,35.658,19.686z"/>
	<path fill="#5BFFD0" d="M47.058,16.778l2.339-0.071c1.18-0.037,2.083-0.848,2.049-1.93c-0.028-0.908-0.641-1.344-1.207-1.521
		l-0.002-0.048c0.495-0.266,0.942-0.812,0.92-1.537c-0.031-1.015-0.944-1.761-2.095-1.726l-2.213,0.068
		c-0.106,0.003-0.181,0.092-0.178,0.189l0.196,6.398C46.872,16.697,46.951,16.782,47.058,16.778z M49.275,15.569l-1.189,0.037
		l-0.053-1.721l1.189-0.037c0.484-0.014,0.861,0.332,0.877,0.814C50.114,15.166,49.758,15.555,49.275,15.569z M49.002,11.099
		c0.493-0.015,0.822,0.313,0.837,0.797c0.015,0.484-0.292,0.88-0.785,0.895L48,12.823l-0.052-1.692L49.002,11.099z"/>
	<path fill="#5BFFD0" d="M59.754,18.227c1.85,0.56,3.777-0.462,4.337-2.313c0.56-1.85-0.469-3.789-2.32-4.35
		c-1.85-0.56-3.773,0.484-4.334,2.334C56.878,15.75,57.903,17.666,59.754,18.227z M58.642,14.263
		c0.353-1.166,1.601-1.849,2.767-1.496c1.166,0.354,1.834,1.617,1.48,2.782c-0.353,1.166-1.604,1.827-2.77,1.475
		S58.288,15.43,58.642,14.263z"/>
	<path fill="#5BFFD0" d="M70.161,23.525c1.543,1.165,3.704,0.871,4.869-0.672c1.165-1.543,0.869-3.717-0.674-4.882
		c-1.543-1.165-3.708-0.85-4.874,0.693C68.318,20.206,68.618,22.359,70.161,23.525z M70.486,19.421
		c0.734-0.972,2.141-1.182,3.113-0.448c0.972,0.734,1.162,2.15,0.429,3.122c-0.734,0.972-2.137,1.16-3.109,0.427
		C69.947,21.788,69.752,20.393,70.486,19.421z"/>
	<path fill="#5BFFD0" d="M80.002,29.956l-1.404,2.5c-0.021,0.037-0.035,0.105,0.014,0.177l0.568,0.841
		c0.092,0.137,0.259,0.106,0.325-0.021L80.8,30.98c0.752,0.508,1.683,0.591,2.421,0.093c0.954-0.644,1.193-1.95,0.543-2.911
		l-1.548-2.293c-0.06-0.088-0.175-0.104-0.256-0.05l-5.306,3.583c-0.08,0.054-0.109,0.167-0.049,0.255l0.498,0.737
		c0.055,0.081,0.175,0.104,0.256,0.05l2.044-1.38L80.002,29.956z M81.86,27.418l0.882,1.306c0.286,0.425,0.183,1.031-0.242,1.318
		c-0.449,0.303-1.066,0.184-1.354-0.241l-0.882-1.306L81.86,27.418z"/>
	<path fill="#5BFFD0" d="M84.153,69.803c-0.081-0.053-0.196-0.037-0.255,0.053l-0.813,1.235l-4.532-2.981
		c-0.081-0.053-0.202-0.028-0.255,0.053l-0.494,0.752c-0.053,0.081-0.028,0.201,0.052,0.255l4.532,2.981l-0.813,1.236
		c-0.059,0.088-0.028,0.201,0.052,0.255l0.662,0.435c0.081,0.053,0.196,0.037,0.255-0.053l2.322-3.53
		c0.059-0.088,0.028-0.201-0.053-0.255L84.153,69.803z"/>
	<path fill="#5BFFD0" d="M74.439,73.695c-0.037-0.134-0.178-0.178-0.288-0.084l-0.638,0.548c-0.117,0.101-0.12,0.231-0.087,0.329
		l0.32,1.101L71.55,77.47l-1.039-0.484c-0.139-0.059-0.229-0.059-0.338,0.036l-0.638,0.548c-0.11,0.094-0.087,0.24,0.039,0.298
		l6.495,3.002c0.06,0.025,0.12,0.037,0.194-0.026l0.073-0.062c0.066-0.057,0.071-0.125,0.056-0.187L74.439,73.695z M74.726,78.962
		l-2.118-0.985l1.476-1.264l0.664,2.231L74.726,78.962z"/>
	<path fill="#5BFFD0" d="M65.402,80.147l-0.812,0.311c-0.082,0.031-0.126,0.131-0.111,0.197l0.788,3.622
		c-0.009,0.004-0.027,0.011-0.027,0.011l-2.958-2.936c-0.048-0.043-0.111-0.071-0.191-0.04l-0.162,0.062
		c-0.082,0.031-0.118,0.097-0.115,0.159l-0.219,4.154c0,0-0.018,0.007-0.027,0.011l-1.845-3.217
		c-0.042-0.057-0.142-0.101-0.223-0.069l-0.822,0.315c-0.117,0.045-0.159,0.154-0.083,0.27l3.391,5.658
		c0.037,0.069,0.114,0.112,0.214,0.073l0.144-0.056c0.081-0.031,0.112-0.085,0.119-0.149l0.352-5.023
		c0.009-0.004,0.009-0.004,0.027-0.011l3.62,3.499c0.048,0.044,0.116,0.06,0.188,0.032l0.144-0.055
		c0.099-0.038,0.129-0.122,0.111-0.198l-1.252-6.479C65.623,80.156,65.519,80.102,65.402,80.147z"/>
	<path fill="#5BFFD0" d="M53.079,83.564l-2.339,0.071c-1.18,0.037-2.083,0.848-2.049,1.93c0.028,0.908,0.641,1.345,1.207,1.521
		l0.001,0.048c-0.495,0.266-0.942,0.812-0.92,1.537c0.031,1.015,0.944,1.761,2.095,1.726l2.213-0.068
		c0.106-0.003,0.181-0.092,0.178-0.189l-0.196-6.397C53.265,83.645,53.185,83.56,53.079,83.564z M50.862,84.774l1.189-0.037
		l0.053,1.721l-1.189,0.037c-0.484,0.014-0.861-0.332-0.877-0.814C50.023,85.176,50.378,84.788,50.862,84.774z M51.135,89.244
		c-0.493,0.015-0.822-0.313-0.837-0.797s0.292-0.88,0.785-0.895l1.054-0.033l0.052,1.692L51.135,89.244z"/>
	<path fill="#5BFFD0" d="M40.383,82.116c-1.85-0.56-3.777,0.462-4.337,2.313c-0.56,1.851,0.469,3.789,2.32,4.35
		c1.85,0.56,3.773-0.484,4.334-2.334C43.259,84.594,42.233,82.676,40.383,82.116z M41.496,86.08
		c-0.353,1.166-1.601,1.849-2.767,1.496c-1.166-0.354-1.834-1.617-1.48-2.782c0.353-1.166,1.604-1.827,2.77-1.475
		C41.185,83.672,41.849,84.914,41.496,86.08z"/>
	<path fill="#5BFFD0" d="M29.976,76.819c-1.543-1.165-3.704-0.871-4.869,0.672c-1.165,1.543-0.869,3.717,0.674,4.882
		s3.708,0.85,4.874-0.693C31.82,80.137,31.519,77.984,29.976,76.819z M29.651,80.923c-0.734,0.972-2.141,1.182-3.113,0.448
		c-0.972-0.734-1.162-2.15-0.429-3.122s2.137-1.16,3.109-0.427C30.19,78.556,30.385,79.951,29.651,80.923z"/>
	<path fill="#5BFFD0" d="M23.034,69.948c-0.054-0.081-0.175-0.104-0.255-0.05l-2.044,1.38l-0.601-0.89l1.404-2.5
		c0.021-0.037,0.035-0.105-0.014-0.177l-0.568-0.841c-0.092-0.136-0.258-0.106-0.324,0.02l-1.295,2.472
		c-0.752-0.508-1.683-0.591-2.421-0.093c-0.954,0.644-1.193,1.949-0.543,2.911l1.548,2.293c0.06,0.088,0.175,0.104,0.256,0.05
		l5.306-3.583c0.08-0.054,0.109-0.167,0.05-0.255L23.034,69.948z M18.277,72.926l-0.882-1.306c-0.286-0.425-0.183-1.031,0.242-1.318
		c0.449-0.303,1.066-0.184,1.354,0.241l0.882,1.306L18.277,72.926z"/>
	<circle fill="#5BFFD0" cx="86.886" cy="50.24" r="1.482"/>
	<circle fill="#5BFFD0" cx="13.251" cy="50.24" r="1.482"/>
	<path fill="#5BFFD0" d="M61.366,65.341c-0.306,0.002-1.883,0.004-2.719,0.004c-2.528,0-3.528-0.307-4.476-1.326
		c-1.478-1.587-1.28-3.158-1.28-5.992V44.151h8.464v-7.972h-8.464v-9.643h-9.167v9.643H35.26v7.972h8.464v16.415
		c0,5.432,1.118,7.656,3.354,10.149c2.236,2.494,5.777,3.739,10.624,3.739c0.421,0,3.598-0.006,3.711-0.012L61.366,65.341z"/>
	<path fill="#5BFFD0" d="M81.337,20.751"/>
</g>
<g>

		<circle fill="none" stroke="#000000" stroke-width="1.946" stroke-miterlimit="10" stroke-dasharray="43.696,1.0551,0.0213,5.3181" cx="50.068" cy="50.171" r="47.845">
			<animateTransform attributeName="transform"
				attributeType="XML"
				type="rotate"
				from="0 50 50"
				to="360 50 50"
				dur="10s"
				repeatCount="indefinite" />
	</circle>
</g>
</svg>
