<svg xmlns="http://www.w3.org/2000/svg" xmlns:xlink="http://www.w3.org/1999/xlink" width="330" height="258" viewBox="0 0 330 258">
  <defs>
    <clipPath id="clip-Web_1920_1">
      <rect width="330" height="258"/>
    </clipPath>
  </defs>
  <g id="Web_1920_1" data-name="Web 1920 – 1" clip-path="url(#clip-Web_1920_1)">
    <g id="Group_274" data-name="Group 274" transform="translate(290.754 45.069) rotate(90)" opacity="0.12">
      <g id="Group_240" data-name="Group 240">
        <g id="Group_230" data-name="Group 230">
          <path id="Path_110" data-name="Path 110" d="M413.832,163.852a1.747,1.747,0,1,1-1.747-1.747A1.747,1.747,0,0,1,413.832,163.852Z" transform="translate(-410.337 -162.105)" fill="#242c36"/>
        </g>
        <g id="Group_231" data-name="Group 231" transform="translate(14.212 0)">
          <path id="Path_111" data-name="Path 111" d="M423.79,165.59a1.747,1.747,0,1,1,1.556-1.919A1.747,1.747,0,0,1,423.79,165.59Z" transform="translate(-421.861 -162.105)" fill="#242c36"/>
        </g>
        <g id="Group_232" data-name="Group 232" transform="translate(28.423 0)">
          <path id="Path_112" data-name="Path 112" d="M435.314,165.59a1.747,1.747,0,1,1,1.556-1.919A1.747,1.747,0,0,1,435.314,165.59Z" transform="translate(-433.385 -162.105)" fill="#242c36"/>
        </g>
        <g id="Group_233" data-name="Group 233" transform="translate(56.846 0)">
          <path id="Path_113" data-name="Path 113" d="M458.362,165.59a1.747,1.747,0,1,1,1.556-1.919A1.747,1.747,0,0,1,458.362,165.59Z" transform="translate(-456.433 -162.105)" fill="#242c36"/>
        </g>
        <g id="Group_234" data-name="Group 234" transform="translate(42.634 0)">
          <path id="Path_114" data-name="Path 114" d="M446.838,165.59a1.747,1.747,0,1,1,1.556-1.919A1.747,1.747,0,0,1,446.838,165.59Z" transform="translate(-444.909 -162.105)" fill="#242c36"/>
        </g>
        <g id="Group_235" data-name="Group 235" transform="translate(0 12.411)">
          <path id="Path_115" data-name="Path 115" d="M413.832,173.915a1.747,1.747,0,1,1-1.747-1.746A1.748,1.748,0,0,1,413.832,173.915Z" transform="translate(-410.337 -172.169)" fill="#242c36"/>
        </g>
        <g id="Group_236" data-name="Group 236" transform="translate(14.212 12.41)">
          <path id="Path_116" data-name="Path 116" d="M423.79,175.653a1.747,1.747,0,1,1,1.556-1.919A1.747,1.747,0,0,1,423.79,175.653Z" transform="translate(-421.861 -172.168)" fill="#242c36"/>
        </g>
        <g id="Group_237" data-name="Group 237" transform="translate(28.423 12.41)">
          <path id="Path_117" data-name="Path 117" d="M435.314,175.653a1.747,1.747,0,1,1,1.556-1.919A1.747,1.747,0,0,1,435.314,175.653Z" transform="translate(-433.385 -172.168)" fill="#242c36"/>
        </g>
        <g id="Group_238" data-name="Group 238" transform="translate(56.846 12.41)">
          <path id="Path_118" data-name="Path 118" d="M458.362,175.653a1.747,1.747,0,1,1,1.556-1.919A1.747,1.747,0,0,1,458.362,175.653Z" transform="translate(-456.433 -172.168)" fill="#242c36"/>
        </g>
        <g id="Group_239" data-name="Group 239" transform="translate(42.634 12.41)">
          <path id="Path_119" data-name="Path 119" d="M446.838,175.653a1.747,1.747,0,1,1,1.556-1.919A1.747,1.747,0,0,1,446.838,175.653Z" transform="translate(-444.909 -172.168)" fill="#242c36"/>
        </g>
      </g>
      <g id="Group_251" data-name="Group 251" transform="translate(0 25.622)">
        <g id="Group_241" data-name="Group 241">
          <path id="Path_120" data-name="Path 120" d="M413.832,184.629a1.747,1.747,0,1,1-1.747-1.747A1.748,1.748,0,0,1,413.832,184.629Z" transform="translate(-410.337 -182.882)" fill="#242c36"/>
        </g>
        <g id="Group_242" data-name="Group 242" transform="translate(14.212 0)">
          <path id="Path_121" data-name="Path 121" d="M423.79,186.367a1.747,1.747,0,1,1,1.556-1.919A1.747,1.747,0,0,1,423.79,186.367Z" transform="translate(-421.861 -182.882)" fill="#242c36"/>
        </g>
        <g id="Group_243" data-name="Group 243" transform="translate(28.423 0)">
          <path id="Path_122" data-name="Path 122" d="M435.314,186.367a1.747,1.747,0,1,1,1.556-1.919A1.747,1.747,0,0,1,435.314,186.367Z" transform="translate(-433.385 -182.882)" fill="#242c36"/>
        </g>
        <g id="Group_244" data-name="Group 244" transform="translate(56.846 0)">
          <path id="Path_123" data-name="Path 123" d="M458.362,186.367a1.747,1.747,0,1,1,1.556-1.919A1.747,1.747,0,0,1,458.362,186.367Z" transform="translate(-456.433 -182.882)" fill="#242c36"/>
        </g>
        <g id="Group_245" data-name="Group 245" transform="translate(42.634 0)">
          <path id="Path_124" data-name="Path 124" d="M446.838,186.367a1.747,1.747,0,1,1,1.556-1.919A1.747,1.747,0,0,1,446.838,186.367Z" transform="translate(-444.909 -182.882)" fill="#242c36"/>
        </g>
        <g id="Group_246" data-name="Group 246" transform="translate(0 12.411)">
          <path id="Path_125" data-name="Path 125" d="M413.832,194.693a1.747,1.747,0,1,1-1.747-1.747A1.747,1.747,0,0,1,413.832,194.693Z" transform="translate(-410.337 -192.946)" fill="#242c36"/>
        </g>
        <g id="Group_247" data-name="Group 247" transform="translate(14.212 12.411)">
          <path id="Path_126" data-name="Path 126" d="M423.79,196.431a1.747,1.747,0,1,1,1.556-1.919A1.747,1.747,0,0,1,423.79,196.431Z" transform="translate(-421.861 -192.946)" fill="#242c36"/>
        </g>
        <g id="Group_248" data-name="Group 248" transform="translate(28.423 12.411)">
          <path id="Path_127" data-name="Path 127" d="M435.314,196.431a1.747,1.747,0,1,1,1.556-1.919A1.747,1.747,0,0,1,435.314,196.431Z" transform="translate(-433.385 -192.946)" fill="#242c36"/>
        </g>
        <g id="Group_249" data-name="Group 249" transform="translate(56.846 12.411)">
          <path id="Path_128" data-name="Path 128" d="M458.362,196.431a1.747,1.747,0,1,1,1.556-1.919A1.747,1.747,0,0,1,458.362,196.431Z" transform="translate(-456.433 -192.946)" fill="#242c36"/>
        </g>
        <g id="Group_250" data-name="Group 250" transform="translate(42.634 12.411)">
          <path id="Path_129" data-name="Path 129" d="M446.838,196.431a1.747,1.747,0,1,1,1.556-1.919A1.747,1.747,0,0,1,446.838,196.431Z" transform="translate(-444.909 -192.946)" fill="#242c36"/>
        </g>
      </g>
      <g id="Group_262" data-name="Group 262" transform="translate(0 48.965)">
        <g id="Group_252" data-name="Group 252">
          <path id="Path_130" data-name="Path 130" d="M413.832,203.558a1.747,1.747,0,1,1-1.747-1.747A1.748,1.748,0,0,1,413.832,203.558Z" transform="translate(-410.337 -201.811)" fill="#242c36"/>
        </g>
        <g id="Group_253" data-name="Group 253" transform="translate(14.212 0)">
          <path id="Path_131" data-name="Path 131" d="M423.79,205.3a1.747,1.747,0,1,1,1.556-1.919A1.747,1.747,0,0,1,423.79,205.3Z" transform="translate(-421.861 -201.811)" fill="#242c36"/>
        </g>
        <g id="Group_254" data-name="Group 254" transform="translate(28.423 0)">
          <path id="Path_132" data-name="Path 132" d="M435.314,205.3a1.747,1.747,0,1,1,1.556-1.919A1.747,1.747,0,0,1,435.314,205.3Z" transform="translate(-433.385 -201.811)" fill="#242c36"/>
        </g>
        <g id="Group_255" data-name="Group 255" transform="translate(56.846 0)">
          <path id="Path_133" data-name="Path 133" d="M458.362,205.3a1.747,1.747,0,1,1,1.556-1.919A1.747,1.747,0,0,1,458.362,205.3Z" transform="translate(-456.433 -201.811)" fill="#242c36"/>
        </g>
        <g id="Group_256" data-name="Group 256" transform="translate(42.634 0)">
          <path id="Path_134" data-name="Path 134" d="M446.838,205.3a1.747,1.747,0,1,1,1.556-1.919A1.747,1.747,0,0,1,446.838,205.3Z" transform="translate(-444.909 -201.811)" fill="#242c36"/>
        </g>
        <g id="Group_257" data-name="Group 257" transform="translate(0 12.411)">
          <path id="Path_135" data-name="Path 135" d="M413.832,213.621a1.747,1.747,0,1,1-1.747-1.746A1.748,1.748,0,0,1,413.832,213.621Z" transform="translate(-410.337 -211.875)" fill="#242c36"/>
        </g>
        <g id="Group_258" data-name="Group 258" transform="translate(14.212 12.41)">
          <path id="Path_136" data-name="Path 136" d="M423.79,215.359a1.747,1.747,0,1,1,1.556-1.918A1.746,1.746,0,0,1,423.79,215.359Z" transform="translate(-421.861 -211.874)" fill="#242c36"/>
        </g>
        <g id="Group_259" data-name="Group 259" transform="translate(28.423 12.41)">
          <path id="Path_137" data-name="Path 137" d="M435.314,215.359a1.747,1.747,0,1,1,1.556-1.918A1.746,1.746,0,0,1,435.314,215.359Z" transform="translate(-433.385 -211.874)" fill="#242c36"/>
        </g>
        <g id="Group_260" data-name="Group 260" transform="translate(56.846 12.41)">
          <path id="Path_138" data-name="Path 138" d="M458.362,215.359a1.747,1.747,0,1,1,1.556-1.918A1.746,1.746,0,0,1,458.362,215.359Z" transform="translate(-456.433 -211.874)" fill="#242c36"/>
        </g>
        <g id="Group_261" data-name="Group 261" transform="translate(42.634 12.41)">
          <path id="Path_139" data-name="Path 139" d="M446.838,215.359a1.747,1.747,0,1,1,1.556-1.918A1.746,1.746,0,0,1,446.838,215.359Z" transform="translate(-444.909 -211.874)" fill="#242c36"/>
        </g>
      </g>
      <g id="Group_273" data-name="Group 273" transform="translate(0 74.588)">
        <g id="Group_263" data-name="Group 263" transform="translate(0 0.001)">
          <path id="Path_140" data-name="Path 140" d="M413.832,224.335a1.747,1.747,0,1,1-1.747-1.746A1.748,1.748,0,0,1,413.832,224.335Z" transform="translate(-410.337 -222.589)" fill="#242c36"/>
        </g>
        <g id="Group_264" data-name="Group 264" transform="translate(14.212)">
          <path id="Path_141" data-name="Path 141" d="M423.79,226.073a1.747,1.747,0,1,1,1.556-1.919A1.747,1.747,0,0,1,423.79,226.073Z" transform="translate(-421.861 -222.588)" fill="#242c36"/>
        </g>
        <g id="Group_265" data-name="Group 265" transform="translate(28.423)">
          <path id="Path_142" data-name="Path 142" d="M435.314,226.073a1.747,1.747,0,1,1,1.556-1.919A1.747,1.747,0,0,1,435.314,226.073Z" transform="translate(-433.385 -222.588)" fill="#242c36"/>
        </g>
        <g id="Group_266" data-name="Group 266" transform="translate(56.846)">
          <path id="Path_143" data-name="Path 143" d="M458.362,226.073a1.747,1.747,0,1,1,1.556-1.919A1.747,1.747,0,0,1,458.362,226.073Z" transform="translate(-456.433 -222.588)" fill="#242c36"/>
        </g>
        <g id="Group_267" data-name="Group 267" transform="translate(42.634)">
          <path id="Path_144" data-name="Path 144" d="M446.838,226.073a1.747,1.747,0,1,1,1.556-1.919A1.747,1.747,0,0,1,446.838,226.073Z" transform="translate(-444.909 -222.588)" fill="#242c36"/>
        </g>
        <g id="Group_268" data-name="Group 268" transform="translate(0 12.411)">
          <path id="Path_145" data-name="Path 145" d="M413.832,234.4a1.747,1.747,0,1,1-1.747-1.747A1.748,1.748,0,0,1,413.832,234.4Z" transform="translate(-410.337 -232.652)" fill="#242c36"/>
        </g>
        <g id="Group_269" data-name="Group 269" transform="translate(14.212 12.411)">
          <path id="Path_146" data-name="Path 146" d="M423.79,236.137a1.747,1.747,0,1,1,1.556-1.919A1.747,1.747,0,0,1,423.79,236.137Z" transform="translate(-421.861 -232.652)" fill="#242c36"/>
        </g>
        <g id="Group_270" data-name="Group 270" transform="translate(28.423 12.411)">
          <path id="Path_147" data-name="Path 147" d="M435.314,236.137a1.747,1.747,0,1,1,1.556-1.919A1.747,1.747,0,0,1,435.314,236.137Z" transform="translate(-433.385 -232.652)" fill="#242c36"/>
        </g>
        <g id="Group_271" data-name="Group 271" transform="translate(56.846 12.411)">
          <path id="Path_148" data-name="Path 148" d="M458.362,236.137a1.747,1.747,0,1,1,1.556-1.919A1.747,1.747,0,0,1,458.362,236.137Z" transform="translate(-456.433 -232.652)" fill="#242c36"/>
        </g>
        <g id="Group_272" data-name="Group 272" transform="translate(42.634 12.411)">
          <path id="Path_149" data-name="Path 149" d="M446.838,236.137a1.747,1.747,0,1,1,1.556-1.919A1.747,1.747,0,0,1,446.838,236.137Z" transform="translate(-444.909 -232.652)" fill="#242c36"/>
        </g>
      </g>
    </g>
    <g id="Group_275" data-name="Group 275" transform="translate(7 -214.908)" opacity="0.12">
      <g id="Group_145" data-name="Group 145" transform="translate(36.274 358.863)">
        <rect id="Rectangle_48" data-name="Rectangle 48" width="89.147" height="58.077" fill="#8873d5"/>
      </g>
      <g id="Group_166" data-name="Group 166" transform="translate(59.459 344.095)">
        <g id="Group_146" data-name="Group 146" transform="translate(0 52.118)">
          <path id="Path_70" data-name="Path 70" d="M61.393,386.978l-2.208,2.208-2.208-2.208L55.35,388.6l2.208,2.208-2.208,2.208,1.627,1.627,2.208-2.208,2.208,2.208,1.627-1.627-2.208-2.208L63.02,388.6Z" transform="translate(-55.35 -386.978)" fill="#fff"/>
        </g>
        <g id="Group_147" data-name="Group 147" transform="translate(0 34.745)">
          <path id="Path_71" data-name="Path 71" d="M61.393,372.684l-2.208,2.208-2.208-2.208-1.627,1.627,2.208,2.208-2.208,2.208,1.627,1.627,2.208-2.208,2.208,2.208,1.627-1.627-2.208-2.208,2.208-2.208Z" transform="translate(-55.35 -372.684)" fill="#fff"/>
        </g>
        <g id="Group_148" data-name="Group 148" transform="translate(0 17.373)">
          <path id="Path_72" data-name="Path 72" d="M61.393,358.39,59.185,360.6l-2.208-2.208-1.627,1.627,2.208,2.208-2.208,2.208,1.627,1.627,2.208-2.208,2.208,2.208,1.627-1.627-2.208-2.208,2.208-2.208Z" transform="translate(-55.35 -358.39)" fill="#fff"/>
        </g>
        <g id="Group_149" data-name="Group 149">
          <path id="Path_73" data-name="Path 73" d="M61.393,344.1,59.185,346.3,56.977,344.1l-1.627,1.627,2.208,2.208-2.208,2.208,1.627,1.627,2.208-2.208,2.208,2.208,1.627-1.627-2.208-2.208,2.208-2.208Z" transform="translate(-55.35 -344.095)" fill="#242c36"/>
        </g>
        <g id="Group_150" data-name="Group 150" transform="translate(18.928 52.118)">
          <path id="Path_74" data-name="Path 74" d="M76.967,386.978l-2.208,2.208-2.208-2.208L70.924,388.6l2.208,2.208-2.208,2.208,1.627,1.627,2.208-2.208,2.208,2.208,1.627-1.627-2.208-2.208,2.208-2.208Z" transform="translate(-70.924 -386.978)" fill="#fff"/>
        </g>
        <g id="Group_151" data-name="Group 151" transform="translate(18.928 34.745)">
          <path id="Path_75" data-name="Path 75" d="M76.967,372.684l-2.208,2.208-2.208-2.208-1.627,1.627,2.208,2.208-2.208,2.208,1.627,1.627,2.208-2.208,2.208,2.208,1.627-1.627-2.208-2.208,2.208-2.208Z" transform="translate(-70.924 -372.684)" fill="#fff"/>
        </g>
        <g id="Group_152" data-name="Group 152" transform="translate(18.928 17.373)">
          <path id="Path_76" data-name="Path 76" d="M76.967,358.39,74.759,360.6l-2.208-2.208-1.627,1.627,2.208,2.208-2.208,2.208,1.627,1.627,2.208-2.208,2.208,2.208,1.627-1.627-2.208-2.208,2.208-2.208Z" transform="translate(-70.924 -358.39)" fill="#fff"/>
        </g>
        <g id="Group_153" data-name="Group 153" transform="translate(18.928)">
          <path id="Path_77" data-name="Path 77" d="M76.967,344.1,74.759,346.3,72.551,344.1l-1.627,1.627,2.208,2.208-2.208,2.208,1.627,1.627,2.208-2.208,2.208,2.208,1.627-1.627-2.208-2.208,2.208-2.208Z" transform="translate(-70.924 -344.095)" fill="#242c36"/>
        </g>
        <g id="Group_154" data-name="Group 154" transform="translate(36.462 52.118)">
          <path id="Path_78" data-name="Path 78" d="M91.394,386.978l-2.208,2.208-2.208-2.208L85.351,388.6l2.208,2.208-2.208,2.208,1.627,1.627,2.208-2.208,2.208,2.208,1.627-1.627-2.208-2.208,2.208-2.208Z" transform="translate(-85.351 -386.978)" fill="#fff"/>
        </g>
        <g id="Group_155" data-name="Group 155" transform="translate(36.462 34.745)">
          <path id="Path_79" data-name="Path 79" d="M91.394,372.684l-2.208,2.208-2.208-2.208-1.627,1.627,2.208,2.208-2.208,2.208,1.627,1.627,2.208-2.208,2.208,2.208,1.627-1.627-2.208-2.208,2.208-2.208Z" transform="translate(-85.351 -372.684)" fill="#fff"/>
        </g>
        <g id="Group_156" data-name="Group 156" transform="translate(36.462 17.373)">
          <path id="Path_80" data-name="Path 80" d="M91.394,358.39,89.186,360.6l-2.208-2.208-1.627,1.627,2.208,2.208-2.208,2.208,1.627,1.627,2.208-2.208,2.208,2.208,1.627-1.627-2.208-2.208,2.208-2.208Z" transform="translate(-85.351 -358.39)" fill="#fff"/>
        </g>
        <g id="Group_157" data-name="Group 157" transform="translate(36.462)">
          <path id="Path_81" data-name="Path 81" d="M91.394,344.1,89.186,346.3,86.978,344.1l-1.627,1.627,2.208,2.208-2.208,2.208,1.627,1.627,2.208-2.208,2.208,2.208,1.627-1.627-2.208-2.208,2.208-2.208Z" transform="translate(-85.351 -344.095)" fill="#242c36"/>
        </g>
        <g id="Group_158" data-name="Group 158" transform="translate(55.39 52.118)">
          <path id="Path_82" data-name="Path 82" d="M106.968,386.978l-2.208,2.208-2.208-2.208-1.627,1.627,2.208,2.208-2.208,2.208,1.627,1.627,2.208-2.208,2.208,2.208,1.627-1.627-2.208-2.208,2.208-2.208Z" transform="translate(-100.925 -386.978)" fill="#fff"/>
        </g>
        <g id="Group_159" data-name="Group 159" transform="translate(55.39 34.745)">
          <path id="Path_83" data-name="Path 83" d="M106.968,372.684l-2.208,2.208-2.208-2.208-1.627,1.627,2.208,2.208-2.208,2.208,1.627,1.627,2.208-2.208,2.208,2.208,1.627-1.627-2.208-2.208,2.208-2.208Z" transform="translate(-100.925 -372.684)" fill="#fff"/>
        </g>
        <g id="Group_160" data-name="Group 160" transform="translate(55.39 17.373)">
          <path id="Path_84" data-name="Path 84" d="M106.968,358.39,104.76,360.6l-2.208-2.208-1.627,1.627,2.208,2.208-2.208,2.208,1.627,1.627,2.208-2.208,2.208,2.208,1.627-1.627-2.208-2.208,2.208-2.208Z" transform="translate(-100.925 -358.39)" fill="#fff"/>
        </g>
        <g id="Group_161" data-name="Group 161" transform="translate(55.39)">
          <path id="Path_85" data-name="Path 85" d="M106.968,344.1,104.76,346.3l-2.208-2.208-1.627,1.627,2.208,2.208-2.208,2.208,1.627,1.627,2.208-2.208,2.208,2.208,1.627-1.627-2.208-2.208,2.208-2.208Z" transform="translate(-100.925 -344.095)" fill="#242c36"/>
        </g>
        <g id="Group_162" data-name="Group 162" transform="translate(71.056 52.118)">
          <path id="Path_86" data-name="Path 86" d="M119.858,386.978l-2.208,2.208-2.208-2.208-1.627,1.627,2.208,2.208-2.208,2.208,1.627,1.627,2.208-2.208,2.208,2.208,1.627-1.627-2.208-2.208,2.208-2.208Z" transform="translate(-113.815 -386.978)" fill="#242c36"/>
        </g>
        <g id="Group_163" data-name="Group 163" transform="translate(71.056 34.745)">
          <path id="Path_87" data-name="Path 87" d="M119.858,372.684l-2.208,2.208-2.208-2.208-1.627,1.627,2.208,2.208-2.208,2.208,1.627,1.627,2.208-2.208,2.208,2.208,1.627-1.627-2.208-2.208,2.208-2.208Z" transform="translate(-113.815 -372.684)" fill="#242c36"/>
        </g>
        <g id="Group_164" data-name="Group 164" transform="translate(71.056 17.373)">
          <path id="Path_88" data-name="Path 88" d="M119.858,358.39,117.65,360.6l-2.208-2.208-1.627,1.627,2.208,2.208-2.208,2.208,1.627,1.627,2.208-2.208,2.208,2.208,1.627-1.627-2.208-2.208,2.208-2.208Z" transform="translate(-113.815 -358.39)" fill="#242c36"/>
        </g>
        <g id="Group_165" data-name="Group 165" transform="translate(71.056)">
          <path id="Path_89" data-name="Path 89" d="M119.858,344.1,117.65,346.3l-2.208-2.208-1.627,1.627,2.208,2.208-2.208,2.208,1.627,1.627,2.208-2.208,2.208,2.208,1.627-1.627-2.208-2.208,2.208-2.208Z" transform="translate(-113.815 -344.095)" fill="#242c36"/>
        </g>
      </g>
    </g>
  </g>
</svg>
