<?xml version="1.0" encoding="utf-8"?>
<!-- Generator: Adobe Illustrator 25.4.1, SVG Export Plug-In . SVG Version: 6.00 Build 0)  -->
<svg version="1.1" id="Calque_1" xmlns="http://www.w3.org/2000/svg" xmlns:xlink="http://www.w3.org/1999/xlink" x="0px" y="0px"
	 viewBox="0 0 430.1 107.2" style="enable-background:new 0 0 430.1 107.2;" xml:space="preserve">
<style type="text/css">
	.st0{fill:#FFFFFF;}
	.st1{enable-background:new    ;}
	.st2{fill:none;stroke:#FFFFFF;stroke-width:3;stroke-linecap:round;stroke-miterlimit:10;}
</style>
<g>
	<g>
		<g>
			<path class="st0" d="M137.1,50.5c0,26-12.6,48.5-37.1,48.5c-11.5,0-22.9-5.5-28.3-17.4l14.2-7.9c2.7,6,8.2,9,13.8,9
				c11,0,18.9-10,19.6-24c-4.3,4.4-10.6,7.5-19,7.5c-17.8,0-29.6-13-29.6-28.3c0-16.8,12.9-29.5,32.4-29.5
				C123.6,8.4,137.1,25.5,137.1,50.5z M117.8,38.3c0-7.8-6-13.4-14.7-13.5c-8.6,0-14.7,5.5-14.7,13.3c0,7.6,5.9,13.1,14.2,13.3
				C111.4,51.3,117.7,45.9,117.8,38.3z"/>
			<g>
				<path class="st0" d="M167.5,66.2c3.3,0,6.3-0.5,8.9-1.3c1.6-2.4,4.3-4,7.4-4c0.1,0,0.2,0,0.3,0c0.9-0.7,1.7-1.4,2.4-2.2
					c0,0.9-0.1,1.7-0.2,2.5c3.6,1.1,6.2,4.4,6.2,8.4c0,0.2,0,0.4,0,0.6l5.4-10.9h5.9c0.3-2.9,0.5-5.8,0.5-8.8
					c0-24.9-13.5-42.1-34-42.1c-19.6,0-32.4,12.7-32.4,29.5C137.9,53.2,149.6,66.2,167.5,66.2z M170.3,24.7
					c8.7,0.1,14.7,5.8,14.7,13.5c-0.1,7.6-6.4,13-15.3,13c-8.3-0.1-14.2-5.6-14.2-13.3S161.7,24.7,170.3,24.7z"/>
				<path class="st0" d="M189.4,76.2c-1.5,1.3-3.5,2.1-5.7,2.1c-1.6,0-3-0.4-4.3-1.1c-3.3,3.5-7.6,5.5-12.5,5.5
					c-5.6,0-11.1-2.9-13.8-9l-14.2,7.9c5.4,11.9,16.8,17.4,28.3,17.4c4.3,0,8.3-0.7,11.9-2L189.4,76.2z"/>
				<path class="st0" d="M183.7,70.8c0.7,0,1.2-0.5,1.2-1.2c0-0.4-0.2-0.7-0.4-0.9C184.3,69.4,184,70.1,183.7,70.8L183.7,70.8z"/>
			</g>
		</g>
		<g class="st1">
			<path class="st0" d="M176.3,69.5c0-4.1,3.2-7.4,7.3-7.4c4.1,0,7.4,3.3,7.4,7.4c0,4.1-3.3,7.3-7.4,7.3
				C179.5,76.9,176.3,73.7,176.3,69.5z M186.8,69.5c0-1.7-1.4-3.1-3.1-3.1c-1.8,0-3.1,1.4-3.1,3.1c0,1.8,1.3,3.1,3.1,3.1
				C185.4,72.7,186.8,71.4,186.8,69.5z M181,99l18.9-37.9h4.3l-19,37.9H181z M193.5,92.2c0-4.1,3.2-7.4,7.3-7.4
				c4.1,0,7.4,3.3,7.4,7.4c0,4.1-3.3,7.3-7.4,7.3C196.7,99.5,193.5,96.3,193.5,92.2z M204,92.2c0-1.8-1.4-3.2-3.2-3.2
				c-1.8,0-3.1,1.4-3.1,3.2c0,1.8,1.3,3.1,3.1,3.1C202.6,95.3,204,94,204,92.2z"/>
		</g>
	</g>
	<g>
		<g>
			<path class="st0" d="M21.9,50.3h6.6v2.3h-9.1V38.1h8.9v2.3H22v3.9h5.5v2.3H22v3.7H21.9z"/>
			<path class="st0" d="M38.2,42.7h2.4v9.8h-2.4V51c-0.7,1.1-2,1.8-3.4,1.8c-2.6,0-4.7-2.1-4.7-5.2c0-3,2-5.1,4.8-5.1
				c1.3,0,2.6,0.6,3.3,1.6C38.2,44.1,38.2,42.7,38.2,42.7z M38.2,47.6c0-1.7-1.4-2.9-2.8-2.9c-1.6,0-2.8,1.3-2.8,2.9
				s1.2,2.9,2.8,2.9C36.9,50.5,38.2,49.3,38.2,47.6z"/>
			<path class="st0" d="M50.4,42.7h2.4v9.8h-2.4V51c-0.5,1.2-2.1,1.8-3,1.8c-2.5,0-3.9-1.7-3.9-4.6v-5.5h2.4v5.4
				c0,1.6,0.9,2.4,2,2.4s2.5-0.6,2.5-2.5V42.7z"/>
			<path class="st0" d="M21.3,64.7c0,3.1-2.2,5.1-4.8,5.1c-1.2,0-2.6-0.5-3.3-1.6v6.1h-2.4V59.7h2.4V61c0.7-1,2.1-1.6,3.3-1.6
				C19,59.5,21.3,61.5,21.3,64.7z M18.9,64.7c0-1.6-1.3-2.9-2.8-2.9s-2.8,1.2-2.8,2.9c0,1.7,1.4,2.9,2.8,2.9
				C17.6,67.5,18.9,66.3,18.9,64.7z"/>
			<path class="st0" d="M30.4,59.7h2.4v9.8h-2.4V68c-0.5,1.2-2.1,1.8-3,1.8c-2.5,0-3.9-1.7-3.9-4.6v-5.5h2.4v5.4
				c0,1.6,0.9,2.4,2,2.4s2.5-0.6,2.5-2.5V59.7z"/>
			<path class="st0" d="M42.6,59.8l-0.5,2.3c-0.6-0.3-1.1-0.4-1.4-0.4c-1.6,0-2.5,1.6-2.5,4.3v3.4h-2.5v-9.8h2.4v2.1
				c0.5-1.6,1.6-2.4,2.8-2.4C41.6,59.5,42.2,59.6,42.6,59.8z"/>
			<path class="st0" d="M53.4,65.5h-7.6c0.3,1.4,1.3,2.1,2.8,2.1c1,0,2.1-0.5,2.6-1.3l1.6,1.2c-0.9,1.4-2.6,2.2-4.4,2.2
				c-2.9,0-5.1-2.1-5.1-5.2s2.3-5.1,5.1-5.1s5,2,5,5.1C53.5,64.8,53.5,65.1,53.4,65.5z M51.1,63.8c-0.1-1.3-1.2-2.1-2.6-2.1
				c-1.3,0-2.4,0.7-2.7,2.1H51.1z"/>
		</g>
	</g>
</g>
<g>
	<g>
		<g>
			<path class="st0" d="M321.8,69.6c0-0.7-0.5-1.2-1.2-1.2c0,0,0,0-0.1,0c-0.2,0.8-0.3,1.5-0.5,2.3c0.2,0.1,0.4,0.2,0.6,0.2
				C321.3,70.8,321.8,70.3,321.8,69.6z"/>
			<path class="st0" d="M331.9,85.7c0.6-0.5,1.2-1,1.9-1.3c1.6-3,2.9-6.4,3.8-10.2L331.9,85.7z"/>
			<path class="st0" d="M326.3,76.2c-1.5,1.3-3.5,2.1-5.7,2.1c-1.3,0-2.5-0.3-3.6-0.8c-2.2,3.2-5.3,5.1-9.6,5.1
				c-11.5,0-15-13-15-28.9c0-16.2,3.5-28.9,15-28.9c11.3,0,14.5,12.7,14.5,28.9c0,2.5-0.1,4.9-0.3,7.2c4.4,0.5,7.8,4.2,7.8,8.7
				c0,0.2,0,0.4,0,0.6l5.4-10.9h4.9c0.1-1.8,0.1-3.7,0.1-5.6c0-25.3-7.1-45.3-32.4-45.3c-25.6,0-32.8,20-32.8,45.3
				c0,24.9,7.2,45.3,32.8,45.3c2.9,0,5.5-0.3,8-0.8L326.3,76.2z"/>
		</g>
		<g class="st1">
			<path class="st0" d="M313,69.5c0-4.1,3.2-7.4,7.3-7.4c4.1,0,7.4,3.3,7.4,7.4c0,4.1-3.3,7.3-7.4,7.3C316.2,76.9,313,73.7,313,69.5
				z M323.5,69.5c0-1.7-1.4-3.1-3.1-3.1c-1.8,0-3.1,1.4-3.1,3.1c0,1.8,1.3,3.1,3.1,3.1C322,72.7,323.5,71.4,323.5,69.5z M317.7,99
				l18.9-37.9h4.3L322,99H317.7z M330.2,92.2c0-4.1,3.2-7.4,7.3-7.4c4.1,0,7.4,3.3,7.4,7.4c0,4.1-3.3,7.3-7.4,7.3
				C333.4,99.5,330.2,96.3,330.2,92.2z M340.7,92.2c0-1.8-1.4-3.2-3.2-3.2c-1.8,0-3.1,1.4-3.1,3.2c0,1.8,1.3,3.1,3.1,3.1
				C339.3,95.3,340.7,94,340.7,92.2z"/>
		</g>
	</g>
	<g>
		<path class="st0" d="M364.5,27.3l-1-2.9h-4.6l-1,2.9h-2.2l4.4-11.7h2.2l4.4,11.7H364.5z M359.5,22.7h3.3l-1.7-4.8L359.5,22.7z"/>
		<path class="st0" d="M373.9,15.1h2v12.3h-2v-1.1c-0.5,0.8-1.7,1.3-2.6,1.3c-2.1,0-3.9-1.6-3.9-4.2c0-2.5,1.8-4.2,3.9-4.2
			c1,0,2.1,0.4,2.7,1.2v-5.3H373.9z M373.9,23.3c0-1.4-1.2-2.3-2.3-2.3c-1.2,0-2.2,1-2.2,2.3s1,2.4,2.2,2.4
			C372.8,25.7,373.9,24.7,373.9,23.3z"/>
		<path class="st0" d="M384.3,15.1h2v12.3h-2v-1.1c-0.5,0.8-1.7,1.3-2.6,1.3c-2.1,0-3.9-1.6-3.9-4.2c0-2.5,1.8-4.2,3.9-4.2
			c1,0,2.1,0.4,2.7,1.2v-5.3H384.3z M384.2,23.3c0-1.4-1.2-2.3-2.3-2.3c-1.2,0-2.2,1-2.2,2.3s1,2.4,2.2,2.4
			C383.2,25.7,384.2,24.7,384.2,23.3z"/>
		<path class="st0" d="M388.3,16.6c0-0.7,0.6-1.2,1.3-1.2c0.7,0,1.3,0.5,1.3,1.2c0,0.7-0.6,1.2-1.3,1.2
			C388.9,17.8,388.3,17.3,388.3,16.6z M388.6,27.3v-7.9h2v7.9H388.6z"/>
		<path class="st0" d="M397.3,19.4V21h-1.7v6.4h-2V21h-1.4v-1.6h1.4v-2.9h2v2.9H397.3z"/>
		<path class="st0" d="M398.5,16.6c0-0.7,0.6-1.2,1.3-1.2c0.7,0,1.3,0.5,1.3,1.2c0,0.7-0.6,1.2-1.3,1.2
			C399.1,17.8,398.5,17.3,398.5,16.6z M398.8,27.3v-7.9h2v7.9H398.8z"/>
		<path class="st0" d="M407.6,16.9c-1.3,0-1.7,0.7-1.7,1.7v0.8h1.8V21h-1.8v6.4h-2V21h-1.5v-1.6h1.5v-0.7c0-2.3,1.1-3.7,3.3-3.7h0.9
			v1.8h-0.5V16.9z"/>
		<path class="st0" d="M362,32.6c2.6,0,3.7,1.9,3.7,3.8c0,1.9-1.1,3.8-3.7,3.8h-2.7v4.2h-2.1V32.6H362z M361.9,38.3
			c1.2,0,1.7-0.9,1.7-1.9c0-0.9-0.5-1.9-1.7-1.9h-2.6v3.8C359.3,38.3,361.9,38.3,361.9,38.3z"/>
		<path class="st0" d="M373.1,36.4h2v7.9h-2v-1.2c-0.5,0.9-1.6,1.4-2.7,1.4c-2.1,0-3.8-1.7-3.8-4.2c0-2.4,1.6-4.2,3.9-4.2
			c1.1,0,2.1,0.5,2.7,1.3v-1H373.1z M373.1,40.3c0-1.4-1.1-2.3-2.3-2.3c-1.3,0-2.2,1.1-2.2,2.3c0,1.3,1,2.3,2.3,2.3
			C372,42.7,373.1,41.7,373.1,40.3z"/>
		<path class="st0" d="M383,36.5l-0.4,1.9c-0.5-0.2-0.9-0.3-1.2-0.3c-1.3,0-2,1.3-2,3.5v2.8h-2v-7.9h2v1.7c0.4-1.3,1.3-1.9,2.3-1.9
			C382.1,36.2,382.6,36.3,383,36.5z"/>
		<path class="st0" d="M388.7,33.9c-1.3,0-1.7,0.7-1.7,1.7v0.8h1.8V38H387v6.4h-2V38h-1.5v-1.6h1.5v-0.7c0-2.3,1.1-3.7,3.3-3.7h0.9
			v1.8h-0.5V33.9z"/>
		<path class="st0" d="M395.8,36.4h2v7.9h-2v-1.2c-0.4,1-1.7,1.4-2.5,1.4c-2,0-3.2-1.4-3.2-3.7v-4.5h2v4.4c0,1.3,0.8,1.9,1.6,1.9
			c0.9,0,2-0.5,2-2.1v-4.1H395.8z"/>
		<path class="st0" d="M412.7,39.9v4.5h-2V40c0-1.3-0.7-1.9-1.6-1.9c-1.1,0-1.8,0.8-1.8,2.4v3.9h-2V40c0-1.3-0.7-1.9-1.5-1.9
			c-0.9,0-1.8,0.5-1.8,2.1v4.2h-2v-7.9h2V38c0.2-1.1,1.4-1.7,2.4-1.7c1.2,0,2.1,0.6,2.6,1.6c0.6-1.2,1.9-1.6,2.7-1.6
			C411.6,36.2,412.7,37.6,412.7,39.9z"/>
		<path class="st0" d="M362,49.6c2.6,0,3.7,1.9,3.7,3.8c0,1.9-1.1,3.8-3.7,3.8h-2.7v4.2h-2.1V49.6H362z M361.9,55.3
			c1.2,0,1.7-0.9,1.7-1.9c0-0.9-0.5-1.9-1.7-1.9h-2.6v3.8C359.3,55.3,361.9,55.3,361.9,55.3z"/>
		<path class="st0" d="M373.1,53.4h2v7.9h-2v-1.2c-0.5,0.9-1.6,1.4-2.7,1.4c-2.1,0-3.8-1.7-3.8-4.2c0-2.4,1.6-4.2,3.9-4.2
			c1.1,0,2.1,0.5,2.7,1.3v-1H373.1z M373.1,57.3c0-1.4-1.1-2.3-2.3-2.3c-1.3,0-2.2,1.1-2.2,2.3c0,1.3,1,2.3,2.3,2.3
			C372,59.7,373.1,58.7,373.1,57.3z"/>
		<path class="st0" d="M383,53.5l-0.4,1.9c-0.5-0.2-0.9-0.3-1.2-0.3c-1.3,0-2,1.3-2,3.5v2.8h-2v-7.9h2v1.7c0.4-1.3,1.3-1.9,2.3-1.9
			C382.1,53.2,382.6,53.3,383,53.5z"/>
		<path class="st0" d="M390.1,53.4h2v7.9h-2v-1.2c-0.5,0.9-1.6,1.4-2.7,1.4c-2.1,0-3.8-1.7-3.8-4.2c0-2.4,1.6-4.2,3.9-4.2
			c1.1,0,2.1,0.5,2.7,1.3v-1H390.1z M390,57.3c0-1.4-1.1-2.3-2.3-2.3c-1.3,0-2.2,1.1-2.2,2.3c0,1.3,1,2.3,2.3,2.3
			C389,59.7,390,58.7,390,57.3z"/>
		<path class="st0" d="M402.9,57.3c0,2.5-1.8,4.2-3.9,4.2c-1,0-2.1-0.4-2.6-1.3v1.1h-2V49.1h2v5.4c0.5-0.8,1.6-1.3,2.7-1.3
			C401.1,53.2,402.9,54.8,402.9,57.3z M400.9,57.3c0-1.3-1-2.3-2.2-2.3c-1.1,0-2.3,0.9-2.3,2.3c0,1.4,1.1,2.4,2.3,2.4
			C399.9,59.7,400.9,58.7,400.9,57.3z"/>
		<path class="st0" d="M412.5,58h-6.2c0.2,1.1,1.1,1.7,2.3,1.7c0.9,0,1.7-0.4,2.1-1l1.3,1c-0.7,1.2-2.1,1.8-3.6,1.8
			c-2.4,0-4.2-1.7-4.2-4.2s1.9-4.2,4.2-4.2c2.3,0,4,1.6,4,4.1C412.5,57.5,412.5,57.8,412.5,58z M410.6,56.7c-0.1-1.1-1-1.7-2.1-1.7
			s-1.9,0.5-2.2,1.7H410.6z"/>
		<path class="st0" d="M422,56.9v4.5h-2V57c0-1.3-0.8-2-1.6-2c-0.9,0-2,0.5-2,2.1v4.2h-2v-7.9h2v1.3c0.4-1,1.6-1.5,2.5-1.5
			C420.8,53.2,422,54.6,422,56.9z"/>
		<path class="st0" d="M364.5,78.3l-1-2.9h-4.6l-1,2.9h-2.2l4.4-11.7h2.2l4.4,11.7H364.5z M359.5,73.7h3.3l-1.7-4.8L359.5,73.7z"/>
		<path class="st0" d="M367.9,78.3V66.1h2v12.3L367.9,78.3L367.9,78.3z"/>
		<path class="st0" d="M371.7,74.3c0-2.5,2-4.2,4.3-4.2c1.4,0,2.5,0.6,3.2,1.5l-1.4,1.1c-0.4-0.5-1.1-0.8-1.8-0.8
			c-1.4,0-2.4,1-2.4,2.3s1,2.3,2.4,2.3c0.7,0,1.4-0.3,1.8-0.8l1.4,1.1c-0.7,0.9-1.9,1.5-3.2,1.5C373.7,78.5,371.7,76.9,371.7,74.3z"
			/>
		<path class="st0" d="M380.3,74.3c0-2.5,2-4.2,4.2-4.2s4.2,1.6,4.2,4.2s-2,4.2-4.2,4.2S380.3,76.9,380.3,74.3z M386.7,74.3
			c0-1.4-1-2.3-2.2-2.3s-2.2,1-2.2,2.3c0,1.4,1,2.3,2.2,2.3S386.7,75.7,386.7,74.3z"/>
		<path class="st0" d="M390.1,74.3c0-2.5,2-4.2,4.2-4.2s4.2,1.6,4.2,4.2s-2,4.2-4.2,4.2S390.1,76.9,390.1,74.3z M396.5,74.3
			c0-1.4-1-2.3-2.2-2.3s-2.2,1-2.2,2.3c0,1.4,1,2.3,2.2,2.3S396.5,75.7,396.5,74.3z"/>
		<path class="st0" d="M400.4,78.3V66.1h2v12.3L400.4,78.3L400.4,78.3z"/>
		<path class="st0" d="M362,83.6c2.6,0,3.7,1.9,3.7,3.8s-1.1,3.8-3.7,3.8h-2.7v4.2h-2.1V83.6H362z M361.9,89.3
			c1.2,0,1.7-0.9,1.7-1.9c0-0.9-0.5-1.9-1.7-1.9h-2.6v3.8H361.9z"/>
		<path class="st0" d="M369.8,93.5h5.3v1.9h-7.4V83.6h7.2v1.9h-5.1v3.2h4.5v1.9h-4.5V93.5z"/>
		<path class="st0" d="M376.4,89.5c0-3.3,2.6-6.1,6-6.1c1.7,0,3.2,0.7,4.2,1.8l-1.5,1.3c-0.7-0.7-1.6-1.1-2.7-1.1
			c-2.2,0-3.9,1.9-3.9,4.2c0,2.2,1.7,4.2,3.9,4.2c1.7,0,3.3-1.1,3.3-2.6h-3.3v-1.7h5.6c0,4.3-2.3,6.2-5.6,6.2
			C379,95.5,376.4,92.8,376.4,89.5z"/>
	</g>
</g>
<line class="st2" x1="239.7" y1="11.9" x2="239.7" y2="95.3"/>
</svg>
