<?xml version="1.0" encoding="utf-8"?>
<!-- Generator: Adobe Illustrator 25.4.1, SVG Export Plug-In . SVG Version: 6.00 Build 0)  -->
<svg version="1.1" id="Calque_1" xmlns="http://www.w3.org/2000/svg" xmlns:xlink="http://www.w3.org/1999/xlink" x="0px" y="0px"
	 viewBox="0 0 324 320" style="enable-background:new 0 0 324 320;" xml:space="preserve">
<style type="text/css">
	.st0{opacity:0.4;fill:#63C9BB;}
	.st1{fill:#63C9BB;}
	.st2{fill-rule:evenodd;clip-rule:evenodd;fill:#FFFFFF;}
</style>
<circle class="st0" cx="154" cy="164.8" r="117.6"/>
<g>
	<path class="st1" d="M28.5,142.7c8-45.6,40.2-82.9,82.8-98.3l-2,3.5c-2.8,4.8-1.1,11,3.7,13.8c1.6,0.9,3.3,1.4,5,1.4
		c3.5,0,6.9-1.8,8.8-5l13.9-24.1c1.3-2.3,1.7-5.1,1-7.7c-0.7-2.6-2.4-4.8-4.7-6.1L112.9,6.2c-4.8-2.8-11-1.1-13.8,3.7
		c-2.8,4.8-1.1,11,3.7,13.8l2.5,1.5c-49.7,17.6-87.4,61-96.7,114.1c-4.5,25.7-2.2,52.1,6.7,76.5c1.5,4.1,5.4,6.6,9.5,6.6
		c1.1,0,2.3-0.2,3.5-0.6c5.2-1.9,7.9-7.7,6-12.9C26.5,187.7,24.5,164.9,28.5,142.7z"/>
	<path class="st1" d="M267,246.1c-4.3-3.6-10.6-3-14.2,1.2c-29.4,34.9-75.5,51.7-120.4,43.8c-21.8-3.8-42.1-13.3-59-27.2h3.2
		c5.6,0,10.1-4.5,10.1-10.1c0-5.6-4.5-10.1-10.1-10.1H49.7c-2.6-0.2-5.3,0.5-7.4,2.3c-2.1,1.8-3.3,4.2-3.6,6.7c0,0,0,0,0,0
		c0,0,0,0,0,0c0,0.3,0,0.6,0,0.9c0,0.1,0,0.1,0,0.2l0,27.8c0,5.6,4.5,10.1,10.1,10.1h0c5.6,0,10.1-4.5,10.1-10.1l0-3.5
		c19.9,16.8,44.1,28.3,70,32.8c8.5,1.5,17.1,2.2,25.6,2.2c43.4,0,85.4-19.1,113.8-52.9C271.8,256,271.3,249.7,267,246.1z"/>
	<path class="st1" d="M317.3,194.6c-2.8-4.8-9-6.5-13.8-3.7l-3.3,1.9c0.1-0.7,0.3-1.4,0.4-2.1c6.9-39-1.8-78.4-24.6-110.8
		s-56.7-54.1-95.7-61c-5.5-1-10.7,2.7-11.7,8.2c-1,5.5,2.7,10.7,8.2,11.7c33.7,5.9,63.1,24.6,82.7,52.7c19.6,28,27.1,61.9,21.3,95.5
		l-1.5-2.6c-2.8-4.8-9-6.5-13.8-3.7c-4.8,2.8-6.5,9-3.7,13.8l13.9,24.1c1.3,2.3,3.5,4,6.1,4.7c0.9,0.2,1.7,0.3,2.6,0.3
		c1.8,0,3.5-0.5,5-1.4l24.1-13.9C318.5,205.6,320.1,199.4,317.3,194.6z"/>
</g>
<g>
	<polygon class="st2" points="189.5,110 191.6,113.7 193.7,117.6 195.6,121.6 197.5,125.7 199.3,129.9 201,134.2 202.5,138.6 
		203.9,143.1 205.1,147.6 206.1,152.2 206.8,156.8 207.3,161.4 207.6,166.1 207.6,170.7 207.2,175.2 207.2,175.3 207.2,175.3 
		206.9,177.4 206.6,179.6 206.1,182.1 205.4,184.7 204.8,187.5 203.9,190.3 202.9,193.3 201.7,196.3 200.4,199.3 198.9,202.4 
		197.3,205.4 195.5,208.5 193.4,211.5 191.2,214.4 188.9,217.2 186.2,219.9 183.4,222.4 180.4,224.8 177.2,226.9 173.7,228.8 
		170.5,230.2 172.2,230 175.6,229.3 178.9,228.3 182,227.1 185.1,225.7 188,224 190.8,222.3 193.4,220.4 196,218.3 198.4,216.1 
		200.6,213.8 202.8,211.5 204.8,209.2 206.6,206.8 208.3,204.5 209.9,202.2 211.3,199.9 212.5,197.8 213.6,195.7 214.5,193.9 
		215.3,192.2 216.8,188.2 218.1,184.2 219.1,180 219.9,175.8 220.4,171.4 220.8,167.1 221,162.6 221,158.2 220.8,153.8 220.5,149.4 
		220,145 219.4,140.7 218.8,136.5 217.9,132.3 217,128.3 216.1,124.5 215.1,120.7 214,117.2 212.9,113.9 211.8,110.7 210.7,107.8 
		209.6,105.3 208.6,102.9 207.6,100.9 206.6,99.2 205.8,97.9 205.1,97 205,96.9 204.9,96.9 203.8,97.3 202.2,97.9 200.4,98.7 
		198.3,99.7 195.9,100.9 193.4,102.3 190.7,104 187.8,105.8 187.2,106.2 187.4,106.5 	"/>
	<polygon class="st2" points="131.6,254.8 131.4,255.5 131.5,256.3 131.7,257 132.1,257.7 132.7,258.3 133.4,258.6 134.1,258.8 
		134.9,258.7 135.6,258.5 136.3,258.2 136.5,258 136.8,257.7 137.3,257.2 137.9,256.6 138.7,255.8 139.6,254.7 140.6,253.5 
		141.8,252.1 142.9,250.5 144.2,248.6 145.6,246.6 146.9,244.3 148.4,241.7 149.7,239 151.2,235.9 152,233.9 152.2,234 152.8,234 
		157.4,233.6 161.8,232.9 166,231.9 170,230.5 170.5,230.2 168.7,230.5 165,230.6 161.2,230.4 157.3,229.9 155.1,229.4 156.7,227.3 
		159.1,223.8 161.7,220 164.2,215.9 166.7,211.5 169.2,206.7 171.7,201.7 174.2,196.3 176.6,190.6 179,184.5 181.3,178.1 
		183.6,171.3 185.8,164.1 187.9,156.6 188,156.5 188,155.8 188,155 187.6,154.3 187.2,153.7 186.6,153.1 185.8,152.8 185,152.8 
		184.3,152.8 183.5,153.2 182.9,153.7 182.4,154.3 182.1,154.9 180,162.4 177.9,169.4 175.6,176.1 173.4,182.4 171,188.3 
		168.7,193.9 166.3,199.1 163.8,204 161.4,208.6 159,212.8 156.6,216.7 154.2,220.4 151.8,223.8 149.5,226.8 149.5,226.9 149,226.6 
		146.7,224.9 144.6,223 142.5,220.7 140.4,218.3 138.6,215.6 136.8,212.7 135.3,209.6 133.8,206.3 132.6,202.9 131.6,199.3 
		130.9,195.5 130.4,191.6 130.1,187.5 130.1,183.4 130.4,179.1 131.1,174.8 132,170.4 133.3,165.9 134.9,161.4 137,156.8 
		139.4,152.2 141.7,148.8 144.1,145.3 146.7,141.9 149.6,138.6 152.5,135.2 155.6,132 158.7,128.9 162,125.9 165.2,122.9 168.5,120 
		171.9,117.3 175.2,114.7 178.5,112.3 181.7,110 184.8,107.9 187.2,106.2 185.2,103.1 183.1,99.9 181,96.9 179,94.1 177,91.6 
		175,89.2 173.2,87.2 171.6,85.4 170,83.8 168.5,82.5 167.1,81.5 165.9,80.8 165.2,80.6 164.5,80.4 163.8,80.3 163.8,80.3 
		163.1,80.4 162.3,80.5 161.7,80.8 160.5,81.3 159,82.3 157.4,83.6 155.7,85.1 153.8,86.8 151.8,88.8 149.7,91 147.5,93.5 
		145.2,96.2 142.8,99 140.4,102.1 137.9,105.3 135.4,108.7 132.9,112.3 130.5,115.9 128,119.8 125.7,123.6 123.4,127.6 121.2,131.7 
		119.1,135.8 117.2,140.1 115.4,144.3 113.8,148.5 112.4,152.8 111.1,157 111.2,157.1 111.1,157.2 110.1,162.7 109.4,168 
		109.1,173.2 109.1,178.3 109.6,183.3 110.3,188 111.3,192.6 112.7,196.9 114.2,201.1 116,205.1 118,208.8 120.3,212.4 122.7,215.7 
		125.2,218.7 127.9,221.5 130.8,224.1 133.7,226.3 136.7,228.4 139.7,230.1 142.9,231.5 146,232.7 146,232.7 145.7,233.4 
		144.3,236.3 143,238.9 141.7,241.2 140.4,243.4 139.2,245.3 138,247 137,248.5 135.9,249.7 135,250.8 134.3,251.7 133.6,252.4 
		133.1,252.9 132.7,253.3 132.5,253.5 132.5,253.5 131.9,254 	"/>
</g>
</svg>
