<?xml version="1.0" encoding="utf-8"?>
<!-- Generator: Adobe Illustrator 25.4.1, SVG Export Plug-In . SVG Version: 6.00 Build 0)  -->
<svg version="1.1" id="Calque_1" xmlns="http://www.w3.org/2000/svg" xmlns:xlink="http://www.w3.org/1999/xlink" x="0px" y="0px"
	 viewBox="0 0 166.5 163.8" style="enable-background:new 0 0 166.5 163.8;" xml:space="preserve">
<style type="text/css">
	.st0{fill:#666666;}
</style>
<path class="st0" d="M123.1,37.3c-0.2,0.3-0.2,0.6-0.2,0.9c0,0.3,0.1,0.6,0.3,1c0.2,0.3,0.5,0.7,0.9,1.1l1.4-1
	c-0.2-0.2-0.3-0.4-0.3-0.5c-0.1-0.1-0.1-0.3-0.1-0.4c0-0.1,0.1-0.3,0.1-0.4c0.1-0.1,0.2-0.3,0.3-0.4l5.4-5.7l-1.7-1.2l-5.5,5.8
	C123.4,36.7,123.2,37,123.1,37.3z M126.2,40.4c-0.2,0.3-0.3,0.6-0.3,0.9c0,0.3,0.1,0.6,0.2,1c0.2,0.4,0.4,0.8,0.8,1.2l1.5-0.9
	c-0.2-0.2-0.3-0.4-0.3-0.5c-0.1-0.2-0.1-0.3,0-0.4c0-0.1,0.1-0.2,0.2-0.4c0.1-0.1,0.2-0.2,0.3-0.4l5.9-5.3l-1.6-1.3l-5.9,5.4
	C126.6,39.9,126.4,40.2,126.2,40.4z M133.1,43.2c0.3-0.4,0.5-0.7,0.8-1.1c0.3-0.4,0.5-0.7,0.7-1l-1.3-1.7c-0.9,1.2-1.7,2.3-2.3,3.4
	c-0.6,1.1-1.2,2.1-1.6,3c-0.4,0.1-0.7,0.1-1,0.1c-0.3,0-0.5-0.2-0.7-0.5c-0.1-0.1-0.2-0.3-0.3-0.4c-0.1-0.1-0.2-0.3-0.2-0.5
	l-1.5,0.7c0,0.2,0.1,0.4,0.2,0.7c0.1,0.3,0.3,0.5,0.5,0.8c0.2,0.3,0.5,0.6,0.7,0.7c0.2,0.2,0.5,0.3,0.8,0.4c0.3,0.1,0.6,0.1,1,0.1
	c0.3,0,0.7-0.1,1.2-0.2c1.2-0.3,2.5-0.6,3.7-0.9c1.3-0.4,2.6-0.8,3.9-1.3l-1.3-1.7c-0.3,0.1-0.7,0.3-1.1,0.4
	c-0.4,0.2-0.8,0.3-1.2,0.5c-0.4,0.2-0.8,0.3-1.2,0.4c-0.4,0.1-0.8,0.3-1.1,0.4c0.2-0.3,0.4-0.6,0.6-1
	C132.5,43.9,132.8,43.5,133.1,43.2z M97.8,139.3l0.8,3.2c-0.2,0-0.5-0.1-0.7-0.1c-0.2,0-0.5,0-0.8,0.1c-0.5,0.1-0.9,0.3-1.3,0.6
	c-0.3,0.3-0.6,0.6-0.8,1c-0.2,0.4-0.3,0.8-0.3,1.3c0,0.5,0,1,0.2,1.6c0.1,0.6,0.4,1,0.6,1.5c0.3,0.4,0.6,0.7,1,1
	c0.4,0.2,0.8,0.4,1.3,0.4c0.5,0,1,0,1.6-0.2c0.2-0.1,0.5-0.1,0.7-0.2c0.3-0.1,0.5-0.2,0.8-0.3c0.2-0.1,0.5-0.2,0.7-0.3
	c0.2-0.1,0.4-0.2,0.6-0.3l-2.7-10.1L97.8,139.3z M99.6,147.9c-0.1,0.1-0.3,0.1-0.5,0.1c-0.5,0.1-1,0.1-1.4-0.2
	c-0.4-0.3-0.6-0.8-0.8-1.4c-0.3-1.3,0-2,0.9-2.3c0.2-0.1,0.4-0.1,0.6-0.1c0.2,0,0.4,0,0.5,0.1l0.9,3.6
	C99.9,147.8,99.8,147.8,99.6,147.9z M78.9,145.7c0.3,0,0.7,0.1,0.9,0.2c0.3,0.1,0.5,0.2,0.8,0.3l0.5-1.6c-0.2-0.1-0.5-0.2-0.9-0.3
	c-0.4-0.1-0.8-0.2-1.3-0.2c-0.9-0.1-1.6,0.1-2.1,0.4c-0.5,0.4-0.8,0.9-0.9,1.5c0,0.3,0,0.7,0.1,0.9c0.1,0.3,0.2,0.5,0.4,0.7
	c0.2,0.2,0.4,0.4,0.6,0.5c0.3,0.2,0.5,0.3,0.8,0.4c0.4,0.2,0.7,0.4,0.9,0.5c0.2,0.1,0.3,0.3,0.3,0.5c0,0.2-0.1,0.3-0.3,0.4
	c-0.2,0.1-0.4,0.1-0.8,0c-0.4,0-0.7-0.1-1.1-0.2c-0.4-0.1-0.7-0.2-1-0.4l-0.5,1.6c0.2,0.1,0.4,0.2,0.9,0.4c0.4,0.1,0.9,0.2,1.6,0.3
	c1,0.1,1.8,0,2.3-0.4c0.6-0.3,0.9-0.8,0.9-1.6c0-0.3,0-0.6,0-0.8c0-0.2-0.2-0.5-0.3-0.7c-0.2-0.2-0.4-0.4-0.7-0.6
	c-0.3-0.2-0.6-0.4-1.1-0.6c-0.2-0.1-0.4-0.2-0.5-0.3c-0.1-0.1-0.2-0.2-0.3-0.2c-0.1-0.1-0.1-0.1-0.1-0.2c0-0.1,0-0.1,0-0.2
	C77.9,145.8,78.3,145.6,78.9,145.7z M72.3,143.1c-0.4-0.1-0.9-0.1-1.3,0c-0.4,0.1-0.9,0.2-1.2,0.5c-0.4,0.2-0.7,0.6-1,1
	c-0.3,0.4-0.5,1-0.6,1.6c-0.1,0.5-0.1,1-0.1,1.5c0.1,0.5,0.2,0.9,0.4,1.3c0.2,0.4,0.6,0.7,1,1c0.4,0.3,1,0.5,1.6,0.6
	c0.3,0.1,0.5,0.1,0.8,0.1c0.3,0,0.5,0,0.7,0c0.2,0,0.4,0,0.6,0c0.2,0,0.3,0,0.5-0.1l0.1-1.7c-0.2,0.1-0.6,0.1-0.9,0.1
	c-0.4,0-0.7-0.1-1.1-0.1c-0.6-0.1-1-0.3-1.3-0.7c-0.3-0.3-0.4-0.7-0.4-1.1l4.6,1c0-0.1,0.1-0.2,0.1-0.4c0-0.1,0.1-0.3,0.1-0.4
	c0.3-1.2,0.2-2.2-0.3-2.9C74.1,143.8,73.4,143.3,72.3,143.1z M73,146.4l-2.7-0.6c0.1-0.2,0.1-0.3,0.2-0.5c0.1-0.2,0.2-0.3,0.3-0.4
	c0.1-0.1,0.3-0.2,0.5-0.2c0.2,0,0.4,0,0.6,0c0.2,0.1,0.4,0.1,0.6,0.2c0.1,0.1,0.3,0.2,0.3,0.4c0.1,0.1,0.1,0.3,0.1,0.5
	C73.1,146,73.1,146.2,73,146.4z M65.6,147.5c-0.4-0.1-0.7-0.4-0.7-0.7c-0.1-0.3,0-0.6,0.1-1.1l0.8-2.4l2.3,0.8l0.6-1.6l-2.3-0.8
	l0.7-2l-2.1-0.4l-2,5.8c-0.2,0.4-0.2,0.9-0.3,1.3c0,0.4,0,0.8,0.1,1.1c0.1,0.3,0.3,0.6,0.6,0.9c0.3,0.3,0.7,0.5,1.2,0.7
	c0.4,0.1,0.8,0.2,1.1,0.3c0.3,0,0.6,0,0.9,0l0.2-1.6c-0.2,0-0.4,0-0.7,0C66.1,147.6,65.8,147.5,65.6,147.5z M94.2,147.4
	c0-0.1,0-0.3,0-0.4c-0.2-1.2-0.6-2.1-1.3-2.6c-0.7-0.5-1.5-0.7-2.5-0.6c-0.4,0.1-0.9,0.2-1.2,0.4c-0.4,0.2-0.7,0.5-1,0.9
	c-0.3,0.4-0.5,0.8-0.6,1.3c-0.1,0.5-0.2,1.1-0.1,1.7c0.1,0.5,0.2,1,0.4,1.4c0.2,0.4,0.5,0.8,0.9,1.1c0.4,0.3,0.8,0.5,1.3,0.6
	c0.5,0.1,1.1,0.1,1.7,0.1c0.3,0,0.5-0.1,0.8-0.1c0.3-0.1,0.5-0.1,0.7-0.2c0.2-0.1,0.4-0.1,0.6-0.2c0.2-0.1,0.3-0.2,0.4-0.2l-0.5-1.6
	c-0.2,0.1-0.5,0.3-0.8,0.4c-0.4,0.1-0.7,0.2-1.1,0.3c-0.6,0.1-1.1,0-1.4-0.2c-0.4-0.2-0.6-0.5-0.7-0.9l4.6-0.6
	C94.2,147.7,94.2,147.6,94.2,147.4z M89.4,147c0-0.2,0-0.4,0.1-0.5c0-0.2,0.1-0.3,0.2-0.5c0.1-0.1,0.2-0.3,0.4-0.4
	c0.2-0.1,0.3-0.2,0.6-0.2c0.2,0,0.4,0,0.6,0c0.2,0.1,0.3,0.1,0.4,0.3c0.1,0.1,0.2,0.2,0.3,0.4c0.1,0.2,0.1,0.3,0.2,0.5L89.4,147z
	 M121.8,32.2c-0.1-0.1-0.2-0.2-0.3-0.4c-0.1-0.1-0.3-0.3-0.5-0.5c-0.3-0.2-0.6-0.4-1-0.6c-0.3-0.2-0.7-0.3-1-0.3c-0.3,0-0.7,0-1,0.1
	c-0.3,0.1-0.6,0.4-0.9,0.7c-0.3,0.3-0.4,0.7-0.5,1c-0.1,0.3-0.1,0.7,0,1c0.1,0.3,0.3,0.6,0.5,0.9c0.2,0.3,0.6,0.6,0.9,0.9
	c0.6,0.5,1.1,0.8,1.6,1.1c0.5,0.3,0.8,0.4,1.1,0.6l2.6-3.4c0.3-0.4,0.5-0.7,0.6-1.1c0.1-0.4,0.2-0.7,0.2-1.1c0-0.4-0.2-0.7-0.4-1.1
	c-0.2-0.4-0.6-0.7-1.1-1.1c-0.2-0.1-0.4-0.3-0.6-0.4c-0.2-0.1-0.4-0.2-0.6-0.3c-0.2-0.1-0.4-0.2-0.5-0.3c-0.2-0.1-0.3-0.1-0.4-0.2
	l-0.8,1.5c0.3,0.1,0.5,0.2,0.8,0.4c0.3,0.2,0.6,0.4,0.9,0.6c0.4,0.3,0.6,0.6,0.7,0.9c0,0.3-0.1,0.6-0.3,0.9L121.8,32.2z M120.1,34.5
	c-0.1-0.1-0.2-0.1-0.4-0.2c-0.2-0.1-0.3-0.2-0.5-0.3c-0.3-0.2-0.5-0.5-0.6-0.7c-0.1-0.2,0-0.5,0.2-0.7c0.1-0.1,0.2-0.2,0.3-0.3
	c0.1,0,0.3,0,0.4,0c0.1,0,0.3,0.1,0.4,0.2c0.1,0.1,0.3,0.2,0.5,0.3c0.1,0.1,0.2,0.2,0.3,0.3c0.1,0.1,0.2,0.2,0.3,0.3L120.1,34.5z
	 M86.2,150c-0.2,0-0.5,0.1-0.7,0.1c-0.5,0-0.8-0.1-0.9-0.4c-0.2-0.3-0.2-0.6-0.2-1l0-2.6l2.5,0l0-1.7l-2.5,0l0-2.1l-2.1,0.4l0.1,6.1
	c0,0.5,0.1,0.9,0.1,1.3c0.1,0.4,0.3,0.7,0.5,1c0.2,0.3,0.5,0.5,0.9,0.6c0.4,0.1,0.8,0.2,1.4,0.2c0.4,0,0.8,0,1.1-0.1
	c0.3-0.1,0.6-0.2,0.8-0.3l-0.3-1.6C86.6,149.9,86.4,150,86.2,150z M114.6,52.9L71.6,93.9l-18.7-14c-3.6-2.7-7.6,2.8-4.7,6.6
	l20.5,26.7c1.6,2.1,4.4,2.2,6.1,0.2l45.1-53.6C123.4,55.5,118.4,49.1,114.6,52.9z M102.8,26.8c-0.3,0.2-0.8,0.1-1.3-0.1
	c-0.4-0.2-0.8-0.3-1.1-0.5c-0.3-0.2-0.6-0.4-0.8-0.6l-0.9,1.5c0.3,0.3,0.7,0.5,1,0.7c0.4,0.2,0.8,0.4,1.2,0.6
	c1.2,0.4,2.2,0.5,2.9,0.2c0.8-0.3,1.4-1.1,1.8-2.2l2.1-5.7c-0.2-0.1-0.3-0.2-0.5-0.4c-0.2-0.1-0.4-0.3-0.6-0.4
	c-0.2-0.1-0.5-0.2-0.7-0.4c-0.2-0.1-0.5-0.2-0.7-0.3c-0.5-0.2-1.1-0.3-1.6-0.3c-0.5,0-0.9,0.1-1.3,0.3c-0.4,0.2-0.8,0.5-1.1,0.8
	c-0.3,0.4-0.6,0.8-0.7,1.3c-0.4,1-0.4,1.9-0.1,2.6c0.3,0.7,0.9,1.3,1.9,1.6c0.3,0.1,0.5,0.2,0.7,0.2c0.2,0,0.5,0,0.7,0l-0.1,0.2
	C103.4,26.4,103.1,26.7,102.8,26.8z M103.1,24.1c-0.9-0.3-1.1-1-0.7-2.1c0.2-0.5,0.5-0.9,0.9-1.1c0.4-0.2,0.8-0.3,1.3-0.1
	c0.2,0.1,0.3,0.1,0.4,0.2c0.1,0.1,0.2,0.1,0.3,0.2l-1.1,3.1c-0.1,0-0.3,0-0.5,0C103.5,24.2,103.3,24.2,103.1,24.1z M65.1,19.5
	c0.3-0.1,0.6-0.2,1-0.3c0.5-0.1,0.9-0.1,1.1,0c0.3,0.2,0.4,0.4,0.5,0.7l0.1,0.2c-0.1,0-0.3,0-0.5,0c-0.2,0-0.4,0.1-0.7,0.1
	c-0.4,0.1-0.7,0.2-1.1,0.4c-0.3,0.2-0.6,0.4-0.9,0.6c-0.2,0.2-0.4,0.5-0.5,0.9c-0.1,0.3-0.1,0.7,0,1.1c0.1,0.4,0.3,0.8,0.5,1
	c0.2,0.3,0.5,0.4,0.8,0.6c0.3,0.1,0.7,0.2,1.1,0.1c0.4,0,0.8-0.1,1.3-0.2c0.7-0.2,1.3-0.4,1.8-0.6c0.5-0.2,0.9-0.4,1.1-0.5l-1.1-4.1
	c-0.1-0.4-0.3-0.8-0.5-1.1c-0.2-0.3-0.4-0.6-0.7-0.8c-0.3-0.2-0.7-0.3-1.1-0.3c-0.4,0-0.9,0-1.5,0.2c-0.2,0.1-0.5,0.1-0.7,0.2
	c-0.2,0.1-0.4,0.2-0.6,0.3c-0.2,0.1-0.4,0.2-0.5,0.3c-0.2,0.1-0.3,0.2-0.4,0.2l0.7,1.5C64.5,19.8,64.7,19.7,65.1,19.5z M68.5,22.9
	c-0.1,0-0.2,0.1-0.4,0.2c-0.2,0.1-0.4,0.1-0.6,0.2c-0.4,0.1-0.7,0.1-0.9,0c-0.2-0.1-0.4-0.3-0.5-0.6c0-0.2,0-0.3,0-0.4
	c0-0.1,0.1-0.2,0.2-0.3c0.1-0.1,0.2-0.2,0.4-0.2c0.2-0.1,0.3-0.1,0.5-0.2c0.1,0,0.3-0.1,0.4-0.1c0.2,0,0.3,0,0.4,0L68.5,22.9z
	 M40.8,36.3c0.4,0.4,0.7,0.7,1.2,1c0.4,0.2,0.9,0.4,1.3,0.4c0.5,0,0.9,0,1.4-0.2c0.5-0.2,1-0.5,1.5-0.9c0.2-0.2,0.4-0.4,0.6-0.5
	c0.2-0.2,0.3-0.4,0.5-0.6c0.1-0.2,0.3-0.4,0.4-0.5c0.1-0.2,0.2-0.3,0.2-0.4l-1.3-1.1c-0.1,0.2-0.3,0.5-0.5,0.8
	c-0.2,0.3-0.5,0.6-0.8,0.8c-0.4,0.4-0.9,0.6-1.3,0.7c-0.4,0-0.8-0.1-1.1-0.4l3.5-3.1c-0.1-0.1-0.1-0.2-0.2-0.3
	c-0.1-0.1-0.2-0.2-0.3-0.3c-0.8-0.9-1.7-1.4-2.5-1.5c-0.9-0.1-1.7,0.2-2.5,0.9c-0.3,0.3-0.6,0.6-0.8,1c-0.2,0.4-0.3,0.8-0.3,1.3
	c0,0.5,0,0.9,0.2,1.4C40,35.4,40.3,35.8,40.8,36.3z M41.6,32.8c0.1-0.2,0.2-0.3,0.4-0.5c0.2-0.2,0.4-0.3,0.5-0.3
	c0.2,0,0.3-0.1,0.5,0c0.2,0,0.3,0.1,0.5,0.2c0.1,0.1,0.3,0.2,0.4,0.3l-2,1.8c-0.1-0.1-0.2-0.3-0.2-0.5c-0.1-0.2-0.1-0.3-0.1-0.5
	C41.5,33.2,41.5,33,41.6,32.8z M56.2,29.3l-2.4-5.1c0.1-0.1,0.2-0.1,0.3-0.2c0.1-0.1,0.2-0.1,0.4-0.2c0.4-0.2,0.7-0.2,1,0
	c0.3,0.2,0.5,0.6,0.8,1.2l1.6,3.5l1.9-0.9L58.1,24c-0.1-0.2-0.2-0.5-0.3-0.7c-0.1-0.2-0.2-0.4-0.4-0.6c0.1-0.1,0.2-0.3,0.4-0.4
	c0.2-0.1,0.3-0.2,0.4-0.3c0.4-0.2,0.7-0.2,1,0c0.3,0.2,0.5,0.6,0.8,1.2l1.6,3.5l1.9-0.9l-1.8-3.7c-0.2-0.4-0.4-0.8-0.7-1.2
	c-0.2-0.3-0.5-0.6-0.9-0.8C59.8,20.1,59.4,20,59,20c-0.4,0-0.9,0.1-1.4,0.4c-0.3,0.1-0.6,0.3-0.9,0.6c-0.3,0.3-0.5,0.6-0.7,0.9
	c-0.3-0.1-0.6-0.1-0.9-0.1c-0.4,0-0.8,0.1-1.2,0.4c-0.2,0.1-0.5,0.2-0.7,0.4c-0.2,0.1-0.5,0.3-0.7,0.4c-0.2,0.2-0.4,0.3-0.6,0.4
	c-0.2,0.1-0.4,0.3-0.5,0.4l3,6.3L56.2,29.3z M51.3,32.4l-3.1-4.6c0.1-0.1,0.2-0.2,0.3-0.3c0.1-0.1,0.3-0.2,0.4-0.3
	c0.2-0.2,0.5-0.3,0.7-0.4c0.2-0.1,0.4-0.2,0.6-0.2L49.4,25c-0.1,0-0.2,0.1-0.4,0.1c-0.1,0.1-0.3,0.1-0.4,0.2
	c-0.1,0.1-0.3,0.1-0.4,0.2c-0.1,0.1-0.3,0.1-0.3,0.2c-0.5,0.3-0.9,0.7-1.3,1.1c-0.4,0.4-0.6,0.7-0.9,1l3.9,5.7L51.3,32.4z
	 M35.3,37.2c-0.2,0.1-0.4,0.2-0.6,0.4c-0.2,0.1-0.4,0.3-0.6,0.5c-0.3,0.4-0.6,0.8-0.7,1.2c-0.1,0.4-0.1,0.8-0.1,1.3
	c0.1,0.4,0.3,0.8,0.5,1.3c0.3,0.4,0.6,0.8,1.1,1.2c0.4,0.4,0.9,0.6,1.4,0.8c0.5,0.2,0.9,0.2,1.4,0.2c0.5,0,0.9-0.2,1.3-0.4
	c0.4-0.3,0.8-0.6,1.2-1.1c0.2-0.2,0.3-0.4,0.5-0.6c0.2-0.2,0.3-0.4,0.4-0.7c0.1-0.2,0.3-0.4,0.4-0.7s0.2-0.4,0.3-0.6l-8.1-6.7
	l-1.1,1.8L35.3,37.2z M35.6,39c0.1-0.2,0.3-0.3,0.5-0.4c0.2-0.1,0.3-0.2,0.5-0.3l2.9,2.4c-0.1,0.1-0.1,0.2-0.2,0.3
	c-0.1,0.1-0.2,0.3-0.3,0.4c-0.4,0.4-0.8,0.6-1.3,0.6c-0.5,0-1-0.2-1.5-0.6C35.2,40.6,35,39.8,35.6,39z M111.6,28
	c-0.1,0.5-0.1,0.9,0,1.4c0.1,0.5,0.3,0.9,0.6,1.3c0.3,0.4,0.7,0.8,1.3,1.1c0.4,0.2,0.7,0.4,1.1,0.5c0.3,0.1,0.6,0.2,0.9,0.2L116,31
	c-0.3,0-0.5-0.1-0.8-0.2c-0.3-0.1-0.5-0.2-0.7-0.4c-0.6-0.4-0.9-0.8-1-1.2c-0.1-0.5,0.1-1,0.4-1.5c0.3-0.5,0.7-0.9,1.2-1
	c0.5-0.2,0.9-0.1,1.5,0.2c0.2,0.1,0.5,0.3,0.6,0.5c0.2,0.2,0.3,0.3,0.4,0.5l1.2-1.2c-0.2-0.3-0.4-0.5-0.7-0.7
	c-0.2-0.2-0.5-0.4-0.9-0.6c-0.5-0.3-1-0.5-1.5-0.6c-0.5-0.1-1,0-1.4,0.1c-0.5,0.1-0.9,0.3-1.3,0.7c-0.4,0.3-0.7,0.7-1,1.1
	C111.9,27,111.7,27.5,111.6,28z M83.5,154.2c38.9,0,70.6-32.2,70.6-71.7c0-39.5-31.7-71.7-70.6-71.7c-38.9,0-70.6,32.2-70.6,71.7
	C12.9,122,44.6,154.2,83.5,154.2z M83.5,11.8c38.4,0,69.6,31.7,69.6,70.7c0,39-31.2,70.7-69.6,70.7c-38.4,0-69.6-31.7-69.6-70.7
	C13.9,43.5,45.1,11.8,83.5,11.8z M108.8,29l3.1-6.5l-1.9-0.9l-3.1,6.5L108.8,29z M112.4,21.2c0.3-0.1,0.6-0.3,0.7-0.6
	c0.2-0.3,0.2-0.7,0.1-1c-0.1-0.3-0.3-0.5-0.6-0.7c-0.3-0.1-0.6-0.2-0.9-0.1c-0.3,0.1-0.6,0.3-0.7,0.6c-0.2,0.3-0.2,0.7-0.1,1
	c0.1,0.3,0.3,0.5,0.6,0.7C111.7,21.3,112.1,21.3,112.4,21.2z M92.9,23.5c0.4,0.3,0.8,0.5,1.4,0.6c0.5,0.1,1,0.1,1.5,0
	c0.5-0.1,0.9-0.3,1.3-0.5c0.4-0.3,0.7-0.6,1-1c0.3-0.4,0.5-0.9,0.6-1.5c0.1-0.6,0.1-1.1,0.1-1.6c-0.1-0.5-0.2-0.9-0.5-1.3
	c-0.2-0.4-0.6-0.7-0.9-1c-0.4-0.3-0.8-0.5-1.4-0.6c-0.5-0.1-1-0.1-1.5,0c-0.5,0.1-0.9,0.3-1.3,0.5c-0.4,0.3-0.7,0.6-1,1
	c-0.3,0.4-0.5,0.9-0.6,1.5c-0.1,0.6-0.1,1.1-0.1,1.6s0.2,0.9,0.5,1.3C92.2,22.9,92.5,23.2,92.9,23.5z M94.4,18.6
	c0.3-0.3,0.7-0.4,1.2-0.3c0.5,0.1,0.8,0.4,0.9,0.8c0.2,0.4,0.2,0.9,0.1,1.5c-0.1,0.6-0.4,1.1-0.7,1.4c-0.3,0.3-0.7,0.4-1.2,0.3
	c-0.5-0.1-0.8-0.4-1-0.8c-0.2-0.4-0.2-0.9-0.1-1.6C93.8,19.4,94,18.9,94.4,18.6z M79.1,21.8c0.3,0.3,0.7,0.6,1.1,0.8
	c0.4,0.2,0.9,0.3,1.5,0.3c0.5,0,1-0.1,1.5-0.3c0.4-0.2,0.8-0.5,1.1-0.8c0.3-0.3,0.5-0.7,0.7-1.2c0.2-0.5,0.2-1,0.2-1.6
	c0-0.6-0.1-1.1-0.3-1.6c-0.2-0.5-0.4-0.9-0.7-1.2c-0.3-0.3-0.7-0.6-1.1-0.8c-0.4-0.2-0.9-0.3-1.4-0.3c-0.5,0-1,0.1-1.4,0.3
	c-0.4,0.2-0.8,0.4-1.1,0.8c-0.3,0.3-0.6,0.7-0.7,1.2c-0.2,0.5-0.3,1-0.3,1.6c0,0.6,0.1,1.1,0.3,1.6C78.5,21.1,78.8,21.5,79.1,21.8z
	 M80.5,17.5c0.3-0.4,0.6-0.6,1.1-0.6c0.5,0,0.8,0.2,1.1,0.5c0.3,0.4,0.4,0.9,0.4,1.5c0,0.6-0.1,1.1-0.4,1.5
	c-0.3,0.4-0.6,0.6-1.1,0.6c-0.5,0-0.8-0.2-1.1-0.5c-0.3-0.4-0.4-0.9-0.4-1.5C80.2,18.4,80.3,17.9,80.5,17.5z M87.4,22.3
	c0.2,0.2,0.5,0.4,0.8,0.6c0.4,0.2,0.8,0.3,1.4,0.3l0.4-1.7c-0.2,0-0.4-0.1-0.6-0.2c-0.1-0.1-0.2-0.2-0.3-0.3
	c-0.1-0.1-0.1-0.2-0.1-0.4c0-0.1,0-0.3,0-0.5l0.7-7.9l-2.1,0.1l-0.7,8c0,0.4,0,0.7,0,1C87.1,21.8,87.2,22,87.4,22.3z M72.5,21.8
	c0.1,0.4,0.3,0.7,0.6,0.9c0.3,0.2,0.6,0.4,1,0.5c0.4,0.1,0.9,0.1,1.4,0c0.4-0.1,0.8-0.1,1.1-0.3c0.3-0.1,0.6-0.2,0.8-0.4l-0.5-1.5
	c-0.2,0.1-0.4,0.2-0.6,0.3c-0.2,0.1-0.5,0.1-0.7,0.2c-0.5,0.1-0.8,0-1-0.3c-0.2-0.2-0.3-0.6-0.4-1l-0.3-2.5l2.5-0.3l-0.2-1.7
	L73.6,16l-0.3-2.1l-2,0.6l0.8,6.1C72.2,21,72.3,21.4,72.5,21.8z M83.5,160.8c43.2,0,78.3-35.1,78.3-78.3c0-43.2-35.1-78.3-78.3-78.3
	S5.2,39.3,5.2,82.5C5.2,125.7,40.3,160.8,83.5,160.8z M83.5,5.6c42.4,0,76.9,34.5,76.9,76.9c0,42.4-34.5,76.9-76.9,76.9
	c-42.4,0-76.9-34.5-76.9-76.9C6.6,40.1,41.1,5.6,83.5,5.6z"/>
</svg>
