<?xml version="1.0" encoding="utf-8"?>
<!-- Generator: Adobe Illustrator 25.4.1, SVG Export Plug-In . SVG Version: 6.00 Build 0)  -->
<svg version="1.1" id="Calque_1" xmlns="http://www.w3.org/2000/svg" xmlns:xlink="http://www.w3.org/1999/xlink" x="0px" y="0px"
	 viewBox="0 0 612 283.2" style="enable-background:new 0 0 612 283.2;" xml:space="preserve">
<style type="text/css">
	.st0{fill:#666666;}
	.st1{fill:none;stroke:#666666;stroke-width:2;stroke-miterlimit:10;}
</style>
<g>
	<path class="st0" d="M83.8,183.5c2.6-0.1,9-0.3,10.8-0.3c1.7,0,3.5,0.4,4.5,1.2c3.3,2,5.1,3.5,6.2,4.3c1,0.9,1.6,1.3,2.5,1.3
		c0.4,0,1.9,0,1.9-1.3c0-0.3-0.1-0.6-0.6-1.6c-0.6-1.2-1.4-3.2-2.6-6.4c-0.3-1-1.4-1-3.6-1l-9.4,0.1L78.6,180l-10-0.1h-1.4
		c-0.9,0-1.4,0.6-1.4,1.6c0,0.4,0,1.7,1.6,1.7c6.1,0,6.2,0.4,6.4,2.7v1.4l0.1,6.1v13.1c0,2.2-0.1,5.6-0.1,8.5c0,0.9-0.1,1.6-5.3,1.6
		c-1.4,0-2.3,0.3-2.3,1.7c0,0.4,0,1.6,1.4,1.6h0.3c0.6,0,2.3-0.1,10.5-0.1c8.8,0,10.5,0.1,11.3,0.1h0.3c1.2,0,2.2-0.1,2.2-1.6
		c0-1.6-1.3-1.7-3.6-1.7c-5.3,0-5.3-0.7-5.3-1.6c-0.1-2.6-0.3-6.1-0.3-8.5c0,0,0-3.5,0-4.8c1.2,0,4.5,0,4.5,0c6.8,0,7.7,0.1,8.5,5.5
		c0.3,1.2,1.2,1.3,1.9,1.3c1.6,0,1.7-0.9,1.7-1.3l-0.1-2c-0.1-1.2-0.3-2.6-0.3-4.5v-8.1c0-1.2-1.4-1.2-2.2-1.2
		c-1.3,0-1.6,0.9-2.5,4.6c-0.4,1.4-3.2,2.3-7.8,2.3c0,0-2.9,0-4,0c0-1.4,0-11.8,0-11.8C82.7,183.6,83.2,183.6,83.8,183.5z
		 M198.5,216.1l-1.6-1.7l0.1,0.1c-0.3-0.6-0.7-0.6-1.2-0.6l-0.9,0.3c-1.3,0.6-5.1,2.3-12,2.3c-8.5,0-17.8-5.5-17.8-17.8
		c0-11.7,10-15.7,18.5-15.7c6.1,0,9.4,2.2,10,6.6l0.1,0.7h0.7c0.7,0,2.6,0,2.6-1.4v-6.8c0-1.6-1.9-1.9-2.7-2l-0.9-0.1
		c-2-0.3-3.9-0.6-8.8-0.6c-16.7,0-29,8.8-29,20.8c0,10,8.7,19.9,25.1,19.9c8.4,0,13-1.9,16.5-3.8L198.5,216.1z M132.5,216.8
		c-7.2,0-11.4-2.9-13.9-9.2l-0.1-0.6h-0.6c-1.3,0-2.3,0-2.9,0.7c-0.4,0.6-0.3,1.4-0.1,2.3l1.6,6.6c0.4,1.6,1,1.9,3.6,2.3
		c1.2,0.1,6.9,1.2,11.8,1.2c13.7,0,19.9-5.6,19.9-11.1c0-4-4-7.9-12.6-12.1l-3.9-1.9c-5.9-2.7-9.4-4.5-9.4-7.4s3.6-4.9,9-4.9
		c6.9,0,8.7,3.9,9.5,7.2l0.1,0.6h0.7c1.6,0,2.5-0.1,3-0.7c0.3-0.3,0.4-0.9,0.4-1.4l-0.6-5.6c-0.1-1.9-1.6-2-3.5-2.5
		c-2.3-0.4-5.1-0.9-9.2-0.9c-12,0-19.1,3.5-19.1,9.2c0,4.9,5.5,7.8,14.6,12.1c7.2,3.3,11.3,6.9,11.3,9.7
		C142,215.2,137.1,216.8,132.5,216.8z M64.9,150.2c1.9,1.9,4.6,2.9,7.4,1.3c2.9-1.7,3.2-4.8,3.3-4.8c23.4-104.2,44.2-112,57.8-112
		c11.4,0,24.5,8.4,24.5,25.1c17,0,27.7,22.2,14,36c11.4,5.5,16.5,12.3,16.5,20.6c0,8.5-7.2,17.2-17.6,17.2
		c-10.4,0-15.6-6.6-23.7-6.6c-3.6,0-5.9,2.9-5.9,5.8v21.1h-15.3v-20.9c0-3.3-2.5-5.9-5.5-5.9H119l-20.4,2.6c-2.5,0.3-4.8,3-4.8,5.8
		c0,3.2,2.6,5.9,6.2,5.9c0.4,0,1,0,1,0l13-1.6c0,0,0,20.6,0,20.8c0,2.6,3,5.2,5.6,5.2h27.1c3.2,0,5.9-2.7,5.9-5.9v-18.9
		c5.6,3.5,13.6,4.8,17.6,4.8c15.2,0,29.7-12,29.6-29.5c0-15.9-12.3-23.8-12.3-23.8c7.1-18.9-4.3-37.3-19.3-42.3
		c-5.3-19.5-22.1-27.1-35.1-27.1c-40,0-54.1,61.9-67.3,111.8c-4.8-4.8-19.3-19.3-19.3-19.3c-2.9-2.9-6.4-2-8.4,0c-2,2-2.3,5.9,0,8.2
		C38.3,123.8,58,143.5,64.9,150.2z M192.8,44.8c2.7,0,5.2-1,7.1-2.9c2-2,2.9-4.3,2.9-7.1c0-2.7-1-5.2-3-7.1c-2-2-4.3-2.9-7.1-2.9
		l0,0c-2.7,0-5.2,1-7.1,2.9c-2,2-3,4.3-3,7.1c0,2.7,1,5.2,3,7.1C187.6,43.8,189.9,44.8,192.8,44.8z M192.7,42.2
		c-1.7,0-3.3-0.6-4.6-1.7h2.6v-4.3h0.4c0.4,0,0.9,0.1,1.2,0.3c0.1,0.1,0.7,0.9,2.3,3.8l0.1,0.3h2.6
		C196.1,41.7,194.6,42.2,192.7,42.2z M190.7,33.7v-2h1.4c1.3,0,1.7,0.1,1.7,0.3c0.3,0.1,0.3,0.4,0.3,0.7s-0.1,0.6-0.3,0.7
		c-0.1,0.1-0.6,0.3-1.6,0.3L190.7,33.7z M187.5,29.5c1.4-1.4,3.2-2.2,5.3-2.2c2,0,3.8,0.7,5.3,2.2c1.4,1.4,2.2,3.2,2.2,5.2
		c0,2-0.7,3.8-2.2,5.3l-0.1,0.1l-1.4-2.5c-0.6-0.9-1.2-1.6-1.6-2c0.6-0.1,1-0.4,1.3-0.9c0.6-0.7,0.9-1.4,0.9-2.2
		c0-0.7-0.1-1.3-0.6-1.9s-1-1-1.7-1.2c-0.6-0.1-1.4-0.3-2.6-0.3h-4v11.3c-0.1-0.1-0.4-0.3-0.6-0.4c-1.4-1.4-2.2-3.2-2.2-5.3
		C185.3,32.7,186,31,187.5,29.5z M78.5,247.6l-0.6-2.5l-2-7.5h-2.3l-2,7.7c-0.4,1.6-0.7,2.6-0.7,2.6l-0.7-2.7l-2.2-7.5h-2.3l4,13H72
		l2.7-10.1l0.6,2.2l2,7.8h2.3l4.2-13.1h-2.2l-2.3,7.5L78.5,247.6z M98.3,250.6l4.2-13.1h-2.2L98,245l-0.7,2.5l-0.6-2.5l-2-7.5h-2.3
		l-2,7.7c-0.4,1.6-0.7,2.6-0.7,2.6l-0.7-2.7l-2.2-7.5h-2.3l4,13h2.3l2.7-10.1l0.6,2.2l2,7.8h2.2V250.6z M109.5,250.6l2.7-10.1
		l0.6,2.2l2,7.8h2.3l4.2-13.1h-2.2l-2.3,7.5l-0.7,2.5l-0.6-2.5l-2-7.5h-2.5l-2,7.7c-0.4,1.6-0.7,2.6-0.7,2.6l-0.7-2.7l-2.2-7.5h-2.3
		l4,13h2.3V250.6z M124.2,250.6v-2.5h-2.5v2.5H124.2z M130.6,234.7c0.3-0.3,0.7-0.4,1.4-0.4c0.4,0,0.9,0,1.3,0.1l0.3-1.9
		c-0.7-0.1-1.4-0.3-2-0.3c-1,0-1.7,0.1-2.3,0.6c-0.6,0.3-0.9,0.9-1.2,1.4c-0.1,0.4-0.3,1-0.3,1.9v1.4H126v1.7h1.9v11.4h2.2v-11.4
		h2.6v-1.7H130v-1.2C130.2,235.6,130.3,235,130.6,234.7z M135.5,249.7c0.9,0.7,2.2,1,3.9,1c1,0,1.9-0.1,2.7-0.6
		c0.9-0.3,1.4-0.9,1.9-1.4c0.4-0.7,0.6-1.3,0.6-2c0-0.7-0.1-1.4-0.6-1.9c-0.3-0.6-0.9-0.9-1.4-1.2c-0.6-0.3-1.7-0.6-3.3-1
		c-1-0.3-1.7-0.4-1.9-0.6c-0.4-0.1-0.7-0.3-0.9-0.6s-0.3-0.4-0.3-0.7c0-0.4,0.1-0.9,0.6-1.2c0.4-0.3,1.2-0.6,2.2-0.6
		c0.9,0,1.4,0.1,2,0.6c0.4,0.4,0.7,0.9,0.9,1.6l2.2-0.3c-0.1-0.9-0.4-1.6-0.7-2c-0.4-0.4-1-0.9-1.7-1.2c-0.7-0.3-1.7-0.4-2.7-0.4
		c-0.7,0-1.3,0.1-1.9,0.3c-0.6,0.1-1,0.4-1.4,0.6c-0.4,0.3-0.9,0.7-1,1.3c-0.3,0.4-0.4,1-0.4,1.6c0,0.6,0.1,1.2,0.4,1.7
		c0.3,0.6,0.7,0.9,1.4,1.3c0.6,0.3,1.7,0.7,3.3,1c1.2,0.3,1.9,0.6,2.3,0.7c0.4,0.3,0.6,0.7,0.6,1.2c0,0.6-0.3,1-0.7,1.4
		c-0.4,0.4-1.3,0.6-2.3,0.6c-1,0-1.7-0.3-2.3-0.7c-0.6-0.4-0.9-1.2-1-2l-2.2,0.3C134.1,248,134.6,249.1,135.5,249.7z M152.5,239
		c0.7,0,1.3,0.3,1.9,0.7c0.6,0.4,0.9,1.2,1.2,2l2.2-0.3c-0.3-1.3-0.9-2.3-1.7-3c-0.9-0.7-2-1.2-3.5-1.2c-1.2,0-2.2,0.3-3.2,0.9
		c-1,0.6-1.7,1.3-2.2,2.3c-0.4,1-0.7,2.3-0.7,3.8c0,2.2,0.6,3.9,1.6,5.1c1,1.2,2.5,1.7,4.3,1.7c1.4,0,2.6-0.4,3.6-1.3
		c1-0.9,1.6-2,1.9-3.5l-2.2-0.3c-0.1,1.2-0.6,1.9-1.2,2.5c-0.6,0.6-1.3,0.9-2.2,0.9c-1.2,0-2-0.4-2.6-1.2c-0.7-0.7-1-2-1-3.8
		c0-1.7,0.3-3,1-3.8C150.5,239.5,151.4,239,152.5,239z M162.8,248h-2.6v2.5h2.5V248H162.8z M171,250.9c1.2,0,2.2-0.3,3.2-0.7
		c1-0.6,1.7-1.3,2.2-2.3c0.6-1,0.7-2.3,0.7-3.9c0-2-0.6-3.8-1.7-4.9c-1.2-1.2-2.6-1.7-4.5-1.7c-1.6,0-3,0.4-4,1.4
		c-1.3,1.2-2,2.9-2,5.3c0,2.2,0.6,3.9,1.7,5.1S169.1,250.9,171,250.9z M168.1,240.2c0.7-0.9,1.6-1.3,2.7-1.3c1.2,0,2,0.4,2.7,1.3
		c0.7,0.9,1.2,2,1.2,3.6c0,1.7-0.4,3-1.2,3.8c-0.7,0.9-1.6,1.3-2.7,1.3s-2-0.4-2.7-1.3c-0.7-0.9-1.2-2-1.2-3.8
		C167.1,242.4,167.4,241.1,168.1,240.2z M179.7,237.4v13h2.2v-6.8c0-0.9,0.1-1.7,0.4-2.6c0.1-0.6,0.4-0.9,0.9-1.2
		c0.4-0.3,0.9-0.4,1.3-0.4c0.6,0,1,0.1,1.6,0.4l0.7-2c-0.7-0.4-1.6-0.7-2.3-0.7c-0.6,0-1,0.1-1.4,0.4c-0.4,0.3-0.9,0.9-1.4,1.9v-2
		L179.7,237.4L179.7,237.4z M197.9,253c0.4-0.9,0.6-2.3,0.6-4.3v-11.3h-2v1.6c-1-1.3-2.3-1.9-3.8-1.9c-1.2,0-2.2,0.3-3,0.9
		c-0.9,0.6-1.6,1.4-2,2.5c-0.4,1-0.7,2.2-0.7,3.5c0,1.9,0.4,3.3,1.4,4.6c1,1.3,2.5,1.9,4.2,1.9c1.4,0,2.6-0.6,3.6-1.7
		c0,1.4,0,2.5-0.1,2.9c-0.1,0.7-0.6,1.3-1.2,1.7c-0.6,0.4-1.3,0.6-2.3,0.6c-1,0-1.7-0.3-2.3-0.6c-0.4-0.3-0.6-0.9-0.7-1.4l-2.2-0.3
		c0,1.4,0.4,2.5,1.4,3.2c1,0.7,2.2,1,3.8,1c1.3,0,2.5-0.3,3.3-0.7C196.7,254.6,197.4,253.9,197.9,253z M195.4,247.6
		c-0.7,0.7-1.6,1.2-2.6,1.2c-1,0-1.9-0.4-2.6-1.2c-0.7-0.7-1-2-1-3.8c0-1.6,0.3-2.7,1-3.6c0.7-0.9,1.6-1.2,2.5-1.2
		c1,0,1.9,0.4,2.6,1.2c0.7,0.9,1,2,1,3.6C196.4,245.5,196.1,246.8,195.4,247.6z M392.5,77.6l7.6-21.9v21.9h5.6V44.8h-7l-7.6,22
		c-0.4,0.9-0.5,1.8-0.9,2.5c-0.2-0.7-0.5-1.4-0.7-2.2l-7.6-22.4h-7.6v32.7h5.6V55.1l7.6,22.4H392.5z M418.7,44.8h-5.8v32.7h5.8V44.8
		z M440.2,68.3l6.5,9.2h7.2l-12.3-17.2L453.2,45h-6.5l-0.2,0.4c-4.9,6.3-7,9.2-8,10.7c-0.4-0.4-0.5-0.9-0.9-1.4l-6.9-9.6h-7
		L435,60.7l-12.6,17h7l0.2-0.4c5.2-7.2,7.6-10.5,8.7-12.1C438.4,66,439.1,67.1,440.2,68.3z M294.2,126h-11v-6h12.6v-4h-17v24.4h4.3
		V130h11V126z M299.6,122.4v18.1h4.2V131c0-1.6,0.2-2.9,0.7-3.8c0.7-1.3,2-1.4,3.6-0.5l0.7,0.4l1.4-3.8l-0.4-0.4
		c-2.2-1.4-4.7-1.4-6.3,0.5v-1.1L299.6,122.4L299.6,122.4z M319.3,122c-2.3,0-4.5,0.7-6.1,2.3c-1.6,1.6-2.5,4-2.5,7
		c0,3.3,0.9,5.6,2.5,7.2c1.6,1.4,3.6,2.3,6,2.3c2.2,0,4.2-0.7,6-2.2c1.8-1.4,2.7-4,2.7-7.4c0-2.9-0.9-5.2-2.5-6.7
		C323.8,122.9,321.7,122,319.3,122L319.3,122z M323.7,131.4c0,1.8-0.4,3.3-1.1,4.3c-0.7,1.1-1.8,1.4-3.3,1.4c-1.3,0-2.3-0.5-3.1-1.4
		c-0.9-0.9-1.3-2.3-1.3-4.3c0-2,0.4-3.4,1.3-4.5c0.9-0.9,1.8-1.4,3.1-1.4c1.3,0,2.2,0.5,3.1,1.4C323.3,128,323.7,129.4,323.7,131.4z
		 M350.9,127.4c0.2,0.5,0.2,1.1,0.2,1.8v11.2h4.2v-12.1c0-2-0.5-3.6-1.4-4.7s-2.5-1.6-4.3-1.6c-2,0-3.8,0.7-5.1,2.3
		c-0.4-0.7-0.9-1.1-1.4-1.4c-0.9-0.5-2-0.9-3.4-0.9c-1.8,0-3.3,0.5-4.5,1.6v-1.3h-3.8v18.1h4.2V131c0-2.7,0.5-3.8,1.1-4.3
		c0.7-0.7,1.4-1.1,2.5-1.1c0.7,0,1.3,0.2,1.8,0.5c0.2,0.2,0.5,0.9,0.5,2.5v11.6h4.2V130c0-1.6,0.4-2.7,1.1-3.3
		c0.7-0.7,1.4-1.1,2.5-1.1c0.7,0,1.3,0.2,1.6,0.5C350.8,126.5,350.9,126.9,350.9,127.4z M369.7,122.4v18.1h4.2V131
		c0-1.6,0.2-2.9,0.7-3.6c0.7-1.3,2-1.4,3.6-0.5l0.7,0.4l1.4-3.8l-0.4-0.4c-2.2-1.4-4.7-1.4-6.3,0.5v-1.1h-4V122.4z M389.8,140.8
		c2,0,3.8-0.5,5.1-1.4c1.4-1.1,2.3-2.5,2.9-4.3l0.2-0.7l-4.2-0.5l-0.2,0.5c-0.4,1.1-0.9,1.8-1.4,2.3s-1.4,0.7-2.3,0.7
		c-1.3,0-2.3-0.4-3.1-1.3c-0.7-0.7-1.1-1.8-1.3-3.3h12.6v-0.5c0-2.9-0.4-4.9-1.3-6.3c-0.9-1.4-2-2.3-3.3-2.9
		c-1.3-0.5-2.5-0.9-3.8-0.9c-2.7,0-4.9,0.9-6.3,2.7c-1.4,1.8-2.2,4.2-2.2,6.9c0,2.9,0.7,5.1,2.3,6.7
		C384.9,140.1,387.1,140.8,389.8,140.8z M386.7,126.7c0.7-0.7,1.6-1.1,2.9-1.1c0.9,0,1.8,0.4,2.7,1.1c0.7,0.5,1.1,1.4,1.3,2.5h-8.1
		C385.6,128.1,386.2,127.4,386.7,126.7z M413.3,139.2c1.4-1.1,2.2-2.5,2.2-4.3c0-1.3-0.4-2.3-0.9-3.1s-1.4-1.3-2.3-1.6
		c-0.9-0.4-2.2-0.7-4-1.3c-2-0.5-2.7-0.7-3.1-0.9s-0.5-0.4-0.5-0.9c0-0.5,0.2-0.7,0.7-1.1c0.5-0.4,1.4-0.5,2.3-0.5
		c0.9,0,1.8,0.2,2.2,0.5c0.5,0.4,0.7,0.9,0.9,1.6v0.5l4-0.5l-0.2-0.7c-0.2-1.8-1.1-3.1-2.3-4c-1.3-0.9-2.9-1.3-5.1-1.3
		c-2,0-3.6,0.5-4.9,1.4c-1.3,1.1-2,2.3-2,4c0,1.3,0.5,2.3,1.3,3.3c0.9,0.9,2.5,1.6,5.1,2.2c1.6,0.4,2.7,0.7,3.1,0.7
		c0.4,0.2,0.7,0.4,0.9,0.5s0.4,0.4,0.4,0.7c0,0.5-0.2,1.1-0.7,1.4c-0.5,0.4-1.4,0.7-2.5,0.7c-1.1,0-2-0.2-2.7-0.7
		c-0.5-0.5-0.9-1.3-1.1-2.2V133l-4.2,0.5l0.2,0.5c0.4,2,1.1,3.4,2.5,4.5c1.3,0.9,3.1,1.4,5.4,1.4C410.2,140.8,412,140.3,413.3,139.2
		z M423,139.5c1.1,0.9,2.3,1.3,3.8,1.3c2.2,0,4.2-0.9,5.8-2.7c1.4-1.8,2.3-4,2.3-6.9c0-2.7-0.7-4.9-2-6.7c-1.4-1.8-3.3-2.7-5.8-2.7
		c-1.8,0-3.1,0.5-4.3,1.4v-1.1h-3.8v24.6h4.2v-7.2H423z M423.9,127.1c0.7-1.1,1.6-1.6,2.9-1.6c1.1,0,2,0.5,2.7,1.4
		c0.7,1.1,1.1,2.5,1.1,4.3c0,2-0.4,3.6-1.3,4.5c-0.7,0.9-1.6,1.4-2.9,1.4c-1.1,0-2-0.4-2.7-1.4c-0.7-0.9-1.1-2.3-1.1-4.3
		C422.7,129.8,423.2,128.1,423.9,127.1z M445.6,140.8c2.2,0,4.2-0.7,6-2.2c1.8-1.4,2.7-4,2.7-7.4c0-2.9-0.9-5.1-2.5-6.7
		c-1.6-1.6-3.6-2.3-6.1-2.3l0,0c-2.3,0-4.3,0.7-6.1,2.3c-1.6,1.6-2.5,4-2.5,7c0,3.3,0.9,5.6,2.5,7.2
		C441.5,140.1,443.5,140.8,445.6,140.8z M442.6,127.1c0.9-0.9,1.8-1.4,3.1-1.4c1.3,0,2.2,0.5,3.1,1.4c0.9,0.9,1.3,2.3,1.3,4.3
		c0,1.8-0.4,3.3-1.1,4.3c-0.7,1.1-1.8,1.4-3.3,1.4c-1.3,0-2.3-0.5-3.1-1.4c-0.9-0.9-1.3-2.3-1.3-4.3
		C441.3,129.4,441.8,128,442.6,127.1z M472.6,140.4v-11c0-1.3,0-2.3-0.2-3.1c-0.2-0.7-0.5-1.6-1.1-2.3c-0.5-0.7-1.3-1.3-2.3-1.6
		c-0.9-0.4-1.8-0.5-2.9-0.5c-1.3,0-2.3,0.4-3.4,0.7c-0.5,0.2-0.9,0.5-1.4,0.9V122h-3.8v18.1h4.2v-9.8c0-1.3,0.2-2.3,0.4-2.9
		c0.4-0.5,0.7-1.1,1.3-1.4c0.7-0.4,1.4-0.5,2.2-0.5c0.9,0,1.6,0.2,2.2,0.7c0.5,0.5,0.7,1.6,0.7,3.1v10.8h4.3V140.4z M487.7,130.3
		c-0.9-0.4-2.2-0.7-4-1.3c-1.8-0.5-2.7-0.7-3.1-0.9c-0.2-0.2-0.5-0.4-0.5-0.9c0-0.5,0.2-0.7,0.7-1.1c0.5-0.4,1.3-0.5,2.3-0.5
		c0.9,0,1.8,0.2,2.2,0.5c0.5,0.4,0.7,0.9,0.9,1.6v0.5l4-0.5v-0.5c-0.2-1.8-1.1-3.1-2.3-4c-1.3-0.9-2.9-1.3-5.1-1.3
		c-2,0-3.6,0.5-4.9,1.4c-1.3,1.1-2,2.3-2,4c0,1.3,0.5,2.3,1.3,3.3c0.9,0.9,2.5,1.6,5.1,2.2c1.6,0.4,2.7,0.7,3.1,0.7
		c0.4,0.2,0.7,0.4,0.9,0.5c0.2,0.2,0.4,0.4,0.4,0.7c0,0.5-0.2,1.1-0.7,1.4c-0.5,0.4-1.4,0.7-2.5,0.7c-1.1,0-2-0.2-2.7-0.7
		c-0.5-0.5-0.9-1.3-1.1-2.2v-0.7l-4.2,0.5l0.2,0.5c0.4,2,1.1,3.4,2.5,4.5c1.3,0.9,3.1,1.4,5.4,1.4c2.2,0,4-0.5,5.4-1.6
		c1.4-1.1,2-2.5,2-4.3c0-1.3-0.4-2.3-0.9-3.1C489.5,131.2,488.8,130.7,487.7,130.3z M498.6,116h-4.2v4.5h4.2V116z M494.4,140.4h4.2
		v-18.1h-4.2V140.4z M511,122c-1.6,0-2.9,0.5-4,1.4V116h-4.2v24.4h4v-1.1c1.1,0.9,2.5,1.4,4,1.4c2.2,0,4-0.9,5.6-2.5
		c1.6-1.6,2.3-4.2,2.3-7.2c0-2.7-0.7-4.9-2.2-6.5C515.4,122.9,513.4,122,511,122z M513.6,135.7c-0.7,0.9-1.6,1.4-2.7,1.4l0,0
		c-0.7,0-1.4-0.2-2-0.7c-0.7-0.5-1.1-1.1-1.4-1.8c-0.2-0.4-0.5-1.4-0.5-3.4c0-1.6,0.4-3.1,1.1-4.2c0.7-1.1,1.6-1.4,2.7-1.4
		c1.3,0,2.2,0.5,2.7,1.4c0.7,1.1,1.1,2.5,1.1,4.3C514.7,133.4,514.3,134.8,513.6,135.7z M526.4,116h-4.2v24.4h4.2V116z M546.8,134.3
		l-4.2-0.5l-0.2,0.5c-0.4,1.1-0.9,1.8-1.4,2.3s-1.4,0.7-2.3,0.7c-1.3,0-2.3-0.4-3.1-1.3c-0.7-0.7-1.1-1.8-1.3-3.3H547v-0.5
		c0-2.9-0.4-4.9-1.3-6.3c-0.9-1.4-2-2.3-3.3-2.9c-1.3-0.5-2.5-0.9-3.8-0.9c-2.7,0-4.9,0.9-6.3,2.7c-1.4,1.8-2.2,4-2.2,6.9
		s0.7,5.1,2.3,6.7c1.4,1.6,3.6,2.5,6.3,2.5c2,0,3.8-0.5,5.2-1.4c1.4-1.1,2.3-2.5,2.9-4.3L546.8,134.3z M535.6,126.7
		c0.7-0.7,1.6-1.1,2.9-1.1c0.9,0,1.8,0.4,2.7,1.1c0.7,0.5,1.1,1.4,1.3,2.5h-8.1C534.5,128.1,534.9,127.4,535.6,126.7z M363.8,166.8
		c-0.9-0.4-2.2-0.7-4-1.3c-1.6-0.4-2.5-0.7-3.1-0.9c-0.4-0.2-0.5-0.4-0.5-0.9s0.2-0.9,0.7-1.1c0.5-0.4,1.3-0.5,2.3-0.5
		c1.1,0,1.8,0.2,2.2,0.5c0.5,0.4,0.7,0.9,0.9,1.6v0.5l4-0.5v-0.5c-0.2-1.8-1.1-3.1-2.3-4c-1.3-0.9-2.9-1.3-5.1-1.3
		c-2,0-3.6,0.5-4.9,1.4c-1.3,1.1-2,2.3-2,4c0,1.3,0.5,2.3,1.3,3.3c0.9,0.9,2.5,1.6,5.1,2.2c1.6,0.4,2.7,0.7,3.1,0.9s0.7,0.4,0.9,0.5
		c0.2,0.2,0.4,0.4,0.4,0.7c0,0.5-0.2,1.1-0.7,1.4c-0.5,0.4-1.4,0.7-2.5,0.7c-1.1,0-2-0.2-2.7-0.7c-0.5-0.5-0.9-1.3-1.1-2.2v-0.7
		l-4.2,0.5l0.2,0.5c0.4,2,1.1,3.4,2.5,4.5c1.3,0.9,3.1,1.4,5.4,1.4c2.2,0,4-0.5,5.4-1.6c1.4-1.1,2-2.5,2-4.3c0-1.3-0.4-2.3-0.9-3.1
		C365.6,167.7,364.9,167.2,363.8,166.8z M386.5,167.7c0-2.9-0.9-5.1-2.5-6.7c-1.6-1.6-3.6-2.3-6.1-2.3l0,0c-2.3,0-4.5,0.7-6.1,2.3
		c-1.6,1.6-2.5,4-2.5,7c0,3.3,0.9,5.6,2.5,7.2c1.6,1.4,3.6,2.3,6,2.3c2.2,0,4.2-0.7,6-2.2C385.6,173.7,386.5,171.3,386.5,167.7z
		 M381.1,172.2c-0.7,1.1-1.8,1.4-3.3,1.4c-1.3,0-2.3-0.5-3.1-1.4c-0.9-0.9-1.3-2.5-1.3-4.3c0-2,0.4-3.4,1.3-4.5
		c0.7-0.9,1.8-1.4,3.1-1.4c1.3,0,2.2,0.4,3.1,1.4c0.9,0.9,1.3,2.3,1.3,4.3C382.4,169.7,382,171.2,381.1,172.2z M404.8,177.1V159
		h-4.2v9.6c0,2.2-0.4,3.6-1.3,4.2c-0.9,0.7-1.6,0.9-2.7,0.9c-0.7,0-1.3-0.2-1.8-0.5c-0.5-0.4-0.7-0.7-0.9-1.3
		c-0.2-0.5-0.2-1.6-0.2-3.1V159h-4.2v11c0,1.6,0.2,2.9,0.5,4c0.4,1.1,1.1,2,2.3,2.5c1.1,0.5,2.3,0.9,3.6,0.9c1.8,0,3.4-0.5,4.7-1.8
		v1.4H404.8z M419.3,159.6c-2.2-1.4-4.7-1.4-6.3,0.5V159h-3.8v18.1h4.2v-9.4c0-1.6,0.2-2.9,0.7-3.6c0.7-1.3,2.2-1.4,3.6-0.5l0.7,0.4
		l1.4-3.8L419.3,159.6z M432.3,170.2c-0.2,1.3-0.5,2.2-1.1,2.7c-0.5,0.5-1.4,0.9-2.5,0.9c-1.3,0-2.3-0.5-3.1-1.4
		c-0.7-1.1-1.1-2.5-1.1-4.3s0.4-3.4,1.1-4.3c0.7-0.9,1.8-1.4,3.1-1.4c0.9,0,1.4,0.2,2,0.7c0.5,0.5,0.9,1.3,1.3,2.2l0.2,0.5l4-0.5
		l-0.2-0.7c-0.4-2-1.3-3.4-2.5-4.3c-1.3-0.9-2.9-1.4-4.9-1.4c-1.3,0-2.7,0.4-4,0.9s-2.3,1.6-3.3,3.1c-0.9,1.4-1.3,3.3-1.3,5.6
		c0,2.7,0.7,5.1,2.2,6.7c1.4,1.8,3.6,2.7,6.1,2.7c1.8,0,3.4-0.5,4.9-1.6c1.4-1.1,2.3-2.9,2.7-5.1l0.2-0.7l-4.2-0.5L432.3,170.2z
		 M451.8,175.9c1.4-1.1,2.3-2.5,2.9-4.3l0.2-0.7l-4.2-0.5l-0.2,0.5c-0.4,1.1-0.9,1.8-1.4,2.3c-0.5,0.5-1.4,0.7-2.3,0.7
		c-1.3,0-2.3-0.4-3.1-1.3c-0.7-0.7-1.1-1.8-1.3-3.3H455v-0.5c0-2.7-0.4-4.9-1.3-6.3c-0.9-1.4-2-2.3-3.3-2.9
		c-1.3-0.5-2.5-0.9-3.8-0.9c-2.7,0-4.9,0.9-6.3,2.7c-1.4,1.8-2.2,4-2.2,6.9c0,2.9,0.7,5.1,2.3,6.9c1.6,1.6,3.6,2.5,6.3,2.5
		C448.7,177.5,450.5,176.9,451.8,175.9z M443.6,163.4c0.7-0.7,1.6-1.1,2.9-1.1c1.1,0,1.8,0.4,2.7,0.9c0.7,0.5,1.1,1.4,1.3,2.5h-8.1
		C442.6,164.8,443.1,163.9,443.6,163.4z M471.5,168.4c-0.5-0.7-1.3-1.3-2.3-1.6c-0.9-0.4-2.3-0.7-4-1.3c-1.6-0.4-2.5-0.7-3.1-0.9
		c-0.4-0.2-0.5-0.4-0.5-0.9s0.2-0.9,0.7-1.1c0.5-0.4,1.3-0.5,2.3-0.5c0.9,0,1.8,0.2,2.2,0.5c0.5,0.4,0.7,0.9,0.9,1.6v0.5l4.2-0.5
		l-0.2-0.7c-0.2-1.8-1.1-3.1-2.3-4c-1.3-0.9-2.9-1.3-5.1-1.3c-2,0-3.6,0.5-4.9,1.4c-1.3,1.1-2,2.3-2,4c0,1.3,0.5,2.3,1.3,3.3
		c0.9,0.9,2.5,1.6,5.1,2.3c1.6,0.4,2.7,0.7,3.1,0.9s0.7,0.4,0.9,0.5c0.2,0.2,0.4,0.4,0.4,0.7c0,0.5-0.2,1.1-0.7,1.4
		c-0.5,0.4-1.4,0.7-2.5,0.7s-2-0.2-2.7-0.7c-0.5-0.5-0.9-1.3-1.1-2.2v-0.7l-4.2,0.5l0.2,0.5c0.4,2,1.1,3.4,2.5,4.5
		c1.3,0.9,3.1,1.4,5.4,1.4c2.2,0,4-0.5,5.4-1.6c1.4-1.1,2-2.5,2-4.3C472.4,170.2,472,169.2,471.5,168.4z M260.2,250.5h5.8v-14.1
		h14.6V231H266v-8h17v-5.4h-22.6L260.2,250.5z M306.9,232.2c-1.6-0.5-3.8-1.3-6.3-1.8c-2.9-0.7-4.7-1.3-5.6-1.8
		c-0.7-0.5-1.1-1.3-1.1-2.3c0-1.3,0.5-2.2,1.6-2.7c1.3-0.7,2.7-1.1,4.7-1.1c2.2,0,3.8,0.5,4.9,1.3c1.1,0.9,1.6,2.2,1.8,3.8v0.9
		l5.6-0.5V227c-0.2-3.3-1.4-5.8-3.6-7.6c-2.2-1.6-5.2-2.5-8.9-2.5c-3.6,0-6.3,0.9-8.5,2.7c-2.2,1.8-3.3,4-3.3,6.9
		c0,2.3,0.9,4.3,2.5,6c1.6,1.4,4.3,2.5,8,3.4c3.4,0.7,5.8,1.4,7.2,2.2c1.3,0.7,1.8,1.6,1.8,2.9c0,1.3-0.5,2.3-1.8,3.1
		c-1.3,0.9-3.1,1.3-5.1,1.3c-2.3,0-4.2-0.5-5.8-1.6c-1.4-0.9-2.3-2.5-2.5-4.7V238l-5.6,0.5v0.7c0.2,3.3,1.4,6,3.8,8.1
		c2.3,2,5.8,3.1,10.3,3.1c3.6,0,6.5-0.9,8.9-2.9c2.3-2,3.4-4.3,3.4-7.2c0-2.3-0.7-4.2-2-5.6C310.1,233.9,308.7,233,306.9,232.2z
		 M341.2,238.6c-0.5,2.3-1.6,4.3-2.9,5.4c-1.4,1.3-3.1,1.8-5.4,1.8c-2.7,0-4.9-0.9-6.5-2.9c-1.6-2-2.5-5.1-2.5-9
		c0-3.6,0.9-6.3,2.5-8.3c1.6-2,4-3.1,7-3.1c1.8,0,3.4,0.5,4.7,1.4s2.2,2.5,2.9,4.5l0.2,0.7l5.6-1.3l-0.2-0.9
		c-0.9-3.1-2.5-5.6-4.9-7.2c-2.3-1.6-5.1-2.5-8.3-2.5c-4.5,0-8.3,1.4-11.2,4.5c-2.9,2.9-4.3,7-4.3,12.1c0,4.7,1.3,8.7,3.6,11.9
		c2.5,3.4,6.5,5.1,11.7,5.1c3.3,0,6.3-0.9,8.7-2.7c2.3-1.8,4.2-4.5,5.1-8.3l0.2-0.9l-5.8-1.4L341.2,238.6z M357.6,218L357.6,218
		c-2.3,0-4.3,0.9-6,2.5c-1.6,1.6-2.5,3.6-2.5,6s0.9,4.3,2.5,6c1.6,1.6,3.6,2.5,6,2.5s4.3-0.9,6-2.5c1.6-1.6,2.5-3.6,2.5-6
		s-0.9-4.3-2.5-6C362,218.9,360,218,357.6,218z M357.6,232.6c-1.4,0-2.7-0.5-4-1.4h2.2v-3.6h0.4c0.4,0,0.7,0.2,0.9,0.4
		s0.5,0.5,2,3.1l0.2,0.2h2.2C360.5,232.2,359.3,232.6,357.6,232.6z M356,225.5v-1.8h1.1c1.1,0,1.4,0.2,1.4,0.2
		c0.2,0.2,0.4,0.4,0.4,0.5c0,0.4-0.2,0.5-0.4,0.5c-0.2,0.2-0.5,0.2-1.4,0.2H356V225.5z M362.2,230.8
		C362.2,230.8,362,231,362.2,230.8l-1.3-1.8c-0.5-0.7-0.9-1.4-1.3-1.8c0.4-0.2,0.7-0.4,1.1-0.7c0.5-0.5,0.7-1.3,0.7-1.8
		s-0.2-1.1-0.5-1.6c-0.4-0.5-0.9-0.7-1.4-0.9c-0.5-0.2-1.3-0.2-2.2-0.2h-3.4v9.4c-0.2-0.2-0.4-0.2-0.5-0.4c-1.3-1.3-1.8-2.7-1.8-4.3
		c0-1.6,0.5-3.3,1.8-4.3c1.3-1.3,2.7-1.8,4.3-1.8c1.8,0,3.3,0.5,4.3,1.8c1.3,1.3,1.8,2.7,1.8,4.3C364,228.1,363.4,229.5,362.2,230.8
		z M406.8,238.6c-0.5,2.3-1.6,4.3-2.9,5.4c-1.4,1.3-3.1,1.8-5.4,1.8c-2.7,0-4.9-0.9-6.5-2.9c-1.6-2-2.5-5.1-2.5-9
		c0-3.6,0.9-6.3,2.5-8.3c1.6-2,4-3.1,7-3.1c2,0,3.4,0.5,4.7,1.4s2.2,2.5,2.9,4.5l0.2,0.7l5.6-1.3l-0.2-0.9c-0.9-3.1-2.5-5.6-4.9-7.2
		c-2.3-1.6-5.1-2.5-8.3-2.5c-4.5,0-8.3,1.4-11.2,4.5c-2.9,2.9-4.3,7-4.3,12.1c0,4.7,1.3,8.7,3.6,11.9c2.5,3.4,6.5,5.1,11.7,5.1
		c3.4,0,6.3-0.9,8.7-2.7c2.3-1.8,4.2-4.5,5.1-8.3l0.2-0.9l-5.8-1.4L406.8,238.6z M428.1,218.1c-1.4,2.9-4.3,5.4-8.7,7.4l-0.5,0.2
		v5.4l1.1-0.4c2.5-0.9,4.7-2.2,6.5-3.6v23.3h5.4v-32.7h-3.8L428.1,218.1z M453.9,218.1c-1.4,2.9-4.3,5.4-8.7,7.4l-0.5,0.2v5.4
		l1.1-0.4c2.5-0.9,4.7-2.2,6.5-3.6v23.3h5.4v-32.7h-3.8V218.1z M479.8,218.1c-1.4,2.9-4.3,5.4-8.7,7.4l-0.5,0.2v5.4l1.1-0.4
		c2.5-1.1,4.7-2.2,6.5-3.6v23.3h5.4v-32.7H480L479.8,218.1z M511,232.8c2.2-1.3,3.4-3.4,3.4-6.1c0-2.5-0.9-4.5-2.7-6.3
		c-1.8-1.8-4.2-2.5-7-2.5c-2.9,0-5.2,0.9-7,2.5c-1.8,1.6-2.7,3.8-2.7,6.3c0,2.7,1.1,4.9,3.3,6.1c-1.1,0.5-2,1.3-2.7,2.3
		c-1.1,1.6-1.8,3.4-1.8,5.6c0,2.9,1.1,5.4,3.1,7.4c2,2,4.7,2.9,8,2.9s5.8-0.9,8-2.9c2.2-2,3.1-4.3,3.1-7.2
		C515.6,236.9,514.1,234.2,511,232.8z M501.5,223.6c0.7-0.7,1.8-1.1,3.1-1.1s2.2,0.4,3.1,1.3c0.9,0.7,1.3,1.8,1.3,2.9
		c0,1.1-0.4,2-1.3,2.9c-0.7,0.7-1.8,1.1-3.1,1.1s-2.2-0.4-3.1-1.1c-0.7-0.7-1.3-1.8-1.3-3.1C500.4,225.4,500.7,224.5,501.5,223.6z
		 M508.5,244.7c-1.1,1.1-2.3,1.4-4,1.4s-2.9-0.5-4-1.6c-1.1-1.1-1.6-2.3-1.6-4c0-1.4,0.5-2.7,1.4-3.8c1.1-1.1,2.3-1.6,4-1.6
		c1.6,0,2.9,0.5,4,1.6c1.1,1.1,1.6,2.3,1.6,4C510,242.3,509.6,243.6,508.5,244.7z M519.5,223.6h14.3c-2.7,3.4-5.1,7.4-6.7,11.9
		c-2,5.1-3.1,9.9-3.3,14.1v0.9h5.6v-0.7c0.4-5.1,1.6-10.1,3.8-15c2.2-4.9,4.9-8.9,7.8-12.1l0.2-0.2v-4.2h-21.9v5.2H519.5z
		 M562.5,232.8c2.2-1.3,3.4-3.4,3.4-6.1c0-2.5-0.9-4.5-2.7-6.3c-1.8-1.8-4.2-2.5-7-2.5c-2.9,0-5.2,0.9-7,2.5
		c-1.8,1.6-2.7,3.8-2.7,6.3c0,2.9,1.1,4.9,3.3,6.1c-1.1,0.5-2,1.3-2.7,2.3c-1.1,1.6-1.8,3.4-1.8,5.6c0,2.9,1.1,5.4,3.1,7.4
		s4.7,2.9,8,2.9c3.3,0,6-0.9,8-2.9c2.2-2,3.1-4.3,3.1-7.2C567.2,236.9,565.8,234.2,562.5,232.8z M553.1,223.6
		c0.7-0.7,1.8-1.1,3.1-1.1c1.3,0,2.2,0.4,3.1,1.3c0.9,0.7,1.3,1.8,1.3,2.9c0,1.1-0.4,2-1.3,2.9c-0.7,0.7-1.8,1.1-3.1,1.1
		c-1.3,0-2.2-0.4-3.1-1.1c-0.7-0.7-1.3-1.6-1.3-3.1C552.1,225.4,552.4,224.5,553.1,223.6z M560.2,244.7c-1.1,1.1-2.3,1.4-4,1.4
		c-1.6,0-2.9-0.5-4-1.6c-1.1-1.1-1.6-2.3-1.6-4c0-1.4,0.5-2.7,1.4-3.8c1.1-1.1,2.3-1.6,4-1.6c1.6,0,2.9,0.5,4,1.6
		c1.1,1.1,1.6,2.3,1.6,4C561.6,242.3,561.1,243.6,560.2,244.7z"/>
	<path class="st1" d="M586.2,278.1H25.8c-10.8,0-19.5-8.7-19.5-19.5v-234C6.3,13.8,15,5.1,25.8,5.1h560.5c10.8,0,19.5,8.7,19.5,19.5
		v234C605.7,269.4,597,278.1,586.2,278.1z"/>
</g>
</svg>
