<?xml version="1.0" encoding="utf-8"?>
<!-- Generator: Adobe Illustrator 25.4.1, SVG Export Plug-In . SVG Version: 6.00 Build 0)  -->
<svg version="1.1" id="Calque_1" xmlns="http://www.w3.org/2000/svg" xmlns:xlink="http://www.w3.org/1999/xlink" x="0px" y="0px"
	 viewBox="0 0 350 185.6" style="enable-background:new 0 0 350 185.6;" xml:space="preserve">
<style type="text/css">
	.st0{fill-rule:evenodd;clip-rule:evenodd;fill:#79C3BE;}
	.st1{fill:none;stroke:#343740;stroke-miterlimit:10;}
	.st2{fill:#FFFFFF;stroke:#343740;stroke-miterlimit:10;}
	.st3{fill:#FFFFFF;}
	.st4{fill:none;stroke:#79C3BE;stroke-miterlimit:10;}
	.st5{fill:#F3F3F3;}
	.st6{fill:none;}
	.st7{fill:#343740;}
	.st8{enable-background:new    ;}
</style>
<polygon class="st0" points="162.9,5.5 162.9,5.5 162.3,5.5 162.3,5.5 161.6,5.6 161.5,5.6 160.9,5.7 160.9,5.7 160.4,6 160.2,6 
	159.7,6.1 159.7,6.1 159.1,6.4 159.1,6.4 158.6,6.6 158.5,6.6 158,7 158,7 157.5,7.4 157.5,7.4 157,7.8 157,7.8 156.4,8.2 
	156.4,8.2 156.1,8.5 155.9,8.5 155.6,9 155.6,9 155.2,9.4 155.2,9.4 154.8,9.9 154.8,9.9 154.4,10.4 154.4,10.6 154.2,11.1 
	154.2,11.1 153.8,11.6 153.8,11.6 153.5,12.2 153.5,12.2 153.4,12.8 153.4,12.8 153.2,13.3 153.2,13.5 153,14 153,14.1 152.9,14.6 
	152.9,14.7 152.9,15.4 152.9,15.4 152.9,16 152.9,16 152.9,16.6 152.9,16.6 152.9,17.3 152.9,17.4 153,17.9 153,18 153.2,18.5 
	153.2,18.7 153.4,19.2 153.4,19.3 153.5,19.8 153.5,19.8 153.8,20.4 153.8,20.4 154.2,20.9 154.2,20.9 154.4,21.4 154.4,21.6 
	154.8,22.1 154.8,22.1 155.2,22.6 155.2,22.6 155.6,23 155.6,23 155.9,23.5 155.9,23.5 156.4,23.9 156.4,23.9 157,24.2 157,24.4 
	157.5,24.6 157.5,24.7 158,25 158,25 158.5,25.4 158.5,25.4 159.1,25.6 159.1,25.6 159.7,25.9 159.7,25.9 160.2,26.1 160.2,26.1 
	160.9,26.3 160.9,26.3 161.5,26.4 161.5,26.4 162.1,26.5 162.3,26.5 162.9,26.5 162.9,26.5 163.5,26.5 164.2,26.5 164.3,26.5 
	164.9,26.5 164.9,26.5 165.6,26.4 165.6,26.4 166.2,26.3 166.2,26.3 166.8,26.1 166.8,26.1 167.5,25.9 167.5,25.9 168,25.6 
	168,25.6 168.6,25.4 168.6,25.4 169.1,25 169.1,25 169.6,24.7 169.6,24.7 170.1,24.4 170.1,24.4 170.6,24 170.6,23.9 171.1,23.5 
	171.1,23.5 171.5,23.1 171.5,23 171.9,22.6 171.9,22.6 172.3,22.1 172.3,22.1 172.7,21.6 172.7,21.6 173,20.9 173,20.9 173.3,20.4 
	173.3,20.4 173.5,19.8 173.5,19.8 173.8,19.3 173.8,19.2 173.9,18.7 173.9,18.7 174,18 174,18 174.2,17.4 174.2,17.4 174.2,16.8 
	174.2,16.6 174.3,16 174.2,15.4 174.2,15.4 174.2,14.7 174.2,14.7 174,14.1 174,14.1 173.9,13.5 173.9,13.5 173.8,12.8 173.8,12.8 
	173.5,12.2 173.5,12.2 173.3,11.7 173.3,11.6 173,11.1 173,11.1 172.7,10.6 172.7,10.6 172.4,10.1 172.3,9.9 172,9.5 171.9,9.4 
	171.5,9 171.5,9 171.1,8.5 171.1,8.5 170.6,8.2 170.6,8.2 170.2,7.8 170.1,7.8 169.7,7.4 169.6,7.4 169.1,7 169.1,7 168.6,6.8 
	168.6,6.6 168,6.4 168,6.4 167.5,6.1 167.5,6.1 166.8,6 166.8,6 166.2,5.7 166.2,5.7 165.6,5.6 165.6,5.6 164.9,5.5 164.9,5.5 
	164.3,5.5 164.2,5.5 163.5,5.5 "/>
<polygon class="st0" points="223.9,19.2 223.9,19.2 223.2,19.2 223.2,19.2 222.6,19.3 222.5,19.3 221.8,19.4 221.8,19.4 221.3,19.7 
	221.2,19.7 220.7,19.8 220.7,19.8 220.1,20 220.1,20 219.5,20.3 219.4,20.3 218.9,20.7 218.9,20.7 218.4,21.1 218.4,21.1 
	217.9,21.4 217.9,21.4 217.4,21.8 217.4,21.8 217,22.2 216.9,22.2 216.5,22.7 216.5,22.7 216.1,23.1 216.1,23.1 215.7,23.6 
	215.7,23.6 215.4,24.1 215.4,24.2 215.1,24.7 215.1,24.7 214.7,25.2 214.7,25.2 214.5,25.9 214.5,25.9 214.4,26.5 214.4,26.5 
	214.1,27 214.1,27.1 214,27.6 214,27.8 213.8,28.3 213.8,28.4 213.8,29 213.8,29 213.8,29.7 213.8,29.7 213.8,30.3 213.8,30.3 
	213.8,30.9 213.8,31.1 214,31.6 214,31.7 214.1,32.2 214.1,32.3 214.4,32.8 214.4,33 214.5,33.5 214.5,33.5 214.7,34.1 214.7,34.1 
	215.1,34.6 215.1,34.6 215.4,35.1 215.4,35.2 215.7,35.7 215.7,35.7 216.1,36.3 216.1,36.3 216.5,36.6 216.5,36.6 216.9,37.1 
	216.9,37.1 217.4,37.5 217.4,37.5 217.9,37.9 217.9,38 218.4,38.3 218.4,38.4 218.9,38.7 218.9,38.7 219.4,39 219.4,39 220.1,39.3 
	220.1,39.3 220.7,39.5 220.7,39.5 221.2,39.8 221.2,39.8 221.8,39.9 221.8,39.9 222.5,40.1 222.5,40.1 223.1,40.2 223.2,40.2 
	223.9,40.2 223.9,40.2 224.5,40.2 225.1,40.2 225.2,40.2 225.9,40.2 225.9,40.2 226.5,40.1 226.5,40.1 227.1,39.9 227.1,39.9 
	227.8,39.8 227.8,39.8 228.4,39.5 228.4,39.5 228.9,39.3 228.9,39.3 229.6,39 229.6,39 230.1,38.7 230.1,38.7 230.6,38.4 
	230.6,38.4 231.1,38 231.1,38 231.6,37.6 231.6,37.5 232.1,37.1 232.1,37.1 232.5,36.8 232.5,36.6 232.8,36.3 232.8,36.3 
	233.2,35.7 233.2,35.7 233.6,35.2 233.6,35.2 234,34.6 234,34.6 234.2,34.1 234.2,34.1 234.5,33.5 234.5,33.5 234.7,33 234.7,32.8 
	234.9,32.3 234.9,32.3 235,31.7 235,31.7 235.1,31.1 235.1,31.1 235.1,30.4 235.1,30.3 235.3,29.7 235.1,29 235.1,29 235.1,28.4 
	235.1,28.4 235,27.8 235,27.8 234.9,27.1 234.9,27.1 234.7,26.5 234.7,26.5 234.5,25.9 234.5,25.9 234.2,25.4 234.2,25.2 234,24.7 
	234,24.7 233.6,24.2 233.6,24.2 233.4,23.7 233.2,23.6 233,23.2 232.8,23.1 232.5,22.7 232.5,22.7 232.1,22.2 232.1,22.2 
	231.6,21.8 231.6,21.8 231.2,21.4 231.1,21.4 230.7,21.1 230.6,21.1 230.1,20.7 230.1,20.7 229.6,20.4 229.6,20.3 228.9,20 
	228.9,20 228.4,19.8 228.4,19.8 227.8,19.7 227.8,19.7 227.1,19.4 227.1,19.4 226.5,19.3 226.5,19.3 225.9,19.2 225.9,19.2 
	225.2,19.2 225.1,19.2 224.5,19.2 "/>
<polygon class="st0" points="215.2,155.9 215.2,155.9 214.6,155.9 214.6,155.9 213.9,156 213.8,156 213.2,156.1 213.2,156.1 
	212.7,156.4 212.5,156.4 212,156.5 212,156.5 211.4,156.8 211.4,156.8 210.9,157 210.8,157 210.3,157.4 210.3,157.4 209.8,157.8 
	209.8,157.8 209.3,158.2 209.3,158.2 208.7,158.5 208.7,158.5 208.4,158.9 208.2,158.9 207.9,159.4 207.9,159.4 207.5,159.8 
	207.5,159.8 207.1,160.3 207.1,160.3 206.7,160.8 206.7,160.9 206.5,161.4 206.5,161.4 206.1,161.9 206.1,161.9 205.8,162.6 
	205.8,162.6 205.7,163.2 205.7,163.2 205.5,163.7 205.5,163.8 205.3,164.4 205.3,164.5 205.2,165 205.2,165.1 205.2,165.7 
	205.2,165.7 205.2,166.4 205.2,166.4 205.2,167 205.2,167 205.2,167.6 205.2,167.8 205.3,168.3 205.3,168.4 205.5,168.9 205.5,169 
	205.7,169.5 205.7,169.7 205.8,170.2 205.8,170.2 206.1,170.8 206.1,170.8 206.5,171.3 206.5,171.3 206.7,171.8 206.7,172 
	207.1,172.5 207.1,172.5 207.5,173 207.5,173 207.9,173.3 207.9,173.3 208.2,173.9 208.2,173.9 208.7,174.2 208.7,174.2 
	209.3,174.6 209.3,174.7 209.8,175 209.8,175.1 210.3,175.4 210.3,175.4 210.8,175.8 210.8,175.8 211.4,176 211.4,176 212,176.3 
	212,176.3 212.5,176.5 212.5,176.5 213.2,176.6 213.2,176.6 213.8,176.8 213.8,176.8 214.4,176.9 214.6,176.9 215.2,176.9 
	215.2,176.9 215.8,176.9 216.5,176.9 216.6,176.9 217.2,176.9 217.2,176.9 217.9,176.8 217.9,176.8 218.5,176.6 218.5,176.6 
	219.1,176.5 219.1,176.5 219.8,176.3 219.8,176.3 220.3,176 220.3,176 220.9,175.8 220.9,175.8 221.4,175.4 221.4,175.4 
	221.9,175.1 221.9,175.1 222.4,174.7 222.4,174.7 222.9,174.4 222.9,174.2 223.4,173.9 223.4,173.9 223.8,173.5 223.8,173.3 
	224.2,173 224.2,173 224.6,172.5 224.6,172.5 225,172 225,172 225.3,171.3 225.3,171.3 225.6,170.8 225.6,170.8 225.8,170.2 
	225.8,170.2 226.1,169.7 226.1,169.5 226.2,169 226.2,169 226.3,168.4 226.3,168.4 226.5,167.8 226.5,167.8 226.5,167.1 226.5,167 
	226.6,166.4 226.5,165.7 226.5,165.7 226.5,165.1 226.5,165.1 226.3,164.5 226.3,164.5 226.2,163.8 226.2,163.8 226.1,163.2 
	226.1,163.2 225.8,162.6 225.8,162.6 225.6,162.1 225.6,161.9 225.3,161.4 225.3,161.4 225,160.9 225,160.9 224.7,160.4 
	224.6,160.3 224.3,159.9 224.2,159.8 223.8,159.4 223.8,159.4 223.4,158.9 223.4,158.9 222.9,158.5 222.9,158.5 222.5,158.2 
	222.4,158.2 222,157.8 221.9,157.8 221.4,157.4 221.4,157.4 220.9,157.1 220.9,157 220.3,156.8 220.3,156.8 219.8,156.5 
	219.8,156.5 219.1,156.4 219.1,156.4 218.5,156.1 218.5,156.1 217.9,156 217.9,156 217.2,155.9 217.2,155.9 216.6,155.9 
	216.5,155.9 215.8,155.9 "/>
<polygon class="st0" points="115.4,157.6 115.4,157.6 114.8,157.6 114.8,157.6 114.2,157.8 114,157.8 113.4,157.9 113.4,157.9 
	112.9,158.2 112.8,158.2 112.3,158.3 112.3,158.3 111.6,158.5 111.6,158.5 111.1,158.8 111,158.8 110.5,159.2 110.5,159.2 
	110,159.5 110,159.5 109.5,159.9 109.5,159.9 109,160.3 109,160.3 108.6,160.7 108.5,160.7 108.1,161.2 108.1,161.2 107.7,161.6 
	107.7,161.6 107.3,162.1 107.3,162.1 106.9,162.6 106.9,162.7 106.7,163.2 106.7,163.2 106.3,163.7 106.3,163.7 106,164.4 
	106,164.4 105.9,165 105.9,165 105.7,165.5 105.7,165.6 105.5,166.1 105.5,166.3 105.4,166.8 105.4,166.9 105.4,167.5 105.4,167.5 
	105.4,168.2 105.4,168.2 105.4,168.8 105.4,168.8 105.4,169.4 105.4,169.5 105.5,170.1 105.5,170.2 105.7,170.7 105.7,170.8 
	105.9,171.3 105.9,171.4 106,172 106,172 106.3,172.6 106.3,172.6 106.7,173.1 106.7,173.1 106.9,173.6 106.9,173.7 107.3,174.2 
	107.3,174.2 107.7,174.7 107.7,174.7 108.1,175.1 108.1,175.1 108.5,175.6 108.5,175.6 109,176 109,176 109.5,176.4 109.5,176.5 
	110,176.8 110,176.9 110.5,177.1 110.5,177.1 111,177.5 111,177.5 111.6,177.8 111.6,177.8 112.3,178 112.3,178 112.8,178.3 
	112.8,178.3 113.4,178.4 113.4,178.4 114,178.5 114,178.5 114.7,178.7 114.8,178.7 115.4,178.7 115.4,178.7 116.1,178.7 
	116.7,178.7 116.8,178.7 117.4,178.7 117.4,178.7 118.1,178.5 118.1,178.5 118.7,178.4 118.7,178.4 119.3,178.3 119.3,178.3 
	120,178 120,178 120.5,177.8 120.5,177.8 121.1,177.5 121.1,177.5 121.6,177.1 121.6,177.1 122.1,176.9 122.1,176.9 122.6,176.5 
	122.6,176.5 123.1,176.1 123.1,176 123.7,175.6 123.7,175.6 124,175.2 124,175.1 124.4,174.7 124.4,174.7 124.8,174.2 124.8,174.2 
	125.2,173.7 125.2,173.7 125.5,173.1 125.5,173.1 125.8,172.6 125.8,172.6 126.1,172 126.1,172 126.3,171.4 126.3,171.3 
	126.4,170.8 126.4,170.8 126.6,170.2 126.6,170.2 126.7,169.5 126.7,169.5 126.7,168.9 126.7,168.8 126.8,168.2 126.7,167.5 
	126.7,167.5 126.7,166.9 126.7,166.9 126.6,166.3 126.6,166.3 126.4,165.6 126.4,165.6 126.3,165 126.3,165 126.1,164.4 
	126.1,164.4 125.8,163.8 125.8,163.7 125.5,163.2 125.5,163.2 125.2,162.7 125.2,162.7 124.9,162.2 124.8,162.1 124.5,161.7 
	124.4,161.6 124,161.2 124,161.2 123.7,160.7 123.7,160.7 123.1,160.3 123.1,160.3 122.8,159.9 122.6,159.9 122.3,159.5 
	122.1,159.5 121.6,159.2 121.6,159.2 121.1,158.9 121.1,158.8 120.5,158.5 120.5,158.5 120,158.3 120,158.3 119.3,158.2 
	119.3,158.2 118.7,157.9 118.7,157.9 118.1,157.8 118.1,157.8 117.4,157.6 117.4,157.6 116.8,157.6 116.7,157.6 116.1,157.6 "/>
<g>
	<g>
		<path class="st1" d="M272.7,107.9c-9.8-4.9-22.4-6.2-33.8-6.2c-11.4,0-43.8,0-55.1,0c-11.3,0-43.7,0-55.1,0
			c-11.5,0-24,1.3-33.8,6.2c2.8-1.7,17.5-11.4,36.1-11.4c4.6,0,40.8,0,52.8,0s48.3,0,52.8,0C255.2,96.5,269.9,106.2,272.7,107.9z"/>
		<g>
			<path class="st2" d="M272.7,107.9c-9.8-4.9-22.4-6.2-33.8-6.2c-11.4,0-43.8,0-55.1,0c-11.3,0-43.7,0-55.1,0
				c-11.5,0-24,1.3-33.8,6.2c2.8-1.7,17.5-11.4,36.1-11.4c4.6,0,40.8,0,52.8,0s48.3,0,52.8,0C255.2,96.5,269.9,106.2,272.7,107.9z"
				/>
			<path class="st1" d="M199.9,98h-32.3c-5.1,0-9.2,0.5-9.2,1.2s4.1,1.2,9.2,1.2h32.3c5.1,0,9.2-0.5,9.2-1.2
				C209.2,98.5,205,98,199.9,98z"/>
		</g>
	</g>
	<g>
		<path class="st3" d="M127,50.8c5,0.8,20.9,2.2,25.7,0.5c2.6-0.9,4.8-2.6,7.5-3.2c6.2-1.4,12.2,3,18.5,2.9
			c6.1-0.1,11.9-4.3,17.8-2.9c3,0.7,5.4,2.8,8.2,4c9.2,3.6,20.4-3.7,29.8-0.5c-13.8,14.2-24.4,30.9-30.9,48.7c-3.6,0-7.1,0-10.7-0.1
			c-3.6,0-7.1,0-10.7-0.1c-3.6,0-7.1,0-10.7-0.1c-1.8,0-3.6,0-5.4,0c-0.5,0-1.6,0.2-2-0.2c-0.3-0.4-0.4-1.2-0.5-1.6
			c-0.8-2.7-4.2-12.1-16.4-27.4C138.4,59.6,127.2,50.9,127,50.8z"/>
		<g>
			<path class="st1" d="M127,50.8c5,0.8,20.9,2.2,25.7,0.5c2.6-0.9,4.8-2.6,7.5-3.2c6.2-1.4,12.2,3,18.5,2.9
				c6.1-0.1,11.9-4.3,17.8-2.9c3,0.7,5.4,2.8,8.2,4c9.2,3.6,20.4-3.7,29.8-0.5c-13.8,14.2-24.4,30.9-30.9,48.7
				c-3.6,0-7.1,0.2-10.7,0.1c-3.6,0-7.2,0.1-10.8,0c-3.6,0-7.1,0.1-10.7,0c-1.8,0-3.7-0.1-5.5-0.1c-0.5,0-1.6,0.2-2-0.2
				c-0.3-0.4-0.4-1.2-0.5-1.6c-0.8-2.7-4-12.5-16.2-27.8C138.4,59.6,127.2,50.9,127,50.8z"/>
			<g>
				<path class="st4" d="M153.3,52.8c4,6.6,12.3,22.1,14.5,29.4"/>
				<path class="st4" d="M177.1,52.7c1.9,8,5.2,18.5,5.5,26.6"/>
				<path class="st4" d="M207.7,54.7c-6.5,7.3-9.2,17.9-12.8,26.6"/>
				<path class="st4" d="M171.4,98.6c-0.7-2.5-1.3-5-2-7.6"/>
				<path class="st4" d="M179.3,98.6c-0.2-2.2-0.4-4.5-0.7-6.7"/>
				<path class="st4" d="M187.9,98.7c0.2-2.6,0.5-5.2,0.7-7.9"/>
				<path class="st4" d="M196.5,98.6c0.8-3.2,1.5-6.4,2.3-9.6"/>
			</g>
		</g>
	</g>
	<g>
		<path class="st3" d="M308.4,124.1c-7.3,0-14.2-2.7-19.7-6.8c-5.6-4.1-9.7-6.3-16-9.4c-9.8-4.9-22.4-6.2-33.8-6.2
			c-11.4,0-43.8,0-55.1,0c-11.3,0-43.7,0-55.1,0c-11.5,0-24,1.3-33.8,6.2c-6.3,3.1-10.4,5.3-16,9.4s-12.4,6.8-19.7,6.8
			c7.3,0,14.2,2.7,19.7,6.8c5.6,4.1,10,6.5,16.3,9.6c9.8,4.9,22,6,33.5,6c11.4,0,43.8,0,55.1,0s43.7,0,55.1,0
			c11.5,0,23.7-1.2,33.5-6c6.3-3.1,10.7-5.5,16.3-9.6C294.3,126.8,301.1,124.1,308.4,124.1z"/>
		<g>
			<path class="st1" d="M308.4,124.1c-7.3,0-14.2-2.7-19.7-6.8c-5.6-4.1-9.7-6.3-16-9.4c-9.8-4.9-22.4-6.2-33.8-6.2
				c-11.4,0-43.8,0-55.1,0c-11.3,0-43.7,0-55.1,0c-11.5,0-24,1.3-33.8,6.2c-6.3,3.1-10.4,5.3-16,9.4s-12.4,6.8-19.7,6.8
				c7.3,0,14.2,2.7,19.7,6.8c5.6,4.1,10,6.5,16.3,9.6c9.8,4.9,22,6,33.5,6c11.4,0,43.8,0,55.1,0s43.7,0,55.1,0
				c11.5,0,23.7-1.2,33.5-6c6.3-3.1,10.7-5.5,16.3-9.6C294.3,126.8,301.1,124.1,308.4,124.1z"/>
			<g>
				<path class="st1" d="M80.4,124c6.6,3.8,13.9,6.8,21.4,8.9"/>
				<path class="st1" d="M103.5,113c-7.3,3.6-14.7,7.2-22,10.8c4-0.1,8.1-0.2,12.1-0.3"/>
				<path class="st1" d="M287.2,124c-6.6,3.8-13.9,6.8-21.4,8.9"/>
				<path class="st1" d="M264,113c7.3,3.6,14.7,7.2,22,10.8c-4-0.1-8.1-0.2-12.1-0.3"/>
			</g>
		</g>
		<g>
			<g>
				<path class="st5" d="M106,110.4c-10.7,4.1-18.5,8.6-29,13c-0.4,0.3,19.8-14.7,32.6-16.9c1.1-0.2,2.3-0.3,3.4,0s2.7,1.4,1.9,2.2
					C113.3,110.6,109.8,109,106,110.4z"/>
				<path class="st5" d="M78.1,124.6c27.4,18.9,33.1,11,32.5,14.4s-10.6,0.4-12.9-0.8c-7.2-3.7-14.1-7.8-19.8-13.1L78.1,124.6z"/>
				<path class="st5" d="M87.3,122.4c2.2-0.9,4.3-1.7,6.5-2.6c0.6-0.2,1.1-0.5,1.8-0.5c0.5,0,1.1,0.2,1.2,0.6c0.1,0.5-0.6,0.8-1.1,1
					c-2.6,0.8-5.3,1.3-8,1.5H87.3z"/>
				<path class="st5" d="M86.4,125.5c2.1,1.3,4.6,2.2,7.2,2.4c0.4,0,1,0,1.1-0.4c0.1-0.3-0.3-0.6-0.6-0.7c-2.4-1.1-5-1.6-7.7-1.6
					V125.5z"/>
			</g>
			<g>
				<path class="st5" d="M261.5,110.4c10.7,4.1,18.5,8.6,29,13c0.4,0.3-19.8-14.7-32.6-16.9c-1.1-0.2-2.3-0.3-3.4,0
					s-2.7,1.4-1.9,2.2C254.2,110.6,257.7,109,261.5,110.4z"/>
				<path class="st5" d="M289.4,124.6c-27.4,18.9-33.1,11-32.5,14.4s10.6,0.4,12.9-0.8c7.2-3.7,14.1-7.8,19.8-13.1L289.4,124.6z"/>
				<path class="st5" d="M280.3,122.4c-2.2-0.9-4.3-1.7-6.5-2.6c-0.6-0.2-1.1-0.5-1.8-0.5c-0.5,0-1.1,0.2-1.2,0.6
					c-0.1,0.5,0.6,0.8,1.1,1c2.6,0.8,5.3,1.3,8,1.5H280.3z"/>
				<path class="st5" d="M281.1,125.5c-2.1,1.3-4.6,2.2-7.2,2.4c-0.4,0-1,0-1.1-0.4c-0.1-0.3,0.3-0.6,0.6-0.7c2.4-1.1,5-1.6,7.7-1.6
					V125.5z"/>
			</g>
		</g>
	</g>
</g>
<line class="st4" x1="163.7" y1="17.5" x2="180.2" y2="60.4"/>
<line class="st4" x1="87.6" y1="74.2" x2="155.5" y2="60.4"/>
<line class="st4" x1="224.4" y1="31" x2="214.9" y2="60.4"/>
<line class="st4" x1="198.7" y1="90.8" x2="216.1" y2="162.3"/>
<line class="st4" x1="172.4" y1="84.4" x2="115.8" y2="169.1"/>
<path class="st0" d="M219.1,60.4c0,2.3-1.9,4.2-4.2,4.2s-4.2-1.9-4.2-4.2s1.9-4.2,4.2-4.2C217.2,56.2,219.1,58.1,219.1,60.4z"/>
<rect x="234.9" y="25.5" class="st6" width="101.6" height="8.9"/>
<g>
	<path class="st7" d="M240.2,32.1v-6.6h3.2c0.8,0,1.4,0.2,1.8,0.5c0.4,0.3,0.6,0.7,0.6,1.3c0,0.4-0.1,0.7-0.3,1
		c-0.2,0.3-0.6,0.4-1,0.5v0c0.5,0.1,0.9,0.2,1.1,0.5s0.4,0.6,0.4,1c0,0.6-0.2,1-0.6,1.3c-0.4,0.3-1,0.5-1.8,0.5H240.2z M241.9,28.2
		h1.2c0.6,0,0.9-0.2,0.9-0.7c0-0.5-0.3-0.7-0.9-0.7h-1.2V28.2z M241.9,30.9h1.4c0.3,0,0.5-0.1,0.7-0.2c0.2-0.1,0.2-0.3,0.2-0.5
		c0-0.2-0.1-0.4-0.2-0.5c-0.2-0.1-0.4-0.2-0.7-0.2h-1.4V30.9z"/>
	<path class="st7" d="M248,31.9c-0.4-0.2-0.7-0.5-0.9-0.9c-0.2-0.4-0.3-0.9-0.3-1.4c0-0.5,0.1-1,0.3-1.4c0.2-0.4,0.5-0.7,0.9-0.9
		c0.4-0.2,0.8-0.3,1.4-0.3c0.5,0,1,0.1,1.3,0.3c0.4,0.2,0.7,0.5,0.9,0.8s0.3,0.8,0.3,1.2c0,0.1,0,0.2,0,0.4c0,0.1,0,0.2,0,0.3h-4
		v-0.9h3.2l-0.8,0.4c0-0.4-0.1-0.8-0.2-1c-0.1-0.2-0.4-0.3-0.7-0.3c-0.2,0-0.4,0-0.6,0.2c-0.1,0.1-0.3,0.3-0.3,0.5
		c-0.1,0.2-0.1,0.5-0.1,0.8c0,0.3,0,0.6,0.1,0.8c0.1,0.2,0.2,0.3,0.4,0.4c0.2,0.1,0.4,0.1,0.6,0.1c0.2,0,0.4,0,0.6-0.1
		c0.2-0.1,0.3-0.2,0.3-0.4l1.4,0.5c-0.1,0.4-0.4,0.7-0.8,1c-0.4,0.2-0.9,0.3-1.5,0.3C248.8,32.2,248.4,32.1,248,31.9z"/>
	<path class="st7" d="M252.8,32.1v-5h1.5l0.1,1.7l-0.2-0.2c0.1-0.4,0.2-0.7,0.4-0.9c0.2-0.2,0.4-0.4,0.6-0.5s0.5-0.2,0.9-0.2
		c0.3,0,0.6,0.1,0.9,0.2c0.3,0.1,0.5,0.3,0.6,0.6c0.1,0.3,0.2,0.6,0.2,1v3.3h-1.7v-2.9c0-0.3-0.1-0.6-0.2-0.7
		c-0.1-0.1-0.3-0.2-0.5-0.2c-0.2,0-0.3,0-0.5,0.1c-0.1,0.1-0.2,0.2-0.3,0.4c-0.1,0.2-0.1,0.4-0.1,0.7v2.7H252.8z"/>
	<path class="st7" d="M258.7,32.1v-1l2-2.3l0.5-0.5l-0.8,0h-1.7v-1.2h4.4v1l-2,2.2l-0.5,0.5l0.9,0h1.7v1.2H258.7z"/>
	<path class="st7" d="M266.5,27c0.5,0,1,0.1,1.4,0.3s0.7,0.5,0.9,0.9c0.2,0.4,0.3,0.9,0.3,1.4s-0.1,1-0.3,1.4
		c-0.2,0.4-0.5,0.7-0.9,0.9s-0.9,0.3-1.4,0.3c-0.5,0-1-0.1-1.4-0.3c-0.4-0.2-0.7-0.5-0.9-0.9c-0.2-0.4-0.3-0.9-0.3-1.4
		s0.1-1,0.3-1.4c0.2-0.4,0.5-0.7,0.9-0.9C265.5,27.1,265.9,27,266.5,27z M266.5,28.2c-0.2,0-0.4,0-0.5,0.1s-0.2,0.2-0.3,0.5
		c-0.1,0.2-0.1,0.5-0.1,0.8c0,0.3,0,0.6,0.1,0.8s0.2,0.4,0.3,0.5s0.3,0.1,0.5,0.1c0.2,0,0.4,0,0.5-0.1c0.1-0.1,0.2-0.2,0.3-0.5
		s0.1-0.5,0.1-0.8c0-0.3,0-0.6-0.1-0.8c-0.1-0.2-0.2-0.4-0.3-0.5C266.8,28.3,266.7,28.2,266.5,28.2z"/>
	<path class="st7" d="M272.6,28.4c-0.1-0.1-0.3-0.2-0.5-0.2c-0.2,0-0.4,0.1-0.6,0.2c-0.1,0.1-0.3,0.3-0.3,0.6l-1.4-0.3
		c0.1-0.5,0.3-0.9,0.8-1.2c0.4-0.3,1-0.4,1.7-0.4c0.7,0,1.3,0.2,1.7,0.5c0.4,0.3,0.6,0.8,0.6,1.4v1.8c0,0.3,0.1,0.4,0.3,0.4
		c0.1,0,0.2,0,0.3,0l-0.1,1c-0.2,0.1-0.4,0.1-0.7,0.1c-0.4,0-0.7-0.1-1-0.3s-0.4-0.5-0.4-0.9V31l0.2-0.1c0,0.3-0.1,0.5-0.2,0.7
		s-0.4,0.3-0.6,0.4c-0.3,0.1-0.6,0.1-0.9,0.1c-0.5,0-0.9-0.1-1.2-0.4s-0.5-0.6-0.5-1c0-0.4,0.1-0.7,0.3-0.9c0.2-0.2,0.6-0.4,1-0.5
		l1.9-0.4l0,0.9l-1,0.2c-0.2,0-0.4,0.1-0.5,0.2c-0.1,0.1-0.1,0.2-0.1,0.3c0,0.1,0,0.3,0.1,0.3c0.1,0.1,0.2,0.1,0.4,0.1
		c0.2,0,0.3,0,0.4-0.1c0.1-0.1,0.2-0.2,0.3-0.3c0.1-0.1,0.1-0.3,0.1-0.5v-1.3C272.8,28.7,272.7,28.5,272.6,28.4z"/>
	<path class="st7" d="M279.2,27.1v1.2h-4v-1.2H279.2z M277.7,25.5v4.8c0,0.2,0.1,0.4,0.2,0.5c0.1,0.1,0.3,0.2,0.5,0.2
		c0.2,0,0.3,0,0.4-0.1c0.1,0,0.2-0.1,0.3-0.2l0.2,1c-0.2,0.1-0.4,0.2-0.6,0.3s-0.5,0.1-0.8,0.1c-0.4,0-0.7-0.1-1-0.2
		c-0.3-0.1-0.5-0.3-0.6-0.5c-0.1-0.2-0.2-0.5-0.2-0.9V26L277.7,25.5z"/>
	<path class="st7" d="M281,31.9c-0.4-0.2-0.7-0.5-0.9-0.9c-0.2-0.4-0.3-0.9-0.3-1.4c0-0.5,0.1-1,0.3-1.4c0.2-0.4,0.5-0.7,0.9-0.9
		s0.9-0.3,1.4-0.3c0.5,0,1,0.1,1.3,0.3c0.4,0.2,0.7,0.5,0.8,0.8c0.2,0.4,0.3,0.8,0.3,1.2c0,0.1,0,0.2,0,0.4c0,0.1,0,0.2,0,0.3h-4
		v-0.9h3.2l-0.8,0.4c0-0.4-0.1-0.8-0.2-1c-0.1-0.2-0.4-0.3-0.7-0.3c-0.2,0-0.4,0-0.5,0.2c-0.1,0.1-0.3,0.3-0.3,0.5
		c-0.1,0.2-0.1,0.5-0.1,0.8c0,0.3,0,0.6,0.1,0.8c0.1,0.2,0.2,0.3,0.4,0.4c0.2,0.1,0.4,0.1,0.6,0.1c0.2,0,0.4,0,0.6-0.1
		s0.3-0.2,0.4-0.4l1.4,0.5c-0.1,0.4-0.4,0.7-0.8,1c-0.4,0.2-0.9,0.3-1.5,0.3C281.9,32.2,281.4,32.1,281,31.9z"/>
	<path class="st7" d="M290.5,32.2c-0.4,0-0.8-0.1-1.1-0.3s-0.5-0.5-0.7-0.9s-0.3-0.9-0.3-1.4c0-0.6,0.1-1,0.3-1.4
		c0.2-0.4,0.4-0.7,0.7-0.9c0.3-0.2,0.7-0.3,1.1-0.3c0.5,0,0.8,0.1,1.1,0.4c0.3,0.3,0.5,0.6,0.5,1.1l-0.2,0.2V25h1.7v7.1h-1.5
		l-0.1-1.7l0.2,0.2c0,0.3-0.1,0.6-0.3,0.9c-0.2,0.2-0.4,0.4-0.6,0.6C291.1,32.1,290.8,32.2,290.5,32.2z M291.1,31
		c0.2,0,0.4-0.1,0.5-0.2s0.2-0.3,0.3-0.5c0.1-0.2,0.1-0.5,0.1-0.8c0-0.3,0-0.5-0.1-0.7c-0.1-0.2-0.2-0.3-0.3-0.5
		c-0.1-0.1-0.3-0.2-0.5-0.2c-0.3,0-0.5,0.1-0.7,0.3c-0.2,0.2-0.3,0.6-0.3,1s0.1,0.8,0.2,1C290.5,30.9,290.8,31,291.1,31z"/>
	<path class="st7" d="M295.9,31.9c-0.4-0.2-0.7-0.5-0.9-0.9c-0.2-0.4-0.3-0.9-0.3-1.4c0-0.5,0.1-1,0.3-1.4c0.2-0.4,0.5-0.7,0.9-0.9
		s0.9-0.3,1.4-0.3c0.5,0,1,0.1,1.3,0.3c0.4,0.2,0.7,0.5,0.8,0.8c0.2,0.4,0.3,0.8,0.3,1.2c0,0.1,0,0.2,0,0.4c0,0.1,0,0.2,0,0.3h-4
		v-0.9h3.2l-0.8,0.4c0-0.4-0.1-0.8-0.2-1c-0.1-0.2-0.4-0.3-0.7-0.3c-0.2,0-0.4,0-0.5,0.2c-0.1,0.1-0.3,0.3-0.3,0.5
		c-0.1,0.2-0.1,0.5-0.1,0.8c0,0.3,0,0.6,0.1,0.8c0.1,0.2,0.2,0.3,0.4,0.4c0.2,0.1,0.4,0.1,0.6,0.1c0.2,0,0.4,0,0.6-0.1
		s0.3-0.2,0.4-0.4l1.4,0.5c-0.1,0.4-0.4,0.7-0.8,1c-0.4,0.2-0.9,0.3-1.5,0.3C296.8,32.2,296.3,32.1,295.9,31.9z"/>
	<path class="st7" d="M304.3,32c-0.4-0.2-0.8-0.4-1.1-0.7l0.8-0.9c0.2,0.2,0.4,0.4,0.7,0.5c0.3,0.1,0.6,0.2,0.9,0.2
		c0.2,0,0.4,0,0.5-0.1s0.2-0.2,0.2-0.3c0-0.1,0-0.2-0.1-0.2c-0.1-0.1-0.2-0.1-0.4-0.2l-0.7-0.1c-0.6-0.1-1.1-0.3-1.3-0.6
		c-0.3-0.2-0.4-0.6-0.4-1c0-0.3,0.1-0.5,0.3-0.8s0.4-0.5,0.8-0.6c0.4-0.2,0.8-0.2,1.3-0.2c0.5,0,1,0.1,1.3,0.2
		c0.4,0.1,0.7,0.4,0.9,0.6l-0.8,0.9c-0.2-0.2-0.4-0.3-0.6-0.5c-0.3-0.1-0.5-0.2-0.8-0.2c-0.2,0-0.3,0-0.4,0c-0.1,0-0.2,0.1-0.2,0.1
		c-0.1,0.1-0.1,0.1-0.1,0.2c0,0.1,0,0.2,0.1,0.2c0.1,0.1,0.2,0.1,0.5,0.2l0.9,0.2c0.5,0.1,0.9,0.3,1.1,0.5c0.2,0.2,0.4,0.5,0.4,0.9
		c0,0.5-0.2,0.9-0.6,1.2s-1,0.5-1.7,0.5C305.1,32.2,304.7,32.1,304.3,32z"/>
	<path class="st7" d="M311.2,27c0.5,0,1,0.1,1.4,0.3s0.7,0.5,0.9,0.9c0.2,0.4,0.3,0.9,0.3,1.4s-0.1,1-0.3,1.4
		c-0.2,0.4-0.5,0.7-0.9,0.9s-0.9,0.3-1.4,0.3c-0.5,0-1-0.1-1.4-0.3c-0.4-0.2-0.7-0.5-0.9-0.9c-0.2-0.4-0.3-0.9-0.3-1.4
		s0.1-1,0.3-1.4c0.2-0.4,0.5-0.7,0.9-0.9C310.3,27.1,310.7,27,311.2,27z M311.2,28.2c-0.2,0-0.4,0-0.5,0.1c-0.1,0.1-0.2,0.2-0.3,0.5
		c-0.1,0.2-0.1,0.5-0.1,0.8c0,0.3,0,0.6,0.1,0.8s0.2,0.4,0.3,0.5c0.1,0.1,0.3,0.1,0.5,0.1c0.2,0,0.4,0,0.5-0.1
		c0.1-0.1,0.2-0.2,0.3-0.5s0.1-0.5,0.1-0.8c0-0.3,0-0.6-0.1-0.8c-0.1-0.2-0.2-0.4-0.3-0.5C311.6,28.3,311.4,28.2,311.2,28.2z"/>
	<path class="st7" d="M316.7,32.2c-0.4,0-0.8-0.1-1.1-0.3c-0.3-0.2-0.6-0.5-0.7-0.9s-0.3-0.9-0.3-1.4c0-0.6,0.1-1,0.3-1.4
		c0.2-0.4,0.4-0.7,0.7-0.9c0.3-0.2,0.7-0.3,1.1-0.3c0.5,0,0.8,0.1,1.1,0.4c0.3,0.3,0.5,0.6,0.5,1.1l-0.2,0.2V25h1.7v7.1h-1.5
		l-0.1-1.7l0.2,0.2c0,0.3-0.1,0.6-0.3,0.9c-0.2,0.2-0.4,0.4-0.6,0.6C317.3,32.1,317,32.2,316.7,32.2z M317.3,31
		c0.2,0,0.4-0.1,0.5-0.2c0.1-0.1,0.2-0.3,0.3-0.5c0.1-0.2,0.1-0.5,0.1-0.8c0-0.3,0-0.5-0.1-0.7c-0.1-0.2-0.2-0.3-0.3-0.5
		c-0.1-0.1-0.3-0.2-0.5-0.2c-0.3,0-0.5,0.1-0.7,0.3c-0.2,0.2-0.3,0.6-0.3,1s0.1,0.8,0.2,1S317,31,317.3,31z"/>
	<path class="st7" d="M322,26.5c-0.3,0-0.6-0.1-0.8-0.2c-0.2-0.1-0.2-0.3-0.2-0.6c0-0.3,0.1-0.5,0.2-0.6s0.4-0.2,0.8-0.2
		c0.3,0,0.6,0.1,0.8,0.2s0.2,0.3,0.2,0.6c0,0.3-0.1,0.5-0.2,0.6C322.6,26.5,322.3,26.5,322,26.5z M322.8,27.1v5h-1.7v-5H322.8z"/>
	<path class="st7" d="M325.7,32.2c-0.3,0-0.6-0.1-0.9-0.2c-0.3-0.1-0.5-0.3-0.6-0.6c-0.1-0.3-0.2-0.6-0.2-1v-3.3h1.7v2.9
		c0,0.3,0.1,0.5,0.2,0.7c0.1,0.1,0.3,0.2,0.5,0.2c0.1,0,0.2,0,0.3-0.1c0.1,0,0.2-0.1,0.3-0.2s0.1-0.2,0.2-0.4c0-0.1,0.1-0.3,0.1-0.5
		v-2.7h1.7v5h-1.5l0-0.9c-0.2,0.4-0.4,0.6-0.7,0.8C326.5,32.1,326.1,32.2,325.7,32.2z"/>
	<path class="st7" d="M330.2,32.1v-5h1.5l0.1,1c0.2-0.4,0.4-0.6,0.7-0.8s0.6-0.3,1-0.3c0.4,0,0.7,0.1,1,0.2c0.3,0.2,0.5,0.4,0.6,0.7
		c0.1-0.2,0.2-0.4,0.4-0.5s0.4-0.3,0.6-0.3s0.4-0.1,0.7-0.1c0.3,0,0.6,0.1,0.9,0.2c0.3,0.1,0.5,0.3,0.6,0.6c0.2,0.3,0.2,0.6,0.2,1
		l0,3.3h-1.7v-2.9c0-0.3-0.1-0.5-0.2-0.7c-0.1-0.1-0.3-0.2-0.5-0.2c-0.2,0-0.3,0-0.5,0.1s-0.2,0.2-0.3,0.4c-0.1,0.2-0.1,0.4-0.1,0.6
		v2.7h-1.7v-2.9c0-0.3-0.1-0.5-0.2-0.7c-0.1-0.1-0.3-0.2-0.5-0.2c-0.2,0-0.3,0-0.4,0.1s-0.2,0.2-0.3,0.4c-0.1,0.2-0.1,0.4-0.1,0.7
		v2.6H330.2z"/>
</g>
<path class="st0" d="M184.4,60.4c0,2.3-1.9,4.2-4.2,4.2s-4.2-1.9-4.2-4.2s1.9-4.2,4.2-4.2S184.4,58.1,184.4,60.4z"/>
<path class="st0" d="M159.7,60.4c0,2.3-1.9,4.2-4.2,4.2s-4.2-1.9-4.2-4.2s1.9-4.2,4.2-4.2S159.7,58.1,159.7,60.4z"/>
<path class="st0" d="M176.6,84.4c0,2.3-1.9,4.2-4.2,4.2s-4.2-1.9-4.2-4.2s1.9-4.2,4.2-4.2C174.7,80.2,176.6,82.1,176.6,84.4z"/>
<path class="st0" d="M202.9,90.8c0,2.3-1.9,4.2-4.2,4.2s-4.2-1.9-4.2-4.2s1.9-4.2,4.2-4.2C201,86.6,202.9,88.4,202.9,90.8z"/>
<rect x="52" y="11.6" class="st6" width="101.6" height="8.9"/>
<g>
	<path class="st7" d="M99.7,11.5c0.6,0,1.1,0.1,1.5,0.4c0.4,0.3,0.7,0.6,0.9,1.1s0.3,1.1,0.3,1.9c0,0.8-0.1,1.5-0.4,2
		c-0.2,0.5-0.6,0.9-1,1.1c-0.4,0.2-0.9,0.4-1.4,0.4c-0.6,0-1.1-0.1-1.5-0.3c-0.4-0.2-0.7-0.6-0.9-1.1l1.5-0.6
		c0.1,0.2,0.2,0.4,0.3,0.5c0.1,0.1,0.4,0.2,0.6,0.2c0.2,0,0.4,0,0.5-0.1c0.2-0.1,0.3-0.2,0.4-0.4c0.1-0.2,0.2-0.4,0.2-0.6
		c0-0.2,0.1-0.5,0.1-0.8c0,0,0-0.1,0-0.1s0-0.1,0-0.1h0c-0.1,0.1-0.1,0.3-0.2,0.4c-0.1,0.1-0.2,0.2-0.4,0.3
		c-0.1,0.1-0.3,0.1-0.5,0.2c-0.2,0-0.3,0-0.5,0c-0.4,0-0.8-0.1-1.1-0.3s-0.6-0.4-0.8-0.7c-0.2-0.3-0.3-0.7-0.3-1.1
		c0-0.5,0.1-0.9,0.3-1.2c0.2-0.3,0.5-0.6,0.9-0.8C98.7,11.6,99.2,11.5,99.7,11.5z M99.7,12.8c-0.3,0-0.5,0.1-0.7,0.2
		c-0.2,0.2-0.3,0.4-0.3,0.7c0,0.3,0.1,0.5,0.2,0.6c0.2,0.2,0.4,0.2,0.7,0.2c0.2,0,0.3,0,0.5-0.1c0.1-0.1,0.3-0.2,0.3-0.3
		c0.1-0.1,0.1-0.3,0.1-0.5c0-0.2,0-0.3-0.1-0.5s-0.2-0.2-0.3-0.3C100,12.9,99.8,12.8,99.7,12.8z"/>
	<path class="st7" d="M105.8,11.5c0.6,0,1.1,0.1,1.5,0.4c0.4,0.3,0.7,0.6,0.9,1.1s0.3,1.1,0.3,1.9c0,0.8-0.1,1.5-0.4,2
		c-0.2,0.5-0.6,0.9-1,1.1c-0.4,0.2-0.9,0.4-1.4,0.4c-0.6,0-1.1-0.1-1.5-0.3c-0.4-0.2-0.7-0.6-0.9-1.1l1.5-0.6
		c0.1,0.2,0.2,0.4,0.3,0.5c0.1,0.1,0.4,0.2,0.6,0.2c0.2,0,0.4,0,0.5-0.1c0.2-0.1,0.3-0.2,0.4-0.4c0.1-0.2,0.2-0.4,0.2-0.6
		c0-0.2,0.1-0.5,0.1-0.8c0,0,0-0.1,0-0.1s0-0.1,0-0.1h0c-0.1,0.1-0.1,0.3-0.2,0.4c-0.1,0.1-0.2,0.2-0.4,0.3
		c-0.1,0.1-0.3,0.1-0.5,0.2c-0.2,0-0.3,0-0.5,0c-0.4,0-0.8-0.1-1.1-0.3s-0.6-0.4-0.8-0.7c-0.2-0.3-0.3-0.7-0.3-1.1
		c0-0.5,0.1-0.9,0.3-1.2c0.2-0.3,0.5-0.6,0.9-0.8C104.9,11.6,105.3,11.5,105.8,11.5z M105.8,12.8c-0.3,0-0.5,0.1-0.7,0.2
		c-0.2,0.2-0.3,0.4-0.3,0.7c0,0.3,0.1,0.5,0.2,0.6c0.2,0.2,0.4,0.2,0.7,0.2c0.2,0,0.3,0,0.5-0.1c0.1-0.1,0.3-0.2,0.3-0.3
		c0.1-0.1,0.1-0.3,0.1-0.5c0-0.2,0-0.3-0.1-0.5s-0.2-0.2-0.3-0.3C106.2,12.9,106,12.8,105.8,12.8z"/>
	<path class="st7" d="M111.2,11.5c0.4,0,0.7,0.1,1,0.2c0.3,0.2,0.5,0.4,0.6,0.7s0.2,0.6,0.2,1c0,0.4-0.1,0.7-0.2,1s-0.4,0.5-0.6,0.7
		c-0.3,0.2-0.6,0.2-1,0.2c-0.4,0-0.7-0.1-1-0.2c-0.3-0.2-0.5-0.4-0.6-0.7c-0.2-0.3-0.2-0.6-0.2-1c0-0.4,0.1-0.7,0.2-1
		c0.2-0.3,0.4-0.5,0.6-0.7C110.5,11.6,110.8,11.5,111.2,11.5z M111.2,12.7c-0.1,0-0.2,0-0.3,0.1c-0.1,0.1-0.2,0.1-0.2,0.2
		c0,0.1-0.1,0.2-0.1,0.4c0,0.2,0,0.3,0.1,0.4c0,0.1,0.1,0.2,0.2,0.3c0.1,0.1,0.2,0.1,0.3,0.1s0.2,0,0.3-0.1c0.1-0.1,0.2-0.1,0.2-0.3
		c0-0.1,0.1-0.2,0.1-0.4c0-0.2,0-0.3-0.1-0.4c0-0.1-0.1-0.2-0.2-0.2C111.5,12.7,111.3,12.7,111.2,12.7z M110.8,18.2l4.6-6.6h1.3
		l-4.6,6.6H110.8z M116.3,14.6c0.4,0,0.7,0.1,1,0.2c0.3,0.2,0.5,0.4,0.6,0.7s0.2,0.6,0.2,1c0,0.4-0.1,0.7-0.2,1s-0.4,0.5-0.6,0.7
		c-0.3,0.2-0.6,0.2-1,0.2s-0.7-0.1-1-0.2c-0.3-0.2-0.5-0.4-0.6-0.7s-0.2-0.6-0.2-1c0-0.4,0.1-0.7,0.2-1c0.2-0.3,0.4-0.5,0.6-0.7
		C115.6,14.6,115.9,14.6,116.3,14.6z M116.3,15.7c-0.1,0-0.2,0-0.3,0.1c-0.1,0.1-0.2,0.1-0.2,0.2c0,0.1-0.1,0.2-0.1,0.4
		c0,0.2,0,0.3,0.1,0.4c0,0.1,0.1,0.2,0.2,0.3c0.1,0.1,0.2,0.1,0.3,0.1c0.1,0,0.2,0,0.3-0.1c0.1-0.1,0.2-0.1,0.2-0.3
		c0-0.1,0.1-0.2,0.1-0.4c0-0.2,0-0.3-0.1-0.4c0-0.1-0.1-0.2-0.2-0.2C116.5,15.7,116.4,15.7,116.3,15.7z"/>
	<path class="st7" d="M123.7,18.3c-0.4,0-0.8-0.1-1.1-0.3c-0.3-0.2-0.6-0.5-0.7-0.9s-0.3-0.9-0.3-1.4c0-0.6,0.1-1,0.3-1.4
		c0.2-0.4,0.4-0.7,0.7-0.9c0.3-0.2,0.7-0.3,1.1-0.3c0.5,0,0.8,0.1,1.1,0.4c0.3,0.3,0.5,0.6,0.5,1.1l-0.2,0.2v-3.7h1.7v7.1h-1.5
		l-0.1-1.7l0.2,0.2c0,0.3-0.1,0.6-0.3,0.9c-0.2,0.2-0.4,0.4-0.6,0.6C124.3,18.3,124.1,18.3,123.7,18.3z M124.3,17.1
		c0.2,0,0.4-0.1,0.5-0.2c0.1-0.1,0.2-0.3,0.3-0.5c0.1-0.2,0.1-0.5,0.1-0.8c0-0.3,0-0.5-0.1-0.7c-0.1-0.2-0.2-0.3-0.3-0.5
		c-0.1-0.1-0.3-0.2-0.5-0.2c-0.3,0-0.5,0.1-0.7,0.3c-0.2,0.2-0.3,0.6-0.3,1c0,0.5,0.1,0.8,0.2,1C123.8,17,124,17.1,124.3,17.1z"/>
	<path class="st7" d="M129.1,11.3c0.2,0,0.5,0.1,0.6,0.2c0.2,0.1,0.3,0.3,0.4,0.4s0.1,0.4,0.1,0.6c0,0.3-0.1,0.6-0.2,0.9
		c-0.1,0.3-0.3,0.5-0.5,0.7s-0.4,0.4-0.7,0.5l-0.7-0.5c0.2-0.1,0.4-0.2,0.5-0.3c0.2-0.1,0.3-0.2,0.4-0.4c0.1-0.1,0.2-0.3,0.3-0.4
		l0,0c0,0-0.1,0-0.1,0.1c-0.1,0-0.1,0-0.2,0c-0.1,0-0.2,0-0.4-0.1c-0.1-0.1-0.2-0.2-0.3-0.3c-0.1-0.1-0.1-0.3-0.1-0.5
		c0-0.2,0-0.4,0.1-0.5c0.1-0.1,0.2-0.2,0.4-0.3S128.9,11.3,129.1,11.3z"/>
	<path class="st7" d="M131.7,18c-0.4-0.2-0.7-0.5-0.9-0.9c-0.2-0.4-0.3-0.9-0.3-1.4c0-0.5,0.1-1,0.3-1.4c0.2-0.4,0.5-0.7,0.9-0.9
		c0.4-0.2,0.9-0.3,1.4-0.3s1,0.1,1.3,0.3s0.7,0.5,0.9,0.8c0.2,0.4,0.3,0.8,0.3,1.2c0,0.1,0,0.2,0,0.4c0,0.1,0,0.2,0,0.3h-4v-0.9h3.2
		l-0.8,0.4c0-0.4-0.1-0.8-0.2-1c-0.1-0.2-0.4-0.3-0.7-0.3c-0.2,0-0.4,0-0.6,0.2c-0.1,0.1-0.3,0.3-0.3,0.5c-0.1,0.2-0.1,0.5-0.1,0.8
		c0,0.3,0,0.6,0.1,0.8c0.1,0.2,0.2,0.3,0.4,0.4c0.2,0.1,0.4,0.1,0.6,0.1c0.2,0,0.4,0,0.6-0.1c0.2-0.1,0.3-0.2,0.4-0.4l1.4,0.5
		c-0.1,0.4-0.4,0.7-0.8,1s-0.9,0.3-1.5,0.3C132.6,18.3,132.1,18.2,131.7,18z"/>
	<path class="st7" d="M139.1,14.5c-0.1-0.1-0.3-0.2-0.5-0.2c-0.2,0-0.4,0.1-0.6,0.2s-0.3,0.3-0.3,0.6l-1.4-0.3
		c0.1-0.5,0.3-0.9,0.8-1.2c0.4-0.3,1-0.4,1.7-0.4c0.7,0,1.3,0.2,1.7,0.5c0.4,0.3,0.6,0.8,0.6,1.4v1.8c0,0.3,0.1,0.4,0.4,0.4
		c0.1,0,0.2,0,0.3,0l-0.1,1c-0.2,0.1-0.4,0.1-0.7,0.1c-0.4,0-0.7-0.1-1-0.3c-0.2-0.2-0.4-0.5-0.4-0.9v-0.1l0.2-0.1
		c0,0.3-0.1,0.5-0.2,0.7c-0.2,0.2-0.4,0.3-0.6,0.4c-0.3,0.1-0.6,0.1-0.9,0.1c-0.5,0-0.9-0.1-1.2-0.4s-0.5-0.6-0.5-1
		c0-0.4,0.1-0.7,0.3-0.9c0.2-0.2,0.6-0.4,1-0.5l1.9-0.4l0,0.9l-1,0.2c-0.2,0-0.4,0.1-0.4,0.2c-0.1,0.1-0.1,0.2-0.1,0.3
		c0,0.1,0,0.3,0.1,0.3c0.1,0.1,0.2,0.1,0.4,0.1c0.2,0,0.3,0,0.4-0.1c0.1-0.1,0.2-0.2,0.3-0.3c0.1-0.1,0.1-0.3,0.1-0.5v-1.3
		C139.3,14.8,139.2,14.6,139.1,14.5z"/>
	<path class="st7" d="M144,18.3c-0.3,0-0.6-0.1-0.9-0.2c-0.3-0.1-0.5-0.3-0.6-0.6c-0.1-0.3-0.2-0.6-0.2-1v-3.3h1.7v2.9
		c0,0.3,0.1,0.5,0.2,0.7c0.1,0.1,0.3,0.2,0.5,0.2c0.1,0,0.2,0,0.3-0.1c0.1,0,0.2-0.1,0.3-0.2s0.1-0.2,0.2-0.4c0-0.1,0.1-0.3,0.1-0.5
		v-2.7h1.7v5h-1.5l-0.1-0.9c-0.2,0.4-0.4,0.6-0.7,0.8S144.4,18.3,144,18.3z"/>
</g>
<rect x="21.1" y="164.2" class="st6" width="86.6" height="8.5"/>
<g>
	<path class="st7" d="M11.7,164.2c0.5,0,1,0.1,1.4,0.3c0.4,0.2,0.7,0.4,0.9,0.8c0.2,0.3,0.3,0.7,0.3,1.2c0,0.5-0.1,0.9-0.3,1.2
		c-0.2,0.3-0.5,0.6-0.9,0.8c-0.4,0.2-0.8,0.3-1.4,0.3h-1.3v2.2H8.7v-6.6H11.7z M11.5,167.3c0.4,0,0.6-0.1,0.8-0.2
		c0.2-0.2,0.3-0.4,0.3-0.7s-0.1-0.5-0.3-0.7c-0.2-0.2-0.5-0.2-0.8-0.2h-1v1.8H11.5z"/>
	<path class="st7" d="M17.5,165.7c0.5,0,1,0.1,1.4,0.3s0.7,0.5,0.9,0.9c0.2,0.4,0.3,0.9,0.3,1.4s-0.1,1-0.3,1.4
		c-0.2,0.4-0.5,0.7-0.9,0.9s-0.9,0.3-1.4,0.3c-0.5,0-1-0.1-1.4-0.3s-0.7-0.5-0.9-0.9c-0.2-0.4-0.3-0.9-0.3-1.4s0.1-1,0.3-1.4
		c0.2-0.4,0.5-0.7,0.9-0.9S17,165.7,17.5,165.7z M17.5,166.9c-0.2,0-0.4,0-0.5,0.1c-0.1,0.1-0.2,0.2-0.3,0.5
		c-0.1,0.2-0.1,0.5-0.1,0.8c0,0.3,0,0.6,0.1,0.8s0.2,0.4,0.3,0.5c0.1,0.1,0.3,0.1,0.5,0.1c0.2,0,0.4,0,0.5-0.1
		c0.1-0.1,0.2-0.2,0.3-0.5s0.1-0.5,0.1-0.8c0-0.3,0-0.6-0.1-0.8c-0.1-0.2-0.2-0.4-0.3-0.5S17.7,166.9,17.5,166.9z"/>
	<path class="st7" d="M24.6,165.8v1.2h-4v-1.2H24.6z M23.1,164.2v4.8c0,0.2,0.1,0.4,0.2,0.5s0.3,0.2,0.5,0.2c0.2,0,0.3,0,0.4-0.1
		s0.2-0.1,0.3-0.2l0.2,1.1c-0.2,0.1-0.4,0.2-0.6,0.3c-0.3,0.1-0.5,0.1-0.8,0.1c-0.4,0-0.7-0.1-1-0.2c-0.3-0.1-0.5-0.3-0.6-0.5
		c-0.1-0.2-0.2-0.5-0.2-0.9v-4.6L23.1,164.2z"/>
	<path class="st7" d="M28.1,167.1c-0.1-0.1-0.3-0.2-0.5-0.2c-0.2,0-0.4,0.1-0.6,0.2c-0.1,0.1-0.3,0.3-0.3,0.6l-1.4-0.3
		c0.1-0.5,0.3-0.9,0.8-1.2s1-0.4,1.7-0.4c0.7,0,1.3,0.2,1.7,0.5s0.6,0.8,0.6,1.4v1.8c0,0.3,0.1,0.4,0.4,0.4c0.1,0,0.2,0,0.3,0
		l-0.1,1c-0.2,0.1-0.4,0.1-0.7,0.1c-0.4,0-0.7-0.1-1-0.3c-0.2-0.2-0.4-0.5-0.4-0.9v-0.1l0.2-0.1c0,0.3-0.1,0.5-0.2,0.7
		c-0.2,0.2-0.4,0.3-0.6,0.4c-0.3,0.1-0.6,0.1-0.9,0.1c-0.5,0-0.9-0.1-1.2-0.4s-0.5-0.6-0.5-1c0-0.4,0.1-0.7,0.3-0.9
		c0.2-0.2,0.6-0.4,1-0.5l1.9-0.4l0,0.9l-1,0.2c-0.2,0-0.4,0.1-0.4,0.2c-0.1,0.1-0.1,0.2-0.1,0.3s0,0.3,0.1,0.3s0.2,0.1,0.4,0.1
		c0.2,0,0.3,0,0.4-0.1c0.1-0.1,0.2-0.2,0.3-0.3c0.1-0.1,0.1-0.3,0.1-0.5v-1.3C28.3,167.4,28.2,167.2,28.1,167.1z"/>
	<path class="st7" d="M32,170.7c-0.4-0.2-0.8-0.4-1.1-0.7l0.8-0.9c0.2,0.2,0.4,0.4,0.7,0.5c0.3,0.1,0.6,0.2,0.9,0.2
		c0.2,0,0.4,0,0.5-0.1c0.1-0.1,0.2-0.2,0.2-0.3c0-0.1,0-0.2-0.1-0.2c-0.1-0.1-0.2-0.1-0.4-0.2l-0.7-0.1c-0.6-0.1-1.1-0.3-1.3-0.6
		c-0.3-0.2-0.4-0.6-0.4-1c0-0.3,0.1-0.5,0.3-0.8s0.4-0.5,0.8-0.6c0.4-0.2,0.8-0.2,1.3-0.2c0.5,0,1,0.1,1.3,0.2s0.7,0.4,0.9,0.6
		l-0.8,0.9c-0.2-0.2-0.4-0.3-0.6-0.5c-0.3-0.1-0.5-0.2-0.8-0.2c-0.2,0-0.3,0-0.4,0c-0.1,0-0.2,0.1-0.2,0.1s-0.1,0.1-0.1,0.2
		c0,0.1,0,0.2,0.1,0.2c0.1,0.1,0.2,0.1,0.5,0.2l0.9,0.2c0.5,0.1,0.9,0.3,1.1,0.5s0.4,0.5,0.4,0.9c0,0.5-0.2,0.9-0.6,1.2
		s-1,0.5-1.7,0.5C32.9,170.9,32.4,170.8,32,170.7z"/>
	<path class="st7" d="M37.3,170.7c-0.4-0.2-0.8-0.4-1.1-0.7l0.8-0.9c0.2,0.2,0.4,0.4,0.7,0.5c0.3,0.1,0.6,0.2,0.9,0.2
		c0.2,0,0.4,0,0.5-0.1c0.1-0.1,0.2-0.2,0.2-0.3c0-0.1,0-0.2-0.1-0.2c-0.1-0.1-0.2-0.1-0.4-0.2l-0.7-0.1c-0.6-0.1-1.1-0.3-1.3-0.6
		c-0.3-0.2-0.4-0.6-0.4-1c0-0.3,0.1-0.5,0.3-0.8s0.4-0.5,0.8-0.6c0.4-0.2,0.8-0.2,1.3-0.2c0.5,0,1,0.1,1.3,0.2s0.7,0.4,0.9,0.6
		l-0.8,0.9c-0.2-0.2-0.4-0.3-0.6-0.5c-0.3-0.1-0.5-0.2-0.8-0.2c-0.2,0-0.3,0-0.4,0c-0.1,0-0.2,0.1-0.2,0.1s-0.1,0.1-0.1,0.2
		c0,0.1,0,0.2,0.1,0.2c0.1,0.1,0.2,0.1,0.5,0.2l0.9,0.2c0.5,0.1,0.9,0.3,1.1,0.5s0.4,0.5,0.4,0.9c0,0.5-0.2,0.9-0.6,1.2
		s-1,0.5-1.7,0.5C38.2,170.9,37.8,170.8,37.3,170.7z"/>
	<path class="st7" d="M42.8,165.2c-0.3,0-0.6-0.1-0.8-0.2c-0.2-0.1-0.2-0.3-0.2-0.6c0-0.3,0.1-0.5,0.2-0.6c0.2-0.1,0.4-0.2,0.8-0.2
		c0.3,0,0.6,0.1,0.8,0.2c0.2,0.1,0.2,0.3,0.2,0.6c0,0.3-0.1,0.5-0.2,0.6C43.4,165.2,43.2,165.2,42.8,165.2z M43.7,165.8v5H42v-5
		H43.7z"/>
	<path class="st7" d="M46.6,170.9c-0.3,0-0.6-0.1-0.9-0.2c-0.3-0.1-0.5-0.3-0.6-0.6c-0.1-0.3-0.2-0.6-0.2-1v-3.3h1.7v2.9
		c0,0.3,0.1,0.5,0.2,0.7c0.1,0.1,0.3,0.2,0.5,0.2c0.1,0,0.2,0,0.3-0.1c0.1,0,0.2-0.1,0.3-0.2s0.1-0.2,0.2-0.3s0.1-0.3,0.1-0.5v-2.7
		h1.7v5h-1.5l-0.1-0.9c-0.2,0.4-0.4,0.6-0.7,0.8S47,170.9,46.6,170.9z"/>
	<path class="st7" d="M51.1,170.8v-5h1.5l0.1,1c0.2-0.4,0.4-0.6,0.7-0.8s0.6-0.3,1-0.3c0.4,0,0.7,0.1,1,0.2s0.5,0.4,0.6,0.7
		c0.1-0.2,0.2-0.4,0.4-0.6s0.4-0.3,0.6-0.3c0.2-0.1,0.4-0.1,0.7-0.1c0.3,0,0.6,0.1,0.9,0.2c0.3,0.1,0.5,0.3,0.6,0.6s0.2,0.6,0.2,1
		l0,3.3h-1.7v-2.9c0-0.3-0.1-0.5-0.2-0.7c-0.1-0.1-0.3-0.2-0.5-0.2c-0.2,0-0.3,0-0.5,0.1c-0.1,0.1-0.2,0.2-0.3,0.4
		c-0.1,0.2-0.1,0.4-0.1,0.6v2.7h-1.7v-2.9c0-0.3-0.1-0.5-0.2-0.7c-0.1-0.1-0.3-0.2-0.5-0.2c-0.2,0-0.3,0-0.4,0.1s-0.2,0.2-0.3,0.4
		c-0.1,0.2-0.1,0.4-0.1,0.7v2.6H51.1z"/>
	<path class="st7" d="M66,164.1c0.6,0,1.2,0.1,1.6,0.3c0.5,0.2,0.9,0.5,1.2,0.8l-0.8,1.1c-0.3-0.3-0.6-0.5-0.9-0.7
		c-0.3-0.2-0.7-0.2-1.1-0.2c-0.2,0-0.4,0-0.6,0.1c-0.2,0.1-0.3,0.1-0.3,0.2c-0.1,0.1-0.1,0.2-0.1,0.3c0,0.1,0.1,0.3,0.2,0.4
		c0.1,0.1,0.3,0.2,0.6,0.2l1.1,0.2c0.7,0.2,1.1,0.4,1.5,0.7c0.3,0.3,0.5,0.7,0.5,1.2c0,0.5-0.1,0.9-0.4,1.2c-0.2,0.3-0.6,0.6-1,0.7
		s-0.9,0.2-1.4,0.2c-0.4,0-0.9,0-1.3-0.1c-0.4-0.1-0.8-0.2-1.1-0.4c-0.3-0.2-0.6-0.4-0.8-0.6l0.8-1.2c0.2,0.2,0.4,0.4,0.6,0.5
		c0.2,0.2,0.5,0.3,0.8,0.4c0.3,0.1,0.6,0.1,0.9,0.1c0.2,0,0.4,0,0.6-0.1s0.3-0.1,0.4-0.2s0.1-0.2,0.1-0.3c0-0.1,0-0.3-0.1-0.4
		c-0.1-0.1-0.3-0.2-0.6-0.2l-1.2-0.3c-0.4-0.1-0.7-0.2-1-0.3c-0.3-0.1-0.5-0.3-0.7-0.6c-0.2-0.2-0.2-0.5-0.2-0.9
		c0-0.4,0.1-0.8,0.3-1.1c0.2-0.3,0.6-0.6,1-0.8C64.9,164.2,65.5,164.1,66,164.1z"/>
	<path class="st7" d="M72.2,165.7c0.5,0,1,0.1,1.4,0.3s0.7,0.5,0.9,0.9c0.2,0.4,0.3,0.9,0.3,1.4s-0.1,1-0.3,1.4
		c-0.2,0.4-0.5,0.7-0.9,0.9s-0.9,0.3-1.4,0.3c-0.5,0-1-0.1-1.4-0.3s-0.7-0.5-0.9-0.9c-0.2-0.4-0.3-0.9-0.3-1.4s0.1-1,0.3-1.4
		c0.2-0.4,0.5-0.7,0.9-0.9S71.7,165.7,72.2,165.7z M72.2,166.9c-0.2,0-0.4,0-0.5,0.1c-0.1,0.1-0.2,0.2-0.3,0.5
		c-0.1,0.2-0.1,0.5-0.1,0.8c0,0.3,0,0.6,0.1,0.8s0.2,0.4,0.3,0.5c0.1,0.1,0.3,0.1,0.5,0.1c0.2,0,0.4,0,0.5-0.1
		c0.1-0.1,0.2-0.2,0.3-0.5s0.1-0.5,0.1-0.8c0-0.3,0-0.6-0.1-0.8c-0.1-0.2-0.2-0.4-0.3-0.5S72.4,166.9,72.2,166.9z"/>
	<path class="st7" d="M75.8,170.8v-5h1.5l0.1,1.1c0.1-0.4,0.3-0.7,0.6-0.9s0.6-0.3,1-0.3c0.1,0,0.2,0,0.3,0c0.1,0,0.2,0,0.2,0.1
		l-0.2,1.4c-0.1,0-0.2,0-0.3-0.1c-0.1,0-0.2,0-0.4,0c-0.2,0-0.4,0-0.6,0.1c-0.2,0.1-0.3,0.2-0.4,0.4s-0.2,0.4-0.2,0.6v2.5H75.8z"/>
	<path class="st7" d="M83.3,170.9c-0.3,0-0.6-0.1-0.9-0.2s-0.5-0.3-0.6-0.6c-0.2-0.3-0.3-0.5-0.3-0.9l0.2-0.2l-0.1,1.8h-1.5v-7.1
		h1.7v3.7l-0.2-0.2c0.1-0.4,0.3-0.8,0.6-1c0.3-0.3,0.7-0.4,1.2-0.4c0.4,0,0.7,0.1,1,0.3c0.3,0.2,0.5,0.5,0.7,0.9s0.3,0.9,0.3,1.4
		c0,0.5-0.1,1-0.3,1.4s-0.4,0.7-0.7,0.9S83.7,170.9,83.3,170.9z M82.7,169.6c0.3,0,0.5-0.1,0.7-0.3s0.2-0.6,0.2-1s-0.1-0.8-0.2-1
		c-0.2-0.2-0.4-0.3-0.7-0.3c-0.2,0-0.4,0.1-0.5,0.2c-0.1,0.1-0.2,0.3-0.3,0.5c-0.1,0.2-0.1,0.4-0.1,0.7c0,0.3,0,0.5,0.1,0.7
		c0.1,0.2,0.2,0.4,0.3,0.5C82.4,169.6,82.5,169.6,82.7,169.6z"/>
	<path class="st7" d="M88.9,167.1c-0.1-0.1-0.3-0.2-0.5-0.2c-0.2,0-0.4,0.1-0.6,0.2c-0.1,0.1-0.3,0.3-0.3,0.6l-1.4-0.3
		c0.1-0.5,0.3-0.9,0.8-1.2s1-0.4,1.7-0.4c0.7,0,1.3,0.2,1.7,0.5s0.6,0.8,0.6,1.4v1.8c0,0.3,0.1,0.4,0.4,0.4c0.1,0,0.2,0,0.3,0
		l-0.1,1c-0.2,0.1-0.4,0.1-0.7,0.1c-0.4,0-0.7-0.1-1-0.3c-0.2-0.2-0.4-0.5-0.4-0.9v-0.1l0.2-0.1c0,0.3-0.1,0.5-0.2,0.7
		c-0.2,0.2-0.4,0.3-0.6,0.4c-0.3,0.1-0.6,0.1-0.9,0.1c-0.5,0-0.9-0.1-1.2-0.4s-0.5-0.6-0.5-1c0-0.4,0.1-0.7,0.3-0.9
		c0.2-0.2,0.6-0.4,1-0.5l1.9-0.4l0,0.9l-1,0.2c-0.2,0-0.4,0.1-0.4,0.2c-0.1,0.1-0.1,0.2-0.1,0.3s0,0.3,0.1,0.3s0.2,0.1,0.4,0.1
		c0.2,0,0.3,0,0.4-0.1c0.1-0.1,0.2-0.2,0.3-0.3c0.1-0.1,0.1-0.3,0.1-0.5v-1.3C89.1,167.4,89,167.2,88.9,167.1z"/>
	<path class="st7" d="M95.5,165.8v1.2h-4v-1.2H95.5z M94,164.2v4.8c0,0.2,0.1,0.4,0.2,0.5s0.3,0.2,0.5,0.2c0.2,0,0.3,0,0.4-0.1
		s0.2-0.1,0.3-0.2l0.2,1.1c-0.2,0.1-0.4,0.2-0.6,0.3c-0.3,0.1-0.5,0.1-0.8,0.1c-0.4,0-0.7-0.1-1-0.2c-0.3-0.1-0.5-0.3-0.6-0.5
		c-0.1-0.2-0.2-0.5-0.2-0.9v-4.6L94,164.2z"/>
	<path class="st7" d="M97.3,170.6c-0.4-0.2-0.7-0.5-0.9-0.9c-0.2-0.4-0.3-0.9-0.3-1.4c0-0.5,0.1-1,0.3-1.4c0.2-0.4,0.5-0.7,0.9-0.9
		c0.4-0.2,0.9-0.3,1.4-0.3s1,0.1,1.3,0.3s0.7,0.5,0.9,0.8c0.2,0.4,0.3,0.8,0.3,1.2c0,0.1,0,0.2,0,0.4c0,0.1,0,0.2,0,0.3h-4v-0.9h3.2
		l-0.8,0.4c0-0.4-0.1-0.8-0.2-1c-0.1-0.2-0.4-0.3-0.7-0.3c-0.2,0-0.4,0.1-0.6,0.2s-0.3,0.3-0.3,0.5s-0.1,0.5-0.1,0.8
		c0,0.3,0,0.6,0.1,0.8c0.1,0.2,0.2,0.3,0.4,0.4c0.2,0.1,0.4,0.1,0.6,0.1c0.2,0,0.4,0,0.6-0.1c0.2-0.1,0.3-0.2,0.4-0.4l1.4,0.5
		c-0.1,0.4-0.4,0.7-0.8,1c-0.4,0.2-0.9,0.3-1.5,0.3C98.2,170.9,97.7,170.8,97.3,170.6z"/>
</g>
<rect x="222.6" y="161.9" class="st6" width="50.8" height="10.4"/>
<g>
	<path class="st7" d="M232.7,168.6c-0.6,0-1.1-0.1-1.6-0.4c-0.5-0.3-0.8-0.6-1.1-1.2c-0.3-0.5-0.4-1.1-0.4-1.8
		c0-0.7,0.1-1.3,0.4-1.8c0.3-0.5,0.6-0.9,1.1-1.2s1.1-0.4,1.8-0.4c0.7,0,1.4,0.1,1.8,0.4c0.5,0.3,0.8,0.7,1.1,1.3l-1.6,0.6
		c-0.1-0.3-0.2-0.6-0.5-0.7c-0.2-0.2-0.5-0.2-0.8-0.2c-0.3,0-0.6,0.1-0.8,0.2s-0.4,0.4-0.5,0.7c-0.1,0.3-0.2,0.7-0.2,1.1
		c0,0.5,0.1,0.9,0.2,1.2c0.1,0.3,0.3,0.5,0.5,0.7s0.5,0.2,0.9,0.2c0.2,0,0.4,0,0.5-0.1c0.2,0,0.3-0.1,0.4-0.2
		c0.1-0.1,0.2-0.2,0.3-0.3s0.1-0.3,0.1-0.5v-0.1h-1.5V165h3v3.6h-1.2l-0.1-1.6l0.3,0.2c-0.1,0.5-0.4,0.8-0.8,1
		C233.7,168.5,233.3,168.6,232.7,168.6z"/>
	<path class="st7" d="M238.7,161.4v5.4c0,0.2,0,0.4,0.1,0.5s0.2,0.1,0.4,0.1c0.1,0,0.2,0,0.2,0c0.1,0,0.1,0,0.2-0.1l-0.1,1
		c-0.1,0.1-0.3,0.1-0.5,0.2s-0.4,0.1-0.6,0.1c-0.5,0-0.9-0.1-1.2-0.4c-0.2-0.2-0.4-0.7-0.4-1.2v-5.6H238.7z"/>
	<path class="st7" d="M245.2,163.5l-1.8,5c-0.2,0.5-0.4,0.9-0.6,1.3c-0.2,0.3-0.5,0.5-0.8,0.7c-0.3,0.1-0.7,0.2-1.1,0.2
		c-0.3,0-0.5,0-0.8-0.1c-0.2-0.1-0.4-0.1-0.6-0.2l0.3-1.1c0.1,0.1,0.2,0.1,0.4,0.2c0.1,0,0.3,0.1,0.5,0.1c0.2,0,0.4,0,0.5-0.1
		c0.1-0.1,0.2-0.2,0.3-0.4l0.1-0.3l-0.6-1.4l-1.5-3.8h1.9l0.8,2.8l0.2,1.1l0.3-1.1l0.8-2.8H245.2z"/>
	<path class="st7" d="M248.1,163.4c0.5,0,0.9,0.1,1.3,0.2c0.3,0.1,0.6,0.3,0.8,0.6c0.2,0.2,0.3,0.5,0.4,0.8l-1.6,0.5
		c0-0.3-0.1-0.5-0.2-0.6c-0.1-0.1-0.3-0.2-0.5-0.2c-0.2,0-0.4,0-0.5,0.1c-0.1,0.1-0.3,0.2-0.3,0.5c-0.1,0.2-0.1,0.5-0.1,0.8
		s0,0.6,0.1,0.8c0.1,0.2,0.2,0.3,0.3,0.4c0.1,0.1,0.3,0.1,0.5,0.1c0.2,0,0.3,0,0.4-0.1c0.1-0.1,0.2-0.2,0.3-0.3s0.1-0.3,0.1-0.4
		l1.5,0.5c0,0.3-0.2,0.6-0.4,0.8c-0.2,0.2-0.5,0.4-0.8,0.5c-0.3,0.1-0.7,0.2-1.2,0.2c-0.5,0-1-0.1-1.4-0.3s-0.7-0.5-0.9-0.9
		c-0.2-0.4-0.3-0.9-0.3-1.4s0.1-1,0.3-1.4c0.2-0.4,0.5-0.7,0.9-0.9S247.6,163.4,248.1,163.4z"/>
	<path class="st7" d="M252.4,168.3c-0.4-0.2-0.7-0.5-0.9-0.9s-0.3-0.9-0.3-1.4c0-0.5,0.1-1,0.3-1.4s0.5-0.7,0.9-0.9s0.9-0.3,1.4-0.3
		c0.5,0,1,0.1,1.3,0.3c0.4,0.2,0.7,0.5,0.8,0.8c0.2,0.4,0.3,0.8,0.3,1.2c0,0.1,0,0.2,0,0.4s0,0.2,0,0.3h-4v-0.9h3.2l-0.8,0.4
		c0-0.4-0.1-0.8-0.2-1c-0.1-0.2-0.4-0.3-0.7-0.3c-0.2,0-0.4,0-0.5,0.2c-0.1,0.1-0.3,0.3-0.3,0.5c-0.1,0.2-0.1,0.5-0.1,0.8
		c0,0.3,0,0.6,0.1,0.8c0.1,0.2,0.2,0.3,0.4,0.4s0.4,0.1,0.6,0.1c0.2,0,0.4,0,0.6-0.1c0.2-0.1,0.3-0.2,0.4-0.4l1.4,0.5
		c-0.1,0.4-0.4,0.7-0.8,1c-0.4,0.2-0.9,0.3-1.5,0.3C253.3,168.6,252.8,168.5,252.4,168.3z"/>
	<path class="st7" d="M257.2,168.5v-5h1.5l0.1,1.1c0.1-0.4,0.3-0.7,0.6-0.9c0.2-0.2,0.6-0.3,1-0.3c0.1,0,0.2,0,0.3,0
		c0.1,0,0.2,0,0.2,0.1l-0.2,1.4c-0.1,0-0.2,0-0.3-0.1c-0.1,0-0.2,0-0.4,0c-0.2,0-0.4,0-0.6,0.1c-0.2,0.1-0.3,0.2-0.4,0.4
		s-0.2,0.4-0.2,0.6v2.5H257.2z"/>
	<path class="st7" d="M262.3,163c-0.3,0-0.6-0.1-0.8-0.2s-0.2-0.3-0.2-0.6c0-0.3,0.1-0.5,0.2-0.6c0.2-0.1,0.4-0.2,0.8-0.2
		c0.3,0,0.6,0.1,0.8,0.2c0.2,0.1,0.2,0.3,0.2,0.6c0,0.3-0.1,0.5-0.2,0.6S262.7,163,262.3,163z M263.2,163.5v5h-1.7v-5H263.2z"/>
	<path class="st7" d="M264.4,168.5v-5h1.5l0.1,1.7l-0.2-0.2c0.1-0.4,0.2-0.7,0.4-0.9s0.4-0.4,0.6-0.5s0.5-0.2,0.9-0.2
		c0.3,0,0.6,0.1,0.9,0.2s0.5,0.3,0.6,0.6s0.2,0.6,0.2,1v3.3h-1.7v-2.9c0-0.3-0.1-0.6-0.2-0.7c-0.1-0.1-0.3-0.2-0.5-0.2
		c-0.2,0-0.3,0-0.5,0.1s-0.2,0.2-0.3,0.4s-0.1,0.4-0.1,0.7v2.7H264.4z"/>
</g>
<g class="st8">
	<path class="st3" d="M221.3,34.4v-1.8c0.9-0.6,1.7-1.1,2.3-1.6c0.6-0.5,1.2-1,1.6-1.4c0.4-0.4,0.7-0.9,0.9-1.2
		c0.2-0.4,0.3-0.8,0.3-1.2c0-0.4-0.1-0.7-0.4-1c-0.2-0.3-0.6-0.4-1.1-0.4c-0.5,0-0.9,0.2-1.2,0.6s-0.4,0.9-0.4,1.6l-2.4-0.7
		c0-0.8,0.2-1.5,0.6-2c0.4-0.5,0.8-0.9,1.5-1.2c0.6-0.3,1.3-0.4,2.1-0.4c0.7,0,1.3,0.1,1.8,0.3s0.9,0.5,1.2,0.8
		c0.3,0.3,0.6,0.7,0.7,1.1c0.2,0.4,0.2,0.8,0.2,1.2c0,0.7-0.2,1.3-0.5,1.9c-0.4,0.6-0.9,1.2-1.5,1.7c-0.7,0.5-1.5,1.1-2.4,1.7v0
		c0.2,0,0.4,0,0.6,0c0.2,0,0.5,0,0.8,0c0.3,0,0.5,0,0.7,0h2.5v2.1H221.3z"/>
</g>
<g>
	<g class="st8">
		<path class="st3" d="M162.8,21.2v-6.1c0-0.3,0-0.6,0-0.9c0-0.3,0-0.6,0-0.9c-0.4,0.3-0.7,0.6-1.2,0.8s-0.9,0.4-1.3,0.5l-0.3-2.3
			c0.3,0,0.6-0.1,0.9-0.2c0.3-0.1,0.6-0.3,0.9-0.4c0.3-0.2,0.6-0.4,0.8-0.6c0.2-0.2,0.4-0.4,0.6-0.6h2.2v10.6H162.8z"/>
	</g>
</g>
<g class="st8">
	<path class="st3" d="M116.2,173.4v-2.3H111v-1.7c0.1-0.2,0.2-0.4,0.4-0.6c0.2-0.2,0.3-0.5,0.6-0.8l3.4-5h3.2v6.4h1.6v1.9h-1.6v2.3
		H116.2z M113.2,169.2h3V166c0-0.2,0-0.4,0-0.7c0-0.2,0-0.5,0-0.7h0c-0.1,0.2-0.2,0.5-0.4,0.7c-0.1,0.2-0.3,0.5-0.4,0.6l-1.9,2.7
		c-0.1,0.1-0.1,0.2-0.2,0.2C113.4,169,113.3,169.1,113.2,169.2z"/>
</g>
<g class="st8">
	<path class="st3" d="M216,172.2c-0.9,0-1.7-0.2-2.4-0.5c-0.7-0.4-1.2-0.9-1.7-1.8l2.4-1.2c0.1,0.4,0.3,0.8,0.6,1
		c0.3,0.3,0.7,0.4,1.2,0.4c0.3,0,0.6-0.1,0.9-0.2s0.4-0.3,0.6-0.5s0.2-0.5,0.2-0.8c0-0.3-0.1-0.6-0.2-0.8c-0.1-0.2-0.3-0.4-0.5-0.5
		c-0.2-0.1-0.5-0.2-0.9-0.2c-0.3,0-0.5,0-0.7,0.1c-0.2,0-0.4,0.1-0.6,0.2c-0.2,0.1-0.3,0.2-0.5,0.3l-2.1-0.4l0.7-5.9h6.7v2.1h-4.7
		l-0.3,2.1l0,0.3h0c0.2-0.2,0.5-0.4,0.9-0.6c0.4-0.1,0.8-0.2,1.3-0.2c0.7,0,1.3,0.1,1.8,0.4c0.5,0.3,0.9,0.7,1.1,1.1
		c0.3,0.5,0.4,1,0.4,1.6c0,0.7-0.1,1.2-0.3,1.7c-0.2,0.5-0.5,0.9-0.9,1.2c-0.4,0.3-0.8,0.5-1.3,0.7C217,172.1,216.5,172.2,216,172.2
		z"/>
</g>
<polygon class="st0" points="86.9,62.5 86.9,62.5 86.3,62.5 86.3,62.5 85.6,62.6 85.5,62.6 84.9,62.7 84.9,62.7 84.4,63 84.2,63 
	83.7,63.1 83.7,63.1 83.1,63.4 83.1,63.4 82.6,63.6 82.5,63.6 82,64 82,64 81.5,64.4 81.5,64.4 81,64.8 81,64.8 80.4,65.2 
	80.4,65.2 80.1,65.5 79.9,65.5 79.6,66 79.6,66 79.2,66.4 79.2,66.4 78.8,66.9 78.8,66.9 78.4,67.4 78.4,67.6 78.2,68.1 78.2,68.1 
	77.8,68.6 77.8,68.6 77.5,69.2 77.5,69.2 77.4,69.8 77.4,69.8 77.2,70.3 77.2,70.5 77,71 77,71.1 76.9,71.6 76.9,71.7 76.9,72.4 
	76.9,72.4 76.9,73 76.9,73 76.9,73.6 76.9,73.6 76.9,74.3 76.9,74.4 77,74.9 77,75 77.2,75.5 77.2,75.7 77.4,76.2 77.4,76.3 
	77.5,76.8 77.5,76.8 77.8,77.4 77.8,77.4 78.2,77.9 78.2,77.9 78.4,78.4 78.4,78.6 78.8,79.1 78.8,79.1 79.2,79.6 79.2,79.6 
	79.6,80 79.6,80 79.9,80.5 79.9,80.5 80.4,80.9 80.4,80.9 81,81.2 81,81.4 81.5,81.6 81.5,81.7 82,82 82,82 82.5,82.4 82.5,82.4 
	83.1,82.6 83.1,82.6 83.7,82.9 83.7,82.9 84.2,83.1 84.2,83.1 84.9,83.3 84.9,83.3 85.5,83.4 85.5,83.4 86.1,83.5 86.3,83.5 
	86.9,83.5 86.9,83.5 87.5,83.5 88.2,83.5 88.3,83.5 88.9,83.5 88.9,83.5 89.6,83.4 89.6,83.4 90.2,83.3 90.2,83.3 90.8,83.1 
	90.8,83.1 91.5,82.9 91.5,82.9 92,82.6 92,82.6 92.6,82.4 92.6,82.4 93.1,82 93.1,82 93.6,81.7 93.6,81.7 94.1,81.4 94.1,81.4 
	94.6,81 94.6,80.9 95.1,80.5 95.1,80.5 95.5,80.1 95.5,80 95.9,79.6 95.9,79.6 96.3,79.1 96.3,79.1 96.7,78.6 96.7,78.6 97,77.9 
	97,77.9 97.3,77.4 97.3,77.4 97.5,76.8 97.5,76.8 97.8,76.3 97.8,76.2 97.9,75.7 97.9,75.7 98,75 98,75 98.2,74.4 98.2,74.4 
	98.2,73.8 98.2,73.6 98.3,73 98.2,72.4 98.2,72.4 98.2,71.7 98.2,71.7 98,71.1 98,71.1 97.9,70.5 97.9,70.5 97.8,69.8 97.8,69.8 
	97.5,69.2 97.5,69.2 97.3,68.7 97.3,68.6 97,68.1 97,68.1 96.7,67.6 96.7,67.6 96.4,67.1 96.3,66.9 96,66.5 95.9,66.4 95.5,66 
	95.5,66 95.1,65.5 95.1,65.5 94.6,65.2 94.6,65.2 94.2,64.8 94.1,64.8 93.7,64.4 93.6,64.4 93.1,64 93.1,64 92.6,63.8 92.6,63.6 
	92,63.4 92,63.4 91.5,63.1 91.5,63.1 90.8,63 90.8,63 90.2,62.7 90.2,62.7 89.6,62.6 89.6,62.6 88.9,62.5 88.9,62.5 88.3,62.5 
	88.2,62.5 87.5,62.5 "/>
<rect x="79" y="65.9" class="st6" width="17.2" height="11.4"/>
<rect x="13.1" y="69" class="st6" width="67.2" height="8.9"/>
<g>
	<path class="st7" d="M3.8,75.7l2.3-6.6h2.1l2.3,6.6H8.7l-1.3-4.2l-0.3-1h0l-0.3,1l-1.3,4.2H3.8z M5.3,74.2V73H9v1.2H5.3z"/>
	<path class="st7" d="M13.4,70.6c0.5,0,0.9,0.1,1.3,0.2c0.3,0.1,0.6,0.3,0.8,0.6c0.2,0.2,0.3,0.5,0.4,0.8l-1.6,0.5
		c0-0.3-0.1-0.5-0.2-0.6s-0.3-0.2-0.5-0.2c-0.2,0-0.4,0-0.5,0.1c-0.1,0.1-0.3,0.2-0.3,0.5s-0.1,0.5-0.1,0.8c0,0.3,0,0.6,0.1,0.8
		c0.1,0.2,0.2,0.3,0.3,0.4c0.1,0.1,0.3,0.1,0.5,0.1c0.2,0,0.3,0,0.4-0.1s0.2-0.2,0.3-0.3c0.1-0.1,0.1-0.3,0.1-0.4l1.5,0.5
		c0,0.3-0.2,0.6-0.4,0.8c-0.2,0.2-0.5,0.4-0.8,0.5c-0.3,0.1-0.7,0.2-1.2,0.2c-0.5,0-1-0.1-1.4-0.3c-0.4-0.2-0.7-0.5-0.9-0.9
		c-0.2-0.4-0.3-0.9-0.3-1.4s0.1-1,0.3-1.4c0.2-0.4,0.5-0.7,0.9-0.9S12.9,70.6,13.4,70.6z"/>
	<path class="st7" d="M17.5,70.1c-0.3,0-0.6-0.1-0.8-0.2c-0.2-0.1-0.2-0.3-0.2-0.6c0-0.3,0.1-0.5,0.2-0.6c0.2-0.1,0.4-0.2,0.8-0.2
		c0.3,0,0.6,0.1,0.8,0.2s0.2,0.3,0.2,0.6c0,0.3-0.1,0.5-0.2,0.6C18.1,70,17.9,70.1,17.5,70.1z M18.4,70.7v5h-1.7v-5H18.4z"/>
	<path class="st7" d="M21.4,75.8c-0.4,0-0.8-0.1-1.1-0.3c-0.3-0.2-0.6-0.5-0.7-0.9s-0.3-0.9-0.3-1.4c0-0.6,0.1-1,0.3-1.4
		c0.2-0.4,0.4-0.7,0.7-0.9c0.3-0.2,0.7-0.3,1.1-0.3c0.5,0,0.8,0.1,1.1,0.4c0.3,0.3,0.5,0.6,0.5,1.1L23,72.2v-3.7h1.7v7.1h-1.5L23,74
		l0.2,0.2c0,0.3-0.1,0.6-0.3,0.9c-0.2,0.2-0.4,0.4-0.6,0.6C22.1,75.7,21.8,75.8,21.4,75.8z M22,74.5c0.2,0,0.4-0.1,0.5-0.2
		c0.1-0.1,0.2-0.3,0.3-0.5c0.1-0.2,0.1-0.5,0.1-0.8c0-0.3,0-0.5-0.1-0.7c-0.1-0.2-0.2-0.3-0.3-0.5c-0.1-0.1-0.3-0.2-0.5-0.2
		c-0.3,0-0.5,0.1-0.7,0.3c-0.2,0.2-0.3,0.6-0.3,1s0.1,0.8,0.2,1C21.5,74.4,21.7,74.5,22,74.5z"/>
	<path class="st7" d="M26.9,75.5c-0.4-0.2-0.7-0.5-0.9-0.9c-0.2-0.4-0.3-0.9-0.3-1.4c0-0.5,0.1-1,0.3-1.4c0.2-0.4,0.5-0.7,0.9-0.9
		c0.4-0.2,0.9-0.3,1.4-0.3s1,0.1,1.3,0.3s0.7,0.5,0.9,0.8c0.2,0.4,0.3,0.8,0.3,1.2c0,0.1,0,0.2,0,0.4c0,0.1,0,0.2,0,0.3h-4v-0.9h3.2
		l-0.8,0.4c0-0.4-0.1-0.8-0.2-1c-0.1-0.2-0.4-0.3-0.7-0.3c-0.2,0-0.4,0-0.6,0.2c-0.1,0.1-0.3,0.3-0.3,0.5c-0.1,0.2-0.1,0.5-0.1,0.8
		c0,0.3,0,0.6,0.1,0.8c0.1,0.2,0.2,0.3,0.4,0.4c0.2,0.1,0.4,0.1,0.6,0.1c0.2,0,0.4,0,0.6-0.1c0.2-0.1,0.3-0.2,0.4-0.4l1.4,0.5
		c-0.1,0.4-0.4,0.7-0.8,1s-0.9,0.3-1.5,0.3C27.8,75.8,27.3,75.7,26.9,75.5z"/>
	<path class="st7" d="M40.5,73.8c-0.1,0.5-0.3,0.8-0.6,1.1c-0.3,0.3-0.6,0.5-1,0.6c-0.4,0.1-0.8,0.2-1.3,0.2c-0.7,0-1.2-0.1-1.7-0.4
		c-0.5-0.3-0.9-0.7-1.1-1.2c-0.3-0.5-0.4-1.1-0.4-1.8c0-0.7,0.1-1.3,0.4-1.8c0.3-0.5,0.6-0.9,1.1-1.2c0.5-0.3,1.1-0.4,1.7-0.4
		c0.5,0,0.9,0.1,1.3,0.2c0.4,0.1,0.7,0.3,1,0.6c0.3,0.3,0.5,0.6,0.6,1l-1.5,0.6c-0.1-0.4-0.2-0.7-0.5-0.9s-0.5-0.2-0.8-0.2
		c-0.3,0-0.6,0.1-0.8,0.2s-0.4,0.4-0.5,0.7c-0.1,0.3-0.2,0.7-0.2,1.1c0,0.4,0.1,0.8,0.2,1.1s0.3,0.5,0.5,0.7
		c0.2,0.2,0.5,0.2,0.9,0.2c0.3,0,0.6-0.1,0.8-0.3s0.4-0.4,0.5-0.8L40.5,73.8z"/>
	<path class="st7" d="M42.2,70.1c-0.3,0-0.6-0.1-0.8-0.2c-0.2-0.1-0.2-0.3-0.2-0.6c0-0.3,0.1-0.5,0.2-0.6c0.2-0.1,0.4-0.2,0.8-0.2
		c0.3,0,0.6,0.1,0.8,0.2s0.2,0.3,0.2,0.6c0,0.3-0.1,0.5-0.2,0.6C42.8,70,42.5,70.1,42.2,70.1z M43,70.7v5h-1.7v-5H43z"/>
	<path class="st7" d="M47.8,70.7v1.2h-4v-1.2H47.8z M46.3,69.1v4.8c0,0.2,0.1,0.4,0.2,0.5s0.3,0.2,0.5,0.2c0.2,0,0.3,0,0.4-0.1
		c0.1,0,0.2-0.1,0.3-0.2l0.2,1c-0.2,0.1-0.4,0.2-0.6,0.3c-0.3,0.1-0.5,0.1-0.8,0.1c-0.4,0-0.7-0.1-1-0.2c-0.3-0.1-0.5-0.3-0.6-0.5
		s-0.2-0.5-0.2-0.9v-4.6L46.3,69.1z"/>
	<path class="st7" d="M48.6,75.7v-5h1.5l0.1,1.1c0.1-0.4,0.3-0.7,0.6-0.9c0.2-0.2,0.6-0.3,1-0.3c0.1,0,0.2,0,0.3,0
		c0.1,0,0.2,0,0.2,0.1l-0.2,1.4c-0.1,0-0.2,0-0.3-0.1s-0.2,0-0.4,0c-0.2,0-0.4,0-0.6,0.1s-0.3,0.2-0.4,0.4s-0.2,0.4-0.2,0.6v2.5
		H48.6z"/>
	<path class="st7" d="M53.8,70.1c-0.3,0-0.6-0.1-0.8-0.2c-0.2-0.1-0.2-0.3-0.2-0.6c0-0.3,0.1-0.5,0.2-0.6c0.2-0.1,0.4-0.2,0.8-0.2
		c0.3,0,0.6,0.1,0.8,0.2s0.2,0.3,0.2,0.6c0,0.3-0.1,0.5-0.2,0.6C54.4,70,54.1,70.1,53.8,70.1z M54.6,70.7v5h-1.7v-5H54.6z"/>
	<path class="st7" d="M59.2,77.8V74l0.2,0.2c0,0.3-0.1,0.6-0.3,0.8s-0.3,0.4-0.6,0.5s-0.5,0.2-0.8,0.2c-0.4,0-0.8-0.1-1.1-0.3
		s-0.6-0.5-0.7-0.9c-0.2-0.4-0.3-0.9-0.3-1.4c0-0.5,0.1-1,0.3-1.4c0.2-0.4,0.4-0.7,0.7-0.9c0.3-0.2,0.7-0.3,1.1-0.3
		c0.3,0,0.6,0.1,0.9,0.2s0.5,0.3,0.6,0.6c0.2,0.3,0.3,0.6,0.3,0.9l-0.2,0.2l0.1-1.8h1.5v7.1H59.2z M58.3,74.5c0.2,0,0.4-0.1,0.5-0.2
		c0.1-0.1,0.2-0.3,0.3-0.5c0.1-0.2,0.1-0.4,0.1-0.7c0-0.3,0-0.5-0.1-0.7c-0.1-0.2-0.2-0.3-0.3-0.4c-0.1-0.1-0.3-0.1-0.5-0.1
		c-0.3,0-0.5,0.1-0.7,0.3c-0.2,0.2-0.3,0.6-0.3,1s0.1,0.8,0.2,1C57.7,74.4,58,74.5,58.3,74.5z"/>
	<path class="st7" d="M63.8,75.8c-0.3,0-0.6-0.1-0.9-0.2c-0.3-0.1-0.5-0.3-0.6-0.6c-0.1-0.3-0.2-0.6-0.2-1v-3.3h1.7v2.9
		c0,0.3,0.1,0.5,0.2,0.7c0.1,0.1,0.3,0.2,0.5,0.2c0.1,0,0.2,0,0.3-0.1c0.1,0,0.2-0.1,0.3-0.2s0.1-0.2,0.2-0.4c0-0.1,0.1-0.3,0.1-0.5
		v-2.7h1.7v5h-1.5l-0.1-0.9c-0.2,0.4-0.4,0.6-0.7,0.8S64.2,75.8,63.8,75.8z"/>
	<path class="st7" d="M69.3,75.5c-0.4-0.2-0.7-0.5-0.9-0.9c-0.2-0.4-0.3-0.9-0.3-1.4c0-0.5,0.1-1,0.3-1.4c0.2-0.4,0.5-0.7,0.9-0.9
		c0.4-0.2,0.9-0.3,1.4-0.3s1,0.1,1.3,0.3s0.7,0.5,0.9,0.8c0.2,0.4,0.3,0.8,0.3,1.2c0,0.1,0,0.2,0,0.4c0,0.1,0,0.2,0,0.3h-4v-0.9h3.2
		l-0.8,0.4c0-0.4-0.1-0.8-0.2-1c-0.1-0.2-0.4-0.3-0.7-0.3c-0.2,0-0.4,0-0.6,0.2c-0.1,0.1-0.3,0.3-0.3,0.5c-0.1,0.2-0.1,0.5-0.1,0.8
		c0,0.3,0,0.6,0.1,0.8c0.1,0.2,0.2,0.3,0.4,0.4c0.2,0.1,0.4,0.1,0.6,0.1c0.2,0,0.4,0,0.6-0.1c0.2-0.1,0.3-0.2,0.4-0.4l1.4,0.5
		c-0.1,0.4-0.4,0.7-0.8,1s-0.9,0.3-1.5,0.3C70.2,75.8,69.7,75.7,69.3,75.5z"/>
</g>
<g class="st8">
	<path class="st3" d="M87.6,78c-1.1,0-2.1-0.2-2.8-0.7s-1.3-1.1-1.6-1.9l2.5-1.1c0.1,0.4,0.2,0.7,0.3,0.9c0.1,0.2,0.3,0.4,0.6,0.5
		c0.2,0.1,0.5,0.2,0.9,0.2c0.3,0,0.6-0.1,0.8-0.2c0.2-0.1,0.4-0.2,0.5-0.4c0.1-0.2,0.2-0.4,0.2-0.7c0-0.3-0.1-0.5-0.2-0.7
		c-0.1-0.2-0.3-0.3-0.5-0.4c-0.2-0.1-0.5-0.1-0.8-0.1c-0.1,0-0.3,0-0.4,0c-0.1,0-0.3,0-0.4,0l0-1.8c0.1,0,0.2,0,0.3,0
		c0.1,0,0.2,0,0.3,0c0.5,0,0.9-0.1,1.1-0.3c0.2-0.2,0.3-0.5,0.3-1c0-0.4-0.1-0.7-0.3-0.9c-0.2-0.2-0.5-0.3-0.9-0.3
		c-0.4,0-0.8,0.1-1,0.3c-0.3,0.2-0.4,0.6-0.5,1.1l-2.4-0.8c0.1-0.6,0.4-1.1,0.7-1.5c0.4-0.4,0.9-0.7,1.4-0.9
		c0.6-0.2,1.2-0.3,1.9-0.3c0.8,0,1.5,0.1,2,0.3c0.6,0.2,1,0.6,1.3,1c0.3,0.4,0.4,0.9,0.4,1.5c0,0.5-0.1,0.8-0.2,1.2
		c-0.1,0.3-0.3,0.6-0.5,0.8c-0.2,0.2-0.4,0.3-0.7,0.4s-0.4,0.1-0.6,0.2v0c0.2,0,0.4,0,0.7,0.1c0.2,0.1,0.5,0.2,0.7,0.4
		c0.2,0.2,0.4,0.4,0.6,0.7c0.2,0.3,0.2,0.6,0.2,1.1c0,0.7-0.2,1.2-0.5,1.7c-0.3,0.5-0.8,0.9-1.4,1.1C89.1,77.9,88.4,78,87.6,78z"/>
</g>
</svg>
