<?xml version="1.0" encoding="utf-8"?>
<!-- Generator: Adobe Illustrator 25.4.1, SVG Export Plug-In . SVG Version: 6.00 Build 0)  -->
<svg version="1.1" id="Calque_1" xmlns="http://www.w3.org/2000/svg" xmlns:xlink="http://www.w3.org/1999/xlink" x="0px" y="0px"
	 viewBox="0 0 84.3 163.8" style="enable-background:new 0 0 84.3 163.8;" xml:space="preserve">
<style type="text/css">
	.st0{fill:none;stroke:#666666;stroke-width:3;stroke-miterlimit:10;}
	.st1{fill:#666666;}
</style>
<g>
	<path class="st0" d="M67.1,45.3C62.5,37.2,48.3,19,42.4,11.4c-6,7.6-20.1,25.8-24.8,33.9l-0.5,0.9C12.6,54.1,4,68.7,13.2,86
		c6.8,12.8,20,18.7,29.2,18.7c9.3,0,22.4-5.9,29.2-18.7c9.2-17.3,0.6-31.9-3.9-39.8L67.1,45.3z"/>
	<path class="st0" d="M23.9,66c0.3,7.5,3.4,19.4,14.2,22.2"/>
</g>
<g>
	<path class="st1" d="M38.2,136.5c0,6.9-4.9,11.3-10.5,11.3c-2.7,0-5.7-1.1-7.2-3.4v13.3h-5.3v-32h5.3v2.9c1.5-2.3,4.6-3.4,7.1-3.4
		C33.3,125.1,38.2,129.6,38.2,136.5z M32.9,136.5c0-3.5-2.8-6.3-6.1-6.3c-3.3,0-6.2,2.6-6.2,6.3c0,3.8,3.1,6.3,6.2,6.3
		C30.1,142.8,32.9,140.1,32.9,136.5z"/>
	<path class="st1" d="M62.7,115.5h5.6v31.7h-5.6v-13.2H49.5v13.2h-5.6v-31.7h5.6v13.4h13.2V115.5z"/>
</g>
</svg>
