<?xml version="1.0" encoding="utf-8"?>
<!-- Generator: Adobe Illustrator 25.4.1, SVG Export Plug-In . SVG Version: 6.00 Build 0)  -->
<svg version="1.1" id="Calque_1" xmlns:serif="http://www.serif.com/"
	 xmlns="http://www.w3.org/2000/svg" xmlns:xlink="http://www.w3.org/1999/xlink" x="0px" y="0px" viewBox="0 0 1975.5 570.6"
	 style="enable-background:new 0 0 1975.5 570.6;" xml:space="preserve">
<style type="text/css">
	.st0{fill:#F0D7CD;}
	.st1{fill:#FAB699;}
	.st2{fill:#FFFFFF;}
	.st3{fill:#FFFFFF;stroke:#FFFFFF;stroke-width:2;stroke-miterlimit:10;}
	.st4{fill:#6E7478;}
</style>
<g>
	<g id="Calque_2_3_">
		<g id="Calque_2-2_2_">
			<path class="st0" d="M108.1,342.2C59.4,247.5,91.6,86.5,188.6,37.4c69.7-35.8,215.9-11.2,266,59
				C592.2,289.9,240,570.7,108.1,342.2"/>
		</g>
	</g>
	<g id="Calque_2_2_">
		<g id="Calque_2-2_1_">
			<path class="st1" d="M455.4,327.9c-64.8,80.5-219.9,115.4-301.7,48.8C94.2,328.9,58.5,189.8,101,117.9
				C218.1-80.2,605.6,121,455.4,327.9"/>
		</g>
	</g>
	<g transform="matrix(1,0,0,1,-1646.45,-727.688)">
		<g transform="matrix(4.16667,0,0,4.16667,0,0)">
			<g transform="matrix(1,0,0,1,417.866,230.92)">
				<path class="st2" d="M45.6-18c-11.1,0-20,9.2-20,20.5s9,20.4,20,20.4s20-9.2,20-20.4C65.6-8.8,56.6-18,45.6-18 M45.6,25.5
					c-12.5,0-22.7-10.3-22.7-23s10.2-23.1,22.7-23.1S68.2-10.2,68.2,2.5C68.2,15.1,58.1,25.5,45.6,25.5"/>
			</g>
		</g>
		<g transform="matrix(4.16667,0,0,4.16667,0,0)">
			<g transform="matrix(0,-1,-1,0,412.636,205.728)">
				<path class="st2" d="M-24.5-47.1c-0.8,0-1.5,0.7-1.5,1.5s0.7,1.5,1.5,1.5s1.5-0.7,1.5-1.5S-23.7-47.1-24.5-47.1"/>
			</g>
		</g>
		<g transform="matrix(4.16667,0,0,4.16667,0,0)">
			<g transform="matrix(0,-1,-1,0,422.429,205.728)">
				<path class="st2" d="M-24.5-47.1c-0.8,0-1.5,0.7-1.5,1.5s0.7,1.5,1.5,1.5s1.5-0.7,1.5-1.5S-23.7-47.1-24.5-47.1"/>
			</g>
		</g>
		<g transform="matrix(4.16667,0,0,4.16667,0,0)">
			<g transform="matrix(1,0,0,1,415.316,174.466)">
				<path class="st2" d="M45.6,38.4c1.1-0.6,2.5-0.7,3.4-1.5c0.9-0.9,1.7-2,2.4-3.1c1.1-2,1.9-4.6,1.1-6.9c-0.7-2.2-2.9-3.8-5.3-3.6
					c-2.3,0.2-4,2-4.2,4.3c-0.1,1.3,0.5,2.5,1.5,3.3c1.1,0.8,2.7,0.7,3.7-0.2c0.9-0.9-0.5-2.3-1.4-1.4c-0.7,0.7-1.5-0.1-1.8-0.7
					c-0.3-0.7-0.1-1.7,0.4-2.3c1.1-1.5,3.3-1.1,4.5,0.2c1.3,1.5,0.9,3.9,0.2,5.7c-0.5,1.1-1.1,2-1.9,2.9c-0.7,0.8-1.5,1.8-2.7,1.6
					c-0.5-0.1-1,0.5-1,1C44.6,38.1,45.1,38.4,45.6,38.4"/>
			</g>
		</g>
		<g transform="matrix(4.16667,0,0,4.16667,0,0)">
			<g transform="matrix(1,0,0,1,420.348,217.679)">
				<path class="st2" d="M45.5,27.7c0-0.2,0-0.5-0.1-0.8c-0.2,0.2-0.4,0.3-0.6,0.5C45.1,27.5,45.3,27.6,45.5,27.7 M40.1,27.7
					c0.2-0.1,0.4-0.2,0.7-0.3c-0.2-0.2-0.4-0.3-0.6-0.5C40.2,27.2,40.2,27.4,40.1,27.7 M40.5,28.7c0.3,0.8,1.5,1.5,2.5,1.4
					s2-0.8,2.2-1.4C43.6,27.8,42,27.8,40.5,28.7 M46.7,24.4c-0.1,0.4-0.2,0.8-0.3,1.2c0,0.1-0.1,0.2,0,0.3c0.3,0.7,0.4,1.4,0.2,2.1
					c-0.3,2-2.2,3.4-4.2,3.2c-2.3-0.3-3.7-2.6-3.2-4.8c0.1-0.2,0.2-0.4,0.2-0.6s-0.2-0.4-0.2-0.7c-0.1-0.2-0.1-0.5-0.2-0.8
					c-1.5,2-1.4,4.9,0.6,6.7c2,1.8,5,1.7,6.8-0.3C48.2,28.8,48,26.1,46.7,24.4 M45.5,24.2c0-1.5-1.2-2.7-2.7-2.7s-2.7,1.2-2.7,2.7
					s1.2,2.7,2.7,2.7S45.5,25.6,45.5,24.2 M48.8,27.5c0.1-0.1,0.2-0.1,0.2-0.1c0.7-0.4,1.1-0.9,1.4-1.5c0.3-0.7,0.6-1.5,0.6-2.4
					c0.1-1.2-0.2-2.4-0.8-3.5c-0.8-1.5-2.4-2.1-4.1-1.6c-0.4,0.2-0.8,0.3-1.2,0.5c-0.9,0.4-1.9,0.5-2.8,0.3
					c-0.6-0.1-1.1-0.3-1.7-0.6c-0.7-0.3-1.4-0.5-2.2-0.3c-1.1,0.2-2,0.7-2.6,1.7c-1,1.5-1.1,3.2-0.7,4.8c0.2,1,0.7,1.8,1.5,2.4
					c0.2,0.1,0.2,0.2,0.4,0.3c0-0.3,0-0.6,0.1-0.9c0.2-1.6,1-2.9,2.3-4c0.1-0.1,0.2-0.2,0.2-0.3c0.7-1.1,1.7-1.9,3.1-2
					c1.6-0.1,2.9,0.7,3.7,2c0.1,0.1,0.1,0.2,0.2,0.2c0.9,0.7,1.5,1.5,2,2.5C48.6,25.9,48.8,26.7,48.8,27.5 M33.6,22.5
					c0.1-0.3,0.1-0.6,0.2-0.9c0.3-1.3,0.9-2.5,2-3.4c1.5-1.2,3.2-1.4,5-0.6c0.5,0.2,1,0.5,1.5,0.6c0.8,0.2,1.5,0,2.4-0.3
					c0.4-0.2,0.8-0.4,1.3-0.5c1.9-0.6,3.9,0.2,5.1,1.8c0.7,0.9,1.1,1.9,1.1,3c0.2,1.4,0,2.8-0.6,4s-1.5,2.1-2.7,2.6
					c-0.1,0-0.2,0.1-0.2,0.2c-0.7,2.4-2.3,3.9-4.8,4.4c-3.1,0.6-6-1.4-6.8-4.4c0-0.1-0.1-0.2-0.2-0.2c-1.6-0.7-2.6-1.9-3-3.5
					c-0.3-0.5-0.3-1-0.3-1.4c0-0.1,0-0.1,0-0.2C33.6,23.8,33.6,22.5,33.6,22.5z"/>
			</g>
		</g>
	</g>
</g>
<g>
	<g id="Calque_2_00000137103867737593391960000016809746975056336530_">
		<g id="Calque_2-2_00000034054057550008186660000004043229296706133394_">
			<path class="st0" d="M1479.4,161.2c42.6-97.6,187.7-174.4,287.1-130.3c71.8,31.4,145.1,160.2,122.4,243.4
				C1825.9,503.3,1385.7,407.8,1479.4,161.2"/>
		</g>
	</g>
	<g id="Calque_2_00000178180145017353672280000004726213266611800963_">
		<g id="Calque_2-2_00000074432744438877303350000014597278887810999427_">
			<path class="st1" d="M1779.6,397.9c-96,38.2-248.2-7.8-286.6-106.1c-28.3-70.9,9.2-209.5,81.5-251.2
				C1774-74.1,2012.2,291.8,1779.6,397.9"/>
		</g>
	</g>
	<path class="st3" d="M1674.8,332.9h-12.1c-15.6,0-30.4-6-41.6-16.9c-1.4-1.3-1.4-3.5-0.1-4.8s3.5-1.4,4.8-0.1
		c9.9,9.7,23,15,36.9,15h12.1c15.5,0,30-6,41-17l63.6-67c6-6.4,1.3-15-5.9-15c-8.9,0-17.2,3.4-23.5,9.7l-18.4,21.8
		c-5.5,6.5-17.7,2.7-17.7-7v-18.1c0-0.7-1.5,5.1,22.5-84.3c2-7.6-3.7-15-11.5-15c-5,0-9.9,3.1-11.5,8.9l-23.4,81.6
		c-1.1,3.8-6.7,3-6.7-0.9v-90.4c0-10.7-12.9-15.9-20.4-8.4c-2.3,2.3-3.5,5.3-3.5,8.4v87.7c0,4-5.7,4.7-6.7,0.9l-20.1-75.1
		c-0.8-3.1-2.8-5.7-5.6-7.2c-8-4.6-17.9,1.2-17.9,10.3c0,2.2-1.6-4.3,21,80.1c1,3.8-4.3,6-6.2,2.6l-27.3-47.2
		c-5.2-8.9-19.1-5.4-19.1,5.1c0,1.8,0.5,3.5,1.4,5.1l19.1,33.2c7.8,13.5,12.1,28.8,11.9,44.4c-0.2,15.7-0.5,19,4,25.2
		c0.5,1.8-0.5,3.7-2.3,4.2s-3.7-0.5-4.2-2.3c-3.5-4.6-4.6-12.5-4.2-27.1c0.3-14.4-3.8-28.5-11-41l-19.1-33.2
		c-4.8-8.3-1.8-18.7,6.2-23.3c8.1-4.7,18.6-1.9,23.3,6.2l14.3,24.8l-13.9-52c-2.7-10.1,3.3-20.3,13.3-23s20.3,3.2,23,13.3l13.4,50
		v-61.8c0-10.3,8.3-18.8,18.8-18.8c10.3,0,18.8,8.4,18.8,18.8v66.1l16.7-58.2c2.2-8.2,9.6-13.9,18.1-13.9
		c12.4,0,21.3,11.8,18.1,23.6l-22.2,83v17.7c0,3,3.6,4.5,5.7,2.5c12.8-15.2,18.4-21.9,18.6-22c7.6-7.6,17.7-11.8,28.4-11.8
		c13.5,0,20.9,16.4,10.8,26.5c-65.7,69.2-63.6,67-63.6,67C1708.3,326.1,1692.1,332.9,1674.8,332.9L1674.8,332.9z"/>
	<path class="st2" d="M1666.7,298.4c-1.2,0-2.1-1-2.1-2.1c0-17.1,12.7-31.6,29.6-33.9c1.2-0.2,2.2,0.7,2.4,1.8
		c0.2,1.2-0.7,2.2-1.8,2.4c-14.8,2-25.9,14.7-25.9,29.6C1668.9,297.5,1667.9,298.4,1666.7,298.4L1666.7,298.4z"/>
</g>
<g>
	<g id="Calque_2_00000113354062725181163500000005340604226979819142_">
		<g id="Calque_2-2_00000129917190191505001680000004957374579505903254_">
			<path class="st0" d="M799.7,115.6c64.1-85,223.1-126,309.5-59.9c62.5,47.2,103.9,189.6,62.4,265.2
				C1057.2,528.8,651.3,333.6,799.7,115.6"/>
		</g>
	</g>
	<g id="Calque_2_00000145049960577857250100000012716954148015419012_">
		<g id="Calque_2-2_00000026874880323565103860000008150769412482525841_">
			<path class="st1" d="M1180.5,200.9c-1.1,103.3-101.4,226.7-206.9,224.9c-76.3-0.8-190.4-88-201.5-170.8
				C741.6,27,1170.6-54.5,1180.5,200.9"/>
		</g>
	</g>
	<path class="st3" d="M1028.8,319.6c-13.6,0-27.8-2.3-41.7-7.1c-2-0.7-3.1-2.9-2.4-4.9c0.7-2,2.9-3.1,4.9-2.4
		c15.8,5.4,32.3,7.6,47.9,6.3c15.6-1.3,29.5-5.9,40.2-13.5c10.6-7.5,13.6-22.2,6.9-33.4l-19.1-31.7c-1.1-1.8-0.5-4.2,1.3-5.3
		s4.2-0.5,5.3,1.3l6.3,10.6l3.7,1.8c2.3,1.1,4.3,0.8,5.7,0.3c1.7-0.6,3.1-1.8,3.8-3.1c1.7-3.6,2.5-8.7,2.5-15.5
		c0-10.4-5.1-14.2-9.8-14.2h-0.1c-3.2,0-6.6,1.8-7.7,4.9l4.3,2.1c1.9,0.9,2.7,3.3,1.8,5.2s-3.3,2.7-5.2,1.8l-17.6-8.6
		c-5.7-2.8-10.8-0.6-13.8,2.3c-2.9,2.9-5.1,8-2.4,13.7l17.2,36.4c0.9,1.9,0.1,4.3-1.9,5.2c-1.9,0.9-4.3,0.1-5.2-1.9l-9.9-21
		c-9.1-4.8-20-6-27.9-6.1L978.5,265c-1.8,1.1-4.2,0.5-5.3-1.3s-0.5-4.2,1.3-5.3l38.3-22.8c5.3-3.2,7.3-9.8,4.7-15.4
		c-2.2-4.5-7-7.3-12-6.8l-6.1,0.6c-1.7,0.2-3.4-0.8-4-2.5c-0.8-2.1-2.9-4.9-6.3-6.4c-2.4-1-4.9-1.2-7.6-0.5c1.5,6.6,1,14.2-2.3,22.2
		l14.2-6.6c1.9-0.9,4.3-0.1,5.2,1.9c0.9,1.9,0.1,4.3-1.9,5.2L965,242.1c-3.5,1.6-6.6,4.2-8.7,7.5c-1.9,2.8-4.1,8.3-4.8,10.2
		c-0.7,2-3,3-5,2.3s-3-3-2.3-5c0.1-0.3,2.8-7.6,5.6-11.8c3-4.4,7.1-8,11.9-10.2l5.8-2.7c7.5-11.1,8.3-20.9,5.7-28.4
		c-4.1,2.8-9.9,4.8-15.1,4.9c-2.1,0-3.9-1.7-4-3.8c0-2.1,1.7-3.9,3.8-4c4.6-0.1,9.1-2.1,11.6-4.1c-1.4-1.9-3.1-3.6-4.9-4.9
		c-1.1-0.8-1.7-2.2-1.5-3.6c0.4-3.2-0.2-5.6-1.7-6.9c-1.6-1.4-4.2-1.7-7.3-0.8c-1.7,0.4-3.4-0.3-4.3-1.8c-1.7-2.9-3.7-5.6-5.9-8.1
		c-1.4-1.6-1.2-4.1,0.4-5.5c1.6-1.4,4.1-1.2,5.5,0.4c1.9,2.2,3.6,4.5,5.2,6.9c4.6-0.6,8.6,0.5,11.6,3.1c3.1,2.7,4.6,6.7,4.5,11.5
		c3.2,2.8,5.9,6.2,7.8,10.1c5.6-1.6,10.2-0.6,13.2,0.7c3.8,1.6,7.1,4.5,9.2,8l3.5-0.3c8.3-0.8,16.2,3.7,19.7,11.2
		c2.9,6.2,2.4,13.1-0.9,18.6c4.8,0.5,10,1.4,15.2,3l-2.3-5c-3.6-7.7-2.1-16.6,4-22.6s15-7.5,22.6-3.7l6.2,3c0.9-2.1,2.3-4,4.1-5.5
		c3-2.5,6.8-3.8,10.8-3.8c8.7,0.1,17.5,6.9,17.5,22c0,8-1.1,14.2-3.3,18.8c-1.5,3.2-4.6,5.8-8.2,7.1c-1.9,0.6-3.8,0.9-5.7,0.8
		l6.5,10.8c8.8,14.7,4.8,33.9-9,43.7C1067.8,314.4,1049,319.6,1028.8,319.6L1028.8,319.6z M988.6,313c-16.9-8.1-47.9-26.2-59.2-40.2
		h-28.2c-35.6,0-64.6-29-64.6-64.6s29-64.6,64.6-64.6c13.4,0,26.3,4.1,37.3,11.8c1.8,1.2,2.2,3.7,0.9,5.4c-1.2,1.8-3.7,2.2-5.4,0.9
		c-9.6-6.8-20.9-10.4-32.8-10.4c-31.3,0-56.8,25.5-56.8,56.8s25.5,56.8,56.8,56.8h30.1c1.2,0,2.3,0.5,3.1,1.5
		c10.8,13.7,41.3,31.6,57.7,39.5c1.9,0.9,2.8,3.2,1.8,5.2c-0.7,1.4-2.1,2.2-3.5,2.2 M910.9,251.1c-10.8,0-19.5-8.8-19.5-19.5
		c0-8.9,7.2-16.1,16.1-16.1c2.1,0,3.9,1.7,3.9,3.9c0,2.1-1.7,3.9-3.9,3.9c-4.6,0-8.4,3.8-8.4,8.4c0,6.5,5.3,11.8,11.8,11.8
		c4.6,0,8.4-3.8,8.4-8.4c0-2.1,1.7-3.9,3.9-3.9c2.1,0,3.9,1.7,3.9,3.9C927,243.8,919.8,251.1,910.9,251.1L910.9,251.1z M932.8,202.4
		c-0.8,0-1.6-0.1-2.3-0.2c-2.1-0.4-3.5-2.4-3.1-4.5s2.4-3.5,4.5-3.1c1.2,0.2,2.4,0,3.5-0.7c1-0.7,1.7-1.7,1.9-2.9
		c0.4-2.1,2.4-3.5,4.5-3.1s3.5,2.4,3.1,4.5c-0.6,3.2-2.5,6.1-5.2,7.9C937.6,201.6,935.2,202.4,932.8,202.4L932.8,202.4z"/>
</g>
<g>
	<path class="st4" d="M195.1,461.9h8.9l-17.4,57.9h-8.1L161,461.9h8.9l12.6,43.5L195.1,461.9z"/>
	<path class="st4" d="M210.7,466.3c0-3,2.6-5.3,5.6-5.3c3.1,0,5.6,2.3,5.6,5.3s-2.5,5.3-5.6,5.3
		C213.3,471.6,210.7,469.3,210.7,466.3z M212.2,519.8v-39.2h8.2v39.2H212.2z"/>
	<path class="st4" d="M229.9,508.1h7.6c0,3.1,2.8,5.8,7.2,5.8c4.5,0,7.3-2.3,7.3-5.2c0-2.6-2.1-3.9-5-4.6l-5.3-1.3
		c-7.3-1.9-10.7-5.7-10.7-11.5c0-6.4,5.8-11.7,13.9-11.7c6.7,0,13.9,3.5,13.9,11.8h-7.9c0-2.9-2.9-4.8-5.9-4.8c-3.4,0-5.8,2.3-5.8,5
		c0,2.4,2.3,3.8,4.7,4.4l6,1.4c8.4,2.1,10.2,7.3,10.2,11.5c0,7.5-7.4,12-15.5,12C237.6,520.8,230.1,516.3,229.9,508.1z"/>
	<path class="st4" d="M300.4,480.6h8.2v39.2h-8.2v-6.6c-2.5,4.5-7.9,7.6-13.9,7.6c-10.2,0-19.1-8.6-19.1-20.7
		c0-11.7,8.3-20.6,19.4-20.6c5.7,0,11.1,2.4,13.6,6.9V480.6z M300.3,500.2c0-7.6-6.3-12.9-12.6-12.9c-6.7,0-12,5.9-12,12.9
		c0,7.1,5.3,12.9,12.2,12.9C294.4,513.1,300.3,507.5,300.3,500.2z"/>
	<path class="st4" d="M351.6,480.6h8.2v33.9c0,18.2-8.4,25.5-21.6,25.5c-7.4,0-14.3-3.9-18-10.8l7-3.4c2.2,4.2,6.7,6.6,11,6.6
		c8.2,0,13.4-4.7,13.4-17.1v-1c-2.7,4.3-8.3,6.7-13.5,6.7c-10.7,0-19.5-8.2-19.5-20.7c0-12.5,8.8-20.6,19.4-20.6
		c5.5,0,10.9,2.4,13.6,6.7V480.6z M351.5,500.1c0-7.9-6.5-12.8-12.5-12.8c-6.7,0-12.2,5.4-12.2,12.8c0,7.3,5.5,13,12.2,13
		C345.6,513.1,351.5,508,351.5,500.1z"/>
	<path class="st4" d="M409.3,503.5h-31.2c1.1,6.4,5.8,9.7,12.1,9.7c4.6,0,8.9-2.1,11.1-5.7l6.6,3.3c-3.4,6.6-10.5,10.1-18,10.1
		c-11.3,0-20.2-8.3-20.2-20.7c0-12.4,9.1-20.5,20.2-20.5s19.7,8.1,19.7,20.4C409.5,501.1,409.4,502.3,409.3,503.5z M401.3,496.9
		c-0.8-6.1-5.3-9.7-11.3-9.7s-10.6,3.1-11.8,9.7H401.3z"/>
</g>
<g>
	<path class="st4" d="M868.2,491c0-16.4,13-30.1,29.4-30.1c9.2,0,17.1,4,22.3,10.4l-6.4,5.1c-3.7-4.5-9.4-7.5-15.8-7.5
		c-11.8,0-20.8,10.1-20.8,22c0,11.8,9,21.8,20.8,21.8c6.4,0,12.1-2.9,15.8-7.5l6.4,5.1c-5.1,6.4-13.1,10.4-22.3,10.4
		C881.2,520.8,868.2,507.4,868.2,491z"/>
	<path class="st4" d="M925.6,500.2c0-12.4,9.4-20.6,20.6-20.6s20.7,8.1,20.7,20.6c0,12.4-9.5,20.7-20.7,20.7
		S925.6,512.6,925.6,500.2z M958.6,500.2c0-7.6-5.7-12.9-12.4-12.9s-12.3,5.3-12.3,12.9c0,7.6,5.6,12.9,12.3,12.9
		S958.6,507.8,958.6,500.2z"/>
	<path class="st4" d="M1002.6,481l-1.4,7.8c-2.2-1-4.2-1.3-5.8-1.3c-7.1,0-10.5,7.6-10.5,18.2v14.1h-8.3v-39.2h8.3v8.8
		c2-6.9,6-9.8,11-9.8C998.6,479.6,1001.3,480.2,1002.6,481z"/>
	<path class="st4" d="M1050.9,500.2c0,12.5-8.8,20.6-19.5,20.6c-5.5,0-11-2.4-13.6-6.8v24.9h-8.2v-58.3h8.2v5.9
		c2.6-4.5,8.3-6.9,13.6-6.9C1042,479.6,1050.9,487.8,1050.9,500.2z M1042.6,500.3c0-7.4-5.4-13-12.2-13c-6.6,0-12.5,5.1-12.5,13
		c0,7.9,6.5,12.8,12.5,12.8C1037.2,513.1,1042.6,507.7,1042.6,500.3z"/>
	<path class="st4" d="M1057.8,508.1h7.6c0,3.1,2.8,5.8,7.2,5.8c4.5,0,7.3-2.3,7.3-5.2c0-2.6-2.1-3.9-5-4.6l-5.3-1.3
		c-7.3-1.9-10.7-5.7-10.7-11.5c0-6.4,5.8-11.7,13.9-11.7c6.7,0,13.9,3.5,13.9,11.8h-7.9c0-2.9-2.9-4.8-5.9-4.8c-3.4,0-5.8,2.3-5.8,5
		c0,2.4,2.3,3.8,4.7,4.4l6,1.4c8.4,2.1,10.2,7.3,10.2,11.5c0,7.5-7.4,12-15.5,12C1065.4,520.8,1058,516.3,1057.8,508.1z"/>
</g>
<g>
	<path class="st4" d="M1654.6,519.8h-8.6l-5.1-42l-17.2,35.6h-7.4l-17.4-35.6l-5.1,42h-8.6l7.1-57.9h7.7l19.9,41.7l19.9-41.7h7.7
		L1654.6,519.8z"/>
	<path class="st4" d="M1695.2,480.6h8.2v39.2h-8.2v-6.6c-2.5,4.5-7.9,7.6-13.9,7.6c-10.2,0-19.1-8.6-19.1-20.7
		c0-11.7,8.3-20.6,19.4-20.6c5.7,0,11.1,2.4,13.6,6.9V480.6z M1695.2,500.2c0-7.6-6.3-12.9-12.6-12.9c-6.7,0-12,5.9-12,12.9
		c0,7.1,5.3,12.9,12.2,12.9C1689.3,513.1,1695.2,507.5,1695.2,500.2z"/>
	<path class="st4" d="M1714.3,466.3c0-3,2.6-5.3,5.6-5.3c3.1,0,5.6,2.3,5.6,5.3s-2.5,5.3-5.6,5.3
		C1716.9,471.6,1714.3,469.3,1714.3,466.3z M1715.8,519.8v-39.2h8.2v39.2H1715.8z"/>
	<path class="st4" d="M1773.1,497.4v22.4h-8.2v-21.9c0-6.4-3.9-10.2-8.9-10.2c-5.1,0-11.3,2.9-11.3,11.1v21.1h-8.2v-39.2h8.2v6
		c2.3-4.9,8.6-7.1,12.8-7.1C1767.3,479.6,1773.2,486.2,1773.1,497.4z"/>
</g>
</svg>
