<?xml version="1.0" encoding="utf-8"?>
<!-- Generator: Adobe Illustrator 25.4.1, SVG Export Plug-In . SVG Version: 6.00 Build 0)  -->
<svg version="1.1" id="Calque_1" xmlns="http://www.w3.org/2000/svg" xmlns:xlink="http://www.w3.org/1999/xlink" x="0px" y="0px"
	 viewBox="0 0 95.4 29.7" style="enable-background:new 0 0 95.4 29.7;" xml:space="preserve">
<style type="text/css">
	.st0{fill:#FFFFFF;}
	.st1{fill:#FF8C38;}
	.st2{fill:#25D265;}
</style>
<g id="logo" transform="translate(0 0)">
	<path id="Fill_6" class="st0" d="M51.7,29.2L51.7,29.2c-0.3,0-0.6,0-0.8-0.1C50.1,29,49.5,28.7,49,28c-1.3-1.9-0.5-6.1,0.6-11.3
		l0.1-0.4c0,0,0.4-2.2,2.3-2.2c0.5,0,0.9,0.2,1.2,0.5c0.4,0.6,0.4,1.4,0.3,2.1c0,0.1-1.2,6.2-1.2,7c-0.1,0.5,0,0.9,0.2,1.4
		c0.2,0.2,0.4,0.3,0.7,0.3c0.5,0,1.1-0.1,1.7-1.2c0.7-1.3,1.3-3.8,1.9-7.7c0.1-0.6,0.2-1.2,0.5-1.7c0.3-0.5,0.8-0.7,1.4-0.7
		c0.1,0,0.2,0,0.3,0c0.4,0,0.9,0.2,1.1,0.6c0.3,0.6,0.4,1.3,0.3,2c-0.1,0.9-0.9,6.8-0.9,7.2c-0.1,0.6,0.1,1.2,0.4,1.6
		c0.3,0.3,0.7,0.4,1,0.4c1.2,0,2.7-1,3.8-2.6c0.2-2.2,0.6-4.4,1.1-6.5c0.7-3.2,2-7.5,4-9.6c0.3-0.3,0.6-0.4,1-0.4
		c0.4,0,0.9,0.2,1.1,0.6c0.4,0.8,0.4,1.8-0.1,2.6c-1.2,2.8-1.9,5.6-2.3,8.6c0,0,0,0,0,0c1.3-1.5,2.9-2.9,4.5-4.1
		c0.5-0.3,1.2-0.5,1.8-0.6c0.5,0,1,0.2,1.3,0.7c0.6,0.9,0.2,1.8-1,2.8c0,0-4.3,3.2-4.8,4c-0.2,0.7-0.2,1.4,0.1,2.1
		c0.3,1,1,1.8,2,2.2c0.4,0.2,0.8,0.3,1.2,0.3c0.9,0,1.8-0.4,2.5-1c0.1,0,0.1-0.1,0.2-0.1c0-1.2,0.2-2.4,0.6-3.6
		c0.7-2.5,2.3-4.7,4.4-6.1c1.2-0.8,2.5-1.2,3.9-1.2c1,0,1.9,0.2,2.8,0.6c0.7,0.4,1.1,0.9,1.1,1.3c0,0.9-0.5,4.5-0.8,6.4
		c-0.1,0.4-0.1,0.7-0.1,0.9c-0.1,0.6-0.2,2.1,0.2,2.6c0.1,0.1,0.2,0.2,0.3,0.2c1.1,0,2.5-1.7,3.1-2.5c0.1-0.1,0.2-0.2,0.2-0.3
		c0.3-0.3,0.7-0.5,1.1-0.5c0.4,0,0.8,0.2,1,0.6c0.3,0.5,0.4,1.1,0.2,1.6c-0.5,1-1.3,1.8-2.2,2.3c-1.7,1.2-2.9,1.8-4,1.8
		c-1.2,0-2.2-0.8-2.8-2.4l0,0c-0.3,0.2-2.6,2.4-4.9,2.4c-1.3,0-2.5-0.7-3.2-1.9c-1.2,1.1-2.7,1.7-4.4,1.8c-2,0-3.8-1.3-5.2-3.9v0
		c0,0.4-0.5,3.9-2.2,3.9c-0.4,0-0.8-0.1-1.1-0.5c-0.4-0.5-0.6-1.2-0.5-1.9l0,0c-1.2,1.5-2.9,2.4-4.8,2.4c-0.2,0-0.4,0-0.6,0
		c-2.1-0.2-2.8-2.7-2.9-2.8c0,0,0,0,0,0c-0.3,0.6-0.7,1.1-1.1,1.5C54.3,28.6,53.1,29.2,51.7,29.2z M86.4,16.8L86.4,16.8
		c-0.9,0-1.8,0.3-2.6,0.8c-1.4,1-2.3,2.5-2.4,4.2c-0.3,1-0.1,2.1,0.4,3.1c0.2,0.2,0.5,0.4,0.8,0.4c0.9-0.2,1.7-0.8,2-1.6
		c1-2.1,1.7-4.3,2-6.6C86.6,17,86.5,16.9,86.4,16.8C86.4,16.9,86.4,16.9,86.4,16.8L86.4,16.8z"/>
	<path id="Fill_9" class="st0" d="M52.2,1.2c-1-0.5-2.2,0-2.7,1c0,0.1,0,0.1-0.1,0.2c-1.3,3.9-2.8,7.7-4.5,11.5
		c-1.7-4.4-4.3-8.5-7.8-11.7c-0.8-0.7-2.1-0.6-2.8,0.2c-0.7,0.8-0.6,2.1,0.2,2.8c0.1,0,6,5.7,8.3,12.6c-4.7,8.3-8,7.9-8.2,7.9
		c-1.2,0-2.5,0.6-2.3,2.4c0.3,1.9,2.7,1.6,2.7,1.6c1-0.1,10-1.7,18.6-25.9C54,2.7,53.3,1.5,52.2,1.2C52.2,1.2,52.2,1.2,52.2,1.2"/>
	<path id="Fill_1" class="st1" d="M23.6,14.6l-8.3-7.9c-1.1-1-2.8-1-3.8,0.1c-0.1,0.1-0.2,0.3-0.3,0.4l-1,1.7l5.3,5
		c0.2,0.2,0.3,0.6,0,0.9c0,0,0,0,0,0c-0.3,0.2-0.7,0.2-0.9,0l-5-4.7l-6,10l2.8,2.7c0.2,0.2,0.3,0.6,0,0.9c0,0,0,0,0,0
		c-0.3,0.2-0.7,0.2-0.9,0l-2.6-2.4l-2.4,4.1c-1.3,2.2,1.2,4.6,3.6,3.4l10.4-5.5l-3.9-3.7c-0.2-0.2-0.3-0.6,0-0.9c0,0,0,0,0,0
		c0.3-0.2,0.7-0.2,0.9,0l4.1,3.9l7.5-4c1.2-0.6,1.7-2,1.1-3.2C23.9,15,23.8,14.8,23.6,14.6"/>
	<path id="Fill_4" class="st2" d="M21.1,9.7L20,8.6l3.1-8c0.2-0.5,0.7-0.7,1.1-0.5s0.7,0.7,0.5,1.1c0,0,0,0,0,0l-2.4,6.1l4.3-1.7
		c0.5-0.2,1,0,1.2,0.5s0,1-0.5,1.2c0,0,0,0,0,0L21.1,9.7z"/>
</g>
</svg>
