<svg version="1.2" baseProfile="tiny-ps" xmlns="http://www.w3.org/2000/svg" viewBox="0 0 1148 172" width="1148" height="172">
	<title>logo</title>
	<style>
		tspan { white-space:pre }
		.s0 { fill: #000000 } 
	</style>
	<g id="logo">
		<g id="&lt;Group&gt;">
			<g id="uc initial">
				<path id="&lt;Compound Path&gt;" class="s0" d="m18.73 125.67c-7.78-7.82-11.66-19.03-11.66-33.62v-56.88h18.72v56.16c0 19.78 8.54 29.66 25.63 29.66c16.99 0 25.49-9.89 25.49-29.66v-56.16h18.43v56.88c0 14.59-3.87 25.8-11.59 33.62c-7.73 7.83-18.55 11.74-32.47 11.74c-13.92 0-24.77-3.91-32.54-11.74z" />
				<path id="&lt;Compound Path&gt;" class="s0" d="m140.62 130.71c-8.21-4.46-14.64-10.63-19.29-18.5c-4.66-7.87-6.98-16.75-6.98-26.64c0-9.89 2.35-18.77 7.06-26.64c4.7-7.87 11.16-14.04 19.37-18.51c8.21-4.46 17.4-6.7 27.58-6.7c8.26 0 15.79 1.44 22.61 4.32c6.82 2.88 12.58 7.06 17.28 12.53l-12.1 11.38c-7.3-7.87-16.27-11.81-26.93-11.81c-6.91 0-13.1 1.51-18.58 4.54c-5.47 3.02-9.74 7.22-12.81 12.6c-3.07 5.38-4.61 11.47-4.61 18.29c0 6.82 1.54 12.91 4.61 18.29c3.07 5.38 7.34 9.58 12.81 12.6c5.47 3.02 11.66 4.54 18.58 4.54c10.66 0 19.63-3.98 26.93-11.95l12.1 11.52c-4.71 5.47-10.49 9.65-17.35 12.53c-6.86 2.88-14.42 4.32-22.68 4.32c-10.18 0-19.37-2.23-27.58-6.7z" />
			</g>
			<g id="unify coding">
				<path id="&lt;Compound Path&gt;" class="s0" d="m269.41 125.73c-7.68-7.72-11.51-18.78-11.51-33.19v-56.14h18.47v55.43c0 19.52 8.43 29.28 25.3 29.28c16.77 0 25.16-9.76 25.16-29.28v-55.43h18.19v56.14c0 14.4-3.82 25.46-11.44 33.19c-7.63 7.72-18.31 11.58-32.05 11.58c-13.74 0-24.45-3.86-32.12-11.58z" />
				<path id="&lt;Compound Path&gt;" class="s0" d="m435.27 67.53c5.78 5.59 8.67 13.88 8.67 24.87v43.49h-17.77v-41.21c0-6.63-1.56-11.63-4.69-14.99c-3.13-3.36-7.58-5.05-13.36-5.05c-6.54 0-11.7 1.97-15.49 5.9c-3.79 3.93-5.68 9.59-5.68 16.98v38.37h-17.77v-75.89h16.91v9.81c2.94-3.5 6.63-6.16 11.09-7.96c4.45-1.8 9.47-2.7 15.06-2.7c9.57 0 17.24 2.79 23.03 8.38z" />
				<path id="&lt;Compound Path&gt;" class="s0" d="m466.53 59.99h17.77v75.89h-17.77v-75.89z" />
				<path id="&lt;Compound Path&gt;" class="s0" d="m527.22 56.02v4.55h20.89v14.21h-20.32v61.11h-17.77v-61.11h-12.51v-14.21h12.51v-4.83c0-8.15 2.37-14.57 7.11-19.26c4.74-4.69 11.42-7.04 20.04-7.04c6.82 0 12.17 1.38 16.06 4.12l-4.97 13.36c-3.03-2.08-6.3-3.13-9.81-3.13c-7.48 0-11.23 4.07-11.23 12.22z" />
				<path id="&lt;Compound Path&gt;" class="s0" d="m632.53 59.99l-35.53 82.01c-3.32 8.24-7.34 14.04-12.08 17.41c-4.74 3.36-10.47 5.04-17.2 5.04c-3.79 0-7.53-0.62-11.23-1.85c-3.7-1.23-6.73-2.94-9.1-5.12l7.11-13.08c1.71 1.61 3.72 2.89 6.04 3.84c2.32 0.95 4.67 1.42 7.04 1.42c3.13 0 5.71-0.8 7.75-2.42c2.04-1.61 3.91-4.31 5.61-8.1l1.28-2.98l-33.12-76.18h18.48l23.88 56.14l24.02-56.14h17.05z" />
				<path id="&lt;Compound Path&gt;" class="s0" d="m663.44 130.7c-8.1-4.41-14.45-10.49-19.04-18.26c-4.6-7.77-6.89-16.53-6.89-26.29c0-9.76 2.32-18.52 6.96-26.29c4.64-7.77 11.02-13.86 19.12-18.26c8.1-4.41 17.17-6.61 27.21-6.61c8.15 0 15.59 1.42 22.31 4.26c6.73 2.84 12.41 6.96 17.05 12.37l-11.94 11.23c-7.2-7.77-16.06-11.65-26.58-11.65c-6.82 0-12.93 1.49-18.33 4.48c-5.4 2.98-9.62 7.13-12.65 12.44c-3.03 5.31-4.55 11.32-4.55 18.05c0 6.73 1.52 12.74 4.55 18.05c3.03 5.31 7.25 9.45 12.65 12.44c5.4 2.98 11.51 4.48 18.33 4.48c10.52 0 19.37-3.93 26.58-11.79l11.94 11.37c-4.64 5.4-10.35 9.52-17.13 12.37c-6.78 2.84-14.24 4.26-22.38 4.26c-10.04 0-19.12-2.2-27.22-6.61z" />
				<path id="&lt;Compound Path&gt;" fill-rule="evenodd" class="s0" d="m756.74 131.91c-6.16-3.32-10.97-7.94-14.43-13.86c-3.46-5.92-5.19-12.63-5.19-20.11c0-7.48 1.73-14.16 5.19-20.04c3.46-5.87 8.27-10.47 14.43-13.79c6.16-3.32 13.08-4.97 20.75-4.97c7.77 0 14.73 1.66 20.89 4.97c6.16 3.32 10.96 7.91 14.43 13.79c3.46 5.88 5.19 12.56 5.19 20.04c0 7.49-1.73 14.19-5.19 20.11c-3.46 5.92-8.27 10.54-14.43 13.86c-6.16 3.32-13.12 4.97-20.89 4.97c-7.67 0-14.59-1.66-20.75-4.97zm36.95-16.77c4.26-4.36 6.4-10.09 6.4-17.2c0-7.11-2.13-12.84-6.4-17.2c-4.26-4.36-9.66-6.54-16.2-6.54c-6.54 0-11.92 2.18-16.13 6.54c-4.22 4.36-6.32 10.09-6.32 17.2c0 7.11 2.11 12.84 6.32 17.2c4.21 4.36 9.59 6.54 16.13 6.54c6.54 0 11.94-2.18 16.2-6.54z" />
				<path id="&lt;Compound Path&gt;" fill-rule="evenodd" class="s0" d="m909.38 30.43v105.46h-17.05v-9.81c-2.94 3.6-6.56 6.3-10.87 8.1c-4.31 1.8-9.07 2.7-14.28 2.7c-7.3 0-13.86-1.61-19.68-4.83c-5.83-3.22-10.4-7.79-13.71-13.71c-3.32-5.92-4.97-12.72-4.97-20.39c0-7.67 1.66-14.45 4.97-20.32c3.32-5.88 7.89-10.42 13.71-13.64c5.83-3.22 12.39-4.83 19.68-4.83c5.02 0 9.62 0.85 13.79 2.56c4.17 1.71 7.72 4.26 10.66 7.67v-38.94h17.77zm-28.57 88.33c3.41-1.94 6.11-4.71 8.1-8.31c1.99-3.6 2.98-7.77 2.98-12.51c0-4.74-1-8.9-2.98-12.51c-1.99-3.6-4.69-6.37-8.1-8.31c-3.41-1.94-7.25-2.91-11.51-2.91c-4.26 0-8.1 0.97-11.51 2.91c-3.41 1.94-6.11 4.71-8.1 8.31c-1.99 3.6-2.98 7.77-2.98 12.51c0 4.74 0.99 8.91 2.98 12.51c1.99 3.6 4.69 6.37 8.1 8.31c3.41 1.94 7.25 2.91 11.51 2.91c4.26 0 8.1-0.97 11.51-2.91z" />
				<path id="&lt;Compound Path&gt;" class="s0" d="m932.69 59.99h17.77v75.89h-17.77v-75.89z" />
				<path id="&lt;Compound Path&gt;" class="s0" d="m1039.85 67.53c5.78 5.59 8.67 13.88 8.67 24.87v43.49h-17.77v-41.21c0-6.63-1.56-11.63-4.69-14.99c-3.13-3.36-7.58-5.05-13.36-5.05c-6.54 0-11.7 1.97-15.49 5.9c-3.79 3.93-5.68 9.59-5.68 16.98v38.37h-17.77v-75.89h16.91v9.81c2.94-3.5 6.63-6.16 11.09-7.96c4.45-1.8 9.47-2.7 15.06-2.7c9.57 0 17.24 2.79 23.03 8.38z" />
				<path id="&lt;Compound Path&gt;" fill-rule="evenodd" class="s0" d="m1147.15 59.99v64.38c0 26.72-13.64 40.08-40.93 40.08c-7.3 0-14.21-0.92-20.75-2.77c-6.54-1.85-11.94-4.53-16.2-8.03l7.96-13.36c3.32 2.75 7.51 4.95 12.58 6.61c5.07 1.66 10.21 2.49 15.42 2.49c8.34 0 14.45-1.9 18.33-5.69c3.88-3.79 5.83-9.57 5.83-17.34v-3.98c-3.04 3.32-6.73 5.83-11.09 7.53c-4.36 1.71-9.14 2.56-14.36 2.56c-7.2 0-13.71-1.54-19.54-4.62c-5.83-3.08-10.42-7.41-13.79-13.01c-3.36-5.59-5.04-11.98-5.04-19.19c0-7.2 1.68-13.57 5.04-19.12c3.36-5.54 7.96-9.83 13.79-12.86c5.83-3.03 12.34-4.55 19.54-4.55c5.49 0 10.49 0.9 14.99 2.7c4.5 1.8 8.27 4.55 11.3 8.24v-10.09h16.91zm-23.95 51.38c4.31-4.03 6.47-9.26 6.47-15.71c0-6.35-2.16-11.51-6.47-15.49c-4.31-3.98-9.83-5.97-16.56-5.97c-6.82 0-12.39 1.99-16.7 5.97c-4.31 3.98-6.47 9.14-6.47 15.49c0 6.44 2.15 11.68 6.47 15.71c4.31 4.03 9.88 6.04 16.7 6.04c6.73 0 12.24-2.01 16.56-6.04z" />
				<g id="&lt;Group&gt;">
					<path id="&lt;Compound Path&gt;" class="s0" d="m447.02 32.35h16.76l15.39 15.62h-12.31l-19.84-15.62z" />
				</g>
				<g id="&lt;Group&gt;">
					<path id="&lt;Compound Path&gt;" class="s0" d="m922.35 33.02h16.76l15.39 15.62h-12.31l-19.84-15.62z" />
				</g>
			</g>
			<g id="&lt;Group&gt;">
				<path id="&lt;Compound Path&gt;" class="s0" d="m205.87 0.61v13.11h-205.2v-13.11h205.2z" />
			</g>
			<g id="&lt;Group&gt;">
				<path id="&lt;Compound Path&gt;" class="s0" d="m205.87 158.61v13.11h-205.2v-13.11h205.2z" />
			</g>
		</g>
	</g>
</svg>