<svg xmlns="http://www.w3.org/2000/svg" viewBox="0 0 164.04 72.85"><defs><style>.cls-1{fill:#6ec0b1;}</style></defs><title>crueltyfree</title><g id="Calque_2" data-name="Calque 2"><g id="Calque_1-2" data-name="Calque 1"><path class="cls-1" d="M65.11,40.05a.44.44,0,0,0-.49-.38,3.28,3.28,0,0,1-3,1.62,4.43,4.43,0,0,1-4.33-4.61c0-2.85,1.83-4.33,3.71-4.33a3.68,3.68,0,0,1,2.7,1.43.46.46,0,0,0,.37.18c.33,0,.6-.51.6-1a1.51,1.51,0,0,0-.41-1.08,6.82,6.82,0,0,0-2.4-.46c-4.47,0-6.51,3.1-6.51,6a5.35,5.35,0,0,0,1.56,4,5.2,5.2,0,0,0,3.69,1.38A4.93,4.93,0,0,0,65.11,40.05Z"/><path class="cls-1" d="M68.8,42.42c.94,0,1.72,0,3,.08a.47.47,0,0,0,.06-.67l-1-.08c-1-.08-1.08-.41-1.08-2.35V35.74a4.09,4.09,0,0,1,.35-2.07,1.2,1.2,0,0,1,1-.54,2.22,2.22,0,0,1,1.19.43,1,1,0,0,0,.59.19,1.2,1.2,0,0,0,1.16-1.24,1.12,1.12,0,0,0-1.21-1.08c-1,0-2,.84-3,1.62-.05,0-.08-.11-.08-.24V31.24c0-.1-.08-.16-.21-.18a22.45,22.45,0,0,1-2.72,1.32.35.35,0,0,0,0,.48l.24.16c.73.49.73.62.73,1.67V39.4c0,1.94,0,2.18-1,2.35l-.51.08a.47.47,0,0,0,.06.67C67,42.45,67.83,42.42,68.8,42.42Z"/><path class="cls-1" d="M75.79,32.64c.81.35.81.6.81,2.29v4.5c0,2.18.89,3.37,3.26,3.37a7,7,0,0,0,3.71-1.4c.17,0,.25.13.25.37v1.11a.37.37,0,0,0,.32.19,13.79,13.79,0,0,1,3.53-1c.21-.11.19-.65,0-.78a5,5,0,0,1-1,.13c-.75,0-.83-.81-.83-2.93V34c0-1,0-1.83.08-2.34,0-.11-.11-.16-.24-.19a10.9,10.9,0,0,1-3.15.49.36.36,0,0,0,0,.59l.35.13c.81.33,1,.38,1,2.13v4.42a1.87,1.87,0,0,1-.54,1.56,3.54,3.54,0,0,1-2.18.81c-2,0-2.51-1.24-2.51-3.1V34a21.31,21.31,0,0,1,.08-2.34c0-.11-.1-.16-.27-.19a9.42,9.42,0,0,1-2.88.49.4.4,0,0,0,0,.59Z"/><path class="cls-1" d="M94.08,42.8a4.71,4.71,0,0,0,4.22-2.51.35.35,0,0,0-.48-.32,2.91,2.91,0,0,1-2.48,1.32c-2.88,0-4.47-2.32-4.47-5,0-.67,0-.72.73-.72h5c1.13,0,1.51,0,1.59-.19a1.75,1.75,0,0,0,.11-.7c0-1.62-1.51-3.21-3.83-3.21-3.23,0-5.41,2.78-5.41,6.09A5.71,5.71,0,0,0,90.17,41,4.83,4.83,0,0,0,94.08,42.8Zm.08-10.56c1.56,0,2.07.94,2.07,1.7,0,.35-.08.46-.16.51s-.81.27-2.8.27H91.36c-.19,0-.19-.08-.19-.14A3.15,3.15,0,0,1,94.16,32.24Z"/><path class="cls-1" d="M102.13,42.42c.94,0,1.72,0,2.61.08a.46.46,0,0,0,.05-.67l-.64-.08c-1-.14-1-.41-1-2.35V26.67c0-1.19.06-2.53.08-3.34a.28.28,0,0,0-.26-.16A19.94,19.94,0,0,1,100,24.3a.4.4,0,0,0,0,.54l.27.16c.8.48.83.64.83,2.23V39.4c0,1.94,0,2.21-1,2.35l-.62.08a.46.46,0,0,0,.05.67C100.35,42.45,101.16,42.42,102.13,42.42Z"/><path class="cls-1" d="M107.22,32.94c.54,0,.56.05.56.78v6.17c0,1.61.49,2.91,2.8,2.91a3.73,3.73,0,0,0,2.83-1.24c.06-.16,0-.46-.27-.46s-.43.3-.67.38a2.11,2.11,0,0,1-.73.13c-1.78,0-2-1.42-2-3v-5c0-.57,0-.65.49-.65h3a.85.85,0,0,0,0-1.13h-3c-.46,0-.49,0-.49-.51V30.09c-.11-.19-.43-.19-.56-.14a6.6,6.6,0,0,1-1.13,1.59,5.62,5.62,0,0,1-1.73.84.44.44,0,0,0,.08.56Z"/><path class="cls-1" d="M125.45,32.48l.46-.08a.45.45,0,0,0-.06-.67c-.75.05-1.37.08-2,.08s-1.5,0-2.36-.08c-.22.08-.25.54-.06.67l.84.14c.48.08.64.27.64.45a12.52,12.52,0,0,1-.94,2.7L121,37.81a13.31,13.31,0,0,1-1,2,14.92,14.92,0,0,1-.78-1.91l-.86-2.48a19.25,19.25,0,0,1-.78-2.53c0-.19.21-.27.59-.35l.67-.14c.19-.13.16-.59,0-.67-.87.05-1.62.08-2.35.08-.89,0-1.69,0-2.56-.08-.21.08-.24.54-.08.67l.68.14c.94.19,1.13.83,1.59,2.1l2.1,5.76a5.08,5.08,0,0,1,.45,1.86,4.16,4.16,0,0,1-.26,1.16,17.75,17.75,0,0,1-1.57,3,1,1,0,0,1-.89.48h-.51A1,1,0,0,0,114.33,48a1.08,1.08,0,0,0,1.18,1.16,1.79,1.79,0,0,0,1.72-1.27c1.32-2.94,3.53-7.62,4.42-9.43l1.51-3.09C124.08,33.43,124.56,32.64,125.45,32.48Z"/><path class="cls-1" d="M131.26,31.81c-.56,0-.59,0-.59-.86v-.81c0-4,.73-5.87,1.65-5.87.64,0,1.23.54,2.09,1.78a.91.91,0,0,0,.79.37,1.33,1.33,0,0,0,1.32-1.29c0-1.13-1.22-2-3.07-2a5.23,5.23,0,0,0-5,3.77,12,12,0,0,0-.57,3.85v.48a.63.63,0,0,1-.37.59l-1.16.6a.39.39,0,0,0,.08.62h1c.46,0,.48.08.48.8v5.34c0,2-.1,2.28-1,2.42l-.59.08a.58.58,0,0,0,0,.78c1.11,0,2-.08,2.91-.08,1.27,0,2.32,0,3.53.08a.58.58,0,0,0,.05-.78l-1.05-.11c-.94-.11-1.05-.4-1.05-2.39V33.91c0-.78,0-.83.57-.83h2.64a.91.91,0,0,0,.37-.84.52.52,0,0,0-.16-.43Z"/><path class="cls-1" d="M140.85,42.5c.22-.11.24-.59.05-.78l-1.05-.11c-.94-.11-1-.4-1-2.39V35.53c0-1.32.16-1.94.78-1.94a2.43,2.43,0,0,1,1.29.51,1.38,1.38,0,0,0,.72.21,1.48,1.48,0,0,0,1.51-1.56,1.35,1.35,0,0,0-1.48-1.32c-.91,0-1.8.81-2.64,1.4a.28.28,0,0,1-.27-.32c0-.24,0-.7.06-1.21a.39.39,0,0,0-.38-.24A19.72,19.72,0,0,1,135,32.51a.71.71,0,0,0,0,.62l.32.19c.68.4.68.73.68,1.94v4c0,2-.11,2.28-1,2.42l-.48.08a.58.58,0,0,0,.05.78c1,0,1.92-.08,2.8-.08S139.23,42.45,140.85,42.5Z"/><path class="cls-1" d="M148.48,42.8a4.86,4.86,0,0,0,4.55-3,.52.52,0,0,0-.59-.44,2.79,2.79,0,0,1-2.59,1.35,4.11,4.11,0,0,1-4.06-4.36c0-.33.05-.35.56-.35H151c1.08,0,1.7-.11,1.86-.35a1.22,1.22,0,0,0,.13-.62,3.79,3.79,0,0,0-4-3.64,5.69,5.69,0,0,0-5.68,6A5.09,5.09,0,0,0,148.48,42.8Zm.16-10.34a1.66,1.66,0,0,1,1.78,1.75.68.68,0,0,1-.27.56,2.8,2.8,0,0,1-1.32.19h-2.45c-.33,0-.38-.08-.38-.19A2.76,2.76,0,0,1,148.64,32.46Z"/><path class="cls-1" d="M163.45,39.4a2.79,2.79,0,0,1-2.59,1.35,4.12,4.12,0,0,1-4.06-4.36c0-.33,0-.35.56-.35H162c1.08,0,1.7-.11,1.86-.35a1.23,1.23,0,0,0,.14-.62,3.79,3.79,0,0,0-4-3.64,5.7,5.7,0,0,0-5.69,6,5.09,5.09,0,0,0,5.2,5.39,4.85,4.85,0,0,0,4.55-3A.51.51,0,0,0,163.45,39.4Zm-3.8-6.94a1.66,1.66,0,0,1,1.78,1.75.68.68,0,0,1-.27.56,2.8,2.8,0,0,1-1.32.19h-2.45c-.32,0-.38-.08-.38-.19A2.77,2.77,0,0,1,159.65,32.46Z"/><path class="cls-1" d="M71.74,64.26a2.47,2.47,0,0,1-.91.3c-1,0-1.38-.81-1.3-2.37l.19-4.2c.11-2.37-1.21-3.37-3.34-3.37a7.37,7.37,0,0,0-4.14,1.7c-.89.83-1.05,1.4-1.05,1.72s.16.43.51.43A3.74,3.74,0,0,0,63.42,58a1.14,1.14,0,0,0,.51-1,1.33,1.33,0,0,1,1.43-1.19c1.32,0,1.7,1.19,1.64,2.56l0,.7c0,.27-.09.51-.62.7-1,.38-2,.76-3,1.08-1.85.65-2.23,1.53-2.23,2.5A2.55,2.55,0,0,0,63.91,66a4.36,4.36,0,0,0,2.28-.7c.41-.25.6-.38.73-.38s.24.13.43.32a2.57,2.57,0,0,0,1.94.76A3.67,3.67,0,0,0,72,64.8C72.06,64.56,71.88,64.26,71.74,64.26Zm-4.9-1.05a1.19,1.19,0,0,1-1.29,1.29A1.51,1.51,0,0,1,64,62.94a1.77,1.77,0,0,1,1.45-1.8,4.44,4.44,0,0,1,1.19-.33c.13,0,.21.17.21.46Z"/><path class="cls-1" d="M85,64.83c-.91-.14-1-.43-1-2.43V58.23c0-2.1-1-3.61-3.2-3.61-1.67,0-2.43.65-3.69,1.35-.17,0-.25-.08-.25-.27a10.85,10.85,0,0,1,.06-1.24.37.37,0,0,0-.35-.21A18.5,18.5,0,0,1,73,55.7a.71.71,0,0,0,0,.62l.32.19c.68.4.68.72.68,1.93v4c0,2-.11,2.29-1,2.43l-.59.08a.58.58,0,0,0,0,.78c1.14,0,2-.08,2.91-.08s1.92,0,2.86.08a.58.58,0,0,0,0-.78l-.4,0c-.92-.17-1-.46-1-2.46V58.8c0-1,0-1.24.38-1.73A2.21,2.21,0,0,1,79,56.24c1.61,0,2.15,1.07,2.15,2.45V62.4c0,2-.11,2.29-1,2.46l-.4,0c-.19.19-.17.67,0,.78.94,0,1.86-.08,2.75-.08s1.91,0,3,.08a.58.58,0,0,0,0-.78Z"/><path class="cls-1" d="M98.46,64.5c-.46,0-.65-.83-.65-3.28V50.47c0-1.15,0-2.82.08-3.9a.38.38,0,0,0-.38-.22c-1.08.44-2.47,1-3.53,1.3-.18.08-.16.51,0,.62l.38.24c.59.35.62.54.62,2.34v3.53c0,.3,0,.4-.16.43a5.33,5.33,0,0,0-1.56-.19,6.17,6.17,0,0,0-6.46,6.19,5,5,0,0,0,5,5.18,5.13,5.13,0,0,0,3.09-1.22l.14,0a2.24,2.24,0,0,1,0,.76L95,66a.47.47,0,0,0,.32.3,17.05,17.05,0,0,1,4.26-1c.29-.16.24-.81,0-1A3.37,3.37,0,0,1,98.46,64.5ZM95,63a1.06,1.06,0,0,1-.19.76,2.56,2.56,0,0,1-1.59.59c-1.91,0-3.36-1.83-3.36-4.6,0-2.27,1.16-4.07,3-4.07a2.16,2.16,0,0,1,1.8.92A2,2,0,0,1,95,57.91Z"/><path class="cls-1" d="M109.68,55c-.51,0-1.18,0-2-.08a.5.5,0,0,0,0,.67l.62.08c.32.06.48.16.48.4a5.87,5.87,0,0,1-.48,1.68c-.27.69-1.19,3-1.53,4a3.28,3.28,0,0,1-.52,1,4.59,4.59,0,0,1-.43-.86c-.62-1.4-1.4-3.29-2-5.15-.27-.81-.24-.94.6-1.07l.32-.06a.47.47,0,0,0,0-.67c-.91,0-1.45.08-2.18.08-.92,0-1.86,0-2.53-.08-.22.08-.24.46-.08.67l.54.08c1,.14,1.21,1,1.61,2l2.26,5.47c.41,1,.81,2.05,1,2.8a.49.49,0,0,0,.35.11.32.32,0,0,0,.27-.11c.35-.91.62-1.53.89-2.21.43-1.1,2.1-5,2.47-5.73.78-1.51,1-2.21,2-2.34l.4-.06a.49.49,0,0,0-.05-.67C110.82,55,110.36,55,109.68,55Z"/><path class="cls-1" d="M121,63.16a2.9,2.9,0,0,1-2.48,1.32c-2.88,0-4.47-2.32-4.47-5,0-.67,0-.72.73-.72h5c1.13,0,1.51,0,1.59-.19a1.59,1.59,0,0,0,.11-.7c0-1.62-1.51-3.21-3.83-3.21-3.23,0-5.41,2.78-5.41,6.09a5.71,5.71,0,0,0,1.13,3.5A4.85,4.85,0,0,0,117.23,66a4.72,4.72,0,0,0,4.23-2.51A.36.36,0,0,0,121,63.16Zm-3.66-7.73c1.56,0,2.07.94,2.07,1.7,0,.35-.08.45-.16.51s-.81.27-2.8.27h-1.91c-.19,0-.19-.08-.19-.14A3.16,3.16,0,0,1,117.31,55.43Z"/><path class="cls-1" d="M133.92,55.59h-2.18a3.18,3.18,0,0,1-1.64-.43,6.71,6.71,0,0,0-2.59-.54,4.2,4.2,0,0,0-4.38,4.07,3.67,3.67,0,0,0,2,3.26,1.08,1.08,0,0,1-.26.51,8.79,8.79,0,0,1-1.43,1.24c-.3.21-.41.32-.41.45a2.5,2.5,0,0,0,2,2.13c.24.17,0,.41-.22.65-.62.62-1.37,1.32-1.83,1.8a1.53,1.53,0,0,0-.29,1c0,1.35,1.16,3.12,4.47,3.12,3.5,0,6.7-2.15,6.7-5.09,0-2.69-2.26-3-3.77-3-1.18,0-2.29.08-3.2.08-1.27,0-1.89-.51-1.89-1.13,0-.78.86-1.29,1.19-1.48a11.33,11.33,0,0,0,1.18.08,4.14,4.14,0,0,0,4.53-4.28,10.62,10.62,0,0,0-.06-1.38h1.94C134.16,56.64,134.22,55.73,133.92,55.59ZM126,66.77a5.78,5.78,0,0,1,2.31-.3h.92c1.94,0,3.07.7,3.07,2.34s-1.59,2.89-4,2.89-3.6-1.22-3.6-2.67A2.74,2.74,0,0,1,126,66.77Zm1.78-5.2c-1.3,0-2.45-1.24-2.45-3.15s1-3,2.26-3c1.64,0,2.39,1.54,2.39,3.37C130,60.41,129.21,61.57,127.76,61.57Z"/><path class="cls-1" d="M144.83,64.45c-.08,0-.22.11-.35.19a1.54,1.54,0,0,1-.67.16c-1.05,0-1.3-1.1-1.24-2.34l.16-4.69c.08-2-.86-3.15-2.8-3.15s-5,1.91-5,3.31a.34.34,0,0,0,.38.38,2.91,2.91,0,0,0,1.53-.51c.22-.16.24-.49.27-.92.05-.83,1-1.21,1.73-1.21,1.66,0,2,1.35,2,2.35l0,1.23c0,.41,0,.65-.45.78l-3.21,1.16c-1.72.62-2.23,1.24-2.23,2.29a2.53,2.53,0,0,0,.83,1.89,2.81,2.81,0,0,0,1.89.62,4,4,0,0,0,1.94-.68,4.21,4.21,0,0,1,1.05-.54c.16,0,.32.22.43.38a2.15,2.15,0,0,0,1.75.84A2.8,2.8,0,0,0,145,64.8C145,64.61,144.94,64.45,144.83,64.45Zm-4.2-1.61a1.59,1.59,0,0,1-.35,1.26,3.06,3.06,0,0,1-1.64.67,1.62,1.62,0,0,1-1.7-1.61c0-1,.78-1.46,2.37-2a4.57,4.57,0,0,1,1.1-.27c.17,0,.27.05.27.35Z"/><path class="cls-1" d="M157.68,64.94c-1-.14-1-.41-1-2.35V58c0-1.8-.91-3.34-3.15-3.34A7.31,7.31,0,0,0,149.73,56a.29.29,0,0,1-.3-.3,12.19,12.19,0,0,1,.06-1.27.32.32,0,0,0-.3-.18,14.53,14.53,0,0,1-2.69,1.31.37.37,0,0,0,0,.49l.24.16c.73.48.73.62.73,1.67v4.71c0,1.94,0,2.21-1,2.35l-.57.08a.47.47,0,0,0,.06.67c.75,0,1.56-.08,2.53-.08s1.72,0,2.45.08a.46.46,0,0,0,.05-.67l-.48-.08c-1-.17-1-.41-1-2.35V58.47a2.24,2.24,0,0,1,.41-1.61,2.94,2.94,0,0,1,2.29-1c1.83,0,2.53,1.14,2.53,2.67v4c0,1.94,0,2.18-1,2.35l-.52.08a.47.47,0,0,0,.06.67c.72,0,1.53-.08,2.5-.08s1.73,0,2.53.08a.47.47,0,0,0,.06-.67Z"/><path class="cls-1" d="M52.94,65c-.75-1.21-2.48-1.78-3.75-2.21a19.14,19.14,0,0,0-2.78-.69,6.48,6.48,0,0,0,0-1.81c-.39-2.79-2.83-3.64-4.5-5.63-1.87-2.22-2.76-5.1-5.51-6.56a10.28,10.28,0,0,0-4.93-.88c6.84-5.93,13.55-12.06,20-18.4,5.1-5,9.48-10.24,9.75-17.81A11,11,0,0,0,50.19,0C39.31.39,34,13.41,30.89,22.25a1,1,0,0,0,0-.3C27.87,13.32,22,.48,11.07.09A10.94,10.94,0,0,0,0,11.1c.27,7.57,4.65,12.82,9.75,17.81,6.47,6.34,13.18,12.47,20,18.41-4.22.63-6.24,1.89-9.15,5.7-1.76,2.3-4.9,4.34-5.35,7.37a6.53,6.53,0,0,0,.06,2.11c-.56.13-1.11.28-1.65.46-1.27.42-3,1-3.75,2.2-.09.15.06.58,0,.65.84-1.35,2.94-2,4.36-2.38.38-.11.77-.18,1.16-.27A9.93,9.93,0,0,0,16.17,65a19,19,0,0,0-1.9.85c-1.18.61-2.84,1.45-3.39,2.76-.07.18.06.56,0,.65.61-1.45,2.59-2.38,3.92-3,.54-.25,1.09-.47,1.64-.68a12.32,12.32,0,0,0,4,4.44,6.3,6.3,0,0,0,6.77-.07c.68-.39,3-3.18,3.53-3.19s2.93,2.55,3.59,2.92c2,1.11,4.26,1.7,6.43.67a10.77,10.77,0,0,0,4.55-4.91,21.13,21.13,0,0,1,2.11.85c1.33.63,3.31,1.56,3.92,3,0-.1.09-.47,0-.65-.56-1.32-2.2-2.15-3.39-2.77a21.71,21.71,0,0,0-2.39-1,10.94,10.94,0,0,0,.66-2.06,19.26,19.26,0,0,1,2.25.51c1.42.42,3.53,1,4.37,2.38C52.87,65.6,53,65.17,52.94,65ZM1.63,17c-2-5-1.82-9.68,2.41-13A10.22,10.22,0,0,1,15.09,2.37c8.68,3.87,12.66,12,15.62,20.41l-.3.86c-.11.33.1,1,0,1.16,3-8.83,6.61-18.33,15.73-22.51A10.05,10.05,0,0,1,56.84,3.55c4.51,3.35,4.83,8.05,2.8,13.33C57.28,23,51.93,27.3,47.29,31.68c-5.46,5.16-11,10.23-16.7,15.14C24.94,41.94,19.41,36.89,14,31.76,9.32,27.35,4,23.08,1.63,17ZM45.17,64.67a25.89,25.89,0,0,0-5.53-1.15s-.07.66,0,.67a26.34,26.34,0,0,1,5.21,1.07c-1.71,2.74-5,4.84-7.87,4.25a10.84,10.84,0,0,1-4.35-2.28c-.15-.12-1-1-1.46-1.46.51-.48.57-2,.57-2.47.33-.2,1.69-1.06,1.81-1.85a.7.7,0,0,0-.19-.6.51.51,0,0,0-.37-.16h0c-.67,0-1.77,1-2.12,1.36-.31-.31-1.31-1.24-2.05-1.2a.67.67,0,0,0-.53.25.63.63,0,0,0-.14.54c.13.72,1.44,1.5,1.76,1.68a5.08,5.08,0,0,0,.59,2.44c-.4.41-1,1.24-1.17,1.4a9.2,9.2,0,0,1-4.71,2.56c-2.87.41-5.92-1.68-7.56-4.36a25.58,25.58,0,0,1,5.62-1.2c.07,0,0-.67,0-.67a26,26,0,0,0-5.94,1.29A8.38,8.38,0,0,1,16.06,63a25.07,25.07,0,0,1,6.3-.42,1.56,1.56,0,0,0,0-.68,25.26,25.26,0,0,0-6.44.44,4.94,4.94,0,0,1,1.21-4.21c2.42-2.6,4.51-6,7.33-8.07,2-1.5,3.61-1.34,5.9-1.64,3.26.05,5.81.14,8.21,2.65,1.56,1.62,2.36,3.83,3.88,5.45.77.83,2,1.3,2.7,2.22A4.62,4.62,0,0,1,46,62a26.44,26.44,0,0,0-5.48-.27,1.56,1.56,0,0,0,0,.68,26.17,26.17,0,0,1,5.38.27A7.34,7.34,0,0,1,45.17,64.67Z"/><path class="cls-1" d="M25.91,53.2c-.52,0-.93.84-.93,1.92s.41,1.91.93,1.91.93-.84.93-1.91S26.43,53.2,25.91,53.2Z"/><path class="cls-1" d="M35,53.21c-.52,0-.93.84-.93,1.91S34.46,57,35,57s.93-.84.93-1.92S35.5,53.21,35,53.21Z"/><path class="cls-1" d="M30.8,42.93c2.73,0,34.28-28.17,24.42-36.22C42.67-3.54,30.39,32.82,30.39,32.82S20.19-2.85,5.32,7.75C-3.83,13.73,28.09,42.93,30.8,42.93Z"/></g></g></svg>