<svg xmlns="http://www.w3.org/2000/svg" viewBox="0 0 151.22 77.31"><defs><style>.cls-1{fill:#6cbeaf;}</style></defs><title>dermatest</title><g id="Calque_2" data-name="Calque 2"><g id="Calque_2-2" data-name="Calque 2"><g id="Layer_2" data-name="Layer 2"><g id="Ebene_1" data-name="Ebene 1"><path class="cls-1" d="M14.66,24.28c1.78,1.38,3.66,1.26,5.07-.58S20.78,20,19,18.65s-3.64-1.28-5.08.58S12.86,22.89,14.66,24.28Zm.37-4.2c.7-.91,1.8-.63,2.78.11s1.51,1.75.81,2.66-1.85.6-2.77-.11S14.33,21,15,20.08Z"/><path class="cls-1" d="M23.78,19.49l-1.64-2.26.31-.24c.57-.41.95-.31,2,.46l1.08.79,1.58-1.16-1.69-1.15c-.79-.49-1.14-.9-1.73-.68h0A1.66,1.66,0,0,0,23.71,13c-.72-1-1.89-.85-2.9-.11l-2.73,2,4.18,5.72Zm-2.43-3.35-1-1.3.41-.29c.58-.42,1.19-.71,1.58-.18s-.14,1.12-.64,1.48Z"/><rect class="cls-1" x="26.74" y="9.46" width="1.89" height="7.09" transform="translate(-2.89 12.14) rotate(-23.54)"/><path class="cls-1" d="M34.9,14.81A10.46,10.46,0,0,0,37.53,14l-.73-3.87-2.89.55L34.17,12l1.08-.21.26,1.38a1.72,1.72,0,0,1-.63.24,2.16,2.16,0,0,1-2.74-1.75C31.82,10,33,9.15,34.45,8.87A3.47,3.47,0,0,1,36.23,9L36.1,7.44a6.86,6.86,0,0,0-2.17.1C31.38,8,29.72,9.38,30.22,12S33.05,15.16,34.9,14.81Z"/><rect class="cls-1" x="36.48" y="9.78" width="7.09" height="1.89" transform="translate(27.76 50.31) rotate(-87.78)"/><polygon class="cls-1" points="45.29 10.27 45.31 10.27 46.3 15.62 48.55 16.3 50.57 9.5 48.92 9.01 47.57 13.63 47.55 13.63 46.63 8.32 44.33 7.64 42.3 14.43 43.96 14.93 45.29 10.27"/><path class="cls-1" d="M50.92,17.64l1.32-.93,2.19,1.52L54,19.78,55.69,21l1.81-7.38-1.89-1.32-6.27,4.28Zm4.78-3.53h0l-.89,2.76-1.45-1Z"/><polygon class="cls-1" points="59.13 25.42 60.23 24.55 58.4 22.26 62.83 18.71 61.65 17.23 56.13 21.66 59.13 25.42"/><path class="cls-1" d="M20.37,53.06l-2.69,2v0a2.09,2.09,0,0,0-.42-1.89c-1.1-1.45-2.65-1.1-3.94-.11s-2.07,2.41-1,3.85a2.19,2.19,0,0,0,1.73,1l0,0-.53.4.9,1.18,6.84-5.2Zm-4.49,3.4c-.66.51-1.72.9-2.34.09s.09-1.7.74-2.2,1.66-.92,2.26-.12S16.54,56,15.88,56.46Z"/><path class="cls-1" d="M21.73,62.78c1.32-1.57,1.8-3.13.12-4.53-1.41-1.17-3-.67-4.1.65a2.8,2.8,0,0,0,.41,4.32,4.12,4.12,0,0,0,1.87,1l.79-1a4.07,4.07,0,0,1-1.89-.79,1.53,1.53,0,0,1-.34-2.21Zm-.53-3.61A1.27,1.27,0,0,1,21.28,61l-2-1.69A1.34,1.34,0,0,1,21.2,59.17Z"/><path class="cls-1" d="M24.15,64.55c.4-.75,1.12-2.13,2.23-1.54a1.55,1.55,0,0,1,.55.43l.72-1.37a1.66,1.66,0,0,0-.39-.26,1.8,1.8,0,0,0-2.12.56h0l.63-1.19-1.21-.63L21.8,65.76l1.36.71Z"/><path class="cls-1" d="M33.91,69.82l1.49.33.82-3.63c.29-1.29.11-2.35-1.31-2.67a2,2,0,0,0-2,.63,1.73,1.73,0,0,0-1.47-1.4,2.06,2.06,0,0,0-1.92.55h0l.18-.8-1.39-.32L27,68.27l1.5.34.63-2.8c.17-.75.56-1.89,1.55-1.68s.7,1,.58,1.49l-.78,3.44,1.5.33.63-2.8c.17-.74.56-1.89,1.56-1.68s.69,1,.56,1.49Z"/><path class="cls-1" d="M38.1,67.21a1.75,1.75,0,0,0-1,1.73,1.89,1.89,0,0,0,2.13,1.67,2.09,2.09,0,0,0,1.78-1.08h0a6.78,6.78,0,0,0,.1.88l1.35-.06c0-.45-.09-.86-.12-1.31s-.06-.88-.08-1.48l0-.76c-.07-1.74-.84-2.46-2.64-2.39a5.36,5.36,0,0,0-2,.53l.1,1.31a3.13,3.13,0,0,1,1.8-.71c.9,0,1.34.27,1.38,1.22l-.85,0A4.61,4.61,0,0,0,38.1,67.21Zm2.84.47a2,2,0,0,1-.27,1.23,1.29,1.29,0,0,1-1.06.56c-.55,0-1-.18-1-.68,0-.9,1-1.06,1.67-1.08Z"/><path class="cls-1" d="M43.22,65.52l1.1-.28.76,2.9a1.75,1.75,0,0,0,2.29,1.39,4.45,4.45,0,0,0,1.06-.43l-.35-1.16a1.32,1.32,0,0,1-.63.33c-.56.15-.82-.27-.94-.76l-.7-2.66,1.32-.35-.28-1.08-1.33.35-.42-1.62L43.74,63l.3,1.14-1.1.29Z"/><path class="cls-1" d="M52.87,67.31a4.16,4.16,0,0,0,1.57-1.37l-.59-1.11a3.88,3.88,0,0,1-1.44,1.46,1.55,1.55,0,0,1-2.19-.51l3.59-1.94C52.83,62,51.58,61,49.65,62c-1.62.87-1.75,2.54-.95,4A2.81,2.81,0,0,0,52.87,67.31ZM50.25,63a1.26,1.26,0,0,1,1.76.63l-2.3,1.24A1.33,1.33,0,0,1,50.25,63Z"/><path class="cls-1" d="M55,59.67a3.67,3.67,0,0,1,1.19-.74L55.51,58a6.73,6.73,0,0,0-1.38.94c-.89.81-1.34,2-.48,2.92,1.43,1.58,2.88-.8,3.66.05.38.43,0,.95-.26,1.22a3.6,3.6,0,0,1-1.38.73l.78,1a7.15,7.15,0,0,0,1.45-1c.93-.84,1.47-2.07.54-3.09-1.43-1.57-3,.66-3.64,0C54.46,60.39,54.73,60,55,59.67Z"/><path class="cls-1" d="M62.11,57.59c-.36.46-.82.29-1.22,0L58.7,55.93l.82-1.09-.89-.68-.83,1.09-1.33-1-.54,1.53,1,.71-.67.89.89.67.68-.9L60.18,59a1.73,1.73,0,0,0,2.65-.34,3.79,3.79,0,0,0,.58-1l-1-.69A1.44,1.44,0,0,1,62.11,57.59Z"/><path class="cls-1" d="M59.22,53.17a1.31,1.31,0,1,0-.49-1.79h0A1.32,1.32,0,0,0,59.22,53.17ZM59,51.53a1,1,0,1,1,.5,1.35l-.08,0A.93.93,0,0,1,59,51.58Z"/><path class="cls-1" d="M60.39,52.58l-.54-.32.08-.13h.71l.15-.28-.73,0a.37.37,0,0,0-.1-.5l-.05,0c-.28-.16-.48,0-.66.28l-.28.48,1.27.72Zm-.61-.65-.13.22L59.33,52l.11-.19c.06-.11.16-.23.29-.16S59.85,51.8,59.78,51.93Z"/><path class="cls-1" d="M21.48,27l.67.45a20,20,0,0,1,33.24.26l.67-.44A20.8,20.8,0,0,0,21.48,27Z"/><path class="cls-1" d="M56.19,49.86l-.68-.44a20,20,0,0,1-33.68,0l-.66.45a20.8,20.8,0,0,0,35,0Z"/><polygon class="cls-1" points="122.93 34.88 126.24 32.61 129.54 34.88 128.4 31.04 131.58 28.6 127.57 28.5 126.24 24.72 124.9 28.5 120.89 28.6 124.08 31.04 122.93 34.88"/><polygon class="cls-1" points="135.39 34.88 138.7 32.61 142 34.88 140.86 31.04 144.04 28.6 140.03 28.5 138.7 24.72 137.36 28.5 133.35 28.6 136.53 31.04 135.39 34.88"/><polygon class="cls-1" points="110.48 34.88 113.78 32.61 117.08 34.88 115.94 31.04 119.12 28.6 115.11 28.5 113.78 24.72 112.44 28.5 108.43 28.6 111.62 31.04 110.48 34.88"/><polygon class="cls-1" points="98.02 34.88 101.32 32.61 104.62 34.88 103.48 31.04 106.66 28.6 102.65 28.5 101.32 24.72 99.98 28.5 95.97 28.6 99.16 31.04 98.02 34.88"/><polygon class="cls-1" points="85.56 34.88 88.86 32.61 92.17 34.88 91.02 31.04 94.2 28.6 90.2 28.5 88.86 24.72 87.53 28.5 83.83 28.6 86.7 31.04 85.56 34.88"/><path class="cls-1" d="M73,20.91A38.66,38.66,0,1,0,72.65,57h78.57V20.91ZM22.31,70.2c-.6-.32-1.18-.63-1.76-1s-1.41-.87-2.09-1.34-1.61-1.17-2.38-1.8-1.72-1.49-2.53-2.3A35.51,35.51,0,1,1,63.78,13.55c.81.8,1.57,1.64,2.3,2.52s1.23,1.57,1.8,2.38a35.5,35.5,0,0,1,2.21,3.63l.13.23A35.53,35.53,0,0,1,22.31,70.2ZM150.13,55.94H73.23a38.72,38.72,0,0,0,3.18-9h73.72Zm0-10.08H76.63A38.52,38.52,0,0,0,73.54,22h76.59Z"/><path class="cls-1" d="M87.06,53.8a4.15,4.15,0,0,0,1-.14l0-.75a2.48,2.48,0,0,1-1,.18,1.48,1.48,0,0,1-1.56-1.43.49.49,0,0,1,0-.17A1.52,1.52,0,0,1,87,49.85a2,2,0,0,1,1,.24l.06-.76a2.82,2.82,0,0,0-1-.19,2.26,2.26,0,0,0-2.52,2.41C84.54,53.1,85.56,53.8,87.06,53.8Z"/><polygon class="cls-1" points="91.45 53.02 89.67 53.02 89.67 49.22 88.74 49.22 88.74 53.73 91.45 53.73 91.45 53.02"/><rect class="cls-1" x="91.6" y="49.22" width="0.92" height="4.51"/><polygon class="cls-1" points="94.62 50.35 94.63 50.35 96.39 53.73 97.52 53.73 97.52 49.22 96.64 49.22 96.64 52.59 96.62 52.59 94.87 49.22 93.73 49.22 93.73 53.73 94.62 53.73 94.62 50.35"/><rect class="cls-1" x="98.11" y="49.22" width="0.92" height="4.51"/><path class="cls-1" d="M102.27,53.8a4.09,4.09,0,0,0,1-.14l0-.75a2.48,2.48,0,0,1-1,.18,1.48,1.48,0,0,1-1.56-1.43,1,1,0,0,1,0-.17,1.52,1.52,0,0,1,1.54-1.64,2,2,0,0,1,1,.24l.06-.76a2.82,2.82,0,0,0-1-.19,2.26,2.26,0,0,0-2.52,2.41C99.75,53.1,100.78,53.8,102.27,53.8Z"/><path class="cls-1" d="M104.84,52.69h1.87l.4,1h1l-1.81-4.51h-1l-1.79,4.51h.94Zm.93-2.57h0l.66,1.86H105.1Z"/><polygon class="cls-1" points="111.38 53.02 109.59 53.02 109.59 49.22 108.67 49.22 108.67 53.73 111.38 53.73 111.38 53.02"/><polygon class="cls-1" points="114.94 53.02 113.15 53.02 113.15 49.22 112.22 49.22 112.22 53.73 114.94 53.73 114.94 53.02"/><polygon class="cls-1" points="116.39 53.73 117.31 53.73 117.31 51.95 118.96 49.22 117.98 49.22 116.88 51.11 115.79 49.22 114.7 49.22 116.39 51.95 116.39 53.73"/><polygon class="cls-1" points="122.14 53.73 123.06 53.73 123.06 49.93 124.38 49.93 124.38 49.22 120.82 49.22 120.82 49.93 122.14 49.93 122.14 53.73"/><polygon class="cls-1" points="127.96 53.02 126.16 53.02 126.16 51.75 127.8 51.75 127.8 51.04 126.16 51.04 126.16 49.93 127.95 49.93 127.95 49.22 125.23 49.22 125.23 53.73 127.96 53.73 127.96 53.02"/><path class="cls-1" d="M130.72,52.51c0,.41-.47.58-.82.58a2.21,2.21,0,0,1-1-.27l-.09.81a3.92,3.92,0,0,0,1.18.17c.93,0,1.73-.37,1.73-1.36,0-1.51-2-1.18-2-2,0-.49.41-.63.73-.63a2.32,2.32,0,0,1,.94.19l.09-.74a3.45,3.45,0,0,0-1.1-.16c-.81,0-1.61.37-1.61,1.37C128.7,52,130.72,51.65,130.72,52.51Z"/><polygon class="cls-1" points="133 53.73 133.92 53.73 133.92 49.93 135.24 49.93 135.24 49.22 131.68 49.22 131.68 49.93 133 49.93 133 53.73"/><path class="cls-1" d="M85.51,39.65a1.85,1.85,0,0,0-.57.06l0-1.18h1.84V38H84.37l0,2.3a2.14,2.14,0,0,1,.87-.16,1,1,0,0,1,1.07,1,.93.93,0,0,1-1,.86,1.74,1.74,0,0,1-.92-.22l0,.59a3,3,0,0,0,.94.15A1.53,1.53,0,0,0,86.94,41a1.38,1.38,0,0,0-1.42-1.36Z"/><rect class="cls-1" x="87.61" y="40.47" width="1.64" height="0.48"/><path class="cls-1" d="M90.39,40c0-.26.27-.39.58-.39a2,2,0,0,1,.63.16l.05-.51a2.68,2.68,0,0,0-.74-.13c-.65,0-1.16.32-1.16,1,0,.9,1.42.84,1.42,1.43,0,.34-.34.46-.62.46a1.68,1.68,0,0,1-.75-.23l0,.53a1.86,1.86,0,0,0,.9.17,1,1,0,0,0,1.14-1C91.81,40.45,90.39,40.64,90.39,40Z"/><path class="cls-1" d="M94.31,39.68V39.2h-.86v-.93l-.6.19v.74h-.74v.48h.74v1.86c0,.64.39.93,1,.93a1.52,1.52,0,0,0,.51-.09v-.5A.75.75,0,0,1,94,42a.52.52,0,0,1-.51-.52v-1.8Z"/><path class="cls-1" d="M96.08,42.47a1.19,1.19,0,0,0,1-.49h0v.42h.56a4.42,4.42,0,0,1,0-.63V40.45c0-.88-.38-1.33-1.31-1.33a2.16,2.16,0,0,0-1.08.32l0,.5a1.61,1.61,0,0,1,1-.31c.6,0,.81.28.81.83h-.64c-.63,0-1.51.25-1.51,1S95.37,42.47,96.08,42.47Zm.57-1.61H97v.28a.82.82,0,0,1-.79.85h-.12a.58.58,0,0,1-.61-.52C95.52,40.91,96.33,40.86,96.65,40.86Z"/><path class="cls-1" d="M99.27,39.7h0v-.5h-.58v3.2h.61V40.94c0-.8.35-1.3.88-1.3a1,1,0,0,1,.34.06v-.53a1.83,1.83,0,0,0-.4-.05A1,1,0,0,0,99.27,39.7Z"/><rect class="cls-1" x="100.95" y="40.47" width="1.64" height="0.48"/><path class="cls-1" d="M105.72,39.68h0a1.08,1.08,0,0,0-1.08-.56,1.55,1.55,0,0,0-1.46,1.7,1.42,1.42,0,0,0,1.4,1.58,1.38,1.38,0,0,0,1.09-.49h0v.31a1,1,0,0,1-1,1.1,2.54,2.54,0,0,1-1.18-.29l-.06.55a3.32,3.32,0,0,0,1.17.21c1.17,0,1.68-.56,1.68-1.53V39.2h-.56Zm-1,2.24c-.57,0-.91-.53-.91-1.13s.3-1.19.91-1.19,1,.57,1,1.23a1,1,0,0,1-.92,1.09Z"/><path class="cls-1" d="M108.55,42.47a1.17,1.17,0,0,0,1.07-.58h0v.51h.58V39.2h-.59v1.48c0,.78-.31,1.32-1,1.32-.52,0-.69-.4-.69-1.15V39.2h-.59v1.89C107.34,42,107.71,42.47,108.55,42.47Z"/><path class="cls-1" d="M113.82,40.45c0-.88-.38-1.33-1.31-1.33a2.19,2.19,0,0,0-1.08.32l0,.5a1.57,1.57,0,0,1,1-.31c.6,0,.81.28.81.83h-.64c-.63,0-1.51.25-1.51,1s.49,1,1.2,1a1.23,1.23,0,0,0,1-.49h0v.42h.56c0-.21,0-.43,0-.64Zm-.6.71a.82.82,0,0,1-.79.84h-.12a.58.58,0,0,1-.61-.52c0-.57.81-.64,1.13-.64h.39Z"/><path class="cls-1" d="M115.45,39.7h0v-.5h-.56v3.2h.6V40.94c0-.8.35-1.3.89-1.3a1,1,0,0,1,.33.06v-.53a1.83,1.83,0,0,0-.4-.05A1,1,0,0,0,115.45,39.7Z"/><path class="cls-1" d="M117.55,39.42l0,.51a1.58,1.58,0,0,1,1-.32c.6,0,.81.28.81.83h-.63c-.63,0-1.52.26-1.52,1.06s.5,1,1.2,1a1.21,1.21,0,0,0,1-.48h0v.41H120q0-.31,0-.63V40.45c0-.88-.37-1.33-1.31-1.33A2.28,2.28,0,0,0,117.55,39.42Zm1.79,1.74a.82.82,0,0,1-.79.84h-.12a.58.58,0,0,1-.61-.52c0-.57.81-.64,1.13-.64h.39Z"/><path class="cls-1" d="M122.65,39.12a1.19,1.19,0,0,0-1.06.59h0V39.2H121v3.2h.61V40.92c0-.78.31-1.32,1-1.32.52,0,.69.4.69,1.14V42.4h.6V40.5C123.88,39.64,123.5,39.12,122.65,39.12Z"/><path class="cls-1" d="M125.81,41.43V39.68h.86V39.2h-.86v-.93l-.61.19v.74h-.73v.48h.73v1.86c0,.64.39.93,1,.93a1.44,1.44,0,0,0,.51-.09v-.5a.73.73,0,0,1-.41.12.52.52,0,0,1-.51-.52A.43.43,0,0,1,125.81,41.43Z"/><path class="cls-1" d="M128.77,39.12a1.5,1.5,0,0,0-1.52,1.62,1.54,1.54,0,0,0,1.69,1.73,2.25,2.25,0,0,0,1-.21v-.58a1.93,1.93,0,0,1-1,.31,1.05,1.05,0,0,1-1.07-1v0h2.32C130.21,39.9,129.86,39.12,128.77,39.12Zm-.88,1.37a.89.89,0,0,1,.87-.89.82.82,0,0,1,.82.81.22.22,0,0,1,0,.08Z"/><path class="cls-1" d="M130.84,40.73a1.54,1.54,0,0,0,1.69,1.73,2.64,2.64,0,0,0,1-.21v-.57a2,2,0,0,1-1,.31,1.05,1.05,0,0,1-1.07-1v0h2.33c0-1-.35-1.81-1.44-1.81A1.49,1.49,0,0,0,130.84,40.73Zm1.51-1.14a.82.82,0,0,1,.82.81v.08h-1.69a.89.89,0,0,1,.87-.88Z"/><rect class="cls-1" x="134.67" y="41.7" width="0.72" height="0.7"/><path class="cls-1" d="M71.15,38.66a33,33,0,0,0-1.32-9.2H7.5a32.91,32.91,0,0,0-.19,17.72H70A32.68,32.68,0,0,0,71.15,38.66ZM15.59,42.24H10.86V34.3h4.58v1.38h-2.8v1.77h2.65v1.39H12.64v2h2.92Zm5.61,0-1.26-2.85-1.43,2.85h-2L18.79,38l-2-3.73h2.09l1.08,2.49,1.19-2.49h2L21,38l2.24,4.21Zm6.28.13c-2.17,0-3.69-1.62-3.69-4.13,0-2.91,1.95-4.07,3.56-4.07a5.14,5.14,0,0,1,2.09.38l-.08,1.55a2.92,2.92,0,0,0-1.62-.45c-1.26,0-2,1-2,2.61s.89,2.59,2.07,2.59a3.28,3.28,0,0,0,1.6-.44l.07,1.67A6.17,6.17,0,0,1,27.48,42.37Zm8.07-.13H30.82V34.3h4.57v1.38H32.61v1.77h2.65v1.39H32.61v2h2.92Zm6,0H37V34.3h1.86v6.5h2.63Zm5.64,0H42.63V34.3H44.5v6.5h2.62Zm5.86,0H48.27V34.3h4.58v1.38H50.07v1.77h2.64v1.39H50.07v2H53Zm7.62,0H58.41L56.12,36.5h0v5.74H54.46V34.3h2.18L59,39.8h0V34.3h1.64Zm6.43-6.5H65.32v6.5H63.46v-6.5H61.73V34.3H67Z"/><path class="cls-1" d="M31.09,53.87c1.66-1.26,2.38-1.81,2.37-2.37a.58.58,0,0,0-.53-.63h-.1a2.47,2.47,0,0,0-1.08.36l.09-1A4,4,0,0,1,33.12,50a1.33,1.33,0,0,1,1.54,1.26c0,1.17-1,1.9-1.9,2.53h0l1.58,0-.15.87L31,54.66Z"/><path class="cls-1" d="M37.19,49.85c1,0,1.52.54,1.55,1.61,0,1.64-.66,3.08-2.05,3.12-1,0-1.52-.55-1.55-1.61C35.1,51.4,35.77,49.89,37.19,49.85Zm0,.82c-.78,0-1,2-1,2.53s.15.57.45.56c.78,0,1-2,1-2.52S37.48,50.67,37.23,50.67Z"/><path class="cls-1" d="M40.78,51l-.87.63-.46-.82,1.64-1,1,0-.82,4.59-1.19,0Z"/><path class="cls-1" d="M43.12,53.25a1.75,1.75,0,0,0,1,.26c.76,0,1-.55,1.15-1.15h0a1.17,1.17,0,0,1-.76.28,1.24,1.24,0,0,1-1.31-1.32,1.53,1.53,0,0,1,1.38-1.67h.22a1.52,1.52,0,0,1,1.68,1.63c0,1.56-.57,3.06-2.3,3.11a2.54,2.54,0,0,1-1.26-.32Zm1.64-1.42a.72.72,0,0,0,.64-.78h0a.55.55,0,0,0-.56-.63c-.4,0-.59.45-.58.82S44.44,51.84,44.76,51.83Z"/><path class="cls-1" d="M37.17,22.46a1.44,1.44,0,0,1,1.54,1.65c0,1.65-.76,3.07-2.18,3.07-1,0-1.53-.6-1.53-1.66C35,24,35.73,22.46,37.17,22.46Zm0,.82c-.8,0-1.08,2-1.08,2.49s.14.58.44.58c.8,0,1.05-2,1.05-2.48S37.45,23.29,37.19,23.28Z"/><path class="cls-1" d="M42.68,23.57,40.37,27.1H39l2.47-3.7h-2l.18-.86H42.9Z"/></g></g></g></g></svg>