<svg xmlns="http://www.w3.org/2000/svg" viewBox="0 0 165 86.04"><defs><style>.cls-1{fill:#6dbfb0;}.cls-2,.cls-3{fill:none;stroke-miterlimit:10;}.cls-2{stroke:#231f20;stroke-width:0.54px;}.cls-3{stroke:#6dbfb0;}</style></defs><title>oeko-tex</title><g id="Calque_2" data-name="Calque 2"><g id="Calque_2-2" data-name="Calque 2"><path class="cls-1" d="M44.45,65.15c0,.65,0,1.63.81,1.63.64,0,.72-.66.72-1h.67a1.43,1.43,0,0,1-1.43,1.5c-1,0-1.47-.72-1.47-2.17,0-1.06.21-2.29,1.51-2.29s1.42,1.13,1.42,2v.27m-.7-.52V64.4c0-.48-.15-1-.73-1s-.78.86-.78,1.11v.16Z"/><path class="cls-1" d="M49.23,64.19c0-.53-.14-.83-.62-.83a.61.61,0,0,0-.69.65c0,.5.52.6,1,.77s1,.36,1,1.2a1.24,1.24,0,0,1-1.37,1.32,1.3,1.3,0,0,1-1.45-1.5h.66c0,.51.14,1,.79,1a.66.66,0,0,0,.71-.7c0-.57-.53-.69-1-.86s-1-.33-1-1.21.61-1.17,1.35-1.17c1.23,0,1.28.86,1.29,1.35"/><path class="cls-1" d="M50.84,61.72h.66V63h.74v.52H51.5V66.2c0,.34.09.47.44.47l.29,0v.55a3.8,3.8,0,0,1-.54,0c-.69,0-.85-.28-.85-.84V63.47h-.62V63h.62"/><path class="cls-1" d="M53.25,65.15c0,.65,0,1.63.81,1.63.63,0,.72-.66.72-1h.67A1.43,1.43,0,0,1,54,67.3c-1,0-1.47-.72-1.47-2.17,0-1.06.21-2.29,1.51-2.29s1.42,1.13,1.42,2v.27m-.7-.52V64.4c0-.48-.15-1-.73-1s-.78.86-.78,1.11v.16Z"/><path class="cls-1" d="M59,67.19h-.63v-.52h0a1,1,0,0,1-.92.63c-1,0-1.39-.89-1.39-2.22,0-.89.15-2.24,1.34-2.24a1,1,0,0,1,.94.6h0v-1.9H59m-1.47,5.19c.73,0,.85-.69.85-1.65s-.14-1.67-.85-1.67-.78.65-.78,1.67.16,1.65.78,1.65"/><path class="cls-1" d="M62,63.47h-.61V63H62v-.5c0-.64.28-1,.92-1h.48v.57h-.3c-.29,0-.43.11-.43.4V63h.73v.52h-.73v3.72H62"/><path class="cls-1" d="M65.16,62.84c1.23,0,1.53,1,1.53,2.23s-.31,2.23-1.53,2.23-1.53-1-1.53-2.23.31-2.23,1.53-2.23M66,65.07c0-.92-.13-1.71-.84-1.71s-.82.79-.82,1.71.13,1.71.82,1.71S66,66,66,65.07"/><path class="cls-1" d="M67.36,63H68v.64h0c.19-.41.44-.75.92-.75a.69.69,0,0,1,.29,0v.65a1.67,1.67,0,0,0-.36,0,.94.94,0,0,0-.87,1v2.68h-.66"/><path class="cls-1" d="M71.61,61.54h.66v1.9h0a1.22,1.22,0,0,1,1-.6c1.09,0,1.09.85,1.09,1.34v3h-.66V64.27c0-.33,0-.86-.63-.86a.83.83,0,0,0-.84.86v2.92h-.66"/><path class="cls-1" d="M75.18,64.23c0-1,.41-1.39,1.42-1.39,1.29,0,1.29.78,1.29,1.22v2.37c0,.17,0,.34.21.34a.25.25,0,0,0,.15,0v.47a2.05,2.05,0,0,1-.38,0c-.26,0-.57,0-.6-.54h0a1.2,1.2,0,0,1-1,.6c-.79,0-1.15-.47-1.15-1.23a1.09,1.09,0,0,1,.79-1.17l.9-.27c.48-.15.48-.29.48-.64a.59.59,0,0,0-.68-.63.73.73,0,0,0-.73.84v0m1.38.65c-.24.26-.83.32-1.13.5a.68.68,0,0,0-.32.67c0,.43.15.73.6.73a.85.85,0,0,0,.85-.8Z"/><path class="cls-1" d="M78.8,63h.66v.64h0c.19-.41.44-.75.92-.75a.69.69,0,0,1,.29,0v.65a1.67,1.67,0,0,0-.36,0,.94.94,0,0,0-.87,1v2.68H78.8"/><path class="cls-1" d="M81.21,63h.63v.5h0a1.12,1.12,0,0,1,1-.61.82.82,0,0,1,.91.68,1.18,1.18,0,0,1,1-.68c1.11,0,1.11.85,1.11,1.35v3h-.66V64.27c0-.33,0-.86-.57-.86a.78.78,0,0,0-.79.86v2.92h-.67V64.27c0-.33,0-.86-.56-.86a.78.78,0,0,0-.79.86v2.92h-.67"/><path class="cls-1" d="M87.07,63.47h-.62V63h.62v-.5c0-.64.28-1,.92-1h.48v.57h-.31c-.28,0-.43.11-.43.4V63h.73v.52h-.73v3.72h-.66"/><path class="cls-1" d="M91.71,67.19h-.63V66.7h0a1.15,1.15,0,0,1-1,.6c-1.12,0-1.12-.84-1.12-1.34V63h.67v2.93c0,.32,0,.86.62.86a.82.82,0,0,0,.84-.86V63h.66"/><rect class="cls-1" x="92.63" y="61.54" width="0.67" height="5.65"/><path class="cls-1" d="M97.93,64.19c0-.53-.14-.83-.62-.83a.61.61,0,0,0-.69.65c0,.5.52.6,1,.77s1,.36,1,1.2a1.23,1.23,0,0,1-1.36,1.32,1.3,1.3,0,0,1-1.46-1.5h.66c0,.51.14,1,.8,1a.66.66,0,0,0,.7-.7c0-.57-.53-.69-1-.86s-1-.33-1-1.21.61-1.17,1.35-1.17c1.23,0,1.28.86,1.29,1.35"/><path class="cls-1" d="M102.13,67.19h-.63V66.7h0a1.12,1.12,0,0,1-1,.6c-1.12,0-1.12-.84-1.12-1.34V63H100v2.93c0,.32,0,.86.62.86a.82.82,0,0,0,.84-.86V63h.66"/><path class="cls-1" d="M103,61.54h.66v1.9h0a1,1,0,0,1,1-.6c1.15,0,1.29,1.35,1.29,2.24,0,1.19-.4,2.22-1.38,2.22a1,1,0,0,1-.92-.63h0v.52H103m1.48-.46c.62,0,.78-.69.78-1.65s-.16-1.67-.78-1.67-.85.84-.85,1.67.14,1.65.85,1.65"/><path class="cls-1" d="M108.5,64.19c0-.53-.14-.83-.63-.83a.61.61,0,0,0-.68.65c0,.5.52.6,1,.77s1,.36,1,1.2a1.24,1.24,0,0,1-1.37,1.32,1.3,1.3,0,0,1-1.46-1.5h.67c0,.51.14,1,.79,1a.66.66,0,0,0,.7-.7c0-.57-.52-.69-1-.86s-1-.33-1-1.21a1.19,1.19,0,0,1,1.35-1.17c1.24,0,1.29.86,1.3,1.35"/><path class="cls-1" d="M110.1,61.72h.67V63h.73v.52h-.73V66.2c0,.34.09.47.43.47l.3,0v.55a3.8,3.8,0,0,1-.54,0c-.69,0-.86-.28-.86-.84V63.47h-.61V63h.61"/><path class="cls-1" d="M111.86,64.23c0-1,.41-1.39,1.42-1.39,1.29,0,1.29.78,1.29,1.22v2.37c0,.17,0,.34.21.34a.25.25,0,0,0,.15,0v.47a2.05,2.05,0,0,1-.38,0c-.25,0-.57,0-.6-.54h0a1.2,1.2,0,0,1-1,.6,1.07,1.07,0,0,1-1.16-1.23,1.09,1.09,0,0,1,.8-1.17l.9-.27c.48-.15.48-.29.48-.64a.59.59,0,0,0-.68-.63.73.73,0,0,0-.73.84v0m1.39.65c-.25.26-.83.32-1.13.5a.67.67,0,0,0-.33.67c0,.43.15.73.6.73a.86.86,0,0,0,.86-.8Z"/><path class="cls-1" d="M115.48,63h.63v.5h0a1.13,1.13,0,0,1,1-.61c1.11,0,1.11.85,1.11,1.35v3h-.66V64.27c0-.33,0-.86-.63-.86a.82.82,0,0,0-.83.86v2.92h-.67"/><path class="cls-1" d="M121.17,64.24c0-.41-.17-.88-.67-.88s-.84.21-.84,1.76c0,.55,0,1.66.81,1.66.57,0,.7-.6.7-1.06h.67a1.43,1.43,0,0,1-1.4,1.58c-1,0-1.47-.72-1.47-2.17,0-1.06.2-2.29,1.51-2.29a1.28,1.28,0,0,1,1.36,1.4"/><path class="cls-1" d="M123.08,65.15c0,.65,0,1.63.82,1.63.63,0,.72-.66.72-1h.66a1.43,1.43,0,0,1-1.42,1.5c-1,0-1.47-.72-1.47-2.17,0-1.06.2-2.29,1.51-2.29s1.41,1.13,1.41,2v.27m-.69-.52V64.4c0-.48-.15-1-.74-1s-.77.86-.77,1.11v.16Z"/><path class="cls-1" d="M127.87,64.19c0-.53-.15-.83-.63-.83a.62.62,0,0,0-.69.65c0,.5.53.6,1,.77s1,.36,1,1.2a1.23,1.23,0,0,1-1.36,1.32,1.3,1.3,0,0,1-1.46-1.5h.67c0,.51.14,1,.79,1a.66.66,0,0,0,.7-.7c0-.57-.52-.69-1-.86s-1-.33-1-1.21.61-1.17,1.35-1.17c1.24,0,1.28.86,1.29,1.35"/><rect class="cls-1" x="129.42" y="66.35" width="0.73" height="0.84"/><polyline class="cls-1" points="33.8 72.47 34.49 72.47 35.17 75.93 35.19 75.93 35.91 72.47 36.69 72.47 37.39 75.93 37.41 75.93 38.07 72.47 38.76 72.47 37.76 76.71 37.03 76.71 36.29 73.24 36.27 73.24 35.56 76.71 34.78 76.71"/><polyline class="cls-1" points="38.93 72.47 39.63 72.47 40.31 75.93 40.32 75.93 41.05 72.47 41.83 72.47 42.53 75.93 42.55 75.93 43.2 72.47 43.9 72.47 42.9 76.71 42.17 76.71 41.42 73.24 41.41 73.24 40.7 76.71 39.92 76.71"/><polyline class="cls-1" points="44.07 72.47 44.77 72.47 45.44 75.93 45.46 75.93 46.18 72.47 46.96 72.47 47.67 75.93 47.68 75.93 48.34 72.47 49.04 72.47 48.03 76.71 47.3 76.71 46.56 73.24 46.55 73.24 45.83 76.71 45.06 76.71"/><rect class="cls-1" x="49.42" y="75.87" width="0.73" height="0.84"/><path class="cls-1" d="M52.49,72.35c1.23,0,1.53,1,1.53,2.24s-.31,2.23-1.53,2.23S51,75.78,51,74.59s.3-2.24,1.52-2.24m.84,2.24c0-.92-.14-1.71-.85-1.71s-.82.79-.82,1.71.14,1.71.82,1.71.85-.8.85-1.71"/><path class="cls-1" d="M55.25,74.67c0,.64,0,1.63.81,1.63.63,0,.72-.67.72-1h.67A1.44,1.44,0,0,1,56,76.82c-1,0-1.47-.72-1.47-2.18,0-1.06.21-2.29,1.51-2.29s1.42,1.14,1.42,2.05v.27m-.7-.52v-.23c0-.48-.15-1-.74-1s-.77.85-.77,1.11v.16Z"/><polyline class="cls-1" points="61.38 76.71 60.6 76.71 59.42 74.61 58.88 75.28 58.88 76.71 58.21 76.71 58.21 71.06 58.88 71.06 58.88 74.42 58.89 74.42 60.38 72.47 61.15 72.47 59.87 74.07"/><path class="cls-1" d="M63.05,72.35c1.23,0,1.53,1,1.53,2.24s-.31,2.23-1.53,2.23-1.53-1-1.53-2.23.31-2.24,1.53-2.24m.83,2.24c0-.92-.13-1.71-.84-1.71s-.82.79-.82,1.71.14,1.71.82,1.71.84-.8.84-1.71"/><rect class="cls-1" x="65.24" y="74.15" width="1.93" height="0.62"/><path class="cls-1" d="M68.24,71.23h.66v1.24h.74V73H68.9v2.72c0,.34.09.48.44.48a1.6,1.6,0,0,0,.29,0v.55a3.33,3.33,0,0,1-.54.05c-.68,0-.85-.29-.85-.84V73h-.62v-.52h.62"/><path class="cls-1" d="M70.65,74.67c0,.64,0,1.63.81,1.63.63,0,.72-.67.72-1h.67a1.44,1.44,0,0,1-1.42,1.51c-1,0-1.48-.72-1.48-2.18,0-1.06.21-2.29,1.51-2.29s1.42,1.14,1.42,2.05v.27m-.7-.52v-.23c0-.48-.15-1-.73-1s-.78.85-.78,1.11v.16Z"/><polyline class="cls-1" points="73.31 72.47 74.03 72.47 74.8 73.98 75.58 72.47 76.3 72.47 75.2 74.5 76.34 76.71 75.61 76.71 74.77 75.03 73.95 76.71 73.23 76.71 74.39 74.5"/><rect class="cls-1" x="76.98" y="75.87" width="0.73" height="0.84"/><path class="cls-1" d="M80.75,73.76c0-.41-.16-.88-.67-.88s-.83.21-.83,1.75c0,.56,0,1.67.81,1.67.57,0,.69-.61.69-1.06h.67A1.43,1.43,0,0,1,80,76.82c-1,0-1.48-.72-1.48-2.18,0-1.06.21-2.28,1.52-2.28a1.28,1.28,0,0,1,1.35,1.4"/><path class="cls-1" d="M83.43,72.35c1.23,0,1.53,1,1.53,2.24s-.31,2.23-1.53,2.23-1.52-1-1.52-2.23.3-2.24,1.52-2.24m.83,2.24c0-.92-.13-1.71-.84-1.71s-.82.79-.82,1.71.14,1.71.82,1.71.84-.8.84-1.71"/><path class="cls-1" d="M85.7,72.47h.63V73h0a1.13,1.13,0,0,1,1-.61.84.84,0,0,1,.92.68,1.19,1.19,0,0,1,1-.68c1.11,0,1.11.85,1.11,1.35v3h-.66V73.78c0-.32,0-.85-.57-.85a.78.78,0,0,0-.8.85v2.93h-.66V73.78c0-.32,0-.85-.57-.85a.78.78,0,0,0-.79.85v2.93H85.7"/><polygon class="cls-1" points="92.68 70.95 93.2 70.95 91.36 76.82 90.84 76.82 92.68 70.95"/><path class="cls-1" d="M95.38,73.71c0-.54-.14-.83-.63-.83a.6.6,0,0,0-.68.65c0,.49.52.59,1,.77s1,.35,1,1.19a1.24,1.24,0,0,1-1.37,1.33,1.31,1.31,0,0,1-1.46-1.51H94c0,.52.14,1,.79,1a.67.67,0,0,0,.7-.71c0-.57-.52-.69-1-.86s-1-.32-1-1.2a1.2,1.2,0,0,1,1.35-1.18c1.24,0,1.29.86,1.3,1.36"/><path class="cls-1" d="M97,71.23h.66v1.24h.73V73h-.73v2.72c0,.34.09.48.44.48a1.6,1.6,0,0,0,.29,0v.55a3.47,3.47,0,0,1-.54.05c-.69,0-.85-.29-.85-.84V73h-.62v-.52H97"/><path class="cls-1" d="M98.74,73.75c0-1,.41-1.4,1.42-1.4,1.29,0,1.29.78,1.29,1.23v2.36c0,.17,0,.34.21.34a.25.25,0,0,0,.15,0v.47a1.71,1.71,0,0,1-.38.05c-.26,0-.57,0-.6-.55h0a1.19,1.19,0,0,1-1,.61,1.08,1.08,0,0,1-1.16-1.23,1.11,1.11,0,0,1,.8-1.18l.9-.26c.48-.15.48-.29.48-.65s-.24-.62-.68-.62a.72.72,0,0,0-.73.83v0m1.39.65c-.25.26-.83.31-1.13.49a.69.69,0,0,0-.33.68c0,.43.15.73.6.73a.87.87,0,0,0,.86-.81Z"/><path class="cls-1" d="M102.36,72.47H103V73h0a1.15,1.15,0,0,1,1-.61c1.11,0,1.11.85,1.11,1.35v3h-.66V73.78c0-.32,0-.85-.63-.85a.81.81,0,0,0-.83.85v2.93h-.67"/><path class="cls-1" d="M108.82,76.71h-.63v-.52h0a1,1,0,0,1-.91.63c-1,0-1.39-.89-1.39-2.23,0-.89.14-2.23,1.34-2.23a1,1,0,0,1,.93.59h0V71.06h.66m-1.48,5.19c.74,0,.86-.7.86-1.66s-.14-1.67-.86-1.67-.77.66-.77,1.67.16,1.66.77,1.66"/><path class="cls-1" d="M109.6,73.75c0-1,.41-1.4,1.42-1.4,1.29,0,1.29.78,1.29,1.23v2.36c0,.17,0,.34.21.34a.25.25,0,0,0,.15,0v.47a1.71,1.71,0,0,1-.38.05c-.25,0-.57,0-.6-.55h0a1.19,1.19,0,0,1-1,.61,1.08,1.08,0,0,1-1.16-1.23,1.11,1.11,0,0,1,.8-1.18l.9-.26c.48-.15.48-.29.48-.65s-.24-.62-.68-.62a.72.72,0,0,0-.73.83v0m1.39.65c-.25.26-.83.31-1.13.49a.69.69,0,0,0-.33.68c0,.43.15.73.6.73a.87.87,0,0,0,.86-.81Z"/><path class="cls-1" d="M113.22,72.47h.67v.63h0c.19-.4.44-.75.92-.75a.55.55,0,0,1,.29.06v.64a1.67,1.67,0,0,0-.36,0,.94.94,0,0,0-.86,1v2.68h-.67"/><path class="cls-1" d="M118.36,76.71h-.63v-.52h0a1,1,0,0,1-.92.63c-1,0-1.38-.89-1.38-2.23,0-.89.14-2.23,1.34-2.23a1,1,0,0,1,.93.59h0V71.06h.66m-1.48,5.19c.74,0,.85-.7.85-1.66s-.14-1.67-.85-1.67-.78.66-.78,1.67.16,1.66.78,1.66"/><path class="cls-1" d="M119.33,72c.71,0,1.35-.12,1.39-.92h.47v5.61h-.66V72.5h-1.2"/><path class="cls-1" d="M122.91,74c0-1.24.09-2.89,1.59-2.89s1.6,1.51,1.6,2.89c0,1.18-.08,2.83-1.6,2.83s-1.59-1.51-1.59-2.83m1.59,2.31c.86,0,.91-1.13.91-2.31s0-2.36-.91-2.36-.9,1.12-.9,2.36.05,2.31.9,2.31"/><path class="cls-1" d="M126.71,74c0-1.24.09-2.89,1.6-2.89s1.6,1.51,1.6,2.89c0,1.18-.09,2.83-1.6,2.83s-1.6-1.51-1.6-2.83m1.6,2.31c.85,0,.9-1.13.9-2.31s-.05-2.36-.9-2.36-.9,1.12-.9,2.36,0,2.31.9,2.31"/><rect class="cls-2" x="0.5" y="0.51" width="163.99" height="85.03"/><path class="cls-1" d="M38.09,27.21l-.13.1a1.47,1.47,0,0,1-.25.12,1.89,1.89,0,0,1-.38.11,2.68,2.68,0,0,1-.52,0,2.35,2.35,0,0,1-1-.17,1.87,1.87,0,0,1-.67-.5,2.32,2.32,0,0,1-.39-.75,3.74,3.74,0,0,1-.12-1,3.28,3.28,0,0,1,.13-1,2.19,2.19,0,0,1,.41-.77,1.69,1.69,0,0,1,.67-.5,2.25,2.25,0,0,1,.94-.18,2.49,2.49,0,0,1,.49,0l.37.12a1.71,1.71,0,0,1,.27.13.8.8,0,0,1,.16.13.43.43,0,0,1,.11.12.37.37,0,0,1,.05.17.5.5,0,0,1-.11.28,1.79,1.79,0,0,1-.23.25,1.49,1.49,0,0,0-.18-.17,1.14,1.14,0,0,0-.23-.15,2,2,0,0,0-.29-.11,1.36,1.36,0,0,0-.36-.05,1.12,1.12,0,0,0-1,.51,1.58,1.58,0,0,0-.21.52,3,3,0,0,0-.06.59,3.21,3.21,0,0,0,.06.63,1.51,1.51,0,0,0,.22.52,1.12,1.12,0,0,0,.39.36,1.25,1.25,0,0,0,.61.14,1.36,1.36,0,0,0,.36,0l.28-.11.22-.15.15-.13.1.12.1.14a1.09,1.09,0,0,1,.08.15.43.43,0,0,1,0,.14.33.33,0,0,1,0,.15.6.6,0,0,1-.11.14"/><path class="cls-1" d="M43.71,25.15a3.56,3.56,0,0,1-.12.94,2.25,2.25,0,0,1-.37.78,1.8,1.8,0,0,1-.66.52,2.38,2.38,0,0,1-1.91,0,1.84,1.84,0,0,1-.64-.53,2.38,2.38,0,0,1-.36-.77,4,4,0,0,1-.11-.93,3.46,3.46,0,0,1,.12-.92,2.49,2.49,0,0,1,.39-.76,1.89,1.89,0,0,1,.66-.51,2.12,2.12,0,0,1,.95-.2,2.2,2.2,0,0,1,.93.19,1.67,1.67,0,0,1,.63.51,2,2,0,0,1,.37.75,3.48,3.48,0,0,1,.12.93m-1,0a4.21,4.21,0,0,0-.06-.63A1.92,1.92,0,0,0,42.5,24a1.07,1.07,0,0,0-.34-.36,1,1,0,0,0-.51-.13,1.06,1.06,0,0,0-.53.13,1,1,0,0,0-.35.36,1.63,1.63,0,0,0-.19.51,3.34,3.34,0,0,0,0,1.26,1.72,1.72,0,0,0,.19.54,1,1,0,0,0,.34.37,1,1,0,0,0,1,0,1,1,0,0,0,.34-.37,1.72,1.72,0,0,0,.19-.54,4.21,4.21,0,0,0,.06-.63"/><path class="cls-1" d="M49.05,27.47h-.8l-2-3v3h-.9V22.88l.18,0h.24a.64.64,0,0,1,.34.07.65.65,0,0,1,.22.24L48.14,26V22.87l.18,0h.13a.75.75,0,0,1,.21,0,.46.46,0,0,1,.19.08.36.36,0,0,1,.14.16.54.54,0,0,1,.06.27"/><path class="cls-1" d="M51.81,24.67h1.47v.74H51.81v2.06h-.94v-4.6h2.88s0,.09,0,.12v.13a.49.49,0,0,1-.12.34.56.56,0,0,1-.44.14h-1.4"/><path class="cls-1" d="M55.23,22.87l.19,0h.14a.75.75,0,0,1,.21,0,.41.41,0,0,1,.19.08.46.46,0,0,1,.15.16.54.54,0,0,1,.06.27v4.1h-.94"/><path class="cls-1" d="M61.65,25.09a3.41,3.41,0,0,1-.13.92,2.21,2.21,0,0,1-.4.76,2,2,0,0,1-.69.51,2.26,2.26,0,0,1-1,.19H58V22.91a5.8,5.8,0,0,1,.75-.07l.54,0a3.08,3.08,0,0,1,1.14.19,1.84,1.84,0,0,1,.73.49,1.67,1.67,0,0,1,.38.72,3.1,3.1,0,0,1,.12.87m-1,0a2.93,2.93,0,0,0-.06-.61,1.28,1.28,0,0,0-.21-.49,1,1,0,0,0-.41-.33,1.54,1.54,0,0,0-.65-.12l-.41,0v3.17h.37a1.58,1.58,0,0,0,.67-.12,1,1,0,0,0,.42-.34,1.28,1.28,0,0,0,.22-.52,3.37,3.37,0,0,0,.06-.66"/><path class="cls-1" d="M65.74,26.74a.55.55,0,0,1,.45.15.51.51,0,0,1,.11.34v.13s0,.07,0,.11h-3v-4.6h2.86a.6.6,0,0,1,0,.12v.13a.49.49,0,0,1-.12.36.67.67,0,0,1-.46.12H64.27v1.13h1.45v.74H64.27v1.27"/><path class="cls-1" d="M71.45,27.47h-.8l-2-3v3h-.91V22.88l.19,0h.23a.68.68,0,0,1,.35.07.74.74,0,0,1,.22.24L70.55,26V22.87l.18,0h.13a.65.65,0,0,1,.2,0,.41.41,0,0,1,.19.08.36.36,0,0,1,.14.16.54.54,0,0,1,.06.27"/><path class="cls-1" d="M76.55,27.21a.58.58,0,0,1-.13.1,1.17,1.17,0,0,1-.25.12,1.57,1.57,0,0,1-.38.11,2.64,2.64,0,0,1-.51,0,2.35,2.35,0,0,1-1-.17,1.71,1.71,0,0,1-.67-.5,2,2,0,0,1-.39-.75,3.74,3.74,0,0,1-.12-1,3.28,3.28,0,0,1,.13-1,2.17,2.17,0,0,1,.4-.77,1.76,1.76,0,0,1,.67-.5,2.3,2.3,0,0,1,1-.18,2.39,2.39,0,0,1,.48,0l.38.12a1.25,1.25,0,0,1,.26.13.92.92,0,0,1,.17.13.43.43,0,0,1,.11.12.35.35,0,0,1,0,.17.56.56,0,0,1-.1.28L76.4,24a1.62,1.62,0,0,0-.19-.17A.86.86,0,0,0,76,23.7l-.29-.11a1.44,1.44,0,0,0-.37-.05,1.1,1.1,0,0,0-.59.15,1.06,1.06,0,0,0-.37.36,1.58,1.58,0,0,0-.21.52,3,3,0,0,0-.06.59,3.21,3.21,0,0,0,.06.63,1.5,1.5,0,0,0,.21.52,1.07,1.07,0,0,0,.4.36,1.22,1.22,0,0,0,.61.14,1.34,1.34,0,0,0,.35,0,1.49,1.49,0,0,0,.28-.11,1.39,1.39,0,0,0,.22-.15,1.08,1.08,0,0,0,.15-.13l.1.12a.71.71,0,0,1,.1.14,1.19,1.19,0,0,1,.09.15.39.39,0,0,1,0,.14.33.33,0,0,1,0,.15.69.69,0,0,1-.12.14"/><path class="cls-1" d="M80.77,26.74a.57.57,0,0,1,.45.15.52.52,0,0,1,.12.34v.13s0,.07,0,.11h-3v-4.6h2.87s0,.09,0,.12v.13a.45.45,0,0,1-.13.36.67.67,0,0,1-.46.12H79.3v1.13h1.45v.74H79.3v1.27"/><path class="cls-1" d="M85.31,22.87l.19,0h.14a.75.75,0,0,1,.21,0,.46.46,0,0,1,.34.24.54.54,0,0,1,.06.27v4.1h-.94"/><path class="cls-1" d="M91.69,27.47h-.8l-2-3v3H88V22.88l.18,0h.24a.64.64,0,0,1,.34.07.74.74,0,0,1,.22.24L90.79,26V22.87l.18,0h.13a.75.75,0,0,1,.21,0,.37.37,0,0,1,.18.08.58.58,0,0,1,.15.16.68.68,0,0,1,0,.27"/><path class="cls-1" d="M97,23.64H95.59a.39.39,0,0,1,0-.14v-.13A.5.5,0,0,1,95.7,23a.57.57,0,0,1,.45-.15h3.23a1.37,1.37,0,0,1,0,.29.47.47,0,0,1-.12.32.53.53,0,0,1-.44.16H98v3.83H97"/><path class="cls-1" d="M103.24,26.74a.55.55,0,0,1,.45.15.52.52,0,0,1,.12.34v.13a.37.37,0,0,0,0,.11h-3v-4.6h2.86s0,.09,0,.12v.13a.49.49,0,0,1-.12.36.7.7,0,0,1-.47.12h-1.35v1.13h1.45v.74h-1.45v1.27"/><path class="cls-1" d="M106.85,26,106,27.47h-1l1.36-2.3L105.09,23l.29-.11a1.06,1.06,0,0,1,.31,0,.58.58,0,0,1,.55.33l.66,1.25.69-1.17a1,1,0,0,1,.26-.32.7.7,0,0,1,.37-.09,1,1,0,0,1,.26,0,.86.86,0,0,1,.24.11l-1.27,2.16,1.34,2.3a1.47,1.47,0,0,1-.28.08,1.32,1.32,0,0,1-.27,0,.66.66,0,0,1-.42-.11.9.9,0,0,1-.26-.31"/><path class="cls-1" d="M111.27,23.64h-1.44a.93.93,0,0,1,0-.14v-.13a.5.5,0,0,1,.13-.34.6.6,0,0,1,.45-.15h3.24a2.64,2.64,0,0,1,0,.29.48.48,0,0,1-.13.32.5.5,0,0,1-.43.16h-.88v3.83h-.94"/><path class="cls-1" d="M115,22.87l.19,0h.14a.75.75,0,0,1,.21,0,.5.5,0,0,1,.2.08.46.46,0,0,1,.15.16.67.67,0,0,1,.06.27v4.1h-1"/><path class="cls-1" d="M118.74,26.71h1.34a.67.67,0,0,1,.27,0,.39.39,0,0,1,.18.1.34.34,0,0,1,.08.17.48.48,0,0,1,0,.18v.16a.42.42,0,0,1,0,.11H117.8v-4.6l.18,0h.14a.75.75,0,0,1,.21,0,.54.54,0,0,1,.21.08.58.58,0,0,1,.15.16.68.68,0,0,1,0,.27"/><path class="cls-1" d="M124.58,26.74a.55.55,0,0,1,.45.15.57.57,0,0,1,.12.47s0,.07,0,.11h-3v-4.6H125a.6.6,0,0,1,0,.12v.13a.49.49,0,0,1-.12.36.7.7,0,0,1-.47.12h-1.34v1.13h1.45v.74h-1.45v1.27"/><path class="cls-1" d="M126.66,26.41a3.35,3.35,0,0,0,.48.3,1.37,1.37,0,0,0,.66.14.89.89,0,0,0,.28,0,.93.93,0,0,0,.25-.1.63.63,0,0,0,.17-.19.65.65,0,0,0,.07-.29.66.66,0,0,0-.07-.3.8.8,0,0,0-.2-.21,1.2,1.2,0,0,0-.3-.15l-.34-.12-.43-.17a2.06,2.06,0,0,1-.41-.23,1.06,1.06,0,0,1-.29-.37,1.33,1.33,0,0,1-.11-.56,1.22,1.22,0,0,1,.13-.59,1.13,1.13,0,0,1,.35-.43,1.92,1.92,0,0,1,.52-.25,2.18,2.18,0,0,1,.63-.08,2.81,2.81,0,0,1,.43,0l.35.08.26.1a.91.91,0,0,1,.16.1.32.32,0,0,1,.19.3.71.71,0,0,1-.07.23,1.28,1.28,0,0,1-.21.28,2,2,0,0,0-.44-.26,1.27,1.27,0,0,0-.58-.13l-.25,0a.62.62,0,0,0-.24.08.55.55,0,0,0-.18.16.55.55,0,0,0,0,.5.86.86,0,0,0,.19.19,1.71,1.71,0,0,0,.27.14l.32.12.45.18a2.33,2.33,0,0,1,.41.24,1.13,1.13,0,0,1,.3.38,1.16,1.16,0,0,1,.12.56,1.47,1.47,0,0,1-.13.64,1.37,1.37,0,0,1-.9.76,2.53,2.53,0,0,1-.7.09,2.94,2.94,0,0,1-.8-.09,2.17,2.17,0,0,1-.44-.19.57.57,0,0,1-.14-.13.31.31,0,0,1,0-.17.53.53,0,0,1,.1-.28,3.21,3.21,0,0,1,.19-.31"/><path class="cls-1" d="M44.77,12.27a9.73,9.73,0,0,1-.31,2.5,5.78,5.78,0,0,1-1,2.06,4.78,4.78,0,0,1-1.74,1.4,5.78,5.78,0,0,1-2.57.52,5.42,5.42,0,0,1-2.52-.53A4.51,4.51,0,0,1,35,16.81a5.64,5.64,0,0,1-1-2,9.47,9.47,0,0,1-.3-2.48A9.2,9.2,0,0,1,34,9.85a5.78,5.78,0,0,1,1-2,4.78,4.78,0,0,1,1.75-1.38,6.41,6.41,0,0,1,5,0,4.61,4.61,0,0,1,1.7,1.34,5.68,5.68,0,0,1,1,2,9.38,9.38,0,0,1,.31,2.49m-2.58,0A8.14,8.14,0,0,0,42,10.62a4.1,4.1,0,0,0-.49-1.39,3,3,0,0,0-.89-.94A2.46,2.46,0,0,0,39.3,8a2.62,2.62,0,0,0-1.42.34,2.59,2.59,0,0,0-.92.94,4.37,4.37,0,0,0-.53,1.39,8.91,8.91,0,0,0-.15,1.66A9.24,9.24,0,0,0,36.43,14a5.35,5.35,0,0,0,.5,1.43,2.82,2.82,0,0,0,.93,1,2.73,2.73,0,0,0,2.78,0,2.77,2.77,0,0,0,.91-1A5,5,0,0,0,42,14a8.44,8.44,0,0,0,.15-1.69"/><path class="cls-1" d="M53.38,16.5a1.5,1.5,0,0,1,1.2.39,1.46,1.46,0,0,1,.32.9,3.33,3.33,0,0,1,0,.34c0,.09,0,.2,0,.31H46.94V6.17h7.63a2.38,2.38,0,0,1,0,.34,1.62,1.62,0,0,1,0,.33,1.28,1.28,0,0,1-.34,1,1.72,1.72,0,0,1-1.21.32H49.45v3h3.9v1.95h-3.9V16.5"/><path class="cls-1" d="M56.55,6.18l.5-.06.38,0a2.77,2.77,0,0,1,.56.05,1.58,1.58,0,0,1,.52.21,1.28,1.28,0,0,1,.4.43,1.71,1.71,0,0,1,.14.74V12a1.93,1.93,0,0,1,.25-.8,5.19,5.19,0,0,1,.5-.78l2.51-3.29a2.47,2.47,0,0,1,.85-.77,1.86,1.86,0,0,1,.89-.22,2.18,2.18,0,0,1,.87.15,1.84,1.84,0,0,1,.62.4l-4,5.4,4.55,6.16a2.73,2.73,0,0,1-1.44.43,2.38,2.38,0,0,1-2-.95L60,14.21a5,5,0,0,1-.6-.94,2.25,2.25,0,0,1-.31-1v6.17h-2.5"/><path class="cls-1" d="M77.13,12.27a9.73,9.73,0,0,1-.31,2.5,5.8,5.8,0,0,1-1,2.06,4.62,4.62,0,0,1-1.74,1.4,5.7,5.7,0,0,1-2.56.52A5.41,5.41,0,0,1,69,18.22a4.47,4.47,0,0,1-1.71-1.41,5.77,5.77,0,0,1-1-2A9.47,9.47,0,0,1,66,12.28a8.8,8.8,0,0,1,.33-2.43,5.76,5.76,0,0,1,1-2,4.9,4.9,0,0,1,1.76-1.38,5.64,5.64,0,0,1,2.52-.52,5.79,5.79,0,0,1,2.49.5,4.58,4.58,0,0,1,1.69,1.34,5.7,5.7,0,0,1,1,2,9.38,9.38,0,0,1,.31,2.49m-2.58,0a8.92,8.92,0,0,0-.14-1.66,4.87,4.87,0,0,0-.5-1.39,2.89,2.89,0,0,0-.9-.94A2.42,2.42,0,0,0,71.66,8a2.66,2.66,0,0,0-1.43.34,2.88,2.88,0,0,0-.93.94,4.34,4.34,0,0,0-.51,1.39,8.9,8.9,0,0,0-.16,1.66A9.23,9.23,0,0,0,68.79,14a4.74,4.74,0,0,0,.5,1.43,2.71,2.71,0,0,0,.92,1,2.45,2.45,0,0,0,1.39.38,2.55,2.55,0,0,0,1.4-.38,2.75,2.75,0,0,0,.9-1A5.35,5.35,0,0,0,74.4,14a8.44,8.44,0,0,0,.15-1.69"/><path class="cls-1" d="M80.53,14.26c-.88,0-1.31-.38-1.31-1.15a4,4,0,0,1,.06-.78h4.57a2,2,0,0,1,1,.2c.26.13.38.44.38,1v.39l0,.39"/><path class="cls-1" d="M88.52,8.22H84.7v0a2.94,2.94,0,0,1,0-.37c0-.09,0-.2,0-.34A1.35,1.35,0,0,1,85,6.58a1.54,1.54,0,0,1,1.21-.41h8.6a5.11,5.11,0,0,1,0,.78,1.28,1.28,0,0,1-.33.87,1.45,1.45,0,0,1-1.16.4H91.06V18.44H88.52"/><path class="cls-1" d="M102.68,16.5a1.49,1.49,0,0,1,1.2.39,1.46,1.46,0,0,1,.32.9v.34a2.72,2.72,0,0,0,0,.31H96.23V6.17h7.64a2.54,2.54,0,0,1,0,.34c0,.09,0,.2,0,.33a1.32,1.32,0,0,1-.33,1,1.78,1.78,0,0,1-1.23.32H98.76v3h3.89v1.95H98.76V16.5"/><path class="cls-1" d="M109.87,14.39l-2.34,4.05h-2.74l3.62-6.11L105.19,6.5c.25-.11.51-.2.77-.29a3.18,3.18,0,0,1,.82-.11,1.53,1.53,0,0,1,1.47.9L110,10.31l1.81-3.12a2.69,2.69,0,0,1,.71-.84,1.64,1.64,0,0,1,1-.25,2.76,2.76,0,0,1,.68.08,4.48,4.48,0,0,1,.66.28l-3.41,5.76L115,18.37a3.91,3.91,0,0,1-.75.19,3.57,3.57,0,0,1-.69.08,1.9,1.9,0,0,1-1.13-.29,2.53,2.53,0,0,1-.7-.83"/><path class="cls-1" d="M124.23,7.44a4.92,4.92,0,1,1-4.9,4.91,4.91,4.91,0,0,1,4.9-4.91m0-1.55a6.47,6.47,0,1,0,6.48,6.46,6.46,6.46,0,0,0-6.48-6.46"/><path class="cls-1" d="M126.58,10.87a2.43,2.43,0,0,1-.09.7,1.75,1.75,0,0,1-.66.91,1.28,1.28,0,0,1-.45.23L127,15.32a1.94,1.94,0,0,1-.39.12,1.81,1.81,0,0,1-.39.05,1,1,0,0,1-.57-.16,1.33,1.33,0,0,1-.44-.49L124.1,13h-.53v2.38h-1.31V9.09c.3,0,.58-.05.88-.06s.55,0,.79,0a3.46,3.46,0,0,1,2,.46,1.62,1.62,0,0,1,.63,1.4m-1.35.13a1,1,0,0,0-.31-.84,1.4,1.4,0,0,0-.85-.24h-.3a.68.68,0,0,0-.21,0v2.18H124a1.38,1.38,0,0,0,.9-.28,1.07,1.07,0,0,0,.32-.85"/><path class="cls-1" d="M147.42,50.18a2,2,0,0,1-2-2,3.81,3.81,0,0,1,1.78-2.77l-.33-.44a4.65,4.65,0,0,1-1.59,0,8.86,8.86,0,0,0-1.43-.11,4.48,4.48,0,0,1-.38,2.76,2,2,0,0,1-2.71.72,2,2,0,0,1-.73-2.71,3.77,3.77,0,0,1,2.93-1.5c0-.19,0-.37-.07-.56a4.33,4.33,0,0,1-1.39-.76,10.11,10.11,0,0,0-1.2-.81,4.46,4.46,0,0,1-1.7,2.2,2,2,0,0,1-2.71-.73,2,2,0,0,1,.73-2.71,3.81,3.81,0,0,1,3.29.16l.21-.5a4.41,4.41,0,0,1-.82-1.36,9.82,9.82,0,0,0-.64-1.3,4.46,4.46,0,0,1-2.57,1,2,2,0,0,1,0-4,3.76,3.76,0,0,1,2.77,1.78l.45-.33a4.42,4.42,0,0,1-.05-1.59,8.86,8.86,0,0,0,.11-1.43,8.69,8.69,0,0,1-.89.05,3.63,3.63,0,0,1-1.86-.43,2,2,0,0,1-.93-1.2,2,2,0,0,1,2.91-2.24,3.77,3.77,0,0,1,1.51,2.93l.54-.06a4.61,4.61,0,0,1,.77-1.4,9.64,9.64,0,0,0,.81-1.19,4.53,4.53,0,0,1-2.2-1.71,2,2,0,0,1,.72-2.71,2.05,2.05,0,0,1,2.72.73,3.81,3.81,0,0,1-.16,3.29c.17.07.35.14.51.22a4.51,4.51,0,0,1,1.36-.83,9.62,9.62,0,0,0,1.29-.62,4.57,4.57,0,0,1-1.05-2.58,2,2,0,1,1,4,0,3.74,3.74,0,0,1-1.78,2.76q.17.24.33.45a4.67,4.67,0,0,1,1.59,0,8.79,8.79,0,0,0,1.44.1,4.41,4.41,0,0,1,.37-2.76,2.05,2.05,0,0,1,2.71-.73,2,2,0,0,1,.73,2.71,3.76,3.76,0,0,1-2.93,1.51q0,.29.06.54a4.78,4.78,0,0,1,1.41.77,7.51,7.51,0,0,0,1.19.8,4.52,4.52,0,0,1,1.69-2.19,2,2,0,0,1,2.92,2.24,2,2,0,0,1-.93,1.2,3.82,3.82,0,0,1-3.28-.16c-.08.17-.14.34-.22.51a4.69,4.69,0,0,1,.82,1.36,7.75,7.75,0,0,0,.64,1.29,4.46,4.46,0,0,1,2.56-1.05,2,2,0,0,1,0,4A3.81,3.81,0,0,1,156,37.09l-.44.33a4.68,4.68,0,0,1,0,1.59,10.16,10.16,0,0,0-.1,1.44,6.65,6.65,0,0,1,.89-.06,3.63,3.63,0,0,1,1.86.43,2,2,0,0,1,.73,2.71,2,2,0,0,1-2.71.73,3.79,3.79,0,0,1-1.51-2.93l-.54.07a4.73,4.73,0,0,1-.77,1.4,7.51,7.51,0,0,0-.8,1.19,4.48,4.48,0,0,1,2.19,1.7,2,2,0,0,1-.73,2.71,2,2,0,0,1-2.71-.72,3.83,3.83,0,0,1,.17-3.3c-.18-.06-.35-.14-.52-.21a4.56,4.56,0,0,1-1.35.82,8.24,8.24,0,0,0-1.3.63,4.52,4.52,0,0,1,1,2.58,2,2,0,0,1-2,2m.28-4.12a3.1,3.1,0,0,0-1.46,2.14,1.19,1.19,0,0,0,2.38,0,3.9,3.9,0,0,0-.92-2.14m4.55-1.36a3.06,3.06,0,0,0-.2,2.57,1.22,1.22,0,0,0,1.63.44,1.2,1.2,0,0,0,.43-1.63,3.92,3.92,0,0,0-1.86-1.38m-9.18.27a3.09,3.09,0,0,0-2.33,1.12,1.18,1.18,0,0,0,.43,1.62,1.22,1.22,0,0,0,1.63-.44,3.81,3.81,0,0,0,.27-2.3m4.81,0h0a9.18,9.18,0,0,1,1.47-.74,3.61,3.61,0,0,0,.89-.48,2.16,2.16,0,0,1-.76-.74,1.29,1.29,0,0,1,.46-1.76,1.31,1.31,0,0,1,1.76.47,1.66,1.66,0,0,1-.15,1.8l.31.13h0a10.59,10.59,0,0,1,.92-1.37,3.58,3.58,0,0,0,.52-.87,2.06,2.06,0,0,1-1-.25,1.3,1.3,0,0,1-.47-1.77,1.33,1.33,0,0,1,1.76-.47,1.69,1.69,0,0,1,.76,1.64l.33,0h0a9.28,9.28,0,0,1,.11-1.65,3.82,3.82,0,0,0,0-1,2.18,2.18,0,0,1-1,.29,1.29,1.29,0,1,1,0-2.57,1.68,1.68,0,0,1,1.48,1l.25-.2h0a10.72,10.72,0,0,1-.73-1.48,4,4,0,0,0-.48-.89,2.27,2.27,0,0,1-.74.77,1.33,1.33,0,0,1-1.76-.48,1.24,1.24,0,0,1-.13-1,1.34,1.34,0,0,1,.6-.78,1.71,1.71,0,0,1,1.8.16l.13-.31h0a9.94,9.94,0,0,1-1.37-.92A3.58,3.58,0,0,0,152,31a2.1,2.1,0,0,1-.26,1,1.32,1.32,0,0,1-1.75.48,1.29,1.29,0,0,1-.47-1.77,1.65,1.65,0,0,1,1.63-.76c0-.11,0-.22,0-.32h0a9.35,9.35,0,0,1-1.64-.11,3.76,3.76,0,0,0-1,0,2.26,2.26,0,0,1,.28,1,1.29,1.29,0,0,1-2.58,0,1.67,1.67,0,0,1,1-1.48L147,28.8h0a9.15,9.15,0,0,1-1.47.73,4,4,0,0,0-.89.49,2.21,2.21,0,0,1,.76.73,1.29,1.29,0,0,1-.48,1.76,1.19,1.19,0,0,1-.64.18,1.3,1.3,0,0,1-1.12-.65,1.66,1.66,0,0,1,.16-1.8L143,30.1h0a9.94,9.94,0,0,1-.92,1.37,4,4,0,0,0-.53.87,2.1,2.1,0,0,1,1,.26,1.27,1.27,0,0,1,.47,1.75,1.31,1.31,0,0,1-1.75.48,1.67,1.67,0,0,1-.77-1.64l-.33,0h0a10.27,10.27,0,0,1-.11,1.64,3.82,3.82,0,0,0,0,1,2.15,2.15,0,0,1,1-.29,1.29,1.29,0,1,1,0,2.57,1.65,1.65,0,0,1-1.47-1l-.26.2h0a10.85,10.85,0,0,1,.73,1.49,3.73,3.73,0,0,0,.48.88,2.27,2.27,0,0,1,.74-.77,1.33,1.33,0,0,1,1.76.47,1.3,1.3,0,0,1-.47,1.77,1.72,1.72,0,0,1-1.8-.16l-.13.31h0a10.59,10.59,0,0,1,1.37.92,3.58,3.58,0,0,0,.87.52,2.18,2.18,0,0,1,.25-1,1.33,1.33,0,0,1,1.76-.47,1.3,1.3,0,0,1,.48,1.76,1.74,1.74,0,0,1-1.64.77c0,.1,0,.21,0,.32h0a9.1,9.1,0,0,1,1.64.11,3.91,3.91,0,0,0,1,0,2.28,2.28,0,0,1-.3-1,1.29,1.29,0,0,1,2.58,0,1.67,1.67,0,0,1-1,1.49l.2.26m-.46-2.24a.49.49,0,0,0-.49.49,1.62,1.62,0,0,0,.29.82c.44-.19.7-.48.7-.82a.49.49,0,0,0-.5-.49m8.09-1.5a3.06,3.06,0,0,0,1.12,2.34,1.22,1.22,0,0,0,1.62-.45,1.19,1.19,0,0,0-.44-1.62,2.82,2.82,0,0,0-1.46-.32,8,8,0,0,0-.84.05m-17.6.06a1.69,1.69,0,0,0-.88.21,1.18,1.18,0,0,0-.43,1.62,1.23,1.23,0,0,0,1.63.44,3.89,3.89,0,0,0,1.39-1.86,4.64,4.64,0,0,0-1.71-.41m12.68.59a.42.42,0,0,0-.24.07.5.5,0,0,0-.18.67,1.57,1.57,0,0,0,.67.56,1,1,0,0,0,.19-1,.5.5,0,0,0-.44-.25M143.67,43a1,1,0,0,0,1-.36.49.49,0,0,0-.19-.67.5.5,0,0,0-.67.18,1.59,1.59,0,0,0-.15.85m9.25-3.43a.5.5,0,0,0-.24.93,1.76,1.76,0,0,0,.85.16,1,1,0,0,0-.36-1,.55.55,0,0,0-.25-.07m-11.8.74a1,1,0,0,0,1,.19.51.51,0,0,0,.19-.68.54.54,0,0,0-.69-.18,1.79,1.79,0,0,0-.55.67m15.49-3.69a3.06,3.06,0,0,0,2.12,1.47,1.19,1.19,0,1,0,0-2.38,3.8,3.8,0,0,0-2.12.91m-20.5-.91a1.19,1.19,0,1,0,0,2.38,3.84,3.84,0,0,0,2.13-.92,3.07,3.07,0,0,0-2.13-1.46m17.67.69a.5.5,0,1,0,0,1,1.72,1.72,0,0,0,.82-.29c-.2-.44-.5-.7-.82-.7m-13.53.29c.2.45.5.7.82.7a.5.5,0,1,0,0-1,1.72,1.72,0,0,0-.82.29M153,33.19a.57.57,0,0,0-.32.09.46.46,0,0,0-.23.3.5.5,0,0,0,0,.38.51.51,0,0,0,.68.18,1.67,1.67,0,0,0,.56-.66,1.24,1.24,0,0,0-.73-.29m-11.68-.06a1,1,0,0,0,.35,1,.52.52,0,0,0,.69-.18.5.5,0,0,0,0-.38.46.46,0,0,0-.23-.3,1.48,1.48,0,0,0-.85-.15M137.63,30a1.19,1.19,0,0,0-1,.59,1.16,1.16,0,0,0-.12.91,1.18,1.18,0,0,0,.55.72,2.91,2.91,0,0,0,1.47.33,7.89,7.89,0,0,0,.84-.05,3.09,3.09,0,0,0-1.11-2.34,1.25,1.25,0,0,0-.6-.16m17.6,2a3.09,3.09,0,0,0,2.58.2,1.16,1.16,0,0,0,.56-.72,1.21,1.21,0,0,0-.12-.91,1.23,1.23,0,0,0-1.63-.43,3.94,3.94,0,0,0-1.39,1.86M151,30.77a.89.89,0,0,0-.81.37.48.48,0,0,0,0,.37.52.52,0,0,0,.23.31.52.52,0,0,0,.68-.19,1.72,1.72,0,0,0,.15-.85H151m-7-.19a1,1,0,0,0-.2,1.05.48.48,0,0,0,.43.25.54.54,0,0,0,.25-.06.51.51,0,0,0,.18-.69,1.75,1.75,0,0,0-.66-.55m3.61-.86c-.44.19-.7.49-.7.82a.5.5,0,0,0,1,0,1.76,1.76,0,0,0-.29-.82m-5.86-3.82a1.15,1.15,0,0,0-.6.16,1.18,1.18,0,0,0-.43,1.62,3.74,3.74,0,0,0,1.85,1.39,3,3,0,0,0,.21-2.57,1.17,1.17,0,0,0-1-.6m11.31,0a1.18,1.18,0,0,0-1,.6,3.84,3.84,0,0,0-.28,2.31,3,3,0,0,0,2.34-1.13,1.19,1.19,0,0,0-.44-1.62,1.09,1.09,0,0,0-.59-.16m-5.66-1.52a1.19,1.19,0,0,0-1.18,1.2,3.88,3.88,0,0,0,.91,2.13,3.07,3.07,0,0,0,1.47-2.13,1.2,1.2,0,0,0-1.2-1.2"/><path class="cls-1" d="M143,36.65a4.6,4.6,0,0,1,.54-1.9H145a9.6,9.6,0,0,0-.22,1.9"/><path class="cls-1" d="M145.14,39.51a5.89,5.89,0,0,0,.64,1.52,4.37,4.37,0,0,1-2-1.52"/><path class="cls-1" d="M144.81,37.12A10.63,10.63,0,0,0,145,39h-1.52a4.55,4.55,0,0,1-.55-1.91"/><path class="cls-1" d="M143.81,34.27a4.48,4.48,0,0,1,2-1.54,5.84,5.84,0,0,0-.63,1.54"/><path class="cls-1" d="M149.07,32.74a4.5,4.5,0,0,1,2,1.53h-1.33a6,6,0,0,0-.64-1.53"/><path class="cls-1" d="M151,39.51a4.48,4.48,0,0,1-2,1.52,5.89,5.89,0,0,0,.64-1.52"/><path class="cls-1" d="M151.89,37.12a4.41,4.41,0,0,1-.55,1.91h-1.52a10.63,10.63,0,0,0,.22-1.91"/><path class="cls-1" d="M151.34,34.75a4.33,4.33,0,0,1,.55,1.9H150a10.41,10.41,0,0,0-.22-1.9"/><path class="cls-1" d="M146.56,32.51a6,6,0,0,1,.63-.09v1.85h-1.56a4.26,4.26,0,0,1,.93-1.76"/><path class="cls-1" d="M145.29,36.65a9,9,0,0,1,.22-1.9h1.68v1.9"/><path class="cls-1" d="M145.51,39a9.2,9.2,0,0,1-.22-1.91h1.9V39"/><path class="cls-1" d="M147.19,41.34a6.07,6.07,0,0,1-.63-.07,4.4,4.4,0,0,1-.93-1.76h1.56"/><path class="cls-1" d="M149.22,39.51a4.52,4.52,0,0,1-.92,1.76,6.27,6.27,0,0,1-.64.07V39.51"/><path class="cls-1" d="M149.56,37.12a9.28,9.28,0,0,1-.22,1.91h-1.68V37.12"/><path class="cls-1" d="M149.34,34.75a9.69,9.69,0,0,1,.23,1.9h-1.91v-1.9"/><path class="cls-1" d="M147.66,32.42c.22,0,.43,0,.64.09a4.38,4.38,0,0,1,.92,1.76h-1.56"/><path class="cls-1" d="M22.87,40.42a7.14,7.14,0,0,0,1.13.71,3.39,3.39,0,0,0,1.59.35,3.07,3.07,0,0,0,.67-.08,1.84,1.84,0,0,0,.59-.25,1.7,1.7,0,0,0,.42-.46,1.29,1.29,0,0,0,.16-.68,1.37,1.37,0,0,0-.18-.72,1.63,1.63,0,0,0-.48-.5,3.18,3.18,0,0,0-.69-.35l-.81-.29c-.35-.12-.7-.26-1.06-.4a3.48,3.48,0,0,1-1-.55,2.65,2.65,0,0,1-.7-.88,3,3,0,0,1,.9-3.75A3.82,3.82,0,0,1,24.7,32a5.23,5.23,0,0,1,1.5-.21,6.36,6.36,0,0,1,1,.08,7.44,7.44,0,0,1,.84.2,5.8,5.8,0,0,1,.62.24,3,3,0,0,1,.39.22.81.81,0,0,1,.46.74,1.32,1.32,0,0,1-.17.53,3.12,3.12,0,0,1-.49.66,5.11,5.11,0,0,0-1.06-.62,3.28,3.28,0,0,0-1.39-.3,4.34,4.34,0,0,0-.61.06,2,2,0,0,0-.57.2,1.18,1.18,0,0,0-.42.38,1.09,1.09,0,0,0-.16.61,1,1,0,0,0,.16.59,1.48,1.48,0,0,0,.45.45,3.58,3.58,0,0,0,.65.33l.76.3c.36.13.71.27,1.07.42a4.22,4.22,0,0,1,1,.58,2.77,2.77,0,0,1,.73.89,2.89,2.89,0,0,1,.27,1.33,3.66,3.66,0,0,1-.3,1.53,3.24,3.24,0,0,1-.85,1.12,3.64,3.64,0,0,1-1.31.69,5.87,5.87,0,0,1-1.67.22A6.71,6.71,0,0,1,23.68,43a7,7,0,0,1-1.06-.43,1.44,1.44,0,0,1-.33-.32.71.71,0,0,1-.13-.4,1.56,1.56,0,0,1,.22-.68,7.74,7.74,0,0,1,.49-.73"/><path class="cls-1" d="M33.88,33.81H30.44v0a2.43,2.43,0,0,1,0-.33c0-.09,0-.18,0-.31a1.24,1.24,0,0,1,.32-.81A1.39,1.39,0,0,1,31.79,32h7.74a5.36,5.36,0,0,1,0,.7,1.19,1.19,0,0,1-.3.78,1.34,1.34,0,0,1-1.05.35H36.15v9.13H33.88"/><path class="cls-1" d="M45.85,42.94l-.94-2.68h-3.8l-.91,2.68H38l3.82-10.8a5.38,5.38,0,0,1,.56-.16,4.47,4.47,0,0,1,.76-.07l.4,0a1.41,1.41,0,0,1,.44.14,1.39,1.39,0,0,1,.71.84l3.53,10M43,34l-1.49,4.66h2.94Z"/><path class="cls-1" d="M58.09,42.94h-1.9l-4.7-7.2v7.2H49.34V32a3.13,3.13,0,0,1,.44-.07,5.25,5.25,0,0,1,.56,0,1.62,1.62,0,0,1,.83.18,1.67,1.67,0,0,1,.52.56l4.25,6.88V32l.42-.07.32,0a2.72,2.72,0,0,1,.49.05,1.44,1.44,0,0,1,.46.19,1.07,1.07,0,0,1,.33.39,1.31,1.31,0,0,1,.13.65"/><path class="cls-1" d="M69,37.28a7.83,7.83,0,0,1-.31,2.19,5.11,5.11,0,0,1-1,1.8,4.52,4.52,0,0,1-1.64,1.22,5.61,5.61,0,0,1-2.34.45H60.28V32.07c.7-.09,1.31-.14,1.81-.16l1.29,0a7.37,7.37,0,0,1,2.73.43,4.52,4.52,0,0,1,1.74,1.17,4.27,4.27,0,0,1,.92,1.72A7.75,7.75,0,0,1,69,37.28m-2.31,0a6.64,6.64,0,0,0-.14-1.44,3.18,3.18,0,0,0-.51-1.17,2.47,2.47,0,0,0-1-.78,3.56,3.56,0,0,0-1.56-.29c-.31,0-.65,0-1,0v7.54h.91a3.89,3.89,0,0,0,1.6-.28,2.41,2.41,0,0,0,1-.81,3.16,3.16,0,0,0,.52-1.24,7.67,7.67,0,0,0,.14-1.58"/><path class="cls-1" d="M77.06,42.94l-.94-2.68h-3.8l-.91,2.68H69.18L73,32.14c.13,0,.32-.1.55-.16a4.59,4.59,0,0,1,.77-.07l.4,0a1.5,1.5,0,0,1,.44.14,1.39,1.39,0,0,1,.71.84l3.54,10m-5.16-9-1.49,4.66h3Z"/><path class="cls-1" d="M88.14,35.12A3.72,3.72,0,0,1,88,36.33a2.9,2.9,0,0,1-.47.91,3,3,0,0,1-.68.66,3.76,3.76,0,0,1-.76.41l2.71,4.51a3,3,0,0,1-.66.2,2.59,2.59,0,0,1-.66.08,1.91,1.91,0,0,1-1-.26,2.36,2.36,0,0,1-.75-.85L83.8,38.82h-.91v4.12H80.63V32c.49-.05,1-.09,1.51-.12s1,0,1.4,0a6.05,6.05,0,0,1,3.49.8,2.81,2.81,0,0,1,1.11,2.44m-2.36.21a1.73,1.73,0,0,0-.55-1.45,2.37,2.37,0,0,0-1.48-.42l-.51,0-.36,0v3.78h.77a2.35,2.35,0,0,0,1.56-.48,1.82,1.82,0,0,0,.57-1.48"/><path class="cls-1" d="M98.84,37.28a7.48,7.48,0,0,1-.31,2.19,5.26,5.26,0,0,1-1,1.8,4.7,4.7,0,0,1-1.64,1.22,5.7,5.7,0,0,1-2.35.45h-3.5V32.07c.7-.09,1.3-.14,1.8-.16l1.29,0a7.37,7.37,0,0,1,2.73.43,4.52,4.52,0,0,1,1.74,1.17,4.27,4.27,0,0,1,.92,1.72,7.75,7.75,0,0,1,.27,2.08m-2.3,0a6.63,6.63,0,0,0-.15-1.44,3,3,0,0,0-.51-1.17,2.47,2.47,0,0,0-1-.78,3.56,3.56,0,0,0-1.56-.29c-.31,0-.64,0-1,0v7.54h.9a4,4,0,0,0,1.61-.28,2.51,2.51,0,0,0,1-.81,3,3,0,0,0,.52-1.24,7.64,7.64,0,0,0,.15-1.58"/><path class="cls-1" d="M107.6,42.94V34.68l-2.16,1.07c-.15-.2-.31-.43-.45-.66a1.29,1.29,0,0,1-.22-.68.74.74,0,0,1,.12-.39,1.1,1.1,0,0,1,.41-.34l2.33-1.21c.22-.11.43-.21.64-.29a1.68,1.68,0,0,1,.63-.12,1.53,1.53,0,0,1,.56.09,3.15,3.15,0,0,1,.36.17V42.94"/><path class="cls-1" d="M120.93,37.59a7.45,7.45,0,0,1-1,4.14,3.46,3.46,0,0,1-3.07,1.45,3.56,3.56,0,0,1-3.09-1.4,7.24,7.24,0,0,1-1-4.19,9.42,9.42,0,0,1,.26-2.34,5.11,5.11,0,0,1,.77-1.77,3.53,3.53,0,0,1,1.3-1.13A4,4,0,0,1,117,32a4.12,4.12,0,0,1,1.83.38A3.28,3.28,0,0,1,120,33.45a5.08,5.08,0,0,1,.7,1.77,11.24,11.24,0,0,1,.22,2.37m-2.22,0a10.59,10.59,0,0,0-.13-1.83,4.23,4.23,0,0,0-.35-1.19,1.59,1.59,0,0,0-.56-.65,1.52,1.52,0,0,0-1.54,0,1.51,1.51,0,0,0-.59.65,3.9,3.9,0,0,0-.36,1.19,11.69,11.69,0,0,0-.13,1.83,11.05,11.05,0,0,0,.13,1.79,3.82,3.82,0,0,0,.36,1.19,1.6,1.6,0,0,0,.59.66,1.62,1.62,0,0,0,1.54,0,1.66,1.66,0,0,0,.56-.65,4.23,4.23,0,0,0,.35-1.19,10.19,10.19,0,0,0,.13-1.81"/><path class="cls-1" d="M130,37.59a7.37,7.37,0,0,1-1,4.14,3.44,3.44,0,0,1-3.06,1.45,3.53,3.53,0,0,1-3.08-1.4,7.16,7.16,0,0,1-1-4.19,9.94,9.94,0,0,1,.25-2.34,5.12,5.12,0,0,1,.78-1.77,3.58,3.58,0,0,1,1.29-1.13,4.52,4.52,0,0,1,3.65,0A3.13,3.13,0,0,1,129,33.45a5.09,5.09,0,0,1,.71,1.77,12,12,0,0,1,.22,2.37m-2.23,0a11.82,11.82,0,0,0-.12-1.83,3.9,3.9,0,0,0-.36-1.19,1.46,1.46,0,0,0-.56-.65,1.41,1.41,0,0,0-.77-.21,1.46,1.46,0,0,0-.77.21,1.49,1.49,0,0,0-.58.65,3.9,3.9,0,0,0-.36,1.19,10.59,10.59,0,0,0-.13,1.83,10,10,0,0,0,.13,1.79,3.82,3.82,0,0,0,.36,1.19,1.58,1.58,0,0,0,.58.66,1.55,1.55,0,0,0,.77.2,1.49,1.49,0,0,0,.77-.19,1.51,1.51,0,0,0,.56-.65,3.9,3.9,0,0,0,.36-1.19,11.37,11.37,0,0,0,.12-1.81"/><path class="cls-1" d="M59.94,53.62V49.26l-1.13.57-.23-.35a.89.89,0,0,1-.12-.35c0-.08,0-.14.07-.21s.11-.13.21-.18L60,48.1A1,1,0,0,1,60.3,48a.5.5,0,0,1,.34-.07.86.86,0,0,1,.3,0,.42.42,0,0,1,.19.09v5.6H59.94"/><path class="cls-1" d="M65.59,51.71a2.68,2.68,0,0,0-.17-.8.69.69,0,0,0-.62-.29,1.15,1.15,0,0,0-.26,0,.51.51,0,0,0-.24.08c-.13,0-.14.07-.2.1s-.1.07-.14.1a1.74,1.74,0,0,0,0,.23,2.21,2.21,0,0,0,0,.26,3,3,0,0,0,0,.49,1.06,1.06,0,0,0,.13.46c0,.13.15.25.26.34a1.33,1.33,0,0,0,.45.14.75.75,0,0,0,.55-.3,2.14,2.14,0,0,0,.21-.84m1.2-.11a3.93,3.93,0,0,1-.16.94,5.53,5.53,0,0,1-.42.69,2.71,2.71,0,0,1-.62.42,2.79,2.79,0,0,1-.78.14,3.66,3.66,0,0,1-.91-.18,1.76,1.76,0,0,1-.63-.5,1.57,1.57,0,0,1-.38-.79,3.7,3.7,0,0,1-.12-1A3.36,3.36,0,0,1,63,49.77a2.64,2.64,0,0,1,.65-1.06,2.11,2.11,0,0,1,.91-.63,2.65,2.65,0,0,1,1-.2,1.09,1.09,0,0,1,.5.1c.1,0,.17.21.17.43-.07,0,0,.13,0,.2s0,.15,0,.22-.15,0-.21,0-.13,0-.23,0a1.07,1.07,0,0,0-.67.12,1.08,1.08,0,0,0-.51.31,1.18,1.18,0,0,0-.35.41.75.75,0,0,0-.2.41c0-.12.24-.17.44-.26a1.35,1.35,0,0,1,.7-.14,1.17,1.17,0,0,1,.72.16,1.3,1.3,0,0,1,.5.41,3,3,0,0,1,.28.62c0,.22.1.47.1.73"/><path class="cls-1" d="M69.36,53.62V49.26l-1.12.57L68,49.48a1,1,0,0,1-.11-.35c0-.08,0-.14.07-.21s.11-.13.21-.18l1.21-.64a1,1,0,0,1,.34-.15.53.53,0,0,1,.34-.07.91.91,0,0,1,.31,0,.42.42,0,0,1,.19.09v5.6h-1.2"/><path class="cls-1" d="M72.34,53.62v-.83c.09-.1.23-.19.37-.32s.3-.26.45-.41a5.3,5.3,0,0,1,.48-.47,4.41,4.41,0,0,1,.47-.49c.18-.26.4-.49.53-.73a1.71,1.71,0,0,0,.21-.75c-.07-.18,0-.28-.07-.38a.82.82,0,0,0-.2-.25.69.69,0,0,0-.26-.13c-.13-.08-.19,0-.3,0a1.1,1.1,0,0,0-.76.19,1.66,1.66,0,0,0-.59.44,1.51,1.51,0,0,1-.29-.37c-.11-.18-.12-.22-.12-.3s0-.13.06-.18.09-.11.15-.15.13-.1.23-.17.22-.13.36-.19a1.29,1.29,0,0,1,.49-.15,1.38,1.38,0,0,1,.61-.07,2.78,2.78,0,0,1,.73.1,1.09,1.09,0,0,1,.6.29,1.31,1.31,0,0,1,.41.51,4,4,0,0,1,.14.76c0,.14,0,.42-.1.62s-.16.4-.28.59a5.44,5.44,0,0,0-.39.55,4.11,4.11,0,0,0-.45.51c-.22.12-.32.32-.47.47a2.07,2.07,0,0,0-.43.39h1.65a.52.52,0,0,1,.35.06s.16.09.21.15.09.13.12.2,0,.15,0,.22,0,.12,0,.17,0,.09,0,.15H72.34"/><path class="cls-1" d="M79.9,50.84c0-.38,0-.69-.06-1a2.34,2.34,0,0,0-.18-.62.69.69,0,0,0-.3-.34.65.65,0,0,0-.39-.1.47.47,0,0,0-.4.1.64.64,0,0,0-.3.34c-.15.11-.15.36-.19.62a5,5,0,0,0-.06,1,2.77,2.77,0,0,0,.06.94,2.51,2.51,0,0,0,.19.62c0,.13.18.27.3.34s.25.11.4.11a1.25,1.25,0,0,0,.39-.11,1.55,1.55,0,0,0,.3-.33,4.33,4.33,0,0,0,.18-.62c0-.29.06-.57.06-.95m1.2,0A3.92,3.92,0,0,1,80.58,53a1.92,1.92,0,0,1-1.61.77,2,2,0,0,1-1.62-.74,3.52,3.52,0,0,1-.53-2.21A4.6,4.6,0,0,1,77,49.62a1.87,1.87,0,0,1,.4-.94,1.22,1.22,0,0,1,.69-.59,1.76,1.76,0,0,1,1-.21,2,2,0,0,1,1,.21,2.18,2.18,0,0,1,.65.58,3.4,3.4,0,0,1,.36.93,10.23,10.23,0,0,1,.12,1.24"/><path class="cls-1" d="M84.45,51.71a2.37,2.37,0,0,0-.18-.8.67.67,0,0,0-.62-.29,1,1,0,0,0-.25,0,.47.47,0,0,0-.24.08c-.13,0-.14.07-.2.1s-.11.07-.14.1a1.74,1.74,0,0,0,0,.23,2.21,2.21,0,0,0,0,.26,3,3,0,0,0,0,.49,1.21,1.21,0,0,0,.12.46c0,.13.15.25.26.34a1.48,1.48,0,0,0,.46.14.75.75,0,0,0,.55-.3,2.14,2.14,0,0,0,.21-.84m1.19-.11a3.93,3.93,0,0,1-.15.94,7.06,7.06,0,0,1-.42.69,3,3,0,0,1-.63.42,2.67,2.67,0,0,1-.78.14,3.58,3.58,0,0,1-.9-.18,1.9,1.9,0,0,1-.64-.5,1.76,1.76,0,0,1-.38-.79,4.1,4.1,0,0,1-.12-1,3.35,3.35,0,0,1,.25-1.51,2.44,2.44,0,0,1,.65-1.06,2.13,2.13,0,0,1,.9-.63,2.66,2.66,0,0,1,1-.2,1,1,0,0,1,.49.1c.11,0,.17.21.17.43-.06,0,0,.13,0,.2s0,.15,0,.22-.15,0-.21,0-.14,0-.24,0A1.08,1.08,0,0,0,84,49a1.1,1.1,0,0,0-.5.31,1.08,1.08,0,0,0-.35.41.69.69,0,0,0-.2.41c0-.12.24-.17.44-.26a1.29,1.29,0,0,1,.69-.14,1.16,1.16,0,0,1,.72.16,1.23,1.23,0,0,1,.5.41,3,3,0,0,1,.29.62c0,.22.09.47.09.73"/><path class="cls-1" d="M89.16,51.71a2.68,2.68,0,0,0-.17-.8.69.69,0,0,0-.62-.29,1.15,1.15,0,0,0-.26,0,.51.51,0,0,0-.24.08c-.13,0-.14.07-.2.1s-.1.07-.14.1a1.74,1.74,0,0,0,0,.23,2.21,2.21,0,0,0,0,.26,3,3,0,0,0,0,.49,1.06,1.06,0,0,0,.13.46c0,.13.15.25.26.34a1.33,1.33,0,0,0,.45.14.75.75,0,0,0,.55-.3,2.14,2.14,0,0,0,.21-.84m1.19-.11a3.49,3.49,0,0,1-.15.94,7.06,7.06,0,0,1-.42.69,2.71,2.71,0,0,1-.62.42,2.79,2.79,0,0,1-.78.14,3.66,3.66,0,0,1-.91-.18,1.76,1.76,0,0,1-.63-.5,1.57,1.57,0,0,1-.38-.79,3.71,3.71,0,0,1-.13-1,3.5,3.5,0,0,1,.25-1.51,2.64,2.64,0,0,1,.65-1.06,2.11,2.11,0,0,1,.91-.63,2.61,2.61,0,0,1,1-.2,1.09,1.09,0,0,1,.5.1c.1,0,.17.21.17.43-.07,0,0,.13,0,.2s0,.15,0,.22-.15,0-.21,0-.13,0-.23,0a1.11,1.11,0,0,0-.68.12,1.1,1.1,0,0,0-.5.31,1.08,1.08,0,0,0-.35.41.75.75,0,0,0-.2.41c0-.12.24-.17.44-.26a1.33,1.33,0,0,1,.69-.14,1.19,1.19,0,0,1,.73.16,1.2,1.2,0,0,1,.49.41,2.56,2.56,0,0,1,.29.62c0,.22.09.47.09.73"/><path class="cls-1" d="M97.33,53.33c-.1,0-.1.07-.18.13l-.31.15c-.17,0-.29.09-.47.12s-.4.06-.64.06a4.68,4.68,0,0,1-1.2-.22A2.54,2.54,0,0,1,93.7,53a2,2,0,0,1-.48-1,3,3,0,0,1-.16-1.19,3.81,3.81,0,0,1,.17-1.2,2,2,0,0,1,.5-1,1.68,1.68,0,0,1,.83-.62,2.07,2.07,0,0,1,1.18-.23,1.22,1.22,0,0,1,.6.06,2.15,2.15,0,0,1,.47.14.81.81,0,0,1,.34.16c.08,0,.15.11.2.15a.53.53,0,0,1,.13.16,1,1,0,0,1,.06.2c-.07,0,0,.23-.13.34a2.92,2.92,0,0,0-.28.32,1.65,1.65,0,0,0-.24-.21,2.67,2.67,0,0,1-.28-.19,3.31,3.31,0,0,0-.36-.14,1,1,0,0,0-.45,0,1.1,1.1,0,0,0-.73.18,1.18,1.18,0,0,0-.48.46,1.64,1.64,0,0,0-.25.65,1.58,1.58,0,0,0-.08.75,2.38,2.38,0,0,0,.08.78,1.24,1.24,0,0,0,.26.66,1.65,1.65,0,0,0,.49.45,2.07,2.07,0,0,0,.76.18c.16,0,.31,0,.44-.06a3,3,0,0,0,.36-.15c0-.09.19-.12.26-.18s.15-.12.2-.16.07.09.12.14.09.12.12.18a.86.86,0,0,1,.11.19s0,.12,0,.17,0,.13,0,.18-.07.11-.13.17"/><path class="cls-1" d="M100.86,51.13a1.46,1.46,0,0,0-.17-.67.62.62,0,0,0-.58-.27.68.68,0,0,0-.58.25,1,1,0,0,0-.21.69h1.54m-.44,1.72c.12,0,.26,0,.37-.05l.29-.11c.06-.1.16-.1.22-.16s.12-.1.18-.15.13.2.21.34a.76.76,0,0,1,.11.34c-.06.11-.07.26-.21.37a3.14,3.14,0,0,1-.52.25,3.57,3.57,0,0,1-.78.11c-.32-.06-.53,0-.79-.11a2.11,2.11,0,0,1-.7-.36,1.55,1.55,0,0,1-.49-.7,2.33,2.33,0,0,1-.19-1.1,1.82,1.82,0,0,1,.17-.94,1.21,1.21,0,0,1,.45-.65,1.1,1.1,0,0,1,.64-.39,2.11,2.11,0,0,1,.73-.12,1.74,1.74,0,0,1,.82.15,1.76,1.76,0,0,1,.55.4,1.23,1.23,0,0,1,.31.57c0,.17.09.44.09.67,0,0,0,.07,0,.12a.64.64,0,0,0,0,.14.75.75,0,0,0,0,.15s0,.09,0,.11H99.32a1.28,1.28,0,0,0,.29.8,1.18,1.18,0,0,0,.81.32"/><path class="cls-1" d="M104,53.62h-1.2V49.55l.1,0c0-.07.07,0,.12,0s.1,0,.17,0a.6.6,0,0,1,.47.1.48.48,0,0,1,.25.35c.06-.2.25-.26.46-.37a1.43,1.43,0,0,1,.83-.17,1.28,1.28,0,0,1,.91.25,1.23,1.23,0,0,1,.38.63c0,.09,0,.28.06.43s0,.31,0,.46v2.43h-1.2V51.24a2.58,2.58,0,0,1,0-.35.9.9,0,0,0-.06-.28c0-.15-.1-.14-.18-.18a.73.73,0,0,0-.35-.06.64.64,0,0,0-.54.13.33.33,0,0,0-.22.33v2.79"/><path class="cls-1" d="M107.6,53a.56.56,0,0,1-.08-.36,1.29,1.29,0,0,1,0-.38v-4s.09,0,.14,0a.22.22,0,0,1,.13-.06c0-.09.09,0,.14,0s.19,0,.28,0,.18,0,.26.1a1.6,1.6,0,0,1,.18.21,2.64,2.64,0,0,1,.07.35v.6h1.2v.94h-1.2v1.8a.48.48,0,0,0,.49.6,1.57,1.57,0,0,1,.23,0,1.11,1.11,0,0,1,.19-.09c0-.09.11-.06.15-.1s.07-.06.09-.07.15.23.19.33a.66.66,0,0,1,.08.26c-.05,0,0,.16-.1.23s-.14.14-.25.2-.24.12-.39.16-.33.06-.51.06a1.92,1.92,0,0,1-.84-.21,1.05,1.05,0,0,1-.43-.54"/><path class="cls-1" d="M113.28,51.13a1.35,1.35,0,0,0-.16-.67.62.62,0,0,0-.58-.27.65.65,0,0,0-.58.25.92.92,0,0,0-.21.69h1.53m-.43,1.72c.11,0,.26,0,.37-.05s.2-.07.29-.11.16-.1.22-.16.12-.1.17-.15.14.2.22.34a.76.76,0,0,1,.11.34.91.91,0,0,1-.22.37,2.69,2.69,0,0,1-.51.25,3.67,3.67,0,0,1-.78.11c-.32-.06-.53,0-.79-.11a2,2,0,0,1-.7-.36,1.65,1.65,0,0,1-.5-.7,2.47,2.47,0,0,1-.18-1.1,1.73,1.73,0,0,1,.16-.94,1.28,1.28,0,0,1,.46-.65,1.1,1.1,0,0,1,.64-.39,2.11,2.11,0,0,1,.73-.12,1.76,1.76,0,0,1,.82.15,1.89,1.89,0,0,1,.55.4,1.33,1.33,0,0,1,.31.57c0,.17.09.44.09.67,0,0,0,.07,0,.12a.64.64,0,0,0,0,.14.75.75,0,0,0,0,.15s0,.09,0,.11h-2.56a1.27,1.27,0,0,0,.28.8,1.22,1.22,0,0,0,.82.32"/><path class="cls-1" d="M116.75,50.81l.46-.77a.8.8,0,0,1,.34-.4c.1-.12.29-.13.51-.13.07-.06.22,0,.32,0a1.36,1.36,0,0,1,.28.11l-1.29,2,1.24,2a2,2,0,0,1-.53.08,1.81,1.81,0,0,1-.51-.09,1.19,1.19,0,0,1-.37-.37l-.52-.8-.7,1.18h-1.23l1.31-2-1.2-1.94c0-.06.2-.06.33-.09a1.5,1.5,0,0,1,.37,0,.48.48,0,0,1,.46.13.86.86,0,0,1,.28.35l.45.82"/><path class="cls-1" d="M122,51.51c0-.19,0-.34,0-.49s-.07-.28-.14-.39a.83.83,0,0,0-.28-.25c-.11-.13-.25-.1-.41-.1a.61.61,0,0,0-.52.14.29.29,0,0,0-.14.3v1.86s.13.1.25.17.27.1.45.1a.76.76,0,0,0,.64-.35,2.52,2.52,0,0,0,.2-1m-1.54-1.69c0-.11.21-.18.38-.27a1.2,1.2,0,0,1,.64-.13,1.75,1.75,0,0,1,.65.1,1.16,1.16,0,0,1,.54.35,1.55,1.55,0,0,1,.38.64,2.9,2.9,0,0,1,.15,1,7.14,7.14,0,0,1-.16,1.12,2.34,2.34,0,0,1-.4.7,2.23,2.23,0,0,1-.56.36,2.92,2.92,0,0,1-.61.11c-.24-.06-.35,0-.48-.07a3.2,3.2,0,0,1-.34-.15,2.12,2.12,0,0,1-.21-.15c-.11-.06-.08-.09-.09-.11s0,.15-.07.22-.13.09-.25.09h-.77V47.54s0,0,.13,0,.18,0,.27,0,.19,0,.29,0,.18.06.26.11.13.12.18.21a2.64,2.64,0,0,1,.07.35Z"/><path class="cls-1" d="M126.57,51.13a1.61,1.61,0,0,0-.16-.67.64.64,0,0,0-.59-.27.68.68,0,0,0-.58.25,1,1,0,0,0-.21.69h1.54m-.44,1.72c.12,0,.27,0,.37-.05l.29-.11c.06-.1.17-.1.22-.16s.13-.1.18-.15a2.65,2.65,0,0,1,.21.34.65.65,0,0,1,.11.34.78.78,0,0,1-.21.37,3.14,3.14,0,0,1-.52.25,3.57,3.57,0,0,1-.77.11c-.33-.06-.54,0-.8-.11a2.21,2.21,0,0,1-.7-.36,1.63,1.63,0,0,1-.49-.7,2.33,2.33,0,0,1-.19-1.1,1.82,1.82,0,0,1,.17-.94,1.27,1.27,0,0,1,.45-.65,1.1,1.1,0,0,1,.64-.39,2.11,2.11,0,0,1,.73-.12,1.74,1.74,0,0,1,.82.15,1.76,1.76,0,0,1,.55.4,1.23,1.23,0,0,1,.31.57c0,.17.1.44.1.67,0,0,0,.07,0,.12a.64.64,0,0,0,0,.14.75.75,0,0,0,0,.15s0,.09,0,.11H125a1.34,1.34,0,0,0,.29.8,1.18,1.18,0,0,0,.81.32"/><path class="cls-1" d="M129.7,53.7c-.1,0-.08,0-.17,0a.82.82,0,0,0-.27,0c-.17,0-.19,0-.28,0a.53.53,0,0,1-.25-.11.72.72,0,0,1-.17-.22c-.09-.14-.06-.21-.06-.35V47.54s0,0,.13,0,.18,0,.28,0,.18,0,.28,0,.18,0,.26.1.13.11.18.2a3.56,3.56,0,0,1,.07.35V53.7"/><rect class="cls-3" x="0.5" y="0.5" width="164" height="85.04"/></g></g></svg>