<?xml version="1.0" encoding="utf-8"?>
<!-- Generator: Adobe Illustrator 24.1.2, SVG Export Plug-In . SVG Version: 6.00 Build 0)  -->
<svg version="1.1" id="Calque_1" xmlns="http://www.w3.org/2000/svg" xmlns:xlink="http://www.w3.org/1999/xlink" x="0px" y="0px"
	 viewBox="0 0 99.3 91" style="enable-background:new 0 0 99.3 91;" xml:space="preserve">
<style type="text/css">
	.st0{fill:#FAB699;}
	.st1{fill:#FFFFFF;}
</style>
<g id="Calque_2_1_">
	<g id="Calque_2-2">
		<path class="st0" d="M90.5,72.8c-16.2,18.8-54.2,25.4-73.9,8.5C2.3,69.1-5.8,35,4.9,18.1C34.4-28.6,128.1,24.3,90.5,72.8"/>
		<path class="st1" d="M41,34.1c0.3-0.7,0.8-1.4,1.3-1.9c1.2-1.1,2.8-1.6,4.4-1.5c0.9,0,1.8,0.4,2.5,1c0.4,0.3,0.7,0.5,1.1,0.9
			c0.3,0.4,0.6,0.8,0.8,1.3c0.4,0.9,0.5,2,0.4,3c-0.2,1.1-0.6,2.1-1.1,3c0.5,0.1,1,0.4,1.4,0.7c0.2,0.2,0.3,0.4,0.3,0.6
			c0,0.1,0,0.1,0,0.2c0,0.2,0.1,0-0.1,0.2c-0.1,0.1-0.3,0.1-0.4,0.1c-0.3,0-0.5,0-0.8-0.1l-1-0.2c-0.7-0.1-1.3-0.2-2-0.2
			c-1.3-0.1-2.7-0.2-4-0.2s-2.5,0.2-3.8,0.2c-0.4,0-1.2-0.4-0.8-0.9s1.2-0.6,1.8-0.8c-0.2-0.5-0.4-1-0.6-1.5l-0.1-0.3 M46.3,32
			c-0.8,0.1-1.5,0.3-2.1,0.8c-0.5,0.4-1,0.9-1.3,1.5c-0.7,1.2-0.9,2.6-0.4,3.9c0.1,0.3,0.3,0.6,0.5,0.8c0.4,0.2,0.9,0.2,1.3,0.2
			c1.1,0.1,2.2,0.2,3.2,0.3c0.4,0.1,0.8,0.1,1.2-0.1c0.3-0.3,0.6-0.6,0.8-1c0.4-0.8,0.7-1.7,0.7-2.6c0.1-0.9-0.2-1.8-0.8-2.5
			C48.5,32.5,47.4,32,46.3,32"/>
		<path class="st1" d="M49.8,28c-2.4-0.2-4.4-2.1-4.8-4.5c-0.3-2.2,0.2-4.3,2.2-5.6c2.1-1.3,4.7-1.2,6.7,0.2c1,0.7,1.6,1.7,1.9,2.8
			c0.4,1.2,0.4,2.4,0,3.6c-0.5,1-1.3,1.9-2.3,2.5c-0.5,0.3-1.1,0.6-1.7,0.8c-0.3,0.1-0.7,0.2-1,0.3C50.6,28.1,50.2,28.1,49.8,28
			 M50.4,26.5c1.7,0.1,3.3-0.9,3.9-2.5c0.3-0.9,0.3-1.9,0-2.9c-0.2-0.8-0.7-1.5-1.4-2c-1.4-0.7-3.6-1.1-4.8,0.1
			c-3.4,3.4-0.2,6.3,0.3,6.7C49,26.3,49.7,26.5,50.4,26.5"/>
		<path class="st1" d="M45.5,34.9c0.2-0.3,0.4-0.4,0.7-0.5c0.3,0,0.6,0,0.8-0.1c0.7-0.5-0.6-0.9-1-0.9c-1.4,0-2.4,1.7-2.3,2.9
			c0,1.2,1,2.2,2.2,2.2H46c0.4,0,1.4-0.3,1.1-0.9s-1.3,0-1.8-0.3c-0.2-0.1-0.4-0.5-0.2-0.7s0.6-0.2,0.7-0.3c0.2-0.1,0.3-0.4,0.3-0.6
			c0-0.2-0.1-0.4-0.2-0.4L45.5,34.9"/>
		<path class="st1" d="M52.1,21.1c-0.2-0.2-0.4-0.3-0.6-0.5c-0.2-0.1-0.5-0.1-0.7-0.1c-0.5,0-1,0.2-1.3,0.6
			c-0.6,0.6-0.8,1.5-0.6,2.4c0.2,1,1.2,1.7,2.3,1.5c0.3,0,0.5-0.2,0.7-0.4c0.1-0.2,0-0.4-0.2-0.5s-1.2,0-1.4-0.4s0.6-0.4,0.8-0.7
			c0.3-0.6-0.3-1.1-0.6-1.4L52.1,21.1"/>
		<path class="st1" d="M45.5,34.9c0.2,0.1,0.7,0.3,0.8,0.5c0.1,0.3,0,0.5-0.2,0.7c-0.2,0.1-0.4,0.2-0.6,0.3c-0.1,0-0.3,0.1-0.3,0.1
			s0,0.3,0.1,0.4c0.3,0.6,1.1,0.2,1.6,0.3c0.8,0.2,0.2,0.9-0.3,1.1c-1.2,0.3-2.4-0.4-2.7-1.5v-0.1c-0.3-1.3,0.4-2.6,1.6-3.2
			c0.4-0.2,0.9-0.2,1.3,0c0.2,0.1,0.6,0.3,0.4,0.6c-0.2,0.3-0.5,0.3-0.8,0.3C46,34.4,45.7,34.5,45.5,34.9"/>
		<path class="st1" d="M52.1,21.1l-1.8,0.4c0.3,0.4,0.8,0.7,0.7,1.2s-0.5,0.4-0.8,0.6c-0.5,0.4,0.5,0.6,0.8,0.6s0.6,0,0.8,0.2
			c0.1,0.2,0.1,0.4-0.1,0.5l0,0c-0.5,0.3-1.2,0.4-1.7,0.1c-0.4-0.2-0.7-0.6-0.9-1c-0.4-0.8-0.3-1.7,0.2-2.4c0.3-0.5,0.7-0.8,1.3-0.9
			c0.3-0.1,0.6-0.1,0.9,0C51.6,20.7,51.9,20.9,52.1,21.1"/>
		<path class="st1" d="M40.2,37.5c-0.3-0.1-0.6-0.1-0.8,0c-1,0.2-1.9,0.5-2.8,1c-1.5,0.8-2.9,1.9-3.9,3.3c-1.2,1.7-2.2,3.5-3,5.5
			c-0.9,2-1.2,4.2-0.8,6.3c0.5,2,1.3,3.8,2.5,5.5c0.3,0.4,1.6,2.2,2,1.9c0.2-0.2,0.2-0.5,0.4-0.7s0-0.1,0.2-0.1c0.1,0,0.2,0,0.3,0
			c0.3,0,0.5,0.1,0.7,0.3c0.1,0.2,0.2,0.5,0.1,0.7c-0.1,0.5-0.3,1-0.4,1.4c-0.3,1.1-0.5,2.3-0.5,3.5c0,0.5-0.1,1-0.1,1.5
			c0,0.2,0,0.4,0,0.7c0,0.2,0,0.3,0,0.4V69h0.1c0.5,0,0.9,0,1.4-0.1l1.7-0.2c0.3,0,0.6-0.1,0.8-0.3c0.2-0.5,0.3-1,0.4-1.5
			c0.4-1.2,0.8-2.3,1.3-3.4c0.2-0.5,0.5-1,0.9-1.4c0,0,0.2-0.2,0.3-0.2s0.2,0.2,0.3,0.2c0.1,0.1,0.2,0.2,0.3,0.4
			c0.1,0.3,0,0.6-0.1,0.8c-0.2,0.6-0.4,1.3-0.7,1.9c1.5,0.4,3,0.5,4.6,0.2c1.9-0.1,3.8-0.4,5.7-0.9c0.8-0.2,1.5-0.4,2.2-0.8
			c0.1,0,0.3-0.1,0.4-0.2s0-0.7,0-0.9c0-0.3,0.3-0.6,0.6-0.6c0.1,0,0.2,0,0.3,0.1c0.4,0.2,0.6,1.1,0.8,1.5c0.3,0.6,0.5,1.3,0.6,1.9
			c0.2,0.7,0.3,1.3,0.5,2c0.1,0.3,0.2,0.6,0.5,0.7c0.5,0.1,1,0.1,1.5,0c0.6,0.1,1.3,0.1,1.9,0c0.3,0,0.6-0.3,0.6-0.6
			c0-0.6,0-1.3-0.2-1.9c-0.1-0.8-0.2-1.5-0.3-2.2c0-0.3-0.1-0.7-0.2-1c-0.1-0.3-0.2-0.6-0.4-0.9c-0.2-0.5-0.5-1.1-0.2-1.6
			s1-0.2,1.2,0.2s0.3,0.5,0.5,0.8c0.1,0.1,0.1,0.3,0.2,0.4s0.3,0,0.5,0c0.5-0.2,1-0.4,1.5-0.8c1-0.8,1.9-1.7,2.6-2.7
			c0.4-0.5,0.8-1,1.2-1.5c0.2-0.3,0.3-0.5,0.5-0.8c0.1-0.3,0.3-0.6,0.5-0.8c0.5-0.4,1.4,0.2,1.8-0.3c0.1-0.3,0.2-0.7,0.2-1
			c0-0.7,0-1.4,0-2.1s0.1-1.3,0-1.9c0-0.4-0.2-0.5-0.6-0.5s-1,0-1.3-0.3c-0.4-0.4-0.6-1-0.8-1.5c-0.5-1.2-1.2-2.3-2.1-3.3
			c-0.4-0.5-0.9-0.9-1.4-1.3c-0.5,0.6-1,1.2-1.6,1.7c-0.2,0.2-0.4,0.5-0.8,0.4s-0.7-0.1-0.9-0.3c-0.3-0.5,0.5-1.2,0.8-1.4
			c0.5-0.6,0.9-1.2,1.3-1.9c0.9-1.3,1.5-2.8,1.8-4.3c0.2-0.7,0.2-1.5,0-2.2c-0.1-0.2,0-0.4-0.3-0.3c-0.2,0-0.3,0.1-0.5,0.1
			c-0.3,0.1-0.6,0.3-0.9,0.5c-2.3,1.6-4,4-4.9,6.6C58,42,58,43,57.2,43.2s-0.9-0.4-0.8-1c0.1-0.8,0.3-1.6,0.5-2.3
			c0-0.2,0.1-0.2,0-0.2s-0.2-0.1-0.3-0.1L56.5,39c-0.4-0.1-0.9-0.2-1.3-0.3c-0.8-0.2-1.6-0.3-2.4-0.4c-0.3,0-0.5-0.1-0.7-0.3
			c-0.2-0.3-0.2-0.6-0.1-0.9c0.3-0.6,1.5-0.3,2-0.2c0.9,0.2,1.7,0.4,2.5,0.7l1.2,0.3c0.1,0,0.2,0.1,0.3,0.1c0.2,0,0,0.1,0.2-0.1
			c0.1-0.2,0.3-0.3,0.4-0.5c0.5-0.6,0.9-1.3,1.4-1.9c1-1,2.1-1.9,3.3-2.5c0.7-0.4,2.9-1.7,3.3-0.3c0.1,0.3,0.1,0.7,0.1,1
			c0.1,0.4,0.1,0.9,0.1,1.3c0,0.9-0.3,1.7-0.3,2.5c-0.1,0.8-0.2,1.5-0.5,2.2c-0.2,0.3-0.3,0.7-0.5,1l-0.2,0.5c0,0.1-0.1,0.2-0.1,0.3
			s0.2,0.2,0.3,0.2c0.6,0.5,1.3,0.8,1.8,1.3c0.5,0.4,0.9,1,1.3,1.5c0.4,0.6,0.7,1.2,1,1.7s0.4,1.2,1.1,1.1c0.5-0.1,1.2-0.2,1.4,0.4
			c0,0.4,0,0.7,0,1.1v1.3c0,0.9,0,1.8,0,2.6c0,0.4,0,0.8,0,1.3c0,0.3,0,0.7-0.1,1c-0.1,0.2-0.4,0.3-0.6,0.4
			c-0.3,0.1-0.6,0.1-0.9,0.1c-0.5,0.1-0.9,0.4-1.2,0.8c-0.4,0.6-0.7,1.2-1.1,1.8c-0.5,0.6-1,1.2-1.5,1.7c-1,1-2.2,1.8-3.5,2.4
			c-0.2,0.1-0.9,0.2-0.9,0.4s0,0.4,0.1,0.5c0,0.2,0.1,0.5,0.1,0.8c0.1,0.8,0.2,1.7,0.2,2.5c0.1,0.7,0,1.4-0.2,2
			c-0.3,0.5-0.9,0.8-1.4,0.8c-0.9,0.1-1.7,0.2-2.6,0.2c-0.7,0.1-1.4,0-2.1-0.1C55.2,69.2,55,68,54.8,67c-0.1-0.4-0.2-0.7-0.3-1.1
			c0-0.2-0.1-0.3-0.3-0.3s-0.4,0-0.6,0.1l-2.4,0.6c-0.9,0.2-1.7,0.4-2.6,0.6C47.9,67,47.1,67,46.3,67c-1.7,0-3.5,0.1-5.2,0.1
			c-0.5,0-0.8,0.1-0.9,0.6c-0.1,0.3-0.2,0.7-0.2,1s-0.1,0.5-0.2,0.8c-0.4,0.4-1.3,0.4-1.8,0.5l-2.6,0.4c-0.7,0.2-1.5,0.2-2.3,0
			c-0.6-0.2-0.6-0.8-0.6-1.4c-0.3-1.7-0.2-3.4,0.1-5.1c0.1-0.4,0.2-0.8,0.3-1.2c0-0.3-0.4-0.5-0.6-0.7c-0.6-0.4-1.1-0.9-1.5-1.4
			c-2-2.4-3.2-5.3-3.5-8.3c0-0.2,0-0.4-0.1-0.6c0-0.1,0-0.2,0-0.3c-0.1,0-0.2,0-0.3,0c-0.4,0-0.8,0.1-1.1,0.2
			c-0.8,0.1-1.6,0-2.4-0.1c-1.2-0.2-2.2-0.9-2.8-1.9c-0.4-0.9-0.4-2,0.2-2.9c0.7-1.2,2.1-1.8,3.4-1.4c0.7,0.1,1.2,0.5,1.7,1
			c0.2,0.6,0.2,1.2-0.2,1.7c-0.3-0.1-0.7-0.2-1-0.4s-0.4-0.6-0.8-0.7c-0.8-0.2-1.5,0.2-1.8,1c-0.2,0.7,0,1.5,0.7,1.6
			c1,0.2,2.1,0.3,3.2,0.4h0.6c0.2,0,0.5,0,0.7,0c0.1-0.1,0.2-0.6,0.2-0.8l0.2-0.8c0.3-1,0.5-2,0.9-3c0.7-1.7,1.7-3.2,3-4.5
			c1.1-1.3,2.4-2.4,3.9-3.3c0.7-0.4,1.5-0.8,2.3-1c0.8-0.1,1.5-0.3,2.2-0.5c0.5-0.6,0.9-1.2,1.1-1.9c0.4-1.2-0.5,3.3-0.5,3.3
			L40.2,37.5z"/>
		<path class="st1" d="M64.9,48.4c0,0.5-0.4,1.2-1,1.1c-0.6-0.1-1-0.6-1-1.2c0-0.1,0-0.1,0-0.2c0.2-0.5,0.8-0.8,1.3-0.6
			C64.6,47.8,64.9,48.1,64.9,48.4"/>
	</g>
</g>
</svg>
