<?xml version="1.0" encoding="utf-8"?>
<!-- Generator: Adobe Illustrator 27.0.1, SVG Export Plug-In . SVG Version: 6.00 Build 0)  -->
<svg version="1.1" id="Layer_1" xmlns="http://www.w3.org/2000/svg" xmlns:xlink="http://www.w3.org/1999/xlink" x="0px" y="0px"
	 viewBox="0 0 369.5 283.5" style="enable-background:new 0 0 369.5 283.5;" xml:space="preserve">
<style type="text/css">
	.st0{fill:#AAB3BE;}
</style>
<g>
	<path class="st0" d="M49.3,163c0.2-10.6,3.7-20,11.2-27.5c7.4-7.4,15.1-14.3,22.6-21.5c6.9-6.5,13.8-13,20.7-19.5
		c17.4-16.2,34.6-32.6,52-48.8c10.1-9.4,20-18.9,30-28.4C191.3,12,197,7,204.4,4.5c9.9-3.5,19.6-3.2,29.2,0.8
		c5.5,2.4,10.2,5.8,14.3,10.2c16.9,18,33.9,35.9,50.8,54c3.5,3.7,7.2,7.3,10.1,11.3c9.7,13.4,10.6,27.8,3.4,42.7
		c-1.3,2.8-2.6,5.8-3.8,8.7c-2.6,6.5-5,13-7.6,19.5c-11.5,30-23.1,60.1-34.6,90.1c-2.1,5.5-4,11-6.3,16.3c-5.5,13-14.9,21.4-29,23.8
		c-6.9,1.2-13.7,0-20.2-2.6c-14.7-5.7-29.4-11.3-44.2-16.9c-0.8-0.3-1.9-0.2-2.7,0c-16.5,6.7-34.4,2.6-46.2-10.7
		c-6.4-7.1-13-13.8-19.5-20.7c-12.7-13.5-25.4-27-38.1-40.5C52.8,182.7,49.4,173.5,49.3,163z M147.9,252c7.1,0.1,13.1-2.5,18.3-7.1
		c6.9-6.3,13.8-12.8,20.6-19.3c10.1-9.5,20.3-19,30.3-28.6c19.7-18.6,39.4-37.2,59.2-55.8c6-5.7,12.1-11.4,18.1-17
		c10.5-9.9,12.4-26,2.2-37.3c-8.1-9.1-16.6-17.7-24.9-26.6c-5.7-6.2-11.5-12.3-17.2-18.4c-5.7-6-11.3-12.3-17.2-18.1
		c-8.3-8.4-18.1-10.5-29.2-6.4c-4.9,1.9-8.6,5.5-12.4,9.1c-11.6,11-23.2,21.9-34.7,32.8c-17.8,16.8-35.7,33.6-53.5,50.4
		c-5.9,5.6-12,11.2-17.9,16.8c-6.4,6-13.1,12-19.3,18.3c-9.5,9.7-9.9,24.9-1,35.3c2.9,3.4,6,6.6,9.1,9.7c17,18,33.9,36.2,50.9,54.1
		C134.2,249.5,140.7,251.9,147.9,252z M180.3,250.5c0.7,0.3,1.1,0.6,1.7,0.7c3.9,1.6,7.8,3,11.9,4.6c8.2,3.1,16.2,6.3,24.4,9.3
		c6.6,2.5,12.9,1.6,18.8-2.1c4.3-2.7,6.7-6.8,8.5-11.4c12.2-31.7,24.3-63.3,36.5-95c0.2-0.7,0.4-1.3,0.8-2c-0.1,0-0.2-0.1-0.2-0.1
		C248.4,186.4,214.3,218.4,180.3,250.5z"/>
	<path class="st0" d="M219.6,79.8c0-11.3,9.5-20.6,20.9-20.5C251.2,59.5,261,68,261,80.3c0,11.4-9.4,20.6-21.1,20.5
		C228.8,100.7,219.5,91.2,219.6,79.8z M240.2,91.7c6.4,0,11.8-5.3,11.8-11.6c0-6.4-5.3-11.8-11.6-11.6c-6.8,0-11.4,5.3-11.6,11
		C228.2,87.3,234.4,91.6,240.2,91.7z"/>
	<path class="st0" d="M99.5,176.2c-1.6-1.3-2.9-2.6-4.4-3.8c11.5-11,23-21.7,34.3-32.6c1.3,1.3,2.7,2.6,4.1,3.9
		C122.2,154.6,110.8,165.5,99.5,176.2z"/>
	<path class="st0" d="M132.4,210.7c-1.5-1.3-2.8-2.6-4.3-3.9c11.4-10.9,22.8-21.7,34.2-32.5c1.3,1.3,2.6,2.6,4,4
		C155.1,189.2,143.7,200.1,132.4,210.7z"/>
	<path class="st0" d="M112,189.4c-1.5-1.3-2.7-2.6-4.1-3.9c11.4-10.9,22.8-21.7,34.2-32.5c1.3,1.3,2.7,2.6,4,3.9
		C134.7,167.8,123.3,178.7,112,189.4z"/>
	<path class="st0" d="M170.2,182.4c1.2,1.3,2.2,2.5,3.5,3.7c-11.4,10.9-22.7,21.6-34.2,32.6c-1.1-1.2-2.2-2.4-3.5-3.7
		C147.4,204.1,158.7,193.3,170.2,182.4z"/>
	<path class="st0" d="M124.5,202.7c-1-1-1.8-1.9-2.7-2.8c0.3-0.3,0.8-0.6,1-0.9c3.8-3.7,7.5-7.3,11.3-11c4.5-4.4,9.1-8.6,13.5-13
		c2.7-2.6,5.5-5,8.1-7.5c0.9,0.9,1.8,1.6,2.9,2.6C147.3,180.9,136,191.7,124.5,202.7z"/>
	<path class="st0" d="M117.8,195.8c-0.7-0.8-1.2-1.5-2-2.2c11.3-10.7,22.6-21.5,34.2-32.5c0.7,0.8,1.2,1.5,1.9,2.4
		C140.7,174.1,129.3,184.9,117.8,195.8z"/>
	<path class="st0" d="M137.9,148.5c-11.3,10.7-22.7,21.6-34.3,32.6c-0.3-0.4-0.6-0.8-0.9-1.1c0.1-0.1,0.1-0.3,0.2-0.4
		c11-10.4,21.9-20.8,32.9-31.2C136.6,147.6,137.2,147.1,137.9,148.5z"/>
</g>
</svg>
