<?xml version="1.0" encoding="utf-8"?>
<!-- Generator: Adobe Illustrator 27.0.1, SVG Export Plug-In . SVG Version: 6.00 Build 0)  -->
<svg version="1.1" id="Layer_1" xmlns="http://www.w3.org/2000/svg" xmlns:xlink="http://www.w3.org/1999/xlink" x="0px" y="0px"
	 viewBox="0 0 369.5 283.5" style="enable-background:new 0 0 369.5 283.5;" xml:space="preserve">
<style type="text/css">
	.st0{fill:#AAB3BE;}
	.st1{fill:#AAB3BE;stroke:#AAB3BE;stroke-miterlimit:10;}
</style>
<path class="st0" d="M89.8,167.4c-7.3-2.6-14.4-5.2-21.6-7.8c-6.3-2.3-12.6-4.5-18.9-6.8c-2.8-1-4.3-2.9-4.2-5.5
	c0-2.5,1.5-4.3,4.3-5.3c9.4-3.4,18.7-6.7,28.1-10.1c0.4-0.1,0.7-0.3,1.4-0.6c-4.5-1.6-8.6-3.1-12.8-4.6c-5.7-2-11.4-4.1-17.1-6.1
	c-2.5-0.9-4-3-3.9-5.4c0-2.4,1.5-4.4,3.9-5.2c29.6-10.6,59.2-21.2,88.8-31.9c1.7-0.6,3.3-0.6,4.9,0c13.4,4.8,26.8,9.6,40.1,14.4
	c1.5,0.6,2.8,0.6,4.3,0c13.4-4.9,26.8-9.7,40.3-14.4c1.4-0.5,3.3-0.5,4.7,0c29.7,10.6,59.3,21.2,89,31.9c2.4,0.8,3.8,2.9,3.8,5.3
	c0,2.5-1.5,4.4-4,5.4c-9.2,3.3-18.4,6.6-27.6,9.9c-0.6,0.2-1.2,0.4-2.2,0.8c4.2,1.5,8.1,2.9,11.9,4.3c6,2.1,12,4.3,17.9,6.4
	c2.5,0.9,4,2.9,4,5.4c0,2.4-1.4,4.4-3.9,5.2c-12.9,4.7-25.9,9.3-38.8,13.9c-1.7,0.6-2.1,1.3-2.1,3.1c0.1,21.9,0,43.9,0,65.8
	c0,4-1,5.5-4.9,6.8c-19,6.8-38.1,13.6-57.1,20.5c-10.1,3.6-20.2,7.2-30.2,10.9c-2,0.7-3.9,0.8-5.9,0c-29.3-10.5-58.6-21-87.8-31.5
	c-3.3-1.2-4.4-2.8-4.4-6.3c0-22.2,0-44.3,0-66.5C89.8,168.7,89.8,168.1,89.8,167.4z M179.3,260.7c0-29.8,0-59.5,0-89.2
	c-0.7,0.2-1.2,0.4-1.8,0.6c-11.7,4.2-23.3,8.4-35,12.5c-1.4,0.5-3.2,0.5-4.5,0c-11.1-3.9-22.2-7.9-33.2-11.9
	c-1.2-0.4-2.4-0.8-3.7-1.3c0,0.8,0,1.4,0,2c0,19.1,0,38.3,0,57.4c0,1.5,0.4,2.1,1.8,2.6c21.1,7.5,42.2,15.1,63.3,22.6
	C170.5,257.6,174.8,259.1,179.3,260.7z M190.6,171.4c0,29.9,0,59.5,0,89.3c0.6-0.2,1.2-0.4,1.7-0.6c25-8.9,50-17.9,75-26.8
	c1.2-0.4,1.7-1,1.7-2.3c-0.1-19.2,0-38.5,0-57.7c0-0.5-0.1-1.1-0.1-1.8c-0.8,0.3-1.4,0.5-2,0.7c-11.6,4.2-23.2,8.4-34.9,12.5
	c-1.3,0.5-3.1,0.5-4.4,0.1c-5.4-1.8-10.6-3.8-16-5.7C204.8,176.5,197.8,174,190.6,171.4z M112.1,131.3c0.7,0.3,1.2,0.5,1.6,0.6
	c23.3,8.4,46.7,16.8,70.1,25.1c0.8,0.3,2,0.2,2.8-0.1c19.1-6.8,38.3-13.7,57.4-20.5c4.6-1.6,9.1-3.3,14.1-5.1
	c-0.9-0.4-1.5-0.6-2.1-0.8c-23-8.3-46-16.5-69-24.8c-1.4-0.5-2.5-0.4-3.9,0.1c-21.7,7.8-43.5,15.6-65.3,23.4
	C115.9,129.9,114.1,130.6,112.1,131.3z M302.8,115.3c-0.5-0.3-0.8-0.4-1-0.5c-23.6-8.5-47.1-16.9-70.7-25.3
	c-0.8-0.3-1.8-0.2-2.7,0.1c-8,2.8-16,5.7-24,8.6c-0.8,0.3-1.6,0.6-2.8,1.1c8,2.9,15.7,5.6,23.4,8.4c15.9,5.7,31.9,11.5,47.8,17.2
	c0.8,0.3,1.9,0.6,2.6,0.3C284.5,121.9,293.4,118.7,302.8,115.3z M168.5,99.2c-1.2-0.4-1.9-0.7-2.6-0.9c-8.1-2.9-16.1-5.8-24.2-8.6
	c-0.9-0.3-2.2-0.3-3.1,0c-20.1,7.2-40.2,14.4-60.3,21.6c-3.6,1.3-7.2,2.6-11.1,4c0.6,0.3,0.8,0.4,1,0.5c8.5,3.1,17.1,6.2,25.7,9.2
	c1,0.3,2.3,0.2,3.3-0.1c16.2-5.8,32.5-11.6,48.7-17.4C153.3,104.6,160.7,102,168.5,99.2z M67.1,147.4c0.9,0.3,1.3,0.5,1.8,0.7
	c9.5,3.4,19.1,6.8,28.6,10.2c13.8,4.9,27.5,9.9,41.3,14.8c0.9,0.3,2.1,0.3,3-0.1c5.3-1.8,10.5-3.7,15.8-5.6c3.5-1.3,7-2.5,10.8-3.9
	c-0.6-0.3-0.8-0.4-1.1-0.5c-23.6-8.5-47.1-16.9-70.7-25.4c-0.7-0.2-1.6-0.2-2.3,0c-5,1.7-10,3.5-15,5.3
	C75.3,144.4,71.4,145.8,67.1,147.4z M302.7,147.5c-0.4-0.2-0.7-0.4-0.9-0.5c-8.8-3.2-17.5-6.3-26.3-9.4c-0.5-0.2-1.3-0.1-1.8,0.1
	c-23.6,8.4-47.1,16.9-70.7,25.4c-0.3,0.1-0.6,0.3-1.2,0.6c9.2,3.3,18.1,6.5,27.1,9.6c0.8,0.3,1.9,0,2.8-0.3
	c15.6-5.6,31.1-11.2,46.7-16.7C286.4,153.3,294.4,150.5,302.7,147.5z"/>
<path class="st1" d="M217.1,21.4c-1.2-3.1-3-5.7-5.8-7.6c-2.9-2-6.4-3.2-9.9-3.4c-3.7-0.2-7.6,0.6-10.8,2.5
	c-2.4,1.4-4.1,3.2-5.7,5.4c-3.1-4.2-7.4-7-12.8-7.7c-6.5-0.8-13.5,1.7-17.3,7.1c-4.3,6.2-4.2,14.8-2.1,21.7
	c2.3,7.3,6.6,13.7,11.5,19.5c5.7,6.8,12.4,12.7,19.3,18.3c0.9,0.7,1.9,0.7,2.8,0c6-4.7,11.8-9.9,16.9-15.5c5-5.5,9.7-11.7,12.6-18.6
	C218.7,36.1,219.8,28.4,217.1,21.4z M191.7,67.4c-2.2,2-4.4,3.9-6.7,5.7c0,0,0,0,0,0L191.7,67.4z M213.6,37.8
	c-1,3.3-2.5,6.5-4.4,9.5L213.6,37.8z M200.1,14.2l-7.8,2.2l-1,0.7c0.3-0.2,0.7-0.5,1-0.7C194.7,14.9,197.4,14.3,200.1,14.2z
	 M183.3,22.7l-6-6.5C179.9,17.7,181.8,20,183.3,22.7z M168.7,14.2l-5.1,1.2C165.1,14.8,166.9,14.4,168.7,14.2z M213.6,37.8L213.5,23
	C215.3,28,215,33,213.6,37.8z"/>
</svg>
