<?xml version="1.0" encoding="utf-8"?>
<!-- Generator: Adobe Illustrator 24.0.0, SVG Export Plug-In . SVG Version: 6.00 Build 0)  -->
<svg version="1.1" id="Layer_1" xmlns="http://www.w3.org/2000/svg" xmlns:xlink="http://www.w3.org/1999/xlink" x="0px" y="0px"
	 viewBox="0 0 80 80" style="enable-background:new 0 0 80 80;" xml:space="preserve">
<style type="text/css">
	.st0{fill:#04B604;}
</style>
<g>
	<path class="st0" d="M75.3,4.7H4.7C2.7,4.7,1,6.3,1,8.4v67c0,0.7,0.5,1.2,1.2,1.2h75.5c0.7,0,1.2-0.5,1.2-1.2v-67
		C79,6.3,77.3,4.7,75.3,4.7L75.3,4.7z M3.5,12h73v62.1h-73V12z M4.7,7.1h1.2c-0.7,0-1.2,0.5-1.2,1.2c0,0.7,0.6,1.2,1.2,1.2
		c0.7,0,1.2-0.5,1.2-1.2c0-0.7-0.5-1.2-1.2-1.2h3.6c-0.7,0-1.2,0.5-1.2,1.2c0,0.7,0.6,1.2,1.2,1.2c0.7,0,1.2-0.5,1.2-1.2
		c0-0.7-0.5-1.2-1.2-1.2h3.6c-0.7,0-1.2,0.5-1.2,1.2c0,0.7,0.6,1.2,1.2,1.2c0.7,0,1.2-0.5,1.2-1.2c0-0.7-0.5-1.2-1.2-1.2h62
		c0.7,0,1.2,0.5,1.2,1.2v1.2h-73V8.4C3.5,7.7,4,7.1,4.7,7.1L4.7,7.1z M4.7,7.1"/>
	<path class="st0" d="M40,35.1c5.4,0,9.7-4.4,9.7-9.7c0-5.4-4.4-9.7-9.7-9.7s-9.7,4.4-9.7,9.7C30.3,30.8,34.6,35.1,40,35.1L40,35.1z
		 M36.5,31.8c0.4-1.6,1.8-2.7,3.5-2.7c1.7,0,3.1,1.2,3.5,2.7c-1,0.6-2.3,0.9-3.5,0.9C38.7,32.7,37.5,32.4,36.5,31.8L36.5,31.8z
		 M40,26.6c-0.7,0-1.2-0.5-1.2-1.2c0-0.7,0.5-1.2,1.2-1.2c0.7,0,1.2,0.5,1.2,1.2C41.2,26.1,40.7,26.6,40,26.6L40,26.6z M40,18.1
		c4,0,7.3,3.3,7.3,7.3c0,1.8-0.7,3.5-1.8,4.8C45,29,44.1,28.1,43,27.4c0.4-0.6,0.6-1.3,0.6-2c0-2-1.6-3.7-3.7-3.7
		c-2,0-3.7,1.6-3.7,3.7c0,0.8,0.2,1.5,0.6,2c-1.1,0.6-2,1.6-2.5,2.7c-1.1-1.3-1.8-2.9-1.8-4.8C32.7,21.4,36,18.1,40,18.1L40,18.1z
		 M40,18.1"/>
	<path class="st0" d="M64.3,37.6H15.7c-0.7,0-1.2,0.5-1.2,1.2v7.3c0,0.7,0.5,1.2,1.2,1.2h48.7c0.7,0,1.2-0.5,1.2-1.2v-7.3
		C65.6,38.1,65,37.6,64.3,37.6L64.3,37.6z M63.1,44.9H16.9V40h46.3V44.9z M63.1,44.9"/>
	<path class="st0" d="M64.3,48.5H15.7c-0.7,0-1.2,0.5-1.2,1.2v7.3c0,0.7,0.5,1.2,1.2,1.2h48.7c0.7,0,1.2-0.5,1.2-1.2v-7.3
		C65.6,49.1,65,48.5,64.3,48.5L64.3,48.5z M63.1,55.8H16.9V51h46.3V55.8z M63.1,55.8"/>
	<path class="st0" d="M27.8,43.7h24.3c0.7,0,1.2-0.5,1.2-1.2c0-0.7-0.5-1.2-1.2-1.2H27.8c-0.7,0-1.2,0.5-1.2,1.2
		C26.6,43.1,27.2,43.7,27.8,43.7L27.8,43.7z M27.8,43.7"/>
	<path class="st0" d="M29.1,54.6c0.7,0,1.2-0.5,1.2-1.2c0-0.7-0.5-1.2-1.2-1.2h0c-0.7,0-1.2,0.5-1.2,1.2
		C27.9,54.1,28.4,54.6,29.1,54.6L29.1,54.6z M29.1,54.6"/>
	<path class="st0" d="M32.7,54.6c0.7,0,1.2-0.5,1.2-1.2c0-0.7-0.5-1.2-1.2-1.2h0c-0.7,0-1.2,0.5-1.2,1.2
		C31.5,54.1,32.1,54.6,32.7,54.6L32.7,54.6z M32.7,54.6"/>
	<path class="st0" d="M36.4,54.6c0.7,0,1.2-0.5,1.2-1.2c0-0.7-0.5-1.2-1.2-1.2h0c-0.7,0-1.2,0.5-1.2,1.2
		C35.2,54.1,35.7,54.6,36.4,54.6L36.4,54.6z M36.4,54.6"/>
	<path class="st0" d="M40,54.6c0.7,0,1.2-0.5,1.2-1.2c0-0.7-0.5-1.2-1.2-1.2h0c-0.7,0-1.2,0.5-1.2,1.2C38.8,54.1,39.4,54.6,40,54.6
		L40,54.6z M40,54.6"/>
	<path class="st0" d="M43.7,54.6c0.7,0,1.2-0.5,1.2-1.2c0-0.7-0.5-1.2-1.2-1.2h0c-0.7,0-1.2,0.5-1.2,1.2
		C42.5,54.1,43,54.6,43.7,54.6L43.7,54.6z M43.7,54.6"/>
	<path class="st0" d="M47.3,54.6c0.7,0,1.2-0.5,1.2-1.2c0-0.7-0.5-1.2-1.2-1.2h0c-0.7,0-1.2,0.5-1.2,1.2
		C46.1,54.1,46.7,54.6,47.3,54.6L47.3,54.6z M47.3,54.6"/>
	<path class="st0" d="M51,54.6c0.7,0,1.2-0.5,1.2-1.2c0-0.7-0.5-1.2-1.2-1.2h0c-0.7,0-1.2,0.5-1.2,1.2C49.8,54.1,50.3,54.6,51,54.6
		L51,54.6z M51,54.6"/>
	<path class="st0" d="M49.7,60.7H30.3c-2.7,0-4.9,2.2-4.9,4.9c0,2.7,2.2,4.9,4.9,4.9c0,0,0,0,0,0h19.5c0,0,0,0,0,0
		c2.7,0,4.9-2.2,4.9-4.9C54.6,62.9,52.4,60.7,49.7,60.7L49.7,60.7z M49.7,68C49.7,68,49.7,68,49.7,68l-19.5,0c0,0,0,0,0,0
		c-1.3,0-2.4-1.1-2.4-2.4c0-1.3,1.1-2.4,2.4-2.4h19.5c1.3,0,2.4,1.1,2.4,2.4C52.2,66.9,51.1,68,49.7,68L49.7,68z M49.7,68"/>
	<path class="st0" d="M47.3,64.4H32.7c-0.7,0-1.2,0.5-1.2,1.2c0,0.7,0.5,1.2,1.2,1.2h14.6c0.7,0,1.2-0.5,1.2-1.2
		C48.5,64.9,48,64.4,47.3,64.4L47.3,64.4z M47.3,64.4"/>
</g>
</svg>
