<?xml version="1.0" encoding="utf-8"?>
<!-- Generator: Adobe Illustrator 24.0.0, SVG Export Plug-In . SVG Version: 6.00 Build 0)  -->
<svg version="1.1" id="Layer_1" xmlns="http://www.w3.org/2000/svg" xmlns:xlink="http://www.w3.org/1999/xlink" x="0px" y="0px"
	 viewBox="0 0 80 80" style="enable-background:new 0 0 80 80;" xml:space="preserve">
<style type="text/css">
	.st0{fill:#04B604;}
</style>
<path class="st0" d="M56.3,4.3c-0.5,0-0.8,0-1.1,0c-10,0-20.1,0-30.1,0c-4,0-6.3,2.3-6.3,6.3c0,9.8,0,19.6,0,29.3
	c0,5.8,0,11.6,0,17.4c0,1.8,0.1,3.5-1.1,5.2c0.5,0,0.8,0,1.1,0c1.9,0,3.8,0,5.7,0c0.9,0,1.4,0.6,1.4,1.3c0,0.7-0.6,1.2-1.4,1.2
	c-4.5,0-9,0-13.4,0c-3.1,0-5.6-2.6-5.7-5.7c-0.1-4.7,0-9.4,0-14c0-1,0.5-1.4,1.5-1.4c2.9,0,5.8,0,8.6,0c0.2,0,0.4,0,0.8,0
	c0-1.7,0-3.3,0-4.9c0-9.5,0-19-0.1-28.6c0-5.1,3.5-8.6,8.6-8.6c12.1,0,24.1,0,36.2,0c4.2,0,6.9,2.8,6.9,6.9c0,3.4,0,6.9,0,10.3
	c0,1.4-0.3,1.7-1.8,1.7c-2.9,0-5.8,0-8.8,0c0,0.4,0,0.7,0,1.1c0,5.2,0,10.3,0,15.5c0,0.3,0,0.6,0,0.9c-0.2,0.6-0.6,1-1.3,0.9
	c-0.6,0-1-0.4-1.1-1c-0.1-0.3,0-0.6,0-0.9c0-9.2,0-18.4,0-27.6C54.9,7.7,55,6,56.3,4.3z M7.9,46.4c0,0.4,0,0.7,0,1
	c0,3.5,0.1,7,0,10.4c-0.1,3.3,1.3,5,4.8,4.7c2.2-0.1,3.6-1.4,3.6-3.7c0-3.4,0-6.8,0-10.2c0-0.8,0-1.5,0-2.4
	C13.5,46.4,10.7,46.4,7.9,46.4z M65.4,18.2c0-0.2,0.1-0.3,0.1-0.4c0-3.2,0.1-6.4,0-9.6c0-0.8-0.4-1.7-0.9-2.4
	c-1-1.4-2.8-1.9-4.4-1.3c-1.6,0.6-2.7,2-2.7,3.8c0,3.1,0,6.3,0,9.4c0,0.2,0.1,0.3,0.1,0.5C60.1,18.2,62.8,18.2,65.4,18.2z"/>
<path class="st0" d="M56.9,76c-3.1-3.1-6.1-6.1-9.2-9.2c-0.2-0.2-0.7-0.2-1-0.1c-4.8,1.7-9.5,1.3-13.9-1.2
	c-8.7-5-10.8-16.7-4.5-24.4c5.6-6.9,15-7.7,21.6-3.6c6.5,4.1,9.2,12.2,6.6,19.5c-0.2,0.6-0.1,0.9,0.3,1.3c3.2,3.1,6.3,6.3,9.5,9.5
	c2.4,2.4,2.8,5,1.2,7.9c0,0.1-0.1,0.2-0.2,0.4c1.6,0,3,0,4.5,0c0.3,0,0.7,0,1,0.1c0.6,0.1,1,0.6,1,1.2c0,0.7-0.4,1.1-1.1,1.2
	c-0.3,0-0.5,0-0.8,0c-17.4,0-34.9,0-52.3,0c-0.2,0-0.5,0-0.7,0c-0.7-0.1-1.2-0.5-1.2-1.2c0-0.7,0.4-1.1,1.1-1.2c0.3,0,0.6,0,0.9,0
	c12.1,0,24.2,0,36.3,0c0.3,0,0.6,0,0.9,0C56.8,76.2,56.8,76.1,56.9,76z M41.3,65.3c7.8-0.2,13.8-6.6,13.6-14.2
	c-0.2-7.7-6.7-13.9-14.2-13.6c-8,0.3-13.7,6.7-13.5,14.3C27.3,59.4,33.7,65.6,41.3,65.3z M54,69.5c1.9,2,3.8,4,5.9,5.9
	c1.3,1.2,3.6,1,4.8-0.3c1.3-1.3,1.5-3.5,0.3-4.8c-1.9-2.1-4-4-6-5.9C57.4,66.1,55.7,67.8,54,69.5z M52,67.5c1.7-1.7,3.4-3.4,5-5
	c-0.7-0.7-1.4-1.5-2-2.1c-1.7,1.7-3.4,3.3-5.1,5C50.6,66.1,51.3,66.8,52,67.5z"/>
<path class="st0" d="M32.4,19.6c0-0.9,0.5-1.5,1.2-1.5c0.7-0.1,1.2,0.4,1.3,1.2c0.2,1.2,0.7,1.7,1.7,1.7c0.9,0,1.6-0.6,1.7-1.5
	c0.1-0.9-0.5-1.7-1.4-1.8c-0.4-0.1-0.9-0.1-1.3-0.2c-1.7-0.4-2.9-1.9-3.1-3.5c-0.2-1.7,0.7-3.3,2.2-4.1c0.3-0.2,0.6-0.6,0.9-0.9
	c0.3-0.3,0.8-0.7,1.1-0.7c0.4,0,0.8,0.4,1.1,0.7c0.3,0.2,0.5,0.6,0.8,0.8c1.2,0.7,2,1.8,2.2,3.2c0.1,1-0.3,1.6-1.1,1.7
	c-0.8,0.1-1.2-0.4-1.4-1.4c-0.2-0.9-0.7-1.5-1.6-1.5c-0.8,0-1.4,0.3-1.7,1.1c-0.3,0.7,0,1.6,0.6,1.9c0.3,0.2,0.6,0.2,1,0.3
	c2.3,0.3,3.7,1.4,4.1,3.4c0.4,1.9-0.5,3.5-2.4,4.6c-0.2,0.1-0.4,0.4-0.4,0.6c-0.2,0.6-0.6,1-1.2,1c-0.6,0-1-0.4-1.3-1
	c-0.1-0.3-0.3-0.6-0.6-0.8C33.2,22.3,32.5,21.1,32.4,19.6z"/>
<path class="st0" d="M36.5,31.4c-4.1,0-8.3,0-12.4,0c-0.3,0-0.6,0-0.9,0c-0.6-0.1-1-0.6-1-1.2c0-0.7,0.4-1.1,1-1.2
	c0.3-0.1,0.6,0,0.9,0c8.3,0,16.6,0,24.9,0c0.2,0,0.3,0,0.5,0c0.8,0,1.4,0.5,1.4,1.2c0,0.8-0.5,1.3-1.4,1.3
	C45.1,31.4,40.8,31.4,36.5,31.4z"/>
<path class="st0" d="M26,17.5c-0.8,0-1.6,0-2.4,0c-0.8,0-1.3-0.5-1.3-1.2c0-0.7,0.5-1.2,1.3-1.3c1.6,0,3.3,0,4.9,0
	c0.8,0,1.3,0.6,1.3,1.3c0,0.7-0.5,1.2-1.4,1.2C27.6,17.5,26.8,17.5,26,17.5z"/>
<path class="st0" d="M26.1,23.5c-0.8,0-1.6,0-2.4,0c-0.9,0-1.4-0.5-1.4-1.2c0-0.8,0.5-1.3,1.4-1.3c1.6,0,3.2,0,4.8,0
	c0.9,0,1.4,0.5,1.4,1.3c0,0.7-0.6,1.2-1.4,1.2C27.6,23.5,26.8,23.5,26.1,23.5z"/>
<path class="st0" d="M26,9.2c0.8,0,1.6,0,2.4,0c0.9,0,1.4,0.5,1.4,1.3c0,0.7-0.5,1.2-1.4,1.2c-1.6,0-3.2,0-4.9,0
	c-0.8,0-1.3-0.5-1.3-1.2c0-0.7,0.5-1.2,1.3-1.2C24.4,9.1,25.2,9.2,26,9.2z"/>
<path class="st0" d="M47.1,15.1c0.8,0,1.7,0,2.5,0c0.8,0,1.3,0.5,1.3,1.3c0,0.7-0.5,1.2-1.3,1.2c-1.7,0-3.3,0-5,0
	c-0.8,0-1.3-0.5-1.3-1.3c0-0.7,0.5-1.2,1.3-1.2C45.4,15.1,46.2,15.1,47.1,15.1z"/>
<path class="st0" d="M47.1,23.5c-0.8,0-1.7,0-2.5,0c-0.8,0-1.3-0.5-1.3-1.2c0-0.7,0.5-1.2,1.3-1.3c1.7,0,3.3,0,5,0
	c0.8,0,1.3,0.5,1.3,1.2c0,0.7-0.5,1.2-1.3,1.3C48.7,23.5,47.9,23.5,47.1,23.5z"/>
<path class="st0" d="M47,11.7c-0.8,0-1.6,0-2.5,0c-0.8,0-1.3-0.5-1.3-1.3c0-0.7,0.5-1.2,1.3-1.2c1.6,0,3.3,0,4.9,0
	c0.8,0,1.3,0.5,1.3,1.2c0,0.7-0.5,1.2-1.3,1.2C48.7,11.8,47.9,11.7,47,11.7z"/>
<path class="st0" d="M41.1,40.4c5.4,0,10.6,4.2,11,10.4c0.3,6.2-4.3,11.4-10.3,11.7c-6.2,0.3-11.4-4.3-11.8-10.4
	C29.6,46.1,34.2,40.4,41.1,40.4z M40.9,60c4.7,0.1,8.6-3.7,8.7-8.5c0.1-4.8-3.8-8.8-8.7-8.7c-4.7,0.1-8.3,3.7-8.4,8.5
	C32.3,56.1,36.1,59.9,40.9,60z"/>
<path class="st0" d="M38.8,53.1c0.4-0.5,0.7-0.9,1.1-1.4c1.3-1.7,2.6-3.5,4-5.2c0.5-0.7,1.3-0.8,1.9-0.4c0.6,0.4,0.7,1.2,0.2,1.9
	c-1.9,2.6-3.9,5.1-5.8,7.7c-0.6,0.8-1.4,0.9-2.1,0.1c-1-1-2-2.1-3-3.2c-0.6-0.7-0.6-1.4-0.1-1.9c0.5-0.5,1.3-0.4,1.9,0.2
	C37.4,51.7,38.1,52.4,38.8,53.1z"/>
</svg>
