<?xml version="1.0" encoding="utf-8"?>
<!-- Generator: Adobe Illustrator 24.0.0, SVG Export Plug-In . SVG Version: 6.00 Build 0)  -->
<svg version="1.1" id="Layer_1" xmlns="http://www.w3.org/2000/svg" xmlns:xlink="http://www.w3.org/1999/xlink" x="0px" y="0px"
	 viewBox="0 0 80 80" style="enable-background:new 0 0 80 80;" xml:space="preserve">
<style type="text/css">
	.st0{fill:#04B604;}
	.st1{fill:#FEFEFE;}
</style>
<g>
	<path class="st0" d="M11.4,78.8c0-0.2-0.2-0.2-0.3-0.2c-1.6-0.7-2.3-1.9-2.3-3.6c0-7.9,0-15.7,0-23.6c0-15.3,0-30.6,0-45.9
		c0-2.5,1.6-4.1,4.1-4.1c12.6,0.1,25.1,0,37.7,0c2.5,0,3.9,1.4,3.9,3.9c0,6.8,0,13.6,0,20.3c0,0.3,0.1,0.5-0.1,0.9
		c-0.5-1-1-1.9-1.6-2.8c-0.6-0.8-1.1-1.6-1.8-2.3c-0.3-0.4-0.5-0.7-0.5-1.2c0-3.3,0-6.6,0-9.9c0-0.6-0.1-0.8-0.7-0.8
		c-12,0-24,0-36.1,0c-0.7,0-0.9,0.2-0.9,0.9c0,18.1,0,36.1,0,54.2c0,0.6,0.2,0.8,0.8,0.8c12,0,24,0,36,0c0.8,0,1-0.2,0.9-1
		c-0.1-0.6,0-1.2,0-2c1,1.2,1.9,2.3,3,3.3c0.9,0.8,1.1,1.7,1.1,2.9c-0.1,2-0.1,3.9,0,5.9c0.1,2.2-0.7,3.6-2.8,4.3
		C38.3,78.8,24.8,78.8,11.4,78.8z M29.2,4.8c-1.1,0-2.2,0-3.3,0c-0.7,0-1.2,0.4-1.2,1c0,0.6,0.4,1.1,1.2,1.1c2.5,0,5,0,7.6,0
		c0.1,0,0.2,0,0.2,0c1.3,0,2.6,0,3.9,0c0.7,0,1.2-0.4,1.2-1c0-0.6-0.5-1-1.2-1c-0.7,0-1.3,0-2,0c-0.1,0-0.2,0-0.4,0
		c-1.9,0-3.8,0-5.7,0C29.4,4.8,29.3,4.8,29.2,4.8z M29.2,71.7c0,1.4,1.1,2.5,2.5,2.5c1.4,0,2.5-1.1,2.5-2.5c0-1.4-1.1-2.5-2.5-2.5
		C30.2,69.2,29.2,70.3,29.2,71.7z"/>
	<path class="st0" d="M71.2,71.9c-0.3,0.6-0.5,1.2-0.9,1.8c-1.7,2-4,2.1-5.8,0.2c-1.4-1.5-2.7-3-4.1-4.5c-1.4-1.6-2.8-3.1-4.1-4.7
		c-2.9-3.3-5.9-6.6-8.8-9.9c-0.4-0.5-0.8-1-1.3-1.4c-0.3-0.3-0.3-0.5,0.1-0.6c2.1-0.8,3.5-2.4,4.7-4.2c0.3-0.5,0.5-0.5,0.9-0.1
		c2.9,3.3,5.8,6.5,8.7,9.7c3.2,3.6,6.3,7.1,9.5,10.7c0.6,0.7,0.8,1.5,1.2,2.3C71.2,71.4,71.2,71.7,71.2,71.9z"/>
	<path class="st0" d="M53.7,35.6c-0.2,10.4-8.5,18.6-19,18.3c-10-0.3-17.9-8.6-17.8-18.6C17,25,25.3,17,35.2,17.1
		C46.1,17.1,53.6,25.7,53.7,35.6z M35.2,50.2C43.4,50.4,50.3,43.4,50,35c-0.2-7.7-6.8-14.9-16-14.2c-7.1,0.5-13.9,6.7-13.5,15.6
		C20.9,43.9,27.5,50.4,35.2,50.2z"/>
	<path class="st0" d="M29.5,4.8c-0.1,0.3-0.2,0.3-0.4,0C29.3,4.8,29.4,4.8,29.5,4.8z"/>
	<path class="st0" d="M35.6,4.8c-0.1,0.3-0.2,0.3-0.4,0C35.3,4.8,35.5,4.8,35.6,4.8z"/>
	<path class="st0" d="M33.4,6.8c0-0.1,0.1-0.1,0.1-0.2c0,0.1,0.1,0.1,0.1,0.2C33.5,6.8,33.5,6.8,33.4,6.8z"/>
	<g>
		<path class="st0" d="M35.4,24.7c5.5-0.1,10.8,4.7,10.7,11.1c-0.2,6.1-5.3,10.7-11,10.5c-5.7-0.1-10.7-4.7-10.6-10.8
			C24.5,29.1,29.7,24.5,35.4,24.7z M39.4,38.4c0-2-0.7-3.2-2.3-4c-0.8-0.4-1.7-0.7-2.5-1.2c-0.6-0.3-1-0.7-0.8-1.5
			c0.2-0.7,0.8-1.1,1.5-1.1c0.7,0,1.3,0.3,1.8,0.7c0.2,0.1,0.3,0.3,0.6,0c0.3-0.4,0.6-0.7,0.9-1c0.2-0.2,0.2-0.4-0.1-0.6
			c-0.5-0.4-1-1-1.8-1.1c-0.5-0.1-0.8-0.3-0.7-0.9c0.1-0.6-0.4-0.5-0.7-0.5c-0.3,0-0.8-0.1-0.7,0.5c0.1,0.6-0.2,0.7-0.7,0.9
			c-1.7,0.5-2.6,1.8-2.7,3.6c0,1.5,0.7,2.5,2,3.2c1,0.5,2,1,2.9,1.6c0.8,0.4,1,1.1,0.8,1.8c-0.2,0.8-0.9,1.2-1.7,1.2
			c-0.5,0-1-0.3-1.5-0.5c-0.4-0.2-0.7-0.9-1.2-0.6c-0.4,0.2-0.6,0.7-0.8,1.1c0,0,0,0.1-0.1,0.1c-0.3,0.3-0.2,0.6,0.1,0.8
			c0.7,0.5,1.4,0.8,2.2,1c0.6,0.1,0.9,0.3,0.8,1c-0.1,0.5,0,0.7,0.6,0.7c0.5,0,0.8-0.1,0.7-0.7c-0.1-0.6,0.2-0.9,0.7-1.1
			C38.5,41.2,39.3,39.9,39.4,38.4z"/>
		<path class="st1" d="M39.4,38.4c-0.1,1.6-0.9,2.9-2.5,3.5c-0.6,0.2-0.9,0.5-0.7,1.1c0.1,0.6-0.2,0.7-0.7,0.7
			c-0.6,0-0.7-0.3-0.6-0.7c0.1-0.7-0.2-0.9-0.8-1c-0.8-0.2-1.5-0.5-2.2-1c-0.3-0.2-0.4-0.5-0.1-0.8c0,0,0.1-0.1,0.1-0.1
			c0.3-0.4,0.5-1,0.8-1.1c0.5-0.2,0.7,0.5,1.2,0.6c0.5,0.2,1,0.5,1.5,0.5c0.9,0,1.5-0.4,1.7-1.2c0.2-0.7,0-1.4-0.8-1.8
			c-1-0.6-2-1-2.9-1.6c-1.3-0.7-2-1.7-2-3.2c0-1.8,0.9-3.1,2.7-3.6c0.5-0.1,0.8-0.3,0.7-0.9c-0.1-0.6,0.4-0.5,0.7-0.5
			c0.3,0,0.8-0.1,0.7,0.5c-0.1,0.6,0.2,0.8,0.7,0.9c0.7,0.1,1.2,0.6,1.8,1.1c0.2,0.2,0.3,0.3,0.1,0.6c-0.3,0.3-0.6,0.7-0.9,1
			c-0.2,0.3-0.4,0.1-0.6,0c-0.5-0.4-1.1-0.7-1.8-0.7c-0.8,0-1.4,0.4-1.5,1.1c-0.2,0.8,0.3,1.2,0.8,1.5c0.8,0.4,1.6,0.8,2.5,1.2
			C38.7,35.2,39.4,36.4,39.4,38.4z"/>
	</g>
</g>
</svg>
