<?xml version="1.0" encoding="utf-8"?>
<!-- Generator: Adobe Illustrator 24.0.0, SVG Export Plug-In . SVG Version: 6.00 Build 0)  -->
<svg version="1.1" id="Layer_1" xmlns="http://www.w3.org/2000/svg" xmlns:xlink="http://www.w3.org/1999/xlink" x="0px" y="0px"
	 viewBox="0 0 80 80" style="enable-background:new 0 0 80 80;" xml:space="preserve">
<style type="text/css">
	.st0{fill:#FFFFFF;}
	.st1{fill:#04B604;}
</style>
<rect class="st0" width="80" height="80"/>
<path class="st1" d="M77.2,47.7c-24.9,0-49.5,0-74.4,0c0,3.1-0.1,6.1,0.1,9.1c0,0.5,1.2,1.2,1.9,1.3c2.6,0.2,5.2,0.1,7.8,0.1
	c15.1,0,30.2,0,45.4,0c1,0,2.6-0.5,2.6,1.3c0,1.6-1.5,1.1-2.5,1.2c-2.9,0-5.9,0.1-8.8,0c-1.2,0-1.5,0.5-1.5,1.6
	c-0.1,2.1,0.5,4,2,5.5c0.7,0.6,1.7,1.1,2.6,1.2c2.8,0.3,4.5,1.9,4.7,4.7c0.1,1.4-0.8,1.9-2,1.9c-2.3,0-4.6,0-6.9,0
	c-7.1,0-14.2,0-21.4,0c-1.3,0-3.3,0.5-3.3-1.3c-0.1-1.5,1-3.1,1.9-4.5c0.4-0.6,1.7-0.8,2.6-0.8c2.9-0.2,5.7-5,4.4-7.7
	c-0.2-0.4-1.1-0.6-1.6-0.6c-7.8,0-15.7,0-23.5,0c-5.8,0-6.6-0.8-6.6-6.7c0-14.2,0-28.4,0-42.6c0-3.6,1.4-5.1,4.9-5.1
	c22.8,0,45.6,0,68.3,0c1.2,0,2.4,0,3.5,0.4c1.7,0.6,2.4,2.1,2.4,3.9c0,15.2,0,30.5,0,45.7c0,2.7-1.6,4.3-4.2,4.4
	c-3.5,0-7.1,0.1-10.6,0c-0.6,0-1.1-0.7-1.7-1.1c0.6-0.4,1.2-1.2,1.8-1.3c3.4-0.1,6.7-0.1,10.1,0c1.6,0,2.4-0.6,2.4-2.4
	C77.2,53.1,77.2,50.5,77.2,47.7z M7.1,45.1c0.8,0.1,1.2,0.1,1.7,0.1c20.8,0,41.7,0,62.5,0c1.4,0,1.7-0.5,1.7-1.8
	c0-9.6,0-19.1,0-28.7c0-0.5-0.1-0.9-0.1-1.5c-21.9,0-43.7,0-65.7,0c0,0.8,0,1.5,0,2.3c0,5.8,0,11.6,0,17.4c0,0.9,0,2-1.2,2
	c-1.2,0-1.2-1.1-1.2-2.1c0-6.5,0-13,0-19.6c0-2.3,0.2-2.5,2.4-2.5c21.9,0,43.8,0,65.7,0c2.3,0,2.5,0.2,2.5,2.6c0,9.9,0,19.8,0,29.6
	c0,0.7,0,1.4,0,2c1.7,0.6,2-0.2,2-1.5c0-10.8,0-21.6,0-32.4c0-2.1-0.4-2.5-2.4-2.5c-23.2,0-46.4,0-69.6,0c-2.1,0-2.5,0.4-2.5,2.6
	c0,10.8,0,21.6,0,32.4c0,1.6,0.5,1.9,2,1.4c0-1.9-0.1-3.8,0.1-5.7c0.1-0.7,0.7-1.3,1.1-1.9C6.3,38,7,38.6,7,39.2
	C7.2,41.1,7.1,43,7.1,45.1z M44.9,60.8c-3.2,0-6.7,0-9.7,0c-0.7,2.9-1.3,5.4-1.9,8c4.5,0,9.2,0,13.6,0
	C46.1,66.2,45.5,63.6,44.9,60.8z M54,73c0.1-0.2,0.2-0.4,0.3-0.6c-0.6-0.4-1.3-1.1-1.9-1.1c-8.2-0.1-16.5-0.1-24.7-0.1
	c-1.1,0-1.7,0.5-1.7,1.7C35.4,73,44.7,73,54,73z"/>
<path class="st1" d="M40.3,54.8c-0.4,0-0.9,0.1-1.2,0c-0.5-0.3-0.8-0.8-1.2-1.1c0.4-0.4,0.8-0.9,1.3-1c0.8-0.2,1.6-0.2,2.4,0
	c0.5,0.1,0.9,0.7,1.3,1c-0.4,0.4-0.8,0.9-1.3,1.1C41.3,54.9,40.8,54.8,40.3,54.8C40.3,54.8,40.3,54.8,40.3,54.8z"/>
<g>
	<path class="st1" d="M41.8,27.5h-3.3v-1.2c0-0.3-0.2-0.5-0.4-0.6c-0.3-0.1-0.5-0.1-0.8,0.1L35.1,28c-0.1,0.1-0.2,0.3-0.2,0.5
		s0.1,0.4,0.2,0.5l2.3,2.1c0.1,0.1,0.3,0.2,0.5,0.2c0.1,0,0.2,0,0.3-0.1c0.3-0.1,0.4-0.4,0.4-0.6v-1.2h3.3c1.3,0,2.3,1.1,2.3,2.3
		s-1.1,2.3-2.3,2.3h-6.1c-0.5,0-0.9,0.4-0.9,0.9s0.4,0.9,0.9,0.9h6.1c2.3,0,4.2-1.9,4.2-4.2S44.2,27.5,41.8,27.5L41.8,27.5z
		 M41.8,27.5"/>
	<path class="st1" d="M48.9,19.1H32c-1.5,0-2.8,1.3-2.8,2.8v15c0,1.5,1.3,2.8,2.8,2.8h16.9c1.5,0,2.8-1.3,2.8-2.8v-15
		C51.7,20.4,50.4,19.1,48.9,19.1L48.9,19.1z M48.9,37.8H32c-0.5,0-0.9-0.4-0.9-0.9V23.8h18.7v13.1C49.8,37.4,49.4,37.8,48.9,37.8
		L48.9,37.8z M48.9,37.8"/>
</g>
</svg>
