<?xml version="1.0" encoding="utf-8"?>
<!-- Generator: Adobe Illustrator 24.0.0, SVG Export Plug-In . SVG Version: 6.00 Build 0)  -->
<svg version="1.1" id="Layer_1" xmlns="http://www.w3.org/2000/svg" xmlns:xlink="http://www.w3.org/1999/xlink" x="0px" y="0px"
	 viewBox="0 0 80 80" style="enable-background:new 0 0 80 80;" xml:space="preserve">
<style type="text/css">
	.st0{fill:#04B604;}
	.st1{clip-path:url(#SVGID_2_);fill:#04B604;}
</style>
<path class="st0" d="M69.2,19.3c-3.7,0-6.6,3-6.6,6.6v17.2l-1.3,1.3c-0.3-0.8-0.8-1.5-1.5-2.1c-2.7-2.6-7-2.6-9.6,0.1L40,52.7
	L29.7,42.4c-2.6-2.7-6.9-2.7-9.6-0.1c-0.6,0.6-1.1,1.4-1.5,2.1l-1.3-1.3V25.9c0-3.7-3-6.6-6.6-6.6c-3.7,0-6.6,3-6.6,6.6v21
	c0,2.2,0.6,4.3,1.7,6.1l0,0.1l12.5,18.3l-1.4,8.4h46.3l-1.4-8.4l12.4-18.3l0.1-0.1c1.1-1.9,1.7-4,1.7-6.1v-21
	C75.9,22.3,72.9,19.3,69.2,19.3L69.2,19.3z M37.8,75.6H21.8l0.9-5.1L9.3,50.9c-0.7-1.2-1.1-2.6-1.1-3.9v-21c0-1.3,1.1-2.4,2.4-2.4
	c1.3,0,2.4,1.1,2.4,2.4v18.9l14.2,14.7l0,0l0.2,0.2l3-2.9l-7.6-7.9c-0.9-1-0.8-2.6,0.2-3.5c1-1,2.7-1,3.7,0l11.2,11.3V75.6z
	 M71.7,46.9c0,1.4-0.4,2.7-1.1,3.9L57.2,70.5l0.9,5.1H42.1v-19l11.2-11.3c1-1,2.7-1,3.7,0c1,1,1,2.5,0.2,3.5l-7.6,7.9l3,2.9l0.2-0.2
	l0,0l14.2-14.7V25.9c0-1.3,1.1-2.4,2.4-2.4c1.3,0,2.4,1.1,2.4,2.4V46.9z M71.7,46.9"/>
<g>
	<defs>
		<rect id="SVGID_1_" x="23.2" y="1" width="35.8" height="42"/>
	</defs>
	<clipPath id="SVGID_2_">
		<use xlink:href="#SVGID_1_"  style="overflow:visible;"/>
	</clipPath>
	<path class="st1" d="M58.9,12.4L58.9,12.4c0-0.4,0-0.9,0-1.3c0-2.3-1.9-4.2-4.2-4.4c-4.8-0.3-8.6-1.8-11.8-5l0,0c-1-1-2.6-1-3.7,0
		l0,0c-3.2,3.1-6.9,4.7-11.8,5c-2.3,0.1-4.2,2-4.2,4.4c0,0.5,0,0.9,0,1.3l0,0.1C23.1,17.4,23,23.5,25,29.1c1.1,3.1,2.8,5.7,5.1,7.9
		c2.6,2.5,5.9,4.5,9.9,5.9c0.1,0,0.3,0.1,0.4,0.1c0.2,0,0.4,0.1,0.6,0.1c0.2,0,0.4,0,0.6-0.1c0.1,0,0.3-0.1,0.4-0.1
		c4-1.4,7.4-3.4,9.9-5.9c2.2-2.2,4-4.9,5.1-7.9C59.1,23.5,59,17.3,58.9,12.4L58.9,12.4z M54.8,28.2c-2.2,5.9-6.6,9.9-13.5,12.3
		c0,0-0.1,0-0.1,0c-0.1,0-0.1,0-0.2,0c0,0-0.1,0-0.1,0c-6.9-2.4-11.4-6.4-13.5-12.3c-1.9-5.1-1.8-10.8-1.7-15.7l0,0
		c0-0.4,0-0.9,0-1.4c0-1,0.8-1.9,1.9-1.9c2.7-0.2,5.1-0.7,7.3-1.6c2.2-0.9,4.2-2.2,6-4c0.1-0.1,0.2-0.1,0.3,0c1.8,1.8,3.8,3.1,6,4
		c2.2,0.9,4.6,1.5,7.3,1.6c1,0.1,1.9,0.9,1.9,1.9c0,0.5,0,0.9,0,1.4C56.5,17.4,56.7,23.1,54.8,28.2L54.8,28.2z M54.8,28.2"/>
</g>
<path class="st0" d="M41.1,11.5c-5.8,0-10.5,4.7-10.5,10.5c0,5.8,4.7,10.5,10.5,10.5c5.8,0,10.5-4.7,10.5-10.5
	C51.5,16.2,46.8,11.5,41.1,11.5L41.1,11.5z M41.1,30c-4.4,0-8-3.6-8-8s3.6-8,8-8c4.4,0,8,3.6,8,8S45.5,30,41.1,30L41.1,30z M41.1,30
	"/>
<path class="st0" d="M44.1,18.8l-4.9,4.9l-1.3-1.3c-0.5-0.5-1.3-0.5-1.7,0c-0.5,0.5-0.5,1.3,0,1.7l2.2,2.2c0.2,0.2,0.6,0.4,0.9,0.4
	c0.3,0,0.6-0.1,0.9-0.4l5.7-5.7c0.5-0.5,0.5-1.3,0-1.7C45.3,18.3,44.6,18.3,44.1,18.8L44.1,18.8z M44.1,18.8"/>
</svg>
