<?xml version="1.0" encoding="utf-8"?>
<!-- Generator: Adobe Illustrator 24.0.0, SVG Export Plug-In . SVG Version: 6.00 Build 0)  -->
<svg version="1.1" id="Layer_1" xmlns="http://www.w3.org/2000/svg" xmlns:xlink="http://www.w3.org/1999/xlink" x="0px" y="0px"
	 viewBox="0 0 80 80" style="enable-background:new 0 0 80 80;" xml:space="preserve">
<style type="text/css">
	.st0{fill:#04B604;}
</style>
<path class="st0" d="M69.2,19.3c-3.7,0-6.6,3-6.6,6.6v17.2l-1.3,1.3c-0.3-0.8-0.8-1.5-1.5-2.1c-2.7-2.6-7-2.6-9.6,0.1L40,52.7
	L29.7,42.4c-2.6-2.7-6.9-2.7-9.6-0.1c-0.6,0.6-1.1,1.4-1.5,2.1l-1.3-1.3V25.9c0-3.7-3-6.6-6.6-6.6c-3.7,0-6.6,3-6.6,6.6v21
	c0,2.2,0.6,4.3,1.7,6.1l0,0.1l12.5,18.3l-1.4,8.4h46.3l-1.4-8.4l12.4-18.3l0.1-0.1c1.1-1.9,1.7-4,1.7-6.1v-21
	C75.9,22.3,72.9,19.3,69.2,19.3L69.2,19.3z M37.8,75.6H21.8l0.9-5.1L9.3,50.9c-0.7-1.2-1.1-2.6-1.1-3.9v-21c0-1.3,1.1-2.4,2.4-2.4
	c1.3,0,2.4,1.1,2.4,2.4v18.9l14.2,14.7l0,0l0.2,0.2l3-2.9l-7.6-7.9c-0.9-1-0.8-2.6,0.2-3.5c1-1,2.7-1,3.7,0l11.2,11.3V75.6z
	 M71.7,46.9c0,1.4-0.4,2.7-1.1,3.9L57.2,70.5l0.9,5.1H42.1v-19l11.2-11.3c1-1,2.7-1,3.7,0c1,1,1,2.5,0.2,3.5l-7.6,7.9l3,2.9l0.2-0.2
	l0,0l14.2-14.7V25.9c0-1.3,1.1-2.4,2.4-2.4c1.3,0,2.4,1.1,2.4,2.4V46.9z M71.7,46.9"/>
<g>
	<path class="st0" d="M32.1,21.9l-4.1,11.3c-0.2,0.6,0.1,1.2,0.7,1.4c0.4,0.1,0.8,0.1,1.1-0.2l10.3-8.2l9.2,8.2
		c0.5,0.4,1.1,0.4,1.6-0.1c0.2-0.3,0.3-0.7,0.2-1l-3.1-11.4l8.2-6.1c0.5-0.4,0.6-1.1,0.2-1.5c-0.2-0.3-0.5-0.4-0.9-0.4H45.1L41,3.5
		c-0.2-0.6-0.9-0.8-1.4-0.6C39.3,3,39,3.2,38.9,3.5l-4.1,10.3H24.6c-0.6,0-1.1,0.5-1.1,1.1c0,0.3,0.2,0.7,0.4,0.9L32.1,21.9z
		 M35.6,16c0.4,0,0.9-0.3,1-0.7L40,6.9l3.4,8.4c0.2,0.4,0.6,0.7,1,0.7H52l-6.1,4.6c-0.4,0.3-0.5,0.7-0.4,1.2l2.3,8.5L40.7,24
		c-0.4-0.4-1-0.4-1.4,0l-7.9,6.3l3.1-8.4c0.2-0.5,0-1-0.4-1.3L27.9,16H35.6z"/>
	<rect x="29" y="5.2" transform="matrix(0.7071 -0.7071 0.7071 0.7071 2.9295 23.6987)" class="st0" width="2.2" height="6.2"/>
	<rect x="46.7" y="7.2" transform="matrix(0.7071 -0.7071 0.7071 0.7071 8.7193 37.6736)" class="st0" width="6.2" height="2.2"/>
	<rect x="21.3" y="22.6" class="st0" width="6.6" height="2.2"/>
	<rect x="52" y="22.6" class="st0" width="6.6" height="2.2"/>
	<rect x="38.9" y="29.2" class="st0" width="2.2" height="6.6"/>
</g>
</svg>
