<?xml version="1.0" encoding="utf-8"?>
<!-- Generator: Adobe Illustrator 24.0.0, SVG Export Plug-In . SVG Version: 6.00 Build 0)  -->
<svg version="1.1" id="Layer_1" xmlns="http://www.w3.org/2000/svg" xmlns:xlink="http://www.w3.org/1999/xlink" x="0px" y="0px"
	 viewBox="0 0 80 80" style="enable-background:new 0 0 80 80;" xml:space="preserve">
<style type="text/css">
	.st0{fill:#04B604;}
</style>
<path class="st0" d="M71.1,18.5c-3.7,0-6.6,3-6.6,6.6v17.2l-1.3,1.3c-0.3-0.8-0.8-1.5-1.5-2.1c-2.7-2.6-7-2.6-9.6,0.1L41.8,51.9
	L31.5,41.6c-2.6-2.7-6.9-2.7-9.6-0.1c-0.6,0.6-1.1,1.4-1.5,2.1l-1.3-1.3V25.1c0-3.7-3-6.6-6.6-6.6c-3.7,0-6.6,3-6.6,6.6v21
	c0,2.2,0.6,4.3,1.7,6.1l0,0.1l12.5,18.3L18.7,79H65l-1.4-8.4L76,52.4l0.1-0.1c1.1-1.9,1.7-4,1.7-6.1v-21
	C77.8,21.5,74.8,18.5,71.1,18.5L71.1,18.5z M39.7,74.8H23.7l0.9-5.1L11.2,50.1c-0.7-1.2-1.1-2.6-1.1-3.9v-21c0-1.3,1.1-2.4,2.4-2.4
	c1.3,0,2.4,1.1,2.4,2.4V44l14.2,14.7l0,0l0.2,0.2l3-2.9l-7.6-7.9c-0.9-1-0.8-2.6,0.2-3.5c1-1,2.7-1,3.7,0l11.2,11.3V74.8z
	 M73.6,46.1c0,1.4-0.4,2.7-1.1,3.9L59.1,69.7l0.9,5.1H43.9v-19l11.2-11.3c1-1,2.7-1,3.7,0c1,1,1,2.5,0.2,3.5L51.3,56l3,2.9l0.2-0.2
	l0,0L68.7,44V25.1c0-1.3,1.1-2.4,2.4-2.4c1.3,0,2.4,1.1,2.4,2.4V46.1z M73.6,46.1"/>
<g>
	<g>
		<path class="st0" d="M58.3,6.4c-0.6-0.7-1.5-1.1-2.4-1.1h-2.1c0-0.1,0-0.3,0-0.4h0c1.1,0,1.9-0.9,1.9-1.9c0-1.1-0.9-1.9-1.9-1.9
			H30.4c-1.1,0-1.9,0.9-1.9,1.9c0,1.1,0.9,1.9,1.9,1.9h0c0,0.1,0,0.2,0,0.4h-2.1c-0.9,0-1.8,0.4-2.4,1.1C25.3,7.1,25,8,25.1,8.9
			c0.3,1.7,0.9,4.2,2.4,6.5c0.2,0.2,0.5,0.3,0.8,0.1c0.3-0.2,0.3-0.5,0.1-0.8c-1.4-2.1-2-4.4-2.2-6c-0.1-0.6,0.1-1.2,0.5-1.7
			c0.4-0.5,1-0.7,1.6-0.7h2.2c0,0.3,0.1,0.7,0.2,1.1h-2.4c-0.3,0-0.5,0.1-0.7,0.3c-0.2,0.2-0.3,0.5-0.2,0.8c0.5,3.2,2.3,8.7,9.1,9.8
			c0.5,0.4,0.9,0.8,1.3,1.3c-3.2-0.2-5.9-1.3-7.9-3.2c-0.2-0.2-0.6-0.2-0.8,0c-0.2,0.2-0.2,0.6,0,0.8c2.3,2.3,5.5,3.5,9.4,3.6
			c0.5,1.1,0.8,2.6,0.9,4.9h-2.5c-1.4,0-2.7,1.1-2.9,2.5l-1,7.6c-1,0.1-1.8,1-1.8,2.1v1.4c0,0.3,0.3,0.6,0.6,0.6h20.6
			c0.3,0,0.6-0.3,0.6-0.6v-1.4c0-1-0.8-1.9-1.8-2.1l-1-7.6c-0.2-1.4-1.4-2.5-2.9-2.5h-2.5c0-2.3,0.4-3.8,0.9-4.9
			c4.4-0.1,7.9-1.6,10.3-4.6c2-2.5,2.8-5.3,3-7.3C59.1,8,58.9,7.1,58.3,6.4L58.3,6.4z M53.2,8.7h2.4c-0.2,1.4-0.8,3.4-2,5
			c-1.1,1.5-2.5,2.5-4.2,3.1c0.2-0.2,0.4-0.4,0.6-0.6C51.8,13.9,52.7,11,53.2,8.7L53.2,8.7z M30.5,13.7c-1.2-1.7-1.8-3.6-2-5h2.4
			c0.5,2.4,1.4,5.3,3.3,7.5c0.2,0.2,0.4,0.4,0.6,0.6C33,16.2,31.6,15.2,30.5,13.7L30.5,13.7z M49,28.3l1,7.4h-8.8
			c-0.3,0-0.6,0.3-0.6,0.6c0,0.3,0.3,0.6,0.6,0.6h9.7c0.5,0,0.9,0.4,0.9,0.9v0.8H32.4v-0.8c0-0.5,0.4-0.9,0.9-0.9h5.6
			c0.3,0,0.6-0.3,0.6-0.6c0-0.3-0.3-0.6-0.6-0.6h-4.7l1-7.4c0.1-0.9,0.9-1.5,1.7-1.5h10.4C48.1,26.8,48.9,27.5,49,28.3L49,28.3z
			 M40.5,25.7c-0.1-5.4-1.8-6.9-3.6-8.5c-0.6-0.5-1.2-1.1-1.8-1.8c-2.8-3.5-3.4-8.8-3.5-10.6h15.9c0.3,0,0.6-0.3,0.6-0.6
			c0-0.3-0.3-0.6-0.6-0.6H30.4c-0.4,0-0.8-0.4-0.8-0.8c0-0.4,0.4-0.8,0.8-0.8h23.3c0.4,0,0.8,0.4,0.8,0.8c0,0.4-0.4,0.8-0.8,0.8
			h-3.9c-0.3,0-0.6,0.3-0.6,0.6c0,0.3,0.3,0.6,0.6,0.6h2.7c-0.1,1.8-0.7,7.1-3.5,10.6c-0.6,0.7-1.2,1.2-1.8,1.8
			c-1.8,1.6-3.5,3-3.6,8.5H40.5z M57.9,8.8c-0.3,1.8-1,4.5-2.8,6.8c-2,2.5-5,3.9-8.7,4.1c0.4-0.5,0.8-0.9,1.3-1.3
			c6.8-1,8.6-6.6,9.1-9.8c0-0.3,0-0.5-0.2-0.8c-0.2-0.2-0.4-0.3-0.7-0.3h-2.4c0.1-0.4,0.1-0.8,0.2-1.1h2.2c0.6,0,1.2,0.3,1.6,0.7
			C57.8,7.6,58,8.2,57.9,8.8L57.9,8.8z M57.9,8.8"/>
	</g>
</g>
</svg>
