<?xml version="1.0" encoding="UTF-8"?>
<!-- Generator: Adobe Illustrator 24.2.1, SVG Export Plug-In . SVG Version: 6.00 Build 0)  -->
<svg version="1.1" id="Calque_1" xmlns="http://www.w3.org/2000/svg" xmlns:xlink="http://www.w3.org/1999/xlink" x="0px" y="0px" viewBox="0 0 210 210" style="enable-background:new 0 0 210 210;" xml:space="preserve">
<style type="text/css">
	.st0{fill:#F5F5F5;stroke:#DDDDDD;stroke-width:6;stroke-miterlimit:10;}
	.st1{fill:#666666;}
</style>
<circle class="st0" cx="104.9" cy="105" r="98.8"/>
<g>
	<g>
		<path class="st1" d="M163.7,108.7l-31.9,31.9c-2,2-5.3,2-7.4,0c-2-2-2-5.3,0-7.4l28.3-28.3l-28.3-28.3c-2-2-2-5.3,0-7.4    c2-2,5.3-2,7.4,0l31.9,31.9c1,1,1.5,2.3,1.5,3.7C165.2,106.3,164.7,107.7,163.7,108.7z"/>
	</g>
	<g>
		<path class="st1" d="M46.1,108.7L78,140.6c2,2,5.3,2,7.4,0c2-2,2-5.3,0-7.4L57.1,105l28.3-28.3c2-2,2-5.3,0-7.4c-2-2-5.3-2-7.4,0    l-31.9,31.9c-1,1-1.5,2.3-1.5,3.7C44.6,106.3,45.1,107.7,46.1,108.7z"/>
	</g>
</g>
</svg>