<?xml version="1.0" encoding="utf-8"?>
<!-- Generator: Adobe Illustrator 27.0.0, SVG Export Plug-In . SVG Version: 6.00 Build 0)  -->
<svg version="1.1" id="Calque_1" xmlns="http://www.w3.org/2000/svg" xmlns:xlink="http://www.w3.org/1999/xlink" x="0px" y="0px"
	 viewBox="0 0 345.2 267.8" style="enable-background:new 0 0 345.2 267.8;" xml:space="preserve">
<style type="text/css">
	.st0{fill:#FFFFFF;}
	.st1{fill-rule:evenodd;clip-rule:evenodd;fill:#343740;}
	.st2{fill-rule:evenodd;clip-rule:evenodd;fill:#FFFFFF;}
	.st3{fill:#343740;}
	.st4{fill:#489161;}
	.st5{fill:none;}
	.st6{fill-rule:evenodd;clip-rule:evenodd;fill:#489161;}
</style>
<g>
	<path class="st0" d="M281.3,82.5c-0.6-0.5-1.3-1.1-1.2-2.2c0.1-1.2,1-1.7,1.7-2s0.9-0.5,1-0.9c0-0.4-0.2-0.6-0.8-1
		c-0.6-0.5-1.4-1.1-1.3-2.3c0.1-1.2,1-1.7,1.7-2c0.6-0.3,0.9-0.5,1-0.9c0-0.4-0.2-0.6-0.8-1c-0.6-0.5-1.4-1.1-1.3-2.3
		c0.1-1.2,1-1.6,1.7-2c0.7-0.3,0.9-0.5,1-0.9c0-0.4-0.2-0.6-0.8-1c-0.6-0.5-1.4-1.1-1.3-2.3s1-1.7,1.7-2c0.3-0.2,0.5-0.3,0.7-0.4
		c-3-1.1-14.6-5-21.7-5.8c-0.3,3.3-1.1,10-2.8,23.9C263.1,77.4,276.4,81.1,281.3,82.5z"/>
	<path class="st0" d="M124.5,213.7c1.2,1.6,0.7,4.2,0.2,7c-0.5,2.5-0.9,5,0,5.9c0.2,0.1,0.4,0.3,0.7,0.4c2.3,1.1,9.1,1.9,16.4-1.2
		c3.1-1.3,6.4-3.3,9.5-6.4c-1.5-0.7-8.8-4.2-17.2-12.8c-8.4-8.7-19.3-24.3-23.6-49.5c-8.4-49,1.3-96.5,3.2-105.4
		C88,54.2,83.2,60.8,79.2,66.3c-2.8,3.9-5.2,7.2-13.7,8c-6.3,0.6-10.2,1.8-11,6.2c-0.1,0.6-0.2,1.3-0.3,1.9
		C53.4,87.5,52.6,93,40,91.7c-0.3,0-0.5,0-0.6,0.1c-0.2,0.2-0.1,0.8-0.1,1.1c0,0.1,0,0.3,0,0.4c0,0.6,0,32.4,0,32.4v0.3
		c0,0,0.2,0.4,1.4,0.8c2.4,0.7,10,0.2,34.1-11.3c8-3.9,13.2-4.4,15.4-1.7c2.5,3.1-0.1,9.4-1.1,10.7c-0.8,1.1-1.8,2-2.6,2.8
		c-1.7,1.7-3,2.9-2.6,5c0.2,1,2.2,2.1,4.1,3.1c2.6,1.4,5.4,2.9,5.9,5.3c0.4,1.8-1.1,3.9-2.7,6c-1.5,2-3.1,4.3-2.7,5.8
		c0.3,1.2,2.5,2.2,4.7,3.2c2.6,1.2,5.2,2.4,5.8,4.4c0.6,1.9-0.8,4.1-2.3,6.5c-1.3,2.1-2.7,4.3-2.2,5.7c0.4,1.3,2.8,2.1,5.1,2.9
		c2.6,0.9,5.3,1.9,6,3.8c0.7,1.8-0.5,4.2-1.7,6.8c-1.1,2.2-2.3,4.5-1.7,5.8c0.6,1.2,3,1.9,5.4,2.4c2.8,0.7,5.4,1.3,6.3,3.1
		s0,4.3-0.9,7c-0.8,2.3-1.7,4.7-1,5.9s3.3,1.4,5.8,1.7C120.6,211.8,123.3,212.1,124.5,213.7z M87.6,94.6l-2,3.9l-1.1,2.1
		c-0.5,0.9-1.4,1.4-2.4,1.4s-1.8-0.5-2.3-1.3c-0.3-0.5-0.4-1.2-0.3-1.8c-1.2,0.5-2.3,1.1-3.5,1.6c0,2.2,0.1,4.3,0.1,6.5
		c0,0.5-0.7,0.5-0.7,0c-0.1-2.1-0.1-4.1-0.1-6.2c-0.6,0.3-1.2,0.6-1.8,0.8c0,0.7,0,1.4,0.1,2.1c0,0.5-0.7,0.5-0.7,0
		c0-0.6,0-1.2-0.1-1.8c-5.2,2.4-10.5,4.8-15.6,7.1c1,0.5,1.6,1.6,1.4,2.7c-0.2,1.3-1.2,2.3-2.5,2.3c-0.2,0-0.4,0-0.7-0.1
		c-0.7-0.2-1.3-0.4-2-0.5c0.1,2.9,0.1,5.8,0.2,8.8c0,0.5-0.7,0.5-0.7,0c-0.1-3-0.1-6-0.2-9c-1-0.3-2.1-0.6-3.1-1
		c0.1,3.1,0.2,6.1,0.2,9.2c0,0.5-0.7,0.5-0.7,0c0-3.1-0.1-6.3-0.2-9.4h-0.1c-0.7-0.3-1.2-0.8-1.5-1.5s-0.2-1.5,0.1-2.1l1.2-2.4
		c-0.2-3-0.3-6.1-0.3-9.1c0-0.5,0.7-0.5,0.7,0c0,2.6,0.1,5.2,0.2,7.8l1.2-2.3c0.4-0.8,1.2-1.3,2-1.4c-0.1-3-0.1-6-0.2-9.1
		c0-0.5,0.7-0.5,0.7,0c0.1,3,0.1,6,0.2,9.1c0.8,0.1,1.5,0.5,2,1.2c0.3,0.5,0.4,1.2,0.3,1.8c5.7-2.5,11.4-5.1,17.1-7.7
		c-0.1-3.6-0.2-7.3-0.3-10.9c0-0.5,0.7-0.5,0.7,0c0.1,3.5,0.2,7.1,0.3,10.6c0.6-0.3,1.3-0.6,1.9-0.9c0-4.2,0-8.4-0.2-12.6
		c0-0.5,0.7-0.5,0.7,0c0.2,4.1,0.2,8.2,0.2,12.3c0.6-0.3,1.3-0.6,1.9-0.9c-1-0.5-1.6-1.6-1.5-2.7c0.2-1.3,1.2-2.3,2.5-2.3
		c0.2,0,0.4,0,0.6,0.1c2.3,0.6,4.5,1.2,6.6,2c0.7,0.3,1.2,0.8,1.5,1.5C88,93.2,87.9,94,87.6,94.6z"/>
	<path class="st0" d="M15.1,102.4c0.1,0.1,0.4,0.3,0.7,0.5c0.7,0.4,1.5,1,1.6,2.1c0,1.2-0.9,1.7-1.5,2.2c-0.6,0.4-0.9,0.6-0.9,1
		s0.3,0.6,0.9,1c0.7,0.4,1.5,1,1.6,2.1c0,1.2-0.9,1.7-1.5,2.2c-0.6,0.4-0.9,0.6-0.9,1s0.3,0.6,0.9,1c0.6,0.4,1.5,1,1.6,2.1
		c0,1.2-0.9,1.8-1.5,2.2c-0.6,0.4-0.9,0.6-0.9,1s0.3,0.6,0.9,1c0.7,0.4,1.5,1,1.6,2.1c0,1.1-0.8,1.7-1.4,2.1c5-1,18.2-3.5,21.7-3.3
		c0-5.5,0-17.3,0-24.1C30.8,98.5,18.3,101.6,15.1,102.4z"/>
	<path class="st0" d="M190.1,115.9c-2.7-40.7-14.4-73.5-14.9-74.8c-1.5,0.3-3,0.7-4.6,1.1c1.4,3.9,12.8,35.2,15.2,73.9
		C187.3,116,188.7,115.9,190.1,115.9L190.1,115.9z"/>
	<path class="st0" d="M118.5,156.9c9.1,46.6,36.7,57,37,57.1l-0.2,0.5c4.9-7.2,8.8-18.2,9.3-34.9c0,0,0-0.3-0.3-0.5
		s-0.9-0.3-1.6-0.1c-3.8,0.8-15.8,1.3-22-0.2c-2.2-0.5-1.9-2.2-1.7-3.3c0.8-4.4-1-6.4-3-8.8c-1.8-2-3.8-4.3-4.2-8.5
		c-0.8-8.4,2.6-11,5.3-13.1c1.7-1.3,3.1-2.3,3.4-4.5c0.5-3.6,2.6-3.4,3.9-3.3h0.3c1.5,0.1,10.3,0.5,14.3-0.4
		c2.4-0.5,2.3-1.5,2.3-1.6l-0.5-7.6c-0.4-2.7,1.8-5.2,6.5-7.4c3.6-1.6,8.4-2.9,13.6-3.7c1.2-0.2,2.4-0.3,3.6-0.4
		c-2.4-39.1-14.1-70.7-15.2-73.6c-1.5,0.4-3.1,0.8-4.8,1.3h-0.1h-0.1c-7.4-0.9-28.8,2.2-38.6,7l-0.3,0.1c-1.1,0-2.3,0.1-3.3,0.2
		C120.5,56.7,108.7,106.2,118.5,156.9z"/>
	<path class="st0" d="M191.6,116c3.7,0.1,6.5,0.6,8.5,1.6c0.9-0.8,2.1-1.7,3.5-2.5c3.3-1.8,7.7-3.5,12.6-4.7
		c0.4-0.9,0.6-1.5,0.4-2.1c-0.4-1.7-2.3-3.1-4.2-4.4c-1.4-1-2.8-2-3.7-3.1c-1.5-1.9-1.6-4.4-0.4-6.6c1.2-2.1,5.3-6.8,18.7-5.3
		c9.3,1,15-2.3,19.2-4.7c2.4-1.4,4.4-2.5,6.3-2.4c5.2,0.4,5.6-2.9,5.6-3c1.1-8.6,2.5-20.9,3-25.9c0-0.1,0-0.2,0-0.3s0-0.2,0.1-0.3
		c0.1-0.9,0.1-1.6,0.1-1.7c0,0,0,0,0-0.1c-0.1-0.5-0.2-0.8-1.4-0.9c-9.3-0.9-15.6-0.8-20.6-0.7c-1.3,0-2.5,0-3.7,0
		c-0.5,0-0.9,0-1.4,0c-9.2-0.1-13.9-2.8-18.5-5.4c-7-4-14.3-8.1-39.1-2.6C177.7,43.7,188.9,76.1,191.6,116z M245.2,58.5
		c0-0.5,0.7-0.5,0.7,0c-0.2,6.1-0.4,12.3-0.6,18.4c0,0.5-0.7,0.5-0.7,0C244.8,70.8,245,64.6,245.2,58.5z M242.5,60.3
		c0-0.5,0.7-0.5,0.7,0c0,4.3-0.5,8.7-0.4,13c0,0.5-0.7,0.5-0.7,0C242,69,242.5,64.6,242.5,60.3z M224.6,55.5c0-0.5,0.8-0.5,0.7,0
		c-0.6,8.2-0.2,16.4-0.6,24.6c0,0.5-0.8,0.5-0.7,0C224.4,71.9,224.1,63.7,224.6,55.5z M220.9,52.4c0-0.5,0.7-0.5,0.7,0
		c-0.4,10.1-0.8,20.1-1.3,30.2c0,0.5-0.7,0.5-0.7,0C220.1,72.5,220.5,62.5,220.9,52.4z"/>
	<path class="st0" d="M117.1,157.1c-9.7-49.8,1.5-98.4,3.3-105.9c-1.8,0.1-3.6,0.2-5.3,0.4c-1.7,7.6-11.8,55.7-3.3,105.3
		c4.3,24.9,15,40.2,23.2,48.7c8.9,9.2,16.9,12.6,17,12.7l-0.3,0.6c1-1.1,2-2.3,3-3.6c-1.3-0.5-7.8-3.3-15.3-11.1
		S121.9,181.9,117.1,157.1z"/>
	<path class="st0" d="M282.2,112.3c-0.1-0.6-0.3-1-0.6-1.2c-0.3-0.2-0.7,0-0.9,0.1c-0.4,0.2-5.2,2.4-7.2,3.3
		c-0.9,10.5-2.5,22.3-5.3,34.2c4.6-1.2,9.3-2.7,11.4-3.6c0.5-0.2,0.5-0.3,0.4-0.9c0-0.2-0.1-0.4-0.1-0.7c-0.2-3.7,1.7-6,3.6-8.2
		c1.7-2,3.5-4.1,3.9-7.4c0.7-5.7-0.6-7.2-2.1-8.8C284.1,117.7,282.7,116.1,282.2,112.3z"/>
	<path class="st0" d="M272.6,99.3c-0.8-0.9-3-1.4-5.8-1.4c-4,0-9.4,1.1-15,3.1c-5.7,2-13.2,5.7-15.9,9.4l-0.3,0.4l-0.5-0.2
		c-3.7-1.2-10.8-0.8-17.9,0.9c-5,1.2-9.5,2.8-12.9,4.7c-1.5,0.9-2.7,1.7-3.6,2.6l-0.4,0.4l-0.5-0.3c-2-1.1-5.4-1.7-9.8-1.7
		c-2.8,0-5.9,0.2-8.9,0.7c-5.1,0.8-9.8,2-13.3,3.6c-4.1,1.8-6,3.8-5.6,5.9l0.5,7.6c0,0,0.4,2.3-3.4,3.1c-4.3,0.9-13.2,0.5-14.7,0.4
		h-0.4c-1.2-0.1-2-0.2-2.3,2c-0.4,2.8-2.2,4.2-3.9,5.5c-2.7,2-5.5,4.1-4.7,11.8c0.4,3.7,2.1,5.7,3.9,7.7c2.1,2.4,4.3,4.9,3.4,10
		c-0.2,1.3-0.2,1.5,0.7,1.7c6.1,1.5,17.7,1,21.4,0.2c1.2-0.3,2.2-0.1,2.8,0.4c0.8,0.6,0.8,1.5,0.8,1.7
		c-1.1,31.6-13.6,43.3-23.8,47.6c-4.3,1.8-8.5,2.4-11.8,2.3c9.8,3.5,25.4,4.1,39.6-4.3c17-10.1,36.1-35.3,30.3-98.2l1.4-0.1
		c5.9,63.6-13.6,89.2-31,99.5c-2.6,1.5-5.1,2.7-7.6,3.7c9,3.3,24.6,2.4,39.2-7.5c34.1-23.2,36.7-75.3,35.2-104.3l1.4-0.1
		c1.5,28.7-1,79.7-33.6,104c3.4,0.7,12.8-0.9,23.3-8.1c35.7-24.4,43-81.7,44.3-113.6C273,99.9,272.8,99.6,272.6,99.3z M165.5,170.4
		c-0.4,0-0.7-0.3-0.8-0.6c-0.2-1.9-0.4-4.8-0.6-8c-0.4-6.7-1-15.8-1.6-17.2c-0.1-0.4,0-0.8,0.4-0.9c0.1,0,0.2,0,0.3,0
		c0.3,0,0.6,0.2,0.7,0.4c0.6,1.5,1.1,8.3,1.7,17.7c0.2,3.1,0.4,6,0.6,7.9C166.1,170,165.9,170.4,165.5,170.4z M182.9,129.8
		c-10.1,1.5-18.6,0.4-19-2.4c-0.4-2.9,7.4-6.4,17.5-7.9s18.6-0.4,19,2.4C200.8,124.8,192.9,128.3,182.9,129.8z M219.9,123.1
		c-9.9,2.3-18.4,2-19.1-0.8c-0.7-2.8,6.8-7,16.7-9.3s18.4-2,19.1,0.8C237.2,116.6,229.8,120.8,219.9,123.1z M255.8,112.2
		c-9.6,3.4-18.2,4-19.1,1.2c-1-2.7,6-7.7,15.6-11.1c9.6-3.4,18.2-4,19.1-1.2C272.4,103.8,265.4,108.8,255.8,112.2z"/>
	<path class="st0" d="M288.6,128c-0.5,3.6-2.4,5.9-4.2,8c-1.9,2.2-3.5,4.2-3.3,7.3c0,0.2,0,0.4,0.1,0.6c0.1,0.7,0.3,1.7-1.1,2.2
		c-2.2,0.9-7.2,2.5-12,3.7l-0.1-0.3c-6,25.3-17.4,51-38.5,65.5c-11.1,7.6-21.6,9.3-25.1,8.1l0.2-0.7c-0.5,0.3-0.9,0.7-1.4,1.1
		c-15.8,10.8-32.8,11.2-42,7.1l0,0c-6.6,2.2-12.7,2.7-17.1,2.6c-7.3-0.2-14.4-2-19.3-4.9c-0.4-0.2-0.7-0.4-1-0.6l0,0l0,0
		c0,0-0.1,0-0.1-0.1c-1.6-1.5-1-4.3-0.5-7.3c0.4-2.4,0.9-4.8,0.1-5.9c-0.8-1.1-3.3-1.3-5.6-1.6c-2.8-0.3-5.7-0.6-6.8-2.4
		c-1.1-1.8-0.2-4.4,0.8-7.1c0.8-2.3,1.7-4.6,1-5.8c-0.6-1.2-3.1-1.8-5.4-2.4c-2.8-0.7-5.5-1.4-6.4-3.2c-0.9-1.9,0.4-4.5,1.7-7
		c1.1-2.1,2.2-4.4,1.7-5.6c-0.5-1.3-2.9-2.2-5.2-3c-2.7-1-5.3-1.9-5.9-3.8c-0.7-2,0.9-4.5,2.4-6.9c1.2-2,2.5-4.1,2.2-5.3
		c-0.4-1.4-2.8-2.5-5.1-3.5c-2.6-1.2-5-2.3-5.5-4.2c-0.6-2.2,1.2-4.6,2.9-7c1.3-1.8,2.7-3.7,2.5-4.9c-0.4-1.7-2.9-3.1-5.2-4.3
		c-2.4-1.3-4.5-2.4-4.8-4.1c-0.5-2.9,1.2-4.5,3-6.3c0.8-0.8,1.7-1.6,2.4-2.6c0.7-0.9,3.1-6.5,1.1-8.9c-1.2-1.5-4.5-2.3-13.7,2.1
		c-18.7,9-30.6,12.8-35.1,11.4c-1.2-0.4-1.9-0.9-2.3-1.6c-0.2-0.4-0.2-0.7-0.1-1c0-0.2,0-0.8,0-1.6c-3.1-0.2-16.5,2.3-23.3,3.6
		c-0.2,0-0.4,0-0.6-0.1c-0.2-0.1-0.3-0.3-0.3-0.5c0-1.2,0.9-1.8,1.5-2.2c0.6-0.4,0.9-0.6,0.9-1s-0.3-0.6-0.9-1
		c-0.7-0.4-1.5-1-1.6-2.1c0-1.2,0.9-1.8,1.5-2.2c0.6-0.4,0.9-0.6,0.9-1s-0.3-0.6-0.9-1c-0.7-0.4-1.5-1-1.6-2.1
		c0-1.2,0.9-1.7,1.5-2.2c0.6-0.4,0.9-0.6,0.9-1s-0.3-0.6-0.9-1c-0.7-0.4-1.5-1-1.6-2.1c0-1.2,0.9-1.8,1.5-2.2c0.6-0.4,0.9-0.6,0.9-1
		s-0.3-0.6-0.9-1c-0.7-0.4-1.5-1-1.6-2.1c0-0.3,0.2-0.6,0.5-0.7c0.6-0.2,15.6-4.2,23.9-4.2c0-2.2,0-3.7,0-3.8c0-0.1,0-0.2,0-0.3
		c0-0.6-0.1-1.6,0.5-2.2c0.4-0.4,1-0.6,1.8-0.5c11.2,1.2,11.9-3.3,12.6-8c0.1-0.7,0.2-1.4,0.3-2c1.1-5.8,6.7-6.9,12.3-7.4
		c7.8-0.8,10-3.7,12.7-7.4c4.2-5.8,9.3-12.8,36-15.3l0,0h0.1c3.3-0.3,6.9-0.5,10.9-0.7c10.3-5,31.5-7.9,39.2-7
		c15.1-4.2,25.3-5.8,32.7-5.8c9.9,0,14.7,2.7,19.5,5.4c4.6,2.6,9,5.1,17.8,5.2c1.6,0,3.2,0,5.1,0c5.1-0.1,11.3-0.2,20.8,0.7
		c2.2,0.2,2.5,1.4,2.7,2v0.2c0,0.1,0.1,0.2-0.1,1.7c8.3,0.9,22.2,5.9,22.8,6.1c0.3,0.1,0.5,0.4,0.5,0.7c-0.1,1.2-1,1.7-1.7,2
		s-0.9,0.5-1,0.9c0,0.4,0.2,0.6,0.8,1c0.6,0.5,1.4,1.1,1.3,2.3c-0.1,1.2-1,1.7-1.7,2c-0.6,0.3-0.9,0.5-1,0.9c0,0.4,0.2,0.6,0.8,1
		c0.6,0.5,1.4,1.1,1.3,2.3c-0.1,1.2-1,1.7-1.7,2s-0.9,0.5-1,0.9c0,0.4,0.2,0.6,0.8,1c0.6,0.5,1.4,1.1,1.3,2.3c-0.1,1.2-1,1.7-1.7,2
		c-0.6,0.3-0.9,0.5-1,0.9c0,0.4,0.2,0.6,0.8,1c0.6,0.5,1.4,1.1,1.3,2.3c0,0.2-0.1,0.4-0.3,0.5c-0.2,0.1-0.4,0.1-0.6,0.1
		c-6.7-1.9-20-5.6-23-5.6h-0.1h-0.1c0,0.1,0,0.1,0,0.2c0,0-0.5,4.8-7.1,4.3c-1.4-0.1-3.2,0.9-5.4,2.2c-4.4,2.5-10.4,5.9-20.1,4.9
		c-8.7-1-15.2,0.8-17.4,4.6c-0.9,1.7-0.8,3.6,0.3,5.1c0.8,1,2,1.9,3.4,2.9c2.1,1.5,4.2,3,4.8,5.2c0.2,0.6,0.1,1.3-0.1,2
		c6.8-1.5,13.3-1.8,17.2-0.8c3.1-3.9,10.4-7.4,16.3-9.5c5.7-2,11.3-3.2,15.4-3.2c2.3,0,5.4,0.3,6.8,1.8c0.5,0.6,0.8,1.3,0.8,2
		c-0.1,3.9-0.4,8.2-0.8,12.7c2.2-1,6.1-2.8,6.5-3s0.7-0.3,1.1-0.3c0.3,0,0.6,0.1,0.9,0.2c0.5,0.2,1,0.8,1.2,2.1
		c0.4,3.5,1.7,4.8,2.8,6.1C287.8,120.1,289.4,121.8,288.6,128z"/>
</g>
<g>
	<path class="st1" d="M77.3,91.3c-0.1,0.9,0.5,1.8,1.4,2l1.7,0.5c-8.9,4.2-17.9,8.2-26.7,12.1l0.8-1.5c0.3-0.5,0.3-1.1,0-1.6
		s-0.9-0.8-1.6-0.8c-0.7,0-1.3,0.4-1.6,1l-3.1,6c-0.2,0.4-0.2,0.9,0,1.4s0.5,0.8,1,1c2.1,0.8,4.3,1.4,6.5,2c0.2,0,0.3,0.1,0.4,0.1
		c0.8,0,1.5-0.6,1.6-1.5s-0.5-1.8-1.3-2c-0.6-0.1-1.1-0.3-1.8-0.5c8.8-3.9,17.8-8,26.8-12.1l-0.8,1.5c-0.3,0.5-0.3,1.1,0,1.6
		s0.9,0.8,1.6,0.8s1.3-0.4,1.6-1l3.1-6c0.2-0.4,0.2-0.9,0.1-1.4c-0.2-0.5-0.5-0.8-1-1c-2.1-0.8-4.3-1.4-6.5-2
		c-0.1,0-0.3-0.1-0.4-0.1C78.1,89.8,77.4,90.4,77.3,91.3"/>
	<path class="st2" d="M76.5,91.2c-0.1,1.2,0.4,2.3,1.5,2.7c-7.5,3.5-15,6.9-22.4,10.2c0.1-0.6,0-1.3-0.3-1.8
		c-0.5-0.8-1.4-1.3-2.3-1.3c-1,0-1.9,0.6-2.4,1.5l-1.5,3l-1.5,3c-0.3,0.6-0.4,1.4-0.1,2.1c0.3,0.7,0.8,1.2,1.5,1.5
		c2.1,0.8,4.3,1.5,6.6,2c0.2,0.1,0.4,0.1,0.7,0.1c1.3,0,2.3-0.9,2.5-2.3c0.1-1.2-0.4-2.2-1.4-2.7c7.4-3.3,14.9-6.7,22.4-10.1
		c-0.1,0.6,0,1.2,0.3,1.8c0.5,0.8,1.4,1.3,2.3,1.3c1,0,1.9-0.6,2.4-1.4l1.1-2.1l2-3.9c0.3-0.6,0.3-1.4,0.1-2.1
		c-0.3-0.7-0.8-1.2-1.5-1.5c-2.1-0.8-4.3-1.5-6.6-2c-0.2-0.1-0.4-0.1-0.6-0.1C77.7,88.9,76.6,89.9,76.5,91.2 M79.2,90.7
		c2.2,0.6,4.3,1.2,6.4,2c0.4,0.2,0.6,0.7,0.4,1.1l-3.1,6c-0.2,0.3-0.5,0.5-0.8,0.5c-0.6,0-1.1-0.5-0.8-1.2l2-3.9
		c-10.4,4.9-20.8,9.6-31.3,14.2c1.3,0.4,2.7,0.9,4.1,1.2c1,0.2,0.9,1.7,0,1.7h-0.2c-2.2-0.5-4.3-1.2-6.4-2c-0.4-0.2-0.7-0.7-0.5-1.1
		l3.1-6c0.2-0.3,0.5-0.5,0.8-0.5c0.6,0,1.1,0.5,0.8,1.2l-1.9,3.7c10.4-4.6,20.8-9.3,31.1-14.1c-1.3-0.4-2.6-0.8-3.9-1.1
		c-1-0.2-0.9-1.7,0-1.7L79.2,90.7z"/>
	<path class="st3" d="M281.2,109.8c0.3,0,0.6,0.1,0.9,0.2c0.5,0.2,1,0.8,1.2,2.1c0.4,3.5,1.7,4.8,2.8,6.1c1.6,1.8,3.2,3.5,2.4,9.8
		c-0.5,3.6-2.4,5.9-4.2,8c-1.9,2.2-3.5,4.2-3.3,7.3c0,0.2,0,0.4,0.1,0.6c0.1,0.7,0.3,1.7-1.1,2.2c-2.2,0.9-7.2,2.5-12,3.7l-0.3-1.2
		c4.8-1.2,9.6-2.8,11.8-3.7c0.5-0.2,0.5-0.3,0.4-0.9c0-0.2-0.1-0.4-0.1-0.7c-0.2-3.7,1.7-6,3.6-8.2c1.7-2,3.5-4.1,3.9-7.4
		c0.7-5.7-0.6-7.2-2.1-8.8c-1.2-1.4-2.6-2.9-3.1-6.8c-0.1-0.6-0.3-1-0.6-1.2c-0.3-0.2-0.7,0-0.9,0.1c-0.5,0.3-7.9,3.7-7.9,3.7
		l-0.5-1.1c0,0,7.4-3.4,7.9-3.7C280.5,109.9,280.9,109.8,281.2,109.8z"/>
	<g>
		<path class="st4" d="M200.3,121.9c0.4,2.9-7.4,6.4-17.5,7.9s-18.6,0.4-19-2.4c-0.4-2.9,7.4-6.4,17.5-7.9
			C191.4,118,199.9,119.1,200.3,121.9"/>
		<path class="st4" d="M200.8,122.3c-0.7-2.8,6.8-7,16.7-9.3s18.4-2,19.1,0.8c0.7,2.8-6.8,7-16.7,9.3
			C210,125.5,201.5,125.1,200.8,122.3"/>
		<path class="st4" d="M271.4,101.1c1,2.7-6,7.7-15.6,11.1s-18.2,4-19.1,1.2c-1-2.7,6-7.7,15.6-11.1
			C261.9,99,270.4,98.4,271.4,101.1"/>
	</g>
	<path class="st3" d="M201.7,126.8c5.9,63.6-13.6,89.2-31,99.5c-10.1,6-20.1,7.1-26.7,7c-7.8-0.2-15.4-2.2-20.3-5.5l0.8-1.2
		c8.3,5.6,28,8.9,45.5-1.5c17-10.1,36.1-35.3,30.3-98.2L201.7,126.8z"/>
	<path class="st3" d="M238.9,118c1.5,29.3-1.1,82-35.8,105.6c-15.8,10.8-32.8,11.2-42,7.1l0.6-1.3c8.8,4,25.2,3.5,40.6-7
		c34.1-23.2,36.7-75.3,35.2-104.3L238.9,118z"/>
	<path class="st3" d="M196.9,36.7c9.9,0,14.7,2.7,19.5,5.4c4.6,2.6,9,5.1,17.8,5.2c1.6,0,3.2,0,5.1,0c5.1-0.1,11.3-0.2,20.8,0.7
		c2.2,0.2,2.5,1.4,2.7,2v0.2c0.1,0.2,0.2,0.7-3.2,28.7c0,0-0.5,4.8-7.1,4.3c-1.4-0.1-3.2,0.9-5.4,2.2c-4.4,2.5-10.4,5.9-20.1,4.9
		c-8.7-1-15.2,0.8-17.4,4.6c-0.9,1.7-0.8,3.6,0.3,5.1c0.8,1,2,1.9,3.4,2.9c2.1,1.5,4.2,3,4.8,5.2c0.2,0.6,0.1,1.3-0.1,2
		c6.8-1.5,13.3-1.8,17.2-0.8c3.1-3.9,10.4-7.4,16.3-9.5c5.7-2,11.3-3.2,15.4-3.2c2.3,0,5.4,0.3,6.8,1.8c0.5,0.6,0.8,1.3,0.8,2
		c-1.2,32.2-8.7,90-44.9,114.8c-11.1,7.6-21.6,9.3-25.1,8.1l0.5-1.3c2.8,1,12.8-0.4,23.8-7.9c35.7-24.4,43-81.7,44.3-113.6
		c0-0.4-0.1-0.7-0.4-1c-0.8-0.9-3-1.4-5.8-1.4c-4,0-9.4,1.1-15,3.1c-5.7,2-13.2,5.7-15.9,9.4l-0.3,0.4l-0.5-0.2
		c-3.7-1.2-10.8-0.8-17.9,0.9c-5,1.2-9.5,2.8-12.9,4.7c-1.5,0.9-2.7,1.7-3.6,2.6l-0.4,0.4l-0.5-0.3c-2-1.1-5.4-1.7-9.8-1.7
		c-2.8,0-5.9,0.2-8.9,0.7c-5.1,0.8-9.8,2-13.3,3.6c-4.1,1.8-6,3.8-5.6,5.9l0.5,7.6c0,0,0.4,2.3-3.4,3.1c-4.3,0.9-13.2,0.5-14.7,0.4
		h-0.4c-1.2-0.1-2-0.2-2.3,2c-0.4,2.8-2.2,4.2-3.9,5.5c-2.7,2-5.5,4.1-4.7,11.8c0.4,3.7,2.1,5.7,3.9,7.7c2.1,2.4,4.3,4.9,3.4,10
		c-0.2,1.3-0.2,1.5,0.7,1.7c6.1,1.5,17.7,1,21.4,0.2c1.2-0.3,2.2-0.1,2.8,0.4c0.8,0.6,0.8,1.5,0.8,1.7
		c-1.1,31.6-13.6,43.3-23.8,47.6c-8.6,3.6-16.7,2.3-18.6,0.5c-1.6-1.5-1-4.3-0.5-7.3c0.4-2.4,0.9-4.8,0.1-5.9
		c-0.8-1.1-3.3-1.3-5.6-1.6c-2.8-0.3-5.7-0.6-6.8-2.4c-1.1-1.8-0.2-4.4,0.8-7.1c0.8-2.3,1.7-4.6,1-5.8c-0.6-1.2-3.1-1.8-5.4-2.4
		c-2.8-0.7-5.5-1.4-6.4-3.2c-0.9-1.9,0.4-4.5,1.7-7c1.1-2.1,2.2-4.4,1.7-5.6c-0.5-1.3-2.9-2.2-5.2-3c-2.7-1-5.3-1.9-5.9-3.8
		c-0.7-2,0.9-4.5,2.4-6.9c1.2-2,2.5-4.1,2.2-5.3c-0.4-1.4-2.8-2.5-5.1-3.5c-2.6-1.2-5-2.3-5.5-4.2c-0.6-2.2,1.2-4.6,2.9-7
		c1.3-1.8,2.7-3.7,2.5-4.9c-0.4-1.7-2.9-3.1-5.2-4.3c-2.4-1.3-4.5-2.4-4.8-4.1c-0.5-2.9,1.2-4.5,3-6.3c0.8-0.8,1.7-1.6,2.4-2.6
		c0.7-0.9,3.1-6.5,1.1-8.9c-1.2-1.5-4.5-2.3-13.7,2.1c-18.7,9-30.6,12.8-35.1,11.4c-1.2-0.4-1.9-0.9-2.3-1.6c-0.2-0.4-0.2-0.7-0.1-1
		c0-1.9,0-31.7,0-32.3c0-0.1,0-0.2,0-0.3c0-0.6-0.1-1.6,0.5-2.2c0.4-0.4,1-0.6,1.8-0.5c11.2,1.2,11.9-3.3,12.6-8
		c0.1-0.7,0.2-1.4,0.3-2c1.1-5.8,6.7-6.9,12.3-7.4c7.8-0.8,10-3.7,12.7-7.4c4.7-6.5,10.5-14.5,47.1-16c10.3-5,31.5-7.9,39.2-7
		C179.3,38.2,189.6,36.7,196.9,36.7z M235.6,48.8c-0.5,0-0.9,0-1.4,0c-9.2-0.1-13.9-2.8-18.5-5.4c-8.1-4.6-16.4-9.3-51.2,0.5h-0.1
		h-0.1c-7.4-0.9-28.8,2.2-38.6,7l-0.3,0.1c-36,1.4-41.6,9.2-46.1,15.4c-2.8,3.9-5.2,7.2-13.7,8c-6.3,0.6-10.2,1.8-11,6.2
		c-0.1,0.6-0.2,1.3-0.3,1.9c-0.9,5-1.7,10.5-14.3,9.2c-0.3,0-0.5,0-0.6,0.1c-0.2,0.2-0.1,0.8-0.1,1.1c0,0.1,0,0.3,0,0.4
		c0,0.6,0,32.4,0,32.4v0.3c0,0,0.2,0.4,1.4,0.8c2.4,0.7,10,0.2,34.1-11.3c8-3.9,13.2-4.4,15.4-1.7c2.5,3.1-0.1,9.4-1.1,10.7
		c-0.8,1.1-1.8,2-2.6,2.8c-1.7,1.7-3,2.9-2.6,5c0.2,1,2.2,2.1,4.1,3.1c2.6,1.4,5.4,2.9,5.9,5.3c0.4,1.8-1.1,3.9-2.7,6
		c-1.5,2-3.1,4.3-2.7,5.8c0.3,1.2,2.5,2.2,4.7,3.2c2.6,1.2,5.2,2.4,5.8,4.4c0.6,1.9-0.8,4.1-2.3,6.5c-1.3,2.1-2.7,4.3-2.2,5.7
		c0.4,1.3,2.8,2.1,5.1,2.9c2.6,0.9,5.3,1.9,6,3.8c0.7,1.8-0.5,4.2-1.7,6.8c-1.1,2.2-2.3,4.5-1.7,5.8c0.6,1.2,3,1.9,5.4,2.4
		c2.8,0.7,5.4,1.3,6.3,3.1s0,4.3-0.9,7c-0.8,2.3-1.7,4.7-1,5.9s3.3,1.4,5.8,1.7c2.8,0.3,5.5,0.6,6.6,2.1c1.2,1.6,0.7,4.2,0.2,7
		c-0.5,2.5-0.9,5,0,5.9c1.4,1.3,8.9,2.6,17.1-0.8c9.9-4.1,21.9-15.5,23-46.3l0,0c0,0,0-0.3-0.3-0.5s-0.9-0.3-1.6-0.1
		c-3.8,0.8-15.8,1.3-22-0.2c-2.2-0.5-1.9-2.2-1.7-3.3c0.8-4.4-1-6.4-3-8.8c-1.8-2-3.8-4.3-4.2-8.5c-0.8-8.4,2.6-11,5.3-13.1
		c1.7-1.3,3.1-2.3,3.4-4.5c0.5-3.6,2.6-3.4,3.9-3.3h0.3c1.5,0.1,10.3,0.5,14.3-0.4c2.4-0.5,2.3-1.5,2.3-1.6l-0.5-7.6
		c-0.4-2.7,1.8-5.2,6.5-7.4c3.6-1.6,8.4-2.9,13.6-3.7c3.1-0.5,6.3-0.7,9.2-0.7c4.4,0,7.7,0.5,10,1.6c0.9-0.8,2.1-1.7,3.5-2.5
		c3.3-1.8,7.7-3.5,12.6-4.7c0.4-0.9,0.6-1.5,0.4-2.1c-0.4-1.7-2.3-3.1-4.2-4.4c-1.4-1-2.8-2-3.7-3.1c-1.5-1.9-1.6-4.4-0.4-6.6
		c1.2-2.1,5.3-6.8,18.7-5.3c9.3,1,15-2.3,19.2-4.7c2.4-1.4,4.4-2.5,6.3-2.4c5.2,0.4,5.6-2.9,5.6-3c1.3-10.8,3.3-27.2,3.2-28.2
		c0,0,0,0,0-0.1c-0.1-0.5-0.2-0.8-1.4-0.9c-9.3-0.9-15.6-0.8-20.6-0.7C238,48.8,236.8,48.8,235.6,48.8z"/>
	<path class="st3" d="M163.2,143.6c0.3,0,0.6,0.2,0.7,0.4c0.6,1.5,1.1,8.3,1.7,17.7c0.2,3.1,0.4,6,0.6,7.9c0,0.4-0.3,0.7-0.6,0.8
		c-0.4,0-0.7-0.3-0.8-0.6c-0.2-1.9-0.4-4.8-0.6-8c-0.4-6.7-1-15.8-1.6-17.2c-0.1-0.4,0-0.8,0.4-0.9
		C163,143.6,163.1,143.6,163.2,143.6z"/>
	<path class="st3" d="M37.9,97c0.4,0,0.8,0.3,0.8,0.7c0,0.4-0.3,0.7-0.7,0.7h-0.1c-7,0-19.6,3.1-22.8,3.9c0.1,0.1,0.4,0.3,0.7,0.5
		c0.7,0.4,1.5,1,1.6,2.1c0,1.2-0.9,1.7-1.5,2.2c-0.6,0.4-0.9,0.6-0.9,1s0.3,0.6,0.9,1c0.7,0.4,1.5,1,1.6,2.1c0,1.2-0.9,1.7-1.5,2.2
		c-0.6,0.4-0.9,0.6-0.9,1s0.3,0.6,0.9,1c0.6,0.4,1.5,1,1.6,2.1c0,1.2-0.9,1.8-1.5,2.2c-0.6,0.4-0.9,0.6-0.9,1s0.3,0.6,0.9,1
		c0.7,0.4,1.5,1,1.6,2.1c0,1.1-0.8,1.7-1.4,2.1c5.1-1,18.8-3.6,22-3.3c0.4,0,0.7,0.4,0.6,0.8c0,0.4-0.4,0.7-0.8,0.6
		c-2.9-0.3-16.6,2.3-23.4,3.6c-0.2,0-0.4,0-0.6-0.1c-0.2-0.1-0.3-0.3-0.3-0.5c0-1.2,0.9-1.8,1.5-2.2c0.6-0.4,0.9-0.6,0.9-1
		s-0.3-0.6-0.9-1c-0.7-0.4-1.5-1-1.6-2.1c0-1.2,0.9-1.8,1.5-2.2c0.6-0.4,0.9-0.6,0.9-1s-0.3-0.6-0.9-1c-0.7-0.4-1.5-1-1.6-2.1
		c0-1.2,0.9-1.7,1.5-2.2c0.6-0.4,0.9-0.6,0.9-1s-0.3-0.6-0.9-1c-0.7-0.4-1.5-1-1.6-2.1c0-1.2,0.9-1.8,1.5-2.2c0.6-0.4,0.9-0.6,0.9-1
		s-0.3-0.6-0.9-1c-0.7-0.4-1.5-1-1.6-2.1c0-0.3,0.2-0.6,0.5-0.7C14.6,101.1,29.7,97,37.9,97z"/>
	<path class="st3" d="M261.9,51.9L261.9,51.9c8.3,0.7,23,6,23.6,6.2c0.3,0.1,0.5,0.4,0.5,0.7c-0.1,1.2-1,1.7-1.7,2s-0.9,0.5-1,0.9
		c0,0.4,0.2,0.6,0.8,1c0.6,0.5,1.4,1.1,1.3,2.3c-0.1,1.2-1,1.7-1.7,2c-0.6,0.3-0.9,0.5-1,0.9c0,0.4,0.2,0.6,0.8,1
		c0.6,0.5,1.4,1.1,1.3,2.3c-0.1,1.2-1,1.7-1.7,2s-0.9,0.5-1,0.9c0,0.4,0.2,0.6,0.8,1c0.6,0.5,1.4,1.1,1.3,2.3c-0.1,1.2-1,1.7-1.7,2
		c-0.6,0.3-0.9,0.5-1,0.9c0,0.4,0.2,0.6,0.8,1c0.6,0.5,1.4,1.1,1.3,2.3c0,0.2-0.1,0.4-0.3,0.5c-0.2,0.1-0.4,0.1-0.6,0.1
		c-6.7-1.9-20-5.6-23-5.6c0,0,0,0-0.1,0c-0.4,0-0.7-0.3-0.7-0.7c0-0.4,0.3-0.7,0.7-0.7c3.2,0,16.6,3.7,21.6,5.1
		c-0.6-0.5-1.3-1.1-1.2-2.2c0.1-1.2,1-1.7,1.7-2s0.9-0.5,1-0.9c0-0.4-0.2-0.6-0.8-1c-0.6-0.5-1.4-1.1-1.3-2.3c0.1-1.2,1-1.7,1.7-2
		c0.6-0.3,0.9-0.5,1-0.9c0-0.4-0.2-0.6-0.8-1c-0.6-0.5-1.4-1.1-1.3-2.3c0.1-1.2,1-1.6,1.7-2c0.7-0.3,0.9-0.5,1-0.9
		c0-0.4-0.2-0.6-0.8-1c-0.6-0.5-1.4-1.1-1.3-2.3s1-1.7,1.7-2c0.3-0.2,0.5-0.3,0.7-0.4c-3.2-1.1-15.5-5.3-22.4-5.9
		c-0.4,0-0.7-0.4-0.7-0.8C261.2,52.2,261.5,51.9,261.9,51.9z"/>
	<path class="st3" d="M120.7,50.2l1.4,0.4c-0.1,0.5-14,52.7-3.6,106.3c9.1,46.6,36.7,57,37,57.1l-0.5,1.3
		c-0.3-0.1-7.3-2.7-15.5-11.2c-7.6-7.8-17.6-22.3-22.4-47C106.6,103.2,120.6,50.7,120.7,50.2z"/>
	<path class="st3" d="M114.1,50.2l1.4,0.3c-0.1,0.5-12.8,52.5-3.6,106.3c4.3,24.9,15,40.2,23.2,48.7c8.9,9.2,16.9,12.6,17,12.7
		l-0.5,1.3c-0.3-0.1-8.3-3.5-17.4-12.9c-8.4-8.7-19.3-24.3-23.6-49.5C101.2,103,113.9,50.7,114.1,50.2z"/>
	<path class="st3" d="M170.5,41.8c0.1,0.3,12.9,33.3,15.4,74.5l-1.4,0.1c-2.5-41-15.2-73.7-15.3-74.1L170.5,41.8z"/>
	<path class="st3" d="M176.6,40.6c0.1,0.3,12.3,33.8,15,75.5l-1.4,0.1c-2.7-41.5-14.8-74.8-14.9-75.1L176.6,40.6z"/>
	<path class="st3" d="M52.4,92c0.2,10.1,0.4,20.2,0.6,30.2c0,0.5,0.7,0.5,0.7,0c-0.2-10.1-0.4-20.2-0.6-30.2
		C53.1,91.6,52.3,91.6,52.4,92"/>
	<path class="st3" d="M48.4,97c0,8.2,0.9,16.4,0.8,24.6c0,0.5,0.7,0.5,0.7,0c0.1-8.2-0.8-16.4-0.8-24.6C49.1,96.5,48.4,96.5,48.4,97
		"/>
	<path class="st3" d="M220.4,82.6c0.4-10.1,0.8-20.2,1.3-30.2c0-0.5-0.7-0.5-0.7,0c-0.4,10.1-0.8,20.1-1.3,30.2
		C219.7,83.1,220.4,83.1,220.4,82.6"/>
	<path class="st3" d="M224.7,80.1c0.4-8.2,0.1-16.4,0.6-24.6c0-0.5-0.7-0.5-0.7,0c-0.6,8.2-0.2,16.4-0.6,24.6
		C223.9,80.6,224.7,80.6,224.7,80.1"/>
	<path class="st3" d="M75,82.5c0.3,8.2,0.1,16.4,0.4,24.6c0,0.5,0.7,0.5,0.7,0c-0.3-8.2-0.1-16.4-0.4-24.6
		C75.8,82.1,75,82.1,75,82.5"/>
	<path class="st3" d="M72.3,85.4c0.2,6.1,0.4,12.3,0.5,18.4c0,0.5,0.7,0.5,0.7,0c-0.2-6.1-0.4-12.3-0.5-18.4
		C73,85,72.3,85,72.3,85.4"/>
	<path class="st3" d="M242.8,73.3c-0.1-4.3,0.4-8.7,0.4-13c0-0.5-0.7-0.5-0.7,0c0,4.3-0.5,8.7-0.4,13
		C242.1,73.8,242.8,73.8,242.8,73.3"/>
	<path class="st3" d="M245.3,76.9c0.2-6.1,0.4-12.3,0.6-18.4c0-0.5-0.7-0.5-0.7,0c-0.2,6.1-0.4,12.3-0.6,18.4
		C244.6,77.4,245.3,77.4,245.3,76.9"/>
	<path class="st2" d="M76.5,91.2c-0.1,1.2,0.4,2.3,1.5,2.7c-7.5,3.5-15,6.9-22.4,10.2c0.1-0.6,0-1.3-0.3-1.8
		c-0.5-0.8-1.4-1.3-2.3-1.3c-1,0-1.9,0.6-2.4,1.5l-1.5,3l-1.5,3c-0.3,0.6-0.4,1.4-0.1,2.1c0.3,0.7,0.8,1.2,1.5,1.5
		c2.1,0.8,4.3,1.5,6.6,2c0.2,0.1,0.4,0.1,0.7,0.1c1.3,0,2.3-0.9,2.5-2.3c0.1-1.2-0.4-2.2-1.4-2.7c7.4-3.3,14.9-6.7,22.4-10.1
		c-0.1,0.6,0,1.2,0.3,1.8c0.5,0.8,1.4,1.3,2.3,1.3c1,0,1.9-0.6,2.4-1.4l1.1-2.1l2-3.9c0.3-0.6,0.3-1.4,0.1-2.1
		c-0.3-0.7-0.8-1.2-1.5-1.5c-2.1-0.8-4.3-1.5-6.6-2c-0.2-0.1-0.4-0.1-0.6-0.1C77.7,88.9,76.6,89.9,76.5,91.2 M79.2,90.7
		c2.2,0.6,4.3,1.2,6.4,2c0.4,0.2,0.6,0.7,0.4,1.1l-3.1,6c-0.2,0.3-0.5,0.5-0.8,0.5c-0.6,0-1.1-0.5-0.8-1.2l2-3.9
		c-10.4,4.9-20.8,9.6-31.3,14.2c1.3,0.4,2.7,0.9,4.1,1.2c1,0.2,0.9,1.7,0,1.7h-0.2c-2.2-0.5-4.3-1.2-6.4-2c-0.4-0.2-0.7-0.7-0.5-1.1
		l3.1-6c0.2-0.3,0.5-0.5,0.8-0.5c0.6,0,1.1,0.5,0.8,1.2l-1.9,3.7c10.4-4.6,20.8-9.3,31.1-14.1c-1.3-0.4-2.6-0.8-3.9-1.1
		c-1-0.2-0.9-1.7,0-1.7L79.2,90.7z"/>
</g>
<path class="st4" d="M187.4,230.9c-0.4-0.1-0.8-0.4-0.8-0.9c0-0.6,0.4-1,0.9-1.1l0,0c0.2,0,24.7-3,32.4-58.1
	c0.1-0.6,0.6-0.9,1.1-0.9c0.5,0.1,0.9,0.6,0.9,1.1c-7.9,56.8-33.2,59.7-34.2,59.8C187.6,231,187.5,231,187.4,230.9z"/>
<g>
	<rect x="-22.8" y="203.3" class="st5" width="102.9" height="24.4"/>
	<path class="st3" d="M5.4,205c0-0.1,0.1-0.2,0.2-0.2H8c1.9,0,3.5,1.6,3.5,3.5c0,2-1.6,3.5-3.5,3.5H5.6c-0.1,0-0.2-0.1-0.2-0.2V205z
		 M7.9,210.7c1.3,0,2.3-0.9,2.3-2.3c0-1.4-1-2.3-2.3-2.3H6.7v4.6H7.9z"/>
	<path class="st3" d="M14.7,207.1c1.3,0,2.4,1.1,2.4,2.4c0,1.3-1.1,2.5-2.4,2.5s-2.4-1.1-2.4-2.5C12.3,208.2,13.3,207.1,14.7,207.1z
		 M14.7,210.9c0.7,0,1.2-0.6,1.2-1.3s-0.5-1.3-1.2-1.3s-1.2,0.6-1.2,1.3C13.4,210.3,14,210.9,14.7,210.9z"/>
	<path class="st3" d="M18,207.5c0-0.1,0.1-0.2,0.2-0.2H19c0.1,0,0.2,0.1,0.2,0.2v2.5c0,0.6,0.2,0.9,0.8,0.9c0.5,0,0.8-0.5,0.8-0.9
		v-2.5c0-0.2,0.1-0.2,0.3-0.2h0.8c0.1,0,0.2,0.1,0.2,0.2v4.2c0,0.1-0.1,0.2-0.2,0.2h-0.4c-0.1,0-0.2-0.1-0.2-0.2l-0.1-0.4
		c-0.2,0.3-0.7,0.7-1.4,0.7c-1.4,0-1.8-0.9-1.8-2.1C18,209.9,18,207.5,18,207.5z"/>
	<path class="st3" d="M23.4,205.1c0-0.1,0.1-0.2,0.2-0.2h0.8c0.1,0,0.2,0.1,0.2,0.2v2.3c0.2-0.1,0.7-0.2,1.1-0.2
		c1.4,0,2.3,1.1,2.3,2.4c0,1.3-0.9,2.4-2.2,2.4c-1,0-1.6-0.7-1.6-0.7l-0.1,0.4c-0.1,0.1-0.1,0.2-0.2,0.2h-0.4
		c-0.1,0-0.2-0.1-0.2-0.2v-6.6H23.4z M25.7,210.9c0.7,0,1.1-0.6,1.1-1.3s-0.4-1.3-1.2-1.3c-0.6,0-1,0.3-1,0.3v1.7
		C24.8,210.5,25.1,210.9,25.7,210.9z"/>
	<path class="st3" d="M29.1,205.1c0-0.1,0.1-0.2,0.2-0.2h0.8c0.1,0,0.2,0.1,0.2,0.2v6.6c0,0.1-0.1,0.2-0.2,0.2h-0.8
		c-0.1,0-0.2-0.1-0.2-0.2V205.1z"/>
	<path class="st3" d="M33.8,207.1c1.2,0,2.1,0.9,2.1,2.2c0,0.1,0,0.2,0,0.3s-0.1,0.2-0.2,0.2h-3c0,0.6,0.5,1.1,1.2,1.1
		c0.5,0,0.8-0.2,1-0.3c0.1-0.1,0.2-0.1,0.3,0l0.4,0.5c0.1,0.1,0.1,0.2,0,0.3c-0.4,0.3-1,0.6-1.7,0.6c-1.4,0-2.4-1.1-2.4-2.4
		C31.4,208.3,32.4,207.1,33.8,207.1z M34.6,209c0-0.5-0.4-0.8-0.9-0.8c-0.6,0-0.9,0.3-1,0.8H34.6z"/>
	<path class="st3" d="M39.3,205.1c0-0.1,0.1-0.2,0.2-0.2h0.8c0.1,0,0.2,0.1,0.2,0.2v2.3c0.2-0.1,0.7-0.2,1.1-0.2
		c1.4,0,2.3,1.1,2.3,2.4c0,1.3-0.9,2.4-2.2,2.4c-1,0-1.6-0.7-1.6-0.7l-0.1,0.4c-0.1,0.1-0.1,0.2-0.2,0.2h-0.4
		c-0.1,0-0.2-0.1-0.2-0.2v-6.6H39.3z M41.6,210.9c0.7,0,1.1-0.6,1.1-1.3s-0.4-1.3-1.2-1.3c-0.6,0-1,0.3-1,0.3v1.7
		C40.7,210.5,41,210.9,41.6,210.9z"/>
	<path class="st3" d="M46.5,209c0.5,0,0.9,0.1,0.9,0.1c0-0.6-0.2-0.9-0.6-0.9c-0.4,0-1,0.1-1.3,0.2c-0.2,0.1-0.2-0.1-0.3-0.2
		l-0.1-0.5c0-0.2,0.1-0.3,0.2-0.3c0.1,0,0.8-0.2,1.6-0.2c1.5,0,1.8,0.8,1.8,2v2.5c0,0.1-0.1,0.2-0.2,0.2H48c-0.1,0-0.1,0-0.2-0.2
		l-0.1-0.3c-0.3,0.3-0.7,0.6-1.5,0.6c-0.9,0-1.6-0.6-1.6-1.6C44.7,209.6,45.3,209,46.5,209z M46.5,211.1c0.4,0,0.8-0.3,0.8-0.5v-0.7
		c0,0-0.3-0.1-0.7-0.1c-0.5,0-0.8,0.3-0.8,0.7C45.9,210.8,46.1,211.1,46.5,211.1z"/>
	<path class="st3" d="M49.8,207.5c0-0.1,0.1-0.2,0.2-0.2h0.4c0.1,0,0.2,0.1,0.2,0.2l0.2,0.5c0.2-0.2,0.6-0.7,1.3-0.7
		c0.6,0,1,0.2,0.9,0.5l-0.3,0.7c-0.1,0.1-0.2,0.2-0.3,0.1s-0.2-0.1-0.4-0.1c-0.5,0-0.8,0.3-0.9,0.5v2.9c0,0.2-0.1,0.2-0.3,0.2H50
		c-0.1,0-0.2-0.1-0.2-0.2C49.8,211.9,49.8,207.5,49.8,207.5z"/>
	<path class="st3" d="M53.8,207.5c0-0.1,0.1-0.2,0.2-0.2h0.4c0.1,0,0.2,0.1,0.2,0.2l0.2,0.5c0.2-0.2,0.6-0.7,1.3-0.7
		c0.6,0,1,0.2,0.9,0.5l-0.3,0.7c-0.1,0.1-0.2,0.2-0.3,0.1s-0.2-0.1-0.4-0.1c-0.5,0-0.8,0.3-0.9,0.5v2.9c0,0.2-0.1,0.2-0.3,0.2H54
		c-0.1,0-0.2-0.1-0.2-0.2V207.5z"/>
	<path class="st3" d="M57.5,205.6c0-0.4,0.3-0.8,0.8-0.8s0.8,0.4,0.8,0.8c0,0.4-0.4,0.8-0.8,0.8S57.5,206.1,57.5,205.6z M57.7,207.5
		c0-0.1,0.1-0.2,0.2-0.2h0.8c0.1,0,0.2,0.1,0.2,0.2v4.2c0,0.1-0.1,0.2-0.2,0.2h-0.8c-0.1,0-0.2-0.1-0.2-0.2V207.5z"/>
	<path class="st3" d="M62.3,207.1c1.2,0,2.1,0.9,2.1,2.2c0,0.1,0,0.2,0,0.3s-0.1,0.2-0.2,0.2h-3c0,0.6,0.5,1.1,1.2,1.1
		c0.5,0,0.8-0.2,1-0.3c0.1-0.1,0.2-0.1,0.3,0l0.4,0.5c0.1,0.1,0.1,0.2,0,0.3c-0.4,0.3-1,0.6-1.7,0.6c-1.4,0-2.4-1.1-2.4-2.4
		C59.9,208.3,60.9,207.1,62.3,207.1z M63.2,209c0-0.5-0.4-0.8-0.9-0.8c-0.6,0-0.9,0.3-1,0.8H63.2z M61.5,205.8
		c-0.1,0-0.1-0.1-0.1-0.3l0.3-0.5c0.1-0.1,0.2-0.1,0.3,0l1.7,1c0.1,0,0.1,0.1,0.1,0.2l-0.2,0.4c0,0.1-0.1,0.1-0.3,0.1L61.5,205.8z"
		/>
	<path class="st3" d="M65.4,207.5c0-0.1,0.1-0.2,0.2-0.2H66c0.1,0,0.2,0.1,0.2,0.2l0.2,0.5c0.2-0.2,0.6-0.7,1.3-0.7
		c0.6,0,1,0.2,0.9,0.5l-0.3,0.7c-0.1,0.1-0.2,0.2-0.3,0.1s-0.2-0.1-0.4-0.1c-0.5,0-0.8,0.3-0.9,0.5v2.9c0,0.2-0.1,0.2-0.3,0.2h-0.8
		c-0.1,0-0.2-0.1-0.2-0.2L65.4,207.5L65.4,207.5z"/>
	<path class="st3" d="M71.2,207.1c1.2,0,2.1,0.9,2.1,2.2c0,0.1,0,0.2,0,0.3s-0.1,0.2-0.2,0.2h-3c0,0.6,0.5,1.1,1.2,1.1
		c0.5,0,0.8-0.2,1-0.3c0.1-0.1,0.2-0.1,0.3,0l0.4,0.5c0.1,0.1,0.1,0.2,0,0.3c-0.4,0.3-1,0.6-1.7,0.6c-1.4,0-2.4-1.1-2.4-2.4
		C68.9,208.3,69.9,207.1,71.2,207.1z M72.1,209c0-0.5-0.4-0.8-0.9-0.8c-0.6,0-0.9,0.3-1,0.8H72.1z"/>
	<path class="st3" d="M30.1,221.1c0.5,0,0.9,0.1,0.9,0.1c0-0.6-0.2-0.9-0.6-0.9s-1,0.1-1.3,0.2c-0.2,0.1-0.2-0.1-0.3-0.2l-0.1-0.5
		c0-0.2,0.1-0.3,0.2-0.3s0.8-0.2,1.6-0.2c1.5,0,1.8,0.8,1.8,2v2.5c0,0.1-0.1,0.2-0.2,0.2h-0.3c-0.1,0-0.1,0-0.2-0.2l-0.1-0.3
		c-0.3,0.3-0.7,0.6-1.5,0.6c-0.9,0-1.6-0.6-1.6-1.6C28.3,221.7,29,221.1,30.1,221.1z M30.2,223.2c0.4,0,0.8-0.3,0.8-0.5V222
		c0,0-0.3-0.1-0.7-0.1c-0.5,0-0.8,0.3-0.8,0.7C29.5,222.9,29.7,223.2,30.2,223.2z"/>
	<path class="st3" d="M33.5,219.6c0-0.1,0.1-0.2,0.2-0.2h0.4c0.1,0,0.2,0.1,0.2,0.1l0.2,0.4c0.2-0.2,0.6-0.7,1.5-0.7
		c1.5,0,1.9,1,1.9,2.1v2.4c0,0.1-0.1,0.2-0.2,0.2h-0.8c-0.1,0-0.2-0.1-0.2-0.2v-2.4c0-0.6-0.2-1-0.8-1s-0.9,0.4-1,0.7v2.7
		c0,0.2-0.1,0.2-0.3,0.2h-0.7c-0.1,0-0.2-0.1-0.2-0.2v-4.1H33.5z"/>
	<path class="st3" d="M39.3,220.5h-0.5c-0.1,0-0.2-0.1-0.2-0.2v-0.7c0-0.1,0.1-0.2,0.2-0.2h0.5v-1.3c0-0.1,0.1-0.2,0.2-0.2h0.8
		c0.1,0,0.2,0.1,0.2,0.2v1.3h1.1c0.1,0,0.2,0.1,0.2,0.2v0.7c0,0.1-0.1,0.2-0.2,0.2h-1.1v2.1c0,0.3,0.2,0.4,0.4,0.4s0.6-0.1,0.7-0.2
		c0.1-0.1,0.2,0,0.3,0.1l0.1,0.6c0,0.1,0,0.2-0.1,0.3c-0.2,0.1-0.8,0.3-1.3,0.3c-1,0-1.3-0.7-1.3-1.5
		C39.3,222.6,39.3,220.5,39.3,220.5z"/>
	<path class="st3" d="M42.8,217.8c0-0.4,0.3-0.8,0.8-0.8s0.8,0.4,0.8,0.8c0,0.4-0.4,0.8-0.8,0.8S42.8,218.2,42.8,217.8z M43,219.6
		c0-0.1,0.1-0.2,0.2-0.2H44c0.1,0,0.2,0.1,0.2,0.2v4.2c0,0.1-0.1,0.2-0.2,0.2h-0.8c-0.1,0-0.2-0.1-0.2-0.2V219.6z"/>
	<path class="st3" d="M45.4,221.9v-0.7c0-0.1,0.1-0.2,0.2-0.2h2.3c0.1,0,0.2,0.1,0.2,0.2v0.7c0,0.1-0.1,0.2-0.2,0.2h-2.3
		C45.5,222.1,45.4,222,45.4,221.9z"/>
	<path class="st3" d="M49.5,220.5H49c-0.1,0-0.2-0.1-0.2-0.2v-0.7c0-0.1,0.1-0.2,0.2-0.2h0.5v-0.6c0-1.2,0.7-1.9,1.9-1.9
		c0.6,0,1.2,0.3,1.4,0.5c0.1,0.1,0.1,0.2,0.1,0.3l-0.4,0.6c-0.1,0.1-0.2,0.1-0.3,0.1c-0.2-0.1-0.5-0.2-0.7-0.2
		c-0.6,0-0.7,0.3-0.7,0.8v0.6h1.3c0.1,0,0.2,0.1,0.2,0.2v0.7c0,0.1-0.1,0.2-0.2,0.2h-1.3v3.3c0,0.1-0.1,0.2-0.2,0.2h-0.8
		c-0.1,0-0.2-0.1-0.2-0.2L49.5,220.5L49.5,220.5z"/>
	<path class="st3" d="M53.1,219.6c0-0.1,0.1-0.2,0.2-0.2h0.8c0.1,0,0.2,0.1,0.2,0.2v2.5c0,0.6,0.2,0.9,0.8,0.9
		c0.5,0,0.8-0.5,0.8-0.9v-2.5c0-0.2,0.1-0.2,0.3-0.2H57c0.1,0,0.2,0.1,0.2,0.2v4.2c0,0.1-0.1,0.2-0.2,0.2h-0.4
		c-0.1,0-0.2-0.1-0.2-0.2l-0.1-0.4c-0.2,0.3-0.7,0.7-1.4,0.7c-1.4,0-1.8-0.9-1.8-2.1V219.6z"/>
	<path class="st3" d="M58.3,217.8c0-0.4,0.3-0.8,0.8-0.8s0.8,0.4,0.8,0.8c0,0.4-0.4,0.8-0.8,0.8S58.3,218.2,58.3,217.8z M58.5,219.6
		c0-0.1,0.1-0.2,0.2-0.2h0.8c0.1,0,0.2,0.1,0.2,0.2v4.2c0,0.1-0.1,0.2-0.2,0.2h-0.8c-0.1,0-0.2-0.1-0.2-0.2V219.6z"/>
	<path class="st3" d="M61.4,220.5h-0.5c-0.1,0-0.2-0.1-0.2-0.2v-0.7c0-0.1,0.1-0.2,0.2-0.2h0.5v-1.3c0-0.1,0.1-0.2,0.2-0.2h0.8
		c0.1,0,0.2,0.1,0.2,0.2v1.3h1.1c0.1,0,0.2,0.1,0.2,0.2v0.7c0,0.1-0.1,0.2-0.2,0.2h-1.1v2.1c0,0.3,0.2,0.4,0.4,0.4s0.6-0.1,0.7-0.2
		c0.1-0.1,0.2,0,0.3,0.1l0.1,0.6c0,0.1,0,0.2-0.1,0.3c-0.2,0.1-0.8,0.3-1.3,0.3c-1,0-1.3-0.7-1.3-1.5
		C61.4,222.6,61.4,220.5,61.4,220.5z"/>
	<path class="st3" d="M67.1,219.3c1.2,0,2.1,0.9,2.1,2.2c0,0.1,0,0.2,0,0.3S69.1,222,69,222h-3c0,0.6,0.5,1.1,1.2,1.1
		c0.5,0,0.8-0.2,1-0.3c0.1-0.1,0.2-0.1,0.3,0l0.4,0.5c0.1,0.1,0.1,0.2,0,0.3c-0.4,0.3-1,0.6-1.7,0.6c-1.4,0-2.4-1.1-2.4-2.4
		C64.7,220.4,65.7,219.3,67.1,219.3z M67.9,221.1c0-0.5-0.4-0.8-0.9-0.8c-0.6,0-0.9,0.3-1,0.8H67.9z"/>
	<path class="st3" d="M70,223.7c-0.1,0-0.1-0.2-0.1-0.3l0.3-0.6c0.1-0.1,0.2-0.2,0.3-0.1c0.2,0.1,0.5,0.3,1,0.3
		c0.4,0,0.5-0.1,0.5-0.3s-0.3-0.4-0.9-0.6c-0.9-0.3-1.3-0.8-1.3-1.5s0.5-1.4,1.7-1.4c0.7,0,1.1,0.2,1.4,0.3c0.1,0.1,0.2,0.2,0.1,0.3
		l-0.3,0.5c-0.1,0.1-0.2,0.1-0.3,0.1c-0.2-0.1-0.5-0.2-0.9-0.2c-0.3,0-0.4,0.2-0.4,0.3c0,0.2,0.2,0.3,0.7,0.5
		c0.9,0.4,1.5,0.7,1.5,1.6c0,0.7-0.6,1.4-1.8,1.4C70.8,224.1,70.3,223.9,70,223.7z"/>
</g>
<polygon class="st6" points="123.7,171.4 90.5,212.5 91.5,213.3 124.9,172 123.8,171.2 "/>
<polygon class="st6" points="87.4,204.6 87.4,204.6 86.7,204.6 86.7,204.6 86.1,204.7 86.1,204.7 85.4,204.9 85.4,204.9 84.8,205 
	84.8,205 84.2,205.3 84.2,205.3 83.6,205.5 83.6,205.5 83,205.8 83,205.8 82.5,206.1 82.5,206.1 82,206.4 81.9,206.4 81.5,206.8 
	81.4,206.8 81,207.2 81,207.2 80.5,207.6 80.5,207.6 80.1,208.1 80.1,208.1 79.7,208.6 79.7,208.6 79.3,209 79.3,209.1 79,209.6 
	78.9,209.6 78.6,210.1 78.6,210.1 78.4,210.7 78.3,210.7 78.1,211.3 78.1,211.3 77.9,211.9 77.9,211.9 77.7,212.5 77.7,212.5 
	77.6,213.1 77.6,213.1 77.5,213.7 77.5,213.8 77.4,214.4 77.4,214.4 77.4,215.1 77.4,215.1 77.4,215.7 77.4,215.8 77.5,216.4 
	77.5,216.4 77.6,217 77.6,217 77.7,217.7 77.7,217.7 77.9,218.3 77.9,218.3 78.1,218.9 78.1,218.9 78.3,219.4 78.3,219.5 78.6,220 
	78.6,220 78.9,220.6 78.9,220.6 79.3,221.1 79.3,221.1 79.7,221.6 79.7,221.6 80.1,222.1 80.1,222.1 80.5,222.5 80.5,222.5 
	80.9,222.9 81,223 81.4,223.3 81.4,223.4 81.9,223.7 82,223.7 82.5,224.1 82.5,224.1 83,224.4 83,224.4 83.6,224.7 83.6,224.7 
	84.2,224.9 84.2,224.9 84.8,225.1 84.8,225.1 85.4,225.3 85.4,225.3 86,225.4 86.1,225.4 86.7,225.5 86.7,225.5 87.3,225.6 
	87.4,225.6 88,225.6 88.7,225.6 88.7,225.6 89.4,225.5 89.4,225.5 90,225.4 90,225.4 90.7,225.3 90.7,225.3 91.3,225.1 91.3,225.1 
	91.9,224.9 91.9,224.9 92.5,224.7 92.5,224.7 93,224.4 93.1,224.4 93.6,224.1 93.6,224.1 94.1,223.7 94.1,223.7 94.6,223.4 
	94.6,223.4 95.1,223 95.1,223 95.6,222.5 95.6,222.5 96,222.1 96,222.1 96.4,221.6 96.4,221.6 96.8,221.1 96.8,221.1 97.1,220.6 
	97.1,220.6 97.4,220.1 97.5,220 97.7,219.5 97.7,219.5 98,218.9 98,218.9 98.2,218.3 98.2,218.3 98.4,217.7 98.4,217.7 98.5,217.1 
	98.5,217 98.6,216.4 98.6,216.4 98.7,215.8 98.7,215.7 98.7,215.1 98.7,214.4 98.7,214.4 98.6,213.8 98.6,213.8 98.5,213.1 
	98.5,213.1 98.4,212.5 98.4,212.5 98.2,211.9 98.2,211.9 98,211.3 98,211.3 97.8,210.7 97.7,210.7 97.5,210.1 97.5,210.1 
	97.1,209.6 97.1,209.6 96.8,209.1 96.8,209.1 96.4,208.6 96.4,208.6 96,208.1 96,208.1 95.6,207.6 95.6,207.6 95.1,207.2 
	95.1,207.2 94.7,206.8 94.6,206.8 94.1,206.4 94.1,206.4 93.6,206.1 93.6,206.1 93.1,205.8 93.1,205.8 92.5,205.5 92.5,205.5 
	91.9,205.3 91.9,205.3 91.3,205.1 91.3,205 90.7,204.9 90.7,204.9 90,204.7 90,204.7 89.4,204.6 89.4,204.6 88.7,204.6 88.7,204.6 
	88.1,204.5 "/>
<g>
	<rect x="75.1" y="203.9" class="st5" width="24.6" height="19.4"/>
	<path class="st0" d="M88,217.7h-4.9v-1.6c0.2-0.3,0.5-0.8,0.9-1.4l3.3-4.8h3v6h1.5v1.8h-1.5v2.2H88V217.7z M88.1,216v-3
		c0-0.4,0-0.8,0-1.3l0,0c-0.2,0.4-0.5,0.9-0.7,1.3l-1.8,2.6l-0.3,0.5h2.8V216z"/>
</g>
<path class="st2" d="M134.6,182.3c0,2.3,1.9,4.2,4.2,4.2s4.2-1.9,4.2-4.2s-1.9-4.2-4.2-4.2S134.6,180,134.6,182.3z"/>
<polygon class="st6" points="255,136.3 255,137 313,137.1 313,136.3 255,136.1 "/>
<polygon class="st6" points="188.2,19.2 166.4,83.5 167.3,83.8 189.2,19.3 188.3,19 "/>
<polygon class="st6" points="37.9,35.2 28.2,107.1 29.1,107.2 39,35.1 38,34.9 "/>
<path class="st2" d="M149.7,111.8c0,2.3,1.9,4.2,4.2,4.2s4.2-1.9,4.2-4.2c0-2.3-1.9-4.2-4.2-4.2
	C151.6,107.6,149.7,109.5,149.7,111.8z"/>
<g>
	<polygon class="st6" points="28.4,61.5 27.9,61.5 27.9,61.5 27.4,61.5 27.4,61.6 26.9,61.6 26.9,61.7 26.4,61.8 26.4,61.8 26,62 
		26,62 25.6,62.2 25.5,62.2 25.1,62.4 25.1,62.4 24.8,62.7 24.7,62.7 24.4,63 24.4,63 24.1,63.3 24,63.4 23.7,63.7 23.7,63.7 
		23.5,64.1 23.4,64.1 23.2,64.5 23.2,64.5 23,64.9 23,64.9 22.8,65.4 22.8,65.4 22.7,65.8 22.7,65.8 22.6,66.3 22.6,66.3 22.5,66.8 
		22.5,66.8 22.5,67.3 22.5,67.5 22.5,68 22.5,68 22.6,68.5 22.6,68.5 22.7,69 22.7,69 22.8,69.4 22.8,69.4 23,69.9 23,69.9 
		23.2,70.3 23.2,70.3 23.4,70.7 23.5,70.7 23.7,71.1 23.7,71.1 24,71.5 24,71.5 24.4,71.8 24.4,71.8 24.7,72.1 24.8,72.1 25.1,72.4 
		25.1,72.4 25.5,72.6 25.6,72.6 26,72.8 26,72.8 26.4,73 26.4,73 26.9,73.1 26.9,73.2 27.4,73.3 27.4,73.3 27.8,73.3 27.9,73.3 
		28.4,73.3 81.3,73.4 81.8,73.4 81.8,73.4 82.3,73.3 82.3,73.3 82.8,73.2 82.8,73.2 83.3,73.1 83.3,73.1 83.7,72.9 83.7,72.9 
		84.1,72.7 84.2,72.7 84.6,72.4 84.6,72.4 84.9,72.1 85,72.1 85.3,71.9 85.3,71.8 85.7,71.5 85.7,71.5 86,71.2 86,71.1 86.2,70.8 
		86.3,70.7 86.5,70.4 86.5,70.3 86.7,69.9 86.7,69.9 86.9,69.5 86.9,69.5 87,69 87,69 87.1,68.6 87.1,68.5 87.2,68.1 87.2,68 
		87.2,67.6 87.2,67.3 87.2,66.9 87.2,66.8 87.1,66.4 87.1,66.3 87,65.9 87,65.9 86.9,65.4 86.9,65.4 86.7,65 86.7,65 86.5,64.6 
		86.5,64.5 86.3,64.1 86.2,64.1 86,63.8 86,63.7 85.7,63.4 85.7,63.4 85.3,63.1 85.3,63 85,62.8 84.9,62.7 84.6,62.5 84.6,62.5 
		84.2,62.2 84.1,62.2 83.7,62 83.7,62 83.3,61.8 83.3,61.8 82.8,61.7 82.8,61.7 82.4,61.6 82.3,61.6 81.9,61.5 81.8,61.5 81.3,61.5 
			"/>
	<path class="st2" d="M29,64.8v5.5c0,0.1,0.1,0.2,0.1,0.1l2.6-0.2c0.1,0,0.1-0.1,0.1-0.2v-0.6c0-0.1-0.1-0.1-0.1-0.1l-1.9,0.1V68
		h1.6c0.1,0,0.1-0.1,0.1-0.1v-0.7c0-0.1-0.1-0.1-0.1-0.1h-1.6v-1.3l1.9,0.1c0.1,0,0.1-0.1,0.1-0.1V65c0-0.1-0.1-0.2-0.1-0.2
		l-2.6-0.2C29,64.7,29,64.8,29,64.8z"/>
	<path class="st2" d="M32.6,65.1v5c0,0.1,0,0.1,0.1,0.1l2.3-0.1c0.1,0,0.1-0.1,0.1-0.1v-0.6c0-0.1-0.1-0.1-0.1-0.1l-1.6,0.1v-4.2
		c0-0.1-0.1-0.1-0.1-0.1h-0.6C32.7,65,32.6,65,32.6,65.1z"/>
	<path class="st2" d="M38,68.4h-1.3l0.6-1.5l0,0L38,68.4z M37.4,65.2C37.3,65.2,37.3,65.2,37.4,65.2c-0.8,1.6-1.4,3.2-2.1,4.8
		c0,0.1,0,0.2,0.1,0.2H36c0.1,0,0.2-0.1,0.2-0.2l0.3-0.8l1.9-0.1l0.3,0.7c0,0.1,0.1,0.1,0.2,0.1h0.6c0.1,0,0.1-0.1,0.1-0.2
		c-0.7-1.4-1.3-2.9-2-4.5C37.5,65.2,37.5,65.2,37.4,65.2L37.4,65.2z"/>
	<path class="st2" d="M39.8,66.5c0,0.8,0.6,1.2,1.2,1.4c0.5,0.2,0.8,0.4,0.8,0.8c0,0.3-0.3,0.5-0.6,0.5c-0.4,0-0.7-0.2-1-0.4
		c-0.1,0-0.2,0-0.2,0.1l-0.2,0.4c-0.1,0.1,0,0.1,0,0.2c0.2,0.2,0.6,0.5,1.4,0.4c0.9,0,1.5-0.6,1.5-1.3c0-0.8-0.7-1.2-1.3-1.4
		c-0.5-0.2-0.7-0.4-0.7-0.7c0-0.2,0.2-0.4,0.6-0.4c0.3,0,0.6,0.2,0.9,0.4c0.1,0.1,0.2,0,0.2-0.1l0.2-0.3c0-0.1,0-0.2,0-0.2
		c-0.1-0.1-0.6-0.4-1.3-0.5C40.3,65.3,39.8,65.9,39.8,66.5z"/>
	<path class="st2" d="M43.2,65.6v0.5c0,0.1,0,0.1,0.1,0.1h1v3.4c0,0.1,0.1,0.1,0.1,0.1H45c0.1,0,0.1-0.1,0.1-0.1v-3.3h1
		c0.1,0,0.1,0,0.1-0.1v-0.5c0-0.1-0.1-0.1-0.1-0.1H43.2C43.2,65.5,43.2,65.5,43.2,65.6z"/>
	<path class="st2" d="M46.9,65.7v3.9c0,0.1,0.1,0.1,0.1,0.1h0.6c0.1,0,0.1-0.1,0.1-0.1v-3.8c0-0.1-0.1-0.1-0.1-0.1H46.9
		C47,65.6,46.9,65.6,46.9,65.7z"/>
	<path class="st2" d="M48.6,67.6c0,1.2,1,2,2.3,2c0.6,0,1.1-0.2,1.6-0.6v-0.1L52,68.6c0,0-0.1,0-0.2,0c-0.3,0.2-0.6,0.3-1,0.3
		c-0.8,0-1.4-0.6-1.4-1.3c0-0.7,0.6-1.3,1.4-1.3c0.4,0,0.7,0.1,1,0.3c0,0,0.1,0,0.2,0l0.4-0.3c0,0,0-0.1,0-0.2
		c-0.4-0.3-0.9-0.5-1.5-0.5C49.6,65.6,48.6,66.5,48.6,67.6z"/>
	<path class="st2" d="M54.5,66.7c0,0.7,0.6,1,1.2,1.2c0.5,0.2,0.8,0.4,0.8,0.7c0,0.2-0.2,0.4-0.6,0.4c-0.4,0-0.7-0.2-1-0.3
		c-0.1,0-0.2,0-0.2,0L54.5,69c-0.1,0.1,0,0.1,0,0.2c0.2,0.1,0.6,0.4,1.4,0.4c0.9,0,1.5-0.5,1.5-1.1c0-0.7-0.7-1-1.3-1.3
		c-0.5-0.2-0.7-0.4-0.7-0.6s0.2-0.4,0.6-0.4c0.4,0,0.6,0.2,0.9,0.3c0.1,0,0.2,0,0.2-0.1l0.2-0.3c0-0.1,0-0.2,0-0.2
		c-0.1-0.1-0.6-0.4-1.3-0.4C54.9,65.6,54.5,66.2,54.5,66.7z"/>
	<path class="st2" d="M57.9,65.7C57.8,65.7,57.8,65.7,57.9,65.7l-0.1,0.6c0,0.1,0.1,0.1,0.1,0.1h1v3.2c0,0.1,0.1,0.1,0.1,0.1h0.6
		c0.1,0,0.1-0.1,0.1-0.1v-3.2h1c0.1,0,0.1-0.1,0.1-0.1v-0.5c0-0.1,0-0.1-0.1-0.1H57.9z"/>
	<path class="st2" d="M64,66.9c0,0.3-0.3,0.6-0.6,0.6h-1v-1.2h1C63.8,66.3,64,66.5,64,66.9z M61.7,65.6
		C61.6,65.6,61.6,65.7,61.7,65.6l-0.1,3.9c0,0.1,0.1,0.1,0.1,0.1h0.6c0.1,0,0.1-0.1,0.1-0.1V68h0.7l0.8,1.6c0,0,0,0.1,0.1,0.1h0.7
		c0.1,0,0.2-0.1,0.1-0.2L63.9,68c0.6-0.2,0.9-0.7,0.9-1.2c0-0.7-0.6-1.3-1.4-1.3L61.7,65.6z"/>
	<path class="st2" d="M65.9,65.5C65.8,65.5,65.8,65.6,65.9,65.5l-0.1,4.1c0,0.1,0.1,0.1,0.1,0.1l2.6,0.1c0.1,0,0.1,0,0.1-0.1v-0.5
		c0-0.1-0.1-0.1-0.1-0.1h-1.9V68h1.6c0.1,0,0.1-0.1,0.1-0.1v-0.5c0-0.1-0.1-0.1-0.1-0.1h-1.6v-1h1.9c0.1,0,0.1-0.1,0.1-0.1v-0.5
		c0-0.1-0.1-0.1-0.1-0.1L65.9,65.5z"/>
	<path class="st2" d="M69.2,65.4C69.1,65.4,69.1,65.5,69.2,65.4L69.1,66c0,0.1,0,0.1,0.1,0.1h1v3.7c0,0.1,0.1,0.1,0.1,0.1h0.6
		c0.1,0,0.1,0,0.1-0.1v-3.7h1c0.1,0,0.1-0.1,0.1-0.1v-0.6c0-0.1,0-0.1-0.1-0.1L69.2,65.4z"/>
	<path class="st2" d="M74.7,65.1c-1.3,0.1-2.3,1.2-2.3,2.6s1,2.5,2.3,2.6c0.6,0,1.1-0.2,1.5-0.6c0,0,0.1-0.1,0-0.2L75.8,69
		c0,0-0.1-0.1-0.2,0c-0.3,0.2-0.6,0.4-1,0.4c-0.8,0-1.4-0.8-1.4-1.7c0-0.9,0.6-1.6,1.4-1.7c0.4,0,0.7,0.1,1,0.4
		c0.1,0.1,0.1,0.1,0.2,0l0.4-0.5c0.1-0.1,0.1-0.1,0-0.2C75.8,65.2,75.3,65,74.7,65.1z"/>
	<path class="st2" d="M80,64.8c-0.1,0-0.1,0.1-0.1,0.2v2.2h-2.1v-2.1c0-0.1,0-0.1-0.1-0.1h-0.6C77,65,77,65.1,77,65.2v5
		c0,0.1,0.1,0.1,0.1,0.2h0.6c0.1,0,0.1-0.1,0.1-0.1v-2.1h2.1v2.3c0,0.1,0,0.2,0.1,0.2h0.6c0.1,0,0.1-0.1,0.1-0.2V65
		c0-0.1-0.1-0.2-0.1-0.1L80,64.8z"/>
</g>
<g>
	<path class="st2" d="M302.7,136.6c0,5.6,4.6,10.2,10.3,10.2c5.7,0,10.3-4.5,10.3-10.2c0-5.6-4.6-10.2-10.3-10.2
		C307.3,126.4,302.7,131,302.7,136.6z"/>
	<polygon class="st6" points="312.4,126.1 312.3,126.1 311.7,126.2 311.7,126.2 311,126.3 311,126.3 310.4,126.4 310.4,126.4 
		309.8,126.6 309.8,126.6 309.2,126.8 309.1,126.8 308.6,127 308.6,127 308,127.3 308,127.3 307.5,127.6 307.4,127.6 306.9,128 
		306.9,128 306.4,128.3 306.4,128.4 305.9,128.7 305.9,128.8 305.5,129.2 305.5,129.2 305,129.6 305,129.6 304.6,130.1 304.6,130.1 
		304.3,130.6 304.2,130.6 303.9,131.1 303.9,131.1 303.6,131.7 303.6,131.7 303.3,132.2 303.3,132.2 303.1,132.8 303.1,132.8 
		302.9,133.4 302.8,133.4 302.7,134 302.7,134 302.5,134.6 302.5,134.7 302.4,135.3 302.4,135.3 302.4,135.9 302.4,136 302.3,136.6 
		302.3,136.6 302.4,137.3 302.4,137.3 302.4,137.9 302.4,138 302.5,138.6 302.5,138.6 302.7,139.2 302.7,139.2 302.8,139.8 
		302.8,139.8 303.1,140.4 303.1,140.4 303.3,141 303.3,141 303.6,141.6 303.6,141.6 303.9,142.1 303.9,142.1 304.2,142.6 
		304.3,142.6 304.6,143.1 304.6,143.1 305,143.6 305,143.6 305.5,144.1 305.5,144.1 305.9,144.5 305.9,144.5 306.4,144.9 
		306.4,144.9 306.9,145.3 306.9,145.3 307.4,145.6 307.4,145.6 308,145.9 308,145.9 308.5,146.2 308.6,146.2 309.1,146.4 
		309.2,146.4 309.7,146.7 309.8,146.7 310.4,146.8 310.4,146.8 311,147 311,147 311.6,147.1 311.7,147.1 312.3,147.1 312.3,147.1 
		313,147.2 313.7,147.1 313.7,147.1 314.3,147.1 314.3,147.1 315,147 315,147 315.6,146.8 315.6,146.8 316.2,146.7 316.3,146.7 
		316.8,146.5 316.9,146.4 317.4,146.2 317.4,146.2 318,145.9 318,145.9 318.6,145.6 318.6,145.6 319.1,145.3 319.1,145.3 
		319.6,144.9 319.6,144.9 320.1,144.5 320.1,144.5 320.5,144.1 320.5,144.1 321,143.6 321,143.6 321.4,143.2 321.4,143.1 
		321.7,142.7 321.8,142.6 322.1,142.1 322.1,142.1 322.4,141.6 322.4,141.6 322.7,141 322.7,141 322.9,140.5 322.9,140.4 
		323.2,139.9 323.2,139.8 323.3,139.2 323.3,139.2 323.5,138.6 323.5,138.6 323.6,138 323.6,137.9 323.6,137.3 323.6,137.3 
		323.7,136.6 323.6,136 323.6,136 323.6,135.3 323.6,135.3 323.5,134.7 323.5,134.7 323.3,134.1 323.3,134 323.2,133.4 323.2,133.4 
		323,132.8 322.9,132.8 322.7,132.3 322.7,132.2 322.4,131.7 322.4,131.7 322.1,131.1 322.1,131.1 321.8,130.6 321.8,130.6 
		321.4,130.1 321.4,130.1 321,129.7 321,129.6 320.6,129.2 320.5,129.2 320.1,128.8 320.1,128.8 319.6,128.4 319.6,128.4 319.1,128 
		319.1,128 318.6,127.6 318.6,127.6 318,127.3 318,127.3 317.5,127.1 317.4,127 316.9,126.8 316.9,126.8 316.3,126.6 316.2,126.6 
		315.7,126.4 315.6,126.4 315,126.3 315,126.3 314.4,126.2 314.3,126.2 313.7,126.1 313.7,126.1 313,126.1 	"/>
	<g>
		<rect x="302.5" y="125.4" class="st5" width="21" height="19.4"/>
		<path class="st0" d="M308.9,139.1l2.4-1c0.1,1.1,0.7,1.5,1.7,1.5c0.8,0,1.3-0.5,1.3-1.2c0-0.8-0.5-1.1-1.3-1.1c-0.3,0-0.5,0-0.7,0
			v-1.7c0.2,0,0.3,0,0.5,0c0.9,0,1.3-0.4,1.3-1.2c0-0.7-0.4-1.1-1.2-1.1c-0.8,0-1.3,0.4-1.5,1.4l-2.3-0.8c0.3-1.7,1.9-2.6,3.9-2.6
			c2.3,0,3.5,1.1,3.5,2.7c0,1.7-1.3,2.3-1.9,2.4l0,0c0.7,0,2.1,0.5,2.1,2.1c0,1.9-1.6,3-3.8,3C310.9,141.6,309.4,140.7,308.9,139.1z
			"/>
	</g>
</g>
<g>
	<polygon class="st6" points="37.6,16.1 37.6,16.1 36.9,16.2 36.9,16.2 36.3,16.3 36.2,16.3 35.6,16.4 35.6,16.4 35,16.6 35,16.6 
		34.4,16.8 34.4,16.8 33.8,17 33.8,17 33.2,17.3 33.2,17.3 32.7,17.6 32.7,17.6 32.2,17.9 32.1,18 31.7,18.3 31.6,18.3 31.2,18.7 
		31.2,18.7 30.7,19.1 30.7,19.2 30.3,19.6 30.3,19.6 29.9,20.1 29.9,20.1 29.5,20.6 29.5,20.6 29.1,21.1 29.1,21.1 28.8,21.6 
		28.8,21.7 28.5,22.2 28.5,22.2 28.3,22.8 28.3,22.8 28.1,23.4 28.1,23.4 27.9,24 27.9,24 27.8,24.6 27.8,24.6 27.7,25.3 27.7,25.3 
		27.6,25.9 27.6,25.9 27.6,26.6 27.6,26.6 27.6,27.3 27.6,27.3 27.7,27.9 27.7,27.9 27.8,28.5 27.8,28.6 27.9,29.2 27.9,29.2 
		28.1,29.8 28.1,29.8 28.3,30.4 28.3,30.4 28.5,31 28.5,31 28.8,31.5 28.8,31.6 29.1,32.1 29.1,32.1 29.5,32.6 29.5,32.6 29.9,33.1 
		29.9,33.1 30.3,33.6 30.3,33.6 30.7,34 30.7,34 31.1,34.5 31.2,34.5 31.6,34.9 31.6,34.9 32.1,35.2 32.1,35.3 32.7,35.6 32.7,35.6 
		33.2,35.9 33.2,35.9 33.8,36.2 33.8,36.2 34.4,36.4 34.4,36.4 35,36.6 35,36.6 35.6,36.8 35.6,36.8 36.2,36.9 36.2,37 36.9,37 
		36.9,37.1 37.5,37.1 37.6,37.1 38.2,37.1 38.9,37.1 38.9,37.1 39.6,37.1 39.6,37.1 40.2,37 40.2,37 40.8,36.8 40.9,36.8 41.5,36.6 
		41.5,36.6 42.1,36.4 42.1,36.4 42.7,36.2 42.7,36.2 43.2,35.9 43.3,35.9 43.8,35.6 43.8,35.6 44.3,35.3 44.3,35.2 44.8,34.9 
		44.8,34.9 45.3,34.5 45.3,34.5 45.8,34.1 45.8,34 46.2,33.6 46.2,33.6 46.6,33.1 46.6,33.1 47,32.6 47,32.6 47.3,32.1 47.3,32.1 
		47.6,31.6 47.7,31.5 47.9,31 47.9,31 48.2,30.4 48.2,30.4 48.4,29.8 48.4,29.8 48.6,29.2 48.6,29.2 48.7,28.6 48.7,28.6 48.8,27.9 
		48.8,27.9 48.9,27.3 48.9,27.3 48.9,26.6 48.9,26 48.9,25.9 48.8,25.3 48.8,25.3 48.7,24.7 48.7,24.6 48.6,24 48.6,24 48.4,23.4 
		48.4,23.4 48.2,22.8 48.2,22.8 47.9,22.2 47.9,22.2 47.7,21.7 47.6,21.6 47.3,21.1 47.3,21.1 47,20.6 47,20.6 46.6,20.1 46.6,20.1 
		46.2,19.6 46.2,19.6 45.8,19.2 45.8,19.2 45.3,18.7 45.3,18.7 44.8,18.3 44.8,18.3 44.3,18 44.3,18 43.8,17.6 43.8,17.6 43.3,17.3 
		43.2,17.3 42.7,17 42.7,17 42.1,16.8 42.1,16.8 41.5,16.6 41.5,16.6 40.9,16.4 40.9,16.4 40.2,16.3 40.2,16.3 39.6,16.2 39.6,16.2 
		38.9,16.1 38.9,16.1 38.2,16.1 	"/>
	<g>
		<rect x="26.7" y="15.4" class="st5" width="23.2" height="19.4"/>
		<path class="st0" d="M34.4,29.3l2.3-1.1c0.2,0.8,0.7,1.3,1.7,1.3c0.9,0,1.5-0.5,1.5-1.5c0-0.9-0.5-1.4-1.5-1.4
			c-0.7,0-1.2,0.2-1.6,0.6l-2-0.4l0.6-5.6h6.3v2h-4.4l-0.3,2v0.2l0,0c0.4-0.5,1.2-0.7,2.1-0.7c2,0,3.1,1.3,3.1,3
			c0,2.5-1.8,3.6-3.9,3.6C36.5,31.5,35.2,30.9,34.4,29.3z"/>
	</g>
</g>
<polygon class="st6" points="216.6,186 216.1,187.2 271.3,211.6 272.1,210 216.8,185.6 "/>
<g>
	<polygon class="st6" points="267.4,198.3 267.3,198.3 266.7,198.3 266.7,198.3 266,198.4 266,198.4 265.4,198.6 265.4,198.6 
		264.8,198.7 264.8,198.8 264.2,199 264.1,199 263.6,199.2 263.6,199.2 263,199.5 263,199.5 262.5,199.8 262.4,199.8 261.9,200.1 
		261.9,200.1 261.4,200.5 261.4,200.5 260.9,200.9 260.9,200.9 260.5,201.3 260.5,201.3 260,201.8 260,201.8 259.6,202.3 
		259.6,202.3 259.3,202.8 259.2,202.8 258.9,203.3 258.9,203.3 258.6,203.8 258.6,203.8 258.3,204.4 258.3,204.4 258.1,205 
		258.1,205 257.9,205.6 257.8,205.6 257.7,206.2 257.7,206.2 257.5,206.8 257.5,206.8 257.4,207.4 257.4,207.5 257.4,208.1 
		257.4,208.1 257.3,208.8 257.3,208.8 257.4,209.4 257.4,209.5 257.4,210.1 257.4,210.1 257.5,210.7 257.5,210.8 257.7,211.4 
		257.7,211.4 257.8,212 257.8,212 258.1,212.6 258.1,212.6 258.3,213.2 258.3,213.2 258.6,213.7 258.6,213.7 258.9,214.3 
		258.9,214.3 259.2,214.8 259.3,214.8 259.6,215.3 259.6,215.3 260,215.8 260,215.8 260.4,216.2 260.5,216.2 260.9,216.7 
		260.9,216.7 261.4,217.1 261.4,217.1 261.9,217.4 261.9,217.4 262.4,217.8 262.4,217.8 263,218.1 263,218.1 263.5,218.4 
		263.6,218.4 264.1,218.6 264.2,218.6 264.7,218.8 264.8,218.8 265.4,219 265.4,219 266,219.1 266,219.1 266.6,219.2 266.7,219.2 
		267.3,219.3 267.3,219.3 268,219.3 268.7,219.3 268.7,219.3 269.3,219.2 269.3,219.2 270,219.1 270,219.1 270.6,219 270.6,219 
		271.2,218.8 271.2,218.8 271.8,218.6 271.9,218.6 272.4,218.4 272.5,218.4 273,218.1 273,218.1 273.6,217.8 273.6,217.8 
		274.1,217.4 274.1,217.4 274.6,217.1 274.6,217.1 275.1,216.7 275.1,216.7 275.5,216.3 275.5,216.2 276,215.8 276,215.8 
		276.4,215.3 276.4,215.3 276.7,214.8 276.8,214.8 277.1,214.3 277.1,214.3 277.4,213.8 277.4,213.7 277.7,213.2 277.7,213.2 
		277.9,212.6 278,212.6 278.2,212 278.2,212 278.3,211.4 278.3,211.4 278.5,210.8 278.5,210.8 278.6,210.1 278.6,210.1 278.6,209.5 
		278.6,209.5 278.7,208.8 278.6,208.1 278.6,208.1 278.6,207.5 278.6,207.5 278.5,206.8 278.5,206.8 278.3,206.2 278.3,206.2 
		278.2,205.6 278.2,205.6 278,205 278,205 277.7,204.4 277.7,204.4 277.4,203.9 277.4,203.8 277.1,203.3 277.1,203.3 276.8,202.8 
		276.8,202.8 276.4,202.3 276.4,202.3 276,201.8 276,201.8 275.6,201.4 275.5,201.3 275.1,200.9 275.1,200.9 274.6,200.5 
		274.6,200.5 274.1,200.2 274.1,200.1 273.6,199.8 273.6,199.8 273,199.5 273,199.5 272.5,199.2 272.4,199.2 271.9,199 271.9,199 
		271.3,198.8 271.2,198.8 270.7,198.6 270.6,198.6 270,198.4 270,198.4 269.4,198.3 269.3,198.3 268.7,198.3 268.7,198.3 268,198.3 
			"/>
	<g>
		<rect x="256.5" y="197.9" class="st5" width="22.7" height="19.4"/>
		<path class="st0" d="M271.9,205.9l-2.1,1c-0.2-0.7-0.7-1.2-1.5-1.2c-1.2,0-1.9,1.1-1.9,2.9v0.2v0.1c0.3-0.9,1.5-1.4,2.5-1.4
			c1.8,0,3.2,1.1,3.2,3c0,2.1-1.5,3.3-3.8,3.3c-2.6,0-4.3-1.7-4.3-5.1c0-3.5,1.9-5.2,4.5-5.2C270,203.7,271.3,204.3,271.9,205.9z
			 M266.8,210.7c0,0.8,0.6,1.3,1.4,1.3c0.9,0,1.4-0.5,1.4-1.3s-0.5-1.3-1.4-1.3C267.4,209.4,266.8,209.9,266.8,210.7z"/>
	</g>
</g>
<path class="st6" d="M223.3,187.1c0,2.9-2.4,5.3-5.3,5.3c-2.9,0-5.3-2.4-5.3-5.3c0-2.9,2.4-5.3,5.3-5.3
	C220.9,181.8,223.3,184.1,223.3,187.1z"/>
<path class="st6" d="M126.2,174.5c0,2.9-2.4,5.3-5.3,5.3s-5.3-2.4-5.3-5.3c0-2.9,2.4-5.3,5.3-5.3
	C123.9,169.3,126.2,171.6,126.2,174.5z"/>
<path class="st6" d="M184.9,186.4c0,2.9-2.4,5.3-5.3,5.3c-2.9,0-5.3-2.4-5.3-5.3c0-2.9,2.4-5.3,5.3-5.3
	C182.5,181.1,184.9,183.5,184.9,186.4z"/>
<path class="st6" d="M33.9,110c0,2.9-2.4,5.3-5.3,5.3s-5.3-2.4-5.3-5.3s2.4-5.3,5.3-5.3C31.6,104.7,33.9,107,33.9,110z"/>
<path class="st6" d="M171.6,86.4c0,2.9-2.4,5.3-5.3,5.3c-2.9,0-5.3-2.4-5.3-5.3s2.4-5.3,5.3-5.3C169.3,81.1,171.6,83.4,171.6,86.4z"
	/>
<path class="st6" d="M260.7,137c0,2.9-2.4,5.3-5.3,5.3c-2.9,0-5.3-2.4-5.3-5.3c0-2.9,2.4-5.3,5.3-5.3
	C258.3,131.7,260.7,134.1,260.7,137z"/>
<g>
	<rect x="48" y="14.7" class="st5" width="117.3" height="21.8"/>
	<path class="st3" d="M53.9,23l3.1-6.8c0-0.1,0.1-0.1,0.2-0.1h0.1c0.1,0,0.1,0.1,0.2,0.1l3.1,6.8c0.1,0.1,0,0.3-0.2,0.3h-0.9
		c-0.2,0-0.2-0.1-0.3-0.2L58.7,22h-3l-0.5,1.1c0,0.1-0.1,0.2-0.3,0.2H54C53.9,23.3,53.8,23.2,53.9,23z M58.2,20.9l-1-2.2l0,0l-1,2.2
		H58.2z"/>
	<path class="st3" d="M61.3,19.8h-0.5c-0.1,0-0.2-0.1-0.2-0.2v-0.7c0-0.1,0.1-0.2,0.2-0.2h0.5v-1.3c0-0.1,0.1-0.2,0.2-0.2h0.8
		c0.1,0,0.2,0.1,0.2,0.2v1.3h1.1c0.1,0,0.2,0.1,0.2,0.2v0.7c0,0.1-0.1,0.2-0.2,0.2h-1.1v2.1c0,0.3,0.2,0.4,0.4,0.4s0.6-0.1,0.7-0.2
		c0.1-0.1,0.2,0,0.3,0.1l0.1,0.6c0,0.1,0,0.2-0.1,0.3c-0.2,0.1-0.8,0.3-1.3,0.3c-1,0-1.3-0.7-1.3-1.5C61.3,21.9,61.3,19.8,61.3,19.8
		z"/>
	<path class="st3" d="M65.2,19.8h-0.5c-0.1,0-0.2-0.1-0.2-0.2v-0.7c0-0.1,0.1-0.2,0.2-0.2h0.5v-1.3c0-0.1,0.1-0.2,0.2-0.2h0.8
		c0.1,0,0.2,0.1,0.2,0.2v1.3h1.1c0.1,0,0.2,0.1,0.2,0.2v0.7c0,0.1-0.1,0.2-0.2,0.2h-1.1v2.1c0,0.3,0.2,0.4,0.4,0.4
		c0.2,0,0.6-0.1,0.7-0.2s0.2,0,0.3,0.1l0.1,0.6c0,0.1,0,0.2-0.1,0.3c-0.2,0.1-0.8,0.3-1.3,0.3c-1,0-1.3-0.7-1.3-1.5
		C65.2,21.9,65.2,19.8,65.2,19.8z"/>
	<path class="st3" d="M70.4,20.4c0.5,0,0.9,0.1,0.9,0.1c0-0.6-0.2-0.9-0.6-0.9s-1,0.1-1.3,0.2c-0.2,0.1-0.2-0.1-0.3-0.2L69,19.1
		c0-0.2,0.1-0.3,0.2-0.3s0.8-0.2,1.6-0.2c1.5,0,1.8,0.8,1.8,2v2.5c0,0.1-0.1,0.2-0.2,0.2h-0.3c-0.1,0-0.1,0-0.2-0.2l-0.1-0.3
		c-0.3,0.3-0.7,0.6-1.5,0.6c-0.9,0-1.6-0.6-1.6-1.6C68.5,21,69.2,20.4,70.4,20.4z M70.4,22.5c0.4,0,0.8-0.3,0.8-0.5v-0.7
		c0,0-0.3-0.1-0.7-0.1c-0.5,0-0.8,0.3-0.8,0.7C69.8,22.2,70,22.5,70.4,22.5z"/>
	<path class="st3" d="M75.9,18.5c0.7,0,1.3,0.3,1.7,0.8c0.1,0.1,0.1,0.2-0.1,0.3l-0.4,0.5c-0.1,0.1-0.2,0.1-0.3,0
		c-0.2-0.2-0.5-0.4-0.9-0.4c-0.7,0-1.2,0.6-1.2,1.3c0,0.7,0.5,1.3,1.2,1.3c0.5,0,0.8-0.3,1-0.5c0.1-0.1,0.2-0.1,0.3,0l0.5,0.4
		c0.1,0.1,0.2,0.2,0.1,0.3c-0.4,0.6-1,1-1.8,1c-1.4,0-2.5-1-2.5-2.4C73.5,19.6,74.6,18.5,75.9,18.5z"/>
	<path class="st3" d="M78.7,16.5c0-0.1,0.1-0.2,0.2-0.2h0.8c0.1,0,0.2,0.1,0.2,0.2V19c0.2-0.2,0.6-0.4,1.2-0.4c1.5,0,1.9,1,1.9,2.2
		v2.3c0,0.1-0.1,0.2-0.2,0.2H82c-0.1,0-0.2-0.1-0.2-0.2v-2.4c0-0.6-0.3-1-0.8-1s-0.8,0.3-1,0.8v2.6c0,0.1-0.1,0.2-0.2,0.2H79
		c-0.1,0-0.2-0.1-0.2-0.2v-6.6H78.7z"/>
	<path class="st3" d="M86.4,18.5c1.2,0,2.1,0.9,2.1,2.2c0,0.1,0,0.2,0,0.3c0,0.1-0.1,0.2-0.2,0.2h-3c0,0.6,0.5,1.1,1.2,1.1
		c0.5,0,0.8-0.2,1-0.3c0.1-0.1,0.2-0.1,0.3,0l0.4,0.5c0.1,0.1,0.1,0.2,0,0.3c-0.4,0.3-1,0.6-1.7,0.6C85,23.4,84,22.3,84,21
		S85,18.5,86.4,18.5z M87.2,20.4c0-0.5-0.4-0.8-0.9-0.8c-0.6,0-0.9,0.3-1,0.8H87.2z"/>
	<path class="st3" d="M89.3,23c-0.1,0-0.1-0.2-0.1-0.3l0.3-0.6c0.1-0.1,0.2-0.2,0.3-0.1c0.2,0.1,0.5,0.3,1,0.3
		c0.4,0,0.5-0.1,0.5-0.3c0-0.2-0.3-0.4-0.9-0.6c-0.9-0.3-1.3-0.8-1.3-1.5s0.5-1.4,1.7-1.4c0.7,0,1.1,0.2,1.4,0.3
		c0.1,0.1,0.2,0.2,0.1,0.3L92,19.6c-0.1,0.1-0.2,0.1-0.3,0.1c-0.2-0.1-0.5-0.2-0.9-0.2c-0.3,0-0.4,0.2-0.4,0.3
		c0,0.2,0.2,0.3,0.7,0.5c0.9,0.4,1.5,0.7,1.5,1.6c0,0.7-0.6,1.4-1.8,1.4C90.1,23.4,89.6,23.2,89.3,23z"/>
	<path class="st3" d="M97.6,20.4c0.5,0,0.9,0.1,0.9,0.1c0-0.6-0.2-0.9-0.6-0.9s-1,0.1-1.3,0.2c-0.2,0.1-0.2-0.1-0.3-0.2l-0.1-0.5
		c0-0.2,0.1-0.3,0.2-0.3s0.8-0.2,1.6-0.2c1.5,0,1.8,0.8,1.8,2v2.5c0,0.1-0.1,0.2-0.2,0.2h-0.3c-0.1,0-0.1,0-0.2-0.2L99,22.8
		c-0.3,0.3-0.7,0.6-1.5,0.6c-0.9,0-1.6-0.6-1.6-1.6C95.7,21,96.4,20.4,97.6,20.4z M97.6,22.5c0.4,0,0.8-0.3,0.8-0.5v-0.7
		c0,0-0.3-0.1-0.7-0.1c-0.5,0-0.8,0.3-0.8,0.7C96.9,22.2,97.2,22.5,97.6,22.5z"/>
	<path class="st3" d="M102.2,23.5c0,1.4-0.6,1.9-1.4,2.3c-0.2,0.1-0.4,0.1-0.4-0.1l-0.2-0.6c-0.1-0.2-0.1-0.3,0.1-0.4
		c0.3-0.2,0.7-0.4,0.7-1v-4.8c0-0.1,0.1-0.2,0.2-0.2h0.8c0.1,0,0.2,0.1,0.2,0.2C102.2,18.9,102.2,23.5,102.2,23.5z M100.7,17
		c0-0.4,0.3-0.8,0.8-0.8s0.8,0.4,0.8,0.8s-0.4,0.8-0.8,0.8S100.7,17.5,100.7,17z"/>
	<path class="st3" d="M103.4,18.9c0-0.1,0.1-0.2,0.2-0.2h0.8c0.1,0,0.2,0.1,0.2,0.2v2.5c0,0.6,0.2,0.9,0.8,0.9
		c0.5,0,0.8-0.5,0.8-0.9v-2.5c0-0.2,0.1-0.2,0.3-0.2h0.8c0.1,0,0.2,0.1,0.2,0.2v4.2c0,0.1-0.1,0.2-0.2,0.2H107
		c-0.1,0-0.2-0.1-0.2-0.2l-0.1-0.4c-0.2,0.3-0.7,0.7-1.4,0.7c-1.4,0-1.8-0.9-1.8-2.1L103.4,18.9L103.4,18.9z"/>
	<path class="st3" d="M108.7,23c-0.1,0-0.1-0.2-0.1-0.3l0.3-0.6c0.1-0.1,0.2-0.2,0.3-0.1c0.2,0.1,0.5,0.3,1,0.3
		c0.4,0,0.5-0.1,0.5-0.3c0-0.2-0.3-0.4-0.9-0.6c-0.9-0.3-1.3-0.8-1.3-1.5s0.5-1.4,1.7-1.4c0.7,0,1.1,0.2,1.4,0.3
		c0.1,0.1,0.2,0.2,0.1,0.3l-0.3,0.5c-0.1,0.1-0.2,0.1-0.3,0.1c-0.2-0.1-0.5-0.2-0.9-0.2c-0.3,0-0.4,0.2-0.4,0.3
		c0,0.2,0.2,0.3,0.7,0.5c0.9,0.4,1.5,0.7,1.5,1.6c0,0.7-0.6,1.4-1.8,1.4C109.5,23.4,109,23.2,108.7,23z"/>
	<path class="st3" d="M113.3,19.8h-0.5c-0.1,0-0.2-0.1-0.2-0.2v-0.7c0-0.1,0.1-0.2,0.2-0.2h0.5v-1.3c0-0.1,0.1-0.2,0.2-0.2h0.8
		c0.1,0,0.2,0.1,0.2,0.2v1.3h1.1c0.1,0,0.2,0.1,0.2,0.2v0.7c0,0.1-0.1,0.2-0.2,0.2h-1.1v2.1c0,0.3,0.2,0.4,0.4,0.4
		c0.2,0,0.6-0.1,0.7-0.2s0.2,0,0.3,0.1l0.1,0.6c0,0.1,0,0.2-0.1,0.3c-0.2,0.1-0.8,0.3-1.3,0.3c-1,0-1.3-0.7-1.3-1.5
		C113.3,21.9,113.3,19.8,113.3,19.8z"/>
	<path class="st3" d="M118.5,20.4c0.5,0,0.9,0.1,0.9,0.1c0-0.6-0.2-0.9-0.6-0.9s-1,0.1-1.3,0.2c-0.2,0.1-0.2-0.1-0.3-0.2l-0.1-0.5
		c0-0.2,0.1-0.3,0.2-0.3s0.8-0.2,1.6-0.2c1.5,0,1.8,0.8,1.8,2v2.5c0,0.1-0.1,0.2-0.2,0.2H120c-0.1,0-0.1,0-0.2-0.2l-0.1-0.3
		c-0.3,0.3-0.7,0.6-1.5,0.6c-0.9,0-1.6-0.6-1.6-1.6C116.7,21,117.3,20.4,118.5,20.4z M118.5,22.5c0.4,0,0.8-0.3,0.8-0.5v-0.7
		c0,0-0.3-0.1-0.7-0.1c-0.5,0-0.8,0.3-0.8,0.7C117.9,22.2,118.1,22.5,118.5,22.5z"/>
	<path class="st3" d="M121.8,16.5c0-0.1,0.1-0.2,0.2-0.2h0.8c0.1,0,0.2,0.1,0.2,0.2v2.3c0.2-0.1,0.7-0.2,1.1-0.2
		c1.4,0,2.3,1.1,2.3,2.4s-0.9,2.4-2.2,2.4c-1,0-1.6-0.7-1.6-0.7l-0.1,0.4c-0.1,0.1-0.1,0.2-0.2,0.2h-0.4c-0.1,0-0.2-0.1-0.2-0.2
		L121.8,16.5L121.8,16.5z M124.1,22.3c0.7,0,1.1-0.6,1.1-1.3c0-0.7-0.4-1.3-1.2-1.3c-0.6,0-1,0.3-1,0.3v1.7
		C123.2,21.9,123.5,22.3,124.1,22.3z"/>
	<path class="st3" d="M127.5,16.5c0-0.1,0.1-0.2,0.2-0.2h0.8c0.1,0,0.2,0.1,0.2,0.2v6.6c0,0.1-0.1,0.2-0.2,0.2h-0.8
		c-0.1,0-0.2-0.1-0.2-0.2V16.5z"/>
	<path class="st3" d="M132.2,18.5c1.2,0,2.1,0.9,2.1,2.2c0,0.1,0,0.2,0,0.3c0,0.1-0.1,0.2-0.2,0.2h-3c0,0.6,0.5,1.1,1.2,1.1
		c0.5,0,0.8-0.2,1-0.3c0.1-0.1,0.2-0.1,0.3,0l0.4,0.5c0.1,0.1,0.1,0.2,0,0.3c-0.4,0.3-1,0.6-1.7,0.6c-1.4,0-2.4-1.1-2.4-2.4
		C129.8,19.7,130.8,18.5,132.2,18.5z M133.1,20.4c0-0.5-0.4-0.8-0.9-0.8c-0.6,0-0.9,0.3-1,0.8H133.1z"/>
	<path class="st3" d="M135.1,23c-0.1,0-0.1-0.2-0.1-0.3l0.3-0.6c0.1-0.1,0.2-0.2,0.3-0.1c0.2,0.1,0.5,0.3,1,0.3
		c0.4,0,0.5-0.1,0.5-0.3c0-0.2-0.3-0.4-0.9-0.6c-0.9-0.3-1.3-0.8-1.3-1.5s0.5-1.4,1.7-1.4c0.7,0,1.1,0.2,1.4,0.3
		c0.1,0.1,0.2,0.2,0.1,0.3l-0.3,0.5c-0.1,0.1-0.2,0.1-0.3,0.1c-0.2-0.1-0.5-0.2-0.9-0.2c-0.3,0-0.4,0.2-0.4,0.3
		c0,0.2,0.2,0.3,0.7,0.5c0.9,0.4,1.5,0.7,1.5,1.6c0,0.7-0.6,1.4-1.8,1.4C135.9,23.4,135.4,23.2,135.1,23z"/>
	<path class="st3" d="M56.6,30.7c1.2,0,2.1,0.9,2.1,2.2c0,0.1,0,0.2,0,0.3s-0.1,0.2-0.2,0.2h-3c0,0.6,0.5,1.1,1.2,1.1
		c0.5,0,0.8-0.2,1-0.3c0.1-0.1,0.2-0.1,0.3,0l0.4,0.5c0.1,0.1,0.1,0.2,0,0.3c-0.4,0.3-1,0.6-1.7,0.6c-1.4,0-2.4-1.1-2.4-2.4
		C54.2,31.8,55.2,30.7,56.6,30.7z M57.4,32.5c0-0.5-0.4-0.8-0.9-0.8c-0.6,0-0.9,0.3-1,0.8H57.4z"/>
	<path class="st3" d="M60,31.9h-0.5c-0.1,0-0.2-0.1-0.2-0.2V31c0-0.1,0.1-0.2,0.2-0.2H60v-1.3c0-0.1,0.1-0.2,0.2-0.2H61
		c0.1,0,0.2,0.1,0.2,0.2v1.3h1.1c0.1,0,0.2,0.1,0.2,0.2v0.7c0,0.1-0.1,0.2-0.2,0.2h-1.1V34c0,0.3,0.2,0.4,0.4,0.4s0.6-0.1,0.7-0.2
		c0.1-0.1,0.2,0,0.3,0.1l0.1,0.6c0,0.1,0,0.2-0.1,0.3c-0.2,0.1-0.8,0.3-1.3,0.3c-1,0-1.3-0.7-1.3-1.5C60,34,60,31.9,60,31.9z"/>
	<path class="st3" d="M68.1,30.7c1.2,0,2.1,0.9,2.1,2.2c0,0.1,0,0.2,0,0.3s-0.1,0.2-0.2,0.2h-3c0,0.6,0.5,1.1,1.2,1.1
		c0.5,0,0.8-0.2,1-0.3c0.1-0.1,0.2-0.1,0.3,0l0.4,0.5c0.1,0.1,0.1,0.2,0,0.3c-0.4,0.3-1,0.6-1.7,0.6c-1.4,0-2.4-1.1-2.4-2.4
		C65.7,31.8,66.7,30.7,68.1,30.7z M67.2,30L67,29.6c0-0.1,0-0.2,0.1-0.2l1.6-1c0.1-0.1,0.2-0.1,0.3,0l0.3,0.5c0.1,0.1,0,0.2-0.1,0.3
		L67.4,30C67.3,30.2,67.3,30.1,67.2,30z M69,32.5c0-0.5-0.4-0.8-0.9-0.8c-0.6,0-0.9,0.3-1,0.8H69z"/>
	<path class="st3" d="M71.2,28.6c0-0.1,0.1-0.2,0.2-0.2h0.8c0.1,0,0.2,0.1,0.2,0.2v6.6c0,0.1-0.1,0.2-0.2,0.2h-0.8
		c-0.1,0-0.2-0.1-0.2-0.2V28.6z"/>
	<path class="st3" d="M75.3,32.5c0.5,0,0.9,0.1,0.9,0.1c0-0.6-0.2-0.9-0.6-0.9s-1,0.1-1.3,0.2C74.1,32,74,31.8,74,31.7l-0.1-0.5
		c0-0.2,0.1-0.3,0.2-0.3s0.8-0.2,1.6-0.2c1.5,0,1.8,0.8,1.8,2v2.5c0,0.1-0.1,0.2-0.2,0.2H77c-0.1,0-0.1,0-0.2-0.2L76.5,35
		c-0.3,0.3-0.7,0.6-1.5,0.6c-0.9,0-1.6-0.6-1.6-1.6C73.4,33.1,74.1,32.5,75.3,32.5z M75.3,34.6c0.4,0,0.8-0.3,0.8-0.5v-0.7
		c0,0-0.3-0.1-0.7-0.1c-0.5,0-0.8,0.3-0.8,0.7C74.6,34.3,74.9,34.6,75.3,34.6z"/>
	<path class="st3" d="M78.5,35.1c-0.1,0-0.1-0.2-0.1-0.3l0.3-0.6c0.1-0.1,0.2-0.2,0.3-0.1c0.2,0.1,0.5,0.3,1,0.3
		c0.4,0,0.5-0.1,0.5-0.3s-0.3-0.4-0.9-0.6c-0.9-0.3-1.3-0.8-1.3-1.5s0.5-1.4,1.7-1.4c0.7,0,1.1,0.2,1.4,0.3c0.1,0.1,0.2,0.2,0.1,0.3
		l-0.3,0.5c0,0.3-0.1,0.3-0.2,0.3c-0.2-0.1-0.5-0.2-0.9-0.2c-0.3,0-0.4,0.2-0.4,0.3c0,0.2,0.2,0.3,0.7,0.5c0.9,0.4,1.5,0.7,1.5,1.6
		c0,0.7-0.6,1.4-1.8,1.4C79.2,35.5,78.7,35.3,78.5,35.1z"/>
	<path class="st3" d="M83.1,31.9h-0.5c-0.1,0-0.2-0.1-0.2-0.2V31c0-0.1,0.1-0.2,0.2-0.2h0.5v-1.3c0-0.1,0.1-0.2,0.2-0.2h0.8
		c0.1,0,0.2,0.1,0.2,0.2v1.3h1.1c0.1,0,0.2,0.1,0.2,0.2v0.7c0,0.1-0.1,0.2-0.2,0.2h-1.1V34c0,0.3,0.2,0.4,0.4,0.4
		c0.2,0,0.6-0.1,0.7-0.2c0.1-0.1,0.2,0,0.3,0.1l0.1,0.6c0,0.1,0,0.2-0.1,0.3c-0.2,0.1-0.8,0.3-1.3,0.3c-1,0-1.3-0.7-1.3-1.5
		C83.1,34,83.1,31.9,83.1,31.9z"/>
	<path class="st3" d="M86.6,29.2c0-0.4,0.3-0.8,0.8-0.8s0.8,0.4,0.8,0.8S87.8,30,87.4,30S86.6,29.6,86.6,29.2z M86.7,31
		c0-0.1,0.1-0.2,0.2-0.2h0.8c0.1,0,0.2,0.1,0.2,0.2v4.2c0,0.1-0.1,0.2-0.2,0.2H87c-0.1,0-0.2-0.1-0.2-0.2V31H86.7z"/>
	<path class="st3" d="M91.2,30.7c1,0,1.5,0.7,1.5,0.7l0.1-0.4c0-0.1,0.1-0.2,0.2-0.2h0.4c0.1,0,0.2,0.1,0.2,0.2v6.6
		c0,0.1-0.1,0.2-0.2,0.2h-0.8c-0.1,0-0.2-0.1-0.2-0.2v-2.3c-0.2,0.1-0.7,0.2-1.1,0.2c-1.4,0-2.3-1.1-2.3-2.4
		C89,31.7,90,30.7,91.2,30.7z M92.4,32.5c-0.1-0.3-0.4-0.6-1-0.6c-0.7,0-1.1,0.6-1.1,1.3s0.4,1.3,1.2,1.3c0.6,0,1-0.3,1-0.3
		L92.4,32.5L92.4,32.5z"/>
	<path class="st3" d="M95,31c0-0.1,0.1-0.2,0.2-0.2H96c0.1,0,0.2,0.1,0.2,0.2v2.5c0,0.6,0.2,0.9,0.8,0.9c0.5,0,0.8-0.5,0.8-0.9V31
		c0-0.2,0.1-0.2,0.3-0.2h0.8c0.1,0,0.2,0.1,0.2,0.2v4.2c0,0.1-0.1,0.2-0.2,0.2h-0.4c-0.1,0-0.2-0.1-0.2-0.2l-0.1-0.4
		c-0.2,0.3-0.7,0.7-1.4,0.7c-1.4,0-1.8-0.9-1.8-2.1C95,33.4,95,31,95,31z"/>
	<path class="st3" d="M102.5,30.7c1.2,0,2.1,0.9,2.1,2.2c0,0.1,0,0.2,0,0.3s-0.1,0.2-0.2,0.2h-3c0,0.6,0.5,1.1,1.2,1.1
		c0.5,0,0.8-0.2,1-0.3c0.1-0.1,0.2-0.1,0.3,0l0.4,0.5c0.1,0.1,0.1,0.2,0,0.3c-0.4,0.3-1,0.6-1.7,0.6c-1.4,0-2.4-1.1-2.4-2.4
		C100.1,31.8,101.1,30.7,102.5,30.7z M103.3,32.5c0-0.5-0.4-0.8-0.9-0.8c-0.6,0-0.9,0.3-1,0.8H103.3z"/>
	<path class="st3" d="M105.4,35.1c-0.1,0-0.1-0.2-0.1-0.3l0.3-0.6c0.1-0.1,0.2-0.2,0.3-0.1c0.2,0.1,0.5,0.3,1,0.3
		c0.4,0,0.5-0.1,0.5-0.3s-0.3-0.4-0.9-0.6c-0.9-0.3-1.3-0.8-1.3-1.5s0.5-1.4,1.7-1.4c0.7,0,1.1,0.2,1.4,0.3c0.1,0.1,0.2,0.2,0.1,0.3
		l-0.3,0.5c-0.1,0.1-0.2,0.1-0.3,0.1c-0.2-0.1-0.5-0.2-0.9-0.2c-0.3,0-0.4,0.2-0.4,0.3c0,0.2,0.2,0.3,0.7,0.5
		c0.9,0.4,1.5,0.7,1.5,1.6c0,0.7-0.6,1.4-1.8,1.4C106.2,35.5,105.7,35.3,105.4,35.1z"/>
</g>
<g>
	<rect x="269.5" y="150.1" class="st5" width="84.6" height="28.4"/>
	<path class="st3" d="M279.7,151.9c-0.1-0.1,0-0.3,0.2-0.3h1c0.1,0,0.2,0.1,0.2,0.1l1.9,4.3h0.1l2-4.3c0-0.1,0.1-0.1,0.2-0.1h1
		c0.2,0,0.2,0.1,0.2,0.3l-3.1,6.8c0,0.1-0.1,0.1-0.2,0.1H283c-0.1,0-0.1,0-0.2-0.1L279.7,151.9z"/>
	<path class="st3" d="M288.4,153.9c1.3,0,2.4,1.1,2.4,2.4c0,1.3-1.1,2.5-2.4,2.5s-2.4-1.1-2.4-2.5C286,155,287.1,153.9,288.4,153.9z
		 M288.4,157.6c0.7,0,1.2-0.6,1.2-1.3s-0.5-1.3-1.2-1.3s-1.2,0.6-1.2,1.3C287.2,157.1,287.7,157.6,288.4,157.6z"/>
	<path class="st3" d="M291.6,152.4c0-0.4,0.3-0.8,0.8-0.8s0.8,0.4,0.8,0.8c0,0.4-0.4,0.8-0.8,0.8S291.6,152.9,291.6,152.4z
		 M291.8,154.2c0-0.1,0.1-0.2,0.2-0.2h0.8c0.1,0,0.2,0.1,0.2,0.2v4.2c0,0.1-0.1,0.2-0.2,0.2H292c-0.1,0-0.2-0.1-0.2-0.2V154.2z"/>
	<path class="st3" d="M294.3,151.8c0-0.1,0.1-0.2,0.2-0.2h0.8c0.1,0,0.2,0.1,0.2,0.2v6.6c0,0.1-0.1,0.2-0.2,0.2h-0.8
		c-0.1,0-0.2-0.1-0.2-0.2V151.8z"/>
	<path class="st3" d="M299,153.9c1.2,0,2.1,0.9,2.1,2.2c0,0.1,0,0.2,0,0.3s-0.1,0.2-0.2,0.2h-3c0,0.6,0.5,1.1,1.2,1.1
		c0.5,0,0.8-0.2,1-0.3c0.1-0.1,0.2-0.1,0.3,0l0.4,0.5c0.1,0.1,0.1,0.2,0,0.3c-0.4,0.3-1,0.6-1.7,0.6c-1.4,0-2.4-1.1-2.4-2.4
		C296.6,155,297.6,153.9,299,153.9z M299.8,155.8c0-0.5-0.4-0.8-0.9-0.8c-0.6,0-0.9,0.3-1,0.8H299.8z"/>
	<path class="st3" d="M306.5,153.9c1.2,0,2.1,0.9,2.1,2.2c0,0.1,0,0.2,0,0.3s-0.1,0.2-0.2,0.2h-3c0,0.6,0.5,1.1,1.2,1.1
		c0.5,0,0.8-0.2,1-0.3c0.1-0.1,0.2-0.1,0.3,0l0.4,0.5c0.1,0.1,0.1,0.2,0,0.3c-0.4,0.3-1,0.6-1.7,0.6c-1.4,0-2.4-1.1-2.4-2.4
		C304.2,155,305.2,153.9,306.5,153.9z M307.4,155.8c0-0.5-0.4-0.8-0.9-0.8c-0.6,0-0.9,0.3-1,0.8H307.4z"/>
	<path class="st3" d="M309.2,158.3l1.5-2l-1.4-1.9c-0.1-0.2,0-0.3,0.2-0.3h0.9c0.2,0,0.3,0,0.4,0.2l0.8,1.2l0,0l0.8-1.2
		c0.1-0.1,0.2-0.2,0.4-0.2h1c0.2,0,0.3,0.2,0.1,0.3l-1.4,1.9l1.4,2c0.1,0.2,0.1,0.3-0.1,0.3h-1c-0.2,0-0.2-0.1-0.3-0.2l-0.9-1.3l0,0
		l-0.9,1.4c0,0.1-0.1,0.1-0.2,0.1h-1.1C309.2,158.7,309.1,158.5,309.2,158.3z"/>
	<path class="st3" d="M315.1,155.1h-0.5c-0.1,0-0.2-0.1-0.2-0.2v-0.7c0-0.1,0.1-0.2,0.2-0.2h0.5v-1.3c0-0.1,0.1-0.2,0.2-0.2h0.8
		c0.1,0,0.2,0.1,0.2,0.2v1.3h1.1c0.1,0,0.2,0.1,0.2,0.2v0.7c0,0.1-0.1,0.2-0.2,0.2h-1.1v2.1c0,0.3,0.2,0.4,0.4,0.4
		c0.2,0,0.6-0.1,0.7-0.2c0.1-0.1,0.2,0,0.3,0.1l0.1,0.6c0,0.1,0,0.2-0.1,0.3c-0.2,0.1-0.8,0.3-1.3,0.3c-1,0-1.3-0.7-1.3-1.5
		L315.1,155.1L315.1,155.1z"/>
	<path class="st3" d="M320.8,153.9c1.2,0,2.1,0.9,2.1,2.2c0,0.1,0,0.2,0,0.3s-0.1,0.2-0.2,0.2h-3c0,0.6,0.5,1.1,1.2,1.1
		c0.5,0,0.8-0.2,1-0.3c0.1-0.1,0.2-0.1,0.3,0l0.4,0.5c0.1,0.1,0.1,0.2,0,0.3c-0.4,0.3-1,0.6-1.7,0.6c-1.4,0-2.4-1.1-2.4-2.4
		C318.4,155,319.4,153.9,320.8,153.9z M319.9,153.3l-0.2-0.4c0-0.1,0-0.2,0.1-0.2l1.6-1c0.1-0.1,0.2-0.1,0.3,0l0.3,0.5
		c0.1,0.1,0,0.2-0.1,0.3l-1.8,0.8C320,153.4,320,153.4,319.9,153.3z M321.7,155.8c0-0.5-0.4-0.8-0.9-0.8c-0.6,0-0.9,0.3-1,0.8H321.7
		z"/>
	<path class="st3" d="M323.9,154.2c0-0.1,0.1-0.2,0.2-0.2h0.4c0.1,0,0.2,0.1,0.2,0.2l0.2,0.5c0.2-0.2,0.6-0.7,1.3-0.7
		c0.6,0,1,0.2,0.9,0.5l-0.3,0.7c0,0.1-0.2,0.2-0.3,0.1s-0.2-0.1-0.4-0.1c-0.5,0-0.8,0.3-0.9,0.5v2.9c0,0.2-0.1,0.2-0.3,0.2h-0.8
		c-0.1,0-0.2-0.1-0.2-0.2L323.9,154.2L323.9,154.2z"/>
	<path class="st3" d="M327.6,152.4c0-0.4,0.3-0.8,0.8-0.8s0.8,0.4,0.8,0.8c0,0.4-0.4,0.8-0.8,0.8S327.6,152.9,327.6,152.4z
		 M327.8,154.2c0-0.1,0.1-0.2,0.2-0.2h0.8c0.1,0,0.2,0.1,0.2,0.2v4.2c0,0.1-0.1,0.2-0.2,0.2H328c-0.1,0-0.2-0.1-0.2-0.2V154.2z"/>
	<path class="st3" d="M332.4,153.9c1.2,0,2.1,0.9,2.1,2.2c0,0.1,0,0.2,0,0.3s-0.1,0.2-0.2,0.2h-3c0,0.6,0.5,1.1,1.2,1.1
		c0.5,0,0.8-0.2,1-0.3c0.1-0.1,0.2-0.1,0.3,0l0.4,0.5c0.1,0.1,0.1,0.2,0,0.3c-0.4,0.3-1,0.6-1.7,0.6c-1.4,0-2.4-1.1-2.4-2.4
		C330.1,155,331,153.9,332.4,153.9z M333.3,155.8c0-0.5-0.4-0.8-0.9-0.8c-0.6,0-0.9,0.3-1,0.8H333.3z"/>
	<path class="st3" d="M335.5,154.2c0-0.1,0.1-0.2,0.2-0.2h0.8c0.1,0,0.2,0.1,0.2,0.2v2.5c0,0.6,0.2,0.9,0.8,0.9
		c0.5,0,0.8-0.5,0.8-0.9v-2.5c0-0.2,0.1-0.2,0.3-0.2h0.8c0.1,0,0.2,0.1,0.2,0.2v4.2c0,0.1-0.1,0.2-0.2,0.2H339
		c-0.1,0-0.2-0.1-0.2-0.2l-0.1-0.4c-0.2,0.3-0.7,0.7-1.4,0.7c-1.4,0-1.8-0.9-1.8-2.1V154.2z"/>
	<path class="st3" d="M340.9,154.2c0-0.1,0.1-0.2,0.2-0.2h0.4c0.1,0,0.2,0.1,0.2,0.2l0.2,0.5c0.2-0.2,0.6-0.7,1.3-0.7
		c0.6,0,1,0.2,0.9,0.5l-0.3,0.7c0,0.1-0.2,0.2-0.3,0.1s-0.2-0.1-0.4-0.1c-0.5,0-0.8,0.3-0.9,0.5v2.9c0,0.2-0.1,0.2-0.3,0.2h-0.8
		c-0.1,0-0.2-0.1-0.2-0.2L340.9,154.2L340.9,154.2z"/>
	<path class="st3" d="M292.7,166.4c0-0.1,0.1-0.2,0.2-0.2h0.4c0.1,0,0.2,0.1,0.2,0.2l0.2,0.5c0.2-0.2,0.6-0.7,1.3-0.7
		c0.6,0,1,0.2,0.9,0.5l-0.3,0.7c0,0.1-0.2,0.2-0.3,0.1s-0.2-0.1-0.4-0.1c-0.5,0-0.8,0.3-0.9,0.5v2.9c0,0.2-0.1,0.2-0.3,0.2h-0.8
		c-0.1,0-0.2-0.1-0.2-0.2L292.7,166.4L292.7,166.4z"/>
	<path class="st3" d="M298.5,166c1.2,0,2.1,0.9,2.1,2.2c0,0.1,0,0.2,0,0.3s-0.1,0.2-0.2,0.2h-3c0,0.6,0.5,1.1,1.2,1.1
		c0.5,0,0.8-0.2,1-0.3c0.1-0.1,0.2-0.1,0.3,0l0.4,0.5c0.1,0.1,0.1,0.2,0,0.3c-0.4,0.3-1,0.6-1.7,0.6c-1.4,0-2.4-1.1-2.4-2.4
		C296.2,167.2,297.1,166,298.5,166z M299.4,167.9c0-0.5-0.4-0.8-0.9-0.8c-0.6,0-0.9,0.3-1,0.8H299.4z"/>
	<path class="st3" d="M301.5,170.5c-0.1,0-0.1-0.2-0.1-0.3l0.3-0.6c0.1-0.1,0.2-0.2,0.3-0.1c0.2,0.1,0.5,0.3,1,0.3
		c0.4,0,0.5-0.1,0.5-0.3s-0.3-0.4-0.9-0.6c-0.9-0.3-1.3-0.8-1.3-1.5s0.5-1.4,1.7-1.4c0.7,0,1.1,0.2,1.4,0.3c0.1,0.1,0.2,0.2,0.1,0.3
		l-0.3,0.5c-0.1,0.1-0.2,0.1-0.3,0.1c-0.2-0.1-0.5-0.2-0.9-0.2c-0.3,0-0.4,0.2-0.4,0.3c0,0.2,0.2,0.3,0.7,0.5
		c0.9,0.4,1.5,0.7,1.5,1.6c0,0.7-0.6,1.4-1.8,1.4C302.2,170.9,301.7,170.7,301.5,170.5z"/>
	<path class="st3" d="M308.2,170.9c-0.5,0-0.9-0.1-1.1-0.2v2.3c0,0.1-0.1,0.2-0.2,0.2H306c-0.1,0-0.2-0.1-0.2-0.2v-6.6
		c0-0.1,0.1-0.2,0.2-0.2h0.4c0.1,0,0.2,0.1,0.2,0.2l0.1,0.4c0,0,0.5-0.7,1.5-0.7c1.3,0,2.2,1,2.2,2.4
		C310.5,169.8,309.6,170.9,308.2,170.9z M307.1,169.5c0,0,0.4,0.3,1,0.3c0.8,0,1.2-0.6,1.2-1.3s-0.4-1.3-1.1-1.3
		c-0.6,0-0.9,0.4-1,0.6v1.7H307.1z"/>
	<path class="st3" d="M311.3,164.5c0-0.4,0.3-0.8,0.8-0.8s0.8,0.4,0.8,0.8c0,0.4-0.4,0.8-0.8,0.8C311.7,165.3,311.3,165,311.3,164.5
		z M311.5,166.4c0-0.1,0.1-0.2,0.2-0.2h0.8c0.1,0,0.2,0.1,0.2,0.2v4.2c0,0.1-0.1,0.2-0.2,0.2h-0.8c-0.1,0-0.2-0.1-0.2-0.2V166.4z"/>
	<path class="st3" d="M314.1,166.4c0-0.1,0.1-0.2,0.2-0.2h0.4c0.1,0,0.2,0.1,0.2,0.2l0.2,0.5c0.2-0.2,0.6-0.7,1.3-0.7
		c0.6,0,1,0.2,0.9,0.5l-0.3,0.7c0,0.1-0.2,0.2-0.3,0.1s-0.2-0.1-0.4-0.1c-0.5,0-0.8,0.3-0.9,0.5v2.9c0,0.2-0.1,0.2-0.3,0.2h-0.8
		c-0.1,0-0.2-0.1-0.2-0.2L314.1,166.4L314.1,166.4z"/>
	<path class="st3" d="M319.4,167.9c0.5,0,0.9,0.1,0.9,0.1c0-0.6-0.2-0.9-0.6-0.9s-1,0.1-1.3,0.2c-0.2,0.1-0.2-0.1-0.3-0.2l-0.1-0.5
		c0-0.2,0-0.3,0.2-0.3c0.1,0,0.8-0.2,1.6-0.2c1.5,0,1.8,0.8,1.8,2v2.5c0,0.1-0.1,0.2-0.2,0.2H321c-0.1,0-0.1,0-0.2-0.2l-0.1-0.3
		c-0.3,0.3-0.7,0.6-1.5,0.6c-0.9,0-1.6-0.6-1.6-1.6C317.6,168.5,318.3,167.9,319.4,167.9z M319.5,170c0.4,0,0.8-0.3,0.8-0.5v-0.7
		c0,0-0.3-0.1-0.7-0.1c-0.5,0-0.8,0.3-0.8,0.7C318.8,169.7,319,170,319.5,170z"/>
	<path class="st3" d="M322.8,166.4c0-0.1,0.1-0.2,0.2-0.2h0.4c0.1,0,0.2,0.1,0.2,0.1l0.2,0.4c0.2-0.2,0.6-0.7,1.5-0.7
		c1.5,0,1.9,1,1.9,2.1v2.4c0,0.1-0.1,0.2-0.2,0.2h-0.8c-0.1,0-0.2-0.1-0.2-0.2v-2.4c0-0.6-0.2-1-0.8-1c-0.6,0-0.9,0.4-1,0.7v2.7
		c0,0.2-0.1,0.2-0.3,0.2H323c-0.1,0-0.2-0.1-0.2-0.2V166.4z"/>
	<path class="st3" d="M328.6,167.3h-0.5c-0.1,0-0.2-0.1-0.2-0.2v-0.7c0-0.1,0.1-0.2,0.2-0.2h0.5v-1.3c0-0.1,0.1-0.2,0.2-0.2h0.8
		c0.1,0,0.2,0.1,0.2,0.2v1.3h1.1c0.1,0,0.2,0.1,0.2,0.2v0.7c0,0.1-0.1,0.2-0.2,0.2h-1.1v2.1c0,0.3,0.2,0.4,0.4,0.4
		c0.2,0,0.6-0.1,0.7-0.2c0.1-0.1,0.2,0,0.3,0.1l0.1,0.6c0,0.1,0,0.2-0.1,0.3c-0.2,0.1-0.8,0.3-1.3,0.3c-1,0-1.3-0.7-1.3-1.5
		L328.6,167.3L328.6,167.3z"/>
</g>
<g>
	<rect x="278" y="198.1" class="st5" width="78" height="26"/>
	<path class="st3" d="M284.7,199.8c0-0.1,0.1-0.2,0.2-0.2h0.9c0.1,0,0.2,0.1,0.2,0.2v6.7c0,0.1-0.1,0.2-0.2,0.2h-0.9
		c-0.1,0-0.2-0.1-0.2-0.2V199.8z"/>
	<path class="st3" d="M287.4,202.3c0-0.1,0.1-0.2,0.2-0.2h0.4c0.1,0,0.2,0.1,0.2,0.1l0.2,0.4c0.2-0.2,0.6-0.7,1.5-0.7
		c1.5,0,1.9,1,1.9,2.1v2.4c0,0.1-0.1,0.2-0.2,0.2h-0.8c-0.1,0-0.2-0.1-0.2-0.2V204c0-0.6-0.2-1-0.8-1c-0.6,0-0.9,0.4-1,0.7v2.7
		c0,0.2-0.1,0.2-0.3,0.2h-0.7c-0.1,0-0.2-0.1-0.2-0.2v-4.1H287.4z"/>
	<path class="st3" d="M295,201.9c0.5,0,0.9,0.1,1.1,0.2v-2.3c0-0.1,0.1-0.2,0.2-0.2h0.8c0.1,0,0.2,0.1,0.2,0.2v6.6
		c0,0.1-0.1,0.2-0.2,0.2h-0.4c-0.1,0-0.2-0.1-0.2-0.2l-0.1-0.4c0,0-0.5,0.7-1.5,0.7c-1.3,0-2.2-1-2.2-2.4
		C292.7,203,293.6,201.9,295,201.9z M296.2,203.4c0,0-0.4-0.3-1-0.3c-0.8,0-1.2,0.6-1.2,1.3s0.4,1.3,1.1,1.3c0.6,0,0.9-0.4,1-0.6
		v-1.7H296.2z"/>
	<path class="st3" d="M298.5,200.4c0-0.4,0.3-0.8,0.8-0.8s0.8,0.4,0.8,0.8c0,0.4-0.4,0.8-0.8,0.8S298.5,200.9,298.5,200.4z
		 M298.7,202.3c0-0.1,0.1-0.2,0.2-0.2h0.8c0.1,0,0.2,0.1,0.2,0.2v4.2c0,0.1-0.1,0.2-0.2,0.2h-0.8c-0.1,0-0.2-0.1-0.2-0.2V202.3z"/>
	<path class="st3" d="M303.5,201.9c0.7,0,1.3,0.3,1.7,0.8c0.1,0.1,0,0.2-0.1,0.3l-0.4,0.5c-0.1,0.1-0.2,0.1-0.3,0
		c-0.2-0.2-0.5-0.4-0.9-0.4c-0.7,0-1.2,0.6-1.2,1.3s0.5,1.3,1.2,1.3c0.5,0,0.8-0.3,1-0.5c0.1-0.1,0.2-0.1,0.3,0l0.5,0.4
		c0.1,0.1,0.2,0.2,0.1,0.3c-0.4,0.6-1,1-1.8,1c-1.4,0-2.5-1-2.5-2.4C301,203,302.1,201.9,303.5,201.9z"/>
	<path class="st3" d="M307.7,203.8c0.5,0,0.9,0.1,0.9,0.1c0-0.6-0.2-0.9-0.6-0.9s-1,0.1-1.3,0.2c-0.2,0.1-0.2-0.1-0.3-0.2l-0.1-0.5
		c0-0.2,0-0.3,0.2-0.3c0.1,0,0.8-0.2,1.6-0.2c1.5,0,1.8,0.8,1.8,2v2.5c0,0.1-0.1,0.2-0.2,0.2h-0.3c-0.1,0-0.1,0-0.2-0.2l-0.1-0.3
		c-0.3,0.3-0.7,0.6-1.5,0.6c-0.9,0-1.6-0.6-1.6-1.6C305.9,204.4,306.6,203.8,307.7,203.8z M307.8,205.9c0.4,0,0.8-0.3,0.8-0.5v-0.7
		c0,0-0.3-0.1-0.7-0.1c-0.5,0-0.8,0.3-0.8,0.7C307.1,205.6,307.3,205.9,307.8,205.9z"/>
	<path class="st3" d="M311.4,203.2h-0.5c-0.1,0-0.2-0.1-0.2-0.2v-0.7c0-0.1,0.1-0.2,0.2-0.2h0.5v-1.3c0-0.1,0.1-0.2,0.2-0.2h0.8
		c0.1,0,0.2,0.1,0.2,0.2v1.3h1.1c0.1,0,0.2,0.1,0.2,0.2v0.7c0,0.1-0.1,0.2-0.2,0.2h-1.1v2.1c0,0.3,0.2,0.4,0.4,0.4
		c0.2,0,0.6-0.1,0.7-0.2c0.1-0.1,0.2,0,0.3,0.1l0.1,0.6c0,0.1,0,0.2-0.1,0.3c-0.2,0.1-0.8,0.3-1.3,0.3c-1,0-1.3-0.7-1.3-1.5
		L311.4,203.2L311.4,203.2z"/>
	<path class="st3" d="M317.1,201.9c1.2,0,2.1,0.9,2.1,2.2c0,0.1,0,0.2,0,0.3s-0.1,0.2-0.2,0.2h-3c0,0.6,0.5,1.1,1.2,1.1
		c0.5,0,0.8-0.2,1-0.3c0.1-0.1,0.2-0.1,0.3,0l0.4,0.5c0.1,0.1,0.1,0.2,0,0.3c-0.4,0.3-1,0.6-1.7,0.6c-1.4,0-2.4-1.1-2.4-2.4
		C314.7,203.1,315.7,201.9,317.1,201.9z M318,203.8c0-0.5-0.4-0.8-0.9-0.8c-0.6,0-0.9,0.3-1,0.8H318z"/>
	<path class="st3" d="M320.1,202.3c0-0.1,0.1-0.2,0.2-0.2h0.8c0.1,0,0.2,0.1,0.2,0.2v2.5c0,0.6,0.2,0.9,0.8,0.9
		c0.5,0,0.8-0.5,0.8-0.9v-2.5c0-0.2,0.1-0.2,0.3-0.2h0.8c0.1,0,0.2,0.1,0.2,0.2v4.2c0,0.1-0.1,0.2-0.2,0.2h-0.4
		c-0.1,0-0.2-0.1-0.2-0.2l-0.1-0.4c-0.2,0.3-0.7,0.7-1.4,0.7c-1.4,0-1.8-0.9-1.8-2.1L320.1,202.3L320.1,202.3z"/>
	<path class="st3" d="M325.6,202.3c0-0.1,0.1-0.2,0.2-0.2h0.4c0.1,0,0.2,0.1,0.2,0.2l0.2,0.5c0.2-0.2,0.6-0.7,1.3-0.7
		c0.6,0,1,0.2,0.9,0.5l-0.3,0.7c0,0.1-0.2,0.2-0.3,0.1s-0.2-0.1-0.4-0.1c-0.5,0-0.8,0.3-0.9,0.5v2.9c0,0.2-0.1,0.2-0.3,0.2h-0.8
		c-0.1,0-0.2-0.1-0.2-0.2L325.6,202.3L325.6,202.3z"/>
	<path class="st3" d="M286.5,214.1c0.5,0,0.9,0.1,1.1,0.2V212c0-0.1,0.1-0.2,0.2-0.2h0.8c0.1,0,0.2,0.1,0.2,0.2v6.6
		c0,0.1-0.1,0.2-0.2,0.2h-0.4c-0.1,0-0.2-0.1-0.2-0.2l-0.1-0.4c0,0-0.5,0.7-1.5,0.7c-1.3,0-2.2-1-2.2-2.4
		C284.2,215.1,285.1,214.1,286.5,214.1z M287.6,215.5c0,0-0.4-0.3-1-0.3c-0.8,0-1.2,0.6-1.2,1.3s0.4,1.3,1.1,1.3
		c0.6,0,0.9-0.4,1-0.6v-1.7H287.6z"/>
	<path class="st3" d="M290.6,211.7c0.5,0,0.9,0.4,0.9,1.2c0,0.9-0.4,1.5-0.7,2c-0.1,0.1-0.1,0.1-0.2,0l-0.3-0.2
		c-0.1-0.1-0.1-0.2,0-0.2c0.3-0.4,0.5-0.8,0.5-1.2c0-0.1,0-0.1,0-0.2c-0.1,0.1-0.2,0.1-0.3,0.1c-0.4,0-0.6-0.3-0.6-0.7
		C289.9,212,290.2,211.7,290.6,211.7z"/>
	<path class="st3" d="M292.6,212c0-0.1,0.1-0.2,0.2-0.2h0.8c0.1,0,0.2,0.1,0.2,0.2v2.5c0.2-0.2,0.6-0.4,1.2-0.4c1.5,0,1.9,1,1.9,2.2
		v2.3c0,0.1-0.1,0.2-0.2,0.2h-0.8c-0.1,0-0.2-0.1-0.2-0.2v-2.4c0-0.6-0.3-1-0.8-1s-0.8,0.3-1,0.8v2.6c0,0.1-0.1,0.2-0.2,0.2h-0.8
		c-0.1,0-0.2-0.1-0.2-0.2V212H292.6z"/>
	<path class="st3" d="M298.1,214.4c0-0.1,0.1-0.2,0.2-0.2h0.8c0.1,0,0.2,0.1,0.2,0.2v2.5c0,0.6,0.2,0.9,0.8,0.9
		c0.5,0,0.8-0.5,0.8-0.9v-2.5c0-0.2,0.1-0.2,0.3-0.2h0.8c0.1,0,0.2,0.1,0.2,0.2v4.2c0,0.1-0.1,0.2-0.2,0.2h-0.4
		c-0.1,0-0.2-0.1-0.2-0.2l-0.1-0.4c-0.2,0.3-0.7,0.7-1.4,0.7c-1.4,0-1.8-0.9-1.8-2.1L298.1,214.4L298.1,214.4z"/>
	<path class="st3" d="M303.5,214.4c0-0.1,0.1-0.2,0.2-0.2h0.4c0.1,0,0.2,0.1,0.2,0.1l0.2,0.4c0.2-0.2,0.6-0.7,1.4-0.7
		c0.7,0,1,0.2,1.4,0.7c0.2-0.2,0.7-0.7,1.5-0.7c1.5,0,1.8,0.9,1.8,2.2v2.4c0,0.1-0.1,0.2-0.2,0.2h-0.8c-0.1,0-0.2-0.1-0.2-0.2v-2.4
		c0-0.6-0.2-1-0.8-1c-0.7,0-0.9,0.5-0.9,0.5s0,0.2,0,0.4v2.5c0,0.1-0.1,0.2-0.2,0.2h-0.8c-0.1,0-0.2-0.1-0.2-0.2v-2.4
		c0-0.6-0.2-1-0.8-1c-0.6,0-0.8,0.4-0.9,0.7v2.7c0,0.1-0.1,0.2-0.2,0.2h-0.8c-0.1,0-0.2-0.1-0.2-0.2v-4.2H303.5z"/>
	<path class="st3" d="M311.7,212.6c0-0.4,0.3-0.8,0.8-0.8s0.8,0.4,0.8,0.8c0,0.4-0.4,0.8-0.8,0.8C312.1,213.4,311.7,213,311.7,212.6
		z M311.9,214.4c0-0.1,0.1-0.2,0.2-0.2h0.8c0.1,0,0.2,0.1,0.2,0.2v4.2c0,0.1-0.1,0.2-0.2,0.2h-0.8c-0.1,0-0.2-0.1-0.2-0.2V214.4z"/>
	<path class="st3" d="M316.5,214.1c0.5,0,0.9,0.1,1.1,0.2V212c0-0.1,0.1-0.2,0.2-0.2h0.8c0.1,0,0.2,0.1,0.2,0.2v6.6
		c0,0.1-0.1,0.2-0.2,0.2h-0.4c-0.1,0-0.2-0.1-0.2-0.2l-0.1-0.4c0,0-0.5,0.7-1.5,0.7c-1.3,0-2.2-1-2.2-2.4
		C314.2,215.1,315.1,214.1,316.5,214.1z M317.6,215.5c0,0-0.4-0.3-1-0.3c-0.8,0-1.2,0.6-1.2,1.3s0.4,1.3,1.1,1.3
		c0.6,0,0.9-0.4,1-0.6v-1.7H317.6z"/>
	<path class="st3" d="M320,212.6c0-0.4,0.3-0.8,0.8-0.8s0.8,0.4,0.8,0.8c0,0.4-0.4,0.8-0.8,0.8C320.3,213.4,320,213,320,212.6z
		 M320.2,214.4c0-0.1,0.1-0.2,0.2-0.2h0.8c0.1,0,0.2,0.1,0.2,0.2v4.2c0,0.1-0.1,0.2-0.2,0.2h-0.8c-0.1,0-0.2-0.1-0.2-0.2V214.4z"/>
	<path class="st3" d="M323,215.3h-0.5c-0.1,0-0.2-0.1-0.2-0.2v-0.7c0-0.1,0.1-0.2,0.2-0.2h0.5v-1.3c0-0.1,0.1-0.2,0.2-0.2h0.8
		c0.1,0,0.2,0.1,0.2,0.2v1.3h1.1c0.1,0,0.2,0.1,0.2,0.2v0.7c0,0.1-0.1,0.2-0.2,0.2h-1.1v2.1c0,0.3,0.2,0.4,0.4,0.4
		c0.2,0,0.6-0.1,0.7-0.2c0.1-0.1,0.2,0,0.3,0.1l0.1,0.6c0,0.1,0,0.2-0.1,0.3c-0.2,0.1-0.8,0.3-1.3,0.3c-1,0-1.3-0.7-1.3-1.5
		L323,215.3L323,215.3z"/>
	<path class="st3" d="M328.7,214.1c1.2,0,2.1,0.9,2.1,2.2c0,0.1,0,0.2,0,0.3s-0.1,0.2-0.2,0.2h-3c0,0.6,0.5,1.1,1.2,1.1
		c0.5,0,0.8-0.2,1-0.3c0.1-0.1,0.2-0.1,0.3,0l0.4,0.5c0.1,0.1,0.1,0.2,0,0.3c-0.4,0.3-1,0.6-1.7,0.6c-1.4,0-2.4-1.1-2.4-2.4
		C326.4,215.2,327.4,214.1,328.7,214.1z M327.9,213.4l-0.2-0.4c0-0.1,0-0.2,0.1-0.2l1.6-1c0.1-0.1,0.2-0.1,0.3,0l0.3,0.5
		c0.1,0.1,0,0.2-0.1,0.3l-1.8,0.8C328,213.6,327.9,213.5,327.9,213.4z M329.6,215.9c0-0.5-0.4-0.8-0.9-0.8c-0.6,0-0.9,0.3-1,0.8
		H329.6z"/>
</g>
<g>
	<rect x="147.8" y="249.4" class="st5" width="194.7" height="13.1"/>
	<path class="st3" d="M157.7,250.8c1,0,1.8,0.3,2.4,0.9c0.1,0.1,0.1,0.2,0,0.3l-0.6,0.6c-0.1,0.1-0.2,0.1-0.3,0
		c-0.4-0.4-1-0.6-1.6-0.6c-1.3,0-2.3,1.1-2.3,2.4c0,1.3,1,2.3,2.3,2.3c0.6,0,1.1-0.2,1.5-0.6c0.1-0.1,0.2-0.1,0.3,0l0.6,0.6
		c0.1,0.1,0.1,0.2,0,0.3c-0.7,0.7-1.6,1-2.5,1c-2,0-3.6-1.6-3.6-3.6C154.1,252.5,155.7,250.8,157.7,250.8z"/>
	<path class="st3" d="M162.8,255.1c0.5,0,0.9,0.1,0.9,0.1c0-0.6-0.2-0.9-0.6-0.9c-0.4,0-1,0.1-1.3,0.2c-0.2,0.1-0.2-0.1-0.3-0.2
		l-0.1-0.5c0-0.2,0-0.3,0.2-0.3c0.1,0,0.8-0.2,1.6-0.2c1.5,0,1.8,0.8,1.8,2v2.5c0,0.1-0.1,0.2-0.2,0.2h-0.3c-0.1,0-0.1,0-0.2-0.2
		l-0.1-0.3c-0.3,0.3-0.7,0.6-1.5,0.6c-0.9,0-1.6-0.6-1.6-1.6C160.9,255.7,161.6,255.1,162.8,255.1z M162.8,257.2
		c0.4,0,0.8-0.3,0.8-0.5V256c0,0-0.3-0.1-0.7-0.1c-0.5,0-0.8,0.3-0.8,0.7C162.1,256.9,162.4,257.2,162.8,257.2z"/>
	<path class="st3" d="M166.1,253.6c0-0.1,0.1-0.2,0.2-0.2h0.4c0.1,0,0.2,0.1,0.2,0.1l0.2,0.4c0.2-0.2,0.6-0.7,1.5-0.7
		c1.5,0,1.9,1,1.9,2.1v2.4c0,0.1-0.1,0.2-0.2,0.2h-0.8c-0.1,0-0.2-0.1-0.2-0.2v-2.4c0-0.6-0.2-1-0.8-1s-0.9,0.4-1,0.7v2.7
		c0,0.2-0.1,0.2-0.3,0.2h-0.7c-0.1,0-0.2-0.1-0.2-0.2v-4.1H166.1z"/>
	<path class="st3" d="M173.2,255.1c0.5,0,0.9,0.1,0.9,0.1c0-0.6-0.2-0.9-0.6-0.9c-0.4,0-1,0.1-1.3,0.2c-0.2,0.1-0.2-0.1-0.3-0.2
		l-0.1-0.5c0-0.2,0.1-0.3,0.2-0.3c0.1,0,0.8-0.2,1.6-0.2c1.5,0,1.8,0.8,1.8,2v2.5c0,0.1-0.1,0.2-0.2,0.2h-0.3c-0.1,0-0.1,0-0.2-0.2
		l-0.1-0.3c-0.3,0.3-0.7,0.6-1.5,0.6c-0.9,0-1.6-0.6-1.6-1.6C171.4,255.7,172,255.1,173.2,255.1z M173.3,257.2
		c0.4,0,0.8-0.3,0.8-0.5V256c0,0-0.3-0.1-0.7-0.1c-0.5,0-0.8,0.3-0.8,0.7C172.6,256.9,172.8,257.2,173.3,257.2z"/>
	<path class="st3" d="M176.5,253.6c0-0.1,0.1-0.2,0.2-0.2h0.8c0.1,0,0.2,0.1,0.2,0.2v2.5c0,0.6,0.2,0.9,0.8,0.9
		c0.5,0,0.8-0.5,0.8-0.9v-2.5c0-0.2,0.1-0.2,0.3-0.2h0.8c0.1,0,0.2,0.1,0.2,0.2v4.2c0,0.1-0.1,0.2-0.2,0.2H180
		c-0.1,0-0.2-0.1-0.2-0.2l-0.1-0.4c-0.2,0.3-0.7,0.7-1.4,0.7c-1.4,0-1.8-0.9-1.8-2.1L176.5,253.6L176.5,253.6z"/>
	<path class="st3" d="M181.6,257.7l1.5-2l-1.4-1.9c-0.1-0.2,0-0.3,0.2-0.3h0.9c0.2,0,0.3,0,0.4,0.2l0.8,1.2l0,0l0.8-1.2
		c0.1-0.1,0.2-0.2,0.4-0.2h1c0.2,0,0.3,0.2,0.1,0.3l-1.4,1.9l1.4,2c0.1,0.2,0.1,0.3-0.1,0.3h-1c-0.2,0-0.2-0.1-0.3-0.2l-0.9-1.3l0,0
		l-0.9,1.4c0,0.1-0.1,0.1-0.2,0.1h-1.1C181.5,258,181.5,257.8,181.6,257.7z"/>
	<path class="st3" d="M189.5,253.6c0-0.1,0.1-0.2,0.2-0.2h0.8c0.1,0,0.2,0.1,0.2,0.2v2.5c0,0.6,0.2,0.9,0.8,0.9
		c0.5,0,0.8-0.5,0.8-0.9v-2.5c0-0.2,0.1-0.2,0.3-0.2h0.8c0.1,0,0.2,0.1,0.2,0.2v4.2c0,0.1-0.1,0.2-0.2,0.2H193
		c-0.1,0-0.2-0.1-0.2-0.2l-0.1-0.4c-0.2,0.3-0.7,0.7-1.4,0.7c-1.4,0-1.8-0.9-1.8-2.1L189.5,253.6L189.5,253.6z"/>
	<path class="st3" d="M195,251.2c0-0.1,0.1-0.2,0.2-0.2h0.8c0.1,0,0.2,0.1,0.2,0.2v6.6c0,0.1-0.1,0.2-0.2,0.2h-0.8
		c-0.1,0-0.2-0.1-0.2-0.2V251.2z"/>
	<path class="st3" d="M197.8,254.5h-0.5c-0.1,0-0.2-0.1-0.2-0.2v-0.7c0-0.1,0.1-0.2,0.2-0.2h0.5v-1.3c0-0.1,0.1-0.2,0.2-0.2h0.8
		c0.1,0,0.2,0.1,0.2,0.2v1.3h1.1c0.1,0,0.2,0.1,0.2,0.2v0.7c0,0.1-0.1,0.2-0.2,0.2H199v2.1c0,0.3,0.2,0.4,0.4,0.4s0.6-0.1,0.7-0.2
		c0.1-0.1,0.2,0,0.3,0.1l0.1,0.6c0,0.1,0,0.2-0.1,0.3c-0.2,0.1-0.8,0.3-1.3,0.3c-1,0-1.3-0.7-1.3-1.5L197.8,254.5L197.8,254.5z"/>
	<path class="st3" d="M201.5,253.6c0-0.1,0.1-0.2,0.2-0.2h0.4c0.1,0,0.2,0.1,0.2,0.2l0.2,0.5c0.2-0.2,0.6-0.7,1.3-0.7
		c0.6,0,1,0.2,0.9,0.5l-0.3,0.7c0,0.1-0.2,0.2-0.3,0.1s-0.2-0.1-0.4-0.1c-0.5,0-0.8,0.3-0.9,0.5v2.9c0,0.2-0.1,0.2-0.3,0.2h-0.8
		c-0.1,0-0.2-0.1-0.2-0.2L201.5,253.6L201.5,253.6z"/>
	<path class="st3" d="M206.8,255.1c0.5,0,0.9,0.1,0.9,0.1c0-0.6-0.2-0.9-0.6-0.9c-0.4,0-1,0.1-1.3,0.2c-0.2,0.1-0.2-0.1-0.3-0.2
		l-0.1-0.5c0-0.2,0-0.3,0.2-0.3c0.1,0,0.8-0.2,1.6-0.2c1.5,0,1.8,0.8,1.8,2v2.5c0,0.1-0.1,0.2-0.2,0.2h-0.3c-0.1,0-0.1,0-0.2-0.2
		l-0.1-0.3c-0.3,0.3-0.7,0.6-1.5,0.6c-0.9,0-1.6-0.6-1.6-1.6C205,255.7,205.7,255.1,206.8,255.1z M206.9,257.2
		c0.4,0,0.8-0.3,0.8-0.5V256c0,0-0.3-0.1-0.7-0.1c-0.5,0-0.8,0.3-0.8,0.7C206.2,256.9,206.4,257.2,206.9,257.2z"/>
	<path class="st3" d="M210.1,255.9v-0.7c0-0.1,0.1-0.2,0.2-0.2h2.3c0.1,0,0.2,0.1,0.2,0.2v0.7c0,0.1-0.1,0.2-0.2,0.2h-2.3
		C210.2,256.1,210.1,256,210.1,255.9z"/>
	<path class="st3" d="M215.5,255.1c0.5,0,0.9,0.1,0.9,0.1c0-0.6-0.2-0.9-0.6-0.9c-0.4,0-1,0.1-1.3,0.2c-0.2,0.1-0.2-0.1-0.3-0.2
		l-0.1-0.5c0-0.2,0.1-0.3,0.2-0.3c0.1,0,0.8-0.2,1.6-0.2c1.5,0,1.8,0.8,1.8,2v2.5c0,0.1-0.1,0.2-0.2,0.2H217c-0.1,0-0.1,0-0.2-0.2
		l-0.1-0.3c-0.3,0.3-0.7,0.6-1.5,0.6c-0.9,0-1.6-0.6-1.6-1.6C213.6,255.7,214.3,255.1,215.5,255.1z M215.5,257.2
		c0.4,0,0.8-0.3,0.8-0.5V256c0,0-0.3-0.1-0.7-0.1c-0.5,0-0.8,0.3-0.8,0.7C214.8,256.9,215,257.2,215.5,257.2z"/>
	<path class="st3" d="M218.8,251.2c0-0.1,0.1-0.2,0.2-0.2h0.8c0.1,0,0.2,0.1,0.2,0.2v2.3c0.2-0.1,0.7-0.2,1.1-0.2
		c1.4,0,2.3,1.1,2.3,2.4c0,1.3-0.9,2.4-2.2,2.4c-1,0-1.6-0.7-1.6-0.7l-0.1,0.4c0,0.1-0.1,0.2-0.2,0.2H219c-0.1,0-0.2-0.1-0.2-0.2
		V251.2z M221.1,257c0.7,0,1.1-0.6,1.1-1.3s-0.4-1.3-1.2-1.3c-0.6,0-1,0.3-1,0.3v1.7C220.1,256.6,220.5,257,221.1,257z"/>
	<path class="st3" d="M224.3,257.7c-0.1,0-0.1-0.2-0.1-0.3l0.3-0.6c0.1-0.1,0.2-0.2,0.3-0.1c0.2,0.1,0.5,0.3,1,0.3
		c0.4,0,0.5-0.1,0.5-0.3c0-0.2-0.3-0.4-0.9-0.6c-0.9-0.3-1.3-0.8-1.3-1.5s0.5-1.4,1.7-1.4c0.7,0,1.1,0.2,1.4,0.3
		c0.1,0.1,0.2,0.2,0.1,0.3l-0.3,0.5c-0.1,0.1-0.2,0.1-0.3,0.1c-0.2-0.1-0.5-0.2-0.9-0.2c-0.3,0-0.4,0.2-0.4,0.3
		c0,0.2,0.2,0.3,0.7,0.5c0.9,0.4,1.5,0.7,1.5,1.6c0,0.7-0.6,1.4-1.8,1.4C225.1,258.1,224.6,257.9,224.3,257.7z"/>
	<path class="st3" d="M230.7,253.2c1.3,0,2.4,1.1,2.4,2.4c0,1.3-1.1,2.5-2.4,2.5c-1.3,0-2.4-1.1-2.4-2.5
		C228.4,254.4,229.4,253.2,230.7,253.2z M230.7,257c0.7,0,1.2-0.6,1.2-1.3s-0.5-1.3-1.2-1.3s-1.2,0.6-1.2,1.3S230.1,257,230.7,257z"
		/>
	<path class="st3" d="M234.1,253.6c0-0.1,0.1-0.2,0.2-0.2h0.4c0.1,0,0.2,0.1,0.2,0.2l0.2,0.5c0.2-0.2,0.6-0.7,1.3-0.7
		c0.6,0,1,0.2,0.9,0.5l-0.3,0.7c0,0.1-0.2,0.2-0.3,0.1s-0.2-0.1-0.4-0.1c-0.5,0-0.8,0.3-0.9,0.5v2.9c0,0.2-0.1,0.2-0.3,0.2h-0.8
		c-0.1,0-0.2-0.1-0.2-0.2L234.1,253.6L234.1,253.6z"/>
	<path class="st3" d="M238.1,251.2c0-0.1,0.1-0.2,0.2-0.2h0.8c0.1,0,0.2,0.1,0.2,0.2v2.3c0.2-0.1,0.7-0.2,1.1-0.2
		c1.4,0,2.3,1.1,2.3,2.4c0,1.3-0.9,2.4-2.2,2.4c-1,0-1.6-0.7-1.6-0.7l-0.1,0.4c-0.1,0.1-0.1,0.2-0.2,0.2h-0.4
		c-0.1,0-0.2-0.1-0.2-0.2L238.1,251.2L238.1,251.2z M240.3,257c0.7,0,1.1-0.6,1.1-1.3s-0.4-1.3-1.2-1.3c-0.6,0-1,0.3-1,0.3v1.7
		C239.4,256.6,239.7,257,240.3,257z"/>
	<path class="st3" d="M245.3,255.1c0.5,0,0.9,0.1,0.9,0.1c0-0.6-0.2-0.9-0.6-0.9c-0.4,0-1,0.1-1.3,0.2c-0.2,0.1-0.2-0.1-0.3-0.2
		l-0.1-0.5c0-0.2,0-0.3,0.2-0.3c0.1,0,0.8-0.2,1.6-0.2c1.5,0,1.8,0.8,1.8,2v2.5c0,0.1-0.1,0.2-0.2,0.2H247c-0.1,0-0.1,0-0.2-0.2
		l-0.1-0.3c-0.3,0.3-0.7,0.6-1.5,0.6c-0.9,0-1.6-0.6-1.6-1.6C243.4,255.7,244.1,255.1,245.3,255.1z M245.3,257.2
		c0.4,0,0.8-0.3,0.8-0.5V256c0,0-0.3-0.1-0.7-0.1c-0.5,0-0.8,0.3-0.8,0.7C244.6,256.9,244.9,257.2,245.3,257.2z"/>
	<path class="st3" d="M248.6,253.6c0-0.1,0.1-0.2,0.2-0.2h0.4c0.1,0,0.2,0.1,0.2,0.1l0.2,0.4c0.2-0.2,0.6-0.7,1.5-0.7
		c1.5,0,1.9,1,1.9,2.1v2.4c0,0.1-0.1,0.2-0.2,0.2H252c-0.1,0-0.2-0.1-0.2-0.2v-2.4c0-0.6-0.2-1-0.8-1s-0.9,0.4-1,0.7v2.7
		c0,0.2-0.1,0.2-0.3,0.2H249c-0.1,0-0.2-0.1-0.2-0.2v-4.1H248.6z"/>
	<path class="st3" d="M254.5,254.5H254c-0.1,0-0.2-0.1-0.2-0.2v-0.7c0-0.1,0.1-0.2,0.2-0.2h0.5v-1.3c0-0.1,0.1-0.2,0.2-0.2h0.8
		c0.1,0,0.2,0.1,0.2,0.2v1.3h1.1c0.1,0,0.2,0.1,0.2,0.2v0.7c0,0.1-0.1,0.2-0.2,0.2h-1.1v2.1c0,0.3,0.2,0.4,0.4,0.4
		c0.2,0,0.6-0.1,0.7-0.2s0.2,0,0.3,0.1l0.1,0.6c0,0.1,0,0.2-0.1,0.3c-0.2,0.1-0.8,0.3-1.3,0.3c-1,0-1.3-0.7-1.3-1.5L254.5,254.5
		L254.5,254.5z"/>
	<path class="st3" d="M258,257.7c-0.1,0-0.1-0.2-0.1-0.3l0.3-0.6c0.1-0.1,0.2-0.2,0.3-0.1c0.2,0.1,0.5,0.3,1,0.3
		c0.4,0,0.5-0.1,0.5-0.3c0-0.2-0.3-0.4-0.9-0.6c-0.9-0.3-1.3-0.8-1.3-1.5s0.5-1.4,1.7-1.4c0.7,0,1.1,0.2,1.4,0.3
		c0.1,0.1,0.2,0.2,0.1,0.3l-0.3,0.5c-0.1,0.1-0.2,0.1-0.3,0.1c-0.2-0.1-0.5-0.2-0.9-0.2c-0.3,0-0.4,0.2-0.4,0.3
		c0,0.2,0.2,0.3,0.7,0.5c0.9,0.4,1.5,0.7,1.5,1.6c0,0.7-0.6,1.4-1.8,1.4C258.7,258.1,258.2,257.9,258,257.7z"/>
	<path class="st3" d="M265.7,251c0-0.1,0.1-0.2,0.2-0.2h0.2c0.1,0,0.1,0,0.2,0.1l2.2,4.8l0,0l2.2-4.8c0-0.1,0.1-0.1,0.2-0.1h0.2
		c0.1,0,0.2,0.1,0.2,0.2l1.2,6.8c0,0.1-0.1,0.2-0.2,0.2h-0.9c-0.1,0-0.2-0.1-0.2-0.2l-0.6-3.8l0,0l-1.8,4c0,0.1-0.1,0.1-0.2,0.1
		h-0.2c-0.1,0-0.1,0-0.2-0.1l-1.8-4l0,0l-0.6,3.8c0,0.1-0.1,0.2-0.2,0.2h-0.9c-0.1,0-0.2-0.1-0.2-0.2L265.7,251z"/>
	<path class="st3" d="M275,255.1c0.5,0,0.9,0.1,0.9,0.1c0-0.6-0.2-0.9-0.6-0.9s-1,0.1-1.3,0.2c-0.2,0.1-0.2-0.1-0.3-0.2l-0.1-0.5
		c0-0.2,0-0.3,0.2-0.3c0.1,0,0.8-0.2,1.6-0.2c1.5,0,1.8,0.8,1.8,2v2.5c0,0.1-0.1,0.2-0.2,0.2h-0.3c-0.1,0-0.1,0-0.2-0.2l-0.1-0.3
		c-0.3,0.3-0.7,0.6-1.5,0.6c-0.9,0-1.6-0.6-1.6-1.6C273.1,255.7,273.8,255.1,275,255.1z M275,257.2c0.4,0,0.8-0.3,0.8-0.5V256
		c0,0-0.3-0.1-0.7-0.1c-0.5,0-0.8,0.3-0.8,0.7C274.4,256.9,274.6,257.2,275,257.2z"/>
	<path class="st3" d="M282.8,258.1c0,1.5-1.1,2.3-2.3,2.3c-0.8,0-1.5-0.4-1.7-0.5c-0.1-0.1-0.1-0.2-0.1-0.3l0.3-0.7
		c0-0.1,0.2-0.1,0.3-0.1c0.2,0.1,0.6,0.4,1.1,0.4c0.7,0,1.1-0.2,1.1-1.1V258c-0.2,0.1-0.7,0.2-1.1,0.2c-1.4,0-2.3-1.1-2.3-2.4
		c0-1.4,1-2.4,2.2-2.4c1,0,1.5,0.7,1.5,0.7l0.1-0.4c0-0.1,0.1-0.2,0.2-0.2h0.4c0.1,0,0.2,0.1,0.2,0.2L282.8,258.1L282.8,258.1z
		 M281.5,255c-0.1-0.3-0.4-0.6-1-0.6c-0.7,0-1.1,0.6-1.1,1.3s0.4,1.3,1.2,1.3c0.6,0,1-0.3,1-0.3V255H281.5z"/>
	<path class="st3" d="M283.9,251.7c0-0.4,0.3-0.8,0.8-0.8s0.8,0.4,0.8,0.8c0,0.4-0.4,0.8-0.8,0.8S283.9,252.2,283.9,251.7z
		 M284,253.6c0-0.1,0.1-0.2,0.2-0.2h0.8c0.1,0,0.2,0.1,0.2,0.2v4.2c0,0.1-0.1,0.2-0.2,0.2h-0.8c-0.1,0-0.2-0.1-0.2-0.2V253.6z"/>
	<path class="st3" d="M288.8,253.2c0.7,0,1.3,0.3,1.7,0.8c0.1,0.1,0,0.2-0.1,0.3l-0.4,0.5c-0.1,0.1-0.2,0.1-0.3,0
		c-0.2-0.2-0.5-0.4-0.9-0.4c-0.7,0-1.2,0.6-1.2,1.3c0,0.7,0.5,1.3,1.2,1.3c0.5,0,0.8-0.3,1-0.5c0.1-0.1,0.2-0.1,0.3,0l0.5,0.4
		c0.1,0.1,0.2,0.2,0.1,0.3c-0.4,0.6-1,1-1.8,1c-1.4,0-2.5-1-2.5-2.4C286.3,254.3,287.4,253.2,288.8,253.2z"/>
	<path class="st3" d="M293.1,255.1c0.5,0,0.9,0.1,0.9,0.1c0-0.6-0.2-0.9-0.6-0.9s-1,0.1-1.3,0.2c-0.2,0.1-0.2-0.1-0.3-0.2l-0.1-0.5
		c0-0.2,0.1-0.3,0.2-0.3s0.8-0.2,1.6-0.2c1.5,0,1.8,0.8,1.8,2v2.5c0,0.1-0.1,0.2-0.2,0.2h-0.3c-0.1,0-0.1,0-0.2-0.2l-0.1-0.3
		c-0.3,0.3-0.7,0.6-1.5,0.6c-0.9,0-1.6-0.6-1.6-1.6C291.2,255.7,291.9,255.1,293.1,255.1z M293.1,257.2c0.4,0,0.8-0.3,0.8-0.5V256
		c0,0-0.3-0.1-0.7-0.1c-0.5,0-0.8,0.3-0.8,0.7C292.4,256.9,292.7,257.2,293.1,257.2z"/>
	<path class="st3" d="M296.4,251.2c0-0.1,0.1-0.2,0.2-0.2h0.8c0.1,0,0.2,0.1,0.2,0.2v6.6c0,0.1-0.1,0.2-0.2,0.2h-0.8
		c-0.1,0-0.2-0.1-0.2-0.2V251.2z"/>
	<path class="st3" d="M302.5,252.2H301c-0.1,0-0.2-0.1-0.2-0.2v-0.8c0-0.1,0.1-0.2,0.2-0.2h4.4c0.1,0,0.2,0.1,0.2,0.2v0.8
		c0,0.1-0.1,0.2-0.2,0.2h-1.5v5.7c0,0.1-0.1,0.2-0.2,0.2h-0.9c-0.1,0-0.2-0.1-0.2-0.2L302.5,252.2L302.5,252.2z"/>
	<path class="st3" d="M305.5,253.6c0-0.1,0.1-0.2,0.2-0.2h0.8c0.1,0,0.2,0.1,0.2,0.2v2.5c0,0.6,0.2,0.9,0.8,0.9
		c0.5,0,0.8-0.5,0.8-0.9v-2.5c0-0.2,0.1-0.2,0.3-0.2h0.8c0.1,0,0.2,0.1,0.2,0.2v4.2c0,0.1-0.1,0.2-0.2,0.2H309
		c-0.1,0-0.2-0.1-0.2-0.2l-0.1-0.4c-0.2,0.3-0.7,0.7-1.4,0.7c-1.4,0-1.8-0.9-1.8-2.1L305.5,253.6L305.5,253.6z"/>
	<path class="st3" d="M311,251.2c0-0.1,0.1-0.2,0.2-0.2h0.8c0.1,0,0.2,0.1,0.2,0.2v2.3c0.2-0.1,0.7-0.2,1.1-0.2
		c1.4,0,2.3,1.1,2.3,2.4c0,1.3-0.9,2.4-2.2,2.4c-1,0-1.6-0.7-1.6-0.7l-0.1,0.4c0,0.1-0.1,0.2-0.2,0.2h-0.4c-0.1,0-0.2-0.1-0.2-0.2
		v-6.6H311z M313.2,257c0.7,0,1.1-0.6,1.1-1.3s-0.4-1.3-1.2-1.3c-0.6,0-1,0.3-1,0.3v1.7C312.3,256.6,312.6,257,313.2,257z"/>
	<path class="st3" d="M318.7,253.2c1.2,0,2.1,0.9,2.1,2.2c0,0.1,0,0.2,0,0.3s-0.1,0.2-0.2,0.2h-3c0,0.6,0.5,1.1,1.2,1.1
		c0.5,0,0.8-0.2,1-0.3c0.1-0.1,0.2-0.1,0.3,0l0.4,0.5c0.1,0.1,0.1,0.2,0,0.3c-0.4,0.3-1,0.6-1.7,0.6c-1.4,0-2.4-1.1-2.4-2.4
		C316.4,254.4,317.3,253.2,318.7,253.2z M319.6,255.1c0-0.5-0.4-0.8-0.9-0.8c-0.6,0-0.9,0.3-1,0.8H319.6z"/>
	<path class="st3" d="M321.7,257.7c-0.1,0-0.1-0.2-0.1-0.3l0.3-0.6c0.1-0.1,0.2-0.2,0.3-0.1c0.2,0.1,0.5,0.3,1,0.3
		c0.4,0,0.5-0.1,0.5-0.3c0-0.2-0.3-0.4-0.9-0.6c-0.9-0.3-1.3-0.8-1.3-1.5s0.5-1.4,1.7-1.4c0.7,0,1.1,0.2,1.4,0.3
		c0.1,0.1,0.2,0.2,0.1,0.3l-0.3,0.5c-0.1,0.1-0.2,0.1-0.3,0.1c-0.2-0.1-0.5-0.2-0.9-0.2c-0.3,0-0.4,0.2-0.4,0.3
		c0,0.2,0.2,0.3,0.7,0.5c0.9,0.4,1.5,0.7,1.5,1.6c0,0.7-0.6,1.4-1.8,1.4C322.4,258.1,321.9,257.9,321.7,257.7z"/>
	<path class="st3" d="M327.8,250.5c1.2,0,2.1,1,2.1,2.1s-1,2.1-2.1,2.1s-2.1-0.9-2.1-2.1S326.6,250.5,327.8,250.5z M327.8,254.2
		c0.9,0,1.7-0.7,1.7-1.7c0-0.9-0.7-1.7-1.7-1.7c-0.9,0-1.7,0.7-1.7,1.7C326.1,253.5,326.9,254.2,327.8,254.2z M327,251.6
		c0-0.1,0-0.1,0.1-0.1h0.9c0.4,0,0.7,0.3,0.7,0.7s-0.2,0.6-0.4,0.7l0.3,0.6c0,0.1,0,0.2-0.1,0.2h-0.3c0,0-0.1,0-0.1-0.1l-0.3-0.7
		h-0.3v0.6c0,0.1,0,0.1-0.1,0.1h-0.3c-0.1,0-0.1-0.1-0.1-0.1L327,251.6L327,251.6z M327.9,252.5c0.1,0,0.2-0.1,0.2-0.2
		c0-0.1-0.1-0.2-0.2-0.2h-0.5v0.5h0.5V252.5z"/>
</g>
<g>
	<polygon class="st6" points="187.9,6 187.9,6 187.3,6.1 187.2,6.1 186.6,6.2 186.6,6.2 186,6.3 186,6.3 185.4,6.5 185.3,6.5 
		184.8,6.7 184.7,6.7 184.2,7 184.1,7 183.6,7.2 183.6,7.3 183,7.6 183,7.6 182.5,7.9 182.5,7.9 182,8.3 182,8.3 181.5,8.7 
		181.5,8.7 181.1,9.1 181.1,9.1 180.6,9.5 180.6,9.6 180.2,10 180.2,10 179.8,10.5 179.8,10.5 179.5,11 179.5,11.1 179.2,11.6 
		179.2,11.6 178.9,12.2 178.9,12.2 178.7,12.7 178.6,12.7 178.4,13.3 178.4,13.4 178.3,13.9 178.3,14 178.1,14.6 178.1,14.6 
		178,15.2 178,15.2 178,15.9 178,15.9 177.9,16.5 177.9,16.6 178,17.2 178,17.2 178,17.9 178,17.9 178.1,18.5 178.1,18.5 
		178.3,19.1 178.3,19.2 178.4,19.7 178.4,19.8 178.6,20.3 178.6,20.4 178.9,20.9 178.9,20.9 179.2,21.5 179.2,21.5 179.5,22 
		179.5,22.1 179.8,22.6 179.8,22.6 180.2,23.1 180.2,23.1 180.6,23.5 180.6,23.5 181,24 181.1,24 181.5,24.4 181.5,24.4 182,24.8 
		182,24.8 182.5,25.2 182.5,25.2 183,25.5 183,25.5 183.6,25.9 183.6,25.9 184.1,26.1 184.2,26.1 184.7,26.4 184.7,26.4 185.3,26.6 
		185.3,26.6 185.9,26.8 186,26.8 186.6,26.9 186.6,26.9 187.2,27 187.3,27 187.9,27.1 187.9,27.1 188.6,27.1 189.3,27.1 189.3,27.1 
		189.9,27 189.9,27 190.6,26.9 190.6,26.9 191.2,26.8 191.2,26.8 191.8,26.6 191.8,26.6 192.4,26.4 192.4,26.4 193,26.1 193,26.1 
		193.6,25.9 193.6,25.9 194.1,25.6 194.2,25.5 194.7,25.2 194.7,25.2 195.2,24.8 195.2,24.8 195.7,24.4 195.7,24.4 196.1,24 
		196.1,24 196.5,23.6 196.6,23.5 197,23.1 197,23.1 197.3,22.6 197.3,22.6 197.7,22.1 197.7,22 198,21.5 198,21.5 198.3,21 
		198.3,20.9 198.5,20.4 198.5,20.4 198.7,19.8 198.8,19.8 198.9,19.2 198.9,19.1 199.1,18.5 199.1,18.5 199.2,17.9 199.2,17.9 
		199.2,17.2 199.2,17.2 199.3,16.6 199.2,15.9 199.2,15.9 199.2,15.2 199.2,15.2 199.1,14.6 199.1,14.6 198.9,14 198.9,14 
		198.8,13.4 198.8,13.3 198.5,12.8 198.5,12.7 198.3,12.2 198.3,12.2 198,11.6 198,11.6 197.7,11.1 197.7,11.1 197.4,10.6 
		197.3,10.5 197,10 197,10 196.6,9.6 196.6,9.6 196.1,9.1 196.1,9.1 195.7,8.7 195.7,8.7 195.2,8.3 195.2,8.3 194.7,7.9 194.7,7.9 
		194.2,7.6 194.2,7.6 193.6,7.3 193.6,7.3 193,7 193,7 192.5,6.7 192.4,6.7 191.9,6.5 191.8,6.5 191.2,6.3 191.2,6.3 190.6,6.2 
		190.6,6.2 189.9,6.1 189.9,6.1 189.3,6 189.3,6 188.6,6 	"/>
	<g>
		<rect x="176.6" y="0.9" class="st5" width="24.8" height="27.3"/>
		<path class="st0" d="M185.4,19.1c3.4-2.1,4.8-3.7,4.8-5.1c0-0.8-0.5-1.3-1.3-1.3c-1,0-1.5,0.7-1.5,2l-2.2-0.7
			c0-2.2,1.7-3.4,3.9-3.4c2.7,0,3.8,1.7,3.8,3.2c0,2-1.5,3.4-4.2,5l0,0c0.5,0,1.4-0.1,2-0.1h2.3v2h-7.5v-1.6H185.4z"/>
	</g>
</g>
<g>
	<rect x="198.7" y="10.2" class="st5" width="128.3" height="11.3"/>
	<path class="st3" d="M204.6,12c-0.1-0.1,0-0.3,0.2-0.3h1c0.1,0,0.2,0.1,0.2,0.1l1.9,4.3h0.1l2-4.3c0-0.1,0.1-0.1,0.2-0.1h1
		c0.2,0,0.2,0.1,0.2,0.3l-3.1,6.8c0,0.1-0.1,0.1-0.2,0.1H208c-0.1,0-0.1-0.1-0.2-0.1L204.6,12z"/>
	<path class="st3" d="M213.2,14.1c1.3,0,2.4,1.1,2.4,2.4s-1.1,2.5-2.4,2.5c-1.3,0-2.4-1.1-2.4-2.5C210.8,15.2,211.9,14.1,213.2,14.1
		z M213.2,17.8c0.7,0,1.2-0.6,1.2-1.3c0-0.7-0.5-1.3-1.2-1.3s-1.2,0.6-1.2,1.3C212,17.2,212.5,17.8,213.2,17.8z"/>
	<path class="st3" d="M216.4,12.6c0-0.4,0.3-0.8,0.8-0.8s0.8,0.4,0.8,0.8s-0.4,0.8-0.8,0.8S216.4,13,216.4,12.6z M216.6,14.4
		c0-0.1,0.1-0.2,0.2-0.2h0.8c0.1,0,0.2,0.1,0.2,0.2v4.2c0,0.1-0.1,0.2-0.2,0.2h-0.8c-0.1,0-0.2-0.1-0.2-0.2V14.4z"/>
	<path class="st3" d="M219.2,12c0-0.1,0.1-0.2,0.2-0.2h0.8c0.1,0,0.2,0.1,0.2,0.2v6.6c0,0.1-0.1,0.2-0.2,0.2h-0.8
		c-0.1,0-0.2-0.1-0.2-0.2V12z"/>
	<path class="st3" d="M223.8,14.1c1.2,0,2.1,0.9,2.1,2.2c0,0.1,0,0.2,0,0.3c0,0.1-0.1,0.2-0.2,0.2h-3c0,0.6,0.5,1.1,1.2,1.1
		c0.5,0,0.8-0.2,1-0.3c0.1-0.1,0.2-0.1,0.3,0l0.4,0.5c0.1,0.1,0.1,0.2,0,0.3c-0.4,0.3-1,0.6-1.7,0.6c-1.4,0-2.4-1.1-2.4-2.4
		C221.5,15.2,222.4,14.1,223.8,14.1z M224.7,15.9c0-0.5-0.4-0.8-0.9-0.8c-0.6,0-0.9,0.3-1,0.8H224.7z"/>
	<path class="st3" d="M229.1,12.6c0-0.4,0.3-0.8,0.8-0.8s0.8,0.4,0.8,0.8s-0.4,0.8-0.8,0.8S229.1,13,229.1,12.6z M229.3,14.4
		c0-0.1,0.1-0.2,0.2-0.2h0.8c0.1,0,0.2,0.1,0.2,0.2v4.2c0,0.1-0.1,0.2-0.2,0.2h-0.8c-0.1,0-0.2-0.1-0.2-0.2V14.4z"/>
	<path class="st3" d="M231.9,14.4c0-0.1,0.1-0.2,0.2-0.2h0.4c0.1,0,0.2,0.1,0.2,0.1l0.2,0.4c0.2-0.2,0.6-0.7,1.5-0.7
		c1.5,0,1.9,1,1.9,2.1v2.4c0,0.1-0.1,0.2-0.2,0.2h-0.8c-0.1,0-0.2-0.1-0.2-0.2v-2.4c0-0.6-0.2-1-0.8-1s-0.9,0.4-1,0.7v2.7
		c0,0.2-0.1,0.2-0.3,0.2h-0.7c-0.1,0-0.2-0.1-0.2-0.2v-4.1H231.9z"/>
	<path class="st3" d="M237.7,15.3h-0.5c-0.1,0-0.2-0.1-0.2-0.2v-0.7c0-0.1,0.1-0.2,0.2-0.2h0.5v-1.3c0-0.1,0.1-0.2,0.2-0.2h0.8
		c0.1,0,0.2,0.1,0.2,0.2v1.3h1.1c0.1,0,0.2,0.1,0.2,0.2v0.7c0,0.1-0.1,0.2-0.2,0.2h-1v2.1c0,0.3,0.2,0.4,0.4,0.4s0.6-0.1,0.7-0.2
		c0.1-0.1,0.2,0,0.3,0.1l0.1,0.6c0,0.1,0,0.2-0.1,0.3c-0.2,0.1-0.8,0.3-1.3,0.3c-1,0-1.3-0.7-1.3-1.5L237.7,15.3L237.7,15.3z"/>
	<path class="st3" d="M243.4,14.1c1.2,0,2.1,0.9,2.1,2.2c0,0.1,0,0.2,0,0.3c0,0.1-0.1,0.2-0.2,0.2h-3c0,0.6,0.5,1.1,1.2,1.1
		c0.5,0,0.8-0.2,1-0.3c0.1-0.1,0.2-0.1,0.3,0l0.4,0.5c0.1,0.1,0.1,0.2,0,0.3c-0.4,0.3-1,0.6-1.7,0.6c-1.4,0-2.4-1.1-2.4-2.4
		C241.1,15.2,242.1,14.1,243.4,14.1z M242.6,13.4l-0.2-0.4c0-0.1,0-0.2,0.1-0.2l1.6-1c0.1-0.1,0.2-0.1,0.3,0l0.3,0.5
		c0.1,0.1,0,0.2-0.1,0.3l-1.8,0.8C242.7,13.6,242.6,13.5,242.6,13.4z M244.3,15.9c0-0.5-0.4-0.8-0.9-0.8c-0.6,0-0.9,0.3-1,0.8H244.3
		z"/>
	<path class="st3" d="M246.5,14.4c0-0.1,0.1-0.2,0.2-0.2h0.4c0.1,0,0.2,0.1,0.2,0.2l0.2,0.5c0.2-0.2,0.6-0.7,1.3-0.7
		c0.6,0,1,0.2,0.9,0.5l-0.3,0.7c0,0.1-0.2,0.2-0.3,0.1s-0.2-0.1-0.4-0.1c-0.5,0-0.8,0.3-0.9,0.5v2.9c0,0.2-0.1,0.2-0.3,0.2h-0.8
		c-0.1,0-0.2-0.1-0.2-0.2L246.5,14.4L246.5,14.4z"/>
	<path class="st3" d="M250.3,12.6c0-0.4,0.3-0.8,0.8-0.8s0.8,0.4,0.8,0.8s-0.4,0.8-0.8,0.8C250.6,13.4,250.3,13,250.3,12.6z
		 M250.4,14.4c0-0.1,0.1-0.2,0.2-0.2h0.8c0.1,0,0.2,0.1,0.2,0.2v4.2c0,0.1-0.1,0.2-0.2,0.2h-0.8c-0.1,0-0.2-0.1-0.2-0.2V14.4z"/>
	<path class="st3" d="M255.1,14.1c1.2,0,2.1,0.9,2.1,2.2c0,0.1,0,0.2,0,0.3c0,0.1-0.1,0.2-0.2,0.2h-3c0,0.6,0.5,1.1,1.2,1.1
		c0.5,0,0.8-0.2,1-0.3c0.1-0.1,0.2-0.1,0.3,0l0.4,0.5c0.1,0.1,0.1,0.2,0,0.3c-0.4,0.3-1,0.6-1.7,0.6c-1.4,0-2.4-1.1-2.4-2.4
		C252.7,15.2,253.7,14.1,255.1,14.1z M255.9,15.9c0-0.5-0.4-0.8-0.9-0.8c-0.6,0-0.9,0.3-1,0.8H255.9z"/>
	<path class="st3" d="M258.1,14.4c0-0.1,0.1-0.2,0.2-0.2h0.8c0.1,0,0.2,0.1,0.2,0.2v2.5c0,0.6,0.2,0.9,0.8,0.9
		c0.5,0,0.8-0.5,0.8-0.9v-2.5c0-0.2,0.1-0.2,0.3-0.2h0.8c0.1,0,0.2,0.1,0.2,0.2v4.2c0,0.1-0.1,0.2-0.2,0.2h-0.4
		c-0.1,0-0.2-0.1-0.2-0.2l-0.1-0.4c-0.2,0.3-0.7,0.7-1.4,0.7c-1.4,0-1.8-0.9-1.8-2.1L258.1,14.4L258.1,14.4z"/>
	<path class="st3" d="M263.6,14.4c0-0.1,0.1-0.2,0.2-0.2h0.4c0.1,0,0.2,0.1,0.2,0.2l0.2,0.5c0.2-0.2,0.6-0.7,1.3-0.7
		c0.6,0,1,0.2,0.9,0.5l-0.3,0.7c0,0.1-0.2,0.2-0.3,0.1s-0.2-0.1-0.4-0.1c-0.5,0-0.8,0.3-0.9,0.5v2.9c0,0.2-0.1,0.2-0.3,0.2h-0.8
		c-0.1,0-0.2-0.1-0.2-0.2L263.6,14.4L263.6,14.4z"/>
	<path class="st3" d="M269.6,14.4c0-0.1,0.1-0.2,0.2-0.2h0.8c0.1,0,0.2,0.1,0.2,0.2v2.5c0,0.6,0.2,0.9,0.8,0.9
		c0.5,0,0.8-0.5,0.8-0.9v-2.5c0-0.2,0.1-0.2,0.3-0.2h0.8c0.1,0,0.2,0.1,0.2,0.2v4.2c0,0.1-0.1,0.2-0.2,0.2h-0.4
		c-0.1,0-0.2-0.1-0.2-0.2l-0.1-0.4c-0.2,0.3-0.7,0.7-1.4,0.7c-1.4,0-1.8-0.9-1.8-2.1L269.6,14.4L269.6,14.4z"/>
	<path class="st3" d="M275.1,12c0-0.1,0.1-0.2,0.2-0.2h0.8c0.1,0,0.2,0.1,0.2,0.2v6.6c0,0.1-0.1,0.2-0.2,0.2h-0.8
		c-0.1,0-0.2-0.1-0.2-0.2V12z"/>
	<path class="st3" d="M278,15.3h-0.5c-0.1,0-0.2-0.1-0.2-0.2v-0.7c0-0.1,0.1-0.2,0.2-0.2h0.5v-1.3c0-0.1,0.1-0.2,0.2-0.2h0.8
		c0.1,0,0.2,0.1,0.2,0.2v1.3h1.1c0.1,0,0.2,0.1,0.2,0.2v0.7c0,0.1-0.1,0.2-0.2,0.2h-1.1v2.1c0,0.3,0.2,0.4,0.4,0.4
		c0.2,0,0.6-0.1,0.7-0.2s0.2,0,0.3,0.1l0.1,0.6c0,0.1,0,0.2-0.1,0.3c-0.2,0.1-0.8,0.3-1.3,0.3c-1,0-1.3-0.7-1.3-1.5L278,15.3
		L278,15.3z"/>
	<path class="st3" d="M281.6,14.4c0-0.1,0.1-0.2,0.2-0.2h0.4c0.1,0,0.2,0.1,0.2,0.2l0.2,0.5c0.2-0.2,0.6-0.7,1.3-0.7
		c0.6,0,1,0.2,0.9,0.5l-0.3,0.7c0,0.1-0.2,0.2-0.3,0.1s-0.2-0.1-0.4-0.1c-0.5,0-0.8,0.3-0.9,0.5v2.9c0,0.2-0.1,0.2-0.3,0.2h-0.8
		c-0.1,0-0.2-0.1-0.2-0.2L281.6,14.4L281.6,14.4z"/>
	<path class="st3" d="M287,15.9c0.5,0,0.9,0.1,0.9,0.1c0-0.6-0.2-0.9-0.6-0.9s-1,0.1-1.3,0.2c-0.2,0.1-0.2-0.1-0.3-0.2l-0.1-0.5
		c0-0.2,0-0.3,0.2-0.3c0.1,0,0.8-0.2,1.6-0.2c1.5,0,1.8,0.8,1.8,2v2.5c0,0.1-0.1,0.2-0.2,0.2h-0.3c-0.1,0-0.1,0-0.2-0.2l-0.1-0.3
		c-0.3,0.3-0.7,0.6-1.5,0.6c-0.9,0-1.6-0.6-1.6-1.6C285.1,16.5,285.8,15.9,287,15.9z M287,18c0.4,0,0.8-0.3,0.8-0.5v-0.7
		c0,0-0.3-0.1-0.7-0.1c-0.5,0-0.8,0.3-0.8,0.7C286.3,17.7,286.5,18,287,18z"/>
	<path class="st3" d="M294.7,14.1c0.5,0,0.9,0.1,1.1,0.2V12c0-0.1,0.1-0.2,0.2-0.2h0.8c0.1,0,0.2,0.1,0.2,0.2v6.6
		c0,0.1-0.1,0.2-0.2,0.2h-0.4c-0.1,0-0.2-0.1-0.2-0.2l-0.1-0.4c0,0-0.5,0.7-1.5,0.7c-1.3,0-2.2-1-2.2-2.4
		C292.4,15.1,293.3,14.1,294.7,14.1z M295.9,15.5c0,0-0.4-0.3-1-0.3c-0.8,0-1.2,0.6-1.2,1.3c0,0.7,0.4,1.3,1.1,1.3
		c0.6,0,0.9-0.4,1-0.6v-1.7H295.9z"/>
	<path class="st3" d="M300.5,14.1c1.3,0,2.4,1.1,2.4,2.4s-1.1,2.5-2.4,2.5s-2.4-1.1-2.4-2.5C298.1,15.2,299.2,14.1,300.5,14.1z
		 M300.5,17.8c0.7,0,1.2-0.6,1.2-1.3c0-0.7-0.5-1.3-1.2-1.3s-1.2,0.6-1.2,1.3C299.3,17.2,299.8,17.8,300.5,17.8z"/>
	<path class="st3" d="M303.9,14.4c0-0.1,0.1-0.2,0.2-0.2h0.8c0.1,0,0.2,0.1,0.2,0.2v2.5c0,0.6,0.2,0.9,0.8,0.9
		c0.5,0,0.8-0.5,0.8-0.9v-2.5c0-0.2,0.1-0.2,0.3-0.2h0.8c0.1,0,0.2,0.1,0.2,0.2v4.2c0,0.1-0.1,0.2-0.2,0.2h-0.4
		c-0.1,0-0.2-0.1-0.2-0.2l-0.1-0.4c-0.2,0.3-0.7,0.7-1.4,0.7c-1.4,0-1.8-0.9-1.8-2.1L303.9,14.4L303.9,14.4z"/>
	<path class="st3" d="M308.9,18.5l1.5-2l-1.4-1.9c-0.1-0.2,0-0.3,0.2-0.3h0.9c0.2,0,0.3,0,0.4,0.2l0.8,1.2l0,0l0.8-1.2
		c0.1-0.1,0.2-0.2,0.4-0.2h1c0.2,0,0.3,0.2,0.1,0.3l-1.4,1.9l1.4,2.1c0.1,0.2,0.1,0.3-0.1,0.3h-1c-0.2,0-0.2-0.1-0.3-0.2l-0.9-1.3
		l0,0l-0.9,1.4c0,0.1-0.1,0.1-0.2,0.1h-1.1C308.9,18.8,308.8,18.6,308.9,18.5z"/>
</g>
<polygon class="st6" points="178.4,186.4 137.8,255.8 139.6,256.8 180.4,187 178.7,186 "/>
<g>
	<polygon class="st6" points="137.9,244.1 137.9,244.1 137.3,244.2 137.2,244.2 136.6,244.3 136.6,244.3 136,244.4 135.9,244.4 
		135.3,244.6 135.3,244.6 134.7,244.8 134.7,244.8 134.1,245 134.1,245 133.6,245.3 133.6,245.3 133,245.6 133,245.6 132.5,245.9 
		132.5,246 132,246.3 132,246.3 131.5,246.7 131.5,246.7 131,247.1 131,247.2 130.6,247.6 130.6,247.6 130.2,248.1 130.2,248.1 
		129.8,248.6 129.8,248.6 129.5,249.1 129.5,249.1 129.2,249.6 129.2,249.7 128.9,250.2 128.9,250.2 128.6,250.8 128.6,250.8 
		128.4,251.4 128.4,251.4 128.2,252 128.2,252 128.1,252.6 128.1,252.6 128,253.3 128,253.3 127.9,253.9 127.9,253.9 127.9,254.6 
		127.9,254.6 127.9,255.3 127.9,255.3 128,255.9 128,255.9 128.1,256.5 128.1,256.6 128.2,257.2 128.2,257.2 128.4,257.8 
		128.4,257.8 128.6,258.4 128.6,258.4 128.9,259 128.9,259 129.1,259.5 129.2,259.6 129.5,260.1 129.5,260.1 129.8,260.6 
		129.8,260.6 130.2,261.1 130.2,261.1 130.6,261.6 130.6,261.6 131,262 131,262.1 131.5,262.5 131.5,262.5 132,262.9 132,262.9 
		132.5,263.2 132.5,263.3 133,263.6 133,263.6 133.5,263.9 133.6,263.9 134.1,264.2 134.1,264.2 134.7,264.4 134.7,264.4 
		135.3,264.6 135.3,264.6 135.9,264.8 135.9,264.8 136.6,265 136.6,265 137.2,265.1 137.2,265.1 137.9,265.1 137.9,265.1 
		138.6,265.1 139.2,265.1 139.3,265.1 139.9,265.1 139.9,265.1 140.5,265 140.6,265 141.2,264.8 141.2,264.8 141.8,264.6 
		141.8,264.6 142.4,264.4 142.4,264.4 143,264.2 143,264.2 143.6,263.9 143.6,263.9 144.1,263.6 144.1,263.6 144.6,263.3 
		144.7,263.2 145.2,262.9 145.2,262.9 145.6,262.5 145.7,262.5 146.1,262.1 146.1,262.1 146.5,261.6 146.5,261.6 146.9,261.1 
		146.9,261.1 147.3,260.6 147.3,260.6 147.7,260.1 147.7,260.1 148,259.6 148,259.6 148.3,259 148.3,259 148.5,258.4 148.5,258.4 
		148.7,257.8 148.7,257.8 148.9,257.2 148.9,257.2 149,256.6 149,256.6 149.1,255.9 149.1,255.9 149.2,255.3 149.2,255.3 
		149.2,254.6 149.2,254 149.2,253.9 149.2,253.3 149.1,253.3 149.1,252.7 149,252.6 148.9,252 148.9,252 148.7,251.4 148.7,251.4 
		148.5,250.8 148.5,250.8 148.3,250.2 148.3,250.2 148,249.7 148,249.6 147.7,249.1 147.7,249.1 147.3,248.6 147.3,248.6 147,248.1 
		146.9,248.1 146.6,247.6 146.5,247.6 146.1,247.2 146.1,247.2 145.7,246.7 145.6,246.7 145.2,246.3 145.2,246.3 144.7,246 
		144.7,246 144.2,245.6 144.1,245.6 143.6,245.3 143.6,245.3 143,245 143,245 142.4,244.8 142.4,244.8 141.8,244.6 141.8,244.6 
		141.2,244.4 141.2,244.4 140.6,244.3 140.6,244.3 139.9,244.2 139.9,244.2 139.3,244.1 139.2,244.1 138.6,244.1 	"/>
	<g>
		<rect x="128.2" y="243.3" class="st5" width="19.7" height="19.4"/>
		<path class="st0" d="M137.7,253.5c0-0.5,0-1.1,0-1.7c-0.7,0.6-1.5,1.1-2.4,1.3l-0.2-2.2c1-0.1,2.6-0.9,3-1.7h2.1v10h-2.5
			L137.7,253.5L137.7,253.5z"/>
	</g>
</g>
</svg>
