<?xml version="1.0" encoding="UTF-8"?>
<!-- Generator: Adobe Illustrator 25.2.1, SVG Export Plug-In . SVG Version: 6.00 Build 0)  -->
<svg version="1.0" id="Calque_1" xmlns="http://www.w3.org/2000/svg" xmlns:xlink="http://www.w3.org/1999/xlink" x="0px" y="0px" viewBox="0 0 345.2 267.8" style="enable-background:new 0 0 345.2 267.8;" xml:space="preserve">
<style type="text/css">
	.st0{fill:#FFFFFF;}
	.st1{fill:#FFFFFF;stroke:#212023;stroke-width:2.5;stroke-miterlimit:10;}
	.st2{fill:none;stroke:#212023;stroke-width:1.5;stroke-miterlimit:10;}
	.st3{fill:#212023;stroke:#212023;stroke-width:0.5;stroke-miterlimit:10;}
	.st4{fill-rule:evenodd;clip-rule:evenodd;fill:#79C3BE;}
	.st5{fill:none;}
	.st6{fill-rule:evenodd;clip-rule:evenodd;fill:#FFFFFF;}
	.st7{fill-rule:evenodd;clip-rule:evenodd;fill:none;}
	.st8{fill:#343740;}
	.st9{fill-rule:evenodd;clip-rule:evenodd;fill:#343740;}
</style>
<g>
	<polygon class="st0" points="253.7,180.8 124.5,224.4 82.1,126.7 81.7,120.6 79.2,114.6 264.9,82  "/>
	
		<rect x="86.2" y="119.3" transform="matrix(0.9504 -0.311 0.311 0.9504 -36.9382 40.1482)" class="st0" width="42.4" height="33.2"/>
	<path class="st0" d="M87.1,120.3c0,0,0.6,0.4,1.7,1.2c1.1,0.8,2.7,1.9,5,3.1c2.2,1.2,5,2.4,8.5,3.1c3.4,0.9,7.3,0.7,11.7,0.6   c2.2-0.1,4.4-0.1,6.8-0.1c2.4,0.1,4.8,0.4,7.2,0.7c4.9,0.7,10.1,1.6,15.4,0.8c5.3-0.7,10.7-2.4,16.5-2.7c5.8-0.3,11.5,0.3,17.1-0.7   c5.6-0.9,10.9-3.4,16.5-4.8c5.7-1.4,11.3-1.4,16.6-2.4c5.2-1,9.9-3.4,14.4-5.5c4.4-2.3,9-3.7,13.2-4.8c4.2-1.2,8-2.3,11-4.2   c3-1.8,5.4-3.8,7-5.7c1.7-1.9,2.9-3.5,3.6-4.6c0.7-1.1,1.1-1.8,1.1-1.8s-0.3,0.7-1,1.8c-0.7,1.2-1.7,2.9-3.4,4.8s-4,4-7,5.9   c-3,2-6.9,3.3-11,4.5c-4.2,1.2-8.6,2.7-13,5c-4.4,2.2-9.2,4.8-14.6,5.9c-5.4,1.1-11,1.2-16.5,2.5c-5.4,1.4-10.8,3.9-16.6,4.9   c-5.9,1-11.7,0.3-17.3,0.6c-5.6,0.2-11,1.9-16.4,2.6c-5.5,0.7-10.8-0.2-15.7-1.1c-2.4-0.4-4.8-0.7-7.1-0.9   c-2.3-0.1-4.5-0.1-6.7-0.1c-4.3,0.1-8.4,0.1-11.8-0.9c-3.4-0.9-6.3-2.2-8.5-3.4c-2.2-1.2-3.8-2.4-4.9-3.3   C87.7,120.8,87.1,120.3,87.1,120.3z"/>
	<path class="st0" d="M105.4,137.4c1.4,47.6,27.3,71.2,38.1,78.8"/>
	<path class="st0" d="M79.2,116.3c1.1,1.8,2.3,2.7,2.5,4.4c2.2,21.1,8.5,31.5,8.5,31.5"/>
	<path class="st0" d="M202.1,223c9.9,3.2,84.7-18.3,62.9-134.7c-0.3-1.6,1.1-3.8,0.8-5.3"/>
	<path class="st0" d="M157.2,230.8c13.3,6,46.9,1.2,65.1-27.7c8.3-13.1,19.5-47.8,5.8-74.6"/>
	<path class="st0" d="M185.3,138.5c10.8,28.9,7.5,49.6,1.2,65C174,233.6,137,239.3,127,229.8c-1.5-1.4-1.3-3.2-1.3-3.2"/>
	<path class="st0" d="M92.9,160.4c-0.1,2.6-6.9,5.2-5.9,8c0.9,2.5,6.1,2.8,7.2,5.5c1,2.5-3.9,7.7-2.7,10.2c1.1,2.5,8.2,2.1,9.5,4.6   c1.2,2.4-3.2,8-1.7,10.4c1.4,2.4,8.4,1.3,10,3.6c1.6,2.3-2.2,8.3-0.5,10.6c1.7,2.2,8.5,0.1,10.3,2.2s-1.1,9,1.2,10.5   c1,0.6,3.5,1,6.7,0.5c0.7-0.1,1.6-0.2,2.4-0.4c0.9-0.2,1.9-0.5,2.9-0.9c9.7-3.6,20.9-14.3,17.6-40.8c-1.9-15-6.5-26.7-12.3-34.8   c-0.6-0.7-0.1-1.9-0.6-2.6c-0.5-0.6-2-0.7-2.5-1.3c-0.7-0.9-0.2-2.9-0.9-3.7c-0.8-0.8-3.1-0.2-3.9-0.9c-1.2-0.9-1.2-3.7-2.4-4.4   c-1.2-0.6-3.6,0.9-4.9,0.8c-1.7-0.2-2.9-3.9-4-4c-1.4-0.1-3,3.3-4.9,3.7c-3.4,0.7-4.5-3.2-6.9-2.3c-1.2,0.5-1.6,5.7-3.2,6.5   c-1.9,1.1-5.7-1.4-7.3,0.2c-1.5,1.4,1.2,5.7-0.2,8.5c-0.6,1.3-7.1,1.6-7.5,3.6C88.3,155.8,92.9,159.2,92.9,160.4z"/>
	<path class="st0" d="M265.8,82.7c-7.7-33.4-14.6-36.6-14.6-36.6c-0.6-1.5-2.7-2.7-6.6-3.9c-2.4-0.7-4.9-2.7-8.2-3.3   c-2.7-0.4-6.2-0.4-9.3-0.6c-2.9-0.2-5.8-1.7-8.9-1.7c-4.9,0-10.1,1.4-15.7,1.7c-5,0.2-10.3-0.7-15.8-0.2c-5,0.4-10.1,2.3-15.4,2.9   c-5.1,0.6-10.5-0.1-15.8,0.7c-4.2,0.6-8.1,2.6-12.1,3.3c-4.2,0.7-8.7,0.2-12.8,0.9c-4.2,0.8-7.9,3-11.8,3.9   c-4.3,1-8.8,0.7-12.6,1.7c-3.5,0.9-6.4,3.2-9.5,4.2c-3.6,1.2-7.4,2.1-10.3,3.4c-3.7,1.6-5.7,4.3-8.1,5.9c-4,2.7-6.2,4.8-5.5,6.7   c0,0-0.6,34.7,6.5,44.3"/>
	<path class="st1" d="M201.3,109.9"/>
	<path class="st1" d="M194,76.9"/>
	<path class="st1" d="M207.2,111.2"/>
	<path class="st1" d="M204.6,94.7"/>
	<path class="st1" d="M244.8,58.8"/>
	<path class="st1" d="M253.7,91.4"/>
	<path class="st1" d="M245.2,72.1"/>
	<path class="st1" d="M248.2,85.5"/>
</g>
<g>
	<path class="st2" d="M185.3,138.6c10.8,28.9,7.5,49.6,1.2,65C174,233.8,137,239.4,127,229.9c-1.5-1.4-1.3-3.2-1.3-3.2"/>
	<path class="st2" d="M157.2,231c13.3,6,46.9,1.2,65.1-27.7c8.3-13.1,19.5-47.8,5.8-74.6"/>
	<path class="st2" d="M79.2,116.4c1.1,1.8,2.3,2.7,2.5,4.4c2.2,21.1,8.5,31.5,8.5,31.5"/>
	<path class="st2" d="M202.1,223.2c9.9,3.2,84.7-18.3,62.9-134.7c-0.3-1.6,1.1-3.8,0.8-5.3"/>
	<path class="st2" d="M92.9,160.6c-0.1,2.6-6.9,5.2-5.9,8c0.9,2.5,6.1,2.8,7.2,5.5c1,2.5-3.9,7.7-2.7,10.2c1.1,2.5,8.2,2.1,9.5,4.6   c1.2,2.4-3.2,8-1.7,10.4c1.4,2.4,8.4,1.3,10,3.6c1.6,2.3-2.2,8.3-0.5,10.6c1.7,2.2,8.5,0.1,10.3,2.2s-1.1,9,1.2,10.5   c1,0.6,3.5,1,6.7,0.5c0.7-0.1,1.6-0.2,2.4-0.4c0.9-0.2,1.9-0.5,2.9-0.9c9.7-3.6,20.9-14.3,17.6-40.8c-1.9-15-6.5-26.7-12.3-34.8   c-0.6-0.7-0.1-1.9-0.6-2.6c-0.5-0.6-2-0.7-2.5-1.3c-0.7-0.9-0.2-2.9-0.9-3.7c-0.8-0.8-3.1-0.2-3.9-0.9c-1.2-0.9-1.2-3.7-2.4-4.4   c-1.2-0.6-3.6,0.9-4.9,0.8c-1.7-0.2-2.9-3.9-4-4c-1.4-0.1-3,3.3-4.9,3.7c-3.4,0.7-4.5-3.2-6.9-2.3c-1.2,0.5-1.6,5.7-3.2,6.5   c-1.9,1.1-5.7-1.4-7.3,0.2c-1.5,1.4,1.2,5.7-0.2,8.5c-0.6,1.3-7.1,1.6-7.5,3.6C88.3,155.9,93,159.3,92.9,160.6z"/>
	<path class="st2" d="M112.6,137.5c2.4,41.7,24.8,65.3,34.8,72.7"/>
	<path class="st2" d="M105.4,137.5c1.4,47.6,27.3,71.2,38.1,78.8"/>
	<path class="st3" d="M86.3,120.5c0,0,0.6,0.4,1.7,1.2c1.1,0.8,2.8,1.9,5,3.1s5.1,2.4,8.6,3.1c3.5,0.9,7.4,0.7,11.8,0.6   c2.2-0.1,4.5-0.1,6.9-0.1c2.4,0.1,4.8,0.4,7.3,0.7c5,0.7,10.2,1.6,15.6,0.8c5.4-0.7,10.8-2.4,16.7-2.7c5.9-0.3,11.6,0.3,17.3-0.7   c5.7-0.9,11-3.4,16.7-4.8c5.7-1.4,11.5-1.4,16.8-2.4c5.3-1,10-3.4,14.5-5.5c4.5-2.3,9.1-3.7,13.4-4.8c4.2-1.2,8.1-2.3,11.1-4.2   c3-1.8,5.4-3.8,7.1-5.7c1.7-1.9,2.9-3.5,3.6-4.6c0.8-1.1,1.1-1.8,1.1-1.8s-0.3,0.7-1,1.8c-0.7,1.2-1.8,2.9-3.5,4.8   c-1.7,1.9-4,4-7.1,5.9c-3,2-6.9,3.3-11.1,4.5c-4.2,1.2-8.7,2.7-13.1,5c-4.5,2.2-9.3,4.8-14.7,5.9c-5.5,1.1-11.1,1.2-16.7,2.5   c-5.5,1.4-10.9,3.9-16.8,4.9c-5.9,1-11.8,0.3-17.5,0.6c-5.7,0.2-11.1,1.9-16.6,2.6c-5.6,0.7-11-0.2-15.9-1.1   c-2.5-0.4-4.8-0.7-7.2-0.9c-2.3-0.1-4.6-0.1-6.8-0.1c-4.3,0.1-8.5,0.1-12-0.9c-3.5-0.9-6.4-2.2-8.6-3.4c-2.2-1.2-3.8-2.4-4.9-3.3   C86.9,120.9,86.3,120.5,86.3,120.5z"/>
	<path class="st2" d="M265.9,83.4c-7.7-33.4-14.7-37.9-14.7-37.9c-0.6-1.5-2.7-2.7-6.6-3.9c-2.4-0.7-4.9-2.7-8.2-3.3   c-2.7-0.4-6.2-0.4-9.3-0.6c-2.9-0.2-5.8-1.7-8.9-1.7c-4.9,0-10.1,1.4-15.7,1.7c-5,0.2-10.3-0.7-15.8-0.2c-5,0.4-10.1,2.3-15.4,2.9   c-5.1,0.6-10.5-0.1-15.8,0.7c-4.2,0.6-8.1,2.6-12.1,3.3c-4.2,0.7-8.7,0.2-12.8,0.9c-4.2,0.8-7.9,3-11.8,3.9   c-4.3,1-8.8,0.7-12.6,1.7c-3.5,0.9-6.4,3.2-9.5,4.2c-3.6,1.2-7.4,2.1-10.3,3.4c-3.7,1.6-5.7,4.3-8.1,5.9c-4,2.7-6.2,4.8-5.5,6.7   c0,0-0.3,35.8,6.8,45.4"/>
	<path class="st2" d="M236.2,106.1c-8.7,1.3-15.6,7-26,10.2c-5.1,1.9-11.8,1.6-17.3,2.6c-5.4,0.9-12.8,3.9-18.6,4.9   c-5.7,0.9-12.9,0.1-18.4,0.9c-5.5,0.7-11.1,2.4-16.5,2.2c-9.1-0.2-12.3-2.4-18.4-2.1c-6.1,0.4-13.7,1.2-17.8,0.2   c-6.9-1.3-18.9-9.1-20.1-9.7c0,0-4.4-7-5.5-19.9c-0.6-6.4-0.8-19.7-0.8-19.7c1.9,1.5,9.6,2.6,18.7,3.5c5,0.5,11,2.7,17.9,2.7   c5.5-0.1,11.5-2.3,17.9-2.7c5.7-0.4,12,1.1,18.2,0.4c5.8-0.6,11.3-3.4,17.4-4.3c5.9-0.9,12.1,0.2,17.6-0.8c6-1.1,11-4.2,16.3-5.4   c6-1.4,12.4-0.9,17.4-2.3c6.3-1.8,10.6-5.5,14.9-7.4c12.7-5.3,15.4-8.2,15.7-10c0,0,6.8,10.1,9.1,18.5c2.3,8.4,4.7,20.1,1.2,22.8   C259.2,90.9,247.5,104.4,236.2,106.1z"/>
	<path class="st2" d="M112.3,54.5c-2,4.9-3.6,14.4-2.6,23.9"/>
	<path class="st2" d="M104.3,56.8c-1.9,3.9-2.9,11.6-2.3,20.2"/>
	<path class="st2" d="M203.4,41.2c4,4.2,8.6,13.8,11.7,23"/>
	<path class="st2" d="M211.7,41.2c3.6,3.4,7.3,12.3,10.5,20.9"/>
	<path class="st2" d="M77.6,72.3c-1.7-4.7,11.6-11.3,32.6-16.9c13-3.5,29-6.8,46.7-9.3c20.8-3,43.4-4.8,59.6-4.5   c16.7,0.2,27.6,2.3,29.2,6.2"/>
	<path class="st2" d="M245.8,47.2c1,2.9-4.9,5.6-13,9.1c-4.3,1.9-8.7,5.5-14.9,7.4c-5,1.4-11.3,0.9-17.4,2.3   c-5.3,1.2-10.3,4.3-16.3,5.4c-5.5,1-11.6-0.1-17.6,0.8c-6.1,0.9-11.7,3.6-17.4,4.3c-6.2,0.7-12.5-0.8-18.2-0.4   c-6.5,0.4-12.4,2.7-17.9,2.7c-6.9,0.1-12.8-2.2-17.9-2.7c-9.1-0.9-16.6-1.5-17.6-4.2"/>
	<path class="st2" d="M140.8,85.8c2.5,3.9,2.4,24.8,5.8,33.4"/>
	<path class="st2" d="M194,77.1c4.9,7.7,5.7,28.7,7.3,32.9"/>
	<path class="st2" d="M146.7,87.1c1.7,3.2,2.5,14.4,3.6,25.7"/>
	<path class="st2" d="M204.6,94.9c1.1,7.2,1.7,14.2,2.6,16.4"/>
	<path class="st2" d="M253.7,91.5c0,0-1.5-21.1-8.9-32.6"/>
	<path class="st2" d="M248.2,85.6c-0.6-3.9-1.6-8.7-3-13.3"/>
	<path class="st2" d="M108,87.1c0,0-0.6,21.1,5.6,33.3"/>
	<path class="st2" d="M112.6,92c0.4,5.8,1,13.1,2.2,20.2"/>
</g>
<polygon class="st4" points="112.4,166.7 67.3,162.8 67.2,163.9 112.5,167.9 112.6,166.7 "/>
<polygon class="st4" points="253.7,72.9 253.2,74.1 308.4,98.5 309.2,96.9 253.9,72.5 "/>
<polygon class="st4" points="65.8,152.4 65.8,152.4 65.1,152.4 65.1,152.4 64.5,152.5 64.5,152.5 63.8,152.7 63.8,152.7 63.2,152.8   63.2,152.8 62.6,153.1 62.6,153.1 62,153.3 62,153.3 61.4,153.6 61.4,153.6 60.9,153.9 60.9,153.9 60.4,154.2 60.3,154.2   59.9,154.6 59.8,154.6 59.4,155 59.4,155 58.9,155.4 58.9,155.4 58.5,155.9 58.5,155.9 58.1,156.4 58.1,156.4 57.7,156.8   57.7,156.9 57.4,157.4 57.3,157.4 57,157.9 57,157.9 56.8,158.5 56.7,158.5 56.5,159.1 56.5,159.1 56.3,159.7 56.3,159.7   56.1,160.3 56.1,160.3 56,160.9 56,160.9 55.9,161.5 55.9,161.6 55.8,162.2 55.8,162.2 55.8,162.9 55.8,162.9 55.8,163.5   55.8,163.6 55.9,164.2 55.9,164.2 56,164.8 56,164.8 56.1,165.5 56.1,165.5 56.3,166.1 56.3,166.1 56.5,166.7 56.5,166.7   56.7,167.2 56.7,167.3 57,167.8 57,167.8 57.3,168.4 57.3,168.4 57.7,168.9 57.7,168.9 58.1,169.4 58.1,169.4 58.5,169.9   58.5,169.9 58.9,170.3 58.9,170.3 59.3,170.7 59.4,170.8 59.8,171.1 59.8,171.2 60.3,171.5 60.4,171.5 60.9,171.9 60.9,171.9   61.4,172.2 61.4,172.2 62,172.5 62,172.5 62.6,172.7 62.6,172.7 63.2,172.9 63.2,172.9 63.8,173.1 63.8,173.1 64.4,173.2   64.5,173.2 65.1,173.3 65.1,173.3 65.7,173.4 65.8,173.4 66.4,173.4 67.1,173.4 67.1,173.4 67.8,173.3 67.8,173.3 68.4,173.2   68.4,173.2 69.1,173.1 69.1,173.1 69.7,172.9 69.7,172.9 70.3,172.7 70.3,172.7 70.9,172.5 70.9,172.5 71.4,172.2 71.5,172.2   72,171.9 72,171.9 72.5,171.5 72.5,171.5 73,171.2 73,171.2 73.5,170.8 73.5,170.8 74,170.3 74,170.3 74.4,169.9 74.4,169.9   74.8,169.4 74.8,169.4 75.2,168.9 75.2,168.9 75.5,168.4 75.5,168.4 75.8,167.9 75.9,167.8 76.1,167.3 76.1,167.3 76.4,166.7   76.4,166.7 76.6,166.1 76.6,166.1 76.8,165.5 76.8,165.5 76.9,164.9 76.9,164.8 77,164.2 77,164.2 77.1,163.6 77.1,163.5   77.1,162.9 77.1,162.2 77.1,162.2 77,161.6 77,161.6 76.9,160.9 76.9,160.9 76.8,160.3 76.8,160.3 76.6,159.7 76.6,159.7   76.4,159.1 76.4,159.1 76.2,158.5 76.1,158.5 75.9,157.9 75.9,157.9 75.5,157.4 75.5,157.4 75.2,156.9 75.2,156.9 74.8,156.4   74.8,156.4 74.4,155.9 74.4,155.9 74,155.4 74,155.4 73.5,155 73.5,155 73.1,154.6 73,154.6 72.5,154.2 72.5,154.2 72,153.9   72,153.9 71.5,153.6 71.5,153.6 70.9,153.3 70.9,153.3 70.3,153.1 70.3,153.1 69.7,152.9 69.7,152.8 69.1,152.7 69.1,152.7   68.4,152.5 68.4,152.5 67.8,152.4 67.8,152.4 67.1,152.4 67.1,152.4 66.5,152.3 "/>
<g>
	<rect x="53.5" y="151.7" class="st5" width="24.6" height="19.4"/>
	<path class="st0" d="M66.4,165.5h-4.9v-1.6c0.2-0.3,0.5-0.8,0.9-1.4l3.3-4.8h3v6h1.5v1.8h-1.5v2.2h-2.3V165.5z M66.5,163.8v-3   c0-0.4,0-0.8,0-1.3l0,0c-0.2,0.4-0.5,0.9-0.7,1.3l-1.8,2.6l-0.3,0.5h2.8V163.8z"/>
</g>
<path class="st6" d="M134.6,182.3c0,2.3,1.9,4.2,4.2,4.2s4.2-1.9,4.2-4.2s-1.9-4.2-4.2-4.2S134.6,180,134.6,182.3z"/>
<polygon class="st4" points="214.1,186.7 213.8,187.3 265,214.5 265.4,213.8 214.2,186.5 "/>
<polygon class="st4" points="214.8,18 163.5,62.5 164.1,63.2 215.6,18.6 215,17.9 "/>
<polygon class="st4" points="131.2,89.4 113.5,23.9 112.6,24.1 130.3,89.9 131.2,89.7 "/>
<g>
	<path class="st6" d="M298.4,96.6c0,5.6,4.6,10.2,10.3,10.2c5.7,0,10.3-4.5,10.3-10.2c0-5.6-4.6-10.2-10.3-10.2   C303,86.4,298.4,91,298.4,96.6z"/>
	<polygon class="st4" points="308.1,86.1 308,86.1 307.4,86.2 307.4,86.2 306.7,86.3 306.7,86.3 306.1,86.4 306.1,86.4 305.5,86.6    305.5,86.6 304.9,86.8 304.8,86.8 304.3,87 304.3,87 303.7,87.3 303.7,87.3 303.2,87.6 303.1,87.6 302.6,88 302.6,88 302.1,88.3    302.1,88.4 301.6,88.7 301.6,88.8 301.2,89.2 301.2,89.2 300.7,89.6 300.7,89.6 300.3,90.1 300.3,90.1 300,90.6 299.9,90.6    299.6,91.1 299.6,91.1 299.3,91.7 299.3,91.7 299,92.2 299,92.2 298.8,92.8 298.8,92.8 298.6,93.4 298.5,93.4 298.4,94 298.4,94    298.2,94.6 298.2,94.7 298.1,95.3 298.1,95.3 298.1,95.9 298.1,96 298,96.6 298,96.6 298.1,97.3 298.1,97.3 298.1,97.9 298.1,98    298.2,98.6 298.2,98.6 298.4,99.2 298.4,99.2 298.5,99.8 298.5,99.8 298.8,100.4 298.8,100.4 299,101 299,101 299.3,101.6    299.3,101.6 299.6,102.1 299.6,102.1 299.9,102.6 300,102.6 300.3,103.1 300.3,103.1 300.7,103.6 300.7,103.6 301.2,104.1    301.2,104.1 301.6,104.5 301.6,104.5 302.1,104.9 302.1,104.9 302.6,105.3 302.6,105.3 303.1,105.6 303.1,105.6 303.7,105.9    303.7,105.9 304.2,106.2 304.3,106.2 304.8,106.4 304.9,106.4 305.4,106.7 305.5,106.7 306.1,106.8 306.1,106.8 306.7,107    306.7,107 307.3,107.1 307.4,107.1 308,107.1 308,107.1 308.7,107.2 309.4,107.1 309.4,107.1 310,107.1 310,107.1 310.7,107    310.7,107 311.3,106.8 311.3,106.8 311.9,106.7 312,106.7 312.5,106.5 312.6,106.4 313.1,106.2 313.1,106.2 313.7,105.9    313.7,105.9 314.3,105.6 314.3,105.6 314.8,105.3 314.8,105.3 315.3,104.9 315.3,104.9 315.8,104.5 315.8,104.5 316.2,104.1    316.2,104.1 316.7,103.6 316.7,103.6 317.1,103.2 317.1,103.1 317.4,102.7 317.5,102.6 317.8,102.1 317.8,102.1 318.1,101.6    318.1,101.6 318.4,101 318.4,101 318.6,100.5 318.6,100.4 318.9,99.9 318.9,99.8 319,99.2 319,99.2 319.2,98.6 319.2,98.6    319.3,98 319.3,97.9 319.3,97.3 319.3,97.3 319.4,96.6 319.3,96 319.3,96 319.3,95.3 319.3,95.3 319.2,94.7 319.2,94.7 319,94.1    319,94 318.9,93.4 318.9,93.4 318.7,92.8 318.6,92.8 318.4,92.3 318.4,92.2 318.1,91.7 318.1,91.7 317.8,91.1 317.8,91.1    317.5,90.6 317.5,90.6 317.1,90.1 317.1,90.1 316.7,89.7 316.7,89.6 316.3,89.2 316.2,89.2 315.8,88.8 315.8,88.8 315.3,88.4    315.3,88.4 314.8,88 314.8,88 314.3,87.6 314.3,87.6 313.7,87.3 313.7,87.3 313.2,87.1 313.1,87 312.6,86.8 312.6,86.8 312,86.6    311.9,86.6 311.4,86.4 311.3,86.4 310.7,86.3 310.7,86.3 310.1,86.2 310,86.2 309.4,86.1 309.4,86.1 308.7,86.1  "/>
	<g>
		<rect x="298.2" y="85.4" class="st5" width="21" height="19.4"/>
		<path class="st0" d="M304.6,99.1l2.4-1c0.1,1.1,0.7,1.5,1.7,1.5c0.8,0,1.3-0.5,1.3-1.2c0-0.8-0.5-1.1-1.3-1.1c-0.3,0-0.5,0-0.7,0    v-1.7c0.2,0,0.3,0,0.5,0c0.9,0,1.3-0.4,1.3-1.2c0-0.7-0.4-1.1-1.2-1.1c-0.8,0-1.3,0.4-1.5,1.4l-2.3-0.8c0.3-1.7,1.9-2.6,3.9-2.6    c2.3,0,3.5,1.1,3.5,2.7c0,1.7-1.3,2.3-1.9,2.4l0,0c0.7,0,2.1,0.5,2.1,2.1c0,1.9-1.6,3-3.8,3C306.6,101.6,305.1,100.7,304.6,99.1z"/>
	</g>
</g>
<g>
	<polygon class="st4" points="114.4,14 114.4,14 113.7,14.1 113.7,14.1 113.1,14.2 113,14.2 112.4,14.3 112.4,14.3 111.8,14.5    111.8,14.5 111.2,14.7 111.2,14.7 110.6,14.9 110.6,14.9 110,15.2 110,15.2 109.5,15.5 109.5,15.5 109,15.8 108.9,15.9 108.5,16.2    108.4,16.2 108,16.6 108,16.6 107.5,17 107.5,17.1 107.1,17.5 107.1,17.5 106.7,18 106.7,18 106.3,18.5 106.3,18.5 105.9,19    105.9,19 105.6,19.5 105.6,19.6 105.3,20.1 105.3,20.1 105.1,20.7 105.1,20.7 104.9,21.3 104.9,21.3 104.7,21.9 104.7,21.9    104.6,22.5 104.6,22.5 104.5,23.2 104.5,23.2 104.4,23.8 104.4,23.8 104.4,24.5 104.4,24.5 104.4,25.2 104.4,25.2 104.5,25.8    104.5,25.8 104.6,26.4 104.6,26.5 104.7,27.1 104.7,27.1 104.9,27.7 104.9,27.7 105.1,28.3 105.1,28.3 105.3,28.9 105.3,28.9    105.6,29.4 105.6,29.5 105.9,30 105.9,30 106.3,30.5 106.3,30.5 106.7,31 106.7,31 107.1,31.5 107.1,31.5 107.5,31.9 107.5,31.9    107.9,32.4 108,32.4 108.4,32.8 108.4,32.8 108.9,33.1 108.9,33.2 109.5,33.5 109.5,33.5 110,33.8 110,33.8 110.6,34.1 110.6,34.1    111.2,34.3 111.2,34.3 111.8,34.5 111.8,34.5 112.4,34.7 112.4,34.7 113,34.8 113,34.9 113.7,34.9 113.7,35 114.3,35 114.4,35    115,35 115.7,35 115.7,35 116.4,35 116.4,35 117,34.9 117,34.9 117.6,34.7 117.7,34.7 118.3,34.5 118.3,34.5 118.9,34.3    118.9,34.3 119.5,34.1 119.5,34.1 120,33.8 120.1,33.8 120.6,33.5 120.6,33.5 121.1,33.2 121.1,33.1 121.6,32.8 121.6,32.8    122.1,32.4 122.1,32.4 122.6,32 122.6,31.9 123,31.5 123,31.5 123.4,31 123.4,31 123.8,30.5 123.8,30.5 124.1,30 124.1,30    124.4,29.5 124.5,29.4 124.7,28.9 124.7,28.9 125,28.3 125,28.3 125.2,27.7 125.2,27.7 125.4,27.1 125.4,27.1 125.5,26.5    125.5,26.5 125.6,25.8 125.6,25.8 125.7,25.2 125.7,25.2 125.7,24.5 125.7,23.9 125.7,23.8 125.6,23.2 125.6,23.2 125.5,22.6    125.5,22.5 125.4,21.9 125.4,21.9 125.2,21.3 125.2,21.3 125,20.7 125,20.7 124.7,20.1 124.7,20.1 124.5,19.6 124.4,19.5 124.1,19    124.1,19 123.8,18.5 123.8,18.5 123.4,18 123.4,18 123,17.5 123,17.5 122.6,17.1 122.6,17.1 122.1,16.6 122.1,16.6 121.6,16.2    121.6,16.2 121.1,15.9 121.1,15.9 120.6,15.5 120.6,15.5 120.1,15.2 120,15.2 119.5,14.9 119.5,14.9 118.9,14.7 118.9,14.7    118.3,14.5 118.3,14.5 117.7,14.3 117.7,14.3 117,14.2 117,14.2 116.4,14.1 116.4,14.1 115.7,14 115.7,14 115,14  "/>
	<g>
		<rect x="103.5" y="13.3" class="st5" width="23.2" height="19.4"/>
		<path class="st0" d="M111.2,27.2l2.3-1.1c0.2,0.8,0.7,1.3,1.7,1.3c0.9,0,1.5-0.5,1.5-1.5c0-0.9-0.5-1.4-1.5-1.4    c-0.7,0-1.2,0.2-1.6,0.6l-2-0.4l0.6-5.6h6.3v2h-4.4l-0.3,2v0.2l0,0c0.4-0.5,1.2-0.7,2.1-0.7c2,0,3.1,1.3,3.1,3    c0,2.5-1.8,3.6-3.9,3.6C113.3,29.4,112,28.8,111.2,27.2z"/>
	</g>
</g>
<g>
	<polygon class="st4" points="212.4,8.9 212.3,8.9 211.7,8.9 211.7,8.9 211,9 211,9 210.4,9.2 210.4,9.2 209.8,9.3 209.8,9.4    209.2,9.6 209.1,9.6 208.6,9.8 208.6,9.8 208,10.1 208,10.1 207.5,10.4 207.4,10.4 206.9,10.7 206.9,10.7 206.4,11.1 206.4,11.1    205.9,11.5 205.9,11.5 205.5,11.9 205.5,11.9 205,12.4 205,12.4 204.6,12.9 204.6,12.9 204.3,13.4 204.2,13.4 203.9,13.9    203.9,13.9 203.6,14.4 203.6,14.4 203.3,15 203.3,15 203.1,15.6 203.1,15.6 202.9,16.2 202.8,16.2 202.7,16.8 202.7,16.8    202.5,17.4 202.5,17.4 202.4,18 202.4,18.1 202.4,18.7 202.4,18.7 202.3,19.4 202.3,19.4 202.4,20 202.4,20.1 202.4,20.7    202.4,20.7 202.5,21.3 202.5,21.4 202.7,22 202.7,22 202.8,22.6 202.8,22.6 203.1,23.2 203.1,23.2 203.3,23.8 203.3,23.8    203.6,24.3 203.6,24.3 203.9,24.9 203.9,24.9 204.2,25.4 204.3,25.4 204.6,25.9 204.6,25.9 205,26.4 205,26.4 205.4,26.8    205.5,26.8 205.9,27.3 205.9,27.3 206.4,27.7 206.4,27.7 206.9,28 206.9,28 207.4,28.4 207.4,28.4 208,28.7 208,28.7 208.5,29    208.6,29 209.1,29.2 209.2,29.2 209.7,29.4 209.8,29.4 210.4,29.6 210.4,29.6 211,29.7 211,29.7 211.6,29.8 211.7,29.8 212.3,29.9    212.3,29.9 213,29.9 213.7,29.9 213.7,29.9 214.3,29.8 214.3,29.8 215,29.7 215,29.7 215.6,29.6 215.6,29.6 216.2,29.4 216.2,29.4    216.8,29.2 216.9,29.2 217.4,29 217.5,29 218,28.7 218,28.7 218.6,28.4 218.6,28.4 219.1,28 219.1,28 219.6,27.7 219.6,27.7    220.1,27.3 220.1,27.3 220.5,26.9 220.5,26.8 221,26.4 221,26.4 221.4,25.9 221.4,25.9 221.7,25.4 221.8,25.4 222.1,24.9    222.1,24.9 222.4,24.4 222.4,24.3 222.7,23.8 222.7,23.8 222.9,23.2 223,23.2 223.2,22.6 223.2,22.6 223.3,22 223.3,22 223.5,21.4    223.5,21.4 223.6,20.7 223.6,20.7 223.6,20.1 223.6,20.1 223.7,19.4 223.6,18.7 223.6,18.7 223.6,18.1 223.6,18.1 223.5,17.4    223.5,17.4 223.3,16.8 223.3,16.8 223.2,16.2 223.2,16.2 223,15.6 223,15.6 222.7,15 222.7,15 222.4,14.5 222.4,14.4 222.1,13.9    222.1,13.9 221.8,13.4 221.8,13.4 221.4,12.9 221.4,12.9 221,12.4 221,12.4 220.6,12 220.5,11.9 220.1,11.5 220.1,11.5 219.6,11.1    219.6,11.1 219.1,10.8 219.1,10.7 218.6,10.4 218.6,10.4 218,10.1 218,10.1 217.5,9.8 217.4,9.8 216.9,9.6 216.9,9.6 216.3,9.4    216.2,9.4 215.7,9.2 215.6,9.2 215,9 215,9 214.4,8.9 214.3,8.9 213.7,8.9 213.7,8.9 213,8.9  "/>
	<g>
		<rect x="201.5" y="8.5" class="st5" width="22.7" height="19.4"/>
		<path class="st0" d="M216.9,16.5l-2.1,1c-0.2-0.7-0.7-1.2-1.5-1.2c-1.2,0-1.9,1.1-1.9,2.9v0.2v0.1c0.3-0.9,1.5-1.4,2.5-1.4    c1.8,0,3.2,1.1,3.2,3c0,2.1-1.5,3.3-3.8,3.3c-2.6,0-4.3-1.7-4.3-5.1c0-3.5,1.9-5.2,4.5-5.2C215,14.3,216.3,14.9,216.9,16.5z     M211.8,21.3c0,0.8,0.6,1.3,1.4,1.3c0.9,0,1.4-0.5,1.4-1.3s-0.5-1.3-1.4-1.3C212.4,20,211.8,20.5,211.8,21.3z"/>
	</g>
</g>
<path class="st4" d="M255.8,72.1c0,2.9-2.4,5.3-5.3,5.3c-2.9,0-5.3-2.4-5.3-5.3c0-2.9,2.4-5.3,5.3-5.3  C253.4,66.8,255.8,69.1,255.8,72.1z"/>
<path class="st4" d="M136.5,89.9c0,2.9-2.4,5.3-5.3,5.3c-2.9,0-5.3-2.4-5.3-5.3c0-2.9,2.4-5.3,5.3-5.3  C134.1,84.6,136.5,86.9,136.5,89.9z"/>
<path class="st4" d="M119.2,167.6c0,2.9-2.4,5.3-5.3,5.3s-5.3-2.4-5.3-5.3c0-2.9,2.4-5.3,5.3-5.3  C116.9,162.4,119.2,164.7,119.2,167.6z"/>
<path class="st4" d="M144.6,177.5c0,2.9-2.4,5.3-5.3,5.3c-2.9,0-5.3-2.4-5.3-5.3c0-2.9,2.4-5.3,5.3-5.3  C142.2,172.2,144.6,174.6,144.6,177.5z"/>
<path class="st4" d="M171.2,59.8c0,2.9-2.4,5.3-5.3,5.3c-2.9,0-5.3-2.4-5.3-5.3s2.4-5.3,5.3-5.3C168.9,54.5,171.2,56.8,171.2,59.8z"/>
<path class="st4" d="M219.1,186.5c0,2.9-2.4,5.3-5.3,5.3c-2.9,0-5.3-2.4-5.3-5.3c0-2.9,2.4-5.3,5.3-5.3  C216.7,181.2,219.1,183.6,219.1,186.5z"/>
<g>
	<polygon class="st4" points="271.4,205.9 271.4,205.9 270.8,206 270.7,206 270.1,206.1 270.1,206.1 269.5,206.2 269.5,206.2    268.9,206.4 268.8,206.4 268.3,206.6 268.2,206.6 267.7,206.9 267.6,206.9 267.1,207.1 267.1,207.2 266.5,207.5 266.5,207.5    266,207.8 266,207.8 265.5,208.2 265.5,208.2 265,208.6 265,208.6 264.6,209 264.6,209 264.1,209.4 264.1,209.5 263.7,209.9    263.7,209.9 263.3,210.4 263.3,210.4 263,210.9 263,211 262.7,211.5 262.7,211.5 262.4,212.1 262.4,212.1 262.2,212.6 262.1,212.6    261.9,213.2 261.9,213.3 261.8,213.8 261.8,213.9 261.6,214.5 261.6,214.5 261.5,215.1 261.5,215.1 261.5,215.8 261.5,215.8    261.4,216.4 261.4,216.5 261.5,217.1 261.5,217.1 261.5,217.8 261.5,217.8 261.6,218.4 261.6,218.4 261.8,219 261.8,219.1    261.9,219.6 261.9,219.7 262.1,220.2 262.1,220.3 262.4,220.8 262.4,220.8 262.7,221.4 262.7,221.4 263,221.9 263,222 263.3,222.5    263.3,222.5 263.7,223 263.7,223 264.1,223.4 264.1,223.4 264.5,223.9 264.6,223.9 265,224.3 265,224.3 265.5,224.7 265.5,224.7    266,225.1 266,225.1 266.5,225.4 266.5,225.4 267.1,225.8 267.1,225.8 267.6,226 267.7,226 268.2,226.3 268.2,226.3 268.8,226.5    268.8,226.5 269.4,226.7 269.5,226.7 270.1,226.8 270.1,226.8 270.7,226.9 270.8,226.9 271.4,227 271.4,227 272.1,227 272.8,227    272.8,227 273.4,226.9 273.4,226.9 274.1,226.8 274.1,226.8 274.7,226.7 274.7,226.7 275.3,226.5 275.3,226.5 275.9,226.3    275.9,226.3 276.5,226 276.5,226 277.1,225.8 277.1,225.8 277.6,225.5 277.7,225.4 278.2,225.1 278.2,225.1 278.7,224.7    278.7,224.7 279.2,224.3 279.2,224.3 279.6,223.9 279.6,223.9 280,223.5 280.1,223.4 280.5,223 280.5,223 280.8,222.5 280.8,222.5    281.2,222 281.2,221.9 281.5,221.4 281.5,221.4 281.8,220.9 281.8,220.8 282,220.3 282,220.3 282.2,219.7 282.3,219.7 282.4,219.1    282.4,219 282.6,218.4 282.6,218.4 282.7,217.8 282.7,217.8 282.7,217.1 282.7,217.1 282.8,216.5 282.7,215.8 282.7,215.8    282.7,215.1 282.7,215.1 282.6,214.5 282.6,214.5 282.4,213.9 282.4,213.9 282.3,213.3 282.3,213.2 282,212.7 282,212.6    281.8,212.1 281.8,212.1 281.5,211.5 281.5,211.5 281.2,211 281.2,211 280.9,210.5 280.8,210.4 280.5,209.9 280.5,209.9    280.1,209.5 280.1,209.5 279.6,209 279.6,209 279.2,208.6 279.2,208.6 278.7,208.2 278.7,208.2 278.2,207.8 278.2,207.8    277.7,207.5 277.7,207.5 277.1,207.2 277.1,207.2 276.5,206.9 276.5,206.9 276,206.6 275.9,206.6 275.4,206.4 275.3,206.4    274.7,206.2 274.7,206.2 274.1,206.1 274.1,206.1 273.4,206 273.4,206 272.8,205.9 272.8,205.9 272.1,205.9  "/>
	<g>
		<rect x="262.3" y="205.5" class="st5" width="19.7" height="19.4"/>
		<path class="st0" d="M271.8,215.7c0-0.5,0-1.1,0-1.7c-0.7,0.6-1.5,1.1-2.4,1.3l-0.2-2.2c1-0.1,2.6-0.9,3-1.7h2.1v10h-2.5    L271.8,215.7L271.8,215.7z"/>
	</g>
</g>
<polygon class="st4" points="136,181.7 95.4,251.1 97.2,252.1 138,182.3 136.3,181.3 "/>
<g>
	<polygon class="st4" points="95.5,239.4 95.5,239.4 94.9,239.5 94.8,239.5 94.2,239.6 94.2,239.6 93.6,239.7 93.5,239.7    92.9,239.9 92.9,239.9 92.3,240.1 92.3,240.1 91.7,240.3 91.7,240.3 91.2,240.6 91.2,240.6 90.6,240.9 90.6,240.9 90.1,241.2    90.1,241.3 89.6,241.6 89.6,241.6 89.1,242 89.1,242 88.6,242.4 88.6,242.5 88.2,242.9 88.2,242.9 87.8,243.4 87.8,243.4    87.4,243.9 87.4,243.9 87.1,244.4 87.1,244.4 86.8,244.9 86.8,245 86.5,245.5 86.5,245.5 86.2,246.1 86.2,246.1 86,246.7 86,246.7    85.8,247.3 85.8,247.3 85.7,247.9 85.7,247.9 85.6,248.6 85.6,248.6 85.5,249.2 85.5,249.2 85.5,249.9 85.5,249.9 85.5,250.6    85.5,250.6 85.6,251.2 85.6,251.2 85.7,251.8 85.7,251.9 85.8,252.5 85.8,252.5 86,253.1 86,253.1 86.2,253.7 86.2,253.7    86.5,254.3 86.5,254.3 86.7,254.8 86.8,254.9 87.1,255.4 87.1,255.4 87.4,255.9 87.4,255.9 87.8,256.4 87.8,256.4 88.2,256.9    88.2,256.9 88.6,257.3 88.6,257.4 89.1,257.8 89.1,257.8 89.6,258.2 89.6,258.2 90.1,258.5 90.1,258.6 90.6,258.9 90.6,258.9    91.1,259.2 91.2,259.2 91.7,259.5 91.7,259.5 92.3,259.7 92.3,259.7 92.9,259.9 92.9,259.9 93.5,260.1 93.5,260.1 94.2,260.3    94.2,260.3 94.8,260.4 94.8,260.4 95.5,260.4 95.5,260.4 96.2,260.4 96.8,260.4 96.9,260.4 97.5,260.4 97.5,260.4 98.1,260.3    98.2,260.3 98.8,260.1 98.8,260.1 99.4,259.9 99.4,259.9 100,259.7 100,259.7 100.6,259.5 100.6,259.5 101.2,259.2 101.2,259.2    101.7,258.9 101.7,258.9 102.2,258.6 102.3,258.5 102.8,258.2 102.8,258.2 103.2,257.8 103.3,257.8 103.7,257.4 103.7,257.4    104.1,256.9 104.1,256.9 104.5,256.4 104.5,256.4 104.9,255.9 104.9,255.9 105.3,255.4 105.3,255.4 105.6,254.9 105.6,254.9    105.9,254.3 105.9,254.3 106.1,253.7 106.1,253.7 106.3,253.1 106.3,253.1 106.5,252.5 106.5,252.5 106.6,251.9 106.6,251.9    106.7,251.2 106.7,251.2 106.8,250.6 106.8,250.6 106.8,249.9 106.8,249.3 106.8,249.2 106.8,248.6 106.7,248.6 106.7,248    106.6,247.9 106.5,247.3 106.5,247.3 106.3,246.7 106.3,246.7 106.1,246.1 106.1,246.1 105.9,245.5 105.9,245.5 105.6,245    105.6,244.9 105.3,244.4 105.3,244.4 104.9,243.9 104.9,243.9 104.6,243.4 104.5,243.4 104.2,242.9 104.1,242.9 103.7,242.5    103.7,242.5 103.3,242 103.2,242 102.8,241.6 102.8,241.6 102.3,241.3 102.3,241.3 101.8,240.9 101.7,240.9 101.2,240.6    101.2,240.6 100.6,240.3 100.6,240.3 100,240.1 100,240.1 99.4,239.9 99.4,239.9 98.8,239.7 98.8,239.7 98.2,239.6 98.2,239.6    97.5,239.5 97.5,239.5 96.9,239.4 96.8,239.4 96.2,239.4  "/>
	<g>
		<rect x="83.5" y="234.6" class="st5" width="24.8" height="27.3"/>
		<path class="st0" d="M92.3,252.8c3.4-2.1,4.8-3.7,4.8-5.1c0-0.8-0.5-1.3-1.3-1.3c-1,0-1.5,0.7-1.5,2l-2.2-0.7    c0-2.2,1.7-3.4,3.9-3.4c2.7,0,3.8,1.7,3.8,3.2c0,2-1.5,3.4-4.2,5l0,0c0.5,0,1.4-0.1,2-0.1h2.3v2h-7.5v-1.6H92.3z"/>
	</g>
</g>
<g>
	<rect x="-3.5" y="13.1" class="st7" width="107.1" height="24.8"/>
	<path class="st8" d="M12.2,21.5c-2,0-3.2-1.3-3.2-3.4c0-2.1,1.2-3.4,3.2-3.4c1.3,0,2.4,0.6,2.7,1.7L13.7,17   c-0.2-0.8-0.7-1.1-1.4-1.1c-1.1,0-1.8,0.8-1.8,2.3c0,1.5,0.6,2.3,1.8,2.3c0.7,0,1.3-0.4,1.5-1.2l1.3,0.4   C14.6,20.9,13.5,21.5,12.2,21.5z"/>
	<path class="st8" d="M20.6,19.4h-3.5c0.1,0.8,0.6,1.1,1.2,1.1c0.6,0,0.9-0.2,1.1-0.6l1.1,0.4c-0.3,0.8-1.2,1.2-2.2,1.2   c-1.6,0-2.6-1-2.6-2.6s1-2.6,2.5-2.6c1.5,0,2.4,1,2.4,2.3C20.7,18.9,20.6,19.2,20.6,19.4z M17.1,18.4h2.2c-0.1-0.7-0.4-1.1-1.1-1.1   C17.6,17.3,17.2,17.7,17.1,18.4z"/>
	<path class="st8" d="M21.7,15c0-0.5,0.3-0.7,0.8-0.7s0.8,0.2,0.8,0.7s-0.3,0.7-0.8,0.7S21.7,15.5,21.7,15z M23.2,21.4h-1.4v-5h1.4   V21.4z"/>
	<path class="st8" d="M29.4,18.1v3.3h-1.4v-2.9c0-0.8-0.4-1.1-0.9-1.1c-0.6,0-1.1,0.4-1.1,1.4v2.6h-1.4v-5h1.2l0.1,0.9   c0.3-0.7,0.9-1,1.7-1C28.7,16.3,29.4,16.9,29.4,18.1z"/>
	<path class="st8" d="M34.3,21.1c-0.3,0.3-0.8,0.4-1.4,0.4c-1,0-1.7-0.4-1.7-1.5v-2.6h-0.9v-1h0.9v-1.1l1.4-0.4v1.5h1.6v1h-1.6v2.3   c0,0.5,0.3,0.7,0.7,0.7c0.3,0,0.6-0.1,0.8-0.3L34.3,21.1z"/>
	<path class="st8" d="M35.1,19.7v-3.3h1.4v3c0,0.8,0.3,1,0.9,1c0.6,0,1.1-0.4,1.1-1.3v-2.7h1.4v5h-1.2l-0.1-0.9   c-0.3,0.7-0.9,1-1.7,1C35.8,21.5,35.1,21,35.1,19.7z"/>
	<path class="st8" d="M41.3,16.4h1.2l0.1,1c0.3-0.7,0.8-1.1,1.5-1.1c0.2,0,0.4,0,0.5,0.1l-0.2,1.1c-0.1,0-0.3-0.1-0.6-0.1   c-0.6,0-1.2,0.4-1.2,1.3v2.6h-1.4V16.4z"/>
	<path class="st8" d="M50,19.4h-3.5c0.1,0.8,0.6,1.1,1.2,1.1c0.6,0,0.9-0.2,1.1-0.6l1.1,0.4c-0.3,0.8-1.2,1.2-2.2,1.2   c-1.6,0-2.6-1-2.6-2.6s1-2.6,2.5-2.6c1.5,0,2.4,1,2.4,2.3C50,18.9,50,19.2,50,19.4z M46.5,18.4h2.2c-0.1-0.7-0.4-1.1-1.1-1.1   C47,17.3,46.6,17.7,46.5,18.4z"/>
	<path class="st8" d="M58.8,19.4h-3.5c0.1,0.8,0.6,1.1,1.2,1.1c0.6,0,0.9-0.2,1.1-0.6l1.1,0.4c-0.3,0.8-1.2,1.2-2.2,1.2   c-1.6,0-2.6-1-2.6-2.6s1-2.6,2.5-2.6c1.5,0,2.4,1,2.4,2.3C58.9,18.9,58.9,19.2,58.8,19.4z M55.3,18.4h2.2c-0.1-0.7-0.4-1.1-1.1-1.1   C55.9,17.3,55.4,17.7,55.3,18.4z M56.8,15.7h-1l0.7-1.7h1.3L56.8,15.7z"/>
	<path class="st8" d="M61.4,19.9c0,0.5,0.1,0.6,0.5,0.6c0.2,0,0.3,0,0.6-0.1l-0.1,0.9c-0.2,0.1-0.6,0.2-0.9,0.2   c-1,0-1.4-0.4-1.4-1.5v-5.8h1.4V19.9z"/>
	<path class="st8" d="M68.2,20.5l-0.1,0.8c-0.2,0.1-0.4,0.1-0.6,0.1c-0.6,0-1-0.2-1.2-0.7c-0.3,0.5-1,0.7-1.6,0.7   c-1,0-1.6-0.5-1.6-1.3c0-0.7,0.5-1.2,1.4-1.4l1.7-0.4v-0.2c0-0.6-0.4-0.9-0.9-0.9c-0.5,0-0.9,0.2-1.1,0.8L63,17.8   c0.2-0.9,1-1.5,2.3-1.5c1.3,0,2.2,0.6,2.2,1.8v2c0,0.3,0.1,0.4,0.4,0.4C68,20.6,68.1,20.6,68.2,20.5z M66.1,19.6v-0.3l-1,0.2   c-0.5,0.1-0.7,0.2-0.7,0.6c0,0.3,0.3,0.5,0.6,0.5C65.6,20.6,66.1,20.3,66.1,19.6z"/>
	<path class="st8" d="M68.6,20.5l0.8-0.8c0.3,0.5,0.9,0.8,1.6,0.8c0.5,0,0.9-0.1,0.9-0.5c0-0.2-0.1-0.4-0.5-0.5l-0.9-0.2   c-1.2-0.2-1.6-0.7-1.6-1.5c0-0.8,0.7-1.6,2.2-1.6c1,0,1.7,0.3,2.2,0.9l-0.8,0.8c-0.3-0.5-0.8-0.7-1.3-0.7c-0.6,0-0.9,0.2-0.9,0.5   c0,0.2,0.2,0.4,0.6,0.5l1,0.2c1,0.2,1.4,0.7,1.4,1.4c0,1-0.8,1.7-2.2,1.7C70,21.5,69.1,21.2,68.6,20.5z"/>
	<path class="st8" d="M77.8,21.1c-0.3,0.3-0.8,0.4-1.4,0.4c-1,0-1.7-0.4-1.7-1.5v-2.6h-0.9v-1h0.9v-1.1l1.4-0.4v1.5h1.6v1h-1.6v2.3   c0,0.5,0.3,0.7,0.7,0.7c0.3,0,0.6-0.1,0.8-0.3L77.8,21.1z"/>
	<path class="st8" d="M78.5,15c0-0.5,0.3-0.7,0.8-0.7s0.8,0.2,0.8,0.7s-0.3,0.7-0.8,0.7S78.5,15.5,78.5,15z M80,21.4h-1.4v-5H80   V21.4z"/>
	<path class="st8" d="M86.3,16.4v7.1h-1.4v-2.9c-0.3,0.6-0.9,0.9-1.6,0.9c-1.2,0-2.1-1-2.1-2.6c0-1.6,0.9-2.6,2.2-2.6   c0.7,0,1.3,0.4,1.6,1l0.1-0.9H86.3z M84.9,18.9c0-1-0.5-1.5-1.2-1.5c-0.7,0-1.2,0.5-1.2,1.5c0,1,0.4,1.5,1.2,1.5   C84.4,20.5,84.9,19.9,84.9,18.9z"/>
	<path class="st8" d="M87.7,19.7v-3.3h1.4v3c0,0.8,0.3,1,0.9,1c0.6,0,1.1-0.4,1.1-1.3v-2.7h1.4v5h-1.2l-0.1-0.9   c-0.3,0.7-0.9,1-1.7,1C88.5,21.5,87.7,21,87.7,19.7z"/>
	<path class="st8" d="M98.5,19.4H95c0.1,0.8,0.6,1.1,1.2,1.1c0.6,0,0.9-0.2,1.1-0.6l1.1,0.4c-0.3,0.8-1.2,1.2-2.2,1.2   c-1.6,0-2.6-1-2.6-2.6s1-2.6,2.5-2.6c1.5,0,2.4,1,2.4,2.3C98.5,18.9,98.5,19.2,98.5,19.4z M95,18.4h2.2c-0.1-0.7-0.4-1.1-1.1-1.1   C95.5,17.3,95.1,17.7,95,18.4z"/>
	<path class="st8" d="M45.8,31.4h-3.5c0.1,0.8,0.6,1.1,1.2,1.1c0.6,0,0.9-0.2,1.1-0.6l1.1,0.4c-0.3,0.8-1.2,1.2-2.2,1.2   c-1.6,0-2.6-1-2.6-2.6c0-1.6,1-2.6,2.5-2.6c1.5,0,2.4,1,2.4,2.3C45.9,30.9,45.8,31.2,45.8,31.4z M42.3,30.4h2.2   c-0.1-0.7-0.4-1.1-1.1-1.1C42.8,29.3,42.4,29.7,42.3,30.4z"/>
	<path class="st8" d="M50.4,33.1c-0.3,0.3-0.8,0.4-1.4,0.4c-1,0-1.7-0.4-1.7-1.5v-2.6h-0.9v-1h0.9v-1.1l1.4-0.4v1.5h1.6v1h-1.6v2.3   c0,0.5,0.3,0.7,0.7,0.7c0.3,0,0.6-0.1,0.8-0.3L50.4,33.1z"/>
	<path class="st8" d="M59.2,32.5l-0.1,0.8c-0.2,0.1-0.4,0.1-0.6,0.1c-0.6,0-1-0.2-1.2-0.7c-0.3,0.5-1,0.7-1.6,0.7   c-1,0-1.6-0.5-1.6-1.3c0-0.7,0.5-1.2,1.4-1.4l1.7-0.4v-0.2c0-0.6-0.4-0.9-0.9-0.9c-0.5,0-0.9,0.2-1.1,0.8L54,29.8   c0.2-0.9,1-1.5,2.3-1.5c1.3,0,2.2,0.6,2.2,1.8v2c0,0.3,0.1,0.4,0.4,0.4C59,32.6,59.1,32.6,59.2,32.5z M57.1,31.6v-0.3l-1,0.2   c-0.5,0.1-0.7,0.2-0.7,0.6c0,0.3,0.3,0.5,0.6,0.5C56.6,32.6,57.1,32.3,57.1,31.6z"/>
	<path class="st8" d="M61.4,33.8c0,1.3-0.8,1.8-1.8,1.8c-0.5,0-0.9-0.1-1.2-0.3l0.2-1c0.2,0.1,0.4,0.2,0.7,0.2   c0.4,0,0.7-0.2,0.7-0.8v-5.2h1.4V33.8z M59.9,27c0-0.5,0.3-0.7,0.8-0.7s0.8,0.2,0.8,0.7s-0.3,0.7-0.8,0.7S59.9,27.5,59.9,27z"/>
	<path class="st8" d="M62.8,31.7v-3.3h1.4v3c0,0.8,0.3,1,0.9,1c0.6,0,1.1-0.4,1.1-1.3v-2.7h1.4v5h-1.2l-0.1-0.9   c-0.3,0.7-0.9,1-1.7,1C63.6,33.5,62.8,33,62.8,31.7z"/>
	<path class="st8" d="M68.6,32.5l0.8-0.8c0.3,0.5,0.9,0.8,1.6,0.8c0.5,0,0.9-0.1,0.9-0.5c0-0.2-0.1-0.4-0.5-0.5l-0.9-0.2   c-1.2-0.2-1.6-0.7-1.6-1.5c0-0.8,0.7-1.6,2.2-1.6c1,0,1.7,0.3,2.2,0.9l-0.8,0.8c-0.3-0.5-0.8-0.7-1.3-0.7c-0.6,0-0.9,0.2-0.9,0.5   c0,0.2,0.2,0.4,0.6,0.5l1,0.2c1,0.2,1.4,0.7,1.4,1.4c0,1-0.8,1.7-2.2,1.7C70,33.5,69.2,33.2,68.6,32.5z"/>
	<path class="st8" d="M77.8,33.1c-0.3,0.3-0.8,0.4-1.4,0.4c-1,0-1.7-0.4-1.7-1.5v-2.6h-0.9v-1h0.9v-1.1l1.4-0.4v1.5h1.6v1h-1.6v2.3   c0,0.5,0.3,0.7,0.7,0.7c0.3,0,0.6-0.1,0.8-0.3L77.8,33.1z"/>
	<path class="st8" d="M83.6,32.5l-0.1,0.8c-0.2,0.1-0.4,0.1-0.6,0.1c-0.6,0-1-0.2-1.2-0.7c-0.3,0.5-1,0.7-1.6,0.7   c-1,0-1.6-0.5-1.6-1.3c0-0.7,0.5-1.2,1.4-1.4l1.7-0.4v-0.2c0-0.6-0.4-0.9-0.9-0.9c-0.5,0-0.9,0.2-1.1,0.8l-1.2-0.4   c0.2-0.9,1-1.5,2.3-1.5c1.3,0,2.2,0.6,2.2,1.8v2c0,0.3,0.1,0.4,0.4,0.4C83.4,32.6,83.5,32.6,83.6,32.5z M81.5,31.6v-0.3l-1,0.2   c-0.5,0.1-0.7,0.2-0.7,0.6c0,0.3,0.3,0.5,0.6,0.5C81,32.6,81.5,32.3,81.5,31.6z"/>
	<path class="st8" d="M89.5,30.9c0,1.6-0.9,2.6-2.1,2.6c-0.8,0-1.4-0.5-1.7-1.1l-0.1,1h-1.2v-7.2h1.4v3c0.3-0.6,0.8-1,1.6-1   C88.6,28.3,89.5,29.3,89.5,30.9z M88.1,30.9c0-1-0.4-1.5-1.2-1.5c-0.7,0-1.2,0.6-1.2,1.6c0,1,0.5,1.5,1.2,1.5   C87.7,32.5,88.1,31.9,88.1,30.9z"/>
	<path class="st8" d="M92.1,31.9c0,0.5,0.1,0.6,0.5,0.6c0.2,0,0.3,0,0.6-0.1L93,33.3c-0.2,0.1-0.6,0.2-0.9,0.2c-1,0-1.4-0.4-1.4-1.5   v-5.8h1.4V31.9z"/>
	<path class="st8" d="M98.5,31.4H95c0.1,0.8,0.6,1.1,1.2,1.1c0.6,0,0.9-0.2,1.1-0.6l1.1,0.4c-0.3,0.8-1.2,1.2-2.2,1.2   c-1.6,0-2.6-1-2.6-2.6c0-1.6,1-2.6,2.5-2.6c1.5,0,2.4,1,2.4,2.3C98.5,30.9,98.5,31.2,98.5,31.4z M95,30.4h2.2   c-0.1-0.7-0.4-1.1-1.1-1.1C95.5,29.3,95.1,29.7,95,30.4z"/>
</g>
<g>
	<rect x="270" y="110.7" class="st7" width="77.9" height="24.1"/>
	<path class="st8" d="M291.7,119.1c-2,0-3.2-1.3-3.2-3.4c0-2.1,1.2-3.4,3.2-3.4c1.3,0,2.4,0.6,2.7,1.7l-1.2,0.5   c-0.2-0.8-0.7-1.1-1.4-1.1c-1.1,0-1.8,0.8-1.8,2.3c0,1.5,0.6,2.3,1.8,2.3c0.7,0,1.3-0.4,1.5-1.2l1.3,0.4   C294.1,118.5,293,119.1,291.7,119.1z"/>
	<path class="st8" d="M300.1,116.9h-3.5c0.1,0.8,0.6,1.1,1.2,1.1c0.6,0,0.9-0.2,1.1-0.6l1.1,0.4c-0.3,0.8-1.2,1.2-2.2,1.2   c-1.6,0-2.6-1-2.6-2.6s1-2.6,2.5-2.6c1.5,0,2.4,1,2.4,2.3C300.1,116.5,300.1,116.7,300.1,116.9z M296.6,116h2.2   c-0.1-0.7-0.5-1.1-1.1-1.1C297.1,114.9,296.7,115.3,296.6,116z"/>
	<path class="st8" d="M301.1,112.5c0-0.5,0.3-0.7,0.8-0.7s0.8,0.2,0.8,0.7s-0.3,0.7-0.8,0.7S301.1,113,301.1,112.5z M302.7,119h-1.4   v-5h1.4V119z"/>
	<path class="st8" d="M308.9,115.7v3.3h-1.4v-2.9c0-0.8-0.4-1.1-0.9-1.1c-0.6,0-1.1,0.4-1.1,1.4v2.6h-1.4v-5h1.2l0,0.9   c0.3-0.7,0.9-1,1.7-1C308.1,113.9,308.9,114.5,308.9,115.7z"/>
	<path class="st8" d="M313.7,118.7c-0.3,0.3-0.8,0.4-1.4,0.4c-1,0-1.7-0.4-1.7-1.5V115h-0.9v-1h0.9v-1.1l1.4-0.4v1.5h1.6v1H312v2.3   c0,0.5,0.3,0.7,0.7,0.7c0.3,0,0.6-0.1,0.8-0.3L313.7,118.7z"/>
	<path class="st8" d="M314.5,117.3V114h1.4v3c0,0.8,0.3,1,0.9,1c0.6,0,1.1-0.4,1.1-1.3V114h1.4v5h-1.2l-0.1-0.9   c-0.3,0.7-0.9,1-1.7,1C315.3,119.1,314.5,118.6,314.5,117.3z"/>
	<path class="st8" d="M320.7,114h1.2l0.1,1c0.3-0.7,0.8-1.1,1.5-1.1c0.2,0,0.4,0,0.5,0.1l-0.2,1.1c-0.1,0-0.3-0.1-0.6-0.1   c-0.6,0-1.2,0.4-1.2,1.3v2.6h-1.4V114z"/>
	<path class="st8" d="M329.5,116.9h-3.5c0.1,0.8,0.6,1.1,1.2,1.1c0.6,0,0.9-0.2,1.1-0.6l1.1,0.4c-0.3,0.8-1.2,1.2-2.2,1.2   c-1.6,0-2.6-1-2.6-2.6s1-2.6,2.5-2.6c1.5,0,2.4,1,2.4,2.3C329.5,116.5,329.5,116.7,329.5,116.9z M325.9,116h2.2   c-0.1-0.7-0.4-1.1-1.1-1.1C326.5,114.9,326.1,115.3,325.9,116z"/>
	<path class="st8" d="M286.5,123.8v7.2h-1.2l-0.1-1c-0.3,0.7-0.9,1.1-1.6,1.1c-1.2,0-2.1-1-2.1-2.6c0-1.7,0.9-2.6,2.2-2.6   c0.7,0,1.2,0.4,1.5,0.9v-3H286.5z M285.1,128.4c0-0.9-0.4-1.5-1.1-1.5c-0.7,0-1.2,0.5-1.2,1.5c0,1,0.4,1.5,1.2,1.5   C284.7,130,285.1,129.5,285.1,128.4z"/>
	<path class="st8" d="M292.5,128.9H289c0.1,0.8,0.6,1.1,1.2,1.1c0.6,0,0.9-0.2,1.1-0.6l1.1,0.4c-0.3,0.8-1.2,1.2-2.2,1.2   c-1.6,0-2.6-1-2.6-2.6s1-2.6,2.5-2.6c1.5,0,2.4,1,2.4,2.3C292.6,128.5,292.6,128.7,292.5,128.9z M289,128h2.2   c-0.1-0.7-0.5-1.1-1.1-1.1C289.6,126.9,289.2,127.3,289,128z M290.5,125.3h-1l0.7-1.7h1.3L290.5,125.3z"/>
	<path class="st8" d="M293.7,126h1.2l0.1,1c0.3-0.7,0.8-1.1,1.5-1.1c0.2,0,0.4,0,0.5,0.1l-0.2,1.1c-0.1,0-0.3-0.1-0.6-0.1   c-0.6,0-1.2,0.4-1.2,1.3v2.6h-1.4V126z"/>
	<path class="st8" d="M302.4,127.4l-1.3,0.5c-0.1-0.6-0.4-0.9-1-0.9c-0.8,0-1.2,0.5-1.2,1.6c0,1.1,0.5,1.6,1.2,1.6   c0.6,0,0.9-0.3,1-0.9l1.2,0.4c-0.2,0.9-1,1.5-2.3,1.5c-1.6,0-2.6-1-2.6-2.6s1-2.6,2.5-2.6C301.5,125.9,302.2,126.5,302.4,127.4z"/>
	<path class="st8" d="M303.5,123.8h1.4v3c0.3-0.6,0.9-0.9,1.6-0.9c1,0,1.8,0.6,1.8,1.8v3.3h-1.4v-2.9c0-0.9-0.4-1.1-0.9-1.1   c-0.6,0-1.1,0.4-1.1,1.4v2.6h-1.4V123.8z"/>
	<path class="st8" d="M309.5,124.5c0-0.5,0.3-0.7,0.8-0.7c0.6,0,0.8,0.2,0.8,0.7s-0.3,0.7-0.8,0.7   C309.8,125.3,309.5,125,309.5,124.5z M311.1,131h-1.4v-5h1.4V131z"/>
	<path class="st8" d="M312.5,126h1.2l0.1,1c0.3-0.7,0.8-1.1,1.5-1.1c0.2,0,0.4,0,0.5,0.1l-0.2,1.1c-0.1,0-0.3-0.1-0.6-0.1   c-0.6,0-1.2,0.4-1.2,1.3v2.6h-1.4V126z"/>
	<path class="st8" d="M321.5,130.1l-0.1,0.8c-0.2,0.1-0.4,0.1-0.6,0.1c-0.6,0-1-0.2-1.2-0.7c-0.3,0.5-1,0.7-1.6,0.7   c-1,0-1.6-0.5-1.6-1.3c0-0.7,0.5-1.2,1.4-1.4l1.7-0.4v-0.2c0-0.6-0.4-0.9-0.9-0.9c-0.5,0-0.9,0.2-1.1,0.8l-1.2-0.4   c0.2-0.9,1-1.5,2.3-1.5c1.3,0,2.2,0.6,2.2,1.8v2c0,0.3,0.1,0.4,0.4,0.4C321.3,130.1,321.4,130.1,321.5,130.1z M319.5,129.1v-0.3   l-1,0.2c-0.5,0.1-0.7,0.2-0.7,0.6c0,0.3,0.3,0.5,0.6,0.5C319,130.1,319.5,129.9,319.5,129.1z"/>
	<path class="st8" d="M327.5,128.5c0,1.6-0.9,2.6-2.1,2.6c-0.8,0-1.4-0.5-1.7-1.1l-0.1,1h-1.2v-7.2h1.4v3c0.3-0.6,0.8-1,1.6-1   C326.6,125.9,327.5,126.9,327.5,128.5z M326.1,128.5c0-1-0.4-1.5-1.2-1.5c-0.7,0-1.2,0.6-1.2,1.6c0,1,0.5,1.5,1.2,1.5   C325.7,130,326.1,129.5,326.1,128.5z"/>
	<path class="st8" d="M330,129.4c0,0.5,0.2,0.6,0.5,0.6c0.2,0,0.3,0,0.6-0.1l-0.1,0.9c-0.2,0.1-0.6,0.2-0.9,0.2   c-1,0-1.4-0.4-1.4-1.5v-5.8h1.4V129.4z"/>
	<path class="st8" d="M336.4,128.9h-3.5c0.1,0.8,0.6,1.1,1.2,1.1c0.6,0,0.9-0.2,1.1-0.6l1.1,0.4c-0.3,0.8-1.2,1.2-2.2,1.2   c-1.6,0-2.6-1-2.6-2.6s1-2.6,2.5-2.6c1.5,0,2.4,1,2.4,2.3C336.5,128.5,336.5,128.7,336.4,128.9z M332.9,128h2.2   c-0.1-0.7-0.4-1.1-1.1-1.1C333.5,126.9,333,127.3,332.9,128z"/>
</g>
<g>
	<rect x="202.1" y="232.3" class="st7" width="137.9" height="24.1"/>
	<path class="st8" d="M213.4,240.7c-2,0-3.2-1.3-3.2-3.4c0-2.1,1.2-3.4,3.2-3.4c1.3,0,2.4,0.6,2.7,1.7l-1.2,0.5   c-0.2-0.8-0.7-1.1-1.4-1.1c-1.1,0-1.8,0.8-1.8,2.3c0,1.5,0.6,2.3,1.8,2.3c0.7,0,1.3-0.4,1.5-1.2l1.3,0.4   C215.8,240.1,214.7,240.7,213.4,240.7z"/>
	<path class="st8" d="M222.1,239.7l-0.1,0.8c-0.2,0.1-0.4,0.1-0.7,0.1c-0.6,0-1-0.2-1.2-0.7c-0.3,0.5-1,0.7-1.6,0.7   c-1,0-1.6-0.5-1.6-1.3c0-0.7,0.5-1.2,1.4-1.4l1.7-0.3v-0.2c0-0.6-0.4-0.9-0.9-0.9c-0.5,0-0.9,0.2-1.1,0.8l-1.2-0.4   c0.2-0.9,1-1.5,2.3-1.5c1.3,0,2.2,0.6,2.2,1.8v2c0,0.3,0.1,0.4,0.4,0.4C221.9,239.8,222,239.7,222.1,239.7z M220,238.8v-0.3l-1,0.2   c-0.5,0.1-0.7,0.2-0.7,0.6c0,0.3,0.3,0.5,0.6,0.5C219.5,239.7,220,239.5,220,238.8z"/>
	<path class="st8" d="M227.7,237.3v3.3h-1.4v-2.9c0-0.8-0.4-1.1-0.9-1.1c-0.6,0-1.1,0.4-1.1,1.4v2.6h-1.4v-5h1.2l0,0.9   c0.3-0.7,0.9-1,1.7-1C227,235.5,227.7,236.1,227.7,237.3z"/>
	<path class="st8" d="M234,239.7l-0.1,0.8c-0.2,0.1-0.4,0.1-0.7,0.1c-0.6,0-1-0.2-1.2-0.7c-0.3,0.5-1,0.7-1.6,0.7   c-1,0-1.6-0.5-1.6-1.3c0-0.7,0.5-1.2,1.4-1.4l1.7-0.3v-0.2c0-0.6-0.4-0.9-0.9-0.9c-0.5,0-0.9,0.2-1.1,0.8l-1.2-0.4   c0.2-0.9,1-1.5,2.3-1.5c1.3,0,2.2,0.6,2.2,1.8v2c0,0.3,0.1,0.4,0.4,0.4C233.8,239.8,233.9,239.7,234,239.7z M232,238.8v-0.3l-1,0.2   c-0.5,0.1-0.7,0.2-0.7,0.6c0,0.3,0.3,0.5,0.6,0.5C231.4,239.7,232,239.5,232,238.8z"/>
	<path class="st8" d="M234.8,238.9v-3.3h1.4v3c0,0.8,0.3,1,0.9,1c0.6,0,1.1-0.4,1.1-1.3v-2.7h1.4v5h-1.2l0-0.9c-0.3,0.7-0.9,1-1.7,1   C235.6,240.7,234.8,240.2,234.8,238.9z"/>
	<path class="st8" d="M244.3,240.6l-1.1-1.8l-1.1,1.8h-1.5l1.8-2.5l-1.7-2.5h1.6l1,1.7l1.1-1.7h1.5l-1.8,2.5l1.8,2.5H244.3z"/>
	<path class="st8" d="M249.6,238.9v-3.3h1.4v3c0,0.8,0.3,1,0.9,1c0.6,0,1.1-0.4,1.1-1.3v-2.7h1.4v5h-1.2l0-0.9c-0.3,0.7-0.9,1-1.7,1   C250.3,240.7,249.6,240.2,249.6,238.9z"/>
	<path class="st8" d="M257.1,239.1c0,0.5,0.2,0.6,0.5,0.6c0.2,0,0.3,0,0.6-0.1l-0.1,0.9c-0.2,0.1-0.6,0.2-0.9,0.2   c-1,0-1.4-0.4-1.4-1.5v-5.8h1.4V239.1z"/>
	<path class="st8" d="M262.2,240.3c-0.3,0.3-0.8,0.4-1.4,0.4c-1,0-1.7-0.4-1.7-1.5v-2.6h-0.9v-1h0.9v-1.1l1.4-0.4v1.5h1.6v1h-1.6   v2.3c0,0.5,0.3,0.7,0.7,0.7c0.3,0,0.6-0.1,0.8-0.3L262.2,240.3z"/>
	<path class="st8" d="M263.1,235.6h1.2l0.1,1c0.3-0.7,0.8-1.1,1.5-1.1c0.2,0,0.4,0,0.5,0.1l-0.2,1.1c-0.1,0-0.3-0.1-0.6-0.1   c-0.6,0-1.2,0.4-1.2,1.3v2.6h-1.4V235.6z"/>
	<path class="st8" d="M272.1,239.7l-0.1,0.8c-0.2,0.1-0.4,0.1-0.7,0.1c-0.6,0-1-0.2-1.2-0.7c-0.3,0.5-1,0.7-1.6,0.7   c-1,0-1.6-0.5-1.6-1.3c0-0.7,0.5-1.2,1.4-1.4l1.7-0.3v-0.2c0-0.6-0.4-0.9-0.9-0.9c-0.5,0-0.9,0.2-1.1,0.8l-1.2-0.4   c0.2-0.9,1-1.5,2.3-1.5c1.3,0,2.2,0.6,2.2,1.8v2c0,0.3,0.1,0.4,0.4,0.4C271.9,239.8,272,239.7,272.1,239.7z M270.1,238.8v-0.3   l-1,0.2c-0.5,0.1-0.7,0.2-0.7,0.6c0,0.3,0.3,0.5,0.6,0.5C269.5,239.7,270.1,239.5,270.1,238.8z"/>
	<path class="st8" d="M276.5,238.5h-3.5v-1.2h3.5V238.5z"/>
	<path class="st8" d="M282.7,239.7l-0.1,0.8c-0.2,0.1-0.4,0.1-0.6,0.1c-0.6,0-1-0.2-1.2-0.7c-0.3,0.5-1,0.7-1.6,0.7   c-1,0-1.6-0.5-1.6-1.3c0-0.7,0.5-1.2,1.4-1.4l1.7-0.3v-0.2c0-0.6-0.4-0.9-0.9-0.9c-0.5,0-0.9,0.2-1.1,0.8l-1.2-0.4   c0.2-0.9,1-1.5,2.3-1.5c1.3,0,2.2,0.6,2.2,1.8v2c0,0.3,0.1,0.4,0.4,0.4C282.5,239.8,282.6,239.7,282.7,239.7z M280.7,238.8v-0.3   l-1,0.2c-0.5,0.1-0.7,0.2-0.7,0.6c0,0.3,0.3,0.5,0.6,0.5C280.1,239.7,280.7,239.5,280.7,238.8z"/>
	<path class="st8" d="M288.6,238.1c0,1.6-0.9,2.6-2.1,2.6c-0.8,0-1.4-0.5-1.7-1.1l0,1h-1.2v-7.2h1.4v3c0.3-0.6,0.8-1,1.6-1   C287.7,235.5,288.6,236.5,288.6,238.1z M287.3,238.1c0-1-0.4-1.5-1.2-1.5c-0.7,0-1.2,0.6-1.2,1.6c0,1,0.5,1.5,1.2,1.5   C286.8,239.7,287.3,239.1,287.3,238.1z"/>
	<path class="st8" d="M289.4,239.7l0.8-0.8c0.3,0.5,0.9,0.8,1.6,0.8c0.5,0,0.9-0.1,0.9-0.5c0-0.2-0.1-0.4-0.5-0.5l-0.9-0.2   c-1.2-0.2-1.6-0.7-1.6-1.5c0-0.8,0.7-1.6,2.2-1.6c1,0,1.8,0.3,2.2,0.9l-0.8,0.8c-0.3-0.5-0.8-0.7-1.3-0.7c-0.6,0-0.9,0.2-0.9,0.5   c0,0.2,0.2,0.4,0.6,0.5l1,0.2c1,0.2,1.4,0.7,1.4,1.4c0,1-0.8,1.7-2.2,1.7C290.8,240.7,289.9,240.3,289.4,239.7z"/>
	<path class="st8" d="M300,238.1c0,1.6-1,2.6-2.6,2.6c-1.5,0-2.6-1-2.6-2.6c0-1.6,1-2.6,2.6-2.6C298.9,235.5,300,236.5,300,238.1z    M296.2,238.1c0,1.1,0.4,1.6,1.2,1.6c0.7,0,1.2-0.5,1.2-1.6c0-1.1-0.4-1.6-1.2-1.6C296.6,236.5,296.2,237,296.2,238.1z"/>
	<path class="st8" d="M301.1,235.6h1.2l0.1,1c0.3-0.7,0.8-1.1,1.5-1.1c0.2,0,0.4,0,0.5,0.1l-0.2,1.1c-0.1,0-0.3-0.1-0.6-0.1   c-0.6,0-1.2,0.4-1.2,1.3v2.6h-1.4V235.6z"/>
	<path class="st8" d="M310.4,238.1c0,1.6-0.9,2.6-2.1,2.6c-0.8,0-1.4-0.5-1.7-1.1l0,1h-1.2v-7.2h1.4v3c0.3-0.6,0.8-1,1.6-1   C309.5,235.5,310.4,236.5,310.4,238.1z M309,238.1c0-1-0.4-1.5-1.2-1.5c-0.7,0-1.2,0.6-1.2,1.6c0,1,0.5,1.5,1.2,1.5   C308.6,239.7,309,239.1,309,238.1z"/>
	<path class="st8" d="M316.5,239.7l-0.1,0.8c-0.2,0.1-0.4,0.1-0.7,0.1c-0.6,0-1-0.2-1.2-0.7c-0.3,0.5-1,0.7-1.6,0.7   c-1,0-1.6-0.5-1.6-1.3c0-0.7,0.5-1.2,1.4-1.4l1.7-0.3v-0.2c0-0.6-0.4-0.9-0.9-0.9c-0.5,0-0.9,0.2-1.1,0.8l-1.2-0.4   c0.2-0.9,1-1.5,2.3-1.5c1.3,0,2.2,0.6,2.2,1.8v2c0,0.3,0.1,0.4,0.4,0.4C316.2,239.8,316.4,239.7,316.5,239.7z M314.4,238.8v-0.3   l-1,0.2c-0.5,0.1-0.7,0.2-0.7,0.6c0,0.3,0.3,0.5,0.6,0.5C313.9,239.7,314.4,239.5,314.4,238.8z"/>
	<path class="st8" d="M322.1,237.3v3.3h-1.4v-2.9c0-0.8-0.4-1.1-0.9-1.1c-0.6,0-1.1,0.4-1.1,1.4v2.6h-1.4v-5h1.2l0,0.9   c0.3-0.7,0.9-1,1.7-1C321.3,235.5,322.1,236.1,322.1,237.3z"/>
	<path class="st8" d="M326.9,240.3c-0.3,0.3-0.8,0.4-1.4,0.4c-1,0-1.7-0.4-1.7-1.5v-2.6h-0.9v-1h0.9v-1.1l1.4-0.4v1.5h1.6v1h-1.6   v2.3c0,0.5,0.3,0.7,0.7,0.7c0.3,0,0.6-0.1,0.8-0.3L326.9,240.3z"/>
	<path class="st8" d="M327.4,239.7l0.8-0.8c0.3,0.5,0.9,0.8,1.6,0.8c0.5,0,0.9-0.1,0.9-0.5c0-0.2-0.1-0.4-0.6-0.5l-0.9-0.2   c-1.2-0.2-1.6-0.7-1.6-1.5c0-0.8,0.7-1.6,2.2-1.6c1,0,1.7,0.3,2.2,0.9l-0.8,0.8c-0.3-0.5-0.8-0.7-1.3-0.7c-0.6,0-0.9,0.2-0.9,0.5   c0,0.2,0.2,0.4,0.7,0.5l1,0.2c1,0.2,1.4,0.7,1.4,1.4c0,1-0.8,1.7-2.2,1.7C328.7,240.7,327.9,240.3,327.4,239.7z"/>
	<path class="st8" d="M240.4,252.6h-1.2v-3.4l0.1-1.9h0l-1.8,5.4h-1.1l-1.8-5.4h0l0.1,1.9v3.4h-1.2V246h2l1.2,3.6l0.4,1.5h0l0.4-1.5   l1.2-3.6h1.9V252.6z"/>
	<path class="st8" d="M246.8,251.7l-0.1,0.8c-0.2,0.1-0.4,0.1-0.7,0.1c-0.6,0-1-0.2-1.2-0.7c-0.3,0.5-1,0.7-1.6,0.7   c-1,0-1.6-0.5-1.6-1.3c0-0.7,0.5-1.2,1.4-1.4l1.7-0.3v-0.2c0-0.6-0.4-0.9-0.9-0.9c-0.5,0-0.9,0.2-1.1,0.8l-1.2-0.4   c0.2-0.9,1-1.5,2.3-1.5c1.3,0,2.2,0.6,2.2,1.8v2c0,0.3,0.1,0.4,0.4,0.4C246.6,251.8,246.7,251.7,246.8,251.7z M244.8,250.8v-0.3   l-1,0.2c-0.5,0.1-0.7,0.2-0.7,0.6c0,0.3,0.3,0.5,0.6,0.5C244.2,251.7,244.8,251.5,244.8,250.8z"/>
	<path class="st8" d="M252.4,253c0,1.1-1.1,1.8-2.6,1.8c-1.7,0-2.5-0.5-2.5-1.3c0-0.4,0.3-0.8,0.9-0.9c-0.4-0.2-0.7-0.5-0.7-0.9   c0-0.5,0.3-0.8,0.8-1c-0.5-0.3-0.8-0.8-0.8-1.4c0-1,0.9-1.7,2.3-1.7c0.4,0,0.8,0.1,1.1,0.2c0.1-0.7,0.6-1.3,1.5-1.2l0.2,1   c-0.6-0.1-1,0.2-1.1,0.5c0.4,0.3,0.6,0.7,0.6,1.3c0,1-0.9,1.7-2.3,1.7c-0.3,0-0.6,0-0.8-0.1c-0.3,0.1-0.4,0.2-0.4,0.4   c0,0.3,0.2,0.4,0.6,0.4h1.5C251.7,251.7,252.4,252.2,252.4,253z M251.3,253.2c0-0.3-0.2-0.4-0.7-0.4h-1.7c-0.3,0-0.5,0.2-0.5,0.4   c0,0.4,0.5,0.6,1.4,0.6C250.8,253.8,251.3,253.5,251.3,253.2z M248.8,249.2c0,0.5,0.4,0.8,0.9,0.8s0.9-0.3,0.9-0.8   s-0.4-0.8-0.9-0.8S248.8,248.7,248.8,249.2z"/>
	<path class="st8" d="M253,246.2c0-0.5,0.3-0.7,0.8-0.7c0.6,0,0.8,0.2,0.8,0.7s-0.3,0.7-0.8,0.7C253.3,246.9,253,246.6,253,246.2z    M254.6,252.6h-1.4v-5h1.4V252.6z"/>
	<path class="st8" d="M260.6,249l-1.3,0.5c-0.1-0.6-0.5-0.9-1-0.9c-0.8,0-1.2,0.5-1.2,1.6c0,1.1,0.5,1.6,1.2,1.6   c0.6,0,0.9-0.3,1-0.9l1.2,0.4c-0.2,0.9-1,1.5-2.3,1.5c-1.6,0-2.6-1-2.6-2.6c0-1.6,1-2.6,2.5-2.6C259.6,247.5,260.3,248.2,260.6,249   z"/>
	<path class="st8" d="M266.5,251.7l-0.1,0.8c-0.2,0.1-0.4,0.1-0.6,0.1c-0.6,0-1-0.2-1.2-0.7c-0.3,0.5-1,0.7-1.6,0.7   c-1,0-1.6-0.5-1.6-1.3c0-0.7,0.5-1.2,1.4-1.4l1.7-0.3v-0.2c0-0.6-0.4-0.9-0.9-0.9c-0.5,0-0.9,0.2-1.1,0.8l-1.2-0.4   c0.2-0.9,1-1.5,2.3-1.5c1.3,0,2.2,0.6,2.2,1.8v2c0,0.3,0.1,0.4,0.4,0.4C266.3,251.8,266.4,251.7,266.5,251.7z M264.5,250.8v-0.3   l-1,0.2c-0.5,0.1-0.7,0.2-0.7,0.6c0,0.3,0.3,0.5,0.6,0.5C264,251.7,264.5,251.5,264.5,250.8z"/>
	<path class="st8" d="M268.7,251.1c0,0.5,0.2,0.6,0.5,0.6c0.2,0,0.3,0,0.6-0.1l-0.1,0.9c-0.2,0.1-0.6,0.2-0.9,0.2   c-1,0-1.4-0.4-1.4-1.5v-5.8h1.4V251.1z"/>
	<path class="st8" d="M278.6,247.1h-2.2v5.5H275v-5.5h-2.2V246h5.8V247.1z"/>
	<path class="st8" d="M278.9,250.9v-3.3h1.4v3c0,0.8,0.3,1,0.9,1c0.6,0,1.1-0.4,1.1-1.3v-2.7h1.4v5h-1.2l0-0.9c-0.3,0.7-0.9,1-1.7,1   C279.7,252.7,278.9,252.2,278.9,250.9z"/>
	<path class="st8" d="M290.2,250.1c0,1.6-0.9,2.6-2.1,2.6c-0.8,0-1.4-0.5-1.7-1.1l0,1h-1.2v-7.2h1.4v3c0.3-0.6,0.8-1,1.6-1   C289.3,247.5,290.2,248.5,290.2,250.1z M288.8,250.1c0-1-0.4-1.5-1.2-1.5c-0.7,0-1.2,0.6-1.2,1.6c0,1,0.5,1.5,1.2,1.5   C288.4,251.7,288.8,251.1,288.8,250.1z"/>
	<path class="st8" d="M296,250.5h-3.5c0.1,0.8,0.6,1.1,1.2,1.1c0.6,0,0.9-0.2,1.1-0.6l1.1,0.4c-0.3,0.8-1.2,1.2-2.2,1.2   c-1.6,0-2.6-1-2.6-2.6c0-1.6,1-2.6,2.5-2.6c1.5,0,2.4,1,2.4,2.3C296,250.1,296,250.4,296,250.5z M292.4,249.6h2.2   c-0.1-0.7-0.5-1.1-1.1-1.1C293,248.5,292.6,248.9,292.4,249.6z"/>
	<path class="st8" d="M296.8,251.7l0.8-0.8c0.3,0.5,0.9,0.8,1.6,0.8c0.5,0,0.9-0.1,0.9-0.5c0-0.2-0.1-0.4-0.5-0.5l-0.9-0.2   c-1.2-0.2-1.6-0.7-1.6-1.5c0-0.8,0.7-1.6,2.2-1.6c1,0,1.7,0.3,2.2,0.9l-0.8,0.8c-0.3-0.5-0.8-0.7-1.3-0.7c-0.6,0-0.9,0.2-0.9,0.5   c0,0.2,0.2,0.4,0.6,0.5l1,0.2c1,0.2,1.4,0.7,1.4,1.4c0,1-0.8,1.7-2.2,1.7C298.2,252.7,297.3,252.3,296.8,251.7z"/>
	<path class="st8" d="M309.1,249.3c0,2-1.4,3.4-3.4,3.4c-2,0-3.4-1.4-3.4-3.4c0-2,1.4-3.4,3.4-3.4   C307.7,245.9,309.1,247.3,309.1,249.3z M308.3,249.3c0-1.5-1.1-2.6-2.6-2.6c-1.6,0-2.6,1.1-2.6,2.6c0,1.5,1.1,2.6,2.6,2.6   C307.3,251.9,308.3,250.8,308.3,249.3z M306.4,249.8l0.9,1.4h-1l-0.7-1.3h-0.4v1.3h-0.9v-3.7h1.7c0.8,0,1.3,0.5,1.3,1.2   C307.3,249.2,306.9,249.6,306.4,249.8z M305.1,249.2h0.6c0.4,0,0.6-0.2,0.6-0.5c0-0.4-0.2-0.5-0.6-0.5h-0.6V249.2z"/>
</g>
<g>
	<rect x="224.4" y="8.4" class="st7" width="75.9" height="25"/>
	<path class="st8" d="M234.8,15.6v1.1h-4.9v-6.6h1.4v5.5H234.8z"/>
	<path class="st8" d="M240.7,15.8l-0.1,0.8c-0.2,0.1-0.4,0.1-0.6,0.1c-0.6,0-1-0.2-1.2-0.7c-0.3,0.5-1,0.7-1.6,0.7   c-1,0-1.6-0.5-1.6-1.3c0-0.7,0.5-1.2,1.4-1.4l1.7-0.4v-0.2c0-0.6-0.4-0.9-0.9-0.9c-0.5,0-0.9,0.2-1.1,0.8l-1.2-0.4   c0.2-0.9,1-1.5,2.3-1.5c1.3,0,2.2,0.6,2.2,1.8v2c0,0.3,0.1,0.4,0.4,0.4C240.5,15.9,240.6,15.9,240.7,15.8z M238.6,14.9v-0.3l-1,0.2   c-0.5,0.1-0.7,0.2-0.7,0.6c0,0.3,0.3,0.5,0.6,0.5C238.1,15.9,238.6,15.6,238.6,14.9z"/>
	<path class="st8" d="M246.3,13.4v3.3h-1.4v-2.9c0-0.8-0.4-1.1-0.9-1.1c-0.6,0-1.1,0.4-1.1,1.4v2.6h-1.4v-5h1.2l0,0.9   c0.3-0.7,0.9-1,1.7-1C245.5,11.6,246.3,12.2,246.3,13.4z"/>
	<path class="st8" d="M252.4,17.1c0,1.1-1.1,1.8-2.6,1.8c-1.7,0-2.5-0.5-2.5-1.3c0-0.4,0.3-0.8,0.9-0.9c-0.4-0.2-0.7-0.5-0.7-0.9   c0-0.5,0.3-0.8,0.8-1c-0.5-0.3-0.8-0.8-0.8-1.4c0-1,0.9-1.7,2.3-1.7c0.4,0,0.8,0,1.1,0.2c0.1-0.7,0.6-1.3,1.5-1.2l0.2,1   c-0.6-0.1-1,0.2-1.1,0.5c0.4,0.3,0.6,0.7,0.6,1.3c0,1-0.9,1.7-2.3,1.7c-0.3,0-0.6,0-0.8-0.1c-0.3,0.1-0.4,0.2-0.4,0.4   c0,0.3,0.2,0.4,0.6,0.4h1.5C251.8,15.8,252.4,16.3,252.4,17.1z M251.3,17.3c0-0.3-0.2-0.4-0.7-0.4h-1.7c-0.3,0-0.5,0.2-0.5,0.4   c0,0.4,0.5,0.6,1.4,0.6C250.8,17.9,251.3,17.7,251.3,17.3z M248.8,13.3c0,0.5,0.4,0.8,0.9,0.8c0.5,0,0.9-0.3,0.9-0.8   c0-0.5-0.4-0.8-0.9-0.8C249.2,12.5,248.8,12.8,248.8,13.3z"/>
	<path class="st8" d="M253.2,15v-3.3h1.4v3c0,0.8,0.3,1,0.9,1c0.6,0,1.1-0.4,1.1-1.3v-2.7h1.4v5h-1.2l-0.1-0.9c-0.3,0.7-0.9,1-1.7,1   C253.9,16.8,253.2,16.3,253.2,15z"/>
	<path class="st8" d="M264,14.7h-3.5c0.1,0.8,0.6,1.1,1.2,1.1c0.6,0,0.9-0.2,1.1-0.6l1.1,0.4c-0.3,0.8-1.2,1.2-2.2,1.2   c-1.6,0-2.6-1-2.6-2.6s1-2.6,2.5-2.6c1.5,0,2.4,1,2.4,2.3C264,14.2,264,14.5,264,14.7z M260.5,13.7h2.2c-0.1-0.7-0.5-1.1-1.1-1.1   C261,12.6,260.6,13,260.5,13.7z"/>
	<path class="st8" d="M268.5,16.4c-0.3,0.3-0.8,0.4-1.4,0.4c-1,0-1.7-0.4-1.7-1.5v-2.6h-0.9v-1h0.9v-1.1l1.4-0.4v1.5h1.6v1h-1.6v2.3   c0,0.5,0.3,0.7,0.7,0.7c0.3,0,0.6-0.1,0.8-0.3L268.5,16.4z"/>
	<path class="st8" d="M272.4,16.4c-0.3,0.3-0.8,0.4-1.4,0.4c-1,0-1.7-0.4-1.7-1.5v-2.6h-0.9v-1h0.9v-1.1l1.4-0.4v1.5h1.6v1h-1.6v2.3   c0,0.5,0.3,0.7,0.7,0.7c0.3,0,0.6-0.1,0.8-0.3L272.4,16.4z"/>
	<path class="st8" d="M277.8,14.7h-3.5c0.1,0.8,0.6,1.1,1.2,1.1c0.6,0,0.9-0.2,1.1-0.6l1.1,0.4c-0.3,0.8-1.2,1.2-2.2,1.2   c-1.6,0-2.6-1-2.6-2.6s1-2.6,2.5-2.6c1.5,0,2.4,1,2.4,2.3C277.8,14.2,277.8,14.5,277.8,14.7z M274.3,13.7h2.2   c-0.1-0.7-0.4-1.1-1.1-1.1C274.8,12.6,274.4,13,274.3,13.7z"/>
	<path class="st8" d="M234.7,27.8l-0.1,0.8c-0.2,0.1-0.4,0.1-0.6,0.1c-0.6,0-1-0.2-1.2-0.7c-0.3,0.5-1,0.7-1.6,0.7   c-1,0-1.6-0.5-1.6-1.3c0-0.7,0.5-1.2,1.4-1.4l1.7-0.4v-0.2c0-0.6-0.4-0.9-0.9-0.9c-0.5,0-0.9,0.2-1.1,0.8l-1.2-0.4   c0.2-0.9,1-1.5,2.3-1.5c1.3,0,2.2,0.6,2.2,1.8v2c0,0.3,0.1,0.4,0.4,0.4C234.5,27.9,234.6,27.9,234.7,27.8z M232.6,26.9v-0.3l-1,0.2   c-0.5,0.1-0.7,0.2-0.7,0.6c0,0.3,0.3,0.5,0.6,0.5C232.1,27.9,232.6,27.6,232.6,26.9z"/>
	<path class="st8" d="M235.5,27v-3.3h1.4v3c0,0.8,0.3,1,0.9,1c0.6,0,1.1-0.4,1.1-1.3v-2.7h1.4v5H239l-0.1-0.9c-0.3,0.7-0.9,1-1.7,1   C236.3,28.8,235.5,28.3,235.5,27z"/>
	<path class="st8" d="M245.2,28.4c-0.3,0.3-0.8,0.4-1.4,0.4c-1,0-1.7-0.4-1.7-1.5v-2.6h-0.9v-1h0.9v-1.1l1.4-0.4v1.5h1.6v1h-1.6v2.3   c0,0.5,0.3,0.7,0.7,0.7c0.3,0,0.6-0.1,0.8-0.3L245.2,28.4z"/>
	<path class="st8" d="M250.8,26.2c0,1.6-1,2.6-2.6,2.6c-1.5,0-2.6-1-2.6-2.6c0-1.6,1-2.6,2.6-2.6C249.8,23.6,250.8,24.6,250.8,26.2z    M247.1,26.2c0,1.1,0.4,1.6,1.2,1.6c0.7,0,1.2-0.5,1.2-1.6c0-1.1-0.4-1.6-1.2-1.6C247.5,24.6,247.1,25.2,247.1,26.2z"/>
	<path class="st8" d="M256.5,25.1l-1.3,0.5c-0.1-0.6-0.5-0.9-1-0.9c-0.8,0-1.2,0.5-1.2,1.6c0,1.1,0.5,1.6,1.2,1.6   c0.6,0,0.9-0.3,1-0.9l1.2,0.4c-0.2,0.9-1,1.5-2.3,1.5c-1.6,0-2.6-1-2.6-2.6s1-2.6,2.5-2.6C255.6,23.6,256.3,24.3,256.5,25.1z"/>
	<path class="st8" d="M262.5,26.2c0,1.6-1,2.6-2.6,2.6s-2.6-1-2.6-2.6c0-1.6,1-2.6,2.6-2.6S262.5,24.6,262.5,26.2z M258.7,26.2   c0,1.1,0.4,1.6,1.2,1.6c0.7,0,1.2-0.5,1.2-1.6c0-1.1-0.4-1.6-1.2-1.6C259.2,24.6,258.7,25.2,258.7,26.2z"/>
	<path class="st8" d="M265,27.2c0,0.5,0.2,0.6,0.5,0.6c0.2,0,0.3,0,0.6-0.1l-0.1,0.9c-0.2,0.1-0.6,0.2-0.9,0.2c-1,0-1.4-0.4-1.4-1.5   v-5.8h1.4V27.2z"/>
	<path class="st8" d="M268.2,27.2c0,0.5,0.1,0.6,0.5,0.6c0.2,0,0.3,0,0.6-0.1l-0.1,0.9c-0.2,0.1-0.6,0.2-0.9,0.2   c-1,0-1.4-0.4-1.4-1.5v-5.8h1.4V27.2z"/>
	<path class="st8" d="M274.9,27.8l-0.1,0.8c-0.2,0.1-0.4,0.1-0.7,0.1c-0.6,0-1-0.2-1.2-0.7c-0.3,0.5-1,0.7-1.6,0.7   c-1,0-1.6-0.5-1.6-1.3c0-0.7,0.5-1.2,1.4-1.4l1.7-0.4v-0.2c0-0.6-0.4-0.9-0.9-0.9c-0.5,0-0.9,0.2-1.1,0.8l-1.2-0.4   c0.2-0.9,1-1.5,2.3-1.5c1.3,0,2.2,0.6,2.2,1.8v2c0,0.3,0.1,0.4,0.4,0.4C274.7,27.9,274.8,27.9,274.9,27.8z M272.9,26.9v-0.3l-1,0.2   c-0.5,0.1-0.7,0.2-0.7,0.6c0,0.3,0.3,0.5,0.6,0.5C272.4,27.9,272.9,27.6,272.9,26.9z"/>
	<path class="st8" d="M280.6,25.4v3.3h-1.4v-2.9c0-0.8-0.4-1.1-0.9-1.1c-0.6,0-1.1,0.4-1.1,1.4v2.6h-1.4v-5h1.2l0,0.9   c0.3-0.7,0.9-1,1.7-1C279.8,23.6,280.6,24.2,280.6,25.4z"/>
	<path class="st8" d="M285.4,28.4c-0.3,0.3-0.8,0.4-1.4,0.4c-1,0-1.7-0.4-1.7-1.5v-2.6h-0.9v-1h0.9v-1.1l1.4-0.4v1.5h1.6v1h-1.6v2.3   c0,0.5,0.3,0.7,0.7,0.7c0.3,0,0.6-0.1,0.8-0.3L285.4,28.4z"/>
	<path class="st8" d="M290.8,26.7h-3.5c0.1,0.8,0.6,1.1,1.2,1.1c0.6,0,0.9-0.2,1.1-0.6l1.1,0.4c-0.3,0.8-1.2,1.2-2.2,1.2   c-1.6,0-2.6-1-2.6-2.6s1-2.6,2.5-2.6c1.5,0,2.4,1,2.4,2.3C290.9,26.2,290.8,26.5,290.8,26.7z M287.3,25.7h2.2   c-0.1-0.7-0.4-1.1-1.1-1.1C287.8,24.6,287.4,25,287.3,25.7z"/>
</g>
<g>
	<rect x="-4.6" y="125.4" class="st7" width="87.5" height="25"/>
	<path class="st8" d="M8.4,130.5c0,2.1-1.2,3.3-3.2,3.3H2.6v-6.6h2.5C7.2,127.2,8.4,128.3,8.4,130.5z M6.9,130.5   c0-1.4-0.6-2.2-1.9-2.2H3.9v4.4H5C6.3,132.6,6.9,131.9,6.9,130.5z"/>
	<path class="st8" d="M14.5,131.3c0,1.6-1,2.6-2.6,2.6c-1.5,0-2.6-1-2.6-2.6c0-1.6,1-2.6,2.6-2.6C13.4,128.7,14.5,129.6,14.5,131.3z    M10.7,131.3c0,1.1,0.4,1.6,1.2,1.6c0.7,0,1.2-0.5,1.2-1.6c0-1.1-0.4-1.6-1.2-1.6C11.1,129.7,10.7,130.2,10.7,131.3z"/>
	<path class="st8" d="M15.6,132.1v-3.3h1.4v3c0,0.8,0.3,1,0.9,1c0.6,0,1.1-0.4,1.1-1.3v-2.7h1.4v5h-1.2l-0.1-0.9   c-0.3,0.7-0.9,1-1.7,1C16.3,133.8,15.6,133.3,15.6,132.1z"/>
	<path class="st8" d="M26.9,131.3c0,1.6-0.9,2.6-2.1,2.6c-0.8,0-1.4-0.5-1.7-1.1l-0.1,1h-1.2v-7.2h1.4v3c0.3-0.6,0.8-1,1.6-1   C26,128.7,26.9,129.6,26.9,131.3z M25.5,131.3c0-1-0.4-1.5-1.2-1.5c-0.7,0-1.2,0.6-1.2,1.6c0,1,0.5,1.5,1.2,1.5   C25.1,132.8,25.5,132.3,25.5,131.3z"/>
	<path class="st8" d="M29.4,132.2c0,0.5,0.1,0.6,0.5,0.6c0.2,0,0.3,0,0.6-0.1l-0.1,0.9c-0.2,0.1-0.6,0.2-0.9,0.2   c-1,0-1.4-0.4-1.4-1.5v-5.8h1.4V132.2z"/>
	<path class="st8" d="M35.8,131.7h-3.5c0.1,0.8,0.6,1.1,1.2,1.1c0.6,0,0.9-0.2,1.1-0.6l1.1,0.4c-0.3,0.8-1.2,1.2-2.2,1.2   c-1.6,0-2.6-1-2.6-2.6s1-2.6,2.5-2.6c1.5,0,2.4,1,2.4,2.3C35.9,131.3,35.9,131.5,35.8,131.7z M32.3,130.7h2.2   c-0.1-0.7-0.4-1.1-1.1-1.1C32.9,129.7,32.4,130,32.3,130.7z"/>
	<path class="st8" d="M45.2,131.3c0,1.6-0.9,2.6-2.1,2.6c-0.8,0-1.4-0.5-1.7-1.1l-0.1,1h-1.2v-7.2h1.4v3c0.3-0.6,0.8-1,1.6-1   C44.3,128.7,45.2,129.6,45.2,131.3z M43.8,131.3c0-1-0.4-1.5-1.2-1.5c-0.7,0-1.2,0.6-1.2,1.6c0,1,0.5,1.5,1.2,1.5   C43.4,132.8,43.8,132.3,43.8,131.3z"/>
	<path class="st8" d="M51.2,132.9l-0.1,0.8c-0.2,0.1-0.4,0.1-0.6,0.1c-0.6,0-1-0.2-1.2-0.7c-0.3,0.5-1,0.7-1.6,0.7   c-1,0-1.6-0.5-1.6-1.3c0-0.7,0.5-1.2,1.4-1.4l1.7-0.4v-0.2c0-0.6-0.4-0.9-0.9-0.9c-0.5,0-0.9,0.2-1.1,0.8l-1.2-0.4   c0.2-0.9,1-1.5,2.3-1.5c1.3,0,2.2,0.6,2.2,1.8v2c0,0.3,0.1,0.4,0.4,0.4C51,132.9,51.1,132.9,51.2,132.9z M49.2,131.9v-0.3l-1,0.2   c-0.5,0.1-0.7,0.2-0.7,0.6c0,0.3,0.3,0.5,0.6,0.5C48.6,132.9,49.2,132.6,49.2,131.9z"/>
	<path class="st8" d="M52.1,128.8h1.2l0.1,1c0.3-0.7,0.8-1.1,1.5-1.1c0.2,0,0.4,0,0.5,0.1l-0.2,1.1c-0.1,0-0.3-0.1-0.6-0.1   c-0.6,0-1.2,0.4-1.2,1.3v2.6h-1.4V128.8z"/>
	<path class="st8" d="M56.3,128.8h1.2l0.1,1c0.3-0.7,0.8-1.1,1.5-1.1c0.2,0,0.4,0,0.5,0.1l-0.2,1.1c-0.1,0-0.3-0.1-0.6-0.1   c-0.6,0-1.2,0.4-1.2,1.3v2.6h-1.4V128.8z"/>
	<path class="st8" d="M60.4,127.3c0-0.5,0.3-0.7,0.8-0.7s0.8,0.2,0.8,0.7s-0.3,0.7-0.8,0.7S60.4,127.8,60.4,127.3z M61.9,133.7h-1.4   v-5h1.4V133.7z"/>
	<path class="st8" d="M67.9,131.7h-3.5c0.1,0.8,0.6,1.1,1.2,1.1c0.6,0,0.9-0.2,1.1-0.6l1.1,0.4c-0.3,0.8-1.2,1.2-2.2,1.2   c-1.6,0-2.6-1-2.6-2.6s1-2.6,2.5-2.6c1.5,0,2.4,1,2.4,2.3C68,131.3,67.9,131.5,67.9,131.7z M65.1,128l-1-1.7h1.3l0.7,1.7H65.1z    M64.4,130.7h2.2c-0.1-0.7-0.4-1.1-1.1-1.1C64.9,129.7,64.5,130,64.4,130.7z"/>
	<path class="st8" d="M69.1,128.8h1.2l0.1,1c0.3-0.7,0.8-1.1,1.5-1.1c0.2,0,0.4,0,0.5,0.1l-0.2,1.1c-0.1,0-0.3-0.1-0.6-0.1   c-0.6,0-1.2,0.4-1.2,1.3v2.6h-1.4V128.8z"/>
	<path class="st8" d="M77.8,131.7h-3.5c0.1,0.8,0.6,1.1,1.2,1.1c0.6,0,0.9-0.2,1.1-0.6l1.1,0.4c-0.3,0.8-1.2,1.2-2.2,1.2   c-1.6,0-2.6-1-2.6-2.6s1-2.6,2.5-2.6c1.5,0,2.4,1,2.4,2.3C77.9,131.3,77.9,131.5,77.8,131.7z M74.3,130.7h2.2   c-0.1-0.7-0.4-1.1-1.1-1.1C74.9,129.7,74.4,130,74.3,130.7z"/>
	<path class="st8" d="M31.4,144.9l-0.1,0.8c-0.2,0.1-0.4,0.1-0.6,0.1c-0.6,0-1-0.2-1.2-0.7c-0.3,0.5-1,0.7-1.6,0.7   c-1,0-1.6-0.5-1.6-1.3c0-0.7,0.5-1.2,1.4-1.4l1.7-0.4v-0.2c0-0.6-0.4-0.9-0.9-0.9c-0.5,0-0.9,0.2-1.1,0.8l-1.2-0.4   c0.2-0.9,1-1.5,2.3-1.5c1.3,0,2.2,0.6,2.2,1.8v2c0,0.3,0.1,0.4,0.4,0.4C31.2,144.9,31.3,144.9,31.4,144.9z M29.4,143.9v-0.3l-1,0.2   c-0.5,0.1-0.7,0.2-0.7,0.6c0,0.3,0.3,0.5,0.6,0.5C28.8,144.9,29.4,144.6,29.4,143.9z"/>
	<path class="st8" d="M37,142.5v3.3h-1.4v-2.9c0-0.8-0.4-1.1-0.9-1.1c-0.6,0-1.1,0.4-1.1,1.4v2.6h-1.4v-5h1.2l0.1,0.9   c0.3-0.7,0.9-1,1.7-1C36.3,140.7,37,141.3,37,142.5z"/>
	<path class="st8" d="M41.9,145.4c-0.3,0.3-0.8,0.4-1.4,0.4c-1,0-1.7-0.4-1.7-1.5v-2.6h-0.9v-1h0.9v-1.1l1.4-0.4v1.5h1.6v1h-1.6v2.3   c0,0.5,0.3,0.7,0.7,0.7c0.3,0,0.6-0.1,0.8-0.3L41.9,145.4z"/>
	<path class="st8" d="M42.5,139.3c0-0.5,0.3-0.7,0.8-0.7s0.8,0.2,0.8,0.7S44,140,43.4,140S42.5,139.8,42.5,139.3z M44.1,145.7h-1.4   v-5h1.4V145.7z"/>
	<path class="st8" d="M49.2,143.7h-3.5v-1.2h3.5V143.7z"/>
	<path class="st8" d="M52.2,140.8h1.6v1h-1.5v4h-1.4v-4h-0.9v-1h0.9v-0.6c0-1.1,0.8-1.7,1.9-1.7c0.5,0,0.9,0.1,1.1,0.3l-0.2,0.9   c-0.1-0.1-0.3-0.2-0.6-0.2c-0.5,0-0.8,0.2-0.8,0.8V140.8z"/>
	<path class="st8" d="M54.6,144.1v-3.3H56v3c0,0.8,0.3,1,0.9,1c0.6,0,1.1-0.4,1.1-1.3v-2.7h1.4v5h-1.2l-0.1-0.9   c-0.3,0.7-0.9,1-1.7,1C55.4,145.8,54.6,145.3,54.6,144.1z"/>
	<path class="st8" d="M60.7,139.3c0-0.5,0.3-0.7,0.8-0.7s0.8,0.2,0.8,0.7s-0.3,0.7-0.8,0.7S60.7,139.8,60.7,139.3z M62.2,145.7h-1.4   v-5h1.4V145.7z"/>
	<path class="st8" d="M67.1,145.4c-0.3,0.3-0.8,0.4-1.4,0.4c-1,0-1.7-0.4-1.7-1.5v-2.6h-0.9v-1H64v-1.1l1.4-0.4v1.5H67v1h-1.6v2.3   c0,0.5,0.3,0.7,0.7,0.7c0.3,0,0.6-0.1,0.8-0.3L67.1,145.4z"/>
	<path class="st8" d="M72.5,143.7H69c0.1,0.8,0.6,1.2,1.2,1.2c0.6,0,0.9-0.2,1.1-0.6l1.1,0.4c-0.3,0.8-1.2,1.2-2.2,1.2   c-1.6,0-2.6-1-2.6-2.6c0-1.6,1-2.6,2.5-2.6c1.5,0,2.4,1,2.4,2.3C72.6,143.3,72.5,143.5,72.5,143.7z M69,142.7h2.2   c-0.1-0.7-0.4-1.1-1.1-1.1C69.5,141.7,69.1,142,69,142.7z"/>
	<path class="st8" d="M73.3,144.8l0.8-0.8c0.3,0.5,0.9,0.8,1.6,0.8c0.5,0,0.9-0.2,0.9-0.5c0-0.2-0.1-0.4-0.5-0.5l-0.9-0.2   c-1.2-0.2-1.6-0.7-1.6-1.5c0-0.8,0.7-1.6,2.2-1.6c1,0,1.7,0.3,2.2,0.9l-0.8,0.8c-0.3-0.5-0.8-0.7-1.3-0.7c-0.6,0-0.9,0.2-0.9,0.5   c0,0.2,0.2,0.4,0.6,0.5l1,0.2c1,0.2,1.4,0.7,1.4,1.4c0,1-0.8,1.7-2.2,1.7C74.7,145.8,73.8,145.5,73.3,144.8z"/>
</g>
<g>
	<rect x="2.6" y="238.8" class="st7" width="83.1" height="26.6"/>
	<path class="st8" d="M16.1,247.1h-1.6l-2.4-6.6h1.5l1.4,4.2l0.4,1.3l0.4-1.3l1.4-4.2h1.4L16.1,247.1z"/>
	<path class="st8" d="M23.6,244.6c0,1.6-1,2.6-2.6,2.6c-1.5,0-2.6-1-2.6-2.6s1-2.6,2.6-2.6C22.6,242,23.6,243,23.6,244.6z    M19.9,244.6c0,1.1,0.4,1.6,1.2,1.6c0.7,0,1.2-0.5,1.2-1.6c0-1.1-0.4-1.6-1.2-1.6C20.3,243,19.9,243.6,19.9,244.6z"/>
	<path class="st8" d="M24.6,240.7c0-0.5,0.3-0.7,0.8-0.7s0.8,0.2,0.8,0.7s-0.3,0.7-0.8,0.7S24.6,241.2,24.6,240.7z M26.1,247.1h-1.4   v-5h1.4V247.1z"/>
	<path class="st8" d="M28.9,245.6c0,0.5,0.1,0.6,0.5,0.6c0.2,0,0.3,0,0.6-0.1l-0.1,0.9c-0.2,0.1-0.6,0.2-0.9,0.2   c-1,0-1.4-0.5-1.4-1.5v-5.8h1.4V245.6z"/>
	<path class="st8" d="M35.4,245h-3.5c0.1,0.8,0.6,1.2,1.2,1.2c0.6,0,0.9-0.2,1.1-0.6l1.1,0.4c-0.3,0.8-1.2,1.2-2.2,1.2   c-1.6,0-2.6-1-2.6-2.6c0-1.6,1-2.6,2.5-2.6c1.5,0,2.4,1,2.4,2.3C35.4,244.6,35.4,244.9,35.4,245z M31.8,244.1h2.2   c-0.1-0.7-0.4-1.1-1.1-1.1C32.4,243,32,243.4,31.8,244.1z"/>
	<path class="st8" d="M39.5,240.7c0-0.5,0.3-0.7,0.8-0.7s0.8,0.2,0.8,0.7s-0.3,0.7-0.8,0.7S39.5,241.2,39.5,240.7z M41,247.1h-1.4   v-5H41V247.1z"/>
	<path class="st8" d="M47.2,243.8v3.3h-1.4v-2.9c0-0.8-0.4-1.1-0.9-1.1c-0.6,0-1.1,0.4-1.1,1.4v2.6h-1.4v-5h1.2l0.1,0.9   c0.3-0.7,0.9-1,1.7-1C46.5,242,47.2,242.6,47.2,243.8z"/>
	<path class="st8" d="M52.1,246.8c-0.3,0.3-0.8,0.4-1.4,0.4c-1,0-1.7-0.4-1.7-1.5v-2.6h-0.9v-1H49V241l1.4-0.4v1.5H52v1h-1.6v2.3   c0,0.5,0.3,0.7,0.7,0.7c0.3,0,0.6-0.1,0.8-0.3L52.1,246.8z"/>
	<path class="st8" d="M57.5,245H54c0.1,0.8,0.6,1.2,1.2,1.2c0.6,0,0.9-0.2,1.1-0.6l1.1,0.4c-0.3,0.8-1.2,1.2-2.2,1.2   c-1.6,0-2.6-1-2.6-2.6c0-1.6,1-2.6,2.5-2.6c1.5,0,2.4,1,2.4,2.3C57.5,244.6,57.5,244.9,57.5,245z M54,244.1h2.2   c-0.1-0.7-0.4-1.1-1.1-1.1C54.5,243,54.1,243.4,54,244.1z M55.5,241.4h-1l0.7-1.7h1.3L55.5,241.4z"/>
	<path class="st8" d="M58.7,242.1h1.2l0.1,1c0.3-0.7,0.8-1.1,1.5-1.1c0.2,0,0.4,0,0.5,0.1l-0.2,1.1c-0.1,0-0.3-0.1-0.6-0.1   c-0.6,0-1.2,0.4-1.2,1.3v2.6h-1.4V242.1z"/>
	<path class="st8" d="M62.7,240.7c0-0.5,0.3-0.7,0.8-0.7s0.8,0.2,0.8,0.7s-0.3,0.7-0.8,0.7S62.7,241.2,62.7,240.7z M64.3,247.1h-1.4   v-5h1.4V247.1z"/>
	<path class="st8" d="M70.3,245h-3.5c0.1,0.8,0.6,1.2,1.2,1.2c0.6,0,0.9-0.2,1.1-0.6l1.1,0.4c-0.3,0.8-1.2,1.2-2.2,1.2   c-1.6,0-2.6-1-2.6-2.6c0-1.6,1-2.6,2.5-2.6c1.5,0,2.4,1,2.4,2.3C70.4,244.6,70.3,244.9,70.3,245z M66.8,244.1H69   c-0.1-0.7-0.4-1.1-1.1-1.1C67.3,243,66.9,243.4,66.8,244.1z"/>
	<path class="st8" d="M71.5,245.4v-3.3h1.4v3c0,0.8,0.3,1,0.9,1c0.6,0,1.1-0.4,1.1-1.3v-2.7h1.4v5H75l-0.1-0.9c-0.3,0.7-0.9,1-1.7,1   C72.3,247.2,71.5,246.7,71.5,245.4z"/>
	<path class="st8" d="M77.7,242.1h1.2l0.1,1c0.3-0.7,0.8-1.1,1.5-1.1c0.2,0,0.4,0,0.5,0.1l-0.2,1.1c-0.1,0-0.3-0.1-0.6-0.1   c-0.6,0-1.2,0.4-1.2,1.3v2.6h-1.4V242.1z"/>
	<path class="st8" d="M29.3,257.4v-3.3h1.4v3c0,0.8,0.3,1,0.9,1c0.6,0,1.1-0.4,1.1-1.3v-2.7h1.4v5h-1.2l-0.1-0.9   c-0.3,0.7-0.9,1-1.7,1C30.1,259.2,29.3,258.7,29.3,257.4z"/>
	<path class="st8" d="M36.9,257.6c0,0.5,0.1,0.6,0.5,0.6c0.2,0,0.3,0,0.6-0.1l-0.1,0.9c-0.2,0.1-0.6,0.2-0.9,0.2   c-1,0-1.4-0.5-1.4-1.5v-5.8h1.4V257.6z"/>
	<path class="st8" d="M42,258.8c-0.3,0.3-0.8,0.4-1.4,0.4c-1,0-1.7-0.4-1.7-1.5v-2.6H38v-1H39V253l1.4-0.4v1.5h1.6v1h-1.6v2.3   c0,0.5,0.3,0.7,0.7,0.7c0.3,0,0.6-0.1,0.8-0.3L42,258.8z"/>
	<path class="st8" d="M42.9,254.1h1.2l0.1,1c0.3-0.7,0.8-1.1,1.5-1.1c0.2,0,0.4,0,0.5,0.1l-0.2,1.1c-0.1,0-0.3-0.1-0.6-0.1   c-0.6,0-1.2,0.4-1.2,1.3v2.6h-1.4V254.1z"/>
	<path class="st8" d="M51.9,258.2l-0.1,0.8c-0.2,0.1-0.4,0.1-0.6,0.1c-0.6,0-1-0.2-1.2-0.7c-0.3,0.5-1,0.7-1.6,0.7   c-1,0-1.6-0.5-1.6-1.3c0-0.7,0.5-1.2,1.4-1.4l1.7-0.4v-0.2c0-0.6-0.4-0.9-0.9-0.9c-0.5,0-0.9,0.2-1.1,0.8l-1.2-0.4   c0.2-0.9,1-1.5,2.3-1.5c1.3,0,2.2,0.6,2.2,1.8v2c0,0.3,0.1,0.4,0.4,0.4C51.7,258.3,51.8,258.3,51.9,258.2z M49.8,257.3V257l-1,0.2   c-0.5,0.1-0.7,0.2-0.7,0.6c0,0.3,0.3,0.5,0.6,0.5C49.3,258.2,49.8,258,49.8,257.3z"/>
	<path class="st8" d="M56.2,257.1h-3.5v-1.2h3.5V257.1z"/>
	<path class="st8" d="M62.6,251.9v7.2h-1.2l-0.1-1c-0.3,0.7-0.9,1.1-1.6,1.1c-1.2,0-2.1-1-2.1-2.6c0-1.7,0.9-2.6,2.2-2.6   c0.7,0,1.2,0.4,1.5,0.9v-3H62.6z M61.3,256.6c0-1-0.4-1.5-1.1-1.5c-0.7,0-1.2,0.5-1.2,1.5c0,1,0.4,1.5,1.2,1.5   C60.8,258.2,61.3,257.6,61.3,256.6z"/>
	<path class="st8" d="M68.9,256.6c0,1.6-1,2.6-2.6,2.6c-1.5,0-2.6-1-2.6-2.6c0-1.6,1-2.6,2.6-2.6C67.9,254,68.9,255,68.9,256.6z    M65.2,256.6c0,1.1,0.4,1.6,1.2,1.6c0.7,0,1.2-0.5,1.2-1.6c0-1.1-0.4-1.6-1.2-1.6C65.6,255,65.2,255.6,65.2,256.6z"/>
	<path class="st8" d="M70,257.4v-3.3h1.4v3c0,0.8,0.3,1,0.9,1c0.6,0,1.1-0.4,1.1-1.3v-2.7h1.4v5h-1.2l-0.1-0.9c-0.3,0.7-0.9,1-1.7,1   C70.8,259.2,70,258.7,70,257.4z"/>
	<path class="st8" d="M79.5,259.1l-1.1-1.8l-1.1,1.8h-1.5l1.8-2.5l-1.7-2.5h1.6l1,1.7l1.1-1.7H81l-1.8,2.5l1.8,2.5H79.5z"/>
</g>
<g>
	<polygon class="st4" points="46.7,91.8 46.2,91.8 46.2,91.8 45.7,91.8 45.7,91.9 45.2,91.9 45.2,92 44.7,92.1 44.7,92.1 44.3,92.3    44.3,92.3 43.9,92.5 43.8,92.5 43.4,92.7 43.4,92.7 43.1,93 43,93 42.7,93.3 42.7,93.3 42.4,93.6 42.3,93.7 42,94 42,94 41.8,94.4    41.7,94.4 41.5,94.8 41.5,94.8 41.3,95.2 41.3,95.2 41.1,95.7 41.1,95.7 41,96.1 41,96.1 40.9,96.6 40.9,96.6 40.8,97.1 40.8,97.1    40.8,97.6 40.8,97.8 40.8,98.3 40.8,98.3 40.9,98.8 40.9,98.8 41,99.3 41,99.3 41.1,99.7 41.1,99.7 41.3,100.2 41.3,100.2    41.5,100.6 41.5,100.6 41.7,101 41.8,101 42,101.4 42,101.4 42.3,101.8 42.3,101.8 42.7,102.1 42.7,102.1 43,102.4 43.1,102.4    43.4,102.7 43.4,102.7 43.8,102.9 43.9,102.9 44.3,103.1 44.3,103.1 44.7,103.3 44.7,103.3 45.2,103.4 45.2,103.5 45.7,103.6    45.7,103.6 46.1,103.6 46.2,103.6 46.7,103.6 99.6,103.7 100.1,103.7 100.1,103.7 100.6,103.6 100.6,103.6 101.1,103.5    101.1,103.5 101.6,103.4 101.6,103.4 102,103.2 102,103.2 102.4,103 102.5,103 102.9,102.7 102.9,102.7 103.2,102.4 103.3,102.4    103.6,102.2 103.6,102.1 104,101.8 104,101.8 104.3,101.5 104.3,101.4 104.5,101.1 104.6,101 104.8,100.7 104.8,100.6 105,100.2    105,100.2 105.2,99.8 105.2,99.8 105.3,99.3 105.3,99.3 105.4,98.9 105.4,98.8 105.5,98.4 105.5,98.3 105.5,97.9 105.5,97.6    105.5,97.2 105.5,97.1 105.4,96.7 105.4,96.6 105.3,96.2 105.3,96.2 105.2,95.7 105.2,95.7 105,95.3 105,95.3 104.8,94.9    104.8,94.8 104.6,94.4 104.5,94.4 104.3,94.1 104.3,94 104,93.7 104,93.7 103.6,93.4 103.6,93.3 103.3,93.1 103.2,93 102.9,92.8    102.9,92.8 102.5,92.5 102.4,92.5 102,92.3 102,92.3 101.6,92.1 101.6,92.1 101.1,92 101.1,92 100.7,91.9 100.6,91.9 100.2,91.8    100.1,91.8 99.6,91.8  "/>
	<path class="st6" d="M47.3,95.1v5.5c0,0.1,0.1,0.2,0.1,0.1l2.6-0.2c0.1,0,0.1-0.1,0.1-0.2v-0.6c0-0.1-0.1-0.1-0.1-0.1l-1.9,0.1   v-1.4h1.6c0.1,0,0.1-0.1,0.1-0.1v-0.7c0-0.1-0.1-0.1-0.1-0.1h-1.6v-1.3l1.9,0.1c0.1,0,0.1-0.1,0.1-0.1v-0.8c0-0.1-0.1-0.2-0.1-0.2   l-2.6-0.2C47.3,95,47.3,95.1,47.3,95.1z"/>
	<path class="st6" d="M50.9,95.4v5c0,0.1,0,0.1,0.1,0.1l2.3-0.1c0.1,0,0.1-0.1,0.1-0.1v-0.6c0-0.1-0.1-0.1-0.1-0.1l-1.6,0.1v-4.2   c0-0.1-0.1-0.1-0.1-0.1H51C51,95.3,50.9,95.3,50.9,95.4z"/>
	<path class="st6" d="M56.3,98.7H55l0.6-1.5l0,0L56.3,98.7z M55.7,95.5C55.6,95.5,55.6,95.5,55.7,95.5c-0.8,1.6-1.4,3.2-2.1,4.8   c0,0.1,0,0.2,0.1,0.2h0.6c0.1,0,0.2-0.1,0.2-0.2l0.3-0.8l1.9-0.1l0.3,0.7c0,0.1,0.1,0.1,0.2,0.1h0.6c0.1,0,0.1-0.1,0.1-0.2   c-0.7-1.4-1.3-2.9-2-4.5C55.8,95.5,55.8,95.5,55.7,95.5L55.7,95.5z"/>
	<path class="st6" d="M58.1,96.8c0,0.8,0.6,1.2,1.2,1.4c0.5,0.2,0.8,0.4,0.8,0.8c0,0.3-0.3,0.5-0.6,0.5c-0.4,0-0.7-0.2-1-0.4   c-0.1,0-0.2,0-0.2,0.1l-0.2,0.4c-0.1,0.1,0,0.1,0,0.2c0.2,0.2,0.6,0.5,1.4,0.4c0.9,0,1.5-0.6,1.5-1.3c0-0.8-0.7-1.2-1.3-1.4   c-0.5-0.2-0.7-0.4-0.7-0.7c0-0.2,0.2-0.4,0.6-0.4c0.3,0,0.6,0.2,0.9,0.4c0.1,0.1,0.2,0,0.2-0.1l0.2-0.3c0-0.1,0-0.2,0-0.2   c-0.1-0.1-0.6-0.4-1.3-0.5C58.6,95.6,58.1,96.2,58.1,96.8z"/>
	<path class="st6" d="M61.5,95.9v0.5c0,0.1,0,0.1,0.1,0.1h1v3.4c0,0.1,0.1,0.1,0.1,0.1h0.6c0.1,0,0.1-0.1,0.1-0.1v-3.3h1   c0.1,0,0.1,0,0.1-0.1V96c0-0.1-0.1-0.1-0.1-0.1H61.5C61.5,95.8,61.5,95.8,61.5,95.9z"/>
	<path class="st6" d="M65.2,96v3.9c0,0.1,0.1,0.1,0.1,0.1h0.6c0.1,0,0.1-0.1,0.1-0.1v-3.8c0-0.1-0.1-0.1-0.1-0.1H65.2   C65.3,95.9,65.2,95.9,65.2,96z"/>
	<path class="st6" d="M66.9,97.9c0,1.2,1,2,2.3,2c0.6,0,1.1-0.2,1.6-0.6v-0.1l-0.5-0.3c0,0-0.1,0-0.2,0c-0.3,0.2-0.6,0.3-1,0.3   c-0.8,0-1.4-0.6-1.4-1.3c0-0.7,0.6-1.3,1.4-1.3c0.4,0,0.7,0.1,1,0.3c0,0,0.1,0,0.2,0l0.4-0.3c0,0,0-0.1,0-0.2   c-0.4-0.3-0.9-0.5-1.5-0.5C67.9,95.9,66.9,96.8,66.9,97.9z"/>
	<path class="st6" d="M72.8,97c0,0.7,0.6,1,1.2,1.2c0.5,0.2,0.8,0.4,0.8,0.7c0,0.2-0.2,0.4-0.6,0.4s-0.7-0.2-1-0.3   c-0.1,0-0.2,0-0.2,0l-0.2,0.3c-0.1,0.1,0,0.1,0,0.2c0.2,0.1,0.6,0.4,1.4,0.4c0.9,0,1.5-0.5,1.5-1.1c0-0.7-0.7-1-1.3-1.3   c-0.5-0.2-0.7-0.4-0.7-0.6s0.2-0.4,0.6-0.4c0.4,0,0.6,0.2,0.9,0.3c0.1,0,0.2,0,0.2-0.1l0.2-0.3c0-0.1,0-0.2,0-0.2   c-0.1-0.1-0.6-0.4-1.3-0.4C73.2,95.9,72.8,96.5,72.8,97z"/>
	<path class="st6" d="M76.2,96C76.1,96,76.1,96,76.2,96l-0.1,0.6c0,0.1,0.1,0.1,0.1,0.1h1v3.2c0,0.1,0.1,0.1,0.1,0.1h0.6   c0.1,0,0.1-0.1,0.1-0.1v-3.2h1c0.1,0,0.1-0.1,0.1-0.1v-0.5c0-0.1,0-0.1-0.1-0.1H76.2z"/>
	<path class="st6" d="M82.3,97.2c0,0.3-0.3,0.6-0.6,0.6h-1v-1.2h1C82.1,96.6,82.3,96.8,82.3,97.2z M80,95.9   C79.9,95.9,79.9,96,80,95.9l-0.1,3.9c0,0.1,0.1,0.1,0.1,0.1h0.6c0.1,0,0.1-0.1,0.1-0.1v-1.5h0.7l0.8,1.6c0,0,0,0.1,0.1,0.1H83   c0.1,0,0.2-0.1,0.1-0.2l-0.9-1.5c0.6-0.2,0.9-0.7,0.9-1.2c0-0.7-0.6-1.3-1.4-1.3L80,95.9z"/>
	<path class="st6" d="M84.2,95.8C84.1,95.8,84.1,95.9,84.2,95.8l-0.1,4.1c0,0.1,0.1,0.1,0.1,0.1l2.6,0.1c0.1,0,0.1,0,0.1-0.1v-0.5   c0-0.1-0.1-0.1-0.1-0.1h-1.9v-1.1h1.6c0.1,0,0.1-0.1,0.1-0.1v-0.5c0-0.1-0.1-0.1-0.1-0.1h-1.6v-1h1.9c0.1,0,0.1-0.1,0.1-0.1V96   c0-0.1-0.1-0.1-0.1-0.1L84.2,95.8z"/>
	<path class="st6" d="M87.5,95.7C87.4,95.7,87.4,95.8,87.5,95.7l-0.1,0.6c0,0.1,0,0.1,0.1,0.1h1v3.7c0,0.1,0.1,0.1,0.1,0.1h0.6   c0.1,0,0.1,0,0.1-0.1v-3.7h1c0.1,0,0.1-0.1,0.1-0.1v-0.6c0-0.1,0-0.1-0.1-0.1L87.5,95.7z"/>
	<path class="st6" d="M93,95.4c-1.3,0.1-2.3,1.2-2.3,2.6s1,2.5,2.3,2.6c0.6,0,1.1-0.2,1.5-0.6c0,0,0.1-0.1,0-0.2l-0.4-0.5   c0,0-0.1-0.1-0.2,0c-0.3,0.2-0.6,0.4-1,0.4c-0.8,0-1.4-0.8-1.4-1.7c0-0.9,0.6-1.6,1.4-1.7c0.4,0,0.7,0.1,1,0.4   c0.1,0.1,0.1,0.1,0.2,0l0.4-0.5c0.1-0.1,0.1-0.1,0-0.2C94.1,95.5,93.6,95.3,93,95.4z"/>
	<path class="st6" d="M98.3,95.1c-0.1,0-0.1,0.1-0.1,0.2v2.2h-2.1v-2.1c0-0.1,0-0.1-0.1-0.1h-0.6c-0.1,0-0.1,0.1-0.1,0.2v5   c0,0.1,0.1,0.1,0.1,0.2H96c0.1,0,0.1-0.1,0.1-0.1v-2.1h2.1v2.3c0,0.1,0,0.2,0.1,0.2h0.6c0.1,0,0.1-0.1,0.1-0.2v-5.5   c0-0.1-0.1-0.2-0.1-0.1L98.3,95.1z"/>
</g>
<g>
	<path class="st9" d="M142.2,96.9c-0.5,0.8-0.3,1.8,0.4,2.4l1.3,1.2c-9.8-0.1-19.7-0.4-29.3-0.7l1.4-1c0.5-0.3,0.7-0.9,0.7-1.4   s-0.5-1.1-1.1-1.4c-0.6-0.3-1.3-0.2-1.9,0.2l-5.4,4.1c-0.4,0.3-0.6,0.7-0.6,1.3c0,0.5,0.1,0.9,0.5,1.3c1.5,1.6,3.3,3.1,5,4.6   c0.2,0.1,0.2,0.2,0.3,0.3c0.7,0.3,1.6,0.1,2.1-0.7s0.3-1.8-0.3-2.4c-0.5-0.4-0.9-0.7-1.4-1.2c9.6,0.3,19.5,0.5,29.4,0.7l-1.4,1   c-0.5,0.3-0.7,0.9-0.7,1.4c0.1,0.6,0.5,1.1,1.1,1.4c0.6,0.3,1.3,0.2,1.9-0.2l5.4-4.1c0.4-0.3,0.6-0.7,0.7-1.2   c0-0.5-0.1-0.9-0.5-1.3c-1.5-1.6-3.3-3.1-5-4.6c-0.1,0-0.2-0.2-0.3-0.3C143.6,95.9,142.7,96.1,142.2,96.9"/>
	<path class="st6" d="M141.3,96.5c-0.6,1-0.6,2.2,0.2,3.1c-8.3-0.1-16.5-0.3-24.6-0.5c0.4-0.5,0.6-1.2,0.5-1.8   c-0.1-0.9-0.7-1.8-1.5-2.2c-0.9-0.4-2-0.3-2.8,0.3l-2.7,2.1l-2.7,2.1c-0.5,0.4-1,1.1-1,1.8c0,0.8,0.2,1.4,0.7,2   c1.5,1.6,3.2,3.2,5.1,4.7c0.1,0.2,0.3,0.3,0.6,0.4c1.2,0.6,2.5,0.2,3.3-1c0.6-1,0.6-2.2-0.1-3c8.1,0.2,16.3,0.4,24.6,0.6   c-0.4,0.5-0.5,1.1-0.5,1.8c0.1,0.9,0.7,1.8,1.5,2.2c0.9,0.4,2,0.3,2.8-0.2l1.9-1.4l3.5-2.6c0.5-0.4,0.9-1.1,1-1.8   c0-0.8-0.2-1.4-0.7-2c-1.5-1.6-3.2-3.2-5.1-4.7c-0.1-0.2-0.3-0.3-0.5-0.4C143.4,94.9,142,95.3,141.3,96.5 M144,97.2   c1.7,1.5,3.4,2.9,4.9,4.6c0.3,0.4,0.2,0.9-0.1,1.2l-5.4,4.1c-0.3,0.2-0.7,0.2-0.9,0.1c-0.5-0.3-0.8-0.9-0.2-1.4l3.5-2.6   c-11.5-0.1-22.9-0.4-34.4-0.8c1,0.9,2,2,3.2,2.9c0.8,0.6,0.1,1.9-0.7,1.5l-0.2-0.1c-1.8-1.4-3.4-2.9-4.9-4.6   c-0.3-0.4-0.3-0.9,0-1.2l5.4-4.1c0.3-0.2,0.7-0.2,0.9-0.1c0.5,0.3,0.8,0.9,0.2,1.4l-3.3,2.5c11.4,0.4,22.8,0.6,34.1,0.8   c-1-0.9-2-1.8-3-2.7c-0.8-0.6-0.1-1.9,0.7-1.5L144,97.2z"/>
</g>
</svg>