<?xml version="1.0" encoding="utf-8"?>
<!-- Generator: Adobe Illustrator 24.2.1, SVG Export Plug-In . SVG Version: 6.00 Build 0)  -->
<svg version="1.1" id="Calque_1" xmlns="http://www.w3.org/2000/svg" xmlns:xlink="http://www.w3.org/1999/xlink" x="0px" y="0px"
	 viewBox="0 0 1014 686" style="enable-background:new 0 0 1014 686;" xml:space="preserve">
<style type="text/css">
	.st0{fill:#666666;}
	.st1{fill:#EDC1BE;}
	.st2{fill:#B2B6BB;}
	.st3{fill:none;stroke:#EDC1BE;stroke-width:8;stroke-linecap:round;stroke-miterlimit:10;}
	.st4{fill:none;stroke:#B2B6BB;stroke-width:8;stroke-linecap:round;stroke-miterlimit:10;}
</style>
<g>
	<path class="st0" d="M59.4,68.9h-9.8c-0.7,0-1.2-0.6-1.2-1.2v-5.2c0-0.6,0.5-1.2,1.2-1.2h28c0.7,0,1.2,0.6,1.2,1.2v5.2
		c0,0.6-0.5,1.2-1.2,1.2h-9.8v35.9c0,0.6-0.6,1.2-1.2,1.2h-6c-0.6,0-1.2-0.6-1.2-1.2V68.9z"/>
	<path class="st0" d="M89.3,87.4c3,0,5.7,0.8,5.7,0.8c0.1-3.8-1-5.6-4.1-5.6c-2.7,0-6.6,0.6-8.3,1.1c-1,0.3-1.5-0.4-1.7-1.3
		l-0.6-3.3c-0.3-1.1,0.3-1.6,1-1.8c0.6-0.3,5.3-1.5,10.1-1.5c9.2,0,11.1,4.8,11.1,12.9v15.9c0,0.8-0.6,1.4-1.4,1.4h-2.2
		c-0.5,0-0.9-0.2-1.3-1l-0.8-2c-1.7,1.7-4.7,3.7-9.3,3.7c-5.9,0-10-3.8-10-10.1C77.5,91.4,81.8,87.4,89.3,87.4z M89.5,100.8
		c2.6,0,4.9-2,5.3-3.1v-4.4c0,0-2-0.9-4.4-0.9c-3.4,0-5.2,1.6-5.2,4.2C85.2,99.1,86.7,100.8,89.5,100.8z"/>
	<path class="st0" d="M110.1,77.9c0-0.8,0.6-1.4,1.4-1.4h5.2c0.8,0,1.4,0.6,1.4,1.4v15.7c0,3.9,1.3,5.9,5,5.9c3.3,0,4.8-2.9,5.2-5.5
		V77.9c0-1.2,0.4-1.4,1.6-1.4h5c0.8,0,1.4,0.6,1.4,1.4v26.8c0,0.8-0.6,1.4-1.4,1.4h-2.3c-0.7,0-1.2-0.5-1.4-1.1l-0.8-2.5
		c-1.5,1.6-4.6,4.3-9.2,4.3c-9.2,0-11.1-5.7-11.1-13.2V77.9z"/>
	<path class="st0" d="M142.1,103.9l9.4-12.9l-9-12.4c-0.8-1-0.2-2.2,1-2.2h5.8c1,0,1.7,0.1,2.4,1l4.9,7.7h0.1l5.1-7.7
		c0.6-0.8,1.2-1,2.2-1h6.3c1.3,0,1.6,1.2,0.8,2.2l-9.1,12.2l9.2,13c0.7,1,0.4,2.2-0.8,2.2h-6.1c-1,0-1.5-0.4-2-1.2l-5.4-8.1h-0.1
		l-5.8,8.8c-0.3,0.3-0.8,0.6-1.2,0.6h-6.7C141.8,106.1,141.5,104.8,142.1,103.9z"/>
	<path class="st0" d="M205.6,75.8c2.9,0,5.8,0.7,7.1,1.2V62.7c0-0.7,0.7-1.4,1.4-1.4h5.2c0.8,0,1.4,0.7,1.4,1.4v42
		c0,0.8-0.6,1.4-1.4,1.4h-2.4c-0.7,0-1.2-0.6-1.4-1.4l-0.8-2.3c0,0-3.4,4.4-9.7,4.4c-8.1,0-14.1-6.5-14.1-15.5
		C190.9,82.6,196.8,75.8,205.6,75.8z M212.7,84.8c0,0-2.4-1.7-6.1-1.7c-4.9,0-7.4,4-7.4,8.1c0,4.2,2.4,8.2,7,8.2
		c3.8,0,5.9-2.4,6.5-4.1V84.8z"/>
	<path class="st0" d="M242,75.8c7.7,0,13.6,5.7,13.6,13.7c0,0.4-0.1,1.5-0.1,1.9c-0.1,0.8-0.8,1.3-1.4,1.3h-18.9
		c0.1,3.6,3.1,6.8,7.4,6.8c2.9,0,5-1.1,6.3-2.2c0.7-0.6,1.5-0.6,1.9,0l2.5,3.3c0.5,0.6,0.6,1.3-0.1,1.9c-2.6,2.2-6.2,4-11,4
		c-8.8,0-15-7-15-15.5C227.1,82.9,233.2,75.8,242,75.8z M247.5,87.6c-0.1-2.9-2.4-5.1-5.7-5.1c-3.6,0-5.9,2.2-6.3,5.1H247.5z"/>
	<path class="st0" d="M279.4,83.7h-3.1c-0.8,0-1.4-0.7-1.4-1.4v-4.4c0-0.8,0.6-1.4,1.4-1.4h3.1V73c0-7.9,4.2-12.4,12-12.4
		c3.9,0,7.4,1.7,8.7,2.9c0.5,0.3,0.6,1.2,0.3,1.7l-2.2,3.9c-0.3,0.6-1.2,0.8-1.8,0.4c-1-0.6-3-1.5-4.6-1.5c-3.7,0-4.4,2-4.4,5.1v3.5
		h8.1c0.8,0,1.4,0.6,1.4,1.4v4.4c0,0.7-0.6,1.4-1.4,1.4h-8.1v21c0,0.8-0.6,1.4-1.4,1.4h-5.2c-0.8,0-1.4-0.6-1.4-1.4V83.7z"/>
	<path class="st0" d="M301.8,77.9c0-0.8,0.6-1.4,1.4-1.4h5.2c0.8,0,1.4,0.6,1.4,1.4v15.7c0,3.9,1.3,5.9,5,5.9c3.3,0,4.8-2.9,5.2-5.5
		V77.9c0-1.2,0.4-1.4,1.6-1.4h5c0.8,0,1.4,0.6,1.4,1.4v26.8c0,0.8-0.6,1.4-1.4,1.4h-2.3c-0.7,0-1.2-0.5-1.4-1.1l-0.8-2.5
		c-1.5,1.6-4.6,4.3-9.2,4.3c-9.2,0-11.1-5.7-11.1-13.2V77.9z"/>
	<path class="st0" d="M335.1,66.3c0-2.8,2.2-5.1,5.1-5.1s5.1,2.2,5.1,5.1s-2.2,5.1-5.1,5.1S335.1,69.1,335.1,66.3z M336.3,77.9
		c0-0.8,0.7-1.4,1.4-1.4h5.2c0.7,0,1.4,0.6,1.4,1.4v26.8c0,0.8-0.7,1.4-1.4,1.4h-5.2c-0.7,0-1.4-0.6-1.4-1.4V77.9z"/>
	<path class="st0" d="M354.4,83.7h-2.9c-0.8,0-1.3-0.7-1.3-1.4v-4.4c0-0.8,0.6-1.4,1.3-1.4h2.9v-8.2c0-0.8,0.7-1.4,1.4-1.4h5.2
		c0.8,0,1.3,0.6,1.3,1.4v8.2h6.9c0.8,0,1.4,0.6,1.4,1.4v4.4c0,0.7-0.6,1.4-1.4,1.4h-6.9V97c0,2,1,2.4,2.4,2.4c1.3,0,3.7-0.7,4.5-1
		c0.8-0.3,1.5,0.1,1.7,0.8l0.8,3.9c0.2,0.8-0.1,1.3-0.8,1.7c-1,0.6-5.2,1.9-8.3,1.9c-6.6,0-8.3-4.4-8.3-9.5V83.7z"/>
	<path class="st0" d="M390.5,75.8c7.7,0,13.6,5.7,13.6,13.7c0,0.4-0.1,1.5-0.1,1.9c-0.1,0.8-0.8,1.3-1.4,1.3h-18.9
		c0.1,3.6,3.1,6.8,7.4,6.8c2.9,0,5-1.1,6.3-2.2c0.7-0.6,1.5-0.6,1.9,0l2.5,3.3c0.5,0.6,0.6,1.3-0.1,1.9c-2.6,2.2-6.2,4-11,4
		c-8.8,0-15-7-15-15.5C375.6,82.9,381.8,75.8,390.5,75.8z M396,87.6c-0.1-2.9-2.4-5.1-5.7-5.1c-3.6,0-5.9,2.2-6.3,5.1H396z"/>
	<path class="st0" d="M409.2,104.1c-0.4-0.3-0.7-1-0.4-1.6l1.9-3.8c0.3-0.7,1-1,1.7-0.5c1.3,0.8,3.5,1.9,6.5,1.9
		c2.2,0,3.3-0.8,3.3-2.1c0-1.3-1.7-2.6-5.6-4.1c-5.7-2.2-8.3-4.9-8.3-9.3s3.4-8.6,10.6-8.6c4.4,0,7.2,1.2,8.8,2.2
		c0.6,0.5,1,1.3,0.6,2l-1.7,3.4c-0.4,0.7-1.2,0.8-1.9,0.6c-1.4-0.6-3.5-1.5-5.9-1.5c-2,0-2.8,1-2.8,1.9c0,1.3,1.5,2,4.2,3.2
		c5.7,2.3,9.8,4.4,9.8,10.2c0,4.7-4,8.8-11.4,8.8C414,106.8,410.9,105.2,409.2,104.1z"/>
</g>
<g>
	<path class="st1" d="M56,282h-7c-0.5,0-0.9-0.4-0.9-0.9v-5.3c0-0.5,0.4-0.9,0.9-0.9h21.8c0.5,0,0.9,0.4,0.9,0.9v5.3
		c0,0.5-0.4,0.9-0.9,0.9h-7v26.2c0,0.5-0.4,0.9-0.9,0.9h-5.9c-0.5,0-0.9-0.4-0.9-0.9V282z"/>
	<path class="st1" d="M78.7,294.6c2.5,0,4.5,1,4.5,1c0-2.2-0.5-3.5-3.1-3.5c-1.6,0-4.2,0.3-5.7,0.8c-0.9,0.3-1.3-0.3-1.4-1.2
		l-0.5-3.5c-0.1-1,0.4-1.4,0.9-1.6c0.5-0.2,4.5-0.7,7.5-0.7c7,0,9.5,2.8,9.5,9.6V308c0,0.6-0.5,1.1-1.1,1.1h-2.4
		c-0.3,0-0.7-0.1-1-0.7l-0.7-1.5c-1.4,1.2-3.3,2.8-6.9,2.8c-4.5,0-7.8-2.9-7.8-7.4C70.4,297.8,73.5,294.6,78.7,294.6z M80.2,304.1
		c1.4,0,2.5-1.1,2.5-2.5c0-1.3-1.2-2.5-2.5-2.5c-1.4,0-2.5,1.2-2.5,2.5C77.7,303,78.8,304.1,80.2,304.1z"/>
	<path class="st1" d="M95.6,287.5c0-0.6,0.4-1.1,1.1-1.1h2.2c0.4,0,0.8,0.2,0.9,0.6l0.9,2.3c1.5-1.5,3.3-3.4,7-3.4
		c3.1,0,4.7,1.2,6.7,3.4c1.2-1.3,3.3-3.4,7.2-3.4c7,0,9.3,5,9.3,11.5V308c0,0.6-0.5,1.1-1.1,1.1h-5.3c-0.6,0-1.1-0.5-1.1-1.1V297
		c0-2.3-0.7-4.2-3.3-4.2c-2,0-3.2,1.6-3.2,3.8V308c0,0.6-0.4,1.1-1,1.1h-5.3c-0.6,0-1.1-0.5-1.1-1.1V297c0-2.3-0.4-4.2-2.9-4.2
		c-2.3,0-3.5,1.6-3.5,3.9V308c0,0.6-0.5,1.1-1.1,1.1h-5.3c-0.6,0-1.1-0.5-1.1-1.1V287.5z"/>
	<path class="st1" d="M136.2,275.8c0-0.5,0.5-1.1,1.1-1.1h5.3c0.6,0,1.1,0.5,1.1,1.1v11.6c0.7-0.6,2.9-1.5,5.2-1.5
		c6,0,11.2,3.8,11.2,11.8c0,6.5-4.8,11.9-11.2,11.9c-5,0-7.6-3.5-7.6-3.5l-0.6,1.9c-0.2,0.6-0.6,1.1-1.2,1.1h-2.2
		c-0.6,0-1.1-0.5-1.1-1.1V275.8z M147.9,302.5c2.7,0,4.8-2,4.8-4.8c0-2.7-2.1-4.7-4.8-4.7c-2.8,0-4.8,2-4.8,4.7
		C143.1,300.5,145.1,302.5,147.9,302.5z"/>
	<path class="st1" d="M174.8,285.9c6.5,0,11.8,5.4,11.8,11.8c0,6.5-5.3,11.9-11.8,11.9c-6.5,0-11.8-5.4-11.8-11.9
		C163,291.3,168.4,285.9,174.8,285.9z M174.8,302.6c2.6,0,4.7-2.3,4.7-4.9c0-2.6-2.1-4.8-4.7-4.8c-2.6,0-4.8,2.2-4.8,4.8
		C170.1,300.3,172.2,302.6,174.8,302.6z"/>
	<path class="st1" d="M201.2,285.9c6.5,0,11.8,5.4,11.8,11.8c0,6.5-5.3,11.9-11.8,11.9c-6.5,0-11.8-5.4-11.8-11.9
		C189.4,291.3,194.8,285.9,201.2,285.9z M201.2,302.6c2.6,0,4.7-2.3,4.7-4.9c0-2.6-2.1-4.8-4.7-4.8c-2.6,0-4.8,2.2-4.8,4.8
		C196.5,300.3,198.6,302.6,201.2,302.6z"/>
	<path class="st1" d="M217.2,287.5c0-0.6,0.5-1.1,1.1-1.1h2.4c0.6,0,0.9,0.3,1,0.7l1,2.5c1-1.8,2.7-3.7,5.6-3.7
		c2.1,0,3.6,0.5,4.4,1.2c0.4,0.3,0.4,0.8,0.1,1.2l-2.3,4.5c-0.2,0.4-0.6,0.8-1.3,0.5c-0.4-0.1-1.2-0.3-1.7-0.3c-1.7,0-3,1.2-3,3.1
		V308c0,0.7-0.4,1.1-1.2,1.1h-5.1c-0.6,0-1.1-0.5-1.1-1.1V287.5z"/>
	<path class="st1" d="M247.8,275.7c0-0.5,0.4-0.9,0.9-0.9h11.8c6.5,0,11,4.9,11,10.8c0,6.1-4.5,11-10.9,11h-5.1v11.5
		c0,0.5-0.4,0.9-0.9,0.9h-5.8c-0.5,0-0.9-0.4-0.9-0.9V275.7z M260.4,289.5c2.1,0,3.6-1.7,3.6-3.9c0-2.1-1.5-3.6-3.6-3.6h-4.9v7.5
		H260.4z"/>
	<path class="st1" d="M274.8,287.5c0-0.6,0.5-1.1,1.1-1.1h2.4c0.6,0,0.9,0.3,1,0.7l1,2.5c1-1.8,2.7-3.7,5.6-3.7
		c2.1,0,3.6,0.5,4.4,1.2c0.4,0.3,0.4,0.8,0.1,1.2l-2.3,4.5c-0.2,0.4-0.6,0.8-1.3,0.5c-0.4-0.1-1.2-0.3-1.7-0.3c-1.7,0-3,1.2-3,3.1
		V308c0,0.7-0.4,1.1-1.2,1.1h-5.1c-0.6,0-1.1-0.5-1.1-1.1V287.5z"/>
	<path class="st1" d="M303.4,285.9c5.7,0,10.7,4.4,10.7,10.6c0,0.3,0,1.1-0.1,1.5c0,0.6-0.6,1-1.1,1h-14c0,1.8,1.6,3.9,4.7,3.9
		c1.5,0,3.3-0.7,4.3-1.4c0.5-0.4,1.1-0.4,1.4,0l2.5,3.3c0.3,0.4,0.4,1.1,0,1.6c-2,2-4.8,3.2-8.4,3.2c-6.8,0-11.9-4.9-11.9-11.9
		C291.6,291.4,296.6,285.9,303.4,285.9z M306.4,294.6c-0.1-1.5-1.4-2.8-3.3-2.8c-1.9,0-3.1,1.3-3.4,2.8H306.4z"/>
	<path class="st1" d="M318,287.5c0-0.6,0.4-1.1,1.1-1.1h2.2c0.4,0,0.8,0.2,0.9,0.6l0.9,2.3c1.5-1.5,3.3-3.4,7-3.4
		c3.1,0,4.7,1.2,6.7,3.4c1.2-1.3,3.3-3.4,7.2-3.4c7,0,9.3,5,9.3,11.5V308c0,0.6-0.5,1.1-1.1,1.1h-5.3c-0.6,0-1.1-0.5-1.1-1.1V297
		c0-2.3-0.7-4.2-3.3-4.2c-2,0-3.2,1.6-3.2,3.8V308c0,0.6-0.4,1.1-1,1.1h-5.3c-0.6,0-1.1-0.5-1.1-1.1V297c0-2.3-0.4-4.2-2.9-4.2
		c-2.3,0-3.5,1.6-3.5,3.9V308c0,0.6-0.5,1.1-1.1,1.1h-5.3c-0.6,0-1.1-0.5-1.1-1.1V287.5z"/>
	<path class="st1" d="M357.9,279.1c0-2.4,1.9-4.3,4.2-4.3c2.4,0,4.3,2,4.3,4.3c0,2.3-1.9,4.2-4.3,4.2
		C359.8,283.3,357.9,281.4,357.9,279.1z M358.5,287.5c0-0.6,0.5-1.1,1.1-1.1h5.3c0.6,0,1.1,0.4,1.1,1.1V308c0,0.6-0.5,1.1-1.1,1.1
		h-5.3c-0.6,0-1.1-0.5-1.1-1.1V287.5z"/>
	<path class="st1" d="M371.2,287.5c0-0.6,0.5-1.1,1-1.1h5.3c0.6,0,1.1,0.4,1.1,1.1v11.2c0,2.5,0.7,3.9,3,3.9c2.2,0,3.1-1.5,3.1-3.5
		v-11.6c0-0.9,0.7-1.1,1.2-1.1h5.1c0.6,0,1.1,0.4,1.1,1.1V308c0,0.6-0.5,1.1-1.1,1.1h-2.3c-0.5,0-0.9-0.4-1.1-0.8l-0.8-2.1
		c-1.4,1.4-3.8,3.4-7.2,3.4c-6.6,0-8.7-4.4-8.7-10.8V287.5z"/>
	<path class="st1" d="M397.7,287.5c0-0.6,0.4-1.1,1.1-1.1h2.2c0.4,0,0.8,0.2,0.9,0.6l0.9,2.3c1.5-1.5,3.3-3.4,7-3.4
		c3.1,0,4.7,1.2,6.7,3.4c1.2-1.3,3.3-3.4,7.2-3.4c7,0,9.3,5,9.3,11.5V308c0,0.6-0.5,1.1-1.1,1.1h-5.3c-0.6,0-1.1-0.5-1.1-1.1V297
		c0-2.3-0.7-4.2-3.3-4.2c-2,0-3.2,1.6-3.2,3.8V308c0,0.6-0.4,1.1-1,1.1h-5.3c-0.6,0-1.1-0.5-1.1-1.1V297c0-2.3-0.4-4.2-2.9-4.2
		c-2.3,0-3.5,1.6-3.5,3.9V308c0,0.6-0.5,1.1-1.1,1.1h-5.3c-0.6,0-1.1-0.5-1.1-1.1V287.5z"/>
	<path class="st1" d="M57.5,353.5c2.4,0,4.6,0.7,4.6,0.7c0.1-3.6-0.8-5.2-3.6-5.2c-2.6,0-5.1,0.7-6.3,1.1c-0.7,0.1-1.1-0.3-1.3-0.9
		l-0.4-1.9c-0.1-0.8,0.2-1.1,0.7-1.3c0.4-0.1,3.6-1.3,7.8-1.3c7.3,0,7.9,4.4,7.9,10v12.1c0,0.6-0.5,1.1-1.1,1.1h-1.6
		c-0.4,0-0.7-0.2-0.9-0.8l-0.5-1.5c-1.2,1.2-3.5,2.8-7,2.8c-4.3,0-7.3-2.8-7.3-7.5C48.5,356.7,51.7,353.5,57.5,353.5z M56.8,364.4
		c2.3,0,4.6-1.6,5.2-2.7v-3.8c-0.3-0.2-2.1-0.8-4.1-0.8c-2.6,0-4.7,1.4-4.7,3.7C53.3,362.8,54.4,364.4,56.8,364.4z"/>
	<path class="st1" d="M70.6,346.5c-0.4-0.7,0-1.3,0.8-1.3h3c0.5,0,0.8,0.2,1,0.6l6,13.9h0.1l6.3-13.9c0.3-0.6,0.9-0.6,1.5-0.6h2.2
		c0.8,0,1.2,0.6,0.8,1.3l-9.8,21.3c-0.1,0.3-0.4,0.6-0.9,0.6h-0.3c-0.5,0-0.8-0.3-1-0.6L70.6,346.5z"/>
	<path class="st1" d="M106,344.7c5.9,0,10.3,4.4,10.3,10.4c0,0.4,0,1.2-0.1,1.6c0,0.6-0.5,1-1,1H99.6c0,3,2.8,6.2,6.8,6.2
		c2.6,0,4.2-0.9,5.5-1.9c0.5-0.3,0.9-0.5,1.3,0.1l1.3,2.1c0.4,0.5,0.6,0.9-0.1,1.5c-1.6,1.4-4.6,2.8-8.4,2.8
		c-6.9,0-11.3-5.4-11.3-11.9C94.8,350.2,99.2,344.7,106,344.7z M111.5,354c-0.1-2.7-2.3-5.1-5.6-5.1c-3.6,0-5.7,2.3-6.1,5.1H111.5z"
		/>
	<path class="st1" d="M131.7,344.7c3.5,0,6.1,1.3,8.2,3.9c0.4,0.5,0.3,1.2-0.2,1.6l-1.8,1.6c-0.6,0.6-1.1,0.1-1.5-0.2
		c-1-1.1-2.8-2.3-4.7-2.3c-3.9,0-6.9,3.1-6.9,7.2c0,4.1,2.9,7.2,6.7,7.2c2.9,0,4.1-1.7,5.3-2.8c0.5-0.5,1-0.5,1.5-0.1l1.5,1.2
		c0.5,0.5,0.8,1,0.4,1.6c-1.9,2.8-4.9,4.7-8.8,4.7c-6.3,0-11.6-5-11.6-11.8C120.1,349.9,125.4,344.7,131.7,344.7z"/>
	<path class="st1" d="M157.5,334.6c0-0.5,0.5-1.1,1.1-1.1h2.7c0.5,0,1.1,0.5,1.1,1.1v32.1c0,0.6-0.5,1.1-1.1,1.1h-2.7
		c-0.6,0-1.1-0.5-1.1-1.1V334.6z"/>
	<path class="st1" d="M179.3,344.7c5.9,0,10.3,4.4,10.3,10.4c0,0.4,0,1.2-0.1,1.6c0,0.6-0.5,1-1,1h-15.6c0,3,2.8,6.2,6.8,6.2
		c2.6,0,4.2-0.9,5.5-1.9c0.5-0.3,0.9-0.5,1.3,0.1l1.3,2.1c0.4,0.5,0.6,0.9-0.1,1.5c-1.6,1.4-4.6,2.8-8.4,2.8
		c-6.9,0-11.3-5.4-11.3-11.9C168.1,350.2,172.5,344.7,179.3,344.7z M184.8,354c-0.1-2.7-2.3-5.1-5.6-5.1c-3.6,0-5.7,2.3-6.1,5.1
		H184.8z"/>
	<path class="st1" d="M193.9,366.1c-0.3-0.2-0.6-0.7-0.4-1.2l1-2.1c0.2-0.5,0.9-0.6,1.5-0.3c1.3,0.7,2.9,1.7,5.6,1.7
		c1.9,0,3-0.9,3-2.2c0-1.5-1.7-2.5-4.9-3.9c-3.5-1.6-6.1-3.4-6.1-7.2c0-2.8,2-6.2,7.5-6.2c3.1,0,5.5,0.9,6.6,1.7
		c0.5,0.4,0.8,1.1,0.5,1.7l-0.8,1.6c-0.3,0.7-1,0.6-1.5,0.4c-1.6-0.7-3.1-1.1-4.9-1.1c-2,0-2.9,1-2.9,2c0,1.5,1.6,2.4,3.9,3.3
		c4.2,1.8,7.3,3.3,7.3,7.5c0,3.5-3,6.6-8.1,6.6C197.8,368.4,195.2,367,193.9,366.1z"/>
	<path class="st1" d="M231.4,333.8c0.1-0.4,0.5-0.7,0.9-0.7h0.8c0.3,0,0.7,0.2,0.8,0.5l10.2,25h0.2l10.2-25c0.1-0.3,0.5-0.5,0.8-0.5
		h0.8c0.4,0,0.8,0.3,0.9,0.7l6,32.9c0.1,0.7-0.2,1.1-0.9,1.1H259c-0.4,0-0.8-0.3-0.9-0.7l-3.6-21.9c0,0-0.1,0-0.1,0l-8.8,22.5
		c-0.1,0.3-0.4,0.5-0.8,0.5h-0.9c-0.4,0-0.7-0.2-0.8-0.5l-8.9-22.5c0,0-0.1,0-0.2,0l-3.5,21.9c0,0.3-0.5,0.7-0.9,0.7h-3.2
		c-0.7,0-1-0.4-0.9-1.1L231.4,333.8z"/>
	<path class="st1" d="M276,353.5c2.4,0,4.6,0.7,4.6,0.7c0.1-3.6-0.8-5.2-3.6-5.2c-2.6,0-5.1,0.7-6.3,1.1c-0.7,0.1-1.1-0.3-1.3-0.9
		l-0.4-1.9c-0.1-0.8,0.2-1.1,0.7-1.3c0.4-0.1,3.6-1.3,7.8-1.3c7.3,0,7.9,4.4,7.9,10v12.1c0,0.6-0.5,1.1-1.1,1.1h-1.6
		c-0.4,0-0.7-0.2-0.9-0.8l-0.5-1.5c-1.2,1.2-3.5,2.8-7,2.8c-4.3,0-7.3-2.8-7.3-7.5C266.9,356.7,270.2,353.5,276,353.5z M275.3,364.4
		c2.3,0,4.6-1.6,5.2-2.7v-3.8c-0.3-0.2-2.1-0.8-4.1-0.8c-2.6,0-4.7,1.4-4.7,3.7C271.7,362.8,272.9,364.4,275.3,364.4z"/>
	<path class="st1" d="M312.3,368c0,7.1-4.6,10.6-10.5,10.6c-3.8,0-6.9-1.9-7.8-2.8c-0.4-0.2-0.4-0.9-0.2-1.3l1.2-2.2
		c0.3-0.6,0.9-0.8,1.5-0.3c0.8,0.6,2.7,2.1,5.3,2.1c3,0,5.6-1.5,5.6-6.1v-1.2c-0.4,0.2-2.8,1.6-5.8,1.6c-6.2,0-10.9-5.2-10.9-11.9
		c0-6.5,4.5-11.8,10.7-11.8c4.2,0,6.8,2.3,7.2,2.7l0.6-1.4c0.1-0.4,0.3-0.8,0.8-0.8h1.3c0.6,0,1.1,0.5,1.1,1.1V368z M302.2,363.7
		c3,0,5.2-1.8,5.2-1.8v-9.4c-0.4-0.8-2.4-3.2-5.4-3.2c-3.9,0-6.4,3.3-6.4,7.2C295.6,360.4,298.5,363.7,302.2,363.7z"/>
	<path class="st1" d="M318.4,337.1c0-1.9,1.4-3.3,3.2-3.3c1.9,0,3.3,1.5,3.3,3.3c0,1.8-1.5,3.3-3.3,3.3
		C319.8,340.4,318.4,338.9,318.4,337.1z M319.2,346.3c0-0.5,0.5-1.1,1.1-1.1h2.7c0.5,0,1.1,0.5,1.1,1.1v20.5c0,0.6-0.5,1.1-1.1,1.1
		h-2.7c-0.6,0-1.1-0.5-1.1-1.1V346.3z"/>
	<path class="st1" d="M341.1,344.7c3.5,0,6.1,1.3,8.2,3.9c0.4,0.5,0.3,1.2-0.2,1.6l-1.8,1.6c-0.6,0.6-1.1,0.1-1.5-0.2
		c-1-1.1-2.8-2.3-4.7-2.3c-3.9,0-6.9,3.1-6.9,7.2c0,4.1,2.9,7.2,6.7,7.2c2.9,0,4.1-1.7,5.3-2.8c0.5-0.5,1-0.5,1.5-0.1l1.5,1.2
		c0.5,0.5,0.8,1,0.4,1.6c-1.9,2.8-4.9,4.7-8.8,4.7c-6.3,0-11.6-5-11.6-11.8C329.5,349.9,334.9,344.7,341.1,344.7z"/>
	<path class="st1" d="M362.4,353.5c2.4,0,4.6,0.7,4.6,0.7c0.1-3.6-0.8-5.2-3.6-5.2c-2.6,0-5.1,0.7-6.3,1.1c-0.7,0.1-1.1-0.3-1.3-0.9
		l-0.4-1.9c-0.1-0.8,0.2-1.1,0.7-1.3c0.4-0.1,3.6-1.3,7.8-1.3c7.3,0,7.9,4.4,7.9,10v12.1c0,0.6-0.5,1.1-1.1,1.1h-1.6
		c-0.4,0-0.7-0.2-0.9-0.8l-0.5-1.5c-1.2,1.2-3.5,2.8-7,2.8c-4.3,0-7.3-2.8-7.3-7.5C353.3,356.7,356.6,353.5,362.4,353.5z
		 M361.7,364.4c2.3,0,4.6-1.6,5.2-2.7v-3.8c-0.3-0.2-2.1-0.8-4.1-0.8c-2.6,0-4.7,1.4-4.7,3.7C358.1,362.8,359.3,364.4,361.7,364.4z"
		/>
	<path class="st1" d="M378.6,334.6c0-0.5,0.5-1.1,1.1-1.1h2.7c0.5,0,1.1,0.5,1.1,1.1v32.1c0,0.6-0.5,1.1-1.1,1.1h-2.7
		c-0.6,0-1.1-0.5-1.1-1.1V334.6z"/>
	<path class="st1" d="M407.6,338.2h-8c-0.5,0-0.9-0.4-0.9-0.9v-2.7c0-0.5,0.4-0.9,0.9-0.9h21.1c0.5,0,0.9,0.4,0.9,0.9v2.7
		c0,0.5-0.4,0.9-0.9,0.9h-8v28.8c0,0.5-0.4,0.9-0.9,0.9h-3.2c-0.5,0-0.9-0.4-0.9-0.9V338.2z"/>
	<path class="st1" d="M421.7,346.3c0-0.5,0.5-1.1,1.1-1.1h2.7c0.6,0,1.1,0.5,1.1,1.1v12.1c0,3.7,1.5,5.4,4.4,5.4
		c3.3,0,5.1-2.7,5.3-3.7v-13.7c0-0.9,0.4-1.1,1.3-1.1h2.5c0.6,0,1.1,0.5,1.1,1.1v20.5c0,0.6-0.5,1.1-1.1,1.1h-1.2
		c-0.6,0-0.8-0.4-1-0.9l-0.6-1.6c-0.5,0.5-2.5,3.1-7.2,3.1c-6.8,0-8.4-4.5-8.4-10.4V346.3z"/>
	<path class="st1" d="M448.1,334.6c0-0.5,0.5-1.1,1.1-1.1h2.8c0.5,0,1.1,0.5,1.1,1.1v11.3c0.5-0.1,2.8-1.2,5.7-1.2
		c6.3,0,11.1,5.2,11.1,11.8c0,6.5-4.6,11.9-10.5,11.9c-4.5,0-7.4-3.2-7.4-3.2l-0.5,1.7c-0.1,0.6-0.5,1-1,1h-1.2
		c-0.6,0-1.1-0.5-1.1-1.1V334.6z M458.6,363.7c3.7,0,6.4-3.4,6.4-7.2c0-3.9-3-7.2-6.8-7.2c-2.9,0-5.2,1.2-5.2,1.2v9.8
		C453.3,361.1,455.1,363.7,458.6,363.7z"/>
	<path class="st1" d="M485.2,344.7c5.9,0,10.3,4.4,10.3,10.4c0,0.4,0,1.2-0.1,1.6c0,0.6-0.5,1-1,1h-15.6c0,3,2.8,6.2,6.8,6.2
		c2.6,0,4.2-0.9,5.5-1.9c0.5-0.3,0.9-0.5,1.3,0.1l1.3,2.1c0.4,0.5,0.6,0.9-0.1,1.5c-1.6,1.4-4.6,2.8-8.4,2.8
		c-6.9,0-11.3-5.4-11.3-11.9C474,350.2,478.4,344.7,485.2,344.7z M490.7,354c-0.1-2.7-2.3-5.1-5.6-5.1c-3.6,0-5.7,2.3-6.1,5.1H490.7
		z"/>
	<path class="st1" d="M499.8,366.1c-0.3-0.2-0.6-0.7-0.4-1.2l1-2.1c0.2-0.5,0.9-0.6,1.5-0.3c1.3,0.7,2.9,1.7,5.6,1.7
		c1.9,0,3-0.9,3-2.2c0-1.5-1.7-2.5-4.9-3.9c-3.5-1.6-6.1-3.4-6.1-7.2c0-2.8,2-6.2,7.5-6.2c3.1,0,5.5,0.9,6.6,1.7
		c0.5,0.4,0.8,1.1,0.5,1.7l-0.8,1.6c-0.3,0.7-1,0.6-1.5,0.4c-1.6-0.7-3.1-1.1-4.9-1.1c-2,0-2.9,1-2.9,2c0,1.5,1.6,2.4,3.9,3.3
		c4.2,1.8,7.3,3.3,7.3,7.5c0,3.5-3,6.6-8.1,6.6C503.7,368.4,501.1,367,499.8,366.1z"/>
	<path class="st1" d="M537.6,333.1c9.7,0,17.6,7.9,17.6,17.6s-7.9,17.6-17.6,17.6s-17.6-7.9-17.6-17.6S527.9,333.1,537.6,333.1z
		 M537.6,364.9c7.9,0,14.2-6.4,14.2-14.2c0-7.9-6.3-14.2-14.2-14.2c-7.8,0-14.2,6.3-14.2,14.2C523.4,358.5,529.7,364.9,537.6,364.9z
		 M531.2,342.6c0-0.5,0.4-0.9,0.9-0.9h7.3c3,0,6,2.1,6,5.8c0,3.5-2.3,4.9-3.7,5.4c0.9,1.8,1.8,3.7,2.6,5.4c0.3,0.6-0.1,1.3-0.8,1.3
		h-2.2c-0.4,0-0.7-0.3-0.9-0.7l-2.5-5.8h-3v5.5c0,0.5-0.4,0.9-0.9,0.9h-1.8c-0.5,0-0.9-0.4-0.9-0.9V342.6z M539.2,349.9
		c1.5,0,2.4-1.1,2.4-2.4c0-1.4-1-2.4-2.4-2.4h-4.4v4.8H539.2z"/>
</g>
<g>
	<path class="st2" d="M65.9,530.2c4.9,0,8.5,1.5,11.9,4.6c0.4,0.4,0.4,1,0,1.4l-3.8,4c-0.3,0.3-0.9,0.3-1.2,0
		c-2-1.8-4.2-2.5-6.6-2.5c-5.5,0-9.6,4.6-9.6,10.1c0,5.4,4.1,9.9,9.7,9.9c2.7,0,4.8-0.8,6.6-2.4c0.3-0.3,1-0.3,1.3,0l3.8,4.1
		c0.3,0.3,0.3,1,0,1.3c-3.3,3.2-7.5,4.8-11.9,4.8c-9.8,0-17.7-7.8-17.7-17.6C48.2,538.1,56.1,530.2,65.9,530.2z"/>
	<path class="st2" d="M92.1,541.8c6.5,0,11.8,5.4,11.8,11.8c0,6.5-5.3,11.9-11.8,11.9c-6.5,0-11.8-5.4-11.8-11.9
		C80.3,547.2,85.6,541.8,92.1,541.8z M92.1,558.5c2.6,0,4.7-2.3,4.7-4.9c0-2.6-2.1-4.8-4.7-4.8c-2.6,0-4.8,2.2-4.8,4.8
		C87.3,556.2,89.4,558.5,92.1,558.5z"/>
	<path class="st2" d="M107.8,543.4c0-0.6,0.5-1.1,1-1.1h5.3c0.6,0,1.1,0.4,1.1,1.1v11.2c0,2.5,0.7,3.9,3,3.9c2.2,0,3.1-1.5,3.1-3.5
		v-11.6c0-0.9,0.7-1.1,1.2-1.1h5.1c0.6,0,1.1,0.4,1.1,1.1v20.5c0,0.6-0.5,1.1-1.1,1.1h-2.3c-0.5,0-0.9-0.4-1.1-0.8l-0.8-2.1
		c-1.4,1.4-3.8,3.4-7.2,3.4c-6.6,0-8.7-4.4-8.7-10.8V543.4z"/>
	<path class="st2" d="M145,541.8c3.6,0,6.3,1.4,8.5,4c0.4,0.5,0.2,1.2-0.3,1.6l-3.2,3.1c-0.2,0.2-0.8,0.3-1.3-0.1
		c-0.9-0.8-2.1-1.6-3.5-1.6c-2.6,0-4.8,2.3-4.8,4.9c0,2.7,2.1,4.9,4.7,4.9c2.1,0,3.1-0.9,4.1-1.9c0.4-0.5,1-0.6,1.3-0.2l3.2,2.7
		c0.5,0.5,0.8,1,0.4,1.6c-2.1,3.1-5,4.7-9.1,4.7c-6.5,0-12-5-12-11.9C133,547,138.5,541.8,145,541.8z"/>
	<path class="st2" d="M157.9,531.8c0-0.5,0.5-1.1,1.1-1.1h5.3c0.6,0,1.1,0.5,1.1,1.1v11.7c1.6-1.1,3.1-1.6,4.8-1.6
		c7.1,0,9.4,5.2,9.4,11.5v10.6c0,0.6-0.5,1.1-1.1,1.1h-5.3c-0.6,0-1.1-0.5-1.1-1.1v-10.7c0-2.5-0.9-4.4-3.4-4.4
		c-1.8,0-3.3,1-3.3,4.4v10.7c0,0.7-0.2,1.1-1.2,1.1H159c-0.6,0-1.1-0.5-1.1-1.1V531.8z"/>
	<path class="st2" d="M195.3,541.8c5.7,0,10.7,4.4,10.7,10.6c0,0.3,0,1.1-0.1,1.5c0,0.6-0.6,1-1.1,1h-14c0,1.8,1.6,3.9,4.7,3.9
		c1.5,0,3.3-0.7,4.3-1.4c0.5-0.4,1.1-0.4,1.4,0l2.5,3.3c0.3,0.4,0.4,1.1,0,1.6c-2,2-4.8,3.2-8.4,3.2c-6.8,0-11.9-4.9-11.9-11.9
		C183.5,547.3,188.6,541.8,195.3,541.8z M198.4,550.6c-0.1-1.5-1.4-2.8-3.3-2.8c-1.9,0-3.1,1.3-3.4,2.8H198.4z"/>
	<path class="st2" d="M209.5,563.6c-0.5-0.3-0.6-0.7-0.4-1.2l1.8-3.7c0.1-0.4,0.7-0.7,1.2-0.5c1.8,0.9,3.5,1.4,5.6,1.4
		c1.5,0,1.7-0.5,1.7-1.1c0-0.7-1.2-1.3-3.9-2.4c-4.4-1.7-6.6-3.7-6.6-7.3c0-4.1,2.7-7.1,8.6-7.1c2.9,0,6,0.8,7.7,1.7
		c0.6,0.3,0.9,0.9,0.6,1.5l-1.8,3.6c-0.1,0.4-0.7,0.6-1.2,0.4c-1.5-0.7-3.5-1.4-5.3-1.4c-1.3,0-1.6,0.3-1.6,0.9s0.9,1.1,2.5,1.7
		c4.6,1.7,8.3,3.5,8.3,8c0,3.9-3.2,7.2-9.2,7.2C213.9,565.5,210.9,564.5,209.5,563.6z"/>
	<path class="st2" d="M242.4,563.6c-0.5-0.3-0.6-0.7-0.4-1.2l1.8-3.7c0.1-0.4,0.7-0.7,1.2-0.5c1.8,0.9,3.5,1.4,5.6,1.4
		c1.5,0,1.7-0.5,1.7-1.1c0-0.7-1.2-1.3-3.9-2.4c-4.4-1.7-6.6-3.7-6.6-7.3c0-4.1,2.7-7.1,8.6-7.1c2.9,0,6,0.8,7.7,1.7
		c0.6,0.3,0.9,0.9,0.6,1.5l-1.8,3.6c-0.1,0.4-0.7,0.6-1.2,0.4c-1.5-0.7-3.5-1.4-5.3-1.4c-1.3,0-1.6,0.3-1.6,0.9s0.9,1.1,2.5,1.7
		c4.6,1.7,8.3,3.5,8.3,8c0,3.9-3.2,7.2-9.2,7.2C246.8,565.5,243.8,564.5,242.4,563.6z"/>
	<path class="st2" d="M265.3,549h-1.9c-0.5,0-1-0.5-1-1.1v-4.6c0-0.6,0.4-1.1,1-1.1h1.9v-6.3c0-0.6,0.5-1.1,1.1-1.1h5.4
		c0.5,0,1,0.5,1,1.1v6.3h4.6c0.6,0,1.1,0.4,1.1,1.1v4.6c0,0.6-0.5,1.1-1.1,1.1h-4.6v7.9c0,1.1,0.5,1.6,1.5,1.6
		c0.8,0,2.3-0.3,2.8-0.5c0.6-0.1,1.1,0.1,1.3,0.7l1,4.3c0.1,0.7-0.1,1-0.7,1.3c-1.5,0.6-4.1,1.3-6.5,1.3c-4.3,0-6.8-2.7-6.8-7.9V549
		z"/>
	<path class="st2" d="M290.1,550.5c2.5,0,4.5,1,4.5,1c0-2.2-0.5-3.5-3.1-3.5c-1.6,0-4.2,0.3-5.7,0.8c-0.9,0.3-1.3-0.3-1.4-1.2
		l-0.5-3.5c-0.1-1,0.4-1.4,0.9-1.6c0.5-0.2,4.5-0.7,7.5-0.7c7,0,9.5,2.8,9.5,9.6v12.5c0,0.6-0.5,1.1-1.1,1.1h-2.4
		c-0.3,0-0.7-0.1-1-0.7l-0.7-1.5c-1.4,1.2-3.3,2.8-6.9,2.8c-4.5,0-7.8-2.9-7.8-7.4C281.8,553.7,285,550.5,290.1,550.5z M291.6,560
		c1.4,0,2.5-1.1,2.5-2.5c0-1.3-1.2-2.5-2.5-2.5c-1.4,0-2.5,1.2-2.5,2.5C289.1,558.9,290.2,560,291.6,560z"/>
	<path class="st2" d="M307.1,543.4c0-0.6,0.5-1.1,1.1-1.1h2.2c0.3,0,0.8,0.2,1,0.7l0.8,2.3c1.2-1.4,2.9-3.4,7.1-3.4
		c7.1,0,9.5,5,9.5,11.2v10.8c0,0.6-0.5,1.1-1,1.1h-5.3c-0.6,0-1.1-0.5-1.1-1.1V553c0-2.2-0.7-4.2-3.3-4.2c-2.3,0-3.4,1.6-3.4,3.9
		v11.2c0,0.5-0.2,1.1-1,1.1h-5.4c-0.6,0-1.1-0.5-1.1-1.1V543.4z"/>
	<path class="st2" d="M344,541.8c2.2,0,4.5,0.7,5.2,1.3v-11.4c0-0.5,0.5-1.1,1.1-1.1h5.3c0.6,0,1.1,0.5,1.1,1.1v32.1
		c0,0.6-0.5,1.1-1.1,1.1h-2.2c-0.5,0-1-0.5-1.2-1.1l-0.6-1.9c0,0-2.6,3.5-7.6,3.5c-6.4,0-11.2-5.4-11.2-11.9
		C332.8,545.7,338,541.8,344,541.8z M345.1,558.5c2.8,0,4.8-2.1,4.8-4.9c0-2.7-2-4.8-4.8-4.8c-2.7,0-4.8,2.1-4.8,4.8
		C340.3,556.4,342.4,558.5,345.1,558.5z"/>
	<path class="st2" d="M369.2,550.5c2.5,0,4.5,1,4.5,1c0-2.2-0.5-3.5-3.1-3.5c-1.6,0-4.2,0.3-5.7,0.8c-0.9,0.3-1.3-0.3-1.4-1.2
		l-0.5-3.5c-0.1-1,0.4-1.4,0.9-1.6c0.5-0.2,4.5-0.7,7.5-0.7c7,0,9.5,2.8,9.5,9.6v12.5c0,0.6-0.5,1.1-1.1,1.1h-2.4
		c-0.3,0-0.7-0.1-1-0.7l-0.7-1.5c-1.4,1.2-3.3,2.8-6.9,2.8c-4.5,0-7.8-2.9-7.8-7.4C360.9,553.7,364.1,550.5,369.2,550.5z M370.7,560
		c1.4,0,2.5-1.1,2.5-2.5c0-1.3-1.2-2.5-2.5-2.5c-1.4,0-2.5,1.2-2.5,2.5C368.2,558.9,369.3,560,370.7,560z"/>
	<path class="st2" d="M386.2,543.4c0-0.6,0.5-1.1,1.1-1.1h2.4c0.6,0,0.9,0.3,1,0.7l1,2.5c1-1.8,2.7-3.7,5.6-3.7
		c2.1,0,3.6,0.5,4.4,1.2c0.4,0.3,0.4,0.8,0.1,1.2l-2.3,4.5c-0.2,0.4-0.6,0.8-1.3,0.5c-0.4-0.1-1.2-0.3-1.7-0.3c-1.7,0-3,1.2-3,3.1
		v11.9c0,0.7-0.4,1.1-1.2,1.1h-5.1c-0.6,0-1.1-0.5-1.1-1.1V543.4z"/>
	<path class="st2" d="M414.2,541.8c2.2,0,4.5,0.7,5.2,1.3v-11.4c0-0.5,0.5-1.1,1.1-1.1h5.3c0.6,0,1.1,0.5,1.1,1.1v32.1
		c0,0.6-0.5,1.1-1.1,1.1h-2.2c-0.5,0-1-0.5-1.2-1.1l-0.6-1.9c0,0-2.6,3.5-7.6,3.5c-6.4,0-11.2-5.4-11.2-11.9
		C403,545.7,408.2,541.8,414.2,541.8z M415.3,558.5c2.8,0,4.8-2.1,4.8-4.9c0-2.7-2-4.8-4.8-4.8c-2.7,0-4.8,2.1-4.8,4.8
		C410.5,556.4,412.6,558.5,415.3,558.5z"/>
	<path class="st2" d="M432,563.6c-0.5-0.3-0.6-0.7-0.4-1.2l1.8-3.7c0.1-0.4,0.7-0.7,1.2-0.5c1.8,0.9,3.5,1.4,5.6,1.4
		c1.5,0,1.7-0.5,1.7-1.1c0-0.7-1.2-1.3-3.9-2.4c-4.4-1.7-6.6-3.7-6.6-7.3c0-4.1,2.7-7.1,8.6-7.1c2.9,0,6,0.8,7.7,1.7
		c0.6,0.3,0.9,0.9,0.6,1.5l-1.8,3.6c-0.1,0.4-0.7,0.6-1.2,0.4c-1.5-0.7-3.5-1.4-5.3-1.4c-1.3,0-1.6,0.3-1.6,0.9s0.9,1.1,2.5,1.7
		c4.6,1.7,8.3,3.5,8.3,8c0,3.9-3.2,7.2-9.2,7.2C436.4,565.5,433.5,564.5,432,563.6z"/>
	<path class="st2" d="M48.8,622c-0.3-0.2-0.6-0.7-0.4-1.2l1-2.1c0.2-0.5,0.9-0.6,1.5-0.3c1.3,0.7,2.9,1.7,5.6,1.7c1.9,0,3-0.9,3-2.2
		c0-1.5-1.7-2.5-4.9-3.9c-3.5-1.6-6.1-3.4-6.1-7.2c0-2.8,2-6.2,7.5-6.2c3.1,0,5.5,0.9,6.6,1.7c0.5,0.4,0.8,1.1,0.5,1.7l-0.8,1.6
		c-0.3,0.7-1,0.6-1.5,0.4c-1.6-0.7-3.1-1.1-4.9-1.1c-2,0-2.9,1-2.9,2c0,1.5,1.6,2.4,3.9,3.3c4.2,1.8,7.3,3.3,7.3,7.5
		c0,3.5-3,6.6-8.1,6.6C52.6,624.3,50,622.9,48.8,622z"/>
	<path class="st2" d="M76.8,609.5c2.4,0,4.6,0.7,4.6,0.7c0.1-3.6-0.8-5.2-3.6-5.2c-2.6,0-5.1,0.7-6.3,1.1c-0.7,0.1-1.1-0.3-1.3-0.9
		l-0.4-1.9c-0.1-0.8,0.2-1.1,0.7-1.3c0.4-0.1,3.6-1.3,7.8-1.3c7.3,0,7.9,4.4,7.9,10v12.1c0,0.6-0.5,1.1-1.1,1.1h-1.6
		c-0.4,0-0.7-0.2-0.9-0.8l-0.5-1.5c-1.2,1.2-3.5,2.8-7,2.8c-4.3,0-7.3-2.8-7.3-7.5C67.8,612.6,71,609.5,76.8,609.5z M76.1,620.3
		c2.3,0,4.6-1.6,5.2-2.7v-3.8c-0.3-0.2-2.1-0.8-4.1-0.8c-2.6,0-4.7,1.4-4.7,3.7C72.6,618.7,73.7,620.3,76.1,620.3z"/>
	<path class="st2" d="M92.9,602.2c0-0.5,0.5-1.1,1.1-1.1h1.2c0.5,0,0.8,0.2,0.9,0.7l0.7,2c0.5-0.6,3.1-3.1,7.6-3.1
		c6.9,0,8.8,4.8,8.8,10.7v11.4c0,0.6-0.5,1.1-1.1,1.1h-2.7c-0.6,0-1.1-0.5-1.1-1.1v-11.6c0-3.7-1.5-5.8-4.5-5.8
		c-3.6,0-5.6,2.5-6,3.3v14.1c0,0.7-0.4,1.1-1.3,1.1h-2.5c-0.6,0-1.1-0.5-1.1-1.1V602.2z"/>
	<path class="st2" d="M118.8,622c-0.3-0.2-0.6-0.7-0.4-1.2l1-2.1c0.2-0.5,0.9-0.6,1.5-0.3c1.3,0.7,2.9,1.7,5.6,1.7
		c1.9,0,3-0.9,3-2.2c0-1.5-1.7-2.5-4.9-3.9c-3.5-1.6-6.1-3.4-6.1-7.2c0-2.8,2-6.2,7.5-6.2c3.1,0,5.5,0.9,6.6,1.7
		c0.5,0.4,0.8,1.1,0.5,1.7l-0.8,1.6c-0.3,0.7-1,0.6-1.5,0.4c-1.6-0.7-3.1-1.1-4.9-1.1c-2,0-2.9,1-2.9,2c0,1.5,1.6,2.4,3.9,3.3
		c4.2,1.8,7.3,3.3,7.3,7.5c0,3.5-3,6.6-8.1,6.6C122.6,624.3,120.1,622.9,118.8,622z"/>
	<path class="st2" d="M152.3,605.3h-2.6c-0.6,0-1.1-0.5-1.1-1.1v-2c0-0.6,0.4-1.1,1.1-1.1h2.6v-6.3c0-0.6,0.5-1.1,1.1-1.1h2.8
		c0.6,0,1,0.5,1,1.1v6.3h6c0.6,0,1.1,0.4,1.1,1.1v2c0,0.5-0.5,1.1-1.1,1.1h-6v12.1c0,1.9,0.7,2.3,1.8,2.3c1.4,0,2.8-0.6,3.6-1.1
		c0.7-0.4,1.1,0,1.3,0.5l0.9,2.3c0.2,0.6,0,1-0.5,1.3c-0.9,0.6-3.6,1.6-6.3,1.6c-4.5,0-5.7-2.7-5.7-6.8V605.3z"/>
	<path class="st2" d="M169.1,602.2c0-0.5,0.5-1.1,1.1-1.1h2.7c0.6,0,1.1,0.5,1.1,1.1v12.1c0,3.7,1.5,5.4,4.4,5.4
		c3.3,0,5.1-2.7,5.3-3.7v-13.7c0-0.9,0.4-1.1,1.3-1.1h2.5c0.6,0,1.1,0.5,1.1,1.1v20.5c0,0.6-0.5,1.1-1.1,1.1h-1.2
		c-0.6,0-0.8-0.4-1-0.9l-0.6-1.6c-0.5,0.5-2.5,3.1-7.2,3.1c-6.8,0-8.4-4.5-8.4-10.4V602.2z"/>
	<path class="st2" d="M195.5,590.5c0-0.5,0.5-1.1,1.1-1.1h2.8c0.5,0,1.1,0.5,1.1,1.1v11.3c0.5-0.1,2.8-1.2,5.7-1.2
		c6.3,0,11.1,5.2,11.1,11.8c0,6.5-4.6,11.9-10.5,11.9c-4.5,0-7.4-3.2-7.4-3.2l-0.5,1.7c-0.1,0.6-0.5,1-1,1h-1.2
		c-0.6,0-1.1-0.5-1.1-1.1V590.5z M206,619.7c3.7,0,6.4-3.4,6.4-7.2c0-3.9-3-7.2-6.8-7.2c-2.9,0-5.2,1.2-5.2,1.2v9.8
		C200.7,617,202.6,619.7,206,619.7z"/>
	<path class="st2" d="M232.7,600.6c5.9,0,10.3,4.4,10.3,10.4c0,0.4,0,1.2-0.1,1.6c0,0.6-0.5,1-1,1h-15.6c0,3,2.8,6.2,6.8,6.2
		c2.6,0,4.2-0.9,5.5-1.9c0.5-0.3,0.9-0.5,1.3,0.1l1.3,2.1c0.4,0.5,0.6,0.9-0.1,1.5c-1.6,1.4-4.6,2.8-8.4,2.8
		c-6.9,0-11.3-5.4-11.3-11.9C221.4,606.1,225.8,600.6,232.7,600.6z M238.1,610c-0.1-2.7-2.3-5.1-5.6-5.1c-3.6,0-5.7,2.3-6.1,5.1
		H238.1z"/>
	<path class="st2" d="M247.2,622c-0.3-0.2-0.6-0.7-0.4-1.2l1-2.1c0.2-0.5,0.9-0.6,1.5-0.3c1.3,0.7,2.9,1.7,5.6,1.7
		c1.9,0,3-0.9,3-2.2c0-1.5-1.7-2.5-4.9-3.9c-3.5-1.6-6.1-3.4-6.1-7.2c0-2.8,2-6.2,7.5-6.2c3.1,0,5.5,0.9,6.6,1.7
		c0.5,0.4,0.8,1.1,0.5,1.7l-0.8,1.6c-0.3,0.7-1,0.6-1.5,0.4c-1.6-0.7-3.1-1.1-4.9-1.1c-2,0-2.9,1-2.9,2c0,1.5,1.6,2.4,3.9,3.3
		c4.2,1.8,7.3,3.3,7.3,7.5c0,3.5-3,6.6-8.1,6.6C251.1,624.3,248.5,622.9,247.2,622z"/>
</g>
<line class="st3" x1="52.5" y1="221.5" x2="368.5" y2="221.5"/>
<line class="st4" x1="51.5" y1="487.5" x2="772.5" y2="487.5"/>
<g>
	<path class="st1" d="M413.2,209.8h-10.8c-0.4,0-0.8-0.4-0.8-0.8v-2.9c0-0.4,0.4-0.8,0.8-0.8h17.2c0.4,0,0.8,0.4,0.8,0.8
		c0,0.2,0,0.3-0.2,0.6l-12.1,25.5c-0.3,0.7-0.7,1.1-1.4,1.1h-3.1c-0.5,0-1-0.1-1-0.8c0-0.3,0-0.5,0.2-0.8L413.2,209.8L413.2,209.8z"
		/>
	<path class="st1" d="M422.5,210.4c0-3,2.4-5.4,5.4-5.4c3,0,5.4,2.4,5.4,5.4s-2.4,5.4-5.4,5.4C424.9,215.8,422.5,213.4,422.5,210.4z
		 M439.5,205.8c0.1-0.2,0.4-0.4,0.7-0.4h2c0.6,0,1,0.6,0.7,1.1L429.1,233c-0.1,0.2-0.4,0.4-0.7,0.4h-1.9c-0.6,0-1-0.6-0.7-1.1
		L439.5,205.8z M429.8,210.4c0-1-0.9-1.9-1.9-1.9c-1.1,0-2,0.9-2,1.9c0,1.1,0.9,2,2,2C428.9,212.4,429.8,211.5,429.8,210.4z
		 M441.1,223c3,0,5.4,2.4,5.4,5.4s-2.4,5.4-5.4,5.4c-3,0-5.4-2.4-5.4-5.4S438.1,223,441.1,223z M441.1,230.4c1,0,2-0.9,2-2
		c0-1-0.9-1.9-2-1.9c-1.1,0-2,0.9-2,1.9C439.1,229.5,440,230.4,441.1,230.4z"/>
</g>
<g>
	<path class="st2" d="M814,479.9l-3.6,0.8c-0.4,0.1-0.8-0.2-0.8-0.6l-0.2-2c0-0.4,0-0.6,0.4-0.9l5.1-4.3c0.4-0.4,0.8-0.5,1.4-0.5
		h2.1c0.4,0,0.8,0.4,0.8,0.8v26.4c0,0.4-0.3,0.8-0.8,0.8h-3.5c-0.5,0-0.8-0.4-0.8-0.8V479.9z"/>
	<path class="st2" d="M825.6,496l2-2c0.3-0.2,0.7-0.3,1,0c1.2,1,2.8,2.3,5.3,2.3c2.8,0,4.8-2.3,4.8-4.9c0-2.5-1.7-4.6-5-4.6h-6.4
		c-0.8,0-1.3-0.8-1.3-1.4v-12.2c0-0.4,0.3-0.8,0.8-0.8h13c0.4,0,0.8,0.4,0.8,0.8v2.8c0,0.4-0.4,0.8-0.8,0.8h-9.2v5.5h3.6
		c5.8,0,9.4,3.8,9.4,9.1c0,5.2-4.3,9.4-10,9.4c-4.4,0-7.1-2.2-8.1-3.4C825.1,496.8,825.1,496.5,825.6,496z"/>
	<path class="st2" d="M847.3,477.4c0-3,2.4-5.4,5.4-5.4c3,0,5.4,2.4,5.4,5.4c0,3-2.4,5.4-5.4,5.4
		C849.7,482.8,847.3,480.4,847.3,477.4z M864.3,472.8c0.1-0.2,0.4-0.4,0.7-0.4h2c0.6,0,1,0.6,0.7,1.1L853.9,500
		c-0.1,0.2-0.4,0.4-0.7,0.4h-1.9c-0.6,0-1-0.6-0.7-1.1L864.3,472.8z M854.7,477.4c0-1-0.9-1.9-1.9-1.9c-1.1,0-2,0.9-2,1.9
		c0,1.1,0.9,2,2,2C853.8,479.4,854.7,478.5,854.7,477.4z M865.9,490c3,0,5.4,2.4,5.4,5.4c0,3-2.4,5.4-5.4,5.4c-3,0-5.4-2.4-5.4-5.4
		C860.5,492.4,862.9,490,865.9,490z M865.9,497.4c1,0,2-0.9,2-2c0-1-0.9-1.9-2-1.9c-1.1,0-2,0.9-2,1.9
		C863.9,496.5,864.8,497.4,865.9,497.4z"/>
</g>
</svg>
