<?xml version="1.0" encoding="utf-8"?>
<!-- Generator: Adobe Illustrator 24.2.1, SVG Export Plug-In . SVG Version: 6.00 Build 0)  -->
<svg version="1.1" id="Calque_1" xmlns="http://www.w3.org/2000/svg" xmlns:xlink="http://www.w3.org/1999/xlink" x="0px" y="0px"
	 viewBox="0 0 427 329.8" style="enable-background:new 0 0 427 329.8;" xml:space="preserve">
<style type="text/css">
	.st0{fill:#212023;}
	.st1{fill:#FBA7AC;}
</style>
<g>
	<path class="st0" d="M375.9,133.4c0.4,0,0.8,0.1,1.2,0.3c0.6,0.3,1.3,1,1.5,2.6c0.6,4.3,2.1,6,3.6,7.7c2,2.3,4,4.4,3,12.2
		c-0.6,4.5-3,7.4-5.2,10c-2.4,2.8-4.4,5.2-4.2,9.2c0,0.3,0.1,0.5,0.1,0.7c0.1,0.9,0.3,2.1-1.4,2.8c-2.8,1.1-8.9,3.2-15,4.7l-0.4-1.5
		c6-1.5,12.1-3.5,14.8-4.6c0.6-0.3,0.6-0.3,0.5-1.2c0-0.3-0.1-0.6-0.1-0.9c-0.3-4.6,2.2-7.4,4.5-10.2c2.1-2.5,4.3-5.2,4.9-9.2
		c0.9-7.1-0.7-9-2.6-11.1c-1.5-1.7-3.3-3.7-3.9-8.5c-0.1-0.7-0.4-1.3-0.7-1.5c-0.4-0.2-0.9-0.1-1.1,0.1c-0.7,0.3-9.9,4.6-9.9,4.6
		l-0.6-1.4c0,0,9.2-4.2,9.9-4.6C375,133.5,375.4,133.4,375.9,133.4z"/>
	<g>
		<path class="st1" d="M274.7,148.5c0.5,3.6-9.2,8-21.8,9.9c-12.6,1.9-23.2,0.5-23.8-3.1c-0.5-3.6,9.2-8,21.8-9.9
			C263.5,143.6,274.2,144.9,274.7,148.5"/>
		<path class="st1" d="M275.3,149c-0.8-3.5,8.5-8.7,20.8-11.6c12.3-2.9,23-2.5,23.8,1s-8.5,8.7-20.8,11.6
			C286.8,152.9,276.2,152.5,275.3,149"/>
		<path class="st1" d="M363.6,122.5c1.2,3.4-7.5,9.6-19.5,13.9c-12,4.3-22.7,5-23.9,1.6c-1.2-3.4,7.5-9.6,19.5-13.9
			C351.7,119.8,362.4,119.1,363.6,122.5"/>
	</g>
	<path class="st0" d="M276.5,154.6c7.4,79.6-17,111.6-38.7,124.5c-12.7,7.5-25.2,8.9-33.4,8.7c-9.8-0.2-19.3-2.8-25.4-6.9l1-1.5
		c10.4,7,35,11.1,56.9-1.9c21.3-12.6,45.1-44.2,37.9-122.8L276.5,154.6z"/>
	<path class="st0" d="M323,143.6c1.9,36.7-1.4,102.6-44.8,132.1c-19.8,13.5-41.1,14.1-52.5,8.9l0.7-1.6c11,5,31.5,4.4,50.7-8.7
		c42.6-29.1,45.9-94.3,44-130.6L323,143.6z"/>
	<path class="st0" d="M270.5,41.9c12.4,0,18.4,3.4,24.4,6.8c5.8,3.3,11.2,6.4,22.3,6.5c2,0,4.1,0,6.3,0c6.3-0.1,14.2-0.2,26,0.9
		c2.8,0.3,3.1,1.7,3.3,2.5l0.1,0.2c0.1,0.2,0.3,0.9-4,35.9c0,0-0.6,6-8.9,5.3c-1.8-0.1-4,1.1-6.8,2.7c-5.5,3.1-12.9,7.4-25.1,6.1
		c-10.9-1.2-19,1-21.7,5.8c-1.2,2.1-1,4.5,0.4,6.3c1,1.3,2.6,2.4,4.2,3.6c2.6,1.9,5.3,3.8,6,6.5c0.2,0.8,0.1,1.6-0.2,2.5
		c8.5-1.9,16.6-2.3,21.5-0.9c3.9-4.8,13-9.3,20.4-11.9c7.1-2.5,14.2-4,19.3-4c2.9,0,6.7,0.4,8.5,2.3c0.7,0.7,1,1.6,1,2.5
		c-1.5,40.3-10.9,112.6-56.2,143.6c-13.9,9.5-27,11.7-31.4,10.2l0.6-1.7c3.6,1.2,16-0.4,29.8-9.9c44.6-30.6,53.9-102.2,55.4-142.2
		c0-0.5-0.1-0.9-0.5-1.2c-1.1-1.1-3.7-1.7-7.2-1.7c-4.9,0-11.8,1.4-18.7,3.9c-7.1,2.5-16.5,7.1-19.9,11.8l-0.4,0.5l-0.6-0.2
		c-4.7-1.5-13.5-1-22.4,1.1c-6.2,1.5-11.9,3.6-16.1,5.9c-1.9,1.1-3.4,2.2-4.5,3.2l-0.5,0.5l-0.6-0.3c-2.5-1.4-6.7-2.1-12.2-2.1
		c-3.5,0-7.3,0.3-11.2,0.9c-6.4,1-12.3,2.6-16.6,4.5c-5.1,2.3-7.5,4.8-7.1,7.4l0.7,9.5c0,0,0.5,2.9-4.3,3.9
		c-5.3,1.1-16.5,0.7-18.4,0.5h-0.5c-1.5-0.2-2.5-0.3-2.9,2.5c-0.5,3.5-2.7,5.2-4.9,6.9c-3.4,2.5-6.8,5.2-5.9,14.8
		c0.4,4.6,2.7,7.1,4.8,9.6c2.6,3,5.3,6.1,4.2,12.5c-0.3,1.6-0.2,1.8,0.8,2.1c7.6,1.9,22.1,1.3,26.7,0.3c1.5-0.3,2.7-0.2,3.5,0.5
		c1,0.8,1,1.9,1,2.1c-1.4,39.5-17,54.2-29.8,59.5c-10.8,4.5-20.9,2.8-23.2,0.6c-2-1.8-1.3-5.3-0.6-9.1c0.6-2.9,1.1-6,0.1-7.4
		c-1-1.4-4.1-1.7-7.1-2c-3.5-0.4-7.1-0.7-8.5-3c-1.4-2.2-0.2-5.5,1-8.9c1-2.8,2.1-5.8,1.3-7.3s-3.8-2.3-6.8-3c-3.5-0.9-6.9-1.7-8-4
		c-1.1-2.4,0.5-5.6,2.1-8.8c1.3-2.7,2.7-5.4,2.1-7c-0.7-1.6-3.6-2.7-6.5-3.8c-3.4-1.2-6.6-2.4-7.4-4.8c-0.9-2.5,1.1-5.6,2.9-8.7
		c1.6-2.5,3.2-5.1,2.7-6.7c-0.5-1.8-3.5-3.1-6.3-4.4c-3.2-1.5-6.2-2.9-6.9-5.2c-0.7-2.7,1.5-5.8,3.7-8.7c1.7-2.3,3.4-4.7,3.1-6.1
		c-0.5-2.1-3.7-3.9-6.5-5.4c-3-1.6-5.6-3.1-6-5.2c-0.7-3.6,1.5-5.7,3.7-7.9c1-1,2.1-2,3-3.3c0.9-1.1,3.8-8.2,1.4-11.2
		c-1.5-1.8-5.7-2.8-17.2,2.7c-23.4,11.2-38.2,16-43.9,14.3c-1.5-0.5-2.4-1.1-2.8-1.9c-0.2-0.5-0.2-0.9-0.2-1.2c0-2.4,0-39.7,0-40.4
		c0-0.1,0-0.2,0-0.3c-0.1-0.7-0.2-1.9,0.7-2.7c0.5-0.5,1.2-0.7,2.2-0.6c14,1.5,14.8-4.1,15.7-10c0.1-0.8,0.2-1.7,0.4-2.5
		c1.4-7.3,8.4-8.6,15.4-9.2c9.8-0.9,12.5-4.6,15.9-9.3c5.9-8.1,13.2-18.2,58.9-20c12.9-6.2,39.4-9.9,49-8.8
		C248.4,43.8,261.2,41.9,270.5,41.9z M318.8,57c-0.6,0-1.2,0-1.7,0c-11.5-0.2-17.4-3.5-23.1-6.8c-10.1-5.7-20.6-11.6-64.1,0.7h-0.2
		h-0.2c-9.2-1.1-36.1,2.7-48.3,8.7l-0.4,0.1c-45,1.7-52,11.5-57.7,19.3c-3.5,4.8-6.5,9-17.1,10c-7.9,0.8-12.7,2.3-13.8,7.8
		c-0.2,0.8-0.3,1.6-0.4,2.4c-0.9,6.2-1.9,13.2-17.7,11.5c-0.4,0-0.7,0-0.8,0.1c-0.2,0.2-0.2,0.9-0.1,1.3c0,0.2,0,0.3,0,0.5
		c0,0.8,0,40.5,0,40.5l-0.1,0.3c0,0,0.3,0.5,1.8,1c3,0.9,12.5,0.3,42.7-14.2c10.1-4.8,16.6-5.6,19.3-2.2c3.2,3.9-0.1,11.8-1.3,13.4
		c-1,1.4-2.2,2.5-3.2,3.5c-2.2,2.1-3.7,3.6-3.2,6.3c0.2,1.3,2.7,2.6,5.1,3.9c3.3,1.8,6.7,3.7,7.4,6.6c0.5,2.2-1.4,4.8-3.4,7.6
		c-1.8,2.5-3.9,5.3-3.4,7.2c0.4,1.5,3.2,2.8,5.9,4c3.2,1.5,6.5,3,7.3,5.5c0.7,2.3-1,5.1-2.9,8.1c-1.7,2.7-3.4,5.4-2.8,7.2
		c0.5,1.6,3.5,2.6,6.3,3.7c3.3,1.2,6.6,2.4,7.6,4.8c0.9,2.3-0.6,5.3-2.2,8.5c-1.4,2.8-2.8,5.6-2.1,7.2c0.7,1.6,3.8,2.3,6.8,3.1
		c3.5,0.9,6.7,1.7,7.9,3.9c1.2,2.2,0,5.4-1.2,8.7c-1,2.9-2.1,5.9-1.2,7.4c0.9,1.5,4.1,1.8,7.2,2.1c3.5,0.4,6.8,0.7,8.3,2.7
		s0.9,5.3,0.2,8.7c-0.6,3.1-1.2,6.3,0.1,7.4c1.8,1.6,11.2,3.3,21.3-1c12.4-5.2,27.4-19.4,28.7-57.9l0,0c0,0,0-0.4-0.4-0.7
		s-1.1-0.3-2-0.1c-4.8,1-19.7,1.6-27.5-0.3c-2.8-0.7-2.4-2.8-2.2-4.1c1-5.5-1.2-8-3.8-11c-2.2-2.5-4.8-5.4-5.3-10.6
		c-1-10.6,3.2-13.8,6.6-16.3c2.1-1.6,3.8-2.9,4.2-5.7c0.6-4.5,3.3-4.2,4.8-4.1h0.4c1.9,0.2,12.9,0.6,17.9-0.5c3-0.6,2.9-1.9,2.9-2
		l-0.7-9.5c-0.5-3.4,2.2-6.6,8.1-9.2c4.5-2,10.5-3.7,17.1-4.7c3.9-0.6,7.9-0.9,11.5-0.9c5.5,0,9.7,0.7,12.5,2
		c1.2-1.1,2.6-2.1,4.4-3.1c4.1-2.3,9.7-4.4,15.7-5.9c0.5-1.1,0.7-1.9,0.6-2.6c-0.5-2.1-2.9-3.8-5.3-5.5c-1.7-1.2-3.4-2.5-4.6-3.9
		c-1.8-2.4-2-5.5-0.5-8.3c1.5-2.6,6.7-8.5,23.5-6.7c11.6,1.3,18.8-2.9,24.1-5.9c3.1-1.8,5.5-3.1,7.8-2.9c6.5,0.6,7-3.6,7-3.8
		c1.7-13.5,4.1-34,4-35.3c0,0,0-0.1-0.1-0.2c-0.1-0.6-0.2-1-1.8-1.1c-11.7-1.1-19.5-1-25.8-0.9C321.8,57,320.3,57,318.8,57z"/>
	<path class="st0" d="M228.2,175.6c0.4,0,0.7,0.2,0.8,0.6c0.7,1.9,1.3,10.3,2.1,22.1c0.3,3.9,0.5,7.5,0.7,9.9c0,0.5-0.3,0.9-0.8,1
		s-0.9-0.3-1-0.8c-0.2-2.4-0.4-6-0.7-10c-0.5-8.4-1.3-19.8-2-21.5c-0.2-0.5,0-1,0.5-1.2C228,175.7,228.1,175.6,228.2,175.6z"/>
	<path class="st0" d="M71.5,117.4c0.5,0,1,0.4,1,0.9s-0.4,0.9-0.9,0.9h-0.1c-8.8,0-24.5,3.9-28.5,4.9c0.2,0.2,0.5,0.4,0.8,0.6
		c0.8,0.5,1.9,1.2,1.9,2.7c0,1.5-1.1,2.2-1.9,2.7c-0.8,0.5-1.1,0.8-1.1,1.2c0,0.4,0.3,0.7,1.1,1.2c0.8,0.5,1.9,1.2,1.9,2.7
		s-1.1,2.2-1.9,2.7c-0.8,0.5-1.1,0.8-1.1,1.2c0,0.4,0.3,0.7,1.1,1.2c0.8,0.5,1.9,1.2,1.9,2.7s-1.1,2.2-1.9,2.7
		c-0.8,0.5-1.1,0.8-1.1,1.2c0,0.4,0.3,0.7,1.1,1.2c0.8,0.5,1.9,1.2,1.9,2.7c0,1.4-1,2.1-1.7,2.6c6.3-1.2,23.5-4.5,27.5-4.1
		c0.5,0,0.8,0.5,0.8,1s-0.5,0.8-1,0.8c-3.6-0.4-20.7,2.8-29.3,4.6c-0.3,0-0.5,0-0.7-0.2c-0.2-0.2-0.3-0.4-0.3-0.7
		c0-1.5,1.1-2.2,1.9-2.7s1.1-0.8,1.1-1.2c0-0.4-0.3-0.7-1.1-1.2S41,148.5,41,147s1.1-2.2,1.9-2.7s1.1-0.8,1.1-1.2
		c0-0.4-0.3-0.7-1.1-1.2s-1.9-1.2-1.9-2.7s1.1-2.2,1.9-2.7s1.1-0.8,1.1-1.2c0-0.4-0.3-0.7-1.1-1.2s-1.9-1.2-1.9-2.7s1.1-2.2,1.9-2.7
		s1.1-0.8,1.1-1.2c0-0.4-0.3-0.7-1.1-1.2c-0.9-0.6-2-1.3-2-2.8c0-0.4,0.3-0.8,0.7-0.9C42.4,122.4,61.2,117.4,71.5,117.4z"/>
	<path class="st0" d="M351.7,60.9L351.7,60.9c10.3,0.8,28.8,7.5,29.6,7.8c0.4,0.1,0.6,0.5,0.6,0.9c-0.1,1.5-1.3,2.1-2.2,2.5
		c-0.8,0.4-1.2,0.7-1.2,1.1c0,0.4,0.3,0.7,1,1.3c0.8,0.6,1.8,1.4,1.7,2.9c-0.1,1.5-1.3,2.1-2.2,2.5c-0.8,0.4-1.2,0.7-1.2,1.1
		c0,0.4,0.3,0.7,1,1.3c0.8,0.6,1.8,1.4,1.7,2.9c-0.1,1.5-1.3,2.1-2.2,2.5c-0.8,0.4-1.2,0.7-1.2,1.1c0,0.4,0.3,0.7,1,1.3
		c0.8,0.6,1.8,1.4,1.7,2.9c-0.1,1.5-1.3,2.1-2.2,2.5c-0.8,0.4-1.2,0.7-1.2,1.1s0.3,0.7,1,1.3c0.8,0.6,1.8,1.4,1.7,2.9
		c0,0.3-0.2,0.5-0.4,0.7c-0.2,0.1-0.5,0.2-0.8,0.1c-8.3-2.4-25-7-28.7-7c0,0,0,0-0.1,0c-0.5,0-0.9-0.4-0.9-0.9s0.4-0.9,0.9-0.9
		c4,0,20.8,4.7,27,6.4c-0.7-0.6-1.6-1.4-1.5-2.8c0.1-1.5,1.3-2.1,2.2-2.5c0.8-0.4,1.2-0.7,1.2-1.1s-0.3-0.7-1-1.3
		c-0.8-0.6-1.8-1.4-1.7-2.9c0.1-1.5,1.3-2.1,2.2-2.5c0.8-0.4,1.2-0.7,1.2-1.1c0-0.4-0.3-0.7-1-1.3c-0.8-0.6-1.8-1.4-1.7-2.9
		c0.1-1.5,1.3-2.1,2.2-2.5c0.8-0.4,1.2-0.7,1.2-1.1c0-0.4-0.3-0.7-1-1.3c-0.8-0.6-1.8-1.4-1.7-2.9c0.1-1.5,1.3-2.1,2.2-2.5
		c0.4-0.2,0.7-0.4,0.9-0.5c-3.9-1.4-19.4-6.6-28.1-7.3c-0.5,0-0.9-0.5-0.8-1C350.8,61.3,351.2,60.9,351.7,60.9z"/>
	<path class="st0" d="M175.1,58.8l1.7,0.5c-0.2,0.7-17.5,66-4.5,133c11.3,58.3,46,71.4,46.3,71.5l-0.6,1.7c-0.4-0.1-9.1-3.4-19.4-14
		c-9.5-9.8-22-27.9-28-58.8C157.5,125.2,174.9,59.4,175.1,58.8z"/>
	<path class="st0" d="M166.7,58.8l1.7,0.4c-0.2,0.6-16,65.7-4.5,133c5.3,31.1,18.7,50.3,29,61c11.2,11.5,21.2,15.8,21.3,15.8
		l-0.7,1.6c-0.4-0.2-10.4-4.4-21.8-16.2c-10.5-10.8-24.2-30.4-29.6-62C150.7,124.9,166.6,59.4,166.7,58.8z"/>
	<path class="st0" d="M237.4,48.3c0.2,0.4,16.1,41.7,19.3,93.2l-1.8,0.1c-3.2-51.2-19-92.2-19.2-92.7L237.4,48.3z"/>
	<path class="st0" d="M245,46.7c0.2,0.4,15.3,42.3,18.8,94.5l-1.8,0.1c-3.4-52-18.5-93.6-18.7-94L245,46.7z"/>
	<path class="st0" d="M89.6,111.1c0.2,12.6,0.5,25.2,0.7,37.8c0,0.6,0.9,0.6,0.9,0c-0.2-12.6-0.5-25.2-0.7-37.8
		C90.4,110.6,89.5,110.6,89.6,111.1"/>
	<path class="st0" d="M84.6,117.3c0.1,10.3,1.1,20.5,1,30.7c0,0.6,0.9,0.6,0.9,0c0.1-10.3-1-20.5-1.1-30.7
		C85.5,116.7,84.6,116.7,84.6,117.3"/>
	<path class="st0" d="M299.8,99.4c0.5-12.6,1.1-25.2,1.6-37.8c0-0.6-0.9-0.6-0.9,0c-0.5,12.6-1.1,25.2-1.6,37.8
		C298.9,99.9,299.8,99.9,299.8,99.4"/>
	<path class="st0" d="M305.2,96.2c0.5-10.2,0.1-20.5,0.8-30.7c0-0.6-0.9-0.6-0.9,0c-0.7,10.2-0.3,20.5-0.8,30.7
		C304.2,96.8,305.1,96.8,305.2,96.2"/>
	<path class="st0" d="M117.9,99.3c0.4,10.2,0.1,20.5,0.5,30.8c0,0.6,0.9,0.6,0.9,0c-0.4-10.2-0.1-20.5-0.5-30.8
		C118.8,98.7,117.9,98.7,117.9,99.3"/>
	<path class="st0" d="M114.5,102.9c0.2,7.7,0.5,15.4,0.7,23.1c0,0.6,0.9,0.6,0.9,0c-0.2-7.7-0.5-15.4-0.7-23.1
		C115.4,102.3,114.5,102.3,114.5,102.9"/>
	<path class="st0" d="M327.8,87.7c-0.1-5.4,0.5-10.8,0.5-16.3c0-0.6-0.9-0.6-0.9,0c0,5.4-0.6,10.8-0.5,16.3
		C326.9,88.3,327.8,88.3,327.8,87.7"/>
	<path class="st0" d="M331,92.2c0.2-7.7,0.5-15.4,0.7-23.1c0-0.6-0.9-0.6-0.9,0c-0.2,7.7-0.5,15.4-0.7,23.1
		C330.1,92.8,331,92.8,331,92.2"/>
</g>
</svg>
