<?xml version="1.0" encoding="utf-8"?>
<!-- Generator: Adobe Illustrator 24.2.0, SVG Export Plug-In . SVG Version: 6.00 Build 0)  -->
<svg version="1.1" id="Calque_1" xmlns="http://www.w3.org/2000/svg" xmlns:xlink="http://www.w3.org/1999/xlink" x="0px" y="0px"
	 viewBox="0 0 345.2 267.8" style="enable-background:new 0 0 345.2 267.8;" xml:space="preserve">
<style type="text/css">
	.st0{fill:#FFFFFF;}
	.st1{fill:#333333;}
	.st2{fill:#4B4C4C;}
	.st3{fill:#FFFFFF;stroke:#4C4C4C;stroke-width:1.5;stroke-linecap:round;stroke-linejoin:round;stroke-miterlimit:10;}
	.st4{fill:none;stroke:#FFFFFF;stroke-width:3;stroke-linecap:round;stroke-linejoin:round;stroke-miterlimit:10;}
	.st5{fill:#63C9BB;}
	.st6{fill:#4C4C4C;}
	.st7{fill:none;stroke:#72C6B9;stroke-miterlimit:10;}
	.st8{fill:#72C6B9;}
	.st9{enable-background:new    ;}
	.st10{fill:#FFFFFF;stroke:#72C6B9;stroke-miterlimit:10;}
	.st11{fill:none;stroke:#FFFFFF;stroke-width:4;stroke-linecap:round;stroke-linejoin:round;stroke-miterlimit:10;}
	.st12{fill:none;stroke:#FFFFFF;stroke-width:5;stroke-linecap:round;stroke-linejoin:round;stroke-miterlimit:10;}
	.st13{fill:none;stroke:#4B4C4C;stroke-linecap:round;stroke-linejoin:round;}
</style>
<path class="st0" d="M36.9,120.8c-8.7,0.4-17.2,2.4-21.5,3.7c0.4-0.5,0.6-1,0.6-1.4c0-0.5-0.2-1-0.7-1.4c-0.1-0.1-0.2-0.2-0.4-0.3
	c-0.3-0.2-0.6-0.5-0.6-0.7s0.3-0.5,0.7-0.9c0.1-0.1,0.2-0.3,0.4-0.4c0.4-0.5,0.7-1,0.7-1.5s-0.2-1-0.7-1.4c-0.1-0.1-0.2-0.2-0.4-0.3
	c-0.3-0.2-0.6-0.5-0.6-0.7s0.3-0.5,0.7-0.9v-0.1c0.1-0.1,0.2-0.3,0.3-0.4c0.4-0.5,0.7-1,0.7-1.5s-0.2-1-0.6-1.4
	c-0.1-0.1-0.2-0.2-0.4-0.3c-0.3-0.2-0.6-0.5-0.6-0.7s0.3-0.6,0.7-0.9c0.1-0.1,0.2-0.3,0.4-0.4c0.4-0.5,0.6-1,0.7-1.5
	c0-0.5-0.2-1-0.6-1.4c-0.1-0.1-0.2-0.2-0.4-0.3c-0.3-0.3-0.6-0.5-0.6-0.7s0.3-0.6,0.7-0.9c0.1-0.1,0.2-0.3,0.3-0.4
	c0.4-0.5,0.6-1,0.7-1.5c0-0.5-0.2-1-0.6-1.4c-0.1-0.1-0.2-0.2-0.3-0.3c-0.1-0.1-0.1-0.1-0.2-0.2c3.7-1,14.4-3.6,21.6-4.3V120.8z"/>
<path class="st0" d="M282.6,35.9c1.3,0.5,2.5,1,3.8,1.5c0.2,0.1,1.7,0.7,2.9,1.1c0-0.2,0.1-0.4,0-0.7c-0.2-1.1-0.2-0.6-1.1-1.1
	C286.7,36,284.7,35.9,282.6,35.9z"/>
<g>
	<g>
		<g>
			<path class="st1" d="M223.5,80.5c0.4-10.3,0.9-20.6,1.3-30.9c0-0.6-1-0.6-1,0c-0.4,10.3-0.9,20.6-1.3,30.9
				C222.5,81.2,223.5,81.2,223.5,80.5L223.5,80.5z"/>
		</g>
	</g>
	<g>
		<g>
			<path class="st1" d="M227.9,78c0.5-8.4,0.1-16.8,0.7-25.1c0-0.6-1-0.6-1,0c-0.6,8.4-0.2,16.8-0.7,25.1
				C226.9,78.6,227.9,78.6,227.9,78L227.9,78z"/>
		</g>
	</g>
</g>
<g>
	<g>
		<g>
			<path class="st1" d="M246.4,71c-0.1-4.4,0.4-8.9,0.4-13.3c0-0.6-1-0.6-1,0c0,4.4-0.5,8.9-0.4,13.3
				C245.5,71.6,246.5,71.6,246.4,71L246.4,71z"/>
		</g>
	</g>
	<g>
		<g>
			<path class="st1" d="M249,74.7c0.2-6.3,0.4-12.6,0.6-18.8c0-0.6-1-0.6-1,0c-0.2,6.3-0.4,12.6-0.6,18.8
				C248,75.3,249,75.3,249,74.7L249,74.7z"/>
		</g>
	</g>
</g>
<path class="st0" d="M152.6,218.8c-0.3,0.3-0.6,0.5-0.8,0.7C152.1,219.3,152.3,219,152.6,218.8z"/>
<path class="st0" d="M142.9,210.7c-7.5-6.6-14.5-16.8-20-28.9c-6.2-13.8-9.9-29.3-10.8-44.9c-1.9-34,7-81.7,8.5-89.2l-3,0.5
	c-1,5.6-9.6,56.2-7.7,90.9c1.4,24.1,11.2,55.9,30.3,72.7c4.5,3.9,8.8,6.3,12.6,6.8c0.4-0.4,0.8-0.8,1.2-1.2
	C150.5,216.4,146.8,214.2,142.9,210.7z"/>
<path class="st0" d="M139.2,212.9c-7.5-6.6-14.5-16.8-20-28.9c-6.2-13.8-9.9-29.3-10.8-44.9c-1.9-34,6.3-83,7.6-90.7
	c-9.8,1.9-17.3,3.6-20.7,4.6c-8.1,2.5-12.9,10.3-12.9,10.3s0,0,0,0.1c-0.3,0.4-0.5,0.7-0.8,1.1c-3.1,4.2-4.5,6.1-13.6,7.9h-0.1
	c-0.7,0.1-1.3,0.1-2,0.1C60.2,73,55.6,73.3,54.8,77c-0.4,1.5-0.5,2.8-0.7,3.8c-0.3,2.2-0.5,3.7-2.1,5.4c-4.4,4.6-13.6,3.6-13.6,3.6
	v35c1,0.5,3.9,1.8,7.1,1.4c6.2-0.8,19.1-7.3,21.6-8.9c2.9-1.8,16.3-8,23.8-6.3c1.4,0.3,2.2,0.9,2.6,1.8c0.7,1.9-1.2,4.2-3.1,6.5
	c-0.7,0.9-1.8,2.2-2,2.8c0.1,0,0.2,0,0.4,0c3.3,0.1,5.1,0.8,5.4,2.2c0.6,2.3-3.2,5.1-3.7,5.4c-1,0.7-3.8,3.2-3.5,4.9
	c0.2,1.1,1.9,1.7,3.3,2c2.6,0.5,4,1.4,4.4,2.7c0.5,1.7-1,3.4-1.8,4.2c-0.1,0.1-0.2,0.2-0.2,0.3c-1.5,1.8-2.1,3.2-1.8,4.2
	c0.4,1.4,2.7,2.2,4.8,2.8c1.2,0.3,2.5,0.8,2.9,2c0.4,1.1-0.3,2.3-1.4,3.8c-0.3,0.4-0.6,0.8-0.9,1.2c-1.1,1.4-2.2,2.8-1.9,3.7
	c0.1,0.4,0.5,0.8,1.2,1.1c0.6,0.3,1.5,0.6,2.5,0.9c2.2,0.7,4.5,1.4,5,3.1c0.2,0.9-0.1,1.8-0.9,2.8c-1.4,1.6-5,5.9-4.4,8.2
	c0.2,0.6,0.7,1.1,1.5,1.4c1.2,0.4,2.2,0.6,3.1,0.8c1.1,0.2,1.9,0.3,2.2,1.1c0.4,0.8,0,1.8-1.4,4.1c-1,1.8-2.1,3.7-1.8,4.4
	c0.2,0.5,1.3,0.8,2.3,1.1c0.4,0.1,0.9,0.2,1.4,0.3c2.3,0.5,4.8,1.1,5.7,3c0.5,1.1,0.3,2.5-0.6,4.2c-2.8,5.3-2.2,6.5-0.1,7.7
	c0.7,0.4,2,0.7,3.3,1c2.3,0.5,4.5,1,5,2.6c0.3,1-0.2,2.1-1.5,3.5c-0.5,0.6-0.7,1.1-0.5,1.6c0.4,0.9,2.3,1.8,4.9,1.8h0.7
	c0.2,0,0.4,0,0.7,0c2,0,3.5,0.1,4.4,1.2c0.6,0.7,0.7,1.8,0.3,3.3c-0.8,3-0.8,3.8,0.8,4.5c0.8,0.4,1.8,0.7,2.9,0.9
	c8.9,0.4,15.4-1.9,20.3-5.9C147.6,219.1,143.5,216.7,139.2,212.9z M47.8,95.2l0.4,10.9c0.3,4.7,0.6,9.4,0.5,14.2l-0.5-14.2
	C48,102.6,47.8,99,47.8,95.2z"/>
<path class="st0" d="M129.8,226.5c-0.7-0.3-1.3-0.6-2-1C128.5,225.9,129.1,226.2,129.8,226.5z"/>
<path class="st0" d="M131,225.8c-0.2,0-0.3,0-0.5,0C130.6,225.8,130.8,225.8,131,225.8z"/>
<path class="st0" d="M15.5,100.5c0.1,0.1,0.2,0.2,0.3,0.3c0.4,0.4,0.6,0.9,0.6,1.4s-0.2,1-0.7,1.5c-0.1,0.1-0.2,0.3-0.3,0.4
	c-0.3,0.4-0.7,0.8-0.7,0.9c0,0.2,0.3,0.4,0.6,0.7c0.1,0.1,0.2,0.2,0.4,0.3c0.4,0.4,0.6,0.9,0.6,1.4s-0.2,1-0.7,1.5
	c-0.1,0.1-0.2,0.3-0.4,0.4c-0.4,0.4-0.7,0.8-0.7,0.9c0,0.2,0.3,0.4,0.6,0.7c0.1,0.1,0.3,0.2,0.4,0.3c0.4,0.4,0.6,0.9,0.6,1.4
	s-0.2,1-0.7,1.5c-0.1,0.1-0.2,0.3-0.3,0.4v0.1c-0.3,0.3-0.7,0.7-0.7,0.9c0,0.2,0.3,0.4,0.6,0.7c0.1,0.1,0.3,0.2,0.4,0.3
	c0.4,0.4,0.7,0.9,0.7,1.4s-0.2,1-0.7,1.5c-0.1,0.1-0.3,0.3-0.4,0.4c-0.4,0.4-0.7,0.7-0.7,0.9c0,0.2,0.3,0.4,0.6,0.7
	c0.1,0.1,0.3,0.2,0.4,0.3c0.4,0.4,0.7,0.9,0.7,1.4s-0.2,1-0.6,1.4c4.4-1.2,12.8-3.3,21.5-3.7V96c-7.2,0.7-17.9,3.3-21.6,4.3
	C15.4,100.4,15.4,100.4,15.5,100.5z"/>
<path class="st0" d="M263,75.4c10.6,0.5,21,3.9,25.1,5.3c-0.3-0.5-0.4-1-0.4-1.5c0.1-0.5,0.4-0.9,1-1.3c0.1-0.1,0.3-0.2,0.4-0.3
	c0.4-0.3,0.8-0.5,0.8-0.7s-0.2-0.5-0.5-0.9c-0.1-0.1-0.2-0.3-0.3-0.5c-0.4-0.5-0.5-1.1-0.4-1.6s0.4-0.9,1-1.3
	c0.1-0.1,0.3-0.2,0.4-0.3c0.4-0.3,0.8-0.5,0.9-0.7c0-0.2-0.2-0.5-0.5-0.9c-0.1-0.1-0.2-0.3-0.3-0.5c-0.4-0.5-0.5-1.1-0.4-1.6
	s0.4-0.9,1-1.3c0.1-0.1,0.3-0.2,0.4-0.3c0.4-0.3,0.8-0.5,0.8-0.7s-0.2-0.5-0.5-0.9c-0.1-0.2-0.2-0.3-0.3-0.5
	c-0.4-0.5-0.5-1.1-0.4-1.6s0.4-0.9,1-1.3c0.1-0.1,0.3-0.2,0.4-0.3c0.4-0.3,0.8-0.5,0.9-0.7c0-0.2-0.2-0.5-0.5-0.9
	c-0.1-0.2-0.2-0.3-0.3-0.5c-0.4-0.5-0.5-1.1-0.4-1.6s0.4-0.9,1-1.3c0.1-0.1,0.3-0.2,0.4-0.3l0,0c0.1,0,0.2-0.1,0.2-0.1
	c-3.8-1.2-17.2-5.1-25.6-6.1L263,75.4z"/>
<path class="st0" d="M196.3,116.2c-0.5,0.1-1,0.2-1.4,0.2C195.4,116.4,195.9,116.3,196.3,116.2z"/>
<path class="st0" d="M244.6,46c-15.7,0.2-18.3-1.4-20.7-2.8c-0.2-0.1-0.5-0.3-0.7-0.4c-1.9-1-2.8-2.4-3.7-3.7
	c-1.7-2.4-3.3-4.7-11.3-4.8c-0.1,0-0.1,0-0.2,0c-5.2,0-16.8,1.4-30.7,3.5c1,2.7,5.4,15.1,8.4,25.5c3.4,12.1,10.1,49,10.7,52.8
	c4.3-0.7,8.8-1.5,13.4-2.4c-0.6,0.1-1.3,0.3-1.9,0.4c0.6-0.9,1-1.8,0.9-2.5c-0.1-0.5-0.4-1-1-1.3c-1.2-0.8-1.8-2.1-1.7-3.6
	c0.2-2.8,2.7-6.1,4.6-6.9c1.7-0.7,3.2-3.7,3.8-6.3c0.5-2.1,2.7-4.1,5.8-5.6c2.6-1.2,11.4-2.8,14.4-2.8c3.2,0,12.7-1,16.3-2.9
	c1.8-1,3.2-2.1,4.4-3c1.3-1,2.2-1.8,3.3-1.9s2.3-1,2.7-1.3l5.7-28.1C265.1,47.3,258.4,45.8,244.6,46z"/>
<path class="st0" d="M184.2,63.8c-2.9-10.3-7.3-22.6-8.3-25.4l-1.9,0.3c1.1,3.7,5.2,16.9,8,26.9c3.1,11.1,9,43,10.4,51.2
	c-0.5,0.1-1,0.1-1.5,0.2c-1.4-8.2-7.3-39.9-10.4-51c-2.9-10.2-7-23.6-8-27l-50.4,8.5c-1.1,5.5-10.5,54.7-8.5,89.4
	c1.4,24.1,11.2,55.9,30.3,72.7c3.9,3.5,7.8,5.7,11.2,6.5c8.2-10,10.3-26,11.9-40.1c0,0-19.6,5.3-30.8,1.4c0.7-3.3,1.5-4.1,1.1-6.7
	c-0.4-2.6-7.1-5.8-8-12.2c-0.8-6.3,1.7-9.6,8.1-13.1c1.8-0.9,5-2.8,6.4-4c1.7-1.4,2.2-3.6,2.6-4.6c9.5,1.7,19.4-0.9,19.4-0.9
	c-0.1-0.6-0.2-1.1-0.2-1.7c-0.5-3.3-1-6.6-1.6-9.9c-0.9-5,2.7-5.5,4.6-5.4c5.2,0.1,14.7-0.7,26.2-2.6
	C194.3,112.6,187.6,75.9,184.2,63.8z"/>
<g>
	<g>
		<g>
			<path class="st2" d="M74.6,80.4c0.4,8.4,0.1,16.8,0.4,25.1c0,0.6,1,0.6,1,0c-0.3-8.4,0-16.8-0.4-25.1
				C75.6,79.8,74.6,79.8,74.6,80.4L74.6,80.4z"/>
		</g>
	</g>
	<g>
		<g>
			<path class="st2" d="M71.8,83.4c0.2,6.3,0.4,12.6,0.6,18.8c0,0.6,1,0.6,1,0C73.2,96,73,89.7,72.8,83.4
				C72.8,82.8,71.8,82.8,71.8,83.4L71.8,83.4z"/>
		</g>
	</g>
</g>
<g>
	<g>
		<path class="st2" d="M50.9,90.4c0.2,10.3,0.4,20.7,0.6,31c0,0.6,1,0.6,1,0c-0.2-10.3-0.4-20.7-0.6-31
			C51.9,89.8,50.9,89.8,50.9,90.4L50.9,90.4z"/>
	</g>
</g>
<g>
	<g>
		<path class="st2" d="M46.8,95.5c0,8.4,1,16.8,0.9,25.2c0,0.6,1,0.6,1,0c0.1-8.4-0.8-16.8-0.9-25.2C47.8,94.8,46.8,94.8,46.8,95.5
			L46.8,95.5z"/>
	</g>
</g>
<g>
	<g>
		<g>
			<path class="st2" d="M223.4,80.8c0.4-10.3,0.9-20.7,1.3-31c0-0.6-1-0.6-1,0c-0.4,10.3-0.9,20.7-1.3,31
				C222.3,81.4,223.3,81.4,223.4,80.8L223.4,80.8z"/>
		</g>
	</g>
	<g>
		<g>
			<path class="st2" d="M227.8,78.2c0.5-8.4,0.1-16.8,0.7-25.2c0-0.6-1-0.6-1,0c-0.6,8.4-0.2,16.8-0.7,25.2
				C226.7,78.8,227.7,78.8,227.8,78.2L227.8,78.2z"/>
		</g>
	</g>
</g>
<g>
	<g>
		<g>
			<path class="st2" d="M246.3,71.2c-0.1-4.5,0.4-8.9,0.4-13.3c0-0.6-1-0.6-1,0c0,4.5-0.5,8.9-0.4,13.3
				C245.3,71.9,246.3,71.9,246.3,71.2L246.3,71.2z"/>
		</g>
	</g>
	<g>
		<g>
			<path class="st2" d="M248.9,74.9c0.2-6.3,0.4-12.6,0.6-18.9c0-0.6-1-0.6-1,0c-0.2,6.3-0.4,12.6-0.6,18.9
				C247.9,75.6,248.9,75.6,248.9,74.9L248.9,74.9z"/>
		</g>
	</g>
</g>
<path class="st3" d="M168.4,119.3c-2,0-5.5,0.4-4.6,5.4c0.6,3.2,1.1,6.5,1.6,9.9c0.1,0.6,0.2,1.1,0.2,1.7c0,0-10,2.6-19.5,0.9
	c-0.4,1-0.9,3.2-2.6,4.6c-1.4,1.2-4.6,3.1-6.4,4c-6.5,3.5-8.9,6.9-8.1,13.2c0.8,6.5,7.6,9.6,8,12.2c0.4,2.6-0.4,3.3-1.1,6.7
	c11.2,4,30.9-1.4,30.9-1.4c-2.7,23.7-6.7,53.1-39.3,49.6c47.3,24.8,136.7,0.5,148.8-121.7c0.3-2.6,0.6-6.3,0.7-8
	c0.1-4.4-2-5.2-6.1-2.8C242.1,110.6,184.3,119.7,168.4,119.3z"/>
<path class="st2" d="M295.3,56c-0.5-0.3-17.4-5.3-27.1-6.6l0.4-2c0.1-0.4-0.1-0.7-0.5-0.8c-0.3-0.1-6.7-2.3-23.6-2.1
	c-15.2,0.2-17.7-1.3-19.9-2.6c-0.2-0.1-0.5-0.3-0.7-0.4c-1.6-0.9-2.4-2-3.2-3.2c-1.8-2.6-3.7-5.3-12.5-5.4c-0.1,0-0.1,0-0.2,0
	c-16.6,0-99.5,14.7-113,18.8c-8.5,2.6-13.3,10.3-13.7,11c-0.3,0.4-0.5,0.7-0.8,1c-3,4-4.2,5.6-12.6,7.3c-0.7,0-1.3,0.1-1.9,0.1
	c-5.8,0.4-11.4,0.7-12.5,5.5c-0.4,1.6-0.6,2.9-0.7,4c-0.3,2.1-0.4,3.2-1.7,4.6c-4.1,4.4-8.5,3.7-13.2,3c-0.2,0-0.4,0-0.6,0.2
	S37,88.7,37,88.9v5.8c-8.6,0.9-22.5,4.4-23,4.7l-0.1,0.1v0.2c0,0.1,0,0.2,0,0.3l0,0c0,0.3,0.1,0.5,0.1,0.6c0.2,0.4,0.5,0.7,0.8,1
	c0.1,0.1,0.2,0.2,0.3,0.3c0.2,0.2,0.2,0.4,0.2,0.5c0,0.2-0.1,0.4-0.3,0.6c-0.1,0.1-0.2,0.3-0.4,0.4c-0.5,0.5-1,1.1-1,1.8
	c0,0.7,0.5,1.2,0.9,1.6c0.1,0.1,0.2,0.2,0.3,0.3c0.2,0.2,0.3,0.4,0.3,0.5c0,0.2-0.1,0.4-0.3,0.6c-0.1,0.1-0.2,0.3-0.4,0.4
	c-0.5,0.5-1,1.1-1,1.8c0,0.7,0.5,1.2,1,1.6c0.1,0.1,0.2,0.2,0.3,0.3c0.2,0.2,0.3,0.4,0.3,0.5c0,0.2-0.1,0.4-0.3,0.6
	c-0.1,0.1-0.2,0.3-0.4,0.4c-0.5,0.5-1,1.1-1,1.8c0,0.7,0.5,1.2,1,1.6c0.1,0.1,0.2,0.2,0.3,0.3c0.2,0.2,0.3,0.4,0.3,0.5
	c0,0.2-0.1,0.4-0.3,0.6c-0.1,0.1-0.2,0.3-0.4,0.4c-0.5,0.5-1,1.1-1.1,1.8c0,0.7,0.5,1.2,1,1.6c0.1,0.1,0.2,0.2,0.4,0.3
	c0.3,0.2,0.3,0.4,0.3,0.5c0,0.2-0.1,0.4-0.3,0.6c-0.1,0.1-0.3,0.3-0.4,0.4c-0.6,0.6-1.1,1.2-1.1,1.9l0,0l-0.2,0.4l0.5-0.2l0,0h0.1
	c0,0,0.2-0.1,0.5-0.1c0,0,0,0,0.1,0s0.2,0,0.2-0.1c2.6-0.8,11.7-3.3,21.4-3.9c0.1,0,0.1,0,0.2,0c0.3,0,0.6,0,0.9,0
	c0.1,0,0.3,0,0.4,0v3.1c0,0.3,0.1,0.5,0.4,0.6c0.2,0.1,3.9,2.4,8.4,1.8c6.5-0.8,19.6-7.5,22.2-9.1c2.7-1.7,15.7-7.7,22.7-6.1
	c0.6,0.1,1.3,0.4,1.5,0.9c0.4,1.1-1.5,3.4-2.8,5c-1.6,1.9-2.7,3.3-2.2,4.4c0.2,0.5,0.8,0.8,1.7,0.8c3.5,0.1,4,0.9,4,1.1
	c0.3,1-2,3.1-3.1,3.8c0,0,0,0-0.1,0c-0.5,0.3-4.7,3.5-4,6.4c0.3,1.5,1.8,2.5,4.5,3.1c1.9,0.4,3.1,1,3.3,1.7c0.3,0.9-0.9,2.2-1.4,2.7
	c-0.1,0.1-0.2,0.3-0.3,0.3c-1.9,2.2-2.5,4-2.1,5.6c0.6,2.1,3.2,3,5.8,3.8c1.4,0.4,1.8,0.8,1.9,1c0.2,0.6-0.8,2-1.2,2.5
	c-0.3,0.4-0.6,0.8-0.9,1.1c-1.3,1.7-2.6,3.3-2.2,4.9c0.2,0.9,0.8,1.6,2,2.1c0.7,0.4,1.7,0.7,2.7,1c1.7,0.5,3.8,1.2,4,2.1
	c0.1,0.4-0.3,1-0.6,1.5c-2.7,3.2-5.4,6.8-4.7,9.5c0.3,1.1,1.1,1.9,2.5,2.4s2.5,0.7,3.3,0.8c0.4,0.1,1,0.2,1.2,0.3
	c0,0.5-1,2.2-1.3,2.7c-1.6,2.8-2.4,4.5-1.9,5.7c0.4,1.1,1.7,1.5,3.3,1.9c0.5,0.1,0.9,0.2,1.4,0.4c1.9,0.4,4.1,0.9,4.7,2.2
	c0.3,0.7,0.1,1.7-0.5,2.9c-2.5,4.7-3.1,7.5,0.5,9.7c0.9,0.6,2.3,0.9,3.7,1.2c1.5,0.3,3.7,0.8,3.9,1.6c0.1,0.4-0.3,1.2-1.1,2.1
	c-1.3,1.4-1.1,2.6-0.8,3.2c0.7,1.6,3.3,2.7,6.2,2.7h0.7c1.7,0,3.4,0,3.9,0.6c0.3,0.3,0.3,1,0,2c-0.7,2.5-1.3,5,1.7,6.2
	c1.2,0.5,2.6,0.9,4.2,1.2c-1.3-0.6-2.7-1.2-3.9-1.9c1.1,0.1,2.2,0.2,3.2,0.2c-1.1-0.2-2.1-0.5-2.9-0.9c-1.6-0.7-1.6-1.5-0.8-4.5
	c0.4-1.5,0.3-2.5-0.3-3.3c-0.8-1.1-2.4-1.2-4.4-1.2c-0.2,0-0.4,0-0.7,0h-0.7c-2.6,0-4.5-0.9-4.9-1.8c-0.2-0.4,0-1,0.5-1.5
	c1.3-1.4,1.8-2.5,1.5-3.5c-0.5-1.6-2.7-2.1-5-2.6c-1.3-0.3-2.5-0.6-3.3-1c-2.1-1.3-2.8-2.4,0.1-7.7c0.9-1.7,1.1-3.1,0.6-4.2
	c-0.9-1.9-3.4-2.5-5.7-3c-0.5-0.1-1-0.2-1.4-0.3c-1.1-0.3-2.2-0.6-2.3-1.1c-0.3-0.7,0.7-2.6,1.8-4.4c1.4-2.3,1.8-3.3,1.4-4.1
	c-0.3-0.7-1.1-0.9-2.2-1.1c-0.8-0.1-1.8-0.3-3.1-0.8c-0.9-0.3-1.4-0.8-1.5-1.4c-0.6-2.3,3-6.6,4.4-8.2c0.9-1,1.2-2,0.9-2.8
	c-0.5-1.6-2.8-2.4-5-3.1c-0.9-0.3-1.8-0.6-2.5-0.9c-0.7-0.3-1.1-0.7-1.2-1.1c-0.2-0.9,0.9-2.3,1.9-3.7c0.3-0.4,0.6-0.8,0.9-1.2
	c1.1-1.5,1.7-2.7,1.4-3.8c-0.4-1.1-1.7-1.6-2.9-2c-2.1-0.6-4.4-1.4-4.8-2.8c-0.3-1,0.3-2.4,1.8-4.2c0.1-0.1,0.1-0.2,0.2-0.3
	c0.8-0.8,2.3-2.4,1.8-4.2c-0.4-1.3-1.8-2.2-4.4-2.7c-1.4-0.3-3.1-0.9-3.3-2c-0.4-1.7,2.4-4.1,3.5-4.9c0.5-0.3,4.3-3.1,3.7-5.4
	c-0.4-1.4-2.2-2.1-5.4-2.2c-0.2,0-0.3,0-0.4,0c0.1-0.5,1.2-1.9,2-2.8c1.8-2.3,3.7-4.6,3.1-6.5c-0.3-0.9-1.2-1.5-2.6-1.8
	c-7.5-1.7-20.9,4.5-23.8,6.3c-2.5,1.5-15.4,8.1-21.6,8.9c-3.2,0.4-6.1-0.9-7.1-1.4v-35c4.4,0.7,9.2,1.1,13.6-3.6
	c1.6-1.7,1.8-3.2,2.1-5.4c0.1-1.1,0.3-2.3,0.7-3.8c0.9-3.7,5.4-4,11.1-4.4c0.7,0,1.3-0.1,2-0.1h0.1c9.1-1.8,10.5-3.7,13.6-7.9
	c0.3-0.3,0.5-0.7,0.8-1.1c0,0,0,0,0-0.1s4.8-7.9,12.9-10.3c3.3-1,10.9-2.7,20.7-4.6c-1.3,7.7-9.5,56.7-7.6,90.6
	c0.9,15.6,4.6,31.1,10.8,44.8c5.4,12,12.5,22.2,19.9,28.8c4.3,3.8,8.4,6.1,12.1,6.9c0.5-0.4,1-0.8,1.4-1.3
	c-3.7-0.5-8.1-2.9-12.6-6.8c-19-16.8-28.9-48.6-30.3-72.7c-2-34.7,6.7-85.2,7.7-90.8l3-0.5c-1.5,7.5-10.4,55.2-8.4,89.2
	c0.9,15.6,4.6,31.1,10.8,44.8c5.4,12,12.5,22.2,19.9,28.8c3.9,3.4,7.6,5.7,11.1,6.7c0.4-0.4,0.7-0.8,1.1-1.2
	c-3.4-0.8-7.3-3.1-11.2-6.5c-19-16.8-28.9-48.6-30.3-72.7c-2-34.7,7.4-83.9,8.5-89.3l50.3-8.5c1.1,3.4,5.2,16.8,8,27
	c3.1,11.1,8.9,42.8,10.4,51c0.5-0.1,1-0.1,1.5-0.2c-1.4-8.2-7.3-40-10.4-51.2c-2.8-10-6.8-23.2-8-26.9l1.9-0.3
	c1,2.8,5.4,15,8.3,25.4c3.4,12.1,10,48.8,10.6,52.6c0.5-0.1,1-0.2,1.5-0.2c-0.6-3.8-7.3-40.6-10.7-52.8c-2.9-10.4-7.4-22.8-8.4-25.5
	c13.9-2.1,25.6-3.5,30.7-3.5c0.1,0,0.1,0,0.2,0c8,0.1,9.6,2.3,11.3,4.7c0.9,1.3,1.8,2.6,3.7,3.7c0.2,0.1,0.5,0.3,0.7,0.4
	c2.4,1.4,5,3,20.7,2.8c13.8-0.2,20.5,1.3,22.5,1.8L261.4,76c-0.4,0.4-1.6,1.2-2.7,1.3c-1.1,0.1-2.1,0.9-3.3,1.9
	c-1.1,0.9-2.5,2-4.4,3c-3.6,1.9-13.1,2.9-16.3,2.9c-3,0-11.8,1.6-14.4,2.8c-3.1,1.4-5.2,3.5-5.8,5.6c-0.7,2.5-2.1,5.6-3.8,6.3
	c-1.9,0.8-4.4,4.1-4.6,6.9c-0.1,1.6,0.5,2.9,1.7,3.6c0.6,0.4,0.9,0.8,1,1.3c0.1,0.7-0.3,1.6-0.9,2.5c0.6-0.1,1.3-0.3,1.9-0.4
	c0.4-0.8,0.6-1.5,0.5-2.3c-0.1-1-0.7-1.8-1.6-2.4c-0.8-0.5-1.1-1.2-1-2.3c0.2-2.3,2.4-5.1,3.7-5.7c3-1.2,4.4-6.3,4.7-7.3
	c0.5-1.9,2.9-3.6,5-4.6c2.2-1,10.8-2.7,13.7-2.7c3.1,0,13-0.9,17-3c2-1,3.4-2.2,4.6-3.1c1.1-0.9,1.9-1.5,2.5-1.6
	c1.9-0.2,3.7-1.8,3.7-1.8c0.1-0.1,0.1-0.2,0.2-0.3c13.5,0.6,26.9,5.9,27,6h0.1l0,0c0,0,0,0,0.1,0s0.2-0.1,0.2-0.2
	c0.2-0.7-0.4-1.5-0.7-2c-0.1-0.1-0.2-0.3-0.3-0.4c-0.2-0.2-0.2-0.4-0.2-0.6s0.2-0.3,0.4-0.5c0.1-0.1,0.3-0.2,0.4-0.3
	c0.6-0.4,1.2-0.8,1.4-1.5c0.1-0.7-0.3-1.3-0.7-1.9c-0.1-0.1-0.2-0.3-0.3-0.4c-0.2-0.2-0.2-0.4-0.2-0.6s0.2-0.3,0.4-0.5
	c0.1-0.1,0.3-0.2,0.4-0.3c0.6-0.4,1.2-0.8,1.4-1.5s-0.3-1.3-0.7-1.9c-0.1-0.1-0.2-0.3-0.3-0.4c-0.2-0.2-0.2-0.4-0.2-0.6
	s0.2-0.3,0.4-0.5c0.1-0.1,0.3-0.2,0.4-0.3c0.6-0.4,1.2-0.8,1.4-1.5c0.1-0.7-0.3-1.3-0.7-1.9c-0.1-0.1-0.2-0.3-0.3-0.4
	c-0.2-0.2-0.2-0.4-0.2-0.6c0-0.2,0.2-0.3,0.4-0.5c0.1-0.1,0.3-0.2,0.4-0.3c0.6-0.4,1.2-0.8,1.4-1.5c0.1-0.7-0.3-1.3-0.7-1.9
	c-0.1-0.1-0.2-0.3-0.3-0.4c-0.2-0.2-0.2-0.4-0.2-0.6c0-0.2,0.2-0.3,0.4-0.5c0.1-0.1,0.3-0.2,0.4-0.3c0.4-0.2,0.8-0.5,1.1-0.9
	c0.1-0.1,0.2-0.3,0.2-0.5c0,0,0,0,0-0.1l0,0c0-0.1,0-0.1,0.1-0.2C295.5,56.2,295.4,56.1,295.3,56z M37,120.8
	c-8.7,0.4-17.2,2.4-21.5,3.7c0.4-0.5,0.6-1,0.6-1.4c0-0.5-0.2-1-0.7-1.4c-0.1-0.1-0.2-0.2-0.4-0.3c-0.3-0.2-0.6-0.5-0.6-0.7
	s0.3-0.5,0.7-0.9c0.1-0.1,0.2-0.3,0.4-0.4c0.4-0.5,0.7-1,0.7-1.5s-0.2-1-0.7-1.4c-0.1-0.1-0.2-0.2-0.4-0.3c-0.3-0.2-0.6-0.5-0.6-0.7
	s0.3-0.5,0.7-0.9v-0.1c0.1-0.1,0.2-0.3,0.3-0.4c0.4-0.5,0.7-1,0.7-1.5s-0.2-1-0.6-1.4c-0.1-0.1-0.2-0.2-0.4-0.3
	c-0.3-0.2-0.6-0.5-0.6-0.7s0.3-0.6,0.7-0.9c0.1-0.1,0.2-0.3,0.4-0.4c0.4-0.5,0.6-1,0.7-1.5c0-0.5-0.2-1-0.6-1.4
	c-0.1-0.1-0.2-0.2-0.4-0.3c-0.3-0.3-0.6-0.5-0.6-0.7s0.3-0.6,0.7-0.9c0.1-0.1,0.2-0.3,0.3-0.4c0.4-0.5,0.6-1,0.7-1.5
	c0-0.5-0.2-1-0.6-1.4c-0.1-0.1-0.2-0.2-0.3-0.3c-0.1-0.1-0.1-0.1-0.2-0.2c3.7-1,14.4-3.6,21.6-4.3V120.8z M293.3,56.9L293.3,56.9
	c-0.2,0.1-0.3,0.2-0.5,0.3c-0.5,0.4-0.9,0.8-1,1.3s0,1,0.4,1.6c0.1,0.1,0.2,0.3,0.3,0.5c0.3,0.4,0.5,0.7,0.5,0.9s-0.4,0.4-0.8,0.7
	c-0.1,0.1-0.3,0.2-0.4,0.3c-0.5,0.4-0.9,0.8-1,1.3c-0.1,0.5,0,1,0.4,1.6c0.1,0.1,0.2,0.3,0.3,0.5c0.3,0.4,0.5,0.7,0.5,0.9
	s-0.4,0.4-0.8,0.7c-0.1,0.1-0.3,0.2-0.4,0.3c-0.5,0.4-0.9,0.8-1,1.3s0,1,0.4,1.6c0.1,0.2,0.2,0.3,0.3,0.5c0.3,0.4,0.5,0.7,0.5,0.9
	c0,0.2-0.4,0.4-0.8,0.7c-0.1,0.1-0.3,0.2-0.4,0.3c-0.5,0.4-0.9,0.8-1,1.3s0,1,0.4,1.6c0.1,0.2,0.2,0.3,0.3,0.5
	c0.3,0.4,0.5,0.7,0.5,0.9c0,0.2-0.4,0.4-0.8,0.7c-0.1,0.1-0.3,0.2-0.4,0.3c-0.5,0.4-0.9,0.8-1,1.3s0,1,0.4,1.5
	c-4.1-1.5-14.4-4.9-25-5.3l5-24.6c8.3,1,21.7,4.9,25.5,6.1C293.5,56.8,293.4,56.9,293.3,56.9z"/>
<line class="st4" x1="46.2" y1="107.5" x2="79.1" y2="92.3"/>
<path class="st3" d="M288.1,114.3c-0.5-2.4,0.4-4.1,0.9-10.2c-3.8,4.5-9.5,7.2-13.9,8.8c-1.5,9.1-4.5,26-7.8,37.6l11.2-6.2
	c0,0,2-2.6,3.7-6.6C290,131.5,293.7,120.2,288.1,114.3z"/>
<path class="st5" d="M222.1,181.5c-3.4,18.1-14.4,37.8-30,48.3l6.5-2.2c13.2-11.3,22.5-29,25.6-45.5
	C224.5,180.7,222.3,180.1,222.1,181.5z"/>
<g>
	<g>
		<path class="st6" d="M165.6,147.2c0.5,6.5,1.1,13.1,1,19.7c0,1,1.6,1,1.6,0c0.1-6.6-0.5-13.1-1-19.7
			C167.1,146.2,165.5,146.2,165.6,147.2L165.6,147.2z"/>
	</g>
</g>
<path class="st0" d="M293.4,57L293.4,57c-0.2,0.1-0.3,0.2-0.5,0.3c-0.5,0.4-0.9,0.8-1,1.3s0,1,0.4,1.6c0.1,0.1,0.2,0.3,0.3,0.5
	c0.3,0.4,0.5,0.7,0.5,0.9s-0.4,0.4-0.9,0.7c-0.1,0.1-0.3,0.2-0.4,0.3c-0.5,0.4-0.9,0.8-1,1.3s0,1,0.4,1.6c0.1,0.1,0.2,0.3,0.3,0.5
	c0.3,0.4,0.5,0.7,0.5,0.9c0,0.2-0.4,0.4-0.8,0.7c-0.1,0.1-0.3,0.2-0.4,0.3c-0.5,0.4-0.9,0.8-1,1.3s0,1,0.4,1.6
	c0.1,0.2,0.2,0.3,0.3,0.5c0.3,0.4,0.5,0.7,0.5,0.9c0,0.2-0.4,0.4-0.9,0.7c-0.1,0.1-0.3,0.2-0.4,0.3c-0.5,0.4-0.9,0.8-1,1.3
	s0,1,0.4,1.6c0.1,0.2,0.2,0.3,0.3,0.5c0.3,0.4,0.5,0.7,0.5,0.9c0,0.2-0.4,0.4-0.8,0.7c-0.1,0.1-0.3,0.2-0.4,0.3
	c-0.5,0.4-0.9,0.8-1,1.3s0,1,0.4,1.5c-4.1-1.5-14.4-4.9-25.1-5.3l5-24.6c8.3,1,21.8,4.9,25.6,6.1C293.5,56.9,293.4,56.9,293.4,57z"
	/>
<path class="st1" d="M38.4,89.8"/>
<g>
	<g>
		<path class="st6" d="M191,146.2c17.9,0.1,35.9-1.6,52.4-9.1c3.8-1.7,7.5-3.7,11.1-5.8c0.9-0.5,0.1-1.9-0.8-1.4
			c-6.3,3.6-12.8,6.8-19.7,9.2c-7.9,2.7-16.2,4.1-24.6,4.9c-6.1,0.5-12.2,0.7-18.4,0.7C189.9,144.6,189.9,146.2,191,146.2L191,146.2
			z"/>
	</g>
</g>
<g>
	<g>
		<path class="st6" d="M200.6,158.7c7.6-0.2,15.3-1,22.8-2.5c6.4-1.3,12.9-3,18.7-6c0.9-0.5,0.1-1.9-0.8-1.4c-5.7,3-12,4.7-18.3,5.9
			c-7.4,1.5-14.9,2.2-22.4,2.4C199.6,157.1,199.6,158.7,200.6,158.7L200.6,158.7z"/>
	</g>
</g>
<g>
	<circle class="st7" cx="155.9" cy="77.4" r="5.3"/>
	<g>
		<g>
			<circle class="st8" cx="233.8" cy="19.4" r="12.2"/>
			<g class="st9">
				<path class="st0" d="M233.4,21.8h3.1c0.2,0,0.3,0.1,0.3,0.3v1c0,0.2-0.1,0.3-0.3,0.3h-5.7c-0.2,0-0.3-0.1-0.3-0.3v-0.1
					c0-0.2,0.1-0.3,0.1-0.3c1-1.2,2.7-3.4,3.6-4.7c0.4-0.5,0.7-1.1,0.7-1.6c0-0.6-0.5-1.3-1.5-1.3c-0.7,0-1.3,0.5-1.6,0.8
					c-0.1,0.1-0.3,0.1-0.4,0l-0.7-0.7c-0.1-0.1-0.1-0.3,0-0.4c0,0,1.1-1.4,2.8-1.4c2.1,0,3.2,1.3,3.2,2.9c0,0.9-0.4,1.5-1,2.3
					C235.2,19.5,234.1,20.8,233.4,21.8L233.4,21.8z"/>
			</g>
		</g>
		<g class="st9">
			<path class="st2" d="M249.5,14.9c-0.1-0.1,0-0.3,0.2-0.3h1.2c0.1,0,0.2,0.1,0.2,0.1l2.2,4.9h0.1l2.2-4.9c0-0.1,0.1-0.1,0.2-0.1
				h1.2c0.2,0,0.3,0.1,0.2,0.3l-3.6,7.7c0,0.1-0.1,0.1-0.2,0.1h-0.1c-0.1,0-0.2-0.1-0.2-0.1L249.5,14.9z"/>
			<path class="st2" d="M259.3,17.2c1.5,0,2.7,1.3,2.7,2.8s-1.2,2.8-2.7,2.8s-2.7-1.3-2.7-2.8C256.6,18.5,257.8,17.2,259.3,17.2z
				 M259.3,21.5c0.8,0,1.4-0.7,1.4-1.5s-0.6-1.5-1.4-1.5s-1.4,0.6-1.4,1.5C257.9,20.8,258.5,21.5,259.3,21.5z"/>
			<path class="st2" d="M263,15.5c0-0.5,0.4-0.9,0.9-0.9s0.9,0.4,0.9,0.9s-0.4,0.9-0.9,0.9S263,16,263,15.5z M263.2,17.6
				c0-0.1,0.1-0.3,0.3-0.3h0.9c0.1,0,0.3,0.1,0.3,0.3v4.8c0,0.1-0.1,0.3-0.3,0.3h-0.9c-0.1,0-0.3-0.1-0.3-0.3V17.6z"/>
			<path class="st2" d="M266.1,14.8c0-0.1,0.1-0.3,0.3-0.3h0.9c0.1,0,0.3,0.1,0.3,0.3v7.5c0,0.1-0.1,0.3-0.3,0.3h-0.9
				c-0.1,0-0.3-0.1-0.3-0.3V14.8z"/>
			<path class="st2" d="M271.4,17.2c1.4,0,2.4,1,2.4,2.5c0,0.1,0,0.3,0,0.3c0,0.1-0.1,0.2-0.3,0.2h-3.4c0,0.7,0.6,1.2,1.3,1.2
				c0.5,0,0.9-0.2,1.1-0.4c0.1-0.1,0.3-0.1,0.3,0l0.4,0.6c0.1,0.1,0.1,0.2,0,0.3c-0.5,0.4-1.1,0.7-2,0.7c-1.6,0-2.7-1.3-2.7-2.8
				C268.7,18.5,269.8,17.2,271.4,17.2z M272.4,19.3c0-0.5-0.4-0.9-1-0.9s-1.1,0.4-1.1,0.9H272.4z"/>
			<path class="st2" d="M277.4,15.5c0-0.5,0.4-0.9,0.9-0.9s0.9,0.4,0.9,0.9s-0.4,0.9-0.9,0.9S277.4,16,277.4,15.5z M277.7,17.6
				c0-0.1,0.1-0.3,0.3-0.3h0.9c0.1,0,0.3,0.1,0.3,0.3v4.8c0,0.1-0.1,0.3-0.3,0.3H278c-0.1,0-0.3-0.1-0.3-0.3V17.6z"/>
			<path class="st2" d="M280.6,17.6c0-0.1,0.1-0.3,0.3-0.3h0.4c0.1,0,0.2,0.1,0.2,0.2l0.2,0.5c0.2-0.2,0.7-0.8,1.7-0.8
				c1.7,0,2.1,1.1,2.1,2.4v2.8c0,0.1-0.1,0.3-0.3,0.3h-0.9c-0.1,0-0.3-0.1-0.3-0.3v-2.8c0-0.7-0.3-1.1-0.9-1.1c-0.7,0-1,0.5-1.2,0.8
				v3c0,0.2-0.1,0.3-0.3,0.3h-0.9c-0.1,0-0.3-0.1-0.3-0.3v-4.7H280.6z"/>
			<path class="st2" d="M287.2,18.6h-0.5c-0.1,0-0.2-0.1-0.2-0.3v-0.8c0-0.1,0.1-0.3,0.2-0.3h0.5v-1.5c0-0.1,0.1-0.3,0.3-0.3h0.9
				c0.1,0,0.2,0.1,0.2,0.3v1.5h1.2c0.1,0,0.3,0.1,0.3,0.3v0.8c0,0.1-0.1,0.3-0.3,0.3h-1.2V21c0,0.4,0.2,0.4,0.4,0.4
				c0.2,0,0.7-0.1,0.8-0.2c0.1-0.1,0.3,0,0.3,0.1l0.1,0.7c0,0.1,0,0.2-0.1,0.3c-0.2,0.1-0.9,0.3-1.5,0.3c-1.2,0-1.5-0.8-1.5-1.7
				v-2.3H287.2z"/>
			<path class="st2" d="M293.7,17.2c1.4,0,2.4,1,2.4,2.5c0,0.1,0,0.3,0,0.3c0,0.1-0.1,0.2-0.3,0.2h-3.4c0,0.7,0.6,1.2,1.3,1.2
				c0.5,0,0.9-0.2,1.1-0.4c0.1-0.1,0.3-0.1,0.3,0l0.4,0.6c0.1,0.1,0.1,0.2,0,0.3c-0.5,0.4-1.1,0.7-2,0.7c-1.6,0-2.7-1.3-2.7-2.8
				C291,18.5,292.1,17.2,293.7,17.2z M292.7,16.5l-0.2-0.4c0-0.1,0-0.2,0.1-0.2l1.9-1.1c0.1-0.1,0.2-0.1,0.3,0l0.3,0.6
				c0.1,0.1,0,0.3-0.1,0.3l-2,0.9C292.9,16.6,292.8,16.6,292.7,16.5z M294.7,19.3c0-0.5-0.4-0.9-1-0.9s-1.1,0.4-1.1,0.9H294.7z"/>
			<path class="st2" d="M297.2,17.6c0-0.1,0.1-0.3,0.3-0.3h0.4c0.1,0,0.2,0.1,0.2,0.2l0.2,0.5c0.2-0.3,0.7-0.8,1.5-0.8
				c0.6,0,1.2,0.2,1,0.5l-0.3,0.8c-0.1,0.1-0.2,0.2-0.3,0.1c-0.1-0.1-0.3-0.1-0.5-0.1c-0.6,0-0.9,0.4-1,0.6v3.3
				c0,0.2-0.1,0.3-0.3,0.3h-0.9c-0.1,0-0.3-0.1-0.3-0.3L297.2,17.6L297.2,17.6z"/>
			<path class="st2" d="M301.5,15.5c0-0.5,0.4-0.9,0.9-0.9s0.9,0.4,0.9,0.9s-0.4,0.9-0.9,0.9S301.5,16,301.5,15.5z M301.7,17.6
				c0-0.1,0.1-0.3,0.3-0.3h0.9c0.1,0,0.3,0.1,0.3,0.3v4.8c0,0.1-0.1,0.3-0.3,0.3H302c-0.1,0-0.3-0.1-0.3-0.3V17.6z"/>
			<path class="st2" d="M307,17.2c1.4,0,2.4,1,2.4,2.5c0,0.1,0,0.3,0,0.3c0,0.1-0.1,0.2-0.3,0.2h-3.4c0,0.7,0.6,1.2,1.3,1.2
				c0.5,0,0.9-0.2,1.1-0.4c0.1-0.1,0.3-0.1,0.3,0l0.4,0.6c0.1,0.1,0.1,0.2,0,0.3c-0.5,0.4-1.1,0.7-2,0.7c-1.6,0-2.7-1.3-2.7-2.8
				C304.3,18.5,305.4,17.2,307,17.2z M307.9,19.3c0-0.5-0.4-0.9-1-0.9s-1.1,0.4-1.1,0.9H307.9z"/>
			<path class="st2" d="M310.4,17.6c0-0.1,0.1-0.3,0.3-0.3h0.9c0.1,0,0.3,0.1,0.3,0.3v2.8c0,0.7,0.2,1.1,0.9,1.1
				c0.6,0,0.9-0.5,0.9-1v-2.9c0-0.2,0.1-0.3,0.3-0.3h0.9c0.1,0,0.3,0.1,0.3,0.3v4.8c0,0.1-0.1,0.3-0.3,0.3h-0.4
				c-0.1,0-0.2-0.1-0.3-0.2l-0.1-0.4c-0.3,0.3-0.8,0.8-1.6,0.8c-1.6,0-2-1-2-2.4L310.4,17.6L310.4,17.6z"/>
			<path class="st2" d="M316.6,17.6c0-0.1,0.1-0.3,0.3-0.3h0.4c0.1,0,0.2,0.1,0.2,0.2l0.2,0.5c0.2-0.3,0.7-0.8,1.5-0.8
				c0.6,0,1.2,0.2,1,0.5l-0.3,0.8c-0.1,0.1-0.2,0.2-0.3,0.1c-0.1-0.1-0.3-0.1-0.5-0.1c-0.6,0-0.9,0.4-1,0.6v3.3
				c0,0.2-0.1,0.3-0.3,0.3h-0.9c-0.1,0-0.3-0.1-0.3-0.3L316.6,17.6L316.6,17.6z"/>
		</g>
	</g>
	<line class="st7" x1="223.7" y1="25.4" x2="159.9" y2="73.9"/>
</g>
<g>
	<circle class="st10" cx="40.1" cy="102.4" r="5.3"/>
	<g>
		<g>
			<circle class="st8" cx="47" cy="28.6" r="12.2"/>
			<g class="st9">
				<path class="st0" d="M44,31.4l0.7-0.7c0.1-0.1,0.2-0.1,0.4,0c0.4,0.3,1,0.8,1.9,0.8c1,0,1.7-0.8,1.7-1.7c0-0.9-0.6-1.6-1.7-1.6
					h-2.2c-0.3,0-0.4-0.3-0.4-0.5v-4.3c0-0.1,0.1-0.3,0.3-0.3H49c0.2,0,0.3,0.1,0.3,0.3v1c0,0.2-0.1,0.3-0.3,0.3h-3.2v1.9h1.2
					c2,0,3.3,1.3,3.3,3.2c0,1.8-1.5,3.3-3.5,3.3c-1.6,0-2.5-0.8-2.8-1.2C43.9,31.7,43.9,31.6,44,31.4z"/>
			</g>
		</g>
		<g class="st9">
			<path class="st2" d="M62.7,25.3l3.6-7.7c0-0.1,0.1-0.1,0.2-0.1h0.1c0.1,0,0.2,0.1,0.2,0.1l3.5,7.7c0.1,0.1,0,0.3-0.2,0.3h-1
				c-0.2,0-0.3-0.1-0.3-0.2l-0.6-1.2h-3.4l-0.6,1.2c0,0.1-0.1,0.2-0.3,0.2h-1C62.7,25.6,62.6,25.5,62.7,25.3z M67.6,22.9l-1.2-2.5
				l0,0l-1.1,2.5H67.6z"/>
			<path class="st2" d="M71.1,21.6h-0.5c-0.1,0-0.2-0.1-0.2-0.3v-0.8c0-0.1,0.1-0.3,0.2-0.3h0.5v-1.5c0-0.1,0.1-0.3,0.3-0.3h0.9
				c0.1,0,0.2,0.1,0.2,0.3v1.5h1.2c0.1,0,0.3,0.1,0.3,0.3v0.8c0,0.1-0.1,0.3-0.3,0.3h-1.2V24c0,0.4,0.2,0.4,0.4,0.4
				c0.2,0,0.7-0.1,0.8-0.2c0.1-0.1,0.3,0,0.3,0.1l0.1,0.7c0,0.1,0,0.2-0.1,0.3c-0.2,0.1-0.9,0.3-1.5,0.3c-1.2,0-1.5-0.8-1.5-1.7
				L71.1,21.6L71.1,21.6z"/>
			<path class="st2" d="M75.6,21.6h-0.5c-0.1,0-0.2-0.1-0.2-0.3v-0.8c0-0.1,0.1-0.3,0.2-0.3h0.5v-1.5c0-0.1,0.1-0.3,0.3-0.3h0.9
				c0.1,0,0.2,0.1,0.2,0.3v1.5h1.2c0.1,0,0.3,0.1,0.3,0.3v0.8c0,0.1-0.1,0.3-0.3,0.3H77V24c0,0.4,0.2,0.4,0.4,0.4
				c0.2,0,0.7-0.1,0.8-0.2c0.1-0.1,0.3,0,0.3,0.1l0.1,0.7c0,0.1,0,0.2-0.1,0.3c-0.2,0.1-0.9,0.3-1.5,0.3c-1.2,0-1.5-0.8-1.5-1.7
				L75.6,21.6L75.6,21.6z"/>
			<path class="st2" d="M81.5,22.3c0.5,0,1,0.1,1,0.1c0-0.7-0.2-1-0.7-1s-1.2,0.1-1.5,0.2c-0.2,0.1-0.3-0.1-0.3-0.2l-0.1-0.6
				c0-0.2,0.1-0.3,0.2-0.3s1-0.3,1.8-0.3c1.7,0,2,0.9,2,2.3v2.9c0,0.1-0.1,0.3-0.3,0.3h-0.4c-0.1,0-0.2,0-0.2-0.2l-0.1-0.4
				c-0.3,0.3-0.8,0.7-1.7,0.7c-1.1,0-1.8-0.7-1.8-1.8C79.4,23,80.2,22.3,81.5,22.3z M81.5,24.7c0.5,0,0.9-0.4,1-0.6v-0.8
				c0,0-0.4-0.2-0.8-0.2c-0.6,0-0.9,0.3-0.9,0.8C80.8,24.4,81,24.7,81.5,24.7z"/>
			<path class="st2" d="M87.8,20.2c0.8,0,1.5,0.4,2,0.9c0.1,0.1,0.1,0.3-0.1,0.4L89.2,22c-0.1,0.1-0.2,0.1-0.3,0
				c-0.3-0.2-0.6-0.5-1.1-0.5c-0.8,0-1.4,0.6-1.4,1.5c0,0.8,0.6,1.5,1.4,1.5c0.6,0,0.9-0.3,1.1-0.6c0.1-0.1,0.2-0.1,0.3,0l0.5,0.4
				c0.1,0.1,0.2,0.2,0.1,0.4c-0.4,0.7-1.2,1.1-2.1,1.1c-1.6,0-2.8-1.2-2.8-2.8C85,21.4,86.2,20.2,87.8,20.2z"/>
			<path class="st2" d="M91,17.8c0-0.1,0.1-0.3,0.3-0.3h0.9c0.1,0,0.3,0.1,0.3,0.3v2.8c0.3-0.2,0.7-0.4,1.4-0.4
				c1.7,0,2.2,1.2,2.2,2.5v2.7c0,0.1-0.1,0.3-0.3,0.3h-0.9c-0.1,0-0.3-0.1-0.3-0.3v-2.7c0-0.7-0.3-1.2-1-1.2c-0.6,0-1,0.4-1.1,0.9
				v2.9c0,0.1-0.1,0.3-0.3,0.3h-0.9c-0.1,0-0.3-0.1-0.3-0.3C91,25.3,91,17.8,91,17.8z"/>
			<path class="st2" d="M99.7,20.2c1.4,0,2.4,1,2.4,2.5c0,0.1,0,0.3,0,0.3c0,0.1-0.1,0.2-0.3,0.2h-3.4c0,0.7,0.6,1.2,1.3,1.2
				c0.5,0,0.9-0.2,1.1-0.4c0.1-0.1,0.3-0.1,0.3,0l0.4,0.6c0.1,0.1,0.1,0.2,0,0.3c-0.5,0.4-1.1,0.7-2,0.7c-1.6,0-2.7-1.3-2.7-2.8
				C97,21.5,98.1,20.2,99.7,20.2z M100.7,22.3c0-0.5-0.4-0.9-1-0.9s-1.1,0.4-1.1,0.9H100.7z"/>
			<path class="st2" d="M103,25.3c-0.1,0-0.1-0.2-0.1-0.3l0.3-0.7c0.1-0.1,0.2-0.2,0.3-0.1c0.2,0.1,0.6,0.3,1.2,0.3
				c0.4,0,0.6-0.2,0.6-0.4c0-0.2-0.3-0.5-1-0.7c-1-0.4-1.5-0.9-1.5-1.7c0-0.8,0.6-1.6,1.9-1.6c0.8,0,1.3,0.2,1.6,0.4
				c0.1,0.1,0.2,0.2,0.1,0.4l-0.3,0.6c-0.1,0.1-0.2,0.1-0.3,0.1c-0.3-0.1-0.6-0.3-1.1-0.3c-0.4,0-0.5,0.2-0.5,0.3
				c0,0.2,0.3,0.4,0.8,0.6c1,0.4,1.8,0.8,1.8,1.8c0,0.8-0.7,1.6-2,1.6C103.9,25.7,103.3,25.5,103,25.3z"/>
			<path class="st2" d="M112.4,22.3c0.5,0,1,0.1,1,0.1c0-0.7-0.2-1-0.7-1s-1.2,0.1-1.5,0.2c-0.2,0.1-0.3-0.1-0.3-0.2l-0.1-0.6
				c0-0.2,0.1-0.3,0.2-0.3s1-0.3,1.8-0.3c1.7,0,2,0.9,2,2.3v2.9c0,0.1-0.1,0.3-0.3,0.3h-0.4c-0.1,0-0.2,0-0.2-0.2l-0.1-0.4
				c-0.3,0.3-0.8,0.7-1.7,0.7c-1.1,0-1.8-0.7-1.8-1.8C110.3,23,111.1,22.3,112.4,22.3z M112.5,24.7c0.5,0,0.9-0.4,1-0.6v-0.8
				c0,0-0.4-0.2-0.8-0.2c-0.6,0-0.9,0.3-0.9,0.8C111.7,24.4,112,24.7,112.5,24.7z"/>
			<path class="st2" d="M117.7,25.8c0,1.6-0.7,2.2-1.6,2.6c-0.2,0.1-0.4,0.1-0.5-0.1l-0.3-0.6c-0.1-0.2-0.1-0.4,0.1-0.5
				c0.4-0.2,0.8-0.5,0.8-1.2v-5.5c0-0.1,0.1-0.3,0.3-0.3h0.9c0.1,0,0.3,0.1,0.3,0.3C117.7,20.5,117.7,25.8,117.7,25.8z M116,18.5
				c0-0.5,0.4-0.9,0.9-0.9s0.9,0.4,0.9,0.9s-0.4,0.9-0.9,0.9S116,19,116,18.5z"/>
			<path class="st2" d="M119.1,20.5c0-0.1,0.1-0.3,0.3-0.3h0.9c0.1,0,0.3,0.1,0.3,0.3v2.8c0,0.7,0.2,1.1,0.9,1.1
				c0.6,0,0.9-0.5,0.9-1v-2.9c0-0.2,0.1-0.3,0.3-0.3h0.9c0.1,0,0.3,0.1,0.3,0.3v4.8c0,0.1-0.1,0.3-0.3,0.3h-0.4
				c-0.1,0-0.2-0.1-0.3-0.2l-0.1-0.4c-0.3,0.3-0.8,0.8-1.6,0.8c-1.6,0-2-1-2-2.4v-2.9H119.1z"/>
			<path class="st2" d="M125.1,25.3c-0.1,0-0.1-0.2-0.1-0.3l0.3-0.7c0.1-0.1,0.2-0.2,0.3-0.1c0.2,0.1,0.6,0.3,1.2,0.3
				c0.4,0,0.6-0.2,0.6-0.4c0-0.2-0.3-0.5-1-0.7c-1-0.4-1.5-0.9-1.5-1.7c0-0.8,0.6-1.6,1.9-1.6c0.8,0,1.3,0.2,1.6,0.4
				c0.1,0.1,0.2,0.2,0.1,0.4l-0.3,0.6c-0.1,0.1-0.2,0.1-0.3,0.1c-0.3-0.1-0.6-0.3-1.1-0.3c-0.4,0-0.5,0.2-0.5,0.3
				c0,0.2,0.3,0.4,0.8,0.6c1,0.4,1.8,0.8,1.8,1.8c0,0.8-0.7,1.6-2,1.6C126,25.7,125.4,25.5,125.1,25.3z"/>
			<path class="st2" d="M130.4,21.6h-0.5c-0.1,0-0.2-0.1-0.2-0.3v-0.8c0-0.1,0.1-0.3,0.2-0.3h0.5v-1.5c0-0.1,0.1-0.3,0.3-0.3h0.9
				c0.1,0,0.2,0.1,0.2,0.3v1.5h1.2c0.1,0,0.3,0.1,0.3,0.3v0.8c0,0.1-0.1,0.3-0.3,0.3h-1.2V24c0,0.4,0.2,0.4,0.4,0.4s0.7-0.1,0.8-0.2
				s0.3,0,0.3,0.1l0.1,0.7c0,0.1,0,0.2-0.1,0.3c-0.2,0.1-0.9,0.3-1.5,0.3c-1.2,0-1.5-0.8-1.5-1.7v-2.3H130.4z"/>
			<path class="st2" d="M136.3,22.3c0.5,0,1,0.1,1,0.1c0-0.7-0.2-1-0.7-1s-1.2,0.1-1.5,0.2c-0.2,0.1-0.3-0.1-0.3-0.2l-0.1-0.6
				c0-0.2,0.1-0.3,0.2-0.3c0.1,0,1-0.3,1.8-0.3c1.7,0,2,0.9,2,2.3v2.9c0,0.1-0.1,0.3-0.3,0.3H138c-0.1,0-0.2,0-0.2-0.2l-0.1-0.4
				c-0.3,0.3-0.8,0.7-1.7,0.7c-1.1,0-1.8-0.7-1.8-1.8C134.1,23,134.9,22.3,136.3,22.3z M136.3,24.7c0.5,0,0.9-0.4,1-0.6v-0.8
				c0,0-0.4-0.2-0.8-0.2c-0.6,0-0.9,0.3-0.9,0.8C135.5,24.4,135.8,24.7,136.3,24.7z"/>
			<path class="st2" d="M140,17.8c0-0.1,0.1-0.3,0.3-0.3h0.9c0.1,0,0.3,0.1,0.3,0.3v2.6c0.2-0.1,0.8-0.2,1.3-0.2
				c1.6,0,2.6,1.2,2.6,2.8c0,1.5-1,2.8-2.5,2.8c-1.2,0-1.8-0.8-1.8-0.8l-0.1,0.4c-0.1,0.1-0.1,0.3-0.3,0.3h-0.4
				c-0.1,0-0.3-0.1-0.3-0.3V17.8z M142.7,24.4c0.8,0,1.3-0.7,1.3-1.5c0-0.7-0.4-1.5-1.3-1.5c-0.7,0-1.1,0.3-1.1,0.3v1.9
				C141.6,24,142,24.4,142.7,24.4z"/>
			<path class="st2" d="M146.5,17.8c0-0.1,0.1-0.3,0.3-0.3h0.9c0.1,0,0.3,0.1,0.3,0.3v7.5c0,0.1-0.1,0.3-0.3,0.3h-0.9
				c-0.1,0-0.3-0.1-0.3-0.3V17.8z"/>
			<path class="st2" d="M151.8,20.2c1.4,0,2.4,1,2.4,2.5c0,0.1,0,0.3,0,0.3c0,0.1-0.1,0.2-0.3,0.2h-3.4c0,0.7,0.6,1.2,1.3,1.2
				c0.5,0,0.9-0.2,1.1-0.4c0.1-0.1,0.3-0.1,0.3,0l0.4,0.6c0.1,0.1,0.1,0.2,0,0.3c-0.5,0.4-1.1,0.7-2,0.7c-1.6,0-2.7-1.3-2.7-2.8
				C149.1,21.5,150.2,20.2,151.8,20.2z M152.8,22.3c0-0.5-0.4-0.9-1-0.9s-1.1,0.4-1.1,0.9H152.8z"/>
			<path class="st2" d="M155.2,25.3c-0.1,0-0.1-0.2-0.1-0.3l0.3-0.7c0.1-0.1,0.2-0.2,0.3-0.1c0.2,0.1,0.6,0.3,1.2,0.3
				c0.4,0,0.6-0.2,0.6-0.4c0-0.2-0.3-0.5-1-0.7c-1-0.4-1.5-0.9-1.5-1.7c0-0.8,0.6-1.6,1.9-1.6c0.8,0,1.3,0.2,1.6,0.4
				c0.1,0.1,0.2,0.2,0.1,0.4l-0.3,0.6c-0.1,0.1-0.2,0.1-0.3,0.1c-0.3-0.1-0.6-0.3-1.1-0.3c-0.4,0-0.5,0.2-0.5,0.3
				c0,0.2,0.3,0.4,0.8,0.6c1,0.4,1.8,0.8,1.8,1.8c0,0.8-0.7,1.6-2,1.6C156,25.7,155.5,25.5,155.2,25.3z"/>
		</g>
		<g class="st9">
			<path class="st2" d="M65.7,32.2c1.4,0,2.4,1,2.4,2.5c0,0.1,0,0.3,0,0.3c0,0.1-0.1,0.2-0.3,0.2h-3.4c0,0.7,0.6,1.2,1.3,1.2
				c0.5,0,0.9-0.2,1.1-0.4c0.1-0.1,0.3-0.1,0.3,0l0.4,0.6c0.1,0.1,0.1,0.2,0,0.3c-0.5,0.4-1.1,0.7-2,0.7c-1.6,0-2.7-1.3-2.7-2.8
				C63.1,33.5,64.2,32.2,65.7,32.2z M66.7,34.3c0-0.5-0.4-0.9-1-0.9s-1.1,0.4-1.1,0.9H66.7z"/>
			<path class="st2" d="M69.6,33.6h-0.5c-0.1,0-0.2-0.1-0.2-0.3v-0.8c0-0.1,0.1-0.3,0.2-0.3h0.5v-1.5c0-0.1,0.1-0.3,0.3-0.3h0.9
				c0.1,0,0.2,0.1,0.2,0.3v1.5h1.2c0.1,0,0.3,0.1,0.3,0.3v0.8c0,0.1-0.1,0.3-0.3,0.3H71V36c0,0.4,0.2,0.4,0.4,0.4
				c0.2,0,0.7-0.1,0.8-0.2c0.1-0.1,0.3,0,0.3,0.1l0.1,0.7c0,0.1,0,0.2-0.1,0.3c-0.2,0.1-0.9,0.3-1.5,0.3c-1.2,0-1.5-0.8-1.5-1.7
				L69.6,33.6L69.6,33.6z"/>
			<path class="st2" d="M78.9,32.2c1.4,0,2.4,1,2.4,2.5c0,0.1,0,0.3,0,0.3c0,0.1-0.1,0.2-0.3,0.2h-3.4c0,0.7,0.6,1.2,1.3,1.2
				c0.5,0,0.9-0.2,1.1-0.4c0.1-0.1,0.3-0.1,0.3,0l0.4,0.6c0.1,0.1,0.1,0.2,0,0.3c-0.5,0.4-1.1,0.7-2,0.7c-1.6,0-2.7-1.3-2.7-2.8
				C76.2,33.5,77.3,32.2,78.9,32.2z M77.9,31.5l-0.2-0.4c0-0.1,0-0.2,0.1-0.2l1.9-1.1c0.1-0.1,0.2-0.1,0.3,0l0.3,0.6
				c0.1,0.1,0,0.3-0.1,0.3l-2,0.9C78,31.6,77.9,31.6,77.9,31.5z M79.8,34.3c0-0.5-0.4-0.9-1-0.9s-1.1,0.4-1.1,0.9H79.8z"/>
			<path class="st2" d="M82.4,29.8c0-0.1,0.1-0.3,0.3-0.3h0.9c0.1,0,0.3,0.1,0.3,0.3v7.5c0,0.1-0.1,0.3-0.3,0.3h-0.9
				c-0.1,0-0.3-0.1-0.3-0.3V29.8z"/>
			<path class="st2" d="M87.1,34.3c0.5,0,1,0.1,1,0.1c0-0.7-0.2-1-0.7-1s-1.2,0.1-1.5,0.2c-0.2,0.1-0.3-0.1-0.3-0.2l-0.1-0.6
				c0-0.2,0.1-0.3,0.2-0.3s1-0.3,1.8-0.3c1.7,0,2,0.9,2,2.3v2.9c0,0.1-0.1,0.3-0.3,0.3h-0.4c-0.1,0-0.2,0-0.2-0.2l-0.1-0.4
				c-0.3,0.3-0.8,0.7-1.7,0.7c-1.1,0-1.8-0.7-1.8-1.8C84.9,35,85.7,34.3,87.1,34.3z M87.1,36.7c0.5,0,0.9-0.4,1-0.6v-0.8
				c0,0-0.4-0.2-0.8-0.2c-0.6,0-0.9,0.3-0.9,0.8C86.3,36.4,86.6,36.7,87.1,36.7z"/>
			<path class="st2" d="M90.7,37.3c-0.1,0-0.1-0.2-0.1-0.3l0.3-0.7c0.1-0.1,0.2-0.2,0.3-0.1c0.2,0.1,0.6,0.3,1.2,0.3
				c0.4,0,0.6-0.2,0.6-0.4s-0.3-0.5-1-0.7c-1-0.4-1.5-0.9-1.5-1.7s0.6-1.6,1.9-1.6c0.8,0,1.3,0.2,1.6,0.4c0.1,0.1,0.2,0.2,0.1,0.4
				l-0.3,0.6c-0.1,0.1-0.2,0.1-0.3,0.1c-0.3-0.1-0.6-0.3-1.1-0.3c-0.4,0-0.5,0.2-0.5,0.3c0,0.2,0.3,0.4,0.8,0.6
				c1,0.4,1.8,0.8,1.8,1.8c0,0.8-0.7,1.6-2,1.6C91.5,37.7,91,37.5,90.7,37.3z"/>
			<path class="st2" d="M96,33.6h-0.5c-0.1,0-0.2-0.1-0.2-0.3v-0.8c0-0.1,0.1-0.3,0.2-0.3H96v-1.5c0-0.1,0.1-0.3,0.3-0.3h0.9
				c0.1,0,0.2,0.1,0.2,0.3v1.5h1.2c0.1,0,0.3,0.1,0.3,0.3v0.8c0,0.1-0.1,0.3-0.3,0.3h-1.2V36c0,0.4,0.2,0.4,0.4,0.4
				c0.2,0,0.7-0.1,0.8-0.2c0.1-0.1,0.3,0,0.3,0.1L99,37c0,0.1,0,0.2-0.1,0.3c-0.2,0.1-0.9,0.3-1.5,0.3c-1.2,0-1.5-0.8-1.5-1.7
				L96,33.6L96,33.6z"/>
			<path class="st2" d="M99.9,30.5c0-0.5,0.4-0.9,0.9-0.9s0.9,0.4,0.9,0.9s-0.4,0.9-0.9,0.9S99.9,31,99.9,30.5z M100.1,32.5
				c0-0.1,0.1-0.3,0.3-0.3h0.9c0.1,0,0.3,0.1,0.3,0.3v4.8c0,0.1-0.1,0.3-0.3,0.3h-0.9c-0.1,0-0.3-0.1-0.3-0.3V32.5z"/>
			<path class="st2" d="M105.2,32.2c1.1,0,1.7,0.8,1.7,0.8l0.1-0.4c0-0.1,0.1-0.3,0.3-0.3h0.4c0.1,0,0.3,0.1,0.3,0.3v7.5
				c0,0.1-0.1,0.3-0.3,0.3h-0.9c-0.1,0-0.3-0.1-0.3-0.3v-2.6c-0.2,0.1-0.7,0.2-1.3,0.2c-1.6,0-2.6-1.2-2.6-2.8
				C102.7,33.4,103.8,32.2,105.2,32.2z M106.6,34.2c-0.1-0.3-0.5-0.7-1.2-0.7c-0.8,0-1.3,0.7-1.3,1.5c0,0.7,0.4,1.5,1.3,1.5
				c0.7,0,1.1-0.3,1.1-0.3L106.6,34.2L106.6,34.2z"/>
			<path class="st2" d="M109.4,32.5c0-0.1,0.1-0.3,0.3-0.3h0.9c0.1,0,0.3,0.1,0.3,0.3v2.8c0,0.7,0.2,1.1,0.9,1.1
				c0.6,0,0.9-0.5,0.9-1v-2.9c0-0.2,0.1-0.3,0.3-0.3h0.9c0.1,0,0.3,0.1,0.3,0.3v4.8c0,0.1-0.1,0.3-0.3,0.3h-0.4
				c-0.1,0-0.2-0.1-0.3-0.2l-0.1-0.4c-0.3,0.3-0.8,0.8-1.6,0.8c-1.6,0-2-1-2-2.4v-2.9H109.4z"/>
			<path class="st2" d="M118,32.2c1.4,0,2.4,1,2.4,2.5c0,0.1,0,0.3,0,0.3c0,0.1-0.1,0.2-0.3,0.2h-3.4c0,0.7,0.6,1.2,1.3,1.2
				c0.5,0,0.9-0.2,1.1-0.4c0.1-0.1,0.3-0.1,0.3,0l0.4,0.6c0.1,0.1,0.1,0.2,0,0.3c-0.5,0.4-1.1,0.7-2,0.7c-1.6,0-2.7-1.3-2.7-2.8
				C115.3,33.5,116.4,32.2,118,32.2z M119,34.3c0-0.5-0.4-0.9-1-0.9s-1.1,0.4-1.1,0.9H119z"/>
			<path class="st2" d="M121.3,37.3c-0.1,0-0.1-0.2-0.1-0.3l0.3-0.7c0.1-0.1,0.2-0.2,0.3-0.1c0.2,0.1,0.6,0.3,1.2,0.3
				c0.4,0,0.6-0.2,0.6-0.4s-0.3-0.5-1-0.7c-1-0.4-1.5-0.9-1.5-1.7s0.6-1.6,1.9-1.6c0.8,0,1.3,0.2,1.6,0.4c0.1,0.1,0.2,0.2,0.1,0.4
				l-0.3,0.6c-0.1,0.1-0.2,0.1-0.3,0.1c-0.3-0.1-0.6-0.3-1.1-0.3c-0.4,0-0.5,0.2-0.5,0.3c0,0.2,0.3,0.4,0.8,0.6
				c1,0.4,1.8,0.8,1.8,1.8c0,0.8-0.7,1.6-2,1.6C122.2,37.7,121.6,37.5,121.3,37.3z"/>
		</g>
	</g>
	<line class="st7" x1="45.4" y1="40.7" x2="40.1" y2="97.1"/>
</g>
<g>
	<circle class="st10" cx="112.7" cy="160.2" r="5.3"/>
	<g>
		<g>
			<circle class="st8" cx="20.7" cy="156.3" r="12.2"/>
			<g class="st9">
				<path class="st0" d="M16.6,158.3v-0.9c0-0.2,0.1-0.4,0.2-0.5l5-6c0.1-0.1,0.2-0.2,0.4-0.2h0.7c0.2,0,0.3,0.1,0.3,0.3v6.1h1.1
					c0.2,0,0.3,0.1,0.3,0.3v1c0,0.1-0.1,0.3-0.3,0.3h-1.1l0,1.8c0,0.2-0.1,0.3-0.3,0.3h-1.2c-0.1,0-0.3-0.1-0.3-0.3v-1.8h-4.5
					C16.7,158.5,16.6,158.4,16.6,158.3z M18.5,157.1h2.9v-3.5h0L18.5,157.1L18.5,157.1z"/>
			</g>
		</g>
		<g class="st9">
			<path class="st2" d="M9.5,175.3c0-0.1,0.1-0.2,0.2-0.2h2.7c2.2,0,4,1.8,4,4s-1.8,4-4,4H9.7c-0.1,0-0.2-0.1-0.2-0.2V175.3z
				 M12.3,181.7c1.5,0,2.6-1.1,2.6-2.6c0-1.6-1.1-2.6-2.6-2.6H11v5.3L12.3,181.7L12.3,181.7z"/>
			<path class="st2" d="M20,177.7c1.5,0,2.7,1.3,2.7,2.8s-1.2,2.8-2.7,2.8s-2.7-1.3-2.7-2.8C17.3,178.9,18.5,177.7,20,177.7z
				 M20,181.9c0.8,0,1.4-0.7,1.4-1.5s-0.6-1.5-1.4-1.5s-1.4,0.6-1.4,1.5C18.7,181.2,19.3,181.9,20,181.9z"/>
			<path class="st2" d="M23.8,178c0-0.1,0.1-0.3,0.3-0.3H25c0.1,0,0.3,0.1,0.3,0.3v2.8c0,0.7,0.2,1.1,0.9,1.1c0.6,0,0.9-0.5,0.9-1
				V178c0-0.2,0.1-0.3,0.3-0.3h0.9c0.1,0,0.3,0.1,0.3,0.3v4.8c0,0.1-0.1,0.3-0.3,0.3h-0.4c-0.1,0-0.2-0.1-0.3-0.2l-0.1-0.4
				c-0.3,0.3-0.8,0.8-1.6,0.8c-1.6,0-2-1-2-2.4L23.8,178L23.8,178z"/>
			<path class="st2" d="M30,175.3c0-0.1,0.1-0.3,0.3-0.3h0.9c0.1,0,0.3,0.1,0.3,0.3v2.6c0.2-0.1,0.8-0.2,1.3-0.2
				c1.6,0,2.6,1.2,2.6,2.8c0,1.5-1,2.8-2.5,2.8c-1.2,0-1.8-0.8-1.8-0.8l-0.1,0.4c-0.1,0.1-0.1,0.3-0.3,0.3h-0.4
				c-0.1,0-0.3-0.1-0.3-0.3V175.3z M32.6,181.9c0.8,0,1.3-0.7,1.3-1.5c0-0.7-0.4-1.5-1.3-1.5c-0.7,0-1.1,0.3-1.1,0.3v1.9
				C31.6,181.5,32,181.9,32.6,181.9z"/>
			<path class="st2" d="M36.5,175.3c0-0.1,0.1-0.3,0.3-0.3h0.9c0.1,0,0.3,0.1,0.3,0.3v7.5c0,0.1-0.1,0.3-0.3,0.3h-0.9
				c-0.1,0-0.3-0.1-0.3-0.3V175.3z"/>
			<path class="st2" d="M41.8,177.7c1.4,0,2.4,1,2.4,2.5c0,0.1,0,0.3,0,0.3c0,0.1-0.1,0.2-0.3,0.2h-3.4c0,0.7,0.6,1.2,1.3,1.2
				c0.5,0,0.9-0.2,1.1-0.4c0.1-0.1,0.3-0.1,0.3,0l0.4,0.6c0.1,0.1,0.1,0.2,0,0.3c-0.5,0.4-1.1,0.7-2,0.7c-1.6,0-2.7-1.3-2.7-2.8
				C39.1,178.9,40.2,177.7,41.8,177.7z M42.8,179.8c0-0.5-0.4-0.9-1-0.9s-1.1,0.4-1.1,0.9H42.8z"/>
			<path class="st2" d="M48.1,175.3c0-0.1,0.1-0.3,0.3-0.3h0.9c0.1,0,0.3,0.1,0.3,0.3v2.6c0.2-0.1,0.8-0.2,1.3-0.2
				c1.6,0,2.6,1.2,2.6,2.8c0,1.5-1,2.8-2.5,2.8c-1.2,0-1.8-0.8-1.8-0.8l-0.1,0.4c-0.1,0.1-0.1,0.3-0.3,0.3h-0.4
				c-0.1,0-0.3-0.1-0.3-0.3V175.3z M50.7,181.9c0.8,0,1.3-0.7,1.3-1.5c0-0.7-0.4-1.5-1.3-1.5c-0.7,0-1.1,0.3-1.1,0.3v1.9
				C49.6,181.5,50,181.9,50.7,181.9z"/>
			<path class="st2" d="M56.3,179.7c0.5,0,1,0.1,1,0.1c0-0.7-0.2-1-0.7-1s-1.2,0.1-1.5,0.2c-0.2,0.1-0.3-0.1-0.3-0.2l-0.1-0.6
				c0-0.2,0.1-0.3,0.2-0.3c0.1,0,1-0.3,1.8-0.3c1.7,0,2,0.9,2,2.3v2.9c0,0.1-0.1,0.3-0.3,0.3H58c-0.1,0-0.2,0-0.2-0.2l-0.1-0.4
				c-0.3,0.3-0.8,0.7-1.7,0.7c-1.1,0-1.8-0.7-1.8-1.8C54.2,180.5,55,179.7,56.3,179.7z M56.3,182.2c0.5,0,0.9-0.4,1-0.6v-0.8
				c0,0-0.4-0.2-0.8-0.2c-0.6,0-0.9,0.3-0.9,0.8S55.8,182.2,56.3,182.2z"/>
			<path class="st2" d="M60.1,178c0-0.1,0.1-0.3,0.3-0.3h0.4c0.1,0,0.2,0.1,0.2,0.2l0.2,0.5c0.2-0.3,0.7-0.8,1.5-0.8
				c0.6,0,1.2,0.2,1,0.5l-0.3,0.8c-0.1,0.1-0.2,0.2-0.3,0.1s-0.3-0.1-0.5-0.1c-0.6,0-0.9,0.4-1,0.6v3.3c0,0.2-0.1,0.3-0.3,0.3h-0.9
				c-0.1,0-0.3-0.1-0.3-0.3C60.1,182.8,60.1,178,60.1,178z"/>
			<path class="st2" d="M64.5,178c0-0.1,0.1-0.3,0.3-0.3h0.4c0.1,0,0.2,0.1,0.2,0.2l0.2,0.5c0.2-0.3,0.7-0.8,1.5-0.8
				c0.6,0,1.2,0.2,1,0.5l-0.3,0.8c-0.1,0.1-0.2,0.2-0.3,0.1s-0.3,0-0.5,0c-0.6,0-0.9,0.4-1,0.6v3.3c0,0.2-0.1,0.3-0.3,0.3h-0.9
				c-0.1,0-0.3-0.1-0.3-0.3C64.5,182.9,64.5,178,64.5,178z"/>
			<path class="st2" d="M68.8,176c0-0.5,0.4-0.9,0.9-0.9s0.9,0.4,0.9,0.9s-0.4,0.9-0.9,0.9C69.2,176.9,68.8,176.5,68.8,176z M69,178
				c0-0.1,0.1-0.3,0.3-0.3h0.9c0.1,0,0.3,0.1,0.3,0.3v4.8c0,0.1-0.1,0.3-0.3,0.3h-0.9c-0.1,0-0.3-0.1-0.3-0.3V178z"/>
			<path class="st2" d="M74.3,177.7c1.4,0,2.4,1,2.4,2.5c0,0.1,0,0.3,0,0.3c0,0.1-0.1,0.2-0.3,0.2H73c0,0.7,0.6,1.2,1.3,1.2
				c0.5,0,0.9-0.2,1.1-0.4c0.1-0.1,0.3-0.1,0.3,0l0.4,0.6c0.1,0.1,0.1,0.2,0,0.3c-0.5,0.4-1.1,0.7-2,0.7c-1.6,0-2.7-1.3-2.7-2.8
				C71.6,178.9,72.7,177.7,74.3,177.7z M75.3,179.8c0-0.5-0.4-0.9-1-0.9s-1.1,0.4-1.1,0.9H75.3z M73.3,176.1c-0.1,0-0.1-0.2-0.1-0.3
				l0.3-0.6c0.1-0.1,0.2-0.1,0.3,0l1.9,1.1c0.1,0,0.1,0.1,0.1,0.2l-0.2,0.4c0,0.1-0.1,0.1-0.3,0.1L73.3,176.1z"/>
			<path class="st2" d="M77.8,178c0-0.1,0.1-0.3,0.3-0.3h0.4c0.1,0,0.2,0.1,0.2,0.2l0.2,0.5c0.2-0.3,0.7-0.8,1.5-0.8
				c0.6,0,1.2,0.2,1,0.5L81,179c-0.1,0.1-0.2,0.2-0.3,0.1s-0.3-0.1-0.5-0.1c-0.6,0-0.9,0.4-1,0.6v3.3c0,0.2-0.1,0.3-0.3,0.3H78
				c-0.1,0-0.3-0.1-0.3-0.3V178H77.8z"/>
			<path class="st2" d="M84.5,177.7c1.4,0,2.4,1,2.4,2.5c0,0.1,0,0.3,0,0.3c0,0.1-0.1,0.2-0.3,0.2h-3.4c0,0.7,0.6,1.2,1.3,1.2
				c0.5,0,0.9-0.2,1.1-0.4c0.1-0.1,0.3-0.1,0.3,0l0.4,0.6c0.1,0.1,0.1,0.2,0,0.3c-0.5,0.4-1.1,0.7-2,0.7c-1.6,0-2.7-1.3-2.7-2.8
				C81.8,178.9,82.9,177.7,84.5,177.7z M85.4,179.8c0-0.5-0.4-0.9-1-0.9s-1.1,0.4-1.1,0.9H85.4z"/>
		</g>
		<g class="st9">
			<path class="st2" d="M11,191.7c0.5,0,1,0.1,1,0.1c0-0.7-0.2-1-0.7-1s-1.2,0.1-1.5,0.2c-0.2,0.1-0.3-0.1-0.3-0.2l-0.1-0.6
				c0-0.2,0.1-0.3,0.2-0.3c0.1,0,1-0.3,1.8-0.3c1.7,0,2,0.9,2,2.3v2.9c0,0.1-0.1,0.3-0.3,0.3h-0.4c-0.1,0-0.2,0-0.2-0.2l-0.1-0.4
				c-0.3,0.3-0.8,0.7-1.7,0.7c-1.1,0-1.8-0.7-1.8-1.8C8.9,192.5,9.7,191.7,11,191.7z M11.1,194.2c0.5,0,0.9-0.4,1-0.6v-0.8
				c0,0-0.4-0.2-0.8-0.2c-0.6,0-0.9,0.3-0.9,0.8C10.3,193.9,10.6,194.2,11.1,194.2z"/>
			<path class="st2" d="M14.8,190c0-0.1,0.1-0.3,0.3-0.3h0.4c0.1,0,0.2,0.1,0.2,0.2l0.2,0.5c0.2-0.2,0.7-0.8,1.7-0.8
				c1.7,0,2.1,1.1,2.1,2.4v2.8c0,0.1-0.1,0.3-0.3,0.3h-0.9c-0.1,0-0.3-0.1-0.3-0.3V192c0-0.7-0.3-1.1-0.9-1.1c-0.7,0-1,0.5-1.2,0.8
				v3c0,0.2-0.1,0.3-0.3,0.3h-0.9c-0.1,0-0.3-0.1-0.3-0.3V190H14.8z"/>
			<path class="st2" d="M21.5,191.1H21c-0.1,0-0.2-0.1-0.2-0.3V190c0-0.1,0.1-0.3,0.2-0.3h0.5v-1.5c0-0.1,0.1-0.3,0.3-0.3h0.9
				c0.1,0,0.2,0.1,0.2,0.3v1.5h1.2c0.1,0,0.3,0.1,0.3,0.3v0.8c0,0.1-0.1,0.3-0.3,0.3h-1.2v2.4c0,0.4,0.2,0.4,0.4,0.4
				c0.2,0,0.7-0.1,0.8-0.2c0.1-0.1,0.3,0,0.3,0.1l0.1,0.7c0,0.1,0,0.2-0.1,0.3c-0.2,0.1-0.9,0.3-1.5,0.3c-1.2,0-1.5-0.8-1.5-1.7
				v-2.3H21.5z"/>
			<path class="st2" d="M25.4,188c0-0.5,0.4-0.9,0.9-0.9s0.9,0.4,0.9,0.9s-0.4,0.9-0.9,0.9S25.4,188.5,25.4,188z M25.6,190
				c0-0.1,0.1-0.3,0.3-0.3h0.9c0.1,0,0.3,0.1,0.3,0.3v4.8c0,0.1-0.1,0.3-0.3,0.3h-0.9c-0.1,0-0.3-0.1-0.3-0.3V190z"/>
			<path class="st2" d="M28.4,192.7v-0.8c0-0.1,0.1-0.2,0.2-0.2h2.6c0.1,0,0.2,0.1,0.2,0.2v0.8c0,0.1-0.1,0.2-0.2,0.2h-2.6
				C28.5,192.9,28.4,192.8,28.4,192.7z"/>
			<path class="st2" d="M33.1,191.1h-0.6c-0.1,0-0.3-0.1-0.3-0.3V190c0-0.1,0.1-0.3,0.3-0.3h0.6v-0.6c0-1.4,0.7-2.2,2.2-2.2
				c0.7,0,1.3,0.3,1.6,0.5c0.1,0.1,0.1,0.2,0.1,0.3l-0.4,0.7c-0.1,0.1-0.2,0.1-0.3,0.1c-0.2-0.1-0.5-0.3-0.8-0.3
				c-0.7,0-0.8,0.4-0.8,0.9v0.6H36c0.1,0,0.3,0.1,0.3,0.3v0.8c0,0.1-0.1,0.3-0.3,0.3h-1.4v3.8c0,0.1-0.1,0.3-0.3,0.3h-0.9
				c-0.1,0-0.3-0.1-0.3-0.3V191.1z"/>
			<path class="st2" d="M37.1,190c0-0.1,0.1-0.3,0.3-0.3h0.9c0.1,0,0.3,0.1,0.3,0.3v2.8c0,0.7,0.2,1.1,0.9,1.1c0.6,0,0.9-0.5,0.9-1
				V190c0-0.2,0.1-0.3,0.3-0.3h0.9c0.1,0,0.3,0.1,0.3,0.3v4.8c0,0.1-0.1,0.3-0.3,0.3h-0.4c-0.1,0-0.2-0.1-0.3-0.2l-0.1-0.4
				c-0.3,0.3-0.8,0.8-1.6,0.8c-1.6,0-2-1-2-2.4V190H37.1z"/>
			<path class="st2" d="M43.1,188c0-0.5,0.4-0.9,0.9-0.9s0.9,0.4,0.9,0.9s-0.4,0.9-0.9,0.9S43.1,188.5,43.1,188z M43.3,190
				c0-0.1,0.1-0.3,0.3-0.3h0.9c0.1,0,0.3,0.1,0.3,0.3v4.8c0,0.1-0.1,0.3-0.3,0.3h-0.9c-0.1,0-0.3-0.1-0.3-0.3V190z"/>
			<path class="st2" d="M46.6,191.1h-0.5c-0.1,0-0.2-0.1-0.2-0.3V190c0-0.1,0.1-0.3,0.2-0.3h0.5v-1.5c0-0.1,0.1-0.3,0.3-0.3h0.9
				c0.1,0,0.2,0.1,0.2,0.3v1.5h1.2c0.1,0,0.3,0.1,0.3,0.3v0.8c0,0.1-0.1,0.3-0.3,0.3H48v2.4c0,0.4,0.2,0.4,0.4,0.4s0.7-0.1,0.8-0.2
				c0.1-0.1,0.3,0,0.3,0.1l0.1,0.7c0,0.1,0,0.2-0.1,0.3c-0.2,0.1-0.9,0.3-1.5,0.3c-1.2,0-1.5-0.8-1.5-1.7L46.6,191.1L46.6,191.1z"/>
			<path class="st2" d="M53.1,189.7c1.4,0,2.4,1,2.4,2.5c0,0.1,0,0.3,0,0.3c0,0.1-0.1,0.2-0.3,0.2h-3.4c0,0.7,0.6,1.2,1.3,1.2
				c0.5,0,0.9-0.2,1.1-0.4c0.1-0.1,0.3-0.1,0.3,0l0.4,0.6c0.1,0.1,0.1,0.2,0,0.3c-0.5,0.4-1.1,0.7-2,0.7c-1.6,0-2.7-1.3-2.7-2.8
				C50.4,190.9,51.5,189.7,53.1,189.7z M54.1,191.8c0-0.5-0.4-0.9-1-0.9s-1.1,0.4-1.1,0.9H54.1z"/>
			<path class="st2" d="M56.4,194.7c-0.1,0-0.1-0.2-0.1-0.3l0.3-0.7c0.1-0.1,0.2-0.2,0.3-0.1c0.2,0.1,0.6,0.3,1.2,0.3
				c0.4,0,0.6-0.2,0.6-0.4s-0.3-0.5-1-0.7c-1-0.4-1.5-0.9-1.5-1.7s0.6-1.6,1.9-1.6c0.8,0,1.3,0.2,1.6,0.4c0.1,0.1,0.2,0.2,0.1,0.4
				l-0.3,0.6c-0.1,0.1-0.2,0.1-0.3,0.1c-0.3-0.1-0.6-0.3-1.1-0.3c-0.4,0-0.5,0.2-0.5,0.3c0,0.2,0.3,0.4,0.8,0.6
				c1,0.4,1.8,0.8,1.8,1.8c0,0.8-0.7,1.6-2,1.6C57.3,195.2,56.7,195,56.4,194.7z"/>
		</g>
	</g>
	<line class="st7" x1="32.9" y1="156.3" x2="107.4" y2="160.2"/>
</g>
<g>
	<circle class="st7" cx="146.1" cy="191.9" r="5.3"/>
	<g>
		<g>
			<circle class="st8" cx="96.2" cy="233.5" r="12.2"/>
			<path class="st0" d="M95.7,230.5l-1.3,0.3c-0.1,0-0.3-0.1-0.3-0.2l-0.1-0.7c0-0.2,0-0.2,0.1-0.3l1.8-1.5c0.1-0.1,0.3-0.2,0.5-0.2
				h0.7c0.2,0,0.3,0.1,0.3,0.3v9.3c0,0.2-0.1,0.3-0.3,0.3H96c-0.2,0-0.3-0.1-0.3-0.3V230.5z"/>
		</g>
		<g class="st9">
			<path class="st2" d="M46.6,251.1c1.2,0,2,0.4,2.8,1.1c0.1,0.1,0.1,0.2,0,0.3l-0.7,0.7c-0.1,0.1-0.2,0.1-0.3,0
				c-0.5-0.4-1.1-0.7-1.8-0.7c-1.5,0-2.6,1.2-2.6,2.7c0,1.4,1.1,2.7,2.6,2.7c0.7,0,1.3-0.3,1.8-0.7c0.1-0.1,0.2-0.1,0.3,0l0.7,0.7
				c0.1,0.1,0.1,0.2,0,0.3c-0.8,0.8-1.8,1.1-2.8,1.1c-2.3,0-4.2-1.8-4.2-4.1C42.4,253,44.3,251.1,46.6,251.1z"/>
			<path class="st2" d="M52.8,253.9c1.5,0,2.7,1.3,2.7,2.8c0,1.5-1.2,2.8-2.7,2.8s-2.7-1.3-2.7-2.8
				C50.1,255.1,51.3,253.9,52.8,253.9z M52.8,258.1c0.8,0,1.4-0.7,1.4-1.5c0-0.8-0.6-1.5-1.4-1.5s-1.4,0.6-1.4,1.5
				C51.4,257.5,52,258.1,52.8,258.1z"/>
			<path class="st2" d="M56.7,254.2c0-0.1,0.1-0.3,0.3-0.3h0.4c0.1,0,0.2,0.1,0.2,0.2l0.2,0.5c0.2-0.3,0.7-0.8,1.5-0.8
				c0.6,0,1.2,0.2,1,0.5l-0.3,0.8c-0.1,0.1-0.2,0.2-0.3,0.1s-0.3-0.1-0.5-0.1c-0.6,0-0.9,0.4-1,0.6v3.3c0,0.2-0.1,0.3-0.3,0.3H57
				c-0.1,0-0.3-0.1-0.3-0.3C56.7,259,56.7,254.2,56.7,254.2z"/>
			<path class="st2" d="M63.8,259.4c-0.5,0-1-0.1-1.3-0.2v2.6c0,0.1-0.1,0.3-0.3,0.3h-0.9c-0.1,0-0.3-0.1-0.3-0.3v-7.5
				c0-0.1,0.1-0.3,0.3-0.3h0.4c0.1,0,0.2,0.1,0.3,0.3l0.1,0.4c0,0,0.6-0.8,1.7-0.8c1.4,0,2.5,1.2,2.5,2.8
				C66.5,258.2,65.4,259.4,63.8,259.4z M62.6,257.8c0,0,0.4,0.3,1.1,0.3c0.9,0,1.3-0.7,1.3-1.5c0-0.7-0.4-1.5-1.3-1.5
				c-0.7,0-1.1,0.4-1.2,0.7L62.6,257.8L62.6,257.8z"/>
			<path class="st2" d="M67.5,259c-0.1,0-0.1-0.2-0.1-0.3l0.3-0.7c0.1-0.1,0.2-0.2,0.3-0.1c0.2,0.1,0.6,0.3,1.2,0.3
				c0.4,0,0.6-0.2,0.6-0.4c0-0.2-0.3-0.5-1-0.7c-1-0.4-1.5-0.9-1.5-1.7s0.6-1.6,1.9-1.6c0.8,0,1.3,0.2,1.6,0.4
				c0.1,0.1,0.2,0.2,0.1,0.4l-0.3,0.6c-0.1,0.1-0.2,0.1-0.3,0.1c-0.3-0.1-0.6-0.3-1.1-0.3c-0.4,0-0.5,0.2-0.5,0.3
				c0,0.2,0.3,0.4,0.8,0.6c1,0.4,1.8,0.8,1.8,1.8c0,0.8-0.7,1.6-2,1.6C68.3,259.4,67.8,259.2,67.5,259z"/>
			<path class="st2" d="M75.1,254.2c0-0.1,0.1-0.3,0.3-0.3h0.9c0.1,0,0.3,0.1,0.3,0.3v2.8c0,0.7,0.2,1.1,0.9,1.1
				c0.6,0,0.9-0.5,0.9-1v-2.9c0-0.2,0.1-0.3,0.3-0.3h0.9c0.1,0,0.3,0.1,0.3,0.3v4.8c0,0.1-0.1,0.3-0.3,0.3h-0.4
				c-0.1,0-0.2-0.1-0.3-0.2l-0.1-0.4c-0.3,0.3-0.8,0.8-1.6,0.8c-1.6,0-2-1-2-2.4v-2.9H75.1z"/>
			<path class="st2" d="M81.3,251.5c0-0.1,0.1-0.3,0.3-0.3h0.9c0.1,0,0.3,0.1,0.3,0.3v7.5c0,0.1-0.1,0.3-0.3,0.3h-0.9
				c-0.1,0-0.3-0.1-0.3-0.3V251.5z"/>
			<path class="st2" d="M84.6,255.3H84c-0.1,0-0.2-0.1-0.2-0.3v-0.8c0-0.1,0.1-0.3,0.2-0.3h0.5v-1.5c0-0.1,0.1-0.3,0.3-0.3h0.9
				c0.1,0,0.2,0.1,0.2,0.3v1.5h1.2c0.1,0,0.3,0.1,0.3,0.3v0.8c0,0.1-0.1,0.3-0.3,0.3H86v2.4c0,0.4,0.2,0.4,0.4,0.4
				c0.2,0,0.7-0.1,0.8-0.2c0.1-0.1,0.3,0,0.3,0.1l0.1,0.7c0,0.1,0,0.2-0.1,0.3c-0.2,0.1-0.9,0.3-1.5,0.3c-1.2,0-1.5-0.8-1.5-1.7
				L84.6,255.3L84.6,255.3z"/>
			<path class="st2" d="M88.7,254.2c0-0.1,0.1-0.3,0.3-0.3h0.4c0.1,0,0.2,0.1,0.2,0.2l0.2,0.5c0.2-0.3,0.7-0.8,1.5-0.8
				c0.6,0,1.2,0.2,1,0.5l-0.3,0.8c-0.1,0.1-0.2,0.2-0.3,0.1s-0.3-0.1-0.5-0.1c-0.6,0-0.9,0.4-1,0.6v3.3c0,0.2-0.1,0.3-0.3,0.3H89
				c-0.1,0-0.3-0.1-0.3-0.3L88.7,254.2L88.7,254.2z"/>
			<path class="st2" d="M94.8,256c0.5,0,1,0.1,1,0.1c0-0.7-0.2-1-0.7-1s-1.2,0.1-1.5,0.2c-0.2,0.1-0.3-0.1-0.3-0.2l-0.1-0.6
				c0-0.2,0.1-0.3,0.2-0.3s1-0.3,1.8-0.3c1.7,0,2,0.9,2,2.3v2.9c0,0.1-0.1,0.3-0.3,0.3h-0.4c-0.1,0-0.2,0-0.2-0.2l-0.1-0.4
				c-0.3,0.3-0.8,0.7-1.7,0.7c-1.1,0-1.8-0.7-1.8-1.8C92.7,256.7,93.5,256,94.8,256z M94.8,258.4c0.5,0,0.9-0.4,1-0.6V257
				c0,0-0.4-0.2-0.8-0.2c-0.6,0-0.9,0.3-0.9,0.8C94.1,258.1,94.3,258.4,94.8,258.4z"/>
			<path class="st2" d="M98.5,256.9v-0.8c0-0.1,0.1-0.2,0.2-0.2h2.6c0.1,0,0.2,0.1,0.2,0.2v0.8c0,0.1-0.1,0.2-0.2,0.2h-2.6
				C98.6,257.1,98.5,257,98.5,256.9z"/>
			<path class="st2" d="M104.6,256c0.5,0,1,0.1,1,0.1c0-0.7-0.2-1-0.7-1s-1.2,0.1-1.5,0.2c-0.2,0.1-0.3-0.1-0.3-0.2l-0.1-0.6
				c0-0.2,0.1-0.3,0.2-0.3s1-0.3,1.8-0.3c1.7,0,2,0.9,2,2.3v2.9c0,0.1-0.1,0.3-0.3,0.3h-0.4c-0.1,0-0.2,0-0.2-0.2l-0.1-0.4
				c-0.3,0.3-0.8,0.7-1.7,0.7c-1.1,0-1.8-0.7-1.8-1.8C102.5,256.7,103.3,256,104.6,256z M104.7,258.4c0.5,0,0.9-0.4,1-0.6V257
				c0,0-0.4-0.2-0.8-0.2c-0.6,0-0.9,0.3-0.9,0.8C103.9,258.1,104.2,258.4,104.7,258.4z"/>
			<path class="st2" d="M108.4,251.5c0-0.1,0.1-0.3,0.3-0.3h0.9c0.1,0,0.3,0.1,0.3,0.3v2.6c0.2-0.1,0.8-0.2,1.3-0.2
				c1.6,0,2.6,1.2,2.6,2.8c0,1.5-1,2.8-2.5,2.8c-1.2,0-1.8-0.8-1.8-0.8l-0.1,0.4c-0.1,0.1-0.1,0.3-0.3,0.3h-0.4
				c-0.1,0-0.3-0.1-0.3-0.3V251.5z M111,258.1c0.8,0,1.3-0.7,1.3-1.5c0-0.7-0.4-1.5-1.3-1.5c-0.7,0-1.1,0.3-1.1,0.3v1.9
				C110,257.7,110.3,258.1,111,258.1z"/>
			<path class="st2" d="M114.7,259c-0.1,0-0.1-0.2-0.1-0.3l0.3-0.7c0.1-0.1,0.2-0.2,0.3-0.1c0.2,0.1,0.6,0.3,1.2,0.3
				c0.4,0,0.6-0.2,0.6-0.4c0-0.2-0.3-0.5-1-0.7c-1-0.4-1.5-0.9-1.5-1.7s0.6-1.6,1.9-1.6c0.8,0,1.3,0.2,1.6,0.4
				c0.1,0.1,0.2,0.2,0.1,0.4l-0.3,0.6c-0.1,0.1-0.2,0.1-0.3,0.1c-0.3-0.1-0.6-0.3-1.1-0.3c-0.4,0-0.5,0.2-0.5,0.3
				c0,0.2,0.3,0.4,0.8,0.6c1,0.4,1.8,0.8,1.8,1.8c0,0.8-0.7,1.6-2,1.6C115.6,259.4,115,259.2,114.7,259z"/>
			<path class="st2" d="M122,253.9c1.5,0,2.7,1.3,2.7,2.8c0,1.5-1.2,2.8-2.7,2.8s-2.7-1.3-2.7-2.8
				C119.3,255.1,120.5,253.9,122,253.9z M122,258.1c0.8,0,1.4-0.7,1.4-1.5c0-0.8-0.6-1.5-1.4-1.5s-1.4,0.6-1.4,1.5
				S121.3,258.1,122,258.1z"/>
			<path class="st2" d="M125.9,254.2c0-0.1,0.1-0.3,0.3-0.3h0.4c0.1,0,0.2,0.1,0.2,0.2l0.2,0.5c0.2-0.3,0.7-0.8,1.5-0.8
				c0.6,0,1.2,0.2,1,0.5l-0.3,0.8c-0.1,0.1-0.2,0.2-0.3,0.1s-0.3-0.1-0.5-0.1c-0.6,0-0.9,0.4-1,0.6v3.3c0,0.2-0.1,0.3-0.3,0.3h-0.9
				c-0.1,0-0.3-0.1-0.3-0.3L125.9,254.2L125.9,254.2z"/>
			<path class="st2" d="M130.3,251.5c0-0.1,0.1-0.3,0.3-0.3h0.9c0.1,0,0.3,0.1,0.3,0.3v2.6c0.2-0.1,0.8-0.2,1.3-0.2
				c1.6,0,2.6,1.2,2.6,2.8c0,1.5-1,2.8-2.5,2.8c-1.2,0-1.8-0.8-1.8-0.8l-0.1,0.4c-0.1,0.1-0.1,0.3-0.3,0.3h-0.4
				c-0.1,0-0.3-0.1-0.3-0.3V251.5z M133,258.1c0.8,0,1.3-0.7,1.3-1.5c0-0.7-0.4-1.5-1.3-1.5c-0.7,0-1.1,0.3-1.1,0.3v1.9
				C131.9,257.7,132.3,258.1,133,258.1z"/>
			<path class="st2" d="M138.6,256c0.5,0,1,0.1,1,0.1c0-0.7-0.2-1-0.7-1s-1.2,0.1-1.5,0.2c-0.2,0.1-0.3-0.1-0.3-0.2l-0.1-0.6
				c0-0.2,0.1-0.3,0.2-0.3c0.1,0,1-0.3,1.8-0.3c1.7,0,2,0.9,2,2.3v2.9c0,0.1-0.1,0.3-0.3,0.3h-0.4c-0.1,0-0.2,0-0.2-0.2l-0.1-0.4
				c-0.3,0.3-0.8,0.7-1.7,0.7c-1.1,0-1.8-0.7-1.8-1.8C136.4,256.7,137.2,256,138.6,256z M138.6,258.4c0.5,0,0.9-0.4,1-0.6V257
				c0,0-0.4-0.2-0.8-0.2c-0.6,0-0.9,0.3-0.9,0.8C137.8,258.1,138.1,258.4,138.6,258.4z"/>
			<path class="st2" d="M142.4,254.2c0-0.1,0.1-0.3,0.3-0.3h0.4c0.1,0,0.2,0.1,0.2,0.2l0.2,0.5c0.2-0.2,0.7-0.8,1.7-0.8
				c1.7,0,2.1,1.1,2.1,2.4v2.8c0,0.1-0.1,0.3-0.3,0.3h-0.9c-0.1,0-0.3-0.1-0.3-0.3v-2.8c0-0.7-0.3-1.1-0.9-1.1c-0.7,0-1,0.5-1.2,0.8
				v3c0,0.2-0.1,0.3-0.3,0.3h-0.9c-0.1,0-0.3-0.1-0.3-0.3v-4.7H142.4z"/>
			<path class="st2" d="M149,255.3h-0.5c-0.1,0-0.2-0.1-0.2-0.3v-0.8c0-0.1,0.1-0.3,0.2-0.3h0.5v-1.5c0-0.1,0.1-0.3,0.3-0.3h0.9
				c0.1,0,0.2,0.1,0.2,0.3v1.5h1.2c0.1,0,0.3,0.1,0.3,0.3v0.8c0,0.1-0.1,0.3-0.3,0.3h-1.2v2.4c0,0.4,0.2,0.4,0.4,0.4
				s0.7-0.1,0.8-0.2s0.3,0,0.3,0.1l0.1,0.7c0,0.1,0,0.2-0.1,0.3c-0.2,0.1-0.9,0.3-1.5,0.3c-1.2,0-1.5-0.8-1.5-1.7v-2.3H149z"/>
		</g>
	</g>
	<line class="st7" x1="106.7" y1="227.4" x2="142.1" y2="195.3"/>
</g>
<g>
	<circle class="st10" cx="213.7" cy="205.4" r="5.3"/>
	<g>
		<g>
			<circle class="st8" cx="272.3" cy="227.2" r="12.2"/>
			<g class="st9">
				<path class="st0" d="M273.4,221.6c0.2-0.1,0.3,0,0.4,0.2l0.3,0.9c0.1,0.2,0,0.3-0.3,0.4c-0.7,0.2-2.7,1.1-3.2,2.7
					c0.2-0.2,1-0.4,1.6-0.4c1.4,0,2.9,1.1,2.9,3.1c0,1.8-1.5,3.3-3.3,3.3c-2.3,0-3.4-1.8-3.4-4C268.6,223.6,272.2,222,273.4,221.6z
					 M273.7,228.4c0-1-0.7-1.7-1.7-1.7c-1,0-1.5,0.7-1.7,1.3c0,1,0.5,2.2,1.7,2.2C272.9,230.1,273.7,229.4,273.7,228.4z"/>
			</g>
		</g>
		<g class="st9">
			<path class="st2" d="M218.9,245.1c0-0.1,0.1-0.2,0.2-0.2h1.1c0.1,0,0.2,0.1,0.2,0.2v7.6c0,0.1-0.1,0.2-0.2,0.2h-1.1
				c-0.1,0-0.2-0.1-0.2-0.2V245.1z"/>
			<path class="st2" d="M222,247.9c0-0.1,0.1-0.3,0.3-0.3h0.4c0.1,0,0.2,0.1,0.2,0.2l0.2,0.5c0.2-0.2,0.7-0.8,1.7-0.8
				c1.7,0,2.1,1.1,2.1,2.4v2.8c0,0.1-0.1,0.3-0.3,0.3h-0.9c-0.1,0-0.3-0.1-0.3-0.3V250c0-0.7-0.3-1.1-0.9-1.1c-0.7,0-1,0.5-1.2,0.8
				v3c0,0.2-0.1,0.3-0.3,0.3h-0.9c-0.1,0-0.3-0.1-0.3-0.3v-4.8H222z"/>
			<path class="st2" d="M230.7,247.5c0.5,0,1,0.1,1.3,0.2v-2.6c0-0.1,0.1-0.3,0.3-0.3h0.9c0.1,0,0.3,0.1,0.3,0.3v7.5
				c0,0.1-0.1,0.3-0.3,0.3h-0.4c-0.1,0-0.2-0.1-0.3-0.3l-0.1-0.4c0,0-0.6,0.8-1.7,0.8c-1.4,0-2.5-1.2-2.5-2.8
				C228.1,248.8,229.1,247.5,230.7,247.5z M232,249.1c0,0-0.4-0.3-1.1-0.3c-0.9,0-1.3,0.7-1.3,1.5c0,0.7,0.4,1.5,1.3,1.5
				c0.7,0,1.1-0.4,1.2-0.7L232,249.1L232,249.1z"/>
			<path class="st2" d="M234.7,245.8c0-0.5,0.4-0.9,0.9-0.9s0.9,0.4,0.9,0.9s-0.4,0.9-0.9,0.9S234.7,246.3,234.7,245.8z
				 M234.9,247.9c0-0.1,0.1-0.3,0.3-0.3h0.9c0.1,0,0.3,0.1,0.3,0.3v4.8c0,0.1-0.1,0.3-0.3,0.3h-0.9c-0.1,0-0.3-0.1-0.3-0.3V247.9z"
				/>
			<path class="st2" d="M240.3,247.5c0.8,0,1.5,0.4,2,0.9c0.1,0.1,0.1,0.3-0.1,0.4l-0.5,0.5c-0.1,0.1-0.2,0.1-0.3,0
				c-0.3-0.2-0.6-0.5-1.1-0.5c-0.8,0-1.4,0.6-1.4,1.5c0,0.8,0.6,1.5,1.4,1.5c0.6,0,0.9-0.3,1.1-0.6c0.1-0.1,0.2-0.1,0.3,0l0.5,0.4
				c0.1,0.1,0.2,0.2,0.1,0.4c-0.4,0.7-1.2,1.1-2.1,1.1c-1.6,0-2.8-1.2-2.8-2.8C237.5,248.7,238.7,247.5,240.3,247.5z"/>
			<path class="st2" d="M245.2,249.6c0.5,0,1,0.1,1,0.1c0-0.7-0.2-1-0.7-1s-1.2,0.1-1.5,0.2c-0.2,0.1-0.3-0.1-0.3-0.2l-0.1-0.6
				c0-0.2,0.1-0.3,0.2-0.3c0.1,0,1-0.3,1.8-0.3c1.7,0,2,0.9,2,2.3v2.9c0,0.1-0.1,0.3-0.3,0.3h-0.4c-0.1,0-0.2,0-0.2-0.2l-0.2-0.4
				c-0.3,0.3-0.8,0.7-1.7,0.7c-1.1,0-1.8-0.7-1.8-1.8C243,250.3,243.8,249.6,245.2,249.6z M245.2,252c0.5,0,0.9-0.4,1-0.6v-0.8
				c0,0-0.4-0.2-0.8-0.2c-0.6,0-0.9,0.3-0.9,0.8C244.4,251.7,244.7,252,245.2,252z"/>
			<path class="st2" d="M249.3,248.9h-0.5c-0.1,0-0.2-0.1-0.2-0.3v-0.8c0-0.1,0.1-0.3,0.2-0.3h0.5V246c0-0.1,0.1-0.3,0.3-0.3h0.9
				c0.1,0,0.2,0.1,0.2,0.3v1.5h1.2c0.1,0,0.3,0.1,0.3,0.3v0.8c0,0.1-0.1,0.3-0.3,0.3h-1.2v2.4c0,0.4,0.2,0.4,0.4,0.4
				s0.7-0.1,0.8-0.2c0.2-0.1,0.3,0,0.3,0.1l0.1,0.7c0,0.1,0,0.2-0.1,0.3c-0.2,0.1-0.9,0.3-1.5,0.3c-1.2,0-1.5-0.8-1.5-1.7v-2.3
				H249.3z"/>
			<path class="st2" d="M255.8,247.5c1.4,0,2.4,1,2.4,2.5c0,0.1,0,0.3,0,0.3c0,0.1-0.1,0.2-0.3,0.2h-3.4c0,0.7,0.6,1.2,1.3,1.2
				c0.5,0,0.9-0.2,1.1-0.4c0.1-0.1,0.3-0.1,0.3,0l0.4,0.6c0.1,0.1,0.1,0.2,0,0.3c-0.5,0.4-1.1,0.7-2,0.7c-1.6,0-2.7-1.3-2.7-2.8
				C253.1,248.8,254.2,247.5,255.8,247.5z M256.8,249.6c0-0.5-0.4-0.9-1-0.9s-1.1,0.4-1.1,0.9H256.8z"/>
			<path class="st2" d="M259.3,247.9c0-0.1,0.1-0.3,0.3-0.3h0.9c0.1,0,0.3,0.1,0.3,0.3v2.8c0,0.7,0.2,1.1,0.9,1.1
				c0.6,0,0.9-0.5,0.9-1v-2.9c0-0.2,0.1-0.3,0.3-0.3h0.9c0.1,0,0.3,0.1,0.3,0.3v4.8c0,0.1-0.1,0.3-0.3,0.3h-0.4
				c-0.1,0-0.2-0.1-0.3-0.2l-0.1-0.4c-0.3,0.3-0.8,0.8-1.6,0.8c-1.6,0-2-1-2-2.4L259.3,247.9L259.3,247.9z"/>
			<path class="st2" d="M265.5,247.9c0-0.1,0.1-0.3,0.3-0.3h0.4c0.1,0,0.2,0.1,0.2,0.2l0.2,0.5c0.2-0.3,0.7-0.8,1.5-0.8
				c0.6,0,1.2,0.2,1,0.5l-0.3,0.8c-0.1,0.1-0.2,0.2-0.3,0.1c-0.1-0.1-0.3-0.1-0.5-0.1c-0.6,0-0.9,0.4-1,0.6v3.3
				c0,0.2-0.1,0.3-0.3,0.3h-0.9c-0.1,0-0.3-0.1-0.3-0.3L265.5,247.9L265.5,247.9z"/>
			<path class="st2" d="M274.7,247.5c0.5,0,1,0.1,1.3,0.2v-2.6c0-0.1,0.1-0.3,0.3-0.3h0.9c0.1,0,0.3,0.1,0.3,0.3v7.5
				c0,0.1-0.1,0.3-0.3,0.3h-0.4c-0.1,0-0.2-0.1-0.3-0.3l-0.1-0.4c0,0-0.6,0.8-1.7,0.8c-1.5,0-2.5-1.2-2.5-2.8
				C272.1,248.8,273.1,247.5,274.7,247.5z M276,249.1c0,0-0.4-0.3-1.1-0.3c-0.9,0-1.3,0.7-1.3,1.5c0,0.7,0.4,1.5,1.3,1.5
				c0.7,0,1.1-0.4,1.2-0.7v-2H276z"/>
			<path class="st2" d="M279.4,244.8c0.6,0,1,0.5,1,1.4c0,1-0.4,1.7-0.8,2.3c-0.1,0.1-0.1,0.1-0.2,0l-0.3-0.2
				c-0.1-0.1-0.1-0.2,0-0.3c0.3-0.4,0.6-0.9,0.6-1.4c0-0.1,0-0.1,0-0.2c-0.1,0.1-0.2,0.1-0.4,0.1c-0.5,0-0.7-0.4-0.7-0.8
				C278.5,245.2,278.9,244.8,279.4,244.8z"/>
			<path class="st2" d="M281.6,245.2c0-0.1,0.1-0.3,0.3-0.3h0.9c0.1,0,0.3,0.1,0.3,0.3v2.8c0.3-0.2,0.7-0.4,1.4-0.4
				c1.7,0,2.2,1.2,2.2,2.5v2.7c0,0.1-0.1,0.3-0.3,0.3h-0.9c-0.1,0-0.3-0.1-0.3-0.3V250c0-0.7-0.3-1.2-1-1.2c-0.6,0-1,0.4-1.1,0.9
				v2.9c0,0.1-0.1,0.3-0.3,0.3h-0.9c-0.1,0-0.3-0.1-0.3-0.3L281.6,245.2L281.6,245.2z"/>
			<path class="st2" d="M287.9,247.9c0-0.1,0.1-0.3,0.3-0.3h0.9c0.1,0,0.3,0.1,0.3,0.3v2.8c0,0.7,0.2,1.1,0.9,1.1
				c0.6,0,0.9-0.5,0.9-1v-2.9c0-0.2,0.1-0.3,0.3-0.3h0.9c0.1,0,0.3,0.1,0.3,0.3v4.8c0,0.1-0.1,0.3-0.3,0.3H292
				c-0.1,0-0.2-0.1-0.3-0.2l-0.1-0.4c-0.3,0.3-0.8,0.8-1.6,0.8c-1.6,0-2-1-2-2.4v-2.9H287.9z"/>
			<path class="st2" d="M294.1,247.9c0-0.1,0.1-0.3,0.3-0.3h0.4c0.1,0,0.2,0.1,0.2,0.1l0.2,0.5c0.2-0.3,0.7-0.8,1.6-0.8
				c0.8,0,1.2,0.3,1.6,0.8c0.2-0.2,0.8-0.8,1.7-0.8c1.7,0,2.1,1.1,2.1,2.5v2.7c0,0.1-0.1,0.3-0.3,0.3H301c-0.1,0-0.3-0.1-0.3-0.3
				V250c0-0.7-0.3-1.1-0.9-1.1c-0.8,0-1,0.6-1,0.6s0,0.3,0,0.5v2.8c0,0.1-0.1,0.3-0.3,0.3h-0.9c-0.1,0-0.3-0.1-0.3-0.3V250
				c0-0.7-0.2-1.1-0.9-1.1c-0.7,0-0.9,0.5-1,0.8v3c0,0.1-0.1,0.3-0.3,0.3h-0.9c-0.1,0-0.3-0.1-0.3-0.3v-4.8H294.1z"/>
			<path class="st2" d="M303.4,245.8c0-0.5,0.4-0.9,0.9-0.9s0.9,0.4,0.9,0.9s-0.4,0.9-0.9,0.9S303.4,246.3,303.4,245.8z
				 M303.6,247.9c0-0.1,0.1-0.3,0.3-0.3h0.9c0.1,0,0.3,0.1,0.3,0.3v4.8c0,0.1-0.1,0.3-0.3,0.3h-0.9c-0.1,0-0.3-0.1-0.3-0.3V247.9z"
				/>
			<path class="st2" d="M308.9,247.5c0.5,0,1,0.1,1.3,0.2v-2.6c0-0.1,0.1-0.3,0.3-0.3h0.9c0.1,0,0.3,0.1,0.3,0.3v7.5
				c0,0.1-0.1,0.3-0.3,0.3H311c-0.1,0-0.2-0.1-0.3-0.3l-0.1-0.4c0,0-0.6,0.8-1.7,0.8c-1.4,0-2.5-1.2-2.5-2.8
				C306.2,248.8,307.3,247.5,308.9,247.5z M310.1,249.1c0,0-0.4-0.3-1.1-0.3c-0.9,0-1.3,0.7-1.3,1.5c0,0.7,0.4,1.5,1.3,1.5
				c0.7,0,1.1-0.4,1.2-0.7v-2H310.1z"/>
			<path class="st2" d="M312.8,245.8c0-0.5,0.4-0.9,0.9-0.9s0.9,0.4,0.9,0.9s-0.4,0.9-0.9,0.9S312.8,246.3,312.8,245.8z M313,247.9
				c0-0.1,0.1-0.3,0.3-0.3h0.9c0.1,0,0.3,0.1,0.3,0.3v4.8c0,0.1-0.1,0.3-0.3,0.3h-0.9c-0.1,0-0.3-0.1-0.3-0.3V247.9z"/>
			<path class="st2" d="M316.3,248.9h-0.5c-0.1,0-0.2-0.1-0.2-0.3v-0.8c0-0.1,0.1-0.3,0.2-0.3h0.5V246c0-0.1,0.1-0.3,0.3-0.3h0.9
				c0.1,0,0.2,0.1,0.2,0.3v1.5h1.2c0.1,0,0.3,0.1,0.3,0.3v0.8c0,0.1-0.1,0.3-0.3,0.3h-1.2v2.4c0,0.4,0.2,0.4,0.4,0.4
				c0.2,0,0.7-0.1,0.8-0.2c0.1-0.1,0.3,0,0.3,0.1l0.1,0.7c0,0.1,0,0.2-0.1,0.3c-0.2,0.1-0.9,0.3-1.5,0.3c-1.2,0-1.5-0.8-1.5-1.7
				v-2.3H316.3z"/>
			<path class="st2" d="M322.8,247.5c1.4,0,2.4,1,2.4,2.5c0,0.1,0,0.3,0,0.3c0,0.1-0.1,0.2-0.3,0.2h-3.4c0,0.7,0.6,1.2,1.3,1.2
				c0.5,0,0.9-0.2,1.1-0.4c0.1-0.1,0.3-0.1,0.3,0l0.4,0.6c0.1,0.1,0.1,0.2,0,0.3c-0.5,0.4-1.1,0.7-2,0.7c-1.6,0-2.7-1.3-2.7-2.8
				C320.1,248.8,321.2,247.5,322.8,247.5z M321.8,246.8l-0.2-0.4c0-0.1,0-0.2,0.1-0.2l1.9-1.1c0.1-0.1,0.2-0.1,0.3,0l0.3,0.6
				c0.1,0.1,0,0.3-0.1,0.3l-2,0.9C322,247,321.9,246.9,321.8,246.8z M323.8,249.6c0-0.5-0.4-0.9-1-0.9s-1.1,0.4-1.1,0.9H323.8z"/>
		</g>
	</g>
	<line class="st7" x1="260.6" y1="223.7" x2="218.3" y2="208"/>
</g>
<g>
	<circle class="st7" cx="231.6" cy="122.8" r="5.3"/>
	<g>
		<g>
			<circle class="st8" cx="325.8" cy="133" r="12.2"/>
			<g class="st9">
				<path class="st0" d="M322.7,135.4l0.7-0.7c0.1-0.1,0.3-0.1,0.4,0c0.4,0.4,0.9,0.8,1.8,0.8s1.5-0.6,1.5-1.3c0-0.9-0.7-1.5-2-1.5
					h-0.8c-0.2,0-0.3-0.1-0.3-0.3v-0.9c0-0.2,0.1-0.3,0.3-0.3h0.8c1.2,0,1.8-0.6,1.8-1.3c0-0.8-0.7-1.3-1.4-1.3
					c-0.8,0-1.2,0.4-1.5,0.7c-0.1,0.1-0.3,0.1-0.4,0l-0.7-0.7c-0.1-0.1-0.1-0.3,0-0.4c0.4-0.5,1.3-1.3,2.7-1.3c1.7,0,3.1,1,3.1,2.6
					c0,1.2-0.8,1.9-1.5,2.2v0.1c0.8,0.3,1.7,1.1,1.7,2.3c0,1.6-1.3,2.8-3.3,2.8c-1.8,0-2.7-0.9-3-1.3
					C322.6,135.6,322.6,135.5,322.7,135.4z"/>
			</g>
		</g>
		<g class="st9">
			<path class="st2" d="M313.2,149.1c-0.1-0.1,0-0.3,0.2-0.3h1.2c0.1,0,0.2,0.1,0.2,0.1l2.2,4.9h0.1l2.2-4.9c0-0.1,0.1-0.1,0.2-0.1
				h1.2c0.2,0,0.3,0.1,0.2,0.3l-3.6,7.7c0,0.1-0.1,0.1-0.2,0.1H317c-0.1,0-0.2-0.1-0.2-0.1L313.2,149.1z"/>
			<path class="st2" d="M323,151.4c1.5,0,2.7,1.3,2.7,2.8s-1.2,2.8-2.7,2.8s-2.7-1.3-2.7-2.8S321.5,151.4,323,151.4z M323,155.6
				c0.8,0,1.4-0.7,1.4-1.5s-0.6-1.5-1.4-1.5s-1.4,0.6-1.4,1.5C321.7,155,322.3,155.6,323,155.6z"/>
			<path class="st2" d="M326.7,149.7c0-0.5,0.4-0.9,0.9-0.9s0.9,0.4,0.9,0.9s-0.4,0.9-0.9,0.9C327.1,150.6,326.7,150.2,326.7,149.7z
				 M326.9,151.8c0-0.1,0.1-0.3,0.3-0.3h0.9c0.1,0,0.3,0.1,0.3,0.3v4.8c0,0.1-0.1,0.3-0.3,0.3h-0.9c-0.1,0-0.3-0.1-0.3-0.3V151.8z"
				/>
			<path class="st2" d="M329.8,149c0-0.1,0.1-0.3,0.3-0.3h0.9c0.1,0,0.3,0.1,0.3,0.3v7.5c0,0.1-0.1,0.3-0.3,0.3h-0.9
				c-0.1,0-0.3-0.1-0.3-0.3V149z"/>
			<path class="st2" d="M335.1,151.4c1.4,0,2.4,1,2.4,2.5c0,0.1,0,0.3,0,0.3c0,0.1-0.1,0.2-0.3,0.2h-3.4c0,0.7,0.6,1.2,1.3,1.2
				c0.5,0,0.9-0.2,1.1-0.4c0.1-0.1,0.3-0.1,0.3,0l0.4,0.6c0.1,0.1,0.1,0.2,0,0.3c-0.5,0.4-1.1,0.7-2,0.7c-1.6,0-2.7-1.3-2.7-2.8
				C332.4,152.7,333.5,151.4,335.1,151.4z M336.1,153.5c0-0.5-0.4-0.9-1-0.9s-1.1,0.4-1.1,0.9H336.1z"/>
		</g>
		<g class="st9">
			<path class="st2" d="M296,163.4c1.4,0,2.4,1,2.4,2.5c0,0.1,0,0.3,0,0.3c0,0.1-0.1,0.2-0.3,0.2h-3.4c0,0.7,0.6,1.2,1.3,1.2
				c0.5,0,0.9-0.2,1.1-0.4c0.1-0.1,0.3-0.1,0.3,0l0.4,0.6c0.1,0.1,0.1,0.2,0,0.3c-0.5,0.4-1.1,0.7-2,0.7c-1.6,0-2.7-1.3-2.7-2.8
				C293.3,164.7,294.4,163.4,296,163.4z M297,165.5c0-0.5-0.4-0.9-1-0.9s-1.1,0.4-1.1,0.9H297z"/>
			<path class="st2" d="M299,168.4l1.7-2.3l-1.6-2.2c-0.1-0.2,0-0.4,0.2-0.4h1c0.2,0,0.3,0,0.4,0.2l0.9,1.4l0,0l0.9-1.4
				c0.1-0.2,0.2-0.2,0.4-0.2h1.1c0.2,0,0.3,0.2,0.1,0.4l-1.6,2.2l1.6,2.3c0.1,0.2,0.1,0.4-0.1,0.4h-1c-0.2,0-0.3-0.1-0.4-0.2l-1-1.5
				l0,0l-1,1.6c0,0.1-0.1,0.1-0.2,0.1h-1.2C298.9,168.8,298.9,168.6,299,168.4z"/>
			<path class="st2" d="M305.7,164.8h-0.5c-0.1,0-0.2-0.1-0.2-0.3v-0.8c0-0.1,0.1-0.3,0.2-0.3h0.5V162c0-0.1,0.1-0.3,0.3-0.3h0.9
				c0.1,0,0.2,0.1,0.2,0.3v1.5h1.2c0.1,0,0.3,0.1,0.3,0.3v0.8c0,0.1-0.1,0.3-0.3,0.3h-1.2v2.4c0,0.4,0.2,0.4,0.4,0.4
				c0.2,0,0.7-0.1,0.8-0.2c0.1-0.1,0.3,0,0.3,0.1l0.1,0.7c0,0.1,0,0.2-0.1,0.3c-0.2,0.1-0.9,0.3-1.5,0.3c-1.2,0-1.5-0.8-1.5-1.7
				v-2.4H305.7z"/>
			<path class="st2" d="M312.2,163.4c1.4,0,2.4,1,2.4,2.5c0,0.1,0,0.3,0,0.3c0,0.1-0.1,0.2-0.3,0.2h-3.4c0,0.7,0.6,1.2,1.3,1.2
				c0.5,0,0.9-0.2,1.1-0.4c0.1-0.1,0.3-0.1,0.3,0l0.4,0.6c0.1,0.1,0.1,0.2,0,0.3c-0.5,0.4-1.1,0.7-2,0.7c-1.6,0-2.7-1.3-2.7-2.8
				C309.5,164.7,310.6,163.4,312.2,163.4z M311.2,162.7l-0.2-0.4c0-0.1,0-0.2,0.1-0.2l1.9-1.1c0.1-0.1,0.2-0.1,0.3,0l0.3,0.6
				c0.1,0.1,0,0.3-0.1,0.3l-2,0.9C311.3,162.8,311.3,162.8,311.2,162.7z M313.2,165.5c0-0.5-0.4-0.9-1-0.9s-1.1,0.4-1.1,0.9H313.2z"
				/>
			<path class="st2" d="M315.7,163.8c0-0.1,0.1-0.3,0.3-0.3h0.4c0.1,0,0.2,0.1,0.2,0.2l0.2,0.5c0.2-0.3,0.7-0.8,1.5-0.8
				c0.6,0,1.2,0.2,1,0.5l-0.3,0.8c-0.1,0.1-0.2,0.2-0.3,0.1c-0.1-0.1-0.3-0.1-0.5-0.1c-0.6,0-0.9,0.4-1,0.6v3.3
				c0,0.2-0.1,0.3-0.3,0.3H316c-0.1,0-0.3-0.1-0.3-0.3V163.8z"/>
			<path class="st2" d="M319.9,161.7c0-0.5,0.4-0.9,0.9-0.9s0.9,0.4,0.9,0.9s-0.4,0.9-0.9,0.9C320.3,162.6,319.9,162.2,319.9,161.7z
				 M320.2,163.8c0-0.1,0.1-0.3,0.3-0.3h0.9c0.1,0,0.3,0.1,0.3,0.3v4.8c0,0.1-0.1,0.3-0.3,0.3h-0.9c-0.1,0-0.3-0.1-0.3-0.3V163.8z"
				/>
			<path class="st2" d="M325.4,163.4c1.4,0,2.4,1,2.4,2.5c0,0.1,0,0.3,0,0.3c0,0.1-0.1,0.2-0.3,0.2h-3.4c0,0.7,0.6,1.2,1.3,1.2
				c0.5,0,0.9-0.2,1.1-0.4c0.1-0.1,0.3-0.1,0.3,0l0.4,0.6c0.1,0.1,0.1,0.2,0,0.3c-0.5,0.4-1.1,0.7-2,0.7c-1.6,0-2.7-1.3-2.7-2.8
				C322.7,164.7,323.8,163.4,325.4,163.4z M326.4,165.5c0-0.5-0.4-0.9-1-0.9s-1.1,0.4-1.1,0.9H326.4z"/>
			<path class="st2" d="M328.9,163.8c0-0.1,0.1-0.3,0.3-0.3h0.9c0.1,0,0.3,0.1,0.3,0.3v2.8c0,0.7,0.2,1.1,0.9,1.1
				c0.6,0,0.9-0.5,0.9-1v-2.9c0-0.2,0.1-0.3,0.3-0.3h0.9c0.1,0,0.3,0.1,0.3,0.3v4.8c0,0.1-0.1,0.3-0.3,0.3H333
				c-0.1,0-0.2-0.1-0.3-0.2l-0.1-0.4c-0.3,0.3-0.8,0.8-1.6,0.8c-1.6,0-2-1-2-2.4L328.9,163.8L328.9,163.8z"/>
			<path class="st2" d="M335.1,163.8c0-0.1,0.1-0.3,0.3-0.3h0.4c0.1,0,0.2,0.1,0.2,0.2l0.2,0.5c0.2-0.3,0.7-0.8,1.5-0.8
				c0.6,0,1.2,0.2,1,0.5l-0.3,0.8c-0.1,0.1-0.2,0.2-0.3,0.1c-0.1-0.1-0.3-0.1-0.5-0.1c-0.6,0-0.9,0.4-1,0.6v3.3
				c0,0.2-0.1,0.3-0.3,0.3h-0.9c-0.1,0-0.3-0.1-0.3-0.3L335.1,163.8L335.1,163.8z"/>
		</g>
	</g>
	<line class="st7" x1="313.7" y1="131.4" x2="237" y2="122.8"/>
</g>
<line class="st11" x1="47.4" y1="106.9" x2="49.6" y2="101.5"/>
<line class="st12" x1="47.4" y1="107" x2="53.2" y2="108.8"/>
<line class="st12" x1="77" y1="93.3" x2="75.2" y2="97.7"/>
<line class="st12" x1="71.9" y1="91.5" x2="76.8" y2="93.2"/>
<g>
	<g>
		<line class="st13" x1="47.6" y1="106.8" x2="76.7" y2="93.4"/>
		<g>
			<polygon class="st2" points="52.3,109.1 52.6,108.2 47.9,106.7 49.8,102.1 48.9,101.7 46.6,107.3 			"/>
		</g>
		<g>
			<polygon class="st2" points="75.4,98.5 74.5,98.1 76.4,93.5 71.7,92 72,91.1 77.7,92.9 			"/>
		</g>
	</g>
</g>
</svg>
