<?xml version="1.0" encoding="utf-8"?>
<!-- Generator: Adobe Illustrator 27.0.1, SVG Export Plug-In . SVG Version: 6.00 Build 0)  -->
<svg version="1.1" id="Layer_1" xmlns="http://www.w3.org/2000/svg" xmlns:xlink="http://www.w3.org/1999/xlink" x="0px" y="0px"
	 viewBox="0 0 369.5 283.5" style="enable-background:new 0 0 369.5 283.5;" xml:space="preserve">
<style type="text/css">
	.st0{fill:#FFFFFF;}
</style>
<g>
	<path class="st0" d="M322.9,11.7H46.1c-18,0-32.6,14.6-32.6,32.7v195.3c0,18,14.6,32.6,32.6,32.6h276.7c18,0,32.6-14.6,32.6-32.6
		V44.4C355.5,26.4,340.9,11.7,322.9,11.7 M339.2,239.6c0,9-7.3,16.3-16.3,16.3H46.1c-9,0-16.3-7.3-16.3-16.3V44.4
		c0-9,7.3-16.3,16.3-16.3h276.7c9,0,16.3,7.3,16.3,16.3V239.6z"/>
	<path class="st0" d="M293.9,173.1H75.1c-3.4,0-6.1,2.7-6.1,6.1c0,3.4,2.7,6.1,6.1,6.1h218.8c3.4,0,6.1-2.7,6.1-6.1
		C300,175.8,297.3,173.1,293.9,173.1"/>
	<path class="st0" d="M176,201.7H75.1c-3.4,0-6.1,2.7-6.1,6.1c0,3.4,2.7,6.1,6.1,6.1H176c3.4,0,6.1-2.7,6.1-6.1
		C182.1,204.5,179.3,201.7,176,201.7"/>
	<path class="st0" d="M293.9,201.7h-49c-3.4,0-6.1,2.7-6.1,6.1c0,3.4,2.7,6.1,6.1,6.1h49c3.4,0,6.1-2.7,6.1-6.1
		C300,204.5,297.3,201.7,293.9,201.7"/>
	<g>
		<path class="st0" d="M115.5,126.5c0.4,0,0.7,0.1,1.1,0.2c0.4,0.1,0.7,0.4,1.1,0.7l6.1,6.5c-2.7,3.5-6.1,6.2-10.1,7.9
			c-4,1.8-8.8,2.7-14.3,2.7c-5.1,0-9.6-0.9-13.6-2.6c-4-1.7-7.4-4.1-10.2-7.1c-2.8-3-4.9-6.6-6.4-10.8c-1.5-4.2-2.2-8.7-2.2-13.6
			c0-5,0.8-9.5,2.4-13.7c1.6-4.2,3.9-7.8,6.8-10.8c2.9-3,6.4-5.4,10.5-7c4.1-1.7,8.6-2.5,13.5-2.5c2.5,0,4.9,0.2,7.1,0.7
			c2.2,0.4,4.3,1.1,6.2,1.8c1.9,0.8,3.7,1.7,5.3,2.8c1.6,1.1,3.1,2.3,4.3,3.6l-5.2,7c-0.3,0.4-0.7,0.8-1.2,1.2
			c-0.5,0.4-1.1,0.5-1.9,0.5c-0.5,0-1.1-0.1-1.6-0.4c-0.5-0.2-1-0.5-1.6-0.9c-0.6-0.4-1.2-0.7-1.8-1.1c-0.7-0.4-1.4-0.8-2.3-1.1
			c-0.9-0.4-2-0.6-3.2-0.9c-1.2-0.2-2.6-0.4-4.2-0.4c-2.6,0-4.9,0.5-7,1.4c-2.1,0.9-4,2.3-5.5,4.1c-1.5,1.8-2.7,4-3.6,6.7
			c-0.8,2.6-1.3,5.7-1.3,9c0,3.4,0.5,6.5,1.4,9.1c0.9,2.7,2.2,4.9,3.8,6.7c1.6,1.8,3.5,3.2,5.6,4.1c2.1,0.9,4.4,1.4,6.9,1.4
			c1.4,0,2.7-0.1,3.8-0.2c1.2-0.1,2.2-0.4,3.3-0.7c1-0.3,2-0.7,2.8-1.3c0.9-0.5,1.8-1.2,2.7-2c0.4-0.3,0.8-0.6,1.2-0.8
			C114.6,126.6,115,126.5,115.5,126.5z"/>
		<path class="st0" d="M170.7,131.4v12.4h-40.2V77.1H146v54.3H170.7z"/>
		<path class="st0" d="M205,131.5c2.1,0,3.9-0.3,5.6-1c1.6-0.7,3-1.7,4.1-3c1.1-1.3,2-2.8,2.6-4.7c0.6-1.8,0.9-3.9,0.9-6.3V77.1
			h15.5v39.5c0,4.1-0.7,7.8-2,11.3c-1.3,3.4-3.2,6.4-5.7,8.8c-2.5,2.5-5.5,4.4-9,5.8c-3.5,1.4-7.5,2.1-11.9,2.1
			c-4.5,0-8.5-0.7-12-2.1c-3.5-1.4-6.5-3.3-9-5.8c-2.5-2.5-4.4-5.4-5.7-8.8c-1.3-3.4-2-7.2-2-11.3V77.1h15.5v39.4
			c0,2.3,0.3,4.4,0.9,6.3c0.6,1.8,1.5,3.4,2.6,4.7c1.1,1.3,2.5,2.3,4.1,3C201.1,131.2,202.9,131.5,205,131.5z"/>
		<path class="st0" d="M270.3,77.1c4.6,0,8.5,0.4,11.8,1.3c3.2,0.9,5.9,2.1,7.9,3.6c2,1.6,3.5,3.4,4.5,5.7c0.9,2.2,1.4,4.7,1.4,7.5
			c0,1.5-0.2,2.9-0.6,4.3c-0.4,1.4-1.1,2.7-2,3.9c-0.9,1.2-2.1,2.3-3.5,3.3c-1.4,1-3.2,1.9-5.2,2.6c4.4,1.1,7.6,2.8,9.7,5.2
			c2.1,2.4,3.2,5.5,3.2,9.2c0,2.8-0.5,5.5-1.6,7.9c-1.1,2.4-2.7,4.6-4.8,6.4c-2.1,1.8-4.7,3.2-7.9,4.3c-3.1,1-6.7,1.5-10.7,1.5
			h-26.6V77.1H270.3z M261.2,88.7v16.5h8.1c1.7,0,3.2-0.1,4.6-0.4c1.4-0.2,2.5-0.7,3.5-1.3s1.7-1.4,2.2-2.5c0.5-1.1,0.8-2.4,0.8-4
			c0-1.6-0.2-2.9-0.6-4c-0.4-1.1-1-1.9-1.8-2.5c-0.8-0.6-1.9-1.1-3.1-1.4c-1.3-0.3-2.8-0.4-4.5-0.4H261.2z M272.1,132.1
			c2,0,3.7-0.3,5-0.8c1.3-0.5,2.3-1.2,3-2c0.7-0.8,1.2-1.8,1.5-2.8c0.3-1,0.4-2.1,0.4-3.2c0-1.2-0.2-2.3-0.5-3.3
			c-0.3-1-0.9-1.8-1.6-2.5c-0.8-0.7-1.8-1.2-3.1-1.6c-1.3-0.4-2.9-0.5-4.8-0.5h-10.8v16.6H272.1z"/>
	</g>
</g>
</svg>
