<?xml version="1.0" encoding="utf-8"?>
<!-- Generator: Adobe Illustrator 27.0.1, SVG Export Plug-In . SVG Version: 6.00 Build 0)  -->
<svg version="1.1" id="Layer_1" xmlns="http://www.w3.org/2000/svg" xmlns:xlink="http://www.w3.org/1999/xlink" x="0px" y="0px"
	 viewBox="0 0 295.5 283.5" style="enable-background:new 0 0 295.5 283.5;" xml:space="preserve">
<style type="text/css">
	.st0{fill:#FFFFFF;}
</style>
<path class="st0" d="M147.5,16.6c-52.9,0-96,43.1-96,96c0,23.1,11.2,51.4,33.4,84.1c21.4,31.7,47,58.4,57,68.4
	c1.5,1.5,3.5,2.3,5.5,2.3c2,0,4-0.8,5.5-2.3c10-10,35.6-36.7,57-68.3c22.2-32.8,33.5-61.1,33.5-84.2
	C243.5,59.7,200.4,16.6,147.5,16.6 M197.1,188c-17.5,25.8-37.8,48.2-49.6,60.4c-11.8-12.2-32.1-34.6-49.6-60.4
	c-20.1-29.7-30.7-55.8-30.7-75.3c0-44.3,36-80.3,80.3-80.3c44.3,0,80.3,36,80.3,80.3C227.8,132.2,217.2,158.3,197.1,188"/>
<path class="st0" d="M147.5,82.8c-10.8,0-19.6,8.8-19.6,19.6s8.8,19.6,19.6,19.6c10.8,0,19.6-8.8,19.6-19.6S158.3,82.8,147.5,82.8"
	/>
</svg>
