<?xml version="1.0" encoding="utf-8"?>
<!-- Generator: Adobe Illustrator 21.1.0, SVG Export Plug-In . SVG Version: 6.00 Build 0)  -->
<svg version="1.1" id="Calque_1" xmlns="http://www.w3.org/2000/svg" xmlns:xlink="http://www.w3.org/1999/xlink" x="0px" y="0px"
	 viewBox="0 0 492.3 493.2" style="enable-background:new 0 0 492.3 493.2;" xml:space="preserve">
<style type="text/css">
	.st0{fill:#FFFFFF;}
	.st1{display:none;}
	.st2{display:inline;}
	.st3{display:inline;fill:none;}
</style>
<g id="Qp0XWd_1_">
	<g>
		<path class="st0" d="M484.5,283.4c-0.4,1.3-0.9,2.7-1.2,4c-5.9,21.7-20.2,34-41.7,38.3c-3.1,10-5.5,20.3-9.4,30.1
			c-27.5,68.5-77.4,111.6-149.9,125.8c-105.6,20.7-207.3-47.4-231-153c-0.5-2.3-1.7-3.1-3.8-3.7c-21.9-5.3-35.2-19-39.3-41.2
			c-4.9-26,15-53.4,41.2-56.5c5.2-0.6,7-2.6,8.8-7.3c19.3-52.8,54.6-91.1,105.4-115.1c0.8-0.4,1.7-0.7,2.5-1.1
			c0.2-0.1,0.3-0.4,0,0.1c-2.1-8.4-4.6-16.2-5.8-24.2c-4.7-31.4,17.3-62.6,48.4-69.5c2.4-0.5,4.8-1.1,7.3-1.7c4.2,0,8.5,0,12.7,0
			c1,0.3,2,0.7,3,0.8c9.5,1.6,18.3,4.9,26,10.9c19.4,15.1,19.5,42.7,0.2,57.9c-15.1,11.9-42,11.9-48.5-15.6
			c-0.9-3.8-0.6-8.2,0.3-12.1c1.2-5.5,6.2-8.1,11.5-7.1c5.2,1,8.4,5.7,7.8,11.2c-1.1,8.9,4.7,13.4,13,9.9c6.2-2.6,9.2-7.6,10.1-14.1
			c0.9-6.6-2.3-11.4-7.3-14.8c-12.1-8.3-25.1-9.1-38.5-3.5c-22.7,9.5-32.4,35-22.6,59.2c2.1,5.2,2.1,5.1,7.3,3.6
			c30.3-8.7,61.1-10.7,91.9-4.2c74.2,15.7,124.5,59.7,151.2,130.7c1.3,3.6,2.8,5.1,6.7,5.6c21.3,2.6,37.6,17.3,42.7,38.1
			c0.3,1.4,0.8,2.7,1.2,4.1C484.5,273.9,484.5,278.6,484.5,283.4z M178.3,120.5C90.9,155.3,41.4,257.4,79.9,353.4
			c38.6,96.3,152,139.2,245.1,93.3c93-45.9,127.9-161.7,75.2-250.9c-26.5-44.9-65.7-73.2-116.7-84.6c-27.8-6.2-55.6-5.4-83.3,2.5
			c4.4,3.2,8.8,6.1,13.6,8.3c9.9,4.4,20.2,5.7,31,4.2c6.3-0.9,11,2.8,11.8,8.5c0.8,5.8-2.8,10.3-9.1,11.3
			c-11.8,1.8-23.5,0.9-34.9-2.9C199.1,138.7,187.7,131,178.3,120.5z M443.9,304.2c13-3.7,22.1-17.7,20.5-30.6
			c-1.7-13.6-12.3-25.5-23.3-25.8C444.6,266.4,445.6,285.1,443.9,304.2z M50.3,247.8c-11.3,1-21.7,13.3-22.8,26.6
			c-1,12.8,8.1,26.4,20,29.4C45.5,285,47,266.4,50.3,247.8z"/>
		<path class="st0" d="M245.5,405.7c-13.8-0.3-27.3-2.2-39.8-8.6c-6.8-3.5-12.9-7.9-17.6-13.9c-4.5-5.6-4.1-11.6,0.8-15.4
			c4.7-3.6,10.5-2.4,14.8,2.9c6.2,7.5,14.7,11,23.9,13c13.1,2.8,26.3,2.7,39.3-0.9c8.3-2.3,15.7-6.1,21-13.4c3.1-4.2,8.9-4.8,13.2-2
			c4.5,3,6.3,8.8,3,13.2c-3.4,4.6-7.5,9-12.2,12.3C278.2,402.8,262.2,405.3,245.5,405.7z"/>
		<path class="st0" d="M176.1,246.4c0,5.6-4.5,10-10.1,9.9s-9.9-4.6-9.8-10.2c0.1-5.5,4.3-9.6,9.9-9.7
			C171.8,236.4,176.1,240.7,176.1,246.4z"/>
		<path class="st0" d="M335.2,246.5c-0.1,5.6-4.5,10-10.1,9.9c-5.5-0.1-10-4.8-9.8-10.3c0.2-5.4,4.6-9.6,10-9.6
			C331,236.5,335.3,240.8,335.2,246.5z"/>
	</g>
</g>
<g id="Bf1aqZ_1_" class="st1">
	<g class="st2">
		<path d="M7.6,281c0-2.9,0-5.8,0-8.7c0.3-0.9,0.6-1.7,0.8-2.6c3.4-22.8,21.6-40.4,44.3-42.5c2.8-0.3,3.7-1.2,4.5-3.7
			c6.9-20.7,17-39.8,30.3-57.2c1.3-1.8,2.7-3.5,4.2-5.5c-8.5-5.3-12-13.5-14.9-22.1c-8.2-24.5-12-49.5-9.4-75.3
			c1.4-13.5,4.6-26.5,12.5-38c5.7-8.3,13.1-14,23.4-15.6c2.3-0.3,4.6-0.9,6.9-1.4c4.8,0,9.5,0,14.3,0c1,0.3,2,0.6,3,0.7
			c22.8,2.2,43.6,9.7,62.6,22.5c12.2,8.3,25.2,15.5,37.9,23c1.4,0.8,3.5,1,5.1,0.6c8.4-2,16.7-2.2,25.1-0.1c1.6,0.4,3.7,0.1,5.1-0.7
			c13.1-7.7,26.3-15.3,38.9-23.6c12.8-8.5,26.4-14.9,41.3-18.4c6.6-1.6,13.4-2.7,20.1-4c6.6,0,13.2,0,19.9,0
			c0.7,0.3,1.5,0.7,2.2,0.7c11.2,1.1,19.5,6.8,25.8,15.9c5.7,8.2,8.9,17.4,10.8,27c4.4,22.2,3.1,44.3-2.1,66.1
			c-3.7,15.5-6.1,31.9-20.4,42.8c16.1,19.8,27.9,41.7,35.5,65.7c0.6,0.1,0.9,0.2,1.1,0.2c26,1.5,45.6,20.3,47.6,46.6
			c1.8,24.6-15.1,46.2-38,51.2c-4.6,1-6,3.2-6.9,7.3c-23,99.7-121.7,170.6-231.1,149.6c-78.9-15.1-138.8-74.3-156.5-152.8
			c-0.5-2.4-1.6-3-3.8-3.5c-19-4.5-31.8-16-37.8-34.7C8.9,287.5,8.4,284.2,7.6,281z M424.4,286.7c0.4-0.1,0.7-0.1,1.1-0.2
			c-1.8-13.3-2.8-26.8-5.6-40c-6.2-29-19.6-54.6-39.1-76.9c-0.9-1-2.6-2.1-3.8-2c-14.2,1-27.9-1.8-41.5-5.5
			c-25.8-7.2-50-18.6-73.8-30.6c-1.7-0.9-4.3-1.2-6.2-0.6c-6.2,1.8-12.3,2.1-18.3-0.2c-2.5-0.9-4.4-0.5-6.7,0.5
			c-18.7,8.5-37.3,17.5-56.4,25.1c-18.3,7.4-37.5,12.3-57.5,11.6c-3.5-0.1-5.6,1-7.6,3.5c-36.6,45-49.5,96.1-37.8,152.8
			c18.9,91.7,109.4,157.3,209.2,137.7C364.8,445.3,424.3,372.2,424.4,286.7z M395.5,132.4c0.7-2.1,1.2-3.3,1.6-4.6
			c4.7-14.7,7.2-29.8,7.7-45.2c0.4-12.6-0.6-25.1-5-37.1c-4.9-13.3-10.5-17.4-24.6-17.2c-22,0.3-42.4,6.2-60.9,18.6
			c-10.9,7.3-22.2,13.9-33.3,20.9c-1.1,0.7-2.2,1.3-3.3,2c4.8,14,5.5,18.8,0.4,38.1C319.1,106.5,357.8,116.4,395.5,132.4z
			 M213.9,107.9c-4.6-12.9-5.8-25.4-0.1-37.4c-12.7-8.1-25.3-16-37.7-24c-20.1-13-42-18.9-65.9-17.5c-5.8,0.3-10.9,2.3-13.5,7.6
			c-3.1,6.3-6.3,12.9-7.8,19.7c-3.9,18-2.6,36.1,1,54c1.5,7.5,3.7,14.8,5.7,22.7C133.7,116.4,172.5,107.1,213.9,107.9z M261.5,88.7
			c0.2-7.9-1.9-12.6-7.9-13.7c-5-0.9-10.4-0.7-15.5,0c-4.6,0.6-7.3,4.4-7.8,8.9c-1.1,9.4,1.4,17.8,8.1,24.7
			c5.4,5.4,11.4,5.1,16.4-0.8C259.4,102.2,261.3,95.7,261.5,88.7z M440.8,247.9c3.4,18.7,4.8,37.5,2.9,56.5
			c11.6-2.5,20.7-15.2,20.4-28.2C463.9,262.2,454.1,250.2,440.8,247.9z M49.4,248.2c-12.1,2.6-21.7,15-21.5,28.8
			c0.2,12.5,9.2,25.1,18.6,26.7C47.4,285.3,48.4,266.8,49.4,248.2z M187,129.5c-25.2,1.6-49.2,8-72.4,17.9
			C140.5,148.9,163.7,139.3,187,129.5z M304,129c23.5,9.7,46.8,19.9,73.1,18.2C353.7,137.3,329.5,130.8,304,129z"/>
		<path d="M242.4,405.8c-11,0.1-24.9-1.9-37.3-9c-6.3-3.6-12-8.6-17.1-13.9c-4.6-4.7-3.7-11,0.8-14.7c4.7-3.7,10.5-2.7,14.9,2.6
			c6,7.3,14.2,10.9,23.1,12.9c15.3,3.4,30.5,3.1,45.3-2.5c6.2-2.3,11.5-5.9,15.5-11.3c3.4-4.5,9.4-5.3,13.8-2.1
			c4.4,3.2,6,9.4,2.3,13.6c-4.4,5.1-9.4,10.1-15.1,13.7C275.6,403.6,260.8,405.8,242.4,405.8z"/>
		<path d="M335.1,246.8c0,5.6-4.6,10.1-10,10c-5.3-0.1-9.8-4.6-9.8-9.9c-0.1-5.5,4.4-10.2,9.9-10.2
			C330.6,236.7,335.1,241.2,335.1,246.8z"/>
		<path d="M176.2,246.9c0,5.6-4.6,10.1-10.1,10c-5.3-0.2-9.7-4.6-9.8-10c0-5.5,4.5-10.2,10-10.2
			C171.8,236.7,176.2,241.3,176.2,246.9z"/>
	</g>
</g>
<g class="st1">
	<path class="st3" d="M393.1,350.3c12.4,9.9,27.9,12.6,42.3,7.6c14.6-5.1,25.6-17.6,29.3-33.5c4.5-19.1,3.8-39.6-2.2-64.3
		c-3.6-14.8-9.1-29.3-16.8-44.2c0,2.1,0,4.1,0,6.2c0.1,10.6,0.1,21.6-0.2,32.3c-0.5,17.1-3.5,31.7-9.1,44.4
		c-7.8,17.6-20,27.4-36.4,29.1c-5.6,0.6-11.3-0.1-16.9-0.8c-1.7-0.2-3.4-0.4-5-0.6C379.3,333.3,385.5,344.3,393.1,350.3z"/>
	<path class="st2" d="M352.8,141.8c14.1-6.3,29.8-10.2,49.3-12c8.6-0.8,17.4-1.2,25.9-1.5c4.6-0.2,9.4-0.4,14.1-0.6
		c5.5-0.3,9.7-4.6,9.7-10c0-5.5-4.3-9.8-9.7-9.9c-7.7-0.1-16.4-0.2-24.8,0.3c-23.2,1.4-47.3-0.1-71.6-4.5
		c-10.6-1.9-18.3-5.7-25.1-12.2c-6-5.8-14.2-10.4-21.7-12.3c-36.8-9-70.4-2.9-99.9,18.2c-5.1,3.6-10,8.7-15.5,15.9
		c-3.3,4.3-4.3,8.5-2.9,11.9c1.5,3.5,5.7,6,11.5,6.7c6.1,0.8,12.5,2.6,19.6,5.5c3.5,1.4,7.1,4.5,9.4,8.1c6.5,10.2,8.7,21.8,6.4,34.5
		c-3.2,17.6-12.7,32.4-28.9,45.2c-21.6,16.9-47.9,24.2-77.9,21.5c-33.5-2.9-57.8-19.5-72.3-49.4c-3.7-7.6-6.4-15.7-9-23.5
		c-0.6-1.7-1.2-3.4-1.7-5.1c-2.2-6.3-5.1-9.1-9.7-9.5c-4.8-0.4-8.8,2.7-10.6,8c-5.3,16-9.5,29.5-13.1,43.2c-1.5,5.9-2.3,12.2-3,18.3
		c-0.3,2.7-0.7,5.5-1.1,8.3v15.5c0,0.1,0.1,0.2,0.1,0.3c0.3,0.6,0.6,1.3,0.7,2.1c5.7,41.1,28.3,71.1,67,89.2
		c26.7,12.4,56.1,14.4,90,5.9c7.3-1.8,10.6-6.5,9.1-12.8c-0.6-2.4-2-4.4-4-5.6c-2.6-1.6-6.1-2-9.8-1c-17.7,4.3-33.8,5.3-49.3,3.2
		c-23.7-3.2-46.1-15.2-61.6-33c-16.6-19-24.1-43.2-21.2-68.1c0.7-5.9,1.7-11.8,2.6-17.6c0.4-2.7,0.9-5.4,1.3-8.1l0.5-3.2l2.6,1.9
		c2.7,1.9,3.7,3.9,4.6,5.4c12.6,22.4,27.9,37.1,46.9,45c49,20.5,94.3,14.3,134.8-18.2c25-20.2,36.3-45.1,33.5-74.2
		c-2.4-24.3-13-39.6-32.6-47c-0.7-0.3-1.3-0.8-1.7-1.1c-0.1-0.1-0.3-0.3-0.4-0.4l-1.9-1.5l1.9-1.6c0.2-0.2,0.4-0.3,0.6-0.5
		c0.4-0.4,0.8-0.8,1.4-1.1c23.4-14.1,49.2-18.3,76.9-12.4c14,3,23.3,12.6,26,27c2.3,11.9-0.5,23.2-8.2,33.6
		c-6.3,8.4-14.9,15.3-26.3,21c-3.8,1.9-6.1,4.2-6.9,6.9c-0.8,2.8,0,6.3,2.4,10.3l2,3.3c5.4,8.9,11.1,18.1,15.4,27.7
		c11.3,25.5,14.2,51.6,8.3,75.5c-5.9,23.9-20.5,45-42.2,61c-30.8,22.8-68.2,34.1-111,33.7c-34-0.4-63.9-11-88.8-31.6
		c-9.1-7.5-17.1-16.9-23.7-27.7c-1.5-2.4-3.7-4.1-6.3-4.7c-2.5-0.6-5.2-0.2-7.5,1.2c-4.8,3-6.2,8.7-3.4,13.9c1,1.8,2.2,3.7,3.6,5.7
		c23.1,33,55.6,52.9,99.3,60.9c5.5,1,11.2,1.6,16.7,2.2c2.6,0.3,5.1,0.6,7.7,0.9h12.8c1.9-0.2,3.7-0.4,5.6-0.6
		c4-0.4,8.1-0.9,12.1-1.4c36-4.6,65.8-15.5,90.9-33.3c38.8-27.6,58.1-64.3,57.3-109.3c-0.4-24.6-8-49.1-23.1-75
		c-0.6-1-1.2-2.1-1.8-3.2c-0.3-0.5-0.6-1-0.9-1.6l-0.9-1.6l1.5-1c9.8-6.6,21.9-15.9,28.6-29.9C335.4,152.9,342.3,146.5,352.8,141.8z
		"/>
	<path class="st2" d="M487.6,332.2c6.3-22.6,5.9-46.9-1.3-76.6c-8.5-35.4-25.9-69.1-56.5-109.3c-2.8-3.7-7.6-4.8-12-2.7
		s-6.6,6.6-5.6,11.5c6.5,33.7,9.5,60.1,9.7,88.5v0.1v0.1c-0.1,1-0.1,2.3-0.2,3.8c-0.2,4.3-0.5,10.3-1.1,16.2
		c-1,9.2-2.8,19.8-8.3,29.4c-3.4,5.8-7.6,9.2-12.8,10.5c-6.5,1.6-13.4-0.4-18.6-5.5c-5.7-5.5-8.2-13.6-6.6-21.2
		c6.6-30.3,15.5-57.7,27.3-83.6c1.3-2.8,1.8-6.2,1.4-8.9c-0.5-3.9-4.1-7-8.8-7.4c-0.3,0-0.6-0.1-1-0.1c-3.9,0-7.4,2.6-9.5,7.1
		c-10.9,23.4-19.8,49.3-27.2,79.2c-6.1,25.1-7.1,45.8-2.9,65.3c3.9,18.2,14,33.8,28.4,43.8c14.5,10.1,32.4,14,50.4,10.9
		C460.6,378.6,479.6,360.9,487.6,332.2z M390.6,353.4c-8.9-7-16.7-20.9-16.5-29l0.1-2.1l2.1,0.2c2.5,0.2,5.1,0.5,7.5,0.8
		c5.3,0.6,10.8,1.3,16,0.7c15.1-1.6,25.9-10.4,33.2-26.8c5.4-12.3,8.3-26.3,8.8-42.9c0.3-10.7,0.2-21.6,0.2-32.2
		c0-4.7-0.1-9.5-0.1-14.2v-7.7l3.7,6.7c9.9,17.7,16.7,34.8,20.9,52.3c6.1,25,6.8,46.7,2.2,66.2c-4.1,17.2-16,30.8-31.9,36.4
		c-5,1.8-10.3,2.6-15.5,2.6C410.4,364.3,399.6,360.6,390.6,353.4z"/>
	<path class="st2" d="M277.4,127.7c0,3.6,1.3,6.9,3.7,9.3c2.4,2.5,5.8,3.8,9.4,3.8l0,0c7.2,0,13-5.6,13.1-12.8
		c0.1-3.4-1.3-6.7-3.8-9.2s-5.9-4-9.4-4l0,0C283.2,114.8,277.5,120.4,277.4,127.7z"/>
</g>
</svg>
