<?xml version="1.0" encoding="utf-8"?>
<!-- Generator: Adobe Illustrator 21.0.2, SVG Export Plug-In . SVG Version: 6.00 Build 0)  -->
<svg version="1.1" id="Calque_1" xmlns="http://www.w3.org/2000/svg" xmlns:xlink="http://www.w3.org/1999/xlink" x="0px" y="0px"
	 viewBox="0 0 492.3 493.2" style="enable-background:new 0 0 492.3 493.2;" xml:space="preserve">
<style type="text/css">
	.st0{fill:#A5A5A5;}
</style>
<g>
	<path class="st0" d="M351.9,142.6c14-6.3,29.6-10.1,49-11.9c8.5-0.8,17.3-1.1,25.7-1.5c4.6-0.2,9.3-0.4,14-0.6
		c5.5-0.3,9.6-4.6,9.6-9.9c0-5.4-4.3-9.7-9.6-9.8c-7.6-0.1-16.3-0.2-24.6,0.3c-23,1.4-46.9-0.1-71-4.4c-10.5-1.9-18.2-5.6-24.9-12.1
		c-6-5.8-14.1-10.4-21.6-12.2c-36.5-8.9-69.9-2.9-99.1,18c-5.1,3.6-10,8.6-15.4,15.8c-3.3,4.3-4.3,8.5-2.9,11.8
		c1.5,3.5,5.6,5.9,11.4,6.7c6,0.8,12.4,2.5,19.4,5.4c3.5,1.4,7,4.5,9.3,8.1c6.5,10.1,8.6,21.6,6.3,34.3
		c-3.2,17.5-12.6,32.2-28.7,44.8c-21.5,16.8-47.5,24-77.3,21.4c-33.2-2.9-57.3-19.4-71.7-49c-3.6-7.5-6.4-15.5-9-23.3
		c-0.6-1.7-1.1-3.4-1.7-5.1c-2.1-6.2-5-9-9.7-9.4c-4.8-0.4-8.8,2.6-10.5,7.9c-5.2,15.9-9.4,29.2-13,42.9c-1.5,5.9-2.3,12.1-3,18.2
		c-0.3,2.7-0.7,5.5-1.1,8.3v15.3c0,0.1,0.1,0.2,0.1,0.3c0.3,0.6,0.6,1.3,0.7,2.1c5.7,40.8,28.1,70.6,66.5,88.5
		c26.5,12.3,55.7,14.3,89.3,5.9c7.2-1.8,10.5-6.4,9-12.7c-0.6-2.4-1.9-4.4-4-5.6c-2.6-1.6-6-1.9-9.8-1c-17.6,4.2-33.6,5.3-48.9,3.2
		c-23.5-3.2-45.8-15.1-61.1-32.7c-16.5-18.9-23.9-42.9-21-67.6c0.7-5.9,1.7-11.8,2.6-17.5c0.4-2.7,0.9-5.3,1.3-8L27,204l2.6,1.9
		c2.6,1.9,3.7,3.8,4.6,5.4c12.5,22.2,27.7,36.8,46.5,44.7c48.6,20.3,93.6,14.2,133.8-18.1c24.8-20,36-44.8,33.2-73.6
		c-2.3-24.1-12.9-39.3-32.4-46.7c-0.7-0.3-1.2-0.7-1.7-1.1c-0.1-0.1-0.3-0.3-0.4-0.4l-1.9-1.5l1.9-1.6c0.2-0.2,0.4-0.3,0.6-0.5
		c0.4-0.4,0.8-0.8,1.4-1.1c23.2-14,48.9-18.1,76.3-12.3c13.9,3,23.1,12.5,25.8,26.8c2.3,11.8-0.5,23.1-8.2,33.3
		c-6.2,8.4-14.8,15.2-26.1,20.8c-3.8,1.9-6.1,4.2-6.8,6.9c-0.8,2.8,0,6.3,2.4,10.2l2,3.3c5.4,8.8,11,17.9,15.2,27.5
		c11.2,25.4,14.1,51.3,8.2,74.9c-5.9,23.7-20.3,44.6-41.8,60.6c-30.6,22.7-67.7,33.9-110.1,33.4c-33.7-0.4-63.4-10.9-88.2-31.4
		c-9.1-7.5-17-16.7-23.5-27.5c-1.5-2.4-3.7-4.1-6.2-4.7s-5.2-0.2-7.4,1.2c-4.8,2.9-6.2,8.6-3.4,13.8c1,1.8,2.1,3.7,3.6,5.7
		c22.9,32.7,55.2,52.5,98.6,60.5c5.5,1,11.1,1.6,16.6,2.2c2.6,0.3,5.1,0.6,7.7,0.9h12.7c1.8-0.2,3.7-0.4,5.5-0.6
		c3.9-0.4,8-0.9,12-1.4c35.8-4.5,65.3-15.3,90.2-33c38.5-27.3,57.7-63.8,56.9-108.4c-0.4-24.4-7.9-48.7-22.9-74.4
		c-0.6-1-1.2-2.1-1.8-3.2c-0.3-0.5-0.6-1-0.9-1.6l-0.9-1.6l1.5-1c9.7-6.5,21.7-15.8,28.4-29.6C334.7,153.6,341.6,147.2,351.9,142.6z
		"/>
	<path class="st0" d="M485.8,331.5c6.2-22.4,5.8-46.6-1.2-76c-8.5-35.1-25.7-68.6-56.1-108.4c-2.8-3.7-7.6-4.8-11.9-2.7
		c-4.3,2-6.5,6.5-5.6,11.4c6.5,33.4,9.4,59.7,9.6,87.9v0.1v0.1c-0.1,1-0.1,2.3-0.2,3.8c-0.2,4.3-0.4,10.2-1.1,16.1
		c-1,9.1-2.7,19.7-8.2,29.2c-3.3,5.7-7.5,9.2-12.7,10.5c-6.4,1.6-13.3-0.4-18.4-5.4c-5.7-5.5-8.2-13.5-6.5-21
		c6.5-30.1,15.4-57.3,27.1-83c1.3-2.7,1.8-6.1,1.4-8.8c-0.5-3.9-4.1-6.9-8.7-7.4c-0.3,0-0.6-0.1-1-0.1c-3.9,0-7.3,2.6-9.4,7
		c-10.9,23.2-19.7,48.9-27,78.6c-6.1,24.9-7,45.5-2.9,64.8c3.9,18.1,13.9,33.5,28.2,43.5c14.4,10,32.1,13.9,50,10.8
		C459,377.6,477.9,360.1,485.8,331.5z M389.5,352.6c-8.8-7-16.6-20.7-16.4-28.8l0.1-2.1l2.1,0.2c2.5,0.2,5,0.5,7.5,0.8
		c5.3,0.6,10.7,1.3,15.8,0.7c15-1.6,25.7-10.3,32.9-26.6c5.4-12.2,8.2-26.1,8.7-42.6c0.3-10.6,0.2-21.5,0.2-32
		c0-4.7-0.1-9.4-0.1-14.1v-7.6l3.7,6.7c9.8,17.6,16.6,34.6,20.8,51.9c6,24.8,6.7,46.3,2.2,65.7c-4,17.1-15.9,30.6-31.7,36.1
		c-5,1.7-10.2,2.6-15.4,2.6C409.1,363.4,398.4,359.7,389.5,352.6z"/>
	<path class="st0" d="M277.2,128.6c0,3.5,1.3,6.8,3.7,9.2c2.4,2.4,5.7,3.8,9.3,3.8l0,0c7.2,0,12.9-5.6,13-12.7
		c0.1-3.4-1.3-6.6-3.8-9.1s-5.9-4-9.3-4l0,0C283,115.8,277.3,121.4,277.2,128.6z"/>
</g>
</svg>
