<?xml version="1.0" encoding="utf-8"?>
<!-- Generator: Adobe Illustrator 21.0.2, SVG Export Plug-In . SVG Version: 6.00 Build 0)  -->
<svg version="1.1" id="Calque_1" xmlns="http://www.w3.org/2000/svg" xmlns:xlink="http://www.w3.org/1999/xlink" x="0px" y="0px"
	 viewBox="0 0 492.3 493.2" style="enable-background:new 0 0 492.3 493.2;" xml:space="preserve">
<style type="text/css">
	.st0{fill:#A5A5A5;}
</style>
<g id="Bf1aqZ_1_">
	<g>
		<path class="st0" d="M7.6,281c0-2.9,0-5.8,0-8.7c0.3-0.9,0.6-1.7,0.8-2.6c3.4-22.8,21.6-40.4,44.3-42.5c2.8-0.3,3.7-1.2,4.5-3.7
			c6.9-20.7,17-39.8,30.3-57.2c1.3-1.8,2.7-3.5,4.2-5.5c-8.5-5.3-12-13.5-14.9-22.1c-8.2-24.5-12-49.5-9.4-75.3
			c1.4-13.5,4.6-26.5,12.5-38c5.7-8.3,13.1-14,23.4-15.6c2.3-0.3,4.6-0.9,6.9-1.4c4.8,0,9.5,0,14.3,0c1,0.3,2,0.6,3,0.7
			c22.8,2.2,43.6,9.7,62.6,22.5c12.2,8.3,25.2,15.5,37.9,23c1.4,0.8,3.5,1,5.1,0.6c8.4-2,16.7-2.2,25.1-0.1c1.6,0.4,3.7,0.1,5.1-0.7
			c13.1-7.7,26.3-15.3,38.9-23.6c12.8-8.5,26.4-14.9,41.3-18.4c6.6-1.6,13.4-2.7,20.1-4c6.6,0,13.2,0,19.9,0
			c0.7,0.3,1.5,0.7,2.2,0.7c11.2,1.1,19.5,6.8,25.8,15.9c5.7,8.2,8.9,17.4,10.8,27c4.4,22.2,3.1,44.3-2.1,66.1
			c-3.7,15.5-6.1,31.9-20.4,42.8c16.1,19.8,27.9,41.7,35.5,65.7c0.6,0.1,0.9,0.2,1.1,0.2c26,1.5,45.6,20.3,47.6,46.6
			c1.8,24.6-15.1,46.2-38,51.2c-4.6,1-6,3.2-6.9,7.3c-23,99.7-121.7,170.6-231.1,149.6c-78.9-15.1-138.8-74.3-156.5-152.8
			c-0.5-2.4-1.6-3-3.8-3.5c-19-4.5-31.8-16-37.8-34.7C8.9,287.5,8.4,284.2,7.6,281z M424.4,286.7c0.4-0.1,0.7-0.1,1.1-0.2
			c-1.8-13.3-2.8-26.8-5.6-40c-6.2-29-19.6-54.6-39.1-76.9c-0.9-1-2.6-2.1-3.8-2c-14.2,1-27.9-1.8-41.5-5.5
			c-25.8-7.2-50-18.6-73.8-30.6c-1.7-0.9-4.3-1.2-6.2-0.6c-6.2,1.8-12.3,2.1-18.3-0.2c-2.5-0.9-4.4-0.5-6.7,0.5
			c-18.7,8.5-37.3,17.5-56.4,25.1c-18.3,7.4-37.5,12.3-57.5,11.6c-3.5-0.1-5.6,1-7.6,3.5c-36.6,45-49.5,96.1-37.8,152.8
			c18.9,91.7,109.4,157.3,209.2,137.7C364.8,445.3,424.3,372.2,424.4,286.7z M395.5,132.4c0.7-2.1,1.2-3.3,1.6-4.6
			c4.7-14.7,7.2-29.8,7.7-45.2c0.4-12.6-0.6-25.1-5-37.1c-4.9-13.3-10.5-17.4-24.6-17.2c-22,0.3-42.4,6.2-60.9,18.6
			c-10.9,7.3-22.2,13.9-33.3,20.9c-1.1,0.7-2.2,1.3-3.3,2c4.8,14,5.5,18.8,0.4,38.1C319.1,106.5,357.8,116.4,395.5,132.4z
			 M213.9,107.9c-4.6-12.9-5.8-25.4-0.1-37.4c-12.7-8.1-25.3-16-37.7-24c-20.1-13-42-18.9-65.9-17.5c-5.8,0.3-10.9,2.3-13.5,7.6
			c-3.1,6.3-6.3,12.9-7.8,19.7c-3.9,18-2.6,36.1,1,54c1.5,7.5,3.7,14.8,5.7,22.7C133.7,116.4,172.5,107.1,213.9,107.9z M261.5,88.7
			c0.2-7.9-1.9-12.6-7.9-13.7c-5-0.9-10.4-0.7-15.5,0c-4.6,0.6-7.3,4.4-7.8,8.9c-1.1,9.4,1.4,17.8,8.1,24.7
			c5.4,5.4,11.4,5.1,16.4-0.8C259.4,102.2,261.3,95.7,261.5,88.7z M440.8,247.9c3.4,18.7,4.8,37.5,2.9,56.5
			c11.6-2.5,20.7-15.2,20.4-28.2C463.9,262.2,454.1,250.2,440.8,247.9z M49.4,248.2c-12.1,2.6-21.7,15-21.5,28.8
			c0.2,12.5,9.2,25.1,18.6,26.7C47.4,285.3,48.4,266.8,49.4,248.2z M187,129.5c-25.2,1.6-49.2,8-72.4,17.9
			C140.5,148.9,163.7,139.3,187,129.5z M304,129c23.5,9.7,46.8,19.9,73.1,18.2C353.7,137.3,329.5,130.8,304,129z"/>
		<path class="st0" d="M242.4,405.8c-11,0.1-24.9-1.9-37.3-9c-6.3-3.6-12-8.6-17.1-13.9c-4.6-4.7-3.7-11,0.8-14.7
			c4.7-3.7,10.5-2.7,14.9,2.6c6,7.3,14.2,10.9,23.1,12.9c15.3,3.4,30.5,3.1,45.3-2.5c6.2-2.3,11.5-5.9,15.5-11.3
			c3.4-4.5,9.4-5.3,13.8-2.1c4.4,3.2,6,9.4,2.3,13.6c-4.4,5.1-9.4,10.1-15.1,13.7C275.6,403.6,260.8,405.8,242.4,405.8z"/>
		<path class="st0" d="M335.1,246.8c0,5.6-4.6,10.1-10,10c-5.3-0.1-9.8-4.6-9.8-9.9c-0.1-5.5,4.4-10.2,9.9-10.2
			C330.6,236.7,335.1,241.2,335.1,246.8z"/>
		<path class="st0" d="M176.2,246.9c0,5.6-4.6,10.1-10.1,10c-5.3-0.2-9.7-4.6-9.8-10c0-5.5,4.5-10.2,10-10.2
			C171.8,236.7,176.2,241.3,176.2,246.9z"/>
	</g>
</g>
</svg>
