<svg xmlns="http://www.w3.org/2000/svg" width="418.265" height="317.772" viewBox="0 0 418.265 317.772">
  <g id="enterprise" transform="translate(-1415.316 -10518.228)">
    <path id="Path_22834" data-name="Path 22834" d="M1576.309,10836v-135.674l-55.734-15.7h-.042v142.393h-12.826V10688.26l-69.942,19.02V10836Z" fill="#5bbc2e"/>
    <path id="Path_22835" data-name="Path 22835" d="M1811.668,10836v-128.071l-70.479-19.669v138.764h-12.826v-142.393h-.042l-55.734,15.7V10836Z" fill="#2b6d08"/>
    <path id="Path_22836" data-name="Path 22836" d="M1728.344,10551.741v258.368l-103.9-32.683-103.9,32.683v-258.368l103.9-32.682Z" fill="#5bbc2e"/>
    <path id="Path_22837" data-name="Path 22837" d="M1612.59,10608.563l-78.7,22.179v20.519l78.7-22.179Z" fill="#fff"/>
    <path id="Path_22838" data-name="Path 22838" d="M1611.758,10560.344l-78.7,22.179v20.518l78.7-22.178Z" fill="#fff"/>
    <path id="Path_22839" data-name="Path 22839" d="M1612.59,10664.083l-78.7,22.179v20.519l78.7-22.179Z" fill="#fff"/>
    <path id="Path_22840" data-name="Path 22840" d="M1612.59,10721.76l-78.7,22.179v20.519l78.7-22.179Z" fill="#fff"/>
    <path id="Path_22841" data-name="Path 22841" d="M1624.448,10836v-58.94L1415.316,10836Z" fill="#5bbc2e"/>
    <path id="Path_22842" data-name="Path 22842" d="M1833.58,10836l-209.132-58.94V10836Z" fill="#2b6d08"/>
    <path id="Path_22843" data-name="Path 22843" d="M1728.344,10550.91v258.368l-103.9-32.683v-258.368Z" fill="#2b6d08"/>
    <g id="Group_3509" data-name="Group 3509">
      <path id="Path_22844" data-name="Path 22844" d="M1639.924,10608.563l78.7,22.179v20.519l-78.7-22.179Z" fill="#fff"/>
      <path id="Path_22845" data-name="Path 22845" d="M1639.924,10558.681l78.7,22.179v20.519l-78.7-22.179Z" fill="#fff"/>
      <path id="Path_22846" data-name="Path 22846" d="M1639.924,10664.083l78.7,22.179v20.519l-78.7-22.179Z" fill="#fff"/>
      <path id="Path_22847" data-name="Path 22847" d="M1639.924,10721.76l78.7,22.179v20.519l-78.7-22.179Z" fill="#fff"/>
    </g>
  </g>
</svg>
