<?xml version="1.0" encoding="utf-8"?>
<!-- Generator: Adobe Illustrator 24.0.0, SVG Export Plug-In . SVG Version: 6.00 Build 0)  -->
<svg version="1.1" id="Layer_1" xmlns="http://www.w3.org/2000/svg" xmlns:xlink="http://www.w3.org/1999/xlink" x="0px" y="0px"
	 viewBox="0 0 88 85" style="enable-background:new 0 0 88 85;" xml:space="preserve">
<style type="text/css">
	.st0{fill:none;stroke:#182F59;stroke-width:4;stroke-miterlimit:10;}
	.st1{fill:#182F59;}
</style>
<circle class="st0" cx="45.7" cy="42.3" r="36"/>
<path class="st1" d="M68.8,42.3H47.7V21.2c0-1.1-0.9-2-2-2s-2,0.9-2,2v21.1H22.6c-1.1,0-2,0.9-2,2c0,1.1,0.9,2,2,2h21.1v21.1
	c0,1.1,0.9,2,2,2c1.1,0,2-0.9,2-2V46.2h21.1c1.1,0,2-0.9,2-2C70.8,43.2,69.9,42.3,68.8,42.3z"/>
</svg>
