<svg xmlns="http://www.w3.org/2000/svg" width="27.68" height="21.084" viewBox="0 0 27.68 21.084">
  <g id="menu-icon" transform="translate(-429.32 -35.722)">
    <g id="Group_41" data-name="Group 41">
      <path id="Path_325" data-name="Path 325" d="M454.567,35.722H438.24a2.433,2.433,0,0,0,0,4.865h16.327a2.433,2.433,0,1,0,0-4.865Z" fill="#182f59"/>
      <path id="Path_326" data-name="Path 326" d="M454.567,43.831H438.24a2.433,2.433,0,0,0,0,4.866h16.327a2.433,2.433,0,1,0,0-4.866Z" fill="#182f59"/>
      <path id="Path_327" data-name="Path 327" d="M454.567,51.941H438.24a2.432,2.432,0,0,0,0,4.865h16.327a2.432,2.432,0,1,0,0-4.865Z" fill="#182f59"/>
      <path id="Path_328" data-name="Path 328" d="M431.753,35.722a2.433,2.433,0,1,0,2.433,2.433A2.435,2.435,0,0,0,431.753,35.722Z" fill="#182f59"/>
      <path id="Path_329" data-name="Path 329" d="M431.753,43.831a2.433,2.433,0,1,0,2.433,2.433A2.436,2.436,0,0,0,431.753,43.831Z" fill="#182f59"/>
      <path id="Path_330" data-name="Path 330" d="M431.753,51.941a2.432,2.432,0,1,0,2.433,2.432A2.435,2.435,0,0,0,431.753,51.941Z" fill="#182f59"/>
    </g>
  </g>
</svg>
