<?xml version="1.0" encoding="utf-8"?>
<!-- Generator: Adobe Illustrator 24.0.0, SVG Export Plug-In . SVG Version: 6.00 Build 0)  -->
<svg version="1.1" id="Layer_1" xmlns="http://www.w3.org/2000/svg" xmlns:xlink="http://www.w3.org/1999/xlink" x="0px" y="0px"
	 viewBox="0 0 26 24" style="enable-background:new 0 0 26 24;" xml:space="preserve">
<style type="text/css">
	.st0{fill:url(#SVGID_1_);}
</style>
<g>
	<linearGradient id="SVGID_1_" gradientUnits="userSpaceOnUse" x1="2.8553" y1="11.7756" x2="23.128" y2="11.7756">
		<stop  offset="0" style="stop-color:#008200"/>
		<stop  offset="1" style="stop-color:#77C600"/>
	</linearGradient>
	<path class="st0" d="M8.4,21.6c-0.6,0-1.1-0.2-1.6-0.5c-0.9-0.6-1.3-1.7-1.1-2.7L6.3,15c0-0.2,0-0.5-0.2-0.6l-2.4-2.3
		c-0.8-0.7-1-1.8-0.7-2.8c0.3-1,1.2-1.7,2.2-1.9l3.3-0.5c0.2,0,0.4-0.2,0.5-0.4l1.5-3C11,2.6,11.9,2,13,2c0,0,0,0,0,0
		c1.1,0,2,0.6,2.5,1.5l1.5,3c0.1,0.2,0.3,0.4,0.5,0.4l3.3,0.5c1.1,0.2,1.9,0.9,2.2,1.9c0.3,1,0.1,2.1-0.7,2.8l-2.4,2.3
		c-0.2,0.2-0.2,0.4-0.2,0.6l0.6,3.3c0.2,1-0.2,2.1-1.1,2.7c-0.9,0.6-2,0.7-2.9,0.2l-2.9-1.5c-0.2-0.1-0.5-0.1-0.7,0l-2.9,1.5
		C9.3,21.4,8.9,21.6,8.4,21.6z M13,4.1c-0.1,0-0.5,0-0.6,0.4l-1.5,3c-0.4,0.8-1.2,1.4-2.1,1.5L5.5,9.4C5.1,9.5,5,9.8,5,9.9
		c0,0.1-0.1,0.4,0.2,0.7l2.4,2.3c0.7,0.6,1,1.6,0.8,2.5l-0.6,3.3C7.7,19,7.9,19.3,8,19.3c0.1,0.1,0.4,0.2,0.7,0.1l2.9-1.5
		c0.8-0.4,1.8-0.4,2.6,0l2.9,1.5c0.4,0.2,0.6,0,0.7-0.1c0.1-0.1,0.3-0.3,0.3-0.7l-0.6-3.3c-0.2-0.9,0.1-1.8,0.8-2.5l2.4-2.3
		c0.3-0.3,0.2-0.6,0.2-0.7c0-0.1-0.2-0.4-0.6-0.5l-3.3-0.5c-0.9-0.1-1.7-0.7-2.1-1.5l-1.5-3C13.4,4.1,13.1,4.1,13,4.1L13,4.1z"/>
</g>
</svg>
