<svg xmlns="http://www.w3.org/2000/svg" width="73.991" height="70.86" viewBox="0 0 73.991 70.86">
  <g id="videi-icon" transform="translate(-954.991 -2705.784)">
    <rect id="Rectangle_101" data-name="Rectangle 101" width="73.062" height="1.667" transform="translate(955.68 2734.274)" fill="#5cbfab"/>
    <path id="Path_21546" data-name="Path 21546" d="M955.68,2774.232a2.314,2.314,0,0,0,2.2,2.412h68.656a2.315,2.315,0,0,0,2.2-2.412v-38.291H955.68Zm30-31.128,19.914,13.5-19.914,13.5Z" fill="#5a6e7f"/>
    <path id="Path_21547" data-name="Path 21547" d="M1000.977,2719.194l5.725-9.8-9.447,1.771-5.727,9.8Z" fill="#5a6e7f"/>
    <path id="Path_21548" data-name="Path 21548" d="M981.121,2722.916l5.725-9.8-9.447,1.771-5.725,9.8Z" fill="#5a6e7f"/>
    <path id="Path_21549" data-name="Path 21549" d="M1017.109,2707.445l-5.724,9.8,9.448-1.77,5.647-9.664a1.989,1.989,0,0,0-.666,0Z" fill="#5a6e7f"/>
    <path id="Path_21550" data-name="Path 21550" d="M955.007,2721.49l.7,6.19,5.564-1.043,5.727-9.8-10.041,1.881A2.523,2.523,0,0,0,955.007,2721.49Z" fill="#5a6e7f"/>
    <path id="Path_21551" data-name="Path 21551" d="M971.673,2724.686l5.725-9.8-10.406,1.952-5.727,9.8Z" fill="#97d5c9"/>
    <path id="Path_21552" data-name="Path 21552" d="M991.529,2720.967l5.727-9.8-10.41,1.949-5.725,9.8Z" fill="#97d5c9"/>
    <path id="Path_21553" data-name="Path 21553" d="M1011.385,2717.244l5.724-9.8L1006.7,2709.4l-5.725,9.8Z" fill="#97d5c9"/>
    <path id="Path_21554" data-name="Path 21554" d="M1026.48,2705.81l-5.647,9.664,8.149-1.528-.7-6.19A2.14,2.14,0,0,0,1026.48,2705.81Z" fill="#97d5c9"/>
    <path id="Path_21555" data-name="Path 21555" d="M955.688,2734.266h.531l5.015-6.586h-5.546Z" fill="#5a6e7f"/>
    <path id="Path_21556" data-name="Path 21556" d="M976.014,2734.266l5.017-6.586h-9.42l-5.016,6.586Z" fill="#5a6e7f"/>
    <path id="Path_21557" data-name="Path 21557" d="M1028.753,2730.636l-2.767,3.63h2.767Z" fill="#5a6e7f"/>
    <path id="Path_21558" data-name="Path 21558" d="M1015.608,2734.266l5.017-6.586h-9.42l-5.017,6.586Z" fill="#5a6e7f"/>
    <path id="Path_21559" data-name="Path 21559" d="M995.813,2734.266l5.016-6.586h-9.42l-5.018,6.586Z" fill="#5a6e7f"/>
    <path id="Path_21560" data-name="Path 21560" d="M956.219,2734.266H966.6l5.016-6.586H961.234Z" fill="#97d5c9"/>
    <path id="Path_21561" data-name="Path 21561" d="M986.391,2734.266l5.018-6.586H981.031l-5.017,6.586Z" fill="#97d5c9"/>
    <path id="Path_21562" data-name="Path 21562" d="M1006.188,2734.266l5.017-6.586h-10.376l-5.016,6.586Z" fill="#97d5c9"/>
    <path id="Path_21563" data-name="Path 21563" d="M1025.986,2734.266l2.767-3.63v-2.956h-8.128l-5.017,6.586Z" fill="#97d5c9"/>
    <path id="Path_21564" data-name="Path 21564" d="M1005.591,2756.6l-19.915-13.5v27Z" fill="#5cbfab"/>
  </g>
</svg>
