<svg width="54" height="85" viewBox="0 0 54 85" fill="none" xmlns="http://www.w3.org/2000/svg">
<ellipse cx="1.6875" cy="1.68317" rx="1.6875" ry="1.68317" fill="#C4C4C4" fill-opacity="0.9"/>
<ellipse cx="1.6875" cy="11.7822" rx="1.6875" ry="1.68317" fill="#C4C4C4" fill-opacity="0.9"/>
<ellipse cx="1.6875" cy="21.8812" rx="1.6875" ry="1.68317" fill="#C4C4C4" fill-opacity="0.9"/>
<ellipse cx="1.6875" cy="31.9802" rx="1.6875" ry="1.68317" fill="#C4C4C4" fill-opacity="0.9"/>
<ellipse cx="1.6875" cy="42.9208" rx="1.6875" ry="1.68317" fill="#C4C4C4" fill-opacity="0.9"/>
<ellipse cx="1.6875" cy="53.0198" rx="1.6875" ry="1.68317" fill="#C4C4C4" fill-opacity="0.9"/>
<ellipse cx="1.6875" cy="63.1188" rx="1.6875" ry="1.68317" fill="#C4C4C4" fill-opacity="0.9"/>
<ellipse cx="1.6875" cy="73.2178" rx="1.6875" ry="1.68317" fill="#C4C4C4" fill-opacity="0.9"/>
<ellipse cx="1.6875" cy="83.3168" rx="1.6875" ry="1.68317" fill="#C4C4C4" fill-opacity="0.9"/>
<ellipse cx="10.125" cy="1.68317" rx="1.6875" ry="1.68317" fill="#C4C4C4" fill-opacity="0.9"/>
<ellipse cx="10.125" cy="11.7822" rx="1.6875" ry="1.68317" fill="#C4C4C4" fill-opacity="0.9"/>
<ellipse cx="10.125" cy="21.8812" rx="1.6875" ry="1.68317" fill="#C4C4C4" fill-opacity="0.9"/>
<ellipse cx="10.125" cy="31.9802" rx="1.6875" ry="1.68317" fill="#C4C4C4" fill-opacity="0.9"/>
<ellipse cx="10.125" cy="42.9208" rx="1.6875" ry="1.68317" fill="#C4C4C4" fill-opacity="0.9"/>
<ellipse cx="10.125" cy="53.0198" rx="1.6875" ry="1.68317" fill="#C4C4C4" fill-opacity="0.9"/>
<ellipse cx="10.125" cy="63.1188" rx="1.6875" ry="1.68317" fill="#C4C4C4" fill-opacity="0.9"/>
<ellipse cx="10.125" cy="73.2178" rx="1.6875" ry="1.68317" fill="#C4C4C4" fill-opacity="0.9"/>
<ellipse cx="10.125" cy="83.3168" rx="1.6875" ry="1.68317" fill="#C4C4C4" fill-opacity="0.9"/>
<ellipse cx="18.5625" cy="1.68317" rx="1.6875" ry="1.68317" fill="#C4C4C4" fill-opacity="0.9"/>
<ellipse cx="18.5625" cy="11.7822" rx="1.6875" ry="1.68317" fill="#C4C4C4" fill-opacity="0.9"/>
<ellipse cx="18.5625" cy="21.8812" rx="1.6875" ry="1.68317" fill="#C4C4C4" fill-opacity="0.9"/>
<ellipse cx="18.5625" cy="31.9802" rx="1.6875" ry="1.68317" fill="#C4C4C4" fill-opacity="0.9"/>
<ellipse cx="18.5625" cy="42.9208" rx="1.6875" ry="1.68317" fill="#C4C4C4" fill-opacity="0.9"/>
<ellipse cx="18.5625" cy="53.0198" rx="1.6875" ry="1.68317" fill="#C4C4C4" fill-opacity="0.9"/>
<ellipse cx="18.5625" cy="63.1188" rx="1.6875" ry="1.68317" fill="#C4C4C4" fill-opacity="0.9"/>
<ellipse cx="18.5625" cy="73.2178" rx="1.6875" ry="1.68317" fill="#C4C4C4" fill-opacity="0.9"/>
<ellipse cx="18.5625" cy="83.3168" rx="1.6875" ry="1.68317" fill="#C4C4C4" fill-opacity="0.9"/>
<ellipse cx="27" cy="1.68317" rx="1.6875" ry="1.68317" fill="#C4C4C4" fill-opacity="0.9"/>
<ellipse cx="27" cy="11.7822" rx="1.6875" ry="1.68317" fill="#C4C4C4" fill-opacity="0.9"/>
<ellipse cx="27" cy="21.8812" rx="1.6875" ry="1.68317" fill="#C4C4C4" fill-opacity="0.9"/>
<ellipse cx="27" cy="31.9802" rx="1.6875" ry="1.68317" fill="#C4C4C4" fill-opacity="0.9"/>
<ellipse cx="27" cy="42.9208" rx="1.6875" ry="1.68317" fill="#C4C4C4" fill-opacity="0.9"/>
<ellipse cx="27" cy="53.0198" rx="1.6875" ry="1.68317" fill="#C4C4C4" fill-opacity="0.9"/>
<ellipse cx="27" cy="63.1188" rx="1.6875" ry="1.68317" fill="#C4C4C4" fill-opacity="0.9"/>
<ellipse cx="27" cy="73.2178" rx="1.6875" ry="1.68317" fill="#C4C4C4" fill-opacity="0.9"/>
<ellipse cx="27" cy="83.3168" rx="1.6875" ry="1.68317" fill="#C4C4C4" fill-opacity="0.9"/>
<ellipse cx="35.4375" cy="1.68317" rx="1.6875" ry="1.68317" fill="#C4C4C4" fill-opacity="0.9"/>
<ellipse cx="35.4375" cy="11.7822" rx="1.6875" ry="1.68317" fill="#C4C4C4" fill-opacity="0.9"/>
<ellipse cx="35.4375" cy="21.8812" rx="1.6875" ry="1.68317" fill="#C4C4C4" fill-opacity="0.9"/>
<ellipse cx="35.4375" cy="31.9802" rx="1.6875" ry="1.68317" fill="#C4C4C4" fill-opacity="0.9"/>
<ellipse cx="35.4375" cy="42.9208" rx="1.6875" ry="1.68317" fill="#C4C4C4" fill-opacity="0.9"/>
<ellipse cx="35.4375" cy="53.0198" rx="1.6875" ry="1.68317" fill="#C4C4C4" fill-opacity="0.9"/>
<ellipse cx="35.4375" cy="63.1188" rx="1.6875" ry="1.68317" fill="#C4C4C4" fill-opacity="0.9"/>
<ellipse cx="35.4375" cy="73.2178" rx="1.6875" ry="1.68317" fill="#C4C4C4" fill-opacity="0.9"/>
<ellipse cx="35.4375" cy="83.3168" rx="1.6875" ry="1.68317" fill="#C4C4C4" fill-opacity="0.9"/>
<ellipse cx="43.875" cy="1.68317" rx="1.6875" ry="1.68317" fill="#C4C4C4" fill-opacity="0.9"/>
<ellipse cx="43.875" cy="11.7822" rx="1.6875" ry="1.68317" fill="#C4C4C4" fill-opacity="0.9"/>
<ellipse cx="43.875" cy="21.8812" rx="1.6875" ry="1.68317" fill="#C4C4C4" fill-opacity="0.9"/>
<ellipse cx="43.875" cy="31.9802" rx="1.6875" ry="1.68317" fill="#C4C4C4" fill-opacity="0.9"/>
<ellipse cx="43.875" cy="42.9208" rx="1.6875" ry="1.68317" fill="#C4C4C4" fill-opacity="0.9"/>
<ellipse cx="43.875" cy="53.0198" rx="1.6875" ry="1.68317" fill="#C4C4C4" fill-opacity="0.9"/>
<ellipse cx="43.875" cy="63.1188" rx="1.6875" ry="1.68317" fill="#C4C4C4" fill-opacity="0.9"/>
<ellipse cx="43.875" cy="73.2178" rx="1.6875" ry="1.68317" fill="#C4C4C4" fill-opacity="0.9"/>
<ellipse cx="43.875" cy="83.3168" rx="1.6875" ry="1.68317" fill="#C4C4C4" fill-opacity="0.9"/>
<ellipse cx="52.3125" cy="1.68317" rx="1.6875" ry="1.68317" fill="#C4C4C4" fill-opacity="0.9"/>
<ellipse cx="52.3125" cy="11.7822" rx="1.6875" ry="1.68317" fill="#C4C4C4" fill-opacity="0.9"/>
<ellipse cx="52.3125" cy="21.8812" rx="1.6875" ry="1.68317" fill="#C4C4C4" fill-opacity="0.9"/>
<ellipse cx="52.3125" cy="31.9802" rx="1.6875" ry="1.68317" fill="#C4C4C4" fill-opacity="0.9"/>
<ellipse cx="52.3125" cy="42.9208" rx="1.6875" ry="1.68317" fill="#C4C4C4" fill-opacity="0.9"/>
<ellipse cx="52.3125" cy="53.0198" rx="1.6875" ry="1.68317" fill="#C4C4C4" fill-opacity="0.9"/>
<ellipse cx="52.3125" cy="63.1188" rx="1.6875" ry="1.68317" fill="#C4C4C4" fill-opacity="0.9"/>
<ellipse cx="52.3125" cy="73.2178" rx="1.6875" ry="1.68317" fill="#C4C4C4" fill-opacity="0.9"/>
<ellipse cx="52.3125" cy="83.3168" rx="1.6875" ry="1.68317" fill="#C4C4C4" fill-opacity="0.9"/>
</svg>
