<svg width="250" height="250" viewBox="0 0 250 250" fill="none" xmlns="http://www.w3.org/2000/svg">
<path d="M0 0H250V250H0V0Z" fill="white"/>
<path d="M124.645 0.816775C128.345 0.795467 132.031 -0.0426008 135.703 0.73865C151.96 2.18041 167.989 6.64773 182.45 14.2614C201.158 23.8424 217.252 38.4092 228.927 55.8666C240.838 73.6221 247.889 94.5313 249.48 115.838C249.218 121.477 249.054 127.152 249.601 132.777C248.437 148.977 244.381 165.043 237.151 179.631C228.906 196.584 216.696 211.584 201.832 223.175C183.309 237.699 160.582 246.783 137.13 248.935C133.558 249.191 129.992 249.851 126.399 249.575C124.019 249.418 121.583 250.178 119.297 249.204C128.055 224.568 136.804 199.922 145.639 175.306C155.255 175.128 164.879 175.37 174.495 175.192C180.632 174.979 186.697 171.242 188.714 165.277C196.847 142.379 205.185 119.546 213.061 96.5482C214.354 93.0754 215.071 89.2044 214.041 85.568C212.649 80.9588 208.431 77.6989 203.899 76.4772C199.965 75.2555 195.809 75.7033 191.761 75.632C179.418 75.5967 167.074 75.696 154.737 75.5754C154.538 75.9871 154.133 76.8041 153.935 77.2088C133.948 133.345 113.999 189.496 93.9346 245.604C73.3239 240.256 54.1195 229.546 38.807 214.744C20.3622 197.095 7.55685 173.622 2.81963 148.53C1.33525 140.995 0.795479 133.324 0.383545 125.675C0.717354 109.744 3.33099 93.743 9.3324 78.9276C23.9702 41.5055 57.8408 12.0384 97.2158 3.61507C77.0596 59.503 57.3721 115.561 37.2232 171.456C38.5085 171.847 39.8581 171.697 41.1791 171.711C48.5228 171.675 55.8735 171.726 63.2173 171.697C64.2188 171.69 64.1121 170.297 64.5313 169.658C73.3805 144.672 82.3368 119.722 91.2144 94.7507C91.7471 93.2026 92.2445 91.6401 92.9544 90.1699C97.557 90.2478 102.159 90.1485 106.761 90.2195C97.1096 117.286 87.5427 144.396 77.7485 171.412C78.7713 171.824 79.8864 171.696 80.9588 171.718C88.6717 171.646 96.3849 171.767 104.098 171.661C112.813 147.066 121.633 122.514 130.37 97.9327C132.237 92.9041 132.401 86.9596 129.432 82.3217C126.84 78.2166 121.918 76.2563 117.224 76.0647C110.803 75.8728 104.376 76.0787 97.9482 75.9651C106.783 50.8949 115.881 25.9162 124.645 0.816775Z" fill="#015294"/>
<path d="M175.818 90.4901C176.584 89.6235 177.948 90.1493 178.97 90C182.536 90.064 186.1 89.9717 189.667 90.0496C181.364 113.75 172.671 137.315 164.503 161.065C159.886 161.392 155.234 161.193 150.611 161.165C159.041 137.621 167.386 114.041 175.818 90.4901Z" fill="#015294"/>
</svg>
