<svg version="1.1" id="l3harris-logo" xmlns="http://www.w3.org/2000/svg" xmlns:xlink="http://www.w3.org/1999/xlink" x="0px" y="0px" viewBox="0 0 168.2 45" style="enable-background:new 0 0 168.2 45;" xml:space="preserve" preserveAspectRatio="xMinYMid">
							<style type="text/css">
								.st0{fill:#FF000A;}
								.st1{fill:#283030;}
							</style>
							<g>
								<path class="st0" d="M23.4,36H12.6c-0.1,0-0.2,0-0.3-0.1l-8.7-6.5c-0.1-0.1-0.2-0.2-0.2-0.3L0,18.6c0-0.1,0-0.2,0-0.3L3.4,6.9
									c0-0.1,0.1-0.2,0.2-0.3l8.9-6.5C12.6,0,12.7,0,12.8,0h10.4c0.1,0,0.2,0,0.3,0.1l8.9,6.5c0.1,0.1,0.2,0.2,0.2,0.3L36,18.2
									c0,0.1,0,0.2,0,0.3l-3.3,10.6c0,0.1-0.1,0.2-0.2,0.3l-8.7,6.5C23.6,36,23.5,36,23.4,36 M13.1,34.9H22c-3.5-3.4-7-6.4-10.6-9.1
									C11.7,28.7,12.3,31.8,13.1,34.9 M11.8,24.7c3.9,2.8,7.5,6,11.3,9.6c0.9-4.8,1.4-9.4,1.6-13.8C19.9,21.5,15.4,23,11.8,24.7 M25.7,21
									c-0.2,4.2-0.7,8.6-1.5,13.1l7.2-5.3C29.7,25.6,27.9,23,25.7,21 M4.8,28.9l6.9,5.1c-0.7-2.9-1.2-5.8-1.5-8.6
									C8.1,26.5,6.3,27.7,4.8,28.9 M1.5,19.6L4.2,28c1.5-1.2,3.3-2.4,5.4-3.5C6.9,22.7,4.3,21,1.5,19.6 M26.4,20.1c2.1,2,4,4.4,5.6,7.4
									l2.7-8.4C32,19.2,29.2,19.6,26.4,20.1 M11,12.8c-0.3,3.5-0.3,7.2,0.1,10.9c3.7-1.7,8.1-3.2,12.8-4.2c-2.8-2.1-5.7-3.4-8.7-4.8
									C13.8,14.1,12.4,13.5,11,12.8 M1.5,18.3c2.9,1.5,5.7,3.2,8.4,5.1c-0.3-3.6-0.3-7.1-0.1-10.6C6.6,14.3,3.8,16.2,1.5,18.3 M25.3,9.1
									c0.4,3.2,0.5,6.6,0.5,9.9c2.9-0.6,5.8-1,8.5-1.2C31.6,14.6,28.7,11.8,25.3,9.1 M11.9,11.9c1.2,0.6,2.4,1.1,3.8,1.7
									c3,1.3,6,2.7,9,4.9c0-3.4-0.1-6.8-0.6-10.1C19.6,9.3,15.5,10.4,11.9,11.9 M4.2,8.1l-2.5,8.5c2.1-1.8,4.7-3.4,7.6-4.8
									C7.3,10.7,5.7,9.5,4.2,8.1 M26,8.2c3,2.3,5.7,4.9,8.1,7.7l-2.4-8.3C29.8,7.8,27.9,8,26,8.2 M13.1,1.4c-0.9,3.1-1.6,6.3-2,9.6
									c3.6-1.5,7.6-2.7,12-3.4C20.4,5.5,17.2,3.6,13.1,1.4 M4.8,7.1C6.3,8.6,8,9.8,10,11c0.3-3,0.9-6,1.7-8.9L4.8,7.1z M24.1,1.9
									c0.4,1.7,0.7,3.5,1,5.3c1.8-0.3,3.6-0.5,5.4-0.6L24.1,1.9z M15,1.1c3.4,1.9,6.3,3.7,8.8,5.5c-0.3-1.8-0.6-3.7-1.1-5.5H15z"></path>
								<g>
									<path class="st1" d="M50.9,36.4h-4.8v3.5h4.1v0.9h-4.1v4.1h-1v-9.4h5.8V36.4z"></path>
									<path class="st1" d="M58.9,44.9h-1.1l-0.8-2.1H53l-0.8,2.1h-1.1l3.5-9.4h0.8L58.9,44.9z M53.3,41.9h3.5l-1.7-5L53.3,41.9z"></path>
									<path class="st1" d="M66,36.5l-0.6,0.6c-0.6-0.5-1.2-0.8-2.2-0.8c-1.3,0-2,0.7-2,1.8c0,0.5,0.1,0.8,0.4,1.1
										c0.3,0.2,0.7,0.4,1.2,0.5l1.1,0.2c0.9,0.1,1.3,0.3,1.7,0.7c0.5,0.4,0.8,1.1,0.8,1.8c0,1.6-1.3,2.7-3.2,2.7c-1.4,0-2.3-0.4-3.2-1.2
										l0.7-0.7c0.8,0.8,1.5,1,2.6,1c1.4,0,2.2-0.6,2.2-1.7c0-0.5-0.1-0.9-0.5-1.2c-0.3-0.3-0.6-0.4-1.2-0.5l-1.1-0.2
										c-0.7-0.1-1.3-0.3-1.7-0.7c-0.5-0.4-0.7-1-0.7-1.8c0-1.6,1.1-2.6,3-2.6C64.4,35.4,65.2,35.8,66,36.5z"></path>
									<path class="st1" d="M73.9,36.4h-2.7v8.5h-1v-8.5h-2.7v-0.9h6.4C73.9,35.5,73.9,36.4,73.9,36.4z"></path>
									<path class="st1" d="M75.4,44.9h-1.2v-1.2h1.2V44.9z"></path>
									<path class="st1" d="M87.3,36.4h-4.8v3.5h4.1v0.9h-4.1v4.1h-1v-9.4h5.8V36.4z"></path>
									<path class="st1" d="M94.2,36.4c0.9,0.9,0.9,1.7,0.9,3.9s-0.1,3-0.9,3.9c-0.6,0.6-1.4,0.9-2.3,0.9c-1,0-1.8-0.3-2.3-0.9
										c-0.9-0.9-0.9-1.7-0.9-3.9s0.1-3,0.9-3.9c0.6-0.6,1.4-0.9,2.3-0.9C92.9,35.4,93.7,35.8,94.2,36.4z M90.3,37
										c-0.6,0.6-0.7,1.3-0.7,3.2s0.1,2.6,0.7,3.2c0.4,0.4,1,0.7,1.6,0.7s1.2-0.2,1.6-0.7c0.6-0.6,0.7-1.3,0.7-3.2s-0.1-2.6-0.7-3.2
										c-0.4-0.4-1-0.7-1.6-0.7S90.7,36.6,90.3,37z"></path>
									<path class="st1" d="M101.1,35.5c1.6,0,2.8,1,2.8,2.6c0,1.4-0.8,2.3-2,2.5l2.2,4.3h-1.2l-2.1-4.2h-2.3v4.2h-1v-9.4H101.1z
										M98.5,36.4v3.4h2.5c1.1,0,1.9-0.6,1.9-1.7s-0.8-1.7-1.9-1.7L98.5,36.4L98.5,36.4z"></path>
									<path class="st1" d="M114.1,44.9h-0.9l-2.1-7.5l-2.1,7.5h-0.9l-2.4-9.4h1.1l1.8,7.6l2.1-7.6h0.9l2.1,7.6l1.8-7.6h1.1L114.1,44.9z"></path>
									<path class="st1" d="M124.8,44.9h-1.1l-0.8-2.1h-4.1l-0.8,2.1H117l3.5-9.4h0.8L124.8,44.9z M119.2,41.9h3.5l-1.7-5L119.2,41.9z"></path>
									<path class="st1" d="M130.5,35.6c1.6,0,2.8,1,2.8,2.6c0,1.4-0.8,2.3-2,2.5l2.2,4.3h-1.2l-2.1-4.2h-2.3V45h-1v-9.4
										C126.9,35.6,130.5,35.6,130.5,35.6z M127.9,36.5v3.4h2.5c1.1,0,1.9-0.6,1.9-1.7c0-1.1-0.8-1.7-1.9-1.7L127.9,36.5L127.9,36.5z"></path>
									<path class="st1" d="M139,35.5c1.1,0,1.8,0.3,2.5,1c0.8,0.9,0.8,2.3,0.8,3.7s0,2.8-0.8,3.7c-0.6,0.7-1.4,1-2.5,1h-3.2v-9.4
										L139,35.5L139,35.5z M136.8,36.4V44h2c0.7,0,1.4-0.2,1.8-0.7c0.6-0.6,0.6-1.8,0.6-3.1s0-2.5-0.6-3.1c-0.5-0.5-1.1-0.7-1.8-0.7
										H136.8z"></path>
									<path class="st1" d="M145.2,44.9h-1.2v-1.2h1.2V44.9z"></path>
								</g>
								<path class="st1" d="M93.4,9.1l-6.4,17.7h3.6l1.1-3.1h6.3l1,3.1h3.6L96.1,9.1H93.4z M92.6,20.8l2.2-6.4l2.2,6.4H92.6z M118.2,14.6
									c0-3-2.1-5.4-5.7-5.4h-6.9v17.7h3.5v-7.1h2.5l3.5,7.1h4l-4-7.6C116.6,18.6,118.2,17.1,118.2,14.6z M112.2,16.9h-3.3v-4.7h3.3
									c1.5,0,2.5,1,2.5,2.3C114.7,15.9,113.7,16.9,112.2,16.9z M134.8,14.6c0-3-2.1-5.4-5.7-5.4h-6.9v17.7h3.5v-7.1h2.5l3.5,7.1h4l-4-7.6
									C133.3,18.6,134.8,17.1,134.8,14.6z M128.8,16.9h-3.3v-4.7h3.3c1.5,0,2.5,1,2.5,2.3C131.4,15.9,130.4,16.9,128.8,16.9z M138.8,9.1
									h3.5v17.7h-3.5V9.1z M157,17.9c0.9,0.9,1.4,2.2,1.4,3.8c0,3.4-2.9,5.4-6.6,5.4c-2.7,0-4.7-0.6-6.5-2.3l2.2-2.2
									c1.1,1.1,2.6,1.5,4.3,1.5c2,0,3.1-0.8,3.1-2.2c0-0.6-0.2-1.1-0.5-1.5c-0.3-0.3-0.7-0.5-1.6-0.6l-2.1-0.3c-1.5-0.2-2.6-0.7-3.4-1.5
									c-0.8-0.8-1.3-2-1.3-3.5c0-3.2,2.3-5.4,6.2-5.4c2.4,0,4.2,0.6,5.7,2.1l-2.2,2.2c-1.1-1.1-2.5-1.2-3.6-1.2c-1.8,0-2.7,1-2.7,2.2
									c0,0.4,0.1,0.9,0.5,1.3c0.3,0.3,0.9,0.6,1.6,0.7l2.1,0.3C155.2,16.7,156.2,17.2,157,17.9z M67.4,21.7c0,3.5-2.6,5.3-5.6,5.3
									c-2.5,0-4.9-1.2-5.5-3.9l3.1-1.3c0,1.6,1.1,2.3,2.4,2.3c1.4,0,2.4-0.9,2.4-2.5c0-1.5-0.9-2.4-2.5-2.4h-0.1v-2.8h0.1
									c1.6,0,2.2-1,2.2-2.2c0-1.5-1-2.3-2.2-2.3c-1.2,0-2.1,0.8-2.2,2.1l-3.1-1.3c0.6-2.4,2.7-3.8,5.2-3.8c3.1,0,5.4,2.1,5.4,5.1
									c0,1.9-0.9,3-2,3.6C66.4,18.4,67.4,19.6,67.4,21.7z M80.5,9.1H84v17.7h-3.5v-7.4h-6v7.4h-3.5V9.1h3.5v7.2h6V9.1z M48.5,23.8H54v3.1
									h-9V9.1h3.5V23.8z M161.1,9.6h2.9v0.6h-1.1v3.5h-0.6v-3.5h-1.1V9.6L161.1,9.6z M168.2,9.6v4.1h-0.6V11l-0.9,1.9h-0.5l0,0l-0.9-1.9
									v2.7h-0.6V9.6h0.6l0,0l1.2,2.5l1.1-2.5H168.2z"></path>
							</g>
							</svg>