<svg width="512" height="512" viewBox="0 0 512 512" fill="none" xmlns="http://www.w3.org/2000/svg">
<path d="M469.51 317C476.65 309.03 481 298.51 481 287C481 262.19 460.81 242 436 242H348.66C357.31 215.75 361 180.92 361 165.99V151C361 117.92 334.08 91 301 91H286C279.12 91 273.12 95.68 271.45 102.36L263.28 135.05C251.83 180.83 215.48 231.34 177.86 240.52C171.27 223.84 155 212 136 212H46C37.72 212 31 218.72 31 227V497C31 505.28 37.72 512 46 512H136C153.89 512 169.37 501.51 176.62 486.35L228.16 503.53C245.01 509.15 262.57 512 280.34 512H406C430.81 512 451 491.81 451 467C451 461.15 449.88 455.55 447.84 450.42C466.92 445.21 481 427.72 481 407C481 395.49 476.65 384.97 469.51 377C476.65 369.03 481 358.51 481 347C481 335.49 476.65 324.97 469.51 317ZM151 467C151 475.27 144.27 482 136 482H61V242H136C144.27 242 151 248.73 151 257V467ZM406 332H436C444.27 332 451 338.73 451 347C451 355.27 444.27 362 436 362H406C397.72 362 391 368.72 391 377C391 385.28 397.72 392 406 392H436C444.27 392 451 398.73 451 407C451 415.27 444.27 422 436 422H406C397.72 422 391 428.72 391 437C391 445.28 397.72 452 406 452C414.27 452 421 458.73 421 467C421 475.27 414.27 482 406 482H280.34C265.8 482 251.43 479.67 237.64 475.07L181 456.19V270.58C204.53 266.11 227.56 251.21 248.35 226.82C268.65 203 285.11 171.42 292.38 142.33L297.71 121H301C317.54 121 331 134.46 331 151V165.99C331 186.13 324.7 224.76 316.64 242H286C277.72 242 271 248.72 271 257C271 265.28 277.72 272 286 272H436C444.27 272 451 278.73 451 287C451 295.27 444.27 302 436 302H406C397.72 302 391 308.72 391 317C391 325.28 397.72 332 406 332Z" fill="#F16334"/>
<path d="M106 452C114.284 452 121 445.284 121 437C121 428.716 114.284 422 106 422C97.7157 422 91 428.716 91 437C91 445.284 97.7157 452 106 452Z" fill="#F16334"/>
<path d="M316 0C307.716 0 301 6.716 301 15V46C301 54.284 307.716 61 316 61C324.284 61 331 54.284 331 46V15C331 6.716 324.284 0 316 0Z" fill="#F16334"/>
<path d="M252.36 66.148L231.147 44.935C225.29 39.077 215.792 39.077 209.934 44.935C204.076 50.793 204.076 60.29 209.934 66.148L231.147 87.361C237.004 93.218 246.503 93.219 252.36 87.361C258.218 81.503 258.218 72.006 252.36 66.148Z" fill="#F16334"/>
<path d="M422.066 44.935C416.209 39.077 406.711 39.077 400.853 44.935L379.64 66.147C373.782 72.005 373.782 81.502 379.64 87.36C385.497 93.218 394.995 93.219 400.853 87.361L422.066 66.148C427.924 60.29 427.924 50.793 422.066 44.935Z" fill="#F16334"/>
</svg>
