<svg width="463" height="463" viewBox="0 0 463 463" fill="none" xmlns="http://www.w3.org/2000/svg">
<g clip-path="url(#clip0)">
<path d="M231.074 179.515C200.159 179.515 175.093 204.581 175.093 235.497C175.093 266.416 200.159 291.479 231.074 291.479C261.994 291.479 287.056 266.416 287.056 235.497C287.021 204.597 261.978 179.55 231.074 179.515V179.515ZM231.074 275.484C208.992 275.484 191.087 257.583 191.087 235.497C191.087 213.414 208.992 195.51 231.074 195.51C253.161 195.51 271.061 213.414 271.061 235.497C271.038 257.572 253.149 275.46 231.074 275.484V275.484Z" fill="#F16334"/>
<path d="M63.1295 155.523H79.1242V139.528H55.1321C50.7156 139.528 47.1347 143.109 47.1347 147.526V171.518H63.1295V155.523Z" fill="#F16334"/>
<path d="M63.1295 299.476H47.1347V323.468C47.1347 327.888 50.7156 331.465 55.1321 331.465H79.1242V315.471H63.1295V299.476Z" fill="#F16334"/>
<path d="M15.1452 115.536V355.458C15.1452 359.878 18.7261 363.455 23.1426 363.455H439.006C443.427 363.455 447.003 359.878 447.003 355.458V115.536C447.003 111.12 443.427 107.539 439.006 107.539H23.1426C18.7261 107.539 15.1452 111.12 15.1452 115.536V115.536ZM31.14 123.534H431.009V347.46H31.14V123.534Z" fill="#F16334"/>
<path d="M407.017 195.51C380.529 195.487 359.06 174.017 359.032 147.526C359.032 143.109 355.455 139.528 351.035 139.528H111.114C106.697 139.528 103.116 143.109 103.116 147.526C103.093 174.017 81.6234 195.487 55.1321 195.51C50.7156 195.51 47.1347 199.091 47.1347 203.507V267.486C47.1347 271.907 50.7156 275.484 55.1321 275.484C81.6234 275.511 103.093 296.981 103.116 323.468C103.116 327.888 106.697 331.465 111.114 331.465H351.035C355.455 331.465 359.032 327.888 359.032 323.468C359.06 296.981 380.529 275.511 407.017 275.484C411.437 275.484 415.014 271.907 415.014 267.486V203.507C415.014 199.091 411.437 195.51 407.017 195.51V195.51ZM399.019 259.985C370.048 263.687 347.235 286.5 343.534 315.471H118.615C114.913 286.5 92.1043 263.687 63.1295 259.985V211.009C92.1043 207.307 114.913 184.498 118.615 155.523H343.534C347.235 184.498 370.048 207.307 399.019 211.009V259.985Z" fill="#F16334"/>
<path d="M407.017 139.528H383.024V155.523H399.019V171.518H415.014V147.526C415.014 143.109 411.437 139.528 407.017 139.528Z" fill="#F16334"/>
<path d="M399.019 315.471H383.024V331.465H407.017C411.437 331.465 415.014 327.888 415.014 323.468V299.476H399.019V315.471Z" fill="#F16334"/>
<path d="M123.11 48.4646L131.107 62.2999C185.499 30.9352 251.466 26.9443 309.244 51.5182L275.486 68.3916L282.636 82.7072L330.62 58.7151C332.525 57.7779 333.978 56.1144 334.658 54.1033C335.337 52.0884 335.189 49.886 334.244 47.9842L310.252 0L295.936 7.15L309.529 34.3403C248.471 10.4966 179.884 15.6902 123.11 48.4646V48.4646Z" fill="#F16334"/>
<path d="M331.042 414.536L323.044 400.7C268.656 432.061 202.693 436.056 144.919 411.482L178.677 394.605L171.527 380.289L123.543 404.281C119.588 406.257 117.983 411.064 119.962 415.016L143.955 463L158.266 455.85L144.673 428.66C205.719 452.488 274.287 447.295 331.042 414.536Z" fill="#F16334"/>
</g>
<defs>
<clipPath id="clip0">
<rect width="463" height="463" fill="white"/>
</clipPath>
</defs>
</svg>
