<svg width="250" height="222" viewBox="0 0 250 222" fill="none" xmlns="http://www.w3.org/2000/svg">
<path d="M122.113 0.17691C92.8363 0.17691 64.7588 11.8069 44.0574 32.5085C23.3558 53.2099 11.7258 81.2874 11.7258 110.564C11.7258 139.84 23.3558 167.918 44.0574 188.619C64.7588 209.321 92.8363 220.951 122.113 220.951C151.389 220.951 179.467 209.321 200.168 188.619C220.87 167.918 232.5 139.84 232.5 110.564C232.5 81.2874 220.87 53.2099 200.168 32.5085C179.467 11.8069 151.389 0.17691 122.113 0.17691Z" fill="#2A2F96"/>
<path d="M9.38447 145.423H0.10614C0.10614 145.423 23.7929 127.505 75.2157 113.265C75.2157 113.265 157.727 88.2075 211.329 51.7799C229.972 36.0642 244.532 22.0451 249.929 11.7966C249.929 11.7966 242.998 39.248 210.852 71.9341C204.56 75.1586 202.103 79.4232 197.641 81.5146C198.373 80.6895 197.083 76.4541 197.641 75.7048C197.641 75.7048 155.839 95.1967 69.7079 120.847C69.714 120.836 33.4662 130.038 9.38447 145.423Z" fill="#E53935"/>
<path d="M94.7021 117.658L103.434 117.803L98.9548 107.142L94.7021 117.658ZM92.8835 124.31L91.2914 129.887L95.9511 132.449L80.4912 132.426L85.2901 129.736L95.248 97.1895L89.8159 94.4766H108.216L123.548 129.731L126.615 132.444H105.148L108.216 129.731L105.148 124.304H92.8835V124.31ZM151.859 106.927C155.205 107.711 166.535 113.568 162.596 125.106C162.596 125.106 157.71 139.491 131.019 130.904L128.044 133.803V122.213L131.019 125.112C131.019 125.112 151.307 132.786 151.203 123.276C151.174 121.423 147.699 118.366 138.392 117.187C138.392 117.187 127.923 116.879 128.044 104.824C128.091 99.9259 131.682 87.6033 157.797 96.1264L160.492 93.1168L160.429 104.522L157.797 101.919C157.797 101.919 142.337 97.0734 140.797 101.872C139.159 106.968 147.188 105.829 151.859 106.927Z" fill="#FAFAFA"/>
<path d="M211.939 70.7605C205.78 77.8719 193.33 87.3013 183.476 94.6389C183.476 94.6389 104.311 145.795 72.8978 168.825C72.8978 168.825 48.6882 184.628 34.9654 209.331V199.931C34.9654 199.931 48.0662 181.554 79.033 159.628C106.269 140.339 187.654 91.6471 197.641 75.7048L211.939 70.7605Z" fill="#E53935"/>
<path d="M33.0305 94.6274H51.4304L66.7626 119.04V97.3407L63.695 94.6274H75.9596L72.892 97.3407V129.887L75.9596 132.601H57.5598L42.2334 108.193V129.887L45.2952 132.601H33.0305L36.0982 129.887V97.3407L33.0305 94.6274ZM182.767 117.971L192.179 117.931L187.125 106.782L182.767 117.971ZM181.809 124.31L179.892 129.736L184.876 132.449L169.416 132.426L174.215 129.736L184.174 97.1895L178.741 94.4766H197.141L212.473 129.731L215.541 132.444H194.079L197.147 129.731L194.079 124.304H181.809V124.31Z" fill="#FAFAFA"/>
<path d="M177.864 146.91C173.547 129.87 163.764 110.349 150.314 91.9375C122.369 53.697 86.9807 32.2472 71.4277 44.1111C63.7819 49.9555 61.9752 62.7024 66.3675 80.0214C70.6841 97.0618 80.4677 116.583 93.9178 134.994C99.7741 143.006 103.318 147.445 109.575 153.836L113.526 155.317C107.344 148.984 101.215 141.815 95.4049 133.861C82.0948 115.647 72.4154 96.3587 68.1627 79.5509C63.9796 63.0278 65.5309 50.9783 72.5374 45.6274C75.2042 43.588 78.5156 42.6179 82.3037 42.6179C99.4429 42.6179 126.447 62.4409 148.832 93.0703C162.143 111.284 171.822 130.573 176.075 147.381C180.258 163.904 178.707 175.953 171.7 181.304C162.305 188.48 144.945 182.356 126.505 167.28L125.227 168.587C138.897 179.718 152.103 186.092 162.201 186.092C166.314 186.092 169.905 185.04 172.804 182.815C180.449 176.988 182.245 164.229 177.864 146.91Z" fill="#FAFAFA"/>
<path d="M107.186 147.626C106.699 148.086 106.676 148.998 107.122 150.162C107.569 151.326 108.449 152.645 109.568 153.831C110.687 155.016 111.953 155.97 113.089 156.483C114.226 156.996 115.137 157.026 115.625 156.566C116.112 156.106 116.135 155.194 115.689 154.03C115.242 152.867 114.362 151.547 113.243 150.361C112.124 149.176 110.857 148.221 109.721 147.709C108.586 147.196 107.674 147.166 107.186 147.626Z" fill="#FAFAFA"/>
<path d="M142.447 14.0566L143.789 23.3001C143.853 23.7242 144.045 24.1134 144.353 24.4214C144.661 24.7235 145.05 24.9268 145.474 24.9849L154.712 26.3212L145.468 27.6633C145.044 27.7272 144.655 27.9189 144.347 28.2268C144.045 28.5289 143.842 28.924 143.784 29.3481L142.447 38.5856L141.105 29.3423C141.041 28.9182 140.85 28.5289 140.541 28.221C140.234 27.9189 139.844 27.7155 139.42 27.6574L130.183 26.3212L139.426 24.9791C139.85 24.9152 140.239 24.7235 140.548 24.4155C140.85 24.1134 141.053 23.7184 141.111 23.2942L142.447 14.0566ZM90.1586 54.7255L91.5007 63.9691C91.5645 64.393 91.7565 64.7823 92.0642 65.0903C92.3723 65.3923 92.7616 65.5958 93.1855 65.6539L102.423 66.9901L93.1797 68.3322C92.7558 68.396 92.3665 68.5876 92.0584 68.8957C91.7565 69.1977 91.553 69.5927 91.4949 70.017L90.1586 79.2547L88.8166 70.0112C88.7527 69.5869 88.5608 69.1977 88.2531 68.8899C87.945 68.5876 87.5557 68.3845 87.1318 68.3264L77.894 66.9901L87.1376 65.6481C87.5618 65.5842 87.9508 65.3923 88.2588 65.0846C88.5608 64.7823 88.7643 64.3872 88.8224 63.963L90.1586 54.7255ZM95.9684 176.732L97.3105 185.976C97.3743 186.4 97.5662 186.789 97.874 187.097C98.1821 187.399 98.5713 187.602 98.9956 187.66L108.233 188.997L98.9895 190.339C98.5656 190.403 98.1763 190.594 97.8682 190.902C97.5662 191.204 97.3628 191.6 97.3047 192.024L95.9684 201.261L94.6264 192.018C94.5625 191.594 94.3709 191.204 94.0628 190.896C93.7551 190.594 93.3658 190.391 92.9416 190.333L83.7038 188.997L92.9474 187.655C93.3716 187.591 93.7609 187.399 94.0686 187.091C94.3709 186.789 94.5741 186.394 94.6321 185.97L95.9684 176.732ZM206.355 136.063L207.697 145.307C207.762 145.731 207.953 146.12 208.261 146.428C208.563 146.73 208.958 146.933 209.382 146.992L218.62 148.328L209.377 149.67C208.952 149.734 208.563 149.926 208.255 150.233C207.953 150.541 207.75 150.931 207.692 151.355L206.355 160.592L205.013 151.349C204.949 150.925 204.758 150.536 204.45 150.228C204.148 149.926 203.753 149.722 203.328 149.664L194.091 148.328L203.334 146.986C203.759 146.922 204.148 146.73 204.456 146.422C204.758 146.114 204.961 145.725 205.019 145.301L206.355 136.063ZM194.736 162.853C193.965 162.853 193.227 163.159 192.682 163.703C192.137 164.248 191.831 164.987 191.831 165.757C191.831 166.528 192.137 167.267 192.682 167.811C193.227 168.356 193.965 168.662 194.736 168.662C195.506 168.662 196.245 168.356 196.79 167.811C197.335 167.267 197.641 166.528 197.641 165.757C197.641 164.987 197.335 164.248 196.79 163.703C196.245 163.159 195.506 162.853 194.736 162.853ZM55.2996 157.042C54.5292 157.042 53.7904 157.349 53.2456 157.893C52.7008 158.438 52.3947 159.177 52.3947 159.947C52.3947 160.718 52.7008 161.457 53.2456 162.002C53.7904 162.547 54.5292 162.853 55.2996 162.853C56.07 162.853 56.8088 162.547 57.3536 162.002C57.8984 161.457 58.2045 160.718 58.2045 159.947C58.2045 159.177 57.8984 158.438 57.3536 157.893C56.8088 157.349 56.07 157.042 55.2996 157.042ZM37.8703 145.423C37.0995 145.423 36.3607 145.729 35.8159 146.274C35.2714 146.819 34.9654 147.557 34.9654 148.328C34.9654 149.098 35.2714 149.837 35.8159 150.382C36.3607 150.927 37.0995 151.233 37.8703 151.233C38.6406 151.233 39.3794 150.927 39.9243 150.382C40.4691 149.837 40.7751 149.098 40.7751 148.328C40.7751 147.557 40.4691 146.819 39.9243 146.274C39.3794 145.729 38.6406 145.423 37.8703 145.423ZM125.018 35.036C124.247 35.036 123.509 35.342 122.964 35.8869C122.419 36.4317 122.113 37.1705 122.113 37.9409C122.113 38.7113 122.419 39.4501 122.964 39.9949C123.509 40.5397 124.247 40.8458 125.018 40.8458C125.788 40.8458 126.527 40.5397 127.072 39.9949C127.617 39.4501 127.923 38.7113 127.923 37.9409C127.923 37.1705 127.617 36.4317 127.072 35.8869C126.527 35.342 125.788 35.036 125.018 35.036ZM101.778 75.7048C101.008 75.7048 100.269 76.0109 99.7242 76.5557C99.1794 77.1005 98.8733 77.8393 98.8733 78.6097C98.8733 79.3801 99.1794 80.1192 99.7242 80.6637C100.269 81.2085 101.008 81.5146 101.778 81.5146C102.549 81.5146 103.288 81.2085 103.833 80.6637C104.377 80.1192 104.683 79.3801 104.683 78.6097C104.683 77.8393 104.377 77.1005 103.833 76.5557C103.288 76.0109 102.549 75.7048 101.778 75.7048Z" fill="#FAFAFA"/>
</svg>
