<svg width="137" height="141" viewBox="0 0 137 141" fill="none" xmlns="http://www.w3.org/2000/svg">
<path d="M9.5 84.1C9.5 84.1 9.99999 83.5 10.6 82.5C10.9 82 11.2 81.4 11.4 80.8C11.7 80.2 11.9 79.5 12 78.7C12.1 78.3 12.1 78 12.1 77.6C12.1 77.2 12.1 76.9 12.1 76.6C12.1 75.9 11.9 75.3 11.8 74.8C11.7 74.3 11.6 73.9 11.4 73.6C11.3 73.3 11.2 73.1 11.2 73.1C11.2 73.1 10.6 73.6 9.9 74.5C9.8 74.6 9.69999 74.7 9.59999 74.9C9.49999 75 9.4 75.2 9.4 75.3C9.2 75.6 9.1 75.9 8.9 76.2C8.6 76.8 8.4 77.5 8.2 78.3L9.5 84.1Z" fill="#F16334"/>
<path d="M8.8 84.3C8.8 84.3 7.7 83.9 6.3 83C5.9 82.8 5.6 82.5 5.2 82.2C4.8 81.9 4.5 81.5 4.1 81.1C3.7 80.7 3.4 80.3 3 79.8C2.8 79.6 2.7 79.3 2.5 79.1C2.4 78.8 2.2 78.6 2.1 78.3C1 76.1 0.700001 73.6 0.800001 71.8C0.900001 70 1.2 68.8 1.2 68.8C1.2 68.8 2.2 69.5 3.4 70.8C4 71.4 4.6 72.2 5.3 73C5.6 73.4 5.9 73.9 6.2 74.3C6.5 74.8 6.7 75.3 7 75.8L8.8 84.3Z" fill="#F16334"/>
<path d="M15.2 98.6C15.2 98.6 15.3 98.4 15.4 98.1C15.5 97.8 15.7 97.3 15.8 96.8C15.9 96.3 16.1 95.6 16.2 95C16.2 94.8 16.2 94.7 16.2 94.5C16.2 94.3 16.2 94.1 16.2 94C16.2 93.6 16.2 93.3 16.2 92.9C16 91.4 15.5 90.1 15 89.2C14.9 89.1 14.9 89 14.8 88.9C14.7 88.8 14.7 88.7 14.6 88.6C14.5 88.4 14.4 88.3 14.3 88.1C14.1 87.8 14 87.7 14 87.7C14 87.7 13.5 88.3 13.1 89.4C12.9 89.9 12.7 90.5 12.6 91.2C12.5 91.5 12.5 91.9 12.5 92.3C12.5 92.7 12.5 93.1 12.5 93.4L15.2 98.6Z" fill="#F16334"/>
<path d="M14.6 99C14.6 99 14.5 99 14.4 99C14.3 99 14.1 99 13.8 98.9C13.3 98.8 12.6 98.6 11.8 98.3C10.2 97.7 8.2 96.7 6.5 94.8C6.1 94.3 5.7 93.8 5.4 93.3C5.2 93 5.1 92.8 4.9 92.5C4.8 92.2 4.6 92 4.5 91.7C4.3 91.2 4.1 90.7 3.9 90.2C3.7 89.7 3.6 89.2 3.5 88.8C3.3 87.9 3.2 87.1 3.2 86.6C3.2 86.3 3.2 86.1 3.2 86C3.2 85.9 3.2 85.8 3.2 85.8C3.2 85.8 3.3 85.8 3.4 85.9C3.5 86 3.7 86 3.9 86.2C4.4 86.4 5 86.8 5.7 87.2C6.4 87.6 7.19999 88.2 8.09999 88.9C8.49999 89.2 8.9 89.6 9.3 90C9.5 90.2 9.7 90.4 9.9 90.6C10.1 90.8 10.3 91 10.5 91.2L14.6 99Z" fill="#F16334"/>
<path d="M24.3 111.2C24.3 111.2 24.3 111 24.4 110.7C24.4 110.4 24.5 109.9 24.5 109.3C24.5 108.7 24.5 108.1 24.4 107.4C24.4 107.1 24.3 106.7 24.2 106.4C24.1 106.1 24 105.7 23.9 105.3C23.6 104.6 23.3 104 22.9 103.4C22.5 102.8 22.2 102.4 21.8 102C21.4 101.6 21.1 101.3 20.9 101.1C20.7 100.9 20.5 100.8 20.5 100.8C20.5 100.8 20.4 101 20.3 101.3C20.2 101.6 20.1 102.1 20 102.6C19.9 103.1 19.9 103.8 19.9 104.5C19.9 104.8 20 105.2 20 105.6C20.1 106 20.2 106.3 20.3 106.7L24.3 111.2Z" fill="#F16334"/>
<path d="M23.9 111.7C23.9 111.7 23.6 111.7 23.1 111.8C22.8 111.8 22.5 111.8 22.2 111.8C21.9 111.8 21.5 111.8 21.1 111.7C20.3 111.6 19.3 111.4 18.2 111.1C17.2 110.8 16.1 110.3 15.1 109.6C14.1 108.9 13.2 108 12.5 107.1C11.8 106.2 11.3 105.3 10.8 104.5C10.4 103.7 10.1 103 9.90001 102.5C9.70001 102 9.60001 101.7 9.60001 101.7C9.60001 101.7 10.8 101.9 12.4 102.4C12.8 102.5 13.2 102.7 13.7 102.8C14.2 103 14.6 103.1 15.1 103.4C15.6 103.6 16.1 103.9 16.5 104.1C17 104.4 17.5 104.7 18 105L23.9 111.7Z" fill="#F16334"/>
<path d="M36.3 121.1C36.3 121.1 36.2 120.3 36 119.2C35.9 118.7 35.7 118 35.4 117.4C35.2 116.8 34.8 116.1 34.4 115.5C34 114.9 33.5 114.4 33 113.9C32.9 113.8 32.8 113.7 32.6 113.6C32.5 113.5 32.4 113.4 32.2 113.3C32 113.1 31.7 112.9 31.5 112.8C31.1 112.5 30.7 112.3 30.4 112.2C30.1 112.1 29.9 112 29.9 112C29.9 112 29.9 112 29.9 112.1C29.9 112.2 29.9 112.3 29.9 112.5C29.9 112.8 29.9 113.3 30 113.8C30.1 114.4 30.2 115 30.4 115.7C30.5 116 30.6 116.4 30.8 116.7C31 117 31.2 117.4 31.4 117.7L36.3 121.1Z" fill="#F16334"/>
<path d="M36 121.7C36 121.7 35.7 121.8 35.3 122C34.8 122.2 34.1 122.3 33.3 122.5C32.5 122.6 31.5 122.7 30.4 122.6C30.1 122.6 29.9 122.6 29.6 122.5C29.3 122.5 29 122.4 28.8 122.4C28.2 122.3 27.6 122.1 27.1 121.9C26.8 121.8 26.5 121.7 26.2 121.6C25.9 121.5 25.7 121.3 25.4 121.2C24.9 120.9 24.4 120.6 23.9 120.2C23.4 119.9 23 119.5 22.7 119.1C22.3 118.7 22 118.4 21.7 118C21.1 117.3 20.7 116.7 20.4 116.2C20.1 115.7 20 115.5 20 115.5C20 115.5 21.2 115.4 22.9 115.5C23.8 115.5 24.8 115.6 25.8 115.8C26.8 116 27.9 116.2 29 116.7L36 121.7Z" fill="#F16334"/>
<path d="M50.4 127.7C50.4 127.7 50.1 126.9 49.6 126C49.1 125 48.3 123.8 47.2 122.8C46.9 122.6 46.6 122.3 46.3 122.1C46 121.9 45.7 121.7 45.4 121.6C45.1 121.4 44.8 121.3 44.5 121.2C44.2 121.1 44 121 43.7 120.9C42.7 120.5 42 120.5 42 120.5C42 120.5 42.1 121.3 42.5 122.3C42.7 122.8 43 123.4 43.3 124C43.7 124.6 44.2 125.2 44.7 125.7L50.4 127.7Z" fill="#F16334"/>
<path d="M50.2 128.4C50.2 128.4 49.3 129.1 47.7 129.8C47.5 129.9 47.3 130 47.1 130.1C46.9 130.2 46.7 130.3 46.4 130.3C45.9 130.4 45.4 130.6 44.9 130.7C44.4 130.8 43.8 130.9 43.2 130.9C42.6 130.9 42 130.9 41.4 130.8C40.8 130.7 40.2 130.6 39.6 130.5C39 130.3 38.5 130.1 37.9 129.9C37.4 129.7 36.9 129.5 36.4 129.2C35.9 128.9 35.5 128.7 35.2 128.4C34.4 127.9 33.8 127.4 33.5 127C33.1 126.6 32.9 126.4 32.9 126.4C32.9 126.4 33.2 126.3 33.7 126.1C34.2 126 34.9 125.8 35.7 125.6C36.5 125.4 37.5 125.3 38.6 125.2C39.7 125.1 40.8 125.1 41.9 125.2L50.2 128.4Z" fill="#F16334"/>
<path d="M51 9.09999C51 9.09999 51.2 9.2 51.4 9.4C51.5 9.5 51.7 9.6 51.9 9.7C52.1 9.8 52.3 9.89999 52.6 10.1C53.1 10.4 53.7 10.6 54.3 10.8C54.6 10.9 55 11 55.3 11.1C55.7 11.2 56 11.2 56.4 11.3C57.1 11.4 57.8 11.3 58.5 11.2C59.2 11.1 59.7 11 60.3 10.8C60.8 10.6 61.2 10.5 61.5 10.3C61.8 10.1 62 9.99999 62 9.99999C62 9.99999 61.9 9.89999 61.6 9.59999C61.4 9.39999 61 9.09999 60.5 8.79999C60 8.49999 59.5 8.19999 58.8 7.89999C58.5 7.79999 58.1 7.69999 57.8 7.59999C57.4 7.49999 57.1 7.49999 56.7 7.39999L51 9.09999Z" fill="#F16334"/>
<path d="M51 9.3C51 9.3 51.1 9 51.3 8.5C51.5 8 51.8 7.4 52.2 6.7C52.6 6 53.2 5.1 53.9 4.4C54.6 3.6 55.6 2.9 56.6 2.2C57.7 1.6 58.8 1.2 59.9 0.9C61 0.7 62.1 0.5 63 0.5C63.9 0.5 64.7 0.5 65.2 0.6C65.7 0.7 66 0.700001 66 0.700001C66 0.700001 65.3 1.7 64.2 3C63.6 3.6 62.9 4.3 62.1 5C61.7 5.3 61.2 5.8 60.2 6.5L51 9.3Z" fill="#F16334"/>
<path d="M36.4 16.3C36.4 16.3 36.6 16.4 36.9 16.5C37.2 16.6 37.7 16.7 38.2 16.8C38.8 16.9 39.4 17 40.1 17.1C40.8 17.1 41.5 17.1 42.2 17C42.9 16.9 43.6 16.7 44.2 16.4C44.8 16.1 45.4 15.9 45.8 15.6C46.2 15.3 46.6 15 46.9 14.8C47.2 14.6 47.3 14.5 47.3 14.5C47.3 14.5 47.1 14.4 46.8 14.2C46.5 14 46.1 13.8 45.6 13.7C45.1 13.5 44.5 13.4 43.8 13.3C43.5 13.3 43.1 13.2 42.7 13.2C42.3 13.2 42 13.2 41.6 13.3L36.4 16.3Z" fill="#F16334"/>
<path d="M36 15.8C36 15.8 36 15.5 36.1 15C36.2 14.5 36.3 13.8 36.5 13C36.7 12.2 37.1 11.3 37.6 10.3C38.1 9.4 38.8 8.4 39.7 7.5C39.8 7.4 39.9 7.3 40 7.2C40.1 7.1 40.2 7 40.4 6.9C40.6 6.7 40.9 6.5 41.1 6.4C41.6 6.1 42.1 5.7 42.6 5.5C43.6 5 44.6 4.6 45.5 4.3C45.9 4.2 46.3 4.1 46.7 4C47.1 3.9 47.4 3.9 47.7 3.8C48.2 3.7 48.5 3.7 48.5 3.7C48.5 3.7 48.1 4.8 47.3 6.3C47.2 6.5 47.1 6.7 47 6.9C46.9 7.1 46.8 7.3 46.6 7.5C46.4 7.9 46.1 8.4 45.8 8.8C45.5 9.2 45.2 9.69999 44.8 10.1C44.4 10.5 44.1 11 43.6 11.4L36 15.8Z" fill="#F16334"/>
<path d="M24.4 26.2C24.4 26.2 25.2 26.3 26.3 26.2C26.6 26.2 26.9 26.2 27.2 26.1C27.5 26.1 27.8 26 28.2 26C28.9 25.9 29.6 25.7 30.2 25.4C31.6 24.8 32.6 23.9 33.4 23.1C34.1 22.3 34.5 21.7 34.5 21.7C34.5 21.7 33.8 21.5 32.7 21.4C32.1 21.4 31.5 21.3 30.8 21.4C30.1 21.5 29.4 21.7 28.7 22L24.4 26.2Z" fill="#F16334"/>
<path d="M23.9 25.8C23.9 25.8 23.6 24.7 23.7 23C23.7 22.2 23.8 21.2 24.1 20.1C24.3 19 24.8 18 25.4 16.9C26 15.8 26.9 14.9 27.7 14.1C27.9 13.9 28.1 13.7 28.3 13.5C28.5 13.3 28.7 13.2 28.9 13C29.3 12.7 29.7 12.4 30.1 12.2C30.5 12 30.9 11.8 31.2 11.6C31.5 11.4 31.8 11.3 32.1 11.2C32.7 11.1 33 11 33 11C33 11 33 11.3 32.9 11.8C32.8 12.3 32.7 13 32.5 13.8C32.3 14.6 32 15.6 31.7 16.6C31.6 16.8 31.5 17.1 31.4 17.3C31.3 17.6 31.2 17.8 31.1 18.1C30.9 18.6 30.6 19.1 30.3 19.6L23.9 25.8Z" fill="#F16334"/>
<path d="M15.3 38.8C15.3 38.8 16.1 38.7 17.2 38.4C17.7 38.2 18.3 38 18.9 37.7C19.5 37.4 20.2 37.1 20.7 36.6C21.3 36.1 21.8 35.6 22.2 35.1C22.4 34.8 22.6 34.6 22.7 34.3C22.9 34 23 33.8 23.1 33.6C23.6 32.7 23.9 32 23.9 32C23.9 32 23.1 31.9 22 32.1C20.9 32.3 19.5 32.7 18.2 33.7L15.3 38.8Z" fill="#F16334"/>
<path d="M14.6 38.5C14.6 38.5 14.1 37.5 13.7 35.8C13.6 35.4 13.5 34.9 13.5 34.4C13.4 33.9 13.4 33.4 13.4 32.9C13.4 32.4 13.4 31.8 13.5 31.2C13.6 30.6 13.7 30 13.9 29.4C14.1 28.8 14.3 28.2 14.6 27.7C14.9 27.2 15.2 26.7 15.5 26.2C15.8 25.7 16.1 25.3 16.5 24.9C16.8 24.5 17.2 24.1 17.5 23.8C18.2 23.2 18.7 22.7 19.2 22.3C19.6 22 19.9 21.8 19.9 21.8C19.9 21.8 20 22.1 20 22.6C20 22.9 20.1 23.2 20.1 23.5C20.1 23.9 20.1 24.3 20.2 24.7C20.2 25.6 20.2 26.6 20.1 27.6C20 28.7 19.8 29.8 19.4 30.9L14.6 38.5Z" fill="#F16334"/>
<path d="M9.5 53.2C9.5 53.2 10.3 52.9 11.2 52.3C11.7 52 12.2 51.6 12.7 51.2C13.2 50.8 13.8 50.3 14.2 49.7C14.4 49.4 14.6 49.1 14.8 48.8C15 48.5 15.1 48.2 15.3 47.9C15.6 47.3 15.8 46.7 15.9 46.2C16 45.7 16.1 45.3 16.2 44.9C16.3 44.6 16.3 44.4 16.3 44.4C16.3 44.4 15.5 44.5 14.5 45C14 45.2 13.4 45.5 12.9 45.9C12.3 46.3 11.8 46.8 11.3 47.4L9.5 53.2Z" fill="#F16334"/>
<path d="M8.79999 53.1C8.79999 53.1 8.7 53 8.7 52.9C8.6 52.8 8.5 52.6 8.4 52.4C8.1 52 7.69999 51.4 7.29999 50.7C6.89999 49.9 6.49999 49 6.29999 48C6.19999 47.5 6.09999 46.9 5.99999 46.3C5.99999 46 5.89999 45.7 5.89999 45.4C5.89999 45.1 5.89999 44.8 5.89999 44.5C5.99999 42 7 39.7 7.9 38.2C8.4 37.4 8.8 36.8 9.2 36.4C9.4 36.2 9.49999 36 9.59999 35.9C9.69999 35.8 9.79999 35.7 9.79999 35.7C9.79999 35.7 9.8 35.8 9.9 35.9C10 36 9.99999 36.2 10.1 36.5C10.3 37 10.5 37.7 10.8 38.5C11.2 40.1 11.7 42.4 11.6 44.7L8.79999 53.1Z" fill="#F16334"/>
<path d="M7.59999 68.7C7.59999 68.7 8.29999 68.2 8.99999 67.4C9.39999 67 9.79999 66.5 10.2 66C10.6 65.4 11 64.8 11.3 64.1C11.8 62.7 12 61.4 12 60.3C12 59.8 12 59.3 12 59C12 58.7 11.9 58.5 11.9 58.5C11.9 58.5 11.2 58.8 10.3 59.5C9.89999 59.8 9.39999 60.3 8.99999 60.8C8.79999 61.1 8.59999 61.4 8.39999 61.7C8.19999 62 7.99999 62.4 7.89999 62.7L7.59999 68.7Z" fill="#F16334"/>
<path d="M6.9 68.7C6.9 68.7 6 68.1 4.8 66.8C4.2 66.2 3.6 65.4 3.1 64.4C2.8 63.9 2.6 63.4 2.4 62.9C2.2 62.4 2 61.8 1.9 61.2C1.8 60.6 1.7 60 1.7 59.4C1.7 58.8 1.7 58.2 1.7 57.6C1.8 56.5 2 55.4 2.3 54.5C2.8 52.8 3.4 51.7 3.4 51.7C3.4 51.7 4.2 52.6 5 54.1C5.2 54.5 5.4 54.9 5.6 55.3C5.8 55.7 6 56.2 6.3 56.7C6.5 57.2 6.7 57.7 6.9 58.2C7 58.5 7.09999 58.7 7.09999 59C7.19999 59.3 7.3 59.6 7.3 59.8L6.9 68.7Z" fill="#F16334"/>
<path d="M66.9 140.3C66.7 140.3 66.5 140.2 66.4 140C62.5 133.4 56.4 130.5 52 129.2C25.3 121.4 6.60001 96.6 6.60001 68.7C6.60001 54.2 11.6 40.1 20.7 28.9C29.7 17.9 42.2 10.1 56 7.10001C56.3 7.00001 56.7 7.20001 56.8 7.60001C56.9 7.90001 56.7 8.30001 56.3 8.40001C28.2 14.5 7.80001 39.9 7.80001 68.7C7.80001 96 26.1 120.4 52.3 128C58.9 129.9 64.2 133.9 67.5 139.4C67.7 139.7 67.6 140.1 67.3 140.3C67.1 140.3 67 140.3 66.9 140.3Z" fill="#F16334"/>
<path d="M127.5 84.1C127.5 84.1 127 83.5 126.4 82.5C126.1 82 125.8 81.4 125.6 80.8C125.3 80.2 125.1 79.5 125 78.7C124.9 78.3 124.9 78 124.9 77.6C124.9 77.2 124.9 76.9 124.9 76.6C124.9 75.9 125.1 75.3 125.2 74.8C125.3 74.3 125.4 73.9 125.6 73.6C125.7 73.3 125.8 73.1 125.8 73.1C125.8 73.1 126.4 73.6 127.1 74.5C127.2 74.6 127.3 74.7 127.4 74.9C127.5 75 127.6 75.2 127.6 75.3C127.8 75.6 127.9 75.9 128.1 76.2C128.4 76.8 128.6 77.5 128.8 78.3L127.5 84.1Z" fill="#F16334"/>
<path d="M128.2 84.3C128.2 84.3 129.3 83.9 130.7 83C131.1 82.8 131.4 82.5 131.8 82.2C132.2 81.9 132.5 81.5 132.9 81.1C133.3 80.7 133.6 80.3 134 79.8C134.2 79.6 134.3 79.3 134.5 79.1C134.6 78.8 134.8 78.6 134.9 78.3C136 76.1 136.3 73.6 136.2 71.8C136.1 70 135.8 68.8 135.8 68.8C135.8 68.8 134.8 69.5 133.6 70.8C133 71.4 132.4 72.2 131.7 73C131.4 73.4 131.1 73.9 130.8 74.3C130.5 74.8 130.3 75.3 130 75.8L128.2 84.3Z" fill="#F16334"/>
<path d="M121.8 98.6C121.8 98.6 121.7 98.4 121.6 98.1C121.5 97.8 121.3 97.3 121.2 96.8C121.1 96.3 120.9 95.6 120.8 95C120.8 94.8 120.8 94.7 120.8 94.5C120.8 94.3 120.8 94.1 120.8 94C120.8 93.6 120.8 93.3 120.8 92.9C121 91.4 121.5 90.1 122 89.2C122.1 89.1 122.1 89 122.2 88.9C122.3 88.8 122.3 88.7 122.4 88.6C122.5 88.4 122.6 88.3 122.7 88.1C122.9 87.8 123 87.7 123 87.7C123 87.7 123.5 88.3 123.9 89.4C124.1 89.9 124.3 90.5 124.4 91.2C124.5 91.5 124.5 91.9 124.5 92.3C124.5 92.7 124.5 93.1 124.5 93.4L121.8 98.6Z" fill="#F16334"/>
<path d="M122.4 99C122.4 99 122.5 99 122.6 99C122.7 99 122.9 99 123.2 98.9C123.7 98.8 124.4 98.6 125.2 98.3C126.8 97.7 128.8 96.7 130.5 94.8C130.9 94.3 131.3 93.8 131.6 93.3C131.8 93 131.9 92.8 132.1 92.5C132.2 92.2 132.4 92 132.5 91.7C132.7 91.2 132.9 90.7 133.1 90.2C133.3 89.7 133.4 89.2 133.5 88.8C133.7 87.9 133.8 87.1 133.8 86.6C133.8 86.3 133.8 86.1 133.8 86C133.8 85.9 133.8 85.8 133.8 85.8C133.8 85.8 133.7 85.8 133.6 85.9C133.5 86 133.3 86 133.1 86.2C132.6 86.4 132 86.8 131.3 87.2C130.6 87.6 129.8 88.2 128.9 88.9C128.5 89.2 128.1 89.6 127.7 90C127.5 90.2 127.3 90.4 127.1 90.6C126.9 90.8 126.7 91 126.5 91.2L122.4 99Z" fill="#F16334"/>
<path d="M112.7 111.2C112.7 111.2 112.7 111 112.6 110.7C112.6 110.4 112.5 109.9 112.5 109.3C112.5 108.7 112.5 108.1 112.6 107.4C112.6 107.1 112.7 106.7 112.8 106.4C112.9 106.1 113 105.7 113.1 105.3C113.4 104.6 113.7 104 114.1 103.4C114.5 102.8 114.8 102.4 115.2 102C115.6 101.6 115.9 101.3 116.1 101.1C116.3 100.9 116.5 100.8 116.5 100.8C116.5 100.8 116.6 101 116.7 101.3C116.8 101.6 116.9 102.1 117 102.6C117.1 103.1 117.1 103.8 117.1 104.5C117.1 104.8 117 105.2 117 105.6C116.9 106 116.8 106.3 116.7 106.7L112.7 111.2Z" fill="#F16334"/>
<path d="M113.1 111.7C113.1 111.7 113.4 111.7 113.9 111.8C114.2 111.8 114.5 111.8 114.8 111.8C115.1 111.8 115.5 111.8 115.9 111.7C116.7 111.6 117.7 111.4 118.8 111.1C119.8 110.8 120.9 110.3 121.9 109.6C122.9 108.9 123.8 108 124.5 107.1C125.2 106.2 125.7 105.3 126.2 104.5C126.6 103.7 126.9 103 127.1 102.5C127.3 102 127.4 101.7 127.4 101.7C127.4 101.7 126.2 101.9 124.6 102.4C124.2 102.5 123.8 102.7 123.3 102.8C122.8 103 122.4 103.1 121.9 103.4C121.4 103.6 120.9 103.9 120.5 104.1C120 104.4 119.5 104.7 119 105L113.1 111.7Z" fill="#F16334"/>
<path d="M100.7 121.1C100.7 121.1 100.8 120.3 101 119.2C101.1 118.7 101.3 118 101.6 117.4C101.8 116.8 102.2 116.1 102.6 115.5C103 114.9 103.5 114.4 104 113.9C104.1 113.8 104.2 113.7 104.4 113.6C104.5 113.5 104.6 113.4 104.8 113.3C105 113.1 105.3 112.9 105.5 112.8C105.9 112.5 106.3 112.3 106.6 112.2C106.9 112.1 107.1 112 107.1 112C107.1 112 107.1 112 107.1 112.1C107.1 112.2 107.1 112.3 107.1 112.5C107.1 112.8 107.1 113.3 107 113.8C106.9 114.4 106.8 115 106.6 115.7C106.5 116 106.4 116.4 106.2 116.7C106 117 105.8 117.4 105.6 117.7L100.7 121.1Z" fill="#F16334"/>
<path d="M101 121.7C101 121.7 101.3 121.8 101.7 122C102.2 122.2 102.9 122.3 103.7 122.5C104.5 122.6 105.5 122.7 106.6 122.6C106.9 122.6 107.1 122.6 107.4 122.5C107.7 122.5 108 122.4 108.2 122.4C108.8 122.3 109.4 122.1 109.9 121.9C110.2 121.8 110.5 121.7 110.8 121.6C111.1 121.5 111.3 121.3 111.6 121.2C112.1 120.9 112.6 120.6 113.1 120.2C113.6 119.9 114 119.5 114.3 119.1C114.7 118.7 115 118.4 115.3 118C115.9 117.3 116.3 116.7 116.6 116.2C116.9 115.7 117 115.5 117 115.5C117 115.5 115.8 115.4 114.1 115.5C113.2 115.5 112.2 115.6 111.2 115.8C110.2 116 109.1 116.2 108 116.7L101 121.7Z" fill="#F16334"/>
<path d="M86.6 127.7C86.6 127.7 86.9 126.9 87.4 126C87.9 125 88.7 123.8 89.8 122.8C90.1 122.6 90.4 122.3 90.7 122.1C91 121.9 91.3 121.7 91.6 121.6C91.9 121.4 92.2 121.3 92.5 121.2C92.8 121.1 93 121 93.3 120.9C94.3 120.5 95 120.5 95 120.5C95 120.5 94.9 121.3 94.5 122.3C94.3 122.8 94 123.4 93.7 124C93.3 124.6 92.8 125.2 92.3 125.7L86.6 127.7Z" fill="#F16334"/>
<path d="M86.8 128.4C86.8 128.4 87.7 129.1 89.3 129.8C89.5 129.9 89.7 130 89.9 130.1C90.1 130.2 90.3 130.3 90.6 130.3C91.1 130.4 91.6 130.6 92.1 130.7C92.6 130.8 93.2 130.9 93.8 130.9C94.4 130.9 95 130.9 95.6 130.8C96.2 130.7 96.8 130.6 97.4 130.5C98 130.3 98.5 130.1 99.1 129.9C99.6 129.7 100.1 129.5 100.6 129.2C101.1 128.9 101.5 128.7 101.8 128.4C102.6 127.9 103.2 127.4 103.5 127C103.9 126.6 104.1 126.4 104.1 126.4C104.1 126.4 103.8 126.3 103.3 126.1C102.8 126 102.1 125.8 101.3 125.6C100.5 125.4 99.5 125.3 98.4 125.2C97.3 125.1 96.2 125.1 95.1 125.2L86.8 128.4Z" fill="#F16334"/>
<path d="M86 9.1C86 9.1 85.8 9.2 85.6 9.4C85.5 9.5 85.3 9.6 85.1 9.7C84.9 9.8 84.7 9.9 84.4 10.1C83.9 10.4 83.3 10.6 82.7 10.8C82.4 10.9 82 11 81.7 11.1C81.3 11.2 81 11.2 80.6 11.3C79.9 11.4 79.2 11.3 78.5 11.2C77.8 11.1 77.3 11 76.7 10.8C76.2 10.6 75.8 10.5 75.5 10.3C75.2 10.2 75 10.1 75 10.1C75 10.1 75.1 10 75.4 9.7C75.6 9.5 76 9.2 76.5 8.9C77 8.6 77.5 8.3 78.2 8C78.5 7.9 78.9 7.8 79.2 7.7C79.6 7.6 79.9 7.6 80.3 7.5L86 9.1Z" fill="#F16334"/>
<path d="M86 9.3C86 9.3 85.9 9 85.7 8.5C85.5 8 85.2 7.4 84.8 6.7C84.4 6 83.8 5.1 83.1 4.4C82.4 3.6 81.4 2.9 80.4 2.2C79.3 1.6 78.2 1.2 77.1 0.9C76 0.7 74.9 0.5 74 0.5C73.1 0.5 72.3 0.5 71.8 0.6C71.3 0.7 71 0.700001 71 0.700001C71 0.700001 71.7 1.7 72.8 3C73.4 3.6 74.1 4.3 74.9 5C75.3 5.3 75.8 5.8 76.8 6.5L86 9.3Z" fill="#F16334"/>
<path d="M100.6 16.3C100.6 16.3 100.4 16.4 100.1 16.5C99.8 16.6 99.3 16.7 98.8 16.8C98.2 16.9 97.6 17 96.9 17.1C96.2 17.1 95.5 17.1 94.8 17C94.1 16.9 93.4 16.7 92.8 16.4C92.2 16.1 91.6 15.9 91.2 15.6C90.8 15.3 90.4 15 90.1 14.8C89.8 14.6 89.7 14.5 89.7 14.5C89.7 14.5 89.9 14.4 90.2 14.2C90.5 14 90.9 13.8 91.4 13.7C91.9 13.5 92.5 13.4 93.2 13.3C93.5 13.3 93.9 13.2 94.3 13.2C94.7 13.2 95 13.2 95.4 13.3L100.6 16.3Z" fill="#F16334"/>
<path d="M101 15.8C101 15.8 101 15.5 100.9 15C100.8 14.5 100.7 13.8 100.5 13C100.3 12.2 99.9 11.3 99.4 10.3C98.9 9.4 98.2 8.4 97.3 7.5C97.2 7.4 97.1 7.3 97 7.2C96.9 7.1 96.8 7 96.6 6.9C96.4 6.7 96.1 6.5 95.9 6.4C95.4 6.1 94.9 5.7 94.4 5.5C93.4 5 92.4 4.6 91.5 4.3C91.1 4.2 90.7 4.1 90.3 4C89.9 3.9 89.6 3.9 89.3 3.8C88.8 3.7 88.5 3.7 88.5 3.7C88.5 3.7 88.9 4.8 89.7 6.3C89.8 6.5 89.9 6.7 90 6.9C90.1 7.1 90.2 7.3 90.4 7.5C90.6 7.9 90.9 8.4 91.2 8.8C91.5 9.2 91.8 9.69999 92.2 10.1C92.6 10.5 92.9 11 93.4 11.4L101 15.8Z" fill="#F16334"/>
<path d="M112.6 26.2C112.6 26.2 111.8 26.3 110.7 26.2C110.4 26.2 110.1 26.2 109.8 26.1C109.5 26.1 109.2 26 108.8 26C108.1 25.9 107.4 25.7 106.8 25.4C105.4 24.8 104.4 23.9 103.6 23.1C102.9 22.3 102.5 21.7 102.5 21.7C102.5 21.7 103.2 21.5 104.3 21.4C104.9 21.4 105.5 21.3 106.2 21.4C106.9 21.5 107.6 21.7 108.3 22L112.6 26.2Z" fill="#F16334"/>
<path d="M113.1 25.8C113.1 25.8 113.4 24.7 113.3 23C113.3 22.2 113.2 21.2 112.9 20.1C112.7 19 112.2 18 111.6 16.9C111 15.8 110.1 14.9 109.3 14.1C109.1 13.9 108.9 13.7 108.7 13.5C108.5 13.3 108.3 13.2 108.1 13C107.7 12.7 107.3 12.4 106.9 12.2C106.5 12 106.1 11.8 105.8 11.6C105.5 11.4 105.2 11.3 104.9 11.2C104.4 11 104.1 10.9 104.1 10.9C104.1 10.9 104.1 11.2 104.2 11.7C104.3 12.2 104.4 12.9 104.6 13.7C104.8 14.5 105.1 15.5 105.4 16.5C105.5 16.7 105.6 17 105.7 17.2C105.8 17.5 105.9 17.7 106 18C106.2 18.5 106.5 19 106.8 19.5L113.1 25.8Z" fill="#F16334"/>
<path d="M121.7 38.8C121.7 38.8 120.9 38.7 119.8 38.4C119.3 38.2 118.7 38 118.1 37.7C117.5 37.4 116.8 37.1 116.3 36.6C115.7 36.1 115.2 35.6 114.8 35.1C114.6 34.8 114.4 34.6 114.3 34.3C114.1 34 114 33.8 113.9 33.6C113.4 32.7 113.1 32 113.1 32C113.1 32 113.9 31.9 115 32.1C116.1 32.3 117.5 32.7 118.8 33.7L121.7 38.8Z" fill="#F16334"/>
<path d="M122.4 38.5C122.4 38.5 122.9 37.5 123.3 35.8C123.4 35.4 123.5 34.9 123.5 34.4C123.6 33.9 123.6 33.4 123.6 32.9C123.6 32.4 123.6 31.8 123.5 31.2C123.4 30.6 123.3 30 123.1 29.4C122.9 28.8 122.7 28.2 122.4 27.7C122.1 27.2 121.8 26.7 121.5 26.2C121.2 25.7 120.9 25.3 120.5 24.9C120.2 24.5 119.8 24.1 119.5 23.8C118.8 23.2 118.3 22.7 117.8 22.3C117.4 22 117.1 21.8 117.1 21.8C117.1 21.8 117 22.1 117 22.6C117 22.9 116.9 23.2 116.9 23.5C116.9 23.9 116.9 24.3 116.8 24.7C116.8 25.6 116.8 26.6 116.9 27.6C117 28.7 117.2 29.8 117.6 30.9L122.4 38.5Z" fill="#F16334"/>
<path d="M127.5 53.2C127.5 53.2 126.7 52.9 125.8 52.3C125.3 52 124.8 51.6 124.3 51.2C123.8 50.8 123.2 50.3 122.8 49.7C122.6 49.4 122.4 49.1 122.2 48.8C122 48.5 121.9 48.2 121.7 47.9C121.4 47.3 121.2 46.7 121.1 46.2C121 45.7 120.9 45.3 120.8 44.9C120.7 44.6 120.7 44.4 120.7 44.4C120.7 44.4 121.5 44.5 122.5 45C123 45.2 123.6 45.5 124.1 45.9C124.7 46.3 125.2 46.8 125.7 47.4L127.5 53.2Z" fill="#F16334"/>
<path d="M128.2 53.1C128.2 53.1 128.3 53 128.3 52.9C128.4 52.8 128.5 52.6 128.6 52.4C128.9 52 129.3 51.4 129.7 50.7C130.1 49.9 130.5 49 130.7 48C130.8 47.5 130.9 46.9 131 46.3C131 46 131.1 45.7 131.1 45.4C131.1 45.1 131.1 44.8 131.1 44.5C131 42 130 39.7 129.1 38.2C128.6 37.4 128.2 36.8 127.8 36.4C127.6 36.2 127.5 36 127.4 35.9C127.3 35.8 127.2 35.7 127.2 35.7C127.2 35.7 127.2 35.8 127.1 35.9C127 36 127 36.2 126.9 36.5C126.7 37 126.5 37.7 126.2 38.5C125.8 40.1 125.3 42.4 125.4 44.7L128.2 53.1Z" fill="#F16334"/>
<path d="M129.4 68.7C129.4 68.7 128.7 68.2 128 67.4C127.6 67 127.2 66.5 126.8 66C126.4 65.4 126 64.8 125.7 64.1C125.2 62.7 125 61.4 125 60.3C125 59.8 125 59.3 125 59C125 58.7 125.1 58.5 125.1 58.5C125.1 58.5 125.8 58.8 126.7 59.5C127.1 59.8 127.6 60.3 128 60.8C128.2 61.1 128.4 61.4 128.6 61.7C128.8 62 129 62.4 129.1 62.7L129.4 68.7Z" fill="#F16334"/>
<path d="M130.1 68.7C130.1 68.7 131 68.1 132.2 66.8C132.8 66.2 133.4 65.4 133.9 64.4C134.2 63.9 134.4 63.4 134.6 62.9C134.8 62.4 135 61.8 135.1 61.2C135.2 60.6 135.3 60 135.3 59.4C135.3 58.8 135.3 58.2 135.3 57.6C135.2 56.5 135 55.4 134.7 54.5C134.2 52.8 133.6 51.7 133.6 51.7C133.6 51.7 132.8 52.6 132 54.1C131.8 54.5 131.6 54.9 131.4 55.3C131.2 55.7 131 56.2 130.7 56.7C130.5 57.2 130.3 57.7 130.1 58.2C130 58.5 129.9 58.7 129.9 59C129.8 59.3 129.7 59.6 129.7 59.8L130.1 68.7Z" fill="#F16334"/>
<path d="M70.1 140.3C70 140.3 69.9 140.3 69.8 140.2C69.5 140 69.4 139.6 69.6 139.3C72.9 133.8 78.1 129.8 84.8 127.9C111 120.3 129.3 95.9 129.3 68.6C129.3 39.8 108.9 14.5 80.8 8.29999C80.5 8.19999 80.2 7.89999 80.3 7.49999C80.4 7.19999 80.7 6.89999 81.1 6.99999C94.9 9.99999 107.5 17.8 116.4 28.8C125.5 40 130.5 54.1 130.5 68.6C130.5 96.5 111.8 121.3 85.1 129.1C80.7 130.4 74.6 133.3 70.7 139.9C70.5 140.2 70.3 140.3 70.1 140.3Z" fill="#F16334"/>
<path d="M112.5 71.4H24.5V71.8H112.5V71.4Z" fill="#F16334"/>
<path d="M42.2786 58.6H47.3186C48.1586 58.6 48.7666 58.792 49.1426 59.176C49.5266 59.552 49.7186 60.16 49.7186 61V62.2C49.7186 63.04 49.5266 63.652 49.1426 64.036C48.7666 64.412 48.1586 64.6 47.3186 64.6H44.4386V67H42.2786V58.6ZM47.5586 61C47.5586 60.52 47.3186 60.28 46.8386 60.28H44.4386V62.92H46.8386C47.3186 62.92 47.5586 62.68 47.5586 62.2V61ZM57.9981 62.32L56.3181 65.32H54.6381L52.9581 62.32V67H50.7981V58.6H53.0781L55.4781 63.04L57.8781 58.6H60.1581V67H57.9981V62.32ZM65.5628 67H61.2428V65.32H62.3228V60.28H61.2428V58.6H65.5628V60.28H64.4828V65.32H65.5628V67ZM66.2819 63.64V61.96H71.2019V63.64H66.2819ZM73.4153 67H71.0753L74.2553 58.6H76.6553L79.8353 67H77.4953L76.9553 65.5H73.9553L73.4153 67ZM74.4953 63.94H76.4153L75.4553 61.12L74.4953 63.94ZM86.6805 66.88C84.8965 67.04 83.4165 67.12 82.2405 67.12C81.4565 67.12 80.8805 66.936 80.5125 66.568C80.1445 66.2 79.9605 65.624 79.9605 64.84V61C79.9605 60.16 80.1485 59.552 80.5245 59.176C80.9085 58.792 81.5205 58.6 82.3605 58.6H86.6805V60.28H82.8405C82.3605 60.28 82.1205 60.52 82.1205 61V64.84C82.1205 65.024 82.1725 65.172 82.2765 65.284C82.3885 65.388 82.5285 65.44 82.6965 65.44C82.8645 65.44 83.0485 65.44 83.2485 65.44C83.4485 65.432 83.6565 65.424 83.8725 65.416C84.0885 65.408 84.3045 65.4 84.5205 65.392C84.7445 65.384 85.0285 65.368 85.3725 65.344C85.7245 65.32 86.1605 65.292 86.6805 65.26V66.88ZM87.6419 58.6H92.6819C93.5219 58.6 94.1299 58.792 94.5059 59.176C94.8899 59.552 95.0819 60.16 95.0819 61V62.2C95.0819 63.04 94.8899 63.652 94.5059 64.036C94.1299 64.412 93.5219 64.6 92.6819 64.6H89.8019V67H87.6419V58.6ZM92.9219 61C92.9219 60.52 92.6819 60.28 92.2019 60.28H89.8019V62.92H92.2019C92.6819 62.92 92.9219 62.68 92.9219 62.2V61Z" fill="#F16334"/>
<path d="M42.4953 86H40.3353V79.28H37.8153V77.6H45.0153V79.28H42.4953V86ZM45.8567 77.6H50.8967C51.7367 77.6 52.3447 77.792 52.7207 78.176C53.1047 78.552 53.2967 79.16 53.2967 80V81.08C53.2967 81.744 53.1847 82.26 52.9607 82.628C52.7447 82.996 52.3967 83.24 51.9167 83.36L53.4167 86H51.0767L49.6967 83.48H48.0167V86H45.8567V77.6ZM51.1367 80C51.1367 79.52 50.8967 79.28 50.4167 79.28H48.0167V81.8H50.4167C50.8967 81.8 51.1367 81.56 51.1367 81.08V80ZM55.9934 86H53.6534L56.8334 77.6H59.2334L62.4134 86H60.0734L59.5334 84.5H56.5334L55.9934 86ZM57.0734 82.94H58.9934L58.0334 80.12L57.0734 82.94ZM66.973 86H62.653V84.32H63.733V79.28H62.653V77.6H66.973V79.28H65.893V84.32H66.973V86ZM75.372 86H73.092L70.212 80.96V86H68.052V77.6H70.332L73.212 82.64V77.6H75.372V86ZM80.7777 86H76.4577V84.32H77.5377V79.28H76.4577V77.6H80.7777V79.28H79.6977V84.32H80.7777V86ZM89.1767 86H86.8967L84.0167 80.96V86H81.8567V77.6H84.1367L87.0167 82.64V77.6H89.1767V86ZM97.8223 85.82C95.9503 86.02 94.2303 86.12 92.6623 86.12C91.8783 86.12 91.3023 85.936 90.9343 85.568C90.5663 85.2 90.3823 84.624 90.3823 83.84V80C90.3823 79.16 90.5703 78.552 90.9463 78.176C91.3303 77.792 91.9423 77.6 92.7823 77.6H97.1023V79.28H93.2623C92.7823 79.28 92.5423 79.52 92.5423 80V83.84C92.5423 84.024 92.5943 84.172 92.6983 84.284C92.8103 84.388 92.9583 84.44 93.1423 84.44C94.0623 84.44 94.9023 84.42 95.6623 84.38V82.64H94.1023V81.2H97.8223V85.82Z" fill="#F16334"/>
<path d="M42.4 93.2L43.6 96.7H47.3L44.3 98.9L45.4 102.4L42.4 100.3L39.5 102.5L40.6 98.9L37.6 96.7H41.3L42.4 93.2Z" fill="#F16334"/>
<path d="M55.4 93.2L56.6 96.7H60.3L57.3 98.9L58.4 102.4L55.4 100.3L52.5 102.5L53.6 98.9L50.6 96.7H54.3L55.4 93.2Z" fill="#F16334"/>
<path d="M68.5 93.2L69.6 96.7H73.3L70.3 98.9L71.4 102.4L68.5 100.3L65.5 102.5L66.6 98.9L63.6 96.7H67.3L68.5 93.2Z" fill="#F16334"/>
<path d="M81.5 93.2L82.6 96.7H86.3L83.3 98.9L84.5 102.4L81.5 100.3L78.5 102.5L79.6 98.9L76.6 96.7H80.3L81.5 93.2Z" fill="#F16334"/>
<path d="M94.5 93.2L95.6 96.7H99.3L96.3 98.9L97.5 102.4L94.5 100.3L91.5 102.5L92.6 98.9L89.6 96.7H93.3L94.5 93.2Z" fill="#F16334"/>
<path d="M68.1 44.4C74.2 44.4 79.3 44.7 81 45.1L84.2 28.8C84.2 28.8 76.9 35.2 74.9 35.2C72.8 35.2 68.1 30.8 68.1 30.8C68.1 30.8 63.6 35.2 61.6 35.2C59.6 35.2 52 28.8 52 28.8L55.2 45C56.9 44.6 62 44.4 68.1 44.4Z" fill="#F16334"/>
<path d="M68.1 46.3C60.7 46.3 54.6 46.7 54.6 47.3H81.5C81.6 46.8 75.5 46.3 68.1 46.3Z" fill="#F16334"/>
</svg>
