<svg width="332" height="251" viewBox="0 0 332 251" fill="none" xmlns="http://www.w3.org/2000/svg">
<g clip-path="url(#clip0)">
<path d="M284.439 135.971C284.439 174.578 261.845 208.732 227.209 229.523C205.002 242.855 177.842 250.695 148.516 250.695C109.448 250.695 79.6461 235.904 57.2288 213.245C36.5661 192.366 22.1787 164.8 12.5922 135.971C-30.2045 7.25577 41.2878 -27.8595 148.516 21.2476C216.788 52.5178 284.439 72.6129 284.439 135.971Z" fill="#F16334"/>
<path d="M227.209 68.5878V229.828C205.002 243.16 177.842 251 148.516 251C109.448 251 79.6461 236.209 57.2288 213.55V68.5878H227.209Z" fill="#F2F2F2"/>
<path d="M73.5782 147.153C82.478 144.317 91.712 142.668 101.042 142.248C105.717 142.049 110.4 142.232 115.046 142.797C119.646 143.406 124.191 144.381 128.637 145.712C133.03 146.986 137.362 148.458 141.74 149.781C146.187 151.141 150.709 152.247 155.282 153.091C159.831 153.916 164.426 154.465 169.042 154.734C173.612 155 178.227 155.052 182.785 154.564C187.042 154.154 191.211 153.095 195.149 151.424C198.822 149.819 202.217 147.638 205.205 144.963C205.951 144.296 206.669 143.6 207.358 142.874C207.764 142.448 207.119 141.8 206.712 142.227C200.886 148.328 193.228 152.111 184.923 153.374C180.398 154.062 175.787 154.102 171.223 153.924C166.556 153.744 161.905 153.273 157.297 152.515C152.744 151.759 148.241 150.732 143.81 149.44C139.457 148.176 135.164 146.72 130.827 145.407C126.452 144.03 121.985 142.964 117.46 142.217C112.923 141.524 108.336 141.205 103.747 141.263C94.5754 141.41 85.4633 142.762 76.6433 145.284C75.5355 145.595 74.4328 145.924 73.3352 146.27C72.7759 146.446 73.0147 147.33 73.5782 147.153H73.5782Z" fill="#3F3D56"/>
<path d="M73.5782 170.345C82.478 167.51 91.712 165.86 101.042 165.441C105.717 165.241 110.4 165.425 115.046 165.989C119.646 166.599 124.191 167.574 128.637 168.904C133.03 170.178 137.362 171.65 141.74 172.973C146.187 174.334 150.709 175.439 155.282 176.284C159.831 177.108 164.426 177.657 169.042 177.927C173.612 178.193 178.227 178.245 182.785 177.757C187.042 177.346 191.211 176.287 195.149 174.617C198.822 173.011 202.217 170.83 205.205 168.156C205.951 167.489 206.669 166.792 207.358 166.067C207.764 165.641 207.119 164.993 206.712 165.419C200.886 171.52 193.228 175.303 184.923 176.566C180.398 177.254 175.787 177.294 171.223 177.117C166.556 176.936 161.905 176.466 157.297 175.707C152.744 174.951 148.241 173.924 143.81 172.632C139.457 171.369 135.164 169.912 130.827 168.599C126.452 167.223 121.985 166.157 117.46 165.409C112.923 164.717 108.336 164.398 103.747 164.455C94.5754 164.602 85.4633 165.954 76.6433 168.476C75.5355 168.788 74.4328 169.117 73.3352 169.463C72.7759 169.638 73.0147 170.522 73.5782 170.345H73.5782Z" fill="#3F3D56"/>
<path d="M73.5782 126.097C82.478 123.261 91.712 121.612 101.042 121.192C105.717 120.992 110.4 121.176 115.046 121.741C119.646 122.35 124.191 123.325 128.637 124.655C133.03 125.93 137.362 127.402 141.74 128.724C146.187 130.085 150.709 131.19 155.282 132.035C159.831 132.86 164.426 133.408 169.042 133.678C173.612 133.944 178.227 133.996 182.785 133.508C187.042 133.097 191.211 132.039 195.149 130.368C198.822 128.762 202.217 126.581 205.205 123.907C205.951 123.24 206.669 122.544 207.358 121.818C207.764 121.392 207.119 120.744 206.712 121.17C200.886 127.271 193.228 131.054 184.923 132.317C180.398 133.006 175.787 133.046 171.223 132.868C166.556 132.688 161.905 132.217 157.297 131.459C152.744 130.702 148.241 129.675 143.81 128.383C139.457 127.12 135.164 125.664 130.827 124.35C126.452 122.974 121.985 121.908 117.46 121.16C112.923 120.468 108.336 120.149 103.747 120.207C94.5754 120.354 85.4633 121.705 76.6433 124.227C75.5355 124.539 74.4328 124.868 73.3352 125.214C72.7759 125.389 73.0147 126.274 73.5782 126.097H73.5782Z" fill="#3F3D56"/>
<path d="M72.4893 86.2852C74.7004 85.3039 77.2333 85.475 79.528 86.044C82.0023 86.6575 84.3322 87.7244 86.7679 88.4621C91.1276 89.7634 95.7587 89.8514 100.165 88.7167C102.645 88.0829 105.012 87.0666 107.181 85.7041C107.677 85.3913 107.219 84.5989 106.719 84.9136C102.854 87.3318 98.3853 88.6079 93.8279 88.5954C91.5422 88.5919 89.269 88.2566 87.0794 87.5999C84.6615 86.8737 82.3502 85.8192 79.9007 85.1939C77.3056 84.5313 74.5226 84.3876 72.0281 85.4947C71.4915 85.7328 71.9559 86.5219 72.4893 86.2852Z" fill="#3F3D56"/>
<path d="M140.391 226.663C148.13 226.663 154.404 220.378 154.404 212.626C154.404 204.873 148.13 198.588 140.391 198.588C132.652 198.588 126.379 204.873 126.379 212.626C126.379 220.378 132.652 226.663 140.391 226.663Z" fill="#3F3D56"/>
<path d="M64.8444 39.9023C69.0504 39.9023 72.46 36.4866 72.46 32.2732C72.46 28.0597 69.0504 24.6441 64.8444 24.6441C60.6384 24.6441 57.2288 28.0597 57.2288 32.2732C57.2288 36.4866 60.6384 39.9023 64.8444 39.9023Z" fill="#F2F2F2"/>
<path d="M131.557 59.1277C134.417 59.1277 136.736 56.805 136.736 53.9399C136.736 51.0747 134.417 48.7521 131.557 48.7521C128.697 48.7521 126.379 51.0747 126.379 53.9399C126.379 56.805 128.697 59.1277 131.557 59.1277Z" fill="#F2F2F2"/>
<path d="M47.4808 108.87C50.3408 108.87 52.6594 106.547 52.6594 103.682C52.6594 100.817 50.3408 98.494 47.4808 98.494C44.6207 98.494 42.3022 100.817 42.3022 103.682C42.3022 106.547 44.6207 108.87 47.4808 108.87Z" fill="#F2F2F2"/>
<path d="M26.6308 65.1418H26.0597V167.447H26.6308V65.1418Z" fill="#3F3D56"/>
<path d="M26.4554 158.679C32.6057 158.679 37.5915 147.281 37.5915 133.221C37.5915 119.161 32.6057 107.763 26.4554 107.763C20.3051 107.763 15.3193 119.161 15.3193 133.221C15.3193 147.281 20.3051 158.679 26.4554 158.679Z" fill="#3F3D56"/>
<path d="M26.4554 100.612C32.6057 100.612 37.5915 89.2135 37.5915 75.1534C37.5915 61.0932 32.6057 49.6952 26.4554 49.6952C20.3051 49.6952 15.3193 61.0932 15.3193 75.1534C15.3193 89.2135 20.3051 100.612 26.4554 100.612Z" fill="#3F3D56"/>
<path d="M26.7289 54.3541L26.1818 54.1899C26.2164 54.0742 29.5737 42.5487 24.061 35.1291C20.9474 30.9386 15.6046 28.8138 8.18079 28.8138V28.2417C15.7961 28.2417 21.2936 30.4448 24.5207 34.7896C30.2041 42.4418 26.7644 54.2359 26.7289 54.3541Z" fill="#3F3D56"/>
<path d="M8.18081 35.6789C12.1233 35.6789 15.3193 32.4772 15.3193 28.5278C15.3193 24.5783 12.1233 21.3766 8.18081 21.3766C4.23832 21.3766 1.0423 24.5783 1.0423 28.5278C1.0423 32.4772 4.23832 35.6789 8.18081 35.6789Z" fill="#3F3D56"/>
<path d="M234.786 190.629L229.445 239.852H266.297L267.899 236.107L270.036 239.852H304.751C304.751 239.852 302.081 189.024 297.274 187.419C292.467 185.814 234.786 190.629 234.786 190.629Z" fill="#2F2E41"/>
<path d="M266.297 82.5533C276.621 82.5533 284.99 74.1694 284.99 63.8273C284.99 53.4851 276.621 45.1012 266.297 45.1012C255.973 45.1012 247.604 53.4851 247.604 63.8273C247.604 74.1694 255.973 82.5533 266.297 82.5533Z" fill="#FFB8B8"/>
<path d="M255.615 75.5979C255.615 75.5979 257.218 92.7189 255.615 93.789C254.013 94.859 281.251 94.324 281.251 94.324C281.251 94.324 277.513 78.8081 281.251 71.3177L255.615 75.5979Z" fill="#FFB8B8"/>
<path d="M265.229 90.0438C265.229 90.0438 278.972 92.188 280.111 87.9057L287.126 97.5342L287.66 193.84C287.66 193.84 230.513 200.795 228.377 189.559C226.241 178.324 250.275 89.5087 250.275 89.5087L256.325 89.1164C256.325 89.1164 264.161 90.0438 265.229 90.0438Z" fill="#D0CDE1"/>
<path d="M256.234 84.7225L247.07 87.9036L220.9 94.324L221.968 158.528C221.968 158.528 199.537 222.731 209.684 227.547C219.832 232.362 234.252 221.126 238.525 213.101C242.797 205.075 257.752 93.789 257.752 91.6488C257.752 89.5087 256.234 84.7225 256.234 84.7225Z" fill="#3F3D56"/>
<path d="M279.768 84.7225L283.388 87.9036L309.024 99.6743L296.206 164.413C296.206 164.413 313.296 223.266 306.887 226.476C300.478 229.687 290.865 238.782 288.729 233.432C286.592 228.082 274.012 90.6368 279.768 84.7225Z" fill="#3F3D56"/>
<path d="M294.603 170.298C294.603 170.298 270.57 160.133 270.036 169.228C269.502 178.324 297.274 184.744 297.274 182.069C297.274 179.394 294.603 170.298 294.603 170.298Z" fill="#FFB8B8"/>
<path d="M235.854 166.553C235.854 166.553 263.627 187.419 252.945 192.77C242.263 198.12 228.377 174.044 228.377 174.044L235.854 166.553Z" fill="#FFB8B8"/>
<path d="M274.596 36.3965C274.684 36.2103 274.825 36.0547 275.002 35.9496C275.179 35.8445 275.383 35.7948 275.588 35.8067C267.03 35.2939 258.016 36.2931 250.856 41.0175C248.851 42.3406 246.979 43.9586 244.696 44.7042L246.549 46.1599L244.335 46.8359L247.593 48.9454C247.264 49.3201 246.842 49.601 246.37 49.7595C245.897 49.918 245.392 49.9486 244.904 49.848C246.32 50.2624 247.362 51.5247 247.892 52.904C248.421 54.2833 248.516 55.7854 248.606 57.2605C249.153 55.1321 251.472 53.8793 253.662 53.752C255.852 53.6247 257.988 54.3487 260.12 54.8691C264.762 55.9992 269.584 56.1851 274.299 55.4155C272.698 58.6346 274.049 62.4743 275.408 65.8033L278.122 72.4501C279.629 72.6019 280.694 71.1009 281.829 70.0968C282.863 69.1816 278.744 77.2304 279.382 76.9355C280.211 76.5524 288.954 66.8822 289.363 66.0653C291.231 62.338 292.352 58.1805 292.183 54.0133C292.015 49.846 290.493 45.6767 287.625 42.6527C285.679 40.5998 282.986 40.2403 281.001 38.5341C280.22 37.8626 280.217 37.338 279.144 36.9464C278.787 36.8164 274.655 36.2655 274.596 36.3965Z" fill="#2F2E41"/>
<path d="M224.639 95.9291L220.9 94.324L190.991 143.547C190.991 143.547 185.651 156.387 195.264 162.273C204.878 168.158 227.309 185.814 227.309 185.814L240.127 166.018C240.127 166.018 213.957 153.712 215.559 148.897C217.161 144.082 225.707 131.241 225.707 131.241L224.639 95.9291Z" fill="#3F3D56"/>
<path d="M302.081 98.6042L309.024 99.6743C309.024 99.6743 337.864 156.388 330.921 167.088C323.978 177.789 295.672 192.77 295.672 192.77C295.672 192.77 295.138 175.114 290.331 168.693L306.887 162.273L297.808 126.961L302.081 98.6042Z" fill="#3F3D56"/>
</g>
<defs>
<clipPath id="clip0">
<rect width="332" height="251" fill="white"/>
</clipPath>
</defs>
</svg>
