<svg width="512" height="512" viewBox="0 0 512 512" fill="none" xmlns="http://www.w3.org/2000/svg">
<g clip-path="url(#clip0)">
<path d="M134.105 451.353C126.415 451.353 118.725 448.917 112.012 444.042C98.57 434.28 93.209 417.767 98.357 401.971L136.75 284.153L36.31 211.637C22.835 201.908 17.432 185.404 22.544 169.59C27.656 153.776 41.698 143.558 58.318 143.558H182.123L219.895 26.088C224.984 10.261 239.016 0.021 255.642 0H255.691C272.295 0 286.329 10.201 291.452 26.002L329.564 143.558H342.987C348.51 143.558 352.987 148.036 352.987 153.558C352.987 159.08 348.51 163.558 342.987 163.558H322.293C317.959 163.558 314.117 160.765 312.78 156.642L272.426 32.17C269.517 23.196 261.876 20 255.687 20C255.68 20 255.673 20 255.666 20C249.473 20.008 241.826 23.219 238.935 32.21L198.932 156.619C197.602 160.754 193.756 163.558 189.412 163.558H58.318C48.877 163.558 43.478 169.852 41.574 175.742C39.67 181.633 40.363 189.895 48.017 195.423L154.371 272.208C157.895 274.752 159.372 279.281 158.025 283.414L117.372 408.169C114.448 417.142 118.756 424.224 123.764 427.859C128.771 431.495 136.84 433.399 144.466 427.843L250.515 350.577C254.02 348.022 258.774 348.018 262.283 350.57L367.958 427.377C375.595 432.927 383.662 431.01 388.666 427.365C393.669 423.719 397.967 416.628 395.024 407.657L354.301 283.527C352.947 279.397 354.414 274.865 357.933 272.314L464.011 195.4C471.646 189.864 472.328 181.606 470.42 175.724C468.512 169.842 463.113 163.557 453.682 163.557H432.988C427.465 163.557 422.988 159.079 422.988 153.557C422.988 148.035 427.465 143.557 432.988 143.557H453.682C470.284 143.557 484.322 153.761 489.444 169.553C494.567 185.345 489.192 201.846 475.751 211.591L375.579 284.223L414.028 401.422C419.209 417.214 413.877 433.742 400.444 443.529C387.012 453.315 369.645 453.326 356.2 443.553L256.411 371.025L156.244 444.005C149.522 448.904 141.814 451.353 134.105 451.353V451.353Z" fill="#F16334"/>
<path d="M256 512C250.477 512 246 507.522 246 502V421.123C246 415.601 250.477 411.123 256 411.123C261.523 411.123 266 415.601 266 421.123V502C266 507.522 261.523 512 256 512Z" fill="#F16334"/>
<path d="M499.933 334.776C498.909 334.776 497.868 334.617 496.841 334.284L419.923 309.292C414.671 307.585 411.796 301.943 413.503 296.691C415.209 291.439 420.851 288.568 426.104 290.27L503.022 315.262C508.274 316.969 511.149 322.611 509.442 327.863C508.068 332.089 504.148 334.776 499.933 334.776Z" fill="#F16334"/>
<path d="M359.211 113.447C357.173 113.447 355.117 112.826 353.341 111.536C348.873 108.29 347.883 102.036 351.129 97.568L398.667 32.137C401.914 27.669 408.166 26.678 412.635 29.925C417.103 33.171 418.093 39.425 414.847 43.893L367.309 109.324C365.353 112.018 362.303 113.447 359.211 113.447Z" fill="#F16334"/>
<path d="M152.789 113.447C149.696 113.447 146.647 112.017 144.69 109.324L97.152 43.894C93.906 39.426 94.897 33.172 99.364 29.926C103.833 26.678 110.086 27.67 113.332 32.138L160.87 97.569C164.116 102.037 163.125 108.291 158.658 111.537C156.884 112.826 154.827 113.447 152.789 113.447V113.447Z" fill="#F16334"/>
<path d="M12.067 334.776C7.85099 334.776 3.93199 332.089 2.55799 327.863C0.851993 322.611 3.72599 316.969 8.97799 315.262L85.896 290.27C91.15 288.564 96.79 291.438 98.497 296.691C100.204 301.943 97.329 307.585 92.077 309.292L15.16 334.284C14.133 334.617 13.091 334.776 12.067 334.776V334.776Z" fill="#F16334"/>
<path d="M387.99 163.56C385.36 163.56 382.78 162.491 380.92 160.63C379.06 158.77 377.99 156.19 377.99 153.56C377.99 150.93 379.06 148.35 380.92 146.491C382.78 144.631 385.35 143.56 387.99 143.56C390.62 143.56 393.2 144.63 395.06 146.491C396.92 148.35 397.99 150.93 397.99 153.56C397.99 156.19 396.92 158.77 395.06 160.63C393.2 162.49 390.62 163.56 387.99 163.56Z" fill="#F16334"/>
</g>
<defs>
<clipPath id="clip0">
<rect width="512" height="512" fill="white"/>
</clipPath>
</defs>
</svg>
