<svg width="250" height="40" viewBox="0 0 250 40" fill="none" xmlns="http://www.w3.org/2000/svg">
<g clip-path="url(#clip0)">
<path fill-rule="evenodd" clip-rule="evenodd" d="M26.8131 1.35171V8.62048C23.3438 7.41137 19.5448 6.70544 16.516 6.70544C12.7774 6.70544 10.6969 7.8405 10.6969 9.87995C10.6969 11.1813 11.6073 12.0438 14.2195 13.2138L21.2451 16.3548C26.865 18.8708 29.6974 22.5416 29.6974 27.311C29.6974 34.672 23.3031 39.3155 13.1673 39.3155C9.47077 39.3155 5.19482 38.7887 0.664961 37.7683V30.2549C5.15554 31.4724 9.26877 32.1224 12.4687 32.1224C16.6591 32.1224 18.9037 30.9594 18.9037 28.7914C18.9037 27.4886 18.0269 26.531 16.0194 25.6378L8.33024 22.2257C2.63038 19.6928 0 16.2807 0 11.4162C0 4.44515 6.16281 0 15.8314 0C19.2165 0 23.3831 0.513001 26.8131 1.35171ZM35.1684 0.761822H46.5305V38.5537H35.1684V0.761822ZM83.4722 0.761822V7.68532H66.3195V16.2094H81.3034V22.4717H66.3195V31.3088H83.694V38.5537H55.2788V0.761822H83.4722ZM137.149 0.761822V38.5537H126.156V13.6793L115.388 38.849H108.438L97.7421 13.6793V38.5537H90.1514V0.761822H104.026L113.835 23.7493L123.593 0.761822H137.149ZM174.12 0.761822V7.68532H156.942V16.2094H171.922V22.4717H156.942V31.3088H174.314V38.5537H145.873V0.761822H174.12ZM214.14 0.761822V38.5537H202.015L188.362 14.3153V38.5537H180.77V0.761822H193.215L206.574 24.6803V0.761822H214.14ZM247.113 1.35171V8.62048C243.669 7.41976 239.846 6.70544 236.873 6.70544C233.076 6.70544 230.997 7.82231 230.997 9.86874C230.997 11.2023 231.845 11.999 234.548 13.2152L241.542 16.3561C247.203 18.8988 250 22.5374 250 27.3627C250 34.6848 243.6 39.3185 233.487 39.3185C229.785 39.3185 225.492 38.7887 220.968 37.771V30.2577C225.452 31.4724 229.557 32.1252 232.736 32.1252C236.898 32.1252 239.205 30.9622 239.205 28.8626C239.205 27.4732 238.397 26.5772 236.293 25.6406L228.634 22.2285C222.899 19.676 220.3 16.303 220.3 11.4203C220.3 4.45351 226.466 0.0055883 236.112 0.0055883C239.507 0.00139477 243.69 0.513001 247.113 1.35171Z" fill="#00A0B0"/>
</g>
<defs>
<clipPath id="clip0">
<rect width="250" height="39.3185" fill="white"/>
</clipPath>
</defs>
</svg>
