<?xml version="1.0" encoding="utf-8"?>
<!-- Generator: Adobe Illustrator 21.1.0, SVG Export Plug-In . SVG Version: 6.00 Build 0)  -->
<svg version="1.1" id="Calque_1" xmlns="http://www.w3.org/2000/svg" xmlns:xlink="http://www.w3.org/1999/xlink" x="0px" y="0px"
	 viewBox="0 0 479 479" style="enable-background:new 0 0 479 479;" xml:space="preserve">
<style type="text/css">
	.st0{fill:#FAB699;}
	.st1{fill:#65CBC3;}
	.st2{fill:#666666;}
</style>
<polygon class="st0" points="58.4,143 15.9,231.4 20.8,239.5 463.1,239.5 463.1,224.5 416.9,143 "/>
<path class="st1" d="M230.2,14.2c0,0-69.5,10.8-50,65.8S239.5,198,239.5,198L302,88.9C302,88.9,295-1.5,230.2,14.2z"/>
<path class="st2" d="M239.1,215.5L302,106.3c4.7-9.4,7.9-19.6,7.9-29.9v-5.5c-0.8-37.7-33-67.6-70.7-66.8
	c-37.7-0.8-69.9,29.1-70.7,66.8v5.5c0,10.2,2.4,21.2,7.9,30.6L239.1,215.5z M184.1,70.2c0.8-29.1,25.9-51.9,55-51.1
	c29.1-0.8,54.2,22,55,51.1v5.5c0,7.9-1.6,15.7-5.5,22.8l-49.5,85.7l-49.5-85.7c-3.9-7.1-5.5-14.9-5.5-22.8V70.2z"/>
<path class="st2" d="M239.1,97.7c17.3,0,31.4-14.1,31.4-31.4c0-17.3-14.1-31.4-31.4-31.4c-17.3,0-31.4,14.1-31.4,31.4
	C207.7,83.5,221.8,97.7,239.1,97.7z M239.1,50.5c8.6,0,15.7,7.1,15.7,15.7s-7.1,15.7-15.7,15.7c-8.6,0-15.7-7.1-15.7-15.7
	S230.5,50.5,239.1,50.5z"/>
<path class="st2" d="M427.7,143.2v-37.7h-110v15.7H412V137H302v15.7h113.2l36.1,72.3v6.3H26.9V225l36.1-72.3h113.2V137h-110v-15.7
	h94.3v-15.7h-110v37.7l-39.3,78.6v44.8c0,11.8,6.3,22.8,15.7,29.1v179.2h424.3V295.7c9.4-6.3,15.7-17.3,15.7-29.1v-44.8L427.7,143.2
	z M321.6,286.3c-11,0-19.6-8.6-19.6-19.6V247h39.3v19.6C341.3,277.6,332.6,286.3,321.6,286.3z M81.9,247h39.3v19.6
	c0,11-8.6,19.6-19.6,19.6c-11,0-19.6-8.6-19.6-19.6V247z M137,247h39.3v19.6c0,11-8.6,19.6-19.6,19.6c-11,0-19.6-8.6-19.6-19.6V247z
	 M192,247h39.3v19.6c0,11-8.6,19.6-19.6,19.6c-11,0-19.6-8.6-19.6-19.6V247z M247,247h39.3v19.6c0,11-8.6,19.6-19.6,19.6
	c-11,0-19.6-8.6-19.6-19.6V247z M357,247h39.3v19.6c0,11-8.6,19.6-19.6,19.6c-11,0-19.6-8.6-19.6-19.6V247z M66.2,247v19.6
	c0,11-8.6,19.6-19.6,19.6c-11,0-19.6-8.6-19.6-19.6V247H66.2z M46.6,302c11,0,21.2-4.7,27.5-13.4c11.8,14.9,33.8,18.1,48.7,6.3
	c2.4-1.6,3.9-3.9,6.3-6.3c11.8,14.9,33.8,18.1,48.7,6.3c2.4-1.6,3.9-3.9,6.3-6.3c11.8,14.9,33.8,18.1,48.7,6.3
	c2.4-1.6,3.9-3.9,6.3-6.3c11.8,14.9,33.8,18.1,48.7,6.3c2.4-1.6,3.9-3.9,6.3-6.3c5.5,7.1,14.1,11.8,23.6,13.4v125.7h-275V301.2
	C44.2,302,45,302,46.6,302z M42.7,443.4h275v15.7h-275V443.4z M435.6,459.1H333.4V299.6c6.3-2.4,11.8-6.3,15.7-11
	c11.8,14.9,33.8,18.1,48.7,6.3c2.4-1.6,3.9-3.9,6.3-6.3c6.3,8.6,16.5,13.4,27.5,13.4c1.6,0,2.4,0,3.9-0.8V459.1z M451.3,266.6
	c0,11-8.6,19.6-19.6,19.6c-11,0-19.6-8.6-19.6-19.6V247h39.3V266.6z"/>
<path class="st2" d="M349.1,357h15.7v15.7h-15.7V357z"/>
<path class="st2" d="M302,317.7H58.4v86.4H302V317.7z M286.3,388.4H74.1v-55h212.2V388.4z"/>
</svg>
