<?xml version="1.0" encoding="utf-8"?>
<!-- Generator: Adobe Illustrator 24.1.2, SVG Export Plug-In . SVG Version: 6.00 Build 0)  -->
<svg version="1.1" id="Calque_1" xmlns="http://www.w3.org/2000/svg" xmlns:xlink="http://www.w3.org/1999/xlink" x="0px" y="0px"
	 viewBox="0 0 283.5 56.7" style="enable-background:new 0 0 283.5 56.7;" xml:space="preserve">
<style type="text/css">
	.st0{fill:#FFFFFF;}
</style>
<g>
	<path class="st0" d="M27.7,18.4c0,3.7-2.7,7.6-7.8,7.6c-5,0-7.8-3.9-7.8-7.6c0-3.7,2.7-7.6,7.8-7.6C25,10.8,27.7,14.7,27.7,18.4
		 M39.9,18.4C39.9,9.3,33.1,0,20,0S0,9.3,0,18.4c0,9.1,6.9,18.4,20,18.4S39.9,27.6,39.9,18.4 M58,15.1c0,1.4-0.5,3.8-3.5,3.8h-1.1
		v-7.6h1.1C57.5,11.3,58,13.7,58,15.1 M69.8,12.4c0-7.3-5.2-11.6-14-11.6H42.1h-0.3v0.3v35.4v0.3l0.3,0L53,36l0.3,0v-0.3V23
		l5.4,13.7l0.1,0.2l0.2,0L71,36l0.4,0l-0.2-0.4l-6.7-14.7C68,19.3,69.8,16.3,69.8,12.4 M83.2,18.4c0-4.7,3.4-7.6,8.9-7.6
		c2.5,0,3.9,0.5,5.9,1.3l0.5,0.2l-0.1-0.5L96.4,1l0-0.2l-0.2,0C94.8,0.4,93.2,0,91,0C79.2,0,71,7.7,71,18.7
		c0,10.3,8.2,18.1,19.1,18.1c2.5,0,4.9-0.3,6.9-0.8l0.2-0.1l0-0.2l1.6-11l0.1-0.6l-0.5,0.3c-2.1,1.1-3.9,1.6-6.4,1.6
		C87.6,26,83.2,23.4,83.2,18.4 M131.4,36l0.3,0v-0.3V0.3V0l-0.3,0l-11.6,0.8l-0.3,0v0.3v11.5h-6.3V0.3V0l-0.3,0l-11.6,0.8l-0.3,0
		v0.3v35.4v0.3l0.3,0l11.6-0.8l0.3,0v-0.3V23.1h6.3v13.4v0.3l0.3,0L131.4,36z M159,26.2l0.1-0.4h-0.4h-11.5v-3.1h6.9h0.3v-0.3v-8.6
		v-0.3h-0.3h-6.9v-2.8h10.7h0.4l-0.1-0.4l-2.3-9.3l-0.1-0.2h-0.2h-20.3H135v0.3v34.6V36h0.3h21.1h0.2l0.1-0.2L159,26.2z M184,11.5
		l0.4,0.1v-0.4V1.2V1l-0.2,0c-2.8-0.6-6.5-0.9-9.8-0.9c-9,0-14.6,4.5-14.6,11.6c0,7.3,6.1,9.4,10.2,10.8c2.1,0.7,3.8,1.3,3.8,2.3
		c0,0.8-0.5,1.6-4.2,1.6c-2.6,0-5.8-0.3-9.1-1l-0.4-0.1v0.4v9.9v0.3l0.2,0l0.3,0.1c3,0.5,5.3,1,8.9,1c10.7,0,16.9-4.3,16.9-11.9
		c0-7.4-6.6-9.7-10.9-11.3c-1.9-0.7-3.6-1.3-3.6-2c0-1.3,2-1.5,4.2-1.5C178.6,10.2,181.8,10.9,184,11.5 M212.5,11.6h0.3v-0.3V1.1
		V0.8h-0.3h-23.9h-0.2l-0.1,0.2l-2.5,10.2l-0.1,0.4h0.4h7.7v24.9v0.3l0.3,0l11.6-0.8l0.3,0v-0.3V11.6H212.5z M263.3,21.6h-5l2.5-9.6
		L263.3,21.6z M230.5,15.1c0,1.4-0.5,3.8-3.5,3.8h-1.1v-7.6h1.1C230,11.3,230.5,13.7,230.5,15.1 M280.5,35.6L268.2,1l-0.1-0.2h-0.2
		h-14h-0.2L253.6,1l-11.1,31.7l-5.4-11.9c3.3-1.6,5.2-4.6,5.2-8.5c0-7.3-5.2-11.6-14-11.6h-13.7h-0.3v0.3v35.4v0.3l0.3,0l10.9-0.8
		l0.3,0v-0.3V23l5.4,13.7l0.1,0.2l0.2,0l11.1-0.7l11.2,0.7l0.2,0l0.1-0.2l1.8-5.8h9.6l1.7,5.8l0.1,0.2l0.2,0l12.5-0.8l0.4,0
		L280.5,35.6z M278.5,4.3c0-0.8,0.6-1.4,1.4-1.4c0.3,0,0.6,0.2,0.9,0.3L280.5,2c-0.2-0.1-0.5-0.2-0.8-0.2c-1.4,0-2.4,1.1-2.4,2.5
		c0,1.5,1,2.5,2.4,2.5c0.2,0,0.6-0.1,0.8-0.2l0.1-1.3c-0.2,0.2-0.6,0.4-0.9,0.4C279,5.7,278.5,5.1,278.5,4.3 M282.9,4.3
		c0,2-1.7,3.7-3.7,3.7s-3.7-1.7-3.7-3.7c0-2,1.7-3.7,3.7-3.7S282.9,2.2,282.9,4.3 M283.5,4.3c0-2.3-1.9-4.3-4.3-4.3
		c-2.3,0-4.3,1.9-4.3,4.3c0,2.3,1.9,4.3,4.3,4.3C281.6,8.5,283.5,6.6,283.5,4.3"/>
	<path class="st0" d="M283,56.5l0.4-1.4h-4.6v-3.3h3.4v-1.3h-3.4v-2.9h4.3l-0.3-1.3h-5.4v10.3H283z M271.5,56.5v-4.9l3.6,5.2
		l1.5-0.6l-3-4.1c0.6-0.2,1.1-0.5,1.5-1c0.3-0.5,0.5-1,0.5-1.7c0-1-0.3-1.7-0.9-2.3c-0.6-0.6-1.5-0.8-2.5-0.8H270v10.4L271.5,56.5z
		 M272.1,47.5c0.6,0,1.1,0.2,1.5,0.5c0.4,0.3,0.5,0.8,0.5,1.4c0,0.6-0.2,1-0.5,1.3c-0.4,0.3-0.8,0.5-1.5,0.5l-0.6,0v-3.7H272.1z
		 M260.9,53.1c0,1.2,0.3,2,0.9,2.6c0.6,0.6,1.5,0.9,2.7,0.9c1.2,0,2.1-0.3,2.7-0.9c0.6-0.6,0.9-1.5,0.9-2.6v-7l-1.5,0.1v6.7
		c0,0.8-0.2,1.4-0.5,1.8c-0.3,0.4-0.9,0.5-1.6,0.5c-0.8,0-1.3-0.2-1.6-0.5c-0.3-0.4-0.5-1-0.5-1.8V46l-1.5,0.1V53.1z M257.6,56.5
		v-8.9h2.4v-1.4h-6.1l-0.5,1.4h2.7v9.1L257.6,56.5z M254,56.5l0.5-1.4h-4.3v-9l-1.5,0.1v10.3H254z M239.6,53.1c0,1.2,0.3,2,0.9,2.6
		c0.6,0.6,1.5,0.9,2.7,0.9c1.2,0,2.1-0.3,2.7-0.9c0.6-0.6,0.9-1.5,0.9-2.6v-7l-1.5,0.1v6.7c0,0.8-0.2,1.4-0.5,1.8
		c-0.3,0.4-0.9,0.5-1.6,0.5c-0.8,0-1.3-0.2-1.6-0.5c-0.3-0.4-0.5-1-0.5-1.8V46l-1.5,0.1V53.1z M238.4,54.7c-0.2,0.1-0.3,0.2-0.4,0.2
		c-0.1,0.1-0.2,0.1-0.3,0.1c-0.2,0.1-0.4,0.1-0.7,0.2c-0.2,0-0.5,0.1-0.8,0.1c-0.5,0-0.9-0.1-1.4-0.3s-0.9-0.5-1.2-0.8
		c-0.4-0.4-0.6-0.8-0.8-1.3c-0.2-0.5-0.3-1-0.3-1.6c0-1.2,0.4-2.1,1.1-2.9c0.7-0.8,1.6-1.1,2.7-1.1c0.4,0,0.7,0,1,0.1
		c0.3,0.1,0.6,0.2,0.9,0.4l-0.2-1.6c-0.3-0.1-0.6-0.2-0.9-0.2c-0.3,0-0.6-0.1-0.9-0.1c-0.7,0-1.4,0.1-2,0.4
		c-0.6,0.3-1.2,0.6-1.7,1.1c-0.5,0.5-0.9,1.1-1.2,1.7c-0.3,0.6-0.4,1.4-0.4,2.1c0,0.9,0.2,1.8,0.6,2.6c0.4,0.8,0.9,1.4,1.7,1.9
		c0.4,0.3,0.9,0.5,1.4,0.7c0.5,0.2,1.1,0.2,1.7,0.2c0.3,0,0.6,0,0.9-0.1c0.3-0.1,0.6-0.2,0.9-0.3L238.4,54.7z M229.6,56.5V46
		l-1.5,0.1v10.4L229.6,56.5z M222.2,56.5v-4.9l3.6,5.2l1.5-0.6l-3-4.1c0.6-0.2,1.1-0.5,1.5-1c0.3-0.5,0.5-1,0.5-1.7
		c0-1-0.3-1.7-0.9-2.3c-0.6-0.6-1.5-0.8-2.5-0.8h-2.1v10.4L222.2,56.5z M222.8,47.5c0.6,0,1.1,0.2,1.5,0.5c0.4,0.3,0.5,0.8,0.5,1.4
		c0,0.6-0.2,1-0.5,1.3c-0.4,0.3-0.8,0.5-1.5,0.5l-0.6,0v-3.7H222.8z M216.1,45.1l2.1-2.5h-1.3l-1.5,2.5H216.1z M219.2,56.5l0.4-1.4
		H215v-3.3h3.4v-1.3H215v-2.9h4.3l-0.3-1.3h-5.4v10.3H219.2z M204.4,53.1c0,1.2,0.3,2,0.9,2.6c0.6,0.6,1.5,0.9,2.7,0.9
		c1.2,0,2.1-0.3,2.7-0.9c0.6-0.6,0.9-1.5,0.9-2.6v-7l-1.5,0.1v6.7c0,0.8-0.2,1.4-0.5,1.8c-0.3,0.4-0.9,0.5-1.6,0.5
		c-0.8,0-1.3-0.2-1.6-0.5c-0.3-0.4-0.5-1-0.5-1.8V46l-1.5,0.1V53.1z M198.9,56.5v-3.4h0.8c1.1,0,1.9-0.3,2.6-0.9
		c0.6-0.6,1-1.5,1-2.5c0-1-0.3-1.9-1-2.5c-0.6-0.6-1.5-0.9-2.6-0.9h-2.3v10.4L198.9,56.5z M199.5,47.5c0.7,0,1.2,0.2,1.6,0.6
		c0.4,0.4,0.6,0.9,0.6,1.6c0,0.7-0.2,1.2-0.6,1.6s-0.9,0.6-1.6,0.6h-0.7v-4.2H199.5z M186.3,52.4c0.4,0.4,0.9,0.6,1.5,0.6
		c0.6,0,1.1-0.2,1.5-0.6c0.4-0.4,0.6-0.9,0.6-1.5c0-0.6-0.2-1.1-0.6-1.5c-0.4-0.4-0.9-0.6-1.5-0.6c-0.6,0-1.1,0.2-1.5,0.6
		s-0.6,0.9-0.6,1.5S185.9,52,186.3,52.4 M175.6,45.1l2.1-2.5h-1.3l-1.5,2.5H175.6z M178.7,56.5l0.4-1.4h-4.6v-3.3h3.4v-1.3h-3.4
		v-2.9h4.3l-0.3-1.3h-5.4v10.3H178.7z M169.7,56.5v-8.9h2.4v-1.4h-6.1l-0.5,1.4h2.7v9.1L169.7,56.5z M164.7,56.5V46l-1.5,0.1v10.4
		L164.7,56.5z M154.6,56.5v-6.9l6.7,7.1V46l-1.5,0.2V53l-6.7-7.1v10.7L154.6,56.5z M147.2,56.5v-4.9l3.6,5.2l1.5-0.6l-3-4.1
		c0.6-0.2,1.1-0.5,1.5-1c0.3-0.5,0.5-1,0.5-1.7c0-1-0.3-1.7-0.9-2.3c-0.6-0.6-1.5-0.8-2.5-0.8h-2.1v10.4L147.2,56.5z M147.8,47.5
		c0.6,0,1.1,0.2,1.5,0.5c0.4,0.3,0.5,0.8,0.5,1.4c0,0.6-0.2,1-0.5,1.3s-0.8,0.5-1.5,0.5l-0.6,0v-3.7H147.8z M144.3,56.5l0.4-1.4
		h-4.6v-3.3h3.4v-1.3h-3.4v-2.9h4.3l-0.3-1.3h-5.4v10.3H144.3z M135.3,56.5v-8.9h2.4v-1.4h-6.1l-0.5,1.4h2.7v9.1L135.3,56.5z
		 M123.2,56.6L125,53h4.1l1.8,3.6l1.4-0.4l-5.2-10.4l-5.3,10.4L123.2,56.6z M127.1,48.8l1.4,2.9h-2.9L127.1,48.8z M111.7,56.6
		l1.2-6.4l3.1,6.4l2.9-6.4l1.2,6.4l1.5-0.1L119.4,46l-3.5,7.7l-3.6-7.7l-2.1,10.5L111.7,56.6z M100,52.4c0.4,0.4,0.9,0.6,1.5,0.6
		c0.6,0,1.1-0.2,1.5-0.6c0.4-0.4,0.6-0.9,0.6-1.5c0-0.6-0.2-1.1-0.6-1.5c-0.4-0.4-0.9-0.6-1.5-0.6c-0.6,0-1.1,0.2-1.5,0.6
		c-0.4,0.4-0.6,0.9-0.6,1.5S99.5,52,100,52.4 M90.4,56.5v-8.9h2.4v-1.4h-6.1l-0.5,1.4h2.7v9.1L90.4,56.5z M78.7,56.5v-6.9l6.7,7.1
		V46l-1.5,0.2V53L77.2,46v10.7L78.7,56.5z M67.5,56.6l1.8-3.6h4.1l1.8,3.6l1.4-0.4l-5.2-10.4l-5.3,10.4L67.5,56.6z M71.3,48.8
		l1.4,2.9h-2.9L71.3,48.8z M63.3,56.5v-4.6h3.1v-1.3h-3.1v-3h4.1l-0.3-1.3h-5.3v10.4L63.3,56.5z M53.1,56.5v-6.9l6.7,7.1V46
		l-1.5,0.2V53L51.7,46v10.7L53.1,56.5z M50.2,56.5l0.4-1.4H46v-3.3h3.4v-1.3H46v-2.9h4.3l-0.3-1.3h-5.4v10.3H50.2z M39,56.5l0.4-1.4
		h-4.6v-3.3h3.4v-1.3h-3.4v-2.9H39l-0.3-1.3h-5.4v10.3H39z M24.1,56.5h2.5c0.8,0,1.5-0.1,2.2-0.4c0.6-0.2,1.2-0.6,1.7-1.1
		c0.5-0.5,0.8-1,1.1-1.6c0.3-0.6,0.4-1.3,0.4-2c0-0.9-0.2-1.7-0.6-2.4c-0.4-0.7-0.9-1.3-1.5-1.8c-0.4-0.3-1-0.5-1.6-0.7
		c-0.6-0.1-1.3-0.2-2.1-0.2h-2V56.5z M25.5,47.5h0.9c1.2,0,2.1,0.4,2.8,1.1c0.7,0.7,1.1,1.6,1.1,2.8c0,1.1-0.4,2.1-1.1,2.8
		c-0.7,0.7-1.6,1.1-2.8,1.1h-0.9V47.5z M12.2,53.4c0.3,0.7,0.6,1.2,1.1,1.8c0.5,0.5,1.1,0.9,1.7,1.1c0.6,0.2,1.4,0.4,2.2,0.4
		c0.8,0,1.5-0.1,2.1-0.4c0.6-0.2,1.2-0.6,1.7-1.1c0.5-0.5,0.9-1.1,1.2-1.7c0.3-0.7,0.4-1.4,0.4-2.1c0-0.8-0.1-1.5-0.4-2.1
		c-0.3-0.6-0.6-1.2-1.2-1.7c-0.5-0.5-1.1-0.9-1.7-1.1c-0.6-0.2-1.4-0.4-2.1-0.4c-0.8,0-1.5,0.1-2.2,0.4c-0.6,0.2-1.2,0.6-1.7,1.1
		c-0.5,0.5-0.9,1.1-1.1,1.8c-0.3,0.7-0.4,1.4-0.4,2.1C11.8,52.1,12,52.8,12.2,53.4 M14.5,54.2c-0.7-0.8-1.1-1.7-1.1-2.9
		c0-1.2,0.4-2.1,1.1-2.9c0.7-0.8,1.7-1.1,2.8-1.1c1.1,0,2,0.4,2.8,1.1c0.7,0.8,1.1,1.7,1.1,2.9c0,1.2-0.4,2.1-1.1,2.9
		c-0.7,0.8-1.7,1.1-2.8,1.1C16.1,55.3,15.2,54.9,14.5,54.2 M1.4,56.6l1.2-6.4l3.1,6.4l2.9-6.4l1.2,6.4l1.5-0.1L9.1,46l-3.5,7.7
		L2.1,46L0,56.5L1.4,56.6z"/>
</g>
</svg>
