<?xml version="1.0" encoding="utf-8"?>
<!-- Generator: Adobe Illustrator 24.1.2, SVG Export Plug-In . SVG Version: 6.00 Build 0)  -->
<svg version="1.1" id="Calque_1" xmlns="http://www.w3.org/2000/svg" xmlns:xlink="http://www.w3.org/1999/xlink" x="0px" y="0px"
	 viewBox="0 0 75.1 91" style="enable-background:new 0 0 75.1 91;" xml:space="preserve">
<style type="text/css">
	.st0{fill:#FFFFFF;}
</style>
<g>
	<g>
		<path class="st0" d="M51.9,63c-0.4,0-0.9,0.4-0.9,0.9c0,0.4,0.4,0.9,0.9,0.9s0.9-0.4,0.9-0.9C52.8,63.4,52.3,63,51.9,63z"/>
		<path class="st0" d="M64.4,58.2c0.3-0.6,1-0.9,1.4-0.9h2c0.6-3.7,0.9-7.8,0.9-11.9C68.7,17,56.8,0,35.9,0C15.2,0,3.3,17,3.3,45.4
			s11.9,45.4,32.6,45.4c4.9,0,9.3-1,13.2-2.7L64.4,58.2z M19.6,45.4c0-19.3,6.3-30.5,16.2-30.5C45.9,15,52.2,26,52.2,45.4
			c0,4.3-0.3,8.1-0.9,11.5c0.1,0,0.4,0,0.6,0c3.9,0,7,3.2,7,7s-3.2,7-7,7c-1.9,0-3.5-0.7-4.7-1.9c-2.7,4.5-6.6,6.9-11.4,6.9
			C25.9,75.9,19.6,64.7,19.6,45.4z"/>
	</g>
	<g>
		<path class="st0" d="M45.6,64c0-3.5,2.7-6.2,6.2-6.2s6.2,2.7,6.2,6.2c0,3.5-2.9,6.2-6.2,6.2C48.3,70.2,45.6,67.4,45.6,64z
			 M54.6,64c0-1.6-1.3-2.9-2.9-2.9s-2.9,1.3-2.9,2.9c0,1.7,1.3,2.9,2.9,2.9C53.3,67,54.6,65.7,54.6,64z M65.4,58.8
			c0.1-0.3,0.6-0.4,0.7-0.4h1.6c0.7,0,1.2,0.6,0.7,1.3L52.6,90c-0.1,0.1-0.6,0.4-0.7,0.4h-1.4c-0.7,0-1.2-0.6-0.7-1.3L65.4,58.8z
			 M66.6,78.6c3.5,0,6.2,2.7,6.2,6.2S69.9,91,66.6,91c-3.5,0-6.2-2.7-6.2-6.2C60.4,81.4,63.1,78.6,66.6,78.6z M66.6,87.7
			c1.6,0,2.9-1.3,2.9-2.9s-1.3-2.9-2.9-2.9c-1.7,0-2.9,1.3-2.9,2.9S65,87.7,66.6,87.7z"/>
	</g>
</g>
</svg>
