<svg xmlns="http://www.w3.org/2000/svg" width="68.093" height="66.786" xmlns:v="https://vecta.io/nano"><style><![CDATA[.B{fill:#66192d}.C{fill:#fdad9b}.D{fill:#786ab5}.E{fill:#ff8548}]]></style><circle cx="20.693" cy="20.693" r="20.693" transform="matrix(.707107 -.707107 .707107 .707107 5.435 37.521)" fill="#553e93"/><path d="M36.544 16.906l.265.166c.008-.059 4.361 1.319 4.807 1.523 1.291.591 2.084.8.667 1.251.616-.195 2.006 3.588 2.982 3.431.95-.152 1.23.917 1.482 1.651.134.389.549.617.393 1.085-.049.149-.728.454-.676.553.285.542 1.583.6 1.591 1.4-.12.197-.342.309-.572.288-.6.243-.032.73.083 1.106.278.909 1.148 1.716 1.778.682s-.816-2.057.063-3.117c.516-.622 1.893.493 1.566-.694-.094-.34-1.526-1.843-.732-2.065.039-.011.065-.088.082-.216-3.514-4.037-8.451-6.561-13.781-7.044zm16.573 11.182h0c-.1-.2-1.123.93-1.335 1.046-.775.427-.945-.416-1.594.475-.115.157-1.291 1.719-1.3 1.544.022.58-.219 1.154.061 1.71.25.5-.338.951-.3 1.477.047.691-.586 1.161-.426 1.849a7.08 7.08 0 0 1 .5 1.667c0 1.012-.182 1.472.631 2.2.523.466 1.2 2.075 2.121 1.168.169-.167 1.845-1.51 1.747-1.615.6.633.071.218.917.178.229-.011-.171 5.821-.521 5.687.064.02.133.016.194-.013q.288-.7.53-1.421a20.63 20.63 0 0 0-1.225-15.952zm-9.689 19.379c.007-.6-1.109-1.152-1.713-1.128-1.3.053-1.639-.366-2.843-.677-1.011-.261-.855-1.982-2.389-2.056-.817-.04-2.357-2.261-3.164-1.6-.533.439-1.56-.74-1.918-.745-.827-.01-.158.481-.7-.135-.355-.405-1.332.447-1.538.689-.4.468-2.139-.234-2.41-.906-.1-.238.46-1.194.046-1.874-.159-.261-1.312-.07-1.49-.244-.24-.234.617-1.095.521-1.274-.4-.746-1.723 1.125-2.3-.381-.468-1.224.142-1.683.262-2.863.057-.555 1-.827 1.459-.626.734.323.636.022 1.193-.039.439-.048.907.45 1.331.524.5.087.158 1.49.63 1.827.274.2.268-1.888.285-1.938.3-.845 1.608-.768 1.817-1.477.515-1.747 1.7-1.616 3.131-2.233.683-.294 2.371-.635 2.8-1.3.8-1.248-1.3-3.111-1.843-3.99-.006-.011-.484.538-.594.543-.406.017-.782-2.27-1.559-.957-.148.25-.717.325-.4.694.62.721-.581.893-.955.791s-2.243-1.183-1.588-1.785c1.336-1.228 1.639-.592 3.026-.6 1.59-.007 1.647 1.487 2.961-.111.364-.442-2.011-1.706-1.543-2.266 1.659-1.982 2.572 2.42 3.194 3.184.909 1.116 1.494.528 1.422-.7-.034-.581 1.2-1.121 1.286-1.748-.245-.492-.554-.949-.917-1.361a2.73 2.73 0 0 1-.748-.841c-.278-.346-.713.172-.96-.137a13.21 13.21 0 0 0-2.422-.061c-1.1-.042-2.322-.005-3.426.011-.453-.018-2.851 1.154-2.914.2-.031-.476.539-1.31-.479-.925-.326.123-.532-.058-.466-.072a6.91 6.91 0 0 0-2.58 1.139c-.312.28.435.409.486.649.1.463-1.068 1.325-1.329 1.625-.928 1.069-.886 2.492-2.136 3.532-1.444 1.2-1.524 2.958-1.538 4.612-.007.8-.7 1.142-.26 2.05.371.775 1.061 1.147 1.176 2.088.075.618-.409 1.192-.175 1.794a3.37 3.37 0 0 0 1.506 1.75 7.58 7.58 0 0 1 3.284 2.69c1.137 1.706 3.164.961 2.5 2.683-.28.726-.993 1.07-1.284 1.845-.35.929.322 1.6.754 2.354s.6 1.671 1.359 2.188c.546.371 1.541.678 1.681 1.431.224 1.2-.788 2.7-.68 3.792a2.49 2.49 0 0 0 .728 1.978c1.157.867.883-.342 1.6-.913.674-.536 1.469-.378 2.239-.591.706-.2-.135-.455.151-.616.606-.341.966.171 1.543-.348.526-.473 1.238-.608 1.483-1.346.4-1.208 2.222-.766 2.982-1.705a5.15 5.15 0 0 0 .88-1.9c.258-.863 1.531-1.258 1.541-2.192.011-.626-.003.621.004-.002z" class="D"/><path d="M30.759 10.051c-.241.426-2.664 4.142-2.157 7.777l2.637-.944 1.2-4.9z" class="C"/><g class="E"><path d="M41.29 8.528c-1.21-1.823-3.454-2.662-5.564-2.082-3.943.8-6.1 6.386-5.026 17.458a25.88 25.88 0 0 1 14.411-.478S43.77 12.703 41.29 8.528z"/><path d="M44.297 7.366l-2.772 2.741s-7.106 1.9-9.08 1.879c-1.107.029-2.15-.521-2.751-1.451a10.5 10.5 0 0 1 5.037-3.795c.326-.115.658-.212.994-.292.579-.135 1.168-.22 1.761-.253a17.5 17.5 0 0 1 6.811 1.171z"/></g><path d="M44.297 7.365c.443.477-.24 1-1.006 1.755s-1.556 1.2-1.766.986.24-1 1.006-1.755 1.562-1.204 1.766-.986z" class="B"/><path d="M41.892 10.117a1.79 1.79 0 0 1 .653-1.246c.377-.361.818-.648 1.3-.848.101-.043.216-.044.317-.001s.182.124.222.226l.222.567-1.035.66z" class="C"/><g fill="#ffba41"><path d="M36.994 20.269s8.552-4.59 11.617.417c2.269 3.706-1.142 7.158-13.793 6.807 0 0-1.25-.58-.946-3.588.121-1.192 3.122-3.636 3.122-3.636z"/><path d="M36.995 20.268s-11.389-4.621-13.643-1.732c-2.59 3.32-.106 8.956 11.9 6.941l1.463-1.573z"/></g><path d="M33.8 24.731a10.5 10.5 0 0 0-3.085.563c-.986.479-.46 1.648 1.543 1.617s1.85-.326 1.85-.326a5.14 5.14 0 0 1-.308-1.854z" class="B"/><path d="M34.805 27.512c-1.4-.993-.96-3.586-.956-3.612v-.014h.013l8.646-3.116.016.045-8.633 3.111c-.033.2-.389 2.613.938 3.551z" fill="#020202"/><path d="M36.489 20.492a2.8 2.8 0 0 1-1.729-.52 2.45 2.45 0 0 1-.91-2.388l.837-.482c.041-.227 1.656.617 1.653.617s.771.221 3.417-1.118a4.54 4.54 0 0 0 2.838-4.045c.015-.863-.229-1.711-.7-2.435-.019-.044.89-.947.864-1.038l.682-.343c-.022-.077.655-.342.646-.364l.526.444a8.62 8.62 0 0 1 .74 3.842c-.091 2.795-1.785 5.287-4.35 6.4-1.38.806-2.922 1.295-4.514 1.43z" class="C"/><g class="B"><path d="M35.925 20.599h-7.38c-.153.001-.29-.097-.34-.242l-1.534-4.536c-.035-.108-.016-.227.051-.319s.175-.146.289-.145h7.1a.75.75 0 0 1 .712.505l1.445 4.272c.036.109.017.229-.051.321s-.177.146-.292.144z"/><path d="M35.462 20.599h-7.38a.36.36 0 0 1-.341-.242l-1.534-4.536c-.035-.108-.016-.227.051-.319s.175-.146.289-.145h7.1a.75.75 0 0 1 .712.505l1.445 4.272c.036.109.017.228-.051.321s-.176.146-.291.144z"/></g><path d="M30.291 17.828c0-.172.2-.242.376-.242a.5.5 0 0 1 .459.43c0 .26-.207.294-.382.294-.237-.049-.418-.242-.453-.482z" fill="#deebe9"/><g class="B"><path d="M38.18 19.957h-10.1v.641h10.31c.119 0 .216-.097.216-.216h0c0-.113-.045-.221-.125-.301s-.188-.124-.301-.124zm-3.242-2.308c-.156-.606-.356-1.2-.6-1.776a.99.99 0 0 0-.519-.494l.012-.046a1.02 1.02 0 0 1 .548.517 12.4 12.4 0 0 1 .6 1.787z"/><path d="M36.028 19.98c-.274 0-.342-.12-.344-.125h0l-.575-1.7.045-.015.574 1.7c.008.011.074.1.3.1z"/></g><path d="M43.121 16.561a.23.23 0 0 1-.118-.03c-.181-.1-.176-.44.011-.764.077-.14.185-.259.317-.349.096-.077.227-.094.339-.043.181.1.176.44-.011.764a.74.74 0 0 1-.538.422zm.431-1.121a.33.33 0 0 0-.169.059c-.118.081-.216.189-.285.315-.155.269-.177.559-.047.634s.371-.089.526-.357.176-.559.046-.634a.14.14 0 0 0-.071-.022z" fill="#f18c7e"/><path d="M37.547 6.187c-.417.049-.833-.094-1.132-.388l-.863-1.005-.251-.293-1.478-1.721.776 2.013.466 1.208.147.382c.1.26-.032.38-.125.684-.037.123-.292.88.371.885a2.66 2.66 0 0 0 2.1-1.767z" class="C"/><path d="M35.792 4.147s1.627-1.548.688-2.855-1.173 2.1-1.173 2.1l.262.787zm-.248.611c0 .012.006.023.008.035.053.458-.128.912-.481 1.209h-.006l-.466-1.208a1.15 1.15 0 0 1 .7-.292.3.3 0 0 1 .245.256z" class="B"/><path d="M32.1 3.917a1.93 1.93 0 0 1 1.593-2.113 1.93 1.93 0 0 1 2.208 1.459 1.93 1.93 0 0 1-1.32 2.294c-1.136.221-2.24-.508-2.481-1.64z" class="C"/><path d="M35.389 2.64c-.278.206-.651.229-.952.058-.456-.472-1.192-.528-1.714-.13-.972.485-2.037.267-2.233-.279s.266-.964.877-.937-.129-.3.3-.878 1.5.017 2.037-.267 2.437-.531 2.78 1.083z" class="B"/><path d="M35.797 2.964a.37.37 0 0 1-.511.057.37.37 0 0 1-.077-.509.37.37 0 0 1 .505-.097c.174.129.211.374.083.548z" class="C"/><path d="M31.565 2.101a.42.42 0 0 1-.1-.012c-.219-.055-.28-.168-.265-.256s.141-.2.336-.178a.76.76 0 0 0 .45-.068l.038.06c-.154.079-.329.107-.5.079-.145-.015-.247.051-.259.12s.069.139.212.175c.374.094 1.021-.482 1.028-.488l.047.053a2.03 2.03 0 0 1-.987.515zm1.68-1.352a1.57 1.57 0 0 1-.78-.2l.053-.047-.026.023.025-.025c.34.183.739.224 1.11.116a4.3 4.3 0 0 0 .451-.214 1.26 1.26 0 0 1 .82-.226l-.013.069a1.21 1.21 0 0 0-.773.219 4.4 4.4 0 0 1-.458.217 1.12 1.12 0 0 1-.409.068zm2.744.459a.58.58 0 0 1-.349-.263c-.037-.075 0-.109.019-.121.143-.089.349.189.388.245v.005.006c.023.086-.013.114-.037.123-.007.003-.014.004-.021.005zm-.268-.33c-.008 0-.017.002-.024.006 0 .006 0 .045.075.117.056.067.133.115.218.136.001-.011.001-.022 0-.033-.076-.1-.199-.226-.269-.226z" fill="#fff"/><path d="M47.198 23.573a.8.8 0 0 1-.4-.106c-.213-.125-.36-.339-.4-.583a1.12 1.12 0 0 1 .14-.763c.135-.325.446-.543.798-.558s.68.176.842.488.128.691-.088.969a1.12 1.12 0 0 1-.59.5.92.92 0 0 1-.302.052zm.237-1.912a.97.97 0 0 0-.812.508c-.125.21-.171.459-.129.7a.72.72 0 0 0 .976.563 1.02 1.02 0 0 0 .539-.46.88.88 0 0 0-.222-1.216.7.7 0 0 0-.352-.095z" class="B"/><path d="M33.553 3.425c-.016-.003-.029-.015-.032-.031s.005-.032.019-.041c.16-.102.369-.083.508.047.016.014.018.038.005.054s-.037.017-.054.006a.66.66 0 0 0-.422-.04.04.04 0 0 1-.024.005zm.356.381c.023.076-.018.156-.093.183-.065.011-.131-.054-.146-.145s.027-.173.093-.183.131.054.146.145zm-1.701.103c-.01.002-.02-.001-.027-.009-.014-.014-.017-.036-.008-.054a.27.27 0 0 1 .376-.121c.018.009.027.029.023.049-.001.008-.006.015-.013.02s-.015.006-.023.003a.4.4 0 0 0-.312.1zm.483.214c.015.063-.02.127-.081.149s-.129-.007-.157-.065-.007-.129.048-.163c.074-.029.158.006.19.079z" fill="#060633"/><g fill="#020202"><path d="M33.792 5.088c-.078.001-.156-.007-.233-.024-.01-.001-.019-.008-.022-.018s-.001-.021.007-.028.019-.009.028-.006c.369.096.758-.058.961-.381.007-.013.024-.017.037-.01s.017.024.01.037c-.162.279-.466.445-.788.43z"/><path d="M34.636 4.751c-.011 0-.022-.007-.025-.018a.3.3 0 0 0-.153-.153h-.008c-.012-.008-.016-.025-.007-.038s.025-.016.038-.007h0a.36.36 0 0 1 .177.183c.005.014-.003.029-.017.034z"/></g><g class="B"><path d="M35.091 8.862v-.119c1.246-.035 2.364-.771 2.891-1.9l.11.045a3.39 3.39 0 0 1-3 1.969z"/><path d="M36.101 9.879l-.063-.1c.658-.443 1.104-1.138 1.232-1.921l.118.013a3 3 0 0 1-1.287 2.008zm-4.953 1.859l.435-1.312.113.037-.435 1.312z"/></g><g fill="#fff"><path d="M32.475 5.42a.58.58 0 0 1-.079-.005 1.2 1.2 0 0 1-.792-.639 1.47 1.47 0 0 1-.034-1.646c.116-.117.281-.171.444-.146a1.2 1.2 0 0 1 .792.639 1.47 1.47 0 0 1 .034 1.646.51.51 0 0 1-.365.151zm-.539-2.361c-.116-.001-.228.045-.31.128a1.39 1.39 0 0 0 .047 1.549c.144.299.413.518.734.6a.44.44 0 0 0 .378-.123 1.39 1.39 0 0 0-.047-1.549h0c-.144-.298-.413-.518-.734-.6a.51.51 0 0 0-.069-.005z"/><path d="M34.739 2.758c.289.512.22 1.152-.172 1.591-.373.293-.9.056-1.179-.529-.289-.513-.22-1.152.172-1.591.373-.293.901-.055 1.179.529zm-1.906.912a1.47 1.47 0 0 1-.084 1.595c-.326.292-.816.052-1.095-.536a1.47 1.47 0 0 1 .084-1.595c.325-.292.815-.052 1.095.536z" opacity=".3"/><path d="M34.15 4.507c-.055 0-.11-.007-.164-.02-.337-.106-.61-.356-.744-.683a1.46 1.46 0 0 1 .2-1.712c.16-.127.371-.172.569-.122.337.106.61.356.744.683h0a1.46 1.46 0 0 1-.2 1.712c-.115.092-.258.142-.405.142zm-.3-2.476c-.13 0-.255.044-.357.125a1.38 1.38 0 0 0-.179 1.614c.125.304.377.538.69.64a.58.58 0 0 0 .5-.108 1.38 1.38 0 0 0 .179-1.614h0c-.125-.304-.377-.538-.69-.64-.047-.011-.095-.017-.143-.017z"/><path d="M32.785 3.922c-.029 0-.055-.016-.067-.041s-.009-.056.008-.079a.81.81 0 0 1 .615-.266c.029-.003.057.01.072.035s.015.056 0 .08-.043.038-.072.035c-.189-.005-.37.071-.5.208-.013.017-.034.028-.056.029z"/></g><path d="M27.244 14.872c-.024 0-.046-.011-.061-.029l-.291-.355c-.026-.032-.021-.08.01-.107s.079-.024.107.007l.3.36c.026.033.02.082-.013.108-.015.012-.033.017-.052.016zM16.699 49.284c-.043 0-.077-.034-.077-.077s.034-.077.077-.077l.916-.024c.043-.002.078.031.08.074s-.031.078-.074.08l-.921.024zm-.919-.007h0l-.921-.039c-.043-.003-.075-.039-.072-.082s.039-.075.082-.072l.915.039c.043 0 .077.034.077.077s-.034.077-.077.077zm2.754-.07c-.043.001-.078-.032-.08-.074s.032-.078.074-.08l.913-.08c.028-.004.056.007.073.03s.02.053.008.079-.037.043-.065.044l-.917.08zm-4.588-.043h-.008l-.915-.111c-.042-.006-.072-.045-.065-.088s.045-.072.087-.065l.909.11c.043.002.075.038.073.081s-.038.075-.081.073zm6.416-.143c-.04-.001-.072-.032-.075-.072s.025-.075.065-.081l.908-.13c.041-.005.079.024.085.064s-.021.08-.061.088l-.911.131zm-8.235-.117h-.014l-.9-.191c-.027-.006-.048-.027-.056-.053s-.001-.055.018-.075.047-.028.074-.022l.9.189c.04.006.068.043.064.083s-.038.071-.078.07zm10.05-.167c-.04.001-.075-.03-.078-.07s.024-.077.064-.083l.9-.176c.027-.006.055.004.073.024a.08.08 0 0 1 .016.076c-.008.027-.031.046-.058.051l-.9.176zm-11.838-.256c-.007.001-.014.001-.021 0l-.88-.279c-.026-.009-.045-.031-.051-.058s.004-.055.025-.073.05-.024.076-.015l.872.276c.037.011.06.047.055.085s-.038.066-.076.066zm13.637-.117c-.039 0-.072-.03-.076-.068s.021-.075.059-.084l.891-.217c.027-.009.057-.001.077.019s.028.05.02.077-.031.048-.059.053l-.894.218zm1.78-.456c-.038 0-.071-.028-.076-.066s.018-.074.055-.085l.881-.257c.041-.012.084.011.097.051s-.011.084-.052.097l-.884.258zm-17.153-.027c-.01 0-.02-.002-.029-.006l-.844-.373c-.037-.019-.051-.064-.034-.101s.062-.054.1-.038l.836.369c.034.014.053.05.046.086s-.038.062-.075.062zm18.911-.508c-.038 0-.07-.028-.076-.065s.016-.073.052-.085l.868-.3c.04-.014.084.006.098.047s-.006.084-.047.098l-.871.3c-.007.003-.015.004-.023.004zm-20.569-.281c-.013 0-.026-.004-.037-.01l-.8-.469c-.025-.014-.041-.04-.04-.069s.017-.055.043-.067.056-.01.079.006l.787.464c.031.017.047.053.038.087s-.04.058-.075.058zm-1.553-.979c-.016 0-.032-.005-.045-.015l-.732-.562c-.033-.028-.037-.077-.01-.109a.08.08 0 0 1 .11-.01l.725.556c.028.019.039.054.029.087s-.04.054-.074.053zM3.97 44.952c-.019 0-.038-.007-.052-.02l-.172-.162-.486-.485c-.03-.031-.029-.079.002-.109s.079-.029.109.002l.481.48.171.16c.024.021.032.055.02.085s-.04.049-.072.049zM2.7 43.626c-.023 0-.044-.01-.059-.027l-.57-.727c-.018-.022-.022-.052-.011-.078s.036-.044.064-.047.056.011.071.034l.563.719c.02.023.024.055.011.082s-.04.045-.07.045zm-1.078-1.485c-.027 0-.052-.014-.066-.037l-.453-.806c-.017-.037-.002-.082.035-.101s.082-.005.102.031l.446.8c.015.024.016.054.002.079s-.04.04-.068.039zm-.83-1.636c-.032 0-.06-.019-.072-.048l-.307-.873c-.012-.041.011-.084.051-.096s.084.011.097.052l.3.86c.01.024.007.051-.007.072s-.038.034-.064.034zm-.528-1.757c-.037 0-.068-.026-.075-.062l-.139-.915c-.002-.041.028-.077.069-.081s.078.024.084.065l.137.9c.004.02 0 .041-.011.058s-.029.029-.049.033zm-.189-1.824c-.042 0-.076-.034-.077-.076v-.082l.036-.843c.004-.043.041-.074.083-.07s.074.041.071.083l-.036.83q0 .04 0 .08c0 .02-.008.04-.022.055s-.034.023-.054.023zm.157-1.827H.218a.08.08 0 0 1-.05-.032c-.012-.017-.016-.038-.012-.058l.205-.9c.007-.027.028-.047.055-.054s.055.001.075.021.027.048.019.075l-.2.889c-.009.036-.042.061-.079.059zm6.511 0c-.212 0-.424-.014-.635-.04-.042-.005-.072-.044-.067-.086s.044-.072.086-.067a4.95 4.95 0 0 0 .9.03c.043-.002.079.03.081.073s-.03.079-.073.081c-.093-.001-.192.002-.291.002zm1.2-.152c-.04.001-.074-.028-.079-.067s.02-.076.059-.085a4.01 4.01 0 0 0 .839-.324c.024-.014.055-.014.079.001s.038.041.037.07-.018.053-.044.066a4.17 4.17 0 0 1-.871.337zm-2.719-.079c-.008.001-.015.001-.023 0a5.62 5.62 0 0 1-.864-.346c-.038-.019-.054-.065-.034-.104s.065-.054.103-.034a5.46 5.46 0 0 0 .84.336c.037.011.06.047.055.085s-.038.066-.077.066zm4.324-.778c-.032 0-.06-.019-.072-.049s-.004-.063.02-.085c.22-.202.409-.437.559-.695.013-.026.039-.042.067-.043s.055.015.069.04.012.056-.004.08a3.14 3.14 0 0 1-.587.731.08.08 0 0 1-.054.014zm-5.961-.038c-.016 0-.032-.005-.045-.015a6.28 6.28 0 0 1-.712-.6c-.03-.03-.031-.079-.001-.109s.079-.031.109-.001a6.1 6.1 0 0 0 .694.582c.028.019.039.054.029.087s-.04.054-.074.053zm-2.866-.718c-.009.002-.018.002-.027 0-.019-.007-.035-.022-.043-.041a.08.08 0 0 1-.002-.059l.36-.852c.019-.037.064-.051.101-.034s.054.062.038.1l-.355.84c-.015.026-.043.041-.073.039zm1.552-.556c-.024 0-.046-.011-.061-.03a7.66 7.66 0 0 1-.521-.767c-.022-.037-.01-.084.027-.106s.084-.01.106.027a7.27 7.27 0 0 0 .51.751c.018.023.021.055.008.081s-.04.043-.069.043zm8.177-.254h-.016c-.02-.004-.038-.016-.049-.034s-.015-.038-.01-.058a3.17 3.17 0 0 0 .071-.673l-.007-.218c-.003-.043.029-.079.072-.082s.079.029.082.072l.007.228a3.31 3.31 0 0 1-.075.706c-.011.033-.042.054-.076.053zm-8.942-.848c-.014 0-.027-.004-.039-.011-.036-.022-.048-.069-.027-.105l.5-.777c.015-.025.042-.04.071-.038s.054.02.066.047.007.058-.012.08l-.5.765c-.014.02-.035.032-.059.033zm-.173-.472c-.03 0-.057-.018-.07-.045a9.19 9.19 0 0 1-.337-.862c-.014-.04.008-.084.048-.097s.084.008.097.048l.332.848c.011.024.009.052-.005.074s-.039.035-.065.035zm9.019-.5c-.034 0-.065-.023-.074-.056l-.028-.094a6.51 6.51 0 0 0-.287-.755c-.012-.025-.01-.055.006-.078s.043-.035.071-.033.052.021.063.047c.114.252.212.51.294.774l.029.1c.007.023.003.049-.012.069s-.038.031-.062.031zm-7.78-.527c-.018 0-.036-.007-.05-.019s-.025-.032-.027-.053.005-.041.019-.056c.2-.237.418-.463.637-.672.02-.019.048-.026.075-.019s.047.029.054.056-.001.055-.021.074a9.37 9.37 0 0 0-.626.661c-.015.018-.038.028-.061.027zm-1.827-.714c-.036 0-.067-.024-.075-.059l-.183-.905c-.004-.027.006-.055.027-.072a.08.08 0 0 1 .076-.013c.026.009.044.032.049.06l.18.894c.005.02.002.041-.009.058s-.028.03-.048.035zm8.832-.415c-.025 0-.048-.012-.063-.032a3.5 3.5 0 0 0-.606-.66c-.033-.028-.037-.076-.009-.109s.076-.037.109-.009a3.65 3.65 0 0 1 .633.688c.017.023.019.054.006.08s-.039.042-.068.042zm-5.677-.136c-.033 0-.062-.021-.073-.052s0-.066.026-.086a7.4 7.4 0 0 1 .77-.518c.037-.022.084-.009.105.028s.009.084-.027.105a7.2 7.2 0 0 0-.754.507.08.08 0 0 1-.047.015zm1.587-.914c-.037 0-.069-.026-.076-.063s.013-.073.048-.086c.291-.115.592-.2.9-.256.027-.005.055.005.073.026s.023.05.014.076-.032.045-.059.05a4.6 4.6 0 0 0-.867.248c-.01.004-.021.006-.032.005zm2.686-.095c-.01 0-.02-.002-.029-.006a2.92 2.92 0 0 0-.868-.2c-.043-.003-.074-.04-.071-.083s.04-.074.083-.071a3.06 3.06 0 0 1 .914.212c.035.013.056.05.048.087s-.04.063-.077.062zm-7.727-.25c-.04 0-.073-.03-.077-.07l-.06-.921c-.001-.043.032-.078.074-.079s.078.032.08.075l.059.911c.004.042-.027.08-.069.084zm-.069-1.834h0c-.02 0-.04-.009-.054-.023s-.022-.034-.022-.055l.036-.921c.003-.043.039-.075.082-.072s.075.039.072.082l-.036.914c-.002.042-.036.075-.078.074zm.114-1.833H.485c-.042-.005-.073-.043-.068-.085l.122-.914c.003-.028.022-.052.048-.062s.056-.006.078.012.032.047.026.074l-.12.906c-.005.039-.038.069-.078.068zm.29-1.812H.767c-.02-.004-.038-.016-.049-.034s-.015-.038-.01-.058l.22-.9c.007-.027.028-.047.055-.054s.055.001.075.021.027.048.019.075l-.218.887c-.007.036-.039.062-.076.062zm.489-1.768c-.024 0-.047-.012-.062-.032s-.019-.045-.011-.068l.324-.864c.009-.027.033-.046.061-.051s.056.008.073.03.02.053.007.079l-.321.855c-.012.029-.04.048-.072.048zm.7-1.7c-.027 0-.051-.014-.065-.036a.08.08 0 0 1-.004-.075l.43-.817c.021-.037.068-.05.105-.029s.05.068.029.105l-.425.808c-.013.028-.041.046-.072.045zm.906-1.6c-.015 0-.03-.005-.042-.013s-.029-.029-.033-.049 0-.041.011-.058l.532-.754c.017-.022.044-.033.071-.03s.051.021.062.047.007.055-.01.077l-.526.746c-.013.025-.039.041-.067.041zm1.105-1.464c-.03 0-.057-.018-.069-.045s-.008-.059.011-.082l.625-.679c.03-.03.079-.031.109-.001s.031.079.001.109l-.618.672c-.014.02-.037.032-.061.032zm1.285-1.31c-.032 0-.06-.019-.072-.049s-.004-.063.02-.085l.7-.594c.033-.028.083-.023.11.011s.023.083-.01.11l-.7.588a.08.08 0 0 1-.05.025zm21.054-.489c-.02 0-.04-.008-.054-.022l-.68-.607c-.033-.028-.037-.077-.01-.11s.077-.037.11-.01l.69.616c.014.014.023.034.023.055s-.008.04-.023.054-.035.028-.058.028zm-19.616-.648c-.034 0-.063-.022-.073-.054s.002-.067.029-.086l.772-.5c.023-.017.054-.02.08-.006s.042.04.042.069-.016.056-.042.069l-.764.5c-.014.009-.03.013-.046.012zm18.2-.516c-.016 0-.031-.005-.044-.014l-.769-.49c-.037-.022-.049-.069-.027-.105s.069-.049.105-.028l.779.5c.028.019.041.054.031.087s-.041.055-.075.054zm-16.634-.442c-.035 0-.066-.024-.075-.058s.007-.07.039-.087l.825-.411c.039-.018.085-.001.102.037s.001.085-.037.102l-.818.408a.08.08 0 0 1-.039.014zm15.052-.487c-.012 0-.023-.003-.034-.008l-.832-.375c-.039-.016-.059-.061-.043-.101s.061-.059.101-.043l.842.379c.032.016.049.052.041.086s-.039.059-.075.06zm-13.387-.286c-.038.001-.07-.025-.077-.062s.013-.073.048-.087l.866-.318c.04-.014.084.008.097.048s-.008.084-.048.097l-.858.315a.07.07 0 0 1-.034.012zm11.691-.412c-.008.001-.017.001-.025 0l-.874-.265c-.041-.011-.066-.053-.054-.094s.053-.066.094-.055l.883.267c.036.012.058.048.051.086s-.039.065-.076.064zm-9.951-.174c-.038 0-.071-.028-.076-.066s.018-.074.055-.085l.895-.224c.042-.009.083.017.092.059s-.017.083-.059.092l-.887.222zm8.18-.3h-.016l-.9-.16c-.028-.003-.053-.021-.064-.047s-.006-.057.012-.079.047-.032.075-.026l.908.162c.038.009.063.044.059.083s-.036.068-.075.069zm-6.389-.1c-.04 0-.074-.03-.077-.07s.025-.076.064-.083l.912-.13c.042-.005.081.025.085.067s-.025.081-.067.086l-.9.129zm4.573-.176h-.007l-.912-.06c-.043-.002-.076-.037-.074-.08s.037-.076.08-.074l.92.061c.043.002.075.038.073.081s-.038.075-.08.073zm-2.751-.037c-.043.001-.078-.032-.08-.074s.032-.078.074-.08l.921-.036h0c.043 0 .077.034.077.077s-.034.077-.077.077l-.913.036zm13.992 36.474c-.038.001-.07-.025-.077-.062s.013-.073.048-.087l.426-.174c.026-.013.056-.011.08.006s.036.045.032.073-.024.052-.051.062l-.43.176c-.009.004-.018.006-.028.006z" class="E"/><path d="M33.538 14.017h-.017c-.041-.009-.067-.051-.058-.092l.124-.452c.013-.041.056-.063.097-.05s.063.056.05.097l-.12.439c-.009.034-.04.058-.076.058zm20.689 21.759c-.037 0-.069-.027-.075-.063s.014-.073.048-.086a6.62 6.62 0 0 0 .82-.379c.037-.019.083-.005.103.031s.007.083-.029.104a6.85 6.85 0 0 1-.839.388.08.08 0 0 1-.028.005zm1.6-.87c-.034 0-.064-.021-.074-.053s.001-.067.029-.087a7.41 7.41 0 0 0 .7-.571c.032-.018.072-.012.096.016s.026.068.004.097c-.227.209-.466.403-.716.583-.01.008-.023.014-.036.016zm1.34-1.237c-.018 0-.036-.006-.05-.018s-.026-.032-.027-.053.005-.041.018-.056a6.9 6.9 0 0 0 .535-.727c.023-.036.071-.046.106-.024s.046.071.024.106a7.37 7.37 0 0 1-.548.743c-.013.017-.033.027-.054.029zm.981-1.536c-.026 0-.051-.013-.065-.036s-.016-.05-.005-.074a6.7 6.7 0 0 0 .324-.842c.013-.041.056-.063.096-.05s.063.056.05.096c-.091.294-.202.582-.332.862-.011.026-.036.044-.065.046zm.541-1.739h-.013c-.02-.003-.038-.015-.05-.031s-.017-.037-.013-.058c.051-.298.085-.598.1-.9.002-.043.038-.075.081-.073s.075.038.073.081a7.65 7.65 0 0 1-.1.917c-.006.037-.037.064-.074.065zm.1-1.82c-.041 0-.075-.032-.077-.073a8.51 8.51 0 0 0-.1-.9c-.005-.041.024-.079.064-.085s.08.021.088.061l.1.916c.002.042-.03.078-.072.081zm-.28-1.8c-.036 0-.067-.024-.075-.059l-.25-.873c-.013-.041.009-.084.05-.097s.084.009.097.049l.253.884c.01.041-.015.083-.056.093zm-.553-1.741c-.033 0-.063-.021-.073-.053-.096-.292-.176-.589-.241-.89-.009-.042.018-.083.059-.091s.083.018.091.059a8.54 8.54 0 0 0 .236.874c.007.023.003.049-.011.068s-.037.031-.062.032zm-.381-1.784c-.039 0-.072-.03-.076-.069a7.92 7.92 0 0 1-.04-.793v-.129c.001-.042.035-.076.077-.076h0c.02 0 .04.009.054.023s.022.034.022.055v.126c0 .258.013.519.039.777.004.042-.027.08-.069.084zm.031-1.823h-.01c-.02-.003-.039-.013-.051-.03s-.018-.037-.015-.057a7.74 7.74 0 0 1 .178-.905c.007-.027.028-.047.054-.055s.055 0 .075.02.027.048.02.074c-.075.292-.133.588-.174.887-.007.037-.04.064-.078.063zm6.388-.118c-.043 0-.077-.034-.077-.077s.034-.077.077-.077c.301-.005.602-.029.9-.072.04-.003.076.026.082.066s-.02.078-.06.086c-.305.044-.612.068-.92.073zm-.913-.037h-.008a8.79 8.79 0 0 1-.911-.137c-.042-.009-.069-.049-.06-.091s.049-.069.091-.06a8.53 8.53 0 0 0 .9.135c.043.002.075.038.073.081s-.038.075-.08.073zm2.714-.234c-.039 0-.071-.028-.077-.066s.018-.074.055-.085a4.5 4.5 0 0 0 .828-.344c.037-.019.083-.005.103.031s.007.083-.029.104a4.65 4.65 0 0 1-.857.356c-.007.001-.015.002-.022.001zm-4.5-.13c-.008.001-.015.001-.023 0l-.865-.317c-.039-.017-.058-.062-.041-.101s.062-.058.101-.041c.278.118.564.222.851.312.037.011.061.047.055.086s-.039.066-.078.065zm-1.681-.711c-.013 0-.026-.003-.037-.009l-.787-.478c-.035-.024-.045-.072-.021-.107s.072-.045.107-.021l.775.47c.031.017.047.053.038.087s-.04.058-.075.058zm7.761-.048c-.031 0-.06-.019-.071-.048s-.005-.062.017-.084a2.16 2.16 0 0 0 .489-.726.08.08 0 0 1 .061-.05c.028-.005.056.007.073.029s.021.052.01.078a2.31 2.31 0 0 1-.523.778c-.016.014-.037.022-.058.02zm-9.31-.487c-.025 0-.049-.012-.064-.033s-.017-.048-.008-.072a8.03 8.03 0 0 1 .385-.838c.021-.036.066-.049.103-.029s.051.064.033.101a7.72 7.72 0 0 0-.377.822c-.013.03-.043.048-.075.046zm.036-.484c-.018 0-.035-.006-.049-.018l-.683-.617c-.03-.03-.03-.079 0-.109s.079-.03.109 0l.672.608c.026.021.035.055.024.086s-.04.051-.073.051zm9.917-.675c-.041 0-.074-.031-.077-.072a2.62 2.62 0 0 0-.22-.856c-.013-.026-.011-.056.006-.08s.045-.036.073-.032.052.024.062.051a2.79 2.79 0 0 1 .232.906c.001.02-.005.041-.019.056s-.033.025-.053.026zm-9.1-.451c-.016 0-.031-.005-.044-.014-.035-.024-.044-.072-.02-.107a7.96 7.96 0 0 1 .568-.727c.029-.027.073-.028.103-.002s.035.07.013.102c-.199.227-.385.465-.557.713-.015.02-.038.032-.063.031zm-2.116-.158c-.023 0-.044-.01-.059-.027-.2-.232-.384-.477-.561-.729-.025-.035-.016-.083.019-.108s.083-.016.108.019l.552.719c.02.023.024.055.011.082s-.04.045-.07.045zm10.53-1.061c-.025 0-.048-.012-.062-.032-.175-.244-.372-.471-.59-.677-.031-.029-.032-.078-.003-.109s.078-.032.109-.003a4.86 4.86 0 0 1 .609.7c.017.023.019.054.006.08s-.039.042-.068.042zm-7.208-.149c-.032.001-.062-.019-.073-.049s-.003-.064.021-.086a7.4 7.4 0 0 1 .726-.571c.035-.023.082-.013.105.021s.015.081-.018.106a7.21 7.21 0 0 0-.71.559c-.014.012-.032.019-.051.019zm-4.371-.283c-.027 0-.053-.014-.067-.038l-.432-.811c-.019-.038-.002-.084.036-.103s.084-.002.103.036l.427.8c.021.037.009.084-.028.105-.012.006-.026.008-.039.007zm5.875-.748c-.036 0-.067-.024-.076-.059s.009-.071.041-.087a6.07 6.07 0 0 1 .855-.352c.041-.013.084.009.097.05s-.009.084-.05.097a5.9 5.9 0 0 0-.833.343c-.012.004-.024.006-.036.004zm4.377-.057c-.014 0-.027-.004-.039-.011a3.77 3.77 0 0 0-.818-.359c-.038-.014-.059-.056-.047-.095s.052-.062.092-.052a3.93 3.93 0 0 1 .852.374c.03.018.044.053.035.086s-.039.056-.074.057zm-2.644-.5c-.04-.001-.072-.032-.075-.072s.025-.075.065-.081a4.6 4.6 0 0 1 .927-.034c.028.002.052.018.064.043s.01.054-.005.077-.042.036-.069.034a4.43 4.43 0 0 0-.9.033zm-8.4-.341c-.032 0-.06-.019-.072-.049l-.309-.865c-.008-.026-.002-.055.016-.075s.047-.029.074-.023.049.026.057.052l.306.855c.016.039-.004.084-.043.1-.011.005-.022.007-.034.006zm-.6-1.726c-.032 0-.061-.02-.072-.05l-.359-.832c-.019-.038-.003-.085.035-.104s.085-.003.104.036l.364.845c.007.023.003.048-.011.068s-.037.032-.061.032zm-20.347-.3c-.012 0-.024-.003-.035-.009-.036-.019-.05-.063-.033-.1.141-.274.301-.537.479-.789.025-.035.073-.043.108-.019s.043.073.019.108a6.54 6.54 0 0 0-.469.771c-.014.026-.042.041-.071.039zm19.546-1.34c-.027 0-.052-.014-.066-.037a8.42 8.42 0 0 0-.515-.744c-.026-.034-.02-.082.014-.108s.082-.02.108.014a8.79 8.79 0 0 1 .525.757c.011.017.014.038.009.058a.08.08 0 0 1-.034.048c-.017.011-.028.013-.043.013zm-18.5-.154c-.031 0-.058-.018-.071-.046s-.007-.061.014-.083l.65-.653c.019-.024.051-.034.081-.026s.052.033.056.064-.01.061-.036.076l-.639.642c-.015.017-.036.027-.059.027zm1.348-1.231c-.033 0-.062-.021-.073-.052s0-.066.026-.086l.753-.528c.036-.023.084-.013.107.023s.013.084-.023.107l-.744.521c-.015.011-.033.017-.051.016zm16.036-.055c-.021 0-.041-.008-.055-.023-.21-.217-.432-.422-.664-.614-.033-.028-.037-.077-.009-.109s.077-.037.109-.01a8.35 8.35 0 0 1 .677.626c.022.022.028.055.016.084s-.04.047-.071.047zm-14.5-.937c-.036 0-.067-.024-.075-.058s.007-.07.038-.087l.82-.416c.039-.018.085-.001.102.037s.001.085-.038.102L37.98 9c-.013.008-.029.012-.044.011zm13.1-.226c-.015 0-.03-.005-.042-.013a8.71 8.71 0 0 0-.781-.458.08.08 0 0 1-.042-.065c-.002-.028.012-.054.036-.069s.053-.016.077-.004a8.63 8.63 0 0 1 .794.466c.028.019.041.054.031.086s-.039.055-.073.055zm-11.443-.548c-.037 0-.069-.026-.076-.063s.013-.073.048-.086l.865-.311c.039-.01.08.012.092.05s-.007.08-.044.096l-.855.308c-.012.005-.026.007-.039.006zm9.825-.294c-.01 0-.02-.002-.029-.006l-.856-.3c-.026-.008-.047-.029-.053-.056s.002-.055.022-.074.049-.026.075-.018l.87.3c.035.013.056.05.048.087s-.04.063-.077.062zm-8.089-.274c-.039.001-.073-.028-.078-.067s.021-.076.059-.085l.895-.208c.041-.007.08.02.089.061s-.018.081-.059.09l-.886.206zm6.34-.25h-.016l-.9-.15c-.042-.006-.072-.044-.066-.087s.044-.072.087-.067l.907.152c.04.006.069.043.065.084s-.039.071-.08.069zm-4.548-.11c-.04-.001-.073-.032-.076-.071s.025-.075.065-.082l.914-.1c.043-.003.08.028.083.071s-.028.08-.071.083l-.9.1zm2.736-.123h0l-.908-.018c-.028 0-.053-.015-.067-.038s-.014-.053 0-.077.039-.039.067-.038l.919.019c.043 0 .077.034.077.077s-.034.077-.077.077zm7.007 28.885c-.028 0-.053-.015-.067-.038s-.014-.053 0-.077.039-.039.067-.038a2.68 2.68 0 0 0 .447-.042c.042-.007.082.021.089.063s-.021.082-.063.089a2.83 2.83 0 0 1-.473.044z" class="B"/><path d="M39.067 15.212h-.006l-.46-.029c-.02-.001-.04-.01-.053-.025s-.021-.035-.02-.056c.003-.043.039-.075.082-.073l.462.029c.043.001.076.037.074.08s-.037.076-.079.074zm14.576 44.049h-.194c-.043 0-.077-.034-.077-.077s.034-.077.077-.077h0l.919-.022c.028-.002.054.011.069.034s.017.052.005.077-.037.041-.064.043l-.735.022zm-1.117-.054h-.008l-.923-.126c-.027-.005-.05-.024-.059-.05s-.004-.055.014-.076.045-.031.073-.026l.912.124c.043.002.075.038.073.081s-.038.075-.08.073zm2.77-.068c-.04-.001-.073-.032-.076-.071s.025-.075.065-.082l.9-.175c.027-.006.055.002.074.022s.026.049.018.075-.029.047-.056.053l-.915.177zm-4.6-.24h-.018l-.9-.233c-.041-.012-.064-.055-.052-.096s.055-.064.096-.052l.892.231c.038.009.063.045.059.084s-.037.068-.076.068zm6.395-.188c-.038 0-.07-.028-.076-.065s.016-.073.052-.085l.86-.324c.039-.017.085.001.101.04s-.001.085-.04.102l-.873.329zm-8.173-.326c-.009.001-.017.001-.026 0l-.868-.334c-.039-.017-.058-.062-.041-.101s.062-.058.101-.041l.86.331c.036.012.058.049.051.086s-.039.065-.077.064zm9.875-.4c-.035 0-.066-.024-.075-.058s.007-.07.039-.087l.8-.462c.036-.023.084-.012.107.024s.012.084-.023.107l-.806.468c-.011.006-.023.01-.036.01zm-11.582-.318c-.012 0-.023-.003-.034-.008l-.822-.436c-.037-.021-.05-.068-.029-.105s.068-.05.105-.029l.814.431c.032.016.049.052.041.086s-.039.059-.075.06zm13.143-.674c-.033 0-.063-.021-.073-.053s.001-.066.027-.086l.711-.582c.02-.023.051-.032.08-.024s.05.033.055.063-.009.06-.035.076l-.721.59c-.011.009-.025.015-.039.017zm-14.752-.241c-.015 0-.03-.005-.042-.013l-.763-.533c-.034-.025-.041-.074-.016-.108s.074-.041.108-.016l.756.527c.029.018.042.054.033.087s-.04.055-.075.055zm16.136-.985c-.031 0-.059-.019-.071-.047s-.006-.062.016-.084l.613-.686c.028-.033.077-.037.109-.009s.037.077.01.109l-.621.695c-.013.013-.031.021-.05.022zm-17.622-.12c-.018 0-.036-.006-.05-.018l-.694-.621c-.031-.029-.032-.078-.003-.109s.078-.032.109-.003l.687.615c.025.021.034.055.023.086s-.04.051-.073.05zm-1.342-1.276c-.021 0-.041-.009-.056-.024l-.616-.7c-.018-.021-.023-.05-.014-.076s.032-.045.059-.05.055.005.073.026l.61.692c.021.022.027.055.015.083s-.04.047-.071.047zm20.142-.031c-.029 0-.055-.016-.068-.041s-.011-.056.005-.08l.5-.773c.022-.037.069-.049.106-.027s.049.069.027.106l-.506.783c-.013.019-.035.031-.058.033zm-21.327-1.393a.08.08 0 0 1-.062-.031l-.532-.764c-.022-.036-.011-.082.024-.105s.082-.014.105.021l.527.757c.012.016.017.037.014.057s-.014.039-.03.051-.026.013-.04.014zm22.268-.2c-.027 0-.051-.014-.065-.036a.08.08 0 0 1-.004-.075l.368-.843c.015-.04.06-.059.1-.044s.059.06.044.1l-.373.855a.08.08 0 0 1-.064.042zm-23.283-1.349c-.028 0-.053-.015-.067-.039l-.441-.821c-.019-.038-.004-.084.035-.103s.084-.004.103.034l.436.813c.021.037.009.084-.028.105-.01.006-.021.009-.032.01zm23.951-.377c-.025 0-.048-.011-.062-.031s-.019-.045-.012-.069l.215-.893c.004-.028.023-.052.05-.062s.057-.004.078.015.03.048.023.076l-.218.907c-.008.03-.035.053-.066.056zm.346-1.817h-.007a.08.08 0 0 1-.052-.027c-.013-.015-.019-.036-.018-.057l.036-.784v-.133c0-.02.008-.04.022-.055s.034-.023.054-.023h0c.042 0 .076.034.077.076v.136l-.036.8c-.005.036-.034.063-.07.066zm-.032-1.848c-.039 0-.071-.029-.076-.067a7.64 7.64 0 0 0-.173-.9c-.009-.027-.001-.057.019-.077s.05-.028.077-.02.048.031.053.059a7.79 7.79 0 0 1 .177.918c.003.02-.003.041-.016.057s-.031.027-.051.029zm-.46-1.79c-.032 0-.06-.019-.072-.049a7.02 7.02 0 0 0-.393-.827c-.021-.037-.007-.084.03-.105s.084-.007.105.03a7.2 7.2 0 0 1 .4.845.08.08 0 0 1-.008.072c-.014.021-.038.034-.064.033zm-5.915-.829a2.02 2.02 0 0 1-.667-.108c-.04-.014-.062-.058-.047-.098s.058-.062.099-.048a2 2 0 0 0 .88.084c.028-.004.055.008.072.03s.02.052.009.078-.036.043-.064.045a2.55 2.55 0 0 1-.276.015zm1.166-.247c-.037 0-.069-.026-.076-.063s.013-.073.048-.086a5.66 5.66 0 0 0 .818-.406c.037-.022.084-.01.106.027s.01.084-.027.106a5.81 5.81 0 0 1-.84.417.08.08 0 0 1-.026.004zm-2.548-.391c-.024 0-.046-.011-.061-.03a1.94 1.94 0 0 1-.369-.881c-.005-.028.005-.056.026-.074s.052-.023.078-.012.045.034.048.062a1.79 1.79 0 0 0 .339.811c.012.016.018.037.015.057s-.013.039-.029.051-.027.014-.042.015zm6.4-.147c-.024 0-.047-.011-.062-.031a7.44 7.44 0 0 0-.591-.7c-.03-.031-.029-.079.002-.109s.079-.029.109.002a7.52 7.52 0 0 1 .6.714c.012.016.017.037.014.057s-.014.039-.03.051-.025.015-.039.017zm-2.252-.39c-.033 0-.062-.022-.072-.053s0-.065.026-.085a4.2 4.2 0 0 0 .658-.625c.028-.031.075-.034.107-.007s.036.074.01.107c-.204.24-.433.456-.683.647-.012.009-.027.014-.043.015zm.974-.945c-.018 0-.035-.006-.049-.018l-.084-.068-.65-.486c-.035-.024-.044-.072-.02-.108s.072-.044.108-.019l.659.492.086.069c.026.021.035.055.024.086s-.04.051-.073.051zm-5.417-.281c-.025 0-.048-.011-.062-.031s-.019-.045-.012-.069a2 2 0 0 1 .469-.831c.029-.031.078-.032.109-.003s.032.078.003.109a1.85 1.85 0 0 0-.432.767c-.009.033-.038.056-.072.057zm5.643-.168c-.013 0-.026-.003-.038-.01-.018-.01-.031-.027-.036-.046s-.003-.041.007-.059a5.98 5.98 0 0 0 .39-.826c.015-.04.06-.06.099-.044s.06.06.044.099a6.19 6.19 0 0 1-.4.848.08.08 0 0 1-.064.037zm-1.752-.6c-.013 0-.026-.003-.037-.009-.267-.147-.545-.273-.832-.377-.026-.009-.045-.032-.05-.059s.005-.055.026-.073.05-.023.076-.014a6.04 6.04 0 0 1 .854.387c.031.017.047.053.038.087s-.04.058-.075.058zm-2.659-.512c-.039 0-.071-.028-.077-.066s.018-.074.055-.085a2.44 2.44 0 0 1 .947-.082c.04.006.069.043.065.084s-.039.071-.08.069a2.29 2.29 0 0 0-.887.076c-.006.003-.013.005-.02.006zm5.083-.612h-.019c-.041-.01-.066-.052-.056-.093a8.99 8.99 0 0 0 .174-.9c.006-.042.045-.072.087-.066s.072.045.066.087c-.043.308-.102.615-.177.917-.009.033-.039.056-.073.056zm.264-1.831h0c-.02-.001-.04-.01-.053-.025s-.021-.035-.02-.056l.018-.667q0-.126 0-.253c-.001-.021.007-.041.021-.055s.034-.023.055-.024.04.007.055.022.023.034.023.054v.256l-.018.675c-.001.02-.009.04-.024.054s-.035.022-.055.021zm-.033-1.851c-.04 0-.074-.031-.077-.071l-.1-.916c-.006-.028.004-.057.026-.076s.053-.023.079-.011.044.037.047.065l.106.925c.002.02-.005.041-.018.056a.08.08 0 0 1-.053.027zm-.261-1.834c-.037 0-.069-.026-.076-.062l-.2-.9c-.01-.041.015-.083.057-.093s.083.015.093.056l.2.908c.004.02 0 .041-.011.058s-.029.029-.05.033zm-.447-1.8c-.034 0-.064-.022-.074-.055l-.283-.879c-.014-.04.008-.084.048-.098s.084.008.098.048l.285.885c.007.023.003.049-.012.069s-.038.031-.062.031zm-.605-1.751c-.032 0-.06-.019-.072-.049l-.355-.853c-.017-.039.001-.084.04-.101s.084.001.101.039l.357.858c.016.039-.004.084-.043.1a.08.08 0 0 1-.027.01zm-.746-1.7c-.03 0-.057-.016-.07-.043l-.42-.822c-.02-.038-.006-.084.032-.104s.084-.006.104.032l.423.828c.017.037.001.081-.035.1-.009.009-.021.015-.033.018zm-.874-1.634c-.027 0-.053-.014-.067-.038l-.48-.789c-.023-.036-.012-.084.024-.106s.084-.012.106.024l.483.794c.014.024.014.053.001.077s-.039.039-.067.039zm-.992-1.565c-.026 0-.05-.013-.064-.034l-.536-.752c-.025-.034-.018-.083.016-.108s.083-.018.108.016l.54.756c.024.035.015.083-.02.107-.011.012-.027.02-.043.023zm-1.1-1.488c-.023 0-.045-.011-.06-.029l-.589-.711c-.026-.032-.021-.08.01-.107s.079-.024.107.007l.593.716c.026.033.021.081-.012.108-.014.014-.032.023-.052.024zm-1.207-1.405c-.022 0-.042-.009-.057-.025l-.639-.667c-.03-.03-.03-.079 0-.109s.079-.03.109 0l.643.671c.021.022.026.055.014.083s-.039.046-.07.046zm-1.305-1.314c-.02 0-.039-.007-.053-.021l-.685-.619c-.024-.017-.037-.046-.032-.075s.025-.053.053-.062.059-.001.079.021l.689.623c.023.022.03.055.019.085s-.04.049-.072.048zm-1.4-1.217c-.017 0-.034-.006-.048-.017l-.728-.568c-.034-.026-.041-.074-.015-.108s.074-.041.108-.015l.732.572c.026.021.035.055.024.086s-.04.051-.073.051zm-1.48-1.113c-.016 0-.031-.005-.044-.014l-.767-.514c-.036-.023-.046-.071-.024-.106s.071-.046.106-.024l.771.517c.027.019.039.054.029.086s-.04.054-.073.054zm-1.557-1a.08.08 0 0 1-.04-.011l-.8-.457c-.036-.021-.049-.067-.029-.104s.066-.051.103-.031l.807.46c.03.018.044.053.034.087s-.04.056-.074.056zm-1.626-.888c-.012 0-.023-.003-.034-.008l-.833-.4c-.026-.011-.044-.035-.047-.063s.01-.055.033-.071.053-.018.078-.006l.838.4c.032.016.049.052.041.087s-.04.059-.076.059zm-1.684-.771c-.01 0-.021-.002-.03-.006l-.858-.339c-.027-.009-.047-.031-.052-.059s.006-.057.028-.074.053-.022.079-.01l.864.341c.034.014.053.05.046.086s-.039.062-.076.062zm-1.733-.651c-.008.001-.017.001-.025 0l-.88-.279c-.026-.008-.047-.029-.053-.056s.002-.055.022-.074.049-.026.075-.018l.885.281c.036.012.057.048.052.085s-.038.065-.076.065zm-1.774-.531h-.02l-.9-.22c-.039-.011-.063-.051-.054-.091s.048-.066.088-.059l.9.221c.039.009.064.046.059.085s-.039.068-.079.067zm-1.805-.412h-.015l-.909-.162c-.042-.007-.07-.047-.064-.089s.047-.07.088-.063l.914.163c.04.006.068.043.064.083s-.038.071-.078.07zm-1.828-.3h-.01l-.918-.105c-.029-.001-.054-.018-.066-.044s-.009-.056.008-.079.045-.034.074-.03l.922.106c.039.006.067.041.065.081s-.035.071-.075.072zm-1.161 34.33c-.031 0-.059-.019-.071-.048l-.166-.438c-.009-.039.014-.078.052-.09s.079.007.094.043l.162.427c.016.039-.003.084-.042.1-.009.004-.019.006-.029.006z" class="D"/><g fill="#ff443c"><path d="M22.164 31.402c-.153 0-.309-.005-.461-.016-.022.001-.043-.011-.054-.031s-.009-.044.004-.062.035-.027.057-.023c.305.022.611.022.916 0 .022-.004.044.005.057.023s.015.042.004.062-.031.032-.054.031l-.471.016zm1.382-.146c-.029-.001-.052-.023-.055-.052s.015-.055.043-.062l.214-.049c.021-.008.045-.003.061.013s.022.039.014.06-.026.036-.048.039l-.218.05zm-2.753 0h-.012a6.39 6.39 0 0 1-.893-.266c-.027-.013-.039-.045-.029-.073s.041-.043.07-.035a6.3 6.3 0 0 0 .877.261c.028.007.046.034.043.062s-.026.05-.055.052zm-1.722-.653c-.01 0-.019-.002-.028-.007-.272-.152-.532-.323-.779-.512-.018-.012-.029-.033-.027-.055s.016-.04.037-.048.043-.004.06.011c.243.185.498.352.765.5.022.013.033.039.027.065s-.029.043-.055.043zm-1.463-1.121c-.015 0-.03-.006-.041-.017a6.67 6.67 0 0 1-.6-.711c-.017-.026-.011-.06.014-.078s.059-.014.079.009a6.53 6.53 0 0 0 .592.7c.017.016.023.042.014.064s-.031.036-.055.036zm-1.092-1.485c-.021 0-.041-.011-.051-.03-.148-.273-.278-.556-.389-.846-.01-.02-.007-.043.006-.061s.035-.026.057-.022.039.02.045.041c.109.285.237.563.383.832.009.018.009.039-.002.057s-.029.028-.049.028zm-.662-1.721c-.027 0-.05-.018-.056-.044a8 8 0 0 1-.169-.915c-.002-.031.02-.058.051-.062s.059.017.064.048a7.85 7.85 0 0 0 .166.9c.008.031-.011.062-.042.07zm-.231-1.831c-.032 0-.057-.025-.058-.057q0-.067 0-.133l.035-.8c0-.022.012-.042.032-.052s.043-.008.061.005.026.035.022.057l-.034.786q0 .066 0 .132c0 .015-.006.03-.016.041s-.025.017-.041.018zm.156-1.84h-.01c-.031-.006-.052-.036-.047-.067l.085-.422a3.8 3.8 0 0 0 .076-.483c.006-.029.032-.05.062-.047s.053.027.053.057c-.015.168-.041.335-.078.5l-.084.418c-.007.026-.031.043-.058.042zm.087-1.821c-.026 0-.049-.017-.056-.042a1.93 1.93 0 0 0-.431-.769c-.018-.024-.014-.058.008-.077s.056-.02.078 0c.212.233.368.512.455.815.009.031-.008.063-.039.072zm-1.163-1.362c-.01 0-.02-.003-.029-.008-.265-.152-.541-.284-.826-.393-.028-.013-.042-.045-.031-.074s.043-.044.073-.034c.291.111.573.245.843.4.022.013.033.04.027.065s-.03.043-.056.043zm-1.71-.7h-.017l-.888-.258c-.022-.004-.04-.019-.046-.041s0-.045.017-.059.04-.019.061-.011l.891.259c.027.009.043.036.039.064s-.028.049-.056.049zm-1.783-.506h-.016l-.89-.262c-.022-.005-.039-.021-.044-.042s.002-.044.019-.058.04-.018.061-.009l.887.261c.028.008.046.035.042.064s-.029.05-.058.05zm-1.765-.561a8.84 8.84 0 0 1-.878-.36c-.019-.017-.024-.045-.013-.068s.037-.036.062-.032l.849.356c.026.01.041.037.036.064s-.028.047-.056.048zm-1.666-.8c-.011 0-.022-.003-.031-.009-.264-.163-.516-.347-.752-.548-.018-.013-.027-.034-.023-.056s.019-.039.039-.046.044-.001.059.014a6.07 6.07 0 0 0 .738.538c.022.014.032.04.025.065s-.03.042-.056.042zm-1.388-1.2c-.017 0-.034-.008-.045-.021a4.83 4.83 0 0 1-.512-.776c-.015-.018-.018-.043-.007-.064s.033-.033.057-.031.043.018.05.041a4.73 4.73 0 0 0 .5.757c.014.017.016.041.007.061s-.03.033-.052.033zm23.841-1.579c-.026 0-.049-.017-.056-.042l-.278-.879c-.01-.02-.007-.044.007-.062s.037-.025.059-.02.039.023.043.045l.279.884c.009.031-.008.063-.039.072zm-24.7-.035c-.025 0-.047-.016-.055-.04a6.1 6.1 0 0 1-.209-.9c-.002-.03.019-.056.049-.061s.058.014.065.043a5.97 5.97 0 0 0 .205.887c.005.015.003.031-.004.044s-.019.024-.034.029zm24.107-1.715c-.024 0-.045-.015-.054-.037l-.352-.852c-.009-.019-.007-.042.005-.059s.033-.026.054-.024.039.016.047.036l.354.857c.012.03-.003.063-.033.075-.007.002-.015.003-.022.003zm-24.4-.1c-.031 0-.057-.025-.058-.056v-.264l.023-.666c.005-.029.032-.049.061-.047s.053.026.054.055l-.023.658v.26c.001.015-.005.03-.016.042s-.025.018-.04.018zm9.354-.505c-.171 0-.343-.01-.513-.031-.021-.002-.04-.015-.049-.034s-.006-.042.007-.059.035-.025.056-.022a4.09 4.09 0 0 0 .91.01c.021-.004.043.004.057.022s.016.041.006.06-.029.032-.051.033c-.14.015-.28.022-.421.023zm1.318-.219c-.027-.001-.051-.021-.055-.048s.01-.054.036-.064c.288-.099.563-.23.821-.391.028-.017.064-.008.08.02s.008.064-.019.08c-.266.165-.549.299-.845.4zm-2.722-.025a3.83 3.83 0 0 1-.86-.412c-.028-.017-.036-.053-.019-.081s.053-.036.081-.019a4.03 4.03 0 0 0 .817.4c.026.01.041.037.036.064s-.028.047-.055.048zm15.7-.846c-.022 0-.042-.012-.052-.032l-.432-.814c-.013-.018-.015-.042-.005-.062s.032-.032.054-.031.042.015.051.036l.435.819c.009.018.008.039-.003.057s-.029.028-.049.027zm-11.43-.107c-.024.001-.047-.013-.056-.035s-.004-.048.013-.065c.204-.222.362-.482.465-.766.006-.021.023-.036.044-.041s.043.003.057.02.017.04.008.06a2.4 2.4 0 0 1-.488.8c-.008.015-.023.026-.04.029zm-5.81-.04c-.016 0-.031-.007-.042-.018-.216-.228-.4-.483-.548-.76-.015-.018-.018-.043-.007-.064s.033-.033.057-.031.043.018.05.041c.143.268.321.515.53.735.017.017.023.042.014.064s-.031.036-.056.036zm-6.292-.1h-.008c-.015-.002-.029-.01-.038-.023s-.013-.028-.011-.043l.163-.914c.003-.022.017-.04.038-.048s.044-.003.06.013.022.038.015.059l-.162.907c-.004.027-.026.048-.054.05zm22.624-1.362c-.02 0-.038-.01-.049-.027l-.515-.764c-.015-.017-.018-.04-.01-.06s.028-.034.05-.036.043.01.054.029l.518.769c.011.018.012.04.002.059s-.03.03-.051.03zM10.798 8.87c-.028 0-.051-.019-.057-.046-.046-.224-.069-.453-.069-.682l.009-.254c.005-.029.032-.049.061-.047s.053.026.054.055l-.009.246a3.27 3.27 0 0 0 .067.658c.006.031-.014.061-.045.068zm7.27-.04c-.031 0-.056-.024-.058-.055-.015-.302-.074-.601-.174-.887-.01-.02-.007-.044.007-.062s.037-.025.059-.02.039.023.043.045a3.3 3.3 0 0 1 .181.92c.001.032-.023.058-.055.06zM5.735 8.575H5.72c-.031-.008-.049-.04-.041-.071l.279-.886c.006-.021.023-.036.044-.041s.043.003.057.02.017.04.008.06l-.276.878c-.007.024-.028.04-.053.041zm21.171-1.056c-.018 0-.034-.008-.045-.022l-.6-.7c-.017-.015-.023-.038-.018-.059s.023-.038.045-.042.044.005.057.022l.6.705c.014.017.016.041.007.061s-.03.033-.052.033zm-9.4-.43c-.021 0-.04-.011-.05-.029a6.05 6.05 0 0 0-.524-.751c-.018-.025-.014-.06.01-.08s.059-.017.08.007a6.16 6.16 0 0 1 .534.765c.016.028.007.063-.021.079-.009.007-.02.01-.031.011zm-6.585-.044h-.017c-.015-.005-.027-.015-.034-.029s-.009-.03-.004-.044a4.98 4.98 0 0 1 .369-.858c.018-.022.048-.028.073-.014s.036.043.027.069a4.87 4.87 0 0 0-.36.838c-.008.024-.031.04-.056.04zm-4.554-.207c-.008 0-.016-.002-.024-.005-.029-.014-.041-.048-.028-.077a8.18 8.18 0 0 1 .44-.82c.017-.028.053-.036.08-.019s.036.053.02.08c-.16.261-.305.531-.434.808-.01.021-.031.035-.055.034zm19.3-.686c-.015 0-.029-.006-.04-.016l-.681-.62c-.021-.021-.023-.056-.003-.079s.054-.027.078-.009l.687.625c.017.016.023.042.014.064s-.03.036-.054.036zm-9.318-.5c-.015 0-.029-.006-.04-.016a8.26 8.26 0 0 0-.7-.6c-.018-.012-.029-.033-.027-.055s.016-.04.037-.048.043-.004.06.011c.247.188.483.39.708.605.017.016.023.042.014.064s-.03.036-.054.036zm-4.564-.232c-.022 0-.041-.013-.051-.032s-.008-.042.005-.06l.42-.515.181-.2c.014-.018.036-.026.058-.021s.039.021.044.043-.002.044-.019.059l-.178.192-.414.507c-.01.017-.027.028-.047.029zm-4.446-.148c-.023 0-.043-.013-.053-.033s-.007-.044.008-.062a5.67 5.67 0 0 1 .65-.669c.015-.016.038-.022.059-.015s.037.024.04.046-.005.044-.023.056a5.55 5.55 0 0 0-.636.655c-.011.014-.028.023-.046.023zm16.92-.317c-.012 0-.024-.004-.034-.011l-.758-.522c-.028-.017-.036-.053-.019-.081s.053-.036.081-.019l.765.526c.017.016.023.039.015.061s-.027.037-.049.039zm-9.377-.424c-.011 0-.021-.003-.03-.008a8.37 8.37 0 0 0-.81-.432c-.019-.017-.024-.045-.013-.068s.037-.036.062-.032c.282.131.556.277.822.438.022.014.032.04.025.065s-.029.042-.055.042zm-1.812-.432c-.023-.002-.042-.017-.05-.039s-.002-.046.015-.061a6.62 6.62 0 0 1 .776-.516c.027-.011.058-.001.073.025s.008.058-.016.075a6.51 6.51 0 0 0-.763.507c-.011.007-.023.011-.036.01zm-4.339-.027c-.026 0-.049-.018-.056-.043s.004-.052.027-.065c.27-.157.554-.287.849-.389.029-.007.059.009.068.037s-.003.059-.03.072c-.288.099-.566.226-.829.379-.009.006-.019.009-.029.01zm13.968-.108c-.009 0-.019-.003-.027-.007l-.826-.4c-.02-.008-.033-.026-.036-.047s.007-.042.024-.054.04-.014.059-.005l.834.408c.023.013.035.039.029.065s-.029.044-.056.044zm-9.494-.207h-.018c-.291-.095-.587-.172-.888-.228-.021-.003-.039-.017-.046-.037s-.003-.042.011-.058.036-.023.056-.018c.305.058.605.135.9.232.027.009.043.036.039.064s-.029.049-.057.049zm-2.737-.283c-.03-.001-.053-.024-.055-.054s.018-.056.047-.061c.309-.043.621-.059.932-.049.015.001.03.007.04.018s.016.026.016.042c-.002.032-.028.057-.06.056-.305-.01-.61.006-.912.048zm10.541-.256l-.899-.267c-.021-.004-.039-.019-.045-.04s0-.043.015-.058.038-.02.059-.013l.89.269c.026.01.041.037.036.064s-.028.047-.055.048zm-6.337-.03c-.027-.001-.05-.02-.055-.047s.009-.053.033-.064c.289-.116.584-.213.885-.292.021-.007.043-.002.059.013s.021.038.015.058-.024.036-.045.04c-.296.078-.587.174-.871.288-.007.002-.014.003-.021.003zm4.548-.428h-.009l-.913-.106c-.022.001-.043-.011-.054-.031s-.009-.044.004-.062.035-.027.057-.023l.923.107c.029.005.05.032.047.062s-.027.053-.056.053zm-2.763-.044c-.03-.001-.053-.024-.055-.054s.018-.056.047-.061a8.68 8.68 0 0 1 .927-.08c.015-.001.031.005.042.015s.018.025.018.041-.005.03-.016.042-.025.018-.04.018c-.306.01-.612.036-.915.079z"/><rect width="3.044" height="1.99" rx=".995" x="4.5" y="7.788"/><path d="M7.523 9.627l-1.5-.911-1.5.909c.04.093.131.153.232.153h2.541c.099-.002.187-.061.227-.151z"/><path d="M4.521 7.939l1.5 1.023 1.5-1.021c-.04-.093-.13-.153-.231-.153H4.749c-.099.001-.188.06-.228.151z"/></g><path d="M6.023 8.991L4.507 7.958l.027-.04 1.489 1.014L7.51 7.92l.027.04z" class="B"/><g class="D"><rect width="3.044" height="1.99" rx=".995" x="53.102" y="13.022"/><path d="M56.125 14.861l-1.5-.911-1.5.909c.04.093.13.153.231.153h2.541c.099-.001.188-.06.228-.151z"/><path d="M53.123 13.172l1.5 1.023 1.5-1.021c-.04-.093-.13-.153-.231-.153h-2.541a.25.25 0 0 0-.228.151z"/></g><path d="M54.625 14.225l-1.516-1.032.027-.04 1.489 1.014 1.487-1.012.027.04z" class="B"/><g class="E"><rect width="3.044" height="1.99" rx=".995" x="63.466" y="46.737"/><path d="M66.489 48.576l-1.5-.911-1.5.908c.04.093.13.153.231.153h2.541a.25.25 0 0 0 .228-.15z"/><path d="M63.49 46.884l1.5 1.023 1.5-1.021a.25.25 0 0 0-.231-.153h-2.541c-.099.001-.188.06-.228.151z"/></g><path d="M64.989 47.94l-1.516-1.032.027-.04 1.49 1.014 1.487-1.012.027.04z" class="B"/><g fill="#ffba41"><rect width="3.044" height="1.99" rx=".995" x="8.731" y="29.224"/><path d="M11.754 31.063l-1.5-.911-1.5.909c.04.093.131.153.232.153h2.541c.099-.002.187-.061.227-.151z"/><path d="M8.752 29.374l1.5 1.023 1.5-1.021c-.04-.093-.13-.153-.231-.153H8.98c-.099.001-.188.06-.228.151z"/></g><path d="M10.254 30.427l-1.516-1.033.027-.04 1.489 1.014 1.487-1.012.027.04z" class="B"/></svg>