<svg xmlns="http://www.w3.org/2000/svg" xmlns:xlink="http://www.w3.org/1999/xlink" width="86.535" height="64.487" xmlns:v="https://vecta.io/nano"><style><![CDATA[.B{opacity:.2}.C{fill:#fff}.D{fill:#263238}.E{fill:#407bff}.F{fill:#e4897b}.G{opacity:.5}.H{fill:#ebebeb}.I{fill:#f5f5f5}.J{fill:#e0e0e0}.K{stroke-miterlimit:10}]]></style><path d="M0 56.671h86.535v.043H0zm72.132 2.786h5.732v.043h-5.732zm-16.312.469h1.505v.043H55.82zm12.817-2.077h3.322v.043h-3.322zm-59.558.291h7.475v.043H9.079zm9.016 0h1.096v.043h-1.096zm4.659.731h16.212v.043H22.754zm18.27-9.919H7.604a.99.99 0 0 1-.988-.988V.988A.99.99 0 0 1 7.604 0h33.42a.99.99 0 0 1 .988.988v46.976a.99.99 0 0 1-.988.988zM7.604.043c-.522.001-.944.423-.945.945v46.976c.001.522.423.944.945.945h33.42c.521-.001.943-.424.944-.945V.988c-.001-.521-.423-.944-.944-.945zm70.85 48.909h-33.42a.99.99 0 0 1-.988-.988V.988A.99.99 0 0 1 45.034 0h33.42a.99.99 0 0 1 .988.988v46.976a.99.99 0 0 1-.988.988zM45.034.043c-.521.001-.943.424-.944.945v46.976c.001.521.423.944.944.945h33.42c.522-.001.944-.423.945-.945V.988c-.001-.522-.423-.944-.945-.945z" class="H"/><g fill="#fafafa"><path d="M57.02 28.576h4.406v1.875H57.02z"/><use xlink:href="#B"/><use xlink:href="#B" x="-5.332"/><use xlink:href="#B" x="7.998" y="2.61"/><use xlink:href="#B" x="2.666" y="2.61"/><use xlink:href="#B" x="-2.666" y="2.61"/><path d="M43.69 31.186h4.406v1.875H43.69z"/><use xlink:href="#B" x="10.664" y="5.22"/><use xlink:href="#B" x="16.257" y="10.613"/><path d="M57.02 33.796h4.406v1.875H57.02z"/><use xlink:href="#B" y="5.22"/><use xlink:href="#B" x="-5.332" y="5.22"/><use xlink:href="#B" x="-10.664" y="5.22"/><path d="M59.686 36.406h4.406v1.874h-4.406zm-5.332 0h4.406v1.874h-4.406zm-5.332 0h4.406v1.874h-4.406zm-5.332 0h4.406v1.874H43.69z"/><use xlink:href="#B" x="-23.603" y="-26.589"/><use xlink:href="#B" x="-28.935" y="-26.589"/><path d="M30.751 4.597h4.406v1.874h-4.406zm-5.332 0h4.406v1.874h-4.406zm-10.664 0h4.406v1.874h-4.406zm-5.332 0h4.406v1.874H9.423zm18.662 2.61h4.406v1.874h-4.406zm-5.332 0h4.406v1.874h-4.406zm-10.664 0h4.406v1.874h-4.406zM9.1 15.981h4.406v1.875H9.1z"/><use xlink:href="#B" x="-37.256" y="-12.595"/><use xlink:href="#B" x="-39.922" y="-15.205"/><use xlink:href="#B" x="-19.242" y="-15.587"/><use xlink:href="#B" x="-24.574" y="-15.587"/><path d="M29.78 15.598h4.406v1.875H29.78z"/><use xlink:href="#B" x="-1.054" y="-26.477"/><use xlink:href="#B" x="-6.386" y="-26.477"/><path d="M53.3 4.709h4.406v1.875H53.3z"/><use xlink:href="#B" x="-3.72" y="-23.867"/><path d="M66.91 3.167h4.406v1.875H66.91z"/><use xlink:href="#B" x="17.887" y="-22.799"/><use xlink:href="#B" x="16.838" y="-0.364"/><use xlink:href="#B" x="12.556" y="-22.799"/><use xlink:href="#B" x="-9.052" y="-23.867"/><path d="M55.966 7.318h4.406v1.874h-4.406zm-5.332 0h4.406v1.874h-4.406zm-5.332 0h4.406v1.874h-4.406zm7.998 2.61h4.406v1.874H53.3zm-5.332 0h4.406v1.874h-4.406z"/><use xlink:href="#B" x="-37.441" y="-3.08"/><path d="M8.915 25.496h4.406v1.875H8.915zm18.662 2.61h4.406v1.874h-4.406zm-10.664 0h4.406v1.874h-4.406zm-5.332 0h4.406v1.874h-4.406z"/><use xlink:href="#B" x="-21.445" y="2.139"/><use xlink:href="#B" x="-26.777" y="2.139"/><use xlink:href="#B" x="-37.441" y="2.139"/><path d="M8.915 30.715h4.406v1.875H8.915zm7.998 2.61h4.406V35.2h-4.406zm-5.332 0h4.406V35.2h-4.406z"/><use xlink:href="#B" x="-24.641" y="9.94"/><use xlink:href="#B" x="-29.973" y="9.94"/><path d="M15.165 42.916h4.406v1.874h-4.406zm-5.332 0h4.406v1.874H9.833z"/><use xlink:href="#B" x="-23.193" y="16.95"/><path d="M24.381 41.125h4.406V43h-4.406z"/><use xlink:href="#B" x="-39.189" y="16.95"/><use xlink:href="#B" x="-20.527" y="19.56"/><use xlink:href="#B" x="-25.859" y="19.56"/><use xlink:href="#B" x="-31.191" y="19.56"/><use xlink:href="#B" x="-23.193" y="22.17"/><use xlink:href="#B" x="-28.525" y="22.17"/><use xlink:href="#B" x="-33.857" y="22.17"/><use xlink:href="#B" x="4.284" y="14.22"/><path d="M50.64 42.796h4.406v1.875H50.64z"/><use xlink:href="#B" x="-6.38" y="14.22"/><path d="M58.638 45.406h4.406v1.874h-4.406zm-5.332 0h4.406v1.874h-4.406zm-5.332 0h4.406v1.874h-4.406zm-5.332 0h4.406v1.874h-4.406zm7.998 2.609h4.406v1.874H50.64zm-5.332 0h4.406v1.874h-4.406zm7.998 2.61h4.406v1.874h-4.406zm-5.332 0h4.406v1.874h-4.406zm-5.332 0h4.406v1.874h-4.406z"/></g><path d="M74.998 24.483H62.847V9.333h12.151z" class="I"/><path d="M72.773 22.505c-1.53 1.1-1.534 1.7-2.63.47s-1.859-2.715-3.849-1.94-3.1-1.232-1.824-3.078a5.34 5.34 0 0 0 0-5.576c-.807-1.207-.43-2.833.855-1.924a4.24 4.24 0 0 0 4.271.268c1.243-.641 2.7-2.229 2.589.545s1.316 1.9 1.683 3.307-1.406.513-1.1 3.585 1.361 3.371.005 4.343z" class="J"/><g class="H"><path d="M65.288 22.976c1.861.824 2.65 1.231 3.521-.607s2.627-4.284 3.9-3.606.884-2.409-1.551-1.634-3.02.383-3.881-1.471-.653-2.887-1.686-2.21.392 2.759-.192 4.441-1.782 4.346-.111 5.087z"/><path d="M71.807 13.593c-.751 1.439.262 3.74-1.7 2.775s-1.141-4.678-2.827-3.8-.545 3.419-1.984 3.543-1.283-5.538.817-5.654 3.912 1.75 4.544 1.105 2.4-2.117 2.764-.292-1.037 1.218-1.614 2.323z"/></g><path d="M48.89 13.393h10.751v14.419H48.89z" class="I"/><path d="M58.123 26.364c-.311.577-8-2.323-7.8-2.949s6.011-1.147 6.522-1.995-6.147-1.979-6.026-2.551 6.421-.068 6.537-.641-6.637-1.569-6.186-2.43 6.061-.244 6.678 1.215-2.78 1.36-2.876 2.328 3.62 1.155 3.148 2.71-5.354.433-4.9 1.789 5.492 1.429 4.903 2.524z" fill="#e6e6e6"/><g class="H"><path d="M52.238 26.288c-1 .235-2.164-1.559-.971-1.158s1.975.922.971 1.158zm4.537-2.271c-.05.5 1.431.412 1.448 0s-1.401-.522-1.448 0zm-5.601-3.011c.542.894 2.137.508 2.12.1s-2.706-1.066-2.12-.1zm18.507 29.79c.026-.177.632-4.357-.581-5.8-.244-.309-.614-.493-1.008-.5a2.52 2.52 0 0 0-2.788 1.93l.289.044a2.2 2.2 0 0 1 2.492-1.682 1.02 1.02 0 0 1 .791.392c1.13 1.343.522 5.526.516 5.568z"/><path d="M69.83 50.605l.292-.009c0-.038-.1-3.851 1.781-4.638a2.02 2.02 0 0 1 2.7.883l.261-.131c-.584-1.113-1.944-1.564-3.077-1.021-2.06.864-1.962 4.751-1.957 4.916z"/><path d="M69.821 50.905c0-.061.018-6.09 1.193-7.854.66-.992 1.944-1.357 3.027-.861l.121-.266a2.75 2.75 0 0 0-3.391.965c-1.224 1.837-1.242 7.764-1.242 8.016z"/></g><path d="M67.743 44.646s1.069.394.751 1.325-3.7 2.463-3.7 2.463a2.62 2.62 0 0 1-.116-3.409c1.301-2.112 3.031-1.046 3.065-.379zm3.324-1.913s-.759-.081-.7-.544 2.951-1.653 4.657.272c0 0-1.092 1.876-2.67 1.9s-1.287-1.628-1.287-1.628zm.779 3.09s-.524-.423.042-.63a2.68 2.68 0 0 1 3.369 2.6s-3.232.537-3.632-.51.221-1.46.221-1.46z" class="J"/><path d="M67.168 56.395h5.015l.541-5.491h-6.1z" class="H"/><path d="M72.992 51.51h-6.633v-1.212h6.633z" class="J"/><ellipse cx="43.267" cy="62.528" rx="33.556" ry="1.96" class="I"/><rect width="30.045" height="54.041" rx="2" x="14.818" y="1.716" class="D"/><path d="M43.849 3.526V53.85c0 .197-.079.386-.22.524s-.33.214-.527.211h-26.6a.66.66 0 0 1-.667-.675V3.466c-.006-.158.05-.312.157-.428s.256-.184.414-.19h6.651a.47.47 0 0 1 .428.3l.275.678a.47.47 0 0 0 .428.3h11.323c.189-.001.358-.116.428-.291l.275-.681a.47.47 0 0 1 .428-.3h6.555a.67.67 0 0 1 .652.672z" class="E"/><g class="C"><path d="M15.832 5.992h28.017v45.763H15.832z" class="G"/><path opacity=".6" d="M19.266 4.876h-.346v-.461h.346zm-.564 0h-.346v-.615h.346zm-.564 0h-.346v-.769h.346zm-.564 0h-.346v-.923h.346zm22.9-.63h.205v.461h-.205zm1.98.63H40.82v-.798h1.634zM29.835 2.915c0 .156-.094.296-.238.356s-.309.027-.42-.083-.143-.276-.083-.42.2-.238.356-.238c.213 0 .385.172.385.385zm.78-.005c0 .099-.06.189-.152.227s-.198.017-.268-.053-.091-.176-.053-.268.128-.152.227-.152c.136 0 .246.11.246.246z"/><rect width="21.656" height="2.662" rx="1.331" x="17.227" y="8.616"/></g><g fill="none" stroke="#407bff" stroke-linejoin="round"><path d="M37.448 9.405a.58.58 0 0 1-.411.994.58.58 0 0 1-.412-.994.58.58 0 0 1 .823 0z"/><path stroke-linecap="round" d="M37.445 10.227l.432.432"/></g><rect width="2.662" height="2.662" rx="1.331" x="39.705" y="8.616" class="B"/><g class="C"><path d="M40.584 9.307c0 .098-.079.177-.177.177s-.177-.079-.177-.177.079-.177.177-.177c.047 0 .092.019.125.052s.052.078.052.125z"/><circle cx="41.725" cy="9.947" r=".177"/><circle cx="40.474" cy="10.66" r=".177"/></g><path d="M40.407 9.307l1.318.64-1.251.713" fill="none" stroke="#fff" stroke-width=".5" class="K"/><g class="C"><path opacity=".6" d="M15.832 13.631h28.017v38.124H15.832z"/><path d="M31.703 20.393l-1.969 1.969-1.969-1.969 1.969-1.969z" class="B"/></g><rect width="6.3" height="6.3" rx="3.15" transform="matrix(-1 0 0 -1 24.527 23.543)" class="B"/><use xlink:href="#C" class="B"/><rect width="6.3" height="6.3" rx="3.15" transform="matrix(-1 0 0 -1 32.884 35.312)" class="B"/><use xlink:href="#C" x="8.357" y="11.769" class="B"/><rect width="6.3" height="6.3" rx="3.15" transform="matrix(-1 0 0 -1 24.527 35.312)" class="B"/><use xlink:href="#C" y="11.769" class="B"/><path d="M20.352 30.385h2.051l1.026 1.777-1.026 1.777h-2.051l-1.026-1.777zm11.035.605v2.521h-3.3z" class="B C"/><rect width="6.3" height="6.3" rx="3.15" transform="matrix(-1 0 0 -1 41.241 23.543)" class="B"/><use xlink:href="#C" x="16.714" class="B"/><g class="C"><circle cx="1.767" cy="1.767" r="1.767" transform="matrix(.973 -.23 .23 .973 36.066 18.997)" class="B"/><path d="M20.613 18.544l2.347 2.739c-.068 0-3.168.639-3.168.639z" class="B"/></g><rect width="6.3" height="6.3" rx="3.15" transform="matrix(-1 0 0 -1 32.884 23.543)" class="B"/><use xlink:href="#C" x="8.357" class="B"/><g class="B"><path d="M19.257 9.952v.291h-.068v-.284a.14.14 0 0 0-.151-.16c-.049-.004-.096.014-.131.049s-.051.083-.045.132v.263h-.068v-.707h.068v.294c.042-.062.114-.097.188-.092.058-.005.114.016.154.058s.059.099.053.156z"/><path d="M19.706 10.213c-.03.024-.068.036-.106.035s-.08-.009-.108-.038-.043-.068-.039-.108v-.3h-.09v-.061h.09v-.11h.068v.11h.152v.057h-.152v.3a.08.08 0 0 0 .087.092c.027.001.053-.009.074-.026zm.374 0c-.03.024-.068.036-.106.035s-.08-.009-.108-.038-.043-.068-.039-.108v-.3h-.09v-.061h.09v-.11h.068v.11h.153v.057h-.153v.3a.08.08 0 0 0 .087.092c.027.001.053-.009.074-.026z"/><path d="M20.712 9.992c.003.068-.022.134-.069.182s-.113.075-.181.073a.22.22 0 0 1-.191-.1v.279h-.068V9.74h.065v.1a.22.22 0 0 1 .194-.1c.067-.002.132.024.18.072s.073.113.07.18zm-.068 0c-.007-.101-.094-.178-.195-.174s-.181.089-.178.191.085.183.187.183c.052.001.103-.02.138-.058s.054-.09.05-.142z"/><path d="M20.781 10.186l.031-.053a.3.3 0 0 0 .178.056c.1 0 .135-.032.135-.082 0-.131-.325-.028-.325-.226 0-.082.071-.143.2-.143.062-.001.123.015.177.047l-.029.054c-.044-.029-.095-.044-.148-.043-.091 0-.13.035-.13.083 0 .135.325.033.325.226 0 .087-.076.143-.207.143-.074.003-.147-.019-.207-.062zm.491-.397a.05.05 0 0 1 .05-.051c.014 0 .026.005.036.015s.015.023.015.036c0 .028-.023.051-.051.052a.05.05 0 0 1-.036-.016c-.01-.01-.014-.023-.014-.036zm0 .406a.05.05 0 0 1 .05-.052c.014 0 .027.006.036.015s.015.023.015.037c0 .028-.023.051-.051.052s-.05-.023-.05-.051zm.484-.755h.062l-.315.9h-.062zm.261 0h.062l-.315.9h-.062zm.886.512v.291h-.068v-.284c0-.106-.054-.16-.144-.16a.16.16 0 0 0-.126.051c-.032.035-.048.082-.042.13v.263h-.068v-.284c0-.106-.053-.16-.145-.16-.048-.002-.094.017-.126.052s-.048.082-.042.129v.263h-.068v-.5h.069v.092a.2.2 0 0 1 .184-.1.18.18 0 0 1 .178.106.22.22 0 0 1 .2-.106c.057-.003.112.019.151.061s.056.099.047.156z"/><path d="M23.499 9.741l-.251.561c-.042.1-.1.13-.167.13-.045.001-.089-.015-.122-.046l.031-.051c.024.025.057.038.092.038.045 0 .075-.021.1-.084l.022-.049-.224-.5h.071l.189.426.189-.426zm.096-.206h.068v.707h-.068zm.242.048c0-.013.006-.025.015-.034a.05.05 0 0 1 .035-.014c.013 0 .025.005.034.013s.015.021.015.034c0 .027-.022.049-.049.049a.05.05 0 0 1-.035-.014c-.009-.009-.015-.021-.015-.034zm.015.158h.068v.5h-.068z"/><path d="M24.57 9.952v.291h-.068v-.284a.14.14 0 0 0-.151-.16c-.048-.004-.096.015-.13.05s-.05.083-.045.131v.263h-.068v-.5h.065v.092a.21.21 0 0 1 .191-.1c.058-.005.115.017.155.059s.059.1.051.158zm.369.039l-.118.109v.143h-.068v-.707h.068v.48l.3-.274h.084l-.214.2.235.3h-.087zm.586-.551h.062l-.315.9h-.062z"/><path d="M49.178 23.297v14.537a.83.83 0 0 1-.832.832H20.999a.83.83 0 0 1-.833-.832v-14.54a.83.83 0 0 1 .833-.831h27.346a.83.83 0 0 1 .833.834z"/></g><path d="M50.389 21.912v14.537a.83.83 0 0 1-.833.832H22.21a.83.83 0 0 1-.833-.832v-14.54a.83.83 0 0 1 .833-.831h27.346a.83.83 0 0 1 .833.834z" class="E"/><g class="C"><path d="M50.389 23.883v12.568a.83.83 0 0 1-.833.832H22.21a.83.83 0 0 1-.833-.832V23.883z" class="G"/><path d="M23.129 26.129h19.683v3.382H23.129z"/></g><g class="D"><path d="M25.172 27.776v.482h-.152v-.465c0-.164-.082-.245-.226-.245a.25.25 0 0 0-.266.278v.432h-.152v-1.174h.152v.454c.074-.087.186-.134.3-.127.097-.006.192.031.258.101s.098.167.086.264z"/><path d="M25.925 28.21c-.052.04-.117.06-.183.058a.24.24 0 0 1-.266-.263v-.46h-.142v-.125h.142v-.186h.152v.183h.24v.125h-.24v.454c-.005.037.007.074.032.102a.12.12 0 0 0 .099.039c.043 0 .085-.014.119-.04zm.635 0a.29.29 0 0 1-.184.058.24.24 0 0 1-.266-.263v-.46h-.142v-.125h.142v-.186h.152v.183h.241v.125h-.241v.454c-.005.037.007.074.032.102a.12.12 0 0 0 .099.039.19.19 0 0 0 .118-.04z"/><path d="M27.611 27.839c.006.115-.036.227-.117.308s-.192.125-.307.121a.36.36 0 0 1-.293-.136v.433h-.153V27.42h.146v.133a.36.36 0 0 1 .3-.141c.114-.005.226.039.306.12s.123.193.118.307zm-.154 0c-.009-.154-.14-.272-.294-.266s-.275.134-.272.288.128.277.282.278c.079.002.155-.029.209-.086a.28.28 0 0 0 .075-.214zm.259.331l.063-.12a.54.54 0 0 0 .294.087c.141 0 .2-.043.2-.114 0-.188-.53-.025-.53-.359 0-.15.134-.252.35-.252a.61.61 0 0 1 .305.076l-.065.12a.44.44 0 0 0-.242-.066c-.133 0-.2.049-.2.115 0 .2.531.036.531.362 0 .152-.139.248-.362.248-.122.003-.242-.031-.344-.097zm.828-.65c-.001-.029.011-.057.031-.077s.048-.032.077-.031a.1.1 0 0 1 .1.108c.002.058-.042.106-.1.109-.029 0-.057-.011-.077-.032s-.032-.048-.031-.077zm0 .639c-.001-.029.011-.057.031-.077s.048-.032.077-.031a.1.1 0 0 1 .1.108c.002.058-.042.106-.1.109-.029 0-.057-.011-.077-.032s-.032-.048-.031-.077zm.84-1.232h.138L29 28.417h-.138zm.449 0h.138l-.522 1.49h-.138zm1.271 1.331v-.807l-.4.672h-.073l-.4-.668v.8h-.152v-1.107h.13l.462.778.456-.778h.13v1.107zm.91-.383v.383h-.156v-.386l-.44-.721h.169l.354.584.356-.584h.156zm.581-.724h.158v.97h.6v.138h-.758zm.94 0h.158v1.107h-.158zm1.442 0v1.107h-.13l-.664-.826v.826h-.158v-1.107h.13l.664.826v-.826zm.694.615l-.2.206v.286h-.163v-1.107h.158v.619l.6-.619h.18l-.473.5.5.609h-.185zm1.1-.839h.138l-.522 1.49h-.138z"/></g><g class="C"><path d="M23.753 22.663h.092v.348a.5.5 0 0 1-.335.116c-.171.008-.332-.079-.42-.225s-.088-.33 0-.476.249-.233.42-.225a.45.45 0 0 1 .339.132l-.06.061c-.121-.129-.313-.159-.468-.074s-.231.265-.186.436.201.288.377.286a.4.4 0 0 0 .238-.07z"/><path d="M24.693 22.808h-.573c.004.067.035.13.086.175s.117.067.184.063a.27.27 0 0 0 .209-.09l.052.06c-.1.106-.254.141-.391.089s-.228-.18-.233-.326a.33.33 0 0 1 .335-.348c.091-.002.179.035.243.101s.096.156.089.247c.001.005-.001.016-.001.029zm-.573-.069h.486c0-.134-.109-.243-.243-.243s-.243.109-.243.243z"/><path d="M25.239 23.077a.22.22 0 0 1-.144.048.18.18 0 0 1-.2-.2v-.414h-.122v-.078h.122v-.15h.092v.15h.208v.078h-.208v.409a.11.11 0 0 0 .118.125c.036.001.072-.012.1-.035zm.532-.869h.1v.828h.51v.083h-.607zm.726.01c.001-.037.031-.066.068-.065.018-.001.035.006.047.018s.02.029.021.046c-.004.034-.033.06-.067.06s-.063-.026-.067-.06zm.021.216h.092v.685h-.094zm.979.288v.4h-.093v-.388a.19.19 0 0 0-.05-.16c-.041-.043-.098-.065-.156-.059-.066-.005-.132.02-.178.067s-.069.114-.062.18v.359h-.092v-.685h.089v.126c.056-.088.156-.138.26-.132.078-.007.156.022.21.079s.081.135.072.213zm.505.053l-.161.148v.2h-.093v-.966h.093v.655l.409-.374h.114l-.293.28.32.4h-.113zm15.974 5.029a.46.46 0 0 1 .478-.464.44.44 0 0 1 .333.133l-.061.061a.36.36 0 0 0-.269-.108.38.38 0 0 0-.344.183c-.072.12-.072.269 0 .389a.38.38 0 0 0 .344.183c.101.003.199-.036.269-.109l.061.061c-.088.09-.209.139-.335.134-.126.005-.248-.041-.338-.129s-.14-.208-.138-.334zm.916 0a.48.48 0 1 1 .479.463.46.46 0 0 1-.479-.463zm.861 0c.002-.156-.09-.297-.233-.358a.38.38 0 0 0-.419.081c-.11.11-.144.275-.084.419s.2.237.356.236a.37.37 0 0 0 .381-.378z"/><path d="M46.778 27.66c0 .194-.141.311-.372.311h-.245v.288h-.1v-.911h.341c.235 0 .376.117.376.312zm-.1 0c0-.146-.1-.229-.278-.229h-.242v.456h.242c.185 0 .281-.081.281-.227zm.62.284v.315h-.095v-.315l-.365-.6h.1l.313.512.313-.512h.1z"/></g><path d="M.5.5h4.833v2.382H.5z" transform="matrix(-1 0 0 -1 48.644 29.511)" fill="none" stroke="#fff" class="K"/><rect width="10.766" height="3.425" rx="1.713" x="37.877" y="32.07" class="E"/><g class="C"><path d="M40.472 34.128l.06-.126a.58.58 0 0 0 .373.131c.2 0 .279-.076.279-.174 0-.276-.684-.1-.684-.521 0-.174.135-.323.432-.323.128-.002.254.032.363.1l-.053.129c-.093-.059-.2-.091-.31-.092-.192 0-.274.081-.274.179 0 .276.684.1.684.518 0 .173-.139.321-.437.321a.67.67 0 0 1-.433-.142z"/><path d="M42.549 33.128v1.129h-.161v-.5h-.649v.5h-.161v-1.129h.161v.486h.649v-.486zm1.059.847h-.6l-.124.282h-.171l.512-1.129h.16l.513 1.129h-.169zm-.056-.129l-.244-.554-.244.554zm1.273.411l-.244-.347h-.071-.279v.344h-.161v-1.129h.44c.294 0 .471.148.471.394.008.162-.094.309-.249.357l.268.379zm0-.736c0-.161-.108-.253-.315-.253h-.274v.508h.274c.202.001.31-.093.31-.254z"/><path d="M46.063 34.117v.14h-.82v-1.129h.8v.14h-.636v.347h.566v.137h-.566v.365z"/></g><rect width="3.91" height="3.91" rx="1.955" x="56.892" y="20.801" class="E"/><g class="C"><circle cx="57.946" cy="21.831" r=".242"/><circle cx="59.749" cy="22.707" r=".242"/><path d="M58.275 23.684c0 .098-.059.186-.149.224s-.195.017-.264-.052-.09-.173-.052-.264.126-.149.224-.149c.134 0 .242.108.242.242z"/></g><path d="M57.946 21.831l1.8.876-1.712.975" fill="none" stroke="#fff" stroke-width=".5" class="K"/><g class="E"><path d="M58.945 24.245a1.72 1.72 0 0 0 .462 1.2s-.642-.112-.938-1.056z"/><use xlink:href="#D"/></g><use xlink:href="#D" class="B"/><use xlink:href="#D" x="-9.033" class="E"/><use xlink:href="#D" x="-9.033" class="B"/><g class="E"><use xlink:href="#D" x="1.659"/><use xlink:href="#D" x="10.692"/><use xlink:href="#E"/></g><g class="C"><use xlink:href="#E" class="B"/><path d="M62.54 48.687v.976c0 .076.03.148.083.202s.126.084.201.084h9.274c.158 0 .286-.128.286-.286v-.976c-.001-.158-.128-.285-.286-.285h-9.274c-.075 0-.148.03-.201.084s-.083.126-.083.201z" opacity=".3"/></g><path d="M62.351 26.667a1.89 1.89 0 0 1 1.388 1.859c-.006.842.024.83.5 1.14s-.308.869-.308.869a.48.48 0 0 1-.056.577c-.252.279.239.371.239.371s-.205.441-.468.2c0 0 .028.476-.745.509s-2.011.36-2.3-.051l-1.229-1.6a1.17 1.17 0 0 1-.582-1.445 2.22 2.22 0 0 1 1.918-1.91c.583-.028 1.15-.206 1.643-.519z" class="D"/><use xlink:href="#F" class="F"/><use xlink:href="#F" class="B"/><path d="M59.18 33.622c-.585.419-.808 2.733-1.039 3.069s-.323-.639-.323-.639l-1.178-.056c-.082.82.1 1.646.518 2.356.679.979 1.933.252 2.643-1.319s-.621-3.411-.621-3.411z" class="D"/><path d="M57.16 38.352c.124.196.313.341.534.411.683.2 1.559-.514 2.109-1.731a2.5 2.5 0 0 0 .2-1.2 4.84 4.84 0 0 0-.825-2.211c-.585.418-.808 2.733-1.039 3.069s-.323-.64-.323-.64l-1.178-.057c-.081.822.102 1.648.522 2.359z" class="B C"/><path d="M59.163 33.645c-.3.038-1.065 2.564-1.065 2.564l1.914.829.507-1.489z" class="E"/><path d="M60.519 35.548l-.507 1.49-.493-.213-1.421-.616s.765-2.527 1.064-2.565l.564.791z" class="C G"/><path d="M60.519 35.543l-.507 1.49-.493-.213a2.42 2.42 0 0 1 .208-2.39z" class="B"/><path d="M51.488 60.907l-1.167-.32.209-2.848 1.165.322z" class="F"/><path d="M50.248 60.433l1.354.094c.023.001.044.01.06.027s.024.039.024.061h0l-.008 1.077c-.008.117-.108.207-.226.2l-1.291-.129a11.24 11.24 0 0 1-1.585-.158c-.494-.115-.368-.6-.148-.6a3.33 3.33 0 0 0 1.608-.521.34.34 0 0 1 .212-.051z" class="D"/><g class="E"><path d="M49.585 60.533a.15.15 0 0 1-.024-.159c.009-.035.035-.064.07-.075.152-.047.478.21.515.239.008.008.011.019.009.03s-.012.019-.023.02c-.107.019-.216.026-.325.021-.081.003-.16-.024-.222-.076zm.063-.176c-.017.006-.03.02-.034.037a.1.1 0 0 0 .013.1c.053.059.211.077.43.05-.134-.1-.328-.214-.409-.188z"/><path d="M50.112 60.587c-.147-.114-.235-.288-.241-.474.014-.048.058-.08.108-.078a.15.15 0 0 1 .117.047c.113.126.061.476.06.486s-.009.017-.017.021c-.017.002-.023.001-.027-.002zm-.131-.491c-.041 0-.052.021-.056.037.012.144.076.28.18.38.025-.132.006-.268-.052-.388-.014-.018-.035-.029-.058-.03z"/></g><path d="M51.695 58.06l-1.166-.32-.119 1.628 1.172.261z" class="B"/><path d="M53.014 60.866l1.1.5.281-1.183.376-1.593-1.1-.5-.378 1.591z" class="F"/><path d="M53.296 59.679l1.1.505.376-1.593-1.1-.5z" class="B"/><path d="M52.968 60.701l1.322.309c.047.009.078.053.069.1h0l-.18 1.062c-.027.114-.14.185-.254.16l-1.254-.333a11.24 11.24 0 0 1-1.54-.409c-.47-.192-.267-.651-.052-.611a3.33 3.33 0 0 0 1.67-.258c.069-.031.146-.038.219-.02z" class="D"/><g class="E"><path d="M52.295 60.695c-.031-.049-.031-.112 0-.161.015-.034.046-.057.082-.063.158-.022.439.283.47.318.005.01.005.021 0 .031s-.015.017-.026.016a1.47 1.47 0 0 1-.325-.031c-.078-.011-.15-.05-.201-.11zm.091-.163c-.018.003-.033.014-.04.031a.1.1 0 0 0 0 .1c.043.067.2.11.417.117-.117-.119-.289-.263-.373-.251z"/><path d="M52.807 60.83c-.127-.136-.186-.322-.163-.506.021-.045.07-.07.119-.06a.15.15 0 0 1 .109.066c.091.143-.016.479-.019.489s-.011.015-.02.018c-.017 0-.022-.002-.026-.007zm-.051-.506c-.04 0-.055.012-.061.027-.011.143.031.285.117.4.045-.126.049-.263.01-.391-.011-.02-.031-.034-.053-.039z"/></g><g class="D"><path d="M61.185 44.692l.355-3.935 6.571.154s.778 5.484.213 6.491c-1.009 1.8-7.634.777-9.183.93-.632.337-4.018 11.557-4.018 11.557l-1.9-.765 2.5-11.252c.654-2.48 3.285-2.438 5.462-3.18z"/><path d="M50.295 58.931l1.672.155 2.209-10.485c.286-.081 1.117-.175 1.563-.291 3.1-.807 10.743-2.292 10.743-2.292l-2.817-2.715s-12.774 1.534-13.058 4.531c-.137 1.442-.312 11.097-.312 11.097z"/></g><path d="M54.627 48.608l1.112-.3a4.29 4.29 0 0 1 .593-1.981c.71-.838 3.565-1.291 4.588-1.455.856-.137 3.728-.391 3.728-.391-2.978-.235-5.974-.029-8.891.611-1.889.521-1.553 2.365-1.13 3.516z" class="B"/><path d="M58.095 33.962a.1.1 0 0 1-.085.126l-1.116.156c-.064.008-.125-.033-.142-.095l-.558-2.168c-.009-.03-.005-.062.011-.089s.042-.046.072-.053l1.116-.156c.068-.001.127.044.144.11z" class="D"/><path d="M57.411 31.796l.564 2.189c.011.025.009.054-.006.078s-.039.038-.067.04l-.947.132c-.064.009-.185-.01-.2-.071l-.565-2.2c-.016-.062.085-.127.149-.136l.947-.133c.062-.005.117.039.125.101z" class="C G"/><path d="M53.083 58.685l-.069.638 2.192.772.205-.466zm-3.136-.316l.067.637 2.088.239.088-.5zM61.39 41.557a35.7 35.7 0 0 0-2.228-7.916 14.02 14.02 0 0 1 1.938-.658 26.03 26.03 0 0 1 2.934-.616 13.11 13.11 0 0 1 2.059-.057s1.482 2.767 2.233 9.247z" class="E"/><path d="M68.326 41.559h-6.937a35.64 35.64 0 0 0-2.227-7.916c.629-.266 1.277-.486 1.938-.658.965-.261 1.945-.467 2.934-.616a13 13 0 0 1 2.06-.055 8.28 8.28 0 0 1 .36.82 24.24 24.24 0 0 1 .935 3.043c.424 1.773.737 3.57.937 5.382z" opacity=".6" class="C"/><path d="M67.388 36.178c-1.123.836-2.757-.353-2.757-.353l1.823-2.689c.378.992.69 2.009.934 3.042z" class="B"/><use xlink:href="#G" class="D"/><g class="C"><use xlink:href="#G" class="B"/><path d="M61.347 36.318l2.746-.3.664 3.167-2.661.211z" class="G"/></g><path d="M61.347 36.318l3.41 2.87-.664-3.167z" class="B"/><path d="M59.941 35.151l-1-.654-.52-1.4c-.097-.124-1.148.161-1.264.177a3.15 3.15 0 0 0 .332 1.428c.189.083.393.126.6.127l1.133 1z" class="F"/><use xlink:href="#H" class="D"/><use xlink:href="#H" class="B C"/><path d="M62.4 29.898c.262.947.885 2.611 1.776 2.885-.364.596-.957 1.016-1.639 1.164-.625.057-.971-.649-.971-.649.638-.119.394-.586-.109-1.172z" class="F"/><path d="M62.016 30.806l-.558 1.319a3.14 3.14 0 0 1 .321.434c.627.047 1.076-.946.923-1.35-.055-.166-.575-.268-.686-.403z" class="B"/><path d="M60.235 28.386c.6.247.483.9-.507 2.087-.61-.525-.941-1.721-.621-2.1s.608-.2 1.128.013z" class="D"/><path d="M62.69 28.896c.208 1.293.394 2.038-.1 2.837a1.74 1.74 0 0 1-3.042-.233c-.529-1.082-.781-3.015.352-3.8.507-.356 1.162-.423 1.73-.179s.97.766 1.061 1.379z" class="F"/><path d="M60.866 29.669c.023.1-.013.2-.081.215s-.141-.056-.164-.16.012-.2.079-.216.136.061.166.161zm-1.18.271c.023.1-.013.2-.081.215s-.142-.055-.166-.16.013-.2.081-.215.143.056.166.16z" class="D"/><path d="M60.083 29.903a3.8 3.8 0 0 1-.3 1c.167.07.356.063.517-.019z" fill="#de5753"/><path d="M61.104 29.23c.014-.001.027-.007.037-.017.022-.026.02-.065-.006-.088a.62.62 0 0 0-.553-.14.06.06 0 0 0-.043.073h0c.011.032.045.051.078.042h0a.49.49 0 0 1 .435.115c.014.012.033.018.052.015zm-2.044.433c.024-.005.042-.024.048-.047a.5.5 0 0 1 .281-.353c.029-.014.043-.048.032-.078s-.043-.048-.074-.04a.62.62 0 0 0-.36.443c-.008.033.012.066.045.074h0c.009.002.019.003.028.001zm2.869-1.782c-.55.338-.333.964.835 1.978.519-.616.655-1.85.276-2.176s-.63-.097-1.111.198z" class="D"/><path d="M63.527 29.78c-.019.329-.168.637-.414.856-.328.287-.679.038-.746-.369-.059-.368.041-.96.445-1.09.181-.056.378-.016.523.106s.217.31.192.497z" class="F"/><path d="M60.518 31.164a3.24 3.24 0 0 1 .236.407l.079-.024c.358-.112.488-.282.522-.437.015-.076.012-.154-.009-.229a.47.47 0 0 0-.049-.121 1.77 1.77 0 0 1-.658.365l-.121.039z" class="D"/><path d="M60.64 31.124l.073.118c.246-.046.469-.173.634-.361a.47.47 0 0 0-.049-.121 1.77 1.77 0 0 1-.658.364z" class="C"/><path d="M60.833 31.546c.358-.112.488-.282.523-.437-.135.044-.262.112-.374.2-.073.061-.126.144-.149.237z" fill="#a24e3f"/><path d="M63.034 27.874s.319-.513-.365-1.038c-.461-.294-1.051-.294-1.512 0-.19-.13-.409-.21-.638-.233-.5-.1-1.171.6-1.581.773-.235.069-.432.23-.548.446s-.14.469-.068.703c.217.536-.434 1.771.536 1.633-.182-.09-.262-.306-.183-.493.114-.364.518-.375.533-1.128s.725-.277.725-.277.226-.349.534-.316.843.266.918 1.205.8 1.187 1.432.629.754-.547.868-.267c0 0 .24-.409-.274-.544-.208-.08-.37-.248-.443-.459s-.049-.443.066-.634z" class="D"/><path d="M63.879 34.025l2.168 1.615s1.545-1.724.655-3.079-2.823 1.464-2.823 1.464z" class="E"/><path d="M63.879 34.025l2.168 1.615s1.545-1.724.655-3.079-2.823 1.464-2.823 1.464z" class="C G"/><defs ><path id="B" d="M51.688 28.576h4.406v1.875h-4.406z"/><path id="C" d="M18.567 25.394h5.62a.34.34 0 0 0 .34-.34h0a.34.34 0 0 0-.34-.34h-5.62a.34.34 0 0 0-.34.34h0a.34.34 0 0 0 .34.34z"/><path id="D" d="M60.211 62.371h-1.262V49.175h1.262z"/><path id="E" d="M47.331 48.687v.976c0 .076.03.149.083.202s.126.084.202.084h24.482c.158 0 .286-.128.286-.286v-.976c-.001-.158-.128-.285-.286-.285H47.616c-.076 0-.148.03-.202.083s-.083.126-.083.202z"/><path id="F" d="M56.829 33.445s-.648.13-.645.249c.07.404.193.796.367 1.167.121.099.252.184.392.254l-.165 1.51.884.228.013-1.61a1.04 1.04 0 0 0 .087-.938c-.237-.358-.557-.653-.933-.86z"/><path id="G" d="M62.448 34.144c1.095.242 1.943-1.335 1.943-1.335s0-.417-1.659-.208-1.824 1.203-.284 1.543z"/><path id="H" d="M65.928 32.316c-.666.154-2.263 2.916-3.117 3.425s-3.214-1.128-3.214-1.128l-.809 1.006s1.912 1.686 3.586 1.726 4.047-2.327 4.4-3.194-.036-2.022-.846-1.835z"/></defs></svg>