<svg xmlns="http://www.w3.org/2000/svg" width="85.126" height="64.162" viewBox="0 0 85.126 64.162"><g transform="translate(-19.906)"><path d="M917.579,1104.615c-1.124-2.752,3.269-4.979,3.269-4.979s5.661,2,6.494,1.51-4.507-2.651-4.507-2.651c1.364-1.267,6.5-2.328,6.5-2.328s3.318,4.838,4.006,4.162-3.156-4.134-3.156-4.134a8.9,8.9,0,0,1,4.352-.014c3.731,1.438,1.691,6.155,1.691,6.155a9.534,9.534,0,0,0,3.6,2.743h0a6.924,6.924,0,0,1,1.159.577l-.389.3c-.111-.08-.223-.154-.336-.221h0l0,0-.3-.164h0c-.3-.142-.507-.252-.653-.337h0a7.507,7.507,0,0,0-2.645-.956.947.947,0,0,0-.053-.241l.053.241c.423,1.934-2.721,4.711-4.865,5.746s-1.735-.1-1.385-1.715,2.611-2.983,2.975-3.787-.793-.448-1.956.591-.837,2.746-2.688,4.459-6.237-.879-6.237-.879c1.7-.625,3.595-3.271,3.327-3.819s-3.89,2.293-4.569,2.586S918.7,1107.367,917.579,1104.615Z" transform="translate(-897.488 -1064.177)" fill="#cde0fb"/><path d="M1539.328,508.1c1.64-2.274,5.616.128,5.616.128s1.232,5.526,2.036,5.95-.131-4.93-.131-4.93c1.7.458,5.108,4.034,5.108,4.034s-2.212,5.072-1.328,5.284,1.73-4.591,1.73-4.591a8.4,8.4,0,0,1,2.186,3.475c.714,3.7-4.079,4.429-4.079,4.429a8.993,8.993,0,0,0-.4,4.25h0a6.52,6.52,0,0,1,.118,1.216l-.432-.163q.013-.194.009-.379a0,0,0,0,0,0,0v-.005c0-.078-.011-.189-.021-.324h0s0,0,0,0c-.035-.308-.052-.532-.056-.691h0a7.078,7.078,0,0,0-.557-2.594.9.9,0,0,0,.167-.163l-.167.163c-1.335,1.3-5.128.177-7.027-1.021s-.783-1.44.68-1.965,3.691.6,4.516.488-.038-.858-1.45-1.269-2.615.7-4.91.078-2.414-5.429-2.414-5.429c1.351,1.052,4.413,1.241,4.718.753s-3.779-1.966-4.352-2.363S1537.687,510.371,1539.328,508.1Z" transform="translate(-1490.577 -501.754)" fill="#cde0fb"/><path d="M1855.375,1122.823c4.059-.834,3.227-7.647,3.227-7.647s-6.7-5.005-6.787-6.346,6.566,3.161,6.566,3.161c.409-2.563-2.345-9.328-2.345-9.328s-8.175-.088-7.926-1.408,7.235.447,7.235.447c-.594-2.541-3.361-5.049-3.361-5.049-4.56-3.2-8.438,2.817-8.438,2.817a13.292,13.292,0,0,1-5.968-2.038h0a9.636,9.636,0,0,0-1.568-.895l-.042.68q.268.1.517.218h0l.007,0c.1.053.248.129.425.224h0c.394.233.686.392.9.494h0c1.238.7,2.847,1.7,3.159,2.321a1.316,1.316,0,0,1,.321-.126l-.321.126c-2.567,1.01-3.343,6.805-2.878,10.09s1.467,1.927,3.06.272,1.427-5.338,2.077-6.383,1.133.571.833,2.723-2.529,3.1-3.077,6.572,5.856,6.539,5.856,6.539c-.6-2.458,1-6.7,1.841-6.815s.363,6.283.551,7.3S1851.316,1123.657,1855.375,1122.823Z" transform="translate(-1774.94 -1064)" fill="#cde0fb"/><path d="M1157.344,750.209h-39.371a3.63,3.63,0,0,0-3.63,3.63v19.487a3.63,3.63,0,0,0,3.63,3.63h23.205l6.321,11.689V776.957h9.844a3.63,3.63,0,0,0,3.63-3.63V753.839A3.63,3.63,0,0,0,1157.344,750.209Z" transform="translate(-1085.62 -733.963)" fill="#f99746"/><path d="M2108.021,398.829h23.6a2.278,2.278,0,0,1,2.177,2.08v8.239a2.115,2.115,0,0,1-2.177,2.254h-13.912l-3.79,5.494V411.4h-5.9a1.985,1.985,0,0,1-2.177-1.707V401.33A2.236,2.236,0,0,1,2108.021,398.829Z" transform="translate(-2032.735 -398.313)" fill="#c0d8fb"/><g transform="translate(33.612)"><path d="M1350.284,714.95a3.924,3.924,0,0,1-1.364,1.457h-3.161S1350.745,714.148,1350.284,714.95Z" transform="translate(-1340.288 -700.118)" fill="#233862"/><path d="M1391,844.4a.292.292,0,0,0-.052.313v0a1.945,1.945,0,0,0,.614.673c.037.03.07.057.1.082l.022.02.017.015c.27.249.168.306.653.81.553.575.933.585,1.041.533.092-.045-.094-.35-.3-.692l-.03-.05-.082-.138c-.241-.413-.179-.606-.122-1.22.047-.5.776-2.788.776-2.788l-1.059-.182a6.447,6.447,0,0,1-.67,2.1c-.188.15-.4.151-.579.262l-.037.024A1.4,1.4,0,0,0,1391,844.4Z" transform="translate(-1383.433 -821.436)" fill="#ffb27d"/><path d="M1391,894.875a.292.292,0,0,0-.052.313v0a2.255,2.255,0,0,0,.615.671c.036.03.069.058.1.084l.022.02.017.015c.27.249.168.306.653.81.553.575.933.585,1.041.533.092-.045-.094-.35-.3-.693a2.354,2.354,0,0,1-.985-.726c-.333-.425-.555-.97-.782-1.286l-.037.024A1.4,1.4,0,0,0,1391,894.875Z" transform="translate(-1383.433 -871.907)" fill="#233862"/><path d="M1565.311,836.864c.065.327.531.272,1.052.145s.4.024,1.138-.058.966-.358.988-.468-.346-.132-.739-.178l-.148-.018a3.205,3.205,0,0,1-1.171-.577,4.7,4.7,0,0,1-.951-1.129l-1.016.08s.533.81.74,1.162a1.227,1.227,0,0,1,.1.693A1.3,1.3,0,0,0,1565.311,836.864Z" transform="translate(-1549.203 -814.558)" fill="#ffb27d"/><path d="M1584.107,873.794c.521-.127.4.024,1.138-.058s.966-.358.988-.469-.346-.132-.739-.177l0,.008a2.089,2.089,0,0,1-1.061.33c-.5.012-1.035-.132-1.383-.126a1.3,1.3,0,0,0,.008.348C1583.12,873.976,1583.586,873.921,1584.107,873.794Z" transform="translate(-1566.946 -851.343)" fill="#233862"/><path d="M1422,705.658l-.95,2.556-1.24,3.338a2.009,2.009,0,0,1-.659-.06,2.856,2.856,0,0,1-.637-.31,36.251,36.251,0,0,1,.987-5.641,3.662,3.662,0,0,1,.552-1.2C1421.046,703.167,1422,705.658,1422,705.658Z" transform="translate(-1409.782 -689.85)" fill="#233862"/><path d="M1278.739,638.836a12.979,12.979,0,0,0-4.181.406l-.373-.616-3.852-.3s-1.271,2.818-.575,4.614a.679.679,0,0,0,.7.381h0s2.3.056,3.043.056c1.915,0,4.054-1.317,4.33-1.372.453-.091.634.815,1.087,1.766s4.256,4.211,4.256,4.211a3.348,3.348,0,0,0,.826-.085.813.813,0,0,0,.355-.224S1280.143,639.289,1278.739,638.836Z" transform="translate(-1267.491 -627.088)" fill="#2b478b"/><path d="M1230.136,387.527a1.367,1.367,0,0,0-.741-.191,2.233,2.233,0,0,1-.368-.024c-1.459-.2-2.338,1.925-2.39,2.567-.1,1.185-.722,1.365-1.6,2.107-1.768,1.487-1.25,3.216-.283,3.858a2.141,2.141,0,0,0,1.6,0c.014.01,2.8-1.555,4.169-2.311C1232.579,393.241,1230.962,388.019,1230.136,387.527Z" transform="translate(-1223.851 -387.299)" fill="#233862"/><path d="M1306.859,466.184a1.812,1.812,0,0,1-1.13.035,2.015,2.015,0,0,1-.746-.894c.195-.009.409-.179.573-1.3l.083.03,1.395.5s-.1.448-.166.874C1306.812,465.79,1306.782,466.133,1306.859,466.184Z" transform="translate(-1301.337 -460.592)" fill="#ffb27d"/><path d="M1321.043,465.193s-.1.448-.166.874a1.725,1.725,0,0,1-1.229-1.376Z" transform="translate(-1315.346 -461.226)" fill="#ed975d"/><path d="M1318.268,414.193s-1.909-.256-1.731-1.442.052-2.018,1.278-1.9,1.394.6,1.431,1.012S1318.769,414.229,1318.268,414.193Z" transform="translate(-1312.363 -409.783)" fill="#ffb27d"/><path d="M1307.492,408.971a5.32,5.32,0,0,1-2.053,1.138,1.593,1.593,0,0,1-1.146-.182,3.247,3.247,0,0,0,.785-1.063.584.584,0,0,1,.482-.345C1306.154,408.468,1307.279,408.445,1307.492,408.971Z" transform="translate(-1300.679 -407.546)" fill="#233862"/><path d="M1358.68,412.167a3.006,3.006,0,0,1,.537.688,2.31,2.31,0,0,1,.063,1.228s.637-1.238.276-1.84A.509.509,0,0,0,1358.68,412.167Z" transform="translate(-1352.631 -410.836)" fill="#233862"/><path d="M1273.518,495.711c-.058,3.863-.016,3.056-.439,3.423a1.622,1.622,0,0,1-.765.166,8.836,8.836,0,0,1-3.346-.335,15.269,15.269,0,0,1-.308-2.153c-.024-.123-.053-.257-.088-.4a2.422,2.422,0,0,1,.3-2.347,10,10,0,0,1,1.3-2.066c1.613.958,1.744.153,1.744.153A5.873,5.873,0,0,1,1273.518,495.711Z" transform="translate(-1266.389 -487.308)" fill="#f9ddbf"/><path d="M1421.047,740.47l-1.24,3.338a2.008,2.008,0,0,1-.659-.06,2.853,2.853,0,0,1-.637-.31,36.251,36.251,0,0,1,.987-5.641Z" transform="translate(-1409.782 -722.106)" fill="#2b478b"/><path d="M1347.09,495.421s1.66.281,1.855,1l1.342,4.917s-.844.152-1.234-.238a21.655,21.655,0,0,1-1.357-3.617Z" transform="translate(-1341.559 -490.581)" fill="#f9ddbf"/><path d="M1277.941,567.738a8.83,8.83,0,0,1-3.346-.335,15.176,15.176,0,0,1-.308-2.153l.571-1.609s-.094,1.792.434,2.263,2.163.91,2.42,1.3A1.443,1.443,0,0,1,1277.941,567.738Z" transform="translate(-1272.015 -555.747)" fill="#f2ccaa"/><path d="M1325.6,634.465a4.971,4.971,0,0,1,1.357-.157,2.74,2.74,0,0,1,.707.613c.058.131-.42-.1-.575-.141a1.384,1.384,0,0,0-.5.109,1.649,1.649,0,0,1-.89.089Z" transform="translate(-1321.034 -623.228)" fill="#ffb27d"/><path d="M1227.336,491.995s-1.569.1-2.113.854c-.765,1.066-2.282,5.612-1.412,6.218.979.683,4.456.179,4.456.179a1.413,1.413,0,0,0-.045-.8c-.161-.262-2.777-.684-2.9-.8s1.509-2.354,1.509-2.717S1227.336,491.995,1227.336,491.995Z" transform="translate(-1223.55 -487.308)" fill="#f9ddbf"/><path d="M1357.184,642.1a2.26,2.26,0,0,0,.325.354.238.238,0,0,0,.132.028l-.165-.3Z" transform="translate(-1351.202 -630.69)" fill="#ffb27d"/><path d="M1355.921,634.83l.712.346a.127.127,0,0,1-.118.046,1.7,1.7,0,0,1-.308-.085Z" transform="translate(-1349.995 -623.749)" fill="#ffb27d"/><g transform="translate(4.569 8.031)"><path d="M1364.448,570.909h5.632l1.694-4.213h-5.623Z" transform="translate(-1362.709 -566.696)" fill="#f99746"/><path d="M1333.039,657.137H1325.6v.164h7.371Z" transform="translate(-1325.602 -653.088)" fill="#ed7d2b"/><path d="M1446.819,608.028a.2.2,0,0,0-.191-.268.384.384,0,0,0-.345.268.2.2,0,0,0,.192.268A.384.384,0,0,0,1446.819,608.028Z" transform="translate(-1440.87 -605.922)" fill="#fff"/></g></g><g transform="translate(78.738 18.539)"><path d="M2261.446,1059.313c0-.027.4-.849.271-.913s-.354-.054-.38.09A5.021,5.021,0,0,0,2261.446,1059.313Z" transform="translate(-2260.002 -1046.861)" fill="#ffb27d"/><path d="M2396.441,816.954s2.332-2.8,3.566-1.009a2.581,2.581,0,0,1,1.255,1.95c.34,1.6-.724,2.815-1.274,2.515-.353-.193-.62.425-.62.425Z" transform="translate(-2389.062 -814.723)" fill="#233862"/><path d="M2254.171,1004.542c-1.854-.683-3.639-3.856-3.639-3.856l.585-.409a14.1,14.1,0,0,0,2.678,2.08c.05-.6.122-1.145.212-1.638.608-3.353,2-4.346,2.373-4.557a.819.819,0,0,1,.094-.047s0,.025,0,.071c-.005.1-.017.3-.037.583C2256.288,998.844,2255.721,1005.113,2254.171,1004.542Z" transform="translate(-2249.684 -987.399)" fill="#ffb27d"/><path d="M2470.42,802.367s.314-1.254,2.156-.862c0,0-.882-.111-1.124.229a1.445,1.445,0,0,1,1.136-.052c.438.268.51,1.169.444,1.444s-.549,1.091-.869,1.091a1.472,1.472,0,0,1-.7-.281Z" transform="translate(-2459.729 -801.429)" fill="#233862"/><path d="M2372.186,944.677c-.916-2.054-1.354-2.635-1.37-3.281a8.277,8.277,0,0,1,.729-2.415,5.1,5.1,0,0,0,.244-.977c.387-2.607-1.12-5.425-2.057-5.617-.261-.069-.7-1.01-.7-2.527l-.118.023-1.973.391s.044.621.046,1.206c0,.487-.028.949-.139,1.008l-.226.021a10.292,10.292,0,0,0-1.783,4.409c-.138,2.125,1.318,3.048-.011,7.293C2363.477,948.547,2372.692,945.812,2372.186,944.677Z" transform="translate(-2358.738 -924.111)" fill="#ffb27d"/><path d="M2414.928,930.767s.045.621.046,1.206a2.341,2.341,0,0,0,1.927-1.6Z" transform="translate(-2406.721 -924.604)" fill="#e8945b"/><path d="M2390.594,839.086a5.8,5.8,0,0,0,.717-1.7,1.992,1.992,0,0,0-2.264-2.329,2.827,2.827,0,0,0-1.171.443c-.451.3-1.1.963-.374,2.768l.189.61Z" transform="translate(-2380.21 -833.528)" fill="#233862"/><path d="M2388.131,857.431s2.612.043,2.613-1.584.34-2.717-1.327-2.813-1.992.524-2.125,1.067S2387.451,857.378,2388.131,857.431Z" transform="translate(-2380.292 -850.714)" fill="#ffb27d"/><path d="M2408.851,845.3s.715,1.909,1.813,2.191a2.16,2.16,0,0,0,1.573-.012,3.109,3.109,0,0,1-1.016-1.836S2409.391,844.391,2408.851,845.3Z" transform="translate(-2400.916 -843.02)" fill="#233862"/><path d="M2384.592,849.176a2.306,2.306,0,0,0-.664.84c-.13.414-.189,1.267-.437,1.238,0,0-.539-1.3.066-2.031C2384.2,848.445,2384.592,849.176,2384.592,849.176Z" transform="translate(-2376.48 -846.741)" fill="#233862"/><path d="M2367.308,1292.17a25.817,25.817,0,0,1-1.646,4.618l-.861-.06a24.321,24.321,0,0,0,.4-4.724,19.782,19.782,0,0,0-1-6.283,34.313,34.313,0,0,1-2.161-12.717l4.846.567.226.027c.02,2.226.078,5.248.128,7.611.044,2.125.083,3.717.083,3.717C2368.251,1286.932,2367.913,1289.765,2367.308,1292.17Z" transform="translate(-2356.172 -1251.893)" fill="#163560"/><path d="M2480.229,999.747l-.784.235s-2.586-4.292-2.822-5.408c-.077-.364-.265-1.091-.484-1.906-.454-1.688-1.041-3.754-1.041-3.754l-.193-.836-.658-2.851a8.941,8.941,0,0,1,2,.437.918.918,0,0,1,.5.366,37.68,37.68,0,0,1,1.462,6.342c.212,1.2.373,2.123.458,2.32C2478.9,995.24,2479.614,998.258,2480.229,999.747Z" transform="translate(-2463.384 -976.999)" fill="#ffb27d"/><path d="M2420.505,1269.974a11.92,11.92,0,0,1-1.506,4.9l-.411.3s-.39-2.1-.666-4.588a24.516,24.516,0,0,0-1.029-5.642c-1.616-3.035-2.1-14.492-2.1-14.492l4.914-.244a8.406,8.406,0,0,1,.761,3.743,53.326,53.326,0,0,1-.927,9.746v0a.258.258,0,0,0,.032.165A11.277,11.277,0,0,1,2420.505,1269.974Z" transform="translate(-2406.59 -1230.115)" fill="#1c468a"/><path d="M2410.6,846.169a4.409,4.409,0,0,0,1.894,2.639,4.781,4.781,0,0,1-1.5-2.548C2410.871,844.941,2410.6,846.169,2410.6,846.169Z" transform="translate(-2402.583 -843.669)" fill="#233862"/><path d="M2353.644,1000.619a1.16,1.16,0,0,1-.03.393c-.1.329-.464.479-1.332.389-.531-.055-.767-.944-.873-1.7q-.478,1.628-1.342,1.822c-.841.187-5.086.7-5.364-1.314-.306-2.22.609-6.149.66-8.268a10.493,10.493,0,0,1-.154-1.964,4.015,4.015,0,0,1,.819-2.7,1.167,1.167,0,0,1,.581-.187c.2-.034.472-.073.861-.124a1.444,1.444,0,0,1,.155-.012c-.072.128-1.033,1.584-.958,1.958.078.392,3.488.039,3.723-.176a8.11,8.11,0,0,0,.607-1.866,4.724,4.724,0,0,1,1.8.561l-.007.008a.5.5,0,0,1,.156.163,33.727,33.727,0,0,1,1.7,6.387,3.143,3.143,0,0,1-2.3.337C2352.725,996.815,2353.587,999.486,2353.644,1000.619Z" transform="translate(-2339.58 -978.57)" fill="#f99746"/><path d="M2233.03,1044.815c0-.081.067-1.247-.14-1.492s-.632-.594-.765-.583a1.312,1.312,0,0,0-.5,1.235,4.36,4.36,0,0,0,.819,1.25Z" transform="translate(-2231.597 -1031.937)" fill="#ffb27d"/><g transform="translate(0.144 8.979)"><path d="M.707,0h0a.707.707,0,0,1,.707.707V1.852a.707.707,0,0,1-.707.707h0A.707.707,0,0,1,0,1.851V.707A.707.707,0,0,1,.707,0Z" transform="matrix(0.958, -0.287, 0.287, 0.958, 0.225, 0.406)" fill="#f1a34f"/><path d="M2236.73,1006.914l-1.1.329a.135.135,0,0,1-.167-.09l-.657-2.193a.134.134,0,0,1,.09-.167l1.1-.329a.135.135,0,0,1,.168.09l.657,2.193A.134.134,0,0,1,2236.73,1006.914Z" transform="translate(-2234.803 -1004.347)" fill="#d86713"/></g><path d="M2487.346,1691.82a11.921,11.921,0,0,1-1.506,4.9l-.418.382s-.382-2.177-.658-4.67A4.4,4.4,0,0,0,2487.346,1691.82Z" transform="translate(-2473.431 -1651.961)" fill="#ffb27d"/><path d="M2426.824,1697.6a25.817,25.817,0,0,1-1.646,4.618l-.861-.06a24.33,24.33,0,0,0,.4-4.724A3.919,3.919,0,0,0,2426.824,1697.6Z" transform="translate(-2415.689 -1657.324)" fill="#d9935c"/><g transform="translate(6.115 43.624)"><path d="M2372.055,1777.9h-.55c-.185-.029-.321-.083-.509-.107a.51.51,0,0,0-.446.107l0,.005h-2.336c-.059-.084,0-.278.053-.421a.332.332,0,0,1,.218-.2,2.522,2.522,0,0,0,1.184-.541c.251-.228,1.215-.836,1.215-.836h0c.021,0,.122.031.56.4.227.191.613-.27.613-.27a.554.554,0,0,1,.126.172.582.582,0,0,1,.05.359,2.322,2.322,0,0,0,.167.866c.055.16.1.274.1.274S2372.528,1777.843,2372.055,1777.9Z" transform="translate(-2368.185 -1775.909)" fill="#233862"/><path d="M2429.684,1776.212a1.743,1.743,0,0,1-.592.3c-.248.032-.712-.6-.712-.6h.005c.021,0,.122.031.56.4.226.191.612-.27.612-.27A.551.551,0,0,1,2429.684,1776.212Z" transform="translate(-2425.685 -1775.909)" fill="#466aa5"/><path d="M2372.055,1810.509h-.55c-.185-.029-.321-.082-.509-.107a.51.51,0,0,0-.446.107l0,.005h-2.336c-.059-.084,0-.278.053-.421.071-.063.091.274.13.328a10.434,10.434,0,0,0,2.013-.059,1.127,1.127,0,0,1,.882-.108,2.124,2.124,0,0,0,1.113-.21c.055.16.1.274.1.274S2372.528,1810.45,2372.055,1810.509Z" transform="translate(-2368.185 -1808.516)" fill="#466aa5"/></g><g transform="translate(9.049 43.624)"><path d="M2437.6,1777.9h-.55c-.184-.029-.32-.083-.509-.107a.507.507,0,0,0-.445.107l-.005.005h-2.336c-.059-.084,0-.278.053-.421a.334.334,0,0,1,.219-.2,2.524,2.524,0,0,0,1.184-.541c.251-.228,1.214-.836,1.214-.836h0c.021,0,.122.031.56.4.227.191.612-.27.612-.27a.547.547,0,0,1,.127.172.579.579,0,0,1,.049.359,2.339,2.339,0,0,0,.168.866c.054.16.1.274.1.274S2438.076,1777.843,2437.6,1777.9Z" transform="translate(-2433.732 -1775.909)" fill="#233862"/><path d="M2495.232,1776.212a1.741,1.741,0,0,1-.592.3c-.249.032-.712-.6-.712-.6h0c.021,0,.122.031.56.4.227.191.613-.27.613-.27A.554.554,0,0,1,2495.232,1776.212Z" transform="translate(-2491.233 -1775.909)" fill="#466aa5"/><path d="M2437.6,1810.509h-.55c-.184-.029-.32-.082-.509-.107a.507.507,0,0,0-.445.107l-.005.005h-2.336c-.059-.084,0-.278.053-.421.071-.063.091.274.131.328a10.436,10.436,0,0,0,2.013-.059,1.126,1.126,0,0,1,.882-.108,2.126,2.126,0,0,0,1.113-.21c.054.16.1.274.1.274S2438.076,1810.45,2437.6,1810.509Z" transform="translate(-2433.732 -1808.516)" fill="#466aa5"/></g><path d="M2474.7,1109.827a5.117,5.117,0,0,1-2.23-1.874,5.622,5.622,0,0,1,.09-6.755c.292-.067.841,2.338.841,2.338C2473.785,1106.023,2474.647,1108.694,2474.7,1109.827Z" transform="translate(-2460.64 -1087.778)" fill="#ef7e29"/><path d="M2332.553,994.413s-1.629.82-2.172,4.128a2.814,2.814,0,0,0,1.285.947,1.514,1.514,0,0,0,.335.057C2332.923,999.594,2332.553,994.413,2332.553,994.413Z" transform="translate(-2325.959 -985.774)" fill="#f99746"/><path d="M2240.588,1029.1s.5-.775.626-.732c.176.062-.457,1.044-.457,1.044s.469-.734.542-.679c.167.126-.1.587-.362.941,0,0,.471-.432.486-.354.054.272-.517.932-.517.932l-.319-.729Z" transform="translate(-2240.185 -1018.207)" fill="#ffb27d"/><path d="M2232.152,1022.813c.024-.095.147-1.945.2-1.769s.178,1.145.178,1.145Z" transform="translate(-2232.127 -1011.201)" fill="#ffb27d"/><path d="M2398.661,927.284s-.045.192-.522.162c0,0-.4-.025-.388-.235A1.288,1.288,0,0,1,2398.661,927.284Z" transform="translate(-2390.312 -921.533)" fill="#fff"/><path d="M2591.141,1309.589a5.717,5.717,0,0,1,1.09.894c.145.265.482,1.241.482,1.241s-.241.036-.482-.386-1.036-.385-1.3-.615a3.589,3.589,0,0,1-.573-.9Z" transform="translate(-2574.296 -1286.841)" fill="#ffb27d"/><path d="M2592.654,1319.477a3.143,3.143,0,0,0,.35.958c.193.217.458.578.566.482s-.121-.9-.121-.9Z" transform="translate(-2576.491 -1296.286)" fill="#ffb27d"/><path d="M2629.273,1331.442c.024.036.856.92.856.92s-.3.136-.386,0S2629.273,1331.442,2629.273,1331.442Z" transform="translate(-2611.47 -1307.715)" fill="#ffb27d"/></g><g transform="translate(34.117 26.8)"><path d="M1241.033,996.169h-1.352V992.7h-3.493v3.472h-1.358v-7.812h1.358v3.251h3.493v-3.251h1.352Z" transform="translate(-1234.83 -988.25)" fill="#fff"/><path d="M1438.339,992.682h-3.209v2.4h3.751v1.084h-5.108v-7.812h5.071v1.094h-3.713v2.157h3.209Z" transform="translate(-1424.867 -988.25)" fill="#fff"/><path d="M1598.476,995.086h3.547v1.084h-4.9v-7.812h1.357Z" transform="translate(-1580.9 -988.25)" fill="#fff"/><path d="M1755.828,995.086h3.547v1.084h-4.9v-7.812h1.358Z" transform="translate(-1731.208 -988.25)" fill="#fff"/><path d="M1905.118,990.176a5.073,5.073,0,0,1-.234,1.6,3.473,3.473,0,0,1-.657,1.2,2.85,2.85,0,0,1-1.02.754,3.431,3.431,0,0,1-2.635,0,2.93,2.93,0,0,1-1.027-.754,3.472,3.472,0,0,1-.671-1.2,4.972,4.972,0,0,1-.239-1.6v-.4a5,5,0,0,1,.239-1.6,3.552,3.552,0,0,1,.666-1.2,2.862,2.862,0,0,1,1.022-.756,3.217,3.217,0,0,1,1.315-.263,3.252,3.252,0,0,1,1.323.263,2.861,2.861,0,0,1,1.025.756,3.481,3.481,0,0,1,.66,1.2,5.1,5.1,0,0,1,.234,1.6Zm-1.357-.408a4.771,4.771,0,0,0-.126-1.156,2.461,2.461,0,0,0-.368-.84,1.594,1.594,0,0,0-.593-.512,1.771,1.771,0,0,0-.8-.174,1.729,1.729,0,0,0-.783.174,1.622,1.622,0,0,0-.593.512,2.5,2.5,0,0,0-.375.84,4.57,4.57,0,0,0-.132,1.156v.408a4.6,4.6,0,0,0,.132,1.159,2.505,2.505,0,0,0,.378.845,1.624,1.624,0,0,0,.6.515,1.744,1.744,0,0,0,.786.174,1.6,1.6,0,0,0,1.387-.687,3.462,3.462,0,0,0,.486-2.007Z" transform="translate(-1868.92 -985.959)" fill="#fff"/></g><g transform="translate(32.363 48.472)"><g transform="translate(0 0)"><rect width="16.849" height="7.474" rx="3.737" transform="translate(0 1.854)" fill="#fff"/><path d="M1564.132,1472.472l3.589-2.384-3.589,7.5Z" transform="translate(-1547.637 -1470.088)" fill="#fff"/></g><g transform="translate(2.619 3.75)"><path d="M1256.612,1560.758h-.536v-1.375h-1.384v1.375h-.538v-3.095h.538v1.288h1.384v-1.288h.536Z" transform="translate(-1254.155 -1557.493)" fill="#ffa561"/><path d="M1331.66,1576.813a.436.436,0,0,1-.035-.1q-.014-.055-.024-.119a.913.913,0,0,1-.114.1.767.767,0,0,1-.138.082.827.827,0,0,1-.352.075.928.928,0,0,1-.317-.052.74.74,0,0,1-.248-.145.673.673,0,0,1-.161-.218.636.636,0,0,1-.058-.272.729.729,0,0,1,.07-.327.63.63,0,0,1,.2-.238.975.975,0,0,1,.328-.146,1.786,1.786,0,0,1,.443-.05h.325v-.151a.4.4,0,0,0-.1-.286.4.4,0,0,0-.3-.107.531.531,0,0,0-.166.024.4.4,0,0,0-.126.066.292.292,0,0,0-.081.1.274.274,0,0,0-.029.123h-.517a.554.554,0,0,1,.067-.262.724.724,0,0,1,.19-.225.969.969,0,0,1,.3-.158,1.313,1.313,0,0,1,.749-.01.8.8,0,0,1,.283.149.669.669,0,0,1,.185.246.842.842,0,0,1,.066.346v1.021a1.176,1.176,0,0,0,.087.5v.036Zm-.568-.372a.578.578,0,0,0,.167-.023.589.589,0,0,0,.14-.062.51.51,0,0,0,.109-.088.476.476,0,0,0,.074-.1v-.433h-.278a.761.761,0,0,0-.432.1.323.323,0,0,0-.144.283.352.352,0,0,0,.023.13.278.278,0,0,0,.07.1.326.326,0,0,0,.114.068A.455.455,0,0,0,1331.092,1576.442Z" transform="translate(-1326.807 -1573.549)" fill="#ffa561"/><path d="M1395.437,1557.13h-.516v-3.265h.516Z" transform="translate(-1388.619 -1553.865)" fill="#ffa561"/><path d="M1429.995,1557.13h-.517v-3.265h.517Z" transform="translate(-1421.63 -1553.865)" fill="#ffa561"/><path d="M1461.139,1575.642a1.422,1.422,0,0,1,.073-.464,1.1,1.1,0,0,1,.211-.371.961.961,0,0,1,.335-.246,1.08,1.08,0,0,1,.448-.089,1.1,1.1,0,0,1,.453.089.956.956,0,0,1,.337.246,1.093,1.093,0,0,1,.21.371,1.442,1.442,0,0,1,.072.464v.045a1.452,1.452,0,0,1-.072.465,1.082,1.082,0,0,1-.21.371.954.954,0,0,1-.336.244,1.193,1.193,0,0,1-.9,0,.954.954,0,0,1-.336-.244,1.09,1.09,0,0,1-.211-.371,1.433,1.433,0,0,1-.073-.465Zm.517.045a1.3,1.3,0,0,0,.032.293.73.73,0,0,0,.1.241.524.524,0,0,0,.671.163.489.489,0,0,0,.172-.163.768.768,0,0,0,.1-.241,1.262,1.262,0,0,0,.033-.293v-.045a1.24,1.24,0,0,0-.033-.29.762.762,0,0,0-.1-.24.519.519,0,0,0-.173-.165.484.484,0,0,0-.25-.062.473.473,0,0,0-.248.062.526.526,0,0,0-.171.165.731.731,0,0,0-.1.24,1.274,1.274,0,0,0-.032.29Z" transform="translate(-1451.873 -1573.549)" fill="#ffa561"/></g></g><g transform="translate(77.033 5.132)"><path d="M2193.5,505.728v-2.892h.991a1.741,1.741,0,0,1,.421.047.885.885,0,0,1,.316.142.621.621,0,0,1,.2.243.828.828,0,0,1,.069.351.621.621,0,0,1-.108.358.2.2,0,1,0-.1.345.608.608,0,0,1,.153.152.643.643,0,0,1,.09.193.783.783,0,0,1,.03.219.906.906,0,0,1-.069.366.688.688,0,0,1-.2.264.878.878,0,0,1-.315.16,1.518,1.518,0,0,1-.421.054Zm.5-1.674h.493a.572.572,0,0,0,.367-.106.364.364,0,0,0,.132-.3.37.37,0,0,0-.122-.31.617.617,0,0,0-.38-.1H2194Zm0,.369v.9h.558a.679.679,0,0,0,.218-.032.435.435,0,0,0,.158-.09.37.37,0,0,0,.1-.14.492.492,0,0,0,.032-.181.417.417,0,0,0-.481-.461Z" transform="translate(-2193.5 -502.796)" fill="#2b478b"/><path d="M2260.277,503.509a1.877,1.877,0,0,1-.086.591,1.286,1.286,0,0,1-.244.443,1.054,1.054,0,0,1-.377.279,1.27,1.27,0,0,1-.975,0,1.084,1.084,0,0,1-.381-.279,1.286,1.286,0,0,1-.249-.443,1.841,1.841,0,0,1-.088-.591v-.147a1.851,1.851,0,0,1,.088-.592,1.321,1.321,0,0,1,.246-.445,1.061,1.061,0,0,1,.379-.28,1.19,1.19,0,0,1,.487-.1,1.2,1.2,0,0,1,.49.1,1.063,1.063,0,0,1,.38.28,1.293,1.293,0,0,1,.244.445,1.887,1.887,0,0,1,.086.592Zm-.5-.151a1.783,1.783,0,0,0-.047-.428.922.922,0,0,0-.136-.311.588.588,0,0,0-.219-.19.655.655,0,0,0-.295-.065.641.641,0,0,0-.29.065.6.6,0,0,0-.219.19.923.923,0,0,0-.139.311,1.694,1.694,0,0,0-.049.428v.151a1.707,1.707,0,0,0,.049.429.925.925,0,0,0,.14.313.6.6,0,0,0,.222.191.646.646,0,0,0,.291.065.59.59,0,0,0,.513-.254,1.281,1.281,0,0,0,.18-.743Z" transform="translate(-2254.995 -501.948)" fill="#2b478b"/><path d="M2334.044,505.728h-.5l-1.289-2.052v2.052h-.5v-2.892h.5l1.293,2.06v-2.06h.5Z" transform="translate(-2325.561 -502.796)" fill="#2b478b"/><path d="M2402.175,502.836h.5v2.028a.985.985,0,0,1-.071.383.788.788,0,0,1-.2.284.854.854,0,0,1-.3.176,1.136,1.136,0,0,1-.377.061,1.332,1.332,0,0,1-.381-.052.81.81,0,0,1-.3-.159.733.733,0,0,1-.2-.27.958.958,0,0,1-.071-.383h.5a.613.613,0,0,0,.033.214.349.349,0,0,0,.231.223.6.6,0,0,0,.181.026.476.476,0,0,0,.179-.033.38.38,0,0,0,.14-.1.445.445,0,0,0,.092-.157.657.657,0,0,0,.033-.217Z" transform="translate(-2391.507 -502.796)" fill="#2b478b"/><path d="M2465.256,503.509a1.877,1.877,0,0,1-.086.591,1.289,1.289,0,0,1-.243.443,1.061,1.061,0,0,1-.377.279,1.271,1.271,0,0,1-.975,0,1.087,1.087,0,0,1-.381-.279,1.277,1.277,0,0,1-.248-.443,1.821,1.821,0,0,1-.089-.591v-.147a1.83,1.83,0,0,1,.089-.592,1.308,1.308,0,0,1,.246-.445,1.062,1.062,0,0,1,.378-.28,1.272,1.272,0,0,1,.977,0,1.057,1.057,0,0,1,.38.28,1.281,1.281,0,0,1,.245.445,1.887,1.887,0,0,1,.086.592Zm-.5-.151a1.771,1.771,0,0,0-.046-.428.922.922,0,0,0-.136-.311.591.591,0,0,0-.219-.19.655.655,0,0,0-.295-.065.641.641,0,0,0-.29.065.6.6,0,0,0-.219.19.914.914,0,0,0-.139.311,1.694,1.694,0,0,0-.049.428v.151a1.707,1.707,0,0,0,.049.429.921.921,0,0,0,.14.313.6.6,0,0,0,.222.191.645.645,0,0,0,.291.065.59.59,0,0,0,.514-.254,1.283,1.283,0,0,0,.18-.743Z" transform="translate(-2450.798 -501.948)" fill="#2b478b"/><path d="M2537.87,502.836v1.935a1.054,1.054,0,0,1-.084.435.884.884,0,0,1-.231.312.981.981,0,0,1-.344.188,1.383,1.383,0,0,1-.421.063,1.422,1.422,0,0,1-.43-.062.96.96,0,0,1-.343-.188.858.858,0,0,1-.227-.312,1.083,1.083,0,0,1-.081-.435v-1.935h.5v1.935a.78.78,0,0,0,.041.267.486.486,0,0,0,.116.186.464.464,0,0,0,.183.108.78.78,0,0,0,.24.035.788.788,0,0,0,.241-.035.451.451,0,0,0,.183-.108.493.493,0,0,0,.115-.186.774.774,0,0,0,.041-.267v-1.935Z" transform="translate(-2520.39 -502.796)" fill="#2b478b"/><path d="M2606.119,504.614h-.56v1.114h-.5v-2.892h1.017a1.587,1.587,0,0,1,.443.057.908.908,0,0,1,.329.167.7.7,0,0,1,.2.273.954.954,0,0,1,.07.377.812.812,0,0,1-.14.486.889.889,0,0,1-.39.3l.65,1.206v.026h-.539Zm-.56-.4h.516a.712.712,0,0,0,.237-.036.472.472,0,0,0,.169-.1.408.408,0,0,0,.1-.151.531.531,0,0,0,.034-.193.6.6,0,0,0-.032-.2.393.393,0,0,0-.1-.155.432.432,0,0,0-.167-.1.767.767,0,0,0-.245-.035h-.514Z" transform="translate(-2586.633 -502.796)" fill="#2b478b"/></g><g transform="translate(94.667 19.501)"><g transform="translate(0 0)"><path d="M2593.606,829.706a3.814,3.814,0,1,1,.608-5.359A3.818,3.818,0,0,1,2593.606,829.706Zm-4.4-5.524a3.246,3.246,0,1,0,4.562.518A3.25,3.25,0,0,0,2589.209,824.182Z" transform="translate(-2587.418 -822.91)" fill="#c0d8fb"/></g><g transform="translate(5.743 6.324)"><path d="M2720.195,969.732a.337.337,0,0,1-.473-.054l-3.949-4.961a.337.337,0,1,1,.527-.42l3.948,4.961A.337.337,0,0,1,2720.195,969.732Z" transform="translate(-2715.699 -964.171)" fill="#c0d8fb"/></g></g><g transform="translate(38.903 44.545)"><g transform="translate(2.872 0)"><rect width="1.184" height="2.115" transform="translate(0.685 1.808)" fill="#ffa561"/><path d="M1405.9,1384.175h2.473l-1.2-1.808Z" transform="translate(-1405.9 -1382.367)" fill="#ffa561"/></g><g transform="translate(0 0)"><rect width="1.184" height="2.115" transform="translate(1.788 2.115) rotate(180)" fill="#fff"/><path d="M1344.223,1429.607h-2.473l1.2,1.808Z" transform="translate(-1341.75 -1427.492)" fill="#fff"/></g></g><g transform="translate(65.065 4.583)"><g transform="translate(0 2.339)"><rect width="0.964" height="1.722" transform="translate(1.722 0.558) rotate(90)" fill="#ffa561"/><path d="M1964.639,541.918v2.014l1.472-.974Z" transform="translate(-1962.917 -541.918)" fill="#ffa561"/></g><g transform="translate(0)"><rect width="0.964" height="1.722" transform="translate(1.472 1.456) rotate(-90)" fill="#cde0fb"/><path d="M1927.642,491.693v-2.014l-1.472.974Z" transform="translate(-1926.17 -489.679)" fill="#cde0fb"/></g></g></g></svg>