<svg xmlns="http://www.w3.org/2000/svg" width="57.74" height="62.4" viewBox="0 0 57.74 62.4"><g transform="translate(0 0)"><g transform="translate(11.736 2.296)"><path d="M815.035,276.026" transform="translate(-815.035 -276.026)" fill="none" stroke="#fbfbfb" stroke-miterlimit="10" stroke-width="0.25"/></g><g transform="translate(12.094 0)"><path d="M819.516,259.5a2.409,2.409,0,0,1-.249.361c-.162.217-.392.512-.655.83s-.508.6-.69.8a2.4,2.4,0,0,1-.307.313,2.622,2.622,0,0,1,.266-.348l.672-.815.671-.815A2.61,2.61,0,0,1,819.516,259.5Z" transform="translate(-817.615 -259.499)" fill="#e0e0e0"/></g><g transform="translate(12.275 17.983)"><g transform="translate(0.001 0)"><path d="M818.919,388.921a12.986,12.986,0,0,0,1.829,2.287" transform="translate(-818.919 -388.921)" fill="#fff"/></g><path d="M820.744,391.207a2.086,2.086,0,0,1-.319-.29,10.24,10.24,0,0,1-1.3-1.622,2.081,2.081,0,0,1-.213-.375,2.885,2.885,0,0,1,.257.345c.154.216.37.511.622.827s.493.591.67.789A2.862,2.862,0,0,1,820.744,391.207Z" transform="translate(-818.915 -388.92)" fill="#e0e0e0"/></g><g transform="translate(0 17.954)"><g transform="translate(0 0)"><path d="M730.578,390.964l1.828-2.255" transform="translate(-730.578 -388.709)" fill="#fff"/></g><path d="M732.4,388.707a27.806,27.806,0,0,1-1.828,2.255,27.771,27.771,0,0,1,1.828-2.255Z" transform="translate(-730.575 -388.707)" fill="#e0e0e0"/></g><g transform="translate(0.002)"><path d="M730.59,259.5a25.152,25.152,0,0,1,1.715,2.168,25.2,25.2,0,0,1-1.715-2.168Z" transform="translate(-730.589 -259.499)" fill="#e0e0e0"/></g></g><g transform="translate(20.644 1.861)"><g transform="translate(0 0)"><g opacity="0.19"><g transform="translate(0.036 0.036)"><rect width="37.028" height="37.028" fill="#e8505b"/></g><path d="M916.21,309.955c0-.267-.012-14.826-.031-37.028l.031.031-37.024,0h0l.036-.036c0,13.559,0,26.266,0,37.028l-.031-.031,37.028.031-37.028.031h-.031v-.031c0-10.762,0-23.469,0-37.028v-.036h.04l37.024,0h.031v.031C916.223,295.13,916.211,309.688,916.21,309.955Z" transform="translate(-879.146 -272.891)" fill="#e8505b"/></g><g transform="translate(9.606 3.575)"><g transform="translate(0 0.206)"><path d="M949.694,301.063h.406v.779a1.325,1.325,0,0,1-.776.244.995.995,0,1,1,.008-1.986,1.024,1.024,0,0,1,.8.332l-.285.263a.651.651,0,0,0-.5-.217.615.615,0,1,0-.005,1.229.706.706,0,0,0,.346-.082Z" transform="translate(-948.275 -300.1)" fill="#e8505b"/></g><g transform="translate(2.096 0.661)"><path d="M964.9,304.259h-1.117a.394.394,0,0,0,.423.3.5.5,0,0,0,.37-.143l.228.247a.862.862,0,0,1-1.451-.521.752.752,0,0,1,.788-.76.731.731,0,0,1,.768.766C964.913,304.176,964.907,304.223,964.9,304.259Zm-1.122-.25h.727a.369.369,0,0,0-.727,0Z" transform="translate(-963.357 -303.378)" fill="#e8505b"/></g><g transform="translate(3.761 0.357)"><path d="M976.467,302.918a.612.612,0,0,1-.348.093.487.487,0,0,1-.552-.53v-.606h-.228v-.329h.228v-.359h.428v.359h.368v.329h-.368v.6a.172.172,0,0,0,.184.195.287.287,0,0,0,.173-.055Z" transform="translate(-975.339 -301.187)" fill="#e8505b"/></g><g transform="translate(5.854)"><path d="M990.4,298.859a.244.244,0,0,1,.266-.239.24.24,0,0,1,.266.23.267.267,0,0,1-.532.008Zm.052.444h.428v1.476h-.428Z" transform="translate(-990.402 -298.62)" fill="#e8505b"/></g><g transform="translate(6.731 0.661)"><path d="M998.227,304.031v.845H997.8V304.1c0-.239-.11-.348-.3-.348-.206,0-.354.126-.354.4v.73h-.428V303.4h.409v.173a.646.646,0,0,1,.488-.195A.579.579,0,0,1,998.227,304.031Z" transform="translate(-996.718 -303.378)" fill="#e8505b"/></g><g transform="translate(9.227 0.357)"><path d="M1015.81,302.918a.612.612,0,0,1-.348.093.487.487,0,0,1-.552-.53v-.606h-.228v-.329h.228v-.359h.428v.359h.367v.329h-.367v.6a.172.172,0,0,0,.184.195.287.287,0,0,0,.173-.055Z" transform="translate(-1014.682 -301.187)" fill="#e8505b"/></g><g transform="translate(10.44 0.661)"><path d="M1023.408,304.138a.812.812,0,1,1,.812.76A.76.76,0,0,1,1023.408,304.138Zm1.188,0a.378.378,0,1,0-.376.409A.372.372,0,0,0,1024.6,304.138Z" transform="translate(-1023.408 -303.378)" fill="#e8505b"/></g><g transform="translate(12.338 0.683)"><path d="M1038.563,303.536v1.476h-.406v-.176a.6.6,0,0,1-.458.2.588.588,0,0,1-.631-.664v-.834h.428v.771c0,.247.11.357.3.357s.34-.126.34-.4v-.73Z" transform="translate(-1037.068 -303.536)" fill="#e8505b"/></g><g transform="translate(14.121 0.661)"><path d="M1049.9,304.138a.763.763,0,0,1,.823-.76.678.678,0,0,1,.661.376l-.332.178a.368.368,0,0,0-.332-.2.409.409,0,0,0,0,.818.363.363,0,0,0,.332-.2l.332.181a.685.685,0,0,1-.661.373A.763.763,0,0,1,1049.9,304.138Z" transform="translate(-1049.9 -303.378)" fill="#e8505b"/></g><g transform="translate(15.841 0.123)"><path d="M1063.786,300.7v.845h-.428v-.779c0-.239-.11-.348-.3-.348-.206,0-.354.126-.354.4v.73h-.428v-2.036h.428v.713a.649.649,0,0,1,.469-.176A.579.579,0,0,1,1063.786,300.7Z" transform="translate(-1062.277 -299.508)" fill="#e8505b"/></g></g><g transform="translate(8.147 7.197)"><path d="M958.009,324.723c0,.02-4.529.036-10.114.036s-10.115-.016-10.115-.036,4.528-.036,10.115-.036S958.009,324.7,958.009,324.723Z" transform="translate(-937.779 -324.687)" fill="#263238"/></g><g transform="translate(4.81 10.041)"><g transform="translate(0 1.441)"><path d="M940.6,357.66s0-.047,0-.137,0-.225,0-.4c0-.353,0-.875-.008-1.557l.013.013-26.8.023h0l.036-.036c0,.718,0,1.429,0,2.1l-.036-.036,19.013.015,5.7.011,1.546,0,.4,0,.139,0-.134,0-.4,0-1.537.005-5.692.011-19.04.015h-.036v-2.167h.037l26.8.023h.013v.013c0,.685-.006,1.209-.008,1.565q0,.262,0,.4C940.6,357.617,940.6,357.66,940.6,357.66Z" transform="translate(-913.759 -355.529)" fill="#263238"/></g><g transform="translate(0.108)"><path d="M915.1,345.156v.609h-.115l-.3-.369v.369h-.139v-.609h.117l.3.37v-.37Z" transform="translate(-914.539 -345.156)" fill="#263238"/><g transform="translate(0.662 0.134)"><path d="M919.748,346.328v.267h-.127v-.058a.153.153,0,0,1-.143.065c-.109,0-.175-.061-.175-.142s.058-.14.2-.14h.108c0-.058-.035-.092-.108-.092a.225.225,0,0,0-.135.043l-.049-.095a.359.359,0,0,1,.2-.057C919.666,346.12,919.748,346.186,919.748,346.328Zm-.136.119V346.4h-.093c-.063,0-.083.023-.083.055s.029.057.076.057A.1.1,0,0,0,919.613,346.447Z" transform="translate(-919.304 -346.12)" fill="#263238"/></g><g transform="translate(1.229 0.134)"><path d="M924.171,346.327v.268h-.136v-.247c0-.076-.034-.11-.089-.11s-.1.039-.1.123v.235h-.136v-.247c0-.076-.032-.11-.089-.11s-.1.039-.1.123v.235h-.136v-.468h.129v.054a.19.19,0,0,1,.147-.061.174.174,0,0,1,.154.077.21.21,0,0,1,.168-.077A.181.181,0,0,1,924.171,346.327Z" transform="translate(-923.381 -346.12)" fill="#263238"/></g><g transform="translate(2.11 0.134)"><path d="M930.217,346.4h-.354a.124.124,0,0,0,.134.094.159.159,0,0,0,.117-.045l.072.078a.273.273,0,0,1-.46-.165.238.238,0,0,1,.25-.241.232.232,0,0,1,.244.242C930.22,346.373,930.218,346.388,930.217,346.4Zm-.356-.079h.23a.117.117,0,0,0-.23,0Z" transform="translate(-929.727 -346.12)" fill="#263238"/></g></g><g transform="translate(0 6.672)"><path d="M940.6,395.3s0-.047,0-.137,0-.225,0-.4c0-.353,0-.875-.008-1.557l.013.013-26.8.023h0l.036-.036c0,.718,0,1.429,0,2.1l-.036-.036,19.013.015,5.7.011,1.546.005.4,0,.139,0-.134,0-.4,0-1.537.005-5.692.011-19.04.015h-.036V393.17h.037l26.8.023h.013v.013c0,.685-.006,1.21-.008,1.565q0,.262,0,.4C940.6,395.258,940.6,395.3,940.6,395.3Z" transform="translate(-913.759 -393.17)" fill="#263238"/></g><g transform="translate(0 11.042)"><path d="M940.6,432.892s0-.049,0-.143,0-.235,0-.418c0-.369,0-.912-.005-1.618,0-1.41-.007-3.466-.013-6.056l.023.023-26.8.013h0l.036-.036c0,2.851,0,5.622,0,8.235l-.035-.035,19.162.016,5.608.01,1.506,0,.391,0,.134,0-.13,0-.386,0-1.5,0-5.6.01-19.187.016h-.035v-.035c0-2.614,0-5.385,0-8.235v-.036h.038l26.8.013h.023v.023c-.005,2.6-.01,4.657-.013,6.07,0,.7,0,1.245-.006,1.612q0,.272,0,.414C940.6,432.846,940.6,432.892,940.6,432.892Z" transform="translate(-913.759 -424.62)" fill="#263238"/></g><g transform="translate(0.108 5.155)"><g transform="translate(0 0.076)"><path d="M915.01,383.292v.113h-.471V382.8H915v.113h-.32v.132h.283v.109h-.283v.141Z" transform="translate(-914.539 -382.797)" fill="#263238"/></g><g transform="translate(0.573 0.209)"><path d="M919.456,383.967v.268h-.136v-.247c0-.076-.034-.11-.089-.11s-.1.039-.1.123v.235h-.136v-.247c0-.076-.032-.11-.089-.11s-.1.039-.1.123v.235h-.136v-.468h.13v.054a.189.189,0,0,1,.147-.061.175.175,0,0,1,.154.077.21.21,0,0,1,.169-.077A.181.181,0,0,1,919.456,383.967Z" transform="translate(-918.666 -383.76)" fill="#263238"/></g><g transform="translate(1.455 0.209)"><path d="M925.451,383.968v.267h-.127v-.058a.153.153,0,0,1-.143.065c-.109,0-.175-.061-.175-.142s.058-.14.2-.14h.108c0-.058-.035-.092-.108-.092a.225.225,0,0,0-.135.044l-.049-.095a.358.358,0,0,1,.2-.057C925.369,383.76,925.451,383.826,925.451,383.968Zm-.136.119v-.048h-.093c-.064,0-.084.023-.084.055s.029.057.076.057A.1.1,0,0,0,925.316,384.087Z" transform="translate(-925.007 -383.76)" fill="#263238"/></g><g transform="translate(2.005)"><path d="M928.965,382.329a.077.077,0,0,1,.084-.076.076.076,0,0,1,.084.073.085.085,0,0,1-.169,0Zm.016.141h.135v.468h-.135Z" transform="translate(-928.965 -382.253)" fill="#263238"/></g><g transform="translate(2.283 0.039)"><path d="M930.966,382.534h.136v.645h-.136Z" transform="translate(-930.966 -382.534)" fill="#263238"/></g><g transform="translate(2.759 0.209)"><path d="M934.842,383.968v.267h-.127v-.058a.154.154,0,0,1-.143.065c-.109,0-.175-.061-.175-.142s.058-.14.2-.14h.108c0-.058-.035-.092-.108-.092a.225.225,0,0,0-.135.044l-.049-.095a.36.36,0,0,1,.2-.057C934.76,383.76,934.842,383.826,934.842,383.968Zm-.136.119v-.048h-.093c-.063,0-.083.023-.083.055s.029.057.076.057A.1.1,0,0,0,934.707,384.087Z" transform="translate(-934.398 -383.76)" fill="#263238"/></g><g transform="translate(3.298 0.039)"><path d="M938.785,382.534v.645h-.13v-.054a.18.18,0,0,1-.146.061.241.241,0,0,1,0-.482.179.179,0,0,1,.14.057v-.227Zm-.133.411a.12.12,0,1,0-.119.129A.119.119,0,0,0,938.652,382.945Z" transform="translate(-938.275 -382.534)" fill="#263238"/></g><g transform="translate(3.9 0.039)"><path d="M943.113,382.534v.645h-.13v-.054a.18.18,0,0,1-.146.061.241.241,0,0,1,0-.482.179.179,0,0,1,.14.057v-.227Zm-.133.411a.12.12,0,1,0-.119.129A.118.118,0,0,0,942.979,382.945Z" transform="translate(-942.603 -382.534)" fill="#263238"/></g><g transform="translate(4.534 0.209)"><path d="M947.458,383.76v.125l-.03,0a.115.115,0,0,0-.124.13v.221h-.136v-.468h.13v.062A.189.189,0,0,1,947.458,383.76Z" transform="translate(-947.167 -383.76)" fill="#263238"/></g><g transform="translate(4.866 0.209)"><path d="M950.046,384.039h-.354a.125.125,0,0,0,.134.094.159.159,0,0,0,.117-.045l.072.078a.246.246,0,0,1-.193.076.243.243,0,0,1-.267-.241.238.238,0,0,1,.249-.241.232.232,0,0,1,.243.243C950.049,384.013,950.047,384.028,950.046,384.039Zm-.355-.079h.23a.117.117,0,0,0-.23,0Z" transform="translate(-949.556 -383.76)" fill="#263238"/></g><g transform="translate(5.404 0.209)"><path d="M953.427,384.191l.045-.1a.318.318,0,0,0,.163.045c.063,0,.086-.017.086-.043,0-.076-.283,0-.283-.185,0-.089.08-.151.217-.151a.385.385,0,0,1,.18.041l-.045.1a.269.269,0,0,0-.135-.035c-.061,0-.087.019-.087.043,0,.08.282,0,.282.187,0,.087-.081.149-.221.149A.4.4,0,0,1,953.427,384.191Z" transform="translate(-953.427 -383.76)" fill="#263238"/></g><g transform="translate(5.865 0.209)"><path d="M956.747,384.191l.045-.1a.319.319,0,0,0,.163.045c.063,0,.086-.017.086-.043,0-.076-.282,0-.282-.185,0-.089.08-.151.216-.151a.383.383,0,0,1,.18.041l-.045.1a.268.268,0,0,0-.135-.035c-.061,0-.087.019-.087.043,0,.08.283,0,.283.187,0,.087-.081.149-.221.149A.4.4,0,0,1,956.747,384.191Z" transform="translate(-956.747 -383.76)" fill="#263238"/></g></g><g transform="translate(0.108 9.779)"><path d="M915.093,416.138v-.365l-.179.3h-.063l-.178-.293v.357h-.132v-.609h.117l.228.378.224-.378h.116l0,.609Z" transform="translate(-914.539 -415.53)" fill="#263238"/><g transform="translate(0.785 0.134)"><path d="M920.682,416.772h-.354a.125.125,0,0,0,.134.094.158.158,0,0,0,.117-.045l.072.078a.273.273,0,0,1-.46-.165.238.238,0,0,1,.25-.241.232.232,0,0,1,.243.243C920.685,416.746,920.683,416.761,920.682,416.772Zm-.355-.079h.23a.117.117,0,0,0-.23,0Z" transform="translate(-920.192 -416.493)" fill="#263238"/></g><g transform="translate(1.323 0.134)"><path d="M924.062,416.924l.045-.1a.32.32,0,0,0,.163.045c.063,0,.086-.017.086-.043,0-.077-.283,0-.283-.185,0-.089.08-.151.217-.151a.385.385,0,0,1,.18.041l-.045.1a.268.268,0,0,0-.135-.035c-.061,0-.087.019-.087.043,0,.08.282,0,.282.187,0,.087-.081.149-.221.149A.4.4,0,0,1,924.062,416.924Z" transform="translate(-924.062 -416.493)" fill="#263238"/></g><g transform="translate(1.785 0.134)"><path d="M927.383,416.924l.045-.1a.321.321,0,0,0,.163.045c.063,0,.086-.017.086-.043,0-.077-.282,0-.282-.185,0-.089.08-.151.217-.151a.385.385,0,0,1,.18.041l-.045.1a.269.269,0,0,0-.135-.035c-.061,0-.087.019-.087.043,0,.08.283,0,.283.187,0,.087-.081.149-.221.149A.4.4,0,0,1,927.383,416.924Z" transform="translate(-927.383 -416.493)" fill="#263238"/></g><g transform="translate(2.261 0.134)"><path d="M931.253,416.7v.267h-.127v-.058a.153.153,0,0,1-.143.065c-.109,0-.175-.061-.175-.142s.058-.14.2-.14h.108c0-.058-.035-.092-.108-.092a.225.225,0,0,0-.135.043l-.049-.095a.359.359,0,0,1,.2-.057C931.171,416.493,931.253,416.559,931.253,416.7Zm-.136.119v-.048h-.093c-.063,0-.083.023-.083.055s.029.056.077.056A.1.1,0,0,0,931.118,416.82Z" transform="translate(-930.809 -416.493)" fill="#263238"/></g><g transform="translate(2.798 0.134)"><path d="M935.191,416.5v.389a.229.229,0,0,1-.263.254.386.386,0,0,1-.23-.064l.054-.1a.279.279,0,0,0,.165.053c.1,0,.137-.043.137-.128v-.02a.192.192,0,0,1-.148.058.226.226,0,1,1,0-.452.188.188,0,0,1,.155.067v-.06Zm-.134.219a.123.123,0,1,0-.122.115A.114.114,0,0,0,935.057,416.719Z" transform="translate(-934.674 -416.493)" fill="#263238"/></g><g transform="translate(3.406 0.134)"><path d="M939.541,416.772h-.354a.125.125,0,0,0,.134.094.158.158,0,0,0,.117-.045l.072.078a.273.273,0,0,1-.46-.165.238.238,0,0,1,.249-.241.232.232,0,0,1,.243.243C939.544,416.746,939.542,416.761,939.541,416.772Zm-.356-.079h.23a.117.117,0,0,0-.23,0Z" transform="translate(-939.051 -416.493)" fill="#263238"/></g></g></g><g transform="translate(21.456 31.026)"><rect width="10.363" height="3.385" rx="1.693" fill="#e8505b"/></g><g transform="translate(25.107 32.189)"><g transform="translate(0 0.035)"><path d="M1059.832,505.559l.065-.144a.484.484,0,0,0,.272.086c.113,0,.159-.038.159-.088,0-.154-.479-.048-.479-.354,0-.14.113-.257.347-.257a.553.553,0,0,1,.286.073l-.059.145a.463.463,0,0,0-.228-.065c-.113,0-.157.042-.157.094,0,.152.479.047.479.349,0,.138-.114.255-.349.255A.588.588,0,0,1,1059.832,505.559Z" transform="translate(-1059.832 -504.802)" fill="#fff"/></g><g transform="translate(0.755 0.231)"><path d="M1065.932,506.586h-.479a.169.169,0,0,0,.181.127.214.214,0,0,0,.159-.061l.1.106a.332.332,0,0,1-.261.1.329.329,0,0,1-.361-.326.322.322,0,0,1,.338-.326.313.313,0,0,1,.329.328C1065.935,506.551,1065.933,506.57,1065.932,506.586Zm-.481-.107h.312a.158.158,0,0,0-.312,0Z" transform="translate(-1065.268 -506.208)" fill="#fff"/></g><g transform="translate(1.545 0.231)"><path d="M1071.6,506.488v.363h-.184v-.334c0-.1-.047-.149-.128-.149s-.152.054-.152.171v.313h-.184v-.633h.175v.074a.278.278,0,0,1,.21-.083A.248.248,0,0,1,1071.6,506.488Z" transform="translate(-1070.951 -506.208)" fill="#fff"/></g><g transform="translate(2.32)"><path d="M1077.222,504.548v.873h-.175v-.073a.243.243,0,0,1-.2.082.326.326,0,0,1,0-.652.243.243,0,0,1,.189.076v-.307Zm-.18.556a.162.162,0,1,0-.161.175A.161.161,0,0,0,1077.042,505.1Z" transform="translate(-1076.532 -504.548)" fill="#fff"/></g></g><g transform="translate(3.04 2.908)"><path d="M902.639,293.864a3.176,3.176,0,0,0-.32-.014,1.3,1.3,0,0,0-.787.316,1.276,1.276,0,0,0-.431,1.142,1.278,1.278,0,0,0,.309.67,1.266,1.266,0,0,0,1.467.32,1.276,1.276,0,0,0,.559-.481,1.276,1.276,0,0,0,.084-1.218,1.3,1.3,0,0,0-.584-.615,3.15,3.15,0,0,0-.3-.12.991.991,0,0,1,.309.1,1.3,1.3,0,0,1,.618.619,1.317,1.317,0,0,1,.129.6,1.335,1.335,0,0,1-.2.675,1.338,1.338,0,0,1-.587.511,1.331,1.331,0,0,1-1.549-.337,1.337,1.337,0,0,1-.321-.708,1.335,1.335,0,0,1,.1-.7,1.316,1.316,0,0,1,.367-.492,1.3,1.3,0,0,1,.82-.306A.994.994,0,0,1,902.639,293.864Z" transform="translate(-901.023 -293.822)" fill="#e8505b"/><g transform="translate(0.883 0.101)"><path d="M907.38,294.549a22.864,22.864,0,0,1,1.191,2.281,22.962,22.962,0,0,1-1.191-2.281Z" transform="translate(-907.379 -294.549)" fill="#e8505b"/></g><g transform="translate(1.148 0.026)"><path d="M909.288,294.006a21.467,21.467,0,0,1,1.154,2.21,21.474,21.474,0,0,1-1.154-2.21Z" transform="translate(-909.287 -294.006)" fill="#e8505b"/></g><g transform="translate(1.455 0.029)"><path d="M911.494,294.033a16.631,16.631,0,0,1,1.013,1.94,16.557,16.557,0,0,1-1.013-1.94Z" transform="translate(-911.493 -294.033)" fill="#e8505b"/></g><g transform="translate(1.785 0.079)"><path d="M913.871,294.391a10.783,10.783,0,0,1,.817,1.564,10.8,10.8,0,0,1-.817-1.564Z" transform="translate(-913.87 -294.391)" fill="#e8505b"/></g><g transform="translate(0.645 0.254)"><path d="M905.663,295.651a22.939,22.939,0,0,1,1.191,2.281,22.9,22.9,0,0,1-1.191-2.281Z" transform="translate(-905.662 -295.651)" fill="#e8505b"/></g><g transform="translate(0.406 0.407)"><path d="M903.947,296.754a22.884,22.884,0,0,1,1.191,2.281,22.871,22.871,0,0,1-1.191-2.281Z" transform="translate(-903.946 -296.754)" fill="#e8505b"/></g><g transform="translate(0.214 0.651)"><path d="M902.567,298.5a17.073,17.073,0,0,1,1.028,1.969,17.054,17.054,0,0,1-1.028-1.969Z" transform="translate(-902.566 -298.504)" fill="#e8505b"/></g><g transform="translate(0.072 0.989)"><path d="M901.543,300.937a10.58,10.58,0,0,1,.811,1.553,10.6,10.6,0,0,1-.811-1.553Z" transform="translate(-901.542 -300.937)" fill="#e8505b"/></g></g><g transform="translate(12.382 31.975)"><path d="M970.76,503.742a3.115,3.115,0,0,0-.192-.256,1.3,1.3,0,0,0-.744-.408,1.277,1.277,0,0,0-1.156.392,1.278,1.278,0,0,0-.322.664,1.266,1.266,0,0,0,.684,1.336,1.278,1.278,0,0,0,.727.127,1.275,1.275,0,0,0,.994-.708,1.3,1.3,0,0,0,.1-.842,3.108,3.108,0,0,0-.1-.306.987.987,0,0,1,.123.3,1.3,1.3,0,0,1-.086.87,1.315,1.315,0,0,1-.382.481,1.337,1.337,0,0,1-.65.272,1.336,1.336,0,0,1-.767-.13,1.331,1.331,0,0,1-.722-1.411,1.339,1.339,0,0,1,.344-.7,1.334,1.334,0,0,1,.6-.368,1.315,1.315,0,0,1,.613-.029,1.3,1.3,0,0,1,.756.44A.993.993,0,0,1,970.76,503.742Z" transform="translate(-968.258 -503.005)" fill="#e8505b"/><g transform="translate(0.985 0.209)"><path d="M976.353,504.51a22.976,22.976,0,0,1-1.007,2.368,22.842,22.842,0,0,1,1.007-2.368Z" transform="translate(-975.345 -504.51)" fill="#e8505b"/></g><g transform="translate(1.243 0.366)"><path d="M978.178,505.642a21.515,21.515,0,0,1-.976,2.294,21.48,21.48,0,0,1,.976-2.294Z" transform="translate(-977.202 -505.641)" fill="#e8505b"/></g><g transform="translate(1.553 0.606)"><path d="M980.295,507.364a16.582,16.582,0,0,1-.857,2.014,16.5,16.5,0,0,1,.857-2.014Z" transform="translate(-979.437 -507.364)" fill="#e8505b"/></g><g transform="translate(1.891 0.893)"><path d="M982.555,509.43a10.771,10.771,0,1,1-.378.8A5.389,5.389,0,0,1,982.555,509.43Z" transform="translate(-981.863 -509.43)" fill="#e8505b"/></g><g transform="translate(0.715 0.122)"><path d="M974.412,503.884a22.96,22.96,0,0,1-1.007,2.368,22.965,22.965,0,0,1,1.007-2.368Z" transform="translate(-973.404 -503.883)" fill="#e8505b"/></g><g transform="translate(0.445 0.035)"><path d="M972.47,503.256a22.83,22.83,0,0,1-1.007,2.368,23.026,23.026,0,0,1,1.007-2.368Z" transform="translate(-971.462 -503.256)" fill="#e8505b"/></g><g transform="translate(0.273 0.041)"><path d="M971.1,503.3a17.061,17.061,0,0,1-.869,2.044,17.058,17.058,0,0,1,.869-2.044Z" transform="translate(-970.226 -503.302)" fill="#e8505b"/></g><g transform="translate(0.105 0.146)"><path d="M969.7,504.055a10.63,10.63,0,1,1-.376.792A5.339,5.339,0,0,1,969.7,504.055Z" transform="translate(-969.015 -504.055)" fill="#e8505b"/></g></g><g transform="translate(29.338 3.841)"><path d="M1095.1,302.951a3.82,3.82,0,0,0-.089-.579,2.273,2.273,0,0,0-.266-.629,2.375,2.375,0,0,0-.6-.668,2.353,2.353,0,0,0-2.231-.333,2.205,2.205,0,0,0-.595.321,2.637,2.637,0,0,0-.267.227,2.678,2.678,0,0,0-.23.273,2.341,2.341,0,0,0,0,2.78,2.143,2.143,0,0,0,.5.5,2.21,2.21,0,0,0,.595.321,2.367,2.367,0,0,0,2.834-1,2.28,2.28,0,0,0,.266-.629,3.836,3.836,0,0,0,.088-.579.17.17,0,0,1,0,.039l0,.114a1.1,1.1,0,0,1-.015.185,1.652,1.652,0,0,1-.045.249,2.258,2.258,0,0,1-.259.643,2.408,2.408,0,0,1-1.621,1.145,2.42,2.42,0,0,1-1.271-.1,2.274,2.274,0,0,1-.614-.328,2.22,2.22,0,0,1-.513-.513,2.406,2.406,0,0,1,0-2.864,2.216,2.216,0,0,1,.513-.513,2.273,2.273,0,0,1,.614-.328,2.422,2.422,0,0,1,1.271-.1,2.408,2.408,0,0,1,1.621,1.145,2.264,2.264,0,0,1,.259.643,1.667,1.667,0,0,1,.045.249,1.1,1.1,0,0,1,.015.185l0,.114A.17.17,0,0,1,1095.1,302.951Z" transform="translate(-1090.285 -300.535)" fill="#e8505b"/><g transform="translate(0.808 1.131)"><path d="M1099.714,308.674c.013.015-.785.7-1.782,1.536s-1.817,1.5-1.829,1.48.785-.7,1.783-1.536S1099.7,308.659,1099.714,308.674Z" transform="translate(-1096.102 -308.674)" fill="#e8505b"/></g><g transform="translate(1.159 1.575)"><path d="M1102.124,311.872c.013.015-.76.682-1.726,1.489s-1.76,1.449-1.773,1.433.76-.682,1.726-1.489S1102.112,311.857,1102.124,311.872Z" transform="translate(-1098.625 -311.872)" fill="#e8505b"/></g><g transform="translate(1.698 2.125)"><path d="M1105.581,315.826c.013.015-.665.6-1.513,1.31s-1.546,1.27-1.559,1.255.664-.6,1.513-1.31S1105.568,315.811,1105.581,315.826Z" transform="translate(-1102.509 -315.826)" fill="#e8505b"/></g><g transform="translate(2.334 2.735)"><path d="M1109.561,320.216c.013.015-.531.491-1.215,1.062s-1.248,1.021-1.261,1.006.531-.491,1.215-1.062S1109.548,320.2,1109.561,320.216Z" transform="translate(-1107.085 -320.215)" fill="#e8505b"/></g><g transform="translate(0.442 0.764)"><path d="M1097.076,306.036c.013.015-.785.7-1.782,1.536s-1.817,1.5-1.829,1.48.785-.7,1.783-1.536S1097.063,306.021,1097.076,306.036Z" transform="translate(-1093.464 -306.036)" fill="#e8505b"/></g><g transform="translate(0.075 0.398)"><path d="M1094.438,303.4c.013.015-.785.7-1.782,1.536s-1.816,1.5-1.829,1.48.785-.7,1.783-1.536S1094.425,303.383,1094.438,303.4Z" transform="translate(-1090.826 -303.398)" fill="#e8505b"/></g><g transform="translate(0.06 0.15)"><path d="M1093.835,301.617c.013.015-.675.611-1.535,1.329s-1.569,1.289-1.582,1.274.675-.611,1.536-1.329S1093.823,301.6,1093.835,301.617Z" transform="translate(-1090.718 -301.617)" fill="#e8505b"/></g><g transform="translate(0.059 0.028)"><path d="M1093.171,300.738c.013.015-.527.487-1.206,1.055s-1.24,1.014-1.253,1,.527-.487,1.207-1.055S1093.158,300.722,1093.171,300.738Z" transform="translate(-1090.712 -300.737)" fill="#e8505b"/></g></g><g transform="translate(28.769 2.256)"><circle cx="0.444" cy="0.444" r="0.444" fill="#e8505b"/></g><g transform="translate(15.949 31.498)"><circle cx="0.444" cy="0.444" r="0.444" fill="#e8505b"/></g></g></g><g transform="translate(0.388 8.523)"><g transform="translate(0)"><g transform="translate(6.913)"><path d="M792.273,322.6a1.617,1.617,0,0,0-1.424-1.355,2.1,2.1,0,0,1-.551-.062,3.158,3.158,0,0,1-.4-.226,1.08,1.08,0,0,0-1.319.276c-.283.362-.4-.142-1.066.255a.551.551,0,0,0-.264.787,1.239,1.239,0,0,0-1.229.98c-.066.357.007.791-.271,1.025-.135.113-.323.144-.462.252a.921.921,0,0,0-.209.907,1.79,1.79,0,0,1,.039.966c-.2.5-.906.7-.994,1.226-.041.25.064.549-.11.733a.857.857,0,0,1-.261.153,1.13,1.13,0,0,0-.042,2.008c.1.055.221.106.26.214s-.037.246-.094.361a1.087,1.087,0,0,0,1.546,1.409,1.7,1.7,0,0,0,1,.793,1.031,1.031,0,0,0,.593.016,1.18,1.18,0,0,0,.408-.252c.578-.5,1.389-1.274,1.442-2.039" transform="translate(-783.121 -320.837)" fill="#263238"/><g transform="translate(2.39 3.621)"><path d="M801.769,347.826a.636.636,0,0,1-.268,0,1.576,1.576,0,0,1-1.064-.688.638.638,0,0,1-.113-.243,2.132,2.132,0,0,1,.155.213,1.8,1.8,0,0,0,1.031.667A2.2,2.2,0,0,1,801.769,347.826Z" transform="translate(-800.324 -346.892)" fill="#455a64"/></g><g transform="translate(2.686 2.797)"><path d="M803.991,340.964c.006.006-.052.081-.174.173a1.531,1.531,0,0,1-1.127.287.568.568,0,0,1-.235-.069,1.96,1.96,0,0,0,1.536-.391Z" transform="translate(-802.455 -340.963)" fill="#455a64"/></g><g transform="translate(0.693 4.556)"><path d="M788.8,360.566s-.008,0-.024,0a.5.5,0,0,1-.068-.02.863.863,0,0,1-.24-.132.932.932,0,0,1-.273-.337.906.906,0,0,1-.066-.57.938.938,0,0,1,.124-.315,1.224,1.224,0,0,1,.244-.272,1.234,1.234,0,0,0,.253-.274.375.375,0,0,0,.011-.36,1.807,1.807,0,0,0-.248-.337,1.248,1.248,0,0,1-.13-.186.724.724,0,0,1-.074-.225.791.791,0,0,1,.431-.815,2.564,2.564,0,0,1,.47-.109.536.536,0,0,0,.2-.085.323.323,0,0,0,.116-.167.658.658,0,0,0-.046-.413c-.053-.131-.128-.256-.178-.39a.627.627,0,0,1-.028-.42.666.666,0,0,1,.238-.318,1.839,1.839,0,0,1,.641-.271,1.4,1.4,0,0,0,.506-.23.629.629,0,0,0,.212-.351.406.406,0,0,0-.025-.259c-.026-.055-.052-.078-.048-.081a.226.226,0,0,1,.061.074.408.408,0,0,1,.04.27.651.651,0,0,1-.213.377,1.422,1.422,0,0,1-.518.249,1.818,1.818,0,0,0-.619.269.608.608,0,0,0-.214.289.564.564,0,0,0,.03.377c.048.127.122.249.18.388a.724.724,0,0,1,.05.459.4.4,0,0,1-.14.2.609.609,0,0,1-.226.1,2.618,2.618,0,0,0-.457.1.723.723,0,0,0-.391.74.656.656,0,0,0,.066.2,1.2,1.2,0,0,0,.122.176,1.829,1.829,0,0,1,.255.353.441.441,0,0,1-.017.42,1.28,1.28,0,0,1-.268.287,1.182,1.182,0,0,0-.237.257.9.9,0,0,0-.121.3.872.872,0,0,0,.053.543.926.926,0,0,0,.254.332A1.172,1.172,0,0,0,788.8,360.566Z" transform="translate(-788.106 -353.625)" fill="#455a64"/></g></g><g transform="translate(6.116 31.068)"><g transform="translate(1.598 15.166)"><g transform="translate(0.036 0.036)"><rect width="14.967" height="0.795" fill="#e0e0e0"/></g><path d="M803.884,654.406s0-.017,0-.05l0-.148c0-.133,0-.33-.006-.6l.011.011c-1.941.015-7.913.025-14.966.025h0l.036-.036c0,.272,0,.543,0,.8l-.036-.036,10.6.015,3.193.011.868.005.227,0,.079,0-.074,0-.222,0-.86,0-3.185.011-10.626.015h-.036v-.867h.037c7.053,0,13.026.01,14.966.025h.011v.011c0,.27,0,.469-.006.6l0,.145C803.885,654.392,803.885,654.407,803.884,654.406Z" transform="translate(-788.881 -653.575)" fill="#263238"/></g><g transform="translate(0 1.418)"><g transform="translate(0.042 0.009)"><path d="M780.844,554.694l-3.159,21.346h1.054l2.859-21.067v-.279Z" transform="translate(-777.685 -554.694)" fill="#e0e0e0"/></g><path d="M780.584,554.638s.058,0,.182,0l.572-.005h.009v.288h0c-.342,2.628-1.476,11.064-2.834,21.071l0,.031h-1.127l.006-.042c.885-5.943,1.681-11.282,2.255-15.138l.684-4.548.188-1.23.05-.318c.011-.072.019-.107.019-.107s0,.039-.014.112l-.045.323-.178,1.239c-.157,1.076-.383,2.632-.664,4.559l-2.223,15.118-.036-.041h1.054l-.036.031c1.358-10.007,2.514-18.44,2.885-21.064h0v-.279l.009.009-.568-.005C780.646,554.641,780.584,554.638,780.584,554.638Z" transform="translate(-777.383 -554.629)" fill="#263238"/></g><g transform="translate(14.265 1.418)"><g transform="translate(0.01 0.009)"><path d="M880.873,554.694,884.1,576.04h-1.054l-2.926-21.067v-.279Z" transform="translate(-880.119 -554.694)" fill="#e0e0e0"/></g><path d="M880.808,554.638s-.062,0-.186,0l-.568.005.009-.009v.279h0c.379,2.623,1.562,11.057,2.952,21.064l-.036-.031h1.054l-.036.041c-.891-5.935-1.692-11.267-2.271-15.118l-.678-4.559c-.079-.537-.14-.954-.182-1.239l-.046-.323c-.01-.073-.014-.112-.014-.112s.007.035.019.106l.051.318.191,1.23.7,4.548,2.3,15.137.006.042h-1.127l0-.031c-1.39-10.007-2.551-18.443-2.9-21.071h0v-.288h.009l.572.005C880.751,554.636,880.808,554.638,880.808,554.638Z" transform="translate(-880.044 -554.629)" fill="#263238"/></g><g transform="translate(8.287 1.39)"><g transform="translate(0.036 0.036)"><rect width="0.901" height="21.346" fill="#e0e0e0"/></g><path d="M837.961,575.816s0-.039,0-.112l0-.323c0-.285,0-.7-.005-1.239,0-1.076-.006-2.632-.011-4.558,0-3.85-.009-9.181-.015-15.114l.036.036h-.9l.036-.036c0,10.221-.011,18.829-.026,21.346l-.01-.01.679.006.166,0,.055,0-.052,0-.163,0-.685.006h-.01v-.01c-.015-2.517-.026-11.125-.026-21.346v-.036H838v.036c-.006,5.944-.011,11.284-.015,15.141,0,1.923-.008,3.475-.011,4.549,0,.533,0,.948-.005,1.231q0,.208,0,.318C837.963,575.781,837.961,575.816,837.961,575.816Z" transform="translate(-837.024 -554.434)" fill="#263238"/></g><g transform="translate(2.854)"><rect width="12.354" height="1.605" fill="#455a64"/></g><g transform="translate(2.936 0.046)"><path d="M802.2,544.762a3.769,3.769,0,0,1-.451.378,4.713,4.713,0,0,1-.541.34,4.845,4.845,0,0,1-1.475.509,4.746,4.746,0,0,1-.636.066,3.773,3.773,0,0,1-.588-.02.21.21,0,0,1,.041,0l.117,0c.1.005.248.005.429,0a5.042,5.042,0,0,0,.632-.071,5,5,0,0,0,1.467-.506,5.034,5.034,0,0,0,.542-.333c.148-.1.264-.2.34-.262l.09-.075A.216.216,0,0,1,802.2,544.762Z" transform="translate(-798.513 -544.762)" fill="#263238"/></g><g transform="translate(4.884 0.496)"><path d="M816.043,548.6l-.031-.012c-.02-.008-.049-.023-.088-.038a1.618,1.618,0,0,0-.355-.092,1.636,1.636,0,0,0-.575.022,1.558,1.558,0,0,0-.676.328l0-.02a5.219,5.219,0,0,0,2.148.069,1.187,1.187,0,0,0,.389-.114.285.285,0,0,0,.126-.151.3.3,0,0,0-.007-.2.493.493,0,0,0-.359-.292,2.812,2.812,0,0,0-.474-.066,5.091,5.091,0,0,0-.907.018,5.155,5.155,0,0,0-1.482.389,5.078,5.078,0,0,0-.907.5c-.1.068-.176.128-.228.167s-.079.058-.079.058.026-.022.076-.063.124-.1.225-.171a4.894,4.894,0,0,1,.905-.51,5.152,5.152,0,0,1,2.4-.417,2.826,2.826,0,0,1,.479.066.685.685,0,0,1,.227.106.443.443,0,0,1,.152.2.33.33,0,0,1,.007.218.314.314,0,0,1-.138.166,1.2,1.2,0,0,1-.4.118,5.2,5.2,0,0,1-2.158-.076l-.022-.005.017-.014a1.57,1.57,0,0,1,.687-.328,1.632,1.632,0,0,1,.58-.016,1.534,1.534,0,0,1,.356.1C816,548.581,816.043,548.6,816.043,548.6Z" transform="translate(-812.532 -547.997)" fill="#263238"/></g><g transform="translate(9.564 0.041)"><path d="M846.641,544.724a.324.324,0,0,1,.083.023.568.568,0,0,1,.194.135.667.667,0,0,1,.166.309.747.747,0,0,1-.035.427,1.02,1.02,0,0,1-.533.549,1.367,1.367,0,0,1-.221.081l-.062.015-.022,0a.624.624,0,0,1,.081-.028,1.666,1.666,0,0,0,.216-.089,1.027,1.027,0,0,0,.515-.541.734.734,0,0,0,.036-.411.667.667,0,0,0-.155-.3A.652.652,0,0,0,846.641,544.724Z" transform="translate(-846.21 -544.724)" fill="#263238"/></g><g transform="translate(10.661 0.034)"><path d="M855.374,544.672a2.17,2.17,0,0,0-.271.137,1.843,1.843,0,0,0-.518.508,4.055,4.055,0,0,0-.351.643l-.092.2a.464.464,0,0,1-.037.073.443.443,0,0,1,.026-.078c.019-.049.047-.12.083-.207a3.548,3.548,0,0,1,.346-.651,1.752,1.752,0,0,1,.531-.509,1.164,1.164,0,0,1,.2-.1c.025-.01.045-.014.058-.019S855.374,544.671,855.374,544.672Z" transform="translate(-854.107 -544.672)" fill="#263238"/></g><g transform="translate(11.636 0.428)"><path d="M863.552,548.066l-.072-.032a1.265,1.265,0,0,0-.212-.069,1.22,1.22,0,0,0-.8.089.24.24,0,0,0-.1.078.092.092,0,0,0,.013.116.707.707,0,0,0,.259.126,2.676,2.676,0,0,0,1.352.1.721.721,0,0,0,.342-.143.3.3,0,0,0,.078-.344.507.507,0,0,0-.263-.266,1.7,1.7,0,0,0-.359-.119,2.506,2.506,0,0,0-.715-.058,2.465,2.465,0,0,0-1.15.364,2.585,2.585,0,0,0-.619.538c-.062.075-.107.136-.136.178s-.046.064-.046.064a1.93,1.93,0,0,1,.173-.249,2.529,2.529,0,0,1,.617-.548,2.469,2.469,0,0,1,1.159-.374,2.513,2.513,0,0,1,.723.057,1.717,1.717,0,0,1,.366.12.536.536,0,0,1,.278.281.357.357,0,0,1,.018.2.326.326,0,0,1-.1.172.744.744,0,0,1-.356.149,2.678,2.678,0,0,1-1.365-.1c-.049-.017-.1-.035-.142-.054a.333.333,0,0,1-.126-.08.114.114,0,0,1-.015-.142.262.262,0,0,1,.109-.085,1.218,1.218,0,0,1,.811-.081A.94.94,0,0,1,863.552,548.066Z" transform="translate(-861.125 -547.511)" fill="#263238"/></g></g><g transform="translate(10.805 10.662)"><path d="M812.5,397.565a2.1,2.1,0,0,0-1.076.935,1.652,1.652,0,0,0-.19,1.492c.106.423.292,1.262.3,1.208S812.5,397.565,812.5,397.565Z" transform="translate(-811.131 -397.565)" fill="#a36957"/></g><g transform="translate(11.422 8.678)"><path d="M816.362,385.274l.85-.5,3.953-1.479-.776,6.645-2.918,1.837-1.729-.865-.173-1.923Z" transform="translate(-815.569 -383.29)" fill="#a36957"/></g><g transform="translate(7.12 20.773)"><path d="M789.6,470.335l-1.544,2-1.914-.451-1.531.856.405.721,4.064.273,1.432-2.953Z" transform="translate(-784.613 -470.335)" fill="#7c3b29"/></g><g transform="translate(0.465 21.788)"><g transform="translate(6.958 16.255)"><path d="M786.791,596.585l1.559,3.378,2.515-1.162-1.612-4.181Z" transform="translate(-786.791 -594.62)" fill="#a36957"/></g><g transform="translate(6.987 19.948)"><g transform="translate(0.019)"><path d="M788.354,622.619l.911,1.737s-2.331,2.41-2.112,2.949l5.48-2.628-1.506-3.483Z" transform="translate(-787.138 -621.194)" fill="#e8505b"/></g><g transform="translate(3.533 2.108)"><path d="M812.62,636.371a.248.248,0,0,1,.277.181.239.239,0,0,1-.177.276.262.262,0,0,1-.292-.193.248.248,0,0,1,.216-.267" transform="translate(-812.426 -636.368)" fill="#e0e0e0"/></g><g transform="translate(0 3.047)" opacity="0.6"><path d="M792.513,643.557l-.228-.437-5.169,2.683s-.193.223-.083.382Z" transform="translate(-786.999 -643.12)" fill="#fff"/></g><g transform="translate(2.042 3.067)"><path d="M801.7,643.378c.014.026.154-.026.326,0s.3.1.317.079-.094-.158-.3-.182S801.681,643.356,801.7,643.378Z" transform="translate(-801.698 -643.268)" fill="#263238"/></g><g transform="translate(1.583 3.642)"><path d="M798.388,647.454c.006.029.144.019.289.088s.229.177.255.163-.029-.173-.211-.257S798.377,647.428,798.388,647.454Z" transform="translate(-798.388 -647.406)" fill="#263238"/></g><g transform="translate(1.155 4.163)"><path d="M795.741,651.526c.027-.006,0-.158-.139-.271s-.292-.112-.293-.084.115.069.227.164S795.713,651.536,795.741,651.526Z" transform="translate(-795.309 -651.155)" fill="#263238"/></g><g transform="translate(1.779 2.231)"><path d="M799.8,637.524c.023.019.128-.077.284-.139s.3-.071.3-.1-.156-.071-.339.005S799.781,637.509,799.8,637.524Z" transform="translate(-799.8 -637.247)" fill="#263238"/></g><g transform="translate(0.898 1.519)"><path d="M794.186,632.766a.267.267,0,0,1-.05-.11.8.8,0,0,1-.026-.33.426.426,0,0,1,.026-.112.138.138,0,0,1,.109-.088.1.1,0,0,1,.081.028.131.131,0,0,1,.034.075.828.828,0,0,1,0,.139c-.007.093-.007.181-.022.289a.175.175,0,0,1-.114.137.349.349,0,0,1-.172.007,1.355,1.355,0,0,1-.3-.089,1.325,1.325,0,0,1-.134-.066.393.393,0,0,1-.121-.092.129.129,0,0,1,0-.164.154.154,0,0,1,.146-.035.9.9,0,0,1,.215.089,1.166,1.166,0,0,1,.265.2c.055.055.079.091.076.094a2.335,2.335,0,0,0-.364-.245.928.928,0,0,0-.2-.075.1.1,0,0,0-.088.018.065.065,0,0,0,.008.081.346.346,0,0,0,.1.072,1.359,1.359,0,0,0,.128.061,1.336,1.336,0,0,0,.285.083.283.283,0,0,0,.136,0,.1.1,0,0,0,.068-.084c.013-.088.016-.191.025-.279a.847.847,0,0,0,.006-.126c0-.036-.02-.054-.046-.052-.06,0-.08.084-.091.148A1.156,1.156,0,0,0,794.186,632.766Z" transform="translate(-793.463 -632.124)" fill="#263238"/></g></g><g transform="translate(2.952 3.139)"><path d="M761.933,516.465l-3.971-9.88a8.071,8.071,0,0,1,.415-2.308c.323-.554,10.111-3.786,10.111-3.786a8.862,8.862,0,0,1,4.155,0c1.662.6,2.909,2.678,2.678,3.832a4.1,4.1,0,0,1-1.205,2l-7.2.214L763,507.97l2.642,7.572A3.9,3.9,0,0,1,761.933,516.465Z" transform="translate(-757.962 -500.224)" fill="#263238"/></g><g transform="translate(3.314 12.08)"><path d="M760.657,565.247l-.093,3.719,2.77.068.4-4.463Z" transform="translate(-760.564 -564.571)" fill="#a36957"/></g><g transform="translate(0 16.089)"><g transform="translate(0.002)"><path d="M739.878,593.476l.051,1.96s-3.156,1.134-3.2,1.714l6.077.062.187-3.79Z" transform="translate(-736.731 -593.421)" fill="#e8505b"/></g><g transform="translate(4.782 1.76)"><path d="M771.432,606.1a.248.248,0,0,1,.169.285.239.239,0,0,1-.281.17.261.261,0,0,1-.177-.3.247.247,0,0,1,.312-.144" transform="translate(-771.134 -606.085)" fill="#e0e0e0"/></g><g transform="translate(0 3.298)" opacity="0.6"><path d="M742.8,617.646l-.012-.493-5.822.125s-.272.115-.243.306Z" transform="translate(-736.716 -617.153)" fill="#fff"/></g><g transform="translate(3.101 1.956)"><path d="M759.034,607.527c0,.03.149.045.294.142s.222.222.249.211-.015-.183-.193-.3S759.028,607.5,759.034,607.527Z" transform="translate(-759.034 -607.5)" fill="#263238"/></g><g transform="translate(2.461 2.228)"><path d="M754.426,609.469c-.007.029.121.08.221.207s.127.26.157.259.05-.169-.077-.324S754.427,609.441,754.426,609.469Z" transform="translate(-754.426 -609.458)" fill="#263238"/></g><g transform="translate(1.859 2.485)"><path d="M750.326,611.819c.027.007.07-.141,0-.3s-.213-.229-.226-.2.072.112.131.247S750.3,611.816,750.326,611.819Z" transform="translate(-750.094 -611.305)" fill="#263238"/></g><g transform="translate(3.161 1.163)"><path d="M759.466,601.9c.012.027.149-.012.317,0s.3.067.313.042-.109-.132-.307-.145S759.452,601.874,759.466,601.9Z" transform="translate(-759.465 -601.794)" fill="#263238"/></g><g transform="translate(2.64 0.233)"><path d="M756.249,595.747a.269.269,0,0,1,0-.121.8.8,0,0,1,.122-.308.426.426,0,0,1,.073-.089.138.138,0,0,1,.137-.031.1.1,0,0,1,.06.061.13.13,0,0,1,0,.082.817.817,0,0,1-.064.124c-.047.08-.087.16-.147.25a.175.175,0,0,1-.163.073.347.347,0,0,1-.157-.07,1.364,1.364,0,0,1-.231-.213,1.417,1.417,0,0,1-.091-.119.393.393,0,0,1-.068-.136.129.129,0,0,1,.069-.148.154.154,0,0,1,.146.033.9.9,0,0,1,.154.175,1.168,1.168,0,0,1,.151.293.305.305,0,0,1,.026.118,2.348,2.348,0,0,0-.219-.381.924.924,0,0,0-.148-.156.1.1,0,0,0-.087-.023.065.065,0,0,0-.028.076.343.343,0,0,0,.06.11,1.4,1.4,0,0,0,.088.112,1.343,1.343,0,0,0,.22.2.286.286,0,0,0,.123.057.1.1,0,0,0,.1-.045c.05-.073.1-.164.145-.24a.854.854,0,0,0,.061-.11c.012-.035.005-.057-.019-.067-.055-.023-.109.04-.147.093A1.153,1.153,0,0,0,756.249,595.747Z" transform="translate(-755.718 -595.095)" fill="#263238"/></g></g><g transform="translate(2.814 2.4)"><path d="M759.175,494.941a1.724,1.724,0,0,0-1.844,1.668c-.185,1.8-.366,10.2-.366,10.2l3.878.323.6-8.587,6.187-2.632S760.283,494.71,759.175,494.941Z" transform="translate(-756.965 -494.912)" fill="#263238"/></g><g transform="translate(11.025)"><path d="M816.9,477.636s-1.007,2.824-.815,3.139a19.456,19.456,0,0,0,2.782,1.61l6.481,2.489a5.431,5.431,0,0,0,.666-2.685c0-1.626-2.254-4.552-2.254-4.552Z" transform="translate(-816.058 -477.636)" fill="#263238"/></g><g transform="translate(2.814 3.261)"><path d="M767.937,501.106a.142.142,0,0,1-.03.016l-.092.043-.359.16-1.347.587-4.651,2,.021-.03-.188,2.712-.418,5.875,0,.029-.029,0-2.825-.248-.778-.073-.2-.021a.426.426,0,0,1-.069-.01.444.444,0,0,1,.07,0l.2.013.779.057,2.828.223-.031.027c.111-1.617.251-3.66.4-5.876l.191-2.712v-.021l.02-.008,4.661-1.979,1.355-.568.363-.149.095-.037A.142.142,0,0,1,767.937,501.106Z" transform="translate(-756.965 -501.106)" fill="#455a64"/></g><g transform="translate(14.295 2.794)"><path d="M844.238,498.491a.957.957,0,0,1-.182-.05l-.488-.157a10.648,10.648,0,0,0-1.633-.413,4.789,4.789,0,0,0-1.672.022,6.7,6.7,0,0,0-.67.194.8.8,0,0,1,.169-.085,3,3,0,0,1,.49-.159,4.49,4.49,0,0,1,1.694-.043,9.077,9.077,0,0,1,1.639.436c.2.073.368.135.481.179A.92.92,0,0,1,844.238,498.491Z" transform="translate(-839.593 -497.74)" fill="#455a64"/></g><g transform="translate(14.386 1.999)"><path d="M843.888,492.078a4.786,4.786,0,0,0-.567,0c-.174.012-.382.039-.613.066s-.484.058-.747.108a3.473,3.473,0,0,0-1.27.471,3.911,3.911,0,0,0-.44.355.494.494,0,0,1,.094-.122,1.931,1.931,0,0,1,.318-.275,3.25,3.25,0,0,1,1.285-.5c.266-.05.521-.079.753-.1s.441-.045.618-.051a2.318,2.318,0,0,1,.419.019A.483.483,0,0,1,843.888,492.078Z" transform="translate(-840.251 -492.022)" fill="#455a64"/></g></g><g transform="translate(0 8.654)"><g transform="translate(11.093)"><path d="M814.276,385.123a27.615,27.615,0,0,0-1.076,4.546c.025,1.012.445,3.885.4,4.452s.149,2.128.84,2.128h6.859s1.549-.428,1.616-1.359-2.078-9.956-2.078-9.956-.4-1.659-.971-1.781-1.2,0-1.579,1.172-.507,2.825-1.316,3.634-1.962,1.719-1.962,1.719a2.867,2.867,0,0,1-.971-1.83,13.751,13.751,0,0,1,.352-2.758Z" transform="translate(-813.199 -383.115)" fill="#e8505b"/></g><g transform="translate(16.208 1.841)"><path d="M853.2,397.145a1.473,1.473,0,0,0-.754-.579,3.618,3.618,0,0,0-.949-.182,2.536,2.536,0,0,0-.862.031c-.28.072-.4.419-.513.683a8.624,8.624,0,0,0,.186,3.561,1.453,1.453,0,0,0,.206.493,1.43,1.43,0,0,0,.4.336,1.764,1.764,0,0,0,.794.323,1.363,1.363,0,0,0,1.228-.789,4,4,0,0,0,.344-1.5l.093-.962A2.273,2.273,0,0,0,853.2,397.145Z" transform="translate(-850.013 -396.362)" fill="#a36957"/></g><g transform="translate(12.173 11.484)"><path d="M821.985,467.489a.646.646,0,0,1-.271-.143,1.637,1.637,0,0,1-.458-.581,3.16,3.16,0,0,1-.234-.7,1.19,1.19,0,0,1-.047-.3,1.382,1.382,0,0,1,.1.288,4.333,4.333,0,0,0,.249.681,1.841,1.841,0,0,0,.426.573C821.885,467.428,821.991,467.478,821.985,467.489Z" transform="translate(-820.972 -465.763)" fill="#263238"/></g><g transform="translate(13.498 8.164)"><path d="M833.83,442.535a.534.534,0,0,1-.115.1,2.166,2.166,0,0,1-.94.383,2.017,2.017,0,0,1-.748-.033,2.467,2.467,0,0,1-1.164-.675,2.884,2.884,0,0,1-.268-.311.575.575,0,0,1-.08-.127c.01-.008.135.167.384.4a2.569,2.569,0,0,0,1.145.642,2.1,2.1,0,0,0,1.3-.12C833.654,442.658,833.822,442.522,833.83,442.535Z" transform="translate(-830.514 -441.868)" fill="#263238"/></g><g transform="translate(12.947 12.52)"><path d="M826.7,473.78c-.015.012-.109-.1-.141-.265a.374.374,0,0,1,.031-.3,2.25,2.25,0,0,1,.04.285C826.66,473.654,826.719,473.769,826.7,473.78Z" transform="translate(-826.548 -473.217)" fill="#263238"/></g><g transform="translate(12.825 2.606)"><path d="M828.785,401.872a.363.363,0,0,0-.168.085.387.387,0,0,0-.108.193.3.3,0,0,0,.063.274l.024.026-.035.01a.648.648,0,0,0-.388.348.665.665,0,0,0,.014.626l.042.069-.078-.02a.458.458,0,0,0-.5.695l-.064.032a.256.256,0,0,0-.318-.123.391.391,0,0,0-.271.281,1.5,1.5,0,0,0-.059.411l-.009.2-.059-.191a.233.233,0,0,0-.259-.136.324.324,0,0,0-.231.195.912.912,0,0,0,.006.6l-.056.006a.314.314,0,0,0-.118-.24.361.361,0,0,0-.231-.085.3.3,0,0,0-.28.251.366.366,0,0,0,.033.258c.031.053.058.074.055.077a.207.207,0,0,1-.07-.069.371.371,0,0,1-.05-.273.377.377,0,0,1,.088-.185.311.311,0,0,1,.221-.1.406.406,0,0,1,.266.091.366.366,0,0,1,.142.281v.228l-.055-.222a1.971,1.971,0,0,1-.058-.3.652.652,0,0,1,.049-.335.389.389,0,0,1,.28-.235.3.3,0,0,1,.336.183l-.068.009a1.543,1.543,0,0,1,.061-.432.6.6,0,0,1,.113-.2.4.4,0,0,1,.208-.124.411.411,0,0,1,.235.007.268.268,0,0,1,.168.162l.1.284-.164-.253a.525.525,0,0,1,.573-.8l-.036.048a.72.72,0,0,1-.009-.684.69.69,0,0,1,.426-.366l-.01.036a.337.337,0,0,1-.064-.312.4.4,0,0,1,.125-.2.3.3,0,0,1,.133-.066A.142.142,0,0,1,828.785,401.872Z" transform="translate(-825.668 -401.87)" fill="#e8505b"/></g><g transform="translate(11.779 2.029)"><path d="M818.567,397.717s.008.008.019.027a.242.242,0,0,1,.024.093.3.3,0,0,1-.032.153.276.276,0,0,1-.16.141l.007-.033a.545.545,0,0,1,.195.419.577.577,0,0,1-.276.517l0-.052a.567.567,0,0,1,.191.582,1.528,1.528,0,0,1-.339.6l-.057-.044a.265.265,0,0,1,.417.032.411.411,0,0,1,.014.4.989.989,0,0,1-.239.3l-.036-.059a.394.394,0,1,1,.245.749l-.081.023.048-.068a.294.294,0,0,1,.285-.108.445.445,0,0,1,.245.117.563.563,0,0,1,.149.4,1.421,1.421,0,0,1-.023.269.356.356,0,0,1-.021.092c-.01,0,.019-.132.011-.36a.538.538,0,0,0-.147-.366.4.4,0,0,0-.219-.1.239.239,0,0,0-.23.089l-.032-.045a.349.349,0,0,0,.226-.393.341.341,0,0,0-.431-.233l-.161.057.125-.116a.934.934,0,0,0,.222-.274.342.342,0,0,0-.008-.33.2.2,0,0,0-.3-.03l-.057-.044a1.487,1.487,0,0,0,.329-.571.506.506,0,0,0-.16-.518l-.041-.028.044-.024a.525.525,0,0,0,.254-.462.508.508,0,0,0-.168-.39l-.028-.023.034-.01a.246.246,0,0,0,.145-.118.3.3,0,0,0,.038-.139A.391.391,0,0,0,818.567,397.717Z" transform="translate(-818.143 -397.717)" fill="#e8505b"/></g><g transform="translate(13.58 8.284)" opacity="0.3"><path d="M831.137,442.771a2,2,0,0,0,.7,1.348,1.658,1.658,0,0,0,1.468.32,1.42,1.42,0,0,0,1-1.089,4.2,4.2,0,0,1-1.094.381,2.149,2.149,0,0,1-2.113-1l.056.059" transform="translate(-831.104 -442.733)"/></g><g transform="translate(12.145 11.56)" opacity="0.3"><path d="M820.8,466.342a1.537,1.537,0,0,0,.489,1.432.33.33,0,0,0,.308.1,3.663,3.663,0,0,1-.789-1.567" transform="translate(-820.776 -466.311)"/></g><g transform="translate(0 1.425)"><g transform="translate(13.566)"><path d="M834.985,393.4s-1.552.243-1.176,2.449,3.064,5.943,3.064,5.943L831,405.371l.684,1.589,7.613-3.134a1.843,1.843,0,0,0,.485-1.633c-.265-.861-2.227-6.277-2.227-6.277S836.839,393.029,834.985,393.4Z" transform="translate(-831.003 -393.371)" fill="#a36957"/></g><g transform="translate(8.103 12)"><path d="M792.033,481.092l2.1-1.326,2.783.131.233-.162.684,1.589a4.746,4.746,0,0,1-1.141.39l-2.427-.184-2.579-.194Z" transform="translate(-791.685 -479.735)" fill="#a36957"/></g><g transform="translate(16.603 3.496)"><path d="M855.674,423.5a1.359,1.359,0,0,1-.136-.179c-.084-.118-.2-.292-.345-.508-.285-.433-.664-1.04-1.054-1.728s-.717-1.326-.941-1.793c-.112-.233-.2-.424-.259-.556a.113.113,0,1,1,.025-.012l.279.546c.236.46.569,1.093.958,1.78s.761,1.3,1.035,1.736l.325.52A1.327,1.327,0,0,1,855.674,423.5Z" transform="translate(-852.855 -418.529)" fill="#7c3b29"/></g><g transform="translate(19.391 8.411)"><path d="M874.4,454.466a3.207,3.207,0,0,0-1.473-.547,1.9,1.9,0,0,1,1.473.547Z" transform="translate(-872.923 -453.905)" fill="#7c3b29"/></g><g transform="translate(0 5.872)"><path d="M733.369,436.494c.054.161,2.16,7.24,2.16,7.24l12.091.868.444-.75-6.749-.508-1.9-7.264a.607.607,0,0,0-.683-.446Z" transform="translate(-733.369 -435.627)" fill="#455a64"/><g transform="translate(3.071 3.457)"><g transform="translate(0 0)"><g transform="translate(0)"><ellipse cx="0.311" cy="0.424" rx="0.311" ry="0.424" transform="matrix(0.9, -0.436, 0.436, 0.9, 0, 0.272)" fill="#fafafa"/></g></g></g><g transform="translate(5.427 0.085)"><path d="M772.427,436.236" transform="translate(-772.427 -436.236)" fill="none" stroke="#839198" stroke-miterlimit="10" stroke-width="1"/></g><g transform="translate(5.245 0.027)"><path d="M780.33,444.415a.142.142,0,0,1-.035,0l-.1,0-.4-.023-1.464-.1-4.905-.353-.025,0-.007-.024-.2-.714-1.483-5.212-.441-1.582-.116-.431-.029-.113a.158.158,0,0,1-.007-.039.181.181,0,0,1,.014.037l.035.111.129.427.464,1.575,1.5,5.206.2.714-.032-.026,4.9.376,1.462.12.395.036.1.011A.132.132,0,0,1,780.33,444.415Z" transform="translate(-771.114 -435.822)" fill="#263238"/></g></g></g></g><g transform="translate(10.348 1.299)"><g transform="translate(0.423 0.603)"><path d="M816.277,335.562l-.011-.544-3.29-.488a2.173,2.173,0,0,0-2.081,2,18,18,0,0,0,.155,3.332,2.1,2.1,0,0,0,1.635,1.835l.075,1.671,3.726-.1Z" transform="translate(-810.885 -334.527)" fill="#a36957"/></g><g transform="translate(1.13 3.58)"><path d="M815.972,356.15a.216.216,0,0,0,.217.209.207.207,0,0,0,.215-.2.217.217,0,0,0-.217-.21A.207.207,0,0,0,815.972,356.15Z" transform="translate(-815.972 -355.946)" fill="#263238"/></g><g transform="translate(0.814 3.063)"><path d="M813.7,352.47c.028.027.187-.1.419-.109s.407.1.432.071c.012-.013-.018-.063-.094-.114a.593.593,0,0,0-.347-.092.57.57,0,0,0-.332.122C813.711,352.406,813.689,352.458,813.7,352.47Z" transform="translate(-813.699 -352.226)" fill="#263238"/></g><g transform="translate(3.302 3.533)"><path d="M831.606,355.815a.216.216,0,0,0,.217.209.207.207,0,0,0,.215-.2.216.216,0,0,0-.217-.21A.207.207,0,0,0,831.606,355.815Z" transform="translate(-831.606 -355.611)" fill="#263238"/></g><g transform="translate(3.1 3.013)"><path d="M830.155,352.115c.028.027.187-.1.419-.109s.408.1.432.071c.012-.013-.017-.063-.094-.114a.592.592,0,0,0-.347-.092.569.569,0,0,0-.332.122C830.164,352.051,830.142,352.1,830.155,352.115Z" transform="translate(-830.152 -351.871)" fill="#263238"/></g><g transform="translate(1.731 3.075)"><path d="M820.9,354.255a1.549,1.549,0,0,0-.38-.053c-.059,0-.116-.013-.128-.053a.3.3,0,0,1,.032-.178l.157-.459a7.781,7.781,0,0,0,.346-1.2,7.77,7.77,0,0,0-.442,1.167l-.15.461a.343.343,0,0,0-.021.234.15.15,0,0,0,.1.083.4.4,0,0,0,.1.01A1.5,1.5,0,0,0,820.9,354.255Z" transform="translate(-820.301 -352.314)" fill="#263238"/></g><g transform="translate(2.224 7.079)"><path d="M823.848,381.829a4.461,4.461,0,0,0,2.288-.7,2.233,2.233,0,0,1-2.27,1.119Z" transform="translate(-823.848 -381.13)" fill="#7c3b29"/></g><g transform="translate(2.43 5.4)"><path d="M825.351,369.218a.42.42,0,0,1,.369-.171.383.383,0,0,1,.27.131.242.242,0,0,1,.03.276.281.281,0,0,1-.3.089.883.883,0,0,1-.3-.165.26.26,0,0,1-.069-.066.078.078,0,0,1,0-.087" transform="translate(-825.33 -369.046)" fill="#7c3b29"/></g><g transform="translate(2.305 5.149)"><path d="M825.147,367.238c-.038,0-.028.252-.237.439s-.478.171-.479.206c0,.016.062.046.175.045a.628.628,0,0,0,.4-.158.548.548,0,0,0,.182-.368C825.195,367.3,825.164,367.235,825.147,367.238Z" transform="translate(-824.431 -367.238)" fill="#263238"/></g><g transform="translate(3.005 2.156)"><path d="M829.472,345.9c.025.062.256.023.53.045s.5.087.531.029c.015-.028-.026-.086-.117-.143a.924.924,0,0,0-.809-.056C829.509,345.816,829.461,345.868,829.472,345.9Z" transform="translate(-829.47 -345.704)" fill="#263238"/></g><g transform="translate(0.869 2.374)"><path d="M814.1,347.525c.043.051.2-.01.393-.021s.357.021.392-.036c.015-.027-.013-.079-.086-.126a.57.57,0,0,0-.633.045C814.1,347.444,814.084,347.5,814.1,347.525Z" transform="translate(-814.096 -347.267)" fill="#263238"/></g><g transform="translate(0 0.033)"><path d="M807.841,330.955c.271.589.879,1.466,1.524,1.529a1.9,1.9,0,0,0,1.695-.763,1.253,1.253,0,0,0,1.132.789,1.924,1.924,0,0,0,1.022-.093,1.02,1.02,0,0,0,.632-.766c.044-.344-.462-1.173-.8-1.229" transform="translate(-807.841 -330.422)" fill="#263238"/></g><g transform="translate(4.942)"><path d="M843.723,339.357a1.327,1.327,0,0,0,.972,1.178.94.94,0,0,0,1.82.366,1.129,1.129,0,0,1,.135-.319c.165-.209.487-.168.74-.249a1.089,1.089,0,0,0,.6-1.183,1.111,1.111,0,0,1-.013-.282,1.258,1.258,0,0,1,.289-.5,1.88,1.88,0,0,0-.241-2.206c-.169-.2-.383-.417-.368-.682a1.421,1.421,0,0,1,.144-.418,1.2,1.2,0,0,0-.324-1.312.38.38,0,0,1-.139-.167.371.371,0,0,1,0-.139,1.406,1.406,0,0,0-1.189-1.5.348.348,0,0,1-.124-.028c-.108-.056-.112-.206-.126-.327a2.248,2.248,0,0,0-.53-1.128,1.129,1.129,0,0,0-1.573.113,17.051,17.051,0,0,0-.375,2.736,6.119,6.119,0,0,1,.281,1.987,3.95,3.95,0,0,0-.133,1.922A9.08,9.08,0,0,1,843.723,339.357Z" transform="translate(-843.411 -330.184)" fill="#263238"/></g><g transform="translate(5.002 1.751)"><path d="M846.633,342.788s-.029.03-.09.073a2.3,2.3,0,0,1-.27.162,3.3,3.3,0,0,1-2.021.332,2.287,2.287,0,0,1-.307-.068.356.356,0,0,1-.108-.04c0-.012.162.028.422.057a3.722,3.722,0,0,0,1.991-.327C846.489,342.866,846.626,342.777,846.633,342.788Z" transform="translate(-843.838 -342.787)" fill="#455a64"/></g><g transform="translate(5.106 1.915)"><path d="M847.5,343.967a.564.564,0,0,1-.049.137,1.2,1.2,0,0,1-.074.154,1.991,1.991,0,0,1-.113.2,3.011,3.011,0,0,1-.364.465,3.206,3.206,0,0,1-1.2.792,3,3,0,0,1-.571.151,2.046,2.046,0,0,1-.225.027,1.21,1.21,0,0,1-.171.007.557.557,0,0,1-.145-.009c0-.014.207-.011.532-.075a3.333,3.333,0,0,0,.556-.163,3.375,3.375,0,0,0,1.177-.776,3.338,3.338,0,0,0,.369-.447C847.408,344.153,847.487,343.961,847.5,343.967Z" transform="translate(-844.587 -343.967)" fill="#455a64"/></g><g transform="translate(6.108 3.76)"><path d="M852.5,363.969s.029,0,.081-.009a.363.363,0,0,0,.194-.116.5.5,0,0,0,.126-.331,1.618,1.618,0,0,0-.087-.479,1.041,1.041,0,0,1-.036-.606,1.772,1.772,0,0,1,.4-.567,1.1,1.1,0,0,0,.2-.3.417.417,0,0,0-.01-.348.789.789,0,0,0-.261-.277c-.109-.079-.229-.148-.343-.233a.748.748,0,0,1-.276-.329.51.51,0,0,1,.043-.417c.13-.24.334-.414.382-.643a.781.781,0,0,0-.171-.619,2.744,2.744,0,0,0-.405-.433,2.79,2.79,0,0,1-.34-.365,1.1,1.1,0,0,1-.176-.335.687.687,0,0,1-.027-.237.327.327,0,0,1,.015-.082.878.878,0,0,0,.039.311,1.708,1.708,0,0,0,.523.671,2.711,2.711,0,0,1,.42.436,1.16,1.16,0,0,1,.163.3.667.667,0,0,1,.025.367c-.055.258-.267.438-.384.662a.438.438,0,0,0-.038.36.682.682,0,0,0,.251.3c.11.082.23.152.342.233a.858.858,0,0,1,.283.3.488.488,0,0,1,.011.4,1.161,1.161,0,0,1-.215.316,1.744,1.744,0,0,0-.4.542,1,1,0,0,0,.029.574,1.614,1.614,0,0,1,.078.494.521.521,0,0,1-.146.348.361.361,0,0,1-.212.111A.194.194,0,0,1,852.5,363.969Z" transform="translate(-851.799 -357.244)" fill="#455a64"/></g></g></g></g></svg>