<svg xmlns="http://www.w3.org/2000/svg" width="45.575" height="74.282" viewBox="0 0 45.575 74.282"><g transform="translate(5.11 12.376)"><path d="M2653.266,1272.36a13.224,13.224,0,0,1,4.057-6.83" transform="translate(-2648.439 -1258.203)" fill="none" stroke="#ecebf2" stroke-miterlimit="10" stroke-width="8"/><path d="M2655.51,1862.407a13.284,13.284,0,0,1-22.148-9.468" transform="translate(-2628.884 -1835.304)" fill="none" stroke="#ecebf2" stroke-miterlimit="10" stroke-width="8"/><path d="M3632.941,1111.9a13.3,13.3,0,0,1,8.708,9.706" transform="translate(-3610.922 -1107.27)" fill="none" stroke="#ecebf2" stroke-miterlimit="10" stroke-width="8"/><g transform="translate(6.85 9.828)"><g transform="translate(13.944 0)"><path d="M3566.158,1414.549v.211a.188.188,0,0,0,.188.187l.533,0a.188.188,0,0,0,.187-.188v-.211a.188.188,0,0,1,.149-.184,2.915,2.915,0,0,0,.993-.416.187.187,0,0,1,.236.023l.15.149a.188.188,0,0,0,.266,0l.376-.378a.188.188,0,0,0,0-.266l-.15-.149a.188.188,0,0,1-.025-.236,2.914,2.914,0,0,0,.409-1,.188.188,0,0,1,.183-.151h.211a.188.188,0,0,0,.187-.189l0-.533a.188.188,0,0,0-.188-.187h-.21a.188.188,0,0,1-.185-.149,2.914,2.914,0,0,0-.416-.992.188.188,0,0,1,.024-.236l.148-.15a.188.188,0,0,0,0-.266l-.378-.376a.188.188,0,0,0-.266,0l-.149.15a.188.188,0,0,1-.236.025,2.907,2.907,0,0,0-1-.409.188.188,0,0,1-.151-.183v-.211a.188.188,0,0,0-.188-.187l-.533,0a.188.188,0,0,0-.187.188v.211a.188.188,0,0,1-.149.184,2.912,2.912,0,0,0-.992.416.188.188,0,0,1-.236-.023l-.15-.149a.188.188,0,0,0-.266,0l-.375.378a.188.188,0,0,0,0,.266l.15.149a.188.188,0,0,1,.025.236,2.9,2.9,0,0,0-.409,1,.188.188,0,0,1-.184.151h-.21a.188.188,0,0,0-.187.188l0,.533a.188.188,0,0,0,.188.187h.211a.189.189,0,0,1,.185.15,2.909,2.909,0,0,0,.416.992.188.188,0,0,1-.023.236l-.149.15a.188.188,0,0,0,0,.266l.378.376a.188.188,0,0,0,.266,0l.149-.15a.188.188,0,0,1,.236-.025,2.906,2.906,0,0,0,1,.409A.188.188,0,0,1,3566.158,1414.549Zm-.005-1.533a1.582,1.582,0,0,1-.941-.762,1.557,1.557,0,0,1-.124-.3,1.59,1.59,0,0,1,0-.909,1.567,1.567,0,0,1,.122-.3,1.581,1.581,0,0,1,2.785-.01,1.557,1.557,0,0,1,.124.3,1.582,1.582,0,0,1-1.962,1.976Z" transform="translate(-3563.154 -1408.051)" fill="#d3d2e2"/></g><g transform="translate(12.368 5.834)"><path d="M3477.637,1748.4l.05.249a.226.226,0,0,0,.267.178l.631-.126a.227.227,0,0,0,.178-.267l-.05-.25a.227.227,0,0,1,.134-.253,3.514,3.514,0,0,0,1.079-.723.227.227,0,0,1,.285-.027l.212.142a.227.227,0,0,0,.314-.063l.357-.535a.227.227,0,0,0-.063-.314l-.212-.141a.226.226,0,0,1-.084-.273,3.521,3.521,0,0,0,.253-1.274.227.227,0,0,1,.182-.221l.249-.05a.227.227,0,0,0,.178-.267l-.126-.631a.227.227,0,0,0-.267-.178l-.25.05a.227.227,0,0,1-.253-.134,3.507,3.507,0,0,0-.723-1.079.227.227,0,0,1-.027-.285l.142-.212a.227.227,0,0,0-.063-.314l-.535-.357a.227.227,0,0,0-.314.063l-.142.212a.227.227,0,0,1-.273.084,3.512,3.512,0,0,0-1.274-.253.227.227,0,0,1-.221-.182l-.05-.249a.227.227,0,0,0-.267-.178l-.631.126a.227.227,0,0,0-.178.267l.05.249a.227.227,0,0,1-.135.253,3.513,3.513,0,0,0-1.079.723.227.227,0,0,1-.285.027l-.212-.142a.227.227,0,0,0-.314.063l-.357.535a.227.227,0,0,0,.063.314l.212.141a.227.227,0,0,1,.084.273,3.51,3.51,0,0,0-.253,1.274.228.228,0,0,1-.183.221l-.249.05a.227.227,0,0,0-.178.267l.126.631a.227.227,0,0,0,.267.178l.25-.05a.227.227,0,0,1,.253.134,3.506,3.506,0,0,0,.723,1.079.227.227,0,0,1,.027.285l-.142.212a.227.227,0,0,0,.063.315l.535.357a.227.227,0,0,0,.314-.063l.142-.212a.227.227,0,0,1,.273-.084,3.513,3.513,0,0,0,1.274.253A.228.228,0,0,1,3477.637,1748.4Zm-.362-1.815a1.9,1.9,0,0,1-.379-.075,1.912,1.912,0,0,1-1.342-2.006,1.894,1.894,0,0,1,.075-.379,1.918,1.918,0,0,1,.609-.913,1.882,1.882,0,0,1,.321-.215,1.91,1.91,0,0,1,2.113,3.158,1.881,1.881,0,0,1-.321.215,1.915,1.915,0,0,1-1.076.215Z" transform="translate(-3473.307 -1740.535)" fill="#d3d2e2"/></g><g transform="translate(0 0.478)"><path d="M2779.119,1440.527a4.843,4.843,0,0,0-.5-1.717.313.313,0,0,1,.082-.385l.273-.22a.313.313,0,0,0,.048-.439l-.556-.69a.312.312,0,0,0-.439-.047l-.273.22a.312.312,0,0,1-.394,0,4.836,4.836,0,0,0-1.57-.859.313.313,0,0,1-.215-.331l.038-.348a.312.312,0,0,0-.277-.344l-.881-.1a.312.312,0,0,0-.344.277l-.038.348a.313.313,0,0,1-.281.277,4.843,4.843,0,0,0-1.717.5.312.312,0,0,1-.385-.082l-.22-.273a.313.313,0,0,0-.439-.048l-.691.556a.312.312,0,0,0-.047.439l.22.273a.312.312,0,0,1,0,.394,4.846,4.846,0,0,0-.859,1.57.313.313,0,0,1-.331.215l-.348-.038a.312.312,0,0,0-.344.277l-.1.881a.312.312,0,0,0,.277.344l.348.038a.313.313,0,0,1,.277.281,4.838,4.838,0,0,0,.5,1.717.312.312,0,0,1-.082.385l-.273.22a.313.313,0,0,0-.048.439l.556.69a.312.312,0,0,0,.439.047l.273-.22a.312.312,0,0,1,.394,0,4.838,4.838,0,0,0,1.57.859.313.313,0,0,1,.215.331l-.038.348a.312.312,0,0,0,.277.344l.881.1a.313.313,0,0,0,.344-.277l.038-.348a.313.313,0,0,1,.281-.277,4.84,4.84,0,0,0,1.717-.5.312.312,0,0,1,.385.082l.22.273a.313.313,0,0,0,.439.047l.69-.556a.312.312,0,0,0,.048-.439l-.22-.273a.312.312,0,0,1,0-.394,4.837,4.837,0,0,0,.859-1.569.313.313,0,0,1,.331-.216l.348.038a.312.312,0,0,0,.344-.277l.1-.881a.313.313,0,0,0-.277-.344l-.348-.037A.313.313,0,0,1,2779.119,1440.527Zm-2.229.771a2.632,2.632,0,1,1-.029-.763A2.627,2.627,0,0,1,2776.89,1441.3Z" transform="translate(-2768.526 -1435.266)" fill="#d3d2e2"/></g></g><path d="M3118.381,1072.874a13.3,13.3,0,0,1,5.773-.843" transform="translate(-3105.392 -1068.062)" fill="none" stroke="#e2f3f7" stroke-miterlimit="10" stroke-width="8"/><path d="M4081.725,1792.506a13.327,13.327,0,0,1-1.151,6.09" transform="translate(-4050.7 -1775.932)" fill="none" stroke="#ecebf2" stroke-miterlimit="10" stroke-width="8"/><g transform="translate(25.951 4.207)"><path d="M3862.369,1091.786h-3.454l-1.915,1.391.652-2.006v-2.819a.615.615,0,0,1,.615-.615h4.1a.615.615,0,0,1,.615.615v2.819A.615.615,0,0,1,3862.369,1091.786Z" transform="translate(-3857 -1087.737)" fill="#d3d2e2"/><path d="M3966.227,1132.368h-.068a.232.232,0,0,1-.235-.228v-.452a.231.231,0,0,0-.235-.228h-.391a.231.231,0,0,0-.235.228v.452a.232.232,0,0,1-.235.228h-.071a.232.232,0,0,1-.235-.228v-1.8a.231.231,0,0,1,.235-.228h.071a.232.232,0,0,1,.235.228v.489a.231.231,0,0,0,.235.228h.391a.231.231,0,0,0,.235-.228v-.489a.232.232,0,0,1,.235-.228h.068a.231.231,0,0,1,.235.228v1.8A.232.232,0,0,1,3966.227,1132.368Z" transform="translate(-3962.635 -1129.367)" fill="#fff"/><path d="M4098.676,1172.23h0a.26.26,0,0,1-.259-.261v-1.023a.26.26,0,0,1,.259-.261h0a.26.26,0,0,1,.259.261v1.023A.26.26,0,0,1,4098.676,1172.23Z" transform="translate(-4094.181 -1169.229)" fill="#fff"/><circle cx="0.249" cy="0.249" r="0.249" transform="translate(4.254 0.74)" fill="#fff"/></g><g transform="translate(4.134 2.444)"><path d="M2614.065,990.255h3.89l1.4,1.178-.59-1.518v-2.307a.341.341,0,0,0-.341-.341h-4.359a.34.34,0,0,0-.34.341v2.307A.34.34,0,0,0,2614.065,990.255Z" transform="translate(-2613.725 -987.266)" fill="#d3d2e2"/><circle cx="1.115" cy="1.115" r="1.115" transform="translate(1.378 0.369)" fill="#fff"/><path d="M2733.378,1039.52l-.69-.4a.175.175,0,0,0-.263.152v.8a.175.175,0,0,0,.263.152l.69-.4A.175.175,0,0,0,2733.378,1039.52Z" transform="translate(-2730.343 -1038.188)" fill="#d3d2e2"/></g><g transform="translate(26.8 24.9)"><path d="M3911.26,2268.267h-4.387l-1.487-1.3.745,1.579v3.283a.28.28,0,0,0,.28.28h4.849a.28.28,0,0,0,.28-.28v-3.283A.28.28,0,0,0,3911.26,2268.267Z" transform="translate(-3905.386 -2266.967)" fill="#d3d2e2"/><rect width="4.48" height="2.331" rx="1.165" transform="translate(1.237 2.462)" fill="#fff"/><circle cx="0.532" cy="0.532" r="0.532" transform="matrix(0.23, -0.973, 0.973, 0.23, 2.837, 4.023)" fill="#d3d2e2"/><rect width="2.404" height="0.146" transform="translate(2.002 1.734)" fill="#fff"/><rect width="3.005" height="0.219" transform="translate(2.002 2.025)" fill="#fff"/><path d="M4092.587,2455.794l-.583-.336v.673Z" transform="translate(-4088.73 -2452.15)" fill="#fff"/><circle cx="0.282" cy="0.282" r="0.282" transform="translate(1.104 2.195) rotate(-80.783)" fill="#fff"/></g><g transform="translate(1.91 24.765)"><path d="M2491.761,2261.2a9.322,9.322,0,0,1,1.079-1.934,10.092,10.092,0,0,1-1.887.669,3,3,0,0,0-1.572-.419c-1.315,0-2.381.754-2.381,1.684s1.066,1.684,2.381,1.684S2491.761,2262.128,2491.761,2261.2Z" transform="translate(-2487 -2259.265)" fill="#d3d2e2"/><g transform="translate(0.922 1.56)"><circle cx="0.367" cy="0.367" r="0.367" transform="translate(2.148)" fill="#fff"/><circle cx="0.367" cy="0.367" r="0.367" transform="translate(1.074)" fill="#fff"/><circle cx="0.367" cy="0.367" r="0.367" fill="#fff"/></g></g><g transform="translate(29.084 12.582)"><path d="M4040.69,1568.161h-2.7l-2.446.875,1.46-1.355v-2.2a.48.48,0,0,1,.48-.48h3.2a.48.48,0,0,1,.48.48v2.2A.48.48,0,0,1,4040.69,1568.161Z" transform="translate(-4035.547 -1565)" fill="#d3d2e2"/><rect width="2.75" height="0.257" transform="translate(2.18 0.874)" fill="#fff"/><rect width="2.75" height="0.257" transform="translate(2.18 1.465)" fill="#fff"/><rect width="2.75" height="0.257" transform="translate(2.18 1.979)" fill="#fff"/></g><circle cx="0.853" cy="0.853" r="0.853" transform="translate(2.478)" fill="none" stroke="#ecebf2" stroke-miterlimit="10" stroke-width="8"/><ellipse cx="0.853" cy="0.568" rx="0.853" ry="0.568" transform="translate(24.648 31.265)" fill="none" stroke="#ecebf2" stroke-miterlimit="10" stroke-width="8"/><g transform="translate(2.077 7.446)"><line x1="0.05" y2="1.411" transform="translate(0.668 0)" fill="none" stroke="#ecebf2" stroke-miterlimit="10" stroke-width="8"/><line x1="1.385" y2="0.272" transform="translate(0 0.569)" fill="none" stroke="#ecebf2" stroke-miterlimit="10" stroke-width="8"/></g><g transform="translate(32.734 8.832)"><line x1="0.05" y2="1.411" transform="translate(0.668)" fill="none" stroke="#ecebf2" stroke-miterlimit="10" stroke-width="8"/><line x1="1.385" y2="0.272" transform="translate(0 0.569)" fill="none" stroke="#ecebf2" stroke-miterlimit="10" stroke-width="8"/></g><g transform="translate(11.114 30.785)"><line x1="0.05" y2="1.411" transform="translate(0.668 0)" fill="none" stroke="#ecebf2" stroke-miterlimit="10" stroke-width="8"/><line x1="1.385" y2="0.272" transform="translate(0 0.569)" fill="none" stroke="#ecebf2" stroke-miterlimit="10" stroke-width="8"/></g><g transform="translate(29.768 0.707)"><line x1="0.05" y2="1.411" transform="translate(0.668 0)" fill="none" stroke="#ecebf2" stroke-miterlimit="10" stroke-width="8"/><line x1="1.385" y2="0.272" transform="translate(0 0.569)" fill="none" stroke="#ecebf2" stroke-miterlimit="10" stroke-width="8"/></g><path d="M4235.671,2132.145l-1.468.394,1.074,1.075Z" transform="translate(-4201.634 -2109.61)" fill="none" stroke="#ecebf2" stroke-miterlimit="10" stroke-width="8"/><path d="M3217.671,879.145l-1.468.393,1.074,1.075Z" transform="translate(-3201.498 -878.598)" fill="none" stroke="#ecebf2" stroke-miterlimit="10" stroke-width="8"/><path d="M2521.115,1723.873l-1.514-.135.64,1.379Z" transform="translate(-2517.119 -1708.37)" fill="none" stroke="#ecebf2" stroke-miterlimit="10" stroke-width="8"/><g transform="translate(11.188 3.922)"><path d="M3029.168,1072.864V1096a1.1,1.1,0,0,1-1.135,1.07H3017.34a1.1,1.1,0,0,1-1.135-1.07v-23.135a1.1,1.1,0,0,1,1.135-1.071h10.693A1.1,1.1,0,0,1,3029.168,1072.864Z" transform="translate(-3016.197 -1071.788)" fill="#5c50e7"/><path d="M3029.168,1088.055v.107h-12.963v-.107a1.13,1.13,0,0,1,1.135-1.125h10.693A1.13,1.13,0,0,1,3029.168,1088.055Z" transform="translate(-3016.197 -1086.659)" fill="#fff"/><path d="M3028.7,1072.591v23.081a1.1,1.1,0,0,1-1.1,1.1h-10.774a1.1,1.1,0,0,1-1.1-1.1v-23.081a1.1,1.1,0,0,1,1.1-1.1H3027.6A1.1,1.1,0,0,1,3028.7,1072.591Z" transform="translate(-3015.719 -1071.488)" fill="none" stroke="#4b4b8b" stroke-miterlimit="10" stroke-width="32.595"/><circle cx="0.248" cy="0.248" r="0.248" transform="translate(1.07 0.639)" fill="#afafca"/><circle cx="0.248" cy="0.248" r="0.248" transform="translate(1.672 0.896) rotate(-45)" fill="#afafca"/><circle cx="0.248" cy="0.248" r="0.248" transform="translate(2.48 0.658)" fill="#afafca"/><rect width="0.915" height="0.553" transform="translate(11.06 0.61)" fill="#afafca"/><rect width="0.172" height="0.553" transform="translate(10.774 0.61)" fill="#afafca"/></g><g transform="translate(0 3.922)"><line y1="4.414" transform="translate(15.077 2.337)" fill="none" stroke="#17152f" stroke-miterlimit="10" stroke-width="26.525"/><g transform="translate(1.079 29.286)"><path d="M3091.878,1840.852l-.685,1.968-1.7,4.887-.617,1.772-.126,3.148-.216,5.383-.005.129-.828-.033-.73-.029.008-.209.225-5.614.123-3.07.677-1.946,1.859-5.337.544-1.564.421.146Z" transform="translate(-3086.969 -1840.339)" fill="#17152f"/></g><path d="M3067.469,2214.067c-.426.905-.708,1.6-1.878,1.514a1.758,1.758,0,0,1-.517-.114c-.657-.262-.9-.927-1.018-1.746a1.2,1.2,0,0,1,1.066-1.5,2.985,2.985,0,0,1,.716-.02l.1.009a3.407,3.407,0,0,1,.744.153A1.145,1.145,0,0,1,3067.469,2214.067Z" transform="translate(-3064.035 -2165.401)" fill="#fff"/><path d="M3084.362,1989.806c-.242,1.183-.333,2.146-.794,2.518a.826.826,0,0,1-.622.161,1.524,1.524,0,0,1-.178-.027,1.121,1.121,0,0,1-.746-.507,6.127,6.127,0,0,1-.486-2.915c-.03-1.426.163-2.152,1.286-2.1a3.416,3.416,0,0,1,.417.047,3.729,3.729,0,0,1,.489.115,1.583,1.583,0,0,1,.583.306C3084.868,1987.9,3084.584,1988.727,3084.362,1989.806Z" transform="translate(-3080.709 -1950.75)" fill="#fff"/><path d="M3321.817,1337.461v.955a.822.822,0,0,1-.82.821h-4.721a.821.821,0,0,1-.821-.821v-.955a.821.821,0,0,1,.821-.821H3321A.82.82,0,0,1,3321.817,1337.461Z" transform="translate(-3303.623 -1331.058)" fill="#fff"/><path d="M3351.937,1219.688a1.688,1.688,0,1,1-1.688-1.688A1.689,1.689,0,0,1,3351.937,1219.688Z" transform="translate(-3335.172 -1218)" fill="#fff"/><path d="M3188.965,1758.385l-1,9.326a10.583,10.583,0,0,1-.473,2.165q-.088.269-.189.534a12.275,12.275,0,0,1-1.558,2.861c-.073.1-.15.2-.227.3a8.549,8.549,0,0,1-6.534,3.612,6.527,6.527,0,0,1-.845-.055,8.908,8.908,0,0,1-5.666-3.542c-.078-.1-.153-.2-.228-.3a12.332,12.332,0,0,1-1.528-2.759h0q-.1-.246-.184-.5a10.7,10.7,0,0,1-.513-2.186l-1.149-9.382a5.225,5.225,0,0,1,.654-3.245c.053-.092.109-.183.168-.272l.026-.04c.075-.112.153-.22.236-.325a5.255,5.255,0,0,1,4.148-2.016h9.619a5.256,5.256,0,0,1,4.165,2.036c.083.105.161.214.234.326l.019.027q.087.134.167.272A5.222,5.222,0,0,1,3188.965,1758.385Z" transform="translate(-3163.902 -1727.411)" fill="#fff"/><path d="M3242.38,1742.155c0,.806-3.287,1.849-7.342,1.849s-7.342-1.043-7.342-1.849,3.287-1.459,7.342-1.459S3242.38,1741.349,3242.38,1742.155Z" transform="translate(-3219.995 -1716.099)" fill="#e1ebf0"/><path d="M3317.982,1698.383c0,.042,0,.083,0,.123-.048.709-.518,1.085-1.233,1.281a8.723,8.723,0,0,1-2.178.2c-1.829,0-3.322-.187-3.41-1.481,0-.04,0-.081,0-.123a1.925,1.925,0,0,1,.08-.551,3.343,3.343,0,0,1,3.334-2,4.08,4.08,0,0,1,2.375.717,2.474,2.474,0,0,1,.957,1.266A1.953,1.953,0,0,1,3317.982,1698.383Z" transform="translate(-3299.524 -1673.351)" fill="#17152f"/><path d="M3181.2,1366.179c0,4.615-2.982,7.123-7.124,7.95a15.8,15.8,0,0,1-1.882.257c-.483.038-.978.057-1.48.057a17.264,17.264,0,0,1-3.3-.3c-4.173-.816-7.182-3.325-7.182-7.962a9.87,9.87,0,0,1,7.3-9.571,11.382,11.382,0,0,1,3.181-.447h.064a11.5,11.5,0,0,1,2.044.192c.365.068.723.153,1.072.254A9.871,9.871,0,0,1,3181.2,1366.179Z" transform="translate(-3155.7 -1349.659)" fill="#fff"/><rect width="18.68" height="10.483" rx="5.241" transform="translate(5.672 11.278)" fill="#17152f"/><circle cx="1.285" cy="1.285" r="1.285" transform="translate(8.884 17.475) rotate(-76.717)" fill="#244de6" stroke="#244de6" stroke-miterlimit="10" stroke-width="12.434"/><g transform="translate(11.939 31.695)"><circle cx="0.817" cy="0.817" r="0.817" fill="#17152f"/><circle cx="0.817" cy="0.817" r="0.817" transform="translate(2.257)" fill="#17152f"/><circle cx="0.817" cy="0.817" r="0.817" transform="translate(4.514)" fill="#17152f"/></g><circle cx="1.285" cy="1.285" r="1.285" transform="translate(17.935 16.519) rotate(-45)" fill="#244de6" stroke="#244de6" stroke-miterlimit="10" stroke-width="12.434"/><path d="M3573.046,1800.325a2.86,2.86,0,0,1-.168.979,2.344,2.344,0,0,1-.323.605,1.571,1.571,0,0,1-.9.621,1.257,1.257,0,0,1-.273.03c-.92,0-.972-1-.972-2.235a3.159,3.159,0,0,1,.377-2.008.78.78,0,0,1,.595-.227C3572.3,1798.09,3573.046,1799.09,3573.046,1800.325Z" transform="translate(-3546.579 -1770.792)" fill="#fff"/><path d="M3144.257,1800.325c0,1.234-.052,2.235-.973,2.235h-.014a1.392,1.392,0,0,1-.95-.411,2.044,2.044,0,0,1-.382-.506,2.758,2.758,0,0,1-.32-1.317c0-1.234.746-2.235,1.667-2.235a1.045,1.045,0,0,1,.222.022C3144.213,1798.267,3144.257,1799.2,3144.257,1800.325Z" transform="translate(-3137.967 -1770.792)" fill="#fff"/><path d="M3330.194,1616.088c.207-.02.415-.029.622-.043l.622-.025c.415-.014.829-.013,1.244-.02s.829.006,1.244.021l.622.024c.208.014.414.023.622.043v.176a3.188,3.188,0,0,1-.311.415,3.672,3.672,0,0,1-.311.317,3.463,3.463,0,0,1-.311.247,2.576,2.576,0,0,1-.312.195,2.61,2.61,0,0,1-1.244.322,2.58,2.58,0,0,1-1.244-.318,2.547,2.547,0,0,1-.311-.194c-.052-.039-.1-.073-.156-.116s-.1-.085-.156-.132a3.906,3.906,0,0,1-.311-.318,3.094,3.094,0,0,1-.311-.417Z" transform="translate(-3317.669 -1597.271)" fill="#fff"/><path d="M3221.938,2120.408q-.089.268-.189.534a18,18,0,0,1-7.912,1.67c-.824,0-1.6-.044-2.319-.11a23.774,23.774,0,0,1-6.355-1.441h0q-.1-.246-.184-.5a23.227,23.227,0,0,0,6.575,1.549A18.782,18.782,0,0,0,3221.938,2120.408Z" transform="translate(-3198.346 -2077.942)" fill="#17152f"/><path d="M3206.09,1795.75a15.077,15.077,0,0,1-2.1.855,23.638,23.638,0,0,1-7.2,1.034h-.22a22.39,22.39,0,0,1-8.881-1.91c.074-.112.153-.219.236-.325a21.965,21.965,0,0,0,8.648,1.844,20.777,20.777,0,0,0,9.284-1.824C3205.938,1795.53,3206.016,1795.639,3206.09,1795.75Z" transform="translate(-3181.869 -1768.233)" fill="#17152f"/><ellipse cx="7.957" cy="1.281" rx="7.957" ry="1.281" transform="translate(7.055 55.423)" fill="#5f50e9" opacity="0.25" style="mix-blend-mode:multiply;isolation:isolate"/><path d="M3711.818,1679.8a6.11,6.11,0,0,0,.459-2.918,1.16,1.16,0,0,0-.2-.423,1.263,1.263,0,0,0-.5-.375.821.821,0,0,0-.642-.043c-.556.208-.945,1.092-1.549,2.138-.551.955-1.081,1.65-.709,2.3a2.027,2.027,0,0,0,.8.694l.081.044a3.332,3.332,0,0,0,.381.177C3710.985,1681.795,3711.4,1681.167,3711.818,1679.8Z" transform="translate(-3678.216 -1654.445)" fill="#fff"/><path d="M3689.62,1490.532c-.215-.992-.607-1.738-1.667-1.744a1.582,1.582,0,0,0-.938.243,2.817,2.817,0,0,0-.825,1.4,1.145,1.145,0,0,0,.913,1.645,3.357,3.357,0,0,0,.753.1,3.6,3.6,0,0,0,.518-.02,2.637,2.637,0,0,0,.29-.05A1.2,1.2,0,0,0,3689.62,1490.532Z" transform="translate(-3656.808 -1476.045)" fill="#fff"/></g></g></svg>