<svg xmlns="http://www.w3.org/2000/svg" width="86.03" height="62.871" viewBox="0 0 86.03 62.871"><g transform="translate(0 53.715)"><path d="M100.468,668.109a72.361,72.361,0,0,0-7.554.337c-.948.1-1.877.327-2.827.417-1.9.181-3.763.519-5.668.674-1.534.125-3.075.2-4.6.359a16.723,16.723,0,0,1-4.445-.132,30.5,30.5,0,0,1-3.148-.578,13.262,13.262,0,0,0-3.625-.554,15.159,15.159,0,0,0-5.046.592,5.006,5.006,0,0,0-1.726.964,3.629,3.629,0,0,0-.138,4.426c1.691,1.7,5.3,2.373,7.67,2.4,2.6.034,5.12-.152,7.721-.262,2.417-.1,4.828-.247,7.249-.242,4.944.011,9.889,0,14.825-.32,4.637-.3,9.286-.2,13.933-.2a110.231,110.231,0,0,1,14.23.65c2.061.267,4.161.361,6.233.548a31.2,31.2,0,0,0,5.486-.158,13.432,13.432,0,0,0,4.5-1.169c1.116-.516,3.105-2.121,3.448-3.354.959-3.456-13.521-3.373-15.744-3.366-2.487.009-4.994.088-7.479,0a18.163,18.163,0,0,1-3.1-.453,25.173,25.173,0,0,0-3.071-.252c-4.3-.378-8.6-.323-12.916-.323C103.276,668.117,101.872,668.1,100.468,668.109Z" transform="translate(-61 -668.108)" fill="#f7f7f7"/></g><g transform="translate(7.693 0)"><g transform="translate(11.92)"><path d="M295.137,55.717c.174,0,.347.006.519.018A7.166,7.166,0,0,1,307,51.279a7.522,7.522,0,0,1,14.043,4.456c.171-.012.343-.018.517-.018a7.477,7.477,0,1,1,0,14.953H295.137a7.477,7.477,0,1,1,0-14.953Z" transform="translate(-287.608 -47.484)" fill="#7db5db"/></g><g transform="translate(0 25.091)"><g transform="translate(3.75 22.156)"><g transform="translate(1.066 12.849)"><path d="M207.321,742.441l-.058.6-1.213.519-.52-.639.635-.559,1.213-.519Z" transform="translate(-205.531 -741.842)" fill="#151f2d"/></g><path d="M197.083,594.695l-.934,11.951-1.168.159-.967-10.186-.8-3.232Z" transform="translate(-193.215 -593.387)" fill="#4b505b"/></g><g transform="translate(6.605 20.328)"><path d="M230.013,572.261l.7,14.2-1.066.2-2.221-10.745-1.222-3.111Z" transform="translate(-226.205 -572.261)" fill="#4b505b"/><g transform="translate(3.423 14.051)"><path d="M265.874,735.425l1.266.387.463-.712-.69-.5-1.153.217Z" transform="translate(-265.76 -734.604)" fill="#151f2d"/></g></g><g transform="translate(0.85 4.569)"><path d="M167.763,390.6c-.863-.715-2.944-.3-4.038-.3.105,0-1.038,6.111-1.074,6.644a16.3,16.3,0,0,1-1.565,5.688,18.953,18.953,0,0,0-1.017,2.263,11.238,11.238,0,0,0-.295,4.2,26.352,26.352,0,0,0,3.484,1.084,13.878,13.878,0,0,0,3-.142c1.181-.1,2.37-.077,3.552-.167a8.647,8.647,0,0,0,3.423-.866,24.781,24.781,0,0,1-1.917-5.881c-.1-.91-.114-1.836-.247-2.758-.154-1.073-.339-2.143-.6-3.2a24.046,24.046,0,0,0-1.158-3.533,9.867,9.867,0,0,0-1.476-2.971Q167.8,390.63,167.763,390.6Z" transform="translate(-159.707 -390.178)" fill="#587bc9"/></g><g transform="translate(2.523)"><g transform="translate(4.55 0.535)"><path d="M231.6,344.729a1.772,1.772,0,0,1,1.353,1.143c.063.278-.027.533.053.828.155.581-.549,1.438.148,1.842a1.785,1.785,0,0,0,1.212.067.3.3,0,0,0,.14-.05.213.213,0,0,0,.051-.228.866.866,0,0,0-.122-.214,7.563,7.563,0,0,1-.549-2.571,2.655,2.655,0,0,0-1.435-1.968,1.861,1.861,0,0,0-.8,1.159Z" transform="translate(-231.604 -343.578)" fill="#3b455a"/></g><g transform="translate(2.652 1.029)"><path d="M212.26,353.462a1.811,1.811,0,0,0,.989-1.321,3.626,3.626,0,0,0-.131-1.695c-.515-1.833-2.815-1.308-3.352.259C209.3,352.071,210.731,354.116,212.26,353.462Z" transform="translate(-209.676 -349.284)" fill="#eac1a4"/></g><path d="M181.592,343.607a1.611,1.611,0,0,0,.661-.628,4.884,4.884,0,0,0,.169-1.763,2.411,2.411,0,0,1,.461-1.562,1.314,1.314,0,0,1,.9-.372c.236-.024.253.065.442-.079a1.025,1.025,0,0,0,.272-.585.985.985,0,0,0-.314-.791,1.38,1.38,0,0,0-1.12-.432,3.091,3.091,0,0,0-2.927,2.651c-.147.741.076,1.533-.087,2.248-.1.441-.352.751-.424,1.218a16.076,16.076,0,0,0-.56,4.01.173.173,0,0,0,.052.122c.075.056.172-.028.226-.1l.953-1.32a2.3,2.3,0,0,0,.323-.549c.18-.5.013-1.111.323-1.541A2.131,2.131,0,0,1,181.592,343.607Z" transform="translate(-179.034 -337.391)" fill="#3b455a"/></g><g transform="translate(0 6.352)"><g transform="translate(2.648 10.705)"><path d="M180.489,535.367a1.779,1.779,0,0,0,.491,1.268c.667.4.425-.6.419-.961a2,2,0,0,0,.379.086c.119.01-.233-1.054-.35-1.153-.281-.238-.481-.116-.822-.079C180.574,534.807,180.53,535.087,180.489,535.367Z" transform="translate(-180.484 -534.463)" fill="#eac1a4"/></g><path d="M153.381,411.165l-3.493,6.1,2.484,5.327.842-1.114-.887-4.768,3.3-2.016-.361-3.916Z" transform="translate(-149.888 -410.777)" fill="#587bc9"/></g><path d="M258.227,401.726l3.1,4.951,1.7-2.361,1.605.27-.761,3.83-2.108,1.564-3.534-2.119Z" transform="translate(-248.85 -396.158)" fill="#587bc9"/></g><g transform="translate(24.844 21.536)"><path d="M444.243,409.178l-1.367.469-2.211,3.314-2.832-1.895-.9,1.068,1.428,2.119,2.572,1.836,3.31-3.464Z" transform="translate(-436.933 -399.41)" fill="#bcbec0"/><path d="M577.471,298.733l.1-1.487-1.2-.931-.5.66.543.97-.194.5.533.8Z" transform="translate(-563.844 -296.315)" fill="#eac1a4"/><g transform="translate(3.086 3.488)"><g transform="translate(0.914 15.06)"><path d="M483.246,511.38l-.1,8.413.9,10.831h1.219l1.459-9.992,1.668-10.01Z" transform="translate(-483.148 -510.622)" fill="#3b455a"/><path d="M486.642,740.708l-1.318.659-.659-.659.659-.659h1.318Z" transform="translate(-484.533 -720.192)" fill="#151f2d"/><g transform="translate(3.31)"><path d="M526.54,511.38l.024,4.867-.822,14.377h-1.219l-2.039-9.54-1.089-10.461Z" transform="translate(-521.395 -510.622)" fill="#3b455a"/><path d="M557.619,740.708l1.318.659.659-.659-.659-.659h-1.318Z" transform="translate(-554.483 -720.192)" fill="#151f2d"/></g></g><path d="M483.23,416.49c.026.772.009,1.805-.316,1.844a.321.321,0,0,1-.173-.046c-.565-.275-.968-.663-1.526-.928a6.888,6.888,0,0,0-1.9-.524,19.725,19.725,0,0,0-2.925-.256,9.928,9.928,0,0,0-2.5.584,2.76,2.76,0,0,0-.805.477c-.374.257-.538.359-.487-.166.083-.857.17-1.714.275-2.569a31.692,31.692,0,0,1,.981-5.057c.185-.631.4-1.252.612-1.874l.78-2.271a2.841,2.841,0,0,1,1.823-1.932,3.563,3.563,0,0,1,2.652.036c.892.443,1.316,1.95,1.75,2.756a17.181,17.181,0,0,1,1,3.393c.171.916.329,1.828.453,2.737a28.039,28.039,0,0,1,.263,3.01C483.2,415.812,483.218,416.121,483.23,416.49Z" transform="translate(-472.593 -397.741)" fill="#bcbec0"/><g transform="translate(2.623)"><path d="M519.918,368.179a.2.2,0,0,0,.067.039.372.372,0,0,0,.16,0l.654-.077c-.072-.667.318-.818.7-1.248s.267-1.022.245-1.554a1.135,1.135,0,0,0-.076-.436.952.952,0,0,0-.615-.444,2.317,2.317,0,0,0-1.92.211,1.016,1.016,0,0,0-.368.374,1.377,1.377,0,0,0-.058.8,2.71,2.71,0,0,0,.411,1.175c.219.327.637.483.685.875A.444.444,0,0,0,519.918,368.179Z" transform="translate(-517.31 -361.949)" fill="#eac1a4"/><path d="M513.7,366.367a1.143,1.143,0,0,1,.075.5.967.967,0,0,1-.535-.64.981.981,0,0,1-.063-.391.464.464,0,0,1,.173-.341.292.292,0,0,1,.451.126C513.842,365.817,513.644,366.115,513.7,366.367Z" transform="translate(-512.285 -362.948)" fill="#3b455a"/><path d="M502.9,338.565a.6.6,0,0,1,.263-.5,1.216,1.216,0,0,0,.427-.357c.073-.129.084-.289.156-.418a1.05,1.05,0,0,1,.663-.383c.619-.2.952-.428,1.607-.174a9.245,9.245,0,0,1,1.5.469,1.515,1.515,0,0,1,.46.484,2.733,2.733,0,0,1,.257,2.356,2.9,2.9,0,0,1-.231.446,1.791,1.791,0,0,1-.664.764c-.019-.132-.118-.205-.149-.335a1.025,1.025,0,0,1-.01-.288c.019-.375.134-.967-.24-1.152a2.64,2.64,0,0,0-1.816.176,2.205,2.205,0,0,1-1.513.216A1.6,1.6,0,0,1,502.9,338.565Z" transform="translate(-502.9 -336.619)" fill="#3b455a"/></g></g><path d="M550.687,327.862l4.182-1.233-1.548-5.229,1.276-.915,3.079,6.053-.852,2.1-4,2.063Z" transform="translate(-540.841 -318.393)" fill="#bcbec0"/></g><g transform="translate(48.764 24.489)"><path d="M746.655,398.415l-1.221.051-3.64,3.453-5.406-.724-.359,1.324,5.313,1.9h1.6l2.844-1.746Z" transform="translate(-734.063 -392.531)" fill="#f4f4f4"/><path d="M715.641,430.759l-.717.543-.577.041-.039-.192.307-.194-1.115-.033-.195-.5,1.228-.545,1.228.122Z" transform="translate(-713.304 -421.273)" fill="#eac1a4"/><g transform="translate(7.977)"><path d="M815.348,724.736l-1.014.718L814,726a3.933,3.933,0,0,0,.591.211,17.6,17.6,0,0,0,1.859-.211v-.972Z" transform="translate(-813.258 -690.609)" fill="#151f2d"/><path d="M915.485,722.393l-.374.681s-.234.86-.031.8,1.333-.255,1.379-.4.537-.728.594-.832a2.858,2.858,0,0,0-.187-.805Z" transform="translate(-905.518 -687.96)" fill="#151f2d"/><path d="M840.519,535.02l3.273,9.773,3.661,6.244,1.42-.412-2.427-7.122a92.289,92.289,0,0,0-.772-9.259Z" transform="translate(-837.486 -516.604)" fill="#40495f"/><path d="M810.579,524.581l1.267,14.532h1.521l.465-7.435.873-6.582-3.323-3.894Z" transform="translate(-810.137 -504.69)" fill="#40495f"/><path d="M805.865,401.467a8.28,8.28,0,0,1,.59-2.254,10.065,10.065,0,0,1,1.613-1.821,2.09,2.09,0,0,1,.814-.633,2.428,2.428,0,0,1,.743-.1l2.289-.058a2.1,2.1,0,0,1,.821.088,1.708,1.708,0,0,1,.782.827,5.767,5.767,0,0,1,.611,2.7c0,.009.6,11.837.122,11.615a7.153,7.153,0,0,0-1.924-.526,21.266,21.266,0,0,0-2.834-.268l-1.672.113h-1.009c-.606.059-.556.241-1.179.2C805.233,411.334,805.684,402.325,805.865,401.467Z" transform="translate(-805.471 -390.875)" fill="#f4f4f4"/><g transform="translate(1.982)"><path d="M846.41,359.24l1.136-.049a5.693,5.693,0,0,0-.011-.906c.32-.093.692-.238.765-.563a.937.937,0,0,0,0-.313l-.15-1.293a1.149,1.149,0,0,0-.109-.433.963.963,0,0,0-.653-.4,2.343,2.343,0,0,0-1.919.356,1.027,1.027,0,0,0-.343.4,1.392,1.392,0,0,0,0,.814l.153.748c.059.287.148.614.414.735.141.064.313.057.439.148C846.354,358.646,846.3,358.988,846.41,359.24Z" transform="translate(-843.617 -353.07)" fill="#eac1a4"/><path d="M829.067,331.124a1.119,1.119,0,0,0,.257-.071c.274-.119.466-.359.758-.471a2.667,2.667,0,0,1,1.906.05,12.887,12.887,0,0,1,1.805.635,1.51,1.51,0,0,1,.488.538,2.277,2.277,0,0,1-.127,2.4,3.252,3.252,0,0,1-.378.426,2.441,2.441,0,0,1-.994.7c.01-.328.366-1.346.129-1.629a1.607,1.607,0,0,0-1.373-.324c-.527.049-.96-.12-1.485-.094-.268.013-.57.067-.775-.105a4.656,4.656,0,0,1-.857-1.109.7.7,0,0,1,.146-.735A.776.776,0,0,1,829.067,331.124Z" transform="translate(-828.372 -330.43)" fill="#3b455a"/></g></g><path d="M835.428,401.172a5.852,5.852,0,0,1-.125.592s-2.109,6.077-2.31,6.562a.894.894,0,0,0-.067.342l.484,1.422.961-1.189,1.3-6.809.317-.272.111-.69Z" transform="translate(-822.573 -395.011)" fill="#305399"/></g><g transform="translate(3.051 32.686)"><rect width="12.486" height="2.81" rx="1.405" transform="translate(11.461 5.067) rotate(4.869)" fill="#385e96"/><path d="M197.431,426.037l-7.437-.873a3.978,3.978,0,0,0-4.4,3.477l-.429,3.651a3.978,3.978,0,0,0,3.477,4.4l7.437.873a3.978,3.978,0,0,0,4.4-3.477l.429-3.651A3.978,3.978,0,0,0,197.431,426.037Zm1.142,4.128-.429,3.652a1.637,1.637,0,0,1-1.793,1.416l-7.437-.873a1.637,1.637,0,0,1-1.416-1.793l.429-3.652a1.637,1.637,0,0,1,1.793-1.416l7.437.873A1.637,1.637,0,0,1,198.574,430.165Z" transform="translate(-185.137 -425.137)" fill="#305399"/><path d="M420.838,444.18h-7.488a3.978,3.978,0,0,0-3.966,3.967v3.677a3.978,3.978,0,0,0,3.966,3.967h7.488a3.978,3.978,0,0,0,3.967-3.967v-3.677A3.978,3.978,0,0,0,420.838,444.18Zm1.616,7.643a1.637,1.637,0,0,1-1.616,1.616h-7.488a1.637,1.637,0,0,1-1.616-1.616v-3.677a1.637,1.637,0,0,1,1.616-1.616h7.488a1.637,1.637,0,0,1,1.616,1.616Z" transform="translate(-389.976 -442.532)" fill="#305399"/><path d="M652.838,440.23l-.218-3.67a3.978,3.978,0,0,0-4.2-3.724l-7.475.445a3.978,3.978,0,0,0-3.724,4.195l.218,3.67a3.978,3.978,0,0,0,4.2,3.724l7.475-.444A3.978,3.978,0,0,0,652.838,440.23Zm-3.864,1.848-7.475.444a1.637,1.637,0,0,1-1.709-1.517l-.218-3.67a1.638,1.638,0,0,1,1.517-1.709l7.474-.445a1.637,1.637,0,0,1,1.709,1.517l.218,3.67A1.637,1.637,0,0,1,648.974,442.078Z" transform="translate(-598.091 -432.163)" fill="#305399"/><rect width="12.486" height="2.81" rx="1.405" transform="translate(30.339 5.592)" fill="#3d65a5"/></g><g transform="translate(53.944 32.122)"><path d="M804.161,420.084l-.555,3.372-6.052,1.57v1.615l7.24-.765,1.251-2.021-.12-5.231Z" transform="translate(-795.444 -418.624)" fill="#f4f4f4"/><path d="M775.276,494.822l-.694.313-1.417-.322.241-.767,1.1-.065.221-.372.537.143Z" transform="translate(-773.165 -487.118)" fill="#eac1a4"/></g><path d="M424.166,431.535l-1.4.524-.346,1.481.81.184.656-.9.539-.033.507-.818Z" transform="translate(-398.836 -398.296)" fill="#eac1a4"/><path d="M309.025,430.443l1.3-.115.832,1.035-.567.451-.855-.458-.437.177-.707-.453Z" transform="translate(-294.85 -397.193)" fill="#eac1a4"/></g></svg>