<svg xmlns="http://www.w3.org/2000/svg" width="98.468" height="65.275" viewBox="0 0 98.468 65.275"><g transform="translate(0 0)"><g transform="translate(4.376)"><path d="M261.928,262.9a.671.671,0,1,1-.671-.671A.671.671,0,0,1,261.928,262.9Zm-.332,0a.338.338,0,1,0-.338.338A.339.339,0,0,0,261.6,262.9Z" transform="translate(-190.354 -230.414)" fill="#91a8f6"/><g transform="translate(76.934 7.921)"><path d="M314.307,124.852h-3.8a.166.166,0,1,0,0,.332h3.8a.166.166,0,1,0,0-.332Z" transform="translate(-308.389 -124.851)" fill="#91a8f6"/><path d="M300.029,124.848h-.742a.166.166,0,0,0,0,.333h.742a.166.166,0,0,0,0-.333Z" transform="translate(-299.12 -124.848)" fill="#91a8f6"/><path d="M303.253,131.674a.166.166,0,0,1-.166.166h-.475a.166.166,0,0,1,0-.333h.475A.166.166,0,0,1,303.253,131.674Zm-1.306,0a.166.166,0,0,1-.166.166h-.831a.166.166,0,1,1,0-.333h.831A.166.166,0,0,1,301.947,131.674Zm-1.662,0a.166.166,0,0,1-.166.166h-.831a.166.166,0,0,1,0-.333h.831A.166.166,0,0,1,300.285,131.674Z" transform="translate(-299.121 -130.35)" fill="#91a8f6"/></g><g transform="translate(20.218 17.848)"><path d="M-22.1,188.744a.166.166,0,0,0-.166.166v.386a.166.166,0,0,0,.166.166.166.166,0,0,0,.166-.166v-.386A.166.166,0,0,0-22.1,188.744Z" transform="translate(23.084 -187.558)" fill="#91a8f6"/><path d="M-26.43,186.52h-.386a.166.166,0,0,0-.166.166.166.166,0,0,0,.166.166h.386a.166.166,0,0,0,.166-.166A.166.166,0,0,0-26.43,186.52Z" transform="translate(26.982 -185.721)" fill="#91a8f6"/><path d="M-22.1,181.927a.166.166,0,0,0-.166.166v.385a.166.166,0,0,0,.166.166.166.166,0,0,0,.166-.166v-.385A.166.166,0,0,0-22.1,181.927Z" transform="translate(23.084 -181.927)" fill="#91a8f6"/><path d="M-19.21,186.368H-19.6a.166.166,0,0,0-.166.166.166.166,0,0,0,.166.166h.386a.166.166,0,0,0,.166-.166A.166.166,0,0,0-19.21,186.368Z" transform="translate(21.018 -185.596)" fill="#91a8f6"/></g><g transform="translate(62.028 7.071)"><path d="M218.3,126.78a.166.166,0,0,0-.166.166v.385a.166.166,0,1,0,.332,0v-.385A.166.166,0,0,0,218.3,126.78Z" transform="translate(-217.317 -125.594)" fill="#91a8f6"/><path d="M213.971,124.556h-.386a.166.166,0,1,0,0,.332h.386a.166.166,0,1,0,0-.332Z" transform="translate(-213.419 -123.757)" fill="#91a8f6"/><path d="M218.3,119.963a.166.166,0,0,0-.166.166v.385a.166.166,0,0,0,.332,0v-.385A.166.166,0,0,0,218.3,119.963Z" transform="translate(-217.317 -119.963)" fill="#91a8f6"/><path d="M221.191,124.4h-.386a.166.166,0,1,0,0,.332h.386a.166.166,0,1,0,0-.332Z" transform="translate(-219.383 -123.632)" fill="#91a8f6"/></g><g transform="translate(41.6)"><path d="M111.151,79.308h-3.8a.166.166,0,1,0,0,.332h3.8a.166.166,0,1,0,0-.332Z" transform="translate(-105.233 -79.307)" fill="#91a8f6"/><path d="M96.872,79.3h-.742a.166.166,0,1,0,0,.332h.742a.166.166,0,1,0,0-.332Z" transform="translate(-95.963 -79.304)" fill="#91a8f6"/><path d="M100.1,86.13a.166.166,0,0,1-.166.166h-.475a.166.166,0,1,1,0-.332h.475A.166.166,0,0,1,100.1,86.13Zm-1.306,0a.166.166,0,0,1-.166.166h-.831a.166.166,0,1,1,0-.332h.831A.166.166,0,0,1,98.791,86.13Zm-1.662,0a.166.166,0,0,1-.166.166h-.831a.166.166,0,1,1,0-.332h.831A.166.166,0,0,1,97.129,86.13Z" transform="translate(-95.965 -84.806)" fill="#91a8f6"/></g><path d="M364.819,176.65a.587.587,0,1,0,.587-.587A.587.587,0,0,0,364.819,176.65Z" transform="translate(-276.459 -159.235)" fill="#91a8f6"/><g transform="translate(9.295 45.843)"><path d="M-78.4,343.218h3.8a.166.166,0,0,0,.166-.166.166.166,0,0,0-.166-.166h-3.8a.166.166,0,0,0-.166.166A.166.166,0,0,0-78.4,343.218Z" transform="translate(80.514 -342.886)" fill="#91a8f6"/><path d="M-89.618,343.222h.742a.166.166,0,0,0,.166-.166.166.166,0,0,0-.166-.166h-.742a.166.166,0,0,0-.166.166A.166.166,0,0,0-89.618,343.222Z" transform="translate(89.784 -342.889)" fill="#91a8f6"/></g><path d="M327.294,360.34s.227,1.619-1.664,1.582c0,0,1.625.016,1.582,1.536A1.843,1.843,0,0,1,328.849,362S327.589,362.284,327.294,360.34Z" transform="translate(-244.086 -311.462)" fill="#91a8f6"/><path d="M379.213,229.027s.227,1.619-1.664,1.582c0,0,1.625.017,1.582,1.536a1.843,1.843,0,0,1,1.637-1.462S379.508,230.971,379.213,229.027Z" transform="translate(-286.975 -202.987)" fill="#91a8f6"/><path d="M34.308,102.984s.227,1.619-1.664,1.582c0,0,1.625.017,1.582,1.536a1.843,1.843,0,0,1,1.637-1.462S34.6,104.928,34.308,102.984Z" transform="translate(-2.056 -98.866)" fill="#91a8f6"/><path d="M-59.3,128.694s.227,1.619-1.664,1.582c0,0,1.625.017,1.582,1.536a1.843,1.843,0,0,1,1.637-1.462S-59.01,130.639-59.3,128.694Z" transform="translate(75.275 -120.104)" fill="#91a8f6"/><path d="M2.586,88.9s.079.564-.58.551c0,0,.566.006.551.535a.643.643,0,0,1,.571-.51S2.689,89.582,2.586,88.9Z" transform="translate(23.253 -87.234)" fill="#91a8f6"/><path d="M172.877,200.774s.079.564-.58.551c0,0,.566.006.551.536a.643.643,0,0,1,.571-.51S172.98,201.452,172.877,200.774Z" transform="translate(-117.421 -179.648)" fill="#91a8f6"/><path d="M-142.647,256.237s.079.564-.58.551c0,0,.566.006.551.536a.643.643,0,0,1,.571-.51S-142.544,256.915-142.647,256.237Z" transform="translate(143.227 -225.464)" fill="#91a8f6"/><path d="M140.5,343.717s.079.564-.58.552c0,0,.566.006.551.535a.643.643,0,0,1,.571-.51S140.6,344.395,140.5,343.717Z" transform="translate(-90.674 -297.73)" fill="#91a8f6"/><g transform="translate(22.871 33.878)"><path d="M-7.179,277.1h-3.689a.857.857,0,0,1-.856-.856.857.857,0,0,1,.829-.856,1.326,1.326,0,0,1,1.325-1.3,1.326,1.326,0,0,1,1.109.6.961.961,0,0,1,1.067.7h.216a.857.857,0,0,1,.856.856A.857.857,0,0,1-7.179,277.1Zm-3.689-1.459a.6.6,0,0,0-.6.6.6.6,0,0,0,.6.6h3.689a.6.6,0,0,0,.6-.6.6.6,0,0,0-.6-.6H-7.6l-.017-.107a.708.708,0,0,0-.873-.583l-.093.022-.047-.084a1.073,1.073,0,0,0-.936-.551,1.073,1.073,0,0,0-1.072,1.072c0,.031,0,.062,0,.093l.012.138Z" transform="translate(11.724 -274.091)" fill="#91a8f6"/></g><g transform="translate(88.69 2.654)"><path d="M371.261,97.579h-3.689a.856.856,0,0,1-.027-1.712,1.324,1.324,0,0,1,2.434-.7.961.961,0,0,1,1.067.7h.216a.856.856,0,1,1,0,1.712Zm-3.689-1.459a.6.6,0,1,0,0,1.205h3.689a.6.6,0,0,0,0-1.205h-.426l-.017-.107a.708.708,0,0,0-.873-.583l-.093.022-.047-.084a1.071,1.071,0,0,0-2.008.521c0,.031,0,.062,0,.093l.012.137Z" transform="translate(-366.716 -94.565)" fill="#91a8f6"/></g><g transform="translate(31.563 12.074)"><path d="M42.794,151.74H39.105a.856.856,0,0,1-.027-1.711,1.324,1.324,0,0,1,2.434-.7.961.961,0,0,1,1.067.7h.216a.856.856,0,1,1,0,1.712Zm-3.689-1.458a.6.6,0,1,0,0,1.205h3.689a.6.6,0,0,0,0-1.205h-.426l-.017-.107a.708.708,0,0,0-.873-.583l-.093.022-.047-.084a1.071,1.071,0,0,0-2.008.521c0,.031,0,.062,0,.093l.012.138Z" transform="translate(-38.249 -148.726)" fill="#91a8f6"/></g></g><g transform="translate(30.933 28.988)"><g transform="translate(14.946 18.421)"><path d="M101.563,370.486h0a2.982,2.982,0,0,1-3.681-2.057l-2.366-8.361a2.982,2.982,0,0,1,2.057-3.681h0a2.982,2.982,0,0,1,3.681,2.057l2.366,8.362A2.982,2.982,0,0,1,101.563,370.486Z" transform="translate(-95.403 -355.511)" fill="#93c7ea"/><path d="M107.162,383.849h0a2.982,2.982,0,0,1-.041-4.217l6.085-6.2a2.982,2.982,0,0,1,4.217-.041h0a2.982,2.982,0,0,1,.041,4.217l-6.085,6.2A2.982,2.982,0,0,1,107.162,383.849Z" transform="translate(-104.378 -368.944)" fill="#93c7ea"/><g transform="translate(9.885)"><path d="M158.288,363.553a2.613,2.613,0,1,1-3.623-.727A2.612,2.612,0,0,1,158.288,363.553Z" transform="translate(-153.282 -360.562)" fill="#ff8383"/><path d="M153.322,364.607h0a.681.681,0,0,1-.829-.49l-.231-.9a.681.681,0,0,1,.489-.829h0a.681.681,0,0,1,.829.49l.232.9A.681.681,0,0,1,153.322,364.607Z" transform="translate(-152.239 -360.545)" fill="#ff8383"/><path d="M162.654,352.855l-.926,2.344a.707.707,0,0,1-.917.4h0a.707.707,0,0,1-.4-.917l.926-2.344a.707.707,0,0,1,.917-.4h0A.707.707,0,0,1,162.654,352.855Z" transform="translate(-158.95 -351.888)" fill="#ff8383"/><path d="M171.235,355.423l-1.118,2.258a.707.707,0,0,1-.947.32h0a.707.707,0,0,1-.32-.947l1.118-2.258a.707.707,0,0,1,.947-.32h0A.707.707,0,0,1,171.235,355.423Z" transform="translate(-165.9 -353.965)" fill="#ff8383"/><path d="M176.482,362.063l-1.561,1.978a.707.707,0,0,1-.993.117h0a.707.707,0,0,1-.117-.993l1.561-1.978a.707.707,0,0,1,.993-.117h0A.707.707,0,0,1,176.482,362.063Z" transform="translate(-169.934 -359.348)" fill="#ff8383"/></g></g><g transform="translate(8.853 0)"><g transform="translate(3.551 9.466)"><path d="M0,0H3.483a0,0,0,0,1,0,0V4.884A1.742,1.742,0,0,1,1.742,6.626h0A1.742,1.742,0,0,1,0,4.884V0A0,0,0,0,1,0,0Z" transform="translate(0.26 0.189) rotate(2.253)" fill="#ff8383"/><path d="M85.5,300.541,82.02,300.4l-.054,1.367a2.291,2.291,0,0,0,2.375,2.418,2.4,2.4,0,0,0,1.028-.316Z" transform="translate(-81.76 -300.404)" fill="#d15e79"/></g><g transform="translate(0)"><ellipse cx="4.341" cy="3.343" rx="4.341" ry="3.343" transform="translate(0 3.963) rotate(-15.799)" fill="#1b2a67"/><ellipse cx="3.857" cy="2.51" rx="3.857" ry="2.51" transform="translate(3.56 4.005) rotate(-9.641)" fill="#1b2a67"/><ellipse cx="3.857" cy="2.51" rx="3.857" ry="2.51" transform="matrix(0.734, -0.679, 0.679, 0.734, 1.103, 5.235)" fill="#1b2a67"/><path d="M85.081,274.785c.343,1.92-.662,3.706-2.244,3.988h0c-1.582.282-3.142-1.046-3.485-2.966l-.27-1.511c-.343-1.92.662-3.706,2.244-3.988h0c1.582-.282,3.143,1.046,3.485,2.966Z" transform="translate(-75.773 -266.045)" fill="#ff8383"/><path d="M74.382,267.219c-.875-.792-2.4-.409-3.4.856s-1.108,2.931-.233,3.723,2.4.409,3.4-.856S75.257,268.011,74.382,267.219Z" transform="translate(-68.453 -263.183)" fill="#1b2a67"/><g transform="translate(1.158 6.956)"><g transform="translate(3.772 0.121)"><g transform="translate(1.416 0.771)"><g transform="translate(0 0.001)"><path d="M97.025,291.569a.159.159,0,0,1-.091-.289,1.03,1.03,0,0,1,1.061-.045.159.159,0,0,1-.16.275.706.706,0,0,0-.72.031A.159.159,0,0,1,97.025,291.569Z" transform="translate(-96.866 -291.104)" fill="#86294e"/></g><g transform="translate(1.855)"><path d="M108.581,291.565a.156.156,0,0,1-.09-.028h0a.706.706,0,0,0-.72-.031.159.159,0,0,1-.16-.275,1.024,1.024,0,0,1,1.061.045.159.159,0,0,1-.091.289Z" transform="translate(-107.532 -291.099)" fill="#86294e"/></g><g transform="translate(0.545 0.721)"><path d="M100.332,295.418a.166.166,0,1,1-.159-.172A.166.166,0,0,1,100.332,295.418Z" transform="translate(-100 -295.245)" fill="#86294e"/></g><path d="M109.484,295.778a.166.166,0,1,1-.159-.172A.166.166,0,0,1,109.484,295.778Z" transform="translate(-107.015 -294.822)" fill="#86294e"/></g><g transform="translate(2.965 0.271)"><path d="M107.078,290.834h-.053a1.291,1.291,0,1,1,.053,0Zm0-2.39a1.085,1.085,0,0,0-.041,2.169,1.1,1.1,0,0,0,.779-.288,1.085,1.085,0,0,0-.694-1.88Z" transform="translate(-105.771 -288.223)" fill="#ffd2d4"/></g><path d="M90.191,289.6h-.059a1.466,1.466,0,0,1-.937-2.541,1.466,1.466,0,0,1,2.071.081,1.466,1.466,0,0,1-1.075,2.461Zm0-2.684a1.218,1.218,0,0,0-1.216,1.17h0a1.219,1.219,0,0,0,1.169,1.265,1.218,1.218,0,1,0,.1-2.434Z" transform="translate(-88.723 -286.666)" fill="#ffd2d4"/><g transform="translate(2.57 1.468)"><path d="M103.607,295.333l.539.021a.113.113,0,0,0,.118-.109h0a.114.114,0,0,0-.109-.118l-.539-.021a.114.114,0,0,0-.118.109h0A.114.114,0,0,0,103.607,295.333Z" transform="translate(-103.498 -295.105)" fill="#ffd2d4"/></g><g transform="translate(2.831 2.156)"><path d="M105.927,299.366a.514.514,0,0,1-.491.386c-.256.023-.451-.111-.436-.3a.514.514,0,0,1,.491-.386C105.747,299.042,105.942,299.176,105.927,299.366Z" transform="translate(-104.999 -299.063)" fill="#86294e"/></g><g transform="translate(2.022 3.291)"><path d="M101.977,305.78a.832.832,0,0,1-.894.762.843.843,0,0,1-.734-.93A4.125,4.125,0,0,1,101.977,305.78Z" transform="translate(-100.349 -305.593)" fill="#86294e"/><path d="M101.972,306.052c-.376-.044-.609-.173-.631-.456a4.1,4.1,0,0,1,1.373.153C102.65,306,102.341,306.094,101.972,306.052Z" transform="translate(-101.168 -305.59)" fill="#ffd2d4"/></g></g><g transform="translate(0 0)"><g transform="translate(2.905 3.417)"><path d="M86.318,306.736h-.936a1.519,1.519,0,0,1-1.02-.393l-.586-.529a.114.114,0,0,1,.152-.168l.586.528a1.292,1.292,0,0,0,.868.334h.936a.114.114,0,1,1,0,.227Z" transform="translate(-83.739 -305.616)" fill="#201028"/><g transform="translate(1.973 0.779)"><path d="M95.688,310.548h-.38a.227.227,0,0,1,0-.454h.38a.227.227,0,0,1,0,.454Z" transform="translate(-95.082 -310.093)" fill="#ffd2d4"/></g></g><g transform="translate(0 0)"><circle cx="1.903" cy="1.903" r="1.903" transform="translate(0 3.578) rotate(-70.092)" fill="#445eea"/><ellipse cx="1.624" cy="1.485" rx="1.624" ry="1.485" transform="matrix(0.039, -0.999, 0.999, 0.039, 0.611, 3.991)" fill="#91a8f6"/><path d="M75.929,296.752a.527.527,0,1,1-.484-.678A.6.6,0,0,1,75.929,296.752Z" transform="translate(-73.539 -294.317)" fill="#e0eef7"/></g></g></g></g></g><g transform="translate(5.303 13.224)"><path d="M51.7,349.548l-9.1.256a2.749,2.749,0,0,1-2.639-2.855l.575-15.231a1.893,1.893,0,0,1,1.317-1.729l6.785-2.16,5.424,2.6a1.893,1.893,0,0,1,1.073,1.781l-.578,14.7A2.749,2.749,0,0,1,51.7,349.548Z" transform="translate(-39.958 -326.816)" fill="#93c7ea"/><path d="M110.908,353.016c.031,1.588.013,3.175-.013,4.761s-.077,3.171-.134,4.756-.136,3.169-.239,4.751a4.233,4.233,0,0,1-.188,1.212,2.759,2.759,0,0,1-2.859,1.86,2.76,2.76,0,0,0,2.046-.96,2.58,2.58,0,0,0,.54-.987,3.931,3.931,0,0,0,.112-1.138c.021-1.586.078-3.171.135-4.756s.136-3.168.24-4.751S110.752,354.6,110.908,353.016Z" transform="translate(-95.732 -347.623)" fill="#6eacce"/><path d="M2.461,0h0A2.461,2.461,0,0,1,4.922,2.461V3.584a0,0,0,0,1,0,0H0a0,0,0,0,1,0,0V2.461A2.461,2.461,0,0,1,2.461,0Z" transform="translate(6.489 0) rotate(3.691)" fill="#93c7ea"/></g><g transform="translate(0 17.73)"><path d="M11.308,361.678h0a2.982,2.982,0,0,1-1.61-3.9l3.333-8.025a2.982,2.982,0,0,1,3.9-1.61h0a2.982,2.982,0,0,1,1.61,3.9l-3.333,8.025A2.982,2.982,0,0,1,11.308,361.678Z" transform="translate(-9.469 -347.916)" fill="#93c7ea"/><path d="M44.174,349.232a2.931,2.931,0,0,1,1.377.968,3.08,3.08,0,0,1,.627,1.61,3.379,3.379,0,0,1-.324,1.708l-.63,1.549c-.432,1.027-.865,2.054-1.331,3.067l-.7,1.52c-.249.5-.483,1.006-.744,1.5.166-.534.359-1.057.538-1.586L43.572,358c.389-1.045.811-2.076,1.234-3.107l.653-1.539a4.349,4.349,0,0,0,.282-.749,2.908,2.908,0,0,0,.09-.775A3.029,3.029,0,0,0,44.174,349.232Z" transform="translate(-36.715 -349.003)" fill="#6eacce"/><g transform="translate(0.186 5.65)"><g transform="translate(13.045)"><g transform="translate(0 1.056)"><path d="M88.029,389.326l-1.518-.1a1.036,1.036,0,0,1-.966-1.1l.044-.685a1.035,1.035,0,0,1,1.1-.965l1.518.1Zm-1.385-2.167a.353.353,0,0,0-.375.329l-.044.685a.353.353,0,0,0,.329.375l.838.054.09-1.389Z" transform="translate(-85.543 -386.477)" fill="#86294e"/></g><g transform="translate(1.296)"><path d="M95.658,386.492l-1.313-.085a1.447,1.447,0,0,1-1.351-1.537l.272-4.222c.03-.471,4.232-.2,4.2.271l-.272,4.222A1.447,1.447,0,0,1,95.658,386.492Z" transform="translate(-92.991 -380.403)" fill="#d15e79"/><path d="M99.962,381.951c-.011.17-.791.257-1.742.2s-1.713-.249-1.7-.418.791-.257,1.742-.2S99.973,381.782,99.962,381.951Z" transform="translate(-95.904 -381.32)" fill="#86294e"/></g></g><path d="M10.54,397.686h0a2.981,2.981,0,0,1,3.028-2.934l8.689.137a2.982,2.982,0,0,1,2.934,3.029h0a2.982,2.982,0,0,1-3.028,2.934l-8.689-.137A2.982,2.982,0,0,1,10.54,397.686Z" transform="translate(-10.54 -392.256)" fill="#93c7ea"/><path d="M27.954,394.112c1.116-.076,2.231-.1,3.346-.121s2.229-.012,3.343,0l1.671.038a3.386,3.386,0,0,1,1.7.383,3.086,3.086,0,0,1,1.228,1.216,2.931,2.931,0,0,1,.339,1.649,3.03,3.03,0,0,0-1.724-2.554,2.92,2.92,0,0,0-.747-.226,4.375,4.375,0,0,0-.8-.039l-1.672-.014c-1.114-.023-2.228-.047-3.342-.106S29.067,394.223,27.954,394.112Z" transform="translate(-24.925 -391.616)" fill="#6eacce"/><g transform="translate(11.37 1.331)"><circle cx="2.613" cy="2.613" r="2.613" transform="translate(0 4.021) rotate(-50.316)" fill="#ff8383"/><path d="M87.3,392.413h0a.625.625,0,0,1-.386-.795l.279-.805a.625.625,0,0,1,.795-.386h0a.625.625,0,0,1,.386.795l-.278.805A.625.625,0,0,1,87.3,392.413Z" transform="translate(-84.974 -389.986)" fill="#ff8383"/><path d="M103.661,397.783l-2.319.216a.653.653,0,0,1-.711-.59h0a.653.653,0,0,1,.59-.711l2.319-.216a.653.653,0,0,1,.711.59h0A.653.653,0,0,1,103.661,397.783Z" transform="translate(-96.331 -395.014)" fill="#ff8383"/><path d="M101.3,409.323l-2.324-.15a.653.653,0,0,1-.61-.694h0a.653.653,0,0,1,.694-.61l2.324.15a.653.653,0,0,1,.61.694h0A.653.653,0,0,1,101.3,409.323Z" transform="translate(-94.46 -404.422)" fill="#ff8383"/></g></g></g></g><g transform="translate(43.68 44.856)"><g transform="translate(27.154)"><g transform="translate(1.853 2.674)"><path d="M249.814,355.734a.273.273,0,0,1-.193-.465l2.6-2.6a.272.272,0,0,1,.385.385l-2.6,2.6A.271.271,0,0,1,249.814,355.734Z" transform="translate(-249.542 -352.587)" fill="#445eea"/></g><path d="M239.163,341.437a.272.272,0,0,1-.273-.272v-3.679a.272.272,0,1,1,.545,0v3.679A.272.272,0,0,1,239.163,341.437Z" transform="translate(-238.89 -337.213)" fill="#445eea"/><g transform="translate(3.449 7.128)"><path d="M262.671,378.744h-3.68a.272.272,0,0,1,0-.545h3.68a.272.272,0,0,1,0,.545Z" transform="translate(-258.719 -378.199)" fill="#445eea"/></g></g><g transform="translate(0 6.966)"><path d="M88.138,441.736h22.512c.628,0,.821-.509.821-1.137H87A1.137,1.137,0,0,0,88.138,441.736Z" transform="translate(-86.264 -429.584)" fill="#6eacce"/><path d="M83.331,440.6h7.98a1.221,1.221,0,0,1-1.291,1.137H83.3A.569.569,0,0,1,83.331,440.6Z" transform="translate(-82.762 -429.584)" fill="#6eacce"/><g transform="translate(8.047)"><path d="M130.031,388.61h16.162a1,1,0,0,0,.982-.813l2.178-9.347a1,1,0,0,0-.982-1.186H132.21a1,1,0,0,0-.982.813l-2.178,9.347A1,1,0,0,0,130.031,388.61Z" transform="translate(-129.032 -377.264)" fill="#e0eef7"/><path d="M131.228,378.973a.542.542,0,1,1,.8.373l-2.178,9.347a.542.542,0,1,1-.8-.373Z" transform="translate(-129.032 -378.159)" fill="#6eacce"/><path d="M182.836,407.387h-2.651a.985.985,0,0,1-.984-.985h0a.984.984,0,0,1,.984-.984h2.651a.984.984,0,0,1,.984.984h0A.985.985,0,0,1,182.836,407.387Z" transform="translate(-170.475 -400.521)" fill="#fff"/></g><g transform="translate(1.899 10.761)"><path d="M94.761,439.7h-.8a.284.284,0,0,1-.284-.284h0a.284.284,0,0,1,.284-.284h.8a.284.284,0,0,1,.284.284h0A.284.284,0,0,1,94.761,439.7Z" transform="translate(-93.682 -439.135)" fill="#6eacce"/><path d="M103.687,439.7h-.8a.284.284,0,0,1-.284-.284h0a.284.284,0,0,1,.284-.284h.8a.284.284,0,0,1,.284.284h0A.284.284,0,0,1,103.687,439.7Z" transform="translate(-101.056 -439.135)" fill="#6eacce"/><path d="M112.613,439.7h-.8a.284.284,0,0,1-.284-.284h0a.284.284,0,0,1,.284-.284h.8a.284.284,0,0,1,.284.284h0A.284.284,0,0,1,112.613,439.7Z" transform="translate(-108.429 -439.135)" fill="#6eacce"/><path d="M121.539,439.7h-.8a.284.284,0,0,1-.284-.284h0a.284.284,0,0,1,.284-.284h.8a.284.284,0,0,1,.284.284h0A.284.284,0,0,1,121.539,439.7Z" transform="translate(-115.803 -439.135)" fill="#6eacce"/></g></g></g><path d="M-29.254,448.145h-68a.681.681,0,0,1-.681-.681h0a.682.682,0,0,1,.681-.682h68a.682.682,0,0,1,.682.682h0A.682.682,0,0,1-29.254,448.145Z" transform="translate(110.192 -382.87)" fill="#1b2a67"/><g transform="translate(19.189 52.381)"><path d="M-42.174,400.437s-.5-3.76-1.407-4.685" transform="translate(46.099 -393.096)" fill="none" stroke="#1b2a67" stroke-linecap="round" stroke-miterlimit="10" stroke-width="0.827"/><g transform="translate(0.61)"><path d="M-48.109,380.9c.242.8.193,1.525-.11,1.617s-.745-.484-.987-1.285l-.007-.024a.573.573,0,0,1,1.1-.332Z" transform="translate(50.163 -380.478)" fill="#ffd2d4"/><g transform="translate(0 1.079)"><path d="M-42.2,387.814c-.8.242-1.525.192-1.617-.111s.484-.745,1.285-.987l.024-.007a.573.573,0,0,1,.331,1.1Z" transform="translate(45.688 -386.683)" fill="#ffd2d4"/><path d="M-53.8,392c.8-.242,1.377-.684,1.285-.987s-.816-.353-1.617-.11l-.024.007a.573.573,0,0,0,.331,1.1Z" transform="translate(54.55 -390.044)" fill="#ffd2d4"/></g><g transform="translate(0.966 2.2)"><path d="M-47.86,395.478c.225-.806.161-1.529-.144-1.614s-.735.5-.96,1.306l-.007.024a.574.574,0,0,0,1.1.309Z" transform="translate(48.994 -393.729)" fill="#ffd2d4"/><path d="M-41.988,394.643c-.634-.547-.98-1.184-.774-1.424s.888.009,1.522.556l.019.017a.573.573,0,0,1-.749.868Z" transform="translate(43.895 -393.128)" fill="#ffd2d4"/></g><path d="M-44.847,391.464a.392.392,0,0,1-.262.489.392.392,0,0,1-.489-.262.392.392,0,0,1,.262-.489A.392.392,0,0,1-44.847,391.464Z" transform="translate(47.168 -389.323)" fill="#d15e79"/></g><g transform="translate(0 3.544)"><path d="M-55.612,405.12c1.041.82,1.634,1.8,1.323,2.2s-1.406.048-2.447-.772a4.178,4.178,0,0,1-1.323-2.2A4.179,4.179,0,0,1-55.612,405.12Z" transform="translate(58.059 -403.74)" fill="#445eea"/><path d="M-36.355,403.477c-1.1,1.032-2.307,1.532-2.7,1.116s.184-1.589,1.283-2.622a4.754,4.754,0,0,1,2.7-1.116A4.753,4.753,0,0,1-36.355,403.477Z" transform="translate(42.458 -400.856)" fill="#445eea"/></g><g transform="translate(0.627 6.713)"><path d="M-47.679,426.6h-3.6l-.629-4.524h4.855Z" transform="translate(52.348 -421.555)" fill="#1b2a67"/><rect width="5.742" height="1.682" rx="0.841" fill="#1b2a67"/></g></g><g transform="translate(0 5.703)"><g transform="translate(0 3.421)"><g transform="translate(30.021 10.364)"><path d="M25.132,209.8l1.783,1.912,13.592-5.669Z" transform="translate(-21.496 -203.488)" fill="#445eea"/><path d="M8.495,191.359l-1.342,2.025.908,1.985-2.036.346-1.8,3.95,19.448-5.885Z" transform="translate(-4.224 -191.359)" fill="#91a8f6"/><path d="M21.966,204.989,21.059,203l10.534.493Z" transform="translate(-18.131 -200.979)" fill="#445eea"/></g><g transform="translate(15.394 17.493)"><path d="M-62.439,248.857l-.449,0a.272.272,0,0,1-.269-.275.266.266,0,0,1,.275-.269c.706.008,1.407,0,2.176-.035h.011a.273.273,0,0,1,.273.261.273.273,0,0,1-.261.284C-61.3,248.844-61.874,248.857-62.439,248.857Zm-2.633-.107H-65.1c-.751-.064-1.49-.16-2.2-.286a.273.273,0,0,1-.221-.317.277.277,0,0,1,.316-.22c.69.123,1.412.217,2.147.28a.272.272,0,0,1,.248.3A.272.272,0,0,1-65.072,248.749Zm-4.3-.787a.263.263,0,0,1-.08-.013,15.746,15.746,0,0,1-2.078-.8.272.272,0,0,1-.131-.362.272.272,0,0,1,.362-.131,15.326,15.326,0,0,0,2.006.771.272.272,0,0,1,.181.34A.273.273,0,0,1-69.374,247.963Zm-3.948-1.86a.272.272,0,0,1-.151-.046,14.439,14.439,0,0,1-1.754-1.378.272.272,0,0,1-.016-.385.273.273,0,0,1,.385-.016,13.933,13.933,0,0,0,1.688,1.325.273.273,0,0,1,.075.378A.273.273,0,0,1-73.323,246.1Zm-3.212-2.952a.273.273,0,0,1-.213-.1A14.525,14.525,0,0,1-78,241.2a.273.273,0,0,1,.1-.372.274.274,0,0,1,.372.1,13.991,13.991,0,0,0,1.2,1.777.273.273,0,0,1-.044.384A.271.271,0,0,1-76.535,243.151Zm-2.159-3.792a.273.273,0,0,1-.255-.177,13.379,13.379,0,0,1-.613-2.148.273.273,0,0,1,.215-.32.271.271,0,0,1,.32.215,12.812,12.812,0,0,0,.588,2.061.273.273,0,0,1-.159.352A.272.272,0,0,1-78.694,239.359Zm-.87-4.277a.273.273,0,0,1-.271-.255c-.028-.445-.043-.914-.043-1.393v-.11q0-.355.013-.712a.272.272,0,0,1,.273-.264h.009a.273.273,0,0,1,.263.281q-.011.349-.013.7v.11c0,.468.014.925.042,1.359a.272.272,0,0,1-.255.289Z" transform="translate(79.878 -232.347)" fill="#445eea"/></g><path d="M-150.388,147.674q-.624,0-1.229-.015a.272.272,0,0,1-.265-.279.272.272,0,0,1,.273-.265h.007q1.056.027,2.178.006a.258.258,0,0,1,.278.267.272.272,0,0,1-.267.278Q-149.907,147.674-150.388,147.674Zm3.157-.091a.272.272,0,0,1-.271-.257.272.272,0,0,1,.257-.287c.705-.04,1.437-.093,2.176-.158a.273.273,0,0,1,.3.247.272.272,0,0,1-.247.3c-.745.066-1.483.119-2.194.159Zm-6.566-.035h-.022c-.759-.059-1.5-.14-2.195-.24a.272.272,0,0,1-.231-.308.277.277,0,0,1,.308-.231c.686.1,1.413.177,2.16.235a.273.273,0,0,1,.251.293A.273.273,0,0,1-153.8,147.548Zm10.93-.348a.272.272,0,0,1-.27-.241.272.272,0,0,1,.239-.3q1.062-.124,2.165-.281a.271.271,0,0,1,.308.231.272.272,0,0,1-.231.308q-1.111.158-2.179.283Zm-15.263-.28a.282.282,0,0,1-.06-.007c-.527-.118-1.041-.252-1.527-.4q-.31-.093-.61-.192a.272.272,0,0,1-.173-.344.271.271,0,0,1,.344-.173q.292.1.594.187c.474.141.976.271,1.491.386a.273.273,0,0,1,.207.326A.274.274,0,0,1-158.129,146.92Zm-4.141-1.4a.271.271,0,0,1-.119-.028,13.253,13.253,0,0,1-1.924-1.134.273.273,0,0,1-.063-.38.272.272,0,0,1,.38-.063A12.767,12.767,0,0,0-162.151,145a.273.273,0,0,1,.126.364A.273.273,0,0,1-162.27,145.519Zm9.385-.244a.272.272,0,0,1-.272-.273v-.1c0-.687-.027-1.386-.082-2.076a.273.273,0,0,1,.251-.293.275.275,0,0,1,.293.251c.055.7.083,1.417.083,2.119v.1A.273.273,0,0,1-152.885,145.276Zm-12.909-2.312a.272.272,0,0,1-.2-.089,9.494,9.494,0,0,1-1.31-1.828.273.273,0,0,1,.108-.37.274.274,0,0,1,.37.108,8.92,8.92,0,0,0,1.235,1.723.273.273,0,0,1-.018.385A.273.273,0,0,1-165.794,142.964Zm12.558-2.06a.273.273,0,0,1-.268-.226,18.617,18.617,0,0,0-.481-2.107.272.272,0,0,1,.185-.338.27.27,0,0,1,.338.185,19.177,19.177,0,0,1,.5,2.168.273.273,0,0,1-.223.315A.283.283,0,0,1-153.236,140.9Zm-14.648-1.742a.273.273,0,0,1-.263-.2q-.05-.184-.095-.371a5.275,5.275,0,0,1-.145-1.208,4.618,4.618,0,0,1,.052-.7.273.273,0,0,1,.31-.229.272.272,0,0,1,.229.31,4.135,4.135,0,0,0-.046.618,4.73,4.73,0,0,0,.131,1.083c.028.118.058.235.09.351a.272.272,0,0,1-.19.335A.277.277,0,0,1-167.885,139.163Zm13.385-2.445a.273.273,0,0,1-.246-.155,9.243,9.243,0,0,0-1.119-1.8.273.273,0,0,1,.042-.383.273.273,0,0,1,.383.042,9.824,9.824,0,0,1,1.185,1.91.273.273,0,0,1-.128.364A.274.274,0,0,1-154.5,136.718Zm-12.708-1.709a.27.27,0,0,1-.165-.055.273.273,0,0,1-.052-.382,6.176,6.176,0,0,1,1.707-1.508.273.273,0,0,1,.375.09.273.273,0,0,1-.09.375,5.63,5.63,0,0,0-1.558,1.373A.272.272,0,0,1-167.208,135.009Zm9.951-1.621a.271.271,0,0,1-.149-.044,6.16,6.16,0,0,0-1.911-.827.273.273,0,0,1-.2-.33.274.274,0,0,1,.33-.2,6.71,6.71,0,0,1,2.079.9.273.273,0,0,1,.079.378A.272.272,0,0,1-157.257,133.388Zm-6.316-.695a.273.273,0,0,1-.261-.2.272.272,0,0,1,.184-.339,10.289,10.289,0,0,1,2.143-.387l.082,0a.29.29,0,0,1,.278.267.272.272,0,0,1-.267.278l-.059,0a9.707,9.707,0,0,0-2.022.366A.278.278,0,0,1-163.573,132.693Z" transform="translate(168.388 -131.769)" fill="#445eea"/></g><g transform="translate(54.966 6.202)"><g transform="translate(12.145)"><path d="M220.778,147.755H235.35a3.3,3.3,0,0,1,3.3,3.3v7.516a3.3,3.3,0,0,1-3.3,3.3h-9.529l-3.427,3.024v-3.024h-1.616a3.3,3.3,0,0,1-3.3-3.3v-7.516A3.3,3.3,0,0,1,220.778,147.755Z" transform="translate(-217.48 -147.755)" fill="#445eea"/><g transform="translate(5.005 3.825)"><path d="M246.668,170.572H257a.414.414,0,0,0,0-.827H246.668a.414.414,0,0,0,0,.827Z" transform="translate(-246.255 -169.745)" fill="#91a8f6"/><g transform="translate(0 2.755)"><path d="M246.668,186.414H257a.413.413,0,0,0,0-.827H246.668a.413.413,0,1,0,0,.827Z" transform="translate(-246.255 -185.587)" fill="#91a8f6"/></g><g transform="translate(8.817 5.51)"><path d="M297.363,202.255h1.515a.413.413,0,0,0,0-.827h-1.515a.413.413,0,0,0,0,.827Z" transform="translate(-296.95 -201.428)" fill="#91a8f6"/></g><g transform="translate(5.373 5.51)"><path d="M277.56,202.255h1.515a.413.413,0,0,0,0-.827H277.56a.413.413,0,0,0,0,.827Z" transform="translate(-277.147 -201.428)" fill="#91a8f6"/></g><g transform="translate(0 5.51)"><path d="M246.668,202.255h3.444a.413.413,0,0,0,0-.827h-3.444a.413.413,0,1,0,0,.827Z" transform="translate(-246.255 -201.428)" fill="#91a8f6"/></g></g></g><g transform="translate(0 15.009)"><path d="M161.251,234.054H150.1a1.986,1.986,0,0,0-1.986,1.986v6.432a1.985,1.985,0,0,0,1.841,1.979l-2.3,3.769,6.062-3.762h7.538a1.986,1.986,0,0,0,1.986-1.986V236.04A1.986,1.986,0,0,0,161.251,234.054Z" transform="translate(-147.651 -234.054)" fill="#91a8f6"/><g transform="translate(4.901 1.774)"><circle cx="1.321" cy="1.321" r="1.321" transform="translate(1.254 1.868) rotate(-45)" fill="#445eea" stroke="#445eea" stroke-linecap="round" stroke-linejoin="round" stroke-width="2.761"/><path d="M182.074,271.029h-6.243a2,2,0,0,1,2-2h2.241a2,2,0,0,1,2,2Z" transform="translate(-175.831 -264.719)" fill="#445eea" stroke="#445eea" stroke-linecap="round" stroke-linejoin="round" stroke-width="2.761"/></g></g></g><g transform="translate(49.715)"><path d="M122.847,122.848a5.464,5.464,0,0,1-1.1-.112.273.273,0,0,1-.212-.322.277.277,0,0,1,.322-.212,4.933,4.933,0,0,0,1.711.047.273.273,0,1,1,.081.54A5.5,5.5,0,0,1,122.847,122.848Zm2.475-.637a.273.273,0,0,1-.133-.512,4.838,4.838,0,0,0,1.328-1.08.273.273,0,0,1,.413.356,5.4,5.4,0,0,1-1.476,1.2A.274.274,0,0,1,125.322,122.211Zm-5.2-.146a.271.271,0,0,1-.145-.042,5.4,5.4,0,0,1-1.407-1.281.273.273,0,1,1,.432-.333,4.864,4.864,0,0,0,1.265,1.153.272.272,0,0,1-.146.5Zm7.517-2.551a.273.273,0,0,1-.256-.368,4.823,4.823,0,0,0,.3-1.684.272.272,0,0,1,.545,0,5.368,5.368,0,0,1-.335,1.874A.273.273,0,0,1,127.643,119.513Zm-9.683-.271a.273.273,0,0,1-.261-.193,5.4,5.4,0,0,1-.238-1.588c0-.1,0-.2.009-.3a.279.279,0,0,1,.288-.257.272.272,0,0,1,.256.288c0,.089-.007.18-.007.27a4.877,4.877,0,0,0,.214,1.428.273.273,0,0,1-.18.341A.264.264,0,0,1,117.96,119.243Zm9.851-2.742a.272.272,0,0,1-.265-.207,4.8,4.8,0,0,0-.7-1.561.273.273,0,1,1,.45-.308,5.336,5.336,0,0,1,.779,1.737.272.272,0,0,1-.2.33A.261.261,0,0,1,127.811,116.5Zm-9.653-.811a.273.273,0,0,1-.25-.382,5.35,5.35,0,0,1,1.059-1.582.272.272,0,1,1,.392.378,4.821,4.821,0,0,0-.951,1.423A.273.273,0,0,1,118.159,115.689Zm7.645-2.128a.27.27,0,0,1-.158-.05,4.8,4.8,0,0,0-1.548-.728.273.273,0,0,1,.14-.527,5.341,5.341,0,0,1,1.724.81.273.273,0,0,1-.158.495Zm-5.177-.434a.273.273,0,0,1-.118-.518,5.346,5.346,0,0,1,1.834-.51.273.273,0,1,1,.051.543,4.813,4.813,0,0,0-1.648.457A.27.27,0,0,1,120.627,113.127Z" transform="translate(-117.461 -112.097)" fill="#445eea"/><g transform="translate(1.813 2.775)"><path d="M131.458,128.051c-1.974,0-3.574,1.057-3.574,2.362v.007c0,.341.27.574.522.467l.938-.4a.563.563,0,0,0,.234-.7l-.115-.315a14.155,14.155,0,0,0,3.978,0l-.116.4a.569.569,0,0,0,.217.647l.928.506c.226.123.489-.042.541-.35a1.586,1.586,0,0,0,.022-.264C135.031,129.108,133.431,128.051,131.458,128.051Z" transform="translate(-127.884 -128.051)" fill="#445eea"/><path d="M139.138,143.467h-4.953l.734-2.3a1.04,1.04,0,0,1,.991-.724h1.5a1.04,1.04,0,0,1,.991.724Z" transform="translate(-133.089 -138.289)" fill="#91a8f6"/></g><g transform="translate(31.922 28.009)"><path d="M306.39,283.893a5.421,5.421,0,0,1-1.1-.112.273.273,0,0,1-.212-.322.276.276,0,0,1,.323-.212,4.9,4.9,0,0,0,1.711.047.273.273,0,0,1,.081.54A5.547,5.547,0,0,1,306.39,283.893Zm2.474-.636a.273.273,0,0,1-.133-.511,4.859,4.859,0,0,0,1.328-1.08.272.272,0,0,1,.413.356,5.4,5.4,0,0,1-1.476,1.2A.269.269,0,0,1,308.864,283.256Zm-5.2-.147a.27.27,0,0,1-.145-.042,5.407,5.407,0,0,1-1.407-1.281.273.273,0,1,1,.432-.333,4.857,4.857,0,0,0,1.265,1.153.272.272,0,0,1-.146.5Zm7.517-2.551a.276.276,0,0,1-.095-.017.273.273,0,0,1-.161-.351,4.823,4.823,0,0,0,.3-1.684.272.272,0,1,1,.545,0,5.367,5.367,0,0,1-.335,1.874A.273.273,0,0,1,311.185,280.559Zm-9.684-.271a.272.272,0,0,1-.26-.193,5.383,5.383,0,0,1-.238-1.588c0-.1,0-.2.009-.3a.286.286,0,0,1,.287-.257.272.272,0,0,1,.257.287q-.007.135-.007.271a4.834,4.834,0,0,0,.214,1.427.273.273,0,0,1-.26.353Zm9.853-2.741a.272.272,0,0,1-.265-.207,4.813,4.813,0,0,0-.7-1.561.273.273,0,1,1,.45-.308,5.333,5.333,0,0,1,.779,1.737.272.272,0,0,1-.2.33A.263.263,0,0,1,311.354,277.546Zm-9.653-.811a.273.273,0,0,1-.25-.382,5.373,5.373,0,0,1,1.059-1.582.272.272,0,1,1,.392.378,4.832,4.832,0,0,0-.952,1.423A.273.273,0,0,1,301.7,276.734Zm7.646-2.127a.269.269,0,0,1-.158-.05,4.788,4.788,0,0,0-1.548-.728.273.273,0,0,1,.14-.527,5.35,5.35,0,0,1,1.724.811.273.273,0,0,1-.158.495Zm-5.177-.436a.273.273,0,0,1-.118-.518,5.342,5.342,0,0,1,1.835-.509.273.273,0,0,1,.051.543,4.8,4.8,0,0,0-1.648.457A.268.268,0,0,1,304.169,274.171Z" transform="translate(-301.003 -273.142)" fill="#445eea"/><g transform="translate(2.174 3.075)"><rect width="6.34" height="3.595" transform="translate(0 1.32)" fill="#91a8f6"/><g transform="translate(1.16)"><path d="M344.956,291.894v-.44a.586.586,0,0,1,.586-.586h0a.586.586,0,0,1,.586.586v.729h-1.173" transform="translate(-340.645 -290.86)" fill="#445eea"/><path d="M324.492,291.406v3.736H320.17v-3.736a.587.587,0,0,1,.586-.586h4.273l-.119.025A.586.586,0,0,0,324.492,291.406Z" transform="translate(-320.17 -290.82)" fill="#e0eef7"/><g transform="translate(0.269 0.603)"><rect width="0.958" height="0.984" transform="translate(0 0.006)" fill="#445eea"/><g transform="translate(1.252)"><line x2="2.436" fill="none" stroke="#445eea" stroke-linecap="round" stroke-linejoin="round" stroke-width="0.658"/><line x2="2.436" transform="translate(0 0.331)" fill="none" stroke="#445eea" stroke-linecap="round" stroke-linejoin="round" stroke-width="0.658"/><line x2="2.436" transform="translate(0 0.663)" fill="none" stroke="#445eea" stroke-linecap="round" stroke-linejoin="round" stroke-width="0.658"/><line x2="2.436" transform="translate(0.023 0.994)" fill="none" stroke="#445eea" stroke-linecap="round" stroke-linejoin="round" stroke-width="0.658"/></g><line x2="3.688" transform="translate(0 1.321)" fill="none" stroke="#445eea" stroke-linecap="round" stroke-linejoin="round" stroke-width="0.658"/><line x2="3.688" transform="translate(0 1.652)" fill="none" stroke="#445eea" stroke-linecap="round" stroke-linejoin="round" stroke-width="0.658"/><line x2="3.688" transform="translate(0 1.976)" fill="none" stroke="#445eea" stroke-linecap="round" stroke-linejoin="round" stroke-width="0.658"/><line x2="1.793" transform="translate(0 2.307)" fill="none" stroke="#445eea" stroke-linecap="round" stroke-linejoin="round" stroke-width="0.658"/></g></g><path d="M318.284,302H313.5v-3.595Z" transform="translate(-313.502 -297.089)" fill="#445eea"/><path d="M322.457,302h4.782v-3.595Z" transform="translate(-320.9 -297.089)" fill="#445eea"/><path d="M319.842,311.376H313.5l2.847-1.521a.566.566,0,0,1,.645,0Z" transform="translate(-313.502 -306.461)" fill="#445eea"/></g></g></g></g></g></svg>