<svg xmlns="http://www.w3.org/2000/svg" width="73.407" height="62.664" xmlns:v="https://vecta.io/nano"><style><![CDATA[.B{fill:#fdc8aa}.C{fill:#15315e}.D{fill:#1f3a6f}.E{fill:#ffd6bb}.F{fill:#4076a3}.G{fill:#f4b545}.H{fill:#fbb188}.I{fill:#9fb8d6}.J{fill:#d7e3f4}.K{fill:#52d1bd}.L{fill:#ecf3fe}.M{fill:#e59d29}]]></style><path d="M21.087 1.986c-.032 0-.065-.007-.094-.021l-.5-.224c-.114-.049-.167-.18-.118-.294s.18-.167.294-.118l.519.23c.096.045.148.151.124.254s-.118.175-.224.173zM13.59 30.319c-.124 0-.224-.1-.224-.224s.1-.224.224-.224l1.1-.045c.123-.009.231.083.241.206s-.083.231-.206.241l-1.132.046zm-1.116-.035h-.016l-1.128-.124c-.122-.019-.206-.133-.187-.255s.133-.206.255-.188l1.091.12c.118.011.207.112.203.231s-.1.214-.218.216zm3.343-.131c-.118.001-.216-.091-.225-.208s.077-.222.194-.238l1.087-.188c.121-.025.24.053.264.175s-.053.24-.174.264l-1.115.193zm-5.55-.2a.22.22 0 0 1-.052-.006l-1.093-.314c-.08-.023-.14-.087-.158-.168s.011-.165.074-.218.15-.068.227-.038l1.054.3c.111.026.184.131.171.244s-.109.198-.223.198zm7.738-.241c-.112-.001-.206-.084-.22-.195s.055-.215.163-.245l1.058-.315c.077-.03.164-.014.227.04s.09.138.072.219-.079.145-.159.167l-1.083.323c-.019.003-.039.004-.058.002zm-9.853-.473a.22.22 0 0 1-.09-.019l-1.017-.51c-.075-.037-.123-.111-.125-.194s.041-.161.113-.202.161-.039.231.006l.979.491c.097.043.151.148.129.251s-.114.178-.22.178zm-1.945-1.093a.22.22 0 0 1-.127-.04l-.049-.034-.857-.653c-.095-.079-.108-.221-.029-.316s.221-.108.316-.029l.827.631.047.033c.08.056.115.157.086.251s-.115.157-.213.157zm-1.719-1.424c-.059 0-.115-.023-.157-.064l-.78-.825c-.078-.093-.067-.232.024-.312s.23-.073.313.017l.755.8c.065.064.085.16.051.244s-.116.139-.207.14zm-1.471-1.681c-.071 0-.138-.033-.18-.09l-.646-.932c-.067-.104-.036-.243.068-.31s.243-.036.31.068l.627.9c.074.099.053.239-.046.313a.22.22 0 0 1-.132.046zm-1.2-1.88c-.083.001-.16-.044-.2-.117l-.5-1.017c-.045-.112.007-.239.117-.288s.239-.002.292.106l.486.986c.057.108.017.241-.09.3-.033.017-.07.026-.108.025zm-.908-2.038c-.095 0-.179-.06-.211-.149l-.333-1.086c-.025-.117.047-.233.163-.263s.235.036.27.15l.323 1.05c.025.069.015.145-.027.205s-.11.095-.184.095zM.35 18.962c-.11 0-.203-.08-.221-.188-.061-.375-.103-.753-.125-1.133-.003-.121.09-.222.211-.229s.225.083.236.203a10.56 10.56 0 0 0 .12 1.087c.02.122-.063.237-.185.257zm7.9-.24h-.215c-.083.002-.16-.042-.201-.115a.22.22 0 0 1 .008-.231c.046-.069.125-.109.208-.101h.2 0a6.07 6.07 0 0 0 .872-.064c.081-.015.163.016.214.079s.064.15.033.226-.101.128-.182.138a6.5 6.5 0 0 1-.937.069zm-1.312-.154a.22.22 0 0 1-.053-.007l-.033-.008a5.05 5.05 0 0 1-1.059-.4c-.103-.059-.142-.188-.088-.294s.179-.152.288-.106a4.59 4.59 0 0 0 .965.366l.029.007c.109.028.18.132.167.244s-.108.196-.221.197zm3.306-.169c-.109-.001-.202-.08-.22-.188s.045-.213.149-.248a5.61 5.61 0 0 0 .982-.432c.107-.052.236-.012.294.092s.025.235-.075.298a6.11 6.11 0 0 1-1.061.466c-.023.006-.046.008-.07.006zm-5.278-.838c-.052 0-.102-.018-.142-.051a6.38 6.38 0 0 1-.818-.818c-.071-.095-.055-.229.036-.305s.226-.068.307.018a5.94 5.94 0 0 0 .76.761c.076.06.105.161.072.251s-.119.15-.215.149zm7.207-.259c-.093 0-.175-.057-.209-.144s-.01-.184.059-.246c.262-.235.491-.504.681-.8.042-.07.118-.113.2-.11s.156.049.193.122.031.16-.015.228a4.36 4.36 0 0 1-.76.895.22.22 0 0 1-.15.049zM.225 16.736H.211a.22.22 0 0 1-.154-.075.23.23 0 0 1-.056-.162 8.87 8.87 0 0 1 .14-1.137c.011-.083.067-.152.145-.181s.166-.012.228.044.087.141.067.222a8.48 8.48 0 0 0-.132 1.079c-.011.116-.108.204-.224.204zm3.3-.874c-.078 0-.151-.041-.192-.108a8.5 8.5 0 0 1-.527-1.02c-.049-.113.003-.246.116-.295s.246.003.295.116c.145.333.312.656.5.966.031.051.04.112.026.17a.22.22 0 0 1-.102.138c-.034.019-.073.028-.112.027zm9.814-.425c-.02 0-.04-.003-.059-.008-.057-.015-.106-.053-.136-.105a.22.22 0 0 1-.021-.17c.081-.296.122-.602.122-.909v-.129c-.008-.083.031-.163.101-.208s.158-.049.231-.008.117.117.115.2v.146c0 .347-.046.692-.138 1.027-.029.093-.114.156-.211.157zM.645 14.551a.22.22 0 0 1-.073-.012c-.117-.041-.179-.168-.138-.285a7.32 7.32 0 0 1 .46-1.055c.038-.071.111-.117.191-.12s.157.037.2.106.046.155.009.226a6.88 6.88 0 0 0-.433.991c-.034.087-.118.144-.212.143zm1.99-.733c-.101 0-.189-.067-.216-.164-.102-.37-.177-.746-.224-1.127-.008-.119.078-.224.196-.238s.227.066.248.183a7.61 7.61 0 0 0 .211 1.063c.019.067.005.14-.037.195s-.108.089-.178.089zm10.637-.582c-.098 0-.184-.063-.214-.156a4.75 4.75 0 0 0-.436-.972c-.062-.107-.026-.244.08-.306s.244-.026.306.08a5.32 5.32 0 0 1 .476 1.062c.022.068.01.142-.032.2s-.109.092-.181.092zm-11.581-.649c-.084 0-.162-.048-.2-.123s-.03-.166.02-.234c.197-.266.409-.521.634-.764-.01-.027-.015-.055-.015-.083a9.58 9.58 0 0 1 .082-1.141c.016-.123.129-.21.251-.193s.21.129.194.251c-.047.351-.073.705-.078 1.06.076.085.076.215 0 .3-.25.263-.484.541-.7.832-.044.057-.112.089-.184.087zm10.475-1.275c-.065 0-.127-.029-.17-.078a6.61 6.61 0 0 0-.769-.758c-.067-.05-.101-.132-.088-.214s.07-.151.149-.178.166-.008.226.049c.296.247.57.517.822.809.057.066.07.16.034.24a.22.22 0 0 1-.204.13zm-8.937-.34c-.096.002-.184-.057-.216-.148s-.004-.192.072-.252c.294-.244.603-.469.924-.676.067-.044.153-.048.225-.012s.118.109.122.189-.036.156-.104.199a9.03 9.03 0 0 0-.88.644c-.039.031-.088.047-.138.047zm7.229-1.088a.22.22 0 0 1-.113-.031 5.57 5.57 0 0 0-.971-.455c-.117-.041-.178-.169-.137-.286s.169-.178.286-.137a5.98 5.98 0 0 1 1.05.492c.087.051.129.155.102.252s-.115.165-.216.165zm-5.351-.112c-.105 0-.196-.073-.218-.176s.029-.207.124-.251a7.5 7.5 0 0 1 1.076-.407c.117-.03.237.038.271.154s-.031.238-.146.276c-.347.102-.685.23-1.012.383-.029.01-.059.015-.09.013zM2.64 9.397c-.069 0-.133-.032-.176-.086s-.058-.124-.041-.191l.325-1.092c.045-.111.169-.167.282-.127s.174.161.14.276l-.312 1.049c-.027.095-.114.162-.213.163zm5.721-.233h-.024a5.1 5.1 0 0 0-1.068 0c-.118.004-.22-.084-.231-.202s.07-.224.187-.243c.386-.041.775-.041 1.161 0 .12.011.209.115.203.235s-.107.214-.227.212zM3.378 7.291c-.076-.001-.145-.041-.186-.104s-.046-.144-.014-.213l.519-1.011c.061-.108.198-.145.306-.084s.145.198.084.306l-.5.976c-.039.077-.119.124-.205.122zm1.106-1.939c-.083 0-.16-.046-.199-.12S4.252 5.068 4.3 5l.69-.9c.051-.063.132-.094.212-.081s.147.069.174.146.011.162-.043.223l-.665.872c-.043.055-.109.086-.179.085zm1.435-1.708c-.091-.001-.172-.056-.206-.14s-.014-.18.051-.244l.088-.085.77-.666c.062-.055.15-.071.228-.041s.132.1.143.182-.026.164-.094.211l-.738.638-.084.082c-.042.037-.096.056-.152.055zm1.755-1.377c-.1 0-.188-.066-.216-.162s.012-.199.097-.252l.994-.555c.072-.042.161-.04.232.005s.11.124.104.207-.059.155-.135.188l-.955.533c-.036.02-.076.029-.117.028zm11.855-.9c-.025 0-.05-.005-.074-.013l-1.052-.329c-.119-.033-.189-.157-.156-.276s.157-.189.276-.156l1.081.338c.102.037.164.141.146.249s-.111.186-.22.186zm-9.856-.085c-.108 0-.2-.077-.22-.183s.039-.211.14-.25l1.082-.353c.119-.033.243.037.276.156s-.037.243-.156.276l-1.042.34c-.025.006-.051.007-.076.004zm7.7-.51c-.015.001-.029.001-.044 0L16.243.59c-.119-.019-.202-.13-.186-.25s.124-.206.244-.194l1.118.187c.112.024.187.128.176.242s-.107.2-.221.201zM11.82.685c-.115-.001-.211-.089-.222-.203s.068-.219.181-.241l1.125-.159c.123-.012.233.078.245.201s-.078.233-.201.245L11.86.682a.22.22 0 0 1-.032-.01zm3.339-.2h-.013l-1.1-.021c-.124.002-.226-.096-.228-.22s.096-.226.22-.228l1.133.021c.118.01.207.111.204.229s-.098.214-.216.218zm4.967 28.518c-.107-.001-.198-.077-.218-.181s.036-.209.134-.25l.5-.217c.072-.042.161-.04.232.005s.11.124.104.207-.059.155-.135.188c-.02.01-.2.1-.525.229-.029.013-.06.019-.091.019z" class="K"/><ellipse cx="41.34" cy="60.672" rx="32.066" ry="1.992" fill="#b7cae5"/><path d="M58.042 15.428H18.685c-.844 0-1.654.335-2.251.933s-.933 1.407-.933 2.251v27.849c0 .844.335 1.654.933 2.251s1.407.933 2.251.933h4.761v5.681a1.19 1.19 0 0 0 1.774 1.035l11.888-6.716h20.934c.844 0 1.654-.335 2.251-.933s.933-1.407.933-2.251V18.612c0-.844-.335-1.654-.933-2.251s-1.407-.933-2.251-.933z" opacity=".2" style="mix-blend-mode:multiply" class="F"/><path d="M62.757 17.176v27.868c-.001.537-.139 1.065-.4 1.534a3.2 3.2 0 0 1-1.483 1.356h0a3.16 3.16 0 0 1-1.3.275H38.641l-11.889 6.716a1.19 1.19 0 0 1-1.773-1.035v-5.677h-4.762c-.844 0-1.654-.335-2.251-.933s-.933-1.407-.933-2.251V17.176a3.18 3.18 0 0 1 3.184-3.184h39.376c1.751.011 3.164 1.433 3.164 3.184z" fill="#d6f2ee"/><g fill="#5693db"><path d="M38.384 25.003H24.046c-.653-.002-1.181-.53-1.183-1.183h0c.002-.653.53-1.181 1.183-1.183h14.342a1.19 1.19 0 0 1 1.183 1.183h0c-.002.654-.533 1.183-1.187 1.183zM24.042 27.53h8.785c.653 0 1.183.53 1.183 1.183h0c0 .653-.53 1.183-1.183 1.183h-8.785c-.314 0-.615-.125-.837-.346a1.18 1.18 0 0 1-.346-.837h0c0-.314.125-.615.346-.837a1.18 1.18 0 0 1 .837-.346z"/><rect width="21.854" height="2.366" rx="1.183" x="35.068" y="27.53"/><rect width="16.709" height="2.366" rx="1.183" x="22.859" y="32.425"/><rect width="16.422" height="2.366" rx="1.183" x="40.5" y="32.425"/><path d="M34.656 39.686h-10.61c-.653-.002-1.181-.53-1.183-1.183h0c.002-.653.53-1.181 1.183-1.183h10.613c.653.002 1.181.53 1.183 1.183h0c-.002.654-.532 1.182-1.186 1.183zm14.036 0H38.076c-.653-.002-1.181-.53-1.183-1.183h0c.002-.653.53-1.181 1.183-1.183h10.613a1.19 1.19 0 0 1 1.183 1.183h0a1.19 1.19 0 0 1-1.18 1.183z"/></g><path d="M41.425 56.674h25.311a2 2 0 0 0 1.669-1.968V37.257a2 2 0 0 0-2-1.995H41.746a2 2 0 0 0-2 1.995v17.449a2 2 0 0 0 1.679 1.968z" opacity=".2" style="mix-blend-mode:multiply" class="F"/><path d="M43.334 33.607h24.66c.529 0 1.037.21 1.411.584s.584.882.584 1.411v17.452c0 .529-.21 1.037-.584 1.411s-.882.584-1.411.584H65.01v3.559c0 .265-.141.509-.37.643s-.511.135-.741.005l-7.449-4.208H43.333c-.529 0-1.036-.21-1.41-.584s-.584-.882-.584-1.411V35.604c-.001-.53.209-1.038.583-1.412s.882-.585 1.412-.585z" class="G"/><g fill="#fff"><path d="M54.688 40.235h-9.293a.77.77 0 0 1-.766-.767h0a.77.77 0 0 1 .766-.767h9.293a.77.77 0 0 1 .767.767h0a.77.77 0 0 1-.767.767z"/><rect width="7.226" height="1.533" rx=".767" x="44.629" y="41.872"/><path d="M65.935 43.405H53.307a.77.77 0 0 1-.767-.767h0a.77.77 0 0 1 .767-.767h12.628a.77.77 0 0 1 .766.767h0a.77.77 0 0 1-.766.767z"/><rect width="10.827" height="1.533" rx=".767" x="44.629" y="45.044"/><rect width="10.641" height="1.533" rx=".767" x="56.06" y="45.044"/><path d="M52.271 49.749h-6.876a.77.77 0 0 1-.766-.767h0a.77.77 0 0 1 .766-.767h6.876a.77.77 0 0 1 .768.767h0a.77.77 0 0 1-.768.767zm9.098 0h-6.878a.77.77 0 0 1-.767-.767h0a.77.77 0 0 1 .767-.767h6.878a.77.77 0 0 1 .766.767h0a.77.77 0 0 1-.766.767z"/></g><path d="M22.665 60.184c-.045-.041-.1-.07-.159-.084-.464-.208-.908-.458-1.325-.749l-.079-.044h0c-.032-.018-.065-.033-.1-.044.011-.865-.871-3.834-.83-6.694a46.25 46.25 0 0 0-.333-5.959c.061-.047.088-.126.069-.2a5.8 5.8 0 0 0-.219-.789v-.018h0c.125-.119-.034-.3-.129-.385a10.2 10.2 0 0 1-.3-1.044 6.57 6.57 0 0 1-.177-1.267l.088-.046v.051.036.1.024.097.045.078.046a.37.37 0 0 0 .006.076.39.39 0 0 0 0 .048c0 .024 0 .048.007.072s0 .033.005.049.005.045.008.068 0 .033.007.05.006.042.009.063l.009.05.011.059.01.05.014.055.013.048.015.05.015.046.017.046.016.043.019.042c.006.014.012.027.02.04l.021.037.021.036.024.033c.007.011.015.021.023.031l.028.029a.27.27 0 0 0 .024.024c.011.009.023.018.035.026l.022.016c.02.012.04.022.062.03.409.148.551-.187.586-.525.011-.123.011-.247 0-.37a.98.98 0 0 0-.031-.184l-.055-.156v-.009l-.021-.062-.008-.023c0-.011-.007-.022-.009-.034s-.007-.022-.011-.033l-.014-.047c0-.011-.006-.022-.01-.034s-.006-.022-.008-.033-.01-.034-.014-.052l-.009-.037-.008-.037c-.003-.011-.006-.022-.007-.034 0-.019-.008-.038-.012-.057s0-.024-.006-.036 0-.017 0-.026c0-.03-.009-.059-.011-.088l.516-.068c.127-.017.217-.133.2-.26l-.032-.247a.6.6 0 0 0 .1-.147 1.52 1.52 0 0 0-.183-.942c-.049-.047-.091-.042-.125-.01-.015-.012-.031-.023-.049-.031-.051-.055-.126-.081-.2-.071l-.435.057c-.112-.261-.256-.508-.429-.733.097-.038.18-.103.242-.187l.139-.185c.2-.253-.885-.506-.3-1.519a3.58 3.58 0 0 0 .351-2.11 1.9 1.9 0 0 0 .073-.325c.131-.5-.531-1.445-1.568-1.678l-.1-.02c-1.2-.211-1.75.97-2.3 1.1-.573.188-.974.706-1.012 1.308-.018.375-.117.741-.292 1.073h0c-.393.584-.682 1.23-.857 1.912-.148.583-.148 1.193 0 1.776.026.099.076.189.146.264h0c.042.045.086.1.133.158l.095.128c.245.348.556.255.817 0l.026.1.069-.038 1.021 1.8a1 1 0 0 0 .193.206h0c-.091.358-.217.707-.376 1.041-.21.369-.016.464-.016.464h0c-.015 0-.086.037-.154.286l-.029.115c-.084.39-.51.722-.157.775a.75.75 0 0 0 .1.007c-.728 1.376-.3 3.8-.231 6.07l-.006 1.258c-.111 2.168-.675 4.419-.654 5.31-.033.058-.056.046-.072.109h0a2.77 2.77 0 0 0-.034.466c-.021.69.146 1.007.407 1.16a2.21 2.21 0 0 0 1.182.07c.081-.03.126-.141.14-.281a1.07 1.07 0 0 0-.1-.564c-.064-.131-.115-.268-.152-.409l-.093-.356 1.29-7.067c.187-.542.343-1.093.47-1.652l.467.837c.249.428.386.911.4 1.406a37.44 37.44 0 0 0 1.167 6.388.23.23 0 0 0-.17.11c-.078.132-.12.282-.121.435l-.011.264c-.001.054.006.108.018.16 1.05.164 2.109.256 3.171.276.071-.029.116-.099.114-.176.014-.114-.026-.227-.108-.307zm-6.827-18.471l-.073.006a.89.89 0 0 1 .172 0c-.033-.004-.065-.006-.098-.006zm.362.1a.45.45 0 0 0-.213-.091.45.45 0 0 1 .213.091zm-.215-.091l-.046-.006zm.219.1h0 0zm2.986.381l-.009.005c0-.009.007-.017.01-.026zm-3.431-.48c-.05.006-.101.015-.15.027.049-.013.099-.023.15-.03zm-.156.028l-.146.041c.05-.019.097-.033.147-.044zm-.153.044l-.13.047a1.13 1.13 0 0 1 .13-.051zm-.151.056l-.034.014zm-.206.093h0zm.119-.056l-.013.006z" opacity=".2" style="mix-blend-mode:multiply" class="F"/><path d="M18.684 51.627c.248.428.386.911.4 1.406.209 2.265.638 4.504 1.281 6.685.184.148.645-.042 1.035-.211s-.8-3.627-.751-6.938a45.72 45.72 0 0 0-.368-6.243l-1.911-.3-.374 2.238-.271 1.706c-.001.084.558.844.959 1.657z" class="C"/><path d="M17.724 49.975c0 .078.559.839.96 1.652l.524-4.422-1.213 1.063-.271 1.707z" fill="#122c51"/><path d="M19.326 40.242c.463.071.623-.04.755-.205l.14-.185c.2-.253-.885-.506-.3-1.519a3.36 3.36 0 0 0 .267-2.426c-.3-.107-1.319 1.223-1.942 2.231-.19.287-.349.593-.477.912-.225.709.935 1.097 1.557 1.192z" class="D"/><path d="M19.326 40.241c.463.071.623-.04.755-.205-1.08-.578-.539-2.125-.511-2.192l-1.329.294c-.19.287-.349.593-.477.912-.22.706.94 1.097 1.562 1.191z" class="C"/><path d="M15.308 59.699c.348.166.752.166 1.1 0 .092-.105.829-5.842 1.335-7.255a34.91 34.91 0 0 1 1.128-3.67c.341-.813.421-1.712.23-2.573 0 0-1.743-1.187-2.8.116a1.96 1.96 0 0 0-.126.173c-.877 1.335-.417 3.881-.34 6.256l-.006 1.258c-.131 2.679-.96 5.484-.521 5.695z" class="D"/><path d="M15.842 52.746c.1-1.028-.113-3.709.316-4.844.5-1.335 2.283-1.462 2.283-1.462l-2.132-.123a2.42 2.42 0 0 0-.127.173c-.878 1.334-.417 3.88-.34 6.256z" class="C"/><path d="M14.206 41.367a.59.59 0 0 0 .145.264h0c.042.045.085.1.133.158l.095.128c.507.717 1.286-.436 1.351-1.034s.632-1.026 1-1.4a1.81 1.81 0 0 0 .4-1.02v-.079c.013-.165-.021-.33-.1-.475-.022-.034-.049-.065-.08-.09-.267-.209-.3-.665-.1-.809.045-.032.1-.048.156-.044.031.001.061.006.09.015a.64.64 0 0 0 .19.031c.045-.001.089-.013.127-.037.05-.03.095-.073.171-.112a.99.99 0 0 1 .4-.093c.557-.037.414.61 1.03.48h0a1.57 1.57 0 0 0 .3-.1c.052-.023.102-.049.15-.079.376-.284.62-.708.675-1.176.131-.5-.531-1.445-1.567-1.678l-.1-.02c-1.2-.211-1.75.97-2.3 1.1a1.48 1.48 0 0 0-1.013 1.308 2.55 2.55 0 0 1-.292 1.073h0c-.393.584-.683 1.231-.857 1.913-.149.582-.15 1.193-.004 1.776z" class="D"/><path d="M14.486 41.79l.095.128c.506.717 1.286-.436 1.35-1.034s.632-1.026 1-1.4c.236-.29.376-.647.4-1.02a1.47 1.47 0 0 1-1.109.521c-.605.137-1.129.512-1.456 1.039s-.427 1.164-.28 1.766z" class="C"/><path d="M16.548 39.261s.837 1.144 1.469 1c.372-.08.7-.299.916-.612a.69.69 0 0 1-.454-.246c-.11-.159-.15-.356-.111-.545l-1.062-.778a1.95 1.95 0 0 1-.139.532.98.98 0 0 1-.619.649z" class="B"/><path d="M17.167 38.614c.258.486.762.789 1.312.79a.7.7 0 0 1-.111-.545l-1.061-.778a2.02 2.02 0 0 1-.14.533z" class="H"/><path d="M16.76 37.394c0 .333.18.6.4.6h.034c.144.555.628.955 1.2.992.108 0 .215-.016.318-.048a1.57 1.57 0 0 0 .979-1.545 1.89 1.89 0 0 0-.1-.6c-.113-.573-.616-.987-1.2-.987s-1.087.413-1.2.987h-.034c-.217-.001-.397.269-.397.601z" class="B"/><path d="M16.734 42.644l.047 1.067a7.7 7.7 0 0 1-.45 1.318c-.211.369-.016.464-.016.464h0c-.015 0-.086.037-.154.285-.011.034-.019.072-.028.115-.084.39-.512.722-.159.775s1.472-.211 2.226-.153 2.284.453 2.189-.105a6.19 6.19 0 0 0-.225-.807h0c.125-.119-.034-.3-.128-.385a10.35 10.35 0 0 1-.3-1.044c-.104-.43-.164-.869-.179-1.311-.003-.185.019-.37.066-.549a1.09 1.09 0 0 1 .22-.432 1.57 1.57 0 0 1 .647-.323c0 0-.514-2-1.744-1.912a4.74 4.74 0 0 1-2.193-.387 1.21 1.21 0 0 0-.819.385c-.439.709-.55 1.573-.306 2.371 0 0 .864-.515 1.249-.2.015.057.037.428.057.828z" fill="#5693db"/><path d="M16.676 41.82c.016.053.037.425.057.825l.548.856-.522-2.482-.083.801zm2.673-.077h0a14.7 14.7 0 0 0 .205 1.121 2.1 2.1 0 0 1 .065-.549l-.27-.572zm.811 3.861h0s-.2.271-1.476.129c-1.159-.13.788.425 1.571.167zm-4.002.175c.616.2 1.519-.378 1.032-.254a1.49 1.49 0 0 1-.875-.031h0c-.016.004-.088.036-.157.285z" fill="#3177bc"/><path d="M19.646 43.069c.017.671.121 1.354.479 1.484.408.149.549-.186.585-.525a2 2 0 0 0 0-.37.95.95 0 0 0-.031-.184c-.087-.227-.154-.461-.2-.7-.026-.134-.023-.273.008-.406.1-.328-.027-.171.189-.331.047-.035.09-.371-.106-.381a.75.75 0 0 0-.221.032c-.02.005-.041.009-.062.01-.04 0-.065-.016-.074-.075s-.001-.12.022-.175a.39.39 0 0 1 .187-.186c.156-.08.053-.24-.171-.158-.026.009-.053.02-.08.033-.057.026-.112.056-.164.09a1.09 1.09 0 0 0-.146.112c-.1.082-.163.201-.173.33 0 .093-.034.439-.048.862l.006.538z" class="B"/><path d="M20.124 44.553c.409.149.551-.186.586-.525-.107.162-.299.245-.49.211-.574-.062-.279-2.469-.205-3.013-.172.087-.291.251-.32.442-.003.268-.267 2.633.429 2.885z" class="H"/><path d="M20.713 43.658a.87.87 0 0 0-.031-.184 2.3 2.3 0 0 1-.188-1.108c.1-.331-.027-.169.192-.331.047-.035.09-.371-.106-.381-.075-.001-.149.01-.221.032l-.06.43c-.132.551.024 1.131.414 1.542z" class="E"/><path d="M19.646 43.069a1.57 1.57 0 0 1 .838-.3c-.026-.134-.023-.273.008-.406-.047-.031-.1-.052-.118-.062-.045-.023-.3.118-.322.129s-.282.069-.409.1l.003.539z" fill="#ea9165" opacity=".7"/><path d="M18.715 38.939a1.57 1.57 0 0 0 .979-1.544 1.9 1.9 0 0 0-.1-.6h-.249a1.9 1.9 0 0 1-.63 2.144z" class="E"/><path d="M19.837 36.848s-.263.489-.644.4c-.268-.034-.51-.179-.666-.4-.146-.2-.647-.106-.734.014s-.454.243-.6.095-.412.481-.079.8a.53.53 0 0 1 .031.749c-.063.049-.407-.323-.372-.471-.043-.281-.113-.556-.21-.823a3.35 3.35 0 0 1 .267-.654c.221-.307.478-.585.766-.83a3.2 3.2 0 0 1 .739-.26 2.56 2.56 0 0 1 .78.211 11.3 11.3 0 0 1 .722 1.169z" class="D"/><path d="M19.87 41.338l.109.908.4-.127-.088-.424-.051-.249-.064-.311c-.057.026-.111.056-.164.09s-.098.071-.142.113z" fill="#ea9165" opacity=".7"/><rect width="1.026" height="1.673" rx=".513" transform="matrix(-.991543 .129782 -.129782 -.991543 21.151 42.528)" fill="#3db29c"/><rect width="1.026" height="1.673" rx=".513" transform="matrix(-.992 .13 -.13 -.992 21.22 42.578)" class="K"/><path d="M15.493 41.979l1.021 1.8c.055.077.12.146.193.206.177.15.406.225.637.208.535-.042 1.877-1.125 2.123-1.244l.088-.044c.285-.178.601-.302.932-.364.253.014.717-.443.772-.591a1.51 1.51 0 0 0-.182-.942c-.076-.072-.134-.022-.173.06s-.057.168-.058.257a.4.4 0 0 1-.162.313c-.155.08-.2.184-.309-.062h0a.14.14 0 0 1-.009-.02c-.1-.216-.183-.169-.223.122v.034c-.021.183-.219.346-.484.492a6.43 6.43 0 0 1-.718.318c-.554.216-1.519.654-1.651.459s-.566-1.081-.608-1.164h0v-.005a.53.53 0 0 0-.362-.1c-.206.017-.407.07-.594.156l-.233.111z" class="B"/><path d="M15.493 41.979l1.021 1.8c.055.077.12.146.193.206.177.15.406.225.637.208.535-.042 1.877-1.125 2.123-1.244l.088-.044c.285-.178.601-.302.932-.364.253.014.717-.443.772-.591a1.51 1.51 0 0 0-.182-.942c-.076-.072-.134-.022-.173.06.543.474-.029 1.289-.278 1.287a2.94 2.94 0 0 0-.886.28c-.704.488-1.449.915-2.225 1.278-.178.07-.376.065-.551-.013s-.31-.223-.377-.402l-.869-1.63-.225.111z" class="H"/><path d="M16.312 41.714c.4.269.618 1.422 1.055 1.5a8.4 8.4 0 0 0 2.742-1.176.89.89 0 0 0 .256-.483c-.1-.216-.183-.169-.222.122v.034c-.021.183-.218.346-.484.492a6.43 6.43 0 0 1-.718.319c-.554.216-1.519.654-1.65.459s-.567-1.081-.608-1.164h0 0c-.107-.079-.239-.116-.371-.103z" class="E"/><path d="M23.25 60.491c.001.077-.044.146-.115.176a23.49 23.49 0 0 1-3.171-.276.68.68 0 0 1-.017-.16l.01-.264a.87.87 0 0 1 .121-.435s.1-.194.371-.072a.75.75 0 0 0 .239.059.82.82 0 0 0 .584-.154c.129-.125.152-.138.3-.057h0l.079.044a8.18 8.18 0 0 0 1.325.75c.059.014.114.043.159.084a.37.37 0 0 1 .115.305z" fill="#fff"/><path d="M23.252 60.491c.002.077-.044.147-.115.176-1.062-.02-2.121-.112-3.171-.276-.012-.052-.018-.106-.017-.16a22.34 22.34 0 0 0 3.303.26z" class="I"/><path d="M20.686 59.519c-.123.29-.416.47-.73.448a.87.87 0 0 1 .121-.435s.1-.194.372-.072a.72.72 0 0 0 .237.059zm2.452.666a2.87 2.87 0 0 1-1.287-.19c-.531-.158-.387-.506-.277-.687h0l.079.044a8.12 8.12 0 0 0 1.325.75c.06.014.115.042.16.083z" class="J"/><path d="M16.807 60.839c-.014.139-.059.25-.14.281a2.21 2.21 0 0 1-1.183-.07c-.26-.153-.429-.47-.408-1.16-.002-.156.01-.312.035-.466h0c.021-.078.051-.039.1-.165l.05-.073a.4.4 0 0 1 .009-.049c.026-.138.134-.525.484-.525a.53.53 0 0 1 .617.5l.181.76c.037.141.089.278.153.409.083.174.119.366.102.558z" class="L"/><path d="M16.807 60.838c-.014.139-.059.251-.14.281a2.21 2.21 0 0 1-1.183-.07c-.26-.153-.429-.47-.408-1.16a2.66 2.66 0 0 1 .035-.466c-.021.482.097.96.34 1.376.276.266 1.031.119 1.356.039z" class="I"/><path d="M16.549 59.866a1.88 1.88 0 0 1-1-.063c-.166-.081-.246-.386-.281-.667.027-.138.135-.525.485-.525a.53.53 0 0 1 .617.5l.179.755z" class="J"/><path d="M58.411 13.977c-.056-.132-.406-.246-.9-.338a.34.34 0 0 1-.272-.188.42.42 0 0 1-.028-.209h.245c.261-1.144.403-2.313.425-3.486a3.5 3.5 0 0 0-.059-.752c-.27-1.107-.832-2.121-1.627-2.937a2.52 2.52 0 0 0-.379-.38h0 0 0c-.255-.205-.549-.357-.863-.449v-1.23c.04-.08.073-.163.1-.248l.259-.065c.643-.262.18-1.678-.581-2.527s-1.591-.343-2.253-.05-1.035-.119-1.417.418.432 1.391.432 1.391c.106.095.242.151.384.158 0 .214.037.426.109.627.182.52.595.927 1.118 1.1a1.63 1.63 0 0 0 .207.05l-.022.015.024.182c-.181-.003-.361.01-.54.038-.093.014-.183.041-.267.082-.038.018-.072.045-.1.077a.08.08 0 0 0-.041.037l-.2.424-1.13 2.404c-.013.027-.041.044-.071.044s-.058-.017-.071-.044l-.779-1.234c-.014-.03-.046-.048-.079-.045l-.127.012-.04-.267a2.04 2.04 0 0 1-.006-.514.9.9 0 0 0 .007-.18l.028-.028a.1.1 0 0 0 .028-.092l-.063-.281-.251-1.095a.1.1 0 0 0-.151-.057h0c-.016-.022-.041-.036-.068-.039s-.054.007-.074.027l-.611.618c-.025.027-.035.064-.026.1l.067.3c-.019.041-.033.083-.044.127a2.28 2.28 0 0 0 .144 1.173h0a2.8 2.8 0 0 0 .036.312h-.023a.08.08 0 0 0-.066.109c.319.711.698 1.395 1.131 2.043.317.463.642.83.886.878.48.093 1.19-.918 1.606-1.574a3.14 3.14 0 0 1-.158 1.085 4.03 4.03 0 0 1-.34.433c-.075.01-.2.051-.175.2-.101.116-.194.238-.28.366-.035.054-.067.111-.094.17l-4.682-1.63c-.461-.101-.942-.055-1.375.131L45 9.054a2.46 2.46 0 0 0-1.839.567c-.915.733-4.3 2.568-4.3 2.568a1.66 1.66 0 0 0 .09.124l-.557.5c-.083-.074-.169-.105-.259-.039-.448.27-.916.504-1.4.7-.15.066-.306.117-.466.152a.5.5 0 0 0-.443.327c-.017.055-.001.115.042.154 1.07.083 2.143.102 3.215.058l1.083.012 1.907-.027c.2-.017.292-.112.312-.251.002-.028.002-.056 0-.084-.006-.157.16-.552-.23-.491l.109-.123.071.039c.885-.628 1.727-1.316 2.518-2.059 1.41.806 2.867 1.528 4.363 2.16.922.418 1.926.626 2.938.61.704-.04 1.395-.203 2.043-.482h0a.38.38 0 0 0 .174-.025c.341-.147.175-.286.258-.36.011-.009.023-.017.036-.024h.007c.148-.051.285-.13.405-.231a1.38 1.38 0 0 0 .161-.175c.233-.381.442-.776.625-1.183l.114-.239.013-.027.225-.489.025-.055.1-.226.008-.019-.216 2.827h.092c0 .026.009.055.014.085a1.14 1.14 0 0 1 .014.263c-.019.155-.719.528-.359.472.244-.033.491-.043.737-.028 1.014.267 1.836.073 1.781-.058zm-18.293-.9h.063l-.088.045zm1.421-.49l-.623.383c-.048-.066-.112-.118-.187-.15l1.5-.755a5.36 5.36 0 0 1-.729.445c.001.009.003.018.007.026.009.016.02.032.031.047z" opacity=".2" style="mix-blend-mode:multiply" class="F"/><path d="M50.361 6.141l-.066.047-.652.459-.164.115c-.177-.409-.242-.857-.19-1.3a.64.64 0 0 1 .19-.33l.023-.019c.023-.018.048-.033.074-.045h0c.155-.066.295.037.412.2a3.19 3.19 0 0 1 .373.873z" class="B"/><path d="M50.297 6.188l-.653.46a3.98 3.98 0 0 1-.354-1.181c.028-.127.094-.242.19-.33l.023-.019.074-.045h0l.289-.173.124.374z" fill="#efa57f"/><path d="M57.218 14.037c-.246-.015-.494-.005-.738.028-.36.055.341-.318.36-.472a1.12 1.12 0 0 0-.016-.263l-.036-.2 1.075-.115c-.065.138-.076.294-.032.44a.34.34 0 0 0 .272.188c.489.092.839.206.894.338s-.768.321-1.779.056z" class="B"/><path d="M57.829 13.451l-1.006-.124-.036-.2 1.074-.115a.62.62 0 0 0-.032.439z" fill="#efa57f"/><path d="M42.175 12.559c-.021-.007-.948.581-.948.581l.754.616c.028 0 .5-.138.5-.138l.486-.546z" class="B"/><path d="M42.969 13.816a.52.52 0 0 1 0 .084c-.021.14-.113.235-.312.251a53.3 53.3 0 0 1-1.907.027 10.8 10.8 0 0 1-1.73-.067c-.041-.037-.057-.094-.041-.147a.48.48 0 0 1 .421-.31c.152-.033.301-.081.444-.144a11.4 11.4 0 0 0 1.157-.559l.176-.108c.171-.126.328.12.486.33.044.06.092.117.145.17.211.2.678.059.678.059.71-.284.477.23.483.414z" class="L"/><path d="M42.965 13.9c-.021.14-.113.235-.312.251a53.3 53.3 0 0 1-1.907.027 10.8 10.8 0 0 1-1.73-.067c-.041-.037-.057-.094-.041-.147a1 1 0 0 0 .438.058l1.378.008c.727.033 1.456-.011 2.174-.13z" class="I"/><path d="M41.663 13.177c-.264.17-.55.305-.85.4a1.12 1.12 0 0 1-.97-.06 11.39 11.39 0 0 0 1.159-.559l.175-.108c.17-.134.326.112.486.327z" class="J"/><path d="M54.593 13.357c-3.639 1.042-8.537-2.949-8.537-2.949-.462.941-3.136 2.833-3.136 2.833-.341-.146-.628-.394-.823-.709a.07.07 0 0 1-.007-.026c.526-.261 1.002-.613 1.405-1.04l1.971-2a2.08 2.08 0 0 1 1.807-.427l5.073 1.766z" class="C"/><path d="M45.404 11.079l-3.307 1.453a.07.07 0 0 1-.007-.026c.526-.261 1.002-.613 1.405-1.04l1.851-1.119z" fill="#122c51"/><path d="M40.81 13.57a1.2 1.2 0 0 1-.018.461c-.011.05-.026.1-.045.148a10.8 10.8 0 0 1-1.73-.067c-.041-.037-.057-.094-.041-.147a.48.48 0 0 1 .421-.31c.152-.033.301-.081.444-.144a11.4 11.4 0 0 0 1.157-.559c-.116.163-.275.421-.213.542.012.024.02.05.025.076z" fill="#184b68" opacity=".45"/><path d="M50.522 6.993l-1.031.083a2.56 2.56 0 0 1-.061-.435 4.17 4.17 0 0 1 0-.5l.02-.258.01-.18c0-.041.021-.078.056-.1a1.49 1.49 0 0 1 .514-.194l.034-.008.213-.041.01.016a1.24 1.24 0 0 1 .081.167 1.1 1.1 0 0 1 .081.349.86.86 0 0 1-.007.18c-.019.171-.017.344.006.514a3.74 3.74 0 0 0 .074.407zm-10.857 5.206l-.823.733s-.1.685.546.692h1.038l.359-.711z" class="B"/><path d="M40.605 13.797c.001.03-.001.06-.005.089-.021.147-.118.247-.327.265-1.275.052-2.552.038-3.825-.042-.042-.039-.058-.099-.042-.154a.5.5 0 0 1 .443-.327c.16-.035.317-.086.467-.152a9.95 9.95 0 0 0 1.4-.7c.18-.133.345.126.512.347.046.064.096.124.152.179.222.207.713.062.713.062.745-.3.505.24.512.433z" class="L"/><path d="M40.599 13.886c-.021.147-.118.247-.327.265-1.275.052-2.552.038-3.825-.042a.15.15 0 0 1-.042-.154c.147.054.303.075.459.06a24.04 24.04 0 0 0 3.735-.129z" class="I"/><path d="M39.228 13.12c-1.123.691-1.688.506-1.913.355a9.96 9.96 0 0 0 1.4-.7c.183-.132.347.125.513.345z" class="J"/><path d="M54.939 13.099c-.028.526-.333.54-2.2.858-1.013.016-2.016-.192-2.939-.61-2.051-.758-4.274-2.216-4.6-2.251-.512-.055-4.386 1.987-4.386 1.987a1.7 1.7 0 0 1-1.216-.684 2.2 2.2 0 0 1-.154-.2l4.3-2.568a2.46 2.46 0 0 1 1.839-.567l2.984 1.1c.688.276 1.344.626 1.956 1.043a1.09 1.09 0 0 0 .982-.125c.236-.18.923-.6.923-.6a18.53 18.53 0 0 1 2.362 2.284.65.65 0 0 1 .149.333z" class="D"/><path d="M54.938 13.094c-.028.526-.332.54-2.2.858a6.86 6.86 0 0 1-2.938-.61c3.3.7 4.6-.184 4.991-.583a.64.64 0 0 1 .147.335z" class="C"/><path d="M53.339 7.845c.001.018-.004.036-.014.051-.153.222-1.263 2.219-1.928 2.089-.245-.048-.568-.415-.887-.878-.433-.648-.811-1.332-1.13-2.043-.01-.023-.008-.05.005-.071s.036-.036.061-.038l1.177-.113c.033-.003.065.015.079.045l.779 1.234c.013.027.041.043.07.043s.057-.017.07-.043l1.126-2.414.2-.424a.08.08 0 0 1 .15.031z" class="G"/><path d="M53.339 7.845c.001.018-.004.036-.014.051-.153.222-1.263 2.219-1.928 2.089-.245-.048-.569-.415-.887-.878.323.224.727.297 1.108.201s.702-.351.881-.701a7.23 7.23 0 0 0 .25-2.895l.2-.424c.016-.031.052-.048.086-.041s.06.037.063.072z" class="M"/><path d="M57.583 8.611a1.5 1.5 0 0 1-.063.3c-.166.511-.361 1.011-.584 1.5l-.484 1.054c-.183.407-.392.802-.626 1.183-.047.063-.101.122-.159.175a1.27 1.27 0 0 1-.405.231h-.007c-.013.006-.025.014-.036.024-.083.074.083.212-.259.36a.38.38 0 0 1-.174.025c-.605-.174-1.166-.477-1.643-.888a3.75 3.75 0 0 1-1.218-1.61.3.3 0 0 1-.01-.174.92.92 0 0 1 .137-.3 3.77 3.77 0 0 1 .28-.366c-.022-.154.1-.194.175-.2.123-.136.237-.281.34-.433.277-.443.157-3.6.1-4.114-.006-.094.05-.18.138-.213.084-.041.174-.068.266-.082a3.17 3.17 0 0 1 .541-.038l.584.027.287.029.119.007q.139.01.27.031l.134.024.043.009.206.053c.315.091.608.244.864.449h0 0 0c.139.113.266.24.378.38.204.257.368.542.487.848l.085.235c.159.475.238.973.234 1.474z" class="G"/><path d="M56.45 11.469a11.46 11.46 0 0 0-.4-3.646l.962-.063.511 1.154c-.303.874-.661 1.727-1.073 2.555z" class="M"/><path d="M58.471 9.755a17.09 17.09 0 0 1-.424 3.486h-1.329l.216-2.827.052-.682-.941-1.908h0l.284-1.729.067-.415h0 0 0a6.17 6.17 0 0 1 .382.383A6.37 6.37 0 0 1 58.405 9a3.41 3.41 0 0 1 .066.755z" class="G"/><g class="M"><path d="M55.664 12.827a1.26 1.26 0 0 1-.405.231h-.006a.83.83 0 0 1-.316.072c-.424-.005-.818-.221-1.051-.576-.54-.674.07.1.965.294a1.6 1.6 0 0 0 .813-.021zm-3.614-2.326a3.97 3.97 0 0 1 .279-.366c.076.487.392.903.841 1.107.786.456-.26.479-1.12-.741zm6.362-1.498a6.73 6.73 0 0 0-1.055-1.853 7.51 7.51 0 0 0-1.028-1.056 6.91 6.91 0 0 0-.8-.585l-.183-.107-.021-.225.2.053c.315.091.608.244.864.449h0 0 0a2.47 2.47 0 0 1 .379.38 6.38 6.38 0 0 1 1.644 2.944z"/><path d="M54.881 5.113c-.282.159-.589.271-.907.332-.324.071-.662-.033-.89-.275a.91.91 0 0 1 .266-.082c.179-.028.359-.041.54-.038l.586.027.287.029z"/></g><path d="M55.534 3.81v2.006a.84.84 0 0 1-.92.442.78.78 0 0 1-.643-.61.5.5 0 0 1-.008-.061l-.056-.409-.017-.128-.024-.182z" class="B"/><path d="M55.534 3.81v.792c-.283.5-.806 1.157-1.562 1.047a.5.5 0 0 1-.008-.061l-.1-.72z" class="H"/><path d="M54.668 4.788a1.53 1.53 0 0 1-.984.016c-.525-.179-.94-.589-1.123-1.113s-.116-1.103.183-1.571a1.52 1.52 0 0 1 .752-.59c.876-.245 1.792.228 2.101 1.084s-.097 1.804-.928 2.174z" class="B"/><path d="M53.683 4.805c-.525-.179-.94-.589-1.123-1.113s-.116-1.103.183-1.571l.188.37a2.06 2.06 0 0 0 .752 2.314z" class="E"/><path d="M52.07 2.92s-.811-.855-.431-1.392.755-.125 1.417-.418 1.491-.8 2.253.05 1.222 2.265.58 2.527c0 0-.874.25-.948.075s.431-.655.087-.986-.523.243-.5.3-.243.087-.281-.081-.028-.9-.382-.78-1.109 1.279-1.795.705z" class="D"/><path d="M48.566 10.156l-2.585-.664a2.33 2.33 0 0 0-2.237.555l-4.151 2.347a2.2 2.2 0 0 1-.154-.2l4.3-2.568a2.46 2.46 0 0 1 1.839-.567l2.988 1.097z" fill="#254a84"/><path d="M50.375 5.938l-.61.618a.1.1 0 0 1-.163-.053l-.335-1.459a.1.1 0 0 1 .027-.1l.61-.618a.1.1 0 0 1 .162.053l.335 1.459c.009.036 0 .074-.026.1z" fill="#326497"/><path d="M50.484 5.865l-.028.028-.13.125-.066.064-.09.087-.174.167-.127.122c-.007.007-.015.012-.024.017a.1.1 0 0 1-.137-.065l-.039-.171-.083-.357-.063-.277-.1-.414-.035-.156a.1.1 0 0 1 .027-.091l.616-.592c.038-.026.071-.029.1-.018a.1.1 0 0 1 .061.066l.251 1.095.064.281a.1.1 0 0 1-.023.089z" class="K"/><path d="M50.063 6.374l-.057.209c-.109.06-.223.11-.341.15h-.008c-.039 0-.117-.006-.15-.411s.168-.611.262-.555c.056.034.069.112.08.2a1.35 1.35 0 0 0 .031.19.32.32 0 0 0 .183.217z" class="B"/><path d="M49.665 6.733h-.008c-.039 0-.117-.006-.15-.411s.168-.611.262-.555c.056.034.069.112.08.2-.103.073-.277.265-.184.766z" class="E"/></svg>