<svg xmlns="http://www.w3.org/2000/svg" width="82.363" height="62.664" xmlns:v="https://vecta.io/nano"><path d="M17.952 59.624l-.143 1.111 2.079.973 1.254-.544-.968-1.254-2.079-1.4z" fill="#305399"/><path d="M17.879 59.251l1.6-14.169L17.55 29.22l.434-3.374 8.617-.327.311 5.492-1.447 14.093-5.442 14.871z" fill="#bcbec0"/><path d="M27.416 9.841l4.334 1.181 5.013 8.882-2.374 2.2-3.342-3.957z" fill="#7db5db"/><path d="M32.929 27.106l.023 14.3-2.877 18.406-2.072-.021-1.139-17.022-2.665-17.037z" fill="#bcbec0"/><path d="M28.006 60.663l2.229.718 1.131-.685-1.109-1.131-2.24-.022z" fill="#305399"/><path d="M16.665 31.968l.059-1.321c.044-1.662.192-3.321.4-4.971l.675-6.62a31.42 31.42 0 0 1 1.463-5.368c1.308-2.8.9-3.058 6.652-3.889 2.519-.364 3.114 1.206 5.174 3.011.2.178.192 1.238.239 1.519l.274 1.479.268 1.153h0s1.729 7.867 2.872 9.538 3.505 4.007-.446 5.433c-.696.241-1.409.427-2.134.557l-4.893-.347a28.22 28.22 0 0 0-4.572.426 9.84 9.84 0 0 0-2.933.883c-.859.449-1.478 1.108-2.35 1.573-.079.053-.172.08-.267.077-.499-.07-.523-1.829-.481-3.133z" fill="#7db5db"/><path d="M25.921 10.588c-.554.181-1.156.151-1.689-.085-.145-.056-.24-.195-.239-.35.004-.435.038-.869.1-1.3-.535-.188-1.154-.471-1.248-1.031a1.6 1.6 0 0 1 .032-.533l.378-2.185a1.95 1.95 0 0 1 .227-.727 1.64 1.64 0 0 1 1.153-.615 3.99 3.99 0 0 1 3.232.787 1.75 1.75 0 0 1 .546.72 2.37 2.37 0 0 1-.079 1.384l-.33 1.258c-.127.482-.31 1.031-.774 1.212-.247.1-.538.068-.762.21-.395.25-.342.836-.547 1.255z" fill="#b97262"/><path d="M32.431 3.534a4.73 4.73 0 0 1 .364-.522c.319-.33.612-.684.878-1.058.268-.388.281-.898.035-1.3a1.42 1.42 0 0 0-.757-.436 5.5 5.5 0 0 0-2.894-.054c-.82.369-1.737.464-2.615.27-.772-.275-1.622-.229-2.359.129-1.065.226-2.111.53-3.131.911-.36.214-.663.513-.882.87a3.88 3.88 0 0 0-.011 4.1 5.55 5.55 0 0 0 .6.761c.424.559.983 1.001 1.624 1.285.015-.56-.495-2.324-.065-2.783.682-.728 2.224-.474 3.071-.295.923.2 1.746.849 2.661.989a3.45 3.45 0 0 0 2.059-.563c.696-.414 1.017-1.64 1.422-2.304z" fill="#3b455a"/><path d="M21.143 10.874l-3.586 3.142-4 8.407 5.053 6.011.869-3.362z" fill="#7db5db"/><path d="M45.719 14.021l-44.33 3.337 23.206 12.155zM0 18.377l2.149 28.547 41.555-3.128c3.241-.356 5.582-3.269 5.233-6.511L47.246 14.82 24.733 31.327z" fill="#305399"/><path d="M37.766 14.62a7.69 7.69 0 0 0 0 1.161 7.61 7.61 0 0 0 1.038 3.311l6.916-5.07zm8.19 8.204a7.66 7.66 0 0 0 1.864-.376l-.574-7.628-7.524 5.516c1.582 1.748 3.883 2.667 6.234 2.488z" fill="#292949"/><circle cx="7.639" cy="7.639" r="7.639" transform="matrix(.707107 -.707107 .707107 .707107 36.39 14.12)" fill="#7db5db"/><path d="M48.783 18.296l-1.789.107-.351-5.889-1.118.067-.107-1.789 2.907-.173z" fill="#fff"/><path d="M74.055 58.851c.158-.207.413-.316.672-.288a.76.76 0 0 1 .564.425c.061.154.095.318.1.484-.021-.255.156 2.852-1.071 3.167-.454.096-.9-.192-1-.645a4.48 4.48 0 0 1 .735-3.143z" fill="#305399"/><path d="M73.651 45.996l.059 5.2c-.069 2.309.291 4.63.222 6.939a5.86 5.86 0 0 0-.02 1.617c.131.515.549.606.978.345.575-.349.482-1.165.578-1.76l.847-4.9c.135-.8-.143-1.922-.083-2.733l.84-4.356z" fill="#efbfa5"/><path d="M79.59 37.598l-2.262 10.049-.481 9.489-3.587-.081-.975-26.543 6.953.126zM68.924 58.662a.73.73 0 0 1 .682-.249.78.78 0 0 1 .545.459 1.46 1.46 0 0 1 .076.49c-.011-.265-.015 2.873-1.2 3.106a.86.86 0 0 1-.968-.7c-.11-1.107.199-2.215.865-3.106z" fill="#305399"/><path d="M70.815 46.726l-.3 5.189c-.025 1.442-.217 2.873-.366 4.305-.138 1.33.077 2.716-.618 3.926-.218.38-.659.632-.967.171-.237-.355-.1-.948-.142-1.351l-.615-4.929c-.1-.806.233-1.914.211-2.726l-.633-4.39z" fill="#efbfa5"/><path d="M66.276 36.983l-.292 9.754 1.531 9.864 3.649.109-.161-10.675 1.931-8.853.648-5.795-5.789-.683z" fill="#305399"/><g fill="#d3e5ef"><path d="M70.851 10.742l6.237-.149 3.616 6.726-1.285 6.3-.229 7.539-8.9.121-2.928-.475.777-8.055-.446-10.76z"/><path d="M77.3 11.057l5.063 7.712-.761 4.3-7.842 5.432-1.476-1.29 5.242-6.627-.2-4.188zm-6.752 3.76l-3.249 6.495-3.5.7-8.728-3.811 1.505-1.708 7.96 1.457 3.173-5.958z"/></g><path d="M71.246 5.516c.94-2.734 4.549-1.709 5.293.725a3.57 3.57 0 0 1-2.386 4.1 1.6 1.6 0 0 0-.013.17 5.34 5.34 0 0 1-.07.761c-.544-.018-1.085-.089-1.615-.213-.057-.004-.111-.031-.149-.074-.058-.09.036-.357.047-.457q.019-.178.037-.356a2.84 2.84 0 0 1-1.467-2.1c-.105-.866.006-1.744.323-2.556z" fill="#efbfa5"/><g fill="#2f3849"><path d="M73.601 3.046c.176.209.289.463.325.734.042.155.052.316.028.475-.134.621-.75.588-1.226.788-.587.255-1.082.682-1.422 1.224a3.68 3.68 0 0 0-.074 2.776c.074.318.221.792-.025 1.076a1.06 1.06 0 0 1-1.131.1c-.275-.136-.5-.387-.8-.437-.319-.053-.75.087-.9-.206a2 2 0 0 0-.1-.256c-.176-.252-.615.043-.863-.135-.136-.14-.176-.347-.1-.527s.11-.367.1-.559a1.85 1.85 0 0 0-.219-.435c-.14-.301-.094-.656.119-.911.393-.455 1.153-.368 1.574-.8a1.85 1.85 0 0 0 .386-.848c.054-.311.198-.6.414-.831.29-.255.708-.211.993-.513.144-.197.3-.385.468-.563.322-.207.674-.363 1.043-.464.491-.176 1.039-.054 1.41.312z"/><path d="M75.883 7.408c.017.9-.43 1.872-.016 2.664s1.461.943 2.35.985l2.03.133a6.11 6.11 0 0 1 .613-1.816 2 2 0 0 1 1.5-1.045c-.182-.063-.289-.251-.251-.44a2.98 2.98 0 0 1 .173-.535 1.26 1.26 0 0 0-.329-1.265c-.663-.618-1.866-.361-2.435-1.072-.353-.44-.311-1.079-.5-1.617-.357-1.04-1.5-1.257-2.346-1.727-.825-.526-1.812-.737-2.78-.595-.626.079-1.183.433-1.521.966s-.419 1.188-.223 1.787c.635 1.579 3.177 1.443 3.652 3.046a1.98 1.98 0 0 1 .083.531z"/></g><path d="M75.247 10.706l-1.935 2.735-.91-.074-1.516-2.774z" fill="#3b455a"/><g fill="#fff"><path d="M65.435 31.278a.55.55 0 0 1-.4-.164l-4.407-4.518-2.737 3.5c-.092.122-.237.194-.39.193a.64.64 0 0 1-.569-.4l-6.49-17.471a.5.5 0 0 1 .123-.562.48.48 0 0 1 .382-.19.56.56 0 0 1 .207.042l17.3 6.92a.59.59 0 0 1 .383.47c.024.213-.071.422-.247.545l-3.508 2.6 4.4 4.508c.216.223.216.577 0 .8l-3.646 3.557c-.109.105-.254.163-.405.163zm-4.861-6.106c.154-.001.303.058.414.166l4.462 4.574 2.834-2.765-4.453-4.565a.55.55 0 0 1-.162-.432.62.62 0 0 1 .256-.443l3.217-2.388-15.182-6.071 5.694 15.329 2.514-3.218a.51.51 0 0 1 .406-.181z"/><path d="M69.64 26.61l-2.129-2.182-2.1-2.151 1.46-1.083 1.852-1.375c.242-.168.369-.456.331-.748s-.237-.537-.514-.636l-5.882-2.352-9.3-3.717-1.265-.506-.862-.345a.77.77 0 0 0-.286-.057.69.69 0 0 0-.539.259c-.208.202-.274.511-.165.78l.234.63 1.972 5.309 3.486 9.385.4 1.084.395 1.063a.85.85 0 0 0 .77.542.7.7 0 0 0 .558-.275l1.393-1.784 1.194-1.528 1.65 1.691 1.991 2.041.6.611a.76.76 0 0 0 .549.228.8.8 0 0 0 .554-.224l1.794-1.751 1.851-1.806a.78.78 0 0 0 .008-1.103zm-.3.8l-3.649 3.555a.37.37 0 0 1-.256.1c-.091.001-.179-.035-.243-.1l-.6-.611-3.981-4.081-2.888 3.7c-.052.07-.135.112-.222.111a.42.42 0 0 1-.369-.264l-.8-2.147-3.486-9.385-2.206-5.939a.29.29 0 0 1 .081-.342.27.27 0 0 1 .224-.122c.044.001.087.01.128.027l2.127.85 9.3 3.717 5.882 2.352a.36.36 0 0 1 .088.645l-3.7 2.749.31.318 4.258 4.364a.36.36 0 0 1-.001.501zm-5.357-4.979a.36.36 0 0 1 .069-.555l3.524-2.615-1.5-.6-9.3-3.717-5.184-2.073.531 1.43 3.486 9.385 1.977 5.323 2.749-3.519a.3.3 0 0 1 .238-.1.37.37 0 0 1 .261.1l.6.611 4.015 4.116 3.139-3.063-.345-.354zm1.471 7.177l-.886-.909-2.831-2.9-.091-.093-.505-.518a.79.79 0 0 0-.567-.23.72.72 0 0 0-.575.268l-1.374 1.759-.9 1.158-.684-1.842-1.027-2.764-3.486-9.385-.2-.528 4.29 1.716 4.648 1.859 4.648 1.859.771.308.025.01-1.118.83-1.793 1.331a.83.83 0 0 0-.341.6.76.76 0 0 0 .221.6l2.129 2.182 2.129 2.182.047.048z"/></g><path d="M50.985 12.253l6.49 17.471 3.111-3.983 4.854 4.975 1.823-1.778 1.823-1.778-4.852-4.975 4.056-3.01z" fill="#3b455a"/><path d="M70.554 27.886l.034 1.052-1.857.676-1.07-.811v-1.225l1.033-.058.032-.269.338-.218z" fill="#efbfa5"/><path d="M14.282 16.941l1.05-1.4 2.132-.414 1.148 1.146-2.033 2.116zm16.97-2.028l1.05-1.4 2.132-.414 1.148 1.146-2.033 2.116z" fill="#b97262"/></svg>