<svg xmlns="http://www.w3.org/2000/svg" xmlns:xlink="http://www.w3.org/1999/xlink" width="64.146" height="61.763" xmlns:v="https://vecta.io/nano"><defs><linearGradient id="A" y1=".5" x2="1" y2=".5"><stop offset="0" stop-color="#444b8c"/><stop offset=".996" stop-color="#26264f"/></linearGradient><linearGradient id="B" x1="1.039" y1=".5" x2="2.039" y2=".5"><stop offset="0" stop-color="#ffc444"/><stop offset=".996" stop-color="#f36f56"/></linearGradient><linearGradient id="C" x1=".841" y1=".024" x2="-.325" y2="1.643"><stop offset="0" stop-color="#311944"/><stop offset="1" stop-color="#893976"/></linearGradient><linearGradient id="D" x1=".847" y1=".018" x2="-.327" y2="1.648"><stop offset=".004" stop-color="#e38ddd"/><stop offset="1" stop-color="#9571f6"/></linearGradient><linearGradient id="E" y1=".5" x2="1" y2=".5"><stop offset="0" stop-color="#ff9085"/><stop offset="1" stop-color="#fb6fbb"/></linearGradient><linearGradient id="F" x1=".742" y1="-.038" x2="-.089" y2="1.806"><stop offset="0" stop-color="#aa80f9"/><stop offset=".996" stop-color="#6165d7"/></linearGradient><linearGradient id="G" x1="-.584" y1="-1.259" x2="-1.279" y2="-.383" xlink:href="#D"/><linearGradient id="H" x1="-.857" y1=".34" x2="-.654" y2=".428" xlink:href="#A"/><linearGradient id="I" x1="-1.224" y1=".127" x2="-.485" y2=".614" xlink:href="#F"/><linearGradient id="J" x1="-1.89" y1=".1" x2="-.878" y2=".587" xlink:href="#F"/><linearGradient id="K" x1="-.123" y1=".323" x2=".595" y2=".953" xlink:href="#F"/><linearGradient id="L" x1="-5.939" y1=".249" x2="-5.737" y2=".324" xlink:href="#A"/><linearGradient id="M" x1="-.446" y1="-.088" x2="-.27" y2="1.094" xlink:href="#A"/><linearGradient id="N" x1="-.271" y1=".311" x2=".548" y2=".944" xlink:href="#F"/><linearGradient id="O" x1="0" x2="1" xlink:href="#B"/><clipPath id="P"><path d="M1495.616 1350.653l16.1-.363 19.451-5.884-11.706-18.874-30.271-.357s-2.608 23.264 6.426 25.478z" transform="translate(-1488.839 -1325.175)" fill="none"/></clipPath><linearGradient id="Q" x1="-5.467" y1="3.86" x2="-4.679" y2="1.918" xlink:href="#E"/><linearGradient id="R" x1="-8.069" y1=".899" x2="-7.435" y2="-.244" xlink:href="#E"/><linearGradient id="S" x1="-22.161" y1="10.733" x2="-22.107" y2="8.972" xlink:href="#B"/><linearGradient id="T" x1="21.758" y1="2.904" x2="21.089" y2="1.298" xlink:href="#A"/><linearGradient id="U" x1="-56.981" y1="-1.057" x2="-57.016" y2="2.083" xlink:href="#B"/><linearGradient id="V" x1="29.287" y1="3.057" x2="28.376" y2="1.158" xlink:href="#A"/><linearGradient id="W" x1="107.214" y1="15.385" x2="107.396" y2="19.551"><stop offset="0" stop-color="#ffc444"/><stop offset="1" stop-color="#f36f56"/></linearGradient><linearGradient id="X" x1="-13.542" y1="1.047" x2="-12.49" y2="-.673" xlink:href="#E"/><linearGradient id="Y" x1="-10.366" y1=".911" x2="-9.552" y2="-.745" xlink:href="#E"/><linearGradient id="Z" x1="-1.181" y1="4.607" x2="1.993" y2="-2.809" xlink:href="#E"/><linearGradient id="a" x1="-1.708" y1="1.398" x2="1.96" y2="-.094" xlink:href="#D"/><linearGradient id="b" x1="-1.59" y1="2.966" x2="3.258" y2="-2.757" xlink:href="#A"/><linearGradient id="c" x1="-12.244" y1="18.075" x2="5.625" y2="-6.569" xlink:href="#A"/><linearGradient id="d" x1="-5.902" y1="8.995" x2="5.532" y2="-6.201" xlink:href="#A"/><linearGradient id="e" x1="-5.172" y1="7.858" x2="5.976" y2="-6.61" xlink:href="#A"/><linearGradient id="f" x1="-6.293" y1="9.221" x2="4.616" y2="-4.801" xlink:href="#A"/><linearGradient id="g" x1="-5.573" y1="8.099" x2="5.061" y2="-5.221" xlink:href="#A"/><linearGradient id="h" x1="-3.331" y1="4.88" x2="10.547" y2="-11.009" xlink:href="#A"/><linearGradient id="i" x1="-3.784" y1="5.233" x2="9.445" y2="-9.401" xlink:href="#A"/><linearGradient id="j" x1="-4.219" y1="5.533" x2="8.335" y2="-7.875" xlink:href="#A"/><linearGradient id="k" x1="-2.318" y1="3.603" x2="10.964" y2="-11.051" xlink:href="#A"/><linearGradient id="l" x1="-2.755" y1="3.948" x2="9.8" y2="-9.377" xlink:href="#A"/><linearGradient id="m" x1="-3.172" y1="4.24" x2="8.629" y2="-7.801" xlink:href="#A"/><linearGradient id="n" x1="-1.281" y1="2.383" x2="11.283" y2="-10.948" xlink:href="#A"/><linearGradient id="o" x1="-1.731" y1="2.761" x2="10.137" y2="-9.307" xlink:href="#A"/><linearGradient id="p" x1="-2.167" y1="3.088" x2="8.981" y2="-7.763" xlink:href="#A"/><linearGradient id="q" x1="-.261" y1="1.268" x2="11.608" y2="-10.823" xlink:href="#A"/><linearGradient id="r" x1="-.722" y1="1.679" x2="10.48" y2="-9.211" xlink:href="#A"/><linearGradient id="s" x1="-1.172" y1="2.04" x2="9.339" y2="-7.698" xlink:href="#A"/><path id="t" d="M36.652 11.238a.19.19 0 1 1-.38 0 .19.19 0 0 1 .324-.134.19.19 0 0 1 .056.134z"/></defs><path d="M14.198 47.98l.282 1.9-5.2 5.971-1.8.1 1.564-4.786s.973-.692-1.3-.522L.132 52.761l.038-.484 8.945-3.708 5.083-.589z" fill="url(#A)"/><path d="M2.226 49.941c-.535.071-1.075-.08-1.496-.418S.046 48.69 0 48.152l.083-37.506a1.91 1.91 0 0 1 2.235-1.717l55.268 4.22a1.7 1.7 0 0 1 1.543 1.681l-.085 31.054c-.007.867-.686 1.58-1.552 1.63z" fill="#97a6b7"/><path d="M2.739 49.948c-.535.071-1.075-.08-1.495-.418s-.684-.833-.73-1.37l.083-37.5A1.91 1.91 0 0 1 2.83 8.943l55.243 4.219a1.7 1.7 0 0 1 1.542 1.681L59.53 45.89c-.007.867-.685 1.58-1.551 1.63z" fill="url(#A)"/><path d="M58.067 13.899L2.824 9.822a1.02 1.02 0 0 0-1.19.918l-.065 29.151-.018 8.232c.024.287.164.551.388.732s.512.262.798.224l55.241-2.285a.88.88 0 0 0 .831-.871l.019-7.1.066-24.027a.91.91 0 0 0-.827-.897z" fill="#d8dee8" opacity=".3" style="mix-blend-mode:multiply"/><path d="M2.744 45.895c-.112.013-.224-.02-.311-.091s-.142-.174-.151-.286l.077-34.73a.4.4 0 0 1 .464-.358l55.243 3.978c.182.016.322.168.323.351l-.08 29.029a.34.34 0 0 1-.325.338z" fill="url(#B)"/><path d="M52.339 45.162c-4.557-2.938-1.345-10.993-6.469-15.2-5.191-4.258-12.565.631-16.237-3.757-2.742-3.277.485-7.054-2.133-10.145-4.118-4.862-14.775 1.334-19.687-3.511-.908-.927-1.532-2.094-1.8-3.364l-3.187-.243a1.91 1.91 0 0 0-2.233 1.717l-.083 37.5c.046.537.31 1.032.73 1.37s.961.489 1.495.418l55.241-2.426c.866-.05 1.544-.763 1.551-1.63v-.552c-3.58 1.171-5.772.733-7.188-.177z" fill="#fff" opacity=".6" style="mix-blend-mode:soft-light"/><path d="M49.202 47.828l.086.838 4.709 2.873.735-.538-2.793-2.505s-.548-.165.273-.349l2.637-.013-.2-.145-3.4-.4-2.047.239z" fill="url(#A)"/><path d="M23.236 1.554L5.736.316l-.17-.308-.074-.005c-.38-.041-.759.08-1.044.333s-.451.615-.456.997v26.23a1.47 1.47 0 0 0 1.5 1.434h.248l.077-.156 17.331-.415c.757 0 1.479-.04 1.479-.793V2.697c-.006-.753-.634-1.09-1.391-1.143z" fill="url(#C)"/><path d="M23.559 1.238L5.793.003c-.38-.041-.759.08-1.044.333s-.451.615-.456.997v26.23a1.47 1.47 0 0 0 1.5 1.434h17.766c.362.001.71-.143.967-.398s.401-.603.401-.966V2.697c-.012-.766-.604-1.398-1.368-1.459z" fill="url(#D)"/><g fill="#fff"><path d="M23.422 5.912L5.944 4.902V2.081l17.478 1.128zm0 15.038l-17.478-.352V19.35l17.478.4zm0 2.156l-17.478-.258v-1.244l17.478.31zm0 2.155l-17.478-.164v-1.244l17.478.216z" style="mix-blend-mode:soft-light"/><path d="M23.422 16.706l-17.478-.538V6l17.478.964z"/></g><path d="M17.807 11.387c-.003.762-.32 1.489-.875 2.011s-1.301.792-2.062.747a3.08 3.08 0 0 1-2.98-3.015c.003-.77.326-1.503.891-2.026s1.322-.787 2.089-.73c1.619.076 2.902 1.393 2.937 3.013z" fill="url(#E)"/><path d="M16.335 11.109l-2.048-1.287a.25.25 0 0 0-.391.2v2.4c.002.092.052.177.131.224s.178.05.26.008l2.048-1.109c.081-.043.131-.127.131-.218s-.05-.175-.131-.218z" fill="#fff"/><path d="M56.339 33.94l-8.561-.595a.65.65 0 0 0-.724.641v7.413a.71.71 0 0 0 .724.691h8.561a.66.66 0 0 0 .66-.657v-6.79c-.006-.37-.292-.674-.66-.703z" fill="url(#F)"/><g fill="#fff"><path d="M56.273 40.604l-8.422-.078v-.6l8.422.1z" style="mix-blend-mode:soft-light"/><path d="M56.273 39.465l-8.422-.259v-4.9l8.422.464z"/></g><path d="M53.883 35.391l-4.53-.183c-.074-.003-.146.023-.2.073s-.085.12-.086.193l-.032 2.849a.35.35 0 0 0 .11.259c.068.064.157.1.25.1h.016l4.447-.04c.186-.005.335-.158.336-.344l.031-2.551c0-.191-.151-.348-.342-.356zm.019.42l-1.615 1.4c-.104.091-.239.14-.377.137a.57.57 0 0 1-.323-.109l-2.138-1.548c-.017-.012-.029-.031-.032-.052s.002-.042.014-.059c.027-.035.077-.042.113-.016l2.136 1.549a.4.4 0 0 0 .5-.02l1.617-1.4c.033-.02.075-.013.1.016s.025.072 0 .101z" fill="url(#G)"/><path d="M44.682 7.006l-15.779-1.1c-.335-.039-.671.068-.922.294s-.393.548-.39.886l.24 13.646c.033.721.634 1.285 1.356 1.272h15.759c.32.002.627-.125.851-.353s.347-.537.341-.857l-.22-12.5c-.028-.68-.558-1.232-1.236-1.288z" fill="#d8dee8"/><path d="M44.74 17.174l-15.513-.477-.159-9.02 15.519.855z" fill="#fff"/><path d="M38.297 11.119c-.035 0-.065-.027-.068-.062a3.6 3.6 0 0 0-.573-1.67c-.179-.336-.501-.572-.875-.64h0c-.995 0-1.2 2.286-1.205 2.309-.006.035-.038.059-.073.056s-.062-.033-.062-.068c.009-.1.222-2.431 1.34-2.434h0a1.35 1.35 0 0 1 .987.7 3.74 3.74 0 0 1 .6 1.734c.003.037-.024.07-.061.074z" fill="url(#H)"/><path d="M34.152 15.821l1.31.663.794-2.435-1.308-3.265-.371.091-.562 4.689c-.013.106.042.209.137.257z" fill="url(#I)"/><path d="M36.256 14.049l-1.308-3.265-.219.054c-.026.352-.026.704 0 1.056.088 1.111.379 1.421.238 2.2-.117.645-.373.732-.351 1.166a1.71 1.71 0 0 0 .746 1.179l.1.049z" opacity=".3" fill="url(#J)" style="mix-blend-mode:multiply"/><path d="M34.949 10.784h4.884l1.616 5.218-5.986.482z" fill="url(#K)"/><use xlink:href="#t" fill="url(#L)"/><path d="M36.459 11.232c-.031 0-.059-.022-.066-.052a3.47 3.47 0 0 1 .118-2.144.79.79 0 0 1 .539-.357c1.169-.206 1.89 2.306 1.92 2.413.007.023 0 .049-.017.066s-.042.024-.066.019-.042-.024-.049-.047-.716-2.5-1.765-2.316a.65.65 0 0 0-.448.3 3.41 3.41 0 0 0-.1 2.038c.004.018.001.036-.008.052s-.025.026-.043.03z" fill="url(#M)"/><path d="M39.832 10.784h-2.423c-.12.109-.195.258-.212.419-.038.738 1.659.981 1.823 1.993.118.73-.609 1.572-1.257 1.947-.683.4-1.146.2-1.608.634-.192.189-.33.425-.4.684l5.693-.459z" fill="url(#N)" opacity=".3" style="mix-blend-mode:multiply"/><use xlink:href="#t" x="2.476" y="-0.014" fill="url(#L)"/><path d="M5.433 29.701l13.677.137a1.11 1.11 0 0 1 1.069 1.113l.153 11.84a1.07 1.07 0 0 1-1.042 1.112l-13.695.084c-.641.002-1.164-.513-1.171-1.154l-.135-11.984a1.13 1.13 0 0 1 1.144-1.148z" fill="#d8dee8"/><path d="M5.659 39.386l13.466-.126-.1-7.883-13.459-.21z" fill="#fff"/><path d="M13.912 36.705a2.81 2.81 0 0 0 .407-1.219 1.8 1.8 0 0 0-.151-.87c-.202-.399-.508-.737-.886-.977-.253-.17-.475-.38-.658-.624l-.03-.044a1.2 1.2 0 0 1-.222-.448c-.014-.135-.127-.239-.263-.24a.25.25 0 0 0-.245.246l-.145 4.647c-.224-.153-.485-.242-.756-.257a1.14 1.14 0 0 0-1.3.971c.052.642.595 1.131 1.239 1.116a1.14 1.14 0 0 0 1.3-.971l.095-3.04a1.93 1.93 0 0 1 1.135 1.489 1.43 1.43 0 0 1-.1.137c-.097.106-.092.269.011.369a.25.25 0 0 0 .359 0 1.86 1.86 0 0 0 .195-.258c.006-.009.011-.018.015-.027z" fill="url(#O)"/><path d="M49.432 22.259l-25.211-1.32-.2-.369-.089-.006c-.455-.05-.91.095-1.253.398s-.541.738-.547 1.196l-.519 20.116c.024.971.829 1.74 1.8 1.719h.3l.092-.187 25-1.12c.907 0 1.772-.048 1.772-.95l.519-18.108c-.005-.906-.757-1.31-1.664-1.369z" fill="#d8dee8"/><path d="M49.3 43.366c.434.001.851-.171 1.159-.477s.481-.723.481-1.157l.519-18.108a1.78 1.78 0 0 0-1.64-1.748l-25.524-1.317c-.455-.05-.91.095-1.253.398s-.541.738-.547 1.196l-.519 20.116a1.76 1.76 0 0 0 1.8 1.719z" fill="#fff"/><path d="M49.057 41.283l-24.751.624a.69.69 0 0 1-.677-.748l.573-18.182c-.002-.194.073-.381.209-.519s.321-.216.515-.217l24.7 1.047c.352.049.601.37.562.723l-.523 16.56c.012.359-.252.668-.608.712z" fill="#d8dee8"/><path d="M43.731 36.654c-2.081-1.3-3.795.146-5.355-1.435-.946-.959-.446-1.618-1.6-3.038-1.281-1.573-2.162-1.106-3.454-2.528-1.634-1.8-.748-3.1-2.163-4.4-1.717-1.58-3.663-.282-5.3-1.8-.681-.69-1.119-1.581-1.251-2.541l-1.643-.077a.53.53 0 0 0-.539.526l-.676 21.527a.5.5 0 0 0 .506.536l28.075-.8a.44.44 0 0 0 .345-.2c-1.524-.062-2.972-.684-4.066-1.748-1.53-1.541-1.211-2.977-2.879-4.022z" fill="#fff" opacity=".48" style="mix-blend-mode:soft-light"/><g clip-path="url(#P)" transform="translate(21.819 16.294)"><g fill="#fff"><path d="M28.884 3.682l-.091-.723s-.728-.761-.711-1.125c.019-.392.047-.933.285-.986.287-.064.716.6.9 1.111a2.59 2.59 0 0 1 .152.9l.262.965z"/><path d="M28.372 2.794a1.26 1.26 0 0 1-.489-.81c-.069-.522.129.013.526.234l.4.221s.424.217.333.381-.77-.026-.77-.026z"/></g><path d="M28.389 3.864c.286-.355.699-.585 1.151-.641 1.578-.118 3.474 2.634 3.6 5.176a6.29 6.29 0 0 1-2.052 4.839c-3.164 2.649-8.943 1.244-9.923-1.07-.216-.668-.29-1.374-.216-2.073.077-.933.381-1.833.885-2.622 2.5.753 5.593 1.222 6.537.015a2.89 2.89 0 0 0 .018-3.624z" fill="url(#Q)"/><path d="M7.871 7.491c4.901-1.399 10.109-1.301 14.954.28l.517 3.47a40.28 40.28 0 0 1-.211 4.545c-.189 1.834-.318 1.856-.7 4.44-.623 4.213-.453 5.329-1.334 5.8-.573.3-.766.26-3.629-.153-1.217-.302-2.487-.325-3.715-.068-1.341.38-1.975.674-2.516.406-.518-.256-.557-1.151-.571-2.71-.022-2.4.035-4.035.044-4.619a22.95 22.95 0 0 0-1.383-7.419 35.7 35.7 0 0 0-1.456-3.972z" fill="url(#R)"/><path d="M16.93 3.939a7.7 7.7 0 0 1-.277 1.555c-.118.41-.187.512-.271.592-.126.12-.308.214-1.308.355-.544.077-.612.067-.628.117-.079.248 1.3 1.256 2.817 1.2.929-.036 1.809-.469 1.781-.744s-.958-.222-1.189-.742c-.161-.361.094-.827.381-1.2-.206-.481-1.101-.659-1.306-1.133z" fill="url(#S)"/><path d="M18.766 4.577c.323-.24.455-.659.33-1.041-.122-.261-.343-.463-.615-.559a1.61 1.61 0 0 0-1.735.155c-.246.249-.141.977-.129 1.105.013.145.1.223.161.35l.43.92a2.34 2.34 0 0 1 .252-.328 2.08 2.08 0 0 1 .413-.346c.409-.248.612-.068.893-.256z" fill="url(#T)"/><path d="M16.835 5.051a1.33 1.33 0 0 0 .917.918c.669.182 1.25-1.224.934-1.672-.158-.179-.381-.287-.619-.3-.147-.009-.211.03-.45.011-.221-.017-.271-.059-.349-.03-.1.037-.207.173-.22.638-.052-.145-.186-.244-.34-.252-.043.007-.082.025-.115.053-.148.131-.065.393.242.634z" fill="url(#U)"/><path d="M17.266 3.879c.024.034-.112.116-.174.277a.84.84 0 0 0 .4.951c.191.086.285-.012.623.066a1.62 1.62 0 0 1 .468.189.8.8 0 0 1-.52.777c-.263.04-.53-.042-.727-.221a1 1 0 0 1-.407-.569c-.067-.328.145-.44.024-.687a1.6 1.6 0 0 1-.225-.428c-.012-.047-.02-.095-.025-.144.231-.117.529-.26.563-.211z" fill="url(#V)"/><path d="M18.305 5.411c-.139.009-.279-.016-.406-.073-.012 0-.026-.006-.03 0-.013.021.109.176.267.186.112.007.224-.061.218-.09-.004-.012-.025-.019-.049-.023z" fill="url(#W)"/><path d="M9.448 18.824l.694-.006s.779-.59 1.123-.535c.323.072.632.196.915.368.062.052-.2.318-.451.279s-.818.069-.926.283-.548.325-.619.194l-.937.139z" fill="#fff"/><path d="M9.666 18.591a1.61 1.61 0 0 1-.319 1.187c-.952 1.112-4.05.5-5.851-1.138-1.281-1.185-1.983-2.868-1.926-4.612.15-3.106 3.173-6.015 7.56-6.865l1.755 5.778c-2.686-.085-3.854 1.759-3.657 3.192a2.83 2.83 0 0 0 2.438 2.458z" fill="url(#X)"/><path d="M20.024 24.581c-1.393-.659-1.347-1.885-2.65-2.459-1.859-.818-3.992.783-4.3.3-.322-.506 2.208-1.892 1.924-3.389-.226-1.189-1.966-1.062-2.844-2.716-.833-1.57.066-2.943-.7-3.511-.274-.2-.765-.3-1.713.06a19.43 19.43 0 0 1 .966 6.018l-.044 4.619c.015 1.559.053 2.454.571 2.71.54.267 1.174-.026 2.516-.407a7.26 7.26 0 0 1 3.718-.3c2.862.414 3.053.823 3.626.518a1.45 1.45 0 0 0 .694-1.131 3.59 3.59 0 0 1-1.764-.312z" opacity=".3" fill="url(#Y)" style="mix-blend-mode:multiply"/></g><path d="M42.118 38.831a2.42 2.42 0 0 1-2.56 2.4c-1.427-.045-2.57-1.199-2.6-2.627a2.42 2.42 0 0 1 2.6-2.4 2.69 2.69 0 0 1 2.56 2.627z" fill="#f4f7fa"/><path d="M38.119 39.265c.057.006.115-.005.167-.03l.108-.031.127-.037.109-.029.055-.01a.47.47 0 0 0 .074-.018c.017-.006.033-.015.046-.028.021-.029.031-.064.028-.1a.87.87 0 0 0-.009-.151c-.007-.049-.011-.098-.011-.148-.006-.035.003-.071.023-.1.01-.009.022-.017.035-.022l.038-.015.049-.013.04-.01a1.8 1.8 0 0 1 1.055 0l.039.01.049.013.038.015c.013.005.025.013.035.022.02.029.029.065.023.1a1.15 1.15 0 0 1-.011.148.87.87 0 0 0-.009.151c-.003.035.006.071.027.1.013.013.029.022.046.028a.47.47 0 0 0 .074.018l.055.01.109.029.127.037.108.031c.052.025.11.036.167.03a.1.1 0 0 0 .031-.023c.029-.03.056-.064.078-.1a.75.75 0 0 0 .061-.115.49.49 0 0 0-.02-.294.71.71 0 0 0-.174-.306.67.67 0 0 0-.072-.063c-.029-.021-.059-.041-.09-.058l-.08-.042-.1-.045-.086-.04c-.106-.051-.218-.091-.333-.119-.408-.084-.83-.084-1.238 0a1.66 1.66 0 0 0-.333.118l-.087.04-.1.045c-.018.008-.045.023-.08.042a.7.7 0 0 0-.337.427c-.037.093-.045.196-.021.294a.69.69 0 0 0 .061.115.6.6 0 0 0 .078.1.1.1 0 0 0 .031.024z" fill="url(#Z)"/><path d="M36.182 38.762a2.42 2.42 0 0 1-2.56 2.4c-1.427-.045-2.57-1.199-2.6-2.627a2.42 2.42 0 0 1 2.6-2.4c1.411.066 2.531 1.214 2.56 2.627z" fill="url(#a)"/><g fill="#f4f7fa"><circle cx=".378" cy=".378" r=".378" transform="matrix(.707107 -.707107 .707107 .707107 31.899 38.647)"/><circle cx="33.576" cy="38.669" r=".378"/><circle cx="34.718" cy="38.669" r=".378"/></g><path d="M14.359 55.941c7.356-2.21 14.94-2.673 22.3-4.883a3.42 3.42 0 0 1 1-.144c1.154-.001 2.302.158 3.412.473.61.185 1.007-.392 1.516-.218.219.071.404.219.523.416a.85.85 0 0 1-.354 1.025q-6.452 2.965-13.525 5.859-2.96 1.206-5.869 2.329a5.89 5.89 0 0 1-3.307.966c-1.278-.076-2.506-.524-3.533-1.288-.921-.454-1.677-1.186-2.161-2.092-.348-.803-.834-2.194-.002-2.443z" fill="url(#A)"/><g fill="#fff"><path d="M13.955 55.992l22.469-6.147a2.68 2.68 0 0 1 .793-.095c1.186.031 2.362.233 3.49.6l2.147.764a.27.27 0 0 1 .209.261.27.27 0 0 1-.203.265l-21.094 7.958c-.52.196-1.089.217-1.622.059a15.96 15.96 0 0 1-3.649-1.58 13.82 13.82 0 0 1-2.583-1.972c-.036-.038-.013-.097.043-.113z"/><path d="M20.399 55.313v.266h0c.001.015-.002.03-.009.043-.06.077-.147.129-.244.146l-.681.2a1.31 1.31 0 0 1-.805-.018l-.713-.354c-.072-.035-.1-.079-.088-.122v-.248l.222.094.055-.017.674-.181a1.33 1.33 0 0 1 .766.018l.649.3.057-.123zm1.967 1.205v-.278h-.08l-.145.087-.707-.327c-.265-.09-.551-.096-.819-.017l-.682.2-.046.015v-.1l-.215.031v.253h0c0 .043.035.084.105.119l.8.4c.278.101.582.107.864.018l.685-.22c.149-.048.23-.114.238-.179h0z"/><path d="M24.735 55.755h0l-.006-.23-.13-.079-.118.13-.676-.286a1.39 1.39 0 0 0-.8-.015l-.577.171h-.011l-.016-.113-.207.027v.254h0c-.007.048.03.1.116.134l.793.355a1.38 1.38 0 0 0 .844.016l.578-.186c.142-.051.214-.119.21-.178zm-1.985-.862v-.221l-.136-.027-.1.1-.593-.25a1.35 1.35 0 0 0-.751-.015l-.541.145.019-.027-.106-.125-.2.058.007.245h0c-.02.048.009.1.095.134l.708.317a1.35 1.35 0 0 0 .789.016l.576-.167c.176-.046.254-.118.233-.183zm1.647 2.476c-.3-.164-.7-.331-.889-.41a1.39 1.39 0 0 0-.878-.017l-.687.227-.245-.063a.72.72 0 0 0 0 .27c.005.027.016.052.032.073a.3.3 0 0 0 .092.066l.912.452c.298.113.626.119.929.018l.688-.249c.029-.011.222-.09.22-.2v-.265zm2.536-.691v-.24l-.235.075-.82-.346a1.42 1.42 0 0 0-.857-.014l-.578.191h0v-.129l-.217.051v.249h0c-.005.054.038.108.135.151l.9.4a1.41 1.41 0 0 0 .9.014l.577-.208c.112-.04.175-.092.191-.146h0c.006-.015.007-.032.004-.048z"/><path d="M26.868 54.819h-.2l-.061.085-.658-.255a1.42 1.42 0 0 0-.786-.013l-.442.131-.035-.088h-.218v.248h0c-.006.047.034.094.127.132l.778.318c.268.087.555.091.825.013l.483-.155c.12-.039.184-.091.19-.143h0zm2.189 1.124h0v-.265l-.267.021-.02.047-.757-.293a1.44 1.44 0 0 0-.838-.012l-.42.139-.257-.087v.27h0c0 .049.05.1.148.139l.876.359a1.44 1.44 0 0 0 .881.012l.479-.173c.12-.044.177-.1.175-.157zm-4.169-1.892h-.243l-.033.081-.55-.213c-.241-.071-.496-.076-.739-.013l-.452.122c0-.036-.011-.063-.027-.063-.042 0-.23-.036-.23-.036v.244h0c-.012.044.022.089.109.125l.7.285c.252.078.52.082.774.013l.484-.14c.135-.039.2-.094.2-.148h0zm1.944-.546h-.235l-.047.078-.555-.2a1.42 1.42 0 0 0-.726-.012l-.319.085c0-.019 0-.032-.005-.032-.027 0-.288-.07-.288-.07v.263h0c0 .039.035.079.118.11l.7.264a1.4 1.4 0 0 0 .759.012l.406-.118c.133-.039.194-.093.186-.145h0zm7.291.384v-.206l-.117-.056-.008.026a3.51 3.51 0 0 0-1.488-.751 8.8 8.8 0 0 0-4.113-.318c-.12.031-.235.081-.34.148l-.013-.052-.15.033v.266h0c-.015.281.442.63 1.33.938a8.67 8.67 0 0 0 4.464.385c.274-.091.412-.213.431-.352h0 0a.25.25 0 0 0 .004-.061zm-2.148-.143a3.45 3.45 0 0 1-1.725-.144c-.568-.19-.726-.428-.368-.536.559-.092 1.132-.046 1.669.134.587.185.783.431.423.542z"/><path d="M28.801 54.463h0v-.267h-.288c-.008 0-.028.047-.042.08l-.583-.21a1.44 1.44 0 0 0-.772-.011l-.275.082-.011-.054-.31-.031v.27h0c0 .042.046.084.135.117l.76.287c.263.081.543.085.808.011l.4-.13c.129-.039.184-.096.178-.144z"/><path d="M30.954 54.999l-.217.018-.026.063-.764-.274c-.267-.081-.551-.085-.82-.01l-.311.1c-.018-.018-.036-.033-.043-.033s-.223-.045-.223-.045v.242h0c-.008.053.043.108.156.15l.831.314a1.46 1.46 0 0 0 .86.01l.4-.144c.1-.036.151-.084.155-.132h0zm2.171-3.365l-.956.281-.047-.075H31.8v.242h0c-.02.058.048.119.2.166l.387.115a1.98 1.98 0 0 0 .964.008l1.15-.351v-.266z"/><path d="M36.056 51.489v-.01-.244c-.086.007-.171.007-.257 0-.012-.012-.052.053-.065.074l-.3-.079a2.03 2.03 0 0 0-.914 0l-1.1.056v.266l1.385.38 1.1-.337c.095-.029.144-.065.152-.1zm2.477.646v-.253l-.368-.089.013.148-.343-.089a2.07 2.07 0 0 0-.96-.005l-1.107.081v.266l1.512.415 1.111-.363c.1-.031.142-.071.144-.111z"/><path d="M35.469 52.287l-.75.235.014-.037-.267-.1-.321.158v.254h0c.01.055.09.112.239.156l.425.126a2.02 2.02 0 0 0 1.015.01l1.16-.379v-.266zm5.409-.681l-.008-.238-.057-.072-.157.1v.043h0l-.133-.039a2.77 2.77 0 0 0-1.073-.03l-.053-.108h-.207v.249.017c.006.068.122.14.339.194a2.58 2.58 0 0 0 1.192.006c.1-.034.155-.077.157-.122z"/></g><path d="M32.512 52.637a8.8 8.8 0 0 0-4.113-.319c-.9.26-.573.849.827 1.334 1.429.517 2.968.65 4.464.386.908-.304.334-.939-1.178-1.401zm-2.262.7c-.568-.19-.726-.428-.367-.536.559-.092 1.132-.046 1.669.134.586.186.782.432.423.546-.578.099-1.172.049-1.726-.145z" fill="url(#b)"/><path d="M40.723 51.463a2.58 2.58 0 0 1-1.192-.006c-.375-.094-.45-.24-.175-.328.385-.089.784-.089 1.169 0 .38.096.469.243.198.334z" fill="url(#c)"/><path d="M35.902 51.326l-1.1.337-1.385-.381 1.1-.322c.301-.07.613-.07.914 0l.392.1c.273.074.313.195.079.266z" fill="url(#d)"/><path d="M33.125 51.368l1.383.384-1.15.351c-.317.077-.648.074-.964-.008l-.387-.114c-.268-.079-.278-.2-.025-.278z" fill="url(#e)"/><path d="M38.388 51.981l-1.111.363-1.512-.415 1.107-.347c.316-.074.645-.072.96.005l.429.111c.305.079.363.206.127.283z" fill="url(#f)"/><path d="M35.469 52.021l1.511.42-1.16.379c-.334.083-.683.08-1.015-.01l-.425-.126c-.294-.087-.321-.222-.066-.3z" fill="url(#g)"/><path d="M25.995 53.118l.7.252c.2.071.175.184-.055.25l-.406.118a1.41 1.41 0 0 1-.759-.012l-.7-.264c-.191-.072-.151-.184.085-.248l.407-.109a1.41 1.41 0 0 1 .728.013z" fill="url(#h)"/><path d="M27.895 53.801l.76.273c.212.076.2.2-.02.268l-.4.13c-.265.074-.545.07-.807-.011l-.76-.287c-.2-.077-.178-.2.053-.264l.406-.121a1.44 1.44 0 0 1 .768.012z" fill="url(#i)"/><path d="M30.797 55.126l-.4.144c-.281.084-.581.08-.86-.01l-.831-.313c-.218-.083-.209-.209.017-.283l.4-.133a1.47 1.47 0 0 1 .82.01l.83.3c.232.079.241.206.024.285z" fill="url(#j)"/><path d="M24.061 53.654l.7.272c.195.076.159.195-.082.264l-.484.14c-.254.069-.522.065-.774-.013l-.7-.286c-.186-.076-.133-.194.115-.261l.483-.13c.244-.063.501-.058.742.014z" fill="url(#k)"/><path d="M26.677 54.97l-.483.155a1.41 1.41 0 0 1-.825-.013l-.778-.318c-.2-.082-.161-.208.083-.28l.483-.143a1.42 1.42 0 0 1 .786.013l.781.3c.209.083.185.21-.047.286z" fill="url(#l)"/><path d="M28.884 55.835l-.479.173c-.288.088-.596.084-.881-.012l-.876-.358c-.215-.088-.193-.222.047-.3l.482-.159a1.44 1.44 0 0 1 .838.012l.877.34c.221.083.221.218-.008.304z" fill="url(#m)"/><path d="M21.926 54.233l.713.3c.19.08.141.207-.113.28l-.576.167a1.35 1.35 0 0 1-.789-.015l-.708-.317c-.181-.081-.113-.206.148-.276l.574-.154c.247-.066.507-.061.751.015z" fill="url(#n)"/><path d="M23.804 55.025l.8.336c.2.086.171.221-.079.3l-.578.186c-.276.083-.571.078-.844-.015l-.793-.355c-.195-.087-.141-.221.118-.3l.577-.171a1.39 1.39 0 0 1 .799.019z" fill="url(#o)"/><path d="M26.744 56.607l-.577.208c-.294.094-.61.089-.9-.014l-.9-.4c-.211-.094-.173-.237.082-.322l.578-.191c.28-.084.58-.078.857.015l.9.379c.217.092.201.236-.04.325z" fill="url(#p)"/><path d="M19.573 54.87l.722.334c.185.086.118.22-.15.3l-.68.2c-.264.078-.546.072-.806-.018l-.713-.354c-.175-.086-.088-.219.188-.293l.675-.181c.25-.071.516-.067.764.012z" fill="url(#q)"/><path d="M21.438 55.734l.81.375c.2.093.149.237-.116.322l-.685.22c-.282.089-.586.083-.864-.018l-.8-.4c-.189-.093-.116-.236.158-.317l.681-.2a1.36 1.36 0 0 1 .816.018z" fill="url(#r)"/><path d="M24.35 57.47l-.688.249a1.38 1.38 0 0 1-.929-.017l-.912-.453c-.205-.1-.149-.255.122-.345l.687-.227c.287-.09.595-.084.878.017l.919.426c.218.1.185.256-.077.35z" fill="url(#s)"/></svg>