<svg xmlns="http://www.w3.org/2000/svg" xmlns:xlink="http://www.w3.org/1999/xlink" width="80.2" height="63.273" xmlns:v="https://vecta.io/nano"><style><![CDATA[.B{fill:#ecbf4c}.C{fill:#dfdbfc}.D{fill:#5f5ea5}.E{fill:#363271}.F{fill:#fff}.G{fill:#dd6e5c}.H{fill:#f0c9a1}.I{font-family:SegoeUI, Segoe UI}.J{fill:#a797fb}.K{fill:#514e92}]]></style><path d="M27.512 30.239l-1.75-3.916-.6-1.335.11-.048a10.03 10.03 0 0 0 5.076-13.22l1.336-.6 3.915-1.75c3.536 7.952-.034 17.266-7.979 20.818z" class="J"/><path d="M16.981 6.679l-2.347-5.252.11-.05a15.78 15.78 0 0 1 12.073-.334 15.78 15.78 0 0 1 8.773 8.301l.012.027-3.915 1.75-1.336.6-.012-.028c-1.085-2.428-3.09-4.326-5.575-5.275s-5.244-.873-7.672.212z" fill="#e08675"/><path d="M6.789 22.251l-.012-.028c-3.54-7.914-.031-17.202 7.857-20.8l2.347 5.252a10.03 10.03 0 0 0-4.953 13.2l.013.027z" class="B"/><g class="D"><path d="M6.789 22.246l5.252-2.347a10.03 10.03 0 0 0 13.124 5.084l.6 1.335 1.75 3.916c-7.93 3.474-17.178-.091-20.726-7.988z"/><path d="M25.762 26.322l.03-.013.08-.035c5.784-2.585 8.384-9.363 5.814-15.153l-.012-.027c-2.591-5.793-9.387-8.389-15.18-5.8l-.08.036-.03.014c-5.724 2.631-8.262 9.379-5.692 15.13l.012.028c2.582 5.733 9.292 8.326 15.058 5.82zm-13.721-6.423l-.013-.027a10.03 10.03 0 0 1 4.953-13.2l.11-.05c2.428-1.086 5.188-1.162 7.672-.212s4.49 2.847 5.575 5.275l.012.028a10.03 10.03 0 0 1-5.076 13.22l-.11.048a10.03 10.03 0 0 1-13.123-5.082z" opacity=".31"/></g><path d="M46.588 55.584H29.182l.8-5.069.709-4.464h14.376l.709 4.464z" class="C"/><path d="M45.784 50.511H29.99l.709-4.464h14.376z" class="J"/><rect width="49.786" height="35.41" rx="15.676" x="12.994" y="13.587" class="C"/><path d="M15.718 16.235h44.49v26.482h-44.49z" class="E"/><path d="M62.78 41.733v4.092a3.17 3.17 0 0 1-3.172 3.172H16.166a3.17 3.17 0 0 1-3.172-3.172v-4.092z" fill="#c3b7fc"/><path d="M53.242 14.646v27.087h-30.26V14.646z" class="F"/><path d="M53.242 12.255v2.392h-30.26v-2.392a2 2 0 0 1 2-2h26.272a2 2 0 0 1 1.988 2z" class="K"/><use xlink:href="#B" class="B"/><use xlink:href="#B" x="3.328" class="G"/><text font-size="6" class="C I"><tspan x="23.612" y="28.149">B</tspan></text><text font-size="5" class="C I"><tspan x="29.138" y="23.737">R</tspan></text><text font-size="6" class="C I"><tspan x="43.283" y="32.189">N</tspan><tspan x="47.269" y="25.88">D</tspan></text><text font-size="11" class="I J"><tspan x="33.693" y="31.1">A</tspan></text><g class="D"><path d="M44.662 34.763H32.44V23.084h12.222zm-11.883-.34h11.544v-11H32.78z"/><path d="M31.965 22.677h1.222v1.222h-1.222zm5.975 0h1.222v1.222H37.94zm0 11.34h1.222v1.222H37.94zm-5.975-.068h1.222v1.222h-1.222zm0-5.568h1.222v1.222h-1.222zm11.951 0h1.222v1.222h-1.222zm-.045-5.704h1.222v1.222h-1.222zm0 11.272h1.222v1.222h-1.222z"/></g><path d="M24.495 36.816h9.76v1.135h-9.76zm0 2.043h9.76v1.135h-9.76zm17.932-22.245h9.76v1.135h-9.76zm-3.253 2.119h13.014v1.059H39.174z" class="C"/><path fill="#c3b7fc" d="M27.597 54.672H47.95v1.892H27.597z"/><circle cx="11.3" cy="11.3" r="11.3" transform="matrix(.265135 -.964211 .964211 .265135 46.761 53.093)" class="G"/><circle cx="8.663" cy="8.663" r="8.663" transform="matrix(.180485 -.983578 .983578 .180485 50.568 52.151)" class="F"/><circle cx="5.757" cy="5.757" r="5.757" transform="matrix(.932671 -.360729 .360729 .932671 53.206 41.901)" class="G"/><circle cx="2.91" cy="2.91" r="2.91" transform="matrix(1 -.013 .013 1 57.705 42.322)" class="F"/><g class="D"><path d="M72.499 38.833l.4.208-10.91 6-.956.526-.475-.865.956-.525 10.892-5.989-.041.408c-.008.099.045.193.134.237z"/><path d="M75.666 39.132l-1.138.626c-.071.038-.157.038-.228 0l-1.4-.72-.4-.208c-.089-.045-.141-.141-.131-.24l.041-.408.158-1.577a.24.24 0 0 1 .124-.188l1.138-.626a.24.24 0 0 0-.124.188l-.158 1.577-.041.408c-.01.099.042.195.131.24l.4.208 1.4.719c.071.038.157.039.228.001z"/></g><path d="M76.754 38.533l-1.089.6c-.071.038-.157.038-.228 0l-1.4-.72-.4-.208c-.089-.045-.141-.141-.131-.24l.041-.408.158-1.577a.24.24 0 0 1 .124-.188l1.09-.6a.24.24 0 0 0-.122.187l-.158 1.577-.041.407c-.01.099.042.194.13.24l.4.208 1.4.72c.07.038.155.039.226.002z" class="B"/><path d="M77.803 37.958l-1.044.574h0c-.07.036-.154.036-.224 0l-1.4-.72-.4-.208c-.089-.046-.14-.141-.13-.24l.041-.408.158-1.577a.24.24 0 0 1 .122-.187h0l1.047-.575a.24.24 0 0 0-.124.188l-.158 1.577-.041.408c-.01.099.042.195.131.24l.4.208 1.4.72c.07.036.152.036.222 0z" class="D"/><path d="M78.852 37.38l-1.047.576h0c-.071.037-.154.037-.225 0l-1.4-.72-.4-.208a.24.24 0 0 1-.131-.24l.041-.408.158-1.577a.24.24 0 0 1 .124-.188l1.047-.576c-.07.038-.116.109-.124.188l-.2 1.985c-.01.099.041.194.13.24l1.8.927c.071.038.156.038.227.001z" class="B"/><path d="M79.854 36.829l-1 .551c-.071.038-.157.038-.228 0l-1.8-.928c-.089-.045-.141-.141-.131-.24l.2-1.985c.008-.079.054-.149.124-.188l1-.551a.24.24 0 0 0-.125.188l-.2 1.985c-.01.099.042.195.131.24l1.8.928c.072.038.157.038.229 0z" class="D"/><path d="M80.075 36.708l-.221.121c-.071.038-.157.038-.228 0l-1.8-.928c-.089-.045-.141-.141-.131-.24l.2-1.985a.24.24 0 0 1 .125-.188l.224-.123c.075-.041.166-.039.24.005s.119.123.119.208l-.006 1.639c-.001.084.043.163.114.207l1.378.862c.075.045.12.128.117.215s-.053.167-.131.207zm-17.372 9.985l-3.847-.332c-.053-.011-.099-.044-.126-.092a.18.18 0 0 1-.01-.155l1.782-3.426c.044-.085.164-.064.221.039l2.066 3.758c.056.104.01.217-.086.208z" class="B"/><path d="M24.221 41.2v14.388a1.6 1.6 0 0 1-1.6 1.6H1.598a1.6 1.6 0 0 1-1.6-1.6V41.2z" class="F"/><path d="M24.221 39.283v1.914H0v-1.914a1.6 1.6 0 0 1 1.6-1.6h21.025a1.6 1.6 0 0 1 1.596 1.6z" class="K"/><use xlink:href="#C" class="B"/><use xlink:href="#C" x="2.665" class="G"/><path fill="#8690f1" d="M1.393 43.437h9.567v7.63H1.393z"/><path d="M12.232 43.619h10.597v1.514H12.232zm0 2.786h10.597v1.514H12.232zm0 3.088h10.597v1.514H12.232z" class="C"/><path d="M17.24 61.717c.084.078.146.175.182.284.028.202-.085.398-.274.475a1.02 1.02 0 0 1-.584.04 3.05 3.05 0 0 1-1.418-.63 1.53 1.53 0 0 1-.353-.378 2.05 2.05 0 0 1-.225-.923c-.013-.062-.002-.127.031-.182.03-.032.069-.055.112-.067.416-.151.978-.327 1.3.032l1.229 1.349zm-8.058.202c.018.113.007.229-.032.336-.104.175-.313.257-.508.2-.19-.06-.358-.174-.484-.328a3.05 3.05 0 0 1-.727-1.371 1.52 1.52 0 0 1-.045-.516 2.05 2.05 0 0 1 .393-.865c.029-.057.077-.101.137-.124.044-.006.088 0 .129.017.42.138.971.346 1 .829l.137 1.822z" class="B"/><path d="M8.871 56.763q.315-.72.613-1.446l.147-.363.137-.35.213-.652c.05-.19.084-.385.1-.581a4.2 4.2 0 0 0 0-.606l-.069-.742-.081-.795-.325-4.329 5.773-.11q.057 1.711.172 3.424l.259 3.443.278 3.465.249 3.475-1.872.189q-.236-1.714-.491-3.425l-.522-3.428-.507-3.454-.022-.161a.93.93 0 0 0-.228-.055h-.138l.019.8.019.8.011.853a6.51 6.51 0 0 1-.081.988c-.057.331-.142.657-.255.973a9.44 9.44 0 0 1-.349.842l-.184.381-.182.365q-.366.726-.749 1.442-.767 1.432-1.6 2.823l-1.668-.916q.698-1.412 1.333-2.85z" class="E"/><path d="M16.938 47.79a.3.3 0 0 0 .045.1c.023.032.061.05.1.045s.073-.048.1-.085l.121-.187c.077.166.128.343.152.525.01.074.023.162.09.2.043.015.089.015.132 0 .196-.048.368-.166.483-.332a.48.48 0 0 0 .077-.162c.014-.074.013-.15-.005-.223-.056-.216-.146-.423-.265-.612a4.1 4.1 0 0 0-.345-.546c-.009-.014-.022-.025-.036-.034s-.033-.01-.05-.009a1.05 1.05 0 0 0-.7.247c-.07.05-.118.125-.132.21-.009.139.115.25.136.385a3.54 3.54 0 0 0 .097.478z" class="H"/><path d="M15.516 40.9l-.008.008c-.346.319-.794.505-1.264.525.613 2.064 1.44 4.058 2.466 5.951l1.205-.653a29.66 29.66 0 0 1-2.399-5.831z" class="G"/><path d="M15.704 47.783c-.07.081-.171.127-.278.126q-.3.04-.6.072-.732.08-1.467.116c-1.133.056-2.269.036-3.4-.059-.411-.035-.645.034-.778-.333.012-1.403.096-2.805.251-4.2.02-1.008.162-2.01.425-2.984.27-.981.891-1.829 1.745-2.383a2.85 2.85 0 0 1 .294-.151 2.37 2.37 0 0 1 1.253-.2 2.23 2.23 0 0 1 1.123.509 3.24 3.24 0 0 1 .922 1.29c.3.906.438 1.858.408 2.812q.07 2.589.138 5.178c.009.071-.004.143-.036.207z" class="F"/><path d="M13.356 48.097a25.48 25.48 0 0 1-3.4-.059c-.411-.035-.645.034-.778-.333a41.23 41.23 0 0 1 .251-4.2 12.39 12.39 0 0 1 .425-2.984c.27-.981.891-1.829 1.745-2.383a2.86 2.86 0 0 1 .294-.151 2.8 2.8 0 0 1 .6.868 10.1 10.1 0 0 1 .856 4.259q.098 2.491.007 4.983zm2.348-.314c-.07.081-.171.127-.278.126q-.3.04-.6.072.1-3.255-.077-6.512a12.87 12.87 0 0 0-.429-3.025q-.023-.074-.047-.145a3.24 3.24 0 0 1 .922 1.29c.3.906.438 1.858.408 2.812q.07 2.589.138 5.178a.36.36 0 0 1-.037.204z" class="G"/><path d="M17.132 37.669c.081-.041.18-.019.237.051s.091.151.108.237l.117-.81c.006-.132.052-.26.13-.367.03-.033.081-.061.118-.037.021.017.034.042.038.069.034.138.05.279.047.421-.004.049-.001.099.009.147.053.2.323.232.477.369.114.115.17.276.152.437a1.59 1.59 0 0 1-.129.46l-.2.507a.31.31 0 0 1-.084.138c-.043.029-.093.045-.144.048-.161.02-.324.014-.483-.016-.182-.035-.383-.13-.42-.311s.071-.4.059-.6c-.006-.102-.124-.684-.032-.743z" class="H"/><path d="M18.479 38.962a20.12 20.12 0 0 1-1.642 4.3c-.227.455-.74 1.483-1.756 1.62a1.76 1.76 0 0 1-.21.015 2.27 2.27 0 0 1-1.653-.93 19.31 19.31 0 0 1-2.5-3.638c-.161-.355-.017-.773.329-.954s.771-.061.971.273c.636 1.201 1.408 2.326 2.3 3.352.323.371.469.426.527.425.17 0 .394-.278.665-.82.652-1.252 1.16-2.573 1.517-3.939.476 0 .947.092 1.387.272z" class="G"/><path d="M10.109 35.157c-.039.26-.021.525.051.777.149.575.479 1.088.94 1.463.52.368 1.151.545 1.787.5.18.024.361-.042.483-.176a.59.59 0 0 0-.021-.511 8.72 8.72 0 0 0-1.376-2.436c-.287-.358-.709-.752-1.2-.572a1.13 1.13 0 0 0-.664.955z" class="E"/><path d="M12.395 36.149v1.923c0 .379.307.685.686.685s.685-.307.685-.685v-1.923z" class="H"/><path d="M12.395 36.61v1.415l.73-.139a3.44 3.44 0 0 0 .64-.262 2.76 2.76 0 0 0 .364-.233c.431-.328-.012-.5-.365-.645h0a3.17 3.17 0 0 0-1.172-.228c-.039-.003-.078.003-.115.016s-.063.043-.082.076z" fill="#e9b588"/><g class="H"><path d="M14.883 34.804c.5 1.126.311 2.306-.626 2.723a2.27 2.27 0 0 1-1.817-4.079c.937-.417 1.941.229 2.443 1.356z"/><path d="M12.168 36.241c.121.258.022.566-.227.705s-.563.063-.72-.175-.104-.557.121-.731a.61.61 0 0 1 .825.2z"/></g><g class="E"><path d="M13.181 34.802c.425-.133.822-.342 1.171-.618.352-.281.565-.7.586-1.15a1.01 1.01 0 0 0-.736-.987 1.38 1.38 0 0 0-.944.229 3.9 3.9 0 0 0-.6.426c-.055.053-.117.098-.184.133-.078.029-.161.047-.244.053a2.39 2.39 0 0 0-1.629 1.007 1.37 1.37 0 0 0-.255.639c-.062.711.572.677 1.1.652a6.04 6.04 0 0 0 1.735-.384z"/><path d="M11.78 34.928c.025.149.018.3.033.451a1.6 1.6 0 0 0 .36.864.62.62 0 0 1-.27.2l-.281-.2c-.278-.176-.53-.392-.748-.639a1.17 1.17 0 0 1-.277-.917.61.61 0 0 1 .158-.323c.086-.089.209-.132.332-.114.342.075.611.338.693.678z"/></g><g class="F"><path d="M14.453 34.552a.58.58 0 0 0-.336.631l-.291.13a.58.58 0 0 0-.785-.117.58.58 0 0 0-.165.776.58.58 0 0 0 .764.212.58.58 0 0 0 .259-.75l-.007-.014.26-.116.006.015a.58.58 0 1 0 1.061-.473.58.58 0 0 0-.766-.295zm-.9 1.536c-.169.075-.366.042-.5-.085s-.178-.322-.112-.495.23-.288.415-.292.354.103.428.272c.05.111.054.236.01.35s-.13.205-.24.254zm1.321-.588c-.169.075-.366.042-.5-.085s-.178-.322-.112-.495.23-.288.415-.292.354.103.428.272c.101.229-.002.497-.23.6z"/><path d="M11.584 35.957l1.255-.262.027.13-1.255.262z"/></g><path d="M51.957 38.681a9.96 9.96 0 0 1-3.86 3.372c-1.07.538-2.226.883-3.416 1.019.082.485.193.966.332 1.438l.065.117c3.333-.44 6.318-2.284 8.205-5.066z" class="C"/><path d="M46.036 46.481l-2.089.667-3.01-9.421 2.089-.667z" class="D"/><path d="M42.986 43.889l1.938-.619a.31.31 0 0 1 .388.2l2.207 6.907c.222.698-.162 1.444-.86 1.667h0c-.335.107-.699.077-1.012-.085s-.548-.44-.655-.775l-2.207-6.907a.31.31 0 0 1 .201-.388z" class="K"/><path d="M39.939 35.868l.21-3.07.656-.21 1.951 2.38-.217 1.912-1.315.42z" class="B"/><path d="M40.838 36.834l1.757-.561a.48.48 0 0 1 .6.311h0a.48.48 0 0 1-.311.6l-1.757.561a.48.48 0 0 1-.6-.311h0a.48.48 0 0 1 .311-.6z" fill="#8690f1"/><g class="F"><path d="M40.889 35.146c-.048-.136-.009-.288.099-.384s.264-.116.393-.052.207.201.196.345-.108.267-.246.311a.35.35 0 0 1-.443-.22z"/><path d="M41.106 35.047l-.741-2.318.225-.072.741 2.318c.018.062-.017.126-.078.145-.03.01-.062.007-.09-.007s-.047-.037-.057-.066z"/></g><g class="B"><path d="M42.753 43.839l2.333-.745a.3.3 0 0 1 .372.192h0a.3.3 0 0 1-.192.372l-2.332.745a.3.3 0 0 1-.372-.192h0a.3.3 0 0 1 .191-.372zm1.599.982h0c.239-.076.494.055.571.294l2.151 6.735c.076.239-.055.494-.294.571h0c-.239.075-.494-.056-.571-.294l-2.151-6.735c-.076-.239.055-.494.294-.571zm-10.27-9.282l-.183-.1c.868-1.406 2.273-2.397 3.889-2.744l1.843-.458a17.7 17.7 0 0 0 2.788-.787 4.82 4.82 0 0 0 3.135-3.248l.2.04a5.02 5.02 0 0 1-3.26 3.4c-.917.343-1.86.611-2.82.8l-1.829.454a5.87 5.87 0 0 0-3.763 2.643z"/><path d="M40.686 32.065a.41.41 0 1 1-.814.126c-.035-.225.119-.435.343-.471s.436.119.471.344zm-6.288 3.363a.41.41 0 1 1-.814.126c-.035-.225.119-.435.343-.471s.436.119.471.344zm11.646-7.244a.41.41 0 1 1-.814.126c-.035-.225.119-.435.343-.471a.41.41 0 0 1 .471.344z"/></g><path d="M51.37 35.065a2.6 2.6 0 0 1 2.23 1.737 10.34 10.34 0 0 1 .24 1.437c.045.482.272.929.635 1.25.261.189.587.248.857.421a1.45 1.45 0 0 1 .305 2.006c-.103.109-.198.225-.284.348-.099.253-.18.512-.243.776a1.3 1.3 0 0 1-.489.566 2.29 2.29 0 0 1-2.934-.591c-.695-.931-1.009-2.092-.877-3.246.058-.836.229-1.8-.3-2.418-.371-.356-.852-.575-1.364-.622-.944-.188-.3-.768.157-1.073.603-.425 1.331-.633 2.067-.591z" class="E"/><path d="M46.287 62.45a.68.68 0 0 0-.182.284c-.028.202.085.398.274.475a1.02 1.02 0 0 0 .584.04 3.05 3.05 0 0 0 1.418-.63c.139-.105.258-.233.354-.378a2.05 2.05 0 0 0 .225-.923c.013-.062.002-.127-.031-.182-.031-.032-.069-.055-.112-.067-.416-.151-.978-.327-1.3.032l-1.23 1.349zm8.053.201a.68.68 0 0 0 .032.336c.104.175.314.257.509.2a1.02 1.02 0 0 0 .484-.329 3.05 3.05 0 0 0 .727-1.371 1.53 1.53 0 0 0 .045-.516 2.05 2.05 0 0 0-.393-.865c-.028-.057-.077-.101-.137-.124a.24.24 0 0 0-.129.016c-.42.138-.972.346-1 .829l-.138 1.824z" fill="#e08675"/><path d="M54.652 57.494q-.315-.72-.613-1.446l-.147-.363-.137-.35c-.082-.214-.153-.431-.213-.652a3.34 3.34 0 0 1-.1-.581 4.2 4.2 0 0 1 0-.606l.069-.742.081-.795.324-4.329-5.773-.11q-.057 1.711-.172 3.424l-.259 3.443-.278 3.465-.249 3.475 1.873.189q.236-1.714.491-3.425l.522-3.428.508-3.454.021-.161a.94.94 0 0 1 .228-.055h.138l-.019.8-.019.8-.011.853a6.5 6.5 0 0 0 .081.988 5.81 5.81 0 0 0 .255.973 9.44 9.44 0 0 0 .349.842l.184.381.182.365q.366.726.749 1.442.767 1.432 1.6 2.823l1.668-.916q-.701-1.41-1.333-2.85z" class="B"/><path d="M54.324 49.116a.31.31 0 0 1-.214.315 12.69 12.69 0 0 1-4.745.606 12.98 12.98 0 0 1-1.508-.181h0c-.085-.016-.159-.068-.204-.142s-.056-.163-.031-.246l.026-.09c.211-.746.286-1.506.436-2.267q.316-1.6.511-3.214c.09-.751-.053-2.051.569-2.611a2.9 2.9 0 0 1 2.855-.7 1.78 1.78 0 0 1 .285.146c.776.68 1.261 1.632 1.354 2.66.334 1.893.557 3.805.666 5.724z" class="D"/><path d="M44.118 48.186a.64.64 0 0 1-.51-.2.57.57 0 0 1-.086-.207.44.44 0 0 1 .027-.344.5.5 0 0 1 .347-.17c.167-.029.336-.048.506-.057-.093-.045-.173-.114-.231-.2-.026-.04-.047-.094-.018-.132.03-.028.072-.04.113-.033l1.04.031c.044-.003.089.007.128.028.026.02.048.046.063.075.104.18.159.383.16.591 0 .232-.084.268-.288.363a2.72 2.72 0 0 1-1.251.255z" class="H"/><path d="M52.565 42.56a.79.79 0 0 1-.116.411c-1.612 2.619-4.181 4.507-7.162 5.263a3.24 3.24 0 0 1-.234-.551c-.095-.314-.162-.635-.2-.961a10.8 10.8 0 0 0 3.155-1.411 10.07 10.07 0 0 0 3.075-3.164.8.8 0 0 1 1.477.413z" class="C"/><path d="M53.069 36.38a1.4 1.4 0 0 1 .21.675c.073.612-.025 1.233-.284 1.793-.264.561-.736.998-1.317 1.216-.119.062-.263.051-.371-.028-.047-.061-.073-.136-.076-.213-.126-.952-.115-1.917.03-2.866.024-.262.107-.515.241-.741.382-.561 1.223-.322 1.567.164z" class="E"/><path d="M51.61 38.867v1.923c0 .245-.131.471-.343.594s-.473.122-.686 0-.343-.349-.343-.594v-1.923z" class="H"/><path d="M51.61 39.333v1.415l-.73-.138c-.222-.065-.437-.153-.641-.261a2.78 2.78 0 0 1-.364-.233c-.431-.328.012-.5.364-.645h0c.373-.15.77-.228 1.172-.229.039-.003.078.003.115.016s.065.042.084.075z" fill="#e9b588"/><g class="H"><path d="M48.648 38.146c0 1.233.655 2.233 1.68 2.233a2.27 2.27 0 0 0 0-4.466c-1.025-.004-1.68.996-1.68 2.233z"/><path d="M51.713 38.351c-.004.285.213.524.497.549s.539-.174.584-.455-.134-.55-.411-.616a.61.61 0 0 0-.67.522z"/></g><g class="E"><path d="M51.653 38.102a.8.8 0 0 0 .017.319.22.22 0 0 0 .248.154.3.3 0 0 0 .144-.134c.305-.467.457-1.018.434-1.575a.52.52 0 0 0-.135-.381.51.51 0 0 0-.167-.087.65.65 0 0 0-.346-.048.53.53 0 0 0-.366.4c-.129.484.198.862.171 1.352z"/><path d="M48.709 35.768c-.474.291-.784.788-.837 1.342a.64.64 0 0 0 .182.518.62.62 0 0 0 .287.123c.59.039 1.175-.131 1.652-.48-.018.227.263.348.49.375.574.068 1.155-.01 1.691-.227a1.11 1.11 0 0 0 .675-.58 1.08 1.08 0 0 0-.519-1.135 3.2 3.2 0 0 0-3.621.064z"/></g><defs ><path id="B" d="M47.649 12.377c0 .459-.277.873-.701 1.049s-.912.079-1.237-.246-.422-.813-.246-1.237.59-.701 1.049-.701c.627 0 1.135.508 1.135 1.135z"/><path id="C" d="M19.74 39.38a.91.91 0 0 1-.908.908.91.91 0 0 1-.908-.908.91.91 0 0 1 1.55-.642.91.91 0 0 1 .266.642z"/></defs></svg>