<svg xmlns="http://www.w3.org/2000/svg" xmlns:xlink="http://www.w3.org/1999/xlink" width="82.667" height="62.28" xmlns:v="https://vecta.io/nano"><style><![CDATA[.B{fill:#fff}.C{fill:#5896fa}.D{fill:#005cea}.E{fill:#0e0e0e}.F{fill:#f7a594}.G{fill:#1251b3}]]></style><circle cx="31.292" cy="32.393" r="24.339" fill="none" stroke="#2e77e6" stroke-width="8.731" stroke-dasharray="13.096 13.096"/><path d="M37.458 30.795a4.29 4.29 0 0 0-8.2-2.248c-.881-.786-2.142-.982-3.219-.498s-1.77 1.555-1.769 2.735h-.559a2.9 2.9 0 0 0-2.894 2.894h0a2.9 2.9 0 0 0 2.894 2.894h13.533a2.9 2.9 0 0 0 2.894-2.894h0a2.9 2.9 0 0 0-2.68-2.883z" class="B"/><rect width="20.327" height="17.409" rx="8.704" x="20.894" y="44.871" class="C"/><g class="B"><use xlink:href="#B"/><use xlink:href="#B" y="2.348"/></g><g fill="#80b2ff"><use xlink:href="#C"/><use xlink:href="#C" x="0.88"/><use xlink:href="#C" x="1.759"/><use xlink:href="#C" x="2.64"/><use xlink:href="#C" x="3.52"/><use xlink:href="#C" x="4.4"/><use xlink:href="#C" x="5.28"/><use xlink:href="#C" x="6.16"/><use xlink:href="#C" x="7.04"/></g><circle cx="31.088" cy="49.067" r="2.817" class="B"/><path d="M31.092 48.953a.89.89 0 0 0 .691-.339.87.87 0 0 0 .19-.55c0-.316-.169-.608-.442-.766s-.611-.158-.885 0a.88.88 0 0 0-.442.766c-.002.2.065.394.19.55a.89.89 0 0 0 .699.339zm1.561 1.584c0 .561-3.131.561-3.131 0v-.653c.124-.893 2.876-.931 3.131 0z" class="D"/><path d="M25.565 56.867v-.039a.29.29 0 0 0-.143-.249c-.088-.052-.198-.051-.287 0s-.144.146-.143.249v.039h-.044v.517c0 .089.663.089.663 0v-.517zm-.471-.039c-.005-.07.029-.136.089-.172s.134-.036.194 0 .094.103.089.172v.039h-.371zm.233.3v.149c0 .013-.006.025-.015.034s-.022.013-.035.012-.024-.004-.033-.013-.013-.021-.013-.033v-.149c-.028-.015-.046-.045-.046-.077 0-.044.031-.082.074-.091s.086.015.103.056.002.088-.035.112zm-.049-2.528c.057-.001.111-.027.146-.072.026-.033.04-.074.04-.116.005-.07-.029-.137-.089-.173s-.135-.037-.195 0-.094.103-.089.173c0 .042.014.083.04.116.035.045.09.072.147.072zm.33.334c0 .118-.664.118-.664 0v-.138c.026-.188.607-.2.661 0z" class="C"/><g fill="#80b2ff"><use xlink:href="#D"/><use xlink:href="#D" x="3.541"/></g><rect width="3.683" height="1.249" rx=".625" x="28.924" y="58.756" class="G"/><g fill="#d9ffff"><path d="M.132 34.574h0v-.031c0-.002 0 .031 0 .031z"/><path d="M.132 34.574h0v-.031c0-.002 0 .031 0 .031zm11.978.054v-.031c0-.004 0 .011 0 .031z"/><path d="M12.11 34.628v-.031c0-.004 0 .011 0 .031z"/></g><path d="M6.146 31.338C4.502 32.98 2.414 34.107.139 34.581l-.023 5.106c-.024 5.423 5.136 8.073 5.938 8.479.776-.357 6-3 6.026-8.426l.023-5.106a11.88 11.88 0 0 1-5.957-3.296z" class="B"/><path d="M6.132 32.318C4.6 33.659 2.767 34.612.789 35.095l-.021 4.594c.009 2.147.908 4.194 2.482 5.653a11.87 11.87 0 0 0 2.814 2.057l.079-.041V32.326z" fill="#296acc"/><path d="M6.144 32.329v15.03a11.88 11.88 0 0 0 2.753-1.991c1.587-1.445 2.504-3.484 2.533-5.63l.021-4.595c-1.969-.5-3.789-1.465-5.307-2.814z" fill="#2e77e6"/><path d="M3.724 38.951v3.559c0 .4 4.839.4 4.839 0v-3.559zm2.664 1.89v1.009c0 .088-.047.168-.122.212s-.169.044-.245 0-.123-.125-.122-.212v-1.011a.6.6 0 1 1 .49 0zm1.752-2.143h-.49v-.24c0-.538-.287-1.035-.753-1.304s-1.04-.269-1.506 0-.753.766-.753 1.304v.24h-.49v-.24a2 2 0 1 1 3.992 0z" class="B"/><path fill="#296acc" d="M33.222 2.043h8.741v10.911h-8.741z"/><g stroke="#5896fa" stroke-miterlimit="10" stroke-width="6.341" class="B"><path d="M34.356 3.17h8.741v10.911h-8.741z"/><path d="M35.795 4.276h8.741v10.911h-8.741z"/></g><path d="M36.843 5.403h8.741v10.911h-8.741z" class="C"/><path d="M39.703 7.194h4.522v.71h-4.522zm-1.337 1.668h5.859v.71h-5.859zm0 1.667h5.859v.71h-5.859zm0 1.667h5.859v.71h-5.859zm0 1.667h5.859v.71h-5.859z" class="D"/><circle cx="3.087" cy="3.087" r="3.087" transform="matrix(.223318 -.974746 .974746 .223318 10.346 16.239)" class="B"/><path d="M18.916 16.855c.39-.644.647-1.36.757-2.105l.23.034.454.067h.006a6.34 6.34 0 0 0-.119-2.467l-.676.167c-.181-.731-.506-1.418-.956-2.022l.56-.416c-.494-.669-1.115-1.234-1.828-1.662l-.361.6c-.644-.39-1.36-.647-2.105-.757l.1-.69a6.38 6.38 0 0 0-2.467.119l.167.676c-.731.181-1.419.506-2.023.956l-.416-.56c-.669.494-1.234 1.115-1.662 1.828l.6.361c-.39.644-.647 1.36-.757 2.105l-.488-.072-.2-.028h0c-.121.822-.081 1.66.119 2.467l.676-.167a5.68 5.68 0 0 0 .958 2.024l-.56.416a6.3 6.3 0 0 0 1.826 1.66l.361-.6a5.67 5.67 0 0 0 2.108.758l-.079.536-.022.154a6.37 6.37 0 0 0 2.464-.121l-.167-.676c.732-.182 1.42-.508 2.026-.957l.416.56a6.35 6.35 0 0 0 1.658-1.827zm-6.464-.292c-1.07-.644-1.646-1.869-1.46-3.104s1.097-2.236 2.309-2.536 2.486.158 3.227 1.163.805 2.357.16 3.426c-.422.701-1.106 1.206-1.901 1.403s-1.635.07-2.336-.352z" class="D"/><path d="M7.361 16.445c-.218-.331-.501-.615-.83-.836l.068-.1.134-.2h0a3.34 3.34 0 0 0-1.2-.5l-.073.359c-.389-.078-.789-.078-1.178 0l-.071-.36c-.429.084-.836.252-1.2.494l.2.307c-.331.218-.615.5-.836.83l-.305-.2a3.36 3.36 0 0 0-.5 1.2l.359.073c-.078.389-.078.789 0 1.178l-.36.071c.084.429.252.836.494 1.2l.307-.2c.218.331.5.615.83.836l-.144.216-.058.089h0a3.36 3.36 0 0 0 1.2.5l.073-.359a2.99 2.99 0 0 0 1.179 0l.071.36a3.32 3.32 0 0 0 1.2-.493l-.2-.307c.331-.219.616-.501.837-.831l.237.159.068.045c.243-.364.413-.771.5-1.2l-.359-.073c.078-.389.078-.791 0-1.18l.36-.071a3.34 3.34 0 0 0-.494-1.2zm-1.6 3.008c-.548.363-1.261.36-1.806-.007s-.815-1.027-.685-1.671.637-1.146 1.282-1.272 1.302.15 1.665.698c.496.748.292 1.756-.456 2.252z" class="G"/><rect width="8.078" height="4.831" rx="2.415" x="50.064" y="17.889" class="D"/><path d="M50.064 18.801h8.078v.834h-8.078z" class="C"/><g fill="#d1f5ff"><use xlink:href="#E"/><path d="M53.74 21.793h-1.187c-.076 0-.137.061-.137.137h0c0 .076.061.137.137.137h1.188c.076 0 .137-.061.137-.137h0c0-.037-.015-.072-.04-.097s-.061-.04-.098-.04z"/><use xlink:href="#E" x="3.653"/><path d="M57.394 21.793h-1.189c-.076 0-.137.061-.137.137h0c0 .076.061.137.137.137h1.188c.076 0 .137-.061.137-.137h0c0-.075-.061-.136-.136-.137zm-6.722-3.659h0c-.04 0-.078.016-.107.044s-.044.067-.044.107v.053c0 .04.016.078.044.107s.067.044.107.044h0c.04 0 .078-.016.107-.044s.044-.067.044-.107v-.053c0-.04-.016-.078-.044-.107s-.067-.044-.107-.044z"/><path d="M50.997 18.311h0c0 .098.079.177.177.177h.629c.098 0 .177-.079.177-.177h0c0-.098-.079-.177-.177-.177h-.629c-.098 0-.177.079-.177.177z"/></g><rect width="1.283" height="1.171" rx=".586" x="50.679" y="20.083" class="C"/><path d="M54.883 35.026v-.552c0-.12-.047-.236-.133-.321s-.201-.133-.321-.133h-4.83c-.251 0-.454.203-.454.454v9.754h12.494v-9.2z" class="G"/><path d="M62.159 35.361H49.908l-.762 8.867h12.433z" class="B"/><path d="M61.64 44.229H49.146l1.326-8.757c.039-.256.259-.446.518-.446h11.434c.152 0 .297.066.396.182s.144.268.122.418z" fill="#3383ff"/><circle cx="2.863" cy="2.863" r="2.863" transform="matrix(.707107 -.707107 .707107 .707107 58.899 35.36)" class="D"/><path d="M62.947 38.328a2.97 2.97 0 0 1-2.966-2.968 2.97 2.97 0 0 1 2.967-2.966 2.97 2.97 0 0 1 2.967 2.967 2.97 2.97 0 0 1-2.968 2.967zm0-5.725a2.76 2.76 0 0 0-2.758 2.758 2.76 2.76 0 0 0 2.758 2.758 2.76 2.76 0 0 0 2.758-2.758 2.76 2.76 0 0 0-2.758-2.759zm-1.378 2.24v2.027c.905.226 1.851.226 2.756 0v-2.027zm1.517 1.076v.574a.14.14 0 0 1-.139.139.14.14 0 0 1-.139-.139v-.576a.34.34 0 0 1 .139-.648.34.34 0 0 1 .139.648zm.997-1.221h-.279v-.137a.86.86 0 0 0-.858-.829.86.86 0 0 0-.858.829v.137h-.279v-.137a1.14 1.14 0 0 1 .558-1.013c.356-.211.8-.211 1.156 0s.571.599.558 1.013z" class="B"/><g fill="#aae0ff"><circle cx="53.007" cy="11.403" r="1.096"/><circle cx="1.096" cy="1.096" r="1.096" transform="matrix(.16935 -.985556 .985556 .16935 22.963 16.387)"/></g><circle cx="60.692" cy="30.084" r=".573" class="B"/><g fill="#aae0ff"><circle cx=".573" cy=".573" r=".573" transform="matrix(.228538 -.973535 .973535 .228538 0 31.587)"/><circle cx="1.096" cy="1.096" r="1.096" transform="matrix(.900736 -.434367 .434367 .900736 8.195 51.542)"/><path d="M27.245 4.614h0a.19.19 0 0 1-.19-.19V2.391a.19.19 0 0 1 .19-.19h0a.19.19 0 0 1 .19.19v2.033a.19.19 0 0 1-.19.19z"/><path d="M26.039 3.407h0a.19.19 0 0 1 .19-.19h2.032a.19.19 0 0 1 .19.19h0a.19.19 0 0 1-.19.19h-2.033a.19.19 0 0 1-.189-.19z"/></g><g class="B"><use xlink:href="#F"/><use xlink:href="#G"/><use xlink:href="#F" x="-2.068" y="26.778"/><use xlink:href="#G" x="-2.067" y="26.775"/></g><circle cx="29.87" cy="42.32" r=".608" fill="none" stroke="#fff" stroke-width="4.226"/><path d="M35.131 54.583h-2.455l-.254-5.339h2.967zm42.674 0h-2.456l-.254-5.339h2.964z" class="E"/><path d="M75.665 39.977q-.406 1.259-.888 2.585H34.014s-5.26-21.412 0-25.328c.153-.111.315-.21.484-.295 7.085-3.641 35.491-4.5 41.258.188.044.035.085.071.124.107 2.126 1.951 3.974 9.738-.215 22.743z" fill="#ea7b00"/><path d="M49.382 42.562H34.019l1.5-15.007c2.68 1.162 9.81 7.294 13.863 15.007zm26.283-2.585q-.406 1.259-.888 2.585H59.972c2.546-4.722 8.72-11.874 14.715-15.167z" fill="#982c20"/><path d="M80.772 27.345h-5.651c-.95 0-1.752.704-1.877 1.645l-1.8 13.628H38.415l-1.8-13.628c-.124-.942-.927-1.645-1.877-1.645h-5.651c-.56 0-1.092.248-1.451.678s-.511.996-.413 1.548l3.138 22.7h49.145l3.138-22.7c.098-.553-.054-1.121-.415-1.551s-.895-.677-1.457-.675z" fill="#ea7b00"/><path d="M71.112 35.17c2.659.89 2.141 6.521 0 7.387H38.849c-2.409-.622-2.613-8.07.862-7.51 21.266 4.003 22.297-2.377 31.401.123z" fill="#f2b066"/><path d="M46.522 29.468a29.89 29.89 0 0 0 .225 4.021h15.128l.9-14.771c-.9-5.4-3.359-6.7-7.252-6.7-3.485 0-5.806 2.843-7.216 6.648-1.191 3.476-1.795 7.127-1.785 10.802z" fill="#007880"/><path d="M46.521 29.753l5.474-.33c-3.039-.995-3.281-5.66-.192-8.562l-3.5-2.2c-1.191 3.576-1.793 7.323-1.782 11.092z" fill="#005459"/><g class="E"><path d="M45.48 36.542h20.784v-7.073H47.542z"/><path d="M68.919 34.296l-5.583 20.285h-4.353c1.378-8.632 1.07-14.244 2.366-21.412 1.137-5.883 8.924-4.326 7.57 1.127z"/></g><g fill="#b15626"><path d="M61.773 54.582v-.04c0-.973.519-1.872 1.361-2.358s1.881-.486 2.723 0 1.362 1.385 1.361 2.358v.04z"/><path d="M65.02 51.87l-.99-.3c-.653-1.285-3.439-1.126-3.051.438-.585.123-1.195-.017-1.668-.382l-.327 2.958h5.9z"/></g><path d="M44.406 34.296l5.583 20.285h4.353c-1.378-8.632-1.07-14.244-2.366-21.412-1.137-5.883-8.924-4.326-7.57 1.127z" class="E"/><g fill="#b15626"><path d="M51.552 54.582v-.04c0-1.504-1.219-2.723-2.723-2.723s-2.723 1.219-2.723 2.723v.04z"/><path d="M48.305 51.87l.99-.3c.653-1.285 3.44-1.126 3.051.438.585.123 1.195-.017 1.669-.382l.327 2.958h-5.9z"/></g><path d="M53.187 12.489c2.042 1.239 2.333 4.919 1.286 6.385l-5.826 4.34 5.932 3.054-.964 3.155s-6.191-.5-9.222-3.612c-2.91-2.985 4.184-11.752 8.794-13.322zm4.142 5.582c-1.746-2.193-.54-5.582 1.686-5.482 7.25 2.552 9.488 9.639 7.191 12.82-1.968 2.725-10.623 3.775-10.623 3.775V26.2l6.014-1.3s-3.102-4.804-4.268-6.829z" fill="#007880"/><path d="M50.976 28.426a2.3 2.3 0 0 1 1.976-2.522c2.627-.477 3.578.964 3.826 1.994.027.124-.002.254-.079.355s-.194.164-.321.172c-.207-.006-.383-.154-.423-.357-.043-.292-.21-.55-.458-.709.271.532.158 1.066-.581 1.066z" class="F"/><path d="M56.905 28.424l2.067-10.365h.438l-2.237 11.409h-6.195l-.677-1.044z" fill="#99c1ff"/><path d="M59.411 18.059h15.381l-2.275 11.409H57.178z" class="B"/><path d="M54.927 13.232c0 1.179 3.535 1.962 4.691.722.182-.193.301-.437.341-.7l.666-2.987-4.222-1.592-.126.39z" class="F"/><path d="M59.96 13.254l.666-2.987-3.995-1.076c-1.034 3.078 2.656 5.537 3.329 4.063z" fill="#f4856d"/><path d="M56.09 7.528c-.222 2.936 2.1 5.521 4.045 5.652s4.627-2.043 4.85-4.979-1.589-5.467-4.045-5.652-4.627 2.043-4.85 4.979z" class="F"/><path d="M59.346 2.77c2.692-1.7 4.174-.1 5.514 1.6.941 1.193 1.607 2.051 2.778 2.23-2.252 2.841-6.756.967-8.175-1.88a3.42 3.42 0 0 1-3.372 2.807c-.428-1.802.821-5.447 3.255-4.757z" class="E"/><circle cx="1.172" cy="1.172" r="1.172" transform="matrix(.987089 -.160174 .160174 .987089 55.26 6.598)" class="F"/><defs ><path id="B" d="M37.211 55.382H24.953a.73.73 0 0 1-.729-.729h0a.73.73 0 0 1 .729-.729h12.254a.73.73 0 0 1 .729.729h0a.73.73 0 0 1-.725.729z"/><path id="C" d="M27.245 57.066c0 .142-.115.257-.257.257s-.257-.115-.257-.257.115-.257.257-.257c.068 0 .134.027.182.075s.075.114.075.182z"/><path id="D" d="M29.571 54.867h-2.685c-.118-.001-.213-.096-.214-.214h0c.001-.118.096-.213.214-.214h2.685c.118.001.213.096.214.214h0c-.001.118-.096.213-.214.214z"/><path id="E" d="M51.914 21.793h-1.188c-.076 0-.137.061-.137.137h0c0 .076.061.137.137.137h1.188c.076 0 .137-.061.137-.137h0c0-.076-.061-.137-.137-.137z"/><path id="F" d="M48.858 30.718h0a.19.19 0 0 1-.19-.19v-2.033a.19.19 0 0 1 .19-.19h0a.19.19 0 0 1 .19.19v2.033a.19.19 0 0 1-.19.19z"/><path id="G" d="M47.651 29.512h0a.19.19 0 0 1 .19-.19h2.033a.19.19 0 0 1 .19.19h0a.19.19 0 0 1-.19.19h-2.033a.19.19 0 0 1-.19-.19z"/></defs></svg>