<svg xmlns="http://www.w3.org/2000/svg" xmlns:xlink="http://www.w3.org/1999/xlink" width="62.995" height="62.8" xmlns:v="https://vecta.io/nano"><style><![CDATA[.B{fill:#3b455a}.C{fill:#d7e8f4}.D{fill:#cc937a}.E{fill:#34435a}.F{fill:#59595b}.G{fill:#305399}.H{fill:#587bc9}.I{fill:#96bfee}.J{fill:#eacfc1}]]></style><path d="M41.121 43.024l.272 6.321-.8 10.748-1.2.085-1.452-9.762-2.004-8.259z" class="C"/><path d="M39.441 60.683l1.339.555.6-.692-.692-.6-1.293.092z" class="B"/><path d="M32.658 40.783l-.262 4.778.778 14.207 1.2.06 1.794-9.318 1.583-10.219z" class="C"/><path d="M34.34 60.337l-1.327.582-.615-.68.679-.615 1.295.065z" class="B"/><path d="M39.618 26.711l-3.735-.4s-2.078.222-3.488 5.157c-.748 3.405-1.11 6.883-1.081 10.369a2.42 2.42 0 0 0 2.768 2.181c3.722-.6 5.7-1.2 7.323-.9 1.38.3 1.264-1.6 1.112-3.051l-.55-4.488z" class="I"/><path d="M37.506 21.77a7.01 7.01 0 0 0-2.789.635c-.197.081-.353.238-.432.436-.018.08-.023.162-.017.243.031.915.125 2.257.919 2.866.153.113.327.194.512.24a2.07 2.07 0 0 0 .746.058 3.72 3.72 0 0 1-.014.676c.3.248 1.274-.008 1.361-.361l-.206-.783a2 2 0 0 0 .283-.277c.316-.399.489-.892.491-1.4l.115-1.66a.75.75 0 0 0-.168-.567.8.8 0 0 0-.618-.123z" class="D"/><path d="M34.653 23.168c.381-.412.873-.706 1.416-.847 1.293-.295 2.04.493 2.463 1.636.214-.549.7-1.306.563-1.888a2.79 2.79 0 0 0-.753-1.416c-.462-.241-.968-.385-1.487-.423l-1.24-.3c-.186-.069-.395-.033-.548.093l-2.29 1.4c-.147.09-.31.205-.322.377a.55.55 0 0 0 .1.294c.261.389.501.792.718 1.208.128.238.675 1.489 1.078 1.2a6.12 6.12 0 0 0 .037-.788 1.08 1.08 0 0 1 .265-.546z" class="E"/><path d="M39.605 26.731l1.621.84 1.621 5.162-.54 1.2-1.921-1.321zm-3.722-.42l-1.381.42-5.042 5.282-.3 1.741 2.41 3.98.651-1.459-1.02-2.941 1.621-1.141 2.161-4.862z" class="I"/><path d="M35.748 28.787l-1.755-.158c-.046-.004-.092.015-.122.05s-.041.083-.029.128l.763 3.008c.015.059.066.102.126.107l1.269.114c.042.004.085-.011.115-.041s.045-.072.041-.115l-.277-2.964c-.007-.069-.061-.123-.13-.129z" class="F"/><path d="M36.323 31.817l-1.332-.5.169-.512.981.163-.047-.284 1.093.55-.094.559z" class="D"/><path d="M36.879 30.941l-.124 1.122 5.568 1.886-1.268-2.45z" class="I"/><g class="B"><path d="M27.483 58.992l.1.758-1.419.953-.856-.661.661-.856 1.419-.953z"/><path d="M27.532 58.738l-1.094-9.671 1.317-10.827-.3-2.3-5.881-.223-.212 3.748.987 9.62 3.715 10.15z"/></g><path d="M21.029 25.012l-2.958.806-3.421 6.063 1.621 1.5 2.281-2.7zm3.39.389l1.751.417 3.962 6-1.621 1.8-1.681-.48-2.041-4.862z" class="G"/><g class="B"><path d="M17.261 36.796l-.016 9.759 1.964 12.563 1.414-.014.777-11.618 1.819-11.629z"/><path d="M20.621 59.702l-1.521.78-.772-.757.757-.772 1.529-.015z"/></g><path d="M28.362 40.116l-.04-.9c-.03-1.135-.131-2.267-.273-3.393l-.461-4.519a21.46 21.46 0 0 0-1-3.664c-.893-1.911-.617-2.087-4.54-2.654-1.719-.249-2.126.823-3.531 2.055-.139.122-.131.845-.163 1.037l-.187 1.01q-.082.4-.183.787h0s-1.18 5.37-1.96 6.51-2.392 2.735.3 3.708a9.64 9.64 0 0 0 1.456.38l3.34-.237a19.27 19.27 0 0 1 3.12.29c.694.095 1.369.297 2 .6.586.306 1.009.756 1.6 1.073a.31.31 0 0 0 .182.052c.352-.045.368-1.245.34-2.135z" class="G"/><path d="M22.937 29.674s-.618.108-.659.048-.566-.936-.566-.936l.173-.388-.132-.441s-.775-.345-.841-.566.954.22.954.22l.513.352.6.733z" class="J"/><path d="M20.785 26.432l-1.969.149a.16.16 0 0 0-.135.224l1.4 3.184a.16.16 0 0 0 .159.1l1.424-.108a.16.16 0 0 0 .143-.2l-.854-3.225c-.02-.075-.09-.124-.167-.119z" class="F"/><path d="M19.74 29.814l1.15-.876-.353-.508-.92.426-.056-.318-.893.87.3.578z" class="J"/><path d="M19.595 30.124l-.922-1.205-3.175 1.915.783 2.557zm8.495.376l-5.112-1.316-1.232 1.036 6.764 3.4z" class="G"/><path d="M22.045 25.523c.378.123.788.103 1.152-.058.099-.038.163-.133.163-.239-.004-.296-.027-.592-.071-.885.366-.129.788-.321.852-.7a1.09 1.09 0 0 0-.022-.364l-.258-1.491c-.018-.175-.071-.345-.155-.5a1.12 1.12 0 0 0-.784-.424c-.778-.151-1.584.045-2.206.537-.165.128-.294.297-.373.491a1.62 1.62 0 0 0 .054.945l.225.859c.086.329.211.7.529.827.168.066.367.046.52.143.27.173.234.572.374.859z" class="J"/><path d="M17.602 20.563c-.075-.124-.157-.243-.248-.356-.218-.225-.418-.467-.6-.722-.182-.264-.191-.611-.024-.885a.97.97 0 0 1 .517-.3c.643-.188 1.325-.201 1.975-.037a2.85 2.85 0 0 0 1.785.185c.527-.188 1.107-.156 1.61.088a15 15 0 0 1 2.137.622 1.76 1.76 0 0 1 .6.594c.536.856.539 1.942.007 2.8-.122.185-.26.358-.412.519-.29.381-.671.683-1.109.877-.01-.382.338-1.587.044-1.9-.466-.5-1.518-.323-2.1-.2-.63.133-1.192.58-1.816.675-.497.024-.989-.111-1.405-.384-.466-.285-.686-1.121-.961-1.576z" class="E"/><path d="M7.69 27.018l-1.921.66L3.188 31.7l.78 2.461 1.741-1.08zm7.861 5.943l-2.581-4.442-1.723-.946-.445.445 1.868 3.683.48 1.381 1.741.42z" class="C"/><path d="M3.906 59.75l-.065.642 1.219.772.707-.577-.577-.707-1.219-.772z" class="B"/><g class="G"><path d="M3.858 40.166l-.2 1.95 1.741 8.713-1.542 8.708 1.248.384 4.034-10.353.221-3.165-.546-6.557z"/><path d="M13.313 40.83l.04 8.237-1.623 10.609-1.193-.008-.688-9.8-1.567-9.81z"/></g><path d="M10.54 60.171l1.286.654.65-.641-.641-.65-1.291-.009z" class="B"/><path d="M14.319 39.62a37.44 37.44 0 0 1-1.2-8.246 7.35 7.35 0 0 0-.494-2.406 2.82 2.82 0 0 0-1.794-1.562 12.6 12.6 0 0 0-3.093-.358c-.948-.03-1.786 3.532-2.752 5.259a19.34 19.34 0 0 0-1.6 3.148 24.9 24.9 0 0 0-.975 3.388c-.337 1.74-1.2 2.955-.376 3.547l.217.074c1.349.49 2.746.835 4.168 1.029a16.66 16.66 0 0 0 3.809.072 11.6 11.6 0 0 0 4.942-1.32z" class="C"/><path d="M7.957 23.745c.9-1.464 3.342-1.474 3.449.5a3.76 3.76 0 0 1-.251 1.744c-.229.558-.713.972-1.3 1.112h-.01l-.041.456a.1.1 0 0 1-.138.112l-.545-.045a.6.6 0 0 1-.261-.062.5.5 0 0 1-.158-.534l.032-.139a2.5 2.5 0 0 1-.777-3.144z" class="D"/><g class="E"><path d="M11.412 21.697c.439.036.7.532 1.044.839.283.256.641.39.944.618.336.219.52.608.477 1.007.373-.14.782-.151 1.162-.03a.77.77 0 0 1 .373 1.045c-.216.306-.675.282-.9.58-.355.471.081 1.434-.429 1.683-.122.06-.267.047-.388.11a1.02 1.02 0 0 0-.328.4 1.7 1.7 0 0 1-2 .72c-.419-.35-.677-.856-.716-1.4-.054-.66.324-.8.514-1.36a2.58 2.58 0 0 0-.118-1.91c-.167-.39-.478-.701-.869-.867-.155-.052-.136.092-.286-.073-.074-.119-.115-.255-.121-.395.506-.238 1.063-1.015 1.641-.967z"/><path d="M6.635 21.438a4.95 4.95 0 0 0-.7-.012c-.345.064-.4.393-.557.655-.172.328-.4.622-.675.87a3.05 3.05 0 0 1-.633.284c-.23.081-.408.266-.479.5-.05.232.056.475.025.711a3.39 3.39 0 0 0-.13.888 1.1 1.1 0 0 0 .135.556.79.79 0 0 0 .63.276 1.43 1.43 0 0 1 .683.133c.442.274.239.738.271 1.174a1.2 1.2 0 0 0 1.282 1.1 1.32 1.32 0 0 0 1.008-1.093c.052-.269 0-.543.059-.812s.282-.582.1-.842a1.9 1.9 0 0 1-.15-.175c-.028-.058-.042-.122-.039-.187a.76.76 0 0 1 .265-.58 1.57 1.57 0 0 0 .355-.28 1.31 1.31 0 0 0 .127-.53 1.1 1.1 0 0 1 .811-.891 2.93 2.93 0 0 0 .74-.188c.038-.018.608-.325.6-.232.004-.163-.033-.324-.107-.469-.091-.245-.232-.47-.413-.659-.6-.564-.853.361-1.383.107-.128-.061-.2-.208-.3-.31-.208-.172-.488-.232-.748-.159-.255.074-.514.129-.777.165z"/></g><path d="M9.935 29.085l1.942.358a.16.16 0 0 1 .11.237l-1.73 3.017a.16.16 0 0 1-.168.078l-1.4-.259a.16.16 0 0 1-.121-.215l1.192-3.117a.16.16 0 0 1 .179-.1z" class="F"/><path d="M10.541 32.799l-.9-.781.317-.4.736.4.062-.259.69.762-.273.46z" class="D"/><path d="M15.54 33.035l-.012-.115-4.232-.74-.5.941 4.084 2.2.041-.01h0z" class="C"/><path d="M9.599 31.555l.935-.74-.3-.413-.752.367-.051-.261-.721.733.254.471z" class="D"/><path d="M8.869 30.909l-5.013.614-.016-.009.184 2.622 5.3-2.267z" class="C"/><g class="B"><path d="M48.885 45.161l5.246-1.76-1.331 9.063.4 7.864.015.053h-.012v.017l-1.027.068h0-.038l-2.086-7.056-1-7.481h0zm3.33 15.664h1.063l.245.9-.027.007h.007l-1.786.99-.838.069-.079-.957.23-.159z"/><path d="M44.804 45.211l1.112 15.615 1.026.076 1.273-8.378 2.029-8.322zm1.105 15.981l-1.383.733.109.646 2.442-.3-.117-.929z"/></g><path d="M55.561 47.78c.109-2.64-2.248-11.034-2.248-11.034h0a14.9 14.9 0 0 1-.553-2.4c-.081-.573-1.8-7.081-1.683-7.089-1.182.086-3.461-.193-4.337.646a1 1 0 0 0-.071.075c-.638 1.024-1.098 2.148-1.36 3.325a26.04 26.04 0 0 0-.972 3.906c-.195 1.158-.31 2.328-.392 3.5-.07 1.007-.015 2.008-.049 3-.262 2.225-.801 4.409-1.606 6.5 1.196.478 2.477.705 3.764.665 1.283 0 2.565-.119 3.848-.1 1.082.09 2.171.062 3.247-.083.836-.211 1.646-.517 2.412-.913z" class="H"/><path d="M47.03 24.501a1.92 1.92 0 0 0-1.067 1.593c.017.308.187.547.192.878.012.651 1 1.333.395 1.961-.351.284-.79.437-1.242.431a.33.33 0 0 1-.161-.011.23.23 0 0 1-.121-.222c.009-.089.03-.177.064-.26.284-.891-.145-1.931-.2-2.839-.116-.924.222-1.846.907-2.476a1.68 1.68 0 0 1 1.115.822z" class="E"/><path d="M47.37 28.369a1.96 1.96 0 0 1-1.423-1.08c-.263-.562-.39-1.179-.368-1.8-.01-2.061 2.541-2.2 3.566-.729.888 1.28.007 3.83-1.775 3.609z" fill="#eacdb0"/><path d="M50.453 28.62c-.33-.065-.633-.224-.875-.457-.34-.547-.577-1.152-.7-1.785a2.61 2.61 0 0 0-.945-1.489 1.42 1.42 0 0 0-1.045-.119c-.253.045-.244.142-.483.049a1.11 1.11 0 0 1-.457-.527c-.11-.303-.076-.64.091-.916a1.5 1.5 0 0 1 1.037-.783c1.566-.376 3.178.417 3.836 1.887.374.727.378 1.618.761 2.314.236.429.59.677.8 1.142.557 1.206 1.574 2.688 1.778 4.007.013.048.007.1-.018.143-.061.08-.187.022-.266-.04l-1.385-1.09a2.48 2.48 0 0 1-.5-.475c-.336-.466-.344-1.152-.8-1.507a2.31 2.31 0 0 0-.829-.354z" class="E"/><path d="M57.696 30.236c.475.031.942-.128 1.3-.442.426-.655-.586-.454-.951-.462.045-.122.079-.249.1-.378.015-.119-1.071.19-1.176.3-.251.273-.137.479-.114.825l.841.157z" fill="#ebceb1"/><path d="M49.57 32.711l4.442 2.041 3.683-4.46-1.087-.9-2.434 2.453-2.937-2.854-2.8.121zm-2.901-4.73l-.761.588-3.361 5.883 2.341.9 1.38-5.1.6-1.321z" class="H"/><g class="B"><path d="M49.274 27.698l1.973 1.172-7.023 2.581.461-1.442z"/><path d="M46.429 28.071l1.278.42 2 1.572.229 9.071-3.644-.521.849-7.7-1.926-1.166-.321-.4z"/></g><path d="M46.312 29.753l-1.529.876c-.04.023-.066.064-.071.11s.014.091.049.122l2.349 2.028c.046.04.112.046.165.016l1.105-.633c.037-.021.063-.058.07-.1s-.004-.085-.032-.117l-1.926-2.271c-.044-.053-.12-.066-.18-.032z" class="F"/><path d="M46.617 32.637l.427-1.381-.582-.208-.5.881-.23-.226-.222 1.227.576.3z" fill="#ebceb1"/><path d="M45.491 32.408l-1.906 1.745c-.272.279-.636.155-1.04.3l.78 1.861c1.561-.48 2.228-1.591 3.071-3.1z" class="H"/><path d="M47.378 8.439l13.357-.026a2.24 2.24 0 0 1 2.243 2.234l.016 8.61a2.24 2.24 0 0 1-2.221 2.243l-2.146.016-2.441 3.438c-.032.045-.089.064-.142.048s-.089-.065-.09-.12l-.057-3.361h-8.5a2.24 2.24 0 0 1-2.238-2.234l-.016-8.6a2.24 2.24 0 0 1 2.235-2.248z" class="C"/><path d="M47.714 11.03h10.67v.445h-10.67zm-.001 3.39H60.44v.445H47.713zm-.001 3.39h12.727v.445H47.712z" fill="#fffff3"/><path d="M47.902 9.561a3.97 3.97 0 0 0-.153-1.118h-.394a2.22 2.22 0 0 0-2.205 1.963v3.258c1.581-.781 2.629-2.343 2.752-4.103z" fill="#191919" opacity=".26"/><path d="M15.863 0h17.13c.069.003.122.061.119.13v13c.001.033-.011.065-.033.09s-.054.039-.087.04H29.12l-2.658 3.728c-.034.049-.097.07-.154.053s-.097-.071-.097-.131l-.054-3.65h-6.7a3.9 3.9 0 0 1-3.717-4.052V.133c-.002-.034.01-.068.033-.093s.056-.04.09-.04z" class="B"/><path d="M17.986 2.171h10.67v.445h-10.67zm-.001 3.39h12.727v.445H17.985zm-.001 3.39h12.727v.445H17.984z" fill="#fffff3"/><path d="M15.798 9.908c.167 1.113.787 2.108 1.713 2.748l.008-.231c-.007-1.111-.688-2.107-1.721-2.517z" fill="#191919" opacity=".26"/><path d="M16.784 11.711c-.009-1.494-1.219-2.702-2.713-2.709V8.86c-.009-1.378-.872-2.607-2.165-3.083s-2.747-.099-3.647.945A3.06 3.06 0 0 0 2.918 8.6c-.069 0-.139-.008-.209-.007-1.341.009-2.476.991-2.677 2.317s.59 2.601 1.867 3.008a2.64 2.64 0 0 0 2.779 3.638l.018 2.822c0 .122.16.17.2.108l1.773-2.521c.609.398 1.355.528 2.062.357s1.313-.625 1.673-1.257c.912.562 2.057.585 2.99.06s1.509-1.516 1.502-2.587l-.01-.21a2.73 2.73 0 0 0 1.898-2.617z" fill="#7db5db"/><g fill="#fff"><use xlink:href="#B"/><use xlink:href="#B" x="-3.98" y="-0.031"/><use xlink:href="#B" x="3.998"/></g><path d="M39.542 3.334c-4.276-.033-7.762 2.393-7.785 5.42-.015 1.984 1.462 3.733 3.686 4.712l-.024 3.07c0 .136.175.191.224.123l1.852-2.559a10.81 10.81 0 0 0 1.962.193c4.276.033 7.762-2.393 7.785-5.419s-3.424-5.507-7.7-5.54z" class="H"/><g fill="#fff"><use xlink:href="#C"/><use xlink:href="#C" x="-3.9" y="-0.03"/><use xlink:href="#C" x="3.925"/></g><defs ><path id="B" d="M8.455 12.075c-.188.009-.337.163-.338.351s.145.345.333.356c.188-.009.337-.163.338-.351s-.145-.345-.333-.356z"/><path id="C" d="M39.851 8.564c-.192-.001-.348.153-.349.344s.153.348.344.35.348-.153.349-.344-.153-.348-.344-.35z"/></defs></svg>