<svg xmlns="http://www.w3.org/2000/svg" xmlns:xlink="http://www.w3.org/1999/xlink" width="78.228" height="63.2" xmlns:v="https://vecta.io/nano"><style><![CDATA[.B{fill:#ffc727}.C{fill:#263238}.D{fill:#dd6a57}.E{fill:#dbdbdb}.F{fill:#fff}.G{fill:#ebebeb}.H{fill:#455a64}.I{stroke-miterlimit:10}]]></style><path d="M20.74 62.549c-.379.122-11.186-.018-11.593-.285a14.52 14.52 0 0 1-.259-3.581v-.06l-.013-1.208v-.169l.028-5.606 7.229.072-.217 5.554-.008.22-.044 1.15v.118s4.112 1.9 4.53 2.245.723 1.43.347 1.55z" class="D"/><g class="B"><path d="M17.49 59.494c-.028-.008-.043-.016-.045-.025z"/><path d="M20.736 62.549c-.378.122-11.185-.016-11.593-.284-.216-.971-.3-1.966-.248-2.959 1.98.413 9.654 1.966 9.864 1.309.083-.258-.574-.7-.989-.956A27.63 27.63 0 0 1 20.382 61c.414.339.735 1.429.354 1.549z"/></g><path d="M13.949 62.533c-1.606.016-3.212-.074-4.806-.268-.216-.971-.3-1.966-.248-2.959l1.151.235z" opacity=".1"/><path d="M6.683 20.512L8.57 40.166c.061.317.1 2.043.124 4.262l.023 13.571h7.618s-.226-15.126-.563-17.91l-2.493-19.576z" fill="#37474f"/><g class="C"><path d="M15.983 56.671l-2.036-.046c-.582-.006-4.4-.039-4.948.051-.008.017-.005.022 0 .024.544.09 4.367.057 4.948.051l2.036-.046c.009 0 .017-.008.017-.017s-.008-.017-.017-.017zm-5.824-8.647q-.012-1.657-.025-3.314l-.057-3.21c-.1-2.165-.542-4.293-.855-6.433l-.809-6.442-.747-7.245c0-.016-.027-.016-.026 0 .359 4.312.759 8.623 1.356 12.91q.223 1.6.487 3.192c.178 1.075.355 2.151.439 3.238.083 1.064.1 2.132.107 3.2q.017 1.656.033 3.313l.071 8.68c0 .02.017.037.037.037s.037-.017.037-.037l-.048-7.889z"/><path d="M5.073 20.512l3.493 19.654c.061.317.1 2.043.124 4.262v.007l3.63-23.922z"/></g><path d="M11.891 63.194c-.387.1-11.156-.81-11.544-1.105a14.52 14.52 0 0 1-.005-3.591v-.06l.072-1.205c0-.056.008-.113.01-.169l.425-5.59 7.206.584-.607 5.522-.024.219-.125 1.144-.013.118s3.967 2.19 4.36 2.56.632 1.479.245 1.573z" class="D"/><path d="M11.891 63.198c-.387.1-11.155-.81-11.544-1.106-.145-.92-.161-1.856-.046-2.78 1.668.427 9.707 2.448 9.954 1.784.051-.141-.119-.349-.351-.552a17.92 17.92 0 0 1 1.744 1.083c.388.363.63 1.471.243 1.571z" class="B"/><path d="M7.61 58.41L0 58.087 2.116 40.36c.057-1.526.789-7.824 1.4-12.923 0 0-1.165-2.761 1.015-6.931h8.746a36.07 36.07 0 0 1-1.59 6.485 11.67 11.67 0 0 0-1.944.888c0 0-.87 11.369-.9 12.788C8.779 43.469 7.61 58.41 7.61 58.41z" fill="#37474f"/><g class="C"><path d="M7.408 57.015l-2.032-.132-4.946-.158c-.008.017-.005.022 0 .024.539.113 4.36.242 4.942.261l2.036.04c.01 0 .018-.008.018-.017s-.008-.018-.018-.018zM5.112 20.878c-.487.971-.834 2.006-1.03 3.075-.114 1.149.014 2.309.376 3.406l-.131 1.476-.2 1.734q-.2 1.752-.4 3.5-.4 3.486-.8 6.972-.4 3.486-.79 6.975l-.765 6.957q-.043.433-.085.867c0 .029.048.035.051.006l.849-6.96.814-6.933.807-6.971.786-6.876a5.21 5.21 0 0 0 .02-.8 10.2 10.2 0 0 1-.429-2.684 8.99 8.99 0 0 1 .718-2.953l.3-.76c.012-.046-.067-.075-.091-.031zm6.91 5.94a14.44 14.44 0 0 0-2.276 1.06c-.011.007-.015.021-.01.033s.018.018.031.014l2.3-1.016c.025-.012.035-.043.023-.068s-.043-.035-.068-.023zm-1.072-1.271l.176-1.377a12.52 12.52 0 0 0-.028-2.582c0-.012-.01-.022-.022-.022s-.022.01-.022.022c.02 1.192-.05 2.384-.209 3.565-.086.568-.372 1.423.222 1.51s1-1.343 1.07-1.734c.189-1.116.232-2.252.128-3.379 0-.027-.049-.032-.049 0a25.54 25.54 0 0 1-.129 2.562c-.035.4-.353 2.578-1.038 2.419-.115-.027-.173-.14-.191-.312.003-.226.033-.451.091-.669"/><path d="M11.069 26.592a3.7 3.7 0 0 0-.154.453c-.044.119-.066.245-.064.372 0 .024.035.027.047.01a1.3 1.3 0 0 0 .159-.362l.155-.42c.008-.038-.012-.075-.048-.089s-.076.002-.095.036zM8.591 4.64C7.174 5.855 7.568 7.627 6.976 8.588c-.362.588-1.541 1.208-1.775 1.886-.385 1.113.558 1.512.347 2.117-.3.857-1.446.79-1.653 2.192s1.336 2.893 5 3.3 5.672-.936 5.8-2.126-1.086-1.585-1.169-2.473c-.053-.568.7-.963.737-2.007s-.98-1.384-1.126-2.271.324-3.043-.98-4.143a2.9 2.9 0 0 0-3.566-.423z"/><path d="M8.755 4.674a3.02 3.02 0 0 0-.941 1.085 6.6 6.6 0 0 0-.523 1.439 3.99 3.99 0 0 1-.284.862 2.21 2.21 0 0 1-.491.606 14.29 14.29 0 0 0-1.224 1.033 1.59 1.59 0 0 0-.464 1.411 5.34 5.34 0 0 0 .375.777c.145.243.121.551-.06.768a4.93 4.93 0 0 1-.656.4 2.31 2.31 0 0 0-.534.518 1.79 1.79 0 0 0-.337 1.408 3.33 3.33 0 0 0 2.27 2.194l.414.167c.021.008.039-.022.018-.032a4.11 4.11 0 0 1-2.519-2.07 1.67 1.67 0 0 1 .171-1.469 2.12 2.12 0 0 1 .523-.55c.2-.147.429-.237.631-.377.204-.13.323-.359.311-.6-.032-.261-.125-.51-.272-.728a1.35 1.35 0 0 1-.234-.767 1.48 1.48 0 0 1 .293-.731 5.68 5.68 0 0 1 1.173-1.053 2.47 2.47 0 0 0 .891-1.232c.076-.261.123-.53.189-.793a7.01 7.01 0 0 1 .218-.723 3.45 3.45 0 0 1 .774-1.276 2.04 2.04 0 0 1 .3-.248c.012-.008 0-.028-.012-.019zm6.102 10.412c-.045-.194-.131-.376-.253-.533s-.281-.3-.422-.446a1.04 1.04 0 0 1-.3-.494.99.99 0 0 1 .161-.66 4.96 4.96 0 0 0 .328-.638 2.34 2.34 0 0 0 .139-.682 2.35 2.35 0 0 0-.368-1.361l-.392-.6a2.93 2.93 0 0 1-.325-.711c-.165-.551-.2-1.133-.335-1.691a8.74 8.74 0 0 0-.595-1.66c-.006-.013-.026 0-.019.012a7.61 7.61 0 0 1 .52 1.5c.116.49.161.989.248 1.484a3.74 3.74 0 0 0 .186.713 3.84 3.84 0 0 0 .318.612 3.41 3.41 0 0 1 .571 1.279 2.24 2.24 0 0 1-.236 1.37c-.192.364-.462.765-.294 1.191.142.361.486.577.715.876.244.333.334.754.248 1.157-.279.967-1.18 1.62-2.186 1.584-.013 0-.023.011-.023.023s.011.023.023.023a2.38 2.38 0 0 0 2.138-1.16 1.77 1.77 0 0 0 .153-1.189z"/></g><g class="D"><path d="M10.703 13.415c.521 1.374 2.963 6.385 4.8 6.777 2.049.438 6.016-1.133 8.58-2.24.918-.4-1.322-3.564-2.331-3.935-.606-.223-4.821 1.95-5.754 1.95-.527 0-1.712-1.935-4.056-3.763-1.289-1.003-1.94-.637-1.239 1.211z"/><path d="M23.431 18.141a30.93 30.93 0 0 0 4.268-1.473c.623-.418 2.328-1.749 2.057-2.259s-.8-.16-.8-.16.631-.676.311-1.164-1.127.084-1.127.084.6-.742.243-1.206-1.069.247-1.069.247.578-.653.125-.912c-.544-.312-1.473 1.012-2.2 1.421-.164.093-3.458 1.648-3.458 1.648z"/></g><path d="M27.375 12.15a4.18 4.18 0 0 1-2.235 1.727c-.021.009-.013.042.01.035.996-.17 1.845-.817 2.274-1.732.026-.052-.016-.076-.049-.03zm.817.941a6.27 6.27 0 0 1-2.4 1.838c-.015.008 0 .035.013.028a4.25 4.25 0 0 0 2.432-1.818c.022-.048-.008-.093-.045-.048zm.707 1.185a5.63 5.63 0 0 1-2.514 1.655c-.012.003-.019.016-.015.027s.016.019.028.016c1.028-.204 1.935-.803 2.525-1.669.045-.061.03-.087-.023-.029z" class="C"/><path d="M20.825 14.285c.414-.637.89-1.231 1.421-1.774.522-.421 3.044-1.274 3.259-.74.278.69-1.081 1.469-1.8 1.764 0 0 .644 1.6-.21 2.365s-2.67-1.615-2.67-1.615z" class="D"/><path d="M25.52 11.986c-.2.812-1.165 1.138-1.838 1.476-.02.009-.035.028-.039.05s.003.045.018.061a2.77 2.77 0 0 1-.116 2.33c-.006.007-.006.018.002.025s.018.006.024-.002c.519-.673.617-1.581.253-2.349.7-.336 1.648-.705 1.7-1.59l-.004-.001z" class="C"/><g class="B"><use xlink:href="#B"/><use xlink:href="#B"/></g><path d="M14.972 15.459l-.5 2.065q-.107.524-.2 1.05l-.157 1.077c0 .018.024.02.028 0l.427-2.1.426-2.091c.003-.009-.02-.014-.024-.001z" class="C"/><path d="M10.857 14.222a1.34 1.34 0 0 1 .1.345c0 .02.005.039.005.059l-.111-.268c-.002-.045 0-.091.006-.136zm2.976-.307a1.38 1.38 0 0 0 .1.7 1.24 1.24 0 0 0 0-.356 1.26 1.26 0 0 0-.1-.344zm-1.006 3.581a1.26 1.26 0 0 0 0 .356 1.24 1.24 0 0 0 .1.343 1.24 1.24 0 0 0 0-.356 1.26 1.26 0 0 0-.101-.343zm.941-1.112a1.38 1.38 0 0 0 .7-.1 1.24 1.24 0 0 0-.356 0c-.119.017-.235.05-.345.1zm-3.657-4.681c.118.017.238.017.356 0a1.24 1.24 0 0 0 .343-.1c-.238-.028-.479.006-.7.1zm1.629 4.644zm3.03 1.775a1.26 1.26 0 0 0-.249.255 1.24 1.24 0 0 0-.175.31c.095-.073.179-.158.249-.255a1.26 1.26 0 0 0 .174-.311zm-1.849-2.629c-.148-.188-.343-.334-.565-.424.148.188.343.334.565.424zm-.676-2.64a1.26 1.26 0 0 0-.25.254c-.073.094-.132.198-.176.309a1.24 1.24 0 0 0 .25-.254c.074-.095.134-.199.178-.311z" class="F"/><path d="M10.475 13.436c1.078 2.767 2.662 5.976 4.016 7.132l.456-2.06-4.86-7.282c-.185.293-.085 1.004.388 2.21z" class="C"/><path d="M13.586 21.788a34.95 34.95 0 0 1-10.007.253c0 0 2.561-8.175 4.624-10.379.298-.413.762-.674 1.27-.713s1.007.149 1.363.513c.194.161 2.6 3.214 2.8 4.277a3.04 3.04 0 0 1-.584 1.984z" class="B"/><path d="M10.951 14.564c.017.118.017.238 0 .356a1.24 1.24 0 0 1-.1-.343 1.26 1.26 0 0 1 0-.356c.049.109.083.225.1.343zm.062 5.522c-.017.118-.017.238 0 .356s.05.234.1.343c.028-.238-.006-.479-.1-.7zm1.7 1.059a1.26 1.26 0 0 0 0 .356c.017.119.05.234.1.343a1.24 1.24 0 0 0 0-.356 1.26 1.26 0 0 0-.103-.341zm-5.5-4.843a1.26 1.26 0 0 0 0 .356 1.24 1.24 0 0 0 .1.343 1.24 1.24 0 0 0 0-.356 1.26 1.26 0 0 0-.102-.341zm5.615 1.193a1.26 1.26 0 0 0 0 .356 1.24 1.24 0 0 0 .1.343 1.24 1.24 0 0 0 0-.356 1.26 1.26 0 0 0-.102-.342zm-4.05-2.158a1.26 1.26 0 0 0 .356 0c.119-.017.234-.05.343-.1a1.24 1.24 0 0 0-.356 0 1.26 1.26 0 0 0-.346.101zm-2.038 3.46a1.38 1.38 0 0 0 .7-.1 1.24 1.24 0 0 0-.356 0c-.12.017-.236.052-.346.102zm3.394-.285a1.26 1.26 0 0 0 .356 0 1.24 1.24 0 0 0 .343-.1 1.24 1.24 0 0 0-.356 0 1.26 1.26 0 0 0-.345.102zm-6.158 3.18a1.26 1.26 0 0 0 .356 0c.119-.017.234-.05.343-.1a1.38 1.38 0 0 0-.7.1zm6.135-9.991c.118.017.238.017.356 0a1.24 1.24 0 0 0 .343-.1c-.238-.028-.479.006-.7.1zm-1.153.627c-.188.148-.334.343-.424.565.095-.073.179-.159.249-.255a1.26 1.26 0 0 0 .173-.309zm-3.087 4.417c-.095.073-.179.159-.249.255a1.24 1.24 0 0 0-.175.31 1.24 1.24 0 0 0 .249-.255 1.26 1.26 0 0 0 .173-.309zm5.883-.412c-.095.073-.179.159-.249.255a1.24 1.24 0 0 0-.175.31c.095-.073.179-.158.249-.255a1.26 1.26 0 0 0 .174-.309zm-2.941 3.292a1.26 1.26 0 0 0-.249.255c-.073.094-.132.199-.175.31.188-.148.334-.343.424-.565zm3.252-6.609l-.07.086a1.22 1.22 0 0 0-.176.311c.095-.073.179-.159.249-.256l.049-.069zm.855 2.474c-.148-.188-.343-.334-.565-.424.148.188.343.334.565.424zm-7.484 4.1c-.073-.095-.159-.178-.255-.249s-.199-.132-.31-.175a1.24 1.24 0 0 0 .255.249 1.26 1.26 0 0 0 .308.18zm7.647.129a1.26 1.26 0 0 0-.255-.249 1.24 1.24 0 0 0-.31-.175 1.24 1.24 0 0 0 .255.249 1.26 1.26 0 0 0 .309.18zm-5.282-5.11a1.26 1.26 0 0 0-.255-.249c-.094-.073-.199-.132-.31-.175.073.095.158.179.255.249a1.26 1.26 0 0 0 .305.18zm2.172 7.327a1.26 1.26 0 0 0-.255-.249 1.24 1.24 0 0 0-.31-.175c.148.188.343.334.565.424zm-.646-4.5a1.26 1.26 0 0 0-.255-.249 1.24 1.24 0 0 0-.31-.175c.073.095.158.179.255.249a1.26 1.26 0 0 0 .309.175zM6.87 21.054c-.073-.095-.159-.179-.255-.249a1.24 1.24 0 0 0-.31-.175 1.24 1.24 0 0 0 .255.249c.095.073.199.132.31.175z" class="F"/><path d="M12.385 13.484c.21.283.405.578.584.881l-.2-.521a2.62 2.62 0 0 1 .193.381l.137.352v.006c.23.348.413.725.543 1.121.086.363.078.741-.023 1.1-.052.185-.124.364-.214.534a1.66 1.66 0 0 1-.281.421l.159 1.139a9.05 9.05 0 0 1 .116 1.116.02.02 0 0 1-.04 0l-.024-.079c-.081-.355-.116-.713-.163-1.06l-.141-1.117c-.001-.004.172-.315.239-.458.083-.175.15-.357.2-.544.104-.352.112-.725.022-1.081-.126-.381-.297-.745-.508-1.086l-.624-1.087c-.008-.015.015-.032.025-.018z" class="C"/><g class="D"><path d="M7.657 12.221c-1.71 2.314-4.975 7.79-3.879 9 1.8 1.983 6.135 3.661 7.484 4.029.582.159 2.532-4.1 1.979-4.434-.664-.4-5.305-1.818-5.292-2.213.007-.224.49-2.1.888-4.512.461-2.803-.364-2.973-1.18-1.87z"/><path d="M11.506 20.439s1.046-.339 2.141-.835c.708-.337 1.465-.558 2.242-.656.81 0 4.2.533 4.087 1.357-.1.746-2.952-.079-2.952-.079s2.951.578 2.666 1.454-3.384-.484-3.384-.484 3.019.662 2.582 1.518c-.331.647-3.207-.427-3.207-.427s2.591.587 2.28 1.267c-.344.752-3.061-.073-3.061-.073-1.083 1.6-2.758 2.217-3.94 1.676a37.67 37.67 0 0 1 .546-4.718z"/></g><path d="M16.014 19.961l1.046.2 1.017.3a6.03 6.03 0 0 1 1.254.582 12.96 12.96 0 0 0-2.3-.79l-1.023-.275zm-.334 1.237l1.325.273c.439.11.842.251 1.27.389.033.011.016.025-.017.015l-1.278-.317-1.3-.35zm-.471 1.003c.682.122 1.35.313 1.993.572.032.012.009.028-.025.018l-1.972-.565c-.017-.006-.015-.027.004-.025zm-.915-2.871c.174-.104.356-.192.546-.263a3.9 3.9 0 0 1 .539-.18 2.96 2.96 0 0 1 1.218-.049c.971.159 1.917.442 2.815.843.015.006.009.035-.007.03a20.83 20.83 0 0 0-2.758-.706 3.3 3.3 0 0 0-1.2.011l-.6.173c-.177.057-.351.136-.533.176-.01.006-.022.002-.027-.008s-.002-.022.007-.027z" class="C"/><path d="M3.354 20.432l4.746-1.93a44.91 44.91 0 0 0 .878-4.911c.258-2.364-.365-2.974-2.032-.516s-3.409 5.585-3.592 7.357z" class="B"/><path d="M7.183 12.973a.95.95 0 0 1-.057-.159l.064-.088a.96.96 0 0 1-.007.247zm.029 3.33a1.26 1.26 0 0 0 0 .356 1.24 1.24 0 0 0 .1.343 1.24 1.24 0 0 0 0-.356 1.26 1.26 0 0 0-.101-.342zm-.473 2.495a1.26 1.26 0 0 0 .356 0c.119-.017.234-.05.343-.1a1.24 1.24 0 0 0-.356 0 1.26 1.26 0 0 0-.344.101zm-1.022-3.8l-.058.1.053-.005a1.2 1.2 0 0 0 .342-.1c-.112-.015-.226-.014-.338.005zm3.241-2.668c-.188.148-.334.343-.424.565.095-.073.179-.159.249-.255a1.26 1.26 0 0 0 .174-.31zm-3.087 4.417c-.095.073-.179.159-.249.255a1.24 1.24 0 0 0-.175.31 1.24 1.24 0 0 0 .249-.255 1.26 1.26 0 0 0 .174-.31zm-.435 2.849c-.073-.095-.159-.178-.255-.249s-.199-.132-.31-.175a1.24 1.24 0 0 0 .255.249 1.26 1.26 0 0 0 .309.175zm2.365-4.981a1.26 1.26 0 0 0-.255-.249c-.094-.073-.199-.132-.31-.175.073.095.158.179.255.249a1.26 1.26 0 0 0 .309.175z" class="F"/><g class="C"><path d="M8.931 15.057c-.07.137-.128.28-.172.427l-.049.148q.061-.411.118-.824c0-.018-.025-.026-.028-.007l-.7 3.682c-.013 0-.16.085-.169.085s0 .03.01.023.19-.085.191-.087c.06-.133.5-2.353.537-2.623l.017-.036.043-.115.076-.215c.057-.147.103-.297.138-.451z"/><path d="M8.011 17.968a4.83 4.83 0 0 0-.556.165l-.553.172-1.053.371a22.07 22.07 0 0 0-2.068.863c-.014.007 0 .03.011.025l2.129-.8 1.048-.389.523-.2a5.52 5.52 0 0 0 .527-.2z"/></g><path d="M9.051 11.4c.039.177.868 1.331 1.674 1.3.263-.01.273-1.446.273-1.446l.025-.106.349-1.481L9.64 8.528l-.25-.151-.149.925c0 .024-.008.048-.011.073l-.014.083-.037.233-.025.18-.024.187c-.057.445-.083.893-.079 1.342z" class="D"/><path d="M9.24 9.304c.294.847.946 1.522 1.783 1.846l.349-1.481L9.64 8.53l-.25-.151-.15.925z" class="C"/><path d="M13.512 7.33c.344 2.649-1.2 3.153-1.775 3.227-.519.067-2.293.228-2.908-2.371s.508-3.6 1.686-3.811 2.653.302 2.997 2.955z" class="D"/><g class="C"><path d="M13.079 6.917a1.77 1.77 0 0 1-.183-.019.3.3 0 0 1-.184-.055.1.1 0 0 1-.012-.115c.055-.065.141-.096.225-.079.086.004.168.039.229.1a.1.1 0 0 1-.075.168zm-1.822.19a1.71 1.71 0 0 0 .175-.057.3.3 0 0 0 .168-.092.1.1 0 0 0-.016-.118c-.068-.052-.158-.064-.237-.03a.35.35 0 0 0-.2.145.1.1 0 0 0 .11.152zm.491.605c0-.007-.013.01-.012.018.029.179.033.39-.123.471.199-.044.191-.323.135-.489z"/><path d="M11.562 7.545c-.293.016-.239.6.032.586s.214-.6-.032-.586z"/><path d="M11.45 7.582c-.048.038-.093.1-.154.112s-.13-.043-.182-.1c-.001.12.053.231.175.237s.181-.1.2-.216c.001-.015-.02-.044-.039-.033zm1.301 0c0-.007.015.007.015.015.009.182.051.388.22.435-.207-.001-.255-.276-.235-.45z"/><path d="M12.897 7.379c.29-.047.361.536.093.579s-.336-.54-.093-.579z"/><path d="M13.023 7.403c.05.025.1.076.158.072s.1-.072.137-.138c.027.116.004.236-.1.271s-.179-.055-.219-.163c-.004-.019.004-.052.024-.042zm-1.16 1.798c.046.041.092.1.158.1a.42.42 0 0 0 .193-.055c-.042.084-.128.126-.218.118-.077-.016-.136-.077-.15-.154zm.689-.732l.078.394c0 .012-.029.021-.072.028a.61.61 0 0 1-.612-.166c-.01-.012 0-.026.017-.02.174.094.374.129.57.1.005-.036-.127-.452-.107-.456a1.12 1.12 0 0 1 .3.036l-.439-1.652c-.003-.009.001-.019.01-.022s.019.001.022.01a9.27 9.27 0 0 1 .549 1.759c.01.074-.263.006-.316-.011zM9.08 8.253c.43-.015.427-.92.427-.92s.867-.1 1.012-1.373a1.93 1.93 0 0 1-.267 1.073 2.97 2.97 0 0 0 2.008-1.685 3.4 3.4 0 0 1-.4.938 1.8 1.8 0 0 0 .874-.806 3.89 3.89 0 0 0 .579.888s-.364-2.665-2.808-2.1a2.66 2.66 0 0 0-1.957 1.567c-.212.845-.015 1.74.532 2.418z"/></g><g class="B"><path d="M11.362 8.748a.83.83 0 0 1-.832-.753.83.83 0 0 1 .681-.892.83.83 0 0 1 .946.604h0a.83.83 0 0 1-.795 1.041zM11.349 7.2a.72.72 0 1 0 .7.535c-.081-.32-.37-.543-.7-.539zm1.899 1.291c-.374-.055-.654-.371-.662-.749a.99.99 0 0 1 .1-.6c.073-.166.228-.281.408-.304s.358.051.47.193a.99.99 0 0 1 .246.553.75.75 0 0 1-.509.9.47.47 0 0 1-.053.007zm-.1-1.542h-.042a.44.44 0 0 0-.324.246.88.88 0 0 0-.089.53c.049.393.314.685.592.65s.462-.383.413-.776a.88.88 0 0 0-.217-.491c-.085-.096-.205-.151-.333-.154z"/><path d="M12.141 7.802l-.081-.075c.143-.191.41-.238.61-.108l-.071.085c-.203-.172-.447.087-.458.098zm-3.473.683l-.1-.038c.018-.049.181-.476.422-.547.225-.065 1.551-.122 1.614-.124v.111a14.6 14.6 0 0 0-1.586.12c-.16.046-.307.36-.35.478z"/></g><path d="M8.95 9.159a.56.56 0 0 0 .125.027c.042.006.084.006.126 0a.37.37 0 0 0 .152-.056.45.45 0 0 0 .1-.082c.04-.045.073-.097.095-.154l-.178-.707s-.618-.808-.987-.584.116 1.41.567 1.556z" class="D"/><path d="M8.529 7.937c.295.144.52.394.62.701a.25.25 0 0 0-.376-.052c.119-.024.243.01.318.1a1.34 1.34 0 0 1 .157.241c.016.027.065.01.053-.021v-.007c-.013-.398-.345-.94-.772-.962z" class="C"/><path d="M8.982 9.045c.016.066.083.107.15.091s.107-.083.091-.15-.083-.107-.15-.091c-.032.008-.06.028-.077.056s-.022.062-.014.094zm-.261-.176c.012.046.059.075.105.063s.075-.059.063-.105-.058-.075-.105-.064c-.023.005-.042.02-.054.04s-.016.044-.01.066z" class="F"/><path d="M11.003 11.37l-.4 1.212-1.564-1.4-.385.506 1.591 2.175.422-1.05.748.663-.172-1.775z" class="G"/><path d="M11.38 12.594l-.12-.877c0-.01-.018-.014-.02 0 .013.559.056 1.117.127 1.672h0c-.031-.029-.691-.582-.7-.572-.1.169-.4.933-.425 1l-1.5-2.017c-.019 0-.02.006-.017.011.226.386 1.5 2.158 1.514 2.152.166-.362.313-.732.44-1.109a7.8 7.8 0 0 0 .784.707c-.011-.324-.038-.646-.083-.967z" class="C"/><path stroke="#dbdbdb" d="M22.932 14.039h18.83v24.172h-18.83z" class="G I"/><g fill="#c7c7c7"><use xlink:href="#C"/><use xlink:href="#C" y="0.599"/><use xlink:href="#C" y="1.2"/><use xlink:href="#C" y="1.8"/><use xlink:href="#C" y="2.399"/><use xlink:href="#C" y="2.999"/><use xlink:href="#C" y="3.6"/><use xlink:href="#C" y="4.199"/><use xlink:href="#C" y="4.799"/><use xlink:href="#C" y="5.399"/><use xlink:href="#C" y="5.999"/><use xlink:href="#C" y="6.598"/><use xlink:href="#C" y="7.198"/><use xlink:href="#C" y="7.799"/><use xlink:href="#C" y="8.398"/></g><path d="M26.548 25.785h1.116v2.518h-1.116zm2.069-1.343h1.116v3.86h-1.116zm2.069-1.503h1.116v5.364h-1.116zm2.07-.646h1.116v6.009h-1.116zm2.069-1.151h1.116v7.16h-1.116zm2.07-1.137h1.116v8.297h-1.116z" class="B"/><path d="M25.391 18.783l.029 2.38.02 2.38q.021 2.38.02 4.759l-.069-.069h3.578l3.578.008 3.578.023 3.578.041-3.578.041-3.578.023-3.578.008h-3.578-.069v-.069l.02-4.759.02-2.38zm1.157 10.022h1.116v.101h-1.116zm2.069 0h1.116v.101h-1.116zm2.069 0h1.116v.101h-1.116zm2.07 0h1.116v.101h-1.116zm2.069 0h1.116v.101h-1.116zm2.07 0h1.116v.101h-1.116z" fill="#c7c7c7"/><g class="C"><path d="M26.673 26.104a13.55 13.55 0 0 0 1.629-.124c.54-.069 1.075-.165 1.605-.289 1.06-.239 2.089-.601 3.065-1.08a10.92 10.92 0 0 0 2.678-1.824l.151-.137.143-.145.284-.291.524-.623a11.2 11.2 0 0 0 .913-1.352h.009c-.743 1.477-1.849 2.742-3.214 3.675-.451.313-.926.592-1.419.834-1.986.95-4.169 1.413-6.369 1.351z"/><path d="M37.982 21.014l-.154.039-.19-.761-.746.245-.049-.151.908-.3z"/></g><path d="M40.016 32.666H24.677v-.621h15.339zm-6.703 1.567h-8.636v-.621h8.636zm3.352-16.902h-8.636v-.621h8.636z" class="E"/><path d="M38.203 44.105l-18.445 3.79-4.866-23.68 13.7-2.814 5.677 3.536z" class="B"/><path d="M38.203 44.105l-18.445 3.79-4.866-23.68 13.7-2.814 5.677 3.536z" opacity=".8" class="F"/><path d="M28.587 21.403l5.677 3.536-4.75.976z" class="B"/><g class="E"><path d="M27.888 26.321l-10.255 2.107-.125-.608 10.255-2.107zm.315 1.535l-10.26 2.104-.125-.609 10.26-2.104zm.316 1.534l-10.255 2.107-.125-.608 10.255-2.107z"/><use xlink:href="#D"/><use xlink:href="#D" x="0.315" y="1.534"/><path d="M34.235 33.014L19.21 36.101l-.125-.608 15.025-3.087zm.315 1.534l-15.032 3.083-.125-.609 15.032-3.083zm.315 1.535l-15.032 3.083-.125-.609 15.032-3.083z"/><use xlink:href="#D" x="1.577" y="7.673"/><path d="M35.496 39.152l-15.032 3.083-.125-.609 15.032-3.083z"/><use xlink:href="#D" x="2.207" y="10.742"/><use xlink:href="#D" x="2.523" y="12.276"/></g><path d="M76.024 26.896q-10.352.752-20.66 1.5c-2.353-8.944.168-17.889-1.666-26.834Q64.05.81 74.359.062c2.35 8.944-.17 17.889 1.665 26.834z" class="G"/><path d="M76.024 26.895q-10.346.777-20.647 1.554h-.05l-.014-.051c-2.365-8.944.146-17.888-1.7-26.831l-.017-.081.08-.006Q64.028.74 74.338 0h.057l.015.057c2.339 8.946-.203 17.892 1.614 26.838zm0 0c-1.855-8.943.646-17.886-1.722-26.83l.072.053Q64.067.882 53.715 1.646l.064-.087c1.825 8.945-.707 17.891 1.635 26.836l-.063-.047zM56.192 5.399l11.6-.836q.037.344.069.689l-11.615.836q-.024-.344-.054-.689zm.116 1.739l11.635-.836q.022.345.04.689l-11.647.836q-.012-.344-.028-.689zm.053 1.739l11.663-.836q.01.345.017.689l-11.672.836q-.002-.344-.008-.689zm.008 1.74l17.115-1.225q0 .344 0 .689l-17.125 1.225q.008-.344.01-.689zm-.023 1.739l17.136-1.225q0 .345-.009.689l-17.142 1.223q.008-.342.015-.687zm-.04 1.743l17.146-1.225q-.008.345-.016.689l-17.147 1.225q.008-.348.017-.689zm-.046 1.735l17.145-1.225q-.008.345-.016.689l-17.142 1.225q.013-.344.013-.689zm-.022 1.739l17.134-1.225q-.006.345-.011.689l-17.126 1.225q0-.344.003-.689zm.002 1.739l17.112-1.225q0 .345 0 .689l-17.1 1.225q-.008-.344-.012-.689zm.045 1.739l17.079-1.227q.007.345.018.689l-17.063 1.225q-.02-.342-.034-.687zm.106 1.74l17.036-1.225q.018.345.041.689l-17.016 1.226q-.033-.345-.061-.69zm.179 1.739l16.982-1.225q.032.345.071.689l-16.958 1.225q-.051-.344-.095-.689z" class="E"/><use xlink:href="#E" class="B"/><use xlink:href="#E" opacity=".8" class="F"/><path d="M58.848 10.606q5.794 1.008 11.532 2.015-.059.34-.123.681-5.725-1.008-11.5-2.015.053-.341.091-.681zm-.245 1.717q5.747 1.008 11.45 2.015-.071.34-.147.68-5.691-1.008-11.421-2.015.061-.34.118-.68zm-.32 1.718q5.71 1.008 11.383 2.015-.081.34-.165.68-5.666-1.008-11.361-2.015.074-.343.143-.68zm-.377 1.717q8.322 1.476 16.589 2.953-.091.34-.183.68-8.267-1.476-16.568-2.953.083-.34.162-.68zm-.422 1.718q8.289 1.476 16.544 2.953l-.188.681q-8.259-1.476-16.533-2.953.09-.342.177-.681zm-.451 1.717l16.523 2.953q-.094.34-.187.68l-16.521-2.953q.093-.34.185-.68zm-.471 1.717q8.259 1.476 16.524 2.953-.091.34-.181.681-8.278-1.476-16.531-2.953zm-.473 1.718q8.262 1.476 16.549 2.953-.086.34-.169.68-8.305-1.476-16.565-2.953.091-.34.185-.68zm-.465 1.717q8.276 1.476 16.6 2.953-.078.34-.153.681-8.344-1.476-16.623-2.953.086-.338.176-.681zm-.441 1.718q8.3 1.476 16.668 2.953-.068.34-.131.68-8.394-1.476-16.7-2.953.078-.34.163-.68zm-.404 1.717q8.339 1.476 16.763 2.953-.054.34-.1.68-8.456-1.476-16.807-2.953.069-.335.144-.68zm-.354 1.713q8.388 1.476 16.881 2.953-.039.34-.07.68-8.529-1.476-16.934-2.953.058-.336.123-.68z" class="E"/><g class="B"><path d="M27.953 32.848h36.514v26.468H27.953z"/><path d="M40.855 30.107h-12.9v2.741h13.643z"/></g><g opacity=".1"><path d="M27.953 32.848h36.514v26.468H27.953z"/><path d="M40.855 30.107h-12.9v2.741h13.643z"/></g><path d="M64.219 49.412L43.257 43.36c1.726-8.066 6.56-15.968 6.89-24.155l20.946 5.777c-1.75 8.198-6.579 16.178-6.874 24.43z" class="G"/><path d="M64.219 49.416l-20.971-6.007-.05-.014.01-.046c1.719-8.068 6.544-15.973 6.856-24.163v-.074l.083.022 20.954 5.8.057.016-.011.053c-1.769 8.187-6.613 16.162-6.928 24.413zm0 0c.276-8.257 5.09-16.243 6.817-24.446l.045.069-20.937-5.755.086-.052c-.346 8.184-5.19 16.084-6.923 24.147l-.04-.06 20.952 6.097z" class="E"/><path d="M63.087 34.425a5.98 5.98 0 0 1-7.269 3.523 5.1 5.1 0 0 1-3.533-6.692 5.86 5.86 0 0 1 7.16-3.548c1.42.336 2.629 1.261 3.324 2.543s.811 2.801.318 4.174z" class="H"/><g class="E"><path d="M57.691 32.836l-3.685 4.2a5 5 0 0 1-1.719-5.785c1.095-2.87 4.213-4.415 7.16-3.548 1.416.342 2.62 1.268 3.315 2.549s.813 2.795.327 4.168z"/><path d="M57.691 32.836l3.214 4.327c-1.495 1.002-3.358 1.289-5.085.784a5.12 5.12 0 0 1-3.533-6.692c1.095-2.87 4.213-4.415 7.16-3.548 1.416.342 2.62 1.268 3.315 2.549s.813 2.795.327 4.168z"/></g><path d="M57.692 32.836q-2.831.473-5.664.944c-.125-.85-.036-1.718.26-2.525 1.095-2.87 4.213-4.415 7.16-3.548 1.416.342 2.62 1.268 3.315 2.549s.813 2.795.327 4.168z" class="B"/><path d="M51.763 22.758q4.34 1.206 8.62 2.415-.075.314-.155.627-4.265-1.21-8.583-2.416.059-.315.118-.626zm-.656 16.126q5.719 1.686 11.5 3.387-.087.313-.169.625-5.807-1.7-11.535-3.393.101-.309.204-.619zm-.499 1.564q5.757 1.693 11.593 3.4-.074.313-.142.627-5.865-1.714-11.635-3.409.09-.308.184-.618zm-.446 1.566q5.8 1.7 11.706 3.42-.058.314-.11.629-5.934-1.723-11.756-3.427.077-.313.16-.622z" class="E"/><path d="M48.852 38.9l-1.387-.408q.1-.309.21-.618l1.385.407q-.105.31-.208.619z" class="B"/><path d="M48.359 40.463l-1.4-.409q.1-.309.194-.618l1.393.409q-.094.308-.187.618z" class="H"/><path d="M47.918 42.027l-1.408-.411q.084-.31.172-.619l1.4.411q-.082.308-.164.619z" class="E"/><g class="B"><path d="M64.371 59.317H27.858l-2.816-24.272h36.516z"/><path d="M37.65 32.531h-12.9l.292 2.514h13.643z"/></g><path d="M50.011 16.466v-1.301m-1.325 1.683l-.65-1.126m-.305 2.12l-1.126-.65m.796 1.989H46.1m1.683 1.324l-1.126.65m2.12.305l-.65 1.126m1.988-.796v1.301m1.325-1.683l.65 1.126m.305-2.12l1.126.65m-.796-1.988h1.301m-1.683-1.325l1.126-.65m-2.12-.305l.65-1.126" fill="none" stroke="#263238" class="I"/><path d="M50.675 46.095h8.366c.245-.523.386-1.088.415-1.665v-6.7H51.09v6.788a4.72 4.72 0 0 1-.415 1.577z" class="H"/><path d="M52.114 39.707l2.951-.1 2.951.1-2.951.1c-.983 0-1.967-.02-2.951-.1zm0 1.103c.885-.081 1.77-.1 2.655-.1l2.655.1c-.885.081-1.77.1-2.655.1s-1.77-.02-2.655-.1zm0 1.103c.774-.081 1.548-.1 2.322-.1l2.322.1c-.774.081-1.548.1-2.322.1s-1.548-.02-2.322-.1zm0 1.103l2.951-.1 2.951.1-2.951.1c-.983 0-1.967-.02-2.951-.1z" class="F"/><defs ><path id="B" d="M14.492 20.569l1.106-5a44.87 44.87 0 0 0-3.545-3.511c-1.8-1.555-2.655-1.389-1.579 1.38s2.664 5.974 4.018 7.131z"/><path id="C" d="M24.992 19.205l7.355-.019 7.355.019-7.355.019z"/><path id="D" d="M33.604 29.945l-15.025 3.087-.125-.608 15.025-3.087z"/><path id="E" d="M73.087 36.469q-10.686-1.812-21.13-3.625c.9-8.832 5.37-17.665 5.141-26.5q10.686 1.812 21.13 3.624c-.902 8.836-5.371 17.673-5.141 26.501z"/></defs></svg>