<svg xmlns="http://www.w3.org/2000/svg" width="32" height="33" viewBox="0 0 32 33">
  <g id="Group_3224" data-name="Group 3224" transform="translate(396 -6572)">
    <g id="Path_1734" data-name="Path 1734" transform="translate(-396 6572)" fill="none">
      <path d="M16,0A16.256,16.256,0,0,1,32,16.5,16.256,16.256,0,0,1,16,33,16.256,16.256,0,0,1,0,16.5,16.256,16.256,0,0,1,16,0Z" stroke="none"/>
      <path d="M 16 2 C 12.27211952209473 2 8.764080047607422 3.500480651855469 6.122089385986328 6.225030899047852 C 3.463920593261719 8.966270446777344 2 12.61532020568848 2 16.5 C 2 20.38467979431152 3.463920593261719 24.03372955322266 6.122089385986328 26.77497100830078 C 8.764080047607422 29.49951934814453 12.27211952209473 31 16 31 C 19.72787857055664 31 23.23591995239258 29.49951934814453 25.87791061401367 26.77497100830078 C 28.53607940673828 24.03372955322266 30 20.38467979431152 30 16.5 C 30 12.61532020568848 28.53607940673828 8.966270446777344 25.87791061401367 6.225030899047852 C 23.23591995239258 3.500480651855469 19.72787857055664 2 16 2 M 16 0 C 24.8365592956543 0 32 7.387300491333008 32 16.5 C 32 25.61269950866699 24.8365592956543 33 16 33 C 7.163440704345703 33 0 25.61269950866699 0 16.5 C 0 7.387300491333008 7.163440704345703 0 16 0 Z" stroke="none" fill="#22afd3"/>
    </g>
    <path id="Path_1552" data-name="Path 1552" d="M-891.733,6463.867H-877.6" transform="translate(504.543 125.056)" fill="none" stroke="#22afd3" stroke-linecap="round" stroke-width="2"/>
    <path id="Path_1553" data-name="Path 1553" d="M-893.1,6457.5l6.058,4.952-6.058,4.952" transform="translate(515.021 126.497)" fill="none" stroke="#22afd3" stroke-linecap="round" stroke-width="2"/>
  </g>
</svg>
