<svg xmlns="http://www.w3.org/2000/svg" xmlns:xlink="http://www.w3.org/1999/xlink" width="508.281" height="627.003" viewBox="0 0 508.281 627.003"><defs><linearGradient id="a" x1="0.262" y1="0.341" x2="0.658" y2="0.971" gradientUnits="objectBoundingBox"><stop offset="0" stop-color="#311944"/><stop offset="1" stop-color="#893976"/></linearGradient><linearGradient id="b" x1="1.187" y1="0.412" x2="1.543" y2="1.102" xlink:href="#a"/><linearGradient id="c" x1="0.557" y1="0.542" x2="2.238" y2="4.084" xlink:href="#a"/><linearGradient id="d" x1="1.239" y1="1.012" x2="-0.958" y2="-0.145" gradientUnits="objectBoundingBox"><stop offset="0" stop-color="#aa80f9"/><stop offset="0.996" stop-color="#6165d7"/></linearGradient><linearGradient id="e" x1="1.057" y1="0.382" x2="1.508" y2="1.093" gradientUnits="objectBoundingBox"><stop offset="0" stop-color="#fcb148"/><stop offset="0.052" stop-color="#fdb946"/><stop offset="0.142" stop-color="#fec144"/><stop offset="0.318" stop-color="#ffc444"/><stop offset="0.485" stop-color="#fdb946"/><stop offset="0.775" stop-color="#f99c4c"/><stop offset="0.866" stop-color="#f8924f"/><stop offset="1" stop-color="#f8924f"/></linearGradient><linearGradient id="f" x1="6.952" y1="7.232" x2="-4.809" y2="-5.008" xlink:href="#d"/><filter id="g" x="366.78" y="122.524" width="129.666" height="129.666" filterUnits="userSpaceOnUse"><feOffset dx="10" dy="10" input="SourceAlpha"/><feGaussianBlur stdDeviation="10" result="h"/><feFlood flood-opacity="0.161"/><feComposite operator="in" in2="h"/><feComposite in="SourceGraphic"/></filter><filter id="i" x="366.78" y="464.037" width="129.666" height="129.666" filterUnits="userSpaceOnUse"><feOffset dx="10" dy="10" input="SourceAlpha"/><feGaussianBlur stdDeviation="10" result="j"/><feFlood flood-opacity="0.161"/><feComposite operator="in" in2="j"/><feComposite in="SourceGraphic"/></filter><filter id="k" x="38.14" y="475.396" width="129.666" height="129.666" filterUnits="userSpaceOnUse"><feOffset dx="10" dy="10" input="SourceAlpha"/><feGaussianBlur stdDeviation="10" result="l"/><feFlood flood-opacity="0.161"/><feComposite operator="in" in2="l"/><feComposite in="SourceGraphic"/></filter><filter id="m" x="38.14" y="108.136" width="129.666" height="129.666" filterUnits="userSpaceOnUse"><feOffset dx="10" dy="10" input="SourceAlpha"/><feGaussianBlur stdDeviation="10" result="n"/><feFlood flood-opacity="0.161"/><feComposite operator="in" in2="n"/><feComposite in="SourceGraphic"/></filter><filter id="o" x="44.955" y="115.709" width="113.764" height="113.764" filterUnits="userSpaceOnUse"><feOffset dx="10" dy="10" input="SourceAlpha"/><feGaussianBlur stdDeviation="10" result="p"/><feFlood flood-opacity="0.161"/><feComposite operator="in" in2="p"/><feComposite in="SourceGraphic"/></filter><filter id="q" x="375.11" y="130.096" width="113.764" height="113.764" filterUnits="userSpaceOnUse"><feOffset dx="10" dy="10" input="SourceAlpha"/><feGaussianBlur stdDeviation="10" result="r"/><feFlood flood-opacity="0.161"/><feComposite operator="in" in2="r"/><feComposite in="SourceGraphic"/></filter><filter id="s" x="45.712" y="482.968" width="113.764" height="113.764" filterUnits="userSpaceOnUse"><feOffset dx="10" dy="10" input="SourceAlpha"/><feGaussianBlur stdDeviation="10" result="t"/><feFlood flood-opacity="0.161"/><feComposite operator="in" in2="t"/><feComposite in="SourceGraphic"/></filter><filter id="u" x="375.11" y="470.095" width="113.764" height="114.521" filterUnits="userSpaceOnUse"><feOffset dx="10" dy="10" input="SourceAlpha"/><feGaussianBlur stdDeviation="10" result="v"/><feFlood flood-opacity="0.161"/><feComposite operator="in" in2="v"/><feComposite in="SourceGraphic"/></filter></defs><g transform="translate(0)"><g transform="matrix(0.996, 0.087, -0.087, 0.996, 38.143, 142.708)"><path d="M353.279,356.643q-1.879,0-3.778-.029l.019-1.267q1.889.029,3.759.029l1.028,0,0,1.267Zm5.843-.074-.028-1.267q2.407-.061,4.783-.171l.054,1.265Q361.544,356.508,359.122,356.57Zm-14.43-.079q-2.387-.084-4.805-.215l.061-1.265q2.407.129,4.784.213Zm24.043-.378-.079-1.265q2.405-.169,4.77-.393l.108,1.262Q371.156,355.945,368.736,356.114Zm-33.651-.138q-2.385-.171-4.795-.388l.1-1.262q2.4.215,4.776.385Zm43.239-.768-.137-1.26q2.4-.285,4.748-.631l.165,1.255Q380.734,354.919,378.324,355.208Zm-52.822-.089q-2.38-.253-4.78-.547l.138-1.26q2.393.295,4.762.547Zm-9.551-1.171q-2.372-.333-4.762-.7l.174-1.255q2.382.369,4.745.7Zm71.908-.141-.2-1.251q2.38-.414,4.707-.895l.231,1.246Q390.254,353.387,387.859,353.807Zm-81.421-1.333q-2.365-.4-4.743-.841l.208-1.248q2.371.439,4.726.84Zm90.872-.612-.264-1.234q2.351-.561,4.647-1.187l.3,1.228Q399.682,351.3,397.31,351.862Zm-100.345-1.139q-2.351-.468-4.718-.976l.239-1.243q2.36.508,4.7.975Zm109.673-1.408L406.3,348.1c1.553-.483,3.086-.99,4.557-1.508l.38,1.2C409.753,348.317,408.206,348.828,406.639,349.315ZM287.544,348.7q-2.34-.532-4.693-1.1l.269-1.234q2.346.568,4.677,1.1Zm-9.371-2.268q-2.326-.595-4.664-1.225l.3-1.228q2.331.627,4.65,1.224Zm137.608-.333-.423-1.186c1.489-.589,2.982-1.215,4.435-1.862l.468,1.168C418.792,344.874,417.286,345.507,415.782,346.1Zm-146.92-2.18q-2.313-.656-4.634-1.343l.323-1.22q2.317.688,4.623,1.341Zm155.805-1.772L424.153,341c1.45-.72,2.885-1.478,4.268-2.248l.562,1.12C427.583,340.657,426.131,341.421,424.667,342.149Zm-165.058-.971q-2.3-.711-4.6-1.456l.352-1.213q2.3.743,4.59,1.454Zm-9.193-2.968q-2.283-.766-4.571-1.564l.376-1.2q2.284.795,4.559,1.56Zm182.78-.817-.613-1.092c1.38-.86,2.738-1.758,4.039-2.666l.665,1.057C435.97,335.612,434.593,336.521,433.2,337.393ZM241.29,335.029q-2.265-.816-4.537-1.666l.4-1.2q2.266.848,4.525,1.664Zm199.948-3.265-.717-1.018c1.284-1.006,2.542-2.052,3.739-3.109l.772.973C443.816,329.683,442.54,330.743,441.238,331.764Zm-209.006-.12q-2.248-.872-4.5-1.77l.427-1.186q2.248.9,4.491,1.767Zm-8.988-3.591q-2.23-.92-4.467-1.867l.448-1.176q2.23.945,4.456,1.863Zm225.4-2.825-.824-.921c1.149-1.144,2.279-2.341,3.358-3.555l.878.866C450.958,322.851,449.812,324.065,448.642,325.227Zm-234.314-.958q-2.214-.969-4.429-1.964l.471-1.166q2.21.994,4.419,1.959Zm-8.841-3.974q-2.2-1.015-4.392-2.057l.493-1.156q2.191,1.04,4.381,2.052Zm249.758-2.512-.93-.8c1.008-1.294,1.984-2.632,2.9-3.977l.977.738C457.26,315.108,456.27,316.468,455.246,317.783Zm-258.523-1.647q-2.174-1.063-4.351-2.148l.515-1.147q2.171,1.087,4.342,2.144Zm-8.683-4.342q-2.154-1.1-4.311-2.237l.536-1.134q2.151,1.129,4.3,2.23ZM460.871,309.5l-1.02-.669c.828-1.41,1.625-2.873,2.367-4.347l1.061.593C462.525,306.578,461.715,308.066,460.871,309.5Zm-281.432-2.225q-2.137-1.15-4.271-2.323l.557-1.124q2.129,1.171,4.26,2.318Zm-8.518-4.69q-2.122-1.2-4.222-2.409l.578-1.111q2.1,1.209,4.211,2.4Zm294.48-2.092-1.1-.517c.647-1.527,1.25-3.09,1.792-4.646l1.129.439C466.672,297.351,466.059,298.941,465.4,300.494Zm-302.906-2.767q-2.1-1.243-4.182-2.5l.6-1.1q2.073,1.253,4.171,2.49Zm-8.342-5.036q-2.077-1.285-4.135-2.581l.618-1.086q2.052,1.293,4.125,2.574Zm314.6-1.764-1.153-.359c.445-1.59.849-3.224,1.2-4.855l1.172.28C469.61,287.651,469.2,289.311,468.748,290.927Zm-322.841-3.441q-2.053-1.329-4.085-2.668l.638-1.073q2.026,1.336,4.076,2.659Zm-8.146-5.377q-2.028-1.369-4.034-2.751l.658-1.061q2,1.378,4.024,2.746Zm333.121-1.12-1.185-.2c.249-1.631.457-3.305.617-4.978l1.195.125C471.346,277.632,471.136,279.332,470.882,280.989ZM129.719,276.56q-2-1.414-3.981-2.84l.679-1.047q1.972,1.422,3.97,2.832Zm342.135-5.708-1.2-.054c.054-1.307.081-2.637.081-3.958l0-1.067,1.2-.013,0,1.08C471.934,268.178,471.908,269.529,471.853,270.852Zm-350.068-.013q-1.974-1.458-3.923-2.927l.7-1.029q1.944,1.466,3.914,2.92Zm-7.818-5.9q-1.945-1.5-3.863-3.012l.719-1.015q1.913,1.509,3.854,3Zm356.583-4.188c-.1-1.66-.237-3.344-.415-5.006l1.195-.142c.179,1.684.32,3.389.419,5.068Zm-364.279-1.879q-1.915-1.549-3.8-3.1l.74-1q1.881,1.553,3.791,3.095Zm-7.57-6.248q-1.882-1.591-3.735-3.191l.762-.98q1.848,1.6,3.724,3.181Zm370.8-1.863c-.246-1.655-.53-3.32-.842-4.951l1.178-.25c.316,1.646.6,3.332.852,5ZM91.269,246.2q-1.848-1.637-3.664-3.281l.782-.961q1.812,1.639,3.654,3.271Zm376.359-5.3c-.369-1.6-.778-3.24-1.215-4.87l1.158-.343c.44,1.645.854,3.3,1.225,4.915ZM83.979,239.593q-1.812-1.682-3.589-3.372l.805-.942q1.772,1.684,3.578,3.363ZM76.841,232.8q-1.772-1.728-3.51-3.465l.828-.919q1.731,1.73,3.5,3.453Zm388.19-1.592q-.725-2.378-1.539-4.77l1.131-.428c.549,1.616,1.072,3.235,1.55,4.811ZM69.866,225.826q-1.731-1.777-3.423-3.56l.85-.9q1.686,1.775,3.411,3.548Zm391.942-4.1q-.871-2.327-1.821-4.662l1.106-.5q.957,2.355,1.832,4.7ZM63.065,218.658Q61.38,216.832,59.735,215l.874-.871q1.639,1.825,3.319,3.645Zm394.978-6.2q-1-2.272-2.065-4.551l1.078-.563q1.076,2.3,2.078,4.581ZM56.454,211.3q-1.637-1.876-3.231-3.756l.9-.844q1.587,1.872,3.219,3.741Zm-6.408-7.559q-1.585-1.927-3.123-3.858l.919-.815q1.533,1.924,3.111,3.84Zm403.755-.323q-1.105-2.215-2.279-4.436l1.049-.617q1.181,2.234,2.293,4.463ZM43.859,195.971q-1.525-1.979-3-3.959l.945-.783q1.471,1.971,2.992,3.943ZM449.146,194.6q-1.2-2.158-2.47-4.321l1.022-.667q1.276,2.175,2.484,4.347ZM37.915,188q-1.464-2.034-2.875-4.068l.971-.748q1.4,2.025,2.861,4.048ZM444.12,186.01q-1.291-2.1-2.64-4.211l1-.708q1.356,2.116,2.653,4.231Zm-411.886-6.2q-1.392-2.089-2.731-4.177l1-.708q1.331,2.078,2.719,4.157Zm406.529-2.17q-1.368-2.053-2.791-4.1l.97-.748q1.43,2.061,2.8,4.122ZM26.851,171.4q-1.316-2.144-2.571-4.288l1.022-.665q1.249,2.131,2.559,4.266Zm406.264-1.915q-1.439-2-2.928-4l.946-.783q1.493,2.005,2.939,4.014ZM21.794,162.771q-1.23-2.2-2.392-4.4l1.049-.617q1.156,2.186,2.379,4.377Zm405.4-1.223q-1.5-1.948-3.052-3.893l.919-.816q1.558,1.954,3.064,3.91ZM17.107,153.909q-1.131-2.264-2.191-4.52l1.077-.561q1.053,2.241,2.178,4.49Zm403.931-.1q-1.561-1.9-3.166-3.793l.9-.845q1.612,1.9,3.178,3.807Zm-6.384-7.535q-1.612-1.848-3.268-3.694l.874-.869q1.661,1.85,3.279,3.707ZM12.835,144.811q-1.02-2.325-1.963-4.637l1.1-.5q.934,2.3,1.948,4.605Zm395.233-5.87q-1.662-1.8-3.365-3.6l.85-.9q1.707,1.8,3.375,3.609ZM9.038,135.478q-.894-2.384-1.7-4.752l1.131-.428q.8,2.351,1.686,4.716ZM401.292,131.8q-1.709-1.757-3.454-3.5l.828-.918q1.749,1.753,3.464,3.513ZM5.783,125.918c-.5-1.63-.968-3.266-1.4-4.863l1.156-.345c.427,1.582.893,3.2,1.386,4.82Zm388.559-1.08q-1.751-1.709-3.539-3.409l.805-.94q1.794,1.707,3.549,3.42Zm-7.113-6.771q-1.792-1.663-3.616-3.318l.784-.961q1.828,1.658,3.625,3.328ZM3.155,116.142c-.382-1.656-.736-3.325-1.048-4.961l1.178-.251c.31,1.621.659,3.273,1.038,4.913Zm376.8-4.664q-1.83-1.618-3.689-3.227l.762-.98q1.864,1.612,3.7,3.235Zm-378.707-5.3C1,104.492.781,102.8.606,101.137L1.8,101c.174,1.64.388,3.317.638,4.983Zm371.3-1.109q-1.864-1.574-3.757-3.138l.742-1q1.9,1.566,3.767,3.147ZM365,98.837q-1.9-1.532-3.822-3.05l.72-1.015q1.929,1.525,3.832,3.059ZM.184,96.071c-.1-1.7-.165-3.414-.184-5.086l1.2-.015c.019,1.65.079,3.339.182,5.02Zm357.144-3.29q-1.931-1.486-3.885-2.962l.7-1.032q1.96,1.479,3.894,2.971Zm-7.8-5.881q-1.956-1.445-3.94-2.877l.679-1.046q1.989,1.437,3.952,2.884ZM1.271,85.945l-1.2-.053c.067-1.7.182-3.41.339-5.082l1.2.125C1.45,82.583,1.337,84.268,1.271,85.945ZM341.619,81.19q-1.985-1.4-4-2.789l.659-1.061q2.016,1.391,4.008,2.8ZM2.215,75.956l-1.186-.2c.255-1.68.563-3.366.912-5.007l1.173.279C2.769,72.644,2.468,74.3,2.215,75.956Zm331.384-.3q-2.016-1.357-4.051-2.7l.64-1.075q2.041,1.348,4.059,2.712Zm-8.124-5.364q-2.039-1.315-4.1-2.618l.616-1.087q2.068,1.306,4.11,2.625ZM4.307,66.172l-1.153-.357c.454-1.631.964-3.262,1.515-4.845l1.129.437C5.255,62.964,4.754,64.566,4.307,66.172ZM317.25,65.094q-2.063-1.276-4.147-2.533l.6-1.1q2.091,1.262,4.159,2.541Zm-8.319-5.024q-2.088-1.232-4.195-2.448l.577-1.111q2.113,1.219,4.2,2.453ZM7.586,56.758l-1.1-.516c.653-1.547,1.364-3.091,2.115-4.588l.09-.184,1.063.594-.089.177C8.928,53.718,8.229,55.236,7.586,56.758Zm292.942-1.537q-1.118-.629-2.239-1.255l-2-1.106.555-1.124,2,1.11q1.125.625,2.245,1.257Zm-8.5-4.683q-2.14-1.15-4.28-2.276l.535-1.133q2.147,1.125,4.292,2.281Zm-279.9-2.817-1.021-.668c.843-1.432,1.747-2.856,2.686-4.235l.976.739C13.848,44.913,12.959,46.313,12.129,47.721Zm271.32-1.691q-2.16-1.108-4.322-2.189l.517-1.146q2.164,1.084,4.331,2.194ZM274.788,41.7q-2.18-1.063-4.359-2.1l.493-1.156q2.185,1.038,4.372,2.1ZM17.673,39.584l-.928-.806c1.017-1.3,2.093-2.589,3.195-3.83l.877.867C19.732,37.035,18.674,38.3,17.673,39.584Zm248.372-2.035q-2.2-1.019-4.4-2.007l.472-1.166q2.2.992,4.411,2.011Zm-8.816-3.967q-2.219-.971-4.437-1.912l.448-1.175q2.223.945,4.448,1.916ZM24.18,32.265l-.825-.923c1.155-1.147,2.372-2.284,3.617-3.379l.77.973C26.517,30.017,25.317,31.136,24.18,32.265Zm224.156-2.46q-2.239-.922-4.474-1.816l.427-1.185q2.239.9,4.483,1.82Zm-8.964-3.583q-2.255-.873-4.507-1.716l.4-1.194q2.257.844,4.521,1.721ZM31.486,25.834l-.716-1.018c1.273-1,2.6-1.978,3.954-2.921l.664,1.057C34.054,23.882,32.741,24.852,31.486,25.834Zm198.853-2.991q-2.274-.823-4.541-1.613l.378-1.2q2.274.795,4.554,1.618ZM39.428,20.288,38.817,19.2c1.365-.849,2.783-1.684,4.215-2.48l.561,1.12C42.177,18.624,40.776,19.449,39.428,20.288Zm181.81-.62q-2.292-.77-4.575-1.507l.352-1.212q2.29.739,4.587,1.511Zm-9.164-2.96q-2.308-.715-4.606-1.4l.326-1.22q2.3.682,4.619,1.4ZM47.862,15.593l-.512-1.146c1.431-.712,2.913-1.407,4.406-2.068l.465,1.168C50.745,14.2,49.279,14.889,47.862,15.593Zm154.987-1.622q-2.322-.66-4.635-1.284l.3-1.228q2.319.627,4.649,1.288ZM56.66,11.691,56.238,10.5c1.488-.587,3.017-1.156,4.546-1.692l.379,1.2C59.648,10.546,58.132,11.11,56.66,11.691Zm136.9-.228q-2.338-.6-4.664-1.163l.271-1.236q2.331.566,4.677,1.167ZM184.225,9.2q-2.353-.538-4.689-1.039l.239-1.242q2.344.5,4.7,1.042Zm-118.5-.683L65.384,7.3q2.292-.709,4.646-1.35l.3,1.228Q68,7.81,65.723,8.514ZM174.834,7.183q-2.364-.473-4.713-.909l.208-1.248q2.356.437,4.73.912ZM74.977,5.993l-.264-1.236q2.329-.553,4.714-1.042l.23,1.244Q77.289,5.445,74.977,5.993ZM165.4,5.434q-2.376-.4-4.735-.771l.174-1.253q2.367.367,4.751.773ZM84.362,4.068l-.2-1.25q2.355-.413,4.76-.763l.165,1.255Q86.7,3.66,84.362,4.068Zm71.555-.1q-2.387-.333-4.754-.625l.139-1.258q2.375.293,4.772.627ZM146.4,2.794q-2.4-.257-4.769-.469l.1-1.263q2.382.215,4.788.471ZM93.838,2.682,93.7,1.423q2.371-.283,4.787-.511L98.6,2.175Q96.2,2.4,93.838,2.682Zm43.019-.743q-2.4-.173-4.78-.3l.062-1.266q2.385.129,4.8.3ZM103.37,1.786,103.291.521q2.382-.165,4.8-.279l.053,1.266Q105.741,1.62,103.37,1.786Zm23.923-.365q-2.409-.084-4.787-.123L122.525.03q2.389.038,4.808.124Zm-14.36-.085L112.9.068Q115.293.01,117.714,0l0,1.267Q115.311,1.277,112.933,1.336Z" transform="translate(0 0)" fill="#06b1d4"/></g><g transform="matrix(-0.391, 0.921, -0.921, -0.391, 496.555, 205.512)"><path d="M342.767,345.074q-1.823,0-3.665-.028l.019-1.226q1.833.028,3.647.028l1,0,0,1.226Zm5.669-.071-.027-1.226q2.335-.059,4.64-.166l.052,1.224Q350.786,344.944,348.436,345Zm-14-.076q-2.316-.081-4.662-.208l.06-1.224q2.335.125,4.642.206Zm23.328-.365-.077-1.224q2.334-.164,4.628-.38l.1,1.221Q360.111,344.4,357.763,344.562Zm-32.649-.134q-2.314-.166-4.652-.375l.1-1.221q2.328.208,4.633.373Zm41.952-.743-.133-1.219q2.325-.276,4.607-.611l.16,1.214Q369.4,343.406,367.066,343.685Zm-51.25-.086q-2.309-.245-4.638-.53l.134-1.219q2.321.285,4.621.53Zm-9.267-1.133q-2.3-.322-4.62-.678l.169-1.214q2.311.357,4.6.676Zm69.769-.136-.191-1.21q2.309-.4,4.567-.866l.224,1.205Q378.642,341.923,376.318,342.33Zm-79-1.29q-2.295-.388-4.6-.814l.2-1.208q2.3.425,4.586.813Zm88.168-.592-.256-1.194q2.281-.543,4.508-1.149l.292,1.188Q387.789,339.9,385.488,340.448Zm-97.359-1.1q-2.281-.452-4.577-.944l.232-1.2q2.29.491,4.562.943Zm106.41-1.362-.329-1.176c1.507-.467,2.994-.958,4.421-1.459l.369,1.165C397.56,337.018,396.059,337.512,394.539,337.983Zm-115.551-.592q-2.271-.515-4.553-1.068l.261-1.194q2.276.55,4.538,1.066ZM269.9,335.2q-2.257-.576-4.525-1.186l.289-1.188q2.262.607,4.512,1.185Zm133.514-.322L403,333.726c1.445-.57,2.894-1.176,4.3-1.8l.454,1.131C406.33,333.687,404.869,334.3,403.41,334.874Zm-142.548-2.109q-2.244-.635-4.5-1.3l.314-1.181q2.248.666,4.485,1.3Zm151.169-1.714-.5-1.108c1.406-.7,2.8-1.43,4.141-2.175l.545,1.084C414.86,329.606,413.451,330.345,412.031,331.051Zm-160.147-.939q-2.229-.688-4.468-1.409l.342-1.173q2.231.719,4.454,1.406Zm-8.919-2.872q-2.215-.741-4.435-1.513l.365-1.165q2.216.769,4.423,1.509Zm177.341-.791-.595-1.057c1.339-.833,2.657-1.7,3.918-2.58l.645,1.023C423,324.725,421.661,325.605,420.306,326.449Zm-186.2-2.288q-2.2-.789-4.4-1.612l.39-1.156q2.2.82,4.391,1.61Zm194-3.159-.7-.985c1.245-.974,2.466-1.985,3.628-3.008l.749.942C430.61,318.989,429.371,320.014,428.108,321Zm-202.787-.117q-2.181-.844-4.37-1.713l.414-1.148q2.181.87,4.357,1.709Zm-8.721-3.475q-2.164-.89-4.334-1.806l.435-1.138q2.164.914,4.323,1.8Zm218.692-2.733-.8-.891c1.115-1.107,2.211-2.265,3.258-3.439l.851.837C437.539,312.378,436.427,313.553,435.292,314.677Zm-227.341-.927q-2.148-.938-4.3-1.9l.457-1.128q2.145.962,4.287,1.9Zm-8.577-3.845q-2.131-.982-4.261-1.99l.478-1.118q2.125,1.006,4.251,1.985Zm242.326-2.43-.9-.779c.979-1.252,1.925-2.547,2.811-3.848l.948.714C443.654,304.886,442.693,306.2,441.7,307.475Zm-250.83-1.594q-2.11-1.028-4.222-2.078l.5-1.11q2.106,1.052,4.212,2.075Zm-8.425-4.2q-2.09-1.069-4.183-2.164l.52-1.1q2.087,1.093,4.173,2.158Zm264.713-2.218-.99-.647c.8-1.365,1.577-2.78,2.3-4.206l1.03.574C448.762,296.633,447.976,298.072,447.157,299.462ZM174.1,297.308q-2.073-1.113-4.144-2.248l.54-1.088q2.066,1.133,4.133,2.243Zm-8.265-4.538q-2.059-1.157-4.1-2.331l.561-1.075q2.033,1.17,4.085,2.324Zm285.717-2.024-1.063-.5c.627-1.478,1.213-2.989,1.739-4.5l1.1.424C452.785,287.705,452.191,289.244,451.551,290.746Zm-293.892-2.677q-2.04-1.2-4.057-2.417l.58-1.063q2.012,1.212,4.047,2.409Zm-8.094-4.873q-2.015-1.243-4.012-2.5l.6-1.051q1.991,1.251,4,2.49ZM454.8,281.49l-1.119-.347c.431-1.539.823-3.119,1.163-4.7l1.137.271C455.637,278.32,455.239,279.926,454.8,281.49ZM141.565,278.16q-1.992-1.286-3.964-2.581l.619-1.039q1.966,1.293,3.955,2.573Zm-7.9-5.2q-1.968-1.324-3.914-2.662l.638-1.026q1.942,1.333,3.9,2.657Zm323.209-1.084-1.15-.2c.242-1.578.443-3.2.6-4.816l1.159.121C457.321,268.626,457.117,270.271,456.87,271.874Zm-331.012-4.285q-1.943-1.368-3.862-2.748l.659-1.013q1.914,1.376,3.852,2.741Zm331.954-5.523-1.166-.053c.052-1.264.078-2.552.078-3.829l0-1.032,1.166-.012,0,1.045C457.891,259.478,457.865,260.785,457.813,262.066Zm-339.651-.012q-1.915-1.411-3.806-2.832l.679-1q1.886,1.418,3.8,2.825Zm-7.585-5.707q-1.887-1.449-3.748-2.915l.7-.982q1.856,1.46,3.739,2.907Zm345.972-4.053c-.1-1.606-.23-3.236-.4-4.843l1.159-.137c.174,1.63.31,3.279.407,4.9Zm-353.439-1.818q-1.858-1.5-3.688-3l.718-.965q1.825,1.5,3.678,2.994Zm-7.345-6.045q-1.826-1.539-3.623-3.088l.739-.948q1.793,1.545,3.613,3.078Zm359.767-1.8c-.239-1.6-.514-3.213-.817-4.791l1.143-.242c.307,1.593.584,3.224.827,4.841ZM88.553,238.213Q86.76,236.629,85,235.038l.759-.929q1.758,1.585,3.545,3.165Zm365.16-5.129c-.358-1.55-.755-3.135-1.179-4.712l1.123-.332c.427,1.592.828,3.191,1.189,4.755ZM81.48,231.821q-1.758-1.628-3.482-3.263l.781-.911q1.72,1.63,3.472,3.254Zm-6.925-6.571q-1.72-1.672-3.405-3.352l.8-.889q1.679,1.674,3.393,3.341Zm376.639-1.54q-.7-2.3-1.493-4.615l1.1-.414c.533,1.563,1.04,3.13,1.5,4.655ZM67.787,218.5q-1.679-1.72-3.321-3.444l.825-.867q1.636,1.718,3.31,3.433Zm380.279-3.97q-.845-2.251-1.767-4.511l1.073-.483q.929,2.279,1.777,4.544ZM61.189,211.565q-1.635-1.768-3.232-3.539l.848-.842q1.59,1.766,3.22,3.527Zm383.224-6q-.966-2.2-2-4.4l1.046-.544q1.044,2.222,2.016,4.433ZM54.775,204.442q-1.588-1.815-3.135-3.634l.87-.817q1.539,1.812,3.123,3.62Zm-6.217-7.314q-1.538-1.865-3.03-3.732l.892-.788q1.487,1.861,3.018,3.715Zm391.741-.313q-1.072-2.143-2.211-4.292l1.018-.6q1.146,2.161,2.225,4.319Zm-397.745-7.2q-1.48-1.915-2.914-3.831l.917-.758q1.427,1.907,2.9,3.815Zm393.227-1.327q-1.169-2.088-2.4-4.181l.991-.645q1.238,2.1,2.41,4.206ZM36.787,181.9q-1.421-1.968-2.79-3.936l.942-.723q1.361,1.959,2.776,3.916ZM430.9,179.976q-1.252-2.036-2.561-4.075l.967-.685q1.316,2.047,2.574,4.094Zm-399.629-6q-1.351-2.021-2.65-4.041l.967-.685q1.291,2.01,2.638,4.022Zm394.433-2.1q-1.328-1.986-2.708-3.97l.941-.723q1.387,1.994,2.721,3.989ZM26.052,165.845q-1.277-2.075-2.495-4.149l.991-.644q1.212,2.062,2.483,4.127Zm394.175-1.853q-1.4-1.935-2.841-3.867l.918-.758q1.449,1.94,2.852,3.883Zm-399.081-6.5q-1.193-2.132-2.321-4.26l1.018-.6q1.121,2.115,2.308,4.235Zm393.34-1.183q-1.459-1.885-2.961-3.767l.892-.79q1.511,1.891,2.973,3.783ZM16.6,148.916q-1.1-2.191-2.126-4.374L15.516,144q1.022,2.169,2.113,4.344Zm391.911-.092q-1.515-1.837-3.072-3.67l.87-.818q1.564,1.839,3.083,3.683Zm-6.194-7.291q-1.564-1.788-3.171-3.574l.848-.841q1.611,1.79,3.181,3.587Zm-389.862-1.42q-.99-2.249-1.9-4.487l1.072-.484q.906,2.222,1.89,4.456Zm383.473-5.68q-1.613-1.742-3.264-3.48l.825-.867q1.657,1.744,3.275,3.492ZM8.769,131.084q-.868-2.306-1.65-4.6l1.1-.414q.777,2.275,1.636,4.563Zm380.583-3.563q-1.658-1.7-3.351-3.389l.8-.888q1.7,1.7,3.361,3.4ZM5.611,121.833c-.483-1.577-.939-3.16-1.356-4.7l1.122-.334c.414,1.53.866,3.1,1.345,4.663Zm377-1.045q-1.7-1.653-3.433-3.3l.781-.91q1.741,1.652,3.444,3.309Zm-6.9-6.551q-1.739-1.609-3.508-3.21l.76-.929q1.774,1.6,3.517,3.22ZM3.061,112.375c-.371-1.6-.714-3.218-1.017-4.8l1.143-.243c.3,1.568.639,3.167,1.008,4.754Zm365.592-4.512q-1.775-1.565-3.579-3.122l.739-.948q1.809,1.56,3.588,3.13ZM1.215,102.733C.969,101.1.758,99.462.588,97.857l1.159-.136c.169,1.587.377,3.209.619,4.821Zm360.249-1.073q-1.809-1.523-3.646-3.036l.719-.965q1.842,1.516,3.655,3.045Zm-7.323-6.029q-1.842-1.482-3.709-2.951l.7-.982q1.872,1.475,3.718,2.96ZM.178,92.954c-.1-1.648-.16-3.3-.178-4.921l1.166-.015c.019,1.6.077,3.231.176,4.857ZM346.7,89.771q-1.874-1.438-3.769-2.866l.679-1q1.9,1.431,3.779,2.874ZM339.13,84.08q-1.9-1.4-3.823-2.783l.659-1.012q1.93,1.39,3.835,2.791Zm-337.9-.923L.068,83.106c.065-1.644.176-3.3.329-4.917l1.16.121C1.406,79.9,1.3,81.535,1.233,83.157Zm330.221-4.6q-1.926-1.356-3.879-2.7l.639-1.026q1.956,1.346,3.889,2.706ZM2.149,73.492,1,73.3c.247-1.626.546-3.257.885-4.845l1.138.27C2.687,70.287,2.394,71.891,2.149,73.492ZM323.673,73.2q-1.956-1.313-3.93-2.615l.621-1.04q1.98,1.3,3.938,2.624Zm-7.882-5.19q-1.979-1.273-3.978-2.533l.6-1.052q2.007,1.264,3.987,2.539ZM4.178,64.025,3.06,63.679C3.5,62.1,4,60.523,4.53,58.992l1.1.423C5.1,60.922,4.612,62.471,4.178,64.025ZM307.81,62.983q-2-1.234-4.023-2.451l.579-1.064q2.029,1.221,4.035,2.459Zm-8.071-4.861q-2.026-1.192-4.07-2.369l.56-1.075q2.05,1.179,4.079,2.374ZM7.36,54.917l-1.065-.5c.633-1.5,1.324-2.991,2.052-4.439l.087-.178,1.031.575-.086.172C8.663,51.975,7.984,53.444,7.36,54.917ZM291.584,53.43q-1.085-.609-2.173-1.214l-1.939-1.07.539-1.088,1.944,1.074q1.091.605,2.178,1.216ZM283.339,48.9q-2.077-1.113-4.153-2.2l.519-1.1q2.084,1.089,4.165,2.207ZM11.768,46.173l-.99-.646c.818-1.386,1.695-2.764,2.607-4.1l.947.715C13.436,43.456,12.573,44.811,11.768,46.173Zm263.247-1.636q-2.1-1.072-4.194-2.118l.5-1.108q2.1,1.048,4.2,2.123Zm-8.4-4.192q-2.115-1.028-4.23-2.029l.478-1.118q2.12,1,4.242,2.035ZM17.147,38.3l-.9-.78c.987-1.259,2.03-2.505,3.1-3.706l.851.839C19.144,35.834,18.118,37.061,17.147,38.3Zm240.981-1.969q-2.132-.986-4.268-1.942l.458-1.128q2.138.96,4.28,1.946Zm-8.554-3.838q-2.153-.94-4.3-1.85l.435-1.137q2.157.914,4.316,1.854ZM23.461,31.219l-.8-.893c1.121-1.11,2.3-2.21,3.509-3.269l.747.942C25.728,29.043,24.564,30.126,23.461,31.219Zm217.486-2.38q-2.173-.892-4.341-1.757l.414-1.146q2.173.868,4.35,1.761Zm-8.7-3.466q-2.188-.844-4.373-1.66l.389-1.155q2.19.817,4.386,1.665ZM30.549,25l-.7-.985c1.235-.964,2.526-1.914,3.837-2.826l.644,1.023C33.041,23.107,31.766,24.045,30.549,25ZM223.485,22.1q-2.206-.8-4.406-1.561l.366-1.165q2.206.769,4.419,1.566ZM38.255,19.63l-.593-1.056c1.325-.822,2.7-1.63,4.09-2.4l.545,1.084C40.922,18.02,39.563,18.818,38.255,19.63Zm176.4-.6q-2.223-.745-4.439-1.458l.342-1.172q2.222.715,4.45,1.462Zm-8.891-2.864q-2.239-.692-4.469-1.351l.316-1.181q2.236.66,4.482,1.356ZM46.437,15.087l-.5-1.108c1.389-.689,2.827-1.361,4.275-2l.451,1.131C49.235,13.741,47.812,14.406,46.437,15.087Zm150.375-1.57q-2.253-.638-4.5-1.242l.289-1.188q2.25.607,4.511,1.246ZM54.974,11.312l-.409-1.148c1.444-.568,2.927-1.118,4.411-1.637l.367,1.164C57.873,10.2,56.4,10.75,54.974,11.312Zm132.83-.221q-2.269-.579-4.525-1.126l.262-1.2q2.262.548,4.538,1.129ZM178.743,8.9q-2.283-.521-4.549-1.005l.232-1.2q2.274.486,4.565,1.008ZM63.767,8.237,63.438,7.06q2.223-.686,4.507-1.306l.291,1.188Q65.972,7.557,63.767,8.237ZM169.631,6.95q-2.293-.458-4.573-.879l.2-1.208q2.286.423,4.589.883ZM72.746,5.8l-.257-1.2q2.26-.535,4.574-1.008l.223,1.2Q74.989,5.268,72.746,5.8Zm87.728-.541q-2.306-.392-4.594-.746L156.05,3.3q2.3.355,4.61.748ZM81.852,3.936l-.19-1.209q2.285-.4,4.618-.738L86.44,3.2Q84.122,3.541,81.852,3.936Zm69.426-.1q-2.316-.322-4.612-.6l.135-1.218q2.3.283,4.63.607ZM142.046,2.7q-2.325-.248-4.628-.454l.1-1.223q2.311.208,4.645.456Zm-51-.109-.131-1.218q2.3-.274,4.645-.494l.1,1.221Q93.334,2.323,91.046,2.595Zm41.739-.719q-2.332-.167-4.638-.292l.061-1.225q2.314.125,4.657.293Zm-32.491-.148L100.217.5q2.311-.16,4.661-.27l.051,1.225Q102.595,1.568,100.294,1.728Zm23.211-.353q-2.337-.081-4.645-.119l.019-1.226q2.318.037,4.665.12Zm-13.933-.082L109.545.066Q111.862.009,114.212,0l0,1.226Q111.879,1.235,109.573,1.292Z" transform="translate(0 0)" fill="#06b1d4"/></g><g transform="translate(128.73 41.519)"><g transform="translate(0 4.235)"><path d="M1689.648,637.842c-9.707.451-17.629-8.843-17.629-20.763V477.058l25.876.237a4.847,4.847,0,0,0,3.858-2.036l1.065-1.385-65.625-87.428v125.2a2.2,2.2,0,0,1-1.987,2.374h0a2.041,2.041,0,0,1-1.823-1.441c-1.849-4.916-6.063-8.31-10.925-8.084-5.94.276-10.76,6.067-10.946,13.171-.2,7.772,5.029,14.137,11.483,14.123,4.632-.01,8.606-3.306,10.387-8.029a2.029,2.029,0,0,1,1.825-1.434h0a2.216,2.216,0,0,1,1.987,2.386V629.675c0,24.741,16.609,51.308,36.813,50.05l81.478-39.751-.885-1.7a5.459,5.459,0,0,0-4.972-3.224Z" transform="translate(-1510.563 -386.446)" fill="url(#a)"/><path d="M545.97,1077.24c10.446-.485,18.854-10.8,18.854-23.042V910.838l-26.706-.245c-1.384-.013-2.087-2.1-1.131-3.352L561.3,875.3l39.289,96.585c0,26.467.889,27.518,1.984,27.5h0a2.067,2.067,0,0,0,1.815-1.461c1.835-4.918,6-8.321,10.772-8.127,5.783.236,10.439,5.888,10.618,12.854.2,7.619-4.856,14-11.143,14.152-4.549.112-8.478-3.065-10.246-7.73a1.97,1.97,0,0,0-1.816-1.394h0a2.268,2.268,0,0,0-1.984,2.425V1064.1c0,24.74-103.048,63.991-124.094,65.3l-1.535-2.941a10.149,10.149,0,0,1-1.11-4.67v-36.073c0-2.86,1.8-5.207,4.08-5.313Z" transform="translate(-473.852 -820.873)" fill="url(#b)"/><path d="M1633.381,1382.905a2.029,2.029,0,0,1,1.825-1.434,2.216,2.216,0,0,1,1.987,2.386v23.417a29.007,29.007,0,0,0,4.014-5.52c4.976-8.812,6.482-20.373,4.641-30.691a36.16,36.16,0,0,0-5.4-13.97,24.5,24.5,0,0,0-3.252-3.857v17.555a2.2,2.2,0,0,1-1.987,2.374h0a2.041,2.041,0,0,1-1.823-1.441c-1.849-4.916-6.063-8.309-10.925-8.084-5.94.276-10.76,6.067-10.946,13.171-.2,7.772,5.029,14.137,11.483,14.124C1627.626,1390.924,1631.6,1387.628,1633.381,1382.905Z" transform="translate(-1510.563 -1245.589)" fill="url(#c)"/></g><g transform="translate(2.645)"><path d="M1719.461,609.112c-9.707.451-17.629-8.844-17.629-20.763V439.816l28.153.258-62.979-91.663V474.407a2.2,2.2,0,0,1-1.987,2.374h0a2.041,2.041,0,0,1-1.823-1.441c-1.849-4.916-6.063-8.31-10.925-8.084-5.94.276-10.76,6.067-10.946,13.171-.2,7.772,5.028,14.137,11.482,14.124,4.632-.01,8.606-3.306,10.387-8.029a2.029,2.029,0,0,1,1.824-1.434h0a2.216,2.216,0,0,1,1.987,2.386V600.944c0,24.741,16.61,51.308,36.813,50.049l78.832-4.91V606.175Z" transform="translate(-1540.376 -348.412)" fill="url(#d)"/><path d="M575.783,614.121c10.446-.485,18.854-10.8,18.854-23.042V439.208l-30.363-.279,66.13-90.474V533.921a2.164,2.164,0,0,0,1.984,2.347h0a2.067,2.067,0,0,0,1.815-1.461c1.835-4.918,6-8.321,10.772-8.127,5.783.236,10.439,5.888,10.618,12.854.2,7.619-4.856,14-11.143,14.152-4.55.112-8.478-3.065-10.246-7.73a1.969,1.969,0,0,0-1.817-1.394h0a2.268,2.268,0,0,0-1.984,2.425v53.991c0,24.74-16.82,53.388-37.866,54.7l-88.873,5.535v-43.74Z" transform="translate(-503.665 -348.45)" fill="url(#e)"/><path d="M1667.72,1144.969a1.94,1.94,0,0,1-1.565.846h0a2.139,2.139,0,0,1-1.91-1.51c-1.937-5.152-6.354-8.708-11.448-8.471-6.224.289-11.276,6.358-11.47,13.8-.213,8.144,5.269,14.815,12.033,14.8,4.854-.01,9.018-3.465,10.884-8.413a2.126,2.126,0,0,1,1.912-1.5,1.954,1.954,0,0,1,1.565.855Z" transform="translate(-1540.377 -1048.148)" fill="url(#f)"/></g></g><g transform="translate(241.258 206.92)"><g transform="translate(0 6.882)" opacity="0.4"><ellipse cx="22.467" cy="22.467" rx="22.467" ry="22.467" fill="#3a3a5b"/><g transform="translate(12.811 6.341)"><path d="M950.409,779.349a3.487,3.487,0,0,0-.177-1.217,2.55,2.55,0,0,0-.622-.961,4.823,4.823,0,0,0-1.129-.8,12.728,12.728,0,0,0-1.7-.73,33.487,33.487,0,0,1-3.126-1.318,10.523,10.523,0,0,1-2.4-1.571,6.2,6.2,0,0,1-1.534-2.058,7,7,0,0,1,.016-5.32,5.876,5.876,0,0,1,1.443-1.982,7.356,7.356,0,0,1,2.22-1.356,9.817,9.817,0,0,1,2.882-.639l.051-3.513,2.828.041-.052,3.562a8.781,8.781,0,0,1,2.745.845,6.637,6.637,0,0,1,3.381,3.916,8.846,8.846,0,0,1,.425,2.97l-5.107-.074a4.3,4.3,0,0,0-.832-2.959,2.992,2.992,0,0,0-2.328-1.011,3.8,3.8,0,0,0-1.373.2,2.576,2.576,0,0,0-.954.594,2.394,2.394,0,0,0-.561.9,3.511,3.511,0,0,0-.193,1.13,3.218,3.218,0,0,0,.161,1.1,2.391,2.391,0,0,0,.6.92,4.835,4.835,0,0,0,1.137.8,16.428,16.428,0,0,0,1.765.789q1.7.665,3.1,1.359a10.657,10.657,0,0,1,2.39,1.586,5.986,5.986,0,0,1,2.051,4.832,6.385,6.385,0,0,1-.541,2.586,5.808,5.808,0,0,1-1.451,1.966,7.091,7.091,0,0,1-2.238,1.314,10.558,10.558,0,0,1-2.9.614l-.048,3.267-2.81-.041.048-3.25a11.835,11.835,0,0,1-2.827-.681,7.524,7.524,0,0,1-2.409-1.455,6.72,6.72,0,0,1-1.662-2.364,8.194,8.194,0,0,1-.587-3.391l5.108.074a5.036,5.036,0,0,0,.3,1.95,3.254,3.254,0,0,0,.856,1.26,3.158,3.158,0,0,0,1.237.675,5.4,5.4,0,0,0,1.42.209,4.522,4.522,0,0,0,1.461-.192,3.026,3.026,0,0,0,1.06-.576,2.408,2.408,0,0,0,.649-.885A2.939,2.939,0,0,0,950.409,779.349Z" transform="translate(-938.09 -757.879)" fill="#3a3a5b"/></g></g><g transform="translate(5.965 0)"><ellipse cx="22.467" cy="22.467" rx="22.467" ry="22.467" fill="#fcba64"/><g transform="translate(12.811 6.341)"><path d="M963.409,764.349a3.489,3.489,0,0,0-.177-1.217,2.553,2.553,0,0,0-.622-.961,4.826,4.826,0,0,0-1.129-.8,12.732,12.732,0,0,0-1.7-.73,33.48,33.48,0,0,1-3.126-1.318,10.532,10.532,0,0,1-2.4-1.571,6.2,6.2,0,0,1-1.534-2.058,7,7,0,0,1,.016-5.32,5.875,5.875,0,0,1,1.443-1.982,7.355,7.355,0,0,1,2.22-1.356,9.8,9.8,0,0,1,2.882-.639l.051-3.513,2.828.041-.052,3.562a8.781,8.781,0,0,1,2.745.845,6.637,6.637,0,0,1,3.381,3.916,8.848,8.848,0,0,1,.425,2.97l-5.107-.074a4.305,4.305,0,0,0-.832-2.959,2.992,2.992,0,0,0-2.328-1.011,3.8,3.8,0,0,0-1.373.2,2.575,2.575,0,0,0-.954.594,2.394,2.394,0,0,0-.561.9,3.507,3.507,0,0,0-.193,1.13,3.219,3.219,0,0,0,.161,1.1,2.393,2.393,0,0,0,.6.92,4.836,4.836,0,0,0,1.137.8,16.414,16.414,0,0,0,1.765.789q1.7.665,3.1,1.359a10.651,10.651,0,0,1,2.39,1.586,5.985,5.985,0,0,1,2.051,4.832,6.386,6.386,0,0,1-.541,2.586,5.808,5.808,0,0,1-1.451,1.966,7.09,7.09,0,0,1-2.238,1.314,10.556,10.556,0,0,1-2.9.614l-.048,3.267-2.81-.041.048-3.25a11.835,11.835,0,0,1-2.827-.681,7.519,7.519,0,0,1-2.409-1.455,6.72,6.72,0,0,1-1.662-2.364,8.2,8.2,0,0,1-.587-3.391l5.108.074a5.037,5.037,0,0,0,.3,1.95,3.255,3.255,0,0,0,.856,1.26,3.158,3.158,0,0,0,1.236.675,5.4,5.4,0,0,0,1.42.209,4.519,4.519,0,0,0,1.461-.192,3.024,3.024,0,0,0,1.06-.576,2.406,2.406,0,0,0,.649-.885A2.935,2.935,0,0,0,963.409,764.349Z" transform="translate(-951.09 -742.879)" fill="#3a3a5b"/></g></g></g><g transform="translate(223.958 123.491)"><g transform="translate(0 6.238)" opacity="0.4"><ellipse cx="20.364" cy="20.364" rx="20.364" ry="20.364" fill="#3a3a5b"/><g transform="translate(11.612 5.748)"><path d="M949.256,777.34a3.161,3.161,0,0,0-.16-1.1,2.312,2.312,0,0,0-.564-.871,4.369,4.369,0,0,0-1.023-.729,11.536,11.536,0,0,0-1.537-.662,30.351,30.351,0,0,1-2.834-1.195,9.543,9.543,0,0,1-2.175-1.424,5.616,5.616,0,0,1-1.391-1.865,6.342,6.342,0,0,1,.014-4.822,5.328,5.328,0,0,1,1.308-1.8,6.669,6.669,0,0,1,2.012-1.229,8.9,8.9,0,0,1,2.612-.579l.046-3.184,2.563.037-.047,3.229a7.958,7.958,0,0,1,2.488.766,6.016,6.016,0,0,1,3.065,3.549,8.018,8.018,0,0,1,.385,2.692l-4.629-.067a3.9,3.9,0,0,0-.754-2.682,2.712,2.712,0,0,0-2.11-.916,3.443,3.443,0,0,0-1.244.183,2.334,2.334,0,0,0-.865.538,2.169,2.169,0,0,0-.508.818,3.179,3.179,0,0,0-.175,1.024,2.918,2.918,0,0,0,.146,1,2.171,2.171,0,0,0,.541.834,4.388,4.388,0,0,0,1.031.729,14.9,14.9,0,0,0,1.6.715q1.545.6,2.81,1.231A9.657,9.657,0,0,1,952.027,773a5.425,5.425,0,0,1,1.859,4.38,5.785,5.785,0,0,1-.491,2.344,5.266,5.266,0,0,1-1.315,1.782,6.426,6.426,0,0,1-2.028,1.191,9.564,9.564,0,0,1-2.628.557l-.043,2.961-2.547-.037.043-2.946a10.725,10.725,0,0,1-2.563-.618,6.817,6.817,0,0,1-2.184-1.319,6.092,6.092,0,0,1-1.507-2.143,7.427,7.427,0,0,1-.532-3.073l4.63.067a4.565,4.565,0,0,0,.271,1.767,2.952,2.952,0,0,0,.776,1.142,2.864,2.864,0,0,0,1.121.612,4.9,4.9,0,0,0,1.287.19,4.1,4.1,0,0,0,1.324-.174,2.742,2.742,0,0,0,.961-.522,2.185,2.185,0,0,0,.589-.8A2.662,2.662,0,0,0,949.256,777.34Z" transform="translate(-938.09 -757.879)" fill="#3a3a5b"/></g></g><g transform="translate(5.407 0)"><ellipse cx="20.364" cy="20.364" rx="20.364" ry="20.364" fill="#fcba64"/><g transform="translate(11.612 5.748)"><path d="M962.256,762.34a3.164,3.164,0,0,0-.16-1.1,2.313,2.313,0,0,0-.564-.871,4.368,4.368,0,0,0-1.023-.729,11.526,11.526,0,0,0-1.537-.662,30.361,30.361,0,0,1-2.834-1.195,9.542,9.542,0,0,1-2.175-1.424,5.617,5.617,0,0,1-1.391-1.865,6.342,6.342,0,0,1,.014-4.822,5.326,5.326,0,0,1,1.308-1.8,6.667,6.667,0,0,1,2.012-1.229,8.878,8.878,0,0,1,2.612-.579l.046-3.185,2.563.037-.047,3.229a7.964,7.964,0,0,1,2.488.766,6.016,6.016,0,0,1,3.065,3.549,8.021,8.021,0,0,1,.385,2.692l-4.629-.068a3.9,3.9,0,0,0-.754-2.682,2.712,2.712,0,0,0-2.11-.916,3.444,3.444,0,0,0-1.244.183,2.335,2.335,0,0,0-.865.538,2.17,2.17,0,0,0-.508.818,3.18,3.18,0,0,0-.175,1.024,2.917,2.917,0,0,0,.146,1,2.169,2.169,0,0,0,.541.834,4.383,4.383,0,0,0,1.031.729,14.912,14.912,0,0,0,1.6.715q1.545.6,2.81,1.231A9.656,9.656,0,0,1,965.027,758a5.426,5.426,0,0,1,1.859,4.38,5.787,5.787,0,0,1-.491,2.344,5.266,5.266,0,0,1-1.315,1.782,6.429,6.429,0,0,1-2.028,1.191,9.565,9.565,0,0,1-2.628.557l-.043,2.961-2.547-.037.043-2.946a10.732,10.732,0,0,1-2.563-.618,6.816,6.816,0,0,1-2.184-1.319,6.09,6.09,0,0,1-1.507-2.143,7.428,7.428,0,0,1-.532-3.073l4.63.067a4.564,4.564,0,0,0,.271,1.768,2.951,2.951,0,0,0,.776,1.142,2.863,2.863,0,0,0,1.121.612,4.9,4.9,0,0,0,1.287.19,4.1,4.1,0,0,0,1.324-.174,2.742,2.742,0,0,0,.961-.522,2.18,2.18,0,0,0,.589-.8A2.661,2.661,0,0,0,962.256,762.34Z" transform="translate(-951.09 -742.879)" fill="#3a3a5b"/></g></g></g><g transform="translate(241.258 18.162)"><g transform="translate(0 4.439)" opacity="0.4"><ellipse cx="14.489" cy="14.489" rx="14.489" ry="14.489" fill="#3a3a5b"/><g transform="translate(8.262 4.089)"><path d="M946.035,771.725a2.25,2.25,0,0,0-.114-.785,1.646,1.646,0,0,0-.4-.62,3.108,3.108,0,0,0-.728-.519,8.194,8.194,0,0,0-1.093-.471,21.6,21.6,0,0,1-2.016-.85,6.792,6.792,0,0,1-1.547-1.013,4,4,0,0,1-.99-1.327,4.512,4.512,0,0,1,.01-3.431,3.79,3.79,0,0,1,.931-1.278,4.748,4.748,0,0,1,1.432-.874,6.327,6.327,0,0,1,1.859-.412l.033-2.265,1.824.027-.034,2.3a5.668,5.668,0,0,1,1.77.545,4.281,4.281,0,0,1,2.18,2.525,5.7,5.7,0,0,1,.274,1.915l-3.294-.048a2.777,2.777,0,0,0-.536-1.909,1.93,1.93,0,0,0-1.5-.652,2.454,2.454,0,0,0-.885.13,1.661,1.661,0,0,0-.615.383,1.545,1.545,0,0,0-.362.582,2.263,2.263,0,0,0-.125.729,2.072,2.072,0,0,0,.1.711,1.543,1.543,0,0,0,.385.593,3.118,3.118,0,0,0,.733.519,10.608,10.608,0,0,0,1.138.509q1.1.429,2,.876a6.875,6.875,0,0,1,1.541,1.023,3.86,3.86,0,0,1,1.323,3.116,4.116,4.116,0,0,1-.349,1.668,3.745,3.745,0,0,1-.936,1.268,4.573,4.573,0,0,1-1.443.848,6.805,6.805,0,0,1-1.87.4l-.031,2.107-1.812-.026.031-2.1a7.626,7.626,0,0,1-1.823-.44,4.848,4.848,0,0,1-1.554-.938,4.333,4.333,0,0,1-1.072-1.525,5.284,5.284,0,0,1-.379-2.187l3.294.048a3.247,3.247,0,0,0,.193,1.258,2.1,2.1,0,0,0,.552.813,2.037,2.037,0,0,0,.8.435,3.48,3.48,0,0,0,.916.135,2.915,2.915,0,0,0,.942-.124,1.95,1.95,0,0,0,.684-.371,1.552,1.552,0,0,0,.419-.571A1.891,1.891,0,0,0,946.035,771.725Z" transform="translate(-938.09 -757.879)" fill="#3a3a5b"/></g></g><g transform="translate(3.847)"><ellipse cx="14.489" cy="14.489" rx="14.489" ry="14.489" fill="#fcba64"/><g transform="translate(8.262 4.089)"><path d="M959.035,756.725a2.249,2.249,0,0,0-.114-.785,1.647,1.647,0,0,0-.4-.62,3.11,3.11,0,0,0-.728-.519,8.2,8.2,0,0,0-1.093-.471,21.6,21.6,0,0,1-2.016-.85,6.794,6.794,0,0,1-1.547-1.013,4,4,0,0,1-.989-1.327,4.513,4.513,0,0,1,.01-3.431,3.79,3.79,0,0,1,.931-1.278,4.745,4.745,0,0,1,1.432-.874,6.316,6.316,0,0,1,1.859-.412l.033-2.266,1.824.027-.034,2.3a5.665,5.665,0,0,1,1.77.545,4.281,4.281,0,0,1,2.181,2.525,5.706,5.706,0,0,1,.274,1.915l-3.294-.048a2.777,2.777,0,0,0-.537-1.909,1.929,1.929,0,0,0-1.5-.652,2.448,2.448,0,0,0-.885.13,1.662,1.662,0,0,0-.616.383,1.546,1.546,0,0,0-.362.582,2.264,2.264,0,0,0-.125.729,2.075,2.075,0,0,0,.1.711,1.54,1.54,0,0,0,.385.593,3.115,3.115,0,0,0,.733.519,10.6,10.6,0,0,0,1.138.509q1.1.429,2,.876a6.874,6.874,0,0,1,1.541,1.023,3.86,3.86,0,0,1,1.323,3.117,4.116,4.116,0,0,1-.349,1.668,3.746,3.746,0,0,1-.936,1.268,4.574,4.574,0,0,1-1.443.847,6.806,6.806,0,0,1-1.87.4l-.031,2.107-1.812-.026.031-2.1a7.636,7.636,0,0,1-1.823-.439,4.849,4.849,0,0,1-1.554-.939,4.334,4.334,0,0,1-1.072-1.525,5.285,5.285,0,0,1-.379-2.187l3.294.048a3.246,3.246,0,0,0,.193,1.258,2.1,2.1,0,0,0,.552.813,2.036,2.036,0,0,0,.8.435,3.477,3.477,0,0,0,.916.135,2.916,2.916,0,0,0,.942-.124,1.953,1.953,0,0,0,.684-.371,1.553,1.553,0,0,0,.419-.571A1.894,1.894,0,0,0,959.035,756.725Z" transform="translate(-951.09 -742.879)" fill="#3a3a5b"/></g></g></g><g transform="translate(226.98 258.736)"><g transform="translate(4.124 65.022)"><path d="M1011.447,558.945,1032,441.357h151.733L1163.18,558.945Z" transform="translate(-911.064 -441.357)" fill="#4a60db"/><path d="M1158.358,553.424H1016.713L1035.5,445.768h141.645Z" transform="translate(-910.402 -440.802)" fill="#292e4a"/><rect width="252.717" height="8.479" transform="translate(0 117.589)" fill="#3747a3"/><rect width="116.094" height="8.479" transform="translate(0 117.589)" fill="#4a60db"/><line x1="252.717" transform="translate(0 117.589)" fill="none" stroke="#3747a3" stroke-miterlimit="10" stroke-width="0.982"/></g><g transform="translate(21.532)"><path d="M1112.9,519.313s1.594,4.409,1.031,6.567-2.252,4.034-2.345,7.224.214,8.818,1.233,9.006.321-4.222,1.233-4.6,4.008,6.483,4.008,6.483h9.194s-3.19-19.8-3.659-23.182S1112.9,519.313,1112.9,519.313Z" transform="translate(-924.521 -366.594)" fill="#f9b989"/><path d="M977.6,472.516s-14.823-1.22-18.576-2.158-13.6,2.158-13.6,2.158l16.506,13.592a27.223,27.223,0,0,1,8.637-3.355,32.585,32.585,0,0,1,7.6-.481Z" transform="translate(-945.421 -372.709)" fill="#f9b989"/><path d="M1030.7,397.973c-.183,3.726-1.184,13.016-.61,17.324s2.828,7.318,7.313,6.622,8.476,18.254,8.476,18.254l9.641,1.441,6.966-10.573-6.516-11.6s4.72-12.8,2.256-20.318-20.3-13.414-26.985-10.963S1030.7,397.973,1030.7,397.973Z" transform="translate(-935.019 -383.097)" fill="#f9b989"/><path d="M1039.525,425.837l11.081,4.383,2.345,5.066v-6.473l8.276-8.725,2.184,4.785L1085.5,512.4h-32.929L1033.3,435.286l5.77-3.8Z" transform="translate(-934.367 -379.01)" fill="#f70"/><path d="M1103.245,546.1H1036l12.574-44.01h51.07Z" transform="translate(-934.027 -368.696)" fill="#fff"/><path d="M1046.755,430.213c3.284,8.959,18.06,71.253,20.335,79.7s3.588,31.709,3.588,31.709-19.513.376-23.923,0,1.407-27.394,1.22-33.586-12.009-38.277-12.009-38.277-22.141,19.326-25.518,19.7-38.277-.938-38.277-.938v-12.2s29.271-1.689,32.461-3.377,22.516-24.016,27.206-29.645S1040.844,430.447,1046.755,430.213Z" transform="translate(-942.056 -377.737)" fill="#6470b5"/><path d="M1024.25,453.089c-2.533.281-5.207,16.324-8.444,20.968a122.166,122.166,0,0,0-6.8,10.847c7.131-4.761,22.328-18.024,22.328-18.024C1029.878,463.5,1026.782,452.807,1024.25,453.089Z" transform="translate(-937.423 -374.86)" fill="#495285"/><path d="M1118.625,533.877h12.768L1126.37,505.7a94.641,94.641,0,0,0-9.89-29.744c-8.357-15.766-21.393-39.328-26.741-43.446-3.526-2.715-19.42-8.725-29.693-8.162,0,0,11.68,71.769,13.369,83.027s8.725,33.492,8.725,33.492h23.6l-5.517-32.3-6.26-30.178L1107.29,496.3Z" transform="translate(-931.003 -378.48)" fill="#6470b5"/><path d="M1091.928,476.367s-8.021-11.117-9.851-17.309-2.814-14.776-1.97-17.168-1.97-3.377-3.237,6.9-1.267,19.42,4.925,29.552,1.829,16.042,6.755,25.049,11.242,12.551,11.242,12.551Z" transform="translate(-928.97 -376.467)" fill="#495285"/><path d="M1023.31,387.573c3.219-7.006,10.924-2.821,19.435-1.815s16.45,2.091,19.207,8.152-.661,18.4-5.292,26.034c0,0-3.74-4.664-3.778-7.874s3.776-5.277,2.193-8.378-3.854-1.142-4.358.192-.8,2.737-1.384,2.035.5-3.573.178-5.965-1.475-5.941-6.823-5.129a35.076,35.076,0,0,1-10.962-.388l-.338,4.039S1019.687,395.46,1023.31,387.573Z" transform="translate(-935.711 -383.6)"/></g><line x2="278.131" transform="translate(0 190.69)" fill="none" stroke="#292e4a" stroke-miterlimit="10" stroke-width="1.022"/></g><g transform="translate(48.483 228.634)"><g transform="translate(13.988 0)"><path d="M15.738,0H210.773A15.737,15.737,0,0,1,226.51,15.737v88.944a15.738,15.738,0,0,1-15.738,15.738H15.737A15.737,15.737,0,0,1,0,104.682V15.738A15.738,15.738,0,0,1,15.738,0Z" transform="translate(120.419 0) rotate(90)" fill="#3747a3"/><path d="M15.738,0H210.773A15.737,15.737,0,0,1,226.51,15.737v88.944a15.738,15.738,0,0,1-15.738,15.738H15.737A15.737,15.737,0,0,1,0,104.682V15.738A15.738,15.738,0,0,1,15.738,0Z" transform="translate(129.808 0) rotate(90)" fill="#4a60db"/><path d="M850.529,389.74h-19.1a2.31,2.31,0,0,0-2.205,1.625l-.883,2.847a3.781,3.781,0,0,1-3.613,2.661H794.174a3.783,3.783,0,0,1-3.613-2.661l-.883-2.847a2.31,2.31,0,0,0-2.205-1.625h-19.1a13.323,13.323,0,0,0-13.323,13.323v188.25a13.322,13.322,0,0,0,13.323,13.322h82.156a13.322,13.322,0,0,0,13.323-13.322V403.063A13.323,13.323,0,0,0,850.529,389.74Z" transform="translate(-739.852 -383.933)" fill="#292e4a"/><path d="M809.937,392.216H793a.919.919,0,0,1-.92-.919h0a.92.92,0,0,1,.92-.92h16.94a.919.919,0,0,1,.919.92h0A.918.918,0,0,1,809.937,392.216Z" transform="translate(-731.868 -383.795)" fill="#292e4a"/><line y2="28.072" transform="translate(4.163 38.139)" fill="none" stroke="#fff" stroke-linecap="round" stroke-linejoin="round" stroke-width="1.447"/><line y2="13.116" transform="translate(4.163 74.971)" fill="none" stroke="#fff" stroke-linecap="round" stroke-linejoin="round" stroke-width="1.447"/></g><g transform="translate(40.912 13.111)"><path d="M839.493,526.9l2.824,48.119H764.7a126.45,126.45,0,0,0,2.012-19.4A45.962,45.962,0,0,1,777.041,526.9Z" transform="translate(-764.696 -367.47)" fill="#fff"/><path d="M807.118,575.019h26.051L830.347,526.9h-9.931Z" transform="translate(-755.549 -367.47)" fill="#d1d1d1"/><path d="M851.721,409.06s-.811,10.941.608,12.865.883,3.14-.419,3.748-1.3,10.739-4.342,11.447-5.672-1.591-6.787,1.636a111.365,111.365,0,0,0-2.533,11.027L819.1,448.465l5.369-14.181s-3.647-10.536-1.216-19.653S851.113,399.943,851.721,409.06Z" transform="translate(-752.965 -393.882)" fill="#f59462"/><path d="M825.322,437.155l32.047,4.516a1.248,1.248,0,0,1,1.035,1.548l-1.881,7.308s1.62,11.347,1.013,19.856-7.5,38.089-9.319,47.206-3.242,31.606-7.9,31.809-58.756,0-68.075,0,4.659-9.523,9.319-17.83S791.893,495.3,799.39,479.3s24.109-33.936,24.516-37.431S823.535,436.9,825.322,437.155Z" transform="translate(-763.745 -386.826)" fill="#6470b5"/><path d="M813.831,464.355c-3.386-4.262-5.286-3.2-3.472,3.94s4.092,13.524,10.778,17.778c6.036,3.841,7.493,26.621,17.332,32.472.336-2.407.663-4.58,1-6.285,1.49-7.454,6.365-28.582,8.427-40.694C847.894,471.566,816.679,467.942,813.831,464.355Z" transform="translate(-755.001 -381.497)" fill="#495285"/><path d="M850.315,471.4s11.548,15.635,15.3,16.732,41.229,4.137,44.471,4.137,10.637,4.559,13.575,5.977,10.637,7.9,6.686,10.231-10.84,2.127-14.791,0-7.193-4.963-10.737-4.963-38.3.881-45.89-1.419c-10.536-3.191-26.886-20.969-29.55-23.3Z" transform="translate(-750.75 -379.437)" fill="#f59462"/><path d="M893.04,500.69c.3-2.306-.152-4.634,3.191-3.418s6.761,4.026,9.421,4.786-.077,3.875-2.2,3.875S892.734,503.016,893.04,500.69Z" transform="translate(-737.024 -373.93)" fill="#f9b989"/><path d="M892.876,490.447s13.752-2.509,17.247-1.939,1.228,2.008-2.735,3.23C898.271,494.55,889.179,492.3,892.876,490.447Z" transform="translate(-737.24 -375.766)" fill="#f9b989"/><path d="M832.328,422.372s-3.647-3.647-4.661,0,3.039,6.686,2.33,8.712-3.748,9.928-5.977,9.522.608-4.862-2.025-8.914-6.078-8.914-3.85-18.031,9.32-6.686,11.751-10.131,4.457-6.888,13.98-5.875,13.777-4.615,17.828-.18,3.445,12.539-6.686,14.767-12.155-.811-14.282,1.62S834.961,422.171,832.328,422.372Z" transform="translate(-753.326 -395.748)" fill="#995417"/><path d="M811.491,465.165l19.855,22.793,25.427-9.826s-11.953-18.033-16.006-22.895-11.142-9.826-17.22-8.813S806.527,458.58,811.491,465.165Z" transform="translate(-754.877 -384.851)" fill="#6470b5"/><path d="M832,450.355s5.5,3.941,12.077,15.066" transform="translate(-750.183 -383.974)" fill="none" stroke="#495285" stroke-miterlimit="10" stroke-width="1"/></g><line x2="144.051" transform="translate(0 226.51)" fill="none" stroke="#292e4a" stroke-miterlimit="10" stroke-width="1.022"/></g><g transform="matrix(1, 0, 0, 1, 0, 0)" filter="url(#g)"><circle cx="34.833" cy="34.833" r="34.833" transform="translate(386.78 142.52)" fill="#b2e5fe"/></g><g transform="matrix(1, 0, 0, 1, 0, 0)" filter="url(#i)"><circle cx="34.833" cy="34.833" r="34.833" transform="translate(386.78 484.04)" fill="#b3e6ff"/></g><g transform="matrix(1, 0, 0, 1, 0, 0)" filter="url(#k)"><circle cx="34.833" cy="34.833" r="34.833" transform="translate(58.14 495.4)" fill="#b1e4fd"/></g><g transform="matrix(1, 0, 0, 1, 0, 0)" filter="url(#m)"><circle cx="34.833" cy="34.833" r="34.833" transform="translate(58.14 128.14)" fill="#b2e5fe"/></g><g transform="matrix(1, 0, 0, 1, 0, 0)" filter="url(#o)"><circle cx="26.882" cy="26.882" r="26.882" transform="translate(64.95 135.71)" fill="#fff"/></g><g transform="matrix(1, 0, 0, 1, 0, 0)" filter="url(#q)"><circle cx="26.882" cy="26.882" r="26.882" transform="translate(395.11 150.1)" fill="#fff"/></g><g transform="matrix(1, 0, 0, 1, 0, 0)" filter="url(#s)"><circle cx="26.882" cy="26.882" r="26.882" transform="translate(65.71 502.97)" fill="#fff"/></g><g transform="matrix(1, 0, 0, 1, 0, 0)" filter="url(#u)"><ellipse cx="26.882" cy="27.261" rx="26.882" ry="27.261" transform="translate(395.11 490.1)" fill="#fff"/></g><path d="M730.838,127.533l-1.733.909a14.108,14.108,0,0,0-1.877-2.046l1.048-1.645a.785.785,0,0,0-.085-1.074l-2.857-1.818a.78.78,0,0,0-1.01.39l-1.035,1.632a14.35,14.35,0,0,0-2.656-.834l.081-1.938a.779.779,0,0,0-.6-.89l-3.393-.141c-.342-.012-.652.358-.674.839l-.08,1.948a14.277,14.277,0,0,0-2.7.607l-.906-1.731a.791.791,0,0,0-.97-.472l-3,1.576a.782.782,0,0,0-.169,1.067l.905,1.725a14.154,14.154,0,0,0-2.042,1.878l-1.647-1.051a.772.772,0,0,0-1.071.083l-1.825,2.868a.773.773,0,0,0,.393,1l1.638,1.041a14.512,14.512,0,0,0-.83,2.652l-1.942-.081c-.472-.018-.876.25-.893.6l-.138,3.392c-.014.352.358.654.843.674l1.944.083a14.139,14.139,0,0,0,.606,2.709l-1.729.9a.769.769,0,0,0-.471.972l1.567,3a.784.784,0,0,0,1.063.172l1.733-.906a14.106,14.106,0,0,0,1.878,2.043l-1.047,1.647a.778.778,0,0,0,.086,1.076l2.853,1.818a.79.79,0,0,0,1.01-.392l1.036-1.636a14.459,14.459,0,0,0,2.654.833l-.076,1.94c-.019.474.247.875.6.891l3.388.143c.356.012.662-.367.677-.838l.082-1.952a14.136,14.136,0,0,0,2.708-.607l.9,1.728c.227.427.657.642.977.472l3-1.575a.764.764,0,0,0,.158-1.054l-.9-1.733a14.159,14.159,0,0,0,2.043-1.875l1.65,1.04a.787.787,0,0,0,1.082-.078l1.813-2.858a.789.789,0,0,0-.389-1.014l-1.637-1.033a14.465,14.465,0,0,0,.831-2.652l1.942.076c.476.019.88-.247.894-.6l.138-3.385c.015-.354-.359-.658-.841-.678l-1.949-.086a14.242,14.242,0,0,0-.607-2.707l1.728-.9c.433-.222.646-.658.475-.97l-1.564-3A.788.788,0,0,0,730.838,127.533Zm-4.789,5.14a9.407,9.407,0,1,1-12.7-3.979A9.4,9.4,0,0,1,726.049,132.673Z" transform="translate(-295.325 40.52)" fill="#d15673"/><g transform="translate(82.418 145.683)"><path d="M1237.594,275.648a11.132,11.132,0,0,1,3.157,1.03,9.376,9.376,0,0,1,2.277,1.609,6.84,6.84,0,0,1,1.4,1.9,5.4,5.4,0,0,1,.551,1.862.794.794,0,0,1-.275.7,1.061,1.061,0,0,1-.717.271h-2.57a1.546,1.546,0,0,1-.936-.235,2.416,2.416,0,0,1-.569-.633,4.749,4.749,0,0,0-1.671-1.573,6.6,6.6,0,0,0-3.323-.669,8.067,8.067,0,0,0-1.817.2,5.273,5.273,0,0,0-1.505.578,3.079,3.079,0,0,0-1.01.922,2.363,2.363,0,0,0,.037,2.585,3.145,3.145,0,0,0,1.3.9,14.289,14.289,0,0,0,2.313.705q1.414.326,3.433.759a21.632,21.632,0,0,1,3.727,1.1,8.545,8.545,0,0,1,2.5,1.518,5.126,5.126,0,0,1,1.4,2.043,7.693,7.693,0,0,1,.422,2.639,6.383,6.383,0,0,1-.551,2.639,6.817,6.817,0,0,1-1.6,2.2,8.853,8.853,0,0,1-2.552,1.627,12.822,12.822,0,0,1-3.415.9V303.7a.934.934,0,0,1-.293.687.964.964,0,0,1-.7.289h-2.973a.96.96,0,0,1-.7-.289.93.93,0,0,1-.294-.687v-2.459a13.5,13.5,0,0,1-3.1-.849A10.26,10.26,0,0,1,1227,298.93a7.169,7.169,0,0,1-1.745-2.006,5.509,5.509,0,0,1-.734-2.512.791.791,0,0,1,.275-.705,1.061,1.061,0,0,1,.717-.272h2.57a1.739,1.739,0,0,1,.954.217,1.638,1.638,0,0,1,.551.651,6.766,6.766,0,0,0,.625.94,3.388,3.388,0,0,0,.991.831,6.049,6.049,0,0,0,1.56.6,9.733,9.733,0,0,0,2.332.236,13.571,13.571,0,0,0,2.129-.163,6.278,6.278,0,0,0,1.8-.542,3.821,3.821,0,0,0,1.248-.94,2.073,2.073,0,0,0,.477-1.392,1.753,1.753,0,0,0-.513-1.3,4.158,4.158,0,0,0-1.56-.867,22.018,22.018,0,0,0-2.589-.687q-1.541-.326-3.562-.832a19.2,19.2,0,0,1-3.212-1.03,7.586,7.586,0,0,1-2.278-1.464,5.478,5.478,0,0,1-1.34-2.043,8,8,0,0,1-.441-2.8,6.141,6.141,0,0,1,.551-2.6,7.314,7.314,0,0,1,1.524-2.151,8.255,8.255,0,0,1,2.332-1.591,12.106,12.106,0,0,1,2.973-.922v-2.458a.929.929,0,0,1,.294-.687.961.961,0,0,1,.7-.29h2.973a.965.965,0,0,1,.7.29.933.933,0,0,1,.293.687Z" transform="translate(-1224.519 -272.141)" fill="#2b90f1"/></g><g transform="translate(79.048 512.339)"><g transform="translate(0 0)"><path d="M1709.343,174.878a7.777,7.777,0,1,1,7.777,7.777A7.777,7.777,0,0,1,1709.343,174.878Z" transform="translate(-1703.51 -167.101)" fill="#06b1d4"/><path d="M1710.357,200.69a13.61,13.61,0,0,0-13.61,13.609h27.219A13.609,13.609,0,0,0,1710.357,200.69Z" transform="translate(-1696.747 -185.136)" fill="#06b1d4"/></g></g><path d="M916.113-49.088,922.5-59.993l3.695,1.161,4.337-8.378,4.342,1.4,5.661-11.445,2.368.743v-6.2l-6.784,4.325,2.277.612L932.7-70.4l-4.978-2.14-6.533,8.06L915.812-66.8,903.565-49.088Z" transform="translate(-501.51 584.543)" fill="#f7bd1c"/><image width="50.955" height="50.955" transform="translate(230.4 0)" xlink:href="Group%20479-image.png"/></g></svg>