<svg xmlns="http://www.w3.org/2000/svg" xmlns:xlink="http://www.w3.org/1999/xlink" width="552.037" height="504.839" viewBox="0 0 552.037 504.839"><defs><linearGradient id="a" x1="4.968" y1="0.5" x2="-36.566" y2="0.5" gradientUnits="objectBoundingBox"><stop offset="0" stop-color="#0e218a"/><stop offset="1" stop-color="#1f72d2"/></linearGradient><linearGradient id="b" x1="2.958" y1="0.5" x2="-31.256" y2="0.5" xlink:href="#a"/><linearGradient id="c" x1="2.108" y1="0.5" x2="-37.578" y2="0.5" xlink:href="#a"/><linearGradient id="d" x1="1.421" y1="0.5" x2="-47.03" y2="0.5" xlink:href="#a"/><linearGradient id="e" x1="1.054" y1="0.5" x2="-63.199" y2="0.5" xlink:href="#a"/><linearGradient id="f" x1="1.117" y1="0.5" x2="-59.17" y2="0.5" xlink:href="#a"/><linearGradient id="g" x1="1.628" y1="0.5" x2="-44.569" y2="0.5" xlink:href="#a"/><linearGradient id="h" x1="2.414" y1="0.5" x2="-33.301" y2="0.5" xlink:href="#a"/><linearGradient id="i" x1="3.395" y1="0.5" x2="-25.604" y2="0.5" xlink:href="#a"/><linearGradient id="j" x1="4.646" y1="0.5" x2="-21.173" y2="0.5" xlink:href="#a"/><linearGradient id="k" x1="6.392" y1="0.5" x2="-19.498" y2="0.5" xlink:href="#a"/><linearGradient id="l" x1="9.412" y1="0.5" x2="-21.559" y2="0.5" xlink:href="#a"/><linearGradient id="m" x1="26.245" y1="0.5" x2="-55.275" y2="0.5" xlink:href="#a"/><linearGradient id="n" x1="11.178" y1="0.5" x2="-25.265" y2="0.5" xlink:href="#a"/><linearGradient id="o" x1="6.901" y1="0.5" x2="-19.975" y2="0.5" xlink:href="#a"/><linearGradient id="p" x1="6.126" y1="0.5" x2="-25.856" y2="0.5" xlink:href="#a"/><linearGradient id="q" x1="6.688" y1="0.5" x2="-38.903" y2="0.5" xlink:href="#a"/><linearGradient id="r" x1="10.364" y1="0.5" x2="-73.956" y2="0.5" xlink:href="#a"/><linearGradient id="s" x1="7.005" y1="0.5" x2="-44.291" y2="0.5" xlink:href="#a"/><linearGradient id="t" x1="6.304" y1="0.5" x2="-28.924" y2="0.5" xlink:href="#a"/><linearGradient id="u" x1="7.22" y1="0.5" x2="-23.398" y2="0.5" xlink:href="#a"/><linearGradient id="v" x1="8.688" y1="0.5" x2="-20.323" y2="0.5" xlink:href="#a"/><linearGradient id="w" x1="10.45" y1="0.5" x2="-18.088" y2="0.5" xlink:href="#a"/><linearGradient id="x" x1="12.441" y1="0.5" x2="-16.239" y2="0.5" xlink:href="#a"/><linearGradient id="y" x1="14.677" y1="0.5" x2="-14.632" y2="0.5" xlink:href="#a"/><linearGradient id="z" x1="17.226" y1="0.5" x2="-13.22" y2="0.5" xlink:href="#a"/><linearGradient id="aa" x1="20.037" y1="0.5" x2="-11.878" y2="0.5" xlink:href="#a"/><linearGradient id="ab" x1="21.572" y1="0.5" x2="-9.657" y2="0.5" xlink:href="#a"/><linearGradient id="ac" x1="23.116" y1="0.5" x2="-7.442" y2="0.5" xlink:href="#a"/><linearGradient id="ad" x1="25.04" y1="0.5" x2="-5.353" y2="0.5" xlink:href="#a"/><linearGradient id="ae" x1="27.898" y1="0.5" x2="-3.426" y2="0.5" xlink:href="#a"/><linearGradient id="af" x1="32.723" y1="0.5" x2="-1.624" y2="0.5" xlink:href="#a"/><linearGradient id="ag" x1="70.372" y1="0.5" x2="-0.372" y2="0.5" xlink:href="#a"/><linearGradient id="ah" x1="0.383" y1="-0.024" x2="-0.772" y2="-0.024" gradientUnits="objectBoundingBox"><stop offset="0" stop-color="#fea235"/><stop offset="1" stop-color="#ffb44f"/></linearGradient><linearGradient id="ai" x1="0.519" y1="-0.278" x2="-0.535" y2="-0.278" xlink:href="#ah"/><linearGradient id="aj" x1="0.333" y1="-0.038" x2="-0.776" y2="-0.038" xlink:href="#ah"/><linearGradient id="ak" x1="1.248" y1="-0.1" x2="0.308" y2="-0.1" gradientUnits="objectBoundingBox"><stop offset="0" stop-color="#ebeae5"/><stop offset="1" stop-color="#abafb8"/></linearGradient><linearGradient id="al" x1="0.114" y1="1.115" x2="0.765" y2="-0.244" gradientUnits="objectBoundingBox"><stop offset="0.387" stop-color="#66e289"/><stop offset="1" stop-color="#99caff"/></linearGradient><linearGradient id="am" y1="0.5" x2="1" y2="0.5" gradientUnits="objectBoundingBox"><stop offset="0.199" stop-color="#4790fe"/><stop offset="1" stop-color="#448bff"/></linearGradient><linearGradient id="an" x1="0.1" y1="0.906" x2="1.055" y2="0.094" gradientUnits="objectBoundingBox"><stop offset="0" stop-color="#dee6f2"/><stop offset="0.366" stop-color="#f3f6fa"/><stop offset="0.643" stop-color="#fff"/></linearGradient><linearGradient id="ao" x1="0" y1="0.5" x2="1" y2="0.5" xlink:href="#al"/><linearGradient id="ap" y1="0.5" x2="1" y2="0.5" gradientUnits="objectBoundingBox"><stop offset="0.131" stop-color="#ffbb4f"/><stop offset="0.566" stop-color="#ff568e"/></linearGradient><linearGradient id="aq" x1="0.212" y1="1.19" x2="0.875" y2="-0.19" gradientUnits="objectBoundingBox"><stop offset="0.434" stop-color="#ff568e"/><stop offset="0.869" stop-color="#ffbb4f"/></linearGradient><linearGradient id="ar" x1="4.488" y1="-0.737" x2="5.468" y2="-0.737" xlink:href="#ah"/><linearGradient id="as" x1="5.745" y1="-1.08" x2="6.724" y2="-1.08" xlink:href="#ah"/><linearGradient id="at" x1="-7.569" y1="2.051" x2="-6.589" y2="2.051" xlink:href="#ah"/><linearGradient id="au" x1="-8.921" y1="2.366" x2="-7.942" y2="2.366" xlink:href="#ah"/><linearGradient id="av" x1="0.327" y1="0.195" x2="1.307" y2="0.195" xlink:href="#ah"/><linearGradient id="aw" x1="0.403" y1="0.072" x2="1.382" y2="0.072" xlink:href="#ah"/></defs><g transform="translate(79.571 78.581) rotate(25)"><path d="M3.083,4.413l.58-.518.545-.507q.537-.509,1.055-1.024A1.272,1.272,0,0,0,5.022.331,2.039,2.039,0,0,0,2.54.524q-.5.489-1.006.965l-.51.471-.5.442L.47,2.45A1.273,1.273,0,0,0,.571,4.5a2.063,2.063,0,0,0,2.507-.082Z" transform="translate(205.929 126.453)" fill="url(#a)"/><path d="M3.2,6.677q1.81-2.235,3.449-4.557A1.283,1.283,0,0,0,6.013.191,1.944,1.944,0,0,0,3.657.7Q2.058,2.942.295,5.1A1.275,1.275,0,0,0,.774,7.075a2,2,0,0,0,2.419-.392Z" transform="translate(213.735 115.759)" fill="url(#b)"/><path d="M3.253,6.814Q4.628,4.382,5.815,1.881A1.318,1.318,0,0,0,4.85.095,1.821,1.821,0,0,0,2.667.877Q1.507,3.289.161,5.639A1.3,1.3,0,0,0,.983,7.492,1.884,1.884,0,0,0,3.25,6.82Z" transform="translate(221.575 104.052)" fill="url(#c)"/><path d="M3.272,6.835q.884-2.583,1.55-5.212A1.381,1.381,0,0,0,3.54.029,1.669,1.669,0,0,0,1.59,1.07Q.933,3.6.064,6.1A1.349,1.349,0,0,0,1.211,7.779a1.742,1.742,0,0,0,2.059-.937Z" transform="translate(227.175 91.598)" fill="url(#d)"/><path d="M3.248,6.71q.325-2.671.414-5.356A1.469,1.469,0,0,0,2.093,0,1.5,1.5,0,0,0,.438,1.277Q.339,3.863.009,6.44A1.428,1.428,0,0,0,1.459,7.9,1.579,1.579,0,0,0,3.247,6.716Z" transform="translate(230.215 78.691)" fill="url(#e)"/><path d="M3.9,6.417Q3.632,3.743,3.13,1.09A1.561,1.561,0,0,0,1.335.015,1.344,1.344,0,0,0,.019,1.477Q.487,4.039.729,6.621a1.521,1.521,0,0,0,1.706,1.2A1.413,1.413,0,0,0,3.9,6.424Z" transform="translate(229.715 65.716)" fill="url(#f)"/><path d="M5.036,5.923A50.015,50.015,0,0,0,2.97.8,1.659,1.659,0,0,0,.987.084,1.2,1.2,0,0,0,.1,1.7,47.728,47.728,0,0,1,2.047,6.6a1.615,1.615,0,0,0,1.905.888A1.261,1.261,0,0,0,5.038,5.929Z" transform="translate(225.783 53.135)" fill="url(#g)"/><path d="M6.381,4.982a43.882,43.882,0,0,0-3.7-4.5A1.728,1.728,0,0,0,.588.253a1.079,1.079,0,0,0-.28,1.711,41.272,41.272,0,0,1,3.46,4.261,1.707,1.707,0,0,0,2.066.451,1.122,1.122,0,0,0,.552-1.689Z" transform="translate(218.168 41.768)" fill="url(#h)"/><path d="M7.6,3.409A44.5,44.5,0,0,0,2.231.181,1.658,1.658,0,0,0,.222.561,1.069,1.069,0,0,0,.683,2.2,41.525,41.525,0,0,1,5.676,5.233a1.711,1.711,0,0,0,2.079-.121,1.059,1.059,0,0,0-.148-1.7Z" transform="translate(206.528 33.007)" fill="url(#i)"/><path d="M8.13,1.292A47.313,47.313,0,0,0,1.634.014,1.406,1.406,0,0,0,.017.985,1.211,1.211,0,0,0,1.2,2.306a43.838,43.838,0,0,1,6.023,1.21,1.527,1.527,0,0,0,1.817-.738,1.139,1.139,0,0,0-.9-1.486Z" transform="translate(191.732 28.475)" fill="url(#j)"/><path d="M7.541.007a42.652,42.652,0,0,0-6.565,1.1,1.108,1.108,0,0,0-.915,1.41,1.447,1.447,0,0,0,1.719.75,39.367,39.367,0,0,1,6.058-.99A1.224,1.224,0,0,0,9.081,1.023,1.354,1.354,0,0,0,7.548.006Z" transform="translate(175.976 28.298)" fill="url(#k)"/><path d="M5.471.2A30.8,30.8,0,0,0,2.8,1.877q-.639.451-1.247.929c-.4.313-.8.66-1.192,1.007a.962.962,0,0,0,.067,1.55,1.562,1.562,0,0,0,1.887-.047l.047-.04c.34-.293.678-.592,1.056-.882s.751-.569,1.14-.842A28.2,28.2,0,0,1,7,2.029H7A.991.991,0,0,0,7.362.485,1.556,1.556,0,0,0,5.476.193Z" transform="translate(162.563 32.703)" fill="url(#l)"/><path d="M.259.9A14.249,14.249,0,0,0,.3,6.5a1.3,1.3,0,0,0,1.5.879A1.108,1.108,0,0,0,2.869,6.161a12.5,12.5,0,0,1-.009-4.9A1.122,1.122,0,0,0,1.779.015,1.316,1.316,0,0,0,.26.9Z" transform="translate(158.318 43.089)" fill="url(#m)"/><path d="M.181,1.582A24.491,24.491,0,0,0,4.29,5.946a1.47,1.47,0,0,0,1.787.014A.9.9,0,0,0,6.1,4.5,22.226,22.226,0,0,1,2.382.515,1.448,1.448,0,0,0,.63.145.947.947,0,0,0,.178,1.577Z" transform="translate(161.897 55.623)" fill="url(#n)"/><path d="M.789,1.958A22.241,22.241,0,0,0,7.527,3.039a1.131,1.131,0,0,0,1.229-1,1.128,1.128,0,0,0-1.215-1A19.264,19.264,0,0,1,1.7.073,1.346,1.346,0,0,0,.089.638.964.964,0,0,0,.781,1.956l.005,0Z" transform="translate(173.652 64.176)" fill="url(#o)"/><path d="M1.829,5.143a25.3,25.3,0,0,0,5.2-3.507A.85.85,0,0,0,6.987.266,1.374,1.374,0,0,0,5.314.3,22.993,22.993,0,0,1,.58,3.466.887.887,0,0,0,.174,4.814a1.363,1.363,0,0,0,1.649.332Z" transform="translate(189.002 59.778)" fill="url(#p)"/><path d="M2.192,6.136C2.7,5.341,3.243,4.56,3.72,3.752S4.654,2.127,5.074,1.3A.887.887,0,0,0,4.453.072a1.245,1.245,0,0,0-1.5.5q-.609,1.187-1.31,2.344C1.185,3.694.659,4.439.169,5.2l-.035.054A.872.872,0,0,0,.621,6.536a1.3,1.3,0,0,0,1.569-.4Z" transform="translate(199.554 48.793)" fill="url(#q)"/><path d="M2.23,6.308A25,25,0,0,0,2.79.9,1.025,1.025,0,0,0,1.675,0a1.015,1.015,0,0,0-1.1.907A23.492,23.492,0,0,1,.018,5.988.951.951,0,0,0,.925,7.054a1.126,1.126,0,0,0,1.3-.742Z" transform="translate(205.153 36.143)" fill="url(#r)"/><path d="M4.541,5.49A26.057,26.057,0,0,0,2.016.468,1.2,1.2,0,0,0,.574.1.8.8,0,0,0,.122,1.276,24.388,24.388,0,0,1,2.464,6a1.138,1.138,0,0,0,1.348.6.873.873,0,0,0,.73-1.1Z" transform="translate(201.943 23.635)" fill="url(#s)"/><path d="M6.415,3.959A44.892,44.892,0,0,0,1.7.2,1.194,1.194,0,0,0,.247.3.737.737,0,0,0,.36,1.479,42.864,42.864,0,0,1,4.851,5.092a1.214,1.214,0,0,0,1.475.075.75.75,0,0,0,.093-1.205Z" transform="translate(191.966 13.611)" fill="url(#t)"/><path d="M7.194,2.581C5.316,1.669,3.384.836,1.413.077A1.094,1.094,0,0,0,.1.464.75.75,0,0,0,.565,1.54c1.913.746,3.784,1.562,5.6,2.453a1.141,1.141,0,0,0,1.38-.281A.743.743,0,0,0,7.2,2.584Z" transform="translate(178.585 6.65)" fill="url(#u)"/><path d="M7.446,1.493Q4.346.662,1.18.023A.98.98,0,0,0,.028.59a.778.778,0,0,0,.69.941q3.093.64,6.12,1.462a1.028,1.028,0,0,0,1.223-.5.769.769,0,0,0-.611-1Z" transform="translate(163.602 2.337)" fill="url(#v)"/><path d="M7.45.592Q4.229.213.984,0A.874.874,0,0,0,0,.686a.805.805,0,0,0,.832.8q3.185.221,6.347.6a.918.918,0,0,0,1.054-.638A.8.8,0,0,0,7.455.592Z" transform="translate(147.907 0.27)" fill="url(#w)"/><path d="M7.308,0Q4.057.025.814.206A.779.779,0,0,0,0,.966a.828.828,0,0,0,.926.664q3.193-.165,6.393-.177a.818.818,0,0,0,.884-.73A.822.822,0,0,0,7.312,0Z" transform="translate(132 0)" fill="url(#x)"/><path d="M7.05.008Q3.839.411.661.963a.7.7,0,0,0-.642.808A.843.843,0,0,0,1,2.3q3.134-.531,6.3-.916A.729.729,0,0,0,8.019.592.84.84,0,0,0,7.055.008Z" transform="translate(116.239 1.06)" fill="url(#y)"/><path d="M6.684.028Q3.576.794.522,1.7a.624.624,0,0,0-.474.833.849.849,0,0,0,1.015.389Q4.077,2.041,7.148,1.3A.653.653,0,0,0,7.7.475.85.85,0,0,0,6.688.027Z" transform="translate(100.938 3.939)" fill="url(#z)"/><path d="M6.27.061.449,2.325l-.018.007a.574.574,0,0,0-.357.823.832.832,0,0,0,1,.294L6.915,1.207,6.93,1.2A.587.587,0,0,0,7.3.363.852.852,0,0,0,6.274.06Z" transform="translate(86.339 8.567)" fill="url(#aa)"/><path d="M6.541.04Q3.545.974.5,1.785a.572.572,0,0,0-.461.738.756.756,0,0,0,.9.378Q4.025,2.1,7.061,1.16A.574.574,0,0,0,7.488.388a.79.79,0,0,0-.944-.35Z" transform="translate(71.527 13.855)" fill="url(#ab)"/><path d="M6.85.015Q3.73.606.569,1.032a.578.578,0,0,0-.56.637.672.672,0,0,0,.776.458Q3.993,1.711,7.16,1.121A.576.576,0,0,0,7.684.442.71.71,0,0,0,6.853.014Z" transform="translate(56.071 17.699)" fill="url(#ac)"/><path d="M7.052,0Q3.858.138.659.062A.6.6,0,0,0,0,.568a.578.578,0,0,0,.617.539q3.25.094,6.5-.036A.591.591,0,0,0,7.741.51.619.619,0,0,0,7.056,0Z" transform="translate(40.209 19.566)" fill="url(#ad)"/><path d="M7,1.133Q3.847.7.759.017A.626.626,0,0,0,.021.362a.487.487,0,0,0,.419.6q3.137.711,6.35,1.162A.617.617,0,0,0,7.5,1.716.524.524,0,0,0,7,1.134Z" transform="translate(24.495 17.749)" fill="url(#ae)"/><path d="M6.51,2.474A61.387,61.387,0,0,1,.851.065.637.637,0,0,0,.08.224.414.414,0,0,0,.273.854a62.515,62.515,0,0,0,5.76,2.481A.637.637,0,0,0,6.8,3.1a.441.441,0,0,0-.286-.626Z" transform="translate(9.884 12.701)" fill="url(#af)"/><path d="M3.148,1.957q-.584-.431-1.142-.881L1.459.62C1.282.468,1.1.307.944.159L.936.151A.617.617,0,0,0,.186.1.381.381,0,0,0,.127.716c.19.183.369.34.557.5l.567.476q.574.468,1.172.913a.627.627,0,0,0,.762-.028.387.387,0,0,0-.035-.623Z" transform="translate(0 6.277)" fill="url(#ag)"/></g><g transform="translate(0 0)"><g transform="translate(0)"><path d="M1978.259,197.384l-65.145-91.314,64.688,66.494Z" transform="translate(-1912.904 -105.393)" fill="url(#ah)"/><g transform="translate(0)"><path d="M1937.335,160.668l-21.716,6.848-72.438-62.49Z" transform="translate(-1843.181 -105.026)" fill="url(#ai)"/></g><g transform="translate(0)"><path d="M1936.76,181.407l-22.536-76.381,64.9,67.171Z" transform="translate(-1914.224 -105.026)" fill="url(#aj)"/></g><g transform="translate(0)"><path d="M1961.269,197.017l-.457-24.82-64.9-67.171,72.438,62.49Z" transform="translate(-1895.914 -105.026)" fill="url(#ak)"/></g></g><g transform="translate(20.731 36.917)" opacity="0.3"><path d="M1882.217,195.3l29.037-18.644-6.974-14.7,35.285,13.147-7.148,11.434-5.575,30.493-.458-24.82-42.362,9.209Z" transform="translate(-1882.217 -161.951)" fill="#1e1916"/></g></g><text transform="translate(150.378 166.663)" fill="#448cfe" font-size="38" font-family="SegoeUI, Segoe UI"><tspan x="-15.549" y="0">%</tspan></text><text transform="translate(97.974 86.978)" fill="#448cfe" font-size="20" font-family="SegoeUI, Segoe UI" opacity="0.36"><tspan x="-8.184" y="0">%</tspan></text><text transform="translate(80.172 93.559)" fill="#448cfe" font-size="14" font-family="SegoeUI, Segoe UI" opacity="0.3"><tspan x="-5.729" y="0">%</tspan></text><text transform="translate(87.573 125.382)" fill="#448cfe" font-size="14" font-family="SegoeUI, Segoe UI" opacity="0.77"><tspan x="-5.729" y="0">%</tspan></text><text transform="translate(116.775 127.06)" fill="#448cfe" font-size="29" font-family="SegoeUI, Segoe UI" opacity="0.77"><tspan x="-11.866" y="0">%</tspan></text><text transform="translate(142.678 94.497)" fill="#448cfe" font-size="29" font-family="SegoeUI, Segoe UI" opacity="0.36"><tspan x="-11.866" y="0">%</tspan></text><text transform="translate(177.8 126.779)" fill="#448cfe" font-size="44" font-family="SegoeUI, Segoe UI" opacity="0.83"><tspan x="-18.004" y="0">%</tspan></text><text transform="translate(203.522 185.663)" fill="#448cfe" font-size="56" font-family="SegoeUI, Segoe UI"><tspan x="-22.914" y="0">%</tspan></text><g transform="translate(101.686 144.169)"><g transform="translate(304.875 0)"><path d="M2084.78,398.673h76.433a7.19,7.19,0,0,1,7.283,8.3l-2.7,21.975a9.659,9.659,0,0,1-9.321,8.3h-63.445c-3.027,3.144-7.573,5.581-11.352,7.162a1.665,1.665,0,0,1-2.2-2.313,24.353,24.353,0,0,0,1.645-4.849h-1.084a7.19,7.19,0,0,1-7.283-8.3l2.7-21.976A9.659,9.659,0,0,1,2084.78,398.673Z" transform="translate(-2072.697 -398.673)" fill="url(#al)"/><path d="M2162.083,475h-25.916a1.518,1.518,0,0,1-1.538-1.753,2.04,2.04,0,0,1,1.969-1.754h25.916a1.519,1.519,0,0,1,1.538,1.754A2.04,2.04,0,0,1,2162.083,475Z" transform="translate(-2114.075 -447.336)" fill="#fff" opacity="0.8"/><path d="M2140.331,441.094h50.38a2.041,2.041,0,0,0,1.969-1.754,1.519,1.519,0,0,0-1.539-1.753h-50.38a2.04,2.04,0,0,0-1.969,1.753A1.519,1.519,0,0,0,2140.331,441.094Z" transform="translate(-2116.857 -424.677)" fill="#fff" opacity="0.8"/></g><g transform="translate(45.817 205.998)"><g transform="translate(0 19.092)"><line x1="1.066" y2="8.685" transform="translate(10.685 15.676)" fill="none" stroke="#85eeea" stroke-linecap="round" stroke-linejoin="round" stroke-width="10" stroke-dasharray="2 30"/><line x1="1.107" y2="9.015" transform="translate(12.569 0)" fill="none" stroke="#85eeea" stroke-linecap="round" stroke-linejoin="round" stroke-width="10" stroke-dasharray="2 30"/><line x2="8.732" transform="translate(15.629 12.18)" fill="none" stroke="#85eeea" stroke-linecap="round" stroke-linejoin="round" stroke-width="10" stroke-dasharray="2 30"/><line x2="8.866" transform="translate(0 12.18)" fill="none" stroke="#85eeea" stroke-linecap="round" stroke-linejoin="round" stroke-width="10" stroke-dasharray="2 30"/></g><g transform="translate(338.667 19.092)"><line x1="2.664" y2="21.699" transform="translate(26.697 39.167)" fill="none" stroke="#85eeea" stroke-linecap="round" stroke-linejoin="round" stroke-width="10" stroke-dasharray="2 30"/><line x1="2.766" y2="22.523" transform="translate(31.405)" fill="none" stroke="#85eeea" stroke-linecap="round" stroke-linejoin="round" stroke-width="10" stroke-dasharray="2 30"/><line x2="21.816" transform="translate(39.051 30.433)" fill="none" stroke="#85eeea" stroke-linecap="round" stroke-linejoin="round" stroke-width="10" stroke-dasharray="2 30"/><line x2="22.153" transform="translate(0 30.433)" fill="none" stroke="#85eeea" stroke-linecap="round" stroke-linejoin="round" stroke-width="10" stroke-dasharray="2 30"/></g><g transform="translate(46.427)"><line x1="1.435" y2="11.685" transform="translate(5.125)" fill="none" stroke="#85d3e8" stroke-linecap="round" stroke-linejoin="round" stroke-width="6"/><line x2="11.685" transform="translate(0 5.842)" fill="none" stroke="#85d3e8" stroke-linecap="round" stroke-linejoin="round" stroke-width="6"/></g></g><g transform="translate(0 14.865)"><g transform="translate(0 0)"><g transform="translate(81.529)"><path d="M1566.21,464.066c-.943-1.076-12.761-9.855-12.761-9.855l-1.118,5.929H1414.954a15.594,15.594,0,0,0-15.048,13.4l-35.08,277.7a11.607,11.607,0,0,0,11.757,13.4h142.261a15.593,15.593,0,0,0,15.048-13.4l35.08-277.7A11.97,11.97,0,0,0,1566.21,464.066Z" transform="translate(-1354.045 -452.131)" fill="url(#am)"/><path d="M1525.027,447.942H1382.765a15.593,15.593,0,0,0-15.048,13.4l-35.08,285.707a11.607,11.607,0,0,0,11.757,13.4h142.262a15.593,15.593,0,0,0,15.048-13.4l35.08-285.707A11.606,11.606,0,0,0,1525.027,447.942Z" transform="translate(-1332.535 -447.942)" fill="#2e2e2e"/><path d="M1536.487,474.6H1400.413a10.88,10.88,0,0,0-10.5,9.351l-33.9,276.119a8.1,8.1,0,0,0,8.2,9.351h136.074a10.88,10.88,0,0,0,10.5-9.351l33.9-276.119A8.1,8.1,0,0,0,1536.487,474.6Z" transform="translate(-1348.175 -465.759)" fill="url(#an)"/><g transform="translate(27.898 60.58)" opacity="0.2"><path d="M1805.448,611h-28.179a7.092,7.092,0,0,0-6.844,6.1l-17.634,143.617a5.279,5.279,0,0,0,5.347,6.1h28.178Z" transform="translate(-1644.857 -611.003)" fill="#19aaf2"/><path d="M1432.931,766.812h84.395a7.092,7.092,0,0,0,6.844-6.1L1541.8,617.1a5.279,5.279,0,0,0-5.347-6.1h-84.395a7.092,7.092,0,0,0-6.844,6.1l-17.634,143.617A5.279,5.279,0,0,0,1432.931,766.812Z" transform="translate(-1427.537 -611.003)" fill="#19aaf2"/></g><line x2="62.435" transform="translate(53.562 297.933)" fill="none" stroke="#362e8b" stroke-linecap="round" stroke-linejoin="round" stroke-width="10"/><path d="M1557.133,1165.752H1428.491a8.55,8.55,0,0,0-8.251,7.349l-3.556,28.958a6.365,6.365,0,0,0,6.447,7.349h128.642a7.608,7.608,0,0,0,1.118-.086l5.339-43.484A7.186,7.186,0,0,0,1557.133,1165.752Z" transform="translate(-1388.73 -927.62)" fill="#19aaf2" opacity="0.2"/></g><g transform="translate(97.663 62.299)"><g transform="translate(0 184.037)"><path d="M1522,1185.267H1393.357a6.364,6.364,0,0,1-6.446-7.349l3.556-28.958a8.55,8.55,0,0,1,8.251-7.349h128.642a6.364,6.364,0,0,1,6.446,7.349l-3.556,28.958A8.55,8.55,0,0,1,1522,1185.267Z" transform="translate(-1386.854 -1141.611)" fill="url(#ao)"/><g transform="translate(13.149 14.861)"><line x2="45.018" transform="translate(3.382)" fill="none" stroke="#fff" stroke-linecap="round" stroke-linejoin="round" stroke-width="20"/><line x2="73.907" transform="translate(0 14.079)" fill="none" stroke="#fff" stroke-linecap="round" stroke-linejoin="round" stroke-width="20"/></g><path d="M1733.9,1201.11h-15.54a5.377,5.377,0,0,1-5.446-6.208h0a7.223,7.223,0,0,1,6.971-6.209h15.54a5.377,5.377,0,0,1,5.446,6.209h0A7.223,7.223,0,0,1,1733.9,1201.11Z" transform="translate(-1604.716 -1173.073)" fill="none" stroke="#fff" stroke-linejoin="round" stroke-width="6"/></g><g transform="translate(6.823)"><g transform="translate(213.011)"><path d="M2054.9,742.67h84.395a7.092,7.092,0,0,0,6.844-6.1l17.634-143.617a5.279,5.279,0,0,0-5.347-6.1h-84.395a7.092,7.092,0,0,0-6.844,6.1l-17.634,143.617A5.279,5.279,0,0,0,2054.9,742.67Z" transform="translate(-2049.506 -586.861)" fill="#fafeff" stroke="#ceecfb" stroke-miterlimit="10" stroke-width="6"/><line x2="45.018" transform="translate(31.885 98.252)" fill="none" stroke="#59afe3" stroke-linejoin="round" stroke-width="6"/><line x2="73.907" transform="translate(15.908 108.861)" fill="none" stroke="#59afe3" stroke-linejoin="round" stroke-width="6"/><line x2="11.829" transform="translate(13.809 136.592)" fill="none" stroke="#59afe3" stroke-linejoin="round" stroke-width="6"/><path d="M2252,992.3h-15.54a5.377,5.377,0,0,1-5.446-6.208h0a7.224,7.224,0,0,1,6.971-6.208h15.54a5.376,5.376,0,0,1,5.446,6.208h0A7.223,7.223,0,0,1,2252,992.3Z" transform="translate(-2170.765 -849.497)" fill="none" stroke="#59afe3" stroke-linejoin="round" stroke-width="6"/><g transform="translate(94.52 9.383)"><path d="M2347.891,623.573c4.2-2.323,6.282-4.226,5.767-6.736-.307-1.5-3-2.966-4.956.127" transform="translate(-2343.423 -615.144)" fill="none" stroke="#ff568e" stroke-linecap="round" stroke-linejoin="round" stroke-width="4"/><path d="M2338.889,623.573c-3.625-2.323-5.244-4.226-4.113-6.736.675-1.5,3.731-2.966,4.924.127" transform="translate(-2334.421 -615.144)" fill="none" stroke="#ff568e" stroke-linecap="round" stroke-linejoin="round" stroke-width="4"/></g></g><path d="M1412.814,742.67h84.395a7.092,7.092,0,0,0,6.844-6.1l17.634-143.617a5.279,5.279,0,0,0-5.347-6.1h-84.395a7.093,7.093,0,0,0-6.844,6.1l-17.634,143.617A5.279,5.279,0,0,0,1412.814,742.67Z" transform="translate(-1407.42 -586.861)" fill="#fafeff" stroke="#ceecfb" stroke-miterlimit="10" stroke-width="6"/><g transform="translate(14.335 98.252)"><line x2="45.018" transform="translate(15.977)" fill="none" stroke="#59afe3" stroke-linejoin="round" stroke-width="6"/><line x2="73.907" transform="translate(0 10.608)" fill="none" stroke="#59afe3" stroke-linejoin="round" stroke-width="6"/></g><line x2="11.829" transform="translate(13.808 136.592)" fill="none" stroke="#59afe3" stroke-linejoin="round" stroke-width="6"/><path d="M1609.91,992.3h-15.54a5.377,5.377,0,0,1-5.446-6.208h0a7.224,7.224,0,0,1,6.971-6.208h15.54a5.377,5.377,0,0,1,5.446,6.208h0A7.223,7.223,0,0,1,1609.91,992.3Z" transform="translate(-1528.679 -849.497)" fill="none" stroke="#59afe3" stroke-linejoin="round" stroke-width="6"/><g transform="translate(94.52 9.383)"><path d="M1705.805,623.573c4.2-2.323,6.282-4.226,5.767-6.736-.307-1.5-3-2.966-4.955.127" transform="translate(-1701.336 -615.144)" fill="none" stroke="#ff568e" stroke-linecap="round" stroke-linejoin="round" stroke-width="4"/><path d="M1696.8,623.573c-3.625-2.323-5.245-4.226-4.113-6.736.675-1.5,3.731-2.966,4.924.127" transform="translate(-1692.334 -615.144)" fill="none" stroke="#ff568e" stroke-linecap="round" stroke-linejoin="round" stroke-width="4"/></g><g transform="translate(107.887)"><path d="M1738.02,742.67h84.395a7.092,7.092,0,0,0,6.844-6.1l17.634-143.617a5.279,5.279,0,0,0-5.347-6.1h-84.395a7.092,7.092,0,0,0-6.844,6.1l-17.634,143.617A5.279,5.279,0,0,0,1738.02,742.67Z" transform="translate(-1732.626 -586.861)" fill="#fafeff" stroke="#ceecfb" stroke-miterlimit="10" stroke-width="6"/><line x2="45.018" transform="translate(31.885 98.252)" fill="none" stroke="#59afe3" stroke-linejoin="round" stroke-width="6"/><line x2="73.907" transform="translate(15.908 108.861)" fill="none" stroke="#59afe3" stroke-linejoin="round" stroke-width="6"/><line x2="11.829" transform="translate(13.809 136.592)" fill="none" stroke="#59afe3" stroke-linejoin="round" stroke-width="6"/><path d="M1935.117,992.3h-15.54a5.377,5.377,0,0,1-5.446-6.208h0a7.223,7.223,0,0,1,6.971-6.208h15.54a5.376,5.376,0,0,1,5.446,6.208h0A7.223,7.223,0,0,1,1935.117,992.3Z" transform="translate(-1853.885 -849.497)" fill="none" stroke="#59afe3" stroke-linejoin="round" stroke-width="6"/><g transform="translate(94.52 9.383)"><path d="M2031.011,623.573c4.2-2.323,6.282-4.226,5.767-6.736-.307-1.5-3-2.966-4.955.127" transform="translate(-2026.542 -615.144)" fill="none" stroke="#ff568e" stroke-linecap="round" stroke-linejoin="round" stroke-width="4"/><path d="M2022.01,623.573c-3.625-2.323-5.245-4.226-4.113-6.736.675-1.5,3.731-2.966,4.924.127" transform="translate(-2017.541 -615.144)" fill="none" stroke="#ff568e" stroke-linecap="round" stroke-linejoin="round" stroke-width="4"/></g><path d="M1834.438,837.545a47.1,47.1,0,0,0,20.383-.953" transform="translate(-1800.662 -753.744)" fill="none" stroke="#4e8dd8" stroke-linecap="round" stroke-linejoin="round" stroke-width="6"/></g></g></g><g transform="translate(134.228 23.076)"><line x2="11.302" transform="translate(1.174)" fill="none" stroke="#19aaf2" stroke-linejoin="round" stroke-width="6"/><line x2="11.302" transform="translate(0.587 4.781)" fill="none" stroke="#19aaf2" stroke-linejoin="round" stroke-width="6"/><line x2="11.302" transform="translate(0 9.562)" fill="none" stroke="#19aaf2" stroke-linejoin="round" stroke-width="6"/></g><g transform="translate(255.203 18.36)"><ellipse cx="7.144" cy="6.319" rx="7.144" ry="6.319" transform="translate(0 9.789) rotate(-43.243)" fill="none" stroke="#19aaf2" stroke-linecap="round" stroke-linejoin="round" stroke-width="4"/><path d="M1757.042,523.622a2.4,2.4,0,0,1-2.318,2.064,1.787,1.787,0,0,1-1.811-2.064,2.4,2.4,0,0,1,2.318-2.064A1.788,1.788,0,0,1,1757.042,523.622Z" transform="translate(-1745.276 -515.495)" fill="none" stroke="#19aaf2" stroke-linecap="round" stroke-linejoin="round" stroke-width="3.505"/><path d="M1747.1,538a3.856,3.856,0,0,1,3.721-3.314A2.87,2.87,0,0,1,1753.73,538" transform="translate(-1741.403 -524.271)" fill="none" stroke="#19aaf2" stroke-linecap="round" stroke-linejoin="round" stroke-width="3.505"/></g><path d="M1457.139,857.737h-64.826l-11.147,90.789h64.825a6.27,6.27,0,0,0,6.051-5.389l9.824-80.012A4.667,4.667,0,0,0,1457.139,857.737Z" transform="translate(-1283.503 -721.788)" fill="#19aaf2" opacity="0.2"/><g transform="translate(0 125.27)"><g transform="translate(0.974 1.068)"><path d="M1250.63,828.767h-145a6.269,6.269,0,0,0-6.05,5.389l-9.824,80.012a4.666,4.666,0,0,0,4.727,5.389h145a6.27,6.27,0,0,0,6.05-5.389l9.824-80.012A4.666,4.666,0,0,0,1250.63,828.767Z" transform="translate(-1089.714 -828.767)" fill="url(#ap)"/></g><path d="M1247.693,825.548h-145a6.269,6.269,0,0,0-6.05,5.389l-9.824,80.012a4.667,4.667,0,0,0,4.727,5.389h145a6.27,6.27,0,0,0,6.05-5.389l9.824-80.012A4.667,4.667,0,0,0,1247.693,825.548Z" transform="translate(-1086.777 -825.548)" fill="url(#aq)"/><g transform="translate(14.869 15.854)"><g transform="translate(47.768 41.107)"><g transform="translate(0 1.669)"><g transform="translate(0 0)"><path d="M1279.413,1006.556a2.217,2.217,0,0,1-2.139,1.905,1.65,1.65,0,0,1-1.671-1.905,2.216,2.216,0,0,1,2.139-1.905A1.65,1.65,0,0,1,1279.413,1006.556Z" transform="translate(-1275.588 -1003.863)" fill="#fff"/><ellipse cx="2.026" cy="1.792" rx="2.026" ry="1.792" transform="matrix(0.728, -0.685, 0.685, 0.728, 5.53, 2.776)" fill="#fff"/><path d="M1351.616,1006.556a2.216,2.216,0,0,1-2.139,1.905,1.65,1.65,0,0,1-1.671-1.905,2.217,2.217,0,0,1,2.139-1.905A1.65,1.65,0,0,1,1351.616,1006.556Z" transform="translate(-1323.838 -1003.863)" fill="#fff"/><ellipse cx="2.026" cy="1.792" rx="2.026" ry="1.792" transform="translate(29.483 2.776) rotate(-43.243)" fill="#fff"/></g></g><line x1="6.926" y2="8.418" transform="translate(14.43)" fill="none" stroke="#fff" stroke-linecap="round" stroke-linejoin="round" stroke-width="4"/></g><line x2="34.412" transform="translate(25.747 63.027)" fill="none" stroke="#fff" stroke-linecap="round" stroke-linejoin="round" stroke-width="4"/><line x2="17.035" transform="translate(0 63.027)" fill="none" stroke="#fff" stroke-linecap="round" stroke-linejoin="round" stroke-width="4"/><g transform="translate(1.787 30.937)"><path d="M1140.809,968.5a2.217,2.217,0,0,1-2.139,1.905A1.65,1.65,0,0,1,1137,968.5a2.216,2.216,0,0,1,2.139-1.905A1.65,1.65,0,0,1,1140.809,968.5Z" transform="translate(-1136.984 -966.59)" fill="#fff"/><path d="M1159.839,968.5a2.217,2.217,0,0,1-2.139,1.905,1.65,1.65,0,0,1-1.671-1.905,2.217,2.217,0,0,1,2.14-1.905A1.65,1.65,0,0,1,1159.839,968.5Z" transform="translate(-1149.701 -966.59)" fill="#fff"/><path d="M1178.87,968.5a2.217,2.217,0,0,1-2.139,1.905,1.65,1.65,0,0,1-1.671-1.905,2.217,2.217,0,0,1,2.139-1.905A1.65,1.65,0,0,1,1178.87,968.5Z" transform="translate(-1162.418 -966.59)" fill="#fff"/><path d="M1197.9,968.5a2.217,2.217,0,0,1-2.139,1.905,1.65,1.65,0,0,1-1.671-1.905,2.216,2.216,0,0,1,2.139-1.905A1.65,1.65,0,0,1,1197.9,968.5Z" transform="translate(-1175.136 -966.59)" fill="#fff"/><g transform="translate(34.905)"><path d="M1246.025,968.5a2.216,2.216,0,0,1-2.139,1.905,1.65,1.65,0,0,1-1.671-1.905,2.216,2.216,0,0,1,2.139-1.905A1.65,1.65,0,0,1,1246.025,968.5Z" transform="translate(-1242.2 -966.59)" fill="#fff"/><path d="M1265.055,968.5a2.216,2.216,0,0,1-2.139,1.905,1.65,1.65,0,0,1-1.671-1.905,2.217,2.217,0,0,1,2.139-1.905A1.65,1.65,0,0,1,1265.055,968.5Z" transform="translate(-1254.917 -966.59)" fill="#fff"/><path d="M1284.086,968.5a2.217,2.217,0,0,1-2.139,1.905,1.65,1.65,0,0,1-1.671-1.905,2.217,2.217,0,0,1,2.139-1.905A1.65,1.65,0,0,1,1284.086,968.5Z" transform="translate(-1267.635 -966.59)" fill="#fff"/><path d="M1303.117,968.5a2.217,2.217,0,0,1-2.139,1.905,1.65,1.65,0,0,1-1.671-1.905,2.216,2.216,0,0,1,2.139-1.905A1.65,1.65,0,0,1,1303.117,968.5Z" transform="translate(-1280.352 -966.59)" fill="#fff"/></g><path d="M1356.29,968.5a2.217,2.217,0,0,1-2.139,1.905,1.65,1.65,0,0,1-1.671-1.905,2.217,2.217,0,0,1,2.14-1.905A1.65,1.65,0,0,1,1356.29,968.5Z" transform="translate(-1280.979 -966.59)" fill="#fff"/><path d="M1375.32,968.5a2.216,2.216,0,0,1-2.139,1.905,1.65,1.65,0,0,1-1.671-1.905,2.217,2.217,0,0,1,2.139-1.905A1.65,1.65,0,0,1,1375.32,968.5Z" transform="translate(-1293.697 -966.59)" fill="#fff"/><path d="M1284.086,968.5a2.217,2.217,0,0,1-2.139,1.905,1.65,1.65,0,0,1-1.671-1.905,2.217,2.217,0,0,1,2.139-1.905A1.65,1.65,0,0,1,1284.086,968.5Z" transform="translate(-1232.729 -966.59)" fill="#fff"/><path d="M1303.117,968.5a2.217,2.217,0,0,1-2.139,1.905,1.65,1.65,0,0,1-1.671-1.905,2.216,2.216,0,0,1,2.139-1.905A1.65,1.65,0,0,1,1303.117,968.5Z" transform="translate(-1245.447 -966.59)" fill="#fff"/><path d="M1284.086,968.5a2.217,2.217,0,0,1-2.139,1.905,1.65,1.65,0,0,1-1.671-1.905,2.217,2.217,0,0,1,2.139-1.905A1.65,1.65,0,0,1,1284.086,968.5Z" transform="translate(-1232.729 -966.59)" fill="#fff"/><path d="M1303.117,968.5a2.217,2.217,0,0,1-2.139,1.905,1.65,1.65,0,0,1-1.671-1.905,2.216,2.216,0,0,1,2.139-1.905A1.65,1.65,0,0,1,1303.117,968.5Z" transform="translate(-1245.447 -966.59)" fill="#fff"/><path d="M1394.351,968.5a2.217,2.217,0,0,1-2.139,1.905,1.65,1.65,0,0,1-1.671-1.905,2.216,2.216,0,0,1,2.139-1.905A1.65,1.65,0,0,1,1394.351,968.5Z" transform="translate(-1306.414 -966.59)" fill="#fff"/><path d="M1413.382,968.5a2.217,2.217,0,0,1-2.14,1.905,1.65,1.65,0,0,1-1.671-1.905,2.216,2.216,0,0,1,2.139-1.905A1.65,1.65,0,0,1,1413.382,968.5Z" transform="translate(-1319.132 -966.59)" fill="#fff"/><g transform="translate(108.781)"><path d="M1468.712,968.5a2.216,2.216,0,0,1-2.139,1.905,1.65,1.65,0,0,1-1.672-1.905,2.217,2.217,0,0,1,2.139-1.905A1.65,1.65,0,0,1,1468.712,968.5Z" transform="translate(-1464.887 -966.59)" fill="#fff"/><path d="M1487.743,968.5a2.217,2.217,0,0,1-2.139,1.905,1.65,1.65,0,0,1-1.671-1.905,2.216,2.216,0,0,1,2.139-1.905A1.65,1.65,0,0,1,1487.743,968.5Z" transform="translate(-1477.605 -966.59)" fill="#fff"/><path d="M1506.773,968.5a2.216,2.216,0,0,1-2.139,1.905,1.65,1.65,0,0,1-1.671-1.905,2.217,2.217,0,0,1,2.14-1.905A1.65,1.65,0,0,1,1506.773,968.5Z" transform="translate(-1490.322 -966.59)" fill="#fff"/><path d="M1525.8,968.5a2.217,2.217,0,0,1-2.139,1.905,1.65,1.65,0,0,1-1.671-1.905,2.217,2.217,0,0,1,2.139-1.905A1.65,1.65,0,0,1,1525.8,968.5Z" transform="translate(-1503.039 -966.59)" fill="#fff"/></g></g><path d="M1164.568,890.172h-16.883a3.326,3.326,0,0,1-3.37-3.841l1.124-9.153a4.47,4.47,0,0,1,4.313-3.841h16.883a3.327,3.327,0,0,1,3.37,3.841l-.335,2.726-.789,6.427A4.469,4.469,0,0,1,1164.568,890.172Z" transform="translate(-1140.077 -873.336)" fill="none" stroke="#fffcc5" stroke-linecap="round" stroke-linejoin="round" stroke-width="4"/><path d="M1164.2,873.336l-.192,1.561a2.5,2.5,0,0,0,2.533,2.888H1183.1" transform="translate(-1153.245 -873.336)" fill="none" stroke="#fffcc5" stroke-linecap="round" stroke-linejoin="round" stroke-width="4"/><line x1="24.566" transform="translate(4.8 8.418)" fill="none" stroke="#fffcc5" stroke-linecap="round" stroke-linejoin="round" stroke-width="4"/><path d="M1163.492,915.122l.192-1.561a2.5,2.5,0,0,0-2.533-2.888H1144.6" transform="translate(-1140.286 -898.287)" fill="none" stroke="#fffcc5" stroke-linecap="round" stroke-linejoin="round" stroke-width="4"/><line x1="0.975" y2="7.937" transform="translate(16.595 4.449)" fill="none" stroke="#fffcc5" stroke-linecap="round" stroke-linejoin="round" stroke-width="4"/></g></g></g></g><g transform="translate(119.781 86)"><g transform="translate(0 0)"><g transform="translate(4.916)"><path d="M1556.132,710c-9.685.527-19.712-6.768-24-18.3-4.258-11.457-1.5-23.443,6.06-29.413l-.3-.807,5.1-1.895c11.057-4.111,24.129,3.6,29.194,17.228s.205,28-10.853,32.115l-4.866,1.952Z" transform="translate(-1529.946 -658.29)" fill="url(#ar)"/><path d="M1555.991,710.74l-.349-.928c-9.973.464-19.832-7.092-24.049-18.431-4.175-11.232-1.7-23.354,6.013-29.54l-.321-.854,5.272-1.959c5.4-2.008,11.439-1.306,17,1.976a30.995,30.995,0,0,1,13.052,35.11c-2.068,6.12-6.182,10.6-11.584,12.605Zm-.1-1.312.311.827,4.69-1.882c5.3-1.97,9.334-6.366,11.366-12.377a30.625,30.625,0,0,0-12.889-34.672c-5.465-3.225-11.391-3.917-16.685-1.948l-4.923,1.83.285.759-.107.084c-7.672,6.06-10.139,18.069-6,29.2,4.18,11.241,13.979,18.721,23.817,18.183Z" transform="translate(-1529.582 -657.905)" fill="#1e1916"/></g><g transform="translate(0 2.086)"><path d="M1516.768,697.413c5.064,13.627,18.368,21.4,29.427,17.286s15.687-18.547,10.623-32.174-18.137-21.337-29.2-17.227S1511.7,683.788,1516.768,697.413Z" transform="translate(-1514.762 -664.193)" fill="#fff"/></g><g transform="translate(3.749 6.521)"><path d="M1528.284,705.393c4.161,11.19,15.087,17.575,24.169,14.2s12.887-15.234,8.726-26.425-14.9-17.526-23.98-14.15S1524.123,694.2,1528.284,705.393Z" transform="translate(-1526.446 -677.926)" fill="url(#as)"/><path d="M1546.975,720.321a17.676,17.676,0,0,1-8.929-2.571,24.432,24.432,0,0,1-10.319-12.657h0a24.418,24.418,0,0,1-.511-16.243,16.146,16.146,0,0,1,9.535-10.374c9.165-3.4,20.028,2.99,24.219,14.259a24.817,24.817,0,0,1,.607,16.265c-1.655,5.058-5.008,8.75-9.442,10.4A14.742,14.742,0,0,1,1546.975,720.321Zm-18.9-15.357a24.061,24.061,0,0,0,10.16,12.467c4.537,2.661,9.428,3.236,13.771,1.62,4.326-1.608,7.6-5.218,9.219-10.166a24.446,24.446,0,0,0-.6-16.02c-4.119-11.077-14.771-17.377-23.741-14.04a15.782,15.782,0,0,0-9.312,10.144A24.044,24.044,0,0,0,1528.074,704.963Z" transform="translate(-1526.062 -677.561)" fill="#1e1916"/></g><g transform="translate(13.375 15.542)"><path d="M1567.259,707.548a7.756,7.756,0,0,1,1.613,1.085,5.9,5.9,0,0,1,1.208,1.465,5.574,5.574,0,0,1,.664,1.849,6.608,6.608,0,0,1-.015,2.23l-2.247-.775a4.685,4.685,0,0,0-.478-2.19,3.623,3.623,0,0,0-1.5-1.474l-2.164,6.269c.385.35.767.7,1.142,1.054s.726.712,1.053,1.084a9.839,9.839,0,0,1,.87,1.146,5.451,5.451,0,0,1,.591,1.236,4.347,4.347,0,0,1,.211,1.346,4.487,4.487,0,0,1-.264,1.461,5.061,5.061,0,0,1-1.242,2.046,5.268,5.268,0,0,1-1.8,1.149,6.287,6.287,0,0,1-2.109.4,9,9,0,0,1-2.146-.213l-1.083,3.135-2.273-.786,1.1-3.189a6.305,6.305,0,0,1-1.627-1.423,7.176,7.176,0,0,1-1.107-1.9,8.073,8.073,0,0,1-.534-2.232,8.723,8.723,0,0,1,.108-2.431l2.385.825a6.853,6.853,0,0,0-.08,1.47,5.83,5.83,0,0,0,.231,1.352,4.262,4.262,0,0,0,.548,1.159,3.689,3.689,0,0,0,.86.9l2.351-6.808c-.533-.5-1.039-1-1.513-1.509a8.437,8.437,0,0,1-1.189-1.614,5.143,5.143,0,0,1-.612-1.779,4.624,4.624,0,0,1,1.236-3.648,5.1,5.1,0,0,1,1.549-1.071,6.163,6.163,0,0,1,1.91-.5,7.389,7.389,0,0,1,2.081.091l.694-2.012,2.274.783Zm-6.426,3.06a2.271,2.271,0,0,0-.126.972,2.875,2.875,0,0,0,.258.937,4.615,4.615,0,0,0,.575.919,10.016,10.016,0,0,0,.824.915l1.853-5.368a3.447,3.447,0,0,0-2.18.248A2.377,2.377,0,0,0,1560.833,710.608Zm4.73,11.97a1.857,1.857,0,0,0,.062-1.012,3.477,3.477,0,0,0-.419-1.036,6.481,6.481,0,0,0-.758-1.038q-.453-.514-.966-1l-2.088,6.046a4.56,4.56,0,0,0,1.427.074,3.9,3.9,0,0,0,1.219-.338,2.992,2.992,0,0,0,.938-.695A2.879,2.879,0,0,0,1565.563,722.578Z" transform="translate(-1555.08 -704.753)" fill="#fff"/></g></g></g><g transform="translate(336.636 96.081)"><g transform="translate(2.672)"><path d="M2190.921,716.593c-5.264.286-10.714-3.678-13.046-9.948-2.314-6.227-.814-12.742,3.294-15.987l-.165-.438,2.771-1.03c6.01-2.234,13.115,1.958,15.868,9.364s.111,15.221-5.9,17.456l-2.645,1.061Z" transform="translate(-2176.687 -688.49)" fill="url(#at)"/><path d="M2190.844,717l-.189-.5c-5.42.253-10.78-3.854-13.071-10.018-2.27-6.105-.924-12.694,3.268-16.056l-.175-.464,2.866-1.065c6.054-2.25,13.229,1.977,16,9.423s.1,15.335-5.958,17.586Zm-.053-.713.169.449,2.549-1.022c5.951-2.213,8.571-9.986,5.842-17.327s-9.791-11.518-15.739-9.3l-2.676.995.155.413-.058.045c-4.17,3.294-5.511,9.821-3.262,15.873,2.272,6.11,7.605,10.168,12.946,9.883Z" transform="translate(-2176.489 -688.292)" fill="#1e1916"/></g><g transform="translate(0 1.128)"><path d="M2169.525,709.749c2.753,7.407,9.983,11.629,15.994,9.4s8.526-10.08,5.773-17.487-9.858-11.6-15.869-9.364S2166.772,702.344,2169.525,709.749Z" transform="translate(-2168.435 -691.693)" fill="#fff"/></g><g transform="translate(2.038 3.538)"><path d="M2175.785,714.087c2.261,6.083,8.2,9.553,13.136,7.716s7-8.28,4.743-14.362-8.1-9.526-13.033-7.691S2173.523,708,2175.785,714.087Z" transform="translate(-2174.786 -699.158)" fill="url(#au)"/><path d="M2185.943,722.2a9.606,9.606,0,0,1-4.853-1.4,13.277,13.277,0,0,1-5.609-6.879h0a13.269,13.269,0,0,1-.278-8.829,8.776,8.776,0,0,1,5.182-5.638c4.982-1.852,10.886,1.626,13.164,7.75a13.49,13.49,0,0,1,.33,8.84,8.652,8.652,0,0,1-5.132,5.652A8.009,8.009,0,0,1,2185.943,722.2Zm-2.77-23.04a7.765,7.765,0,0,0-2.717.486,8.577,8.577,0,0,0-5.062,5.513,13.068,13.068,0,0,0,.276,8.694h0a13.076,13.076,0,0,0,5.521,6.776,8.664,8.664,0,0,0,7.485.881,8.455,8.455,0,0,0,5.011-5.525,13.286,13.286,0,0,0-.328-8.707C2191.528,702.348,2187.316,699.159,2183.173,699.159Z" transform="translate(-2174.577 -698.958)" fill="#1e1916"/></g><g transform="translate(7.27 8.442)"><path d="M2196.969,715.258a4.226,4.226,0,0,1,.876.589,3.213,3.213,0,0,1,.657.8,3.038,3.038,0,0,1,.361,1,3.589,3.589,0,0,1-.008,1.212l-1.222-.421a2.54,2.54,0,0,0-.259-1.19,1.972,1.972,0,0,0-.816-.8l-1.176,3.407c.209.19.417.381.621.573s.395.387.572.589a5.449,5.449,0,0,1,.473.623,2.986,2.986,0,0,1,.321.672,2.348,2.348,0,0,1,.114.731,2.459,2.459,0,0,1-.143.794,2.759,2.759,0,0,1-.676,1.112,2.865,2.865,0,0,1-.978.624,3.411,3.411,0,0,1-1.146.216,4.9,4.9,0,0,1-1.166-.116l-.589,1.7-1.235-.427.6-1.733a3.44,3.44,0,0,1-.884-.773,3.893,3.893,0,0,1-.6-1.03,4.376,4.376,0,0,1-.29-1.214,4.729,4.729,0,0,1,.059-1.321l1.3.448a3.759,3.759,0,0,0-.043.8,3.176,3.176,0,0,0,.125.735,2.327,2.327,0,0,0,.3.63,2.016,2.016,0,0,0,.467.491l1.278-3.7c-.29-.27-.565-.543-.822-.82a4.568,4.568,0,0,1-.646-.877,2.789,2.789,0,0,1-.333-.967,2.512,2.512,0,0,1,.672-1.983,2.775,2.775,0,0,1,.842-.582,3.363,3.363,0,0,1,1.038-.271,4.022,4.022,0,0,1,1.131.05l.377-1.094,1.236.426Zm-3.493,1.663a1.231,1.231,0,0,0-.069.528,1.572,1.572,0,0,0,.14.51,2.533,2.533,0,0,0,.312.5,5.452,5.452,0,0,0,.448.5l1.007-2.918a1.873,1.873,0,0,0-1.185.135A1.294,1.294,0,0,0,2193.476,716.922Zm2.571,6.506a1.01,1.01,0,0,0,.034-.55,1.887,1.887,0,0,0-.228-.563,3.5,3.5,0,0,0-.412-.564q-.246-.279-.525-.544l-1.135,3.286a2.462,2.462,0,0,0,.775.04,2.114,2.114,0,0,0,.663-.184,1.636,1.636,0,0,0,.511-.377A1.567,1.567,0,0,0,2196.047,723.427Z" transform="translate(-2190.349 -713.739)" fill="#fff"/></g></g><g transform="translate(233.483 94.352)"><g transform="translate(0 0)"><path d="M1871.029,721c7.048.383,14.344-4.925,17.466-13.32,3.1-8.337,1.091-17.06-4.409-21.4l.22-.587-3.71-1.379c-8.047-2.991-17.56,2.621-21.245,12.537s-.15,20.379,7.9,23.371l3.542,1.42Z" transform="translate(-1857.76 -683.363)" fill="url(#av)"/><path d="M1870.6,721.531l-3.669-1.472c-8.1-3.013-11.68-13.575-7.974-23.544a21.608,21.608,0,0,1,9.046-11.179,14.272,14.272,0,0,1,12.373-1.438l3.837,1.426-.233.622c5.613,4.5,7.414,13.322,4.375,21.5-3.069,8.253-10.269,13.751-17.5,13.413Zm5.216-38.179a15.114,15.114,0,0,0-7.677,2.218,21.332,21.332,0,0,0-8.93,11.039c-3.655,9.83-.148,20.236,7.818,23.2l3.416,1.37.226-.6.1.005c7.158.382,14.29-5.052,17.332-13.232,3.012-8.1,1.216-16.842-4.367-21.252l-.077-.061.207-.553-3.583-1.332A12.765,12.765,0,0,0,1875.821,683.352Z" transform="translate(-1857.498 -683.082)" fill="#1e1916"/><g transform="translate(3.809 1.518)"><path d="M1899.614,711.833c-3.686,9.916-13.367,15.571-21.415,12.58s-11.416-13.5-7.73-23.413,13.2-15.528,21.247-12.537S1903.3,701.918,1899.614,711.833Z" transform="translate(-1868.98 -687.659)" fill="#fff"/></g><g transform="translate(6.536 4.745)"><path d="M1902.781,717.642c-3.028,8.144-10.979,12.79-17.588,10.331s-9.378-11.086-6.35-19.229,10.841-12.754,17.451-10.3S1905.81,709.5,1902.781,717.642Z" transform="translate(-1877.48 -697.652)" fill="url(#aw)"/><path d="M1888.621,728.5a10.726,10.726,0,0,1-3.754-.672,11.584,11.584,0,0,1-6.871-7.567,18.06,18.06,0,0,1,.441-11.836c3.049-8.2,10.955-12.857,17.625-10.377A11.748,11.748,0,0,1,1903,705.6a18.494,18.494,0,0,1-7.881,21.032A12.862,12.862,0,0,1,1888.621,728.5Zm3.709-30.848c-5.547,0-11.186,4.268-13.639,10.867a17.79,17.79,0,0,0-.438,11.658,11.321,11.321,0,0,0,6.709,7.4,11.6,11.6,0,0,0,10.022-1.179,17.508,17.508,0,0,0,7.392-9.072l.127.047-.127-.047a17.5,17.5,0,0,0,.369-11.64,11.484,11.484,0,0,0-6.776-7.382A10.408,10.408,0,0,0,1892.329,697.655Z" transform="translate(-1877.2 -697.385)" fill="#1e1916"/></g><g transform="translate(14.707 11.31)"><path d="M1910.692,719.209a5.64,5.64,0,0,1,1.173.79,4.281,4.281,0,0,1,.88,1.067,4.059,4.059,0,0,1,.483,1.346,4.8,4.8,0,0,1-.011,1.623l-1.635-.563a3.412,3.412,0,0,0-.348-1.594,2.641,2.641,0,0,0-1.093-1.073l-1.575,4.562c.28.255.558.51.831.767s.528.518.767.789a7.174,7.174,0,0,1,.633.834,3.965,3.965,0,0,1,.43.9,3.165,3.165,0,0,1,.153.979,3.259,3.259,0,0,1-.191,1.063,3.685,3.685,0,0,1-.9,1.489,3.839,3.839,0,0,1-1.31.836,4.58,4.58,0,0,1-1.535.289,6.539,6.539,0,0,1-1.562-.155l-.788,2.281-1.654-.572.8-2.321a4.6,4.6,0,0,1-1.184-1.035,5.23,5.23,0,0,1-.806-1.379,5.884,5.884,0,0,1-.388-1.625,6.328,6.328,0,0,1,.079-1.769l1.736.6a4.97,4.97,0,0,0-.059,1.07,4.255,4.255,0,0,0,.168.984,3.1,3.1,0,0,0,.4.843,2.685,2.685,0,0,0,.626.658l1.711-4.955c-.388-.362-.757-.728-1.1-1.1a6.08,6.08,0,0,1-.865-1.174,3.736,3.736,0,0,1-.446-1.295,3.367,3.367,0,0,1,.9-2.655,3.706,3.706,0,0,1,1.127-.779,4.513,4.513,0,0,1,1.39-.363,5.4,5.4,0,0,1,1.514.067l.505-1.464,1.655.57Zm-4.677,2.227a1.648,1.648,0,0,0-.092.707,2.073,2.073,0,0,0,.188.682,3.367,3.367,0,0,0,.418.669,7.349,7.349,0,0,0,.6.666l1.348-3.907a2.507,2.507,0,0,0-1.586.181A1.728,1.728,0,0,0,1906.016,721.436Zm3.442,8.71a1.353,1.353,0,0,0,.045-.737,2.542,2.542,0,0,0-.305-.754,4.735,4.735,0,0,0-.552-.755q-.329-.374-.7-.729l-1.519,4.4a3.3,3.3,0,0,0,1.038.054,2.823,2.823,0,0,0,.887-.247,2.179,2.179,0,0,0,.683-.505A2.087,2.087,0,0,0,1909.458,730.146Z" transform="translate(-1901.829 -717.175)" fill="#fff"/></g></g></g></g><image width="96.035" height="96.035" transform="translate(254.515 143.685) rotate(1)" xlink:href="Group%20482-image.png"/><ellipse cx="220.911" cy="32.193" rx="220.911" ry="32.193" transform="translate(46.05 440.453)" fill="#92cdef" opacity="0.24"/><ellipse cx="147.274" cy="21.462" rx="147.274" ry="21.462" transform="translate(98.595 448.594)" fill="#92cdef" opacity="0.45"/></svg>