<?xml version="1.0" standalone="no"?>
<!DOCTYPE svg PUBLIC "-//W3C//DTD SVG 20010904//EN"
 "http://www.w3.org/TR/2001/REC-SVG-20010904/DTD/svg10.dtd">
<svg version="1.0" xmlns="http://www.w3.org/2000/svg"
 width="260.000000pt" height="260.000000pt" viewBox="0 0 260.000000 260.000000"
 preserveAspectRatio="xMidYMid meet">
<metadata>
Created by potrace 1.11, written by Peter Selinger 2001-2013
</metadata>
<g transform="translate(0.000000,260.000000) scale(0.100000,-0.100000)"
fill="#000000" stroke="none">
<path d="M1150 2584 c-208 -27 -407 -101 -580 -217 -96 -64 -273 -241 -337
-337 -95 -142 -163 -302 -199 -470 -26 -119 -26 -381 0 -500 56 -259 167 -463
355 -651 188 -188 392 -299 651 -355 119 -26 381 -26 500 0 259 56 463 167
651 355 188 188 299 392 355 651 26 119 26 381 0 500 -56 259 -167 463 -355
651 -185 185 -379 293 -631 350 -83 19 -331 33 -410 23z m360 -60 c425 -75
791 -383 940 -793 95 -259 96 -574 4 -833 -102 -286 -314 -531 -586 -677 -354
-191 -802 -191 -1156 0 -409 220 -654 628 -654 1089 0 772 689 1347 1452 1214z"/>
<path d="M1217 2393 c-16 -4 -17 -15 -15 -91 3 -96 7 -100 74 -87 47 8 66 46
39 75 -14 16 -16 23 -7 32 16 16 15 43 -1 57 -17 13 -65 21 -90 14z m63 -53
c0 -15 -7 -20 -25 -20 -18 0 -25 5 -25 20 0 15 7 20 25 20 18 0 25 -5 25 -20z
m7 -66 c6 -16 -12 -34 -34 -34 -7 0 -13 11 -13 25 0 18 5 25 20 25 11 0 23 -7
27 -16z"/>
<path d="M1544 2350 c-56 -23 -73 -112 -29 -155 52 -53 155 -12 155 62 0 47
-16 72 -55 89 -39 16 -42 16 -71 4z m80 -52 c9 -12 16 -30 16 -40 0 -22 -38
-58 -62 -58 -25 0 -58 35 -58 62 0 53 74 79 104 36z"/>
<path d="M957 2343 c-4 -3 -7 -33 -7 -65 0 -32 -3 -58 -7 -58 -4 0 -26 19 -50
42 -23 23 -45 39 -49 36 -7 -7 16 -153 28 -171 5 -8 10 -9 18 -1 7 7 8 24 1
52 -5 23 -6 42 -2 42 4 0 23 -16 42 -36 34 -35 34 -35 41 -12 3 13 6 39 7 58
l1 35 26 -42 c14 -24 29 -43 34 -43 22 0 16 21 -24 88 -48 82 -50 84 -59 75z"/>
<path d="M1860 2193 c-39 -15 -60 -47 -60 -89 0 -35 5 -47 31 -68 41 -35 83
-34 120 3 37 37 39 88 7 125 -23 26 -70 40 -98 29z m76 -58 c20 -31 15 -53
-17 -77 -23 -17 -30 -18 -50 -8 -29 16 -39 29 -39 54 0 53 76 76 106 31z"/>
<path d="M583 2123 c50 -182 50 -183 64 -172 7 7 11 20 8 29 -8 24 41 62 74
58 54 -7 28 22 -55 61 -48 23 -89 41 -92 41 -2 0 -2 -8 1 -17z m76 -52 c12 -8
13 -12 1 -26 -10 -13 -15 -13 -21 -3 -20 30 -8 46 20 29z"/>
<path d="M2085 1924 c-39 -26 -72 -48 -74 -50 -2 -2 -1 -11 3 -20 6 -15 8 -15
32 1 14 9 32 14 41 11 12 -5 12 -11 -6 -40 -19 -31 -20 -66 -1 -66 4 0 13 14
20 30 10 25 18 30 45 30 36 0 65 21 65 47 0 14 -46 103 -53 103 -1 0 -34 -21
-72 -46z m79 -25 c17 -25 11 -49 -13 -49 -24 0 -45 38 -30 56 16 19 25 18 43
-7z"/>
<path d="M379 1904 c-24 -35 -28 -49 -19 -57 9 -9 15 -7 25 7 14 18 17 17 77
-22 54 -35 64 -39 71 -25 6 9 5 18 0 22 -5 3 -33 21 -61 39 -44 29 -50 37 -42
52 13 25 13 30 -5 30 -8 0 -28 -21 -46 -46z"/>
<path d="M1120 1820 l0 -130 -115 0 -115 0 0 -110 0 -110 115 0 115 0 0 -260
c0 -288 7 -338 53 -407 69 -102 155 -141 322 -145 l100 -3 0 120 0 120 -75 6
c-147 10 -150 16 -150 329 l0 240 110 0 110 0 0 110 0 110 -110 0 -109 0 -3
128 -3 127 -122 3 -123 3 0 -131z"/>
<path d="M270 1336 c-6 -8 -10 -25 -8 -38 4 -30 46 -38 65 -12 17 23 16 29 -3
48 -19 20 -38 20 -54 2z"/>
<path d="M2256 1334 c-19 -19 -20 -25 -3 -48 19 -26 61 -18 65 12 7 44 -32 67
-62 36z"/>
<path d="M480 830 c-10 -25 -18 -30 -45 -30 -36 0 -65 -21 -65 -47 0 -28 50
-104 63 -97 13 8 129 85 136 90 2 2 1 11 -3 20 -6 15 -8 15 -32 -1 -14 -9 -32
-14 -41 -11 -12 5 -12 11 6 40 19 31 20 66 1 66 -4 0 -13 -13 -20 -30z m-22
-81 c12 -18 11 -24 -3 -38 -15 -15 -18 -14 -35 7 -11 13 -16 30 -13 37 8 22
36 18 51 -6z"/>
<path d="M2046 814 c-4 -10 -3 -20 2 -23 5 -3 32 -21 60 -39 44 -29 50 -37 42
-52 -13 -25 -13 -30 5 -30 8 0 28 21 46 46 24 35 28 49 19 57 -9 9 -15 7 -25
-7 -14 -19 -15 -18 -52 6 -98 64 -90 61 -97 42z"/>
<path d="M1931 667 c-6 -8 -9 -21 -6 -30 8 -20 -43 -59 -74 -55 -54 7 -28 -22
55 -61 48 -23 89 -39 91 -37 4 3 -46 186 -52 194 -1 1 -7 -4 -14 -11z m19
-114 c0 -15 -9 -16 -29 -4 -12 8 -13 12 -1 26 10 13 15 13 21 3 5 -7 9 -19 9
-25z"/>
<path d="M629 581 c-59 -60 -23 -156 59 -156 58 0 92 34 92 91 0 35 -5 47 -31
68 -41 35 -83 34 -120 -3z m84 -12 c27 -15 37 -28 37 -53 0 -52 -75 -76 -104
-34 -23 32 -20 54 10 77 31 25 29 24 57 10z"/>
<path d="M1685 491 c-3 -6 -1 -28 4 -50 5 -23 6 -41 2 -41 -4 0 -23 16 -42 36
-34 35 -34 35 -41 12 -3 -13 -6 -39 -7 -58 l-1 -35 -26 43 c-23 39 -53 53 -46
22 7 -29 85 -149 93 -144 5 3 9 32 9 65 0 32 3 59 7 59 4 0 26 -19 50 -42 23
-23 45 -39 49 -35 6 5 -9 111 -23 160 -5 19 -18 23 -28 8z"/>
<path d="M941 424 c-55 -46 -37 -130 33 -154 63 -21 116 21 116 93 0 80 -85
115 -149 61z m99 -24 c11 -11 20 -30 20 -42 0 -53 -74 -79 -104 -36 -22 31
-20 54 6 78 28 25 52 26 78 0z"/>
<path d="M1283 400 c-30 -12 -39 -47 -18 -70 13 -15 14 -22 4 -38 -7 -11 -9
-27 -6 -36 9 -22 54 -38 89 -31 l29 7 -3 86 -3 87 -35 2 c-19 1 -45 -2 -57 -7z
m57 -45 c0 -18 -5 -25 -20 -25 -25 0 -38 29 -19 41 25 15 39 10 39 -16z m10
-75 c0 -15 -7 -20 -25 -20 -18 0 -25 5 -25 20 0 15 7 20 25 20 18 0 25 -5 25
-20z"/>
</g>
</svg>
