<?xml version="1.0" encoding="utf-8"?>
<!-- Generator: Adobe Illustrator 24.1.3, SVG Export Plug-In . SVG Version: 6.00 Build 0)  -->
<svg version="1.1" id="Calque_1" xmlns="http://www.w3.org/2000/svg" xmlns:xlink="http://www.w3.org/1999/xlink" x="0px" y="0px"
	 viewBox="0 0 731 83" style="enable-background:new 0 0 731 83;" xml:space="preserve">
<style type="text/css">
	.st0{fill:#555555;}
	.st1{fill:#FFFFFF;}
	.st2{fill:#777777;}
	.st3{fill:#999999;}
</style>
<path class="st0" d="M67.9,8h75.1c3.9,0,6.9,3.1,6.9,6.9v50.8c0,3.9-3.1,6.9-6.9,6.9H67.9c-3.8,0-6.9-3.1-6.9-6.9V15
	C61,11.1,64.1,8,67.9,8z"/>
<path class="st1" d="M144.6,32.1c0-4.3-3.5-7.8-7.7-7.8h-28.4V40h28.4C141.1,40,144.6,36.5,144.6,32.1z M144.6,48.7
	c0-4.3-3.5-7.8-7.7-7.8h-28.4v15.6h28.4C141.1,56.5,144.6,53,144.6,48.7C144.7,48.7,144.7,48.7,144.6,48.7z M87.1,40.8V40h20.8v-1.3
	c0-7.8-6.4-14.2-14.2-14.2H80.5c-7.8,0-14.1,6.2-14.2,14v3.9c0,7.8,6.4,14.2,14.2,14.2h13.2c7.8,0,14.2-6.4,14.2-14.2v-1.5
	C107.9,40.8,87.1,40.8,87.1,40.8z"/>
<path class="st0" d="M273.4,61.8h-10.7l6.7-41.3H280L273.4,61.8z M312.1,21.6c-3.1-1.2-6.3-1.7-9.5-1.7c-10.5,0-17.9,5.6-18,13.6
	c-0.1,5.9,5.3,9.2,9.4,11.2c4.1,2,5.6,3.3,5.6,5.1c0,2.7-3.3,4.1-6.4,4.1c-3.5,0.1-6.9-0.7-10-2.2l-1.4-0.7l-1.5,9.3
	c3.8,1.5,7.8,2.2,11.9,2.2c11.2,0,18.5-5.6,18.6-14.1c0-4.7-2.8-8.3-9-11.2c-3.7-1.9-6-3.2-6-5.1c0-1.7,1.9-3.6,6.1-3.6
	c2.7-0.1,5.5,0.5,8,1.6l1,0.4C310.8,30.5,312.1,21.6,312.1,21.6z M326.3,47.1l4.2-11.5c0,0,0.9-2.4,1.4-4l0.7,3.6l2.5,12H326.3z
	 M339.4,20.5h-8.2c-2.6,0-4.5,0.7-5.6,3.4l-15.9,37.8H321l2.2-6.1h13.7l1.2,6.2h9.9L339.4,20.5L339.4,20.5z M253.8,20.5l-10.5,28.1
	l-1.2-5.7c-1.9-6.6-8-13.8-14.8-17.3l9.5,36.1h11.3L265,20.5C265,20.5,253.8,20.5,253.8,20.5z"/>
<path class="st2" d="M233.7,20.5h-17.2l-0.2,0.8c13.4,3.4,22.2,11.7,25.9,21.6l-3.7-19C237.8,21.3,236,20.6,233.7,20.5z"/>
<g transform="translate(-1837.7 -1267.9)">
	<g transform="matrix(3.1437 0 0 3.1437 -1661.1 -866.42)">
		<g transform="matrix(1.25 0 0 -1.25 1176 710.77)">
			<path class="st0" d="M124.3,12.1v0.3h-0.1l-0.1-0.2l-0.1,0.2h-0.1v-0.3h0.1v0.3l0.1-0.2h0.1l0.1,0.2v-0.3H124.3z M123.8,12.1v0.3
				h0.1v0.1h-0.3v-0.1h0.1L123.8,12.1L123.8,12.1z"/>
		</g>
		<path class="st2" d="M1319.6,697.4h-9v-16.2h9V697.4z"/>
		<g transform="matrix(1.25 0 0 -1.25 1137.3 698.59)">
			<path class="st0" d="M139.1,7.4c0,2.6,1.2,5,3.1,6.5c-1.4,1.1-3.2,1.8-5.1,1.8c-4.6,0-8.2-3.7-8.2-8.2s3.7-8.2,8.2-8.2
				c1.9,0,3.7,0.7,5.1,1.8C140.3,2.4,139.1,4.8,139.1,7.4"/>
		</g>
		<g transform="matrix(1.25 0 0 -1.25 1176.6 698.59)">
			<path class="st3" d="M124.1,7.4c0-4.6-3.7-8.2-8.2-8.2c-1.9,0-3.7,0.7-5.1,1.8c1.9,1.5,3.1,3.8,3.1,6.5s-1.2,5-3.1,6.5
				c1.4,1.1,3.2,1.8,5.1,1.8C120.4,15.6,124.1,12,124.1,7.4"/>
		</g>
		<g transform="matrix(1.25 0 0 -1.25 1159.2 722.78)">
			<path class="st0" d="M130.7,16.6c0.1,0,0.2,0,0.3-0.1l-0.1-0.5c-0.1,0.1-0.2,0.1-0.3,0.1c-0.3,0-0.5-0.2-0.5-0.6v-1.2h-0.5v2.2
				h0.5v-0.3C130.2,16.5,130.5,16.6,130.7,16.6 M128.9,16.2h-0.8v-1c0-0.2,0.1-0.4,0.3-0.4c0.1,0,0.3,0.1,0.4,0.1l0.2-0.4
				c-0.2-0.1-0.4-0.2-0.6-0.2c-0.6,0-0.7,0.3-0.7,0.8v1h-0.4v0.4h0.4v0.7h0.5v-0.7h0.8L128.9,16.2z M122.9,15.7
				c0.1,0.3,0.3,0.5,0.6,0.5c0.3,0,0.5-0.2,0.6-0.5H122.9z M124.5,15.5c0,0.7-0.4,1.2-1,1.2s-1.1-0.5-1.1-1.2c0-0.7,0.5-1.2,1.1-1.2
				c0.3,0,0.6,0.1,0.9,0.3l-0.2,0.4c-0.2-0.2-0.4-0.2-0.6-0.2c-0.3,0-0.6,0.2-0.6,0.5h1.6C124.5,15.4,124.5,15.4,124.5,15.5
				 M126.6,16c-0.1,0.1-0.4,0.2-0.7,0.2c-0.3,0-0.4-0.1-0.4-0.3c0-0.2,0.2-0.2,0.4-0.2l0.2-0.1c0.5-0.1,0.8-0.3,0.8-0.6
				c0-0.4-0.4-0.7-1-0.7c-0.4,0-0.7,0.1-0.9,0.3l0.2,0.4c0.2-0.1,0.4-0.2,0.7-0.2s0.5,0.1,0.5,0.3c0,0.1-0.1,0.2-0.4,0.2l-0.2,0.1
				c-0.5,0.1-0.7,0.3-0.7,0.6c0,0.4,0.4,0.7,0.9,0.7c0.4,0,0.7-0.1,0.9-0.2L126.6,16z M132.4,16.2c-0.1,0-0.2,0-0.3-0.1
				c-0.1,0-0.2-0.1-0.2-0.1c-0.1-0.1-0.1-0.2-0.2-0.3c-0.1-0.1-0.1-0.2-0.1-0.3c0-0.1,0-0.2,0.1-0.3c0.1-0.1,0.1-0.2,0.2-0.2
				c0.1-0.1,0.2-0.1,0.2-0.2c0.1-0.1,0.2-0.1,0.3-0.1s0.2,0,0.3,0.1c0.1,0.1,0.2,0.1,0.3,0.2c0.1,0.1,0.1,0.2,0.2,0.2
				c0.1,0.1,0.1,0.2,0.1,0.3c0,0.1,0,0.2-0.1,0.3c-0.1,0.2-0.1,0.2-0.2,0.3c-0.1,0.1-0.2,0.1-0.3,0.1
				C132.7,16.2,132.5,16.2,132.4,16.2 M132.4,16.6c0.2,0,0.3-0.1,0.5-0.1c0.2-0.1,0.3-0.2,0.4-0.3c0.1-0.1,0.2-0.2,0.3-0.4
				c0.1-0.2,0.1-0.3,0.1-0.5s-0.1-0.3-0.1-0.4c-0.1-0.2-0.2-0.3-0.3-0.4c-0.1-0.1-0.2-0.2-0.4-0.2c-0.2-0.1-0.3-0.1-0.5-0.1
				c-0.2,0-0.3,0-0.5,0.1c-0.2,0.1-0.3,0.1-0.4,0.2c-0.1,0.1-0.2,0.2-0.3,0.4c-0.1,0.2-0.1,0.3-0.1,0.5s0.1,0.3,0.1,0.5
				c0.1,0.2,0.2,0.3,0.3,0.4c0.1,0.1,0.2,0.2,0.4,0.3C132.1,16.6,132.3,16.6,132.4,16.6 M120.1,15.5c0,0.4,0.3,0.7,0.7,0.7
				c0.4,0,0.7-0.3,0.7-0.7s-0.3-0.7-0.7-0.7C120.3,14.8,120.1,15.1,120.1,15.5 M121.9,15.5v1.1h-0.5v-0.3c-0.2,0.2-0.4,0.3-0.7,0.3
				c-0.6,0-1.1-0.5-1.1-1.2c0-0.7,0.5-1.2,1.1-1.2c0.3,0,0.5,0.1,0.7,0.3v-0.3h0.5C121.9,14.4,121.9,15.5,121.9,15.5z M119.2,14.4
				v1.4c0,0.5-0.3,0.9-0.8,0.9c-0.3,0-0.6-0.1-0.8-0.4c-0.2,0.2-0.4,0.4-0.7,0.4c-0.2,0-0.5-0.1-0.6-0.3v0.3h-0.5v-2.2h0.5v1.2
				c0,0.4,0.2,0.6,0.5,0.6c0.3,0,0.5-0.2,0.5-0.6v-1.2h0.5v1.2c0,0.4,0.2,0.6,0.5,0.6c0.3,0,0.5-0.2,0.5-0.6v-1.2H119.2z"/>
		</g>
		<g transform="matrix(1.25 0 0 -1.25 1167.4 727.74)">
			<path class="st0" d="M127.6,18.5L127.6,18.5L127.6,18.5c0.1-0.1,0.1-0.1,0.1-0.1l0,0l0,0C127.6,18.5,127.6,18.5,127.6,18.5
				L127.6,18.5z M127.6,18.6L127.6,18.6L127.6,18.6l0.1-0.1h-0.1l0.1-0.1l0,0h-0.1l0,0v-0.1h-0.1v0.2H127.6z M127.6,18.3L127.6,18.3
				c0.1,0,0.1,0,0.1,0.1c0,0.1,0.1,0.1,0.1,0.1v0.1v0.1c0,0,0,0.1-0.1,0.1s-0.1,0.1-0.1,0.1h-0.1h-0.1c0,0-0.1,0-0.1-0.1
				c0-0.1-0.1-0.1-0.1-0.1v-0.1v-0.1c0,0,0-0.1,0.1-0.1S127.6,18.3,127.6,18.3C127.6,18.3,127.6,18.3,127.6,18.3 M127.6,18.7
				c0.1,0,0.1,0,0.1,0s0.1-0.1,0.1-0.1l0.1-0.1c0,0,0-0.1,0-0.1c0-0.1,0-0.1,0-0.1c0-0.1-0.1-0.1-0.1-0.1l-0.1-0.1
				c-0.1,0-0.1,0-0.1,0s-0.1,0-0.1,0s-0.1,0.1-0.1,0.1l-0.1,0.1c0,0,0,0.1,0,0.1c0,0.1,0,0.1,0,0.1c0,0.1,0.1,0.1,0.1,0.1l0.1,0.1
				C127.6,18.7,127.6,18.7,127.6,18.7"/>
		</g>
	</g>
</g>
<g transform="translate(1565.7 -1106.8)">
	<g transform="matrix(3.1437 0 0 3.1437 -4835.7 -1027.6)">
		<g transform="matrix(1.25 0 0 -1.25 1102.5 727.74)">
			<path class="st0" d="M81.9,18.5L81.9,18.5L81.9,18.5c0.1-0.1,0.1-0.1,0.1-0.1l0,0l0,0C82,18.5,82,18.5,81.9,18.5L81.9,18.5z
				 M82,18.5L82,18.5L82,18.5l0.1-0.1H82l0.1-0.1l0,0h-0.1l0,0v-0.1h-0.1v0.2H82z M82,18.2L82,18.2c0.1,0,0.1,0,0.1,0.1
				s0.1,0.1,0.1,0.1v0.1v0.1c0,0,0,0.1-0.1,0.1c-0.1,0-0.1,0.1-0.1,0.1H82h-0.1c0,0-0.1,0-0.1-0.1s-0.1-0.1-0.1-0.1v-0.1v-0.1
				c0,0,0-0.1,0.1-0.1C81.9,18.3,81.9,18.2,82,18.2C81.9,18.2,81.9,18.2,82,18.2 M82,18.6c0.1,0,0.1,0,0.1,0c0.1,0,0.1-0.1,0.1-0.1
				l0.1-0.1c0,0,0-0.1,0-0.1s0-0.1,0-0.1s-0.1-0.1-0.1-0.1l-0.1-0.1c-0.1,0-0.1,0-0.1,0c-0.1,0-0.1,0-0.1,0c-0.1,0-0.1,0.1-0.1,0.1
				l-0.1,0.1c0,0,0,0.1,0,0.1s0,0.1,0,0.1s0.1,0.1,0.1,0.1l0.1,0.1C81.9,18.6,81.9,18.6,82,18.6 M61.5,19.4c0,0.4,0.3,0.7,0.7,0.7
				s0.7-0.3,0.7-0.7s-0.3-0.7-0.7-0.7C61.7,18.7,61.5,19,61.5,19.4 M63.3,19.4v1.1h-0.5v-0.3c-0.2,0.2-0.4,0.3-0.7,0.3
				c-0.6,0-1.1-0.5-1.1-1.2c0-0.7,0.5-1.2,1.1-1.2c0.3,0,0.5,0.1,0.7,0.3v-0.3h0.5V19.4z M79.4,19.4c0,0.4,0.3,0.7,0.7,0.7
				s0.7-0.3,0.7-0.7s-0.3-0.7-0.7-0.7C79.6,18.7,79.4,19,79.4,19.4 M81.2,19.4v2h-0.5v-1.2c-0.2,0.2-0.4,0.3-0.7,0.3
				c-0.6,0-1.1-0.5-1.1-1.2c0-0.7,0.5-1.2,1.1-1.2c0.3,0,0.5,0.1,0.7,0.3v-0.3h0.5L81.2,19.4L81.2,19.4z M69.2,20.1
				c0.3,0,0.5-0.2,0.6-0.5h-1.2C68.6,19.9,68.8,20.1,69.2,20.1 M69.2,20.6c-0.6,0-1.1-0.5-1.1-1.2c0-0.7,0.5-1.2,1.1-1.2
				c0.3,0,0.6,0.1,0.9,0.3l-0.2,0.4c-0.2-0.2-0.4-0.2-0.6-0.2c-0.3,0-0.6,0.2-0.6,0.5h1.6c0,0.1,0,0.1,0,0.2
				C70.2,20.1,69.8,20.6,69.2,20.6 M74.9,19.4c0,0.4,0.3,0.7,0.7,0.7s0.7-0.3,0.7-0.7s-0.3-0.7-0.7-0.7C75.2,18.7,74.9,19,74.9,19.4
				 M76.7,19.4v1.1h-0.5v-0.3c-0.2,0.2-0.4,0.3-0.7,0.3c-0.6,0-1.1-0.5-1.1-1.2c0-0.7,0.5-1.2,1.1-1.2c0.3,0,0.5,0.1,0.7,0.3v-0.3
				h0.5C76.7,18.3,76.7,19.4,76.7,19.4z M72.2,19.4c0-0.7,0.5-1.2,1.2-1.2c0.3,0,0.5,0.1,0.8,0.3L74,18.9c-0.2-0.1-0.4-0.2-0.6-0.2
				c-0.4,0-0.7,0.3-0.7,0.7c0,0.4,0.3,0.7,0.7,0.7c0.2,0,0.4-0.1,0.6-0.2l0.2,0.4c-0.2,0.3-0.4,0.4-0.8,0.4
				C72.7,20.6,72.2,20,72.2,19.4 M78.4,20.6c-0.3,0-0.5-0.1-0.6-0.3v0.3h-0.5v-2.2h0.5v1.2c0,0.4,0.2,0.6,0.5,0.6
				c0.1,0,0.2,0,0.3-0.1l0.2,0.5C78.6,20.5,78.5,20.6,78.4,20.6 M65.6,20.3c-0.2,0.2-0.5,0.2-0.9,0.2c-0.6,0-0.9-0.3-0.9-0.7
				c0-0.4,0.3-0.6,0.7-0.6l0.2-0.1c0.3-0.1,0.4-0.1,0.4-0.2c0-0.2-0.2-0.3-0.5-0.3c-0.3,0-0.6,0.1-0.7,0.2l-0.2-0.4
				c0.3-0.2,0.6-0.3,0.9-0.3c0.6,0,1,0.3,1,0.7c0,0.4-0.3,0.6-0.8,0.6l-0.2,0.1c-0.2,0.1-0.4,0.1-0.4,0.2s0.2,0.3,0.4,0.3
				c0.3,0,0.5-0.1,0.7-0.2L65.6,20.3z M71.8,20.6c-0.3,0-0.5-0.1-0.6-0.3v0.3h-0.5v-2.2h0.5v1.2c0,0.4,0.2,0.6,0.5,0.6
				c0.1,0,0.2,0,0.3-0.1l0.2,0.5C72,20.5,71.9,20.6,71.8,20.6 M67.7,20.5h-0.8v0.7h-0.5v-0.7H66V20h0.4v-1c0-0.5,0.2-0.8,0.8-0.8
				c0.2,0,0.4,0.1,0.6,0.2l-0.2,0.4c-0.2-0.1-0.3-0.1-0.4-0.1c-0.3,0-0.3,0.2-0.3,0.4V20h0.8L67.7,20.5z M60.6,18.3v1.4
				c0,0.5-0.3,0.9-0.8,0.9c-0.3,0-0.6-0.1-0.8-0.4c-0.2,0.2-0.4,0.4-0.7,0.4c-0.2,0-0.5-0.1-0.6-0.3v0.3h-0.5v-2.2h0.5v1.2
				c0,0.4,0.2,0.6,0.5,0.6s0.5-0.2,0.5-0.6v-1.2h0.5v1.2c0,0.4,0.2,0.6,0.5,0.6s0.5-0.2,0.5-0.6v-1.2H60.6z"/>
		</g>
		<g transform="matrix(1.25 0 0 -1.25 1103.2 710.77)">
			<path class="st0" d="M81.6,12v0.3h-0.1l-0.1-0.2l-0.1,0.2h-0.1V12h0.1v0.3l0.1-0.2h0.1l0.1,0.2V12H81.6z M81.1,12v0.3h0.1v0.1H81
				v-0.1h0.1L81.1,12L81.1,12z"/>
		</g>
		<path class="st2" d="M1193.4,697.5h-9v-16.2h9V697.5z"/>
		<g transform="matrix(1.25 0 0 -1.25 1064.5 698.59)">
			<path class="st0" d="M96.3,7.4c0,2.6,1.2,5,3.2,6.5c-1.4,1.1-3.2,1.8-5.1,1.8c-4.6,0-8.2-3.7-8.2-8.2s3.7-8.2,8.2-8.2
				c1.9,0,3.7,0.7,5.1,1.8C97.5,2.4,96.3,4.8,96.3,7.4"/>
		</g>
		<g transform="matrix(1.25 0 0 -1.25 1103.8 698.59)">
			<path class="st3" d="M81.4,7.4c0-4.6-3.7-8.2-8.2-8.2c-1.9,0-3.7,0.7-5.1,1.8c1.9,1.5,3.2,3.8,3.2,6.5s-1.2,5-3.2,6.5
				c1.4,1.1,3.2,1.8,5.1,1.8C77.7,15.6,81.4,11.9,81.4,7.4"/>
		</g>
	</g>
</g>
</svg>
