<?xml version="1.0" encoding="utf-8"?>
<!-- Generator: Adobe Illustrator 25.2.1, SVG Export Plug-In . SVG Version: 6.00 Build 0)  -->
<svg version="1.1" id="Calque_1" xmlns="http://www.w3.org/2000/svg" xmlns:xlink="http://www.w3.org/1999/xlink" x="0px" y="0px"
	 viewBox="0 0 8482 1889.6" style="enable-background:new 0 0 8482 1889.6;" xml:space="preserve">
<style type="text/css">
	.st0{fill:url(#SVGID_1_);}
	.st1{fill:#1A1A1A;}
	.st2{fill:#706F6F;}
</style>
<g>
	
		<linearGradient id="SVGID_1_" gradientUnits="userSpaceOnUse" x1="944.6821" y1="781.7258" x2="1644.1681" y2="1215.9329" gradientTransform="matrix(1 0 0 -1 0 1889.2756)">
		<stop  offset="0" style="stop-color:#FF4D01"/>
		<stop  offset="0.168" style="stop-color:#FF5302"/>
		<stop  offset="0.3875" style="stop-color:#FF6306"/>
		<stop  offset="0.6356" style="stop-color:#FF7E09"/>
		<stop  offset="0.9028" style="stop-color:#FFA30E"/>
		<stop  offset="1" style="stop-color:#FFB310"/>
	</linearGradient>
	<path class="st0" d="M1441.2,849.1c-3.4,2-8.8,1.8-12.1-0.2l-19.7-11.7c-1.6-1-3.1-2.6-4.2-4.5c-0.1-0.1-0.1-0.2-0.2-0.3
		c-1.3-2-2-4.2-2-6.2l-0.5-22.9c-0.1-3.9,2.4-8.6,5.8-10.6l236.4-137.8l-331.8-180.8c-3.7-2-8.5-3-13.3-3s-9.7,1-13.3,3L954.6,654.9
		l371.7,216.4c3.4,1.9,6.1,6.4,6.1,10.4v315.7c0,4-2.8,8.5-6.3,10.4l-20,11.1c-1.7,0.9-3.8,1.4-6,1.4c-0.1,0-0.3,0-0.4,0
		c-2.4,0.1-4.6-0.4-6.4-1.4l-20.1-11.1c-3.4-1.8-6.2-6.4-6.2-10.4V916c-0.2-2.1-1.7-4.6-3.3-5.5L936.2,719.8v373.4
		c0,8.4,5.9,18.7,13.1,22.9l337.3,198.9c3.6,2.1,8.4,3.2,13.1,3.1c4.7,0,9.5-1,13.1-3.1l337.3-198.9c7.2-4.3,13.1-14.5,13.1-22.9
		V719.8L1441.2,849.1z"/>
	<g>
		<path class="st1" d="M2137.5,811.5c-25.9-15.7-51.9-22.5-86.7-22.5c-92.9,0-160.5,63.5-160.5,159.8c0,95.6,62.9,158.5,161.2,158.5
			c31.4,0,61.5-6.2,88.8-22.5v-77.2c-23.2,17.8-48.5,27.3-77.2,27.3c-55.3,0-90.2-35.5-90.2-87.4c0-54.6,36.2-86,86.8-86
			c28,0,52.6,7.5,77.8,28L2137.5,811.5L2137.5,811.5z"/>
		<path class="st1" d="M2639.4,1030.5h-0.3c-29.9-2.5-45.4-19.9-45.4-51V657.4h-81.8v327.5c0,89.3,50,118.5,127.5,118.9V1030.5z"/>
		<path class="st1" d="M2320.8,789c-90.9,0-159.2,64.2-159.2,159.1s68.3,159.2,159.2,159.2c90.8,0,159.8-64.2,159.8-159.2
			C2480.6,853.2,2411.6,789,2320.8,789z M2320.8,1036.3c-44.4,0-76.5-33.5-76.5-88.1s32.1-88.1,76.5-88.1
			c44.4,0,76.5,33.5,76.5,88.1C2397.3,1002.7,2365.2,1036.3,2320.8,1036.3z"/>
		<path class="st1" d="M2810.2,1079.3c24.6,15.7,62.1,24.6,99,24.6c71,0,120.9-30.1,120.9-96.3c0-54.6-26.6-84.7-105.2-99.1
			c-28.7-6.8-39.6-15-39.6-30.7c0-14.3,11.6-25.9,38.9-25.9c31.4,0,58,10.2,86.7,29.4v-73.1c-26.6-15-53.3-22.5-89.5-22.5
			c-65.5,0-116.1,30.7-116.1,97.7c0,55.3,28.7,82.6,97.6,95c33.5,6.8,46.5,14.3,46.5,32.8c0,19.1-17.1,26.6-42.3,26.6
			c-30.1,0-68.3-13-97-34.1v75.6H2810.2z"/>
		<polygon class="st1" points="2677.3,1100.5 2759.5,1100.5 2759.5,1074.3 2759.5,795.1 2677.3,795.1 		"/>
		<path class="st1" d="M2718.4,673.2c-22.7,0-41.1,18.4-41.1,41.1c0,22.7,18.4,41.1,41.1,41.1c22.7,0,41.1-18.4,41.1-41.1
			S2741.1,673.2,2718.4,673.2"/>
		<path class="st1" d="M4089.9,789c-90.8,0-159.2,64.2-159.2,159.1s68.3,159.2,159.2,159.2c90.8,0,159.8-64.2,159.8-159.2
			C4249.7,853.2,4180.7,789,4089.9,789z M4089.9,1036.3c-44.4,0-76.5-33.5-76.5-88.1s32.1-88.1,76.5-88.1
			c44.4,0,76.5,33.5,76.5,88.1C4166.4,1002.7,4134.3,1036.3,4089.9,1036.3z"/>
		<path class="st1" d="M3057.6,1079.3c24.6,15.7,62.1,24.6,99,24.6c71.1,0,120.9-30.1,120.9-96.3c0-54.6-26.6-84.7-105.2-99.1
			c-28.7-6.8-39.6-15-39.6-30.7c0-14.3,11.6-25.9,39-25.9c31.4,0,58,10.2,86.7,29.4v-73.1c-26.6-15-53.3-22.5-89.5-22.5
			c-65.5,0-116.1,30.7-116.1,97.7c0,55.3,28.7,82.6,97.6,95c33.5,6.8,46.5,14.3,46.5,32.8c0,19.1-17.1,26.6-42.3,26.6
			c-30.1,0-68.3-13-97-34.1L3057.6,1079.3L3057.6,1079.3z"/>
		<polygon class="st1" points="3312.7,1100.5 3394.9,1100.5 3394.9,1074.3 3394.9,795.1 3312.7,795.1 		"/>
		<path class="st1" d="M3353.8,673.2c-22.7,0-41.1,18.4-41.1,41.1c0,22.7,18.4,41.1,41.1,41.1c22.7,0,41.1-18.4,41.1-41.1
			C3394.9,691.6,3376.5,673.2,3353.8,673.2"/>
		<path class="st1" d="M3814.5,910c0-32.1-14.3-48.5-46.4-48.5c-21.8,0-43.7,4.8-57.3,11.6c2.7,6.8,6.1,17.1,6.1,31.4v195.9h-82.6
			V910c0-32.1-15-48.5-46.4-48.5c-19.8,0-34.8,2.7-51.2,7.5v231.4h-81.9V815.8c42.3-16.4,92.1-26.6,137.2-26.6
			c35.5,0,65.5,8.9,84,23.9c27.3-12.3,58.7-23.9,103.1-23.9c72.4,0,118.1,28,118.1,117.4v193.8h-82.6V910H3814.5z"/>
	</g>
	<g>
		<g>
			<g>
				<path class="st2" d="M5428.1,820.7v50.5h-210.4V599.5h205.3v50.5h-142.8v59h126.1v48.9h-126.1v62.9H5428.1z"/>
				<path class="st2" d="M5520.7,857.8c-22.4-12-40-28.7-52.8-50.1c-12.8-21.3-19.2-45.5-19.2-72.4c0-26.9,6.4-51,19.2-72.4
					c12.8-21.3,30.4-38,52.8-50.1c22.4-12,47.5-18,75.5-18c23.5,0,44.8,4.1,63.8,12.4c19,8.3,35,20.2,47.9,35.7l-40.4,37.3
					c-18.4-21.2-41.1-31.8-68.3-31.8c-16.8,0-31.8,3.7-45,11.1c-13.2,7.4-23.5,17.7-30.9,30.9c-7.4,13.2-11.1,28.2-11.1,45
					c0,16.8,3.7,31.8,11.1,45c7.4,13.2,17.7,23.5,30.9,30.9c13.2,7.4,28.2,11.1,45,11.1c27.2,0,49.9-10.7,68.3-32.2l40.4,37.3
					c-12.9,15.8-29,27.8-48.1,36.1c-19.2,8.3-40.5,12.4-64,12.4C5568.1,875.8,5543,869.8,5520.7,857.8z"/>
				<path class="st2" d="M5788.1,857.6c-22.6-12.2-40.4-28.9-53.2-50.3c-12.8-21.3-19.2-45.3-19.2-72c0-26.6,6.4-50.6,19.2-72
					c12.8-21.3,30.5-38.1,53.2-50.3c22.6-12.2,48.1-18.2,76.3-18.2c28.2,0,53.6,6.1,76.1,18.2c22.5,12.2,40.2,28.9,53.2,50.3
					c12.9,21.3,19.4,45.3,19.4,72c0,26.7-6.5,50.7-19.4,72c-12.9,21.3-30.7,38.1-53.2,50.3c-22.5,12.2-47.9,18.2-76.1,18.2
					C5836.1,875.8,5810.7,869.7,5788.1,857.6z M5907.8,811.2c12.9-7.4,23.1-17.7,30.5-30.9c7.4-13.2,11.1-28.2,11.1-45
					c0-16.8-3.7-31.8-11.1-45c-7.4-13.2-17.5-23.5-30.5-30.9c-12.9-7.4-27.4-11.1-43.5-11.1c-16,0-30.5,3.7-43.5,11.1
					c-12.9,7.4-23.1,17.7-30.5,30.9c-7.4,13.2-11.1,28.2-11.1,45c0,16.8,3.7,31.8,11.1,45c7.4,13.2,17.5,23.5,30.5,30.9
					c12.9,7.4,27.4,11.1,43.5,11.1C5880.4,822.2,5894.9,818.5,5907.8,811.2z"/>
				<path class="st2" d="M6048.7,599.5h62.9v220.5h136.2v51.2h-199.1V599.5z"/>
			</g>
			<g>
				<path class="st2" d="M7083.9,731h57.4v110.2c-14.7,11.1-31.8,19.7-51.2,25.6c-19.4,5.9-38.9,8.9-58.6,8.9
					c-28.2,0-53.6-6-76.1-18c-22.5-12-40.2-28.7-53-50.1c-12.8-21.3-19.2-45.5-19.2-72.4c0-26.9,6.4-51,19.2-72.4
					c12.8-21.3,30.6-38,53.4-50.1c22.8-12,48.4-18,76.8-18c23.8,0,45.4,4,64.8,12c19.4,8,35.7,19.7,48.9,34.9l-40.4,37.3
					c-19.4-20.4-42.8-30.7-70.2-30.7c-17.3,0-32.7,3.6-46.2,10.9c-13.5,7.2-23.9,17.5-31.4,30.7c-7.5,13.2-11.3,28.3-11.3,45.4
					c0,16.8,3.7,31.8,11.3,45c7.5,13.2,17.9,23.5,31.2,30.9c13.3,7.4,28.5,11.1,45.6,11.1c18.1,0,34.4-3.9,48.9-11.6V731z"/>
				<path class="st2" d="M7188,599.5h62.9v271.7H7188V599.5z"/>
				<path class="st2" d="M7358.5,857.8c-22.4-12-40-28.7-52.8-50.1c-12.8-21.3-19.2-45.5-19.2-72.4c0-26.9,6.4-51,19.2-72.4
					c12.8-21.3,30.4-38,52.8-50.1c22.4-12,47.5-18,75.5-18c23.5,0,44.8,4.1,63.8,12.4c19,8.3,35,20.2,47.9,35.7l-40.4,37.3
					c-18.4-21.2-41.1-31.8-68.3-31.8c-16.8,0-31.8,3.7-45,11.1c-13.2,7.4-23.5,17.7-30.9,30.9c-7.4,13.2-11.1,28.2-11.1,45
					c0,16.8,3.7,31.8,11.1,45c7.4,13.2,17.7,23.5,30.9,30.9c13.2,7.4,28.2,11.1,45,11.1c27.2,0,49.9-10.7,68.3-32.2l40.4,37.3
					c-12.9,15.8-29,27.8-48.1,36.1c-19.1,8.3-40.5,12.4-64,12.4C7405.9,875.8,7380.9,869.8,7358.5,857.8z"/>
			</g>
			<path class="st2" d="M6558.4,986.4c-160.5,0-291-130.5-291-291s130.5-291,291-291s291,130.6,291,291S6718.8,986.4,6558.4,986.4z
				 M6558.4,470.8c-123.8,0-224.6,100.7-224.6,224.6c0,123.8,100.7,224.6,224.6,224.6s224.6-100.7,224.6-224.6
				C6782.9,571.5,6682.2,470.8,6558.4,470.8z"/>
		</g>
		<g>
			<g>
				<path class="st2" d="M5295.8,1117.4c7.9,3.5,13.9,8.5,18.1,15c4.2,6.5,6.3,14.3,6.3,23.3c0,8.9-2.1,16.6-6.3,23.2
					c-4.2,6.6-10.2,11.6-18.1,15.1c-7.9,3.5-17.1,5.2-27.7,5.2h-27.6v35.3h-22.7v-122.5h50.4
					C5278.7,1112.2,5288,1113.9,5295.8,1117.4z M5289.6,1173.8c5.1-4.2,7.7-10.2,7.7-18c0-7.8-2.6-13.8-7.7-18
					c-5.2-4.2-12.7-6.3-22.6-6.3h-26.6v48.6h26.6C5277,1180.1,5284.5,1178,5289.6,1173.8z"/>
				<path class="st2" d="M5392.1,1140.2v20.8c-1.9-0.3-3.6-0.5-5.1-0.5c-8.5,0-15.1,2.5-19.9,7.4c-4.8,5-7.2,12.1-7.2,21.4v45.3
					h-21.9v-93.4h20.8v13.6C5365.2,1145.1,5376.3,1140.2,5392.1,1140.2z"/>
				<path class="st2" d="M5409.8,1122.1c-2.7-2.5-4-5.6-4-9.3c0-3.7,1.3-6.9,4-9.4c2.7-2.5,6-3.8,10-3.8s7.3,1.2,10,3.6
					c2.7,2.4,4,5.4,4,9c0,3.8-1.3,7.1-3.9,9.7c-2.6,2.6-6,3.9-10.1,3.9C5415.8,1125.8,5412.5,1124.6,5409.8,1122.1z M5408.8,1141.2
					h21.9v93.4h-21.9V1141.2z"/>
				<path class="st2" d="M5473.8,1229.8c-7.6-4.1-13.5-9.8-17.7-17.1c-4.3-7.3-6.4-15.5-6.4-24.7c0-9.2,2.1-17.5,6.4-24.7
					c4.2-7.2,10.2-12.9,17.7-17c7.6-4.1,16.1-6.1,25.5-6.1c9.6,0,18.1,2.1,25.7,6.1c7.6,4.1,13.5,9.7,17.7,17
					c4.3,7.2,6.4,15.5,6.4,24.7c0,9.2-2.1,17.5-6.4,24.7c-4.2,7.3-10.2,13-17.7,17.1c-7.6,4.1-16.2,6.1-25.7,6.1
					C5489.9,1235.9,5481.4,1233.8,5473.8,1229.8z M5519.3,1209.1c5.2-5.4,7.9-12.4,7.9-21.2c0-8.8-2.6-15.8-7.9-21.2
					c-5.3-5.4-11.9-8-20-8c-8,0-14.7,2.7-19.8,8c-5.2,5.4-7.8,12.4-7.8,21.2c0,8.7,2.6,15.8,7.8,21.2c5.2,5.4,11.8,8.1,19.8,8.1
					C5507.4,1217.2,5514,1214.5,5519.3,1209.1z"/>
				<path class="st2" d="M5622.3,1140.2v20.8c-1.9-0.3-3.6-0.5-5.1-0.5c-8.5,0-15.1,2.5-19.9,7.4c-4.8,5-7.2,12.1-7.2,21.4v45.3
					h-21.9v-93.4h20.8v13.6C5595.4,1145.1,5606.5,1140.2,5622.3,1140.2z"/>
				<path class="st2" d="M5640,1122.1c-2.7-2.5-4-5.6-4-9.3c0-3.7,1.3-6.9,4-9.4c2.7-2.5,6-3.8,10-3.8s7.3,1.2,10,3.6
					c2.7,2.4,4,5.4,4,9c0,3.8-1.3,7.1-3.9,9.7c-2.6,2.6-6,3.9-10.1,3.9C5646,1125.8,5642.7,1124.6,5640,1122.1z M5638.9,1141.2h21.9
					v93.4h-21.9V1141.2z"/>
				<path class="st2" d="M5743.7,1229.6c-2.6,2.1-5.7,3.7-9.4,4.7c-3.7,1.1-7.5,1.6-11.6,1.6c-10.3,0-18.2-2.7-23.8-8.1
					c-5.6-5.4-8.4-13.2-8.4-23.4v-45h-15.4v-17.5h15.4v-21.4h21.9v21.4h25v17.5h-25v44.5c0,4.5,1.1,8,3.3,10.4
					c2.2,2.4,5.4,3.6,9.6,3.6c4.9,0,9-1.3,12.2-3.8L5743.7,1229.6z"/>
				<path class="st2" d="M5844.1,1194.9h-73.3c1.3,6.9,4.6,12.3,10.1,16.4c5.4,4,12.2,6,20.2,6c10.3,0,18.7-3.4,25.4-10.2l11.7,13.5
					c-4.2,5-9.5,8.8-15.9,11.4c-6.4,2.6-13.6,3.8-21.7,3.8c-10.3,0-19.3-2.1-27.1-6.1c-7.8-4.1-13.9-9.8-18.1-17.1
					c-4.3-7.3-6.4-15.5-6.4-24.7c0-9.1,2.1-17.3,6.2-24.6c4.1-7.3,9.9-13,17.2-17.1c7.3-4.1,15.6-6.1,24.8-6.1c9.1,0,17.2,2,24.4,6
					c7.2,4,12.8,9.7,16.8,17s6,15.7,6,25.3C5844.5,1190,5844.4,1192.1,5844.1,1194.9z M5779.5,1163.9c-4.8,4.1-7.8,9.7-8.9,16.5h53
					c-0.9-6.7-3.8-12.2-8.6-16.4c-4.8-4.2-10.7-6.3-17.9-6.3C5790.2,1157.7,5784.3,1159.7,5779.5,1163.9z M5805.6,1104.5h25.7
					l-30.4,24H5782L5805.6,1104.5z"/>
				<path class="st2" d="M5991.2,1150.5c7.1,6.9,10.7,17.1,10.7,30.6v53.5h-21.9v-50.7c0-8.1-1.9-14.3-5.8-18.5
					c-3.8-4.1-9.3-6.2-16.5-6.2c-8,0-14.4,2.4-19,7.3c-4.7,4.8-7,11.8-7,20.9v47.2h-21.9v-93.4h20.8v12.1c3.6-4.3,8.2-7.6,13.6-9.8
					c5.5-2.2,11.7-3.3,18.5-3.3C5974.7,1140.2,5984.1,1143.6,5991.2,1150.5z"/>
				<path class="st2" d="M6116.1,1194.9h-73.3c1.3,6.9,4.6,12.3,10.1,16.4c5.4,4,12.2,6,20.2,6c10.3,0,18.7-3.4,25.4-10.2l11.7,13.5
					c-4.2,5-9.5,8.8-15.9,11.4c-6.4,2.6-13.6,3.8-21.7,3.8c-10.3,0-19.3-2.1-27.1-6.1c-7.8-4.1-13.9-9.8-18.1-17.1
					c-4.3-7.3-6.4-15.5-6.4-24.7c0-9.1,2.1-17.3,6.2-24.6c4.1-7.3,9.9-13,17.2-17.1c7.3-4.1,15.6-6.1,24.8-6.1c9.1,0,17.2,2,24.4,6
					c7.2,4,12.8,9.7,16.8,17c4,7.3,6,15.7,6,25.3C6116.5,1190,6116.4,1192.1,6116.1,1194.9z M6051.5,1163.9
					c-4.8,4.1-7.8,9.7-8.9,16.5h53c-0.9-6.7-3.8-12.2-8.6-16.4c-4.8-4.2-10.7-6.3-17.9-6.3
					C6062.3,1157.7,6056.4,1159.7,6051.5,1163.9z"/>
				<path class="st2" d="M6226,1141.2v93.4h-20.8v-11.9c-3.5,4.2-7.9,7.4-13.1,9.7c-5.2,2.3-10.9,3.4-17,3.4
					c-12.5,0-22.3-3.5-29.5-10.4c-7.2-6.9-10.8-17.2-10.8-30.9v-53.4h21.9v50.4c0,8.4,1.9,14.7,5.7,18.8c3.8,4.1,9.2,6.2,16.2,6.2
					c7.8,0,14-2.4,18.6-7.3c4.6-4.8,6.9-11.8,6.9-20.9v-47.2H6226z"/>
				<path class="st2" d="M6308.9,1229.6c-2.6,2.1-5.7,3.7-9.4,4.7c-3.7,1.1-7.5,1.6-11.6,1.6c-10.3,0-18.2-2.7-23.8-8.1
					c-5.6-5.4-8.4-13.2-8.4-23.4v-45h-15.4v-17.5h15.4v-21.4h21.9v21.4h25v17.5h-25v44.5c0,4.5,1.1,8,3.3,10.4
					c2.2,2.4,5.4,3.6,9.6,3.6c4.9,0,9-1.3,12.2-3.8L6308.9,1229.6z"/>
				<path class="st2" d="M6379.1,1140.2v20.8c-1.9-0.3-3.6-0.5-5.1-0.5c-8.5,0-15.1,2.5-19.9,7.4c-4.8,5-7.2,12.1-7.2,21.4v45.3
					H6325v-93.4h20.8v13.6C6352.1,1145.1,6363.2,1140.2,6379.1,1140.2z"/>
				<path class="st2" d="M6462.4,1150c7.3,6.6,10.9,16.5,10.9,29.8v54.8h-20.6v-11.4c-2.7,4.1-6.5,7.2-11.4,9.3
					c-5,2.2-10.9,3.2-17.9,3.2s-13.1-1.2-18.4-3.6c-5.2-2.4-9.3-5.7-12.2-10c-2.9-4.3-4.3-9.1-4.3-14.4c0-8.4,3.1-15.1,9.4-20.2
					c6.2-5.1,16.1-7.6,29.5-7.6h24.1v-1.4c0-6.5-1.9-11.6-5.9-15c-3.9-3.5-9.7-5.3-17.4-5.3c-5.2,0-10.4,0.8-15.5,2.4
					c-5.1,1.7-9.3,3.9-12.8,6.8l-8.6-15.9c4.9-3.7,10.8-6.6,17.7-8.6c6.9-2,14.2-3,21.9-3C6444.6,1140.2,6455.1,1143.5,6462.4,1150z
					 M6442.5,1216.2c4.2-2.5,7.3-6.1,9-10.8v-10.8h-22.5c-12.6,0-18.9,4.1-18.9,12.4c0,4,1.6,7.1,4.7,9.5c3.2,2.3,7.5,3.5,13.1,3.5
					C6433.3,1220,6438.2,1218.7,6442.5,1216.2z"/>
				<path class="st2" d="M6499.4,1104.8h21.9v129.8h-21.9V1104.8z"/>
				<path class="st2" d="M6549.1,1122.1c-2.7-2.5-4-5.6-4-9.3c0-3.7,1.3-6.9,4-9.4c2.7-2.5,6-3.8,10-3.8s7.3,1.2,10,3.6
					c2.7,2.4,4,5.4,4,9c0,3.8-1.3,7.1-3.9,9.7c-2.6,2.6-6,3.9-10.1,3.9C6555.1,1125.8,6551.8,1124.6,6549.1,1122.1z M6548,1141.2
					h21.9v93.4H6548V1141.2z"/>
				<path class="st2" d="M6652.8,1229.6c-2.6,2.1-5.7,3.7-9.4,4.7c-3.7,1.1-7.5,1.6-11.6,1.6c-10.3,0-18.2-2.7-23.8-8.1
					c-5.6-5.4-8.4-13.2-8.4-23.4v-45h-15.4v-17.5h15.4v-21.4h21.9v21.4h25v17.5h-25v44.5c0,4.5,1.1,8,3.3,10.4
					c2.2,2.4,5.4,3.6,9.6,3.6c4.9,0,9-1.3,12.2-3.8L6652.8,1229.6z"/>
				<path class="st2" d="M6753.2,1194.9h-73.3c1.3,6.9,4.6,12.3,10.1,16.4c5.4,4,12.2,6,20.2,6c10.3,0,18.7-3.4,25.4-10.2l11.7,13.5
					c-4.2,5-9.5,8.8-15.9,11.4c-6.4,2.6-13.6,3.8-21.7,3.8c-10.3,0-19.3-2.1-27.1-6.1c-7.8-4.1-13.9-9.8-18.1-17.1
					c-4.3-7.3-6.4-15.5-6.4-24.7c0-9.1,2.1-17.3,6.2-24.6c4.1-7.3,9.9-13,17.2-17.1c7.3-4.1,15.6-6.1,24.8-6.1c9.1,0,17.2,2,24.4,6
					c7.2,4,12.8,9.7,16.8,17c4,7.3,6,15.7,6,25.3C6753.6,1190,6753.4,1192.1,6753.2,1194.9z M6688.6,1163.9
					c-4.8,4.1-7.8,9.7-8.9,16.5h53c-0.9-6.7-3.8-12.2-8.6-16.4c-4.8-4.2-10.7-6.3-17.9-6.3
					C6699.3,1157.7,6693.4,1159.7,6688.6,1163.9z M6714.7,1104.5h25.7l-30.4,24h-18.9L6714.7,1104.5z"/>
				<path class="st2" d="M6835.8,1229.8c-7.7-4.1-13.7-9.8-18-17.1c-4.3-7.3-6.5-15.5-6.5-24.7c0-9.2,2.2-17.5,6.5-24.7
					c4.3-7.2,10.3-12.9,17.9-17c7.6-4.1,16.3-6.1,26.1-6.1c9.2,0,17.3,1.9,24.2,5.6c6.9,3.7,12.2,9.1,15.7,16.1l-16.8,9.8
					c-2.7-4.3-6-7.5-10.1-9.7c-4-2.2-8.4-3.2-13.2-3.2c-8.2,0-14.9,2.6-20.3,7.9c-5.4,5.3-8,12.4-8,21.3c0,8.9,2.6,15.9,7.9,21.2
					c5.3,5.3,12.1,8,20.4,8c4.8,0,9.2-1.1,13.2-3.2c4-2.2,7.4-5.4,10.1-9.7l16.8,9.8c-3.6,7-8.9,12.4-15.8,16.2
					c-6.9,3.8-14.9,5.7-24.1,5.7C6852.2,1235.9,6843.5,1233.8,6835.8,1229.8z"/>
				<path class="st2" d="M6985.9,1150c7.3,6.6,10.9,16.5,10.9,29.8v54.8h-20.6v-11.4c-2.7,4.1-6.5,7.2-11.4,9.3
					c-5,2.2-10.9,3.2-17.9,3.2s-13.1-1.2-18.4-3.6c-5.2-2.4-9.3-5.7-12.2-10c-2.9-4.3-4.3-9.1-4.3-14.4c0-8.4,3.1-15.1,9.4-20.2
					c6.2-5.1,16.1-7.6,29.5-7.6h24.1v-1.4c0-6.5-1.9-11.6-5.9-15c-3.9-3.5-9.7-5.3-17.4-5.3c-5.2,0-10.4,0.8-15.5,2.4
					c-5.1,1.7-9.3,3.9-12.8,6.8l-8.6-15.9c4.9-3.7,10.8-6.6,17.7-8.6c6.9-2,14.2-3,21.9-3C6968.1,1140.2,6978.7,1143.5,6985.9,1150z
					 M6966,1216.2c4.2-2.5,7.3-6.1,9-10.8v-10.8h-22.5c-12.6,0-18.9,4.1-18.9,12.4c0,4,1.6,7.1,4.7,9.5c3.2,2.3,7.5,3.5,13.1,3.5
					C6956.9,1220,6961.7,1218.7,6966,1216.2z"/>
				<path class="st2" d="M7077,1140.2v20.8c-1.9-0.3-3.6-0.5-5.1-0.5c-8.5,0-15.1,2.5-19.9,7.4c-4.8,5-7.2,12.1-7.2,21.4v45.3H7023
					v-93.4h20.8v13.6C7050.1,1145.1,7061.1,1140.2,7077,1140.2z"/>
				<path class="st2" d="M7169.8,1146.1c7.1,4,12.8,9.6,16.9,16.8c4.1,7.2,6.1,15.6,6.1,25c0,9.4-2,17.8-6.1,25.1
					c-4.1,7.3-9.7,12.9-16.9,16.9c-7.2,4-15.3,6-24.4,6c-6.4,0-12.3-1.1-17.6-3.3c-5.3-2.2-9.8-5.5-13.4-10v12.1h-20.8v-129.8h21.9
					v47.8c3.7-4.1,8.1-7.1,13.2-9.3s10.6-3.2,16.7-3.2C7154.5,1140.2,7162.6,1142.2,7169.8,1146.1z M7162.8,1209.1
					c5.2-5.4,7.8-12.4,7.8-21.2c0-8.8-2.6-15.8-7.8-21.2c-5.2-5.4-11.8-8-19.9-8c-5.2,0-10,1.2-14.1,3.6c-4.2,2.4-7.5,5.8-10,10.3
					c-2.4,4.4-3.7,9.6-3.7,15.4c0,5.8,1.2,11,3.7,15.4c2.4,4.4,5.8,7.9,10,10.3c4.2,2.4,8.9,3.6,14.1,3.6
					C7151,1217.2,7157.6,1214.5,7162.8,1209.1z"/>
				<path class="st2" d="M7228.1,1229.8c-7.6-4.1-13.5-9.8-17.7-17.1c-4.3-7.3-6.4-15.5-6.4-24.7c0-9.2,2.1-17.5,6.4-24.7
					c4.2-7.2,10.2-12.9,17.7-17c7.6-4.1,16.1-6.1,25.5-6.1c9.6,0,18.1,2.1,25.7,6.1c7.6,4.1,13.5,9.7,17.7,17
					c4.3,7.2,6.4,15.5,6.4,24.7c0,9.2-2.1,17.5-6.4,24.7c-4.2,7.3-10.2,13-17.7,17.1c-7.6,4.1-16.2,6.1-25.7,6.1
					C7244.2,1235.9,7235.7,1233.8,7228.1,1229.8z M7273.6,1209.1c5.2-5.4,7.9-12.4,7.9-21.2c0-8.8-2.6-15.8-7.9-21.2
					c-5.3-5.4-11.9-8-20-8c-8,0-14.7,2.7-19.8,8c-5.2,5.4-7.8,12.4-7.8,21.2c0,8.7,2.6,15.8,7.8,21.2c5.2,5.4,11.8,8.1,19.8,8.1
					C7261.7,1217.2,7268.3,1214.5,7273.6,1209.1z"/>
				<path class="st2" d="M7404,1150.5c7.1,6.9,10.7,17.1,10.7,30.6v53.5h-21.9v-50.7c0-8.1-1.9-14.3-5.8-18.5
					c-3.8-4.1-9.3-6.2-16.5-6.2c-8,0-14.4,2.4-19,7.3c-4.7,4.8-7,11.8-7,20.9v47.2h-21.9v-93.4h20.8v12.1c3.6-4.3,8.2-7.6,13.6-9.8
					c5.5-2.2,11.7-3.3,18.5-3.3C7387.4,1140.2,7396.8,1143.6,7404,1150.5z"/>
				<path class="st2" d="M7528.8,1194.9h-73.3c1.3,6.9,4.6,12.3,10.1,16.4c5.4,4,12.2,6,20.2,6c10.3,0,18.7-3.4,25.4-10.2l11.7,13.5
					c-4.2,5-9.5,8.8-15.9,11.4c-6.4,2.6-13.6,3.8-21.7,3.8c-10.3,0-19.3-2.1-27.1-6.1c-7.8-4.1-13.9-9.8-18.1-17.1
					c-4.3-7.3-6.4-15.5-6.4-24.7c0-9.1,2.1-17.3,6.2-24.6c4.1-7.3,9.9-13,17.2-17.1c7.3-4.1,15.6-6.1,24.8-6.1c9.1,0,17.2,2,24.4,6
					c7.2,4,12.8,9.7,16.8,17c4,7.3,6,15.7,6,25.3C7529.2,1190,7529.1,1192.1,7528.8,1194.9z M7464.2,1163.9
					c-4.8,4.1-7.8,9.7-8.9,16.5h53c-0.9-6.7-3.8-12.2-8.6-16.4c-4.8-4.2-10.7-6.3-17.9-6.3C7474.9,1157.7,7469,1159.7,7464.2,1163.9
					z"/>
			</g>
			<g>
				<path class="st2" d="M5217.7,1321.6h12.4v129.7h-12.4V1321.6z"/>
				<path class="st2" d="M5321.1,1367.7c6.4,6,9.6,14.9,9.6,26.7v57h-11.9V1437c-2.8,4.8-6.9,8.5-12.3,11.2c-5.4,2.7-11.8,4-19.3,4
					c-10.3,0-18.4-2.4-24.5-7.3c-6.1-4.9-9.1-11.4-9.1-19.4c0-7.8,2.8-14.1,8.5-18.9s14.7-7.2,27-7.2h29.2v-5.6
					c0-7.9-2.2-14-6.6-18.1c-4.4-4.2-10.9-6.2-19.4-6.2c-5.8,0-11.4,0.9-16.8,2.9c-5.4,1.9-10,4.6-13.8,8l-5.6-9.3
					c4.7-4,10.2-7,16.8-9.2c6.5-2.1,13.4-3.2,20.6-3.2C5305.4,1358.7,5314.6,1361.7,5321.1,1367.7z M5307.1,1437.6
					c5-3.2,8.7-7.9,11.2-13.9v-15h-28.8c-15.7,0-23.6,5.5-23.6,16.4c0,5.4,2,9.6,6.1,12.7c4.1,3.1,9.8,4.6,17.1,4.6
					C5296.1,1442.4,5302.1,1440.8,5307.1,1437.6z"/>
				<path class="st2" d="M5431.7,1364.6c7,3.9,12.5,9.4,16.4,16.5c4,7.1,5.9,15.2,5.9,24.3c0,9.2-2,17.4-5.9,24.5
					c-4,7.1-9.4,12.6-16.3,16.5c-6.9,3.9-14.8,5.9-23.5,5.9c-7.5,0-14.2-1.6-20.2-4.6c-6-3.1-10.9-7.6-14.8-13.5v51.2h-12.4v-125.9
					h11.9v18.2c3.7-6.1,8.6-10.7,14.8-14c6.1-3.3,13-4.9,20.7-4.9C5416.9,1358.7,5424.7,1360.6,5431.7,1364.6z M5424.9,1436.7
					c5.2-3,9.4-7.2,12.3-12.7c3-5.5,4.5-11.7,4.5-18.7c0-7-1.5-13.2-4.5-18.6c-3-5.4-7.1-9.6-12.3-12.7c-5.2-3-11.1-4.5-17.5-4.5
					c-6.5,0-12.4,1.5-17.6,4.5c-5.2,3-9.3,7.3-12.2,12.7c-3,5.4-4.5,11.6-4.5,18.6c0,7,1.5,13.2,4.5,18.7c3,5.5,7.1,9.7,12.2,12.7
					c5.2,3,11,4.5,17.6,4.5C5413.8,1441.2,5419.6,1439.7,5424.9,1436.7z"/>
				<path class="st2" d="M5489.5,1446.2c-7.1-4-12.7-9.6-16.8-16.7c-4.1-7.1-6.1-15.1-6.1-24.1c0-9,2-17,6.1-24.1
					c4.1-7.1,9.7-12.6,16.8-16.6c7.1-4,15.1-5.9,24-5.9s16.8,2,24,5.9c7.1,4,12.7,9.5,16.7,16.6c4,7.1,6,15.2,6,24.1
					c0,9-2,17-6,24.1c-4,7.1-9.6,12.7-16.7,16.7c-7.1,4-15.1,6-24,6S5496.6,1450.2,5489.5,1446.2z M5531.1,1436.7
					c5.2-3,9.2-7.2,12.1-12.7c2.9-5.5,4.4-11.7,4.4-18.7c0-7-1.5-13.2-4.4-18.7c-2.9-5.5-7-9.7-12.1-12.7c-5.2-3-11-4.4-17.6-4.4
					c-6.5,0-12.4,1.5-17.6,4.4c-5.2,3-9.3,7.2-12.2,12.7c-3,5.5-4.5,11.7-4.5,18.7c0,7,1.5,13.2,4.5,18.7c3,5.5,7,9.7,12.2,12.7
					c5.2,3,11,4.5,17.6,4.5C5520,1441.2,5525.9,1439.7,5531.1,1436.7z"/>
				<path class="st2" d="M5585.2,1449c-6.8-2.2-12.1-4.9-16-8.1l5.6-9.8c3.9,3,8.7,5.5,14.5,7.4c5.8,1.9,11.9,2.9,18.2,2.9
					c8.4,0,14.6-1.3,18.6-3.9c4-2.6,6-6.3,6-11.1c0-3.4-1.1-6-3.3-7.9c-2.2-1.9-5-3.4-8.4-4.4c-3.4-1-7.9-1.9-13.5-2.9
					c-7.5-1.4-13.5-2.8-18-4.3c-4.6-1.5-8.4-3.9-11.6-7.4c-3.2-3.5-4.8-8.3-4.8-14.5c0-7.7,3.2-14,9.6-18.9
					c6.4-4.9,15.3-7.3,26.7-7.3c5.9,0,11.9,0.8,17.8,2.4c5.9,1.6,10.8,3.6,14.7,6.2l-5.4,10c-7.6-5.2-16.6-7.9-27.1-7.9
					c-7.9,0-13.9,1.4-17.9,4.2c-4,2.8-6,6.5-6,11c0,3.5,1.1,6.3,3.4,8.4c2.2,2.1,5.1,3.6,8.4,4.6c3.4,1,8.1,2,14,3
					c7.3,1.4,13.2,2.8,17.7,4.2c4.4,1.4,8.2,3.8,11.4,7.2c3.2,3.4,4.7,8,4.7,14c0,8.1-3.4,14.4-10,19.1c-6.7,4.7-16,7.1-27.9,7.1
					C5599.2,1452.2,5592.1,1451.1,5585.2,1449z"/>
				<path class="st2" d="M5712.4,1445.7c-2.3,2.1-5.2,3.7-8.6,4.8c-3.4,1.1-7,1.7-10.8,1.7c-8.6,0-15.2-2.3-19.9-7
					c-4.7-4.7-7-11.2-7-19.7v-55.6h-16.4v-10.5h16.4v-20.1h12.4v20.1h28v10.5h-28v54.9c0,5.5,1.4,9.6,4.1,12.5
					c2.7,2.9,6.7,4.3,11.8,4.3c2.6,0,5-0.4,7.4-1.2s4.5-2,6.2-3.5L5712.4,1445.7z"/>
				<path class="st2" d="M5808.1,1409.2h-76.9c0.7,9.6,4.4,17.3,11,23.2c6.6,5.9,15,8.8,25.2,8.8c5.7,0,11-1,15.7-3.1
					c4.8-2,8.9-5,12.4-9l7,8c-4.1,4.9-9.2,8.6-15.3,11.2s-12.9,3.8-20.2,3.8c-9.4,0-17.8-2-25.1-6c-7.3-4-13-9.6-17-16.7
					c-4.1-7.1-6.1-15.1-6.1-24.1c0-9,1.9-17,5.8-24.1c3.9-7.1,9.3-12.6,16.1-16.6c6.8-4,14.5-5.9,23-5.9c8.5,0,16.1,2,22.9,5.9
					c6.8,4,12.1,9.4,15.9,16.5c3.8,7.1,5.7,15.1,5.7,24.2L5808.1,1409.2z M5741.5,1377.8c-6,5.7-9.4,13-10.2,22.1h65.2
					c-0.8-9.1-4.2-16.5-10.2-22.1c-6-5.6-13.5-8.5-22.4-8.5C5754.9,1369.3,5747.5,1372.2,5741.5,1377.8z"/>
				<path class="st2" d="M5824.8,1449.4c-1.8-1.8-2.7-4.1-2.7-6.8s0.9-4.9,2.7-6.7c1.8-1.8,4-2.7,6.5-2.7c2.6,0,4.8,0.9,6.7,2.7
					c1.8,1.8,2.8,4.1,2.8,6.7s-0.9,5-2.8,6.8c-1.9,1.9-4.1,2.8-6.7,2.8C5828.8,1452.2,5826.6,1451.3,5824.8,1449.4z"/>
				<path class="st2" d="M5882,1335.6c-2.7,2.9-4.1,7.2-4.1,12.9v10.8h28.3v10.5h-28v81.5h-12.4v-81.5h-16.4v-10.5h16.4V1348
					c0-8.4,2.4-15,7.3-19.9c4.8-4.9,11.7-7.3,20.5-7.3c3.5,0,6.9,0.5,10.1,1.5c3.3,1,6,2.4,8.2,4.3l-4.2,9.3
					c-3.6-3-8.2-4.6-13.7-4.6C5888.8,1331.2,5884.7,1332.7,5882,1335.6z"/>
				<path class="st2" d="M5958.4,1363.4c5.8-3.2,12.9-4.7,21.4-4.7v12.1l-3-0.2c-9.7,0-17.2,3-22.7,8.9c-5.5,5.9-8.2,14.3-8.2,25
					v46.9h-12.4v-92h11.9v18C5948.2,1371.2,5952.6,1366.5,5958.4,1363.4z"/>
				<path class="st2" d="M6029.1,1304.2h11.4l-57.7,164.6h-11.4L6029.1,1304.2z"/>
				<path class="st2" d="M6110.6,1368.7c6.8,6.7,10.2,16.5,10.2,29.3v53.3h-12.4v-52.1c0-9.6-2.4-16.8-7.2-21.8
					c-4.8-5-11.6-7.5-20.5-7.5c-9.9,0-17.8,2.9-23.5,8.8c-5.8,5.9-8.7,14-8.7,24.4v48.3h-12.4v-92h11.9v17c3.4-5.6,8.1-9.9,14.1-13
					c6-3.1,12.9-4.6,20.9-4.6C6094.6,1358.7,6103.8,1362,6110.6,1368.7z"/>
				<path class="st2" d="M6231.5,1409.2h-76.9c0.7,9.6,4.4,17.3,11,23.2c6.6,5.9,15,8.8,25.2,8.8c5.7,0,11-1,15.7-3.1
					c4.8-2,8.9-5,12.4-9l7,8c-4.1,4.9-9.2,8.6-15.3,11.2s-12.9,3.8-20.2,3.8c-9.4,0-17.8-2-25.1-6c-7.3-4-13-9.6-17-16.7
					c-4.1-7.1-6.1-15.1-6.1-24.1c0-9,1.9-17,5.8-24.1c3.9-7.1,9.3-12.6,16.1-16.6c6.8-4,14.5-5.9,23-5.9c8.5,0,16.1,2,22.9,5.9
					c6.8,4,12.1,9.4,15.9,16.5c3.8,7.1,5.7,15.1,5.7,24.2L6231.5,1409.2z M6164.8,1377.8c-6,5.7-9.4,13-10.2,22.1h65.2
					c-0.8-9.1-4.2-16.5-10.2-22.1c-6-5.6-13.5-8.5-22.4-8.5C6178.2,1369.3,6170.8,1372.2,6164.8,1377.8z"/>
				<path class="st2" d="M6336.3,1359.4v92h-11.9v-16.8c-3.3,5.6-7.8,9.9-13.5,13c-5.7,3.1-12.2,4.6-19.6,4.6
					c-12,0-21.5-3.4-28.4-10.1c-6.9-6.7-10.4-16.5-10.4-29.4v-53.3h12.4v52.1c0,9.7,2.4,17,7.2,22c4.8,5,11.6,7.5,20.5,7.5
					c9.6,0,17.3-3,22.9-8.8c5.6-5.9,8.4-14.1,8.4-24.6v-48.3H6336.3z"/>
				<path class="st2" d="M6416,1445.7c-2.3,2.1-5.2,3.7-8.6,4.8c-3.4,1.1-7,1.7-10.8,1.7c-8.6,0-15.2-2.3-19.9-7
					c-4.7-4.7-7-11.2-7-19.7v-55.6h-16.4v-10.5h16.4v-20.1h12.4v20.1h28v10.5h-28v54.9c0,5.5,1.4,9.6,4.1,12.5
					c2.7,2.9,6.7,4.3,11.8,4.3c2.6,0,5-0.4,7.4-1.2s4.5-2,6.2-3.5L6416,1445.7z"/>
				<path class="st2" d="M6460,1363.4c5.8-3.2,12.9-4.7,21.4-4.7v12.1l-3-0.2c-9.7,0-17.2,3-22.7,8.9c-5.5,5.9-8.2,14.3-8.2,25v46.9
					h-12.4v-92h11.9v18C6449.9,1371.2,6454.2,1366.5,6460,1363.4z"/>
				<path class="st2" d="M6559.9,1367.7c6.4,6,9.6,14.9,9.6,26.7v57h-11.9V1437c-2.8,4.8-6.9,8.5-12.3,11.2c-5.4,2.7-11.8,4-19.3,4
					c-10.3,0-18.4-2.4-24.5-7.3c-6.1-4.9-9.1-11.4-9.1-19.4c0-7.8,2.8-14.1,8.5-18.9c5.7-4.8,14.7-7.2,27-7.2h29.2v-5.6
					c0-7.9-2.2-14-6.6-18.1c-4.4-4.2-10.9-6.2-19.4-6.2c-5.8,0-11.4,0.9-16.8,2.9c-5.4,1.9-10,4.6-13.8,8l-5.6-9.3
					c4.7-4,10.2-7,16.8-9.2c6.5-2.1,13.4-3.2,20.6-3.2C6544.3,1358.7,6553.5,1361.7,6559.9,1367.7z M6545.9,1437.6
					c5-3.2,8.7-7.9,11.2-13.9v-15h-28.8c-15.7,0-23.6,5.5-23.6,16.4c0,5.4,2,9.6,6.1,12.7c4.1,3.1,9.8,4.6,17.1,4.6
					C6534.9,1442.4,6540.9,1440.8,6545.9,1437.6z"/>
				<path class="st2" d="M6599.7,1321.6h12.4v129.7h-12.4V1321.6z"/>
				<path class="st2" d="M6643.1,1336.7c-1.7-1.8-2.6-3.9-2.6-6.3c0-2.3,0.9-4.4,2.6-6.1c1.8-1.7,3.9-2.6,6.5-2.6
					c2.6,0,4.7,0.9,6.5,2.5c1.7,1.7,2.6,3.7,2.6,6c0,2.6-0.9,4.7-2.6,6.5c-1.8,1.7-3.9,2.6-6.5,2.6
					C6647,1339.3,6644.8,1338.4,6643.1,1336.7z M6643.2,1359.4h12.4v92h-12.4V1359.4z"/>
				<path class="st2" d="M6735.2,1445.7c-2.3,2.1-5.2,3.7-8.6,4.8c-3.4,1.1-7,1.7-10.8,1.7c-8.6,0-15.2-2.3-19.9-7
					c-4.7-4.7-7-11.2-7-19.7v-55.6h-16.4v-10.5h16.4v-20.1h12.4v20.1h28v10.5h-28v54.9c0,5.5,1.4,9.6,4.1,12.5
					c2.7,2.9,6.7,4.3,11.8,4.3c2.6,0,5-0.4,7.4-1.2s4.5-2,6.2-3.5L6735.2,1445.7z"/>
				<path class="st2" d="M6830.9,1409.2H6754c0.7,9.6,4.4,17.3,11,23.2c6.6,5.9,15,8.8,25.2,8.8c5.7,0,11-1,15.7-3.1
					c4.8-2,8.9-5,12.4-9l7,8c-4.1,4.9-9.2,8.6-15.3,11.2s-12.9,3.8-20.2,3.8c-9.4,0-17.8-2-25.1-6c-7.3-4-13-9.6-17-16.7
					c-4.1-7.1-6.1-15.1-6.1-24.1c0-9,1.9-17,5.8-24.1c3.9-7.1,9.3-12.6,16.1-16.6c6.8-4,14.5-5.9,23-5.9c8.5,0,16.1,2,22.9,5.9
					c6.8,4,12.1,9.4,15.9,16.5c3.8,7.1,5.7,15.1,5.7,24.2L6830.9,1409.2z M6764.3,1377.8c-6,5.7-9.4,13-10.2,22.1h65.2
					c-0.8-9.1-4.2-16.5-10.2-22.1c-6-5.6-13.5-8.5-22.4-8.5C6777.7,1369.3,6770.3,1372.2,6764.3,1377.8z"/>
				<path class="st2" d="M6866.7,1446.3c-7.2-4-12.8-9.5-16.9-16.7c-4.1-7.2-6.1-15.2-6.1-24.2c0-9,2-17,6.1-24.1
					c4.1-7.1,9.7-12.6,16.9-16.6c7.1-4,15.3-5.9,24.4-5.9c7.9,0,15,1.5,21.2,4.6c6.2,3.1,11.2,7.6,14.8,13.6l-9.2,6.3
					c-3-4.6-6.9-8-11.5-10.2c-4.7-2.2-9.7-3.4-15.2-3.4c-6.7,0-12.6,1.5-17.9,4.4c-5.3,3-9.4,7.2-12.4,12.7
					c-3,5.5-4.5,11.7-4.5,18.7c0,7.1,1.5,13.4,4.5,18.8c3,5.4,7.1,9.6,12.4,12.6c5.3,3,11.3,4.5,17.9,4.5c5.5,0,10.5-1.1,15.2-3.3
					c4.7-2.2,8.5-5.6,11.5-10.1l9.2,6.3c-3.6,5.9-8.6,10.4-14.8,13.5c-6.3,3.1-13.3,4.6-21.1,4.6
					C6882,1452.2,6873.8,1450.2,6866.7,1446.3z"/>
				<path class="st2" d="M7007.6,1367.7c6.4,6,9.6,14.9,9.6,26.7v57h-11.9V1437c-2.8,4.8-6.9,8.5-12.3,11.2c-5.4,2.7-11.8,4-19.3,4
					c-10.3,0-18.4-2.4-24.5-7.3c-6.1-4.9-9.1-11.4-9.1-19.4c0-7.8,2.8-14.1,8.5-18.9c5.7-4.8,14.7-7.2,27-7.2h29.2v-5.6
					c0-7.9-2.2-14-6.6-18.1c-4.4-4.2-10.9-6.2-19.4-6.2c-5.8,0-11.4,0.9-16.8,2.9c-5.4,1.9-10,4.6-13.8,8l-5.6-9.3
					c4.7-4,10.2-7,16.8-9.2c6.5-2.1,13.4-3.2,20.6-3.2C6992,1358.7,7001.2,1361.7,7007.6,1367.7z M6993.6,1437.6
					c5-3.2,8.7-7.9,11.2-13.9v-15H6976c-15.7,0-23.6,5.5-23.6,16.4c0,5.4,2,9.6,6.1,12.7c4.1,3.1,9.8,4.6,17.1,4.6
					C6982.6,1442.4,6988.6,1440.8,6993.6,1437.6z"/>
				<path class="st2" d="M7072.4,1363.4c5.8-3.2,12.9-4.7,21.4-4.7v12.1l-3-0.2c-9.7,0-17.2,3-22.7,8.9c-5.5,5.9-8.2,14.3-8.2,25
					v46.9h-12.4v-92h11.9v18C7062.3,1371.2,7066.6,1366.5,7072.4,1363.4z"/>
				<path class="st2" d="M7183.5,1364.6c7,3.9,12.5,9.4,16.4,16.5c4,7.1,5.9,15.2,5.9,24.3c0,9.1-2,17.2-5.9,24.3
					c-4,7.1-9.4,12.7-16.4,16.6c-7,4-14.8,5.9-23.4,5.9c-7.7,0-14.6-1.7-20.7-4.9c-6.1-3.3-11-8-14.8-14.2v18.2h-11.9v-129.7h12.4
					v55.3c3.9-5.9,8.8-10.5,14.8-13.6c6-3.1,12.7-4.6,20.2-4.6C7168.7,1358.7,7176.5,1360.6,7183.5,1364.6z M7176.7,1436.7
					c5.2-3,9.4-7.2,12.3-12.7c3-5.5,4.5-11.7,4.5-18.7c0-7-1.5-13.2-4.5-18.7c-3-5.5-7.1-9.7-12.3-12.7c-5.2-3-11.1-4.4-17.5-4.4
					c-6.5,0-12.4,1.5-17.6,4.4c-5.2,3-9.3,7.2-12.2,12.7c-3,5.5-4.5,11.7-4.5,18.7c0,7,1.5,13.2,4.5,18.7c3,5.5,7.1,9.7,12.2,12.7
					c5.2,3,11,4.5,17.6,4.5C7165.6,1441.2,7171.4,1439.7,7176.7,1436.7z"/>
				<path class="st2" d="M7241.3,1446.2c-7.1-4-12.7-9.6-16.8-16.7c-4.1-7.1-6.1-15.1-6.1-24.1c0-9,2-17,6.1-24.1
					c4.1-7.1,9.7-12.6,16.8-16.6c7.1-4,15.1-5.9,24-5.9c8.8,0,16.8,2,24,5.9c7.1,4,12.7,9.5,16.7,16.6c4,7.1,6,15.2,6,24.1
					c0,9-2,17-6,24.1c-4,7.1-9.6,12.7-16.7,16.7c-7.1,4-15.1,6-24,6C7256.4,1452.2,7248.4,1450.2,7241.3,1446.2z M7282.8,1436.7
					c5.2-3,9.2-7.2,12.1-12.7c2.9-5.5,4.4-11.7,4.4-18.7c0-7-1.5-13.2-4.4-18.7c-2.9-5.5-7-9.7-12.1-12.7c-5.2-3-11-4.4-17.6-4.4
					c-6.5,0-12.4,1.5-17.6,4.4c-5.2,3-9.3,7.2-12.2,12.7c-3,5.5-4.5,11.7-4.5,18.7c0,7,1.5,13.2,4.5,18.7c3,5.5,7,9.7,12.2,12.7
					c5.2,3,11,4.5,17.6,4.5C7271.8,1441.2,7277.6,1439.7,7282.8,1436.7z"/>
				<path class="st2" d="M7408.2,1368.7c6.8,6.7,10.2,16.5,10.2,29.3v53.3H7406v-52.1c0-9.6-2.4-16.8-7.2-21.8
					c-4.8-5-11.6-7.5-20.5-7.5c-9.9,0-17.8,2.9-23.5,8.8c-5.8,5.9-8.7,14-8.7,24.4v48.3h-12.4v-92h11.9v17c3.4-5.6,8.1-9.9,14.1-13
					c6-3.1,12.9-4.6,20.9-4.6C7392.1,1358.7,7401.3,1362,7408.2,1368.7z"/>
				<path class="st2" d="M7529,1409.2h-76.9c0.7,9.6,4.4,17.3,11,23.2c6.6,5.9,15,8.8,25.2,8.8c5.7,0,11-1,15.7-3.1
					c4.8-2,8.9-5,12.4-9l7,8c-4.1,4.9-9.2,8.6-15.3,11.2s-12.9,3.8-20.2,3.8c-9.4,0-17.8-2-25.1-6c-7.3-4-13-9.6-17-16.7
					c-4.1-7.1-6.1-15.1-6.1-24.1c0-9,1.9-17,5.8-24.1c3.9-7.1,9.3-12.6,16.1-16.6c6.8-4,14.5-5.9,23-5.9c8.5,0,16.1,2,22.9,5.9
					c6.8,4,12.1,9.4,15.9,16.5c3.8,7.1,5.7,15.1,5.7,24.2L7529,1409.2z M7462.3,1377.8c-6,5.7-9.4,13-10.2,22.1h65.2
					c-0.8-9.1-4.2-16.5-10.2-22.1c-6-5.6-13.5-8.5-22.4-8.5C7475.7,1369.3,7468.3,1372.2,7462.3,1377.8z"/>
			</g>
		</g>
	</g>
</g>
</svg>
