<?xml version="1.0" encoding="utf-8"?>
<!-- Generator: Adobe Illustrator 24.1.2, SVG Export Plug-In . SVG Version: 6.00 Build 0)  -->
<svg version="1.1" id="Calque_1" xmlns="http://www.w3.org/2000/svg" xmlns:xlink="http://www.w3.org/1999/xlink" x="0px" y="0px"
	 viewBox="0 0 99.3 91" style="enable-background:new 0 0 99.3 91;" xml:space="preserve">
<style type="text/css">
	.st0{fill:#FAB699;}
	.st1{fill:#FFFFFF;}
</style>
<g id="Calque_2_1_">
	<g id="Calque_2-2">
		<path class="st0" d="M90.5,72.8c-16.2,18.8-54.2,25.4-73.9,8.5C2.3,69.1-5.8,35,4.9,18.1C34.4-28.6,128.1,24.3,90.5,72.8"/>
	</g>
</g>
<g>
	<g>
		<g>
			<path class="st1" d="M64.4,34.6l-15.1-8.3c-0.8-0.5-1.6-0.5-2.5,0l0,0l-15.1,8.3c-0.8,0.5-1.3,1.3-1.3,2.2v16.7
				c0,0.9,0.5,1.8,1.3,2.2L46.8,64c0.4,0.2,0.8,0.4,1.2,0.4c0.5,0,0.8-0.1,1.2-0.4l15.1-8.3c0.8-0.5,1.3-1.3,1.3-2.2V36.8
				C65.7,35.9,65.2,35,64.4,34.6z M47.7,28c0.1-0.1,0.4-0.1,0.5,0l6,3.4l-14.6,8.1L33.4,36L47.7,28z M46.9,61.8l-14.3-8
				c-0.1-0.1-0.2-0.2-0.2-0.4V37.7l6.8,3.8l0,0l7.7,4.5V61.8L46.9,61.8z M41.9,40.7l14.6-8.1l6.3,3.5l-14.7,8.1L41.9,40.7z
				 M63.6,53.5c0,0.1-0.1,0.4-0.2,0.4l-14.3,8V46l14.6-8V53.5z"/>
		</g>
	</g>
	<g>
		<g>
			<path class="st1" d="M40.7,45L35.2,42c-0.4-0.2-0.7-0.1-1.1,0c-0.4,0.2-0.5,0.5-0.5,0.9v4.3c0,0.4,0.2,0.7,0.6,0.9l5.5,3.1
				c0.1,0.1,0.4,0.1,0.5,0.1c0.2,0,0.4,0,0.6-0.1c0.4-0.2,0.5-0.5,0.5-0.9V46C41.3,45.5,41.1,45.1,40.7,45z M39.2,48.5l-3.4-1.9v-2
				l3.4,1.9V48.5L39.2,48.5z"/>
		</g>
	</g>
	<g>
		<g>
			<path class="st1" d="M45,55.9l-2.7-1.5c-0.5-0.2-1.2-0.1-1.4,0.4c-0.2,0.5-0.1,1.2,0.4,1.4l2.7,1.5c0.1,0.1,0.4,0.1,0.5,0.1
				c0.4,0,0.7-0.2,0.9-0.6C45.7,56.9,45.5,56.3,45,55.9z"/>
		</g>
	</g>
	<g>
		<g>
			<path class="st1" d="M69.8,29.8l1.9-1.9c0.4-0.4,0.4-0.7,0.2-1.2c-0.1-0.4-0.6-0.6-0.9-0.6h-5.2c-0.6,0-1.1,0.5-1.1,1.1v5.2
				c0,0.5,0.2,0.8,0.6,0.9c0.1,0,0.2,0.1,0.4,0.1c0.2,0,0.6-0.1,0.7-0.4l1.8-1.8c6.6,9.6,5.4,22.9-2.9,31.2
				c-7.2,7.2-17.8,9.2-27.1,5.2c-0.5-0.2-1.2,0-1.4,0.6c-0.2,0.5,0,1.2,0.6,1.4c3.4,1.4,6.9,2.2,10.6,2.2c1.6,0,3.2-0.1,4.8-0.5
				c5.3-0.9,10.2-3.5,14-7.4c4.6-4.6,7.3-10.6,7.7-17C75,40.8,73.3,34.8,69.8,29.8z M66.9,29.8v-1.6h1.6L66.9,29.8z"/>
		</g>
	</g>
	<g>
		<g>
			<path class="st1" d="M35.3,66.1L35.3,66.1c-0.6-0.4-1.2-0.1-1.5,0.4c-0.4,0.5-0.1,1.2,0.4,1.4l0,0c0.1,0.1,0.4,0.1,0.6,0.1
				c0.4,0,0.7-0.2,0.9-0.5C35.9,67.1,35.8,66.4,35.3,66.1z"/>
		</g>
	</g>
	<g>
		<g>
			<path class="st1" d="M61.9,22.5L61.9,22.5c-0.6-0.4-1.2-0.2-1.5,0.4c-0.4,0.5-0.1,1.2,0.4,1.4l0,0c0.1,0.1,0.4,0.1,0.6,0.1
				c0.4,0,0.7-0.1,0.9-0.5C62.6,23.4,62.5,22.8,61.9,22.5z"/>
		</g>
	</g>
	<g>
		<g>
			<path class="st1" d="M58.5,20.7C53.7,18.6,48.4,18,43.2,19c-5.3,0.9-10.2,3.5-14,7.4c-4.6,4.6-7.3,10.6-7.7,17
				c-0.4,6.1,1.3,12.1,4.8,17.1l-1.9,1.9c-0.4,0.4-0.4,0.7-0.2,1.2c0.1,0.4,0.6,0.6,0.9,0.6h5.2c0.6,0,1.1-0.5,1.1-1.1v-5.2
				c0-0.5-0.2-0.8-0.6-0.9c-0.4-0.1-0.8-0.1-1.2,0.2L27.8,59c-6.6-9.6-5.4-22.9,2.9-31.2c7.2-7.2,17.7-9.2,27-5.2
				c0.5,0.2,1.2,0,1.4-0.6C59.4,21.4,59,21,58.5,20.7z M29.2,60.5v1.6h-1.6L29.2,60.5z"/>
		</g>
	</g>
</g>
</svg>
