<?xml version="1.0" encoding="utf-8"?>
<!-- Generator: Adobe Illustrator 24.1.2, SVG Export Plug-In . SVG Version: 6.00 Build 0)  -->
<svg version="1.1" id="Calque_1" xmlns="http://www.w3.org/2000/svg" xmlns:xlink="http://www.w3.org/1999/xlink" x="0px" y="0px"
	 viewBox="0 0 99.3 91" style="enable-background:new 0 0 99.3 91;" xml:space="preserve">
<style type="text/css">
	.st0{fill:#6DBFB0;}
	.st1{fill:#FFFFFF;}
</style>
<g id="Calque_2_1_">
	<g id="Calque_2-2">
		<path class="st0" d="M90.5,72.8c-16.2,18.8-54.2,25.4-73.9,8.5C2.3,69.1-5.8,35,4.9,18.1C34.4-28.6,128.1,24.3,90.5,72.8"/>
	</g>
</g>
<path class="st1" d="M66.3,32.4c0-1-0.7-1.9-1.6-2.3v-0.9c0-2.3-1.7-4.2-4.2-4.2H22.9c-2.3,0-4.2,1.7-4.2,4.2v0.9
	c-1,0.3-1.6,1.2-1.6,2.3c0,1,0.7,2.1,1.6,2.3c0,1.4,0.2,2.6,0.5,4c0,0,0,0,0,0.2c1.9,8.9,8.9,15.9,17.8,17.8l0,0
	c1.6,0.3,3.1,0.5,4.7,0.5s3.1-0.2,4.7-0.5l0,0c8.9-1.9,15.9-8.9,17.8-17.8c0,0,0,0,0-0.2c0.3-1.2,0.3-2.6,0.5-4
	C65.6,34.4,66.3,33.5,66.3,32.4z M63.8,33.1h-4.9c-0.2,0-0.5-0.2-0.7-0.3C58,32.6,58,32.5,58,32.3v-0.2c0.2-0.3,0.5-0.5,0.9-0.5h4.9
	c0.5,0,0.9,0.3,0.9,0.9C64.7,33,64.4,33.1,63.8,33.1z M19.5,31.6h4.9c0.3,0,0.7,0.3,0.9,0.5v0.2c0,0.2,0,0.3-0.2,0.5
	s-0.3,0.3-0.5,0.3l0,0c0,0,0,0-0.2,0h-4.9c-0.5,0-0.9-0.3-0.9-0.9C18.7,31.7,19,31.6,19.5,31.6z M36.5,54.8
	C28.8,52.9,22.9,47,21,39.3c0.9-0.2,1.7-0.2,2.6-0.2c7.1,0,13.1,5.9,13.1,13.1C36.6,52.8,36.6,53.7,36.5,54.8z M38,55.1
	c0.2-1,0.3-2.1,0.3-3c0-8.2-6.6-14.8-14.8-14.8c-1,0-1.9,0.2-3,0.3c-0.2-0.9-0.2-1.7-0.3-2.8h4.2c1,0,1.7-0.5,2.1-1.2
	c0.3-0.5,0.3-1,0.3-1.6c0-0.2,0-0.3-0.2-0.5c-0.3-0.9-1.2-1.6-2.3-1.6l0,0h-4V29c0-1.4,1-2.4,2.4-2.4h1.6v1.6c0,0.5,0.3,0.9,0.9,0.9
	c0.5,0,0.9-0.3,0.9-0.9v-1.6h2.4v1.6c0,0.5,0.3,0.9,0.9,0.9c0.5,0,0.9-0.3,0.9-0.9v-1.6h2.4v1.6c0,0.5,0.3,0.9,0.9,0.9
	c0.5,0,0.9-0.3,0.9-0.9v-1.6H37v1.6c0,0.5,0.3,0.9,0.9,0.9c0.5,0,0.9-0.3,0.9-0.9v-1.6h2.4v1.6c0,0.5,0.3,0.9,0.9,0.9
	c0.5,0,0.9-0.3,0.9-0.9v-1.6h2v1.6c0,0.5,0.3,0.9,0.9,0.9s0.9-0.3,0.9-0.9v-1.6h2.4v1.6c0,0.5,0.3,0.9,0.9,0.9s0.9-0.3,0.9-0.9v-1.6
	h2.4v1.6c0,0.5,0.3,0.9,0.9,0.9s0.9-0.3,0.9-0.9v-1.6h2.1v1.6c0,0.5,0.3,0.9,0.9,0.9s0.9-0.3,0.9-0.9v-1.6h1.6c1.4,0,2.4,1,2.4,2.4
	v1h-4l0,0c-0.9,0-1.6,0.3-2.1,1c-0.2,0.3-0.3,0.7-0.3,1s0,0.7,0,1c0.2,1,1.2,1.9,2.4,1.9h4.2c0,0.9-0.2,1.9-0.3,2.8
	c-1-0.2-2.1-0.3-3-0.3c-8.2,0-14.8,6.6-14.8,14.8c0,0.9,0.2,1.9,0.3,3c-1.2,0.2-2.4,0.3-3.7,0.3C40.5,55.3,39.2,55.3,38,55.1z
	 M46.6,52.1C46.6,45,52.5,39,59.7,39c0.9,0,1.7,0,2.6,0.2c-1.9,7.7-7.8,13.6-15.5,15.5C46.6,53.7,46.6,53,46.6,52.1z"/>
<g>
	<circle class="st0" cx="58.7" cy="51.4" r="13.6"/>
	<g>
		<g>
			<path class="st1" d="M66.8,50.7c-0.4,0-0.7,0.3-0.7,0.7s0.3,0.7,0.7,0.7c0.4,0,0.7-0.3,0.7-0.7S67.2,50.7,66.8,50.7z"/>
		</g>
	</g>
	<g>
		<g>
			<path class="st1" d="M80.7,69.3l-9.8-9.8c1.6-2.4,2.4-5.2,2.4-8.1c0-8.1-6.6-14.6-14.6-14.6s-14.6,6.6-14.6,14.6S50.7,66,58.7,66
				c2.9,0,5.7-0.8,8.1-2.4l2.7,2.7l0,0l7.1,7.1c0.6,0.6,1.3,0.9,2.1,0.9c0.8,0,1.5-0.3,2.1-0.9s0.9-1.3,0.9-2.1S81.3,69.8,80.7,69.3
				z M66.4,62.1L66.4,62.1c-2.3,1.6-4.9,2.5-7.7,2.5c-7.3,0-13.2-5.9-13.2-13.2s5.9-13.2,13.2-13.2s13.2,5.9,13.2,13.2
				c0,2.8-0.9,5.5-2.5,7.7C68.6,60.3,67.6,61.3,66.4,62.1z M68,62.8c0.8-0.6,1.5-1.3,2.1-2.1l2.1,2.1c-0.6,0.7-1.3,1.4-2.1,2.1
				L68,62.8z M79.7,72.4c-0.3,0.3-0.6,0.4-1,0.4s-0.8-0.2-1-0.4l-6.5-6.5c0.7-0.6,1.4-1.3,2.1-2.1l6.5,6.5c0.3,0.3,0.4,0.6,0.4,1
				S79.9,72.1,79.7,72.4z"/>
		</g>
	</g>
	<g>
		<g>
			<path class="st1" d="M58.7,39.7C52.2,39.7,47,45,47,51.4s5.3,11.7,11.7,11.7s11.7-5.3,11.7-11.7S65.2,39.7,58.7,39.7z M58.7,61.7
				c-5.7,0-10.3-4.6-10.3-10.3S53,41.1,58.7,41.1S69,45.8,69,51.4S64.4,61.7,58.7,61.7z"/>
		</g>
	</g>
	<g>
		<g>
			<path class="st1" d="M66.9,48.3c-0.6-1.6-1.7-3-3.2-4.1c-1.5-1-3.2-1.6-5-1.6c-0.4,0-0.7,0.3-0.7,0.7s0.3,0.7,0.7,0.7
				c3,0,5.8,1.9,6.8,4.7c0.1,0.3,0.4,0.5,0.7,0.5c0.1,0,0.2,0,0.3,0C66.9,49.1,67.1,48.7,66.9,48.3z"/>
		</g>
	</g>
</g>
</svg>
