<?xml version="1.0" encoding="utf-8"?>
<!-- Generator: Adobe Illustrator 24.1.2, SVG Export Plug-In . SVG Version: 6.00 Build 0)  -->
<svg version="1.1" id="Calque_1" xmlns="http://www.w3.org/2000/svg" xmlns:xlink="http://www.w3.org/1999/xlink" x="0px" y="0px"
	 viewBox="0 0 99.3 91" style="enable-background:new 0 0 99.3 91;" xml:space="preserve">
<style type="text/css">
	.st0{fill:#6DBFB0;}
	.st1{fill:#FFFFFF;}
</style>
<g id="Calque_2_1_">
	<g id="Calque_2-2">
		<path class="st0" d="M90.5,72.8c-16.2,18.8-54.2,25.4-73.9,8.5C2.3,69.1-5.8,35,4.9,18.1C34.4-28.6,128.1,24.3,90.5,72.8"/>
	</g>
</g>
<g>
	<g>
		<g>
			<circle class="st1" cx="41.8" cy="56.1" r="1.8"/>
		</g>
	</g>
	<g>
		<g>
			<circle class="st1" cx="56.9" cy="56.1" r="1.8"/>
		</g>
	</g>
	<g>
		<g>
			<path class="st1" d="M68.3,18.5c-0.9-1.1-2.2-1.6-3.6-1.7c-2.3-0.1-4.8,1.1-6.2,3.1c-5.1,6.4-6.4,16.7-6.7,21.1
				c-1.5-0.2-3-0.2-4.5-0.1c-0.7-9.8-3.3-15.7-4.9-18.4c-0.2-0.4-0.7-0.5-1.1-0.3c-0.4,0.2-0.5,0.7-0.3,1.1c1.5,2.6,4,8.3,4.7,18
				c0,0.4,0.2,0.7,0.5,1c0.3,0.2,0.7,0.4,1,0.3c1.5-0.2,3.1-0.1,4.7,0.1c0.4,0,0.8-0.1,1.1-0.3c0.3-0.2,0.5-0.6,0.5-1
				c0.3-4.1,1.4-14.3,6.4-20.5c0,0,0,0,0,0c1.1-1.5,3-2.5,4.8-2.4c1,0,1.8,0.4,2.4,1.1c1,1.1,1.5,2.8,1.4,4.6
				c-0.5,7.8-6.4,16-9,19.2c-0.2,0.3-0.3,0.7-0.3,1.1c0.1,0.4,0.3,0.7,0.6,1c1.5,0.9,2.8,2,3.8,3.3c0.2,0.2,0.4,0.3,0.6,0.3
				c0.2,0,0.4-0.1,0.5-0.2c0.4-0.3,0.4-0.8,0.1-1.2c-1.1-1.3-2.4-2.5-3.9-3.5c1.5-1.9,3.5-4.8,5.3-8.1c2.3-4.3,3.5-8.2,3.8-11.8
				C70.3,22.1,69.6,19.9,68.3,18.5z"/>
		</g>
	</g>
	<g>
		<g>
			<path class="st1" d="M68,53.3c-0.1-0.4-0.6-0.7-1.1-0.6c-0.4,0.1-0.7,0.6-0.6,1.1c0.4,1.2,0.6,2.5,0.6,3.8c0,8.3-7.9,15-17.6,15
				s-17.6-6.7-17.6-15c0-4.9,2.8-9.5,7.5-12.3c0.3-0.2,0.6-0.6,0.7-1c0.1-0.4,0-0.8-0.3-1.1c-7.1-9.1-8.6-15.8-8.8-19
				c-0.1-1.8,0.4-3.5,1.4-4.6c0.6-0.7,1.4-1.1,2.4-1.1c0.9,0,1.9,0.2,2.8,0.7c0.4,0.2,0.9,0.1,1.1-0.3c0.2-0.4,0.1-0.9-0.3-1.1
				c-1.2-0.7-2.5-1-3.7-0.9c-1.4,0.1-2.6,0.7-3.6,1.7c-1.3,1.4-1.9,3.6-1.8,5.9c0.2,3.5,1.5,7.4,3.7,11.5c1.8,3.3,3.8,6.2,5.3,8.1
				c-5,3.1-8.1,8.2-8.1,13.6c0,9.2,8.7,16.7,19.3,16.7s19.3-7.5,19.3-16.7C68.6,56.1,68.4,54.7,68,53.3z"/>
		</g>
	</g>
	<g>
		<g>
			<path class="st1" d="M64.8,24.1c-0.5-0.6-1.2-0.9-2-0.9c0,0,0,0,0,0c-1.3,0-2.6,0.7-3.4,1.9c-2.9,3.8-3.6,9.8-3.8,12.2
				c-0.1,0.8,0.4,1.4,1.1,1.7l1.6,0.6c0.2,0.1,0.4,0.1,0.6,0.1c0.5,0,1-0.2,1.3-0.7c1.5-1.9,5-6.8,5.4-11.6
				C65.9,26.2,65.5,24.9,64.8,24.1z M64.1,27.4c-0.4,4.4-4,9.3-5.1,10.7c0,0,0,0,0,0l-1.6-0.6c0,0,0,0,0,0c0.1-1.8,0.8-7.7,3.5-11.3
				c0,0,0,0,0,0c0.5-0.7,1.3-1.2,2-1.2c0,0,0,0,0,0c0.3,0,0.5,0.1,0.7,0.3C63.9,25.7,64.1,26.6,64.1,27.4z"/>
		</g>
	</g>
	<g>
		<g>
			<path class="st1" d="M43.6,37.3c-0.2-2.4-0.9-8.3-3.8-12.2c-0.8-1.2-2.1-1.9-3.4-1.9c0,0,0,0,0,0c-0.8,0-1.5,0.3-2,0.9
				c-0.7,0.8-1.1,2.1-0.9,3.5c0.5,4.8,3.9,9.7,5.4,11.6c0.3,0.4,0.8,0.7,1.3,0.7c0.2,0,0.4,0,0.6-0.1l1.6-0.6
				C43.2,38.8,43.6,38.1,43.6,37.3z M41.9,37.5l-1.6,0.6c0,0,0,0,0,0c-1.1-1.4-4.6-6.2-5.1-10.7c-0.1-0.9,0.1-1.7,0.5-2.2
				c0.2-0.2,0.4-0.3,0.7-0.3c0,0,0,0,0,0c0.7,0,1.5,0.5,2,1.2c0,0,0,0,0,0C41.1,29.7,41.8,35.7,41.9,37.5
				C41.9,37.5,41.9,37.5,41.9,37.5z"/>
		</g>
	</g>
	<g>
		<g>
			<path class="st1" d="M52.4,64.9c-0.7,0-1.3-0.2-1.6-0.6c-0.3-0.3-0.5-0.8-0.6-1.1c1-0.4,1.7-1.2,2.1-1.8c0,0,0.1-0.1,0.1-0.1
				c0.3-0.4,0.6-0.9,0.6-1.6c0-0.9-0.8-1.2-1.5-1.3c-0.7-0.1-1.4-0.2-2-0.2h-0.5c-0.6,0-1.3,0.1-2,0.2c-1.2,0.2-1.5,0.8-1.5,1.3
				c0,0.7,0.3,1.2,0.6,1.6c0,0,0.1,0.1,0.1,0.1c0.6,0.8,1.3,1.5,2.1,1.8c-0.1,0.3-0.2,0.8-0.6,1.1c-0.4,0.4-0.9,0.6-1.6,0.6
				c-0.5,0-0.8,0.4-0.8,0.8c0,0.5,0.4,0.8,0.8,0.8c1.2,0,2.1-0.4,2.8-1.1c0.1-0.1,0.2-0.2,0.3-0.3c0.1,0.1,0.2,0.2,0.3,0.3
				c0.7,0.7,1.7,1.1,2.8,1.1c0.5,0,0.8-0.4,0.8-0.8C53.3,65.3,52.9,64.9,52.4,64.9z M49.5,61.7C49.5,61.7,49.5,61.7,49.5,61.7
				c-0.1,0-0.2,0-0.3,0c-0.5-0.2-1-0.6-1.4-1.2c0-0.1-0.1-0.1-0.1-0.2c-0.1-0.1-0.1-0.2-0.2-0.3c0.6-0.1,1.2-0.1,1.7-0.1h0.4
				c0.5,0,1.1,0.1,1.7,0.1c-0.1,0.1-0.1,0.2-0.2,0.3c0,0.1-0.1,0.1-0.1,0.2C50.5,61.1,49.9,61.6,49.5,61.7z"/>
		</g>
	</g>
</g>
</svg>
