<?xml version="1.0" encoding="utf-8"?>
<!-- Generator: Adobe Illustrator 24.1.2, SVG Export Plug-In . SVG Version: 6.00 Build 0)  -->
<svg version="1.1" id="Calque_1" xmlns="http://www.w3.org/2000/svg" xmlns:xlink="http://www.w3.org/1999/xlink" x="0px" y="0px"
	 viewBox="0 0 99.3 91" style="enable-background:new 0 0 99.3 91;" xml:space="preserve">
<style type="text/css">
	.st0{fill:#FAB699;}
	.st1{fill:#FFFFFF;}
</style>
<g id="Calque_2_1_">
	<g id="Calque_2-2">
		<path class="st0" d="M90.5,72.8c-16.2,18.8-54.2,25.4-73.9,8.5C2.3,69.1-5.8,35,4.9,18.1C34.4-28.6,128.1,24.3,90.5,72.8"/>
		<path class="st1" d="M31.3,60.9c0-2.1,0-4.2,0-6.3c0.1-0.8-0.3-1.5-1.1-1.8c-1.1-0.4-2.2-0.8-3.3-1.1c-0.9-0.2-1.2-0.6-0.9-1.4
			c0.6-1.2,1.2-2.4,1.9-3.6c0.9-1.3,1.9-2.6,2.8-3.9c0.4-0.6,1.1-1.1,1.8-1.2c1.4-0.3,2.9-0.8,4.2-1.4c2.9-1.2,5.9-2.2,8.9-3
			c1.5-0.4,3-1,4.5-1.4c0.4-0.2,0.8-0.2,1.3-0.2c3.7,1.1,7.5,2.2,11.2,3.3c1.9,0.8,4,1.3,6,2c0.4,0.2,0.8,0.4,1.2,0.7
			c1.2,1.3,2.2,2.6,3.4,4c0.2,0.3,0.5,0.5,0.7,0.8c0.6,0.7,0.6,1.8-0.1,2.5c-0.1,0.1-0.3,0.2-0.4,0.3c-1,0.6-2,1.2-3,1.8
			c-0.5,0.2-0.8,0.7-0.7,1.2c0.1,4.3,0.3,8.7,0.2,13c0,2.9-0.1,2.5-2.3,3.7c-2.5,1.3-4.9,2.6-7.4,3.8c-1.8,1-3.7,1.9-5.6,2.9
			c-0.8,0.4-1.7,0.8-2.5,1.1c-0.3,0.1-0.7,0.2-1,0.1c-1.2-0.2-2.4-0.6-3.6-1c-3.9-1.6-7.7-3.3-11.5-5l-4-1.8
			c-0.7-0.3-0.7-0.9-0.7-1.5C31.3,65.4,31.3,63.2,31.3,60.9L31.3,60.9z M51.7,74.6l3-1.4L67.3,67c0.5-0.2,0.8-0.7,0.8-1.2
			c-0.1-3.2-0.2-6.4-0.3-9.7c0-1.1-0.2-2.2-0.4-3.5c-0.4,0.2-0.8,0.4-1.1,0.6c-1.3,0.8-2.6,1.6-3.9,2.4c-0.8,0.5-1.7,1-2.5,1.6
			c-1.3,0.9-2.2,0.9-3.3-0.2s-2.4-2.6-3.6-3.8c-0.8-0.8-1.5-1.6-2.5-2.6c-0.4,4.8,0.5,8.1,0.5,12.1c0,0.9,0,1.8,0.1,2.7
			c0.1,2.3,0.3,4.5,0.4,6.8C51.5,72.9,51.6,73.6,51.7,74.6 M33.5,54.2c-0.1,0.3-0.1,0.6-0.1,0.8c0,3.8,0,7.6,0,11.3
			c0,0.5,0.3,1,0.8,1.2l2.8,1.2c3.8,1.7,7.6,3.5,11.4,5.2c0.4,0.3,0.9,0.4,1.3,0.2c-0.4-7-0.9-13.9-1.3-20.9
			c-0.5,0.4-0.8,0.8-1.1,1.3c-0.5,0.8-1.1,1.7-1.6,2.5c-0.3,0.6-1,0.9-1.7,0.6l-9.1-3.2L33.5,54.2 M35.1,42.4
			c4,1.4,10.6,3.8,14.5,5.2c0.3,0.1,0.6,0.1,0.9,0c3.1-1.4,6.2-2.8,9.5-3.9c1.4-0.5,4.1-1.7,5.7-2.4c-0.8-0.3-2.1-0.8-2.8-1
			c-3.6-1.1-6.6-1.9-10.4-3c-0.6-0.2-1.2-0.3-1.8-0.4c-2.6,0.8-6.6,2.2-9.1,3.1C39.8,40.6,34.7,42.2,35.1,42.4 M52.4,49
			c2.1,2.3,4,4.4,5.8,6.5c1.2-0.4,13-7.4,13.6-8L67.7,43C62.6,45,57.5,46.9,52.4,49 M32.7,43.9c-1.6,1.9-2.9,4-4,6.2
			c5.2,1.5,10.3,3.3,15.3,5.5c0.7-1.1,1.4-2.1,2-3.1s1.4-2,2.2-3.1L32.7,43.9"/>
		<path class="st1" d="M28.4,18.8c-0.5-0.5-1-1-1.4-1.6c-0.4-0.6-0.2-1.1,0.5-1.5c0.3-0.2,0.7-0.3,1-0.4c0.7-0.2,1.3-0.3,2-0.4
			c0.8,0,1.5-0.7,1.6-1.5c0.2-0.8,0.4-1.6,0.7-2.3c0.6-1.5,1.5-1.7,2.5-0.4c0.1,0.2,0.3,0.4,0.4,0.6c0.4,0.6,0.8,1.2,1.1,1.9
			c0.3,0.7,1,1,1.7,0.8c0.9-0.1,1.7-0.1,2.6,0c1.3,0.1,1.6,0.7,1.1,1.8c-0.4,0.8-0.9,1.6-1.4,2.4c-0.6,0.7-0.8,1.6-0.5,2.5
			c0.2,0.6,0.4,1.3,0.6,2c0.3,0.7,0.1,1.4-0.4,1.9c-0.5,0.5-1.1,0.3-1.7,0.1c-0.6-0.2-1.2-0.4-1.8-0.6c-0.8-0.4-1.7-0.3-2.3,0.4
			c-0.3,0.3-0.7,0.6-1.2,0.9c-0.7,0.6-1.8,0.5-2.4-0.2c-0.3-0.3-0.4-0.8-0.4-1.2c0-0.5-0.1-1.5-0.2-2.2c-0.7,0.4-8.1,3.5-12.6,5.9
			c-2.2,0.9-8.4,4.4-9.5,4.7c-0.4,0.2-0.9-0.1-1.1-0.5c0,0,0,0,0,0c-0.2-0.4-0.1-0.9,0.3-1.2c0.2-0.1,4.6-2,6.6-3
			c3.9-2,7.9-3.9,11.8-5.8c1.1-0.5,2.6-1.1,3.9-1.7C29.4,19.7,28.6,19.1,28.4,18.8 M38.7,20.6c-0.3-0.7-0.2-1.4,0.2-2.1
			c0.5-0.9,1-1.7,1.7-2.8c-0.6,0-1.1,0-1.5,0.1c-1.6,0.3-3.2-0.5-3.8-2c-0.4-0.8-0.8-1.6-1.3-2.3c-0.3,1-0.5,1.7-0.6,2.4
			c-0.3,1.4-1.4,2.5-2.8,2.8c-0.5,0.1-1,0.3-1.6,0.4c0.4,0.8,1.1,1.6,1.9,2c0.8,0.5,1.3,1.5,1.1,2.5c0,1,0.1,2,0.2,3
			c0.9-0.6,1.6-1.1,2.3-1.7c0.6-0.6,1.5-0.7,2.3-0.4l2.7,1.1C39.2,22.5,39,21.5,38.7,20.6"/>
		<path class="st1" d="M39.2,39c0.2,0.2,1-0.1,1.5-0.1c0.3,0,2.9-0.4,2.8,0.7c0,0.4-0.6,0.6-0.9,0.8s-0.9,0.5-0.9,0.8
			s1.1,0.1,1.6,0.1s1.8-0.1,1.9,0.5c0,0.2-0.5,0.4-0.7,0.5c-1,0.1-2,0.1-3-0.1c-0.7-0.1-1.1-0.1-1.4-0.8s1.5-1.5,1.3-1.7
			s-1.7,0.3-2.2,0.3h-0.6c-0.6-0.1-1-0.7-0.9-1.3c0.1-0.7,1.4-1.4,1.1-1.7s-2.6,0.9-3.1,0.2c-0.1-0.2-0.2-0.3-0.3-0.5
			c-0.1-0.2-0.2-0.5-0.1-0.7c0.1-0.2,0.9-1.5,0.8-1.6s-1.8,0.2-2,0.3C33.9,35,33.6,35,33.3,35c-0.3-0.1-0.5-0.2-0.7-0.4
			c-0.3-0.6,2-1,2.5-1.1c0.8-0.2,1.6-0.2,2.4-0.1c1.4,0.7-0.7,2.6-0.5,2.7s0.6-0.1,0.8-0.2c0.3,0,2.1-0.6,2.8,0.5
			c0.2,0.3,0,0.6-0.2,0.9C39.9,38,39,38.8,39.2,39"/>
		<path class="st1" d="M58.7,24.7c0.6,1,2.1,2.9,0.4,3.7c-0.6,0.3-1.2,0.3-1.8,0c-0.5-0.2-1.3-1-1.8-0.9c0.4,1.2,2.1,3.2,0.6,4.2
			c-0.6,0.5-1.5,0.5-2.2,0.1c-0.7-0.3-1.3-0.9-1.7-1.6c-0.1-0.5,0.1-1.2,0.7-1.1c0.3,0.1,0.6,0.6,0.9,0.8c0.3,0.3,0.6,0.6,1,0.8
			c0.2,0.1,0.7,0.4,0.9,0.2s-0.2-0.7-0.3-0.9c-0.5-0.7-0.8-1.4-1-2.2c0-0.7,0.4-1.4,1-1.7c0.9-0.2,1.6,0.5,2.3,0.9
			c0.2,0.1,0.8,0.6,1,0.2s-0.3-0.6-0.4-0.7c-0.4-0.5-0.7-1.2-0.8-1.9c0-0.6,0.3-1.7,1-1.7c0.9,0,1.3,1.1,2.1,1.5s0.6-0.5,0.3-1.1
			c-0.3-0.6-0.6-1.1-1-1.6c-0.5-0.7,0.3-0.6,0.7-0.3c0.6,0.5,1.1,1.2,1.3,2c0.3,0.9-0.2,1.8-1.1,2.1c0,0-0.1,0-0.1,0
			c-0.4,0.1-0.7,0-1.1-0.2C59.6,25.3,58.8,24.7,58.7,24.7"/>
		<path class="st1" d="M48.6,33.3c-1-0.1-2-0.1-3,0c-1.1,0.1-2.3,0-3.4-0.1c-1.1-0.2-0.3-1,0-1.6c0.5-1,1.1-2,1.7-2.9
			c0.3-0.5,0.6-1.1,0.9-1.6s0.2-0.7,0.7-0.4c0.4,0.3,0.7,0.7,0.9,1.1c0.3,0.4,0.7,0.8,0.9,1.2c0.6,0.9,1.2,1.9,1.7,2.9
			c0.2,0.3,0.5,0.6,0.3,0.9S48.8,33.3,48.6,33.3"/>
		<path class="st1" d="M70.5,30c-0.2,0-0.3,0-0.5,0h-0.2l-0.2-0.1c-0.1,0-0.2-0.1-0.2-0.1c-0.1-0.1-0.1-0.1-0.2-0.2
			c-0.1-0.1-0.2-0.2-0.2-0.4c0-0.1-0.1-0.2-0.1-0.3c0-0.1,0-0.1-0.1-0.2c0-0.1-0.1-0.2-0.1-0.3v-0.6c0-0.1,0-0.3,0.1-0.4
			c0.1-0.3,0.2-0.6,0.3-0.9c0.2-0.2,0.3-0.5,0.5-0.7c0.1-0.1,0.2-0.2,0.2-0.2c0.1-0.1,0.2-0.2,0.3-0.3c0.2-0.1,0.4-0.2,0.6-0.2
			c0.1,0,0.2-0.1,0.3-0.1c0.1,0,0.2,0,0.2,0l0.3,0.1c0,0,0.1,0.1,0,0.1c0,0,0,0,0,0c-0.1,0.2-0.3,0.3-0.4,0.5s-0.2,0.4-0.3,0.5
			l-0.3,0.5c-0.1,0.2-0.2,0.4-0.2,0.6c0,0.2,0,0.4,0.1,0.5c0.1,0.1,0.2,0.2,0.3,0.3c0.1,0.1,0.2,0.1,0.3,0.2
			c0.2,0.1,0.4,0.1,0.5,0.2l0.4,0.1c0.1,0,0.3,0.1,0.4,0.2c0.1,0.1,0.1,0.1,0,0.2l-0.4,0.3l-0.1,0c-0.2,0.1-0.3,0.1-0.5,0.2
			c-0.2,0.1-0.4,0.1-0.6,0.1L70.5,30"/>
		<path class="st1" d="M57.2,42.4c0.5-2.1,1.2-4.1,2.2-6c1.2-2.5,3.4-4.2,5.4-5.8c0.3-0.2,0.7-0.4,1.1-0.5c0.4-0.2,0.9,0,1.1,0.4
			c0,0,0,0,0,0.1c0.2,0.5,0,0.8-0.4,1.1c-0.9,0.6-1.7,1.3-2.6,2c-2.6,2.3-4.4,5.3-5,8.7c-0.1,0.4-0.3,0.7-0.6,0.9
			C57.7,43.6,57.1,43.2,57.2,42.4"/>
		<path class="st1" d="M48.7,45c0-0.1,0-0.2,0-0.3s0.1-0.3,0.1-0.5s0-0.1,0-0.2l0.2-0.6c0-0.1,0.1-0.2,0.1-0.3l0,0L49,42.9l-0.5-0.2
			l-0.3-0.1c-0.2,0-0.3-0.1-0.5-0.2c-0.1,0-0.1-0.1-0.2-0.1c0,0,0-0.1,0-0.1c0,0,0-0.1,0-0.1c0,0,0,0,0-0.1c0-0.1,0-0.1,0-0.2
			c0.1-0.1,0.2-0.2,0.3-0.2l0.6-0.1c0.1,0,0.2-0.1,0.3-0.1c0.1,0,0.1,0,0.2,0c0.1,0,0.4,0,0.4-0.1c0-0.1,0.1-0.2,0.1-0.3
			c0.1-0.2,0.2-0.4,0.4-0.6c0.1-0.1,0.2-0.3,0.2-0.5c0.1-0.1,0.1-0.3,0.2-0.4s0-0.2,0.1-0.2c0.1,0.1,0.3,0.2,0.3,0.4
			c0,0.1,0.1,0.2,0.1,0.3c0,0,0,0.1,0,0.1c0,0.1,0.1,0.2,0.1,0.3s0.1,0.3,0.1,0.4c0,0.1,0.1,0.2,0.1,0.3c0,0.1,0.4,0.2,0.5,0.2h0.3
			h0.2h0.1l0.7,0.1c0.1,0,0.2,0.1,0.2,0.1c0,0,0.1,0.1,0.1,0.2c0,0,0,0.1,0,0.2c-0.1,0.1-0.2,0.1-0.3,0.2l-0.4,0.2l-0.5,0.2
			c-0.1,0-0.2,0.1-0.3,0.2c-0.1,0-0.1,0.1-0.1,0.2c0,0.3,0,0.6,0,0.9s0,0.5,0,0.8c0,0.1,0,0.2,0,0.3c0,0.1-0.1,0.2-0.2,0.2
			c-0.1,0.1-0.3,0-0.4-0.1c-0.2-0.2-0.3-0.4-0.4-0.6c-0.1-0.2-0.2-0.5-0.3-0.7c-0.1-0.1-0.2-0.1-0.2,0l-0.2,0.4l-0.3,0.4l-0.2,0.2
			c-0.1,0.1-0.1,0.2-0.2,0.3l-0.3,0.2c-0.1,0.1-0.2,0.1-0.3,0.1c0,0-0.1,0-0.1,0c-0.1-0.1-0.2-0.2-0.2-0.3L48.7,45L48.7,45"/>
	</g>
</g>
</svg>
