<svg xmlns="http://www.w3.org/2000/svg" viewBox="0 0 99.27 91.04"><defs><style>.cls-1{fill:#6dbfb0;}.cls-2{fill:#fff;}</style></defs><title>box-green</title><g id="Calque_2" data-name="Calque 2"><g id="Calque_2-2" data-name="Calque 2"><path class="cls-1" d="M90.5,72.8C74.31,91.61,36.35,98.22,16.62,81.33,2.28,69.06-5.77,35,4.9,18.11,34.41-28.63,128.12,24.33,90.5,72.8"/><path class="cls-2" d="M31.33,60.91c0-2.09,0-4.19,0-6.28a1.54,1.54,0,0,0-1.09-1.75c-1.11-.38-2.19-.8-3.31-1.12-.9-.25-1.24-.6-.87-1.44A27.58,27.58,0,0,1,28,46.74c.87-1.35,1.87-2.62,2.79-3.94a2.77,2.77,0,0,1,1.85-1.17,22.7,22.7,0,0,0,4.22-1.4,69.75,69.75,0,0,1,8.91-3c1.51-.42,3-1,4.48-1.42a2.52,2.52,0,0,1,1.26-.15c3.74,1.1,7.45,2.25,11.23,3.31,1.94.77,4,1.28,6,2a3,3,0,0,1,1.17.74c1.15,1.29,2.25,2.63,3.36,3.95.23.27.49.54.7.83a1.75,1.75,0,0,1-.55,2.74c-1,.62-2,1.23-3,1.78a1.16,1.16,0,0,0-.67,1.25c.12,4.35.26,8.7.25,13,0,2.92-.09,2.5-2.3,3.66-2.46,1.29-4.94,2.55-7.41,3.83-1.85,1-3.71,1.93-5.57,2.87-.83.41-1.68.8-2.54,1.14a1.81,1.81,0,0,1-1,.12,22.94,22.94,0,0,1-3.58-1c-3.87-1.61-7.69-3.31-11.53-5l-4-1.76c-.69-.3-.74-.88-.74-1.51,0-2.22,0-4.43,0-6.65ZM51.67,74.57l3-1.42L67.32,67a1.18,1.18,0,0,0,.75-1.23c-.1-3.22-.15-6.44-.27-9.66,0-1.11-.25-2.22-.39-3.48-.43.24-.78.41-1.11.61q-2,1.19-3.91,2.39c-.85.53-1.72,1.05-2.54,1.63-1.28.92-2.17.92-3.28-.21S54.2,54.47,53,53.22c-.76-.8-1.54-1.58-2.5-2.57-.36,4.81.46,8.13.45,12.07,0,.89,0,1.77.09,2.66q.2,3.38.42,6.75c0,.75.12,1.5.2,2.44M33.52,54.17a7.1,7.1,0,0,0-.14.83c0,3.79,0,7.57-.05,11.35a1.18,1.18,0,0,0,.79,1.22l2.75,1.23c3.81,1.73,7.61,3.46,11.43,5.17a1.54,1.54,0,0,0,1.34.21Q49,63.72,48.36,53.3a4.92,4.92,0,0,0-1.14,1.3c-.55.84-1.06,1.71-1.63,2.53a1.35,1.35,0,0,1-1.67.63L34.81,54.6l-1.29-.43m1.6-11.79c4,1.38,10.56,3.85,14.52,5.19a1.33,1.33,0,0,0,.9,0c3.13-1.37,6.23-2.82,9.48-3.89,1.4-.46,4.13-1.73,5.66-2.36-.8-.29-2.14-.85-2.75-1-3.64-1.1-6.59-1.89-10.36-3a6,6,0,0,0-1.79-.37c-2.57.79-6.56,2.21-9.11,3.07-1.91.63-7,2.22-6.55,2.38m17.27,6.56c2.08,2.33,4,4.44,5.85,6.52,1.17-.39,13-7.36,13.61-8L67.72,43c-5.11,2-10.19,3.89-15.33,6M32.66,43.88a28.4,28.4,0,0,0-4,6.19A128.19,128.19,0,0,1,44,55.52c.72-1.09,1.37-2.1,2-3.1s1.38-2,2.15-3.14l-15.51-5.4"/><path class="cls-2" d="M28.38,18.79a12.44,12.44,0,0,1-1.4-1.6c-.41-.6-.2-1.13.46-1.48a4.67,4.67,0,0,1,1-.39,19.25,19.25,0,0,1,2-.44A1.62,1.62,0,0,0,32,13.4a14.46,14.46,0,0,1,.69-2.3c.58-1.54,1.46-1.66,2.52-.37a4.81,4.81,0,0,1,.4.6c.38.62.81,1.21,1.13,1.86a1.42,1.42,0,0,0,1.66.83A12.26,12.26,0,0,1,41,14c1.26.14,1.57.66,1.06,1.79a12.06,12.06,0,0,1-1.41,2.37,2.43,2.43,0,0,0-.51,2.45c.22.65.37,1.32.58,2a1.77,1.77,0,0,1-.36,1.91c-.51.53-1.12.32-1.69.13A14.6,14.6,0,0,1,36.85,24a1.84,1.84,0,0,0-2.29.38,6.5,6.5,0,0,1-1.15.88,1.71,1.71,0,0,1-2.79-1.46c0-.49-.13-1.54-.21-2.24-.72.35-8.13,3.5-12.63,5.94-2.16.88-8.45,4.4-9.53,4.71a.83.83,0,0,1-1.08-.53.93.93,0,0,1,.3-1.18c.19-.15,4.58-2,6.59-3,3.93-2,7.88-3.85,11.83-5.76,1.07-.52,2.65-1.11,3.93-1.71-.43-.34-1.21-.94-1.44-1.18m10.3,1.72a2.25,2.25,0,0,1,.16-2.07c.51-.87,1-1.72,1.71-2.8-.62,0-1.07,0-1.52.06a3.33,3.33,0,0,1-3.76-2A22.34,22.34,0,0,0,34,11.41c-.26,1-.46,1.69-.6,2.38a3.38,3.38,0,0,1-2.83,2.75c-.51.12-1,.26-1.64.43A4.67,4.67,0,0,0,30.8,19a2.46,2.46,0,0,1,1.14,2.45,27.15,27.15,0,0,0,.16,3c.9-.65,1.63-1.12,2.28-1.67a2.05,2.05,0,0,1,2.29-.37l2.65,1.06a21.51,21.51,0,0,0-.64-2.95"/><path class="cls-2" d="M39.22,39.05c.19.21,1-.07,1.49-.12.3,0,2.92-.42,2.8.65,0,.4-.64.61-.92.85s-.92.54-.86.8,1.14.08,1.57.12,1.83-.12,1.93.46c0,.23-.5.42-.72.48a9.74,9.74,0,0,1-3-.1c-.68-.06-1.09-.13-1.41-.76s1.5-1.45,1.32-1.68-1.73.31-2.23.31h-.57a1.14,1.14,0,0,1-.91-1.3c.07-.68,1.36-1.39,1.13-1.66s-2.56.88-3.1.25a5,5,0,0,1-.32-.48.73.73,0,0,1-.06-.7c.07-.25.94-1.48.82-1.61s-1.75.22-2,.28a2.56,2.56,0,0,1-.86.19,2,2,0,0,1-.73-.38c-.29-.58,2-1,2.46-1.1a7.43,7.43,0,0,1,2.44-.11c1.4.66-.66,2.57-.53,2.72s.62-.13.76-.16c.3,0,2.08-.64,2.82.48.2.3,0,.64-.22.91-.39.59-1.3,1.45-1.11,1.65"/><path class="cls-2" d="M58.69,24.73c.58,1,2.07,2.9.36,3.68a2.18,2.18,0,0,1-1.77,0c-.48-.21-1.29-.95-1.83-.87.44,1.16,2.11,3.17.62,4.21a2,2,0,0,1-2.17.1,3.59,3.59,0,0,1-1.67-1.62c-.14-.45.12-1.2.69-1.07.34.08.64.57.88.8a4.6,4.6,0,0,0,1,.79c.25.14.74.44.9.16s-.23-.72-.31-.88a6.22,6.22,0,0,1-1-2.23,1.75,1.75,0,0,1,1-1.69c.89-.22,1.61.48,2.31.89.19.11.84.57,1,.25s-.26-.57-.37-.74a3.45,3.45,0,0,1-.77-1.92c0-.58.34-1.68,1-1.67.93,0,1.31,1.15,2.08,1.47s.57-.55.35-1.06a10.15,10.15,0,0,0-1-1.62c-.51-.72.31-.59.74-.28a4.43,4.43,0,0,1,1.29,2,1.66,1.66,0,0,1-1.19,2.12,1.78,1.78,0,0,1-1.06-.17c-.15-.06-1-.67-1.13-.57"/><path class="cls-2" d="M48.57,33.34a21.34,21.34,0,0,0-3,0,21.31,21.31,0,0,1-3.39-.09c-1.07-.19-.27-1,0-1.6.52-1,1.06-2,1.65-2.94.33-.52.64-1.06.94-1.6s.23-.71.73-.4a3.72,3.72,0,0,1,.91,1.13c.29.43.65.8.94,1.22.62.9,1.19,1.9,1.72,2.85.18.34.47.63.34.95s-.61.42-.9.45"/><path class="cls-2" d="M70.49,30A1.87,1.87,0,0,1,70,30l-.15,0-.2-.09a1.14,1.14,0,0,1-.23-.15,2.08,2.08,0,0,1-.21-.21,1.67,1.67,0,0,1-.25-.38c0-.09-.09-.17-.13-.26a1.8,1.8,0,0,1-.06-.22.81.81,0,0,1-.07-.32l0-.59a3.21,3.21,0,0,1,.07-.43,3.09,3.09,0,0,1,.34-.87,5.08,5.08,0,0,1,.52-.7c.07-.09.16-.16.23-.24a1.18,1.18,0,0,1,.31-.28,1.57,1.57,0,0,1,.55-.19A1.33,1.33,0,0,1,71,25a2,2,0,0,1,.24,0l.28.13a.1.1,0,0,1,0,.16c-.14.17-.28.33-.41.5s-.24.35-.35.53l-.29.55a1.5,1.5,0,0,0-.16.62,1,1,0,0,0,.12.52.89.89,0,0,0,.27.31,2.49,2.49,0,0,0,.3.19,4.68,4.68,0,0,0,.53.17l.4.1a1.2,1.2,0,0,1,.4.22c.07.07.08.13,0,.22l-.41.33-.12.05c-.16.07-.33.15-.5.21a1.78,1.78,0,0,1-.61.11h-.17"/><path class="cls-2" d="M57.17,42.41a24.21,24.21,0,0,1,2.17-6c1.24-2.5,3.36-4.16,5.45-5.84a3.23,3.23,0,0,1,1.07-.52A.83.83,0,0,1,67,30.5c.25.52,0,.81-.44,1.1-.87.63-1.74,1.28-2.58,2a15.36,15.36,0,0,0-5,8.71,1.64,1.64,0,0,1-.64.94c-.61.38-1.2-.08-1.14-.8"/><path class="cls-2" d="M48.68,45c0-.11,0-.23,0-.34s.08-.35.11-.52,0-.14.05-.21l.21-.62c0-.1.08-.2.11-.3a0,0,0,0,0,0,0L49,42.91l-.48-.15-.26-.07a1.33,1.33,0,0,1-.48-.18,1.11,1.11,0,0,1-.16-.11.16.16,0,0,1,0-.09.48.48,0,0,0,0-.12.19.19,0,0,0,0-.07c0-.07,0-.11,0-.18a.56.56,0,0,1,.35-.21l.6-.13c.1,0,.2-.09.3-.13a.67.67,0,0,1,.19,0c.09,0,.38,0,.43-.13a3.09,3.09,0,0,1,.14-.32,5,5,0,0,1,.37-.63,4,4,0,0,0,.25-.45c.07-.14.07-.3.15-.44s0-.17.14-.16a1.19,1.19,0,0,1,.34.36c0,.12.1.23.14.35a.65.65,0,0,1,0,.13c0,.11.07.23.11.34s.09.27.14.4a1.28,1.28,0,0,0,.11.27c0,.11.41.16.53.18l.3,0h.16l.13,0,.66.11a.77.77,0,0,1,.24.12.5.5,0,0,1,.11.17.14.14,0,0,1,0,.15.74.74,0,0,1-.27.19l-.42.21-.47.19a3.31,3.31,0,0,0-.33.15.19.19,0,0,0-.11.19c0,.28,0,.57,0,.86s0,.55,0,.83c0,.11,0,.22,0,.33a.22.22,0,0,1-.17.19.34.34,0,0,1-.36-.06,1.93,1.93,0,0,1-.41-.57q-.16-.35-.33-.66c-.07-.12-.16-.12-.23,0l-.23.42-.27.43-.16.24c-.06.09-.14.17-.21.26l-.26.25a.23.23,0,0,1-.26.08s-.06,0-.09,0a.33.33,0,0,1-.2-.31V45h0"/></g></g></svg>