<?xml version="1.0" encoding="utf-8"?>
<!-- Generator: Adobe Illustrator 24.1.2, SVG Export Plug-In . SVG Version: 6.00 Build 0)  -->
<svg version="1.1" id="Calque_1" xmlns="http://www.w3.org/2000/svg" xmlns:xlink="http://www.w3.org/1999/xlink" x="0px" y="0px"
	 viewBox="0 0 99.3 91" style="enable-background:new 0 0 99.3 91;" xml:space="preserve">
<style type="text/css">
	.st0{fill:#FAB699;}
	.st1{fill:none;stroke:#FFFFFF;stroke-width:1.5;stroke-linecap:round;stroke-linejoin:round;}
</style>
<g id="Calque_2_1_">
	<g id="Calque_2-2">
		<path class="st0" d="M90.5,72.8c-16.2,18.8-54.2,25.4-73.9,8.5C2.3,69.1-5.8,35,4.9,18.1C34.4-28.6,128.1,24.3,90.5,72.8"/>
	</g>
</g>
<path class="st1" d="M77.3,53.8h-1.5v-9.9c0-1.2-0.5-2.3-1.3-3.1l-9.2-9.2c-0.8-0.8-1.9-1.3-3.1-1.3h-4.1v-4.4c0-2.4-2-4.4-4.4-4.4
	l0,0H24.3c-2.4,0-4.4,2-4.4,4.4l0,0v29.4c0,2.4,2,4.4,4.4,4.4h1.5c0.1,4.9,4.2,8.7,9.1,8.6c4.7-0.1,8.5-3.9,8.6-8.6h11.8
	c0,4.9,3.9,8.8,8.8,8.8c4.9,0,8.8-3.9,8.8-8.8c0,0,0,0,0,0h4.4c0.8,0,1.5-0.7,1.5-1.5v-2.9C78.7,54.5,78.1,53.8,77.3,53.8z
	 M34.6,64.1c-2.4,0-4.4-2-4.4-4.4c0-2.4,2-4.4,4.4-4.4c2.4,0,4.4,2,4.4,4.4l0,0C39,62.2,37,64.1,34.6,64.1z M64,64.1
	c-2.4,0-4.4-2-4.4-4.4s2-4.4,4.4-4.4c2.4,0,4.4,2,4.4,4.4C68.4,62.2,66.5,64.1,64,64.1z M71.4,45H58.1V34.7h4.1l9.2,9.2L71.4,45z"/>
</svg>
