<?xml version="1.0" encoding="utf-8"?>
<!-- Generator: Adobe Illustrator 25.2.0, SVG Export Plug-In . SVG Version: 6.00 Build 0)  -->
<svg version="1.0" id="Calque_1" xmlns="http://www.w3.org/2000/svg" xmlns:xlink="http://www.w3.org/1999/xlink" x="0px" y="0px"
	 viewBox="0 0 151.2 77.3" style="enable-background:new 0 0 151.2 77.3;" xml:space="preserve">
<style type="text/css">
	.st0{fill:#666666;}
</style>
<g id="Calque_2_1_">
	<g id="Calque_2-2">
		<g id="Layer_2">
			<g id="Ebene_1">
				<path class="st0" d="M14.7,24.3c1.8,1.4,3.7,1.3,5.1-0.6s1.1-3.7-0.7-5.1s-3.6-1.3-5.1,0.6S12.9,22.9,14.7,24.3z M15,20.1
					c0.7-0.9,1.8-0.6,2.8,0.1s1.5,1.8,0.8,2.7s-1.9,0.6-2.8-0.1S14.3,21,15,20.1L15,20.1z"/>
				<path class="st0" d="M23.8,19.5l-1.6-2.3l0.3-0.2c0.6-0.4,1-0.3,2,0.5l1.1,0.8l1.6-1.2l-1.7-1.1c-0.8-0.5-1.1-0.9-1.7-0.7l0,0
					c0.6-0.6,0.6-1.6,0-2.2c-0.7-1-1.9-0.9-2.9-0.1l-2.7,2l4.2,5.7L23.8,19.5z M21.4,16.1l-1-1.3l0.4-0.3c0.6-0.4,1.2-0.7,1.6-0.2
					s-0.1,1.1-0.6,1.5L21.4,16.1z"/>
				
					<rect x="26.7" y="9.5" transform="matrix(0.9168 -0.3994 0.3994 0.9168 -2.8904 12.1395)" class="st0" width="1.9" height="7.1"/>
				<path class="st0" d="M34.9,14.8c0.9-0.2,1.8-0.4,2.6-0.8l-0.7-3.9l-2.9,0.6l0.3,1.3l1.1-0.2l0.3,1.4c-0.2,0.1-0.4,0.2-0.6,0.2
					c-1.1,0.3-2.3-0.3-2.7-1.5c0-0.1,0-0.2-0.1-0.3C31.8,10,33,9.2,34.5,8.9C35,8.8,35.7,8.8,36.2,9l-0.1-1.6
					c-0.7-0.1-1.5,0-2.2,0.1C31.4,8,29.7,9.4,30.2,12S33,15.2,34.9,14.8z"/>
				
					<rect x="36.5" y="9.8" transform="matrix(3.873664e-02 -0.9992 0.9992 3.873664e-02 27.7544 50.3122)" class="st0" width="7.1" height="1.9"/>
				<polygon class="st0" points="45.3,10.3 45.3,10.3 46.3,15.6 48.5,16.3 50.6,9.5 48.9,9 47.6,13.6 47.5,13.6 46.6,8.3 44.3,7.6 
					42.3,14.4 44,14.9 				"/>
				<path class="st0" d="M50.9,17.6l1.3-0.9l2.2,1.5L54,19.8l1.7,1.2l1.8-7.4l-1.9-1.3l-6.3,4.3L50.9,17.6z M55.7,14.1L55.7,14.1
					l-0.9,2.8l-1.5-1L55.7,14.1z"/>
				<polygon class="st0" points="59.1,25.4 60.2,24.6 58.4,22.3 62.8,18.7 61.7,17.2 56.1,21.7 				"/>
				<path class="st0" d="M20.4,53.1l-2.7,2l0,0c0.2-0.7,0-1.4-0.4-1.9c-1.1-1.5-2.6-1.1-3.9-0.1s-2.1,2.4-1,3.8c0.4,0.6,1,1,1.7,1
					l0,0l-0.5,0.4l0.9,1.2l6.8-5.2L20.4,53.1z M15.9,56.5c-0.7,0.5-1.7,0.9-2.3,0.1s0.1-1.7,0.7-2.2s1.7-0.9,2.3-0.1
					S16.5,56,15.9,56.5z"/>
				<path class="st0" d="M21.7,62.8c1.3-1.6,1.8-3.1,0.1-4.5c-1.4-1.2-3-0.7-4.1,0.7c-1.1,1.1-1.1,2.9,0,4c0.1,0.1,0.3,0.3,0.4,0.4
					c0.5,0.5,1.2,0.8,1.9,1l0.8-1c-0.7-0.1-1.3-0.4-1.9-0.8c-0.7-0.5-0.9-1.4-0.4-2.1c0,0,0-0.1,0.1-0.1L21.7,62.8z M21.2,59.2
					c0.5,0.5,0.6,1.3,0.1,1.8c0,0,0,0,0,0l-2-1.7C19.8,58.7,20.6,58.7,21.2,59.2C21.2,59.2,21.2,59.2,21.2,59.2z"/>
				<path class="st0" d="M24.1,64.6c0.4-0.8,1.1-2.1,2.2-1.5c0.2,0.1,0.4,0.2,0.5,0.4l0.7-1.4c-0.1-0.1-0.2-0.2-0.4-0.3
					c-0.8-0.3-1.6-0.1-2.1,0.6l0,0l0.6-1.2l-1.2-0.6l-2.8,5.2l1.4,0.7L24.1,64.6z"/>
				<path class="st0" d="M33.9,69.8l1.5,0.3l0.8-3.6c0.3-1.3,0.1-2.3-1.3-2.7c-0.7-0.2-1.5,0.1-2,0.6c-0.1-0.7-0.7-1.3-1.5-1.4
					c-0.7-0.2-1.4,0-1.9,0.5l0,0l0.2-0.8l-1.4-0.3L27,68.3l1.5,0.3l0.6-2.8c0.2-0.8,0.6-1.9,1.5-1.7s0.7,1,0.6,1.5l-0.8,3.4l1.5,0.3
					l0.6-2.8c0.2-0.7,0.6-1.9,1.6-1.7s0.7,1,0.6,1.5L33.9,69.8z"/>
				<path class="st0" d="M38.1,67.2c-0.7,0.3-1.1,1-1,1.7c0.1,1,1,1.8,2.1,1.7c0,0,0,0,0,0c0.7,0,1.4-0.4,1.8-1.1l0,0
					c0,0.3,0,0.6,0.1,0.9l1.3-0.1c0-0.4-0.1-0.9-0.1-1.3s-0.1-0.9-0.1-1.5v-0.8c-0.1-1.7-0.8-2.5-2.6-2.4c-0.7,0-1.4,0.2-2,0.5
					l0.1,1.3c0.5-0.4,1.1-0.7,1.8-0.7c0.9,0,1.3,0.3,1.4,1.2H40C39.4,66.8,38.7,66.9,38.1,67.2z M40.9,67.7c0,0.4,0,0.9-0.3,1.2
					c-0.2,0.3-0.6,0.6-1.1,0.6c-0.5,0-1-0.2-1-0.7c0-0.9,1-1.1,1.7-1.1L40.9,67.7z"/>
				<path class="st0" d="M43.2,65.5l1.1-0.3l0.8,2.9c0.1,1,1,1.6,2,1.5c0.1,0,0.2,0,0.3-0.1c0.4-0.1,0.7-0.2,1.1-0.4l-0.3-1.2
					c-0.2,0.2-0.4,0.3-0.6,0.3c-0.6,0.2-0.8-0.3-0.9-0.8l-0.7-2.7l1.3-0.3l-0.3-1.1l-1.3,0.3l-0.4-1.6L43.7,63l0.3,1.1l-1.1,0.3
					L43.2,65.5z"/>
				<path class="st0" d="M52.9,67.3c0.6-0.3,1.2-0.8,1.6-1.4l-0.6-1.1c-0.3,0.6-0.8,1.1-1.4,1.5c-0.7,0.5-1.7,0.3-2.1-0.4
					c0,0,0,0,0-0.1l3.6-1.9c-1-1.8-2.2-2.8-4.2-1.8c-1.6,0.9-1.8,2.5-1,4c0.6,1.4,2.2,2.2,3.6,1.6C52.5,67.5,52.7,67.4,52.9,67.3z
					 M50.2,63c0.6-0.3,1.4-0.1,1.7,0.5c0,0,0,0.1,0.1,0.1l-2.3,1.2C49.3,64.2,49.5,63.4,50.2,63C50.2,63,50.2,63,50.2,63z"/>
				<path class="st0" d="M55,59.7c0.3-0.3,0.7-0.6,1.2-0.7L55.5,58c-0.5,0.3-1,0.6-1.4,0.9c-0.9,0.8-1.3,2-0.5,2.9
					c1.4,1.6,2.9-0.8,3.7,0c0.4,0.4,0,1-0.3,1.2c-0.4,0.3-0.9,0.6-1.4,0.7l0.8,1c0.5-0.3,1-0.6,1.5-1c0.9-0.8,1.5-2.1,0.5-3.1
					c-1.4-1.6-3,0.7-3.6,0C54.5,60.4,54.7,60,55,59.7z"/>
				<path class="st0" d="M62.1,57.6c-0.4,0.5-0.8,0.3-1.2,0l-2.2-1.7l0.8-1.1l-0.9-0.7l-0.8,1.1l-1.3-1l-0.5,1.5l1,0.7l-0.7,0.9
					l0.9,0.7l0.7-0.9l2.4,1.9c0.7,0.7,1.8,0.6,2.4-0.1c0.1-0.1,0.1-0.2,0.2-0.3c0.2-0.3,0.4-0.6,0.6-1l-1-0.7
					C62.4,57.2,62.3,57.4,62.1,57.6z"/>
				<path class="st0" d="M59.2,53.2c0.6,0.4,1.4,0.1,1.8-0.5c0.4-0.6,0.1-1.4-0.5-1.8c-0.6-0.4-1.4-0.1-1.8,0.5l0,0
					C58.4,52,58.6,52.8,59.2,53.2z M59,51.5c0.2-0.5,0.8-0.7,1.3-0.5c0.5,0.2,0.7,0.8,0.5,1.3c-0.2,0.5-0.8,0.7-1.3,0.5h-0.1
					c-0.5-0.2-0.7-0.8-0.5-1.2C59,51.6,59,51.6,59,51.5L59,51.5z"/>
				<path class="st0" d="M60.4,52.6l-0.5-0.3l0.1-0.1h0.7l0.2-0.3h-0.7c0.1-0.2,0.1-0.4-0.1-0.5h0c-0.3-0.2-0.5,0-0.7,0.3L59,52.1
					l1.3,0.7L60.4,52.6z M59.8,51.9l-0.1,0.2L59.3,52l0.1-0.2c0.1-0.1,0.2-0.2,0.3-0.2S59.8,51.8,59.8,51.9z"/>
				<path class="st0" d="M21.5,27l0.7,0.5c6.2-9.1,18.7-11.5,27.8-5.3c2.2,1.5,4,3.4,5.5,5.5l0.7-0.4c-6.3-9.6-19.2-12.3-28.8-6
					C25,22.8,23,24.7,21.5,27z"/>
				<path class="st0" d="M56.2,49.9l-0.7-0.4c-6,9.3-18.3,12-27.6,6.1c-2.4-1.6-4.5-3.6-6.1-6.1l-0.7,0.5
					c6.2,9.7,19.1,12.5,28.7,6.3C52.4,54.5,54.6,52.4,56.2,49.9L56.2,49.9z"/>
				<polygon class="st0" points="122.9,34.9 126.2,32.6 129.5,34.9 128.4,31 131.6,28.6 127.6,28.5 126.2,24.7 124.9,28.5 
					120.9,28.6 124.1,31 				"/>
				<polygon class="st0" points="135.4,34.9 138.7,32.6 142,34.9 140.9,31 144,28.6 140,28.5 138.7,24.7 137.4,28.5 133.4,28.6 
					136.5,31 				"/>
				<polygon class="st0" points="110.5,34.9 113.8,32.6 117.1,34.9 115.9,31 119.1,28.6 115.1,28.5 113.8,24.7 112.4,28.5 
					108.4,28.6 111.6,31 				"/>
				<polygon class="st0" points="98,34.9 101.3,32.6 104.6,34.9 103.5,31 106.7,28.6 102.7,28.5 101.3,24.7 100,28.5 96,28.6 
					99.2,31 				"/>
				<polygon class="st0" points="85.6,34.9 88.9,32.6 92.2,34.9 91,31 94.2,28.6 90.2,28.5 88.9,24.7 87.5,28.5 83.8,28.6 86.7,31 
									"/>
				<path class="st0" d="M73,20.9C63.2,1.9,39.9-5.5,20.9,4.3S-5.5,37.4,4.3,56.3S37.4,82.8,56.4,73c6.9-3.6,12.6-9.1,16.3-16h78.6
					V20.9H73z M22.3,70.2c-0.6-0.3-1.2-0.6-1.8-1s-1.4-0.9-2.1-1.3s-1.6-1.2-2.4-1.8s-1.7-1.5-2.5-2.3c-13.9-13.9-13.9-36.4,0-50.2
					s36.4-13.9,50.2,0c0.8,0.8,1.6,1.6,2.3,2.5s1.2,1.6,1.8,2.4c0.8,1.2,1.5,2.4,2.2,3.6l0.1,0.2c9,17.4,2.2,38.9-15.2,47.9
					C44.8,75.5,32.6,75.5,22.3,70.2z M150.1,55.9H73.2c1.4-2.9,2.5-5.9,3.2-9h73.7V55.9z M150.1,45.9H76.6
					c1.5-8.1,0.5-16.4-3.1-23.9h76.6V45.9z"/>
				<path class="st0" d="M87.1,53.8c0.3,0,0.7-0.1,1-0.1v-0.8c-0.3,0.1-0.7,0.2-1,0.2c-0.8,0-1.5-0.6-1.6-1.4c0,0,0,0,0,0
					c0-0.1,0-0.1,0-0.2c-0.1-0.8,0.6-1.6,1.4-1.6c0,0,0.1,0,0.1,0c0.3,0,0.7,0.1,1,0.2l0.1-0.8c-0.3-0.1-0.7-0.2-1-0.2
					c-1.2-0.1-2.4,0.7-2.5,2c0,0.1,0,0.3,0,0.4C84.5,53.1,85.6,53.8,87.1,53.8z"/>
				<polygon class="st0" points="91.4,53 89.7,53 89.7,49.2 88.7,49.2 88.7,53.7 91.4,53.7 				"/>
				<rect x="91.6" y="49.2" class="st0" width="0.9" height="4.5"/>
				<polygon class="st0" points="94.6,50.4 94.6,50.4 96.4,53.7 97.5,53.7 97.5,49.2 96.6,49.2 96.6,52.6 96.6,52.6 94.9,49.2 
					93.7,49.2 93.7,53.7 94.6,53.7 				"/>
				<rect x="98.1" y="49.2" class="st0" width="0.9" height="4.5"/>
				<path class="st0" d="M102.3,53.8c0.3,0,0.7-0.1,1-0.1v-0.8c-0.3,0.1-0.7,0.2-1,0.2c-0.8,0-1.5-0.6-1.6-1.4c0,0,0,0,0,0
					c0-0.1,0-0.1,0-0.2c-0.1-0.8,0.6-1.6,1.4-1.6c0,0,0.1,0,0.1,0c0.3,0,0.7,0.1,1,0.2l0.1-0.8c-0.3-0.1-0.7-0.2-1-0.2
					c-1.2-0.1-2.4,0.7-2.5,2c0,0.1,0,0.3,0,0.4C99.8,53.1,100.8,53.8,102.3,53.8z"/>
				<path class="st0" d="M104.8,52.7h1.9l0.4,1h1l-1.8-4.5h-1l-1.8,4.5h0.9L104.8,52.7z M105.8,50.1L105.8,50.1l0.7,1.9h-1.3
					L105.8,50.1z"/>
				<polygon class="st0" points="111.4,53 109.6,53 109.6,49.2 108.7,49.2 108.7,53.7 111.4,53.7 				"/>
				<polygon class="st0" points="114.9,53 113.2,53 113.2,49.2 112.2,49.2 112.2,53.7 114.9,53.7 				"/>
				<polygon class="st0" points="116.4,53.7 117.3,53.7 117.3,52 119,49.2 118,49.2 116.9,51.1 115.8,49.2 114.7,49.2 116.4,52 				
					"/>
				<polygon class="st0" points="122.1,53.7 123.1,53.7 123.1,49.9 124.4,49.9 124.4,49.2 120.8,49.2 120.8,49.9 122.1,49.9 				"/>
				<polygon class="st0" points="128,53 126.2,53 126.2,51.8 127.8,51.8 127.8,51 126.2,51 126.2,49.9 127.9,49.9 127.9,49.2 
					125.2,49.2 125.2,53.7 128,53.7 				"/>
				<path class="st0" d="M130.7,52.5c0,0.4-0.5,0.6-0.8,0.6c-0.4,0-0.7-0.1-1-0.3l-0.1,0.8c0.4,0.1,0.8,0.2,1.2,0.2
					c0.9,0,1.7-0.4,1.7-1.4c0-1.5-2-1.2-2-2c0-0.5,0.4-0.6,0.7-0.6c0.3,0,0.6,0.1,0.9,0.2l0.1-0.7c-0.4-0.1-0.7-0.2-1.1-0.2
					c-0.8,0-1.6,0.4-1.6,1.4C128.7,52,130.7,51.7,130.7,52.5z"/>
				<polygon class="st0" points="133,53.7 133.9,53.7 133.9,49.9 135.2,49.9 135.2,49.2 131.7,49.2 131.7,49.9 133,49.9 				"/>
				<path class="st0" d="M85.5,39.7c-0.2,0-0.4,0-0.6,0.1v-1.2h1.8V38h-2.4v2.3c0.3-0.1,0.6-0.2,0.9-0.2c0.6,0,1,0.4,1.1,0.9
					c0,0,0,0,0,0.1c0,0.5-0.5,0.9-1,0.9c0,0,0,0,0,0c-0.3,0-0.6-0.1-0.9-0.2v0.6c0.3,0.1,0.6,0.2,0.9,0.2c0.8,0,1.6-0.6,1.6-1.4
					c0,0,0,0,0-0.1C86.9,40.2,86.3,39.6,85.5,39.7C85.5,39.6,85.5,39.6,85.5,39.7L85.5,39.7z"/>
				<rect x="87.6" y="40.5" class="st0" width="1.6" height="0.5"/>
				<path class="st0" d="M90.4,40c0-0.3,0.3-0.4,0.6-0.4c0.2,0,0.4,0.1,0.6,0.2l0.1-0.5c-0.2-0.1-0.5-0.1-0.7-0.1
					c-0.7,0-1.2,0.3-1.2,1c0,0.9,1.4,0.8,1.4,1.4c0,0.3-0.3,0.5-0.6,0.5c-0.3,0-0.5-0.1-0.8-0.2v0.5c0.3,0.1,0.6,0.2,0.9,0.2
					c0.5,0.1,1.1-0.3,1.1-0.9c0,0,0-0.1,0-0.1C91.8,40.5,90.4,40.6,90.4,40z"/>
				<path class="st0" d="M94.3,39.7v-0.5h-0.9v-0.9l-0.6,0.2v0.7h-0.7v0.5h0.7v1.9c0,0.6,0.4,0.9,1,0.9c0.2,0,0.3,0,0.5-0.1v-0.5
					C94.3,42,94.1,42,94,42c-0.3,0-0.5-0.2-0.5-0.5v-1.8H94.3z"/>
				<path class="st0" d="M96.1,42.5c0.4,0,0.8-0.2,1-0.5l0,0v0.4h0.6c0-0.2,0-0.4,0-0.6v-1.3c0-0.9-0.4-1.3-1.3-1.3
					c-0.4,0-0.8,0.1-1.1,0.3v0.5c0.3-0.2,0.6-0.3,1-0.3c0.6,0,0.8,0.3,0.8,0.8h-0.6c-0.6,0-1.5,0.2-1.5,1S95.4,42.5,96.1,42.5z
					 M96.7,40.9H97v0.3c0,0.5-0.3,0.8-0.8,0.8c0,0,0,0,0,0h-0.1c-0.3,0-0.6-0.2-0.6-0.5C95.5,40.9,96.3,40.9,96.7,40.9z"/>
				<path class="st0" d="M99.3,39.7L99.3,39.7v-0.5h-0.6v3.2h0.6v-1.5c0-0.8,0.3-1.3,0.9-1.3c0.1,0,0.2,0,0.3,0.1v-0.5
					c-0.1,0-0.3,0-0.4,0C99.8,39.1,99.4,39.4,99.3,39.7z"/>
				<rect x="100.9" y="40.5" class="st0" width="1.6" height="0.5"/>
				<path class="st0" d="M105.7,39.7L105.7,39.7c-0.2-0.4-0.6-0.6-1.1-0.6c-0.9,0-1.5,0.8-1.5,1.6c0,0,0,0,0,0.1
					c-0.1,0.8,0.5,1.5,1.3,1.6c0,0,0.1,0,0.1,0c0.4,0,0.8-0.2,1.1-0.5l0,0v0.3c0.1,0.5-0.3,1-0.9,1.1c0,0-0.1,0-0.1,0
					c-0.4,0-0.8-0.1-1.2-0.3l-0.1,0.5c0.4,0.1,0.8,0.2,1.2,0.2c1.2,0,1.7-0.6,1.7-1.5v-3.1h-0.6V39.7z M104.7,41.9
					c-0.6,0-0.9-0.5-0.9-1.1s0.3-1.2,0.9-1.2s1,0.6,1,1.2C105.8,41.4,105.4,41.9,104.7,41.9C104.8,41.9,104.8,41.9,104.7,41.9
					L104.7,41.9z"/>
				<path class="st0" d="M108.6,42.5c0.4,0,0.8-0.2,1.1-0.6l0,0v0.5h0.6v-3.2h-0.6v1.5c0,0.8-0.3,1.3-1,1.3c-0.5,0-0.7-0.4-0.7-1.2
					v-1.6h-0.6v1.9C107.3,42,107.7,42.5,108.6,42.5z"/>
				<path class="st0" d="M113.8,40.5c0-0.9-0.4-1.3-1.3-1.3c-0.4,0-0.8,0.1-1.1,0.3v0.5c0.3-0.2,0.6-0.3,1-0.3
					c0.6,0,0.8,0.3,0.8,0.8h-0.6c-0.6,0-1.5,0.2-1.5,1s0.5,1,1.2,1c0.4,0,0.8-0.2,1-0.5l0,0v0.4h0.6c0-0.2,0-0.4,0-0.6L113.8,40.5z
					 M113.2,41.2c0,0.4-0.3,0.8-0.8,0.8h-0.1c-0.3,0-0.6-0.2-0.6-0.5c0-0.6,0.8-0.6,1.1-0.6h0.4L113.2,41.2z"/>
				<path class="st0" d="M115.4,39.7L115.4,39.7v-0.5h-0.6v3.2h0.6v-1.5c0-0.8,0.3-1.3,0.9-1.3c0.1,0,0.2,0,0.3,0.1v-0.5
					c-0.1,0-0.3,0-0.4,0C115.9,39.1,115.6,39.4,115.4,39.7z"/>
				<path class="st0" d="M117.6,39.4v0.5c0.3-0.2,0.6-0.3,1-0.3c0.6,0,0.8,0.3,0.8,0.8h-0.6c-0.6,0-1.5,0.3-1.5,1.1s0.5,1,1.2,1
					c0.4,0,0.8-0.2,1-0.5l0,0v0.4h0.6c0-0.2,0-0.4,0-0.6v-1.3c0-0.9-0.4-1.3-1.3-1.3C118.3,39.1,117.9,39.2,117.6,39.4z M119.3,41.2
					c0,0.4-0.3,0.8-0.8,0.8h-0.1c-0.3,0-0.6-0.2-0.6-0.5c0-0.6,0.8-0.6,1.1-0.6h0.4L119.3,41.2z"/>
				<path class="st0" d="M122.7,39.1c-0.4,0-0.8,0.2-1.1,0.6l0,0v-0.5H121v3.2h0.6v-1.5c0-0.8,0.3-1.3,1-1.3c0.5,0,0.7,0.4,0.7,1.1
					v1.7h0.6v-1.9C123.9,39.6,123.5,39.1,122.7,39.1z"/>
				<path class="st0" d="M125.8,41.4v-1.8h0.9v-0.5h-0.9v-0.9l-0.6,0.2v0.7h-0.7v0.5h0.7v1.9c0,0.6,0.4,0.9,1,0.9
					c0.2,0,0.3,0,0.5-0.1v-0.5c-0.1,0.1-0.3,0.1-0.4,0.1C126,42,125.8,41.8,125.8,41.4C125.8,41.5,125.8,41.4,125.8,41.4z"/>
				<path class="st0" d="M128.8,39.1c-0.8,0-1.5,0.6-1.5,1.5c0,0,0,0.1,0,0.1c-0.1,0.8,0.5,1.6,1.3,1.7c0.1,0,0.2,0,0.4,0
					c0.3,0,0.7-0.1,1-0.2v-0.6c-0.3,0.2-0.6,0.3-1,0.3c-0.6,0-1-0.4-1.1-1l0,0h2.3C130.2,39.9,129.9,39.1,128.8,39.1z M127.9,40.5
					c0-0.5,0.4-0.9,0.9-0.9c0.4,0,0.8,0.4,0.8,0.8c0,0,0,0.1,0,0.1L127.9,40.5z"/>
				<path class="st0" d="M130.8,40.7c-0.1,0.8,0.5,1.6,1.3,1.7c0.1,0,0.2,0,0.4,0c0.3,0,0.7-0.1,1-0.2v-0.6c-0.3,0.2-0.6,0.3-1,0.3
					c-0.6,0-1-0.4-1.1-1l0,0h2.3c0-1-0.4-1.8-1.4-1.8C131.5,39.2,130.9,39.8,130.8,40.7C130.8,40.7,130.8,40.7,130.8,40.7z
					 M132.3,39.6c0.4,0,0.8,0.4,0.8,0.8v0.1h-1.7C131.5,40,131.9,39.6,132.3,39.6L132.3,39.6z"/>
				<rect x="134.7" y="41.7" class="st0" width="0.7" height="0.7"/>
				<path class="st0" d="M71.2,38.7c0-3.1-0.4-6.2-1.3-9.2H7.5c-1.7,5.8-1.7,11.9-0.2,17.7H70C70.8,44.4,71.1,41.5,71.2,38.7z
					 M15.6,42.2h-4.7v-7.9h4.6v1.4h-2.8v1.8h2.6v1.4h-2.6v2h2.9L15.6,42.2z M21.2,42.2l-1.3-2.8l-1.4,2.8h-2l2.3-4.2l-2-3.7h2.1
					l1.1,2.5l1.2-2.5h2L21,38l2.2,4.2L21.2,42.2z M27.5,42.4c-2.2,0-3.7-1.6-3.7-4.1c0-2.9,2-4.1,3.6-4.1c0.7,0,1.4,0.1,2.1,0.4
					l-0.1,1.5c-0.5-0.3-1-0.5-1.6-0.5c-1.3,0-2,1-2,2.6s0.9,2.6,2.1,2.6c0.6,0,1.1-0.2,1.6-0.4l0.1,1.7
					C28.8,42.3,28.2,42.4,27.5,42.4z M35.6,42.2h-4.7v-7.9h4.6v1.4h-2.8v1.8h2.7v1.4h-2.7v2h2.9L35.6,42.2z M41.6,42.2H37v-7.9h1.9
					v6.5h2.6L41.6,42.2z M47.2,42.2h-4.6v-7.9h1.9v6.5h2.6L47.2,42.2z M53.1,42.2h-4.8v-7.9h4.6v1.4h-2.8v1.8h2.6v1.4h-2.6v2H53
					L53.1,42.2z M60.7,42.2h-2.3l-2.3-5.7l0,0v5.7h-1.7v-7.9h2.2l2.4,5.5l0,0v-5.5h1.6L60.7,42.2z M67.1,35.7h-1.8v6.5h-1.9v-6.5
					h-1.7v-1.4H67L67.1,35.7z"/>
				<g>
					<path class="st0" d="M37.3,22.5c1,0,1.5,0.6,1.5,1.7c0,1.7-0.8,3.1-2.2,3.1c-1,0-1.5-0.6-1.5-1.7C35.2,24,35.9,22.5,37.3,22.5z
						 M37.4,23.3c-0.8,0-1.1,2-1.1,2.5c0,0.4,0.1,0.6,0.4,0.6c0.8,0,1-2,1-2.5C37.8,23.5,37.6,23.3,37.4,23.3z"/>
					<path class="st0" d="M39.3,26c0.3,0.2,0.6,0.3,1,0.3c0.8,0,1.1-0.5,1.2-1.1l0,0c-0.2,0.2-0.5,0.3-0.8,0.3
						c-0.8,0-1.3-0.5-1.3-1.4c0-1,0.7-1.6,1.7-1.6c1.1,0,1.7,0.6,1.7,1.7c0,1.6-0.7,3-2.4,3c-0.4,0-0.9-0.1-1.3-0.3L39.3,26z
						 M41,24.7c0.5,0,0.7-0.5,0.7-0.8c0-0.3-0.2-0.6-0.6-0.6c-0.4,0-0.6,0.4-0.6,0.8C40.5,24.4,40.7,24.7,41,24.7z"/>
				</g>
				<g>
					<path class="st0" d="M31.1,53.7c1.7-1.2,2.4-1.7,2.4-2.3c0-0.5-0.3-0.6-0.6-0.6c-0.4,0-0.8,0.2-1.1,0.3l0.1-1
						c0.4-0.1,0.8-0.2,1.3-0.2c0.7,0,1.5,0.4,1.5,1.3c0,1.2-1.1,1.9-2,2.5v0h1.6l-0.2,0.9H31L31.1,53.7z"/>
					<path class="st0" d="M37.4,49.9c1,0,1.5,0.6,1.5,1.7c0,1.7-0.7,3.1-2.1,3.1c-1,0-1.5-0.6-1.5-1.7
						C35.2,51.4,35.9,49.9,37.4,49.9z M37.4,50.7c-0.8,0-1.1,2-1.1,2.5c0,0.4,0.1,0.6,0.4,0.6c0.8,0,1-2,1-2.5
						C37.8,50.9,37.6,50.7,37.4,50.7z"/>
					<path class="st0" d="M39,53.7c1.7-1.2,2.4-1.7,2.4-2.3c0-0.5-0.3-0.6-0.6-0.6c-0.4,0-0.8,0.2-1.1,0.3l0.1-1
						c0.4-0.1,0.8-0.2,1.3-0.2c0.7,0,1.5,0.4,1.5,1.3c0,1.2-1.1,1.9-2,2.5v0h1.6l-0.2,0.9h-3.2L39,53.7z"/>
					<path class="st0" d="M45.2,49.9c1,0,1.5,0.6,1.5,1.7c0,1.7-0.7,3.1-2.1,3.1c-1,0-1.5-0.6-1.5-1.7
						C43.1,51.4,43.8,49.9,45.2,49.9z M45.2,50.7c-0.8,0-1.1,2-1.1,2.5c0,0.4,0.1,0.6,0.4,0.6c0.8,0,1-2,1-2.5
						C45.6,50.9,45.5,50.7,45.2,50.7z"/>
				</g>
			</g>
		</g>
	</g>
</g>
</svg>
