<?xml version="1.0" encoding="utf-8"?>
<!-- Generator: Adobe Illustrator 24.1.2, SVG Export Plug-In . SVG Version: 6.00 Build 0)  -->
<svg version="1.1" id="Calque_1" xmlns="http://www.w3.org/2000/svg" xmlns:xlink="http://www.w3.org/1999/xlink" x="0px" y="0px"
	 viewBox="0 0 99.3 91" style="enable-background:new 0 0 99.3 91;" xml:space="preserve">
<style type="text/css">
	.st0{fill:#FAB699;}
	.st1{fill:#FFFFFF;}
</style>
<g id="Calque_2_2_">
	<g id="Calque_2-2_1_">
		<path class="st0" d="M90.3,70.8c-15.6,19.4-53,27.8-72.8,11.8C3.2,71.1-5.4,37.5,4.8,20.2C33.1-27.6,126.5,20.9,90.3,70.8"/>
	</g>
</g>
<path class="st1" d="M47,50.7c0.1-1.9-1.7-3.7-2.7-5.1c-1.1-1.6-2.4-3.1-3.8-4.4c-2.9-2.6-6.5-4.1-10-5.7c-0.8-0.4-1.7-0.7-2.6-1
	c-0.7-0.2-1.7-0.3-2.1-1c-1-1.9,3.2-0.3,4,0c1.9,0.6,3.7,1.5,5.3,2.5s3.6,2.9,5.4,3.2c0.5-1.6-0.8-4.1-1.5-5.5
	c-0.9-1.6-2-3.6-3.5-4.8c-3.4-2.6-9-0.8-12.4,0.8c-1,0.4-1.9,0.9-2.8,1.4c-1,0.6-1.9,0.7-1.3,1.8c1,2,2.3,3.8,3.8,5.5
	c2.8,3,7,4.2,11,3c0.8-0.2,2-1.2,2.8-1.2s1.1,0.5,0.5,1.3c-1,1.3-4.1,2-5.6,2.2c-4.3,0.7-7.9-2.2-10.3-5.4c-1.3-1.8-2.9-3.6-3.7-5.7
	c-0.8-2.2,2.4-3.2,3.9-4c3.9-2,8.2-4.3,12.8-3.1c4.2,1.1,6.5,6.9,7.7,10.6c0.2,0.4,0.3,0.9,0.3,1.3c0.1,0.8-0.4,1.3-0.5,2
	c-0.1,0.9-0.2,0.2,0.2,1c0.6,0.7,1.2,1.4,1.9,2c1.6,1.5,2.9,3.3,3.8,5.3c1.3-5.9,2.4-11.8,5.4-17.1c1-1.3,9.8-11.9,11-10.3
	c0.7,0.9-1.3,2-1.8,2.5c-1.1,1-2,2.1-2.9,3.2c-1.9,2.4-3.5,4.9-4.9,7.5c-2.8,5.2-5,10.9-5.4,16.8"/>
<path class="st1" d="M69.7,12.9c-2.8,0.8-5.6,1.2-8.4,1.9c-2.6,0.8-5.1,2-7.3,3.6c-4.5,3-6.8,8.5-5.8,13.8c0.3,1.4,0.9,2.7,1,4.1
	c0.2,1.1-0.5,1.8-1.1,0.6c-1.2-2.5-1.9-5.2-2-8c-0.3-5.1,2.7-10.1,7.1-12.8c2.4-1.4,5-2.2,7.7-2.6c2.8-0.4,6-1.7,8.6-2.9
	c0.8-0.4,2-1.5,2.5-0.3c0.2,0.4-0.1,1.3-0.1,1.7c-0.1,0.8-0.1,1.6-0.1,2.4c0,3.2,0.6,6.2,0.6,9.4c0,3-0.2,5.5-1.6,8.2
	c-1.1,2.4-2.9,4.5-5.2,6c-2.4,1.5-5.2,3.2-8,4c-1.1,0.3-2.7,0.9-3.9,0.6c-1.9-0.4,0.1-1.3,1-1.5c5.3-1.1,11.8-3.8,14-9.2
	C71.2,26,70.5,19.3,69.7,12.9"/>
<path class="st1" d="M48.9,50.3c2.9-2.4,5.5-4.5,9.4-4.5c3.7-0.1,7.2,2,9,5.3c4.5,8.1-2.4,16.7-8,22c-1.7,1.6-3.4,3.2-5,4.7
	c-0.8,0.7-1.5,1.4-2.3,2.1c-0.6,0.7-1.5,1.1-2.4,1.2c-1.9,0.4-3.3-0.6-4.9-1.7c-1.8-1.2-3.6-2.6-5.3-4c-3.3-2.8-6.3-5.8-9.1-9.1
	c-2.8-3.4-4.1-6.9-3-11.3c1-4.1,3.5-7,7.5-8.3c4.8-1.5,8.8,0.8,12.2,4 M48.9,79.3c3.3-2.1,6.2-4.9,8.8-7.7c2.6-2.7,5.8-5.3,7.4-8.8
	c1.7-3.4,1.7-7.4-0.1-10.8c-0.6-1.3-1-2.6-2.4-3.3c-1.6-0.8-3.6-0.8-5.3-0.4c-1.8,0.5-3.6,1.2-5.2,2.1c-0.8,0.4-1.5,0.9-2.2,1.4
	c-0.6,0.5-1.5,1.7-2.3,1.4c-0.5-0.2-0.9-1-1.2-1.4c-0.5-0.6-1.2-1-1.8-1.4c-1.6-1.1-3.5-1.8-5.4-2C36,48,32.1,49,30.4,52
	c-0.8,1.3-1.3,2.8-1.4,4.3c-0.1,2.1,0.2,4.2,1,6.1c1.4,3.5,4.8,6.6,7.7,9C41.4,74.4,45.1,77,48.9,79.3"/>
</svg>
