<?xml version="1.0" encoding="utf-8"?>
<!-- Generator: Adobe Illustrator 24.1.2, SVG Export Plug-In . SVG Version: 6.00 Build 0)  -->
<svg version="1.1" id="Calque_1" xmlns="http://www.w3.org/2000/svg" xmlns:xlink="http://www.w3.org/1999/xlink" x="0px" y="0px"
	 viewBox="0 0 99.3 91" style="enable-background:new 0 0 99.3 91;" xml:space="preserve">
<style type="text/css">
	.st0{fill:#6DBFB0;}
	.st1{fill:#FFFFFF;}
</style>
<g id="Calque_2_2_">
	<g id="Calque_2-2_1_">
		<path class="st0" d="M90.3,70.8c-15.6,19.4-53,27.8-72.8,11.8C3.2,71.1-5.4,37.5,4.8,20.2C33.1-27.6,126.5,20.9,90.3,70.8"/>
	</g>
</g>
<g>
	<path class="st1" d="M47.7,72.3c-14.8,0-26.8-12.1-26.8-26.8S33,18.7,47.7,18.7s26.8,12,26.8,26.8S62.4,72.3,47.7,72.3z M47.7,20.4
		c-13.8,0-25.1,11.3-25.1,25.1s11.3,25.1,25.1,25.1s25.1-11.3,25.1-25.1S61.5,20.4,47.7,20.4z"/>
	<path class="st1" d="M57.9,62.5c-0.2,0-0.5,0-0.5,0c-2,0-3.1-2.4-3.4-7.1c0-0.7-0.5-1.1-1.1-1.4c-1.7-0.5-2.9-1.1-3.4-1.8
		c-1-1.3-2.6-2.3-3.4-2.9c-0.9-0.6-1.6-1.4-2.1-2.3l-1.1-3c-0.3-0.7-0.5-1.4-0.3-2.2c0.3-2.8,1.7-5.7,2.6-7.7c0.3-0.7,0.9-1,1.7-1.1
		c0.7,0,1.4,0.3,1.8,0.9l1,1.8c0.3,0.5,0.8,0.6,1.1,0.5c0.2,0,0.7-0.2,0.8-0.9v-0.1c0.2-2.2,1.6-3.9,3.6-4.7l2.8-1.1
		c1.5-1,0.3-5.2-0.5-7.1c-0.1-0.3-0.1-0.7,0.1-0.9c0.2-0.2,0.5-0.3,0.8-0.3h0.2c0.1,0,0.2,0,0.2,0.1c9.4,4.4,15.5,13.9,15.5,24.4
		c0,0.2-0.1,0.6-0.3,0.7l-2.5,2c-0.8,0.6-1.7,0.8-2.6,0.6c-0.9-0.2-1.7-0.7-2.2-1.5l-1.3-1.6l-1.1,6.2c-0.2,1.3-0.5,2.4-0.6,3.4
		c-0.2,3.2-1.3,5.3-2.9,6.4C59.8,62.4,58.6,62.5,57.9,62.5z M46.8,34.8L46.8,34.8c-0.1,0-0.1,0.1-0.1,0.1c-0.9,1.8-2.2,4.7-2.5,7.1
		c0,0.5,0,0.8,0.2,1.3l1.1,3c0.2,0.6,0.8,1,1.4,1.5c1.1,0.7,2.8,2,3.9,3.3c0.1,0.2,0.7,0.7,2.5,1.3c1.4,0.3,2.3,1.6,2.4,3
		c0.2,3.7,1,5.4,1.7,5.4h0.1c0,0,1.1,0.1,2.2-0.6c1.1-0.8,1.8-2.5,2.2-4.9c0.1-1.1,0.3-2.4,0.6-3.7l1.3-6.6c0.1-0.7,0.7-1.1,1.4-1.3
		c0.6-0.1,1.3,0.1,1.6,0.7l1.5,1.7l0.1,0.1c0.2,0.3,0.6,0.6,1,0.7c0.5,0.1,0.8,0,1.1-0.2l2.2-1.6c-0.1-9-5.2-17.1-12.9-21.5
		c0.7,2.3,1.3,6-1,7.4c0,0-0.1,0-0.1,0.1l-2.9,1.1c-1.4,0.6-2.3,1.8-2.5,3.3v0.2c-0.1,1.1-1,2.2-2.3,2.4s-2.4-0.2-3.1-1.4l-1-1.8
		C46.9,34.8,46.8,34.8,46.8,34.8z"/>
	<path class="st1" d="M42.6,71.8c0,0-0.1,0-0.2,0c-9.9-2-18.1-9.5-20.7-19.3c-0.1-0.5,0.1-0.9,0.6-1l5.6-2.1c1-0.3,2.2-0.2,3.1,0.3
		c0.9,0.7,1.5,1.7,1.5,3v1.7c0,1.7,0.6,2.8,2.2,3.3l3.7,1.6c1.1,0.5,2.1,1.1,2.9,2l0.7,0.7c2,2,2.8,4.9,2,7.6l-0.5,1.5
		C43.3,71.6,43,71.8,42.6,71.8z M23.7,52.7c2.5,8.5,9.7,15.1,18.3,17.1l0.2-0.7c0.6-2.1,0-4.4-1.5-5.9L40,62.6
		c-0.7-0.7-1.5-1.3-2.3-1.6L34,59.4c-2.2-0.9-3.2-2.5-3.2-5.1v-1.7c0-0.7-0.2-1.3-0.7-1.5c-0.3-0.2-0.9-0.3-1.4-0.1L23.7,52.7z"/>
	<path class="st1" d="M21.7,45c-0.2,0-0.3,0-0.6-0.1c-0.1-0.2-0.2-0.6-0.2-0.9c0.5-9,5.4-17,13.1-21.6c0.3-0.2,0.9-0.1,1.1,0.2
		c0.8,1,1.8,2.6,1.8,4.7v1.5c0,1.5-0.7,3-1.8,4.1l-3.4,3.4c-0.5,0.5-0.6,1-0.5,1.5c0.6,1.6-0.2,3.4-1.8,4.1l-7.4,2.9
		C21.9,45,21.8,45,21.7,45z M34.1,24.5c-6.4,4.1-10.6,10.8-11.4,18.4l6-2.4c0.7-0.3,1.1-1.1,0.9-1.8c-0.3-1.1-0.1-2.5,0.8-3.3
		l3.4-3.4c0.8-0.8,1.4-2,1.4-2.9v-1.5C35.2,26.4,34.8,25.4,34.1,24.5z"/>
</g>
</svg>
