<?xml version="1.0" encoding="utf-8"?>
<!-- Generator: Adobe Illustrator 24.1.2, SVG Export Plug-In . SVG Version: 6.00 Build 0)  -->
<svg version="1.1" id="Calque_1" xmlns="http://www.w3.org/2000/svg" xmlns:xlink="http://www.w3.org/1999/xlink" x="0px" y="0px"
	 viewBox="0 0 99.3 91" style="enable-background:new 0 0 99.3 91;" xml:space="preserve">
<style type="text/css">
	.st0{fill:#FAB699;}
	.st1{fill:#FFFFFF;}
</style>
<g id="Calque_2_1_">
	<g id="Calque_2-2">
		<path class="st0" d="M90.5,72.8c-16.2,18.8-54.2,25.4-73.9,8.5C2.3,69.1-5.8,35,4.9,18.1C34.4-28.6,128.1,24.3,90.5,72.8"/>
	</g>
</g>
<path class="st1" d="M65.6,69.7H29.2c-1.3,0-1-1.5-1-2.4V43c0-0.9,0.2-1.6,1.3-1.6H60c1,0,6.6-0.8,6.6,1v23.3
	C66.6,66.5,67.1,69.7,65.6,69.7z M30.2,67.8h33.2c0.3,0,1.2,0.2,1.2-0.2V44.2c0-0.6,0.2-0.9-0.4-0.9H30.9c-0.5,0-0.7-0.2-0.7,0.3
	C30.2,43.6,30.2,67.8,30.2,67.8z"/>
<path class="st1" d="M68.9,43.3H26.2c-1.3,0-1.3-1-1.3-2.1v-6.9c0-1-0.4-3,1.1-3h42.6c2,0,1.3,3,1.3,4.3v4.9
	C69.9,41.4,70.2,43.3,68.9,43.3z M26.9,41.3H68c0,0,0-5,0-5.3c0-0.5,0.4-2.6-0.3-2.6H26.9C26.9,36,26.9,38.7,26.9,41.3z"/>
<path class="st1" d="M52.2,69.7h-5.3c-0.9,0-5,0.6-5-1c-0.1-0.6-0.1-1.3,0-2V32.4c0-1.6,3.2-1,4.2-1h6c1.3,0,1.1,1.2,1.1,2v32.9
	C53.2,67.2,53.6,69.7,52.2,69.7z M43.9,67.8h5.7c1.1,0,1.6,0.4,1.6-0.7V33.4c0-0.2-3.9-0.1-4.3-0.1c-0.5,0-3.1-0.4-3.1,0.3
	L43.9,67.8L43.9,67.8z"/>
<path class="st1" d="M47.5,33.3c-1.4,0-2.9-0.5-4.2-0.8c-1.8-0.4-3.7-0.7-5.3-1.6c-2.7-1.5-4.8-4.4-4.2-7.6c0.4-2.3,1.5-4.7,4.2-4.7
	c3.4-0.1,5.1,4.6,6.6,7l2.9,4.7C47.9,31,49.5,33.3,47.5,33.3L47.5,33.3z M38,20.6c-1.5,0-1.8,1.2-2.1,2.3c-0.7,2.2,0.4,4.4,2.1,5.7
	c2.1,1.5,4.9,1.8,7.4,2.3l-3.3-5.3C41.3,24.2,40,20.6,38,20.6z"/>
<path class="st1" d="M47.5,33.3c-1.9,0-0.5-2.1,0-2.8l2.8-4.6c0.9-1.5,1.9-3,2.8-4.5c0.9-1.4,1.7-2.6,3.5-2.8
	c2.6-0.2,3.8,1.5,4.4,3.7c1.1,3.3-0.7,6.7-3.6,8.4c-1.7,1-3.5,1.3-5.4,1.7C50.6,32.7,49,33.3,47.5,33.3L47.5,33.3z M57,20.6
	c-2,0-3.3,3.6-4.2,5l-3.3,5.3c2.5-0.5,5.3-0.7,7.4-2.3c1.8-1.3,2.9-3.5,2.2-5.7C58.8,21.8,58.5,20.6,57,20.6z"/>
</svg>
