<?xml version="1.0" encoding="utf-8"?>
<!-- Generator: Adobe Illustrator 21.1.0, SVG Export Plug-In . SVG Version: 6.00 Build 0)  -->
<svg version="1.1" id="Calque_1" xmlns="http://www.w3.org/2000/svg" xmlns:xlink="http://www.w3.org/1999/xlink" x="0px" y="0px"
	 viewBox="0 0 74 74" style="enable-background:new 0 0 74 74;" xml:space="preserve">
<style type="text/css">
	.st0{fill:#FFFFFF;}
	.st1{display:none;}
	.st2{display:inline;fill:#FFC240;}
	.st3{fill:#FFC240;}
	.st4{display:inline;fill:#63C9BA;}
</style>
<g>
	<path class="st0" d="M651.2,1662.5c-0.1-0.1-0.3-0.1-0.5,0l-11.7,11.7c-0.1,0.1-0.1,0.3,0,0.5c0.1,0.1,0.2,0.1,0.2,0.1
		s0.2,0,0.2-0.1l11.7-11.7C651.3,1662.8,651.3,1662.6,651.2,1662.5z"/>
	<path class="st0" d="M639.7,1664.2c0.1,0.1,0.2,0.1,0.2,0.1s0.2,0,0.2-0.1c0.1-0.1,0.1-0.3,0-0.5l-1.2-1.2c-0.1-0.1-0.3-0.1-0.5,0
		c-0.1,0.1-0.1,0.3,0,0.5L639.7,1664.2z"/>
	<path class="st0" d="M642.7,1662.8C642.8,1662.8,642.8,1662.8,642.7,1662.8c0.2,0,0.4-0.2,0.3-0.4l-0.3-1.7c0-0.2-0.2-0.3-0.4-0.3
		c-0.2,0-0.3,0.2-0.3,0.4l0.3,1.7C642.4,1662.7,642.6,1662.8,642.7,1662.8z"/>
	<path class="st0" d="M638.3,1667.1L638.3,1667.1c0.2,0,0.3-0.2,0.3-0.3c0-0.2-0.2-0.3-0.3-0.3l-1.7,0h0c-0.2,0-0.3,0.2-0.3,0.3
		c0,0.2,0.2,0.3,0.3,0.3L638.3,1667.1z"/>
	<path class="st0" d="M638.3,1670l-1.6,0.5c-0.2,0.1-0.3,0.2-0.2,0.4c0,0.1,0.2,0.2,0.3,0.2c0,0,0.1,0,0.1,0l1.6-0.5
		c0.2-0.1,0.3-0.2,0.2-0.4C638.7,1670,638.5,1669.9,638.3,1670z"/>
	<path class="st0" d="M646.3,1662.6C646.3,1662.6,646.3,1662.6,646.3,1662.6c0.2,0,0.4-0.1,0.4-0.3l0.2-1.7c0-0.2-0.1-0.4-0.3-0.4
		c-0.2,0-0.4,0.1-0.4,0.3l-0.2,1.7C646,1662.4,646.1,1662.6,646.3,1662.6z"/>
	<path class="st0" d="M653.7,1670.6c-0.8-1.4-2.3-2.3-3.9-2.4c-1.3-0.1-2.5,0.4-3.4,1.2c-0.9,0.9-1.5,2-1.6,3.3
		c-0.1,2.6,1.8,4.8,4.3,5c0,0,0,0,0,0c0.1,0,0.2-0.1,0.3-0.2c0.1-0.1,0.1-0.3,0-0.4c-0.5-0.7-0.7-1.6-0.7-2.4c0.1-1.1,0.5-2,1.3-2.7
		c0.8-0.7,1.8-1.1,2.8-1c0.1,0,0.2,0,0.3,0l0.1,0c0.1,0,0.3,0,0.3-0.1C653.8,1670.9,653.8,1670.7,653.7,1670.6z M652.7,1670.4
		c-1.1,0-2.2,0.4-3.1,1.2c-0.9,0.8-1.5,2-1.5,3.2c0,0.8,0.1,1.5,0.4,2.2c-1.8-0.5-3.1-2.2-3-4.2c0.1-1.1,0.5-2.1,1.3-2.8
		c0.8-0.7,1.7-1.1,2.7-1.1c0.1,0,0.1,0,0.2,0C650.9,1669,652,1669.5,652.7,1670.4C652.7,1670.4,652.7,1670.4,652.7,1670.4z"/>
	<path class="st0" d="M639.9,1670.9c0.1,0.1,0.2,0.2,0.3,0.2c0,0,0.1,0,0.1,0c0.2-0.1,0.2-0.3,0.2-0.5c-0.3-0.7-0.5-1.3-0.5-2
		c0-2.6,2.1-4.7,4.7-4.7c0.7,0,1.3,0.2,2,0.5c0.2,0.1,0.4,0,0.5-0.2c0.1-0.2,0-0.4-0.2-0.5c-0.8-0.4-1.5-0.6-2.3-0.6
		c-3,0-5.4,2.4-5.4,5.4C639.3,1669.4,639.5,1670.1,639.9,1670.9z"/>
</g>
<g class="st1">
	<path class="st2" d="M51.9,20.6c-3.5,0-15.7,2.7-23,8.3c-5.9,4.8-7,10.5-7.2,13.5c-0.1,3,0.7,5.9,2.1,7.8
		c4.4-2.7,10.1-7.4,16.4-16.1c0.3-0.4,0.9-0.5,1.2-0.2c0.4,0.3,0.5,0.8,0.2,1.2c-6.3,8.7-12,13.6-16.5,16.4
		c9.8,6.6,20.2-3.8,20.3-3.9c8.1-8.4,8-25,7.2-27C52.5,20.6,52.2,20.6,51.9,20.6z"/>
	<path class="st2" d="M37,2C17.7,2,2,17.7,2,37c0,19.3,15.7,35,35,35s35-15.7,35-35C72,17.7,56.3,2,37,2z M46.7,48.9
		c-2.8,2.8-8.3,6.6-14.5,6.6c-2.8,0-5.8-0.8-8.6-2.9c0,0-0.1-0.1-0.1-0.1c-4.7,2.6-7.8,2.7-8,2.7c0,0,0,0,0,0
		c-0.5,0-0.9-0.4-0.9-0.9c0-0.5,0.4-0.9,0.9-0.9c0.1,0,2.7-0.2,6.9-2.4c-1.6-2.3-2.5-5.4-2.4-8.8c0.1-3.3,1.3-9.5,7.8-14.8
		c8.5-6.5,24.2-9.7,26-8.2c0,0,0,0,0,0c0.2,0.2,0.8,0.6,1,3.6C55.2,29.6,53.4,42.1,46.7,48.9z"/>
</g>
<g class="st1">
	<path class="st2" d="M48.2,37.1c0-6.1-4.9-11-11-11h-0.5c-6.1,0-11,4.9-11,11v10.5h22.5V37.1z M44.2,35.5c-0.1,0-0.1,0-0.2,0
		c-0.5,0-0.9-0.3-0.9-0.8c-0.4-2.6-3-4.1-5.4-4.3c-0.5,0-0.9-0.5-0.9-1c0-0.5,0.5-0.9,1-0.9c3,0.2,6.5,2.1,7.1,5.9
		C45.1,34.9,44.7,35.4,44.2,35.5z"/>
	<path class="st2" d="M37,2C17.7,2,2,17.7,2,37s15.7,35,35,35s35-15.7,35-35S56.3,2,37,2z M52.5,28.9l5.4-2.4c0.5-0.2,1.1,0,1.3,0.5
		c0.2,0.5,0,1.1-0.5,1.3l-5.4,2.4c-0.1,0.1-0.3,0.1-0.4,0.1c-0.4,0-0.7-0.2-0.9-0.6C51.8,29.7,52,29.1,52.5,28.9z M46.6,22.9l3-5.1
		c0.3-0.5,0.9-0.6,1.3-0.4c0.5,0.3,0.6,0.9,0.4,1.3l-3,5.1c-0.2,0.3-0.5,0.5-0.8,0.5c-0.2,0-0.3,0-0.5-0.1
		C46.5,24,46.3,23.4,46.6,22.9z M36,14.9c0-0.5,0.4-1,1-1c0.5,0,1,0.4,1,1v5.9c0,0.5-0.4,1-1,1c-0.5,0-1-0.4-1-1V14.9z M36.8,24.2
		h0.5c7.1,0,12.9,5.8,12.9,12.9v10.5c2.2,0.2,4,1.8,4.4,4h-4.4h-1.9H25.8h-1.9h-4.4c0.4-2.1,2.2-3.8,4.4-4V37.1
		C23.8,30,29.6,24.2,36.8,24.2z M23.1,17.5c0.5-0.3,1-0.1,1.3,0.4l3,5.1c0.3,0.5,0.1,1-0.4,1.3c-0.2,0.1-0.3,0.1-0.5,0.1
		c-0.3,0-0.7-0.2-0.8-0.5l-3-5.1C22.5,18.3,22.7,17.7,23.1,17.5z M14.9,26.9c0.2-0.5,0.8-0.7,1.3-0.5l5.4,2.4
		c0.5,0.2,0.7,0.8,0.5,1.3c-0.2,0.4-0.5,0.6-0.9,0.6c-0.1,0-0.3,0-0.4-0.1l-5.4-2.4C14.8,28,14.6,27.4,14.9,26.9z M13.4,37
		c0-0.5,0.4-1,1-1h5.9c0.5,0,1,0.4,1,1c0,0.5-0.4,1-1,1h-5.9C13.8,38,13.4,37.6,13.4,37z M49.7,57.8h-0.5H24.8h-0.5
		c-2.5,0-4.5-1.8-4.9-4.2h4.4h1.9h22.5h1.9h4.4C54.2,56,52.2,57.8,49.7,57.8z M59.6,38h-5.9c-0.5,0-1-0.4-1-1c0-0.5,0.4-1,1-1h5.9
		c0.5,0,1,0.4,1,1C60.6,37.6,60.2,38,59.6,38z"/>
</g>
<g class="st1">
	<path class="st2" d="M49.2,36.7c-2.7,0-5.3,1-7.3,2.8c-2.2,2-3.5,4.6-3.6,7.6c-0.3,5.2,3.2,9.8,8.1,11.1c-0.9-1.8-1.3-3.8-1.2-5.8
		c0.2-3.3,1.6-6.3,4.1-8.5c2.3-2.1,5.2-3.2,8.3-3.2c0,0,0,0,0,0c-1.9-2.3-4.7-3.7-7.8-3.9C49.6,36.7,49.4,36.7,49.2,36.7z"/>
	<path class="st2" d="M37,2C17.7,2,2,17.7,2,37c0,19.3,15.7,35,35,35s35-15.7,35-35C72,17.7,56.3,2,37,2z M40.4,14.4
		c0.1-0.5,0.5-0.8,1-0.8c0.5,0.1,0.8,0.5,0.8,1l-0.6,4.5c-0.1,0.5-0.5,0.8-0.9,0.8c0,0-0.1,0-0.1,0c-0.5-0.1-0.8-0.5-0.8-1
		L40.4,14.4z M30.2,14.1c0.5-0.1,1,0.3,1,0.8l0.7,4.5c0.1,0.5-0.3,1-0.8,1c0,0-0.1,0-0.1,0c-0.4,0-0.8-0.3-0.9-0.8l-0.7-4.5
		C29.3,14.7,29.7,14.2,30.2,14.1z M36.2,21.5c2.1,0,4.1,0.5,6.2,1.5c0.5,0.2,0.6,0.8,0.4,1.2c-0.2,0.5-0.8,0.6-1.2,0.4
		c-1.8-0.9-3.6-1.3-5.4-1.3c-6.9,0-12.5,5.6-12.5,12.5c0,1.8,0.4,3.6,1.3,5.4c0.2,0.5,0,1-0.4,1.2c-0.1,0.1-0.3,0.1-0.4,0.1
		c-0.3,0-0.7-0.2-0.8-0.5c-1-2-1.5-4.1-1.5-6.2C21.9,27.9,28.3,21.5,36.2,21.5z M19.6,19.6c0.4-0.4,0.9-0.4,1.3,0l3.2,3.2
		c0.4,0.4,0.4,0.9,0,1.3c-0.2,0.2-0.4,0.3-0.6,0.3s-0.5-0.1-0.6-0.3l-3.2-3.2C19.2,20.5,19.2,20,19.6,19.6z M13.6,31
		c0-0.5,0.4-0.9,0.9-0.9h0l4.5,0c0.5,0,0.9,0.4,0.9,0.9c0,0.5-0.4,0.9-0.9,0.9h0l-4.5,0C14,31.9,13.6,31.5,13.6,31z M19.7,41.4
		l-4.3,1.3c-0.1,0-0.2,0-0.3,0c-0.4,0-0.8-0.3-0.9-0.7c-0.1-0.5,0.1-1,0.6-1.1l4.3-1.3c0.5-0.1,1,0.1,1.1,0.6
		C20.5,40.7,20.2,41.2,19.7,41.4z M21.8,52.3c-0.2,0-0.5-0.1-0.6-0.3c-0.4-0.4-0.4-0.9,0-1.3l31.1-31.1c0.4-0.4,0.9-0.4,1.3,0
		c0.4,0.4,0.4,0.9,0,1.3L22.4,52C22.3,52.2,22,52.3,21.8,52.3z M60.2,42.3c-0.2,0.3-0.5,0.4-0.9,0.4l-0.4-0.1
		c-0.3-0.1-0.6-0.1-0.8-0.1c-2.8-0.2-5.5,0.8-7.6,2.7c-2.1,1.9-3.3,4.5-3.5,7.3c-0.1,2.3,0.5,4.5,1.8,6.5c0.2,0.3,0.2,0.7,0,1
		c-0.2,0.3-0.5,0.4-0.8,0.4c0,0-0.1,0-0.1,0c-6.9-0.6-11.9-6.5-11.6-13.3c0.2-3.4,1.7-6.5,4.2-8.8c2.5-2.3,5.8-3.4,9.2-3.3
		c4.3,0.2,8.2,2.6,10.4,6.4C60.4,41.6,60.4,42,60.2,42.3z"/>
</g>
<g>
	<path class="st3" d="M54.9,27.2c-1.3-2.3-5.1-7.3-6.8-9.4c-1.6,2.1-5.5,7.2-6.8,9.4l-0.1,0.3c-1.3,2.2-3.6,6.3-1.1,11.1
		c1.9,3.6,5.4,5.2,8,5.2c2.5,0,6.1-1.6,8-5.2c2.5-4.8,0.2-8.9-1.1-11.1L54.9,27.2z M46.9,41.3c-0.1,0-0.1,0-0.2,0
		c-4.3-1.2-5.2-5.7-5-8c0-0.4,0.4-0.7,0.7-0.7c0.4,0,0.7,0.4,0.7,0.7c0,0.2-0.2,5.4,4,6.6c0.4,0.1,0.6,0.5,0.5,0.9
		C47.5,41.1,47.2,41.3,46.9,41.3z"/>
	<path class="st3" d="M32.6,40.3c-1.3-2.3-5.1-7.3-6.8-9.4c-1.6,2.1-5.5,7.2-6.8,9.4l-0.1,0.3c-1.3,2.2-3.6,6.3-1.1,11.1
		c1.9,3.6,5.4,5.2,8,5.2c2.5,0,6.1-1.6,8-5.2c2.5-4.8,0.2-8.9-1.1-11.1L32.6,40.3z M24.5,54.3c-0.1,0-0.1,0-0.2,0
		c-4.3-1.2-5.2-5.7-5-8c0-0.4,0.3-0.7,0.7-0.7c0.4,0,0.7,0.4,0.7,0.7c0,0.2-0.2,5.4,4,6.6c0.4,0.1,0.6,0.5,0.5,0.9
		C25.1,54.1,24.8,54.3,24.5,54.3z"/>
	<path class="st3" d="M37,2C17.7,2,2,17.7,2,37s15.7,35,35,35s35-15.7,35-35S56.3,2,37,2z M35.5,52.5c-2.2,4.3-6.5,6.2-9.6,6.2
		c-3.2,0-7.4-1.9-9.6-6.2c-3-5.7-0.2-10.5,1.1-12.9l0.1-0.3c1.7-3,7.4-10.3,7.7-10.6c0.4-0.5,1.1-0.5,1.5,0c0.2,0.3,6,7.6,7.7,10.6
		l0.1,0.3C35.7,41.9,38.4,46.7,35.5,52.5z M57.8,39.4c-2.2,4.3-6.5,6.2-9.6,6.2c-3.2,0-7.4-1.9-9.6-6.2c-3-5.7-0.2-10.5,1.1-12.9
		l0.1-0.3c1.7-3,7.4-10.3,7.7-10.6c0.4-0.5,1.1-0.5,1.5,0c0.2,0.3,6,7.6,7.7,10.6h0l0.1,0.3C58,28.9,60.8,33.7,57.8,39.4z"/>
</g>
<g class="st1">
	<path class="st4" d="M30.5,45.5c-0.2,0.3-0.3,0.5-0.5,0.8c-0.1,0.1-0.1,0.2-0.2,0.4c0.6,0.2,1.3,0.4,1.9,0.6c0.6,0.2,1.2,0.2,1.9,0
		c0.7-0.2,1.4-0.4,2.1-0.6c1.4-0.4,2.8-0.4,4.1,0.3c0.3,0.2,0.7,0.3,1,0.4c1.2,0.3,2.3-0.4,3.4-0.6c-0.1-0.2-0.2-0.3-0.2-0.4
		c-1.3-2.1-2.5-4.1-3.8-6.2c-0.5-0.8-0.8-1.8-0.8-2.8c0-0.2,0-0.5,0-0.7L30.5,45.5z"/>
	<path class="st4" d="M41.9,22.2c0.8,0,1.5-0.7,1.4-1.5c0-0.8-0.7-1.4-1.4-1.4c-0.8,0-1.5,0.6-1.5,1.5
		C40.4,21.6,41.1,22.2,41.9,22.2z"/>
	<path class="st4" d="M32.9,20.3c1.2,0,2.2-1,2.1-2.2c0-1.2-1-2.2-2.2-2.1c-1.2,0-2.2,1-2.1,2.2C30.7,19.3,31.7,20.3,32.9,20.3z"/>
	<path class="st4" d="M31,41c0.4-0.6,0.7-1.2,1.1-1.8c0.4-0.7,0.6-1.4,0.6-2.1c0-2.1,0-4.3,0-6.4c0-0.3-0.1-0.6-0.2-0.9
		c-0.3-0.7-0.7-1.4-1-2.1c-0.6-1.3,0.2-2.5,1.6-2.5c2.7,0,5.4,0,8.1,0c1.4,0,2.2,1.3,1.6,2.6c0,0,0,0.1-0.1,0.1
		c-0.6,0.9-0.9,1.8-1.1,2.7l19.2-19.2C54.5,5.5,46.2,2,37,2C17.7,2,2,17.7,2,37c0,9.2,3.5,17.5,9.3,23.7L31,41z M41.9,17.4
		c1.9,0,3.4,1.5,3.4,3.4c0,1.9-1.5,3.4-3.4,3.4c-1.9,0-3.4-1.5-3.4-3.4C38.5,18.9,40,17.4,41.9,17.4z M32.8,14
		c2.3,0,4.2,1.8,4.2,4.1c0,2.3-1.8,4.1-4.1,4.1c-2.3,0-4.2-1.8-4.2-4.1C28.7,15.8,30.6,14,32.8,14z"/>
	<path class="st4" d="M34.6,37.4l4.9-4.9c0-0.1,0-0.2,0-0.4c0-2.8-0.2-2.1,1.1-4.7c0.1-0.1,0.1-0.3,0.2-0.5c-2.5,0-5,0-7.5,0
		c0.3,0.6,0.6,1.2,0.9,1.7c0.3,0.6,0.5,1.3,0.5,2c0,2.2,0,4.4,0,6.5C34.6,37.4,34.6,37.4,34.6,37.4z"/>
	<path class="st4" d="M24.3,58.1c0.1,0,0.3,0,0.4,0c4.1,0,8.1,0,12.2,0c4.1,0,8.3,0,12.4,0c0.4,0,0.7-0.1,1-0.5
		c0.2-0.4,0.1-0.7-0.1-1c-1.6-2.6-3.2-5.2-4.8-7.9c-0.2-0.3-0.3-0.3-0.6-0.2c-0.5,0.2-1,0.3-1.5,0.5c-1.4,0.5-2.8,0.5-4.2-0.1
		c-0.2-0.1-0.4-0.2-0.6-0.2c-0.6-0.2-1.1-0.3-1.7-0.1c-0.7,0.2-1.4,0.3-2.1,0.5c-1.5,0.5-3,0.5-4.4-0.1c-0.4-0.1-0.8-0.2-1.2-0.4
		c-0.4-0.1-0.5,0-0.7,0.3c-1.2,2-2.5,4.1-3.7,6.1c-0.4,0.6-0.7,1.2-1.1,1.8C23.3,57.3,23.7,58,24.3,58.1z"/>
	<path class="st4" d="M41.4,34.6c0,0.9,0,1.7,0,2.6c0,0.7,0.2,1.4,0.6,2c3.3,5.5,6.6,10.9,10,16.4c0.7,1.1,0.7,2.2,0,3.3
		c-0.6,0.8-1.4,1.2-2.5,1.2c-4.1,0-8.3,0-12.4,0c-4.1,0-8.3,0-12.4,0c-1.5,0-2.7-1-2.9-2.5c-0.1-0.7,0.1-1.3,0.5-1.9
		c0.9-1.4,1.7-2.9,2.6-4.3L13.3,62.7C19.5,68.5,27.8,72,37,72c19.3,0,35-15.7,35-35c0-9.2-3.5-17.5-9.3-23.7L41.4,34.6z"/>
</g>
<g class="st1">
	<path class="st4" d="M12.7,62.1l8.8-8.8c-0.8-1.1-1.5-2.4-2.1-3.8c-3.3-8.7,1.4-18.6,10.2-21.5c0.3-0.1,0.4-0.3,0.4-0.6
		c0-0.5,0-0.9,0-1.4c0.1-1.6,1.3-2.8,3-2.8c0.3,0,0.6,0,0.9,0c0-0.7,0-1.3,0-2c-0.3,0-0.6,0-0.9,0c-0.6,0-1-0.4-1-1
		c0-1.9,0-3.8,0-5.8c0-0.5,0.3-0.8,0.7-1c1.5,0,3,0,4.5,0c0.5,0.3,0.7,0.8,0.7,1.4c0,0.5,0,1,0,1.4c0,0.4,0,0.7,0,1.1
		c0.7,0,1.4,0,2.1,0c0.5-1.2,1.5-1.9,2.6-2.5c1.1-0.6,2.2-0.9,3.4-1.1c0.8-0.1,1.5-0.2,2.3-0.3c0.9,0,1.7,0,2.6,0
		c0.8,0.1,1.5,0.2,2.3,0.3c1.4,0.2,2.7,0.6,3.9,1.4c0.5,0.3,1,0.6,1.3,1.1c0,0,0,0.1,0.1,0.1l3.7-3.7C55.8,6.1,46.9,2,37,2
		C17.7,2,2,17.7,2,37C2,46.9,6.1,55.8,12.7,62.1z"/>
	<path class="st4" d="M34,15.6c0,1.3,0,2.6,0,3.9c0.6,0,1.3,0,1.9,0c0-1.3,0-2.6,0-3.9C35.2,15.6,34.6,15.6,34,15.6z"/>
	<path class="st4" d="M32,26.1c0,0.4,0,0.9,0,1.4c2-0.4,3.9-0.4,5.8,0c0-0.5,0-0.9,0-1.3c0-0.5-0.4-0.9-1-0.9c-1.3,0-2.6,0-3.9,0
		C32.5,25.3,32.1,25.6,32,26.1z"/>
	<path class="st4" d="M20.3,43.8c0,3,0.9,5.8,2.5,8.2l1.4-1.4c-0.7-1.2-1.3-2.4-1.6-3.8c-0.2-0.8-0.3-1.6-0.4-2.4c0,0,0,0,0,0
		c0-0.2,0-0.4,0-0.6c0-0.5,0.4-0.9,0.9-1c0.5,0,0.9,0.3,1,0.9c0.1,0.8,0.1,1.7,0.3,2.5c0.2,1,0.6,2,1.2,2.9l17.5-17.5
		c-2.3-1.6-5.2-2.5-8.2-2.5C26.8,29.2,20.3,35.8,20.3,43.8z"/>
	<path class="st4" d="M49.5,43.8c0-4-1.6-7.6-4.2-10.3L27.4,51.4c1.7,1.7,4,2.8,6.4,3c0.3,0,0.7,0,1,0.1c0.6,0,1,0.4,1,1
		c0,0.6-0.4,1-1.1,1c-3.3,0-6.5-1.4-8.8-3.7l-1.4,1.4c2.7,2.6,6.3,4.3,10.3,4.2C43,58.4,49.6,51.8,49.5,43.8z"/>
	<path class="st4" d="M55,16.5c-3.2-1.2-6.4-1.2-9.7-0.4c-1,0.2-2,0.6-2.9,1.3c-1,0.8-1,1.5,0,2.2c0.5,0.3,1,0.6,1.6,0.9
		c1.8,0.7,3.6,0.9,5.3,0.9c1.6,0,2.9-0.1,4.2-0.5c0.2,0,0.3-0.1,0.4-0.1l3-3c-0.1-0.1-0.2-0.3-0.4-0.4C56.1,17,55.6,16.7,55,16.5z"
		/>
	<path class="st4" d="M64.1,14.8l-5.4,5.4c-0.1,0.1-0.2,0.3-0.3,0.4c-0.2,0.2-0.4,0.3-0.6,0.4L46.6,32.2c1.1,1.1,2,2.3,2.8,3.7
		c4.5,8,1.3,18.4-6.9,22.6c-6.7,3.4-14.4,2-19.3-2.9l-8.5,8.5c6,5,13.8,7.9,22.2,7.9c19.3,0,35-15.7,35-35
		C72,28.6,69,20.8,64.1,14.8z"/>
	<path class="st4" d="M47.3,23.2c-1.6-0.2-3.2-0.5-4.6-1.2c-1.1-0.5-2.1-1.2-2.7-2.4c0-0.1-0.1-0.1-0.2-0.2c-0.6,0-1.3,0-1.9,0
		c-0.1,0.6,0.1,1.2-0.3,1.6c-0.5,0.5-1.1,0.2-1.6,0.3c0,0.6,0,1.2,0,1.9c0.3,0,0.6,0,0.9,0c1.7,0,2.9,1.2,3,2.9c0,0.5,0,0.9,0,1.4
		c0,0.3,0.1,0.4,0.4,0.5c1.6,0.5,3,1.3,4.3,2.3l7.1-7.1C50.2,23.4,48.8,23.4,47.3,23.2z"/>
</g>
<g class="st1">
	<path class="st4" d="M38.2,54.2c0.3,0,0.5,0,0.8,0c0-1.4,0-2.7,0-4c-1.3,0-2.6,0-4,0c0,0.2,0,0.4,0,0.6c0,1.4,0,2.9,0,4.3
		c0,0.8-0.4,1.1-1.2,1.1c-0.6,0-1.2,0-1.8,0c-1.3,0-2.2-0.6-2.8-1.7c-0.1-0.1-0.2-0.3-0.4-0.3c-0.3,0-0.6,0-0.9,0c0,0.2,0,0.4,0,0.6
		c0.3,2,2,3.4,4,3.5c3.9,0,7.8,0,11.7,0c0.1,0,0.3,0,0.4,0c0-0.7,0-1.3,0-2c-0.2,0-0.4,0-0.6,0c-1.8,0-3.5,0-5.3,0
		c-0.8,0-1.2-0.3-1.2-1C37,54.5,37.4,54.2,38.2,54.2z"/>
	<path class="st4" d="M29.9,44c0-0.7,0-1.4,0-2.1c0-0.4-0.1-0.6-0.4-0.8c-3.4-2-5.7-4.9-6.4-8.8c-0.2-0.8-0.2-1.7-0.2-2.6
		c0-3.9,0-7.8,0-11.7c0-2.7,1.7-4.3,4.3-4.3c6.5,0,13.1,0,19.6,0c2.6,0,4.3,1.7,4.3,4.3c0,1.6,0,3.2,0,4.8l10.6-10.6
		C55.4,5.9,46.7,2,37,2C17.7,2,2,17.7,2,37c0,9.7,3.9,18.4,10.2,24.7L29.9,44z"/>
	<path class="st4" d="M63.6,14.3L51.1,26.8c0,1,0,2,0,3c0,5-2.3,8.8-6.5,11.4c-0.4,0.2-0.5,0.4-0.5,0.9c0,1.7,0,3.3,0,5
		c0.1,1.8-0.8,3.2-3,3.1c0,1.3,0,2.6,0,4c0.4,0,0.8,0,1.2,0c0.9,0,1.8,0,2.7,0c0.8,0,1.1,0.3,1.1,1.1c0,1.3,0,2.5,0,3.8
		c0,0.8-0.3,1.1-1.1,1.1c-4.4,0-8.7,0-13.1,0c-3.4,0-5.9-2.7-6-6c0-0.3,0-0.7,0-1c0-0.6,0.4-1,1-1c1,0,2.1,0,3.1,0
		c0.5,0,0.9,0.3,1,0.9c0.2,1,0.3,1.2,1.4,1.2c0.2,0,0.4,0,0.6,0c0-1.4,0-2.7,0-4c-0.1,0-0.3,0-0.4,0c-1.4,0-2.3-0.9-2.5-2.2
		L14.3,63.6c6.1,5.2,14,8.4,22.7,8.4c19.3,0,35-15.7,35-35C72,28.3,68.8,20.4,63.6,14.3z"/>
	<path class="st4" d="M42,47.4c0-1.2,0-2.5,0-3.7c0-0.4,0-0.9,0-1.4c-2.4,0.7-4.7,0.9-7,0.6L32,46c0,0.5,0,1,0,1.5
		c0,0.5,0.3,0.6,0.7,0.6c2.9,0,5.8,0,8.7,0C41.9,48.1,42,48,42,47.4z"/>
	<path class="st4" d="M31.7,31.3c2.7-0.3,4.8-2.8,4.8-5.6c0-2.7-2.2-5.1-4.9-5.4c-1.3-0.1-2.6-0.1-3.9-0.1c-0.9,0-1.9,0-2.9,0
		c0,0.2,0,0.3,0,0.4c0,3.2,0,6.4,0,9.6c0,0.2,0,0.5,0,0.7c0,0.3,0.1,0.4,0.4,0.4c0.6,0,1.1,0,1.7,0C28.6,31.4,30.2,31.5,31.7,31.3z"
		/>
	<path class="st4" d="M49.1,17.8c0-1.1-0.9-2-2-2c-6.8,0-13.5,0-20.3,0c-1.3,0-2.2,1.2-1.9,2.5c2,0,4,0,6,0c3.8,0,7,2.9,7.5,6.5
		c0.5,3.8-1.9,7.4-5.6,8.3c-0.7,0.2-1.4,0.2-2.1,0.3c-1.8,0-3.5,0-5.4,0c0.1,0.2,0.1,0.4,0.2,0.6c1.2,2.9,3.2,4.8,6.1,5.9
		c0.6,0.2,1.2,0.4,1.8,0.5l15.6-15.6C49.1,22.5,49.1,20.1,49.1,17.8z"/>
	<path class="st4" d="M49.1,30.5c0-0.5,0-1.1,0-1.6L37,41c2,0,4-0.4,5.9-1.3C46.8,37.9,48.9,34.7,49.1,30.5z"/>
</g>
<g class="st1">
	<path class="st4" d="M30.7,43.3h-6.6c-0.2,0-0.3-0.2-0.3-0.3v-1c0-0.2,0.1-0.3,0.3-0.3h5.7v-3.7h-4.8c-0.2,0-0.3-0.2-0.3-0.3v-1
		c0-0.2,0.2-0.3,0.3-0.3h4.8v-3.9h-5.7c-0.2,0-0.3-0.2-0.3-0.3v-1c0-0.2,0.1-0.3,0.3-0.3h7.3c0.2,0,0.3,0.2,0.3,0.3v11.4l5.4-5.4v-6
		c0-0.2,0.2-0.3,0.3-0.3h1.2c0.2,0,0.3,0.2,0.3,0.3V35l3.4-3.4L42,31c-0.1-0.2,0-0.5,0.3-0.5h1l18.3-18.3C55.4,5.9,46.7,2,37,2
		C17.7,2,2,17.7,2,37c0,9.7,3.9,18.4,10.2,24.7L30.7,43.3z M12.9,30.6h1.4c0.1,0,0.3,0.1,0.3,0.2l2.8,4.6h0.1l2.8-4.6
		c0.1-0.1,0.2-0.2,0.3-0.2H22c0.3,0,0.5,0.3,0.3,0.5l-3.7,6l3.6,5.7c0.1,0.2,0,0.5-0.3,0.5h-1.5c-0.1,0-0.3-0.1-0.3-0.2l-2.5-4.3
		h-0.1l-2.6,4.3c0,0.1-0.1,0.2-0.3,0.2h-1.5c-0.3,0-0.5-0.3-0.3-0.5l3.6-5.7l-3.7-6C12.5,30.8,12.6,30.6,12.9,30.6z"/>
	<polygon class="st4" points="37.1,40.9 36.4,41.6 37.1,41.6 	"/>
	<polygon class="st4" points="48,39.8 50.3,34.9 45.7,34.9 48,39.8 	"/>
	<path class="st4" d="M63.6,14.3L44.9,33.1l0.1,0.3H51l1.1-2.5c0.1-0.1,0.2-0.3,0.4-0.3h1.1c0.3,0,0.4,0.2,0.3,0.5l-5.6,12.2
		c-0.1,0.1-0.2,0.2-0.3,0.2h-0.2c-0.1,0-0.3-0.1-0.3-0.2l-4-8.8L38.9,39v2.5h3c0.2,0,0.3,0.2,0.3,0.3v1c0,0.2-0.1,0.3-0.3,0.3h-7.2
		L14.3,63.6c6.1,5.2,14,8.4,22.7,8.4c19.3,0,35-15.7,35-35C72,28.3,68.8,20.4,63.6,14.3z M61.4,42.9c0,0.2-0.1,0.3-0.3,0.3h-1.2
		c-0.2,0-0.3-0.2-0.3-0.3V32.3h-4.9c-0.2,0-0.3-0.2-0.3-0.3v-1c0-0.2,0.1-0.3,0.3-0.3h6.5c0.2,0,0.3,0.2,0.3,0.3V42.9z"/>
</g>
</svg>
