<?xml version="1.0" encoding="utf-8"?>
<!-- Generator: Adobe Illustrator 24.1.2, SVG Export Plug-In . SVG Version: 6.00 Build 0)  -->
<svg version="1.1" id="Calque_1" xmlns="http://www.w3.org/2000/svg" xmlns:xlink="http://www.w3.org/1999/xlink" x="0px" y="0px"
	 viewBox="0 0 99.3 91" style="enable-background:new 0 0 99.3 91;" xml:space="preserve">
<style type="text/css">
	.st0{fill:#6DBFB0;}
	.st1{fill:#FFFFFF;}
</style>
<g id="Calque_2_2_">
	<g id="Calque_2-2_1_">
		<path class="st0" d="M90.3,70.8c-15.6,19.4-53,27.8-72.8,11.8C3.2,71.1-5.4,37.5,4.8,20.2C33.1-27.6,126.5,20.9,90.3,70.8"/>
	</g>
</g>
<g>
	<g>
		<g>
			<path class="st1" d="M79,50C79,50,79,49.9,79,50l-3-20.8c0-0.4-0.3-0.7-0.5-0.8c-0.3-0.1-0.7-0.3-0.9-0.1l-13.6,5.5
				c-0.5,0.3-0.9,0.9-0.7,1.5s0.9,0.9,1.5,0.7L74,31l2.7,19v0.1c0.5,3.5,0,7.2-1.9,10.3c-2,3.5-5.4,6.1-9.3,7.2
				c-4,1.1-8.1,0.5-11.7-1.6c0,0,0,0-0.1,0c0.8-0.5,1.5-1.2,2.2-1.9l13.5-3.6c0.7-0.1,0.9-0.8,0.8-1.3c-0.1-0.7-0.8-0.9-1.3-0.8
				l-10.4,2.8c1.1-1.8,2-3.6,2.7-5.5l9.3-2.4c0.7-0.1,0.9-0.8,0.8-1.3c-0.1-0.7-0.8-0.9-1.3-0.8l-6.9,1.9l2.6-4.5l5.4-1.5
				c0.7-0.1,0.9-0.8,0.8-1.3c-0.1-0.7-0.8-0.9-1.3-0.8l-3.2,0.8l2.4-4.3c0.3-0.5,0.1-1.2-0.4-1.6c-0.5-0.3-1.2-0.1-1.6,0.4l-2.4,4.3
				l-0.8-3.2c-0.1-0.7-0.8-0.9-1.3-0.8c-0.7,0.1-0.9,0.8-0.8,1.3l1.5,5.4l-1.5,2.6c0-3.6-0.9-7.3-2.8-10.7c-2.4-4.2-6.2-7.3-10.7-9
				l0,0l-5.3-2.2c-0.5-0.3-1.2,0-1.5,0.7c-0.3,0.5,0,1.2,0.7,1.5l5.1,2.2c0,0,0,0,0.1,0c4,1.5,7.3,4.3,9.4,8.1
				c2.4,4.3,3.1,9.3,1.9,14.2c-1.2,4.5-3.9,8.2-7.7,10.7l-2.2-3.4L53.5,46c0.1-0.7-0.1-1.2-0.8-1.3c-0.7-0.1-1.2,0.1-1.3,0.8
				l-3.6,13.5l-4.3-7.4l3-10.9c0.1-0.7-0.1-1.2-0.8-1.3s-1.2,0.1-1.3,0.8l-2.3,8.5l-3.4-5.8l1.8-6.6c0.1-0.7-0.1-1.2-0.8-1.3
				c-0.7-0.1-1.2,0.1-1.3,0.8l-1.2,4.3l-3.2-5.5c-0.3-0.5-1.1-0.7-1.6-0.4c-0.5,0.3-0.7,1.1-0.4,1.6l3.2,5.5l-4.3-1.2
				c-0.7-0.1-1.2,0.1-1.3,0.8s0.1,1.2,0.8,1.3l6.6,1.8l3.4,5.8l-8.6-2.3c-0.7-0.1-1.2,0.1-1.3,0.8s0.1,1.2,0.8,1.3l10.9,3l4.3,7.4
				l-13.5-3.6c-0.7-0.1-1.2,0.1-1.3,0.8s0.1,1.2,0.8,1.3l15.7,4.2l1.6,3.5c-8.8,4.3-19.4,1.2-24.4-7.3c-2.2-3.8-3-8.1-2.2-12.4v-0.1
				l3.2-22.9l7.7,3.1c0.5,0.3,1.2,0,1.5-0.7c0.3-0.5,0-1.2-0.7-1.5l-9-3.6c-0.3-0.1-0.7-0.1-0.9,0.1c-0.3,0.1-0.5,0.5-0.5,0.8
				l-3.5,24.6v0.1C19.6,51,20.5,55.8,23,60c3.9,6.7,10.9,10.4,18.1,10.4c3.2,0,6.5-0.7,9.4-2.3l1.5,2.4c0.3,0.4,0.5,0.5,0.9,0.5
				c0.1,0,0.4,0,0.5-0.1c0.5-0.3,0.7-1.1,0.4-1.6l-0.5-0.8c2.6,1.3,5.4,2,8.1,2c1.5,0,3.1-0.1,4.6-0.5c4.6-1.2,8.4-4.2,10.8-8.2
				C78.8,58.1,79.6,54.1,79,50z"/>
		</g>
	</g>
	<g>
		<g>
			<path class="st1" d="M39.2,26.3c-0.3-0.3-0.5-0.4-0.8-0.4s-0.5,0.1-0.8,0.4c-0.3,0.3-0.4,0.5-0.4,0.8c0,0.3,0.1,0.5,0.4,0.8
				c0.3,0.3,0.5,0.4,0.8,0.4s0.5-0.1,0.8-0.4c0.3-0.3,0.4-0.5,0.4-0.8C39.6,26.8,39.4,26.6,39.2,26.3z"/>
		</g>
	</g>
	<g>
		<g>
			<path class="st1" d="M71.4,36.4L71.4,36.4c-0.4-0.5-1.1-0.7-1.6-0.3c-0.5,0.4-0.7,1.1-0.3,1.6l0,0c0.3,0.3,0.5,0.5,0.9,0.5
				c0.3,0,0.5-0.1,0.7-0.3C71.7,37.6,71.7,36.9,71.4,36.4z"/>
		</g>
	</g>
</g>
</svg>
