<?xml version="1.0" encoding="utf-8"?>
<!-- Generator: Adobe Illustrator 26.0.3, SVG Export Plug-In . SVG Version: 6.00 Build 0)  -->
<svg version="1.1" id="Calque_1" xmlns="http://www.w3.org/2000/svg" xmlns:xlink="http://www.w3.org/1999/xlink" x="0px" y="0px"
	 viewBox="0 0 763.8 424.3" style="enable-background:new 0 0 763.8 424.3;" xml:space="preserve">
<style type="text/css">
	.st0{fill:none;}
	.st1{fill:none;stroke:#666766;stroke-width:3;stroke-miterlimit:10;}
	.st2{fill:#666766;}
</style>
<g>
	<rect x="0.4" y="0.1" class="st0" width="763.3" height="424.1"/>
	<rect x="0.4" y="0.1" class="st1" width="763.3" height="424.1"/>
	<polyline class="st2" points="23.5,310.5 20.2,310.5 20.2,287.1 13.6,287.1 13.6,284.2 30.1,284.2 30.1,287.1 23.5,287.1 	"/>
	<path class="st2" d="M32.3,301c0,3,0,7.6,3.8,7.6c2.9,0,3.4-3.1,3.4-4.6h3.1c0,2.1-1.3,7-6.6,7c-4.8,0-6.9-3.4-6.9-10.1
		c0-4.9,1-10.6,7-10.6c6,0,6.6,5.3,6.6,9.5v1.2 M39.4,298.6v-1.1c0-2.2-0.7-4.8-3.4-4.8c-3.2,0-3.6,4-3.6,5.2v0.7H39.4z"/>
	<path class="st2" d="M54.6,296.6c0-2.5-0.7-3.9-2.9-3.9c-1,0-3.2,0.3-3.2,3c0,2.3,2.4,2.8,4.9,3.6c2.4,0.8,4.8,1.7,4.8,5.6
		c0,4.2-2.7,6.2-6.4,6.2c-6.7,0-6.8-5-6.8-7h3.1c0,2.4,0.7,4.6,3.7,4.6c1,0,3.3-0.5,3.3-3.3c0-2.7-2.4-3.2-4.8-4
		c-2.4-0.8-4.9-1.5-4.9-5.6c0-3.7,2.9-5.5,6.3-5.5c5.8,0,6,4,6,6.3"/>
	<path class="st2" d="M62,285h3.1v5.7h3.4v2.4h-3.4v12.7c0,1.6,0.4,2.2,2,2.2c0.7,0,1-0.1,1.4-0.1v2.5c-0.4,0.1-1.2,0.2-2.5,0.2
		c-3.2,0-4-1.3-4-3.9v-13.6h-2.9v-2.4H62"/>
	<path class="st2" d="M73.3,301c0,3,0,7.6,3.8,7.6c2.9,0,3.4-3.1,3.4-4.6h3.1c0,2.1-1.3,7-6.6,7c-4.8,0-6.9-3.4-6.9-10.1
		c0-4.9,1-10.6,7-10.6c6,0,6.6,5.3,6.6,9.5v1.2 M80.4,298.6v-1.1c0-2.2-0.7-4.8-3.4-4.8c-3.2,0-3.6,4-3.6,5.2v0.7H80.4z"/>
	<path class="st2" d="M100,310.5h-2.9v-2.4H97c-0.4,1.5-2.1,3-4.3,3c-4.7,0-6.4-4.2-6.4-10.4c0-4.1,0.7-10.4,6.2-10.4
		c1.8,0,3.6,1.1,4.3,2.8H97v-8.8h3.1 M93.2,308.4c3.4,0,4-3.2,4-7.7c0-3.8-0.7-7.7-4-7.7c-2.9,0-3.6,3-3.6,7.7
		C89.6,305.4,90.3,308.4,93.2,308.4"/>
	<path class="st2" d="M113.9,293.2H111v-2.4h2.9v-2.3c0-3,1.3-4.5,4.3-4.5h2.3v2.7H119c-1.3,0-2,0.5-2,1.9v2.3h3.4v2.4H117v17.3
		h-3.1"/>
	<path class="st2" d="M128.7,290.3c5.7,0,7.1,4.8,7.1,10.4c0,5.6-1.4,10.4-7.1,10.4c-5.7,0-7.1-4.8-7.1-10.4
		C121.6,295.1,123,290.3,128.7,290.3 M132.6,300.7c0-4.3-0.6-8-3.9-8c-3.1,0-3.8,3.7-3.8,8c0,4.3,0.6,7.9,3.8,7.9
		C131.9,308.6,132.6,304.9,132.6,300.7"/>
	<path class="st2" d="M138.9,290.8h3.1v2.9h0.1c0.9-1.9,2.1-3.5,4.3-3.5c0.6,0,1.1,0.1,1.4,0.2v3c-0.3,0-0.7-0.1-1.7-0.1
		c-1.5,0-4,1.4-4,4.7v12.5h-3.1"/>
	<path class="st2" d="M158.7,284.2h3.1v8.8h0.1c0.8-1.6,3-2.8,4.8-2.8c5.1,0,5.1,4,5.1,6.3v14h-3.1v-13.6c0-1.5-0.1-4-2.9-4
		c-1.7,0-3.9,1.1-3.9,4v13.6h-3.1"/>
	<path class="st2" d="M175.3,296.7c0-4.5,1.9-6.5,6.6-6.5c6,0,6,3.6,6,5.7v11c0,0.8,0,1.6,0.9,1.6c0.4,0,0.6-0.1,0.7-0.2v2.2
		c-0.2,0-1,0.2-1.8,0.2c-1.2,0-2.7,0-2.8-2.5H185c-1,1.8-2.9,2.8-4.7,2.8c-3.7,0-5.4-2.2-5.4-5.7c0-2.8,1.2-4.7,3.7-5.5l4.2-1.2
		c2.2-0.7,2.2-1.3,2.2-3c0-1.8-1.1-2.9-3.2-2.9c-3.4,0-3.4,3.2-3.4,3.9v0.2 M184.9,299.8c-1.1,1.2-3.9,1.5-5.3,2.3
		c-1,0.6-1.5,1.4-1.5,3.1c0,2,0.7,3.4,2.8,3.4c2,0,4-1.7,4-3.7V299.8z"/>
	<path class="st2" d="M192.2,290.8h3.1v2.9h0.1c0.9-1.9,2.1-3.5,4.3-3.5c0.6,0,1.1,0.1,1.4,0.2v3c-0.3,0-0.7-0.1-1.7-0.1
		c-1.5,0-4.1,1.4-4.1,4.7v12.5h-3.1"/>
	<path class="st2" d="M203.4,290.8h2.9v2.3h0.1c0.8-1.8,2.9-2.8,4.8-2.8c2.3,0,3.6,0.9,4.3,3.1c0.9-1.7,2.7-3.1,4.7-3.1
		c5.2,0,5.2,3.9,5.2,6.3v14h-3.1v-13.6c0-1.5-0.1-4-2.6-4c-1.4,0-3.7,0.9-3.7,4v13.6h-3.1v-13.6c0-1.5-0.1-4-2.6-4
		c-1.4,0-3.7,0.9-3.7,4v13.6h-3.1"/>
	<path class="st2" d="M230.7,293.2h-2.9v-2.4h2.9v-2.3c0-3,1.3-4.5,4.3-4.5h2.3v2.7h-1.4c-1.3,0-2,0.5-2,1.9v2.3h3.4v2.4h-3.4v17.3
		h-3.1"/>
	<path class="st2" d="M252.3,310.5h-2.9v-2.3h-0.1c-0.8,1.8-2.9,2.8-4.8,2.8c-5.2,0-5.2-3.9-5.2-6.3v-14h3.1v13.6c0,1.5,0.1,4,2.9,4
		c1.7,0,3.9-1.1,3.9-4v-13.6h3.1"/>
	<rect x="256.6" y="284.2" class="st2" width="3.1" height="26.3"/>
	<path class="st2" d="M281.2,296.6c0-2.5-0.7-3.9-2.9-3.9c-1,0-3.2,0.3-3.2,3c0,2.3,2.4,2.8,4.9,3.6c2.4,0.8,4.8,1.7,4.8,5.6
		c0,4.2-2.7,6.2-6.4,6.2c-6.7,0-6.8-5-6.8-7h3.1c0,2.4,0.7,4.6,3.7,4.6c1,0,3.3-0.5,3.3-3.3c0-2.7-2.4-3.2-4.8-4
		c-2.4-0.8-4.9-1.5-4.9-5.6c0-3.7,2.9-5.5,6.3-5.5c5.8,0,6,4,6,6.3"/>
	<path class="st2" d="M300.8,310.5h-2.9v-2.3h-0.1c-0.8,1.8-2.9,2.8-4.8,2.8c-5.2,0-5.2-3.9-5.2-6.3v-14h3.1v13.6c0,1.5,0.1,4,2.9,4
		c1.7,0,3.9-1.1,3.9-4v-13.6h3.1"/>
	<path class="st2" d="M304.9,284.2h3.1v8.8h0.1c0.7-1.7,2.6-2.8,4.6-2.8c5.3,0,6,6.3,6,10.4c0,5.6-1.9,10.4-6.4,10.4
		c-2.1,0-3.9-1.5-4.3-3h-0.1v2.4h-2.9 M311.8,308.4c2.9,0,3.6-3.2,3.6-7.7c0-4.7-0.7-7.7-3.6-7.7c-3.3,0-4,3.9-4,7.7
		C307.8,304.7,308.5,308.4,311.8,308.4"/>
	<path class="st2" d="M330.4,296.6c0-2.5-0.7-3.9-2.9-3.9c-1,0-3.2,0.3-3.2,3c0,2.3,2.4,2.8,4.9,3.6c2.4,0.8,4.8,1.7,4.8,5.6
		c0,4.2-2.7,6.2-6.4,6.2c-6.7,0-6.8-5-6.8-7h3.1c0,2.4,0.7,4.6,3.7,4.6c1,0,3.3-0.5,3.3-3.3c0-2.7-2.4-3.2-4.8-4
		c-2.4-0.8-4.9-1.5-4.9-5.6c0-3.7,2.9-5.5,6.3-5.5c5.8,0,6,4,6,6.3"/>
	<path class="st2" d="M337.9,285h3.1v5.7h3.4v2.4H341v12.7c0,1.6,0.4,2.2,2,2.2c0.7,0,1-0.1,1.4-0.1v2.5c-0.4,0.1-1.2,0.2-2.5,0.2
		c-3.2,0-4-1.3-4-3.9v-13.6H335v-2.4h2.9"/>
	<path class="st2" d="M346.1,296.7c0-4.5,1.9-6.5,6.6-6.5c6,0,6,3.6,6,5.7v11c0,0.8,0,1.6,0.9,1.6c0.4,0,0.6-0.1,0.7-0.2v2.2
		c-0.2,0-1,0.2-1.8,0.2c-1.2,0-2.7,0-2.8-2.5h-0.1c-1,1.8-2.9,2.8-4.7,2.8c-3.7,0-5.4-2.2-5.4-5.7c0-2.8,1.2-4.7,3.7-5.5l4.2-1.2
		c2.2-0.7,2.2-1.3,2.2-3c0-1.8-1.1-2.9-3.2-2.9c-3.4,0-3.4,3.2-3.4,3.9v0.2 M355.6,299.8c-1.1,1.2-3.9,1.5-5.3,2.3
		c-1,0.6-1.5,1.4-1.5,3.1c0,2,0.7,3.4,2.8,3.4c2,0,4-1.7,4-3.7V299.8z"/>
	<path class="st2" d="M362.9,290.8h2.9v2.3h0.1c0.8-1.8,2.9-2.8,4.8-2.8c5.2,0,5.2,3.9,5.2,6.3v14h-3.1v-13.6c0-1.5-0.1-4-2.9-4
		c-1.7,0-3.9,1.1-3.9,4v13.6h-3.1"/>
	<path class="st2" d="M389.4,296.8c0-1.9-0.8-4.1-3.1-4.1c-1.9,0-3.9,1-3.9,8.2c0,2.6,0,7.7,3.8,7.7c2.6,0,3.2-2.8,3.2-4.9h3.1
		c0,3.1-1.6,7.4-6.5,7.4c-4.8,0-6.9-3.4-6.9-10.1c0-4.9,1-10.6,7-10.6c5.4,0,6.3,4.2,6.3,6.5"/>
	<path class="st2" d="M398.3,301c0,3,0,7.6,3.8,7.6c2.9,0,3.4-3.1,3.4-4.6h3.1c0,2.1-1.3,7-6.6,7c-4.8,0-6.8-3.4-6.8-10.1
		c0-4.9,1-10.6,7-10.6c6,0,6.6,5.3,6.6,9.5v1.2 M405.4,298.6v-1.1c0-2.2-0.7-4.8-3.4-4.8c-3.2,0-3.6,4-3.6,5.2v0.7H405.4z"/>
	<path class="st2" d="M420.6,296.6c0-2.5-0.7-3.9-2.9-3.9c-1,0-3.2,0.3-3.2,3c0,2.3,2.4,2.8,4.8,3.6c2.4,0.8,4.8,1.7,4.8,5.6
		c0,4.2-2.7,6.2-6.4,6.2c-6.7,0-6.8-5-6.8-7h3.1c0,2.4,0.7,4.6,3.7,4.6c1,0,3.3-0.5,3.3-3.3c0-2.7-2.4-3.2-4.8-4
		c-2.4-0.8-4.9-1.5-4.9-5.6c0-3.7,2.9-5.5,6.3-5.5c5.7,0,6,4,6,6.3"/>
	<path class="st2" d="M435.5,296.7c0-4.5,1.9-6.5,6.6-6.5c6,0,6,3.6,6,5.7v11c0,0.8,0,1.6,0.9,1.6c0.4,0,0.6-0.1,0.7-0.2v2.2
		c-0.2,0-1,0.2-1.8,0.2c-1.2,0-2.7,0-2.8-2.5h-0.1c-1,1.8-2.9,2.8-4.8,2.8c-3.7,0-5.4-2.2-5.4-5.7c0-2.8,1.2-4.7,3.7-5.5l4.2-1.2
		c2.2-0.7,2.2-1.3,2.2-3c0-1.8-1.1-2.9-3.2-2.9c-3.4,0-3.4,3.2-3.4,3.9v0.2 M445,299.8c-1.1,1.2-3.9,1.5-5.3,2.3
		c-1,0.6-1.5,1.4-1.5,3.1c0,2,0.7,3.4,2.8,3.4c2,0,4-1.7,4-3.7V299.8z"/>
	<path class="st2" d="M452.4,290.8h2.9v2.3h0.1c0.8-1.8,2.9-2.8,4.8-2.8c5.2,0,5.2,3.9,5.2,6.3v14h-3.1v-13.6c0-1.5-0.1-4-2.9-4
		c-1.7,0-3.9,1.1-3.9,4v13.6h-3.1"/>
	<path class="st2" d="M482.4,310.5h-2.9v-2.4h-0.1c-0.4,1.5-2.1,3-4.3,3c-4.7,0-6.4-4.2-6.4-10.4c0-4.1,0.7-10.4,6.2-10.4
		c1.8,0,3.6,1.1,4.3,2.8h0.1v-8.8h3.1 M475.6,308.4c3.4,0,4-3.2,4-7.7c0-3.8-0.7-7.7-4-7.7c-2.9,0-3.6,3-3.6,7.7
		C472,305.4,472.7,308.4,475.6,308.4"/>
	<path class="st2" d="M495.4,290.8h2.9v2.4h0.1c0.4-1.5,2.1-3,4.3-3c4.7,0,6.5,4.2,6.5,10c0,4.5-1.3,10.8-6.5,10.8
		c-1.8,0-3.4-1.1-4.1-2.8h-0.1v8.7h-3.1 M502.3,308.4c2.9,0,3.6-3,3.6-8.1c0-4.3-0.7-7.4-3.6-7.4c-3.4,0-4,3.2-4,7.7
		C498.3,304.5,499,308.4,502.3,308.4"/>
	<path class="st2" d="M512.5,290.8h3.1v2.9h0.1c0.9-1.9,2.1-3.5,4.3-3.5c0.6,0,1.1,0.1,1.4,0.2v3c-0.3,0-0.7-0.1-1.7-0.1
		c-1.5,0-4.1,1.4-4.1,4.7v12.5h-3.1"/>
	<path class="st2" d="M529.5,290.3c5.7,0,7.1,4.8,7.1,10.4c0,5.6-1.4,10.4-7.1,10.4c-5.7,0-7.1-4.8-7.1-10.4
		C522.4,295.1,523.9,290.3,529.5,290.3 M533.4,300.7c0-4.3-0.6-8-3.9-8c-3.1,0-3.8,3.7-3.8,8c0,4.3,0.6,7.9,3.8,7.9
		C532.7,308.6,533.4,304.9,533.4,300.7"/>
	<path class="st2" d="M552.8,310.5h-2.9v-2.4h-0.1c-0.4,1.5-2.1,3-4.3,3c-4.7,0-6.4-4.2-6.4-10.4c0-4.1,0.7-10.4,6.2-10.4
		c1.8,0,3.6,1.1,4.3,2.8h0.1v-8.8h3.1 M545.9,308.4c3.4,0,4-3.2,4-7.7c0-3.8-0.7-7.7-4-7.7c-2.9,0-3.6,3-3.6,7.7
		C542.3,305.4,543,308.4,545.9,308.4"/>
	<path class="st2" d="M569.9,310.5h-2.9v-2.3h-0.1c-0.8,1.8-2.9,2.8-4.8,2.8c-5.2,0-5.2-3.9-5.2-6.3v-14h3.1v13.6c0,1.5,0.1,4,2.9,4
		c1.7,0,3.9-1.1,3.9-4v-13.6h3.1"/>
	<path class="st2" d="M583.3,296.8c0-1.9-0.8-4.1-3.1-4.1c-1.9,0-3.9,1-3.9,8.2c0,2.6,0,7.7,3.8,7.7c2.6,0,3.2-2.8,3.2-4.9h3.1
		c0,3.1-1.6,7.4-6.5,7.4c-4.8,0-6.8-3.4-6.8-10.1c0-4.9,1-10.6,7-10.6c5.4,0,6.3,4.2,6.3,6.5"/>
	<path class="st2" d="M592.2,301c0,3,0,7.6,3.8,7.6c2.9,0,3.4-3.1,3.4-4.6h3.1c0,2.1-1.2,7-6.6,7c-4.8,0-6.9-3.4-6.9-10.1
		c0-4.9,1-10.6,7-10.6c6,0,6.6,5.3,6.6,9.5v1.2 M599.4,298.6v-1.1c0-2.2-0.7-4.8-3.4-4.8c-3.2,0-3.6,4-3.6,5.2v0.7H599.4z"/>
	<path class="st2" d="M619,310.5h-2.9v-2.4H616c-0.4,1.5-2.1,3-4.3,3c-4.7,0-6.4-4.2-6.4-10.4c0-4.1,0.7-10.4,6.2-10.4
		c1.8,0,3.6,1.1,4.3,2.8h0.1v-8.8h3.1 M612.2,308.4c3.4,0,4-3.2,4-7.7c0-3.8-0.7-7.7-4-7.7c-2.9,0-3.6,3-3.6,7.7
		C608.6,305.4,609.3,308.4,612.2,308.4"/>
	<path class="st2" d="M29.6,340.9c0-2.5-0.7-3.9-2.9-3.9c-1,0-3.2,0.3-3.2,3c0,2.3,2.4,2.8,4.9,3.6c2.4,0.8,4.8,1.7,4.8,5.6
		c0,4.2-2.7,6.2-6.4,6.2c-6.7,0-6.8-5-6.8-7h3.1c0,2.4,0.7,4.6,3.7,4.6c1,0,3.3-0.5,3.3-3.3c0-2.7-2.4-3.2-4.8-4
		c-2.4-0.8-4.9-1.5-4.9-5.6c0-3.7,2.9-5.5,6.3-5.5c5.8,0,6,4,6,6.3"/>
	<path class="st2" d="M49.1,354.8h-3v-2.3h-0.1c-0.8,1.8-2.9,2.8-4.8,2.8c-5.2,0-5.2-4-5.2-6.3v-14h3.1v13.6c0,1.5,0.1,4,2.9,4
		c1.7,0,3.9-1.1,3.9-4v-13.6h3.1"/>
	<path class="st2" d="M61.7,340.9c0-2.5-0.7-3.9-2.9-3.9c-1,0-3.2,0.3-3.2,3c0,2.3,2.4,2.8,4.9,3.6c2.4,0.8,4.8,1.7,4.8,5.6
		c0,4.2-2.7,6.2-6.4,6.2c-6.7,0-6.8-5-6.8-7h3.1c0,2.4,0.7,4.6,3.7,4.6c1,0,3.3-0.5,3.3-3.3c0-2.7-2.4-3.2-4.8-4
		c-2.4-0.8-4.9-1.5-4.9-5.6c0-3.7,2.9-5.5,6.3-5.5c5.8,0,6,4,6,6.3"/>
	<path class="st2" d="M69.1,329.3h3.1v5.7h3.4v2.4h-3.4v12.7c0,1.6,0.4,2.2,2,2.2c0.7,0,1-0.1,1.4-0.1v2.5c-0.4,0.1-1.2,0.2-2.5,0.2
		c-3.2,0-4-1.3-4-3.9v-13.6h-2.9v-2.4h2.9"/>
	<path class="st2" d="M77.3,341c0-4.5,1.9-6.5,6.6-6.5c6,0,6,3.6,6,5.7v11c0,0.8,0,1.6,0.9,1.6c0.4,0,0.6-0.1,0.7-0.2v2.2
		c-0.2,0-1,0.2-1.8,0.2c-1.2,0-2.7,0-2.8-2.5h-0.1c-1,1.8-2.9,2.8-4.7,2.8c-3.7,0-5.4-2.2-5.4-5.7c0-2.8,1.2-4.7,3.7-5.5l4.2-1.2
		c2.2-0.7,2.2-1.3,2.2-3c0-1.8-1.1-2.9-3.2-2.9c-3.4,0-3.4,3.2-3.4,3.9v0.2 M86.8,344.1c-1.1,1.2-3.9,1.5-5.3,2.3
		c-1,0.6-1.5,1.4-1.5,3.1c0,2,0.7,3.4,2.8,3.4c2,0,4-1.7,4-3.8V344.1z"/>
	<path class="st2" d="M94.3,328.5h3.1v3.5h-3.1V328.5z M94.3,335.1h3.1v19.7h-3.1V335.1z"/>
	<path class="st2" d="M101.7,335.1h2.9v2.3h0.1c0.8-1.8,2.9-2.8,4.8-2.8c5.2,0,5.2,4,5.2,6.3v14h-3.1v-13.6c0-1.5-0.1-4-2.9-4
		c-1.7,0-3.9,1.1-3.9,4v13.6h-3.1"/>
	<path class="st2" d="M118.3,341c0-4.5,1.9-6.5,6.6-6.5c6,0,6,3.6,6,5.7v11c0,0.8,0,1.6,0.9,1.6c0.4,0,0.6-0.1,0.7-0.2v2.2
		c-0.2,0-1,0.2-1.8,0.2c-1.2,0-2.6,0-2.8-2.5h-0.1c-1,1.8-2.9,2.8-4.7,2.8c-3.7,0-5.4-2.2-5.4-5.7c0-2.8,1.2-4.7,3.7-5.5l4.2-1.2
		c2.2-0.7,2.2-1.3,2.2-3c0-1.8-1.1-2.9-3.2-2.9c-3.4,0-3.4,3.2-3.4,3.9v0.2 M127.8,344.1c-1.1,1.2-3.9,1.5-5.3,2.3
		c-1,0.6-1.5,1.4-1.5,3.1c0,2,0.7,3.4,2.8,3.4c2,0,4-1.7,4-3.8V344.1z"/>
	<path class="st2" d="M135.1,328.5h3.1v8.8h0.1c0.7-1.7,2.6-2.8,4.6-2.8c5.3,0,6,6.3,6,10.4c0,5.6-1.9,10.4-6.4,10.4
		c-2.1,0-3.9-1.5-4.3-3h-0.1v2.4h-2.9 M142,352.7c2.9,0,3.6-3.2,3.6-7.7c0-4.7-0.7-7.7-3.6-7.7c-3.3,0-4,3.9-4,7.7
		C138,349,138.7,352.7,142,352.7"/>
	<rect x="152.4" y="328.5" class="st2" width="3.1" height="26.3"/>
	<path class="st2" d="M158.1,335.1h3.4l3.9,15.8h0.1l3.5-15.8h3.4l-5.7,21.1c-0.7,2.7-1.5,5.2-5.3,5.2c-1.2,0-1.7-0.1-2.2-0.1v-2.4
		c0.4,0.1,1,0.1,1.8,0.1c1.4,0,2.1-0.8,2.4-1.9l0.6-1.7"/>
	<path class="st2" d="M183.8,328.5h3.1v3.5h-3.1V328.5z M183.8,335.1h3.1v19.7h-3.1V335.1z"/>
	<path class="st2" d="M191.1,335.1h2.9v2.3h0.1c0.8-1.8,2.9-2.8,4.8-2.8c5.2,0,5.2,4,5.2,6.3v14H201v-13.6c0-1.5-0.1-4-2.9-4
		c-1.7,0-3.9,1.1-3.9,4v13.6h-3.1"/>
	<path class="st2" d="M216.6,341c0-4.5,1.9-6.5,6.6-6.5c6,0,6,3.6,6,5.7v11c0,0.8,0,1.6,0.9,1.6c0.4,0,0.6-0.1,0.7-0.2v2.2
		c-0.2,0-1,0.2-1.8,0.2c-1.2,0-2.7,0-2.8-2.5h-0.1c-1,1.8-2.9,2.8-4.7,2.8c-3.7,0-5.4-2.2-5.4-5.7c0-2.8,1.2-4.7,3.7-5.5l4.2-1.2
		c2.2-0.7,2.2-1.3,2.2-3c0-1.8-1.1-2.9-3.2-2.9c-3.4,0-3.4,3.2-3.4,3.9v0.2 M226.1,344.1c-1.1,1.2-3.9,1.5-5.3,2.3
		c-1,0.6-1.5,1.4-1.5,3.1c0,2,0.7,3.4,2.8,3.4c2,0,4-1.7,4-3.8V344.1z"/>
	<path class="st2" d="M242.8,341.1c0-1.9-0.8-4.1-3.1-4.1c-1.9,0-3.9,1-3.9,8.2c0,2.6,0,7.7,3.7,7.7c2.7,0,3.2-2.8,3.2-4.9h3.1
		c0,3.1-1.6,7.4-6.5,7.4c-4.8,0-6.9-3.4-6.9-10.1c0-4.9,1-10.6,7-10.6c5.4,0,6.3,4.2,6.3,6.5"/>
	<path class="st2" d="M258.5,341.1c0-1.9-0.8-4.1-3.1-4.1c-1.9,0-3.9,1-3.9,8.2c0,2.6,0,7.7,3.8,7.7c2.6,0,3.2-2.8,3.2-4.9h3.1
		c0,3.1-1.6,7.4-6.5,7.4c-4.8,0-6.9-3.4-6.9-10.1c0-4.9,1-10.6,7-10.6c5.4,0,6.3,4.2,6.3,6.5"/>
	<path class="st2" d="M271,334.6c5.7,0,7.1,4.8,7.1,10.4c0,5.6-1.4,10.4-7.1,10.4c-5.7,0-7.1-4.8-7.1-10.4
		C263.9,339.4,265.3,334.6,271,334.6 M274.9,344.9c0-4.3-0.6-8-3.9-8c-3.1,0-3.8,3.7-3.8,8c0,4.3,0.6,7.9,3.8,7.9
		C274.2,352.9,274.9,349.2,274.9,344.9"/>
	<path class="st2" d="M281.3,335.1h3.1v3h0.1c0.9-1.9,2.1-3.5,4.3-3.5c0.6,0,1.1,0.1,1.4,0.2v3c-0.3,0-0.7-0.1-1.7-0.1
		c-1.5,0-4,1.4-4,4.7v12.5h-3.1"/>
	<path class="st2" d="M305.2,354.8h-2.9v-2.4h-0.1c-0.4,1.5-2.1,3-4.3,3c-4.7,0-6.4-4.2-6.4-10.4c0-4.1,0.7-10.4,6.2-10.4
		c1.8,0,3.6,1.1,4.3,2.8h0.1v-8.8h3.1 M298.3,352.7c3.4,0,4-3.2,4-7.7c0-3.8-0.7-7.7-4-7.7c-2.9,0-3.6,3-3.6,7.7
		C294.7,349.7,295.4,352.7,298.3,352.7"/>
	<path class="st2" d="M308.8,341c0-4.5,1.9-6.5,6.6-6.5c6,0,6,3.6,6,5.7v11c0,0.8,0,1.6,1,1.6c0.4,0,0.6-0.1,0.7-0.2v2.2
		c-0.2,0-1,0.2-1.8,0.2c-1.2,0-2.7,0-2.8-2.5h-0.1c-1,1.8-2.9,2.8-4.7,2.8c-3.7,0-5.4-2.2-5.4-5.7c0-2.8,1.2-4.7,3.7-5.5l4.2-1.2
		c2.2-0.7,2.2-1.3,2.2-3c0-1.8-1.1-2.9-3.2-2.9c-3.4,0-3.4,3.2-3.4,3.9v0.2 M318.3,344.1c-1.1,1.2-3.9,1.5-5.3,2.3
		c-1,0.6-1.5,1.4-1.5,3.1c0,2,0.7,3.4,2.8,3.4c2,0,4-1.7,4-3.8V344.1z"/>
	<path class="st2" d="M325.6,335.1h2.9v2.3h0.1c0.8-1.8,2.9-2.8,4.8-2.8c5.2,0,5.2,4,5.2,6.3v14h-3.1v-13.6c0-1.5-0.1-4-2.9-4
		c-1.7,0-3.9,1.1-3.9,4v13.6h-3.1"/>
	<path class="st2" d="M352.1,341.1c0-1.9-0.8-4.1-3.1-4.1c-1.9,0-3.9,1-3.9,8.2c0,2.6,0,7.7,3.8,7.7c2.7,0,3.2-2.8,3.2-4.9h3.1
		c0,3.1-1.6,7.4-6.5,7.4c-4.8,0-6.8-3.4-6.8-10.1c0-4.9,1-10.6,7-10.6c5.4,0,6.3,4.2,6.3,6.5"/>
	<path class="st2" d="M361,345.3c0,3,0,7.6,3.8,7.6c2.9,0,3.4-3.1,3.4-4.6h3.1c0,2.1-1.3,7-6.6,7c-4.8,0-6.9-3.4-6.9-10.1
		c0-4.9,1-10.6,7-10.6c6,0,6.6,5.3,6.6,9.5v1.2 M368.2,342.9v-1.1c0-2.2-0.7-4.8-3.4-4.8c-3.2,0-3.6,4-3.6,5.2v0.7H368.2z"/>
	<polyline class="st2" points="382,335.1 385.3,335.1 388.4,351.2 388.5,351.2 391.9,335.1 395.5,335.1 398.8,351.2 398.9,351.2 
		401.9,335.1 405.2,335.1 400.5,354.8 397.1,354.8 393.6,338.7 393.6,338.7 390.2,354.8 386.6,354.8 	"/>
	<path class="st2" d="M407.8,328.5h3.1v3.5h-3.1V328.5z M407.8,335.1h3.1v19.7h-3.1V335.1z"/>
	<path class="st2" d="M416,329.3h3.1v5.7h3.4v2.4h-3.4v12.7c0,1.6,0.4,2.2,2,2.2c0.7,0,1-0.1,1.4-0.1v2.5c-0.4,0.1-1.2,0.2-2.5,0.2
		c-3.2,0-4-1.3-4-3.9v-13.6h-2.9v-2.4h2.9"/>
	<path class="st2" d="M424.7,328.5h3.1v8.8h0.1c0.8-1.6,3-2.8,4.8-2.8c5.1,0,5.1,4,5.1,6.3v14h-3.1v-13.6c0-1.5-0.1-4-2.9-4
		c-1.7,0-3.9,1.1-3.9,4v13.6h-3.1"/>
	<path class="st2" d="M467.3,341.7c0,6.6-1.2,13.7-8.5,13.7c-7.3,0-8.5-7-8.5-13.7c0-6.6,1.2-13.7,8.5-13.7
		C466.1,328,467.3,335,467.3,341.7 M453.8,341.7c0,6.1,0.6,11,5.1,11c4.5,0,5.1-4.9,5.1-11c0-6.1-0.6-11-5.1-11
		C454.3,330.7,453.8,335.6,453.8,341.7"/>
	<polyline class="st2" points="471.2,328.5 484.8,328.5 484.8,331.4 474.5,331.4 474.5,339.6 484.3,339.6 484.3,342.5 474.5,342.5 
		474.5,351.9 485.3,351.9 485.3,354.8 471.2,354.8 	"/>
	<polyline class="st2" points="488.3,328.5 491.6,328.5 491.6,341.3 491.6,341.3 500.7,328.5 504.3,328.5 496.4,339.5 505,354.8 
		501.4,354.8 494.3,342.1 491.6,345.9 491.6,354.8 488.3,354.8 	"/>
	<path class="st2" d="M523.4,341.7c0,6.6-1.2,13.7-8.5,13.7c-7.2,0-8.5-7-8.5-13.7c0-6.6,1.2-13.7,8.5-13.7
		C522.1,328,523.4,335,523.4,341.7 M509.8,341.7c0,6.1,0.6,11,5.1,11c4.5,0,5.1-4.9,5.1-11c0-6.1-0.6-11-5.1-11
		C510.4,330.7,509.8,335.6,509.8,341.7"/>
	<rect x="527.2" y="342.9" class="st2" width="9" height="2.9"/>
	<polyline class="st2" points="548.3,354.8 545,354.8 545,331.4 538.5,331.4 538.5,328.5 554.9,328.5 554.9,331.4 548.3,331.4 	"/>
	<polyline class="st2" points="557.4,328.5 571,328.5 571,331.4 560.6,331.4 560.6,339.6 570.4,339.6 570.4,342.5 560.6,342.5 
		560.6,351.9 571.4,351.9 571.4,354.8 557.4,354.8 	"/>
	<polyline class="st2" points="572.9,328.5 576.5,328.5 581.3,338.3 586.1,328.5 589.5,328.5 583,341.4 590,354.8 586.4,354.8 
		581.1,344.3 575.8,354.8 572.4,354.8 579.4,341.4 	"/>
	<path class="st2" d="M604.8,328c7.6,0,13.7,6.1,13.7,13.7s-6.1,13.7-13.7,13.7c-7.5,0-13.7-6.1-13.7-13.7S597.3,328,604.8,328
		 M616,341.7c0-6.3-5-11.5-11.2-11.5c-6.2,0-11.2,5.1-11.2,11.5c0,6.3,5,11.5,11.2,11.5C611,353.1,616,348,616,341.7 M599.4,333.7
		h6.2c3.5,0,5.5,1.5,5.5,4.7c0,2.8-1.9,4.2-4.3,4.4l4.6,6.9h-2.4l-4.4-6.7h-2.6v6.7h-2.4V333.7z M604.4,340.8c2.2,0,4.2-0.1,4.2-2.5
		c0-2.1-1.8-2.4-3.5-2.4h-3.3v4.9H604.4z"/>
	<path class="st2" d="M29.8,397.8c0,5.9-2.7,8-6.7,8c-1.2,0-6,0-6.5-4.9h3.1c0.2,1.8,1.5,2.5,3.2,2.5c4,0,3.8-3.1,3.8-4.4v-2.6h-0.1
		c-0.7,1.7-2.5,2.6-4.5,2.6c-5.7,0-6.1-7.3-6.1-9.9c0-5.3,1.4-10.4,6.4-10.4c2.1,0,3.9,1.5,4.3,3h0.1v-2.5h3 M19.3,389.2
		c0,3.2,0.5,7.2,3.6,7.2c3.4,0,4-3.2,4-7.2c0-3.8-0.7-7.7-4-7.7C20,381.5,19.3,384.5,19.3,389.2"/>
	<path class="st2" d="M46.9,399.1h-2.9v-2.3h-0.1c-0.8,1.8-2.9,2.8-4.8,2.8c-5.2,0-5.2-4-5.2-6.3v-14H37V393c0,1.5,0.1,4,2.9,4
		c1.7,0,3.9-1.1,3.9-4v-13.6h3.1"/>
	<path class="st2" d="M51.1,372.8h3.1v3.5h-3.1V372.8z M51.1,379.3h3.1v19.7h-3.1V379.3z"/>
	<path class="st2" d="M71.5,399.1h-3v-2.4h-0.1c-0.4,1.5-2.1,3-4.3,3c-4.7,0-6.4-4.2-6.4-10.4c0-4.1,0.7-10.4,6.2-10.4
		c1.8,0,3.6,1.1,4.3,2.8h0.1v-8.8h3.1 M64.6,397c3.4,0,4-3.2,4-7.7c0-3.8-0.7-7.7-4-7.7c-2.9,0-3.6,3-3.6,7.7
		C61,393.9,61.7,397,64.6,397"/>
	<path class="st2" d="M78.2,389.6c0,3,0,7.6,3.8,7.6c2.9,0,3.4-3.1,3.4-4.6h3.1c0,2.1-1.3,7-6.6,7c-4.8,0-6.8-3.4-6.8-10.1
		c0-4.9,1-10.6,7-10.6c6,0,6.6,5.3,6.6,9.5v1.2 M85.3,387.2v-1.1c0-2.2-0.7-4.8-3.4-4.8c-3.2,0-3.6,4-3.6,5.2v0.7H85.3z"/>
	<rect x="92.1" y="372.8" class="st2" width="3.1" height="26.3"/>
	<path class="st2" d="M99.7,372.8h3.1v3.5h-3.1V372.8z M99.7,379.3h3.1v19.7h-3.1V379.3z"/>
	<path class="st2" d="M107,379.3h2.9v2.3h0.1c0.8-1.8,2.9-2.8,4.8-2.8c5.2,0,5.2,4,5.2,6.3v14h-3.1v-13.6c0-1.5-0.1-4-2.9-4
		c-1.7,0-3.9,1.1-3.9,4v13.6H107"/>
	<path class="st2" d="M126.7,389.6c0,3,0,7.6,3.8,7.6c2.9,0,3.4-3.1,3.4-4.6h3.1c0,2.1-1.3,7-6.6,7c-4.8,0-6.9-3.4-6.9-10.1
		c0-4.9,1-10.6,7-10.6c6,0,6.6,5.3,6.6,9.5v1.2 M133.8,387.2v-1.1c0-2.2-0.7-4.8-3.4-4.8c-3.2,0-3.6,4-3.6,5.2v0.7H133.8z"/>
	<path class="st2" d="M148.9,385.1c0-2.5-0.7-3.9-2.9-3.9c-1,0-3.2,0.3-3.2,3c0,2.3,2.4,2.8,4.9,3.6c2.4,0.8,4.8,1.7,4.8,5.6
		c0,4.2-2.7,6.2-6.4,6.2c-6.7,0-6.8-5-6.8-7h3.1c0,2.4,0.7,4.6,3.7,4.6c1,0,3.3-0.5,3.3-3.3c0-2.7-2.4-3.2-4.8-4
		c-2.4-0.8-4.9-1.5-4.9-5.6c0-3.7,2.9-5.5,6.3-5.5c5.8,0,6,4,6,6.3"/>
	<rect x="156.2" y="395.2" class="st2" width="3.4" height="3.9"/>
	<polyline class="st2" points="294.2,379.3 297.5,379.3 300.6,395.5 300.7,395.5 304.1,379.3 307.7,379.3 311,395.5 311,395.5 
		314.1,379.3 317.3,379.3 312.7,399.1 309.3,399.1 305.8,383 305.7,383 302.4,399.1 298.8,399.1 	"/>
	<polyline class="st2" points="318.1,379.3 321.4,379.3 324.5,395.5 324.6,395.5 328,379.3 331.6,379.3 334.9,395.5 335,395.5 
		338,379.3 341.3,379.3 336.6,399.1 333.2,399.1 329.7,383 329.7,383 326.3,399.1 322.7,399.1 	"/>
	<polyline class="st2" points="342,379.3 345.3,379.3 348.4,395.5 348.5,395.5 351.9,379.3 355.5,379.3 358.8,395.5 358.9,395.5 
		361.9,379.3 365.2,379.3 360.5,399.1 357.1,399.1 353.6,383 353.6,383 350.2,399.1 346.6,399.1 	"/>
	<rect x="366.9" y="395.2" class="st2" width="3.4" height="3.9"/>
	<path class="st2" d="M375.4,379.3h2.9v2.3h0.1c0.8-1.8,2.9-2.8,4.8-2.8c2.3,0,3.6,0.9,4.3,3.1c0.9-1.7,2.7-3.1,4.7-3.1
		c5.2,0,5.2,4,5.2,6.3v14h-3.1v-13.6c0-1.5-0.1-4-2.7-4c-1.4,0-3.7,0.9-3.7,4v13.6h-3.1v-13.6c0-1.5-0.1-4-2.6-4
		c-1.4,0-3.7,0.9-3.7,4v13.6h-3.1"/>
	<path class="st2" d="M401.3,385.3c0-4.5,1.9-6.5,6.6-6.5c6,0,6,3.6,6,5.7v11c0,0.8,0,1.6,0.9,1.6c0.4,0,0.6-0.1,0.7-0.2v2.2
		c-0.2,0-1,0.2-1.8,0.2c-1.2,0-2.7,0-2.8-2.5h-0.1c-1,1.8-2.9,2.8-4.8,2.8c-3.7,0-5.4-2.2-5.4-5.7c0-2.8,1.2-4.7,3.7-5.5l4.2-1.2
		c2.3-0.7,2.3-1.3,2.3-3c0-1.8-1.1-2.9-3.2-2.9c-3.4,0-3.4,3.2-3.4,3.9v0.2 M410.8,388.3c-1.1,1.2-3.9,1.5-5.3,2.3
		c-1,0.6-1.5,1.4-1.5,3.1c0,2,0.7,3.4,2.8,3.4c2,0,4-1.7,4-3.8V388.3z"/>
	<path class="st2" d="M431.1,399.1h-2.9v-2.4h-0.1c-0.4,1.5-2.1,3-4.3,3c-4.7,0-6.5-4.2-6.5-10.4c0-4.1,0.7-10.4,6.2-10.4
		c1.8,0,3.6,1.1,4.3,2.8h0.1v-8.8h3.1 M424.2,397c3.4,0,4-3.2,4-7.7c0-3.8-0.7-7.7-4-7.7c-2.9,0-3.6,3-3.6,7.7
		C420.6,393.9,421.4,397,424.2,397"/>
	<path class="st2" d="M437.8,389.6c0,3,0,7.6,3.8,7.6c2.9,0,3.4-3.1,3.4-4.6h3.1c0,2.1-1.3,7-6.6,7c-4.8,0-6.8-3.4-6.8-10.1
		c0-4.9,1-10.6,7-10.6c6,0,6.6,5.3,6.6,9.5v1.2 M444.9,387.2v-1.1c0-2.2-0.7-4.8-3.4-4.8c-3.2,0-3.6,4-3.6,5.2v0.7H444.9z"/>
	<path class="st2" d="M451.8,372.8h3.1v3.5h-3.1V372.8z M451.8,379.3h3.1v19.7h-3.1V379.3z"/>
	<path class="st2" d="M459.1,379.3h3v2.3h0.1c0.8-1.8,2.9-2.8,4.8-2.8c5.2,0,5.2,4,5.2,6.3v14H469v-13.6c0-1.5-0.1-4-2.9-4
		c-1.7,0-3.9,1.1-3.9,4v13.6h-3.1"/>
	<path class="st2" d="M489.2,397.8c0,5.9-2.7,8-6.7,8c-1.2,0-6,0-6.5-4.9h3.1c0.2,1.8,1.5,2.5,3.2,2.5c4,0,3.8-3.1,3.8-4.4v-2.6H486
		c-0.7,1.7-2.5,2.6-4.5,2.6c-5.7,0-6.1-7.3-6.1-9.9c0-5.3,1.4-10.4,6.4-10.4c2.1,0,3.9,1.5,4.3,3h0.1v-2.5h2.9 M478.7,389.2
		c0,3.2,0.5,7.2,3.6,7.2c3.4,0,4-3.2,4-7.2c0-3.8-0.7-7.7-4-7.7C479.4,381.5,478.7,384.5,478.7,389.2"/>
	<path class="st2" d="M493.3,379.3h3.1v3h0.1c0.9-1.9,2.1-3.5,4.3-3.5c0.6,0,1.1,0.1,1.4,0.2v3c-0.3,0-0.7-0.1-1.7-0.1
		c-1.5,0-4,1.4-4,4.7v12.5h-3.1"/>
	<path class="st2" d="M506.8,389.6c0,3,0,7.6,3.8,7.6c2.9,0,3.4-3.1,3.4-4.6h3.1c0,2.1-1.2,7-6.6,7c-4.8,0-6.9-3.4-6.9-10.1
		c0-4.9,1-10.6,7-10.6c6,0,6.6,5.3,6.6,9.5v1.2 M513.9,387.2v-1.1c0-2.2-0.7-4.8-3.4-4.8c-3.2,0-3.6,4-3.6,5.2v0.7H513.9z"/>
	<path class="st2" d="M523.2,389.6c0,3,0,7.6,3.8,7.6c2.9,0,3.4-3.1,3.4-4.6h3.1c0,2.1-1.2,7-6.6,7c-4.8,0-6.9-3.4-6.9-10.1
		c0-4.9,1-10.6,7-10.6c6,0,6.6,5.3,6.6,9.5v1.2 M530.3,387.2v-1.1c0-2.2-0.7-4.8-3.4-4.8c-3.2,0-3.6,4-3.6,5.2v0.7H530.3z"/>
	<path class="st2" d="M537,379.3h2.9v2.3h0.1c0.8-1.8,2.9-2.8,4.8-2.8c5.2,0,5.2,4,5.2,6.3v14h-3.1v-13.6c0-1.5-0.1-4-2.9-4
		c-1.7,0-3.9,1.1-3.9,4v13.6H537"/>
	<rect x="554.8" y="395.2" class="st2" width="3.4" height="3.9"/>
	<path class="st2" d="M572.3,385.4c0-1.9-0.8-4.1-3.1-4.1c-1.9,0-3.9,1-3.9,8.2c0,2.6,0,7.7,3.8,7.7c2.6,0,3.2-2.8,3.2-4.9h3.1
		c0,3.1-1.6,7.4-6.5,7.4c-4.8,0-6.9-3.4-6.9-10.1c0-4.9,1-10.6,7-10.6c5.4,0,6.3,4.2,6.3,6.5"/>
	<path class="st2" d="M584.8,378.8c5.7,0,7.1,4.8,7.1,10.4c0,5.6-1.4,10.4-7.1,10.4c-5.7,0-7.1-4.8-7.1-10.4
		C577.7,383.7,579.1,378.8,584.8,378.8 M588.7,389.2c0-4.3-0.6-8-3.9-8c-3.1,0-3.8,3.7-3.8,8c0,4.3,0.6,7.9,3.8,7.9
		C588,397.2,588.7,393.5,588.7,389.2"/>
	<path class="st2" d="M595.3,379.3h2.9v2.3h0.1c0.8-1.8,2.9-2.8,4.8-2.8c2.3,0,3.6,0.9,4.3,3.1c0.9-1.7,2.7-3.1,4.7-3.1
		c5.2,0,5.2,4,5.2,6.3v14h-3.1v-13.6c0-1.5-0.1-4-2.7-4c-1.4,0-3.7,0.9-3.7,4v13.6h-3.1v-13.6c0-1.5-0.1-4-2.6-4
		c-1.4,0-3.7,0.9-3.7,4v13.6h-3.1"/>
	<path class="st2" d="M103.8,146.6c1.7,0,3,0.4,3.9,1.2c0.9,0.8,1.7,1.8,2.2,3.1l11.7,27.3l11.7-27c0.7-1.6,1.6-2.8,2.7-3.5
		c1.1-0.7,2.3-1.1,3.7-1.1c1.1,0,2.1,0.1,3.1,0.2c1,0.1,1.7,0.3,2.2,0.5l3.7,50.7h-10l-2.4-33.9l-10.4,23.2h-8.8l-10.1-22.2
		l-2.2,32.9H94.7l3.8-50.7c0.5-0.1,1.3-0.3,2.3-0.5C101.7,146.7,102.7,146.6,103.8,146.6"/>
	<path class="st2" d="M189.8,198l-4.4-12.5h-17.7l-4.2,12.5H153l17.8-50.3c0.6-0.2,1.5-0.5,2.6-0.7c1.1-0.2,2.3-0.4,3.6-0.4
		c0.6,0,1.2,0.1,1.9,0.2c0.7,0.1,1.4,0.3,2,0.7c0.7,0.3,1.3,0.8,1.9,1.4c0.6,0.6,1.1,1.5,1.4,2.5l16.5,46.7 M176.7,156.2l-7,21.7
		h13.7L176.7,156.2z"/>
	<path class="st2" d="M247.2,171.6c0,3.6-0.5,7-1.5,10.2c-1,3.2-2.5,6-4.5,8.4c-2,2.4-4.5,4.3-7.6,5.7c-3.1,1.4-6.7,2.1-10.9,2.1
		h-16.3v-50.6c3.3-0.4,6.1-0.7,8.4-0.8c2.3-0.1,4.3-0.1,6-0.1c5.1,0,9.4,0.7,12.7,2c3.4,1.3,6.1,3.2,8.1,5.4c2,2.3,3.4,5,4.3,8
		C246.8,165,247.2,168.2,247.2,171.6 M236.5,171.8c0-2.4-0.2-4.6-0.7-6.7c-0.5-2.1-1.3-3.9-2.4-5.4c-1.1-1.6-2.6-2.8-4.6-3.7
		c-1.9-0.9-4.3-1.3-7.3-1.3c-1.5,0-3,0.1-4.6,0.2V190h4.2c3,0,5.5-0.4,7.5-1.3c2-0.9,3.5-2.1,4.7-3.7c1.2-1.6,2-3.5,2.4-5.8
		C236.3,177,236.5,174.5,236.5,171.8"/>
	<path class="st2" d="M282.8,189.9c2.5,0,4.1,0.6,5,1.7c0.9,1.1,1.3,2.4,1.3,3.7c0,0.6,0,1,0,1.4c0,0.4-0.1,0.8-0.1,1.3h-33.2v-51.1
		h32c0.1,0.6,0.2,1,0.2,1.4c0,0.4,0,0.8,0,1.4c0,1.8-0.5,3.1-1.4,4c-0.9,0.9-2.6,1.3-5.1,1.3h-15.1v12.6h16.3v8.1h-16.3v14.1"/>
	<path class="st2" d="M313.3,147c0.7-0.1,1.4-0.2,2.1-0.3c0.7-0.1,1.2-0.1,1.6-0.1c0.8,0,1.5,0.1,2.3,0.2c0.8,0.1,1.5,0.4,2.2,0.9
		c0.7,0.4,1.2,1,1.7,1.8c0.4,0.8,0.6,1.8,0.6,3V198h-10.5"/>
	<path class="st2" d="M374.4,198h-8.9l-21.9-33.5V198h-10.1v-50.9c0.5-0.1,1.2-0.2,2.1-0.3c0.9-0.1,1.7-0.2,2.6-0.2
		c1.6,0,2.9,0.3,3.8,0.8c0.9,0.6,1.7,1.4,2.5,2.6l19.8,32.1V147c0.7-0.1,1.4-0.2,2-0.3c0.6-0.1,1.1-0.1,1.5-0.1
		c0.8,0,1.5,0.1,2.3,0.2c0.8,0.1,1.5,0.4,2.1,0.9c0.6,0.4,1.2,1,1.6,1.8c0.4,0.8,0.6,1.8,0.6,3"/>
	<path class="st2" d="M424.7,178v-7.8h18.6v22.9c-0.5,0.6-1.2,1.2-2.1,1.9c-1,0.7-2.2,1.4-3.8,2c-1.5,0.6-3.4,1.2-5.4,1.6
		c-2.1,0.4-4.5,0.6-7.1,0.6c-4.1,0-7.7-0.7-10.8-2c-3.1-1.3-5.6-3.2-7.5-5.6c-2-2.4-3.4-5.2-4.4-8.5c-0.9-3.3-1.4-6.8-1.4-10.7
		c0-3.8,0.5-7.3,1.5-10.6c1-3.2,2.5-6,4.6-8.4c2-2.4,4.6-4.3,7.7-5.6c3.1-1.3,6.8-2,11-2c2,0,4.1,0.2,6,0.7c2,0.5,3.7,1.1,5.2,1.9
		c1.5,0.8,2.7,1.6,3.6,2.6c0.9,1,1.4,1.9,1.4,2.9c0,0.9-0.4,1.8-1.1,2.9c-0.7,1.1-1.6,2-2.6,2.9c-0.6-0.6-1.3-1.1-2.1-1.8
		c-0.8-0.6-1.7-1.2-2.7-1.7c-1-0.5-2.1-0.9-3.4-1.3c-1.3-0.3-2.6-0.5-4.2-0.5c-2.8,0-5.1,0.5-6.9,1.5c-1.8,1-3.3,2.4-4.4,4
		c-1.1,1.7-1.8,3.5-2.3,5.7c-0.5,2.1-0.7,4.3-0.7,6.6c0,2.4,0.2,4.8,0.7,7c0.5,2.2,1.3,4.2,2.4,5.9c1.1,1.7,2.6,3.1,4.5,4.1
		c1.9,1,4.2,1.6,6.9,1.6c1.3,0,2.5-0.1,3.4-0.3c0.9-0.2,1.7-0.4,2.3-0.7c0.7-0.3,1.3-0.7,1.8-1.1V178"/>
	<path class="st2" d="M488.5,161.6c0,2.1-0.3,4-0.8,5.6c-0.5,1.6-1.3,3.1-2.2,4.3c-0.9,1.2-2,2.2-3.2,3c-1.2,0.8-2.4,1.5-3.6,1.9
		l12.7,21c-1,0.4-2,0.7-3.1,1c-1.1,0.2-2.1,0.3-3.1,0.3c-1.9,0-3.5-0.4-4.7-1.2c-1.3-0.8-2.5-2.1-3.5-4l-8.7-14.8H464V198h-10.6
		v-50.8c2.3-0.2,4.7-0.4,7.1-0.6c2.4-0.1,4.6-0.2,6.5-0.2c7.4,0,12.8,1.2,16.3,3.7C486.8,152.7,488.5,156.5,488.5,161.6
		 M477.4,162.6c0-3.2-0.8-5.4-2.5-6.7c-1.7-1.3-4-2-6.9-2c-0.9,0-1.7,0-2.4,0.1c-0.7,0.1-1.2,0.1-1.7,0.2v17.6h3.6
		c3.1,0,5.5-0.7,7.2-2.2C476.6,168,477.4,165.7,477.4,162.6"/>
	<path class="st2" d="M524.5,189.9c2.5,0,4.1,0.6,5,1.7c0.9,1.1,1.3,2.4,1.3,3.7c0,0.6,0,1,0,1.4c0,0.4-0.1,0.8-0.1,1.3h-33.2v-51.1
		h32c0.1,0.6,0.2,1,0.2,1.4c0,0.4,0,0.8,0,1.4c0,1.8-0.5,3.1-1.4,4c-0.9,0.9-2.6,1.3-5.1,1.3h-15.1v12.6h16.3v8.1h-16.3v14.1"/>
	<path class="st2" d="M564.8,189.9c2.5,0,4.1,0.6,5,1.7c0.9,1.1,1.3,2.4,1.3,3.7c0,0.6,0,1,0,1.4c0,0.4-0.1,0.8-0.1,1.3h-33.2v-51.1
		h32c0.1,0.6,0.2,1,0.2,1.4c0,0.4,0,0.8,0,1.4c0,1.8-0.4,3.1-1.4,4c-0.9,0.9-2.6,1.3-5.1,1.3h-15.1v12.6h16.3v8.1h-16.3v14.1"/>
	<path class="st2" d="M618.5,198h-8.9l-21.9-33.5V198h-10.1v-50.9c0.5-0.1,1.2-0.2,2.1-0.3c0.9-0.1,1.7-0.2,2.6-0.2
		c1.6,0,2.9,0.3,3.8,0.8c0.9,0.6,1.7,1.4,2.5,2.6l19.8,32.1V147c0.7-0.1,1.4-0.2,2-0.3c0.6-0.1,1.1-0.1,1.5-0.1
		c0.8,0,1.5,0.1,2.3,0.2c0.8,0.1,1.5,0.4,2.1,0.9c0.6,0.4,1.2,1,1.6,1.8c0.4,0.8,0.6,1.8,0.6,3"/>
	<path class="st2" d="M741.1,151.3c-2.8-1.5-8.3-2.6-13.2-2.6c-2.4,0-5.7,0.3-7.9,1.5c-6.7,3.9-12.7,13.7-17.2,22.3
		c-0.2-6.9-0.4-13.3-1-18.6c0-0.4-0.2-0.8-0.6-1c-0.3-0.3-0.7-0.4-1.1-0.3l-1.7,0.2c-0.8,0.1-1.4,0.8-1.3,1.7c0.6,6,0.9,13.5,1,21.6
		c-3.8-7.2-8.1-15-13.5-19.7c-0.1-0.3-0.3-0.5-0.6-0.7c-3.7-2.2-8-3.4-12.7-3.4c-5.8,0-11.6,1.9-16.2,5.2
		c-0.8-7.7,2.4-15.3,11.4-24.4c11.5-11.8,27.1-17.3,49.1-17.3c2.7,0,8.6,2.7,14.1,6.5c5.8,4,9.6,8.1,9.7,10.5c0,0.9,0.7,1.5,1.6,1.5
		l1.7-0.1c0.4,0,0.8-0.2,1.1-0.5c0.3-0.3,0.4-0.7,0.4-1.1c-0.2-5.5-8.1-11.7-11.5-14.1c-5.3-3.7-12.6-7.4-16.9-7.4
		c-23.3,0-40,6-52.5,18.8c-8.8,9-12.8,17.2-12.7,25.8c0,1.7,0.2,3.5,0.5,5.2c-4.9,3.9-10.9,8.8-12.5,15.3c-0.1,0.4,0,0.8,0.2,1.1
		c0.2,0.3,0.5,0.6,0.9,0.7l1.7,0.4c0.1,0,0.3,0,0.4,0c0.7,0,1.3-0.5,1.5-1.1c1.1-4.4,5.2-8.1,9.3-11.4c1.6,4.3,4.2,9.1,8,14.6
		c9.9,14.5,21.3,21.5,38.2,23c0.2,7,0.4,13.8,1,19.8c0,0.4,0.2,0.8,0.5,1c0.3,0.2,0.6,0.4,1,0.4c0.1,0,0.1,0,0.1,0l1.6-0.2
		c0.8-0.1,1.5-0.8,1.4-1.7c-0.5-5.7-0.8-12.3-0.9-19.1c0.9,0,1.9,0,2.8,0c0.8,0,1.6,0,2.4,0c20.3-0.4,31-7.9,35.9-24.9
		C744.4,178.7,750.3,156.4,741.1,151.3 M681,159.5c5.2,4.1,9.8,12.8,13.6,19.9c1.1,2.1,2.1,3.9,3,5.6l0.7,1.2c0,0.5,0,1,0,1.4v0.1
		c0.1,3.7,0.1,7.4,0.1,11.1c-15.2-1.5-25.2-7.7-34.2-20.9c-3.7-5.5-6.5-10.4-8-15.1c0.2-0.1,0.3-0.3,0.5-0.4c4-3.3,9.3-5.3,14.6-5.3
		C674.9,157.1,678.2,157.9,681,159.5 M703,187.7v-0.1c0-1.7,0-3.4,0-5c0.2-0.3,0.3-0.6,0.5-1l0.4-0.7c4.5-8.9,11.4-22.4,18.6-26.5
		c1.1-0.6,3-1,5.5-1c4.5,0,9.1,1.1,11,2.1c4.2,2.3,2.9,15.6,1,22.1c-1.5,5.4-3.7,9.6-6.5,12.7c-5.1,5.7-13.1,8.5-24.9,8.8
		c-0.8,0-1.6,0-2.4,0c-1,0-2,0-2.9-0.1C703.1,195.3,703,191.4,703,187.7"/>
	<path class="st2" d="M697.2,149.7c1,0.4,2,0.5,3,0.5c2.4,0,4.3-1.1,5.7-3c2-3,1.7-7.4-0.7-10c-0.8-0.9-2.6-2.4-5.6-2.4
		c-1.9,0-4,0.6-6.2,1.8c-0.4,0.2-0.6,0.5-0.8,0.9c-0.1,0.4-0.1,0.8,0.1,1.1l0.2,0.5c-0.5,0.6-0.8,1.3-1,2.1
		C691.2,144.3,692.9,148.2,697.2,149.7 M701.9,144.6c-0.4,0.6-1,0.9-1.7,0.9c-0.4,0-0.9-0.1-1.4-0.3c-1.8-0.6-2.4-2.1-2.2-2.9
		c0.2-0.5,0.7-0.8,1.6-0.8c0.2,0,0.5,0,0.8,0.1c0.4,0,0.8-0.1,1.1-0.3c0.3-0.3,0.5-0.6,0.6-1l0.1-0.7c0.4,0.2,0.7,0.3,1,0.7
		C702.6,141.4,702.7,143.4,701.9,144.6"/>
	<path class="st2" d="M224,54.8c0,4.1-0.5,8-1.5,11.7c-0.9,3.6-2.5,6.9-4.6,9.6c-2.1,2.8-4.8,4.9-8.1,6.5c-3.3,1.6-7.3,2.4-12,2.4
		c-4.6,0-8.5-0.8-11.7-2.4c-3.3-1.6-5.9-3.8-8-6.6c-2.1-2.8-3.5-6-4.5-9.6c-1-3.6-1.4-7.5-1.4-11.5c0-4,0.5-7.8,1.5-11.3
		c1.1-3.6,2.6-6.7,4.8-9.4c2.2-2.7,4.9-4.8,8.2-6.4c3.3-1.6,7.2-2.4,11.8-2.4c4.5,0,8.3,0.8,11.5,2.3c3.3,1.5,5.8,3.6,7.9,6.2
		c2,2.7,3.6,5.8,4.5,9.4C223.6,46.8,224,50.7,224,54.8 M212,54.9c0-2.7-0.2-5.3-0.7-7.8c-0.4-2.4-1.2-4.6-2.3-6.4
		c-1.1-1.8-2.5-3.3-4.1-4.4c-1.7-1.1-3.9-1.6-6.3-1.6c-2.6,0-4.8,0.5-6.6,1.6c-1.8,1.1-3.3,2.6-4.3,4.4c-1.1,1.9-1.9,4-2.4,6.4
		c-0.5,2.5-0.7,5-0.7,7.8c0,2.7,0.3,5.3,0.7,7.8c0.5,2.5,1.3,4.7,2.3,6.7c1.1,1.9,2.5,3.5,4.3,4.6c1.8,1.1,3.9,1.7,6.5,1.7
		c2.6,0,4.7-0.6,6.5-1.7c1.8-1.1,3.2-2.7,4.3-4.6c1-1.9,1.8-4.1,2.3-6.7C211.8,60.2,212,57.6,212,54.9"/>
	<path class="st2" d="M264.2,74.5c2.7,0,4.6,0.6,5.6,1.8c1,1.3,1.5,2.7,1.5,4.2c0,0.7,0,1.2-0.1,1.6c0,0.4-0.1,0.9-0.1,1.4h-37V26.4
		h35.6c0.1,0.6,0.2,1.1,0.2,1.6c0,0.4,0.1,0.9,0.1,1.5c0,2-0.5,3.5-1.6,4.5c-1,1-2.9,1.5-5.7,1.5h-16.9v14.1H264v9.1h-18.1v15.8"/>
	<path class="st2" d="M278.9,26.5c0.8-0.1,1.6-0.2,2.3-0.3c0.8-0.1,1.4-0.1,1.7-0.1c0.9,0,1.7,0.1,2.6,0.3c0.9,0.1,1.7,0.5,2.5,1
		c0.7,0.5,1.3,1.2,1.8,2c0.4,0.8,0.6,2,0.6,3.4v20.6c0.2-1.3,0.5-2.6,1.1-3.7c0.7-1.3,1.5-2.5,2.4-3.6l11.7-15.4
		c1.3-1.7,2.6-2.9,4-3.6c1.3-0.7,2.7-1,4.1-1c1.5,0,2.9,0.2,4.1,0.7c1.2,0.5,2.1,1.1,2.9,1.9L302,53.8l21.2,28.7
		c-2.2,1.3-4.5,2-6.7,2c-3.8,0-6.9-1.5-9.2-4.4l-12.5-16.2c-1.1-1.4-2-2.8-2.8-4.4c-0.9-1.5-1.3-3-1.4-4.7v28.8h-11.7"/>
	<path class="st2" d="M374.9,54.8c0,4.1-0.5,8-1.5,11.7c-1,3.6-2.5,6.9-4.6,9.6c-2.1,2.8-4.8,4.9-8.1,6.5c-3.3,1.6-7.3,2.4-11.9,2.4
		c-4.6,0-8.6-0.8-11.8-2.4c-3.3-1.6-5.9-3.8-7.9-6.6c-2.1-2.8-3.5-6-4.5-9.6c-1-3.6-1.4-7.5-1.4-11.5c0-4,0.5-7.8,1.5-11.3
		c1-3.6,2.6-6.7,4.8-9.4c2.2-2.7,4.9-4.8,8.2-6.4c3.3-1.6,7.2-2.4,11.8-2.4c4.5,0,8.3,0.8,11.6,2.3c3.2,1.5,5.9,3.6,7.9,6.2
		c2.1,2.7,3.6,5.8,4.5,9.4C374.4,46.8,374.9,50.7,374.9,54.8 M362.8,54.9c0-2.7-0.2-5.3-0.7-7.8c-0.5-2.4-1.2-4.6-2.3-6.4
		c-1.1-1.8-2.5-3.3-4.2-4.4c-1.7-1.1-3.8-1.6-6.3-1.6c-2.6,0-4.9,0.5-6.6,1.6c-1.8,1.1-3.2,2.6-4.4,4.4c-1.1,1.9-1.9,4-2.4,6.4
		c-0.5,2.5-0.8,5-0.8,7.8c0,2.7,0.3,5.3,0.8,7.8c0.4,2.5,1.2,4.7,2.3,6.7c1.1,1.9,2.5,3.5,4.3,4.6c1.7,1.1,3.8,1.7,6.5,1.7
		c2.5,0,4.7-0.6,6.5-1.7c1.7-1.1,3.1-2.7,4.2-4.6c1-1.9,1.8-4.1,2.3-6.7C362.6,60.2,362.8,57.6,362.8,54.9"/>
	<path class="st2" d="M390.7,64.1c-4,0-6.1-1.8-6.1-5.4c0-1.3,0.1-2.5,0.2-3.7h21.4c1.9,0,3.4,0.3,4.6,0.9c1.2,0.6,1.8,2.1,1.8,4.4
		v1.8c-0.1,0.6-0.1,1.2-0.1,1.9"/>
	<path class="st2" d="M428,35.9h-17.8v-0.1c-0.1-0.7-0.1-1.2-0.2-1.7c0-0.4-0.1-1-0.1-1.6c0-1.5,0.5-2.9,1.7-4.2
		c1.1-1.3,3-1.9,5.6-1.9h40.1c0.2,1.2,0.3,2.4,0.3,3.7c0,1.5-0.5,2.9-1.5,4.1c-1.1,1.2-2.9,1.8-5.4,1.8h-10.8v47.6H428"/>
	<path class="st2" d="M494,74.5c2.7,0,4.6,0.6,5.6,1.8c1,1.3,1.5,2.7,1.5,4.2c0,0.7,0,1.2,0,1.6c-0.1,0.4-0.1,0.9-0.1,1.4h-37V26.4
		h35.6c0.1,0.6,0.2,1.1,0.2,1.6c0,0.4,0.1,0.9,0.1,1.5c0,2-0.5,3.5-1.5,4.5c-1,1-3,1.5-5.8,1.5h-16.8v14.1h18.1v9.1h-18.1v15.8"/>
	<path class="st2" d="M527.4,64.7l-10.9,18.8h-12.8l16.9-28.5l-15-27.1c1.2-0.5,2.4-1,3.6-1.3c1.2-0.3,2.5-0.5,3.9-0.5
		c3.1,0,5.4,1.4,6.8,4.2l8.3,15.4l8.4-14.5c1.1-1.8,2.2-3.1,3.3-3.9c1.1-0.8,2.7-1.2,4.6-1.2c1.2,0,2.3,0.1,3.2,0.4
		c1,0.3,1.9,0.7,3,1.3l-15.9,26.9l16.6,28.6c-1.1,0.4-2.2,0.7-3.5,0.9c-1.2,0.2-2.3,0.4-3.2,0.4c-2.3,0-4-0.5-5.3-1.4
		c-1.2-0.9-2.3-2.2-3.2-3.8"/>
	<path class="st2" d="M594.4,32.3c12.6,0,22.9,10.3,22.9,22.9c0,12.6-10.3,22.9-22.9,22.9c-12.6,0-22.9-10.3-22.9-22.9
		C571.5,42.6,581.8,32.3,594.4,32.3 M594.4,25.1c-16.6,0-30.1,13.5-30.1,30.1c0,16.7,13.5,30.2,30.1,30.2
		c16.7,0,30.2-13.5,30.2-30.2C624.6,38.6,611.1,25.1,594.4,25.1"/>
	<path class="st2" d="M605.3,48.3c0,1.3-0.1,2.3-0.4,3.3c-0.3,0.9-0.7,1.8-1.3,2.5c-0.5,0.7-1.1,1.3-1.8,1.8
		c-0.6,0.5-1.3,0.8-2.1,1.1l7.3,12.1c-0.6,0.2-1.2,0.4-1.8,0.6c-0.7,0.1-1.2,0.2-1.8,0.2c-1.1,0-2-0.2-2.7-0.7
		c-0.7-0.5-1.4-1.2-2-2.3l-5-8.6h-2.4v11.1h-6.1V40c1.4-0.1,2.7-0.2,4.1-0.3c1.4-0.1,2.6-0.1,3.7-0.1c4.3,0,7.4,0.7,9.4,2.2
		C604.4,43.2,605.3,45.4,605.3,48.3 M599,48.9c0-1.9-0.5-3.1-1.4-3.9c-1-0.7-2.3-1.1-4-1.1c-0.6,0-1,0-1.4,0c-0.4,0-0.7,0-1,0.1
		v10.2h2.1c1.8,0,3.2-0.5,4.2-1.3C598.5,52,599,50.7,599,48.9"/>
	<path class="st2" d="M178.9,104.2c0.3,0,0.6-0.1,0.9-0.1c0.3,0,0.5-0.1,0.7-0.1c0.3,0,0.6,0,1,0.1c0.3,0.1,0.6,0.2,0.9,0.4
		c0.3,0.2,0.5,0.4,0.7,0.7c0.2,0.3,0.3,0.7,0.3,1.3v19h-4.4"/>
	<path class="st2" d="M210.3,125.6h-3.7l-9.1-14.1v14.1h-4.2v-21.3c0.2,0,0.5-0.1,0.9-0.1c0.4-0.1,0.7-0.1,1.1-0.1
		c0.7,0,1.2,0.1,1.6,0.4c0.4,0.2,0.7,0.6,1,1.1l8.2,13.5v-14.7c0.3,0,0.6-0.1,0.8-0.1c0.2,0,0.5-0.1,0.6-0.1c0.3,0,0.6,0,1,0.1
		c0.3,0.1,0.6,0.2,0.9,0.4c0.3,0.2,0.5,0.4,0.7,0.7c0.2,0.3,0.2,0.7,0.2,1.3"/>
	<path class="st2" d="M220.4,120.6c0.6,0.5,1.3,0.9,2.2,1.4c0.9,0.5,1.9,0.7,3.1,0.7c0.4,0,0.9-0.1,1.3-0.2c0.4-0.1,0.8-0.3,1.1-0.5
		c0.3-0.2,0.6-0.5,0.8-0.9c0.2-0.4,0.3-0.8,0.3-1.3c0-0.6-0.1-1-0.4-1.4c-0.2-0.4-0.5-0.7-0.9-1c-0.4-0.3-0.8-0.5-1.3-0.7
		c-0.5-0.2-1-0.4-1.6-0.6c-0.7-0.2-1.4-0.5-2.1-0.8c-0.7-0.3-1.3-0.6-1.9-1.1c-0.6-0.4-1-1-1.4-1.7c-0.4-0.7-0.5-1.6-0.5-2.6
		c0-1,0.2-1.9,0.6-2.7c0.4-0.8,1-1.4,1.7-2c0.7-0.5,1.5-0.9,2.4-1.2c0.9-0.3,1.9-0.4,2.9-0.4c0.7,0,1.4,0.1,2,0.2
		c0.6,0.1,1.1,0.2,1.6,0.4c0.5,0.2,0.9,0.3,1.2,0.5c0.3,0.2,0.6,0.3,0.7,0.4c0.6,0.3,0.9,0.8,0.9,1.4c0,0.2-0.1,0.6-0.3,1
		c-0.2,0.4-0.5,0.9-0.9,1.3c-0.5-0.4-1.2-0.8-2.1-1.2c-0.8-0.4-1.7-0.6-2.7-0.6c-0.4,0-0.8,0-1.2,0.1c-0.4,0.1-0.8,0.2-1.1,0.4
		c-0.3,0.2-0.6,0.4-0.8,0.7c-0.2,0.3-0.3,0.7-0.3,1.2c0,0.5,0.1,0.8,0.3,1.2c0.2,0.3,0.5,0.6,0.9,0.9c0.4,0.2,0.8,0.5,1.3,0.7
		c0.5,0.2,1,0.4,1.5,0.6c0.7,0.3,1.4,0.5,2.1,0.8c0.7,0.3,1.3,0.7,1.9,1.1c0.6,0.4,1,1,1.4,1.7c0.4,0.7,0.5,1.6,0.5,2.6
		c0,1.1-0.2,2.1-0.6,3c-0.4,0.9-0.9,1.6-1.6,2.2c-0.7,0.6-1.5,1-2.5,1.3c-1,0.3-2.1,0.4-3.2,0.4c-1.5,0-2.8-0.1-3.7-0.5
		c-0.9-0.3-1.6-0.6-2.1-0.8c-0.3-0.2-0.5-0.4-0.6-0.6c-0.2-0.2-0.3-0.5-0.3-0.8c0-0.4,0.1-0.8,0.4-1.3
		C219.8,121.6,220.1,121.1,220.4,120.6"/>
	<path class="st2" d="M257.6,110.4c0,1.4-0.2,2.6-0.7,3.5c-0.5,1-1.1,1.7-1.9,2.3c-0.8,0.6-1.7,1-2.8,1.3c-1.1,0.3-2.2,0.4-3.3,0.4
		h-1.5v7.6h-4.4v-21.3c1-0.1,1.9-0.2,2.9-0.2c1,0,1.9-0.1,2.7-0.1c3.1,0,5.4,0.5,6.9,1.6C256.9,106.7,257.6,108.3,257.6,110.4
		 M253.1,110.7c0-1.3-0.4-2.2-1.1-2.8c-0.7-0.5-1.7-0.8-2.9-0.8c-0.7,0-1.3,0-1.7,0.1v7.7h1c1.6,0,2.7-0.3,3.6-0.9
		C252.7,113.3,253.1,112.2,253.1,110.7"/>
	<path class="st2" d="M266.4,104.2c0.3,0,0.6-0.1,0.9-0.1c0.3,0,0.5-0.1,0.7-0.1c0.3,0,0.6,0,1,0.1c0.3,0.1,0.6,0.2,0.9,0.4
		c0.3,0.2,0.5,0.4,0.7,0.7c0.2,0.3,0.3,0.7,0.3,1.3v19h-4.4"/>
	<path class="st2" d="M295.5,110.3c0,0.9-0.1,1.7-0.3,2.4c-0.2,0.7-0.5,1.3-0.9,1.8c-0.4,0.5-0.8,0.9-1.3,1.3
		c-0.5,0.3-1,0.6-1.5,0.8l5.3,8.8c-0.4,0.2-0.8,0.3-1.3,0.4c-0.4,0.1-0.9,0.1-1.3,0.1c-0.8,0-1.4-0.2-2-0.5c-0.5-0.3-1-0.9-1.5-1.7
		l-3.6-6.2h-1.8v8h-4.4v-21.3c1-0.1,1.9-0.2,2.9-0.2c1-0.1,1.9-0.1,2.7-0.1c3.1,0,5.4,0.5,6.8,1.6
		C294.8,106.6,295.5,108.2,295.5,110.3 M290.9,110.7c0-1.3-0.4-2.3-1-2.8c-0.7-0.5-1.7-0.8-2.9-0.8c-0.4,0-0.7,0-1,0
		c-0.3,0-0.5,0-0.7,0.1v7.4h1.5c1.3,0,2.3-0.3,3-0.9C290.5,113,290.9,112,290.9,110.7"/>
	<path class="st2" d="M305,104.2c0.3,0,0.6-0.1,0.9-0.1c0.3,0,0.5-0.1,0.7-0.1c0.3,0,0.6,0,1,0.1c0.3,0.1,0.6,0.2,0.9,0.4
		c0.3,0.2,0.5,0.4,0.7,0.7c0.2,0.3,0.3,0.7,0.3,1.3v19H305"/>
	<path class="st2" d="M336.4,125.6h-3.7l-9.1-14.1v14.1h-4.2v-21.3c0.2,0,0.5-0.1,0.9-0.1c0.4-0.1,0.7-0.1,1.1-0.1
		c0.7,0,1.2,0.1,1.6,0.4c0.4,0.2,0.7,0.6,1,1.1l8.2,13.5v-14.7c0.3,0,0.6-0.1,0.8-0.1c0.2,0,0.4-0.1,0.6-0.1c0.3,0,0.6,0,0.9,0.1
		c0.3,0.1,0.6,0.2,0.9,0.4c0.3,0.2,0.5,0.4,0.6,0.7c0.2,0.3,0.3,0.7,0.3,1.3"/>
	<path class="st2" d="M355.9,117.2v-3.3h7.8v9.6c-0.2,0.2-0.5,0.5-0.9,0.8c-0.4,0.3-0.9,0.6-1.6,0.8c-0.6,0.3-1.4,0.5-2.3,0.7
		c-0.9,0.2-1.9,0.3-3,0.3c-1.7,0-3.2-0.3-4.5-0.8c-1.3-0.6-2.3-1.3-3.1-2.3c-0.8-1-1.4-2.2-1.8-3.5c-0.4-1.4-0.6-2.9-0.6-4.5
		c0-1.6,0.2-3.1,0.6-4.4c0.4-1.4,1-2.5,1.9-3.5c0.8-1,1.9-1.8,3.2-2.4c1.3-0.6,2.8-0.8,4.6-0.8c0.8,0,1.7,0.1,2.5,0.3
		c0.8,0.2,1.5,0.5,2.2,0.8c0.6,0.3,1.1,0.7,1.5,1.1c0.4,0.4,0.6,0.8,0.6,1.2c0,0.4-0.2,0.8-0.5,1.2c-0.3,0.4-0.7,0.8-1.1,1.2
		c-0.3-0.2-0.6-0.5-0.9-0.7c-0.3-0.3-0.7-0.5-1.1-0.7c-0.4-0.2-0.9-0.4-1.4-0.5c-0.5-0.1-1.1-0.2-1.7-0.2c-1.1,0-2.1,0.2-2.9,0.6
		c-0.8,0.4-1.4,1-1.8,1.7c-0.5,0.7-0.8,1.5-1,2.4c-0.2,0.9-0.3,1.8-0.3,2.8c0,1,0.1,2,0.3,2.9c0.2,0.9,0.5,1.8,1,2.5
		c0.5,0.7,1.1,1.3,1.9,1.7c0.8,0.4,1.7,0.6,2.9,0.6c0.5,0,1,0,1.4-0.1c0.4-0.1,0.7-0.2,1-0.3c0.3-0.1,0.5-0.3,0.7-0.4v-4.6"/>
	<path class="st2" d="M402.3,124.3c-0.1,0.1-0.3,0.3-0.6,0.5c-0.3,0.2-0.7,0.4-1.2,0.6c-0.5,0.2-1.1,0.4-1.8,0.5
		c-0.7,0.1-1.5,0.2-2.4,0.2c-1.7,0-3.2-0.3-4.5-0.8c-1.3-0.6-2.3-1.3-3.1-2.3c-0.8-1-1.4-2.2-1.8-3.5c-0.4-1.3-0.6-2.8-0.6-4.4
		c0-1.6,0.2-3.1,0.6-4.5c0.4-1.4,1-2.6,1.9-3.6c0.8-1,1.9-1.8,3.1-2.3c1.2-0.6,2.7-0.8,4.4-0.8c0.8,0,1.6,0.1,2.3,0.2
		c0.7,0.2,1.3,0.3,1.8,0.5c0.5,0.2,0.9,0.4,1.2,0.6c0.3,0.2,0.6,0.4,0.7,0.6c0.2,0.2,0.3,0.4,0.5,0.6c0.1,0.2,0.2,0.5,0.2,0.8
		c0,0.4-0.2,0.9-0.5,1.3c-0.3,0.4-0.7,0.8-1,1.2c-0.3-0.3-0.5-0.5-0.9-0.8c-0.3-0.3-0.7-0.5-1.1-0.7c-0.4-0.2-0.8-0.4-1.3-0.5
		c-0.5-0.1-1.1-0.2-1.7-0.2c-1.1,0-2,0.2-2.7,0.7c-0.7,0.4-1.3,1-1.8,1.7c-0.4,0.7-0.8,1.5-1,2.4c-0.2,0.9-0.3,1.8-0.3,2.8
		c0,1,0.1,2,0.3,2.9c0.2,0.9,0.5,1.7,1,2.4c0.5,0.7,1.1,1.3,1.8,1.7c0.7,0.4,1.7,0.6,2.8,0.6c0.6,0,1.1-0.1,1.6-0.2
		c0.5-0.2,0.9-0.3,1.3-0.5c0.4-0.2,0.7-0.4,1-0.7c0.3-0.2,0.5-0.4,0.7-0.6c0.1,0.2,0.3,0.3,0.4,0.5c0.2,0.2,0.3,0.4,0.5,0.7
		c0.1,0.2,0.3,0.5,0.4,0.7c0.1,0.2,0.1,0.4,0.1,0.6c0,0.3,0,0.5-0.1,0.7C402.7,123.9,402.5,124.1,402.3,124.3"/>
	<path class="st2" d="M430.1,114.8c0,1.5-0.2,3-0.5,4.4c-0.4,1.4-0.9,2.6-1.7,3.6c-0.8,1-1.8,1.8-3,2.4c-1.2,0.6-2.7,0.9-4.5,0.9
		c-1.7,0-3.2-0.3-4.4-0.9c-1.2-0.6-2.2-1.4-3-2.5c-0.8-1-1.3-2.2-1.7-3.6c-0.4-1.4-0.5-2.8-0.5-4.3c0-1.5,0.2-2.9,0.6-4.2
		c0.4-1.3,1-2.5,1.8-3.5c0.8-1,1.8-1.8,3.1-2.4c1.2-0.6,2.7-0.9,4.4-0.9c1.7,0,3.1,0.3,4.3,0.9c1.2,0.6,2.2,1.4,3,2.3
		c0.8,1,1.3,2.2,1.7,3.5C429.9,111.8,430.1,113.2,430.1,114.8 M425.6,114.8c0-1-0.1-2-0.2-2.9c-0.2-0.9-0.5-1.7-0.9-2.4
		c-0.4-0.7-0.9-1.2-1.6-1.6c-0.6-0.4-1.4-0.6-2.4-0.6c-1,0-1.8,0.2-2.5,0.6c-0.7,0.4-1.2,1-1.6,1.6c-0.4,0.7-0.7,1.5-0.9,2.4
		c-0.2,0.9-0.3,1.9-0.3,2.9c0,1,0.1,2,0.3,2.9c0.2,0.9,0.5,1.8,0.9,2.5c0.4,0.7,0.9,1.3,1.6,1.7c0.7,0.4,1.5,0.6,2.4,0.6
		c1,0,1.8-0.2,2.4-0.6c0.7-0.4,1.2-1,1.6-1.7c0.4-0.7,0.7-1.5,0.9-2.5C425.5,116.8,425.6,115.8,425.6,114.8"/>
	<path class="st2" d="M456.6,125.6h-3.7l-9.1-14.1v14.1h-4.2v-21.3c0.2,0,0.5-0.1,0.9-0.1c0.4-0.1,0.7-0.1,1.1-0.1
		c0.7,0,1.2,0.1,1.6,0.4c0.4,0.2,0.7,0.6,1,1.1l8.2,13.5v-14.7c0.3,0,0.6-0.1,0.8-0.1c0.3,0,0.5-0.1,0.6-0.1c0.3,0,0.6,0,0.9,0.1
		c0.3,0.1,0.6,0.2,0.9,0.4c0.3,0.2,0.5,0.4,0.7,0.7c0.2,0.3,0.2,0.7,0.2,1.3"/>
	<path class="st2" d="M471.1,112.6h6.9v3.4h-6.9v9.6h-4.4v-21.4h13.4c0.1,0.2,0.1,0.4,0.1,0.6c0,0.2,0,0.4,0,0.6
		c0,0.6-0.2,1.2-0.6,1.6c-0.4,0.4-1,0.6-2,0.6h-6.6"/>
	<path class="st2" d="M488.7,104.2c0.3,0,0.6-0.1,0.9-0.1c0.3,0,0.5-0.1,0.7-0.1c0.3,0,0.6,0,1,0.1c0.3,0.1,0.6,0.2,0.9,0.4
		c0.3,0.2,0.5,0.4,0.7,0.7c0.2,0.3,0.3,0.7,0.3,1.3v19h-4.4"/>
	<path class="st2" d="M520.2,114.5c0,1.5-0.2,2.9-0.6,4.3c-0.4,1.3-1,2.5-1.9,3.5c-0.8,1-1.9,1.8-3.2,2.4c-1.3,0.6-2.8,0.9-4.6,0.9
		h-6.8v-21.2c1.4-0.2,2.5-0.3,3.5-0.3c1,0,1.8-0.1,2.5-0.1c2.1,0,3.9,0.3,5.3,0.8c1.4,0.6,2.5,1.3,3.4,2.3c0.8,1,1.4,2.1,1.8,3.4
		C520.1,111.7,520.2,113.1,520.2,114.5 M515.8,114.6c0-1-0.1-1.9-0.3-2.8c-0.2-0.9-0.5-1.6-1-2.3c-0.5-0.7-1.1-1.2-1.9-1.5
		c-0.8-0.4-1.8-0.6-3-0.6c-0.6,0-1.3,0-1.9,0.1v14.7h1.8c1.3,0,2.3-0.2,3.1-0.6c0.8-0.4,1.5-0.9,2-1.6c0.5-0.7,0.8-1.5,1-2.4
		C515.7,116.7,515.8,115.7,515.8,114.6"/>
	<path class="st2" d="M540.9,122.2c1,0,1.7,0.2,2.1,0.7c0.4,0.5,0.6,1,0.6,1.6c0,0.2,0,0.4,0,0.6c0,0.2,0,0.3,0,0.5h-13.8v-21.4H543
		c0,0.2,0.1,0.4,0.1,0.6c0,0.2,0,0.4,0,0.6c0,0.7-0.2,1.3-0.6,1.7c-0.4,0.4-1.1,0.6-2.1,0.6h-6.3v5.3h6.8v3.4h-6.8v5.9"/>
	<path class="st2" d="M569.2,125.6h-3.7l-9.1-14.1v14.1h-4.2v-21.3c0.2,0,0.5-0.1,0.9-0.1c0.4-0.1,0.7-0.1,1.1-0.1
		c0.7,0,1.2,0.1,1.6,0.4c0.4,0.2,0.7,0.6,1,1.1l8.2,13.5v-14.7c0.3,0,0.6-0.1,0.8-0.1c0.2,0,0.5-0.1,0.6-0.1c0.3,0,0.6,0,0.9,0.1
		c0.3,0.1,0.6,0.2,0.9,0.4c0.3,0.2,0.5,0.4,0.7,0.7c0.2,0.3,0.3,0.7,0.3,1.3"/>
	<path class="st2" d="M594.6,124.3c-0.1,0.1-0.3,0.3-0.6,0.5c-0.3,0.2-0.7,0.4-1.2,0.6c-0.5,0.2-1.1,0.4-1.8,0.5
		c-0.7,0.1-1.5,0.2-2.4,0.2c-1.7,0-3.2-0.3-4.5-0.8c-1.3-0.6-2.3-1.3-3.1-2.3c-0.8-1-1.4-2.2-1.8-3.5c-0.4-1.3-0.6-2.8-0.6-4.4
		c0-1.6,0.2-3.1,0.6-4.5c0.4-1.4,1-2.6,1.9-3.6c0.8-1,1.9-1.8,3.1-2.3c1.2-0.6,2.7-0.8,4.4-0.8c0.8,0,1.6,0.1,2.3,0.2
		c0.7,0.2,1.3,0.3,1.8,0.5c0.5,0.2,0.9,0.4,1.2,0.6c0.3,0.2,0.6,0.4,0.7,0.6c0.2,0.2,0.4,0.4,0.5,0.6c0.1,0.2,0.2,0.5,0.2,0.8
		c0,0.4-0.2,0.9-0.5,1.3c-0.3,0.4-0.7,0.8-1,1.2c-0.3-0.3-0.5-0.5-0.9-0.8c-0.3-0.3-0.7-0.5-1.1-0.7c-0.4-0.2-0.8-0.4-1.3-0.5
		c-0.5-0.1-1.1-0.2-1.7-0.2c-1.1,0-2,0.2-2.7,0.7c-0.7,0.4-1.3,1-1.8,1.7c-0.4,0.7-0.8,1.5-1,2.4c-0.2,0.9-0.3,1.8-0.3,2.8
		c0,1,0.1,2,0.3,2.9c0.2,0.9,0.5,1.7,1,2.4c0.5,0.7,1.1,1.3,1.8,1.7c0.8,0.4,1.7,0.6,2.8,0.6c0.6,0,1.1-0.1,1.6-0.2
		c0.5-0.2,1-0.3,1.3-0.5c0.4-0.2,0.7-0.4,1-0.7c0.3-0.2,0.5-0.4,0.7-0.6c0.1,0.2,0.3,0.3,0.4,0.5c0.2,0.2,0.3,0.4,0.5,0.7
		c0.1,0.2,0.3,0.5,0.4,0.7c0.1,0.2,0.1,0.4,0.1,0.6c0,0.3-0.1,0.5-0.1,0.7C595,123.9,594.9,124.1,594.6,124.3"/>
	<path class="st2" d="M615.9,122.2c1,0,1.7,0.2,2.1,0.7c0.4,0.5,0.6,1,0.6,1.6c0,0.2,0,0.4,0,0.6c0,0.2,0,0.3-0.1,0.5h-13.8v-21.4
		H618c0,0.2,0.1,0.4,0.1,0.6c0,0.2,0,0.4,0,0.6c0,0.7-0.2,1.3-0.6,1.7c-0.4,0.4-1.1,0.6-2.1,0.6h-6.3v5.3h6.8v3.4h-6.8v5.9"/>
	<path class="st2" d="M229.6,220c0.6-0.1,1.6,0.2,2,0.6c0.2,0.1,0.9,0.9,1.2,1.6l6.1,14.2l6.1-14c0.3-1,0.8-1.4,1.4-1.8
		c0.4-0.6,1.2-0.6,1.9-0.6c0.4-0.1,1.1,0,1.6,0.1c0.5-0.1,0.9,0.1,1.2,0.2l1.9,26.3h-5.2l-1.2-17.6l-5.4,12.1h-4.6l-5.3-11.6
		l-1.2,17.1h-5.2l2-26.3c0.3-0.3,0.6-0.1,1.2-0.2C228.4,219.9,229,220,229.6,220"/>
	<path class="st2" d="M265.1,246.7v-20.3l-5.2,2.6c-0.4-0.6-0.7-1-1.1-1.6c-0.4-0.8-0.5-1.1-0.5-1.6c-0.2-0.3,0.1-0.7,0.3-1
		c-0.1-0.3,0.5-0.6,1-0.8l5.7-3c0.4-0.4,1.1-0.5,1.6-0.7c0.5-0.4,1-0.3,1.6-0.3c0.3-0.1,1,0.1,1.4,0.2c0.4,0,0.7,0.3,0.9,0.4v26
		H265.1"/>
	<path class="st2" d="M279.2,240.5c0.2,0,0.8,0.6,1.2,0.9c0.2,0.1,1,0.6,1.5,0.8c0.5,0.1,1.1,0.5,1.8,0.6c0.6,0.1,1.3,0.2,2.1,0.2
		c0.5-0.1,1.1-0.1,1.6-0.2c0.3-0.2,1-0.3,1.4-0.6c0.4-0.5,0.8-0.6,1-1.1c0.2-0.6,0.4-1,0.4-1.7c-0.2-1-0.1-1.3-0.4-1.7
		c-0.3-0.5-0.7-0.9-1.2-1.2c-0.8-0.6-1-0.6-1.6-0.9c-0.7-0.2-1.3-0.5-1.9-0.7c-1-0.4-1.7-0.6-2.6-1c-1.1-0.5-1.6-0.8-2.3-1.3
		c-0.9-0.6-1.2-1.3-1.7-2.1c-0.7-1.2-0.6-2-0.6-3.3c-0.1-1.5,0.2-2.4,0.7-3.4c0.2-1.1,1.2-1.8,2-2.4c0.5-0.9,1.8-1.1,3-1.5
		c0.8-0.4,2.3-0.5,3.6-0.5c0.7-0.3,1.7,0.1,2.4,0.2c0.8,0.1,1.4,0.3,2,0.5c0.6,0,1.1,0.4,1.5,0.6c0.2,0.2,0.7,0.4,0.9,0.5
		c0.6,0.2,1.1,1.1,1.1,1.8c-0.2,0.2-0.1,0.8-0.4,1.3c-0.3,0.3-0.7,1.1-1.2,1.6c-0.7-0.7-1.5-1-2.6-1.5c-1.2-0.8-2.2-0.7-3.3-0.7
		c-0.5-0.1-1,0-1.5,0.1c-0.7,0-1,0.3-1.4,0.5c-0.5-0.1-0.7,0.5-1,0.9c-0.3,0.1-0.4,0.9-0.4,1.5c-0.3,0.5,0.1,1.1,0.4,1.5
		c0.2,0.2,0.6,0.8,1.1,1.1c0.4,0,1,0.6,1.6,0.8c0.3,0,1.2,0.5,1.9,0.7c0.6,0.2,1.7,0.7,2.6,1c0.8,0.2,1.7,0.8,2.4,1.4
		c0.5,0.3,1.3,1.3,1.8,2.2c0.3,0.6,0.7,1.9,0.7,3.2c-0.1,1.3-0.2,2.6-0.7,3.7c-0.6,0.8-1.2,2-2,2.7c-1,0.5-1.9,1.3-3.2,1.7
		c-1.3,0.3-2.6,0.6-4.1,0.6c-1.9-0.3-3.4-0.2-4.6-0.6c-1.4-0.5-2.1-0.8-2.6-1.1c-0.6-0.2-0.6-0.5-0.8-0.8c-0.2-0.4-0.3-0.6-0.3-1
		c-0.3-0.5,0.2-1,0.5-1.6C278.2,241.5,278.7,241.1,279.2,240.5"/>
	<path class="st2" d="M303.4,220c0.6-0.1,1.6,0.2,2,0.6c0.2,0.1,0.9,0.9,1.2,1.6l6.1,14.2l6.1-14c0.3-1,0.8-1.4,1.4-1.8
		c0.4-0.6,1.2-0.6,1.9-0.6c0.4-0.1,1.1,0,1.6,0.1c0.5-0.1,0.9,0.1,1.2,0.2l1.9,26.3h-5.2l-1.2-17.6l-5.4,12.1h-4.6l-5.3-11.6
		l-1.2,17.1h-5.2l2-26.3c0.3-0.3,0.6-0.1,1.2-0.2C302.2,219.9,302.8,220,303.4,220"/>
	<path class="st2" d="M338,224.8l-0.6,4.8c0-0.4,0.8-0.2,1.4-0.3c0.4-0.3,1.1-0.1,1.7-0.1c1.3-0.1,2.5,0.2,3.6,0.5
		c0.9,0,2,0.9,2.8,1.6c0.6,0.5,1.4,1.6,1.8,2.7c0.3,1,0.7,2.4,0.7,3.9c-0.3,1.2-0.2,2.5-0.6,3.7c-0.5,0.8-1,2.2-1.8,3
		c-1,0.6-1.9,1.6-3.1,2.1c-1.4,0.5-2.7,0.8-4.4,0.8c-1.1-0.3-2.1-0.1-2.9-0.2c-0.9-0.3-1.6-0.3-2.2-0.5c-0.9-0.2-1.1-0.4-1.5-0.6
		c-0.5-0.4-0.7-0.4-0.9-0.6c-0.4-0.5-0.5-0.4-0.7-0.7c-0.5-0.3-0.3-0.6-0.3-1c-0.1-0.4,0.1-0.8,0.5-1.5c0-0.9,0.7-1.4,1.3-2.1
		c0.2,0.1,0.7,0.6,1.1,0.9c0.4,0.1,1,0.6,1.5,0.9c0.3,0.1,1.2,0.5,1.9,0.7c0.4,0.1,1.4,0.3,2.2,0.3c0.3-0.1,1.1-0.1,1.7-0.3
		c0.4-0.2,1-0.5,1.4-0.8c0.1-0.5,0.8-0.9,1-1.5c-0.1-0.9,0.4-1.3,0.4-2.2c-0.1-1.2-0.2-1.9-0.5-2.5c-0.6-0.7-0.8-1.1-1.3-1.5
		c-0.7-0.6-1-0.6-1.6-0.7c-0.9-0.1-1.1-0.2-1.6-0.2c-1-0.3-1.7,0.1-2.4,0.2c-1.1,0.1-1.4,0.4-2.1,0.7l-1.9-0.8l1.4-13.3h14.4
		c-0.2,0.1,0.1,0.5,0.1,0.7c-0.3,0.1,0,0.4,0,0.7c-0.3,0.9-0.2,1.6-0.7,2.2c-0.6,0.4-1.4,0.8-2.7,0.8H338"/>
	<path class="st2" d="M368.3,242.3c0.3-0.2,1.2,0.1,1.6,0.2c0.2-0.1,0.8,0.4,1,0.7c0.1,0.1,0.4,0.6,0.5,1c0.1,0.2,0.2,0.7,0.2,1.1
		c-0.1,0.1,0,0.6,0,0.8c-0.1,0.1,0,0.4,0,0.7h-17.3V220h16.7c-0.1,0.2,0.1,0.5,0.1,0.7c-0.2,0.2,0,0.5,0,0.8
		c-0.2,0.7-0.2,1.7-0.7,2.2c-0.8,0.2-1.4,0.7-2.7,0.7h-7.8v6.4h8.4v4.4h-8.4v7.2H368.3"/>
	<path class="st2" d="M381.2,224.4h-8.3v0c-0.2-0.5-0.1-0.6-0.1-0.8c-0.1-0.5,0-0.5,0-0.7c-0.1-0.7,0.3-1.3,0.8-1.9
		c0.5-0.6,1.4-0.9,2.6-0.9h18.8c-0.1,0.5,0.1,1.1,0.1,1.7c-0.2,0-0.1,0.7-0.2,1c-0.3,0-0.3,0.6-0.6,0.9c-0.6,0-0.6,0.5-1,0.6
		c-0.7,0-0.9,0.2-1.5,0.2h-5v22.3h-5.6V224.4"/>
	<path class="st2" d="M402.7,230.3h8.6v4.4h-8.6v12h-5.6V220H414c-0.2,0.2,0.1,0.5,0.1,0.7c-0.2,0.2,0,0.5,0,0.8
		c-0.3,0.6-0.2,1.5-0.7,2.1c-0.5,0.3-1.3,0.8-2.5,0.8h-8.2V230.3"/>
	<path class="st2" d="M430,237.8c-0.3-1.6-0.3-2.9-0.8-3.7c-0.9-1-1.5-1.3-2.9-1.3c-0.4,0-0.8,0-1.2,0.1c-0.7,0-0.8,0.2-1.1,0.4
		c-0.6,0-0.7,0.3-0.9,0.5c-0.6,0.2-0.5,0.3-0.7,0.5c-0.1,0.2,0,0.7,0,1.1c-0.1,0.2,0,0.8,0,1.2c-0.1,0.5,0,1.5,0.1,2.3
		c0,0.8,0.3,1.5,0.6,2.1c0,0.6,0.7,1.2,1.2,1.6c0.5,0.2,1.2,0.6,2.1,0.6c1-0.1,1.9-0.5,2.6-1.4C429.4,240.8,430,239.5,430,237.8
		 M435.6,237.3c-0.1,1.5-0.2,3.1-0.7,4.4c-0.7,0.9-1.1,2.3-1.9,3.2c-1.1,0.8-1.8,1.5-2.9,1.9c-1.4,0.4-2.3,0.7-3.6,0.7
		c-1.7-0.3-3-0.3-4.2-0.8c-1.5-0.9-2.2-1.3-3-2.3c-1.1-1.2-1.4-2.2-1.8-3.7c-0.4-1.8-0.6-3.1-0.6-4.8c-0.2-2.8,0.4-5.1,1.2-7.1
		c0.5-2,1.8-3.6,3-4.9c1-1.3,2.6-2.3,4.2-2.9c1.6-0.7,3.2-0.9,4.8-0.9c0.8-0.1,1.8,0.2,2.3,0.5c0.5,0.1,0.8,1,0.8,2
		c-0.3,0.1,0,0.6,0,1c-0.3,0.1-0.1,0.7-0.1,1c-0.6-0.2-0.7,0-1,0c-0.5-0.2-0.6,0-1.1,0c-1.4-0.2-2.2,0.2-3.1,0.6
		c-1.1,0.3-1.7,0.9-2.3,1.4c-0.7,0.4-1.2,1.2-1.6,1.9c-0.6,0.5-0.7,1.3-0.9,1.9c0.2-0.6,1.1-0.8,2.1-1.2c0.7-0.5,2-0.6,3.2-0.6
		c1-0.2,2.4,0.2,3.4,0.7c0.9,0.4,1.7,1.1,2.3,1.9c0.4,0.7,1,1.8,1.3,2.9C435.1,234.9,435.6,236.1,435.6,237.3z"/>
	<path class="st2" d="M468,245.3c-0.5-0.1-0.4,0.4-0.8,0.6c-0.4,0.1-0.9,0.5-1.5,0.7c-0.8-0.1-1.3,0.4-2.2,0.6c-1,0-1.9,0.2-3,0.2
		c-2.3-0.3-4-0.3-5.6-1c-1.8-1-2.9-1.7-3.9-2.9c-1.3-1.5-1.8-2.7-2.2-4.4c-0.7-1.9-0.7-3.5-0.7-5.6c0-2.3,0.3-3.9,0.8-5.6
		c0.3-1.8,1.3-3.2,2.3-4.4c1-1.5,2.3-2.2,3.9-2.9c1.6-1,3.4-1.1,5.5-1.1c0.9-0.3,2,0.1,2.8,0.3c0.7,0.1,1.6,0.4,2.2,0.6
		c0.5,0,1.1,0.5,1.6,0.8c0.4,0.1,0.7,0.5,0.9,0.7c0.2,0.1,0.4,0.5,0.6,0.7c0,0,0.3,0.6,0.3,0.9c-0.3,0.2-0.2,1.1-0.6,1.6
		c-0.5,0.4-0.8,1-1.3,1.5c-0.6-0.6-0.7-0.6-1.1-1c-0.7-0.3-0.8-0.6-1.3-0.9c-0.7-0.3-1-0.5-1.7-0.6c-0.9-0.3-1.3-0.3-2.1-0.3
		c-1.6-0.1-2.5,0.3-3.4,0.8c-1,0.5-1.7,1.3-2.2,2.2c-0.6,0.8-0.9,1.9-1.2,3c-0.6,1-0.4,2.3-0.4,3.5c-0.2,1,0.1,2.5,0.4,3.6
		c-0.1,1,0.6,2.2,1.2,3.1c0.5,0.7,1.3,1.6,2.3,2.1c0.8,0.3,2.1,0.8,3.5,0.8c0.7-0.1,1.4-0.1,2-0.3c0.6-0.2,1.2-0.4,1.7-0.7
		c0.2-0.4,0.9-0.5,1.2-0.8c0-0.5,0.7-0.5,0.9-0.8c-0.1-0.1,0.3,0.4,0.5,0.7c0.1,0.1,0.4,0.5,0.6,0.8c0.2,0.2,0.3,0.6,0.5,0.9
		c0,0.2,0.2,0.6,0.2,0.8c-0.2,0.3-0.1,0.6-0.2,0.9C468.4,244.5,468.3,245.1,468,245.3"/>
	<path class="st2" d="M484.5,235.1c-0.1-1.4-0.3-2.4-0.8-3.2c-0.7-0.9-1.4-1.2-2.7-1.2c-1.4,0-2,0.4-2.7,1.2c-0.7,0.7-1,1.8-1,3.2
		H484.5 M482.4,243.1c0.5-0.1,1.2-0.1,1.7-0.2c0.5-0.2,1-0.3,1.4-0.5c0.3-0.4,0.7-0.5,1-0.7c0.1-0.6,0.6-0.5,0.8-0.7
		c0.2,0.3,0.6,0.9,1,1.5c0.3,0.4,0.5,1.2,0.5,1.6c-0.3,0.5-0.3,1.2-1,1.7c-0.8,0.4-1.4,0.8-2.4,1.2c-1.2,0.2-2.2,0.5-3.6,0.5
		c-1.5-0.3-2.5-0.2-3.7-0.5c-1.2-0.4-2.3-0.9-3.2-1.7c-1.2-1-1.7-1.9-2.3-3.2c-0.7-1.5-0.9-3.1-0.9-5.2c-0.2-1.8,0.3-3.1,0.8-4.4
		c0.4-1.5,1.2-2.2,2.1-3c0.7-1.1,1.9-1.4,3-1.8c0.9-0.4,2.2-0.6,3.4-0.6c1.2-0.1,2.8,0.2,3.8,0.7c0.8,0.4,1.9,1.1,2.6,1.8
		c0.6,0.4,1.1,1.7,1.4,2.6c0.1,0.8,0.5,2,0.5,3.1c-0.1-0.1,0,0.3,0,0.5c-0.1,0.1,0,0.4,0,0.7c-0.1,0.2,0,0.5,0,0.7
		c-0.1,0,0,0.4,0,0.5h-12c0,1.4,0.5,2.7,1.3,3.7C479.3,242.3,480.7,243.1,482.4,243.1z"/>
	<path class="st2" d="M499.1,246.7h-5.6v-18.9c0,0,0.3-0.1,0.5-0.1c-0.1-0.3,0.3,0,0.5-0.1c0.1-0.3,0.5,0,0.8,0
		c0.8-0.3,1.6,0.2,2.2,0.5c0.5,0.2,1,0.8,1.2,1.6c0.3-0.9,1.2-1.2,2.1-1.7c0.7-0.6,2.2-0.8,3.8-0.8c1.7-0.1,3.3,0.4,4.3,1.1
		c0.6,0.6,1.5,1.7,1.8,3c-0.1,0.4,0.2,1.3,0.3,2c-0.3,0.5,0.1,1.4,0.1,2.1v11.3h-5.6v-11c-0.1-0.9,0-1.1-0.1-1.6
		c-0.1-0.6-0.1-0.9-0.3-1.3c-0.2-0.7-0.5-0.6-0.8-0.8c-0.4-0.3-0.9-0.3-1.6-0.3c-1.2-0.3-1.8,0.2-2.5,0.6c-0.7,0.3-1,0.9-1,1.5
		V246.7"/>
	<path class="st2" d="M515.9,244c-0.5-0.6-0.3-1.1-0.4-1.7c-0.2-0.8-0.1-1.2-0.1-1.8V222c0.1-0.1,0.4,0,0.6,0
		c0.2-0.2,0.4-0.2,0.6-0.3c0-0.4,0.4-0.1,0.7-0.1c0.3-0.3,0.9,0,1.3,0.1c0.2-0.2,0.8,0.2,1.2,0.5c0.1,0.1,0.6,0.6,0.9,1
		c0,0.3,0.3,0.9,0.3,1.6v2.8h5.6v4.4H521v8.4c-0.3,1.6,0.8,2.8,2.3,2.8c0.3-0.1,0.7-0.1,1.1-0.2c0.2-0.2,0.6-0.3,0.9-0.4
		c0.2-0.4,0.5-0.3,0.7-0.5c-0.1-0.3,0.3-0.3,0.4-0.4c0.3,0.6,0.7,1.1,0.9,1.5c0.1,0.3,0.3,0.8,0.3,1.2c-0.2,0.1-0.1,0.7-0.4,1.1
		c-0.3,0.1-0.7,0.7-1.2,1c-0.8,0-1.1,0.5-1.8,0.7c-0.8,0-1.5,0.3-2.4,0.3c-1.9-0.3-3-0.3-3.9-1C516.6,245.6,516.2,245,515.9,244"/>
	<path class="st2" d="M542.3,235.1c-0.1-1.4-0.3-2.4-0.8-3.2c-0.7-0.9-1.4-1.2-2.7-1.2c-1.4,0-2,0.4-2.7,1.2c-0.7,0.7-1,1.8-1,3.2
		H542.3 M540.3,243.1c0.5-0.1,1.2-0.1,1.7-0.2c0.5-0.2,1-0.3,1.4-0.5c0.3-0.4,0.7-0.5,1-0.7c0.1-0.6,0.6-0.5,0.8-0.7
		c0.2,0.3,0.6,0.9,1,1.5c0.3,0.4,0.5,1.2,0.5,1.6c-0.3,0.5-0.3,1.2-1,1.7c-0.8,0.4-1.4,0.8-2.4,1.2c-1.2,0.2-2.2,0.5-3.6,0.5
		c-1.5-0.3-2.5-0.2-3.7-0.5c-1.2-0.4-2.3-0.9-3.2-1.7c-1.2-1-1.7-1.9-2.3-3.2c-0.7-1.5-0.9-3.1-0.9-5.2c-0.2-1.8,0.3-3.1,0.8-4.4
		c0.4-1.5,1.2-2.2,2.1-3c0.7-1.1,1.9-1.4,3-1.8c0.9-0.4,2.2-0.6,3.4-0.6c1.2-0.1,2.8,0.2,3.8,0.7c0.8,0.4,1.9,1.1,2.6,1.8
		c0.6,0.4,1.1,1.7,1.4,2.6c0.1,0.8,0.5,2,0.5,3.1c-0.1-0.1,0,0.3,0,0.5c-0.1,0.1,0,0.4,0,0.7c-0.1,0.2,0,0.5,0,0.7
		c-0.1,0,0,0.4,0,0.5h-12c0,1.4,0.5,2.7,1.3,3.7C537.1,242.3,538.6,243.1,540.3,243.1z"/>
	<path class="st2" d="M558.5,233.6l2.2-3.6c0.3-0.9,1-1.5,1.6-1.9c0.5-0.6,1.3-0.6,2.4-0.6c0.3-0.3,1,0.1,1.5,0.2
		c0.4,0.1,0.9,0.3,1.3,0.5l-6,9.2l5.8,9.3c-0.9,0.3-1.6,0.4-2.5,0.4c-1.2-0.1-1.7-0.1-2.4-0.4c-0.8-0.6-1.2-0.8-1.7-1.7l-2.4-3.8
		l-3.3,5.5h-5.7l6.1-9.5l-5.6-9c0.2-0.3,0.9-0.3,1.5-0.4c0.5-0.1,1.2-0.2,1.7-0.2c0.9-0.3,1.6,0.2,2.1,0.6c0.5,0.2,1,0.9,1.3,1.6
		L558.5,233.6"/>
	<path class="st2" d="M583,236.9c-0.1-0.9-0.1-1.6-0.2-2.3c-0.5-1-0.4-1.3-0.7-1.8c-0.4-0.5-0.7-0.9-1.3-1.2
		c-0.5-0.6-1.2-0.5-1.9-0.5c-1.2-0.1-1.9,0.2-2.4,0.6c-0.7,0.4-0.7,0.9-0.7,1.4v8.6c-0.1,0.2,0.6,0.5,1.2,0.8c0.5,0,1.3,0.5,2.1,0.5
		c1.3-0.1,2.4-0.5,3-1.6C582.6,240.1,583,238.9,583,236.9 M575.8,229c0.1-0.5,1-0.8,1.8-1.2c0.5-0.4,1.8-0.6,3-0.6
		c0.8-0.1,2,0.2,3,0.5c0.7,0,1.8,0.8,2.5,1.6c0.6,0.6,1.3,1.7,1.8,3c0.4,1.1,0.7,2.8,0.7,4.6c-0.3,2.1-0.2,3.9-0.7,5.2
		c-0.5,1.3-1.1,2.5-1.9,3.3c-0.8,0.6-1.6,1.4-2.6,1.7c-1.1,0.2-1.9,0.5-2.9,0.5c-1.1-0.3-1.6-0.1-2.2-0.3c-0.8-0.4-1.1-0.4-1.6-0.7
		c-0.7-0.5-0.7-0.5-1-0.7c-0.5-0.3-0.4-0.4-0.4-0.5c-0.2,0.2-0.1,0.7-0.3,1c-0.3,0.1-0.6,0.4-1.2,0.4h-3.6v-28.3
		c-0.1-0.2,0.2,0,0.6,0c0.4-0.2,0.8,0,1.3,0c0.3-0.2,0.9,0,1.3,0.1c0.3-0.2,0.9,0.2,1.2,0.5c0.1,0.1,0.6,0.6,0.8,1
		c0,0.3,0.3,1,0.3,1.6V229z"/>
	<path class="st2" d="M604.2,235.1c-0.1-1.4-0.3-2.4-0.8-3.2c-0.7-0.9-1.4-1.2-2.7-1.2c-1.4,0-2,0.4-2.7,1.2c-0.7,0.7-1,1.8-1,3.2
		H604.2 M602.1,243.1c0.5-0.1,1.2-0.1,1.7-0.2c0.5-0.2,1-0.3,1.4-0.5c0.3-0.4,0.7-0.5,1-0.7c0.1-0.6,0.6-0.5,0.8-0.7
		c0.2,0.3,0.6,0.9,1,1.5c0.3,0.4,0.5,1.2,0.5,1.6c-0.3,0.5-0.3,1.2-1,1.7c-0.8,0.4-1.4,0.8-2.4,1.2c-1.2,0.2-2.2,0.5-3.6,0.5
		c-1.5-0.3-2.5-0.2-3.7-0.5c-1.2-0.4-2.3-0.9-3.2-1.7c-1.2-1-1.7-1.9-2.3-3.2c-0.7-1.5-0.9-3.1-0.9-5.2c-0.2-1.8,0.3-3.1,0.8-4.4
		c0.4-1.5,1.2-2.2,2.1-3c0.7-1.1,1.9-1.4,3-1.8c0.9-0.4,2.2-0.6,3.4-0.6c1.2-0.1,2.8,0.2,3.8,0.7c0.8,0.4,1.9,1.1,2.6,1.8
		c0.6,0.4,1.1,1.7,1.4,2.6c0.1,0.8,0.5,2,0.5,3.1c-0.1-0.1,0,0.3,0,0.5c-0.1,0.1,0,0.4,0,0.7c-0.1,0.2,0,0.5,0,0.7
		c-0.1,0,0,0.4,0,0.5h-12c0,1.4,0.5,2.7,1.3,3.7C599,242.3,600.4,243.1,602.1,243.1z"/>
	<path class="st2" d="M618.7,247.1c-0.5-0.1-0.4,0-0.8,0c-0.4-0.1-0.8,0-1.3,0c-0.8-0.1-0.9,0-1.3-0.1c-0.6-0.2-0.8-0.3-1.1-0.5
		c-0.5-0.5-0.6-0.6-0.8-1c-0.4-0.7-0.3-1-0.3-1.6v-25.4c-0.1-0.2,0.2,0,0.6,0c0.4-0.2,0.8,0,1.3,0c0.3-0.2,0.9,0,1.3,0.1
		c0.2-0.2,0.8,0.2,1.2,0.5c0.1,0.1,0.6,0.5,0.9,1c0,0.4,0.3,1,0.3,1.6V247.1"/>
</g>
</svg>
