<svg xmlns="http://www.w3.org/2000/svg" viewBox="0 0 99.27 91.04"><defs><style>.cls-1{fill:#6dbfb0;}.cls-2{fill:#fff;}</style></defs><title>ping-green</title><g id="Calque_2" data-name="Calque 2"><g id="Calque_2-2" data-name="Calque 2"><path class="cls-1" d="M90.5,72.8C74.31,91.61,36.35,98.22,16.62,81.33,2.28,69.06-5.77,35,4.9,18.11,34.41-28.63,128.12,24.33,90.5,72.8"/><path class="cls-2" d="M41,30.07a5.87,5.87,0,0,1,1.35-1.92,6.22,6.22,0,0,1,4.43-1.49,4.1,4.1,0,0,1,2.49,1,6.51,6.51,0,0,1,1.07.88,4.53,4.53,0,0,1,.77,1.33,5.63,5.63,0,0,1,.36,3,10,10,0,0,1-1.13,3,4.9,4.9,0,0,1,1.43.66,1.21,1.21,0,0,1,.3.61,1.54,1.54,0,0,1,.05.17c0,.18.09,0-.08.16a1.3,1.3,0,0,1-.39.14,2,2,0,0,1-.8-.1l-1-.19q-1-.15-2-.24c-1.31-.12-2.65-.24-4-.24s-2.53.25-3.78.15c-.4,0-1.22-.39-.78-.9s1.25-.59,1.78-.79c-.2-.51-.4-1-.59-1.55l-.12-.29M46.28,28a4.09,4.09,0,0,0-2.12.78,5.23,5.23,0,0,0-1.34,1.51,4.68,4.68,0,0,0-.43,3.91,1.58,1.58,0,0,0,.54.82,2.72,2.72,0,0,0,1.3.2c1.08.08,2.16.18,3.25.3a1.53,1.53,0,0,0,1.15-.11,3,3,0,0,0,.75-1,5.93,5.93,0,0,0,.68-2.58,2.89,2.89,0,0,0-.82-2.5,3.82,3.82,0,0,0-3-1.35"/><path class="cls-2" d="M49.84,24A5.44,5.44,0,0,1,45,19.52c-.27-2.22.25-4.32,2.22-5.63a6.16,6.16,0,0,1,6.73.17,4.63,4.63,0,0,1,1.9,2.8,5.55,5.55,0,0,1,0,3.6A5.87,5.87,0,0,1,53.6,23a9.11,9.11,0,0,1-1.66.81,3.5,3.5,0,0,1-1,.26,6.69,6.69,0,0,1-1.09,0m.58-1.58A3.94,3.94,0,0,0,54.35,20a5.16,5.16,0,0,0,0-2.85,3.81,3.81,0,0,0-1.43-2c-1.44-.72-3.56-1.15-4.79.08-3.44,3.44-.16,6.3.32,6.68a3.27,3.27,0,0,0,2,.53"/><path class="cls-2" d="M45.51,30.87a1,1,0,0,1,.71-.48c.28-.05.59,0,.84-.15.66-.52-.58-.86-1-.86-1.39-.05-2.36,1.67-2.3,2.9a2.22,2.22,0,0,0,2.35,2.21c.37,0,1.41-.34,1.09-.91s-1.3,0-1.76-.31c-.18-.11-.37-.53-.23-.69s.56-.19.74-.32a.77.77,0,0,0,.34-.63.38.38,0,0,0-.25-.44l-.58-.32"/><path class="cls-2" d="M52.08,17.15a5.91,5.91,0,0,0-.63-.49,1.54,1.54,0,0,0-.74-.07,1.58,1.58,0,0,0-1.3.56,2.52,2.52,0,0,0-.57,2.35A2,2,0,0,0,51.12,21a1,1,0,0,0,.65-.36c.14-.25,0-.42-.23-.51s-1.18.05-1.38-.44.64-.44.8-.7c.35-.58-.29-1.07-.63-1.42l1.75-.42"/><path class="cls-2" d="M45.51,30.87c.25.14.73.29.82.55a.8.8,0,0,1-.2.74,1.83,1.83,0,0,1-.58.32c-.06,0-.3.06-.33.12s0,.33.07.42c.26.6,1.1.22,1.58.34.81.2.21.92-.3,1.07a2.18,2.18,0,0,1-2.7-1.69,3,3,0,0,1,1.6-3.25,1.85,1.85,0,0,1,1.31,0c.24.09.58.29.43.57s-.52.27-.81.29a1.09,1.09,0,0,0-.89.5"/><path class="cls-2" d="M52.08,17.15l-1.75.42c.34.35.83.69.69,1.25s-.49.36-.77.59c-.45.39.49.63.75.65s.6,0,.76.2a.39.39,0,0,1-.14.54,1.64,1.64,0,0,1-1.72.06,2.56,2.56,0,0,1-.93-1,2.47,2.47,0,0,1,.21-2.41,1.67,1.67,0,0,1,1.28-.85,2.6,2.6,0,0,1,.88,0,3.19,3.19,0,0,1,.74.54"/><path class="cls-2" d="M40.21,33.54a2,2,0,0,0-.84,0,10.73,10.73,0,0,0-2.83,1,11.12,11.12,0,0,0-3.93,3.28,25.55,25.55,0,0,0-3,5.45,10.09,10.09,0,0,0-.75,6.31,15.44,15.44,0,0,0,2.51,5.48c.26.36,1.58,2.16,2,1.86.2-.15.25-.55.42-.73s0-.08.18-.12a1.15,1.15,0,0,1,.32,0,1.1,1.1,0,0,1,.73.29,1,1,0,0,1,.11.74c-.08.48-.28,1-.39,1.43A22.31,22.31,0,0,0,34.2,62c-.05.51-.09,1-.11,1.54,0,.22,0,.44,0,.67s0,.28.05.42l0,.3h.14a5,5,0,0,0,1.39-.11l1.66-.22c.3,0,.61-.07.78-.35a6.59,6.59,0,0,0,.41-1.46,25.49,25.49,0,0,1,1.33-3.4A4.24,4.24,0,0,1,40.77,58s.23-.25.27-.25.25.21.29.24a1.56,1.56,0,0,1,.32.36c.13.27,0,.57-.14.83-.24.63-.44,1.27-.66,1.9a12.07,12.07,0,0,0,4.56.25,30.53,30.53,0,0,0,5.7-.93,12.89,12.89,0,0,0,2.19-.76c.09,0,.35-.12.4-.2s0-.71,0-.94a.56.56,0,0,1,.88-.45c.44.25.61,1.06.8,1.5A14.64,14.64,0,0,1,56,61.47c.18.66.34,1.34.54,2,.09.27.15.56.46.65a6.35,6.35,0,0,0,1.51,0,10.27,10.27,0,0,0,1.92,0,.63.63,0,0,0,.6-.59,8.4,8.4,0,0,0-.17-1.87c-.09-.75-.2-1.49-.31-2.23-.05-.34-.08-.69-.16-1a5.1,5.1,0,0,0-.39-.9c-.22-.46-.52-1.14-.16-1.63s1-.18,1.25.2.33.51.49.78c.06.1.13.31.23.38s.32,0,.48,0a5.7,5.7,0,0,0,1.51-.78,14.19,14.19,0,0,0,2.6-2.65,18.66,18.66,0,0,0,1.15-1.54q.27-.39.51-.78a3.47,3.47,0,0,1,.5-.8c.48-.43,1.45.22,1.83-.33a2,2,0,0,0,.16-1c0-.69,0-1.38,0-2.07s.05-1.29,0-1.91c0-.37-.24-.47-.58-.54s-1,0-1.34-.35A4.09,4.09,0,0,1,67.88,43a11.7,11.7,0,0,0-2.1-3.31c-.44-.45-.91-.86-1.36-1.28a19.63,19.63,0,0,1-1.58,1.71c-.24.24-.42.45-.78.41s-.74-.11-.87-.33c-.28-.46.54-1.15.78-1.43a16.15,16.15,0,0,0,1.35-1.92,12.37,12.37,0,0,0,1.79-4.35,5.34,5.34,0,0,0,0-2.25c-.06-.24,0-.35-.28-.31a2.93,2.93,0,0,0-.51.13,4,4,0,0,0-.92.48,13.27,13.27,0,0,0-4.89,6.64c-.19.55-.24,1.55-.95,1.68s-.93-.4-.83-1a23.33,23.33,0,0,1,.54-2.34c0-.15.08-.16,0-.25s-.21-.06-.3-.09l-.51-.15c-.44-.13-.88-.25-1.33-.35a24,24,0,0,0-2.4-.4.81.81,0,0,1-.66-.3,1,1,0,0,1-.1-.88c.35-.56,1.51-.31,2-.2.86.19,1.71.43,2.55.66l1.18.32A1.6,1.6,0,0,0,58,34c.19,0,0,.08.23-.09a3.64,3.64,0,0,0,.36-.49c.47-.64.91-1.32,1.44-1.92a11.63,11.63,0,0,1,3.34-2.52c.75-.39,2.86-1.7,3.26-.27a6,6,0,0,1,.14,1,11.2,11.2,0,0,1,.1,1.29c0,.85-.27,1.69-.35,2.54a6.59,6.59,0,0,1-.54,2.18c-.15.33-.34.66-.47,1l-.18.54a1.42,1.42,0,0,0-.09.27c0,.06.24.19.3.23.58.47,1.26.83,1.82,1.32a6.94,6.94,0,0,1,1.28,1.53c.37.56.69,1.16,1,1.74s.39,1.21,1.06,1.12c.5-.08,1.18-.2,1.36.44a4.57,4.57,0,0,1,0,1.11v1.35c0,.87,0,1.75,0,2.62,0,.42,0,.84,0,1.27a1.92,1.92,0,0,1-.13,1,1.06,1.06,0,0,1-.6.41,3.92,3.92,0,0,1-.9.08,1.65,1.65,0,0,0-1.18.84c-.37.58-.66,1.2-1.08,1.75a22.54,22.54,0,0,1-1.5,1.74,9.92,9.92,0,0,1-3.46,2.36c-.22.09-.86.24-.92.43a2.08,2.08,0,0,0,.08.54c0,.25.08.5.11.75.12.83.19,1.67.23,2.51a4,4,0,0,1-.19,2,1.7,1.7,0,0,1-1.44.82c-.86.1-1.74.19-2.61.22a5.71,5.71,0,0,1-2.06-.13C55.24,65.25,55.05,64,54.82,63c-.08-.36-.19-.72-.3-1.07-.05-.18-.06-.27-.26-.3a1.35,1.35,0,0,0-.56.09l-2.43.57c-.86.2-1.73.39-2.59.56a13.88,13.88,0,0,1-2.41.16c-1.73,0-3.47.06-5.21.12-.5,0-.78.11-.9.62a8.26,8.26,0,0,0-.2,1,1.22,1.22,0,0,1-.25.76c-.42.43-1.28.42-1.83.52l-2.59.45a4.27,4.27,0,0,1-2.27,0c-.56-.23-.56-.84-.62-1.36a15.32,15.32,0,0,1,.1-5.1,5.34,5.34,0,0,0,.28-1.18c0-.35-.36-.48-.62-.68a10.9,10.9,0,0,1-1.55-1.41,15.1,15.1,0,0,1-3.5-8.33c0-.2-.05-.4-.08-.6a1.32,1.32,0,0,0,0-.3,2.28,2.28,0,0,0-.27,0c-.38,0-.75.11-1.12.15a7.62,7.62,0,0,1-2.43-.14,3.81,3.81,0,0,1-2.79-1.92,3.08,3.08,0,0,1,.16-2.87A2.9,2.9,0,0,1,24,41.32a2.71,2.71,0,0,1,1.66,1A1.78,1.78,0,0,1,25.49,44a2.16,2.16,0,0,1-.95-.39c-.29-.25-.41-.59-.79-.73a1.46,1.46,0,0,0-1.77,1c-.24.7-.05,1.47.74,1.62a31,31,0,0,0,3.16.41l.64,0a3.29,3.29,0,0,0,.71,0c.11-.1.16-.61.19-.75l.21-.83c.27-1,.52-2.05.88-3a15.07,15.07,0,0,1,2.95-4.49,14.65,14.65,0,0,1,3.89-3.3,11.18,11.18,0,0,1,2.34-1A15.13,15.13,0,0,0,39.92,32,5.24,5.24,0,0,0,41,30.07c.43-1.24-.48,3.35-.48,3.35Z"/><path class="cls-2" d="M64.92,44.44c0,.55-.36,1.17-1,1.11A1.06,1.06,0,0,1,63,44.19a1,1,0,0,1,1.92.25"/></g></g></svg>