<svg xmlns="http://www.w3.org/2000/svg" viewBox="0 0 99.27 91.04"><defs><style>.cls-1{fill:#6ec0b0;}</style></defs><title>proximite</title><g id="Calque_2" data-name="Calque 2"><g id="Calque_1-2" data-name="Calque 1"><path class="cls-1" d="M48.83,30.05c-3.71-6.62-15.55-2.72-11,7.58,2.31,5.18,9.92,9.95,11,10.28,1-.33,8.65-5.1,11-10.28C64.38,27.33,52.54,23.43,48.83,30.05Z"/><path class="cls-1" d="M4.9,18.11C-5.77,35,2.28,69.07,16.62,81.33,36.35,98.22,74.31,91.61,90.5,72.8,128.12,24.33,34.41-28.63,4.9,18.11ZM69.23,44a61.38,61.38,0,0,1-7.32,16,112.85,112.85,0,0,1-8.45,11.82q-1.22,1.5-2.49,2.94l-.43.48a2.88,2.88,0,0,1-1,.79,1.92,1.92,0,0,1-.57.15,2.25,2.25,0,0,1-.44-.14,6,6,0,0,1-2-1.79q-1.52-1.74-3-3.53a109.41,109.41,0,0,1-8.73-12.44A55.08,55.08,0,0,1,28,42.19a24.83,24.83,0,0,1-.42-9.25,21.31,21.31,0,0,1,3-8,21.53,21.53,0,0,1,36.5,0,21.48,21.48,0,0,1,3.2,9.51A27.4,27.4,0,0,1,69.23,44Z"/></g></g></svg>