<?xml version="1.0" encoding="utf-8"?>
<!-- Generator: Adobe Illustrator 24.1.2, SVG Export Plug-In . SVG Version: 6.00 Build 0)  -->
<svg version="1.1" id="Calque_1" xmlns="http://www.w3.org/2000/svg" xmlns:xlink="http://www.w3.org/1999/xlink" x="0px" y="0px"
	 viewBox="0 0 99.3 91" style="enable-background:new 0 0 99.3 91;" xml:space="preserve">
<style type="text/css">
	.st0{fill:#6DBFB0;}
	.st1{fill:#FFFFFF;}
	.st2{fill:none;stroke:#FFFFFF;stroke-width:2;stroke-miterlimit:10;}
</style>
<g id="Calque_2_2_">
	<g id="Calque_2-2_1_">
		<path class="st0" d="M90.3,70.8c-15.6,19.4-53,27.8-72.8,11.8C3.2,71.1-5.4,37.5,4.8,20.2C33.1-27.6,126.5,20.9,90.3,70.8"/>
	</g>
</g>
<circle class="st1" cx="55.2" cy="45.2" r="1.1"/>
<circle class="st1" cx="49.5" cy="37" r="1.1"/>
<circle class="st1" cx="35.6" cy="67" r="1.1"/>
<path class="st1" d="M63.3,65.8H40.2c-0.6,0-1.1,0.5-1.1,1.1s0.5,1.1,1.1,1.1h23.1c0.6,0,1.1-0.5,1.1-1.1S63.9,65.8,63.3,65.8z"/>
<g>
	<path class="st1" d="M70.2,70c-1.1,1.8-2.9,2.8-5,2.8H33.6c-2.1,0-3.9-1.1-5-2.8l0,0l-1.7,1.7c1.5,2.2,3.9,3.5,6.7,3.5h31.7
		c2.7,0,5.1-1.3,6.7-3.5L70.2,70L70.2,70z"/>
	<path class="st1" d="M41.9,56.7c3.2-0.1,6.3-1,9.3-2.6c0.9-0.4,1.6-0.7,2.4-1.1l-1.8-1.8c-0.6,0.2-1.1,0.5-1.7,0.7
		c-1.8,1-3.8,1.6-5.7,2l-2.6,2.6C41.8,56.7,41.8,56.7,41.9,56.7z"/>
	<path class="st1" d="M30.1,61.4l3.3-5.9c0.6,0.2,1.3,0.4,2,0.6l2-2c-1-0.1-1.8-0.4-2.8-0.7l7-12.3L40,39.4L26.5,63
		c-0.5,1-0.9,2-1,2.9L30.1,61.4z"/>
</g>
<path class="st1" d="M42.7,48.9l1.7-1.7c-0.4-0.2-0.6-0.6-0.6-1c0-0.6,0.5-1.1,1.1-1.1c0.5,0,0.9,0.2,1,0.6l0.1-0.1l-2.4-2.4
	c-1.2,0.5-2.1,1.7-2.1,3.2C41.3,47.3,41.8,48.2,42.7,48.9z"/>
<g>
	<path class="st1" d="M41.3,22.7V34l2.3,2.3V22.9h1.1c0.6,0,1.1-0.5,1.1-1.1s-0.5-1.1-1.1-1.1h-2.3c-0.6,0-1.1-0.5-1.1-1.1
		s0.5-1.1,1.1-1.1h13.8c0.6,0,1.1,0.5,1.1,1.1s-0.5,1.1-1.1,1.1h-2.3c-0.6,0-1.1,0.5-1.1,1.1s0.5,1.1,1.1,1.1H55v13.4l2.3-2.3V22.7
		c1.3-0.5,2.3-1.7,2.3-3.3c0-2-1.6-3.4-3.4-3.4H42.5c-2,0-3.4,1.6-3.4,3.4C39,21,40,22.2,41.3,22.7z"/>
	<path class="st1" d="M59,39.5l-1.7,1.7l4.8,8.5c-1.7-0.1-3.3-0.1-5,0.1l2.1,2.1c1.5-0.1,2.8,0,4.3,0.2l5.2,9.3l4.5,4.5
		c-0.1-1-0.5-2-1-2.9L59,39.5z"/>
</g>
<line class="st2" x1="13.7" y1="9.7" x2="82.3" y2="78.5"/>
<line class="st2" x1="80.5" y1="14.7" x2="14.8" y2="80.1"/>
</svg>
