<?xml version="1.0" encoding="utf-8"?>
<!-- Generator: Adobe Illustrator 24.1.2, SVG Export Plug-In . SVG Version: 6.00 Build 0)  -->
<svg version="1.1" id="Calque_1" xmlns="http://www.w3.org/2000/svg" xmlns:xlink="http://www.w3.org/1999/xlink" x="0px" y="0px"
	 viewBox="0 0 99.3 91" style="enable-background:new 0 0 99.3 91;" xml:space="preserve">
<style type="text/css">
	.st0{fill:#FAB699;}
	.st1{fill:none;stroke:#FFFFFF;stroke-width:1.5;stroke-linecap:round;stroke-linejoin:round;}
</style>
<g id="Calque_2_1_">
	<g id="Calque_2-2">
		<path class="st0" d="M90.5,72.8c-16.2,18.8-54.2,25.4-73.9,8.5C2.3,69.1-5.8,35,4.9,18.1C34.4-28.6,128.1,24.3,90.5,72.8"/>
	</g>
</g>
<path class="st1" d="M68.8,31.3H26.4l5.6-5.5l-2.4-2.4l-8.4,8.4c-0.7,0.7-0.7,1.7,0,2.4c0,0,0,0,0,0l0,0l8.4,8.4l2.4-2.4l-5.6-5.5
	h42.4l-5.5,5.5l2.4,2.4l8.4-8.4c0.7-0.7,0.7-1.7,0-2.4c0,0,0,0,0,0l0,0l-8.4-8.4l-2.4,2.4L68.8,31.3z"/>
<path class="st1" d="M20.7,48.1v16.8c0,0.9,0.7,1.7,1.7,1.7c0,0,0,0,0,0h6.7V54.9h3.4v11.8h5.1v-8.4h3.4v8.4h5V54.9h3.4v11.8h5v-8.4
	h3.4v8.4h5.1V54.9h3.4v11.8h6.7c0.9,0,1.7-0.8,1.7-1.7c0,0,0,0,0,0V48.1c0-0.9-0.8-1.7-1.7-1.7H22.4C21.4,46.4,20.7,47.2,20.7,48.1z
	"/>
</svg>
