<?xml version="1.0" encoding="utf-8"?>
<!-- Generator: Adobe Illustrator 24.1.2, SVG Export Plug-In . SVG Version: 6.00 Build 0)  -->
<svg version="1.1" id="Calque_1" xmlns="http://www.w3.org/2000/svg" xmlns:xlink="http://www.w3.org/1999/xlink" x="0px" y="0px"
	 viewBox="0 0 99.3 91" style="enable-background:new 0 0 99.3 91;" xml:space="preserve">
<style type="text/css">
	.st0{fill:#FAB699;}
	.st1{fill:#FFFFFF;}
</style>
<g id="Calque_2_2_">
	<g id="Calque_2-2_1_">
		<path class="st0" d="M90.3,70.8c-15.6,19.4-53,27.8-72.8,11.8C3.2,71.1-5.4,37.5,4.8,20.2C33.1-27.6,126.5,20.9,90.3,70.8"/>
	</g>
</g>
<g>
	<path class="st1" d="M71.3,41c4.5-4.5,4.5-11.8,0-16.3s-11.8-4.5-16.3,0l-8.7,8.8c-0.9,0.9-0.9,2.1,0,2.9c0.9,0.9,2.1,0.9,2.9,0
		l8.7-8.7c2.9-2.9,7.5-2.9,10.4,0s2.9,7.5,0,10.4l-8.8,8.7c-0.9,0.9-0.9,2.1,0,2.9c0.4,0.4,1.6,1.1,2.9,0L71.3,41z"/>
	<path class="st1" d="M28.9,50.6c-4.5,4.5-4.5,11.8,0,16.3s11.8,4.5,16.3,0l8.7-8.7c0.9-0.9,0.9-2.1,0-2.9s-2.1-0.9-2.9,0l-8.7,8.7
		c-2.9,2.9-7.5,2.9-10.4,0s-2.9-7.5,0-10.4l8.8-8.7c0.9-0.9,0.9-2.1,0-2.9c-0.4-0.4-1.6-1.1-2.9,0L28.9,50.6z"/>
	<path class="st1" d="M55.1,61.1c-0.6,0-1.1,0.4-1.1,1.1v6.6c0,0.6,0.4,1.1,1.1,1.1c0.7,0,1.1-0.4,1.1-1.1v-6.6
		C56.1,61.6,55.6,61.1,55.1,61.1z"/>
	<path class="st1" d="M45.1,30.5c0.6,0,1.1-0.4,1.1-1.1v-6.6c0-0.6-0.4-1.1-1.1-1.1c-0.6,0-1.1,0.4-1.1,1.1v6.6
		C44.1,30,44.6,30.5,45.1,30.5z"/>
	<path class="st1" d="M37.8,33.6c0.4-0.4,0.4-1.1,0-1.5l-4.7-4.7c-0.4-0.4-1.1-0.4-1.5,0s-0.4,1.1,0,1.5l4.5,4.5
		C36.7,33.9,37.4,33.9,37.8,33.6z"/>
	<path class="st1" d="M73,49.7h-6.6c-0.6,0-1.1,0.4-1.1,1.1c0,0.7,0.4,1.1,1.1,1.1H73c0.6,0,1.1-0.4,1.1-1.1
		C74.1,50.2,73.6,49.7,73,49.7z"/>
	<path class="st1" d="M68.4,62.8l-4.5-4.5c-0.4-0.4-1.1-0.4-1.5,0c-0.4,0.4-0.4,1.1,0,1.5l4.5,4.5c0.4,0.4,1.1,0.4,1.5,0
		C68.8,63.9,68.9,63.1,68.4,62.8z"/>
	<path class="st1" d="M27.2,41.9h6.6c0.6,0,1.1-0.4,1.1-1.1c0-0.6-0.4-1.1-1.1-1.1h-6.6c-0.6,0-1.1,0.4-1.1,1.1S26.6,41.9,27.2,41.9
		z"/>
</g>
</svg>
