<?xml version="1.0" encoding="utf-8"?>
<!-- Generator: Adobe Illustrator 24.1.2, SVG Export Plug-In . SVG Version: 6.00 Build 0)  -->
<svg version="1.1" id="Calque_1" xmlns="http://www.w3.org/2000/svg" xmlns:xlink="http://www.w3.org/1999/xlink" x="0px" y="0px"
	 viewBox="0 0 99.3 91" style="enable-background:new 0 0 99.3 91;" xml:space="preserve">
<style type="text/css">
	.st0{fill:#FAB699;}
	.st1{fill:#FFFFFF;}
</style>
<g id="Calque_2_1_">
	<g id="Calque_2-2">
		<path class="st0" d="M90.5,72.8c-16.2,18.8-54.2,25.4-73.9,8.5C2.3,69.1-5.8,35,4.9,18.1C34.4-28.6,128.1,24.3,90.5,72.8"/>
	</g>
</g>
<path class="st1" d="M86.1,48c-2.2-2.5-7-4.1-12.5-4.1c-0.5,0-1,0-1.5,0c1.9-5.6,2-11.4,0-14.5L71.8,29l-0.5-0.1
	c-0.6-0.1-1.2-0.2-1.8-0.2c-3.1,0-7.6,1.6-11.9,5c-1.7-5.8-5-10.6-8.5-12l-0.5-0.1L48,21.8c-3.5,1.4-6.9,6.3-8.6,12.3
	c-4.4-3.6-9.1-5.3-12.3-5.3c-0.6,0-1.2,0.1-1.8,0.2l-0.5,0.1l-0.3,0.4c-2,3.1-1.9,8.9,0,14.5c-0.3,0-0.6,0-0.9,0
	c-5.5,0-10.3,1.5-12.5,4l-0.3,0.4v0.5c0.3,6.9,11.7,17.5,25.1,17.5c4.4,0,8.7-1.1,12.5-3.1l0.2,0.1l0.2-0.2c3.9,2,8.2,3.1,12.5,3.1
	l0,0c13.5,0,24.8-10.6,25.1-17.5v-0.5L86.1,48z M69.4,31.3c0.2,0,0.5,0,0.7,0c1.2,2.5,1.1,7.6-0.9,13c-4,0.6-7.8,2-11.2,4.2
	c0.9-3.8,0.9-7.8,0.2-11.6l-0.1-0.4C62.1,33.1,66.5,31.3,69.4,31.3z M41.1,39.2c0.3,0.3,0.6,0.7,0.8,1c2.5,3,4.2,6.6,5,10.4
	c-0.3,1.6-0.5,3.2-0.5,4.8c-1.2-1.6-2.5-3-4-4.3C41.1,47.2,40.6,43.2,41.1,39.2z M55.9,38.7c0.6,4.2,0.1,8.5-1.5,12.5
	c-1.7,1.5-3.1,3.2-4.3,5c0-1.9-0.1-3.8-0.5-5.7c0.8-3.8,2.6-7.4,5-10.4C55,39.7,55.4,39.2,55.9,38.7z M44.9,59.9
	c-7.1-1.7-13.1-6.4-16.4-12.9c4.3,0.8,8.3,2.6,11.7,5.3C41.4,55.1,42.9,57.7,44.9,59.9z M56.7,52.6c3.2-2.7,7.1-4.6,11.2-5.4
	c-3.2,6.2-8.9,10.8-15.6,12.5C54.1,57.6,55.6,55.2,56.7,52.6z M48.5,24.4c2.5,1.3,5.4,5.6,6.8,11.2c-1,0.9-1.9,1.9-2.7,2.9
	c-1.8,2.2-3.3,4.8-4.3,7.5c-1.1-2.7-2.5-5.2-4.3-7.4c-0.7-0.9-1.5-1.8-2.3-2.6C43,30.2,46,25.8,48.5,24.4z M26.4,31.4
	c2.9-0.4,8,1.6,12.4,5.5l0,0c-0.7,3.8-0.6,7.7,0.2,11.5c-3.6-2.2-7.6-3.6-11.7-4.2C25.2,38.9,25.2,33.9,26.4,31.4z M13.4,49.4
	c1.6-1.5,5.3-2.8,10.2-2.8c0.5,0,1.2,0,1.9,0.1c0.1,0.2,0.2,0.4,0.2,0.5c3.5,7.6,10.2,13.2,18.4,15.2c-2.6,1-5.4,1.5-8.2,1.5
	C23.6,63.8,14.2,54.6,13.4,49.4z M61.3,63.8c-2.9,0-5.8-0.5-8.5-1.5c8-2.1,14.6-7.6,18-15.1c0.1-0.2,0.1-0.3,0.2-0.5
	c1.1-0.1,2-0.1,2.6-0.1c4.9,0,8.6,1.4,10.2,2.8C83,54.6,73.5,63.8,61.3,63.8z"/>
</svg>
