<svg xmlns="http://www.w3.org/2000/svg" viewBox="0 0 99.27 91.04"><defs><style>.cls-1{fill:#6ec0b0;}</style></defs><title>zen-green</title><g id="Calque_2" data-name="Calque 2"><g id="Calque_1-2" data-name="Calque 1"><path class="cls-1" d="M42.58,40.69a24.09,24.09,0,0,0,1.36,11.14,25.27,25.27,0,0,1,3.72,4.09,25.41,25.41,0,0,1,.43-4.48,23.4,23.4,0,0,0-4.72-9.82C43.12,41.3,42.85,41,42.58,40.69Z"/><path class="cls-1" d="M69.06,45.52c2-5,2-9.83.87-12.2-.21,0-.44,0-.67,0-2.76,0-6.87,1.68-10.62,4.9,0,.12,0,.24.07.36a27.43,27.43,0,0,1-.23,10.92A27.43,27.43,0,0,1,69.06,45.52Z"/><path class="cls-1" d="M30.79,48.08A23.23,23.23,0,0,0,46.17,60.23a25.2,25.2,0,0,1-4.36-7.11A24.23,24.23,0,0,0,30.79,48.08Z"/><path class="cls-1" d="M28.13,48.21l-.23-.51c-.73-.06-1.35-.07-1.83-.07-4.66,0-8.07,1.27-9.59,2.64.76,4.95,9.65,13.64,21.17,13.65a22.94,22.94,0,0,0,7.77-1.38A25.75,25.75,0,0,1,28.13,48.21Z"/><path class="cls-1" d="M40.63,49.36a27.46,27.46,0,0,1-.2-10.83h0c-4.18-3.74-8.9-5.53-11.68-5.2-1.14,2.35-1.08,7.13.84,12.1A27.52,27.52,0,0,1,40.63,49.36Z"/><path class="cls-1" d="M56,37.32c-1.3-5.26-4.06-9.28-6.38-10.55-2.38,1.3-5.21,5.47-6.48,10.91a30.22,30.22,0,0,1,2.19,2.41,27,27,0,0,1,4.06,7,26.69,26.69,0,0,1,4.07-7A29.61,29.61,0,0,1,56,37.32Z"/><path class="cls-1" d="M70.76,47.76l-.2.45A25.78,25.78,0,0,1,53.62,62.46a23.12,23.12,0,0,0,8,1.45c11.53,0,20.41-8.68,21.18-13.64-1.53-1.37-4.94-2.64-9.59-2.64C72.6,47.63,71.76,47.66,70.76,47.76Z"/><path class="cls-1" d="M4.9,18.11C-5.77,35,2.28,69.06,16.62,81.33,36.35,98.22,74.31,91.61,90.5,72.8,128.12,24.33,34.41-28.63,4.9,18.11ZM85.29,49.87c-.27,6.51-11,16.48-23.67,16.48h0a26,26,0,0,1-11.85-2.93l-.2.18-.15-.13a26,26,0,0,1-11.77,2.88C25,66.35,14.26,56.38,14,49.87l0-.49.32-.36c2.07-2.36,6.58-3.83,11.78-3.83l.85,0c-1.79-5.33-1.85-10.74,0-13.66l.26-.41.48-.11a7.35,7.35,0,0,1,1.74-.2c3,0,7.45,1.59,11.62,5,1.58-5.57,4.75-10.22,8.06-11.54l.46-.19.45.19c3.25,1.3,6.37,5.81,8,11.26,4.06-3.2,8.34-4.71,11.25-4.71A7.38,7.38,0,0,1,71,31l.47.11.27.41c1.88,2.92,1.82,8.35,0,13.67.49,0,1,0,1.46,0,5.19,0,9.71,1.47,11.77,3.83l.33.36Z"/><path class="cls-1" d="M55.12,52A24.08,24.08,0,0,0,56.5,40.25c-.4.44-.8.89-1.19,1.37a23.52,23.52,0,0,0-4.72,9.82A24.55,24.55,0,0,1,51,56.76,25.26,25.26,0,0,1,55.12,52Z"/><path class="cls-1" d="M67.82,48.22A23.91,23.91,0,0,0,57.25,53.3a25.3,25.3,0,0,1-4.15,6.77A23.23,23.23,0,0,0,67.82,48.22Z"/></g></g></svg>