<?xml version="1.0" encoding="utf-8"?>
<!-- Generator: Adobe Illustrator 25.2.2, SVG Export Plug-In . SVG Version: 6.00 Build 0)  -->
<svg version="1.1" id="Calque_1" xmlns:serif="http://www.serif.com/"
	 xmlns="http://www.w3.org/2000/svg" xmlns:xlink="http://www.w3.org/1999/xlink" x="0px" y="0px" viewBox="0 0 425.2 417"
	 style="enable-background:new 0 0 425.2 417;" xml:space="preserve">
<style type="text/css">
	.st0{fill:#F0D7CD;}
	.st1{fill:#FAB699;}
	.st2{fill:#FFFFFF;}
</style>
<g id="Calque_2_3_">
	<g id="Calque_2-2_2_">
		<path class="st0" d="M34.5,327C-14.2,232.3,18,71.3,115,22.2c69.7-35.8,215.9-11.2,266,59C518.6,274.7,166.4,555.5,34.5,327"/>
	</g>
</g>
<g id="Calque_2_2_">
	<g id="Calque_2-2_1_">
		<path class="st1" d="M381.8,312.7C317,393.2,161.9,428.1,80.1,361.5c-59.5-47.8-95.2-186.9-52.7-258.8
			C144.5-95.4,532,105.8,381.8,312.7"/>
	</g>
</g>
<g transform="matrix(1,0,0,1,-1510.98,-970.037)">
	<g>
		<g transform="matrix(4.16667,0,0,4.16667,1812.34,1000.25)">
			<path class="st2" d="M6.9,61.1c0,1.7-1.4,3.1-3.1,3.1h-51.5c-1.7,0-3.1-1.4-3.1-3.1V24.8c0-1.7,1.4-3.1,3.1-3.1H3.9
				c1.7,0,3.1,1.4,3.1,3.1C6.9,24.8,6.9,61.1,6.9,61.1z M3.9,18.7h-51.5c-3.4,0-6.1,2.7-6.1,6.1v36.4c0,3.4,2.7,6.1,6.1,6.1H3.9
				c3.4,0,6.1-2.7,6.1-6.1V24.8C9.9,21.4,7.2,18.7,3.9,18.7"/>
		</g>
		<g transform="matrix(4.16667,0,0,4.16667,1770.43,1130.69)">
			<path class="st2" d="M8.6,17.4h-40.7c-0.6,0-1.1,0.5-1.1,1.1c0,0.6,0.5,1.1,1.1,1.1H8.6c0.6,0,1.1-0.5,1.1-1.1
				C9.7,17.9,9.2,17.4,8.6,17.4"/>
		</g>
		<g transform="matrix(4.16667,0,0,4.16667,1661.31,1157.19)">
			<path class="st2" d="M12.8,16.4H-6c-0.6,0-1.1,0.5-1.1,1.1s0.5,1.1,1.1,1.1h18.7c0.6,0,1.1-0.5,1.1-1.1
				C13.9,16.9,13.4,16.4,12.8,16.4"/>
		</g>
		<g transform="matrix(4.16667,0,0,4.16667,1770.43,1157.19)">
			<path class="st2" d="M8.6,16.4h-9.1c-0.6,0-1.1,0.5-1.1,1.1s0.5,1.1,1.1,1.1h9.1c0.6,0,1.1-0.5,1.1-1.1
				C9.7,16.9,9.2,16.4,8.6,16.4"/>
		</g>
		<g transform="matrix(4.16667,0,0,4.16667,1605.32,1046.49)">
			<path class="st2" d="M15,28.9c0.1,0,0.1,0,0.2,0.1c0.1,0,0.1,0.1,0.2,0.1l1.1,1.2c-0.5,0.6-1.1,1.1-1.9,1.5
				c-0.7,0.3-1.6,0.5-2.7,0.5c-0.9,0-1.8-0.2-2.6-0.5S8,31.1,7.5,30.5c-0.5-0.6-0.9-1.2-1.2-2C6,27.8,5.8,26.9,5.8,26
				c0-0.9,0.1-1.7,0.4-2.6c0.3-0.7,0.7-1.4,1.2-2c0.6-0.6,1.2-1,1.9-1.3c0.7-0.3,1.6-0.4,2.5-0.4c0.4,0,0.9,0.1,1.3,0.1
				c0.4,0.1,0.8,0.2,1.1,0.3c0.4,0.1,0.7,0.3,1,0.5c0.3,0.2,0.6,0.4,0.8,0.7l-1,1.3c-0.1,0.1-0.1,0.1-0.2,0.2
				c-0.1,0.1-0.2,0.1-0.4,0.1c-0.1,0-0.2,0-0.3-0.1c-0.1-0.1-0.2-0.1-0.3-0.2c0.2-0.1,0.1-0.2-0.1-0.2c-0.1-0.1-0.2-0.1-0.4-0.2
				c-0.2-0.1-0.4-0.1-0.6-0.2C12.6,22,12.4,22,12.1,22c-0.5,0-0.9,0.1-1.3,0.2c-0.4,0.2-0.7,0.4-1,0.7c-0.3,0.3-0.5,0.7-0.7,1.2
				c-0.1,0.5-0.2,1.1-0.2,1.7s0.1,1.2,0.2,1.7c0.2,0.5,0.4,0.9,0.7,1.2c0.3,0.3,0.6,0.6,1.1,0.7c0.4,0.2,0.8,0.2,1.2,0.2
				c0.2,0,0.5,0,0.7-0.1c0.2,0,0.4-0.1,0.6-0.1c0.2-0.1,0.4-0.1,0.5-0.2c0.2-0.1,0.3-0.2,0.5-0.4c0.1-0.1,0.1-0.1,0.2-0.1
				C14.8,29,14.9,28.9,15,28.9"/>
		</g>
		<g transform="matrix(4.16667,0,0,4.16667,1656.43,1041.96)">
			<path class="st2" d="M13,31v2.3H5.5V20.8h2.9V31H13z"/>
		</g>
		<g transform="matrix(4.16667,0,0,4.16667,1688.19,1042.5)">
			<path class="st2" d="M11.7,30.9c0.4,0,0.7-0.1,1.1-0.2c0.3-0.1,0.6-0.3,0.7-0.6s0.4-0.5,0.5-0.9c0.1-0.3,0.2-0.7,0.2-1.2v-7.3
				h2.8v7.4c0,0.7-0.1,1.4-0.4,2.1c-0.2,0.6-0.6,1.2-1.1,1.6c-0.4,0.4-1,0.7-1.6,1c-0.7,0.2-1.4,0.4-2.2,0.4c-0.8,0-1.6-0.1-2.2-0.4
				c-0.7-0.2-1.2-0.6-1.7-1.1c-0.4-0.4-0.8-1-1.1-1.6c-0.2-0.6-0.4-1.3-0.4-2.1v-7.3h2.9v7.4c0,0.4,0.1,0.8,0.2,1.2
				c0.1,0.3,0.2,0.6,0.5,0.9c0.2,0.2,0.4,0.4,0.7,0.6C11,30.8,11.4,30.9,11.7,30.9"/>
		</g>
		<g transform="matrix(4.16667,0,0,4.16667,1750.26,1041.32)">
			<path class="st2" d="M9.3,31.2c0.4,0,0.7-0.1,0.9-0.1c0.2-0.1,0.4-0.2,0.6-0.4s0.2-0.3,0.3-0.5c0.1-0.2,0.1-0.4,0.1-0.6
				c0-0.2,0-0.4-0.1-0.6c-0.1-0.2-0.2-0.3-0.3-0.4c-0.1-0.1-0.3-0.2-0.6-0.3c-0.2-0.1-0.6-0.1-0.9-0.1h-2v3.1H9.3z M7.3,23.2v3.1
				h1.5c0.3,0,0.6,0,0.9-0.1c0.2-0.1,0.5-0.1,0.6-0.2c0.2-0.1,0.3-0.2,0.4-0.4c0.1-0.2,0.1-0.4,0.1-0.7s-0.1-0.6-0.1-0.7
				c-0.1-0.2-0.2-0.4-0.3-0.5c-0.1-0.1-0.4-0.2-0.6-0.2c-0.2-0.1-0.5-0.1-0.8-0.1H7.3z M9,21c0.9,0,1.6,0.1,2.2,0.2
				c0.6,0.2,1.1,0.4,1.5,0.7c0.4,0.3,0.7,0.6,0.8,1.1c0.2,0.4,0.2,0.9,0.2,1.4c0,0.2-0.1,0.6-0.1,0.8c-0.1,0.2-0.2,0.5-0.4,0.7
				c-0.2,0.2-0.4,0.4-0.6,0.6c-0.2,0.2-0.6,0.4-0.9,0.5c0.8,0.2,1.4,0.5,1.8,0.9s0.6,1,0.6,1.7c0,0.5-0.1,1-0.3,1.5
				c-0.2,0.4-0.5,0.9-0.9,1.2S12,33,11.5,33.2s-1.2,0.3-2,0.3H4.5V21H9z"/>
		</g>
	</g>
</g>
</svg>
