<?xml version="1.0" encoding="utf-8"?>
<!-- Generator: Adobe Illustrator 25.2.2, SVG Export Plug-In . SVG Version: 6.00 Build 0)  -->
<svg version="1.1" id="Calque_1" xmlns:serif="http://www.serif.com/"
	 xmlns="http://www.w3.org/2000/svg" xmlns:xlink="http://www.w3.org/1999/xlink" x="0px" y="0px" viewBox="0 0 425.2 595.3"
	 style="enable-background:new 0 0 425.2 595.3;" xml:space="preserve">
<style type="text/css">
	.st0{fill:#666666;}
</style>
<path class="st0" d="M119.6,357.5c-0.1,35-0.2,70-0.3,105c0,5.1,0,10.2,0,15.3c0,6.6,7.9,11.9,13.8,7.9c28.2-19.3,56.4-38.7,84.6-58
	c-3.1,0-6.2,0-9.2,0c28.2,19.2,56.4,38.4,84.6,57.5c5.9,4,13.8-1.3,13.8-7.9c0-34.7,0-69.3,0-104c0-5,0-9.9,0-14.9
	c0-11.8-18.3-11.8-18.3,0c0,34.7,0,69.3,0,104c0,5,0,9.9,0,14.9c4.6-2.6,9.2-5.3,13.8-7.9c-28.2-19.2-56.4-38.4-84.6-57.5
	c-2.5-1.7-6.7-1.7-9.2,0c-28.2,19.3-56.4,38.7-84.6,58c4.6,2.6,9.2,5.3,13.8,7.9c0.1-35,0.2-70,0.3-105c0-5.1,0-10.2,0-15.3
	C137.9,345.7,119.6,345.7,119.6,357.5L119.6,357.5z"/>
<path class="st0" d="M195.8,283.4c6.7-7.5,13.3-14.8,19.9-22.1c15.6-17.4,31.3-34.8,46.9-52.2c3.5-3.9,7.7-5.9,13-4.5
	c4.6,1.2,7.7,4.1,8.9,8.7c1.3,4.7-0.2,8.8-3.4,12.3c-7.8,8.7-15.7,17.5-23.5,26.2c-16.8,18.7-33.7,37.5-50.5,56.2
	c-6.5,7.3-13.5,7.6-20.6,0.8c-13.6-13.1-27.1-26.1-40.7-39.2c-3.9-3.7-5.9-7.9-4.3-13.4c2.5-8.6,12.8-11.9,19.6-6.1
	c4.4,3.7,8.4,7.9,12.6,11.9C181,269.1,188.2,276.1,195.8,283.4z"/>
<path class="st0" d="M337.4,252.1c-0.3,51.4-32.6,99.1-81.3,116.8c-49.5,18-105.4,2.8-139.2-37.6c-33.5-40-37.4-98.9-10.6-143.4
	c26.7-44.4,80-68.2,130.9-57.9C295.1,141.8,337,193.2,337.4,252.1c0.1,11.8,18.4,11.8,18.3,0c-0.4-59.7-38-113.4-93.9-134.1
	C206,97.3,140.6,115.2,103,161.2C65.2,207.5,59.6,274,90.5,325.5c31,51.4,92,78,150.8,66.5c57.3-11.3,103.8-59.5,112.5-117.3
	c1.1-7.5,1.8-15,1.8-22.6C355.8,240.3,337.5,240.3,337.4,252.1z"/>
</svg>
