<?xml version="1.0" encoding="utf-8"?>
<!-- Generator: Adobe Illustrator 25.2.2, SVG Export Plug-In . SVG Version: 6.00 Build 0)  -->
<svg version="1.1" id="Calque_1" xmlns:serif="http://www.serif.com/"
	 xmlns="http://www.w3.org/2000/svg" xmlns:xlink="http://www.w3.org/1999/xlink" x="0px" y="0px" viewBox="0 0 425.2 417"
	 style="enable-background:new 0 0 425.2 417;" xml:space="preserve">
<style type="text/css">
	.st0{fill:#F0D7CD;}
	.st1{fill:#FAB699;}
	.st2{fill:#FFFFFF;}
</style>
<g id="Calque_2_3_">
	<g id="Calque_2-2_2_">
		<path class="st0" d="M34.5,327C-14.2,232.3,18,71.3,115,22.2c69.7-35.8,215.9-11.2,266,59C518.6,274.7,166.4,555.5,34.5,327"/>
	</g>
</g>
<g id="Calque_2_2_">
	<g id="Calque_2-2_1_">
		<path class="st1" d="M381.8,312.7C317,393.2,161.9,428.1,80.1,361.5c-59.5-47.8-95.2-186.9-52.7-258.8
			C144.5-95.4,532,105.8,381.8,312.7"/>
	</g>
</g>
<g transform="matrix(1,0,0,1,-1646.45,-727.688)">
	<g transform="matrix(4.16667,0,0,4.16667,0,0)">
		<g transform="matrix(1,0,0,1,417.866,230.92)">
			<path class="st2" d="M27.9-24.9C14.3-24.9,3.3-13.6,3.3,0.3c0,13.9,11,25.1,24.5,25.1c13.5,0,24.5-11.3,24.5-25.1
				C52.4-13.6,41.4-24.9,27.9-24.9 M27.9,28.5C12.5,28.5,0,15.8,0,0.3C0-15.3,12.5-28,27.9-28S55.7-15.3,55.7,0.3
				C55.7,15.8,43.2,28.5,27.9,28.5"/>
		</g>
	</g>
	<g transform="matrix(4.16667,0,0,4.16667,0,0)">
		<g transform="matrix(0,-1,-1,0,412.636,205.728)">
			<path class="st2" d="M-21.6-28.6c-1,0-1.9,0.8-1.9,1.9c0,1,0.8,1.9,1.9,1.9c1,0,1.9-0.8,1.9-1.9C-19.7-27.7-20.6-28.6-21.6-28.6"
				/>
		</g>
	</g>
	<g transform="matrix(4.16667,0,0,4.16667,0,0)">
		<g transform="matrix(0,-1,-1,0,422.429,205.728)">
			<path class="st2" d="M-21.6-30.8c-1,0-1.9,0.8-1.9,1.9c0,1,0.8,1.9,1.9,1.9c1,0,1.9-0.8,1.9-1.9C-19.7-29.9-20.6-30.8-21.6-30.8"
				/>
		</g>
	</g>
	<g transform="matrix(4.16667,0,0,4.16667,0,0)">
		<g transform="matrix(1,0,0,1,415.316,174.466)">
			<path class="st2" d="M27.3,31.5c1.4-0.7,3.1-0.8,4.2-1.9c1.1-1.1,2.1-2.5,2.9-3.8c1.4-2.5,2.3-5.7,1.3-8.5
				c-0.9-2.7-3.6-4.7-6.5-4.4c-2.8,0.2-4.9,2.5-5.1,5.3c-0.1,1.6,0.6,3.1,1.9,4c1.4,1,3.3,0.9,4.5-0.3c1.1-1.1-0.6-2.8-1.7-1.7
				c-0.8,0.8-1.9-0.1-2.2-0.9c-0.4-0.9-0.1-2.1,0.5-2.8c1.4-1.8,4.1-1.4,5.5,0.2c1.6,1.9,1.1,4.8,0.2,7c-0.6,1.3-1.4,2.5-2.3,3.6
				c-0.8,1-1.9,2.2-3.3,2c-0.6-0.1-1.2,0.6-1.2,1.2C26.1,31.1,26.7,31.5,27.3,31.5"/>
		</g>
	</g>
	<g transform="matrix(4.16667,0,0,4.16667,0,0)">
		<g transform="matrix(1,0,0,1,420.348,217.679)">
			<path class="st2" d="M28.4,28.2c0-0.3,0-0.6-0.1-1c-0.3,0.2-0.5,0.4-0.7,0.6C27.9,28,28.1,28.1,28.4,28.2 M21.7,28.2
				c0.3-0.1,0.5-0.3,0.8-0.4c-0.2-0.2-0.5-0.4-0.7-0.6C21.8,27.6,21.8,27.9,21.7,28.2 M22.2,29.5c0.4,1,1.9,1.8,3.1,1.7
				c1.2-0.1,2.5-1,2.7-1.7C26,28.3,24.1,28.3,22.2,29.5 M29.8,24.2c-0.1,0.5-0.3,1-0.4,1.5c0,0.1-0.1,0.2,0,0.4
				c0.4,0.8,0.5,1.7,0.3,2.6c-0.4,2.5-2.7,4.2-5.2,3.9c-2.8-0.4-4.6-3.2-3.9-5.9c0.1-0.3,0.2-0.5,0.2-0.7c0-0.2-0.2-0.5-0.2-0.8
				c-0.1-0.3-0.1-0.6-0.2-1c-1.9,2.3-1.8,5.9,0.7,8.1c2.4,2.2,6.1,2.1,8.4-0.4C31.7,29.6,31.4,26.2,29.8,24.2 M28.4,23.9
				c0-1.8-1.5-3.3-3.3-3.3c-1.8,0-3.3,1.5-3.3,3.3c0,1.8,1.5,3.3,3.3,3.3C26.9,27.2,28.4,25.7,28.4,23.9 M32.4,28
				c0.1-0.1,0.2-0.1,0.2-0.1c0.8-0.5,1.3-1.1,1.7-1.9c0.4-0.9,0.7-1.9,0.7-2.9c0.1-1.5-0.2-3-1-4.3C33,17,31,16.2,29,16.8
				c-0.5,0.2-1,0.4-1.5,0.6c-1.1,0.5-2.3,0.6-3.4,0.4c-0.7-0.1-1.4-0.4-2.1-0.7c-0.8-0.4-1.7-0.6-2.7-0.4c-1.4,0.2-2.4,0.9-3.2,2.1
				c-1.2,1.9-1.3,3.9-0.8,5.9c0.3,1.2,0.9,2.2,1.9,3c0.2,0.1,0.3,0.2,0.5,0.4c0-0.4,0-0.7,0.1-1.1c0.3-2,1.2-3.6,2.8-4.9
				c0.1-0.1,0.2-0.2,0.3-0.4c0.8-1.4,2.1-2.3,3.8-2.4c2-0.1,3.5,0.8,4.5,2.5c0.1,0.1,0.1,0.2,0.2,0.2c1.1,0.8,1.9,1.9,2.4,3.1
				C32.2,26,32.4,27,32.4,28 M13.7,21.8c0.1-0.4,0.1-0.7,0.2-1.1c0.4-1.6,1.1-3.1,2.4-4.2c1.9-1.5,3.9-1.7,6.1-0.7
				c0.6,0.3,1.2,0.6,1.9,0.7c1,0.2,1.9,0,2.9-0.4c0.5-0.2,1-0.5,1.6-0.6c2.3-0.7,4.8,0.2,6.2,2.2c0.8,1.1,1.3,2.3,1.4,3.7
				c0.2,1.7,0,3.4-0.7,4.9c-0.7,1.5-1.8,2.6-3.3,3.2c-0.1,0-0.2,0.1-0.2,0.2c-0.9,3-2.8,4.8-5.9,5.4c-3.8,0.7-7.4-1.7-8.4-5.4
				c0-0.1-0.1-0.2-0.2-0.2c-2-0.8-3.2-2.3-3.7-4.3c-0.2-0.5-0.2-1.1-0.3-1.6c0-0.1,0-0.1,0-0.2V21.8z"/>
		</g>
	</g>
</g>
</svg>
