<?xml version="1.0" encoding="utf-8"?>
<!-- Generator: Adobe Illustrator 25.2.2, SVG Export Plug-In . SVG Version: 6.00 Build 0)  -->
<svg version="1.1" id="Calque_1" xmlns="http://www.w3.org/2000/svg" xmlns:xlink="http://www.w3.org/1999/xlink" x="0px" y="0px"
	 viewBox="0 0 99.3 91" style="enable-background:new 0 0 99.3 91;" xml:space="preserve">
<style type="text/css">
	.st0{fill:#F0D7CD;}
	.st1{fill:#FAB699;}
	.st2{fill:#FFFFFF;}
</style>
<g id="Calque_2_2_">
	<g id="Calque_2-2_2_">
		<path class="st0" d="M9.9,71.9C-1,50.7,6.2,14.7,27.9,3.7c15.6-8,48.3-2.5,59.5,13.2C118.2,60.2,39.4,123,9.9,71.9"/>
	</g>
</g>
<g id="Calque_2_1_">
	<g id="Calque_2-2">
		<g id="Calque_2_3_">
			<g id="Calque_2-2_1_">
				<path class="st1" d="M87.6,68.7c-14.5,18-49.2,25.8-67.5,10.9C6.8,68.9-1.2,37.8,8.3,21.7C34.5-22.6,121.2,22.4,87.6,68.7"/>
			</g>
		</g>
	</g>
</g>
<path class="st2" d="M26.5,26.6c-3.1,0-5.7,2.5-5.7,5.7c0.1,8.6,0,17.7,0,26.4c0,3,2.3,5.5,5.3,5.6l42.1,0c3-0.1,5.4-2.6,5.4-5.7
	V31.3c-0.5-2.7-2.8-4.7-5.6-4.7C54.3,26.6,40.4,26.6,26.5,26.6L26.5,26.6z M26.4,29.6h41.9L48.1,49.9c-0.4,0.4-1,0.4-1.3,0
	L26.4,29.6L26.4,29.6z M70.9,31v27.5c0,1.6-0.6,2.6-1.8,2.9L54.8,47.1L70.9,31L70.9,31z M24,31.2l15.8,15.8L25.4,61.4
	c-1-0.3-1.3-1.1-1.4-2.2L24,31.2L24,31.2z M41.8,48.9l4.9,5c0.4,0.4,1,0.4,1.3,0l4.8-4.8l12.4,12.4H29.2L41.8,48.9L41.8,48.9z"/>
</svg>
