<?xml version="1.0" encoding="utf-8"?>
<!-- Generator: Adobe Illustrator 25.2.2, SVG Export Plug-In . SVG Version: 6.00 Build 0)  -->
<svg version="1.1" id="Calque_1" xmlns:serif="http://www.serif.com/"
	 xmlns="http://www.w3.org/2000/svg" xmlns:xlink="http://www.w3.org/1999/xlink" x="0px" y="0px" viewBox="0 0 425.2 595.3"
	 style="enable-background:new 0 0 425.2 595.3;" xml:space="preserve">
<style type="text/css">
	.st0{fill:#666666;}
</style>
<path class="st0" d="M280.7,431.3H88.3c-3,0-5.4,2.4-5.4,5.4c0,3,2.4,5.4,5.4,5.4h192.4c3,0,5.4-2.4,5.4-5.4
	C286.1,433.7,283.7,431.3,280.7,431.3"/>
<path class="st0" d="M338.6,431.3H146.2c-3,0-5.4,2.4-5.4,5.4c0,3,2.4,5.4,5.4,5.4h192.4c3,0,5.4-2.4,5.4-5.4
	C344,433.7,341.6,431.3,338.6,431.3"/>
<path class="st0" d="M233.5,454.6h-43.1c-3,0-5.4,2.4-5.4,5.4c0,3,2.4,5.4,5.4,5.4h43.1c3,0,5.4-2.4,5.4-5.4
	C238.9,457,236.5,454.6,233.5,454.6"/>
<g>
	<path class="st0" d="M212,134.6"/>
</g>
<path class="st0" d="M316.6,499.4H107.4C90.6,499.4,77,485.8,77,469V125.5c0-16.7,13.6-30.4,30.4-30.4h209.3
	c16.7,0,30.4,13.6,30.4,30.4V469C347,485.8,333.4,499.4,316.6,499.4z M107.4,111c-8,0-14.5,6.5-14.5,14.5V469
	c0,8,6.5,14.5,14.5,14.5h209.3c8,0,14.5-6.5,14.5-14.5V125.5c0-8-6.5-14.5-14.5-14.5H107.4z"/>
</svg>
