<?xml version="1.0" encoding="utf-8"?>
<!-- Generator: Adobe Illustrator 25.2.2, SVG Export Plug-In . SVG Version: 6.00 Build 0)  -->
<svg version="1.1" id="Calque_1" xmlns:serif="http://www.serif.com/"
	 xmlns="http://www.w3.org/2000/svg" xmlns:xlink="http://www.w3.org/1999/xlink" x="0px" y="0px" viewBox="0 0 425.2 595.3"
	 style="enable-background:new 0 0 425.2 595.3;" xml:space="preserve">
<style type="text/css">
	.st0{fill:#666666;}
</style>
<path class="st0" d="M277.6,373.2c20.8-23.6,53.2-25.3,75.3-9.8c22.6,15.8,30.4,45.5,18.6,70.3c-11.7,24.6-39.3,37.2-65.4,30.3
	c-25.3-6.7-48.3-34.1-40.2-68.6c-19.9-10.3-39.8-20.6-59.8-31c-19.9-10.3-39.7-20.6-59.8-31c-14,15.4-31.4,22.3-52.3,19.1
	c-14.6-2.2-26.5-9.5-35.5-21.2c-18-23.3-14.6-57.2,7.3-76.5c22.7-19.9,58.3-19.3,80.3,5.8c1.1-0.5,2.2-1.1,3.3-1.7
	c38-19.7,76.1-39.4,114.1-59c1.8-0.9,2.4-1.7,1.9-3.9c-6.6-32.3,15.4-63.1,47.9-67.2c35.9-4.5,66.4,25,63.2,61.2
	c-2.3,25.8-23.2,47.4-48.8,50.3c-19.5,2.3-35.9-4-49.3-18.4c-0.3-0.3-0.5-0.8-0.8-1.2c-16.1,8.3-31.9,16.5-47.7,24.7
	c-23.3,12.1-46.6,24.1-69.9,36.1c-1.9,1-2.6,1.8-2,4.1c1.8,7.5,1.7,15.1,0,22.7c-0.5,2.1-0.1,3,1.8,4c30.2,15.6,60.4,31.2,90.7,46.9
	C259.7,364,268.6,368.5,277.6,373.2z"/>
</svg>
