<?xml version="1.0" encoding="utf-8"?>
<!-- Generator: Adobe Illustrator 27.0.1, SVG Export Plug-In . SVG Version: 6.00 Build 0)  -->
<svg version="1.1" id="Calque_1" xmlns="http://www.w3.org/2000/svg" xmlns:xlink="http://www.w3.org/1999/xlink" x="0px" y="0px"
	 viewBox="0 0 343.5 163.8" style="enable-background:new 0 0 343.5 163.8;" xml:space="preserve">
<style type="text/css">
	.st0{fill:none;stroke:#FFFFFF;stroke-width:2;}
	.st1{fill:#FFFFFF;}
	.st2{fill:#F9F9F9;}
</style>
<g>
	<path class="st0" d="M171.7,162.7c-48.6,0-97.3,0-145.9,0c-6.5,0-12.3-1.9-17.1-6.4c-4.8-4.4-7.4-10-7.7-16.5c0-0.5,0-1,0-1.4
		C1,100.8,1,63,1,25.3C1,13.6,8.5,4.2,19.9,1.5C21.6,1.1,23.4,1,25.1,1c97.8,0,195.5,0,293.3,0c11.8,0,21.6,8.2,23.8,19.8
		c0.3,1.4,0.3,2.9,0.3,4.3c0,37.8,0,75.7,0,113.5c0,12.3-8.7,22.3-21,24c-1.4,0.2-2.8,0.2-4.2,0.2
		C268.8,162.7,220.3,162.7,171.7,162.7z"/>
	<path class="st1" d="M291.5,40.3c1.6-2.1,3.3-3.5,5.6-4.1c6-1.4,10.9,2.2,11.1,8.4c0.2,4.8,0.1,9.7,0,14.5c0,1.6-1.2,2.8-2.8,2.8
		c-1.6,0-2.9-1.2-2.9-2.9c0-3.4,0-6.9,0-10.3c0-0.6,0-1.1,0-1.7c-0.1-3.7-2-5.8-5.3-5.8s-5.6,2.3-5.7,5.8c-0.1,4,0,7.9,0,11.9
		c0,1.9-1.6,3.3-3.4,3c-1.5-0.2-2.4-1.4-2.4-3.1c0-5.1,0-10.1,0-15.2c0-1.4,0-2.7,0-4.1c0-1.9,1.1-3.2,2.8-3.2c1.7,0,2.9,1.2,3,3.2
		C291.5,39.6,291.5,39.8,291.5,40.3z"/>
	<path class="st2" d="M230.3,113.3c2.4-3.5,5.5-4.8,9.2-4.3c4.5,0.6,7.4,3.8,7.5,8.5c0.1,4.8,0.1,9.7,0,14.5c0,1.7-1.2,2.8-2.8,2.8
		s-2.9-1.2-2.9-2.9c0-3.7,0-7.4,0-11.2c0-0.6,0-1.2-0.1-1.8c-0.5-3.4-2.5-5-5.8-4.8c-2.9,0.2-5,2.5-5.1,5.7c-0.1,3.9,0,7.8,0,11.8
		c0,0.9-0.2,1.7-0.8,2.3c-0.9,0.9-1.9,1.2-3.1,0.7c-1.2-0.5-1.9-1.3-1.9-2.6c0-6.6,0-13.3,0-19.9c0-1.7,1.2-2.9,2.8-2.9
		s2.8,1.2,2.9,2.9C230.3,112.3,230.3,112.6,230.3,113.3z"/>
	<path class="st1" d="M162.2,76.5c2.4-3.3,5.5-4.6,9.5-3.9c4.3,0.8,6.9,3.9,7,8.5c0.1,4.8,0.1,9.6,0,14.4c0,1.6-1.2,2.8-2.8,2.8
		s-2.9-1.2-2.9-2.8c0-3.5,0-7,0-10.4c0-0.6,0-1.1,0-1.7c-0.1-3.6-2.1-5.7-5.3-5.7c-3.3,0-5.7,2.2-5.7,5.7c-0.1,3.9,0,7.8,0,11.7
		c0,1.1-0.3,2-1.2,2.6c-1,0.7-2,0.8-3.1,0.2c-1-0.6-1.5-1.5-1.5-2.7c0-3.6,0-7.2,0-10.8c0-2.9,0-5.8,0-8.8c0-1.9,1.2-3.2,2.9-3.1
		c1.7,0,2.8,1.2,2.9,3.1C162,76,161.8,76.4,162.2,76.5z"/>
	<path class="st1" d="M227.7,94.2c-1.6,2.2-3.4,3.7-5.8,4.1c-6,1.2-10.7-2.4-10.9-8.5c-0.1-4.8-0.1-9.5,0-14.3
		c0-1.7,1.3-2.9,2.9-2.9c1.6,0,2.8,1.2,2.9,2.9c0,3.4,0,6.9,0,10.3c0,0.6,0,1.1,0,1.7c0.1,3.6,2,5.7,5.3,5.7s5.7-2.2,5.7-5.7
		c0.1-4,0-7.9,0-11.9c0-2.3,2.2-3.7,4.1-2.7c1.1,0.5,1.6,1.4,1.6,2.7c0,6.6,0,13.2,0,19.8c0,1.7-1.2,2.9-2.8,2.9
		c-1.7,0-2.9-1.2-2.9-3C227.7,95.1,227.7,94.8,227.7,94.2z"/>
	<path class="st1" d="M169.1,36c2,0,4.8,0.8,7.2,2.8c1.4,1.1,1.8,2.7,0.8,4c-0.9,1.2-2.7,1.4-4.1,0.3c-1.8-1.4-3.9-2.3-6.2-1.9
		c-4.2,0.7-6.9,4.9-6.1,9.3c1,6.1,7.2,8.7,12.3,5c0.3-0.2,0.6-0.4,0.9-0.7c1.2-0.8,2.6-0.7,3.4,0.4c0.9,1.1,0.7,2.4-0.3,3.4
		c-4.7,4.6-12.9,4.7-17.8,0.3c-4.1-3.7-5.4-9.5-3.4-14.7C157.7,39.1,162.4,35.9,169.1,36z"/>
	<path class="st1" d="M240.1,85.4c0-2.2,0-4.4,0-6.6c0-0.6,0-0.9-0.8-0.9c-1.7-0.1-2.6-1-2.6-2.5s0.9-2.4,2.6-2.5
		c0.6,0,0.8-0.2,0.8-0.8c0-1.2,0-2.3,0-3.5c0-1.7,1.3-2.9,2.9-2.9c1.6,0,2.8,1.2,2.9,2.9c0,1.2,0,2.3,0,3.5c0,0.7,0.2,0.8,0.8,0.8
		c1.2,0,2.4,0,3.6,0c1.6,0,2.6,1,2.6,2.5c0,1.4-1.1,2.5-2.6,2.5c-1.2,0-2.5,0-3.7,0c-0.5,0-0.7,0.1-0.7,0.7c0,4,0,8.1,0,12.1
		c0,1.7,1,2.6,2.7,2.7c0.6,0,1.1-0.1,1.7-0.1c1.2,0,2.2,0.7,2.5,1.8c0.3,1.1-0.3,2.3-1.4,2.7c-2.6,1-5.3,1.1-7.9-0.1
		c-2.4-1.1-3.2-3.4-3.3-5.8C240.1,89.8,240.2,87.6,240.1,85.4L240.1,85.4z"/>
	<path class="st2" d="M253.6,122c0-2.2,0-4.4,0-6.6c0-0.7-0.1-1-0.9-1.1c-1.6-0.1-2.5-1.1-2.5-2.5s0.9-2.3,2.5-2.4
		c0.7,0,0.9-0.2,0.9-0.9c0-1.1,0-2.2,0-3.4c0-1.7,1.3-2.9,2.9-2.9c1.6,0,2.8,1.3,2.9,2.9c0,1,0.1,2.1,0,3.1
		c-0.1,0.9,0.2,1.2,1.1,1.2c1.1-0.1,2.2,0,3.4,0c1.6,0,2.5,1,2.6,2.4c0,1.4-0.9,2.5-2.4,2.6c-1.2,0.1-2.4,0-3.6,0
		c-0.7,0-1,0.1-1,0.9c0,3.9,0,7.8,0,11.6c0,2,1,2.9,3,2.9c0.5,0,1-0.1,1.4-0.1c1.2,0,2.2,0.7,2.5,1.9c0.2,1-0.3,2.3-1.4,2.7
		c-2.8,1-5.6,1.2-8.4-0.2c-2.2-1.2-2.8-3.3-2.9-5.6C253.5,126.3,253.6,124.2,253.6,122L253.6,122z"/>
	<path class="st1" d="M305.9,80.7c0,4.8,0,9.6,0,14.4c0,2-1.1,3.2-2.9,3.3c-1.8,0-2.9-1.2-2.9-3.2c0-9.6,0-19.3,0-28.9
		c0-1.9,1.1-3.2,2.8-3.2c1.8,0,3,1.2,3,3.2C305.9,71,305.9,75.9,305.9,80.7z"/>
	<path class="st2" d="M192.6,117.2c0,4.8,0,9.5,0,14.3c0,2.1-1.1,3.3-2.9,3.3c-1.7,0-2.8-1.3-2.8-3.3c0-9.6,0-19.2,0-28.8
		c0-2,1.1-3.2,2.9-3.2c1.8,0,2.9,1.2,2.9,3.2C192.7,107.6,192.6,112.4,192.6,117.2z"/>
	<path class="st1" d="M262.4,77.5c0.9-1.4,1.8-2.8,3.2-3.8c0.9-0.7,1.8-1.2,2.9-1.2c1.6-0.1,2.8,0.8,3,2.2c0.3,1.7-0.4,3-2.1,3.4
		c-5.1,1-6.9,4.9-7,9.2c-0.1,2.6,0,5.2,0,7.8c0,2-1.1,3.3-2.9,3.3c-1.7,0-2.9-1.3-2.9-3.2c0-6.4,0-12.8,0-19.2c0-2,1.1-3.3,2.9-3.3
		c1.7,0,2.9,1.3,2.9,3.3C262.4,76.5,262.4,77,262.4,77.5z"/>
	<path class="st1" d="M213.8,41c0.9-1.4,1.8-2.8,3.2-3.8c0.9-0.7,1.8-1.2,2.9-1.2c1.6-0.1,2.8,0.8,3,2.2c0.3,1.7-0.4,3-2.1,3.4
		c-5.1,1-6.8,4.9-7,9.1c-0.1,2.6,0,5.3,0,7.9c0,2-1.1,3.3-2.9,3.3c-1.7,0-2.9-1.3-2.9-3.2c0-6.4,0-12.8,0-19.2c0-2,1.1-3.3,2.9-3.3
		c1.7,0,2.9,1.3,2.9,3.3C213.8,40,213.8,40.5,213.8,41z"/>
	<path class="st1" d="M139.4,60.5c-6-28.5-34.7-47.5-63.2-41.7C52.5,23.5,35,42.6,32.6,66.5c-1.6,16.1,3.1,30.2,14,42.1
		c9.6,10.5,21.6,16.3,35.8,17.4c0.9,0.1,1.3,0.3,1.3,1.3c-0.1,2.7,0,5.4,0,8c0,2.7,0,5.4,0,8.2c0,0.8,0.1,1.2,1.1,1.2
		c1.1-0.1,2.2-0.1,3.4,0c0.9,0.1,1.1-0.3,1.1-1.1c0-5.4,0-10.9,0-16.3c0-0.9,0.3-1.2,1.1-1.2c2.7-0.1,5.4-0.5,8-1.2
		C127.6,118,145.6,89.9,139.4,60.5z M128,97.4c-0.1,0.2-0.2,0.3-0.4,0.5c-0.2,0-0.4,0-0.3-0.3c1.7-3.9,3-7.8,3.7-12
		c2-13-0.9-24.8-9-35.2c-7.6-9.7-17.6-15.5-29.8-17c-12.9-1.6-24.6,1.7-34.6,10.1c-8.2,6.8-13.4,15.5-15.5,26
		c-1.9,9.4-0.8,18.4,3.1,27.2c0.2,0.5,0.4,0.9,0.6,1.4c0.1,0.2,0,0.3-0.2,0.2c-4-6.1-6.5-12.8-7.4-20C36.6,64.4,40,51.9,49,41.1
		c8.8-10.6,20.2-16.7,34-17.6c24.8-1.7,46.5,14.8,51.3,39.3C136.7,75,134.5,86.6,128,97.4z"/>
	<path class="st2" d="M126.7,99.1c-3,5.1-7.2,9-11.9,12.4c-7.4,5.3-15.7,8.3-24.8,9c-0.6,0-0.8-0.1-0.8-0.7c0-5.4,0-10.9,0-16.3
		c0-0.6,0.4-0.9,0.8-1.2c6.4-4.5,12.8-8.9,19.2-13.4c3.7-2.6,7.4-5.3,11.2-7.8c0.8-0.6,0.8-1,0.3-1.7c-0.7-0.9-1.3-1.8-1.9-2.8
		c-0.4-0.6-0.6-0.7-1.3-0.3c-9,6.3-17.9,12.6-26.9,18.8c-0.4,0.2-0.7,0.5-1.1,0.7c-0.4-0.2-0.2-0.5-0.2-0.8c0-7,0-13.9,0-20.9
		c0-0.7,0.2-1.2,0.8-1.6c6.1-4.2,12.2-8.5,18.3-12.8c0.8-0.5,0.8-0.9,0.3-1.6c-0.7-0.9-1.4-1.9-2-2.9c-0.4-0.6-0.7-0.7-1.3-0.2
		c-5,3.5-9.9,7-14.9,10.4c-0.3,0.2-0.6,0.4-1,0.6c-0.3-0.4-0.1-0.8-0.1-1.2c0-5.4,0-10.9,0-16.3c0-1-0.2-1.4-1.2-1.3
		c-1,0.1-2.1,0.1-3.1,0c-0.9-0.1-1.2,0.2-1.2,1.2c0,5.6,0,11.1,0,16.7c0,0.3,0,0.6,0,0.9c-0.5,0.1-0.8-0.3-1.1-0.5
		c-5-3.4-9.9-6.9-14.8-10.4c-0.8-0.6-1.1-0.4-1.5,0.3c-0.6,1-1.2,1.9-1.9,2.7c-0.6,0.7-0.4,1,0.3,1.5C71,63.8,77,68.1,83.1,72.3
		c0.7,0.5,1,1,1,1.8c0,7.1,0,14.2,0,21.5c-0.7-0.2-1.1-0.6-1.6-0.9c-8.8-6.1-17.6-12.2-26.3-18.4c-0.8-0.6-1.2-0.6-1.7,0.3
		s-1.2,1.8-1.9,2.6c-0.5,0.6-0.5,1,0.2,1.5c7,4.9,14,9.8,21,14.7c3.2,2.2,6.3,4.5,9.5,6.7c0.6,0.4,0.8,0.8,0.8,1.5
		c0,5.2,0,10.4,0,15.6c0,1-0.2,1.1-1.2,1c-12.5-1.1-23-6.3-31.6-15.3c-1.6-1.7-3.1-3.5-4.4-5.4c-0.2-0.6-0.6-1.2-0.9-1.8
		c-2.6-4.5-3.8-9.5-4.4-14.6c-0.8-6.7-0.1-13.3,2.1-19.6C47.4,52.1,55,43.3,66.1,37.6c7.5-3.8,15.4-5.4,23.7-4.8
		c9.7,0.7,18.4,4.2,25.9,10.5c9.3,7.8,14.7,17.9,16.1,30c1,8-0.3,15.7-3.5,23.1c-0.2,0.4-0.4,0.8-0.6,1.2
		C127.3,98.1,127,98.6,126.7,99.1z"/>
	<path class="st1" d="M45.6,98.3c0.1-0.1,0.2-0.2,0.2-0.2c0.4,0.5,0.8,1,0.7,1.7C46.3,99.3,45.9,98.8,45.6,98.3z"/>
	<path class="st1" d="M127.4,97.6c0.1,0.1,0.2,0.2,0.3,0.3c-0.2,0.5-0.4,1-0.9,1.2C126.7,98.5,127,98,127.4,97.6z"/>
	<path class="st1" d="M249.9,41.6c-2.4-4.4-7.4-6.5-12.2-5.4c-2.6,0.6-4.5,2.1-6.2,4.4c0-3.9,0-7.4,0-11c0-1.8-1.2-3-2.9-3
		s-2.9,1.2-2.9,3.1c0,7.6,0,15.1,0,22.7c0,2.2,0,4.5,0,6.7c0,1.6,1.3,2.8,2.8,2.8c1.6,0,2.8-1.2,2.9-2.8c0-0.4,0-0.7,0-1.3
		c0.2,0.2,0.3,0.3,0.4,0.4c4.7,6,14.2,4.9,18-1.8C252.6,51.6,252.5,46.5,249.9,41.6z M238.3,57.1c-3.9-0.2-6.7-3.4-7-7.7
		c-0.2-4.7,3.2-8.5,7.7-8.3c3.9,0.1,6.8,3.6,6.8,8.1C245.9,53.9,242.7,57.2,238.3,57.1z"/>
	<path class="st2" d="M179.9,113.9c-2.6-3.9-7.1-5.7-11.7-4.8c-2.6,0.5-4.5,2.1-6.3,4.4c0-0.8,0-1.2,0-1.6c-0.1-1.2-0.7-2.1-1.8-2.6
		c-2-0.8-3.9,0.6-3.9,2.9c0,9,0,18,0,27c0,0.2,0,0.4,0,0.6c0.2,1.5,1.4,2.6,2.8,2.6c1.5,0,2.8-1.1,2.9-2.6c0-0.4,0-0.9,0-1.3
		c0-2.5,0-5.1,0-7.6c0.1,0,0.2-0.1,0.3-0.1c0.1,0.1,0.1,0.3,0.2,0.4c4.5,5.6,12.9,4.7,16.9-0.4C183,126.2,183.2,118.8,179.9,113.9z
		 M176.3,121.8c0,4-2,7.1-5.2,8c-4.2,1.2-8.5-1.6-9.2-6c-0.4-3,0.1-5.8,2.4-7.9c4.1-3.7,10.5-1.7,11.7,3.8
		C176.2,120.4,176.4,121.2,176.3,121.8z"/>
	<path class="st1" d="M268,36c-7.6,0-13.4,5.7-13.4,13.1c0,7.3,5.8,13,13.3,13c7.6,0,13.6-5.7,13.6-13C281.4,41.6,275.6,36,268,36z
		 M268,57.1c-4.3,0-7.7-3.5-7.7-8.1s3.2-8,7.6-8s7.8,3.5,7.7,8.2C275.6,53.7,272.4,57.1,268,57.1z"/>
	<path class="st1" d="M202.7,46c-0.1-5.7-3-9-8.6-9.8c-3.4-0.5-6.8,0-10,1.1c-1.8,0.6-2.5,1.9-2,3.4c0.5,1.4,1.9,1.9,3.6,1.3
		c1.9-0.7,3.9-1,6-0.9c3.3,0.2,5.1,2,5.4,5.2c0.1,0.8-0.1,1-0.9,0.8c-3-0.9-6.1-1-9.2-0.5c-4.5,0.8-7,3.6-7,7.8c0,4,2.6,6.9,7,7.6
		c3.8,0.7,7.2-0.3,10-3.3c0.3,2.3,1.3,3.3,3.1,3.2c1.7-0.1,2.7-1.3,2.7-3.4C202.7,54.3,202.8,50.1,202.7,46z M197.2,53
		c-0.1,2.5-2.3,4.4-5.2,4.8c-0.5,0.1-1,0.1-1.4,0.1c-1,0-1.8-0.1-2.5-0.4c-1.4-0.6-2.4-1.5-2.5-3.2s0.6-2.9,2.1-3.7
		c1.6-0.8,3.4-0.9,5.1-0.7c0.8,0.1,1.6,0.2,2.4,0.4C197.6,51,197.3,50.4,197.2,53z"/>
	<path class="st2" d="M219.5,118.8c-0.1-5-2.7-8.4-7.2-9.4c-3.9-0.9-7.7-0.4-11.4,0.9c-1.7,0.6-2.5,1.9-2,3.3s1.8,2,3.6,1.4
		c1.9-0.7,3.9-1,6-0.9c3.2,0.1,5,1.8,5.4,5c0.2,1.3,0.2,1.3-1.1,1c-3.7-0.9-7.4-1.1-11.1,0.2c-3.3,1.2-5,3.7-5,7.3
		c0,3.3,1.8,5.9,5,7c4.4,1.5,8.4,0.7,11.9-2.7c0.1,0.2,0.1,0.3,0.1,0.5c0.3,1.9,1.3,2.8,3,2.7c1.6-0.1,2.6-1.2,2.7-3.1
		C219.5,127.4,219.6,123.1,219.5,118.8z M207.4,130.8c-0.9,0-1.8,0-2.6-0.4c-1.4-0.6-2.3-1.5-2.4-3.1c-0.1-1.7,0.6-2.9,2.1-3.7
		c0.9-0.5,1.8-0.7,2.7-0.7c2-0.1,4,0.1,5.9,0.7c0.6,0.2,0.9,0.5,0.9,1.2C214.1,128.5,211.7,130.8,207.4,130.8z"/>
	<path class="st1" d="M294.6,82.3c-0.1-5.6-3.1-8.9-8.6-9.7c-3.4-0.5-6.8-0.1-10,1.1c-1.8,0.6-2.5,1.9-2,3.4
		c0.5,1.4,1.9,1.9,3.6,1.3c1.9-0.7,3.9-1,6-0.9c3.3,0.2,5.2,2,5.4,5.2c0.1,0.8,0,1-0.9,0.8c-3-0.9-6.1-1-9.2-0.5
		c-4.5,0.8-7,3.6-7,7.8c0,4,2.6,6.9,7,7.6c3.8,0.7,7.2-0.3,10-3.2c0.1,0.2,0.1,0.3,0.1,0.4c0.2,1.9,1.2,2.9,3,2.8
		c1.6-0.1,2.7-1.2,2.7-3.1C294.6,91,294.6,86.7,294.6,82.3z M284,94.2c-1.3,0.2-2.5,0.2-3.8-0.2c-1.7-0.6-2.7-1.7-2.8-3.3
		c-0.1-1.7,0.8-3,2.4-3.7c1.2-0.5,2.5-0.7,3.2-0.6c2.2,0,3.8,0.3,5.3,0.7c0.5,0.2,0.7,0.4,0.7,1C289.2,91.5,287.4,93.7,284,94.2z"/>
	<path class="st1" d="M204,87.5c1.8,0,3-1.1,2.9-2.9c-0.2-4.8-2-8.7-6.4-10.9c-4.4-2.2-8.8-1.9-12.8,1c-4.4,3.3-5.7,8-4.9,13.2
		c0.8,4.9,3.5,8.3,8.2,9.8c4.9,1.6,9.5,0.9,13.5-2.5c1.1-0.9,1.1-2.4,0.3-3.3c-0.8-1-2.1-1.1-3.2-0.3c-0.7,0.4-1.3,0.9-2,1.3
		c-5,2.5-10.3,0-11.2-5.4h1.4C194.5,87.6,199.3,87.6,204,87.5z M188.4,83.7c0.6-4.8,4.3-7.5,8.4-6.3c2.3,0.7,4.3,3.2,4.5,5.7
		c0,0.5-0.1,0.5-0.5,0.5C196.6,83.7,192.5,83.7,188.4,83.7z"/>
</g>
</svg>
