<?xml version="1.0" encoding="utf-8"?>
<!-- Generator: Adobe Illustrator 27.0.1, SVG Export Plug-In . SVG Version: 6.00 Build 0)  -->
<svg version="1.1" id="Calque_1" xmlns="http://www.w3.org/2000/svg" xmlns:xlink="http://www.w3.org/1999/xlink" x="0px" y="0px"
	 viewBox="0 0 164 72.8" style="enable-background:new 0 0 164 72.8;" xml:space="preserve">
<style type="text/css">
	.st0{fill:#FFFFFF;}
</style>
<g id="Calque_2_1_">
	<g id="Calque_1-2">
		<path class="st0" d="M65.1,40.1c0-0.2-0.2-0.4-0.5-0.4c-0.6,1.1-1.8,1.7-3,1.6c-2.4-0.1-4.4-2.1-4.3-4.5v-0.1
			c0-2.8,1.8-4.3,3.7-4.3c1.1,0.1,2,0.6,2.7,1.4c0.1,0.1,0.2,0.2,0.4,0.2c0.3,0,0.6-0.5,0.6-1c0-0.4-0.1-0.8-0.4-1.1
			c-0.8-0.3-1.6-0.5-2.4-0.5c-4.5,0-6.5,3.1-6.5,6c-0.1,1.5,0.5,2.9,1.6,4c1,0.9,2.3,1.4,3.7,1.4C62.5,42.8,64.3,41.8,65.1,40.1z"/>
		<path class="st0" d="M68.8,42.4c0.9,0,1.7,0,3,0.1c0.2-0.2,0.2-0.5,0.1-0.7l0,0l-1-0.1c-1-0.1-1.1-0.4-1.1-2.3v-3.7
			c-0.1-0.7,0.1-1.4,0.3-2.1c0.2-0.3,0.6-0.5,1-0.5s0.8,0.2,1.2,0.4c0.2,0.1,0.4,0.2,0.6,0.2c0.7,0,1.2-0.6,1.2-1.2l0,0
			c0-0.6-0.5-1.1-1.2-1.1c0,0,0,0-0.1,0c-1,0-2,0.8-3,1.6c-0.1,0-0.1-0.1-0.1-0.2v-1.6c0-0.1-0.1-0.2-0.2-0.2
			c-0.9,0.5-1.8,0.9-2.7,1.3c-0.1,0.1-0.1,0.3,0,0.5L67,33c0.7,0.5,0.7,0.6,0.7,1.7v4.7c0,1.9,0,2.2-1,2.3l-0.5,0.1
			c-0.2,0.2-0.1,0.5,0.1,0.7l0,0C67,42.5,67.8,42.4,68.8,42.4z"/>
		<path class="st0" d="M75.8,32.6c0.8,0.3,0.8,0.6,0.8,2.3v4.5c0,2.2,0.9,3.4,3.3,3.4c1.3-0.1,2.6-0.6,3.7-1.4
			c0.2,0,0.2,0.1,0.2,0.4v1.1c0.1,0.1,0.2,0.2,0.3,0.2c1.1-0.5,2.3-0.8,3.5-1c0.2-0.1,0.2-0.7,0-0.8c-0.3,0.1-0.7,0.1-1,0.1
			c-0.8,0-0.8-0.8-0.8-2.9V34c0-1,0-1.8,0.1-2.3c0-0.1-0.1-0.2-0.2-0.2c-1,0.3-2.1,0.5-3.2,0.5c-0.2,0.1-0.2,0.3-0.1,0.5l0.1,0.1
			l0.3,0.1c0.8,0.3,1,0.4,1,2.1v4.4c0.1,0.6-0.1,1.2-0.5,1.6c-0.6,0.5-1.4,0.8-2.2,0.8c-2,0-2.5-1.2-2.5-3.1V34c0-0.8,0-1.6,0.1-2.3
			c0-0.1-0.1-0.2-0.3-0.2c-0.9,0.3-1.9,0.5-2.9,0.5c-0.2,0.1-0.2,0.4,0,0.6l0,0H75.8z"/>
		<path class="st0" d="M94.1,42.8c1.8,0,3.4-0.9,4.2-2.5c0-0.2-0.2-0.3-0.4-0.3h-0.1c-0.5,0.8-1.5,1.3-2.5,1.3c-2.9,0-4.5-2.3-4.5-5
			c0-0.7,0-0.7,0.7-0.7h5c1.1,0,1.5,0,1.6-0.2s0.1-0.5,0.1-0.7c0-1.6-1.5-3.2-3.8-3.2c-3.2,0-5.4,2.8-5.4,6.1c0,1.2,0.4,2.4,1.1,3.4
			C91.1,42.2,92.6,42.8,94.1,42.8z M94.2,32.2c1.6,0,2.1,0.9,2.1,1.7c0,0.3-0.1,0.5-0.2,0.5s-0.8,0.3-2.8,0.3h-1.9
			c-0.2,0-0.2-0.1-0.2-0.1C91.5,33.2,92.8,32.3,94.2,32.2z"/>
		<path class="st0" d="M102.1,42.4c0.9,0,1.7,0,2.6,0.1c0.2-0.2,0.2-0.4,0.1-0.6l0,0l-0.6-0.1c-1-0.1-1-0.4-1-2.3V26.7
			c0-1.2,0.1-2.5,0.1-3.3c0-0.1-0.1-0.2-0.3-0.2c-1,0.5-2,0.8-3,1.1c-0.1,0.2-0.1,0.4,0,0.5l0.3,0.2c0.8,0.5,0.8,0.6,0.8,2.2v12.2
			c0,1.9,0,2.2-1,2.3l-0.6,0.1c-0.2,0.2-0.2,0.5,0,0.6l0,0C100.3,42.5,101.2,42.4,102.1,42.4z"/>
		<path class="st0" d="M107.2,32.9c0.5,0,0.6,0,0.6,0.8v6.2c0,1.6,0.5,2.9,2.8,2.9c1.1,0,2.1-0.4,2.8-1.2c0.1-0.2,0-0.5-0.3-0.5
			s-0.4,0.3-0.7,0.4c-0.2,0.1-0.5,0.1-0.7,0.1c-1.8,0-2-1.4-2-3v-5c0-0.6,0-0.7,0.5-0.7h3c0.3-0.3,0.3-0.8,0-1.1h-3
			c-0.5,0-0.5,0-0.5-0.5v-1.2c-0.1-0.2-0.4-0.2-0.6-0.1c-0.3,0.6-0.7,1.1-1.1,1.6c-0.5,0.4-1.1,0.7-1.7,0.8
			c-0.1,0.2-0.1,0.4,0.1,0.6L107.2,32.9z"/>
		<path class="st0" d="M125.4,32.5l0.5-0.1c0.2-0.2,0.2-0.5,0-0.6l0,0c-0.8,0-1.4,0.1-2,0.1s-1.5,0-2.4-0.1
			c-0.2,0.1-0.2,0.5-0.1,0.7l0.8,0.1c0.5,0.1,0.6,0.3,0.6,0.5c-0.2,0.9-0.5,1.8-0.9,2.7l-1,2.1c-0.3,0.7-0.6,1.4-1,2
			c-0.3-0.6-0.6-1.3-0.8-1.9l-0.9-2.5c-0.3-0.8-0.6-1.7-0.8-2.5c0-0.2,0.2-0.3,0.6-0.3l0.7-0.1c0.2-0.1,0.2-0.6,0-0.7
			c-0.9,0-1.6,0.1-2.3,0.1c-0.9,0-1.7,0-2.6-0.1c-0.2,0.1-0.2,0.5-0.1,0.7l0.7,0.1c0.9,0.2,1.1,0.8,1.6,2.1l2.1,5.8
			c0.3,0.6,0.4,1.2,0.4,1.9c0,0.4-0.1,0.8-0.3,1.2c-0.4,1-1,2.1-1.6,3c-0.2,0.3-0.5,0.5-0.9,0.5h-0.5c-0.5-0.1-1,0.3-1.1,0.9
			c0,0.1,0,0.1,0,0.2c0,0.6,0.4,1.1,1,1.2c0.1,0,0.1,0,0.2,0c0.8,0,1.5-0.5,1.7-1.3c1.3-2.9,3.5-7.6,4.4-9.4l1.5-3.1
			C124.1,33.4,124.6,32.6,125.4,32.5z"/>
		<path class="st0" d="M131.3,31.8c-0.6,0-0.6,0-0.6-0.9v-0.8c0-4,0.7-5.9,1.6-5.9c0.6,0,1.2,0.5,2.1,1.8c0.2,0.2,0.5,0.4,0.8,0.4
			c0.7,0,1.3-0.6,1.3-1.3c0-1.1-1.2-2-3.1-2c-2.3,0-4.4,1.5-5,3.8c-0.4,1.2-0.6,2.5-0.6,3.9v0.5c0,0.3-0.1,0.5-0.4,0.6l-1.2,0.6
			c-0.2,0.1-0.2,0.4,0,0.6l0.1,0.1h1c0.5,0,0.5,0.1,0.5,0.8v5.3c0,2-0.1,2.3-1,2.4l-0.6,0.1c-0.2,0.2-0.2,0.6,0,0.8
			c1.1,0,2-0.1,2.9-0.1c1.3,0,2.3,0,3.5,0.1c0.2-0.2,0.2-0.5,0.1-0.8l-1.1-0.1c-0.9-0.1-1.1-0.4-1.1-2.4V34c0-0.8,0-0.8,0.6-0.8h2.6
			c0.3-0.2,0.4-0.5,0.4-0.8c0-0.2,0-0.3-0.2-0.4L131.3,31.8z"/>
		<path class="st0" d="M140.9,42.5c0.2-0.1,0.2-0.6,0.1-0.8l-1.1-0.1c-0.9-0.1-1-0.4-1-2.4v-3.7c0-1.3,0.2-1.9,0.8-1.9
			c0.5,0,0.9,0.2,1.3,0.5c0.2,0.1,0.5,0.2,0.7,0.2c0.8,0,1.5-0.6,1.5-1.4v-0.1c0-0.7-0.6-1.3-1.4-1.3h-0.1c-0.9,0-1.8,0.8-2.6,1.4
			c-0.2,0-0.3-0.1-0.3-0.3l0,0c0-0.2,0-0.7,0.1-1.2c-0.1-0.2-0.2-0.2-0.4-0.2c-1.1,0.6-2.3,1.1-3.4,1.4c-0.1,0.2-0.1,0.4,0,0.6
			l0.3,0.2c0.7,0.4,0.7,0.7,0.7,1.9v4c0,2-0.1,2.3-1,2.4l-0.5,0.1c-0.2,0.2-0.2,0.6,0.1,0.8c1,0,1.9-0.1,2.8-0.1
			S139.2,42.5,140.9,42.5z"/>
		<path class="st0" d="M148.5,42.8c2,0,3.8-1.2,4.6-3c0-0.3-0.3-0.5-0.6-0.4l0,0c-0.5,0.9-1.5,1.4-2.6,1.3c-2.3,0-4.1-1.9-4.1-4.2
			c0-0.1,0-0.1,0-0.2c0-0.3,0.1-0.3,0.6-0.3h4.6c1.1,0,1.7-0.1,1.9-0.3c0.1-0.2,0.1-0.4,0.1-0.6c-0.1-2.1-1.8-3.7-3.9-3.6
			c0,0,0,0-0.1,0c-3.1,0-5.7,2.5-5.7,5.7c0,0.1,0,0.2,0,0.3c-0.2,2.8,2,5.2,4.8,5.4C148.2,42.8,148.3,42.8,148.5,42.8z M148.6,32.5
			c0.9-0.1,1.7,0.6,1.8,1.5c0,0.1,0,0.1,0,0.2c0,0.2-0.1,0.4-0.3,0.6c-0.4,0.2-0.9,0.2-1.3,0.2h-2.4c-0.3,0-0.4-0.1-0.4-0.2
			C146.2,33.5,147.3,32.5,148.6,32.5z"/>
		<path class="st0" d="M163.4,39.4c-0.5,0.9-1.5,1.4-2.6,1.3c-2.3,0-4.1-1.9-4.1-4.2c0-0.1,0-0.1,0-0.2c0-0.3,0-0.3,0.6-0.3h4.6
			c1.1,0,1.7-0.1,1.9-0.3c0.1-0.2,0.1-0.4,0.1-0.6c-0.1-2.1-1.8-3.7-3.9-3.6c0,0,0,0-0.1,0c-3.1,0-5.7,2.6-5.7,5.7
			c0,0.1,0,0.2,0,0.3c-0.2,2.8,2,5.2,4.8,5.4c0.1,0,0.3,0,0.4,0c2,0,3.8-1.2,4.6-3C164,39.5,163.8,39.4,163.4,39.4
			C163.5,39.4,163.5,39.4,163.4,39.4z M159.6,32.5c0.9-0.1,1.7,0.6,1.8,1.5c0,0.1,0,0.1,0,0.2c0,0.2-0.1,0.4-0.3,0.6
			c-0.4,0.2-0.9,0.2-1.3,0.2h-2.4c-0.3,0-0.4-0.1-0.4-0.2C157.2,33.5,158.3,32.5,159.6,32.5z"/>
		<path class="st0" d="M71.7,64.3c-0.3,0.2-0.6,0.3-0.9,0.3c-1,0-1.4-0.8-1.3-2.4l0.2-4.2c0.1-2.4-1.2-3.4-3.3-3.4
			c-1.5,0.1-3,0.7-4.1,1.7c-0.9,0.8-1,1.4-1,1.7s0.2,0.4,0.5,0.4c0.6,0,1.2-0.2,1.7-0.5c0.3-0.2,0.5-0.6,0.5-1
			c0.1-0.7,0.7-1.2,1.4-1.2c1.3,0,1.7,1.2,1.6,2.6V59c0,0.3-0.1,0.5-0.6,0.7c-1,0.4-2,0.8-3,1.1c-1.8,0.7-2.2,1.5-2.2,2.5
			c-0.1,1.4,1,2.6,2.4,2.7c0.1,0,0.2,0,0.3,0c0.8,0,1.6-0.3,2.3-0.7c0.4-0.2,0.6-0.4,0.7-0.4s0.2,0.1,0.4,0.3
			c0.5,0.5,1.2,0.8,1.9,0.8c1,0,2-0.4,2.7-1.2C72.1,64.6,71.9,64.3,71.7,64.3z M66.8,63.2c0.1,0.7-0.4,1.2-1.1,1.3
			c-0.1,0-0.1,0-0.2,0c-0.8,0-1.5-0.6-1.6-1.5v-0.1c0-0.9,0.6-1.6,1.4-1.8c0.4-0.2,0.8-0.3,1.2-0.3c0.1,0,0.2,0.2,0.2,0.5L66.8,63.2
			z"/>
		<path class="st0" d="M85,64.8c-0.9-0.1-1-0.4-1-2.4v-4.2c0-2.1-1-3.6-3.2-3.6c-1.7,0-2.4,0.7-3.7,1.3c-0.2,0-0.2-0.1-0.2-0.3
			c0-0.4,0-0.8,0.1-1.2c-0.1-0.1-0.2-0.2-0.3-0.2c-1.1,0.6-2.3,1.1-3.6,1.5c-0.1,0.2-0.1,0.4,0,0.6l0.3,0.2c0.7,0.4,0.7,0.7,0.7,1.9
			v4c0,2-0.1,2.3-1,2.4L72.4,65c-0.2,0.2-0.2,0.6,0,0.8c1.1,0,2-0.1,2.9-0.1s1.9,0,2.9,0.1c0.2-0.2,0.2-0.6,0-0.8h-0.4
			c-0.9-0.2-1-0.5-1-2.5v-3.7c0-1,0-1.2,0.4-1.7c0.4-0.6,1.1-0.9,1.8-0.8c1.6,0,2.2,1.1,2.2,2.5v3.7c0,2-0.1,2.3-1,2.5h-0.4
			c-0.2,0.2-0.2,0.7,0,0.8c0.9,0,1.9-0.1,2.8-0.1s1.9,0,3,0.1c0.2-0.2,0.2-0.6,0-0.8L85,64.8z"/>
		<path class="st0" d="M98.5,64.5c-0.5,0-0.7-0.8-0.7-3.3V50.5c0-1.2,0-2.8,0.1-3.9c-0.1-0.1-0.2-0.2-0.4-0.2
			c-1.1,0.4-2.5,1-3.5,1.3c-0.2,0.1-0.2,0.5,0,0.6l0.4,0.2C95,48.8,95,49,95,50.8v3.5c0,0.3,0,0.4-0.2,0.4c-0.5-0.1-1-0.2-1.6-0.2
			c-3.4-0.2-6.3,2.5-6.5,5.9c0,0.1,0,0.2,0,0.3c-0.1,2.8,2.1,5.1,4.8,5.2c0.1,0,0.1,0,0.2,0c1.1-0.1,2.2-0.5,3.1-1.2H95
			c0,0.3,0,0.5,0,0.8V66c0.1,0.1,0.2,0.3,0.3,0.3c1.4-0.5,2.8-0.9,4.3-1c0.3-0.2,0.2-0.8,0-1C99.2,64.4,98.8,64.5,98.5,64.5z M95,63
			c0,0.3,0,0.5-0.2,0.8c-0.4,0.4-1,0.6-1.6,0.6c-1.9,0-3.4-1.8-3.4-4.6c0-2.3,1.2-4.1,3-4.1c0.7,0,1.4,0.3,1.8,0.9
			c0.3,0.4,0.4,0.8,0.3,1.3L95,63L95,63z"/>
		<path class="st0" d="M109.7,55c-0.5,0-1.2,0-2-0.1c-0.2,0.2-0.2,0.5,0,0.7l0.6,0.1c0.3,0.1,0.5,0.2,0.5,0.4
			c-0.1,0.6-0.2,1.1-0.5,1.7c-0.3,0.7-1.2,3-1.5,4c-0.1,0.4-0.3,0.7-0.5,1c-0.2-0.3-0.3-0.6-0.4-0.9c-0.6-1.4-1.4-3.3-2-5.2
			c-0.3-0.8-0.2-0.9,0.6-1.1l0.3-0.1c0.2-0.2,0.2-0.5,0-0.7l0,0c-0.9,0-1.4,0.1-2.2,0.1c-0.9,0-1.9,0-2.5-0.1
			c-0.2,0.1-0.2,0.5-0.1,0.7l0.5,0.1c1,0.1,1.2,1,1.6,2l2.3,5.5c0.4,1,0.8,2,1,2.8c0.1,0.1,0.2,0.1,0.3,0.1c0.1,0,0.2,0,0.3-0.1
			c0.3-0.9,0.6-1.5,0.9-2.2c0.4-1.1,2.1-5,2.5-5.7c0.8-1.5,1-2.2,2-2.3l0.4-0.1c0.2-0.2,0.1-0.5-0.1-0.7C110.8,55,110.4,55,109.7,55
			z"/>
		<path class="st0" d="M121,63.2c-0.5,0.8-1.5,1.3-2.5,1.3c-2.9,0-4.5-2.3-4.5-5c0-0.7,0-0.7,0.7-0.7h5c1.1,0,1.5,0,1.6-0.2
			s0.1-0.5,0.1-0.7c0-1.6-1.5-3.2-3.8-3.2c-3.2,0-5.4,2.8-5.4,6.1c0,1.3,0.4,2.5,1.1,3.5c1,1.1,2.4,1.8,3.9,1.8
			c1.8,0,3.4-0.9,4.2-2.5C121.5,63.3,121.3,63.1,121,63.2C121.1,63.1,121,63.2,121,63.2z M117.3,55.4c1.6,0,2.1,0.9,2.1,1.7
			c0,0.3-0.1,0.5-0.2,0.5s-0.8,0.3-2.8,0.3h-1.9c-0.2,0-0.2-0.1-0.2-0.1C114.7,56.4,115.9,55.5,117.3,55.4L117.3,55.4z"/>
		<path class="st0" d="M133.9,55.6h-2.2c-0.6,0-1.1-0.1-1.6-0.4c-0.8-0.4-1.7-0.5-2.6-0.5c-2.3-0.1-4.3,1.7-4.4,4c0,0,0,0,0,0.1
			c0,1.4,0.8,2.6,2,3.3c0,0.2-0.1,0.4-0.3,0.5c-0.4,0.5-0.9,0.9-1.4,1.2c-0.3,0.2-0.4,0.3-0.4,0.4c0.1,1.1,0.9,1.9,2,2.1
			c0.2,0.2,0,0.4-0.2,0.7c-0.6,0.6-1.4,1.3-1.8,1.8c-0.2,0.3-0.3,0.6-0.3,1c0,1.3,1.2,3.1,4.5,3.1c3.5,0,6.7-2.2,6.7-5.1
			c0-2.7-2.3-3-3.8-3c-1.2,0-2.3,0.1-3.2,0.1c-1.3,0-1.9-0.5-1.9-1.1c0-0.8,0.9-1.3,1.2-1.5c0.4,0,0.8,0.1,1.2,0.1
			c2.3,0.2,4.3-1.5,4.5-3.7c0-0.2,0-0.4,0-0.6c0-0.5,0-0.9-0.1-1.4h1.9C134.2,56.6,134.2,55.7,133.9,55.6z M126,66.8
			c0.7-0.3,1.5-0.4,2.3-0.3h0.9c1.9,0,3.1,0.7,3.1,2.3s-1.6,2.9-4,2.9s-3.6-1.2-3.6-2.7C124.7,68.1,125.2,67.3,126,66.8z
			 M127.8,61.6c-1.3,0-2.4-1.2-2.4-3.2s1-3,2.3-3c1.6,0,2.4,1.5,2.4,3.4C130,60.4,129.2,61.6,127.8,61.6L127.8,61.6z"/>
		<path class="st0" d="M144.8,64.5c-0.1,0-0.2,0.1-0.4,0.2s-0.4,0.2-0.7,0.2c-1.1,0-1.3-1.1-1.2-2.3l0.2-4.7c0.1-2-0.9-3.2-2.8-3.2
			s-5,1.9-5,3.3c0,0.2,0.1,0.4,0.3,0.4h0.1c0.5,0,1.1-0.2,1.5-0.5c0.2-0.2,0.2-0.5,0.3-0.9c0.1-0.8,1-1.2,1.7-1.2c1.7,0,2,1.3,2,2.3
			v1.2c0,0.4,0,0.7-0.4,0.8l-3.2,1.2c-1.7,0.6-2.2,1.2-2.2,2.3c0,0.7,0.3,1.4,0.8,1.9c0.5,0.4,1.2,0.7,1.9,0.6s1.4-0.3,1.9-0.7
			c0.3-0.2,0.7-0.4,1.1-0.5c0.2,0,0.3,0.2,0.4,0.4c0.4,0.5,1.1,0.9,1.8,0.8c0.9,0,1.7-0.5,2.2-1.2C145,64.6,144.9,64.5,144.8,64.5z
			 M140.6,62.8c0.1,0.5-0.1,0.9-0.4,1.3c-0.5,0.4-1,0.6-1.6,0.7c-0.9,0-1.7-0.6-1.7-1.5c0,0,0,0,0-0.1c0-1,0.8-1.5,2.4-2
			c0.4-0.1,0.7-0.2,1.1-0.3c0.2,0,0.3,0,0.3,0.3L140.6,62.8z"/>
		<path class="st0" d="M157.7,64.9c-1-0.1-1-0.4-1-2.3V58c0-1.8-0.9-3.3-3.1-3.3c-1.4,0.1-2.7,0.5-3.8,1.3c-0.2,0-0.3-0.1-0.3-0.3
			l0,0c0-0.4,0-0.8,0.1-1.3c-0.1-0.1-0.2-0.2-0.3-0.2c-0.8,0.5-1.8,1-2.7,1.3c-0.1,0.1-0.1,0.4,0,0.5l0.2,0.2
			c0.7,0.5,0.7,0.6,0.7,1.7v4.7c0,1.9,0,2.2-1,2.4l-0.6,0.1c-0.2,0.2-0.1,0.5,0.1,0.7l0,0c0.8,0,1.6-0.1,2.5-0.1s1.7,0,2.4,0.1
			c0.2-0.2,0.2-0.4,0.1-0.6l0,0l-0.5-0.1c-1-0.2-1-0.4-1-2.3v-4.1c-0.1-0.6,0.1-1.1,0.4-1.6c0.6-0.7,1.4-1,2.3-1
			c1.8,0,2.5,1.1,2.5,2.7v4c0,1.9,0,2.2-1,2.3l-0.5,0.1c-0.2,0.2-0.1,0.5,0.1,0.7l0,0c0.7,0,1.5-0.1,2.5-0.1s1.7,0,2.5,0.1
			c0.2-0.2,0.2-0.5,0.1-0.7l0,0L157.7,64.9z"/>
		<path class="st0" d="M52.9,65c-0.8-1.2-2.5-1.8-3.8-2.2c-0.9-0.3-1.8-0.5-2.8-0.7c0.1-0.6,0.1-1.2,0-1.8c-0.4-2.8-2.8-3.6-4.5-5.6
			c-1.9-2.2-2.8-5.1-5.5-6.6c-1.5-0.7-3.2-1-4.9-0.9c6.8-5.9,13.5-12.1,20-18.4c5.1-5,9.5-10.2,9.8-17.8c0-6.1-4.9-11-11-11l0,0
			C39.3,0.4,34,13.4,30.9,22.3c0-0.1,0-0.2,0-0.3c-3-8.6-8.9-21.5-19.8-21.9C5,0,0.1,4.9,0,10.9C0,11,0,11,0,11.1
			c0.3,7.6,4.7,12.8,9.8,17.8c6.5,6.3,13.2,12.5,20,18.4c-4.2,0.6-6.2,1.9-9.1,5.7c-1.8,2.3-4.9,4.3-5.4,7.4
			c-0.1,0.7-0.1,1.4,0.1,2.1c-0.6,0.1-1.1,0.3-1.6,0.5c-1.3,0.4-3,1-3.8,2.2c-0.1,0.2,0.1,0.6,0,0.7c0.8-1.3,2.9-2,4.4-2.4
			c0.4-0.1,0.8-0.2,1.2-0.3c0.2,0.6,0.4,1.3,0.7,1.8c-0.6,0.2-1.3,0.5-1.9,0.8c-1.2,0.6-2.8,1.4-3.4,2.8c-0.1,0.2,0.1,0.6,0,0.7
			c0.6-1.4,2.6-2.4,3.9-3c0.5-0.2,1.1-0.5,1.6-0.7c0.9,1.8,2.3,3.3,4,4.4c2.1,1.3,4.7,1.3,6.8-0.1c0.7-0.4,3-3.2,3.5-3.2
			s2.9,2.6,3.6,2.9c2,1.1,4.3,1.7,6.4,0.7c2-1.1,3.6-2.8,4.5-4.9c0.7,0.2,1.4,0.5,2.1,0.8c1.3,0.6,3.3,1.6,3.9,3
			c0-0.1,0.1-0.5,0-0.7c-0.6-1.3-2.2-2.2-3.4-2.8c-0.8-0.4-1.6-0.7-2.4-1c0.3-0.7,0.5-1.4,0.7-2.1c0.8,0.1,1.5,0.3,2.2,0.5
			c1.4,0.4,3.5,1,4.4,2.4C52.9,65.6,53,65.2,52.9,65z M1.6,17c-2-5-1.8-9.7,2.4-13c3-2.7,7.4-3.3,11.1-1.6
			c8.7,3.9,12.7,12,15.6,20.4l-0.3,0.9c-0.1,0.3,0.1,1,0,1.2C33.4,16,37,6.5,46.1,2.3c3.5-1.7,7.7-1.2,10.7,1.3
			c4.5,3.3,4.8,8.1,2.8,13.3c-2.4,6.1-7.7,10.4-12.3,14.8c-5.5,5.2-11,10.2-16.7,15.1C25,41.9,19.4,36.9,14,31.7
			C9.3,27.4,4,23.1,1.6,17z M45.2,64.7c-1.8-0.6-3.7-1-5.5-1.2c0,0-0.1,0.7,0,0.7c1.8,0.2,3.5,0.5,5.2,1.1c-1.7,2.7-5,4.8-7.9,4.2
			c-1.6-0.4-3.1-1.2-4.3-2.3c-0.2-0.1-1-1-1.5-1.5c0.5-0.5,0.6-2,0.6-2.5c0.3-0.2,1.7-1.1,1.8-1.8c0-0.2,0-0.4-0.2-0.6
			c-0.1-0.1-0.2-0.2-0.4-0.2l0,0c-0.7,0-1.8,1-2.1,1.4c-0.3-0.3-1.3-1.2-2-1.2c-0.2,0-0.4,0.1-0.5,0.2c-0.1,0.1-0.2,0.3-0.1,0.5
			c0.1,0.7,1.4,1.5,1.8,1.7c0,0.8,0.2,1.7,0.6,2.4c-0.4,0.4-1,1.2-1.2,1.4c-1.3,1.3-2.9,2.2-4.7,2.6c-2.9,0.4-5.9-1.7-7.6-4.4
			c1.8-0.6,3.7-1,5.6-1.2c0.1,0,0-0.7,0-0.7c-2,0.2-4,0.6-5.9,1.3c-0.3-0.6-0.5-1.2-0.7-1.8c2.1-0.4,4.2-0.5,6.3-0.4
			c0.1-0.2,0.1-0.5,0-0.7c-2.2-0.1-4.3,0-6.4,0.4c-0.3-1.5,0.2-3.1,1.2-4.2c2.4-2.6,4.5-6,7.3-8.1c2-1.5,3.6-1.3,5.9-1.6
			c3.3,0,5.8,0.1,8.2,2.7c1.6,1.6,2.4,3.8,3.9,5.5c0.8,0.8,2,1.3,2.7,2.2s1,2.1,0.8,3.3c-1.8-0.3-3.6-0.4-5.5-0.3
			c-0.1,0.2-0.1,0.5,0,0.7c1.8-0.1,3.6,0,5.4,0.3C45.8,63.4,45.5,64,45.2,64.7z"/>
		<path class="st0" d="M25.9,53.2c-0.5,0-0.9,0.8-0.9,1.9s0.4,1.9,0.9,1.9s0.9-0.8,0.9-1.9S26.4,53.2,25.9,53.2z"/>
		<path class="st0" d="M35,53.2c-0.5,0-0.9,0.8-0.9,1.9S34.5,57,35,57s0.9-0.8,0.9-1.9S35.5,53.2,35,53.2z"/>
		<path class="st0" d="M30.8,42.9c2.7,0,34.3-28.2,24.4-36.2C42.7-3.5,30.4,32.8,30.4,32.8S20.2-2.8,5.3,7.8
			C-3.8,13.7,28.1,42.9,30.8,42.9z"/>
	</g>
</g>
</svg>
