<?xml version="1.0" encoding="utf-8"?>
<!-- Generator: Adobe Illustrator 27.0.1, SVG Export Plug-In . SVG Version: 6.00 Build 0)  -->
<svg version="1.1" id="Layer_1" xmlns="http://www.w3.org/2000/svg" xmlns:xlink="http://www.w3.org/1999/xlink" x="0px" y="0px"
	 viewBox="0 0 283.5 283.5" style="enable-background:new 0 0 283.5 283.5;" xml:space="preserve">
<style type="text/css">
	.st0{fill:none;stroke:#FFFFFF;stroke-miterlimit:10;}
	.st1{fill:#FFFFFF;}
</style>
<g>
	<g>
		<path class="st0" d="M276.8,275.6c0,0.8-0.7,1.5-1.5,1.5H9.8c-0.8,0-1.5-0.7-1.5-1.5V11.1c0-0.8,0.7-1.5,1.5-1.5h265.6
			c0.8,0,1.5,0.7,1.5,1.5v264.5H276.8z"/>
	</g>
	<path class="st1" d="M163,53.9c-0.7-0.4-1.4-0.7-2.2-1c-8.8-3.4-18.7,1-22.1,9.8c-3.4,8.8,1,18.7,9.8,22.1c0.8,0.3,1.5,0.5,2.3,0.7
		c1.2,0.3,2.3-0.5,2.5-1.7c0.3-1.2-0.3-2.5-1.5-2.8c-0.5-0.1-1.1-0.3-1.6-0.5c-5.7-2.2-8.9-8.1-7.8-13.9l9.2,3.5
		c1.2,0.5,2.3-0.1,2.8-1.3c0.4-1.2,0.1-2.5-1.1-2.9l-9.2-3.5c3.1-5,9.4-7.3,15.1-5.1c0.6,0.2,1.1,0.4,1.6,0.7c1.1,0.6,2.3,0.2,2.9-1
		C164.3,55.8,164.1,54.5,163,53.9"/>
	<polygon class="st1" points="148.3,26.6 160.3,26.6 150.6,33.7 154.3,22.2 158,33.7 	"/>
	<polygon class="st1" points="169.2,31.9 181.3,31.9 171.5,39 175.2,27.5 179,39 	"/>
	<polygon class="st1" points="183.8,47.7 195.9,47.7 186.2,54.8 189.9,43.3 193.6,54.8 	"/>
	<polygon class="st1" points="139.4,31.9 127.3,31.9 137.1,39 133.3,27.5 129.6,39 	"/>
	<polygon class="st1" points="124.7,47.7 112.6,47.7 122.4,54.8 118.7,43.3 115,54.8 	"/>
	<polygon class="st1" points="189,67.5 201.1,67.5 191.3,74.6 195,63.1 198.8,74.6 	"/>
	<polygon class="st1" points="183.3,88.1 195.4,88.1 185.6,95.2 189.3,83.7 193.1,95.2 	"/>
	<polygon class="st1" points="168.1,102.9 180.2,102.9 170.4,110 174.2,98.5 177.9,110 	"/>
	<polygon class="st1" points="125.3,88.1 113.2,88.1 123,95.2 119.3,83.7 115.5,95.2 	"/>
	<polygon class="st1" points="140.5,102.9 128.4,102.9 138.1,110 134.4,98.5 130.7,110 	"/>
	<polygon class="st1" points="119.6,67.5 107.5,67.5 117.3,74.6 113.6,63.1 109.8,74.6 	"/>
	<polygon class="st1" points="148.3,108.9 160.3,108.9 150.6,116 154.3,104.5 158,116 	"/>
	<path class="st1" d="M141.6,125.8c-0.6,13.8-5.6,10.5-4.9,34.5c-2.2-14.7,0.2-16.7,3.5-29.7c-3.8,11.7-5.7,10.8-4.2,30.2
		c-1,1,0.2,5.2-3.5,3.3c-3.1-5.1-2.9-13.4,5.1-43C138,119.7,141.9,117.6,141.6,125.8"/>
	<path class="st1" d="M105.5,141.7c2.3,0,9.7-1,14.3,2.2c2.9,2,5.3,3.8,6.1,4.9c0.7,1.1,1,2.3,1.5,3.2c0.5,1-3.3,1-5.3,1
		C119.1,153,110.4,141.7,105.5,141.7"/>
	<g>
		<path class="st1" d="M128.7,139c0.9,1.7,0.8,3.8-1.2,2.8c-2.5-1.2-6.4-2.8-8.2-4c-9.7-6.1-23.2-35.8-36.8-39.3
			c2.5-0.1,4.3-0.2,6.3,0.2C91.1,99.2,126.8,118.1,128.7,139"/>
	</g>
	<path class="st1" d="M146.9,142.7c-7.4-10.1,14.4-24.2,38-14.8c-2.7,0.2-7.5-0.1-10,1.1c0.8,1.1,6,1.5,10.8,1.9
		c-1.5-0.9-2.1-1.3-3.4-1.5c7.6-0.9,12.1,3.8,17,5.1c-2.6,0.2-4.3,0.2-4.9,0.2c0.1,0.4,0.3,0.3,0.8,0.9c-2.6-1-11.7-0.4-14.9,0.5
		s-5.2,0.1-7.3,0.2c0.4,0.5,0.9,0.6,1.1,1c-3.5-0.9-11.4-0.2-16.8,2.5c0.5-0.6,1-1.1,1.5-1.3C153.7,139.6,148.4,143.6,146.9,142.7"
		/>
	<path class="st1" d="M143.3,152.6c0-3.1,6.5-4.3,8.9-4.9c2.5-0.6,7.7-2.1,12.1-2.2c5.9-0.1,15.6,1.5,20,5.1c-2.1-0.8-7-2.3-9.6-2
		c0.7,0.5,0.8,0.7,0.9,1c0,0-1.8,0-2.7,0.7c0.7-0.2,4.4,0.2,6,0.3c-1.8,0.4-7.6,1.3-8.9,1.7c0.8,0.3,1.1,0.5,1.6,0.8
		c-4.2,0.4-13.9,5-17.9,5.1C149.8,158.4,143.3,158.1,143.3,152.6"/>
	<polygon class="st1" points="60.4,245.4 56.8,256.9 52.8,256.9 50.5,249.1 48.2,256.9 44.2,256.9 40.6,245.4 44.5,245.4 
		46.5,253.3 49,245.4 52.3,245.4 54.6,253.3 56.6,245.4 	"/>
	<polygon class="st1" points="81.1,245.4 77.5,256.9 73.5,256.9 71.2,249.1 68.8,256.9 64.9,256.9 61.3,245.4 65.2,245.4 
		67.2,253.3 69.7,245.4 73,245.4 75.3,253.3 77.3,245.4 	"/>
	<polygon class="st1" points="101.8,245.4 98.2,256.9 94.2,256.9 91.9,249.1 89.5,256.9 85.6,256.9 82,245.4 85.9,245.4 87.9,253.3 
		90.4,245.4 93.6,245.4 96,253.3 98,245.4 	"/>
	<rect x="104.1" y="252.9" class="st1" width="3.9" height="4.1"/>
	<path class="st1" d="M123,251.8h-8.5c0.1,0.9,0.4,1.6,1,2.1s1.6,0.7,2.8,0.7c0.8,0,1.5-0.1,2.3-0.4c0.7-0.3,1.3-0.6,1.7-0.9h0.4v3
		c-0.8,0.3-1.6,0.6-2.4,0.7c-0.7,0.1-1.6,0.2-2.5,0.2c-2.3,0-4.1-0.5-5.3-1.6c-1.2-1-1.9-2.5-1.9-4.5c0-1.9,0.6-3.4,1.8-4.5
		c1.2-1.1,2.8-1.7,4.8-1.7c1.9,0,3.3,0.5,4.3,1.4c0.9,1,1.4,2.3,1.4,4.1L123,251.8L123,251.8z M119.3,249.7c0-0.8-0.2-1.4-0.6-1.7
		c-0.4-0.4-0.9-0.6-1.7-0.6c-0.7,0-1.3,0.2-1.8,0.6c-0.5,0.4-0.7,1-0.8,1.8h4.9V249.7z"/>
	<path class="st1" d="M131.7,257.3c-1,0-1.9-0.1-2.8-0.4c-0.8-0.2-1.6-0.6-2.2-1.1s-1.1-1.1-1.4-1.9c-0.3-0.8-0.5-1.7-0.5-2.7
		c0-1.1,0.2-2,0.5-2.8c0.4-0.8,0.9-1.4,1.5-1.9s1.3-0.8,2.2-1.1c0.8-0.2,1.7-0.3,2.5-0.3s1.5,0.1,2.2,0.3s1.3,0.4,1.9,0.7v3.2h-0.5
		c-0.1-0.1-0.3-0.3-0.5-0.4c-0.2-0.2-0.4-0.3-0.7-0.5c-0.3-0.1-0.6-0.3-0.9-0.4c-0.3-0.1-0.7-0.2-1.2-0.2c-1,0-1.7,0.3-2.3,1
		c-0.5,0.6-0.8,1.5-0.8,2.6s0.3,2,0.8,2.5c0.6,0.6,1.3,0.9,2.3,0.9c0.5,0,0.9-0.1,1.3-0.2c0.4-0.1,0.7-0.2,0.9-0.4
		c0.2-0.1,0.4-0.3,0.6-0.4c0.2-0.2,0.3-0.3,0.5-0.4h0.5v3.2c-0.6,0.3-1.2,0.5-1.8,0.7C133.2,257.2,132.4,257.3,131.7,257.3"/>
	<path class="st1" d="M149.9,251.2c0,1.9-0.6,3.4-1.7,4.5c-1.1,1.1-2.7,1.6-4.7,1.6s-3.6-0.5-4.7-1.6c-1.1-1.1-1.7-2.6-1.7-4.5
		s0.6-3.4,1.7-4.5c1.1-1.1,2.7-1.6,4.7-1.6s3.6,0.6,4.7,1.6C149.4,247.7,149.9,249.3,149.9,251.2 M145.4,254
		c0.2-0.3,0.4-0.6,0.5-1.1c0.1-0.4,0.2-1,0.2-1.7s-0.1-1.3-0.2-1.7c-0.1-0.5-0.3-0.8-0.5-1.1s-0.5-0.5-0.8-0.6s-0.6-0.2-1-0.2
		s-0.7,0-1,0.1s-0.5,0.3-0.8,0.6c-0.2,0.3-0.4,0.6-0.5,1.1s-0.2,1.1-0.2,1.8c0,0.6,0.1,1.2,0.2,1.6c0.1,0.5,0.3,0.8,0.5,1.1
		s0.5,0.5,0.8,0.6s0.7,0.2,1,0.2s0.7-0.1,1-0.2C144.9,254.4,145.1,254.2,145.4,254"/>
	<rect x="152.6" y="240.9" class="st1" width="3.7" height="16"/>
	<path class="st1" d="M166.8,255.7c-0.2,0.2-0.4,0.3-0.7,0.5s-0.6,0.4-0.8,0.5c-0.4,0.2-0.7,0.3-1.1,0.4c-0.4,0.1-0.8,0.1-1.3,0.1
		c-1.1,0-2-0.3-2.8-1c-0.7-0.7-1.1-1.6-1.1-2.6c0-0.9,0.2-1.5,0.6-2.1c0.4-0.5,0.9-1,1.6-1.3c0.7-0.3,1.5-0.5,2.6-0.7
		c1-0.1,2.1-0.2,3.2-0.3v-0.1c0-0.6-0.3-1.1-0.8-1.3s-1.3-0.4-2.3-0.4c-0.6,0-1.3,0.1-2,0.3s-1.2,0.4-1.5,0.5h-0.3v-2.8
		c0.4-0.1,1-0.2,1.9-0.4c0.9-0.1,1.8-0.2,2.7-0.2c2.1,0,3.6,0.3,4.6,1c0.9,0.7,1.4,1.7,1.4,3.1v7.9H167v-1.1H166.8z M166.8,253.9
		v-2.4c-0.5,0-1,0.1-1.6,0.2c-0.6,0.1-1,0.1-1.3,0.2c-0.4,0.1-0.7,0.3-0.9,0.5s-0.3,0.5-0.3,0.9c0,0.2,0,0.4,0.1,0.6
		c0,0.2,0.1,0.3,0.3,0.4c0.2,0.1,0.3,0.2,0.6,0.3c0.2,0.1,0.6,0.1,1,0.1s0.7-0.1,1.1-0.2C166.2,254.4,166.5,254.2,166.8,253.9"/>
	<path class="st1" d="M186,251c0,1.8-0.5,3.3-1.5,4.5c-1,1.1-2.3,1.7-3.8,1.7c-0.7,0-1.2-0.1-1.7-0.2s-1-0.3-1.4-0.6l-0.2,0.6h-3.6
		v-16h3.7v5.7c0.6-0.5,1.2-0.8,1.7-1.1c0.6-0.3,1.3-0.4,2.1-0.4c1.5,0,2.6,0.5,3.4,1.6C185.6,247.7,186,249.1,186,251 M182.2,251.1
		c0-1-0.2-1.8-0.5-2.4c-0.4-0.6-1-0.8-1.9-0.8c-0.4,0-0.7,0.1-1.1,0.2c-0.4,0.1-0.7,0.3-1.1,0.5v5.8c0.3,0.1,0.5,0.2,0.8,0.2
		c0.2,0,0.5,0,0.9,0c1,0,1.7-0.3,2.2-0.9C181.9,253.1,182.2,252.2,182.2,251.1"/>
	<path class="st1" d="M200.1,251.8h-8.5c0.1,0.9,0.4,1.6,1,2.1s1.6,0.7,2.8,0.7c0.8,0,1.6-0.1,2.3-0.4c0.7-0.3,1.3-0.6,1.7-0.9h0.4
		v3c-0.8,0.3-1.6,0.6-2.4,0.7c-0.7,0.1-1.6,0.2-2.5,0.2c-2.3,0-4.1-0.5-5.3-1.6c-1.2-1-1.9-2.5-1.9-4.5c0-1.9,0.6-3.4,1.8-4.5
		s2.8-1.7,4.8-1.7c1.9,0,3.3,0.5,4.2,1.4c0.9,1,1.4,2.3,1.4,4.1v1.4H200.1z M196.4,249.7c0-0.8-0.2-1.4-0.6-1.7
		c-0.4-0.4-0.9-0.6-1.7-0.6c-0.7,0-1.3,0.2-1.8,0.6c-0.5,0.4-0.7,1-0.8,1.8h4.9V249.7z"/>
	<rect x="202.7" y="240.9" class="st1" width="3.7" height="16"/>
	<rect x="210.1" y="252.9" class="st1" width="3.9" height="4.1"/>
	<path class="st1" d="M229,251.8h-8.5c0.1,0.9,0.4,1.6,1,2.1s1.6,0.7,2.8,0.7c0.8,0,1.5-0.1,2.3-0.4c0.7-0.3,1.3-0.6,1.7-0.9h0.4v3
		c-0.8,0.3-1.6,0.6-2.4,0.7c-0.7,0.1-1.6,0.2-2.5,0.2c-2.3,0-4.1-0.5-5.3-1.6c-1.2-1-1.9-2.5-1.9-4.5c0-1.9,0.6-3.4,1.8-4.5
		s2.8-1.7,4.8-1.7c1.9,0,3.3,0.5,4.3,1.4c0.9,1,1.4,2.3,1.4,4.1L229,251.8L229,251.8z M225.3,249.7c0-0.8-0.2-1.4-0.6-1.7
		c-0.4-0.4-0.9-0.6-1.7-0.6c-0.7,0-1.3,0.2-1.8,0.6c-0.5,0.4-0.7,1-0.8,1.8h4.9V249.7z"/>
	<path class="st1" d="M243.1,256.9h-3.7v-1.3c-0.7,0.5-1.3,0.9-1.9,1.2c-0.6,0.3-1.3,0.4-2,0.4c-1.3,0-2.3-0.4-3-1.1
		c-0.7-0.7-1-1.8-1-3.3v-7.5h3.7v5.7c0,0.6,0,1.1,0.1,1.5c0,0.4,0.1,0.7,0.3,1c0.1,0.3,0.3,0.4,0.6,0.6c0.3,0.1,0.6,0.2,1.1,0.2
		c0.3,0,0.7-0.1,1-0.2c0.4-0.1,0.8-0.3,1.1-0.5v-8.2h3.7L243.1,256.9L243.1,256.9z"/>
	<polygon class="st1" points="68.9,164.4 53.5,164.4 53.5,141.1 68.9,141.1 68.9,143.9 56.6,143.9 56.6,150.3 68.9,150.3 68.9,153 
		56.6,153 56.6,161.7 68.9,161.7 	"/>
	<path class="st1" d="M91.4,155.1c0,1.7-0.2,3.2-0.6,4.4c-0.4,1.3-1,2.3-1.8,3.1s-1.7,1.4-2.8,1.7c-1.1,0.4-2.3,0.5-3.8,0.5
		s-2.7-0.2-3.8-0.6c-1.1-0.4-2-1-2.7-1.7c-0.8-0.9-1.5-1.9-1.8-3.1c-0.4-1.2-0.6-2.7-0.6-4.5V141h3.1v14.1c0,1.3,0.1,2.3,0.3,3
		c0.2,0.7,0.5,1.4,0.9,2c0.5,0.7,1.1,1.2,1.9,1.5s1.7,0.5,2.8,0.5c1.1,0,2.1-0.2,2.8-0.5c0.8-0.3,1.4-0.9,1.9-1.5
		c0.4-0.6,0.7-1.3,0.9-2c0.2-0.8,0.2-1.7,0.2-2.9V141h3.1V155.1z"/>
	<polygon class="st1" points="53.2,234.3 53.2,167.3 72,167.3 72,172.6 58.5,172.6 58.5,200.8 66.7,200.8 66.7,206.1 58.5,206.1 
		58.5,229 72,229 72,234.3 	"/>
	<path class="st1" d="M91.8,203.8v-7.6c0-1.1-0.4-2.1-1.2-2.9c-0.8-0.8-1.8-1.2-2.9-1.2c-1.2,0-2.1,0.4-2.9,1.2s-1.2,1.8-1.2,2.9
		v29.3c0,1.1,0.4,2.1,1.2,2.9c0.8,0.8,1.8,1.2,2.9,1.2c1.2,0,2.1-0.4,2.9-1.2s1.2-1.8,1.2-2.9v-7H97v7c0,1.3-0.2,2.5-0.7,3.7
		c-0.5,1.1-1.1,2.1-2,3s-1.8,1.5-3,2c-1.1,0.5-2.4,0.7-3.7,0.7c-1.3,0-2.5-0.2-3.7-0.7c-1.1-0.5-2.1-1.1-3-2s-1.5-1.8-2-3
		c-0.5-1.1-0.7-2.4-0.7-3.7v-29.3c0-1.3,0.2-2.5,0.7-3.7c0.5-1.1,1.2-2.1,2-3c0.9-0.9,1.8-1.5,3-2c1.1-0.5,2.4-0.7,3.7-0.7
		c1.3,0,2.5,0.2,3.7,0.7c1.1,0.5,2.1,1.1,3,2s1.5,1.9,2,3s0.7,2.4,0.7,3.7v7.6H91.8z"/>
	<path class="st1" d="M123.4,225.5c0,1.3-0.2,2.5-0.7,3.7c-0.5,1.1-1.1,2.1-2,3s-1.8,1.5-3,2c-1.1,0.5-2.4,0.7-3.7,0.7
		c-1.3,0-2.5-0.2-3.7-0.7c-1.1-0.5-2.1-1.1-3-2s-1.5-1.8-2-3c-0.5-1.1-0.7-2.4-0.7-3.7v-29.3c0-1.3,0.2-2.5,0.7-3.7
		c0.5-1.1,1.1-2.1,2-3c0.8-0.9,1.8-1.5,3-2c1.1-0.5,2.4-0.7,3.7-0.7c1.3,0,2.5,0.2,3.7,0.7c1.1,0.5,2.1,1.1,3,2s1.5,1.9,2,3
		s0.7,2.4,0.7,3.7V225.5z M118.2,196.2c0-1.1-0.4-2.1-1.2-2.9c-0.8-0.8-1.8-1.2-2.9-1.2s-2.1,0.4-2.9,1.2s-1.2,1.8-1.2,2.9v29.3
		c0,1.1,0.4,2.1,1.2,2.9c0.8,0.8,1.8,1.2,2.9,1.2c1.2,0,2.1-0.4,2.9-1.2s1.2-1.8,1.2-2.9V196.2z"/>
	<rect x="131" y="167.4" class="st1" width="5.2" height="66.9"/>
	<path class="st1" d="M157.4,234c-0.6,0.3-1.3,0.5-1.9,0.7c-0.7,0.2-1.4,0.3-2.2,0.3c-1.3,0-2.5-0.2-3.7-0.7c-1.1-0.5-2.1-1.1-3-2
		s-1.5-1.8-2-3c-0.5-1.1-0.7-2.4-0.7-3.7v-14c0-1.3,0.2-2.5,0.7-3.7c0.5-1.1,1.2-2.1,2-3s1.8-1.5,3-2c1.1-0.5,2.4-0.7,3.7-0.7
		c0.8,0,1.6,0.1,2.3,0.3s1.3,0.4,1.8,0.6v-6.8c0-1.1-0.4-2.1-1.2-2.9c-0.8-0.8-1.8-1.2-2.9-1.2c-1.1,0-2.1,0.4-2.9,1.2
		c-0.8,0.8-1.2,1.8-1.2,2.9v2.3H144v-2.3c0-1.3,0.2-2.5,0.7-3.7c0.5-1.1,1.2-2.1,2-3c0.9-0.9,1.9-1.5,3-2s2.4-0.7,3.7-0.7
		s2.5,0.2,3.7,0.7c1.1,0.5,2.1,1.1,3,2s1.5,1.9,2,3s0.7,2.4,0.7,3.7v38.1h-5.2V234H157.4z M149.1,225.5c0,1.1,0.4,2.1,1.2,2.9
		c0.8,0.8,1.8,1.2,2.9,1.2c1.2,0,2.1-0.4,2.9-1.2c0.8-0.8,1.2-1.8,1.2-2.9v-14c0-1.1-0.4-2.1-1.2-2.9c-0.8-0.8-1.8-1.2-2.9-1.2
		c-1.1,0-2.1,0.4-2.9,1.2c-0.8,0.8-1.2,1.8-1.2,2.9V225.5z"/>
	<path class="st1" d="M177.3,187.1c0.7-0.2,1.5-0.3,2.3-0.3c1.3,0,2.5,0.2,3.7,0.7c1.1,0.5,2.1,1.1,3,2s1.5,1.9,2,3s0.7,2.4,0.7,3.7
		v29.3c0,1.3-0.2,2.5-0.7,3.7c-0.5,1.1-1.1,2.1-2,3s-1.8,1.5-3,2c-1.1,0.5-2.4,0.7-3.7,0.7c-0.8,0-1.5-0.1-2.2-0.3s-1.3-0.4-1.9-0.7
		v0.3h-5.2v-66.9h5.2v20.3C176,187.5,176.6,187.3,177.3,187.1 M182.6,193.3c-0.8-0.8-1.8-1.2-2.9-1.2c-1.2,0-2.1,0.4-2.9,1.2
		c-0.8,0.8-1.2,1.8-1.2,2.9v29.3c0,1.1,0.4,2.1,1.2,2.9c0.8,0.8,1.8,1.2,2.9,1.2c1.2,0,2.1-0.4,2.9-1.2c0.8-0.8,1.2-1.8,1.2-2.9
		v-29.3C183.8,195,183.4,194.1,182.6,193.3"/>
	<path class="st1" d="M196.6,196.2c0-1.3,0.2-2.5,0.7-3.7c0.5-1.1,1.1-2.1,2-3c0.8-0.9,1.8-1.5,3-2c1.1-0.5,2.4-0.7,3.7-0.7
		s2.5,0.2,3.7,0.7c1.1,0.5,2.1,1.1,3,2c0.8,0.9,1.5,1.9,2,3s0.7,2.4,0.7,3.7v18.2h-13.5v11.1c0,1.1,0.4,2.1,1.2,2.9
		c0.8,0.8,1.8,1.2,2.9,1.2c1.2,0,2.1-0.4,2.9-1.2c0.8-0.8,1.2-1.8,1.2-2.9V222h5.2v3.5c0,1.3-0.2,2.5-0.7,3.7c-0.5,1.1-1.2,2.1-2,3
		c-0.9,0.9-1.8,1.5-3,2c-1.1,0.5-2.4,0.7-3.7,0.7s-2.5-0.2-3.7-0.7c-1.1-0.5-2.1-1.1-3-2s-1.5-1.8-2-3c-0.5-1.1-0.7-2.4-0.7-3.7
		v-29.3H196.6z M201.8,209h8.3v-12.9c0-1.1-0.4-2.1-1.2-2.9c-0.8-0.8-1.8-1.2-2.9-1.2c-1.2,0-2.1,0.4-2.9,1.2
		c-0.8,0.8-1.2,1.8-1.2,2.9V209H201.8z"/>
	<rect x="223" y="167.4" class="st1" width="5.2" height="66.9"/>
	<path class="st1" d="M14.7,277.6c-2,0-3.8-0.8-5.1-2.2c-1.3-1.4-2.1-3.2-2.1-5.3V16.2c0-2.1,0.8-3.9,2.1-5.3s3.1-2.2,5.1-2.2l0,0
		l0,0h254.4c2,0,3.8,0.8,5.1,2.2c1.3,1.4,2.1,3.2,2.1,5.3v253.6v0.3v0.3l0,0c-0.1,2-0.9,3.7-2.1,5c-1.3,1.4-3.1,2.2-5.1,2.2H14.7z
		 M10.4,11.7c-1.1,1.2-1.8,2.8-1.8,4.5v253.9c0,1.8,0.7,3.4,1.8,4.5c1.1,1.2,2.6,1.9,4.3,1.9h254.4c1.7,0,3.2-0.7,4.3-1.9
		c1.1-1.2,1.8-2.8,1.8-4.5v-0.3V16.2c0-1.8-0.7-3.4-1.8-4.5c-1.1-1.2-2.6-1.9-4.3-1.9H14.7C13,9.8,11.5,10.5,10.4,11.7 M12.6,9.6
		c0.6-0.2,1.3-0.3,2-0.3l0,0C13.9,9.2,13.3,9.3,12.6,9.6 M269.1,9.2L269.1,9.2c0.1,0,0.2,0,0.3-0.3c0-0.3-0.1-0.2-0.1-0.3l-0.1,0.1
		L269.1,9.2L269.1,9.2z M269.2,8.7L269.2,8.7L269.2,8.7L269.2,8.7z"/>
</g>
</svg>
