<?xml version="1.0" encoding="utf-8"?>
<!-- Generator: Adobe Illustrator 27.0.1, SVG Export Plug-In . SVG Version: 6.00 Build 0)  -->
<svg version="1.1" id="Calque_1" xmlns="http://www.w3.org/2000/svg" xmlns:xlink="http://www.w3.org/1999/xlink" x="0px" y="0px"
	 viewBox="0 0 1024 465" style="enable-background:new 0 0 1024 465;" xml:space="preserve">
<style type="text/css">
	.st0{fill:none;stroke:#FFFFFF;}
	.st1{fill:none;stroke:#FFFFFF;stroke-width:6.8923;}
	.st2{fill:#FFFFFF;stroke:#FFFFFF;stroke-miterlimit:10;}
	.st3{fill:#FFFFFF;stroke:#FFFFFF;stroke-width:1.7632;}
	.st4{fill:#FFFFFF;}
	.st5{fill:#FFFFFF;stroke:#FFFFFF;stroke-width:3.0226;}
	.st6{fill:#FFFFFF;stroke:#FFFFFF;stroke-width:2.267;}
	.st7{fill:#FFFFFF;stroke:#FFFFFF;stroke-width:1.5113;}
</style>
<path class="st0" d="M39.6,2.3h943.5c19,0,34.5,15.4,34.5,34.4v391.5c0,19-15.4,34.4-34.5,34.4H39.6c-19,0-34.5-15.4-34.5-34.4V36.8
	C5.1,17.7,20.6,2.3,39.6,2.3z"/>
<path class="st1" d="M39.6,2.3h943.5c19,0,34.5,15.4,34.5,34.4v391.5c0,19-15.4,34.4-34.5,34.4H39.6c-19,0-34.5-15.4-34.5-34.4V36.8
	C5.1,17.7,20.6,2.3,39.6,2.3z"/>
<path class="st2" d="M305.3,55.2h3.5c1.6,0,2.7-0.2,3.4-0.7c0.6-0.5,0.9-1.1,0.9-2c0-0.8-0.3-1.5-0.9-2s-1.8-0.7-3.6-0.7h-3.3V55.2z
	 M317.5,65.3H314c-2.2-4-3.7-6.3-4.3-6.8c-0.7-0.5-1.5-0.8-2.6-0.8h-1.7v7.6h-2.9V47.4h6.2c1.9,0,3.3,0.1,4.3,0.4
	c1,0.3,1.8,0.8,2.4,1.7s0.9,1.8,0.9,2.8c0,1.2-0.4,2.3-1.3,3.3s-2.1,1.6-3.8,1.7v0.1c1.1,0.2,2.5,1.7,4.2,4.5L317.5,65.3z M309.7,70
	c3.8,0,7.1-1.4,9.8-4.1c2.7-2.7,4.1-6,4.1-9.8s-1.4-7.1-4.1-9.8s-6-4.1-9.8-4.1s-7.1,1.4-9.8,4.1c-2.7,2.7-4.1,6-4.1,9.8
	s1.4,7.1,4.1,9.8C302.6,68.6,305.9,70,309.7,70z M309.7,39.5c4.5,0,8.4,1.6,11.7,4.9c3.3,3.2,4.9,7.2,4.9,11.7
	c0,4.6-1.6,8.5-4.9,11.7s-7.2,4.9-11.7,4.9c-4.6,0-8.5-1.6-11.8-4.9c-3.3-3.2-4.9-7.2-4.9-11.8s1.6-8.5,4.9-11.7
	C301.2,41.1,305.1,39.5,309.7,39.5z"/>
<path class="st3" d="M305.3,55.2h3.5c1.6,0,2.7-0.2,3.4-0.7c0.6-0.5,0.9-1.1,0.9-2c0-0.8-0.3-1.5-0.9-2s-1.8-0.7-3.6-0.7h-3.3V55.2z
	 M317.5,65.3H314c-2.2-4-3.7-6.3-4.3-6.8c-0.7-0.5-1.5-0.8-2.6-0.8h-1.7v7.6h-2.9V47.4h6.2c1.9,0,3.3,0.1,4.3,0.4
	c1,0.3,1.8,0.8,2.4,1.7s0.9,1.8,0.9,2.8c0,1.2-0.4,2.3-1.3,3.3s-2.1,1.6-3.8,1.7v0.1c1.1,0.2,2.5,1.7,4.2,4.5L317.5,65.3z M309.7,70
	c3.8,0,7.1-1.4,9.8-4.1c2.7-2.7,4.1-6,4.1-9.8s-1.4-7.1-4.1-9.8s-6-4.1-9.8-4.1s-7.1,1.4-9.8,4.1c-2.7,2.7-4.1,6-4.1,9.8
	s1.4,7.1,4.1,9.8C302.6,68.6,305.9,70,309.7,70z M309.7,39.5c4.5,0,8.4,1.6,11.7,4.9c3.3,3.2,4.9,7.2,4.9,11.7
	c0,4.6-1.6,8.5-4.9,11.7s-7.2,4.9-11.7,4.9c-4.6,0-8.5-1.6-11.8-4.9c-3.3-3.2-4.9-7.2-4.9-11.8s1.6-8.5,4.9-11.7
	C301.2,41.1,305.1,39.5,309.7,39.5z"/>
<path class="st4" d="M107.4,417.4l-6.7-21.9h3.9l3.5,12.6l1.2,4.7c0.1-0.2,0.4-1.7,1.2-4.5l3.5-12.9h3.8l3.3,12.7l1.1,4.2l1.3-4.2
	l3.9-12.7h3.6l-7,21.9h-4l-3.4-13.1l-0.9-3.7l-4.5,16.9H107.4z"/>
<path class="st4" d="M138.7,417.4l-6.8-21.9h3.9l3.5,12.6l1.2,4.7c0.1-0.2,0.4-1.7,1.2-4.5l3.5-12.9h3.8l3.3,12.7l1.1,4.2l1.3-4.2
	l3.9-12.7h3.6l-7.1,21.9h-3.7l-3.4-13.1l-0.9-3.7l-4.5,16.9H138.7z"/>
<path class="st4" d="M170.1,417.4l-6.7-21.9h3.9l3.5,12.6l1.3,4.7c0.1-0.2,0.4-1.7,1.2-4.5l3.5-12.9h3.8l3.3,12.7l1.1,4.2l1.3-4.2
	l3.9-12.7h3.6l-7,21.9H183l-3.4-13.1l-0.9-3.7l-4.5,16.9H170.1z"/>
<rect x="194.3" y="413.2" class="st4" width="4.2" height="4.2"/>
<path class="st4" d="M204.9,417.4v-19.1h-3.2v-2.9h3.2v-2.3c0-1.5,0.1-2.6,0.4-3.3c0.4-1,1-1.7,1.9-2.3c0.9-0.6,2.2-0.9,3.8-0.9
	c1,0,2.2,0.1,3.5,0.4l-0.5,3.2c-0.8-0.1-1.5-0.2-2.2-0.2c-1.1,0-1.9,0.2-2.4,0.7s-0.7,1.4-0.7,2.7v2h4.3v2.9h-4.3v19.1L204.9,417.4
	L204.9,417.4z"/>
<path class="st4" d="M214.8,410.8l3.7-0.5c0.2,1.5,0.8,2.6,1.7,3.4c1,0.7,2.3,1.1,3.9,1.1c1.7,0,3-0.4,3.8-1
	c0.8-0.7,1.2-1.5,1.2-2.5c0-0.8-0.4-1.5-1.1-2c-0.5-0.3-1.8-0.7-3.8-1.2c-2.7-0.7-4.5-1.3-5.6-1.8s-1.9-1.2-2.4-2.1
	c-0.6-0.9-0.8-1.9-0.8-2.9s0.2-1.9,0.7-2.7c0.4-0.8,1-1.5,1.8-2.1c0.6-0.4,1.4-0.8,2.4-1.1c1-0.3,2.1-0.4,3.2-0.4
	c1.7,0,3.2,0.2,4.5,0.7s2.2,1.2,2.9,2c0.6,0.8,1,2,1.3,3.4l-3.6,0.5c-0.2-1.1-0.6-2-1.4-2.7c-0.8-0.6-1.9-0.9-3.3-0.9
	c-1.7,0-2.9,0.3-3.6,0.8c-0.7,0.6-1.1,1.2-1.1,2c0,0.5,0.1,0.9,0.4,1.3c0.3,0.4,0.8,0.7,1.4,1c0.4,0.1,1.4,0.5,3.2,0.9
	c2.6,0.7,4.4,1.3,5.4,1.7c1,0.5,1.9,1.1,2.4,2c0.6,0.8,0.9,1.9,0.9,3.2c0,1.2-0.4,2.4-1.1,3.5c-0.7,1.1-1.8,1.9-3.1,2.5
	c-1.4,0.6-2.9,0.9-4.6,0.9c-2.8,0-5-0.6-6.5-1.8C216.1,414.9,215.2,413.1,214.8,410.8z"/>
<path class="st4" d="M251.4,409.4l3.6,0.5c-0.4,2.5-1.4,4.5-3,5.9c-1.7,1.4-3.7,2.1-6,2.1c-3,0-5.4-1-7.2-2.9
	c-1.8-2-2.7-4.8-2.7-8.4c0-2.4,0.4-4.5,1.2-6.2c0.8-1.8,2-3.1,3.6-4s3.3-1.3,5.2-1.3c2.4,0,4.3,0.6,5.8,1.8c1.5,1.2,2.5,2.9,2.9,5.2
	l-3.6,0.5c-0.3-1.5-0.9-2.6-1.8-3.3c-0.9-0.7-1.9-1.1-3.1-1.1c-1.9,0-3.4,0.7-4.5,2c-1.2,1.4-1.7,3.5-1.7,6.4s0.6,5.1,1.7,6.4
	c1.1,1.4,2.6,2,4.4,2c1.4,0,2.7-0.4,3.6-1.3C250.5,412.6,251.1,411.2,251.4,409.4z"/>
<rect x="259" y="413.2" class="st4" width="4.2" height="4.2"/>
<path class="st4" d="M270.4,406.4c0,2.8,0.6,4.9,1.9,6.3c1.2,1.4,2.8,2.1,4.6,2.1c1.9,0,3.4-0.7,4.6-2.1s1.9-3.5,1.9-6.4
	c0-2.7-0.6-4.8-1.9-6.2c-1.2-1.4-2.8-2.1-4.6-2.1c-1.9,0-3.4,0.7-4.6,2.1C271,401.5,270.4,403.6,270.4,406.4z M266.6,406.4
	c0-4.1,1.1-7.1,3.4-9c1.9-1.6,4.2-2.4,6.9-2.4c3,0,5.5,1,7.4,2.9c1.9,2,2.9,4.7,2.9,8.2c0,2.8-0.4,5-1.3,6.7
	c-0.8,1.6-2.1,2.9-3.7,3.8s-3.4,1.3-5.3,1.3c-3.1,0-5.5-1-7.4-2.9C267.6,413,266.6,410.1,266.6,406.4z"/>
<path class="st4" d="M291.5,417.4v-21.9h3.3v3.4c0.9-1.6,1.7-2.6,2.4-3.1c0.7-0.5,1.5-0.7,2.4-0.7c1.3,0,2.5,0.4,3.8,1.2l-1.3,3.4
	c-0.9-0.5-1.8-0.7-2.7-0.7c-0.8,0-1.5,0.2-2.2,0.7c-0.6,0.5-1.1,1.2-1.4,2c-0.4,1.3-0.6,2.8-0.6,4.3v11.5L291.5,417.4L291.5,417.4z"
	/>
<path class="st4" d="M307.5,406c0,2.9,0.6,5,1.7,6.3s2.6,2,4.3,2c1.7,0,3.2-0.6,4.3-2c1.2-1.3,1.7-3.4,1.7-6.2
	c0-2.7-0.6-4.7-1.8-6.1c-1.2-1.4-2.6-2-4.3-2c-1.7,0-3.1,0.7-4.2,2C308.1,401.4,307.5,403.4,307.5,406z M304.5,419.2l3.7,0.5
	c0.2,1.1,0.6,2,1.2,2.5c0.9,0.7,2.2,1.1,3.8,1.1c1.7,0,3-0.4,4-1.1c0.9-0.7,1.6-1.7,1.9-2.9c0.2-0.8,0.3-2.4,0.3-4.8
	c-1.6,1.9-3.7,2.9-6.1,2.9c-3,0-5.4-1.1-7-3.3c-1.7-2.2-2.5-4.8-2.5-7.8c0-2.1,0.4-4,1.1-5.8c0.8-1.8,1.9-3.1,3.3-4.1
	s3.1-1.4,5.1-1.4c2.6,0,4.7,1.1,6.4,3.2v-2.7h3.4v19c0,3.4-0.3,5.8-1,7.3c-0.7,1.4-1.8,2.5-3.3,3.4c-1.5,0.8-3.4,1.2-5.6,1.2
	c-2.6,0-4.7-0.6-6.3-1.7C305.2,423.4,304.4,421.6,304.5,419.2z"/>
<path class="st4" d="M213.8,35.1c-67,0-90.7,104-112.7,187.7c-8-8.1-32.5-32.5-32.5-32.4c-4.9-4.9-10.6-3.3-14.1,0.1
	c-3.5,3.5-4,10,0,13.9c0.2,0.2,33.2,33.1,44.7,44.5c3.1,3.1,7.7,4.9,12.2,2.2c4.7-2.9,5.4-8,5.5-8C156,67.8,191,54.8,213.7,54.8
	c19.1,0,41.1,14.1,41.1,42.3c28.5,0,46.3,37.3,23.4,60.4c19,9.2,27.5,20.5,27.5,34.8s-12,28.9-29.5,28.9
	c-17.3,0-26.2-11.1-39.7-11.2c-6.1,0-9.9,4.9-9.9,9.8v35.4h-25.5V220c0-5.5-4.1-9.9-9.2-9.9c-0.1,0-2.2,0.1-2.1,0.1l-34.2,4.2
	c-4.1,0.6-7.9,5.1-7.9,9.7c0,5.4,4.4,9.9,10.5,9.8c0.8,0,1.8,0,1.7-0.1c-0.1,0,21.7-2.8,21.7-2.8s0,34.8,0,34.9c0,4.4,5,8.7,9.5,8.8
	h45.4c5.3,0,9.9-4.5,9.9-9.9v-31.9c9.5,5.8,22.7,8.1,29.5,8.1c25.5,0,49.8-20,49.7-49.3c-0.1-26.6-20.5-39.9-20.5-39.9
	c12-31.8-7.4-62.5-32.4-71.1C263.5,47.8,235.5,35.1,213.8,35.1z"/>
<path class="st4" d="M185.2,313.6c0,8.2,9.2,13.2,24.3,20.4c12,5.6,18.9,11.6,18.9,16.3c0,7.7-8.3,10.5-16.1,10.5
	c-12.1,0-19.2-4.8-23.1-15.6l-0.3-0.9h-1c-2.1,0-3.8,0.1-4.8,1.3c-0.8,1.1-0.6,2.5-0.2,3.9l2.6,11.1c0.7,2.7,1.7,3.1,6,4
	c1.9,0.3,11.6,2,19.9,2c23,0,33.3-9.4,33.3-18.6c0-6.7-6.7-13.2-21.1-20.4l-6.6-3.2c-9.9-4.7-15.8-7.5-15.8-12.5
	c0-4.8,6.2-8.2,15-8.2c11.5,0,14.6,6.4,16,12.1l0.3,1.1h1.1c2.6,0,4.2-0.2,5.1-1.3c0.6-0.6,0.8-1.4,0.7-2.3l-0.9-9.6
	c-0.2-3.1-2.6-3.5-5.8-4.2c-3.9-0.7-8.5-1.5-15.5-1.5C197.1,298,185.2,303.8,185.2,313.6z"/>
<path class="st4" d="M251.5,333c0,16.6,14.5,33.5,42.1,33.5c14,0,21.8-3.2,27.7-6.3l1.6-0.9l-2.6-2.8l0.1,0.1c-0.6-0.9-1.1-1-2-1
	l-1.4,0.5c-2.1,1-8.5,3.9-20.1,3.9c-14.3,0-29.7-9.3-29.7-29.9c0-19.5,16.7-26.5,31-26.5c10.3,0,15.7,3.7,16.7,11.2l0.1,1.2h1.3
	c1.2,0,4.5,0,4.5-2.4v-11.4c0-2.8-3.2-3.2-4.6-3.4l-1.3-0.2c-3.3-0.5-6.4-0.8-14.8-0.8C272,298,251.5,312.7,251.5,333z"/>
<path class="st4" d="M147.2,298.8l-24.9,0.2l-16.6-0.3l-2.5-0.1c-1.5,0-2.5,1.1-2.5,2.6c0,0.7,0,2.9,2.7,2.9c10,0,10.4,0.8,10.5,4.7
	l0.1,2.4l0.2,10.2v22.1c0,3.7-0.1,9.5-0.4,14.2c-0.1,1.3-0.1,2.6-9,2.6c-2.5,0-4,0.5-4,2.9c0,0.7,0,2.6,2.4,2.6h0.6
	c1-0.1,3.9-0.2,17.7-0.2c14.8,0,17.8,0.1,18.7,0.2h0.6c1.9,0,3.6-0.2,3.6-2.6c0-2.7-2.3-2.9-6-2.9c-8.9,0-9-1.3-9-2.6
	c-0.2-4.3-0.4-10.1-0.4-14.2c0,0,0-5.9,0-7.9c2,0,7.4,0,7.4,0c11.4,0,12.7,0.3,14.4,9.1c0.4,1.9,2,2.1,3.3,2.1c2.7,0,3-1.5,3-2.1
	l-0.2-3.3c-0.2-1.9-0.4-4.3-0.4-7.5v-13.5c0-2-2.4-2-3.7-2c-2.2,0-2.7,1.4-4,7.8c-0.6,2.4-5.3,3.8-12.9,3.8c0,0-4.8,0-6.7,0
	c0-2.5,0-19.9,0-19.9c0-5.4,1-5.4,2.2-5.5c4.4-0.2,15-0.6,18.2-0.6c3,0,5.8,0.7,7.6,1.9c5.6,3.5,8.6,5.9,10.3,7.3s2.7,2.2,4.1,2.2
	c0.8,0,3.2,0,3.2-2.1c0-0.5-0.2-1-1-2.7c-0.9-2-2.5-5.4-4.4-10.6c-0.6-1.6-2.4-1.6-5.9-1.6L147.2,298.8z"/>
<path class="st2" d="M679.1,144.7h-7V98.3H672l-16,46.3h-6.6l-15.9-47.1h-0.2v47.1h-7V89.3h11l13.1,39.2c1.5,4.4,2.3,7.1,2.5,8.2
	h0.2c0.7-2.1,1.7-5.1,2.9-8.9l13.2-38.5h9.8L679.1,144.7L679.1,144.7z"/>
<path class="st5" d="M679.1,144.7h-7V98.3H672l-16,46.3h-6.6l-15.9-47.1h-0.2v47.1h-7V89.3h11l13.1,39.2c1.5,4.4,2.3,7.1,2.5,8.2
	h0.2c0.7-2.1,1.7-5.1,2.9-8.9l13.2-38.5h9.8L679.1,144.7L679.1,144.7z"/>
<rect x="695.1" y="89.3" class="st2" width="7.4" height="55.4"/>
<rect x="695.1" y="89.3" class="st5" width="7.4" height="55.4"/>
<path class="st2" d="M763.7,144.7h-9.1L743.5,129c-2.7-3.9-4.4-6.4-5.1-7.7h-0.2c0,0.5-5.5,8.3-16.5,23.5h-8.8l21.5-28.9l-19-26.5
	h8.7l11.7,16.5c1.3,1.8,2.2,3.3,2.8,4.5c1-1.7,6.2-8.7,15.6-21h8l-19.4,26.1L763.7,144.7z"/>
<path class="st5" d="M763.7,144.7h-9.1L743.5,129c-2.7-3.9-4.4-6.4-5.1-7.7h-0.2c0,0.5-5.5,8.3-16.5,23.5h-8.8l21.5-28.9l-19-26.5
	h8.7l11.7,16.5c1.3,1.8,2.2,3.3,2.8,4.5c1-1.7,6.2-8.7,15.6-21h8l-19.4,26.1L763.7,144.7z"/>
<path class="st2" d="M569,219.4h10.7c6.5,0,9.8-2.5,9.8-7.6c0-1.7-0.4-3.1-1.3-4.4c-0.9-1.3-1.9-2.1-3.1-2.4
	c-1.2-0.3-3.1-0.5-5.5-0.5H569V219.4z M563.5,199.6h15.7c2.5,0,4.6,0.1,6.4,0.4c1.8,0.2,3.4,0.9,5,1.9s2.7,2.4,3.5,4.2
	s1.2,3.6,1.2,5.6c0,3.8-1.2,6.9-3.7,9.2s-6.4,3.5-11.9,3.5H569v16.8h-5.5V199.6z"/>
<path class="st6" d="M569,219.4h10.7c6.5,0,9.8-2.5,9.8-7.6c0-1.7-0.4-3.1-1.3-4.4c-0.9-1.3-1.9-2.1-3.1-2.4
	c-1.2-0.3-3.1-0.5-5.5-0.5H569V219.4z M563.5,199.6h15.7c2.5,0,4.6,0.1,6.4,0.4c1.8,0.2,3.4,0.9,5,1.9s2.7,2.4,3.5,4.2
	s1.2,3.6,1.2,5.6c0,3.8-1.2,6.9-3.7,9.2s-6.4,3.5-11.9,3.5H569v16.8h-5.5V199.6z"/>
<path class="st2" d="M628.3,241.1h-4.6v-4.4h-0.1c-2.3,3.4-5.5,5.1-9.4,5.1c-2.1,0-4-0.5-5.8-1.4c-1.8-1-3-2.3-3.6-4
	s-0.9-3.9-0.9-6.7v-18.6h5.1v16.7c0,2.7,0.1,4.6,0.4,5.7c0.2,1.2,0.9,2.1,2,2.8s2.4,1.1,3.9,1.1c1.9,0,3.7-0.7,5.4-2
	s2.5-4.1,2.5-8.3V211h5.1L628.3,241.1L628.3,241.1z"/>
<path class="st6" d="M628.3,241.1h-4.6v-4.4h-0.1c-2.3,3.4-5.5,5.1-9.4,5.1c-2.1,0-4-0.5-5.8-1.4c-1.8-1-3-2.3-3.6-4
	s-0.9-3.9-0.9-6.7v-18.6h5.1v16.7c0,2.7,0.1,4.6,0.4,5.7c0.2,1.2,0.9,2.1,2,2.8s2.4,1.1,3.9,1.1c1.9,0,3.7-0.7,5.4-2
	s2.5-4.1,2.5-8.3V211h5.1L628.3,241.1L628.3,241.1z"/>
<rect x="638.5" y="199.6" class="st2" width="5.1" height="41.5"/>
<rect x="638.5" y="199.6" class="st6" width="5.1" height="41.5"/>
<path class="st2" d="M666.4,237.6c2.4,0,4.3-1,5.9-2.9c1.5-2,2.3-4.9,2.4-8.8c0-3.7-0.7-6.5-2.2-8.5s-3.4-3-5.8-3
	c-2.4,0-4.4,1.1-6,3.3c-1.5,2.2-2.3,5.1-2.4,8.6c0,3.7,0.7,6.5,2.2,8.5C662,236.7,664,237.6,666.4,237.6z M658.5,214.9
	c1.9-3,4.8-4.6,8.6-4.6c3.9,0,7.1,1.4,9.4,4.3c2.3,2.9,3.4,6.6,3.4,11.2c0,4.9-1.3,8.8-3.8,11.6c-2.5,2.9-5.6,4.3-9.3,4.3
	c-3.2,0-5.8-1.3-7.8-3.9h-0.1v14.7h-5.1v-41.6h4.6v3.9h0.1V214.9z"/>
<path class="st6" d="M666.4,237.6c2.4,0,4.3-1,5.9-2.9c1.5-2,2.3-4.9,2.4-8.8c0-3.7-0.7-6.5-2.2-8.5s-3.4-3-5.8-3
	c-2.4,0-4.4,1.1-6,3.3c-1.5,2.2-2.3,5.1-2.4,8.6c0,3.7,0.7,6.5,2.2,8.5C662,236.7,664,237.6,666.4,237.6z M658.5,214.9
	c1.9-3,4.8-4.6,8.6-4.6c3.9,0,7.1,1.4,9.4,4.3c2.3,2.9,3.4,6.6,3.4,11.2c0,4.9-1.3,8.8-3.8,11.6c-2.5,2.9-5.6,4.3-9.3,4.3
	c-3.2,0-5.8-1.3-7.8-3.9h-0.1v14.7h-5.1v-41.6h4.6v3.9h0.1V214.9z"/>
<path class="st2" d="M720.8,199.4l-0.8,4.5c-1-0.2-2-0.3-3-0.3c-1.2,0-2.2,0.3-3,0.8s-1.2,1.8-1.2,3.9v2.8h5.8v3.9h-5.8v26.1h-5.1
	V215h-4.5v-3.9h4.5v-3.3c0-1.5,0.1-2.9,0.4-4.1c0.3-1.2,1-2.3,2.2-3.3s3.1-1.5,5.6-1.5C717.5,198.9,719.1,199.1,720.8,199.4z"/>
<path class="st6" d="M720.8,199.4l-0.8,4.5c-1-0.2-2-0.3-3-0.3c-1.2,0-2.2,0.3-3,0.8s-1.2,1.8-1.2,3.9v2.8h5.8v3.9h-5.8v26.1h-5.1
	V215h-4.5v-3.9h4.5v-3.3c0-1.5,0.1-2.9,0.4-4.1c0.3-1.2,1-2.3,2.2-3.3s3.1-1.5,5.6-1.5C717.5,198.9,719.1,199.1,720.8,199.4z"/>
<path class="st2" d="M741.2,212l-1.8,4.7c-1.3-0.7-2.5-1.1-3.7-1.1c-1.9,0-3.4,0.9-4.3,2.6c-1,1.7-1.5,4.1-1.5,7.2v15.8h-5.1v-30.1
	h4.6v4.5h0.1c1.6-3.5,3.8-5.2,6.4-5.2C737.7,210.4,739.5,210.9,741.2,212z"/>
<path class="st6" d="M741.2,212l-1.8,4.7c-1.3-0.7-2.5-1.1-3.7-1.1c-1.9,0-3.4,0.9-4.3,2.6c-1,1.7-1.5,4.1-1.5,7.2v15.8h-5.1v-30.1
	h4.6v4.5h0.1c1.6-3.5,3.8-5.2,6.4-5.2C737.7,210.4,739.5,210.9,741.2,212z"/>
<path class="st2" d="M758.9,237.6c2.9,0,5.1-1.1,6.6-3.2c1.5-2.2,2.3-5,2.3-8.5c0-3.8-0.9-6.6-2.6-8.5c-1.7-1.9-3.8-2.9-6.4-2.9
	c-2.6,0-4.7,1-6.4,2.9s-2.5,4.8-2.5,8.7c0,3.8,0.8,6.7,2.5,8.6C754.2,236.6,756.3,237.6,758.9,237.6z M758.9,210.4
	c4.1,0,7.4,1.3,10.1,4c2.7,2.6,4,6.4,4,11.3c0,5.9-1.4,10.1-4.3,12.5c-2.9,2.4-6.2,3.7-9.8,3.7c-3.8,0-7.1-1.3-9.9-3.8
	c-2.8-2.5-4.2-6.5-4.2-11.9c0-5.3,1.4-9.2,4.1-11.8C751.5,211.7,754.9,210.4,758.9,210.4z"/>
<path class="st6" d="M758.9,237.6c2.9,0,5.1-1.1,6.6-3.2c1.5-2.2,2.3-5,2.3-8.5c0-3.8-0.9-6.6-2.6-8.5c-1.7-1.9-3.8-2.9-6.4-2.9
	c-2.6,0-4.7,1-6.4,2.9s-2.5,4.8-2.5,8.7c0,3.8,0.8,6.7,2.5,8.6C754.2,236.6,756.3,237.6,758.9,237.6z M758.9,210.4
	c4.1,0,7.4,1.3,10.1,4c2.7,2.6,4,6.4,4,11.3c0,5.9-1.4,10.1-4.3,12.5c-2.9,2.4-6.2,3.7-9.8,3.7c-3.8,0-7.1-1.3-9.9-3.8
	c-2.8-2.5-4.2-6.5-4.2-11.9c0-5.3,1.4-9.2,4.1-11.8C751.5,211.7,754.9,210.4,758.9,210.4z"/>
<path class="st2" d="M821.9,241.1h-5.1v-19c0-1.4-0.1-2.6-0.3-3.6s-0.7-1.9-1.4-2.6c-0.8-0.8-2-1.2-3.7-1.2c-2,0-3.7,0.7-5.2,2.1
	c-1.5,1.4-2.2,3.7-2.2,6.8V241h-5.1v-19.5c0-2.6-0.5-4.4-1.4-5.4s-2.2-1.4-3.9-1.4c-2.2,0-4,0.8-5.4,2.3s-2.1,4.3-2.1,8.5v15.6H781
	V211h4.6v4.2h0.1c2-3.2,5-4.9,9-4.9c2.2,0,4,0.4,5.4,1.3c1.4,0.9,2.5,2.2,3.1,4c2.2-3.5,5.3-5.3,9.3-5.3c3.1,0,5.5,0.8,7,2.5
	c1.6,1.7,2.3,4.2,2.4,7.6L821.9,241.1L821.9,241.1z"/>
<path class="st6" d="M821.9,241.1h-5.1v-19c0-1.4-0.1-2.6-0.3-3.6s-0.7-1.9-1.4-2.6c-0.8-0.8-2-1.2-3.7-1.2c-2,0-3.7,0.7-5.2,2.1
	c-1.5,1.4-2.2,3.7-2.2,6.8V241h-5.1v-19.5c0-2.6-0.5-4.4-1.4-5.4s-2.2-1.4-3.9-1.4c-2.2,0-4,0.8-5.4,2.3s-2.1,4.3-2.1,8.5v15.6H781
	V211h4.6v4.2h0.1c2-3.2,5-4.9,9-4.9c2.2,0,4,0.4,5.4,1.3c1.4,0.9,2.5,2.2,3.1,4c2.2-3.5,5.3-5.3,9.3-5.3c3.1,0,5.5,0.8,7,2.5
	c1.6,1.7,2.3,4.2,2.4,7.6L821.9,241.1L821.9,241.1z"/>
<path class="st2" d="M433.8,277.4l-1.8,4.7c-1.3-0.7-2.5-1.1-3.7-1.1c-1.9,0-3.4,0.9-4.3,2.6c-1,1.7-1.5,4.1-1.5,7.2v15.8h-5.1
	v-30.1h4.6v4.5h0.1c1.6-3.5,3.8-5.2,6.4-5.2C430.3,275.8,432.1,276.4,433.8,277.4z"/>
<path class="st6" d="M433.8,277.4l-1.8,4.7c-1.3-0.7-2.5-1.1-3.7-1.1c-1.9,0-3.4,0.9-4.3,2.6c-1,1.7-1.5,4.1-1.5,7.2v15.8h-5.1
	v-30.1h4.6v4.5h0.1c1.6-3.5,3.8-5.2,6.4-5.2C430.3,275.8,432.1,276.4,433.8,277.4z"/>
<path class="st2" d="M460.1,288.6c-0.2-3.1-1.2-5.3-2.8-6.6c-1.7-1.3-3.5-2-5.6-2c-2.4,0-4.4,0.8-5.9,2.4s-2.4,3.7-2.7,6.2H460.1z
	 M465.4,292.8h-22.5c0.2,3.3,1.2,5.9,2.8,7.6c1.7,1.8,3.8,2.6,6.4,2.6c1.9,0,3.6-0.5,4.9-1.5s2.3-2.6,3-4.7l5.2,0.7
	c-0.9,3.1-2.4,5.5-4.7,7.2c-2.3,1.7-5.1,2.5-8.5,2.5c-4.5,0-8-1.4-10.6-4.1c-2.5-2.8-3.8-6.5-3.8-11.4c0-4.7,1.2-8.6,3.7-11.5
	s5.9-4.4,10.4-4.4c2.2,0,4.3,0.5,6.3,1.4c2,1,3.8,2.6,5.2,4.9C464.7,284.5,465.4,288,465.4,292.8z"/>
<path class="st6" d="M460.1,288.6c-0.2-3.1-1.2-5.3-2.8-6.6c-1.7-1.3-3.5-2-5.6-2c-2.4,0-4.4,0.8-5.9,2.4s-2.4,3.7-2.7,6.2H460.1z
	 M465.4,292.8h-22.5c0.2,3.3,1.2,5.9,2.8,7.6c1.7,1.8,3.8,2.6,6.4,2.6c1.9,0,3.6-0.5,4.9-1.5s2.3-2.6,3-4.7l5.2,0.7
	c-0.9,3.1-2.4,5.5-4.7,7.2c-2.3,1.7-5.1,2.5-8.5,2.5c-4.5,0-8-1.4-10.6-4.1c-2.5-2.8-3.8-6.5-3.8-11.4c0-4.7,1.2-8.6,3.7-11.5
	s5.9-4.4,10.4-4.4c2.2,0,4.3,0.5,6.3,1.4c2,1,3.8,2.6,5.2,4.9C464.7,284.5,465.4,288,465.4,292.8z"/>
<path class="st2" d="M490.6,284.9c-0.2-1.6-0.9-2.9-2-3.7c-1.1-0.8-2.6-1.2-4.6-1.2c-1.9,0-3.5,0.3-4.7,1s-1.8,1.6-1.8,2.9
	c0,1.2,0.5,2,1.4,2.6c0.9,0.5,2.8,1.1,5.7,1.9c3.2,0.8,5.5,1.5,7.1,2.2c1.6,0.6,2.8,1.5,3.7,2.6c0.9,1.1,1.3,2.7,1.3,4.7
	c0,2.7-1.1,4.9-3.3,6.8c-2.2,1.8-5.1,2.7-8.8,2.7c-3.8,0-6.8-0.8-8.9-2.4s-3.5-4-4-7.3l5.1-0.8c0.3,2.1,1,3.7,2.3,4.7
	s3.1,1.6,5.4,1.6c2.2,0,3.9-0.5,5.1-1.4s1.8-2.1,1.8-3.4c0-0.9-0.3-1.6-0.8-2.2c-0.5-0.5-1.2-1-2-1.2c-0.8-0.3-2.7-0.8-5.6-1.5
	c-4.3-1-7.1-2.3-8.4-3.7c-1.4-1.5-2.1-3.2-2.1-5.2c0-2.5,1-4.6,3-6.2s4.7-2.4,8.1-2.4c3.6,0,6.4,0.7,8.4,2.1s3.2,3.5,3.6,6.3
	L490.6,284.9z"/>
<path class="st6" d="M490.6,284.9c-0.2-1.6-0.9-2.9-2-3.7c-1.1-0.8-2.6-1.2-4.6-1.2c-1.9,0-3.5,0.3-4.7,1s-1.8,1.6-1.8,2.9
	c0,1.2,0.5,2,1.4,2.6c0.9,0.5,2.8,1.1,5.7,1.9c3.2,0.8,5.5,1.5,7.1,2.2c1.6,0.6,2.8,1.5,3.7,2.6c0.9,1.1,1.3,2.7,1.3,4.7
	c0,2.7-1.1,4.9-3.3,6.8c-2.2,1.8-5.1,2.7-8.8,2.7c-3.8,0-6.8-0.8-8.9-2.4s-3.5-4-4-7.3l5.1-0.8c0.3,2.1,1,3.7,2.3,4.7
	s3.1,1.6,5.4,1.6c2.2,0,3.9-0.5,5.1-1.4s1.8-2.1,1.8-3.4c0-0.9-0.3-1.6-0.8-2.2c-0.5-0.5-1.2-1-2-1.2c-0.8-0.3-2.7-0.8-5.6-1.5
	c-4.3-1-7.1-2.3-8.4-3.7c-1.4-1.5-2.1-3.2-2.1-5.2c0-2.5,1-4.6,3-6.2s4.7-2.4,8.1-2.4c3.6,0,6.4,0.7,8.4,2.1s3.2,3.5,3.6,6.3
	L490.6,284.9z"/>
<path class="st2" d="M517.8,303.1c2.4,0,4.3-1,5.9-2.9c1.6-2,2.3-4.9,2.4-8.8c0-3.7-0.8-6.5-2.2-8.5c-1.5-2-3.4-3-5.8-3
	c-2.4,0-4.4,1.1-6,3.3c-1.5,2.2-2.3,5.1-2.4,8.6c0,3.7,0.7,6.5,2.2,8.5C513.5,302.1,515.4,303.1,517.8,303.1z M509.9,280.4
	c1.9-3,4.8-4.6,8.6-4.6c3.9,0,7.1,1.4,9.4,4.3c2.3,2.9,3.4,6.6,3.4,11.2c0,4.9-1.3,8.8-3.8,11.6c-2.5,2.9-5.6,4.3-9.3,4.3
	c-3.2,0-5.8-1.3-7.8-3.9h-0.1V318h-5.1v-41.6h4.6v3.9h0.1V280.4z"/>
<path class="st6" d="M517.8,303.1c2.4,0,4.3-1,5.9-2.9c1.6-2,2.3-4.9,2.4-8.8c0-3.7-0.8-6.5-2.2-8.5c-1.5-2-3.4-3-5.8-3
	c-2.4,0-4.4,1.1-6,3.3c-1.5,2.2-2.3,5.1-2.4,8.6c0,3.7,0.7,6.5,2.2,8.5C513.5,302.1,515.4,303.1,517.8,303.1z M509.9,280.4
	c1.9-3,4.8-4.6,8.6-4.6c3.9,0,7.1,1.4,9.4,4.3c2.3,2.9,3.4,6.6,3.4,11.2c0,4.9-1.3,8.8-3.8,11.6c-2.5,2.9-5.6,4.3-9.3,4.3
	c-3.2,0-5.8-1.3-7.8-3.9h-0.1V318h-5.1v-41.6h4.6v3.9h0.1V280.4z"/>
<path class="st2" d="M551.9,303.1c2.9,0,5.1-1.1,6.6-3.2c1.5-2.2,2.3-5,2.3-8.5c0-3.8-0.8-6.6-2.6-8.5c-1.7-1.9-3.8-2.9-6.4-2.9
	c-2.6,0-4.7,1-6.4,2.9s-2.5,4.8-2.5,8.7c0,3.8,0.8,6.7,2.5,8.6C547.2,302.1,549.3,303.1,551.9,303.1z M551.9,275.8
	c4.1,0,7.4,1.3,10.1,4c2.7,2.6,4,6.4,4,11.3c0,5.9-1.4,10.1-4.3,12.5c-2.9,2.4-6.2,3.7-9.8,3.7c-3.8,0-7.1-1.3-9.9-3.8
	c-2.8-2.5-4.2-6.5-4.2-12c0-5.3,1.4-9.2,4.1-11.8C544.6,277.1,547.9,275.8,551.9,275.8z"/>
<path class="st6" d="M551.9,303.1c2.9,0,5.1-1.1,6.6-3.2c1.5-2.2,2.3-5,2.3-8.5c0-3.8-0.8-6.6-2.6-8.5c-1.7-1.9-3.8-2.9-6.4-2.9
	c-2.6,0-4.7,1-6.4,2.9s-2.5,4.8-2.5,8.7c0,3.8,0.8,6.7,2.5,8.6C547.2,302.1,549.3,303.1,551.9,303.1z M551.9,275.8
	c4.1,0,7.4,1.3,10.1,4c2.7,2.6,4,6.4,4,11.3c0,5.9-1.4,10.1-4.3,12.5c-2.9,2.4-6.2,3.7-9.8,3.7c-3.8,0-7.1-1.3-9.9-3.8
	c-2.8-2.5-4.2-6.5-4.2-12c0-5.3,1.4-9.2,4.1-11.8C544.6,277.1,547.9,275.8,551.9,275.8z"/>
<path class="st2" d="M598.8,306.6h-5.1v-18.3c0-3.1-0.5-5.2-1.6-6.3c-1.1-1.2-2.6-1.7-4.6-1.7c-1.5,0-2.9,0.4-4.3,1.1
	c-1.3,0.7-2.3,1.8-2.9,3.1c-0.6,1.3-0.9,3.2-0.9,5.7v16.4h-5.1v-30.1h4.6v4.2h0.1c1.1-1.6,2.4-2.9,4-3.7c1.6-0.8,3.4-1.2,5.5-1.2
	c1.6,0,3.2,0.3,4.7,0.9s2.8,1.4,3.6,2.5c0.9,1.1,1.4,2.3,1.7,3.6c0.2,1.3,0.4,3,0.3,5.2V306.6z"/>
<path class="st6" d="M598.8,306.6h-5.1v-18.3c0-3.1-0.5-5.2-1.6-6.3c-1.1-1.2-2.6-1.7-4.6-1.7c-1.5,0-2.9,0.4-4.3,1.1
	c-1.3,0.7-2.3,1.8-2.9,3.1c-0.6,1.3-0.9,3.2-0.9,5.7v16.4h-5.1v-30.1h4.6v4.2h0.1c1.1-1.6,2.4-2.9,4-3.7c1.6-0.8,3.4-1.2,5.5-1.2
	c1.6,0,3.2,0.3,4.7,0.9s2.8,1.4,3.6,2.5c0.9,1.1,1.4,2.3,1.7,3.6c0.2,1.3,0.4,3,0.3,5.2V306.6z"/>
<path class="st2" d="M625.5,284.9c-0.2-1.6-0.9-2.9-2-3.7c-1.1-0.8-2.6-1.2-4.6-1.2c-1.9,0-3.5,0.3-4.7,1s-1.8,1.6-1.8,2.9
	c0,1.2,0.5,2,1.4,2.6c0.9,0.5,2.8,1.1,5.7,1.9c3.2,0.8,5.5,1.5,7.1,2.2c1.6,0.6,2.8,1.5,3.7,2.6s1.3,2.7,1.3,4.7
	c0,2.7-1.1,4.9-3.3,6.8c-2.2,1.8-5.1,2.7-8.8,2.7c-3.8,0-6.8-0.8-8.9-2.4c-2.1-1.6-3.5-4-4-7.3l5.1-0.8c0.3,2.1,1,3.7,2.3,4.7
	s3.1,1.6,5.4,1.6c2.2,0,3.9-0.5,5.1-1.4c1.2-0.9,1.8-2.1,1.8-3.4c0-0.9-0.3-1.6-0.8-2.2c-0.5-0.5-1.2-1-2-1.2
	c-0.8-0.3-2.7-0.8-5.6-1.5c-4.3-1-7.1-2.3-8.4-3.7c-1.4-1.5-2.1-3.2-2.1-5.2c0-2.5,1-4.6,3-6.2s4.7-2.4,8.1-2.4
	c3.6,0,6.4,0.7,8.4,2.1s3.2,3.5,3.6,6.3L625.5,284.9z"/>
<path class="st6" d="M625.5,284.9c-0.2-1.6-0.9-2.9-2-3.7c-1.1-0.8-2.6-1.2-4.6-1.2c-1.9,0-3.5,0.3-4.7,1s-1.8,1.6-1.8,2.9
	c0,1.2,0.5,2,1.4,2.6c0.9,0.5,2.8,1.1,5.7,1.9c3.2,0.8,5.5,1.5,7.1,2.2c1.6,0.6,2.8,1.5,3.7,2.6s1.3,2.7,1.3,4.7
	c0,2.7-1.1,4.9-3.3,6.8c-2.2,1.8-5.1,2.7-8.8,2.7c-3.8,0-6.8-0.8-8.9-2.4c-2.1-1.6-3.5-4-4-7.3l5.1-0.8c0.3,2.1,1,3.7,2.3,4.7
	s3.1,1.6,5.4,1.6c2.2,0,3.9-0.5,5.1-1.4c1.2-0.9,1.8-2.1,1.8-3.4c0-0.9-0.3-1.6-0.8-2.2c-0.5-0.5-1.2-1-2-1.2
	c-0.8-0.3-2.7-0.8-5.6-1.5c-4.3-1-7.1-2.3-8.4-3.7c-1.4-1.5-2.1-3.2-2.1-5.2c0-2.5,1-4.6,3-6.2s4.7-2.4,8.1-2.4
	c3.6,0,6.4,0.7,8.4,2.1s3.2,3.5,3.6,6.3L625.5,284.9z"/>
<path class="st2" d="M645.2,270.8h-5.1V265h5.1V270.8z M645.2,306.6h-5.1v-30.1h5.1V306.6z"/>
<path class="st6" d="M645.2,270.8h-5.1V265h5.1V270.8z M645.2,306.6h-5.1v-30.1h5.1V306.6z"/>
<path class="st2" d="M668,303.1c2.4,0,4.3-1,5.8-3s2.3-4.9,2.3-8.6c0-3.5-0.7-6.3-2.1-8.4c-1.4-2.1-3.4-3.1-5.9-3.1
	s-4.4,1.1-5.9,3.2s-2.2,4.8-2.3,8.1c0,3.2,0.3,5.5,0.9,6.8c0.6,1.3,1.6,2.5,2.8,3.5C664.9,302.6,666.4,303.1,668,303.1z
	 M660.5,279.9c1.9-2.7,4.6-4.1,8.1-4.1c3.9,0,7,1.4,9.3,4.2c2.3,2.8,3.5,6.5,3.5,11c0,5.2-1.3,9.2-3.9,12c-2.6,2.8-5.6,4.2-9.1,4.2
	s-6.3-1.5-8.2-4.5H660v3.8h-4.8V265h5.1v14.8h0.2V279.9z"/>
<path class="st6" d="M668,303.1c2.4,0,4.3-1,5.8-3s2.3-4.9,2.3-8.6c0-3.5-0.7-6.3-2.1-8.4c-1.4-2.1-3.4-3.1-5.9-3.1
	s-4.4,1.1-5.9,3.2s-2.2,4.8-2.3,8.1c0,3.2,0.3,5.5,0.9,6.8c0.6,1.3,1.6,2.5,2.8,3.5C664.9,302.6,666.4,303.1,668,303.1z
	 M660.5,279.9c1.9-2.7,4.6-4.1,8.1-4.1c3.9,0,7,1.4,9.3,4.2c2.3,2.8,3.5,6.5,3.5,11c0,5.2-1.3,9.2-3.9,12c-2.6,2.8-5.6,4.2-9.1,4.2
	s-6.3-1.5-8.2-4.5H660v3.8h-4.8V265h5.1v14.8h0.2V279.9z"/>
<rect x="689.8" y="265" class="st2" width="5.1" height="41.5"/>
<rect x="689.8" y="265" class="st6" width="5.1" height="41.5"/>
<path class="st2" d="M725.9,288.6c-0.2-3.1-1.2-5.3-2.8-6.6c-1.7-1.3-3.5-2-5.6-2c-2.4,0-4.4,0.8-5.9,2.4c-1.6,1.6-2.4,3.7-2.7,6.2
	H725.9z M731.1,292.8h-22.5c0.2,3.3,1.2,5.9,2.8,7.6c1.7,1.8,3.8,2.6,6.4,2.6c1.9,0,3.6-0.5,4.9-1.5c1.3-1,2.3-2.6,3-4.7l5.2,0.7
	c-0.9,3.1-2.4,5.5-4.7,7.2s-5.1,2.5-8.5,2.5c-4.5,0-8-1.4-10.6-4.1c-2.5-2.8-3.8-6.5-3.8-11.4c0-4.7,1.2-8.6,3.7-11.5
	s5.9-4.4,10.4-4.4c2.2,0,4.3,0.5,6.3,1.4c2,1,3.8,2.6,5.2,4.9C730.4,284.5,731.1,288,731.1,292.8z"/>
<path class="st6" d="M725.9,288.6c-0.2-3.1-1.2-5.3-2.8-6.6c-1.7-1.3-3.5-2-5.6-2c-2.4,0-4.4,0.8-5.9,2.4c-1.6,1.6-2.4,3.7-2.7,6.2
	H725.9z M731.1,292.8h-22.5c0.2,3.3,1.2,5.9,2.8,7.6c1.7,1.8,3.8,2.6,6.4,2.6c1.9,0,3.6-0.5,4.9-1.5c1.3-1,2.3-2.6,3-4.7l5.2,0.7
	c-0.9,3.1-2.4,5.5-4.7,7.2s-5.1,2.5-8.5,2.5c-4.5,0-8-1.4-10.6-4.1c-2.5-2.8-3.8-6.5-3.8-11.4c0-4.7,1.2-8.6,3.7-11.5
	s5.9-4.4,10.4-4.4c2.2,0,4.3,0.5,6.3,1.4c2,1,3.8,2.6,5.2,4.9C730.4,284.5,731.1,288,731.1,292.8z"/>
<path class="st2" d="M774.7,284.9c-0.2-1.6-0.9-2.9-2-3.7c-1.1-0.8-2.6-1.2-4.6-1.2c-1.9,0-3.5,0.3-4.7,1s-1.8,1.6-1.8,2.9
	c0,1.2,0.5,2,1.4,2.6c0.9,0.5,2.8,1.1,5.7,1.9c3.2,0.8,5.5,1.5,7.1,2.2c1.6,0.6,2.8,1.5,3.7,2.6s1.3,2.7,1.3,4.7
	c0,2.7-1.1,4.9-3.3,6.8c-2.2,1.8-5.1,2.7-8.8,2.7c-3.8,0-6.8-0.8-8.9-2.4c-2.1-1.6-3.5-4-4-7.3l5.1-0.8c0.3,2.1,1,3.7,2.3,4.7
	s3.1,1.6,5.4,1.6c2.2,0,3.9-0.5,5.1-1.4c1.2-0.9,1.8-2.1,1.8-3.4c0-0.9-0.3-1.6-0.8-2.2c-0.6-0.5-1.2-1-2-1.2
	c-0.8-0.3-2.7-0.8-5.6-1.5c-4.3-1-7.1-2.3-8.4-3.7c-1.4-1.5-2.1-3.2-2.1-5.2c0-2.5,1-4.6,3-6.2s4.7-2.4,8.1-2.4
	c3.6,0,6.4,0.7,8.4,2.1s3.2,3.5,3.6,6.3L774.7,284.9z"/>
<path class="st6" d="M774.7,284.9c-0.2-1.6-0.9-2.9-2-3.7c-1.1-0.8-2.6-1.2-4.6-1.2c-1.9,0-3.5,0.3-4.7,1s-1.8,1.6-1.8,2.9
	c0,1.2,0.5,2,1.4,2.6c0.9,0.5,2.8,1.1,5.7,1.9c3.2,0.8,5.5,1.5,7.1,2.2c1.6,0.6,2.8,1.5,3.7,2.6s1.3,2.7,1.3,4.7
	c0,2.7-1.1,4.9-3.3,6.8c-2.2,1.8-5.1,2.7-8.8,2.7c-3.8,0-6.8-0.8-8.9-2.4c-2.1-1.6-3.5-4-4-7.3l5.1-0.8c0.3,2.1,1,3.7,2.3,4.7
	s3.1,1.6,5.4,1.6c2.2,0,3.9-0.5,5.1-1.4c1.2-0.9,1.8-2.1,1.8-3.4c0-0.9-0.3-1.6-0.8-2.2c-0.6-0.5-1.2-1-2-1.2
	c-0.8-0.3-2.7-0.8-5.6-1.5c-4.3-1-7.1-2.3-8.4-3.7c-1.4-1.5-2.1-3.2-2.1-5.2c0-2.5,1-4.6,3-6.2s4.7-2.4,8.1-2.4
	c3.6,0,6.4,0.7,8.4,2.1s3.2,3.5,3.6,6.3L774.7,284.9z"/>
<path class="st2" d="M801.5,303.1c2.9,0,5.1-1.1,6.6-3.2c1.5-2.2,2.3-5,2.3-8.5c0-3.8-0.9-6.6-2.6-8.5c-1.7-1.9-3.8-2.9-6.3-2.9
	c-2.6,0-4.7,1-6.4,2.9s-2.5,4.8-2.5,8.7c0,3.8,0.8,6.7,2.5,8.6S798.9,303.1,801.5,303.1z M801.5,275.8c4.1,0,7.4,1.3,10.1,4
	c2.7,2.6,4,6.4,4,11.3c0,5.9-1.4,10.1-4.3,12.5c-2.9,2.4-6.2,3.7-9.8,3.7c-3.8,0-7.1-1.3-9.9-3.8c-2.8-2.5-4.2-6.5-4.2-12
	c0-5.3,1.4-9.2,4.1-11.8C794.1,277.1,797.5,275.8,801.5,275.8z"/>
<path class="st6" d="M801.5,303.1c2.9,0,5.1-1.1,6.6-3.2c1.5-2.2,2.3-5,2.3-8.5c0-3.8-0.9-6.6-2.6-8.5c-1.7-1.9-3.8-2.9-6.3-2.9
	c-2.6,0-4.7,1-6.4,2.9s-2.5,4.8-2.5,8.7c0,3.8,0.8,6.7,2.5,8.6S798.9,303.1,801.5,303.1z M801.5,275.8c4.1,0,7.4,1.3,10.1,4
	c2.7,2.6,4,6.4,4,11.3c0,5.9-1.4,10.1-4.3,12.5c-2.9,2.4-6.2,3.7-9.8,3.7c-3.8,0-7.1-1.3-9.9-3.8c-2.8-2.5-4.2-6.5-4.2-12
	c0-5.3,1.4-9.2,4.1-11.8C794.1,277.1,797.5,275.8,801.5,275.8z"/>
<path class="st2" d="M848.2,306.6h-4.6v-4.4h-0.1c-2.3,3.4-5.5,5.1-9.4,5.1c-2.1,0-4-0.5-5.8-1.4c-1.8-1-3-2.3-3.6-4
	s-0.9-3.9-0.9-6.7v-18.6h5.1v16.7c0,2.7,0.1,4.6,0.4,5.7c0.2,1.2,0.9,2.1,2,2.8c1.1,0.7,2.4,1.1,3.9,1.1c1.9,0,3.7-0.7,5.4-2
	s2.6-4.1,2.6-8.3v-16.1h5.1v30.1H848.2z"/>
<path class="st6" d="M848.2,306.6h-4.6v-4.4h-0.1c-2.3,3.4-5.5,5.1-9.4,5.1c-2.1,0-4-0.5-5.8-1.4c-1.8-1-3-2.3-3.6-4
	s-0.9-3.9-0.9-6.7v-18.6h5.1v16.7c0,2.7,0.1,4.6,0.4,5.7c0.2,1.2,0.9,2.1,2,2.8c1.1,0.7,2.4,1.1,3.9,1.1c1.9,0,3.7-0.7,5.4-2
	s2.6-4.1,2.6-8.3v-16.1h5.1v30.1H848.2z"/>
<path class="st2" d="M874.6,277.4l-1.8,4.7c-1.3-0.7-2.5-1.1-3.7-1.1c-1.9,0-3.4,0.9-4.3,2.6c-1,1.7-1.5,4.1-1.5,7.2v15.8h-5.1
	v-30.1h4.7v4.5h0.1c1.6-3.5,3.8-5.2,6.4-5.2C871.1,275.8,872.8,276.4,874.6,277.4z"/>
<path class="st6" d="M874.6,277.4l-1.8,4.7c-1.3-0.7-2.5-1.1-3.7-1.1c-1.9,0-3.4,0.9-4.3,2.6c-1,1.7-1.5,4.1-1.5,7.2v15.8h-5.1
	v-30.1h4.7v4.5h0.1c1.6-3.5,3.8-5.2,6.4-5.2C871.1,275.8,872.8,276.4,874.6,277.4z"/>
<path class="st2" d="M904.6,296.2c-0.7,3.8-2.2,6.6-4.5,8.4c-2.4,1.8-5,2.7-8,2.7c-4.4,0-7.7-1.4-10.1-4.3
	c-2.4-2.9-3.6-6.6-3.6-11.4c0-3.9,0.7-7,2-9.4c1.4-2.3,3.1-4,5.2-5c2.1-1,4.2-1.4,6.5-1.4c3.1,0,5.7,0.8,7.9,2.4s3.6,4,4.1,7.1
	l-4.9,0.8c-0.5-2-1.3-3.5-2.5-4.6c-1.1-1-2.6-1.5-4.4-1.5c-2.9,0-5,1-6.5,3s-2.2,4.8-2.2,8.5s0.7,6.6,2.2,8.6c1.4,2,3.5,3,6.3,3
	c2.2,0,3.9-0.6,5.2-1.9c1.2-1.2,2-3.1,2.4-5.7L904.6,296.2z"/>
<path class="st6" d="M904.6,296.2c-0.7,3.8-2.2,6.6-4.5,8.4c-2.4,1.8-5,2.7-8,2.7c-4.4,0-7.7-1.4-10.1-4.3
	c-2.4-2.9-3.6-6.6-3.6-11.4c0-3.9,0.7-7,2-9.4c1.4-2.3,3.1-4,5.2-5c2.1-1,4.2-1.4,6.5-1.4c3.1,0,5.7,0.8,7.9,2.4s3.6,4,4.1,7.1
	l-4.9,0.8c-0.5-2-1.3-3.5-2.5-4.6c-1.1-1-2.6-1.5-4.4-1.5c-2.9,0-5,1-6.5,3s-2.2,4.8-2.2,8.5s0.7,6.6,2.2,8.6c1.4,2,3.5,3,6.3,3
	c2.2,0,3.9-0.6,5.2-1.9c1.2-1.2,2-3.1,2.4-5.7L904.6,296.2z"/>
<path class="st2" d="M932.1,288.6c-0.2-3.1-1.2-5.3-2.8-6.6c-1.7-1.3-3.5-2-5.6-2c-2.4,0-4.4,0.8-5.9,2.4s-2.4,3.7-2.7,6.2H932.1z
	 M937.4,292.8h-22.5c0.2,3.3,1.2,5.9,2.8,7.6c1.7,1.8,3.8,2.6,6.3,2.6c2,0,3.6-0.5,4.9-1.5c1.3-1,2.3-2.6,3-4.7l5.2,0.7
	c-0.8,3.1-2.4,5.5-4.7,7.2s-5.1,2.5-8.5,2.5c-4.5,0-8-1.4-10.6-4.1c-2.5-2.8-3.8-6.5-3.8-11.4c0-4.7,1.2-8.6,3.7-11.5
	s5.9-4.4,10.4-4.4c2.2,0,4.3,0.5,6.3,1.4c2,1,3.8,2.6,5.2,4.9C936.7,284.5,937.4,288,937.4,292.8z"/>
<path class="st6" d="M932.1,288.6c-0.2-3.1-1.2-5.3-2.8-6.6c-1.7-1.3-3.5-2-5.6-2c-2.4,0-4.4,0.8-5.9,2.4s-2.4,3.7-2.7,6.2H932.1z
	 M937.4,292.8h-22.5c0.2,3.3,1.2,5.9,2.8,7.6c1.7,1.8,3.8,2.6,6.3,2.6c2,0,3.6-0.5,4.9-1.5c1.3-1,2.3-2.6,3-4.7l5.2,0.7
	c-0.8,3.1-2.4,5.5-4.7,7.2s-5.1,2.5-8.5,2.5c-4.5,0-8-1.4-10.6-4.1c-2.5-2.8-3.8-6.5-3.8-11.4c0-4.7,1.2-8.6,3.7-11.5
	s5.9-4.4,10.4-4.4c2.2,0,4.3,0.5,6.3,1.4c2,1,3.8,2.6,5.2,4.9C936.7,284.5,937.4,288,937.4,292.8z"/>
<path class="st2" d="M962.6,284.9c-0.2-1.6-0.9-2.9-2-3.7c-1.1-0.8-2.6-1.2-4.6-1.2c-1.9,0-3.5,0.3-4.7,1s-1.8,1.6-1.8,2.9
	c0,1.2,0.5,2,1.4,2.6c0.9,0.5,2.8,1.1,5.7,1.9c3.2,0.8,5.5,1.5,7.1,2.2c1.6,0.6,2.8,1.5,3.7,2.6s1.3,2.7,1.3,4.7
	c0,2.7-1.1,4.9-3.3,6.8c-2.2,1.8-5.1,2.7-8.8,2.7c-3.8,0-6.8-0.8-8.9-2.4c-2.1-1.6-3.5-4-4-7.3l5.1-0.8c0.3,2.1,1,3.7,2.3,4.7
	s3.1,1.6,5.4,1.6c2.2,0,3.9-0.5,5.1-1.4c1.2-0.9,1.8-2.1,1.8-3.4c0-0.9-0.3-1.6-0.8-2.2c-0.6-0.5-1.2-1-2-1.2
	c-0.8-0.3-2.7-0.8-5.6-1.5c-4.3-1-7.1-2.3-8.4-3.7c-1.4-1.5-2.1-3.2-2.1-5.2c0-2.5,1-4.6,3-6.2s4.7-2.4,8.1-2.4
	c3.6,0,6.4,0.7,8.4,2.1s3.2,3.5,3.6,6.3L962.6,284.9z"/>
<path class="st6" d="M962.6,284.9c-0.2-1.6-0.9-2.9-2-3.7c-1.1-0.8-2.6-1.2-4.6-1.2c-1.9,0-3.5,0.3-4.7,1s-1.8,1.6-1.8,2.9
	c0,1.2,0.5,2,1.4,2.6c0.9,0.5,2.8,1.1,5.7,1.9c3.2,0.8,5.5,1.5,7.1,2.2c1.6,0.6,2.8,1.5,3.7,2.6s1.3,2.7,1.3,4.7
	c0,2.7-1.1,4.9-3.3,6.8c-2.2,1.8-5.1,2.7-8.8,2.7c-3.8,0-6.8-0.8-8.9-2.4c-2.1-1.6-3.5-4-4-7.3l5.1-0.8c0.3,2.1,1,3.7,2.3,4.7
	s3.1,1.6,5.4,1.6c2.2,0,3.9-0.5,5.1-1.4c1.2-0.9,1.8-2.1,1.8-3.4c0-0.9-0.3-1.6-0.8-2.2c-0.6-0.5-1.2-1-2-1.2
	c-0.8-0.3-2.7-0.8-5.6-1.5c-4.3-1-7.1-2.3-8.4-3.7c-1.4-1.5-2.1-3.2-2.1-5.2c0-2.5,1-4.6,3-6.2s4.7-2.4,8.1-2.4
	c3.6,0,6.4,0.7,8.4,2.1s3.2,3.5,3.6,6.3L962.6,284.9z"/>
<polygon class="st2" points="458.7,368 428.7,368 428.7,385.1 454.7,385.1 454.7,391.7 428.7,391.7 428.7,416.8 421.3,416.8 
	421.3,361.4 458.7,361.4 "/>
<polygon class="st5" points="458.7,368 428.7,368 428.7,385.1 454.7,385.1 454.7,391.7 428.7,391.7 428.7,416.8 421.3,416.8 
	421.3,361.4 458.7,361.4 "/>
<path class="st2" d="M504.3,377.7c-0.3-3.5-1.6-6.2-3.8-7.9c-2.2-1.8-5.5-2.7-9.6-2.7c-3.8,0-6.9,0.7-9.2,2.1
	c-2.4,1.4-3.6,3.5-3.6,6.2c0,2.4,0.9,4.2,2.7,5.3c1.8,1.2,5.3,2.3,10.5,3.5c4.6,1,8.3,2,11.2,3.1c2.9,1.1,5.4,2.7,7.4,4.9
	c2.1,2.2,3.1,5.2,3.1,9c0,4.8-1.9,8.7-5.7,11.9c-3.8,3.1-8.7,4.7-14.9,4.7c-7.8,0-13.6-1.7-17.5-5.2s-5.9-8-6.2-13.5l7-0.6
	c0.3,4.4,2,7.7,5.1,9.7s6.8,3,11.2,3.1c4.1,0,7.4-0.8,9.9-2.5s3.8-4,3.8-6.9c0-3-1.3-5.2-4-6.6c-2.6-1.4-7.1-2.7-13.3-4.1
	c-6.2-1.3-10.7-3.2-13.5-5.7s-4.1-5.6-4.1-9.5c0-4.4,1.7-8.1,5.2-11s8.2-4.3,14.2-4.3c6.1,0,11.1,1.4,14.8,4.3c3.7,2.9,5.7,7,6,12.3
	L504.3,377.7z"/>
<path class="st5" d="M504.3,377.7c-0.3-3.5-1.6-6.2-3.8-7.9c-2.2-1.8-5.5-2.7-9.6-2.7c-3.8,0-6.9,0.7-9.2,2.1
	c-2.4,1.4-3.6,3.5-3.6,6.2c0,2.4,0.9,4.2,2.7,5.3c1.8,1.2,5.3,2.3,10.5,3.5c4.6,1,8.3,2,11.2,3.1c2.9,1.1,5.4,2.7,7.4,4.9
	c2.1,2.2,3.1,5.2,3.1,9c0,4.8-1.9,8.7-5.7,11.9c-3.8,3.1-8.7,4.7-14.9,4.7c-7.8,0-13.6-1.7-17.5-5.2s-5.9-8-6.2-13.5l7-0.6
	c0.3,4.4,2,7.7,5.1,9.7s6.8,3,11.2,3.1c4.1,0,7.4-0.8,9.9-2.5s3.8-4,3.8-6.9c0-3-1.3-5.2-4-6.6c-2.6-1.4-7.1-2.7-13.3-4.1
	c-6.2-1.3-10.7-3.2-13.5-5.7s-4.1-5.6-4.1-9.5c0-4.4,1.7-8.1,5.2-11s8.2-4.3,14.2-4.3c6.1,0,11.1,1.4,14.8,4.3c3.7,2.9,5.7,7,6,12.3
	L504.3,377.7z"/>
<path class="st2" d="M573,399.2c-1.6,6.2-4.4,10.8-8.4,13.9c-4,3-8.8,4.6-14.5,4.6c-9.1,0-15.7-2.8-19.8-8.5s-6.2-12.5-6.2-20.5
	c0-8.8,2.4-15.7,7.3-20.7c4.9-5,11.1-7.5,18.8-7.5c5.4,0,10,1.4,13.8,4.1s6.5,6.8,8.1,12l-7.2,1.7c-1.2-3.9-3.1-6.7-5.5-8.7
	c-2.5-1.9-5.6-2.9-9.3-2.9c-6,0-10.6,2-13.8,5.9c-3.1,4-4.7,9.3-4.7,16c0,7.7,1.6,13.4,4.9,17.2c3.3,3.8,7.6,5.6,12.9,5.6
	c4.3,0,7.8-1.2,10.5-3.5s4.6-5.9,5.7-10.6L573,399.2z"/>
<path class="st5" d="M573,399.2c-1.6,6.2-4.4,10.8-8.4,13.9c-4,3-8.8,4.6-14.5,4.6c-9.1,0-15.7-2.8-19.8-8.5s-6.2-12.5-6.2-20.5
	c0-8.8,2.4-15.7,7.3-20.7c4.9-5,11.1-7.5,18.8-7.5c5.4,0,10,1.4,13.8,4.1s6.5,6.8,8.1,12l-7.2,1.7c-1.2-3.9-3.1-6.7-5.5-8.7
	c-2.5-1.9-5.6-2.9-9.3-2.9c-6,0-10.6,2-13.8,5.9s-4.7,9.3-4.7,16c0,7.7,1.6,13.4,4.9,17.2c3.3,3.8,7.6,5.6,12.9,5.6
	c4.3,0,7.8-1.2,10.5-3.5s4.6-5.9,5.7-10.6L573,399.2z"/>
<path class="st2" d="M589.9,374.6h3c1.4,0,2.3-0.2,2.9-0.6c0.5-0.4,0.8-1,0.8-1.7s-0.3-1.3-0.8-1.7c-0.5-0.4-1.6-0.6-3.1-0.6h-2.8
	L589.9,374.6L589.9,374.6z M600.3,383.2h-3c-1.9-3.5-3.1-5.4-3.7-5.9c-0.6-0.4-1.3-0.7-2.2-0.7h-1.5v6.5h-2.5v-15.3h5.3
	c1.6,0,2.8,0.1,3.7,0.3c0.9,0.2,1.6,0.7,2.1,1.4c0.5,0.7,0.8,1.5,0.8,2.4c0,1-0.4,2-1.1,2.9c-0.8,0.9-1.8,1.3-3.2,1.4v0.1
	c0.9,0.2,2.1,1.5,3.6,3.8L600.3,383.2z M593.7,387.2c3.3,0,6.1-1.2,8.4-3.5c2.3-2.3,3.5-5.1,3.5-8.4s-1.2-6.1-3.5-8.4
	s-5.1-3.5-8.4-3.5c-3.3,0-6.1,1.2-8.4,3.5c-2.3,2.3-3.5,5.1-3.5,8.4s1.2,6.1,3.5,8.4S590.4,387.2,593.7,387.2z M593.7,361.1
	c3.9,0,7.2,1.4,10,4.2s4.2,6.1,4.2,10.1c0,3.9-1.4,7.3-4.2,10.1c-2.8,2.8-6.1,4.2-10.1,4.2c-3.9,0-7.3-1.4-10.1-4.2
	c-2.8-2.8-4.2-6.1-4.2-10.1c0-3.9,1.4-7.3,4.2-10C586.4,362.5,589.8,361.1,593.7,361.1z"/>
<path class="st7" d="M589.9,374.6h3c1.4,0,2.3-0.2,2.9-0.6c0.5-0.4,0.8-1,0.8-1.7s-0.3-1.3-0.8-1.7c-0.5-0.4-1.6-0.6-3.1-0.6h-2.8
	L589.9,374.6L589.9,374.6z M600.3,383.2h-3c-1.9-3.5-3.1-5.4-3.7-5.9c-0.6-0.4-1.3-0.7-2.2-0.7h-1.5v6.5h-2.5v-15.3h5.3
	c1.6,0,2.8,0.1,3.7,0.3c0.9,0.2,1.6,0.7,2.1,1.4c0.5,0.7,0.8,1.5,0.8,2.4c0,1-0.4,2-1.1,2.9c-0.8,0.9-1.8,1.3-3.2,1.4v0.1
	c0.9,0.2,2.1,1.5,3.6,3.8L600.3,383.2z M593.7,387.2c3.3,0,6.1-1.2,8.4-3.5c2.3-2.3,3.5-5.1,3.5-8.4s-1.2-6.1-3.5-8.4
	s-5.1-3.5-8.4-3.5c-3.3,0-6.1,1.2-8.4,3.5c-2.3,2.3-3.5,5.1-3.5,8.4s1.2,6.1,3.5,8.4S590.4,387.2,593.7,387.2z M593.7,361.1
	c3.9,0,7.2,1.4,10,4.2s4.2,6.1,4.2,10.1c0,3.9-1.4,7.3-4.2,10.1c-2.8,2.8-6.1,4.2-10.1,4.2c-3.9,0-7.3-1.4-10.1-4.2
	c-2.8-2.8-4.2-6.1-4.2-10.1c0-3.9,1.4-7.3,4.2-10C586.4,362.5,589.8,361.1,593.7,361.1z"/>
<path class="st2" d="M690.1,399.2c-1.6,6.2-4.4,10.8-8.4,13.9c-4,3-8.8,4.6-14.5,4.6c-9.1,0-15.7-2.8-19.8-8.5s-6.2-12.5-6.2-20.5
	c0-8.8,2.4-15.7,7.3-20.7c4.9-5,11.1-7.5,18.8-7.5c5.4,0,10,1.4,13.8,4.1s6.5,6.8,8,12l-7.2,1.7c-1.2-3.9-3.1-6.7-5.5-8.7
	c-2.5-1.9-5.6-2.9-9.3-2.9c-6,0-10.6,2-13.8,5.9c-3.1,4-4.7,9.3-4.7,16c0,7.7,1.6,13.4,4.9,17.2c3.3,3.8,7.6,5.6,12.9,5.6
	c4.3,0,7.9-1.2,10.5-3.5c2.7-2.3,4.6-5.9,5.7-10.6L690.1,399.2z"/>
<path class="st5" d="M690.1,399.2c-1.6,6.2-4.4,10.8-8.4,13.9c-4,3-8.8,4.6-14.5,4.6c-9.1,0-15.7-2.8-19.8-8.5s-6.2-12.5-6.2-20.5
	c0-8.8,2.4-15.7,7.3-20.7c4.9-5,11.1-7.5,18.8-7.5c5.4,0,10,1.4,13.8,4.1s6.5,6.8,8,12l-7.2,1.7c-1.2-3.9-3.1-6.7-5.5-8.7
	c-2.5-1.9-5.6-2.9-9.3-2.9c-6,0-10.6,2-13.8,5.9s-4.7,9.3-4.7,16c0,7.7,1.6,13.4,4.9,17.2c3.3,3.8,7.6,5.6,12.9,5.6
	c4.3,0,7.9-1.2,10.5-3.5c2.7-2.3,4.6-5.9,5.7-10.6L690.1,399.2z"/>
<path class="st2" d="M725.1,416.8h-6.8v-43.3c-3.4,3.2-8,6-13.6,8.2v-6.6c7.8-3.8,13.2-8.4,16-13.9h4.4L725.1,416.8L725.1,416.8z"/>
<path class="st5" d="M725.1,416.8h-6.8v-43.3c-3.4,3.2-8,6-13.6,8.2v-6.6c7.8-3.8,13.2-8.4,16-13.9h4.4L725.1,416.8L725.1,416.8z"/>
<path class="st2" d="M771.5,386.8c3.4,0.7,6,2.3,7.7,4.9s2.6,5.5,2.6,8.7c0,5-1.8,9.2-5.5,12.4c-3.7,3.2-8.1,4.8-13.2,4.9
	c-4.9,0-8.9-1.4-12.1-4.3c-3.2-2.8-5-6.6-5.6-11.3l6.8-0.9c0.7,3.7,1.9,6.4,3.7,8.2c1.8,1.8,4.2,2.7,7.1,2.7c3.2,0,5.9-1.1,8.1-3.3
	c2.2-2.2,3.3-4.9,3.3-8.2c0-3.1-1-5.7-3-7.7s-4.6-3.1-7.9-3.1c-1.3,0-2.9,0.2-4.8,0.7l0.8-6c1.8,0,3.2-0.1,4.3-0.3
	c1.1-0.2,2.2-0.6,3.6-1.3c1.3-0.7,2.4-1.6,3.2-2.9c0.9-1.3,1.3-2.8,1.3-4.8c0-2.7-0.9-4.9-2.7-6.4s-3.9-2.3-6.3-2.3
	c-2.8,0-5,0.9-6.7,2.6s-2.8,4.2-3.3,7.4l-6.8-1.2c0.9-4.8,2.8-8.4,5.8-10.8s6.6-3.6,10.8-3.6c4.6,0,8.5,1.4,11.5,4.2
	c3.1,2.8,4.6,6.2,4.7,10.2c0,5.2-2.5,8.9-7.6,11.1v0.4H771.5z"/>
<path class="st5" d="M771.5,386.8c3.4,0.7,6,2.3,7.7,4.9s2.6,5.5,2.6,8.7c0,5-1.8,9.2-5.5,12.4c-3.7,3.2-8.1,4.8-13.2,4.9
	c-4.9,0-8.9-1.4-12.1-4.3c-3.2-2.8-5-6.6-5.6-11.3l6.8-0.9c0.7,3.7,1.9,6.4,3.7,8.2c1.8,1.8,4.2,2.7,7.1,2.7c3.2,0,5.9-1.1,8.1-3.3
	c2.2-2.2,3.3-4.9,3.3-8.2c0-3.1-1-5.7-3-7.7s-4.6-3.1-7.9-3.1c-1.3,0-2.9,0.2-4.8,0.7l0.8-6c1.8,0,3.2-0.1,4.3-0.3
	c1.1-0.2,2.2-0.6,3.6-1.3c1.3-0.7,2.4-1.6,3.2-2.9c0.9-1.3,1.3-2.8,1.3-4.8c0-2.7-0.9-4.9-2.7-6.4s-3.9-2.3-6.3-2.3
	c-2.8,0-5,0.9-6.7,2.6s-2.8,4.2-3.3,7.4l-6.8-1.2c0.9-4.8,2.8-8.4,5.8-10.8s6.6-3.6,10.8-3.6c4.6,0,8.5,1.4,11.5,4.2
	c3.1,2.8,4.6,6.2,4.7,10.2c0,5.2-2.5,8.9-7.6,11.1v0.4H771.5z"/>
<path class="st2" d="M817.3,416.8h-6.8v-43.3c-3.4,3.2-8,6-13.6,8.2v-6.6c7.8-3.8,13.2-8.4,16-13.9h4.4L817.3,416.8L817.3,416.8z"/>
<path class="st5" d="M817.3,416.8h-6.8v-43.3c-3.4,3.2-8,6-13.6,8.2v-6.6c7.8-3.8,13.2-8.4,16-13.9h4.4L817.3,416.8L817.3,416.8z"/>
<path class="st2" d="M863.4,416.8h-6.8v-43.3c-3.4,3.2-7.9,6-13.6,8.2v-6.6c7.8-3.8,13.2-8.4,16-13.9h4.4L863.4,416.8L863.4,416.8z"
	/>
<path class="st5" d="M863.4,416.8h-6.8v-43.3c-3.4,3.2-7.9,6-13.6,8.2v-6.6c7.8-3.8,13.2-8.4,16-13.9h4.4L863.4,416.8L863.4,416.8z"
	/>
<path class="st2" d="M909.8,386.8c3.4,0.7,6,2.3,7.8,4.9c1.7,2.6,2.6,5.5,2.6,8.7c0,5-1.8,9.2-5.5,12.4c-3.7,3.2-8.1,4.8-13.2,4.9
	c-4.9,0-8.9-1.4-12.1-4.3c-3.2-2.8-5-6.6-5.6-11.3l6.8-0.9c0.7,3.7,1.9,6.4,3.7,8.2c1.8,1.8,4.2,2.7,7.1,2.7c3.2,0,5.9-1.1,8-3.3
	c2.2-2.2,3.3-4.9,3.3-8.2c0-3.1-1-5.7-3-7.7s-4.6-3.1-7.9-3.1c-1.3,0-2.9,0.2-4.8,0.7l0.8-6c1.8,0,3.2-0.1,4.3-0.3
	c1.1-0.2,2.2-0.6,3.5-1.3c1.3-0.7,2.4-1.6,3.3-2.9c0.9-1.3,1.3-2.8,1.3-4.8c0-2.7-0.9-4.9-2.7-6.4s-3.9-2.3-6.4-2.3
	c-2.7,0-5,0.9-6.7,2.6s-2.8,4.2-3.3,7.4l-6.8-1.2c0.9-4.8,2.8-8.4,5.8-10.8s6.6-3.6,10.8-3.6c4.6,0,8.5,1.4,11.5,4.2
	c3.1,2.8,4.6,6.2,4.6,10.2c0,5.2-2.5,8.9-7.6,11.1v0.4H909.8z"/>
<path class="st5" d="M909.8,386.8c3.4,0.7,6,2.3,7.8,4.9c1.7,2.6,2.6,5.5,2.6,8.7c0,5-1.8,9.2-5.5,12.4c-3.7,3.2-8.1,4.8-13.2,4.9
	c-4.9,0-8.9-1.4-12.1-4.3c-3.2-2.8-5-6.6-5.6-11.3l6.8-0.9c0.7,3.7,1.9,6.4,3.7,8.2c1.8,1.8,4.2,2.7,7.1,2.7c3.2,0,5.9-1.1,8-3.3
	c2.2-2.2,3.3-4.9,3.3-8.2c0-3.1-1-5.7-3-7.7s-4.6-3.1-7.9-3.1c-1.3,0-2.9,0.2-4.8,0.7l0.8-6c1.8,0,3.2-0.1,4.3-0.3
	c1.1-0.2,2.2-0.6,3.5-1.3c1.3-0.7,2.4-1.6,3.3-2.9c0.9-1.3,1.3-2.8,1.3-4.8c0-2.7-0.9-4.9-2.7-6.4s-3.9-2.3-6.4-2.3
	c-2.7,0-5,0.9-6.7,2.6s-2.8,4.2-3.3,7.4l-6.8-1.2c0.9-4.8,2.8-8.4,5.8-10.8s6.6-3.6,10.8-3.6c4.6,0,8.5,1.4,11.5,4.2
	c3.1,2.8,4.6,6.2,4.6,10.2c0,5.2-2.5,8.9-7.6,11.1v0.4H909.8z"/>
<path class="st2" d="M951.7,397.3v-25h-0.2l-17.2,25H951.7z M966,403.6h-7.5v13.2h-6.8v-13.2h-24v-6.3l25.2-35.9h5.6v35.9h7.5V403.6
	z"/>
<path class="st5" d="M951.7,397.3v-25h-0.2l-17.2,25H951.7z M966,403.6h-7.5v13.2h-6.8v-13.2h-24v-6.3l25.2-35.9h5.6v35.9h7.5V403.6
	z"/>
</svg>
