<?xml version="1.0" encoding="utf-8"?>
<!-- Generator: Adobe Illustrator 27.0.1, SVG Export Plug-In . SVG Version: 6.00 Build 0)  -->
<svg version="1.1" id="Calque_1" xmlns="http://www.w3.org/2000/svg" xmlns:xlink="http://www.w3.org/1999/xlink" x="0px" y="0px"
	 viewBox="0 0 193.8 209.2" style="enable-background:new 0 0 193.8 209.2;" xml:space="preserve">
<style type="text/css">
	.st0{fill-rule:evenodd;clip-rule:evenodd;fill:#FFFFFF;}
</style>
<path class="st0" d="M35.7,99.8L34,100c-0.2,0-0.4,0.2-0.3,0.5l0.7,5.2l-11.7,1.7c-0.2,0-0.3,0.2-0.3,0.4l0.3,1.9
	c0,0.2,0.3,0.4,0.5,0.4l13.7-1.9c0.2,0,0.4-0.2,0.3-0.5l-1-7.5C36.2,99.9,36,99.8,35.7,99.8z"/>
<path class="st0" d="M31.2,93.8l-4.4-2.3v-0.1l4.7-1.8L31.2,93.8z M36.3,85.2l-14.6,5.4c-0.1,0.1-0.2,0.1-0.2,0.4v0.2
	c0,0.2,0.1,0.3,0.2,0.4L35.3,99c0.3,0.1,0.6,0,0.6-0.3l0.1-1.8c0-0.3-0.2-0.5-0.4-0.6L33.5,95l0.5-6.2l2.3-0.9
	c0.3-0.1,0.4-0.3,0.4-0.6l0.1-1.8C36.8,85.2,36.6,85.1,36.3,85.2z"/>
<path class="st0" d="M25,73.9l-1.4,4.5c0,0.2,0.1,0.5,0.3,0.5l13.3,4c0.2,0.1,0.4,0,0.5-0.2l1.5-4.8c0.7-2.4-0.3-4.8-2.6-5.5
	c-1.9-0.6-3.2,0.4-4,1.4h-0.1c-0.2-1.2-1-2.5-2.5-2.9C27.9,70.2,25.8,71.5,25,73.9z M29.6,73.6c1,0.3,1.6,1.2,1.3,2.2L30.2,78
	l-3.5-1l0.7-2.2C27.7,73.8,28.6,73.3,29.6,73.6z M35.4,75c1.1,0.3,1.6,1.3,1.3,2.3l-0.8,2.4l-3.6-1.1l0.8-2.5
	C33.5,75.2,34.4,74.7,35.4,75z"/>
<path class="st0" d="M32.5,57.2c-2.2,3.6-1.1,8.1,2.5,10.3s8.2,1.1,10.3-2.4c2.2-3.5,1.2-8.1-2.4-10.3
	C39.3,52.6,34.7,53.7,32.5,57.2z M41.5,57.1c2.2,1.4,3,4.3,1.5,6.6c-1.3,2.2-4.4,2.9-6.6,1.6c-2.2-1.4-3-4.3-1.6-6.6
	C36.2,56.4,39.2,55.7,41.5,57.1z"/>
<path class="st0" d="M50.3,43.6c0.8,0.9,0.8,2.2,0,3l-2.5,2.3l-2.9-3l2.5-2.3C48.2,42.8,49.5,42.8,50.3,43.6z M45.8,41.5l-4.4,4.1
	c-0.2,0.2-0.2,0.4,0,0.6l9.6,10c0.1,0.2,0.4,0.2,0.6,0l1.4-1.3c0.2-0.1,0.2-0.4,0-0.6l-3.7-3.8l1.7-1.6l5.9,2c0.1,0,0.2,0,0.4-0.1
	l1.6-1.4c0.3-0.3,0.1-0.6-0.2-0.7L53,46.9c0.8-1.8,0.6-3.8-0.7-5.2C50.5,39.9,47.6,39.9,45.8,41.5z"/>
<path class="st0" d="M65.8,39.1l-3.7,2.1l-0.5-5h0.1L65.8,39.1z M59.1,31.7l-0.2,0.1c-0.2,0.1-0.2,0.3-0.2,0.4l1.4,15.3
	c0,0.3,0.3,0.5,0.6,0.3l1.6-0.9c0.3-0.2,0.4-0.5,0.3-0.7l-0.3-2.5l5.5-3.1l2,1.5c0.3,0.2,0.5,0.2,0.7,0l1.6-0.9
	c0.3-0.2,0.3-0.5,0-0.6l-12.7-8.9C59.4,31.6,59.3,31.6,59.1,31.7z"/>
<path class="st0" d="M77.1,24.4l-8.7,2.9c-0.2,0.1-0.3,0.3-0.2,0.5l0.5,1.6c0.1,0.2,0.3,0.3,0.5,0.2l3-1l3.7,11
	c0.1,0.2,0.3,0.3,0.5,0.2l1.9-0.6c0.2-0.1,0.3-0.3,0.3-0.5l-3.8-11l3-1c0.2-0.1,0.3-0.3,0.3-0.5l-0.6-1.6
	C77.6,24.4,77.4,24.3,77.1,24.4z"/>
<path class="st0" d="M89.7,22.1c-4.2,0.4-7.2,4-6.8,8.1c0.4,4.1,4,7.1,8.2,6.7c4.1-0.3,7.2-3.9,6.8-8C97.6,24.7,93.9,21.7,89.7,22.1
	z M95.2,29.1c0.2,2.6-1.7,4.9-4.4,5.2c-2.6,0.2-5-1.7-5.2-4.3s1.7-4.9,4.3-5.2C92.6,24.5,95,26.5,95.2,29.1z"/>
<path class="st0" d="M109.7,25.6c1.1,0.2,1.9,1.3,1.7,2.3c-0.2,1.2-1.3,1.9-2.5,1.7l-3.3-0.5l0.7-4.1L109.7,25.6z M104,22.5
	L101.7,36c0,0.2,0.1,0.4,0.3,0.4l1.9,0.3c0.2,0,0.4-0.1,0.4-0.3l0.9-5.2l2.3,0.4l1.9,5.9c0,0.1,0.1,0.2,0.3,0.3l2.2,0.4
	c0.3,0,0.6-0.3,0.5-0.6l-2-5.7c1.9-0.4,3.4-1.8,3.7-3.6c0.4-2.4-1.3-4.7-3.8-5.2l-5.9-0.9C104.2,22.2,104,22.3,104,22.5z"/>
<path class="st0" d="M119.2,25.7l1.8,8.2l-2.5,6.1c-0.1,0.2,0,0.4,0.2,0.5l1.8,0.7c0.2,0.1,0.5,0,0.5-0.2l2.5-6.1l7.2-4.6
	c0.2-0.2,0.2-0.6-0.1-0.6l-2-0.8c-0.2-0.1-0.3,0-0.4,0.1l-4.9,3.1l-1.3-5.7c0-0.1-0.1-0.2-0.3-0.3l-2-0.8
	C119.4,25.1,119.1,25.4,119.2,25.7z"/>
<path class="st0" d="M138.9,35.1l-1.1,1.3c-0.1,0.2-0.1,0.4,0.1,0.6l2.5,2l-7.3,9.2c-0.1,0.2-0.1,0.4,0.1,0.5l1.5,1.2
	c0.2,0.1,0.4,0.1,0.6-0.1l7.3-9.1l2.5,1.9c0.2,0.2,0.4,0.1,0.6-0.1l1-1.3c0.1-0.1,0.1-0.4,0-0.5l-7.2-5.6
	C139.3,34.8,139.1,34.9,138.9,35.1z"/>
<path class="st0" d="M150.8,45.1L140.3,54c-0.1,0.1-0.2,0.4,0,0.6l5.5,6.4c0.1,0.2,0.4,0.2,0.6,0l1.3-1.1c0.2-0.1,0.2-0.3,0-0.6
	l-4-4.7l2.8-2.3l3.3,3.9c0.1,0.2,0.4,0.2,0.6,0l1.3-1.1c0.2-0.1,0.2-0.4,0-0.6l-3.4-3.9l2.6-2.2l4,4.7c0.2,0.2,0.4,0.2,0.5,0
	l1.3-1.1c0.1-0.1,0.2-0.4,0-0.6l-5.6-6.4C151.2,45,151,44.9,150.8,45.1z"/>
<path class="st0" d="M156.9,58c-2.2,1.2-2.3,3.5-2.1,5.6c0.2,1.9,0,3-0.9,3.5c-0.8,0.5-1.8,0.1-2.3-0.9c-0.7-1.2-0.6-2.3-0.5-3.3
	c0.1-0.3-0.1-0.6-0.4-0.6h-1.5c-0.4,0-0.5,0.1-0.5,0.4c-0.2,0.8-0.5,2.5,0.8,4.8c1.4,2.6,4,3.2,5.9,2.1c2.4-1.3,2.3-3.9,2-6
	c-0.2-1.8,0-2.8,0.9-3.3c0.7-0.4,1.6-0.1,2.1,0.9c0.6,1,0.5,2,0.4,3.1c0,0.3,0.3,0.5,0.6,0.5l1.4,0.1c0.3,0,0.5-0.2,0.5-0.5
	c0.1-0.5,0.2-2.4-0.8-4.3C161.1,57.3,158.5,57.1,156.9,58z"/>
<path class="st0" d="M166.4,68.9l-1.7,0.5c-0.2,0.1-0.3,0.3-0.2,0.5l1,3l-11.2,3.5c-0.2,0.1-0.3,0.3-0.3,0.5l0.6,1.8
	c0.1,0.2,0.3,0.4,0.5,0.3l11.2-3.6l1,3c0.1,0.2,0.3,0.3,0.5,0.3l1.6-0.5c0.2-0.1,0.3-0.3,0.3-0.5l-2.8-8.6
	C166.9,68.9,166.6,68.8,166.4,68.9z"/>
<path class="st0" d="M156.8,85.4c-0.2,0-0.3,0.2-0.3,0.4l0.9,8.4c0,0.2,0.2,0.4,0.4,0.4l1.7-0.2c0.2,0,0.3-0.2,0.3-0.4l-0.6-6.1
	l3.6-0.4l0.6,5.1c0,0.2,0.2,0.4,0.4,0.3l1.7-0.2c0.2,0,0.4-0.2,0.4-0.4l-0.6-5.1l3.4-0.3l0.7,6.1c0,0.2,0.3,0.4,0.4,0.3l1.7-0.2
	c0.2,0,0.4-0.2,0.4-0.4l-0.9-8.4c0-0.2-0.2-0.4-0.5-0.3L156.8,85.4z"/>
<path class="st0" d="M169.2,101.8l-0.3,2.4c-0.3,2.7-2.5,4.4-5.3,4.1c-2.9-0.4-4.5-2.5-4.2-5.2l0.3-2.3L169.2,101.8z M157.5,98.1
	l-0.6,4.8c-0.5,4,2.4,7.6,6.4,8.1s7.7-2.4,8.1-6.3l0.6-4.9c0-0.2-0.2-0.4-0.4-0.5l-13.7-1.6C157.7,97.8,157.5,97.9,157.5,98.1z"/>
<polygon class="st0" points="33.7,122.7 26.5,123.8 31.7,128.8 30.4,136 37,132.6 43.5,136 42.3,128.8 47.5,123.8 40.2,122.7 
	37,116.2 "/>
<polygon class="st0" points="153.5,122.8 146.3,123.9 151.6,128.9 150.3,136 156.8,132.7 163.3,136 162,128.9 167.3,123.9 
	160.1,122.8 156.8,116.3 "/>
<polygon class="st0" points="49.7,142.3 40.3,143.7 47.1,150.2 45.5,159.5 53.9,155.1 62.3,159.5 60.7,150.2 67.5,143.7 58.1,142.3 
	53.9,133.9 "/>
<polygon class="st0" points="135.6,140.9 126.2,142.3 133,148.9 131.4,158.1 139.8,153.7 148.2,158.1 146.6,148.9 153.4,142.3 
	144,141 139.8,132.5 "/>
<polygon class="st0" points="86.5,167.5 63.2,170.8 80,187 76,209.8 96.8,199 117.6,209.8 113.7,187 130.5,170.8 107.3,167.5 
	96.9,146.7 "/>
<path class="st0" d="M80.7,129.1c-4.4-11.6-11.4-27.5-22.9-32.4c6.8-0.8,17.3,4.1,21.6,11.3c13.5-29.2,47-33.9,47.4-33.8
	C104,83.1,83.9,111.1,80.7,129.1z M54.2,96.2c0,23.2,19.1,42.1,42.6,42.2c23.5,0,42.7-18.8,42.7-42.1s-19.1-42.2-42.6-42.2
	C73.4,54.1,54.3,72.9,54.2,96.2z"/>
<path class="st0" d="M0,96.1c0,45.4,32,83.4,74.9,93.3l0.2-0.9L53.7,168C29,153.4,12.3,126.7,12.3,96.1c0-46.1,38-83.5,84.7-83.5
	c46.6,0,84.5,37.5,84.5,83.6c0,30.5-16.7,57.2-41.5,71.8l-21.4,20.5l0.1,0.9c42.9-9.8,75-47.8,75.1-93.2c0-52.8-43.4-95.7-96.8-95.8
	C43.5,0.5,0,43.4,0,96.1z"/>
<path class="st0" d="M45.7,96.2c0,26.2,20.2,47.8,46.1,50.4L93,144c-25-1.9-44.7-22.7-44.7-47.8c0-26.4,21.8-47.9,48.6-47.9
	s48.5,21.6,48.5,48c0,25.2-19.8,45.9-44.8,47.8l1.2,2.6c25.8-2.5,46.1-24.1,46.2-50.3c0-27.9-22.9-50.6-51.2-50.6
	C68.7,45.6,45.7,68.3,45.7,96.2z"/>
</svg>
