<?xml version="1.0" encoding="utf-8"?>
<!-- Generator: Adobe Illustrator 27.0.1, SVG Export Plug-In . SVG Version: 6.00 Build 0)  -->
<svg version="1.1" id="Calque_1" xmlns="http://www.w3.org/2000/svg" xmlns:xlink="http://www.w3.org/1999/xlink" x="0px" y="0px"
	 viewBox="0 0 789 475" style="enable-background:new 0 0 789 475;" xml:space="preserve">
<style type="text/css">
	.st0{fill:none;stroke:#FFFFFF;stroke-width:4;stroke-linecap:square;stroke-miterlimit:10;}
	.st1{fill:#FFFFFF;}
</style>
<path class="st0" d="M5.3,38v399c0,18.2,14.8,33,33,33h712.3c18.2,0,33-14.8,33-33V38c0-18.2-14.8-33-33-33H38.3
	C20,5,5.3,19.8,5.3,38z"/>
<path class="st1" d="M287.9,401.2c0,0.8,0.2,1.5,0.5,2.2c0.4,0.7,0.9,1.2,1.6,1.6s1.4,0.6,2.3,0.6c1.2,0,2.2-0.4,3-1.2
	c0.8-0.8,1.2-1.8,1.2-3c0-1.3-0.4-2.3-1.2-3.1s-1.9-1.2-3.1-1.2s-2.3,0.4-3.1,1.2C288.3,399,287.9,400,287.9,401.2 M288.8,391.4
	c0,1,0.3,1.8,0.9,2.5c0.7,0.6,1.5,0.9,2.5,0.9s1.9-0.3,2.5-0.9c0.7-0.7,1-1.4,1-2.4c0-0.9-0.3-1.7-1-2.4c-0.7-0.7-1.5-1-2.5-1
	s-1.8,0.3-2.5,1C289.1,389.8,288.8,390.5,288.8,391.4z M289.3,395.8c-1.1-0.4-1.9-0.9-2.4-1.6c-0.5-0.8-0.8-1.6-0.8-2.7
	c0-1.5,0.5-2.8,1.6-3.9s2.6-1.6,4.4-1.6c1.9,0,3.3,0.6,4.5,1.6c1.1,1.1,1.7,2.4,1.7,3.9c0,1-0.3,1.8-0.8,2.6
	c-0.5,0.7-1.3,1.3-2.4,1.6c1.3,0.4,2.3,1.2,3,2.1s1,2,1,3.3c0,1.8-0.7,3.3-2,4.6c-1.3,1.2-3,1.9-5.1,1.9s-3.8-0.6-5.1-1.9
	c-1.3-1.2-1.9-2.8-1.9-4.6c0-1.4,0.3-2.5,1-3.5C287,396.8,288,396.1,289.3,395.8z M277.1,399.9v-9.6l-6.6,9.6H277.1z M277.1,407.3
	v-5.1h-9.2v-2.4l9.7-13.8h2.2v13.8h2.9v2.4h-2.9v5.1H277.1z M255,396.9c0,3.5,0.4,5.8,1.2,7c0.8,1.1,1.8,1.7,3,1.7s2.2-0.6,3-1.7
	c0.8-1.2,1.2-3.5,1.2-7s-0.4-5.8-1.2-7c-0.8-1.2-1.8-1.8-3-1.8s-2.2,0.5-2.9,1.5C255.4,391,255,393.4,255,396.9z M252.3,396.9
	c0-2.5,0.3-4.5,0.8-6.1c0.5-1.5,1.3-2.7,2.3-3.6c1-0.8,2.3-1.2,3.9-1.2c1.2,0,2.2,0.2,3,0.7c0.9,0.4,1.6,1.1,2.1,2
	c0.6,0.9,1,1.9,1.3,3.1s0.5,2.9,0.5,5c0,2.5-0.3,4.5-0.8,6s-1.3,2.7-2.3,3.6c-1,0.8-2.3,1.2-3.9,1.2c-2,0-3.6-0.7-4.8-2.2
	C253,403.7,252.3,400.9,252.3,396.9z M238.5,396.9c0,3.5,0.4,5.8,1.2,7c0.8,1.1,1.8,1.7,3,1.7s2.2-0.6,3-1.7c0.8-1.2,1.2-3.5,1.2-7
	s-0.4-5.8-1.2-7s-1.8-1.8-3-1.8s-2.2,0.5-2.9,1.5C238.9,391,238.5,393.4,238.5,396.9z M235.8,396.9c0-2.5,0.3-4.5,0.8-6.1
	c0.5-1.5,1.3-2.7,2.3-3.6c1-0.8,2.3-1.2,3.9-1.2c1.2,0,2.2,0.2,3,0.7c0.9,0.4,1.6,1.1,2.1,2s1,1.9,1.3,3.1s0.5,2.9,0.5,5
	c0,2.5-0.3,4.5-0.8,6s-1.3,2.7-2.3,3.6c-1,0.8-2.3,1.2-3.9,1.2c-2,0-3.6-0.7-4.8-2.2C236.5,403.7,235.8,400.9,235.8,396.9z
	 M225.6,401v-2.6h8v2.6H225.6z M209.4,401.8l2.7-0.3c0.2,1.3,0.7,2.4,1.4,3c0.8,0.7,1.6,1,2.7,1c1.3,0,2.3-0.5,3.2-1.4
	c0.9-1,1.3-2.2,1.3-3.8c0-1.5-0.4-2.7-1.3-3.6c-0.8-0.9-1.9-1.3-3.2-1.3c-0.9,0-1.6,0.2-2.3,0.6s-1.2,0.9-1.6,1.4l-2.4-0.3l2.1-10.9
	h10.6v2.5H214l-1.1,5.7c1.3-0.9,2.6-1.3,4-1.3c1.9,0,3.4,0.6,4.7,1.9s1.9,2.9,1.9,4.9c0,1.9-0.5,3.6-1.6,5c-1.4,1.7-3.2,2.6-5.6,2.6
	c-1.9,0-3.5-0.5-4.7-1.6C210.2,405,209.6,403.6,209.4,401.8z M192.9,401.7l2.6-0.4c0.3,1.5,0.8,2.5,1.5,3.2s1.6,1,2.7,1
	c1.2,0,2.2-0.4,3-1.2c0.9-0.9,1.3-1.9,1.3-3.2c0-1.2-0.4-2.2-1.2-2.9c-0.8-0.8-1.7-1.2-2.9-1.2c-0.5,0-1.1,0.1-1.9,0.3l0.3-2.3
	c0.2,0,0.3,0.1,0.4,0.1c1.1,0,2.1-0.3,3-0.9s1.3-1.5,1.3-2.7c0-1-0.3-1.8-1-2.4s-1.5-0.9-2.5-0.9s-1.8,0.3-2.5,1
	c-0.7,0.6-1.1,1.6-1.3,2.8l-2.6-0.5c0.3-1.8,1.1-3.1,2.2-4.1c1.1-1,2.5-1.4,4.2-1.4c1.2,0,2.2,0.3,3.2,0.8s1.8,1.2,2.3,2
	c0.5,0.9,0.8,1.8,0.8,2.7c0,0.9-0.3,1.8-0.8,2.5c-0.5,0.8-1.2,1.4-2.2,1.8c1.3,0.3,2.2,0.9,2.9,1.8s1,2,1,3.4c0,1.9-0.7,3.4-2.1,4.7
	c-1.3,1.3-3,1.9-5.1,1.9c-1.9,0-3.4-0.5-4.6-1.6C193.8,405,193.1,403.5,192.9,401.7z M182.7,401v-2.6h8v2.6H182.7z M169.1,401.2
	c0,0.8,0.2,1.5,0.5,2.2c0.4,0.7,0.9,1.2,1.6,1.6c0.7,0.4,1.4,0.6,2.3,0.6c1.2,0,2.3-0.4,3-1.2c0.8-0.8,1.2-1.8,1.2-3
	c0-1.3-0.4-2.3-1.2-3.1s-1.9-1.2-3.1-1.2c-1.2,0-2.3,0.4-3.1,1.2C169.5,399,169.1,400,169.1,401.2z M170,391.4c0,1,0.3,1.8,0.9,2.5
	c0.7,0.6,1.5,0.9,2.5,0.9s1.9-0.3,2.5-0.9c0.7-0.7,1-1.4,1-2.4c0-0.9-0.3-1.7-1-2.4c-0.7-0.7-1.5-1-2.5-1s-1.8,0.3-2.5,1
	C170.3,389.8,170,390.5,170,391.4z M170.5,395.8c-1.1-0.4-1.9-0.9-2.4-1.6c-0.5-0.8-0.8-1.6-0.8-2.7c0-1.5,0.6-2.8,1.6-3.9
	c1.1-1.1,2.6-1.6,4.4-1.6c1.9,0,3.3,0.6,4.5,1.6c1.1,1.1,1.7,2.4,1.7,3.9c0,1-0.3,1.8-0.8,2.6c-0.5,0.7-1.3,1.3-2.4,1.6
	c1.3,0.4,2.3,1.2,3,2.1s1,2,1,3.3c0,1.8-0.7,3.3-2,4.6c-1.3,1.2-3,1.9-5.1,1.9s-3.8-0.6-5.1-1.9c-1.3-1.2-1.9-2.8-1.9-4.6
	c0-1.4,0.3-2.5,1-3.5C168.2,396.8,169.2,396.1,170.5,395.8z M152.7,396.9c0,3.5,0.4,5.8,1.2,7c0.8,1.1,1.8,1.7,3,1.7s2.2-0.6,3-1.7
	c0.8-1.2,1.2-3.5,1.2-7s-0.4-5.8-1.2-7s-1.8-1.8-3-1.8s-2.2,0.5-2.9,1.5C153.1,391,152.7,393.4,152.7,396.9z M150,396.9
	c0-2.5,0.3-4.5,0.8-6.1c0.5-1.5,1.3-2.7,2.3-3.6c1-0.8,2.3-1.2,3.9-1.2c1.2,0,2.2,0.2,3,0.7c0.9,0.4,1.6,1.1,2.1,2s1,1.9,1.3,3.1
	s0.5,2.9,0.5,5c0,2.5-0.3,4.5-0.8,6s-1.3,2.7-2.3,3.6c-1,0.8-2.3,1.2-3.9,1.2c-2,0-3.6-0.7-4.8-2.2C150.7,403.7,150,400.9,150,396.9
	z M140.5,407.7l6.2-22h2.1l-6.1,22H140.5z M136.5,399.9l2.8,0.7c-0.6,2.3-1.6,4.1-3.2,5.3c-1.5,1.2-3.4,1.8-5.6,1.8
	c-2.3,0-4.1-0.5-5.6-1.4c-1.4-0.9-2.5-2.3-3.3-4c-0.7-1.8-1.1-3.7-1.1-5.7c0-2.2,0.4-4.2,1.2-5.8c0.9-1.6,2.1-2.9,3.6-3.7
	c1.6-0.9,3.3-1.3,5.2-1.3c2.1,0,3.9,0.6,5.4,1.6c1.5,1.1,2.5,2.6,3,4.5l-2.8,0.6c-0.5-1.5-1.2-2.7-2.1-3.3c-0.9-0.7-2.1-1.1-3.6-1.1
	c-1.6,0-3,0.4-4.1,1.2c-1.1,0.8-1.9,1.9-2.3,3.2c-0.4,1.3-0.7,2.6-0.7,4c0,1.8,0.3,3.4,0.8,4.8c0.5,1.3,1.4,2.3,2.5,3s2.3,1,3.6,1
	c1.6,0,2.9-0.4,4-1.3C135.4,403,136.1,401.7,136.5,399.9z M103.4,407.3v-21.2h14.3v2.5h-11.5v6.6h9.9v2.5h-9.9v9.6H103.4z
	 M83.5,407.3v-21.2h15.4v2.5H86.3v6.5H98v2.5H86.3v7.2h13v2.5H83.5z M66.4,396.2H72c1.8,0,3.1-0.3,3.8-1c0.8-0.7,1.2-1.6,1.2-2.8
	c0-0.9-0.2-1.6-0.7-2.3c-0.4-0.7-1-1.1-1.8-1.3c-0.4-0.1-1.3-0.2-2.6-0.2h-5.4L66.4,396.2L66.4,396.2z M63.6,407.3v-21.2h8
	c1.4,0,2.5,0.1,3.2,0.2c1,0.2,1.9,0.5,2.6,1s1.3,1.2,1.7,2.1c0.4,0.9,0.7,1.8,0.7,2.9c0,1.8-0.6,3.3-1.8,4.6
	c-1.1,1.2-3.2,1.9-6.2,1.9h-5.5v8.7h-2.7V407.3z"/>
<path class="st1" d="M575.1,89.5l4.1,1.3c-0.6,2.3-1.7,4-3.1,5.2c-1.5,1.1-3.4,1.7-5.7,1.7c-2.8,0-5.1-1-7-2.9
	c-1.8-1.9-2.7-4.6-2.7-7.9c0-3.5,0.9-6.2,2.7-8.2c1.9-2,4.3-2.9,7.2-2.9c2.6,0,4.7,0.8,6.3,2.3c1,0.9,1.7,2.2,2.2,3.9l-4.2,1
	c-0.2-1.1-0.8-2-1.6-2.6s-1.8-1-2.9-1c-1.6,0-2.9,0.6-3.9,1.7s-1.4,3-1.4,5.5c0,2.7,0.5,4.6,1.4,5.8c1,1.1,2.2,1.7,3.8,1.7
	c1.2,0,2.1-0.4,2.9-1.1C574.1,92.2,574.7,91.1,575.1,89.5 M543.4,97.3V76.1H558v3.6h-10.3v5h8.9v3.6h-8.9v9
	C547.7,97.3,543.4,97.3,543.4,97.3z M523.6,97.3V76.1h15.8v3.6h-11.5v4.7h10.7V88h-10.7v5.8h11.9v3.6L523.6,97.3L523.6,97.3z
	 M508.1,79.7v6h2.4c1.7,0,2.8-0.1,3.4-0.3c0.6-0.2,1-0.6,1.3-1c0.3-0.5,0.5-1,0.5-1.6c0-0.8-0.2-1.4-0.7-1.9c-0.4-0.5-1-0.8-1.8-1
	c-0.5-0.1-1.5-0.2-3.1-0.2H508.1z M503.8,97.3V76.1h6.9c2.6,0,4.3,0.1,5.1,0.3c1.2,0.3,2.2,1,3,2.1s1.2,2.5,1.2,4.2
	c0,1.3-0.2,2.4-0.7,3.2c-0.5,0.9-1.1,1.6-1.8,2.1s-1.5,0.9-2.2,1c-1,0.2-2.5,0.3-4.5,0.3H508v8C508,97.3,503.8,97.3,503.8,97.3z
	 M482.9,80.1l2-4.3h4.6l-4,4.3H482.9z M488.2,88.3c0-1.2-0.3-2.1-0.9-2.7s-1.3-0.9-2.1-0.9c-0.9,0-1.6,0.3-2.2,1s-0.9,1.5-0.8,2.6
	H488.2z M487.9,92.4l4.1,0.7c-0.5,1.5-1.3,2.6-2.5,3.4c-1.1,0.8-2.5,1.2-4.2,1.2c-2.7,0-4.7-0.9-5.9-2.6c-1-1.4-1.5-3.2-1.5-5.3
	c0-2.5,0.7-4.5,2-6c1.3-1.4,3-2.2,5-2.2c2.3,0,4.1,0.8,5.4,2.3s2,3.8,1.9,6.9H482c0,1.2,0.4,2.2,1,2.9c0.7,0.7,1.4,1,2.4,1
	c0.7,0,1.2-0.2,1.6-0.5C487.4,93.8,487.7,93.2,487.9,92.4z M470.7,97.3V81.9h4.1v15.4H470.7z M470.7,79.9v-3.8h4.1v3.8H470.7z
	 M459.1,81.9h2.3v-1.1c0-1.3,0.1-2.3,0.4-2.9s0.8-1.2,1.5-1.5c0.8-0.4,1.7-0.6,2.8-0.6c1.1,0,2.3,0.2,3.4,0.5l-0.6,2.8
	c-0.7-0.2-1.3-0.3-1.9-0.3s-1,0.1-1.3,0.4c-0.2,0.3-0.4,0.8-0.4,1.6v1.1h3v3.2h-3v12.2h-4.1V85.1h-2.3v-3.2H459.1z M452.6,97.3V81.9
	h4.1v15.4H452.6z M452.6,79.9v-3.8h4.1v3.8H452.6z M449.8,81.9v3.2H447v6.2c0,1.2,0,2,0.1,2.2s0.2,0.4,0.4,0.5
	c0.2,0.1,0.4,0.2,0.7,0.2c0.4,0,0.9-0.1,1.6-0.4l0.4,3.1c-1,0.4-2,0.6-3.2,0.6c-0.7,0-1.4-0.1-2-0.4s-1-0.6-1.3-1s-0.5-0.9-0.6-1.6
	c-0.1-0.5-0.2-1.4-0.2-2.8v-6.8H441v-3.2h1.9v-3l4.1-2.4v5.4h2.8V81.9z M435.1,97.3H431V81.9h3.8v2.2c0.7-1,1.2-1.7,1.8-2
	c0.5-0.3,1.1-0.5,1.8-0.5c0.9,0,1.8,0.2,2.7,0.7l-1.2,3.6c-0.7-0.4-1.3-0.7-1.9-0.7s-1.1,0.2-1.5,0.5s-0.7,0.9-0.9,1.7
	c-0.2,0.8-0.3,2.5-0.3,5.2v4.7H435.1z M423.9,88.3c0-1.2-0.3-2.1-0.9-2.7s-1.3-0.9-2.1-0.9c-0.9,0-1.6,0.3-2.2,1s-0.9,1.5-0.8,2.6
	H423.9z M423.6,92.4l4.1,0.7c-0.5,1.5-1.3,2.6-2.5,3.4c-1.1,0.8-2.5,1.2-4.2,1.2c-2.7,0-4.7-0.9-5.9-2.6c-1-1.4-1.5-3.2-1.5-5.3
	c0-2.5,0.7-4.5,2-6c1.3-1.4,3-2.2,5.1-2.2c2.3,0,4.1,0.8,5.4,2.3s2,3.8,1.9,6.9h-10.2c0,1.2,0.4,2.2,1,2.9c0.7,0.7,1.4,1,2.4,1
	c0.7,0,1.2-0.2,1.6-0.5C423.1,93.8,423.4,93.2,423.6,92.4z M406.9,89.5l4.1,1.3c-0.6,2.3-1.7,4-3.1,5.2c-1.5,1.1-3.4,1.7-5.7,1.7
	c-2.8,0-5.1-1-7-2.9c-1.8-1.9-2.7-4.6-2.7-7.9c0-3.5,0.9-6.2,2.7-8.2c1.9-2,4.3-2.9,7.2-2.9c2.6,0,4.7,0.8,6.3,2.3
	c1,0.9,1.7,2.2,2.2,3.9l-4.2,1c-0.2-1.1-0.8-2-1.6-2.6c-0.8-0.6-1.8-1-2.9-1c-1.6,0-2.9,0.6-3.9,1.7s-1.4,3-1.4,5.5
	c0,2.7,0.5,4.6,1.4,5.8c1,1.1,2.2,1.7,3.8,1.7c1.2,0,2.1-0.4,2.9-1.1C405.9,92.2,406.5,91.1,406.9,89.5z"/>
<path class="st1" d="M650.5,399.4c0,2,0.4,3.5,1.2,4.4s1.8,1.4,3,1.4s2.2-0.5,3-1.4s1.2-2.4,1.2-4.3s-0.4-3.3-1.3-4.3
	c-0.8-1-1.8-1.4-3-1.4s-2.2,0.5-3,1.4C650.8,396.1,650.5,397.5,650.5,399.4 M648.3,408.6l2.5,0.4c0.1,0.8,0.4,1.4,0.9,1.7
	c0.7,0.5,1.5,0.7,2.7,0.7s2.1-0.2,2.8-0.7s1.1-1.2,1.3-2c0.1-0.5,0.2-1.7,0.2-3.3c-1.1,1.3-2.5,2-4.2,2c-2.1,0-3.8-0.8-4.9-2.3
	c-1.1-1.5-1.7-3.4-1.7-5.5c0-1.5,0.3-2.8,0.8-4.1c0.6-1.2,1.3-2.2,2.3-2.8c1-0.7,2.2-1,3.6-1c1.8,0,3.3,0.7,4.5,2.2V392h2.4v13.3
	c0,2.4-0.3,4.1-0.8,5.1s-1.3,1.8-2.3,2.4s-2.3,0.9-3.9,0.9c-1.9,0-3.4-0.4-4.5-1.2C648.8,411.5,648.3,410.3,648.3,408.6z
	 M638.8,407.3v-15.4h2.4v2.4c0.6-1.1,1.1-1.8,1.6-2.2c0.5-0.3,1.1-0.5,1.7-0.5c0.9,0,1.8,0.3,2.7,0.8l-0.9,2.4
	c-0.6-0.4-1.3-0.6-1.9-0.6c-0.5,0-1.1,0.2-1.5,0.5s-0.8,0.8-1,1.4c-0.3,0.9-0.4,1.9-0.4,3v8h-2.7V407.3z M624.1,399.7
	c0,2,0.4,3.4,1.3,4.4c0.9,1,1.9,1.4,3.2,1.4s2.4-0.5,3.2-1.4c0.9-1,1.3-2.5,1.3-4.5c0-1.9-0.4-3.3-1.3-4.3c-0.9-1-1.9-1.5-3.2-1.5
	s-2.4,0.5-3.2,1.5C624.5,396.2,624.1,397.7,624.1,399.7z M621.4,399.7c0-2.9,0.8-5,2.4-6.3c1.3-1.1,3-1.7,4.8-1.7
	c2.1,0,3.9,0.7,5.2,2.1s2,3.3,2,5.7c0,2-0.3,3.6-0.9,4.7c-0.6,1.1-1.4,2-2.6,2.7c-1.1,0.6-2.4,0.9-3.7,0.9c-2.2,0-3.9-0.7-5.3-2.1
	C622,404.2,621.4,402.2,621.4,399.7z M614.8,407.3v-3h3v3H614.8z M599.6,398.2h8.6c-0.1-1.3-0.4-2.3-1-2.9c-0.8-1-1.9-1.5-3.2-1.5
	c-1.2,0-2.2,0.4-3,1.2C600.1,395.8,599.7,396.8,599.6,398.2z M608.1,402.4l2.7,0.3c-0.4,1.6-1.3,2.8-2.4,3.7
	c-1.1,0.9-2.6,1.3-4.4,1.3c-2.2,0-4-0.7-5.4-2.1c-1.3-1.4-2-3.4-2-5.9c0-2.6,0.7-4.6,2-6s3.1-2.2,5.2-2.2c2.1,0,3.7,0.7,5,2.1
	s2,3.3,2,5.9c0,0.2,0,0.4,0,0.7h-11.5c0.1,1.7,0.6,3,1.4,3.9c0.9,0.9,1.9,1.3,3.2,1.3c1,0,1.8-0.2,2.4-0.7
	C607.2,404.3,607.7,403.5,608.1,402.4z M592.8,401.7l2.6,0.3c-0.3,1.8-1,3.2-2.2,4.2s-2.6,1.5-4.3,1.5c-2.1,0-3.8-0.7-5-2.1
	c-1.3-1.4-1.9-3.3-1.9-5.9c0-1.7,0.3-3.1,0.8-4.4c0.5-1.2,1.4-2.2,2.5-2.8c1.1-0.6,2.4-0.9,3.7-0.9c1.6,0,3,0.4,4.1,1.3
	c1.1,0.8,1.8,2,2.1,3.6l-2.5,0.4c-0.2-1-0.7-1.8-1.3-2.3s-1.4-0.8-2.2-0.8c-1.3,0-2.4,0.5-3.2,1.4s-1.2,2.4-1.2,4.4
	c0,2.1,0.4,3.6,1.2,4.5s1.8,1.4,3.1,1.4c1,0,1.9-0.3,2.6-0.9C592.2,404,592.6,403,592.8,401.7z M566.3,407.3v-15.4h2.4v2.2
	c1.1-1.7,2.7-2.5,4.9-2.5c0.9,0,1.8,0.2,2.5,0.5c0.8,0.3,1.4,0.7,1.8,1.3c0.4,0.5,0.7,1.2,0.8,1.9c0.1,0.5,0.2,1.3,0.2,2.5v9.5h-2.6
	V398c0-1.1-0.1-1.9-0.3-2.4s-0.6-0.9-1.1-1.2c-0.5-0.3-1.1-0.5-1.8-0.5c-1.1,0-2.1,0.4-2.9,1.1c-0.8,0.7-1.2,2-1.2,4v8.4h-2.7V407.3
	z M559.6,399.6c-1,0.4-2.4,0.7-4.3,1c-1.1,0.2-1.8,0.4-2.3,0.6c-0.4,0.2-0.8,0.4-1,0.8s-0.4,0.8-0.4,1.2c0,0.7,0.3,1.3,0.8,1.8
	c0.5,0.4,1.3,0.7,2.3,0.7s1.9-0.2,2.7-0.7c0.8-0.4,1.4-1,1.8-1.8c0.3-0.6,0.4-1.4,0.4-2.6V399.6z M559.8,405.4
	c-1,0.8-1.9,1.4-2.8,1.8c-0.9,0.3-1.9,0.5-2.9,0.5c-1.7,0-3-0.4-3.9-1.2c-0.9-0.8-1.3-1.9-1.3-3.2c0-0.8,0.2-1.4,0.5-2.1
	c0.3-0.6,0.8-1.1,1.3-1.5c0.6-0.4,1.2-0.7,1.9-0.9c0.5-0.1,1.3-0.2,2.3-0.4c2.1-0.2,3.7-0.5,4.7-0.9c0-0.3,0-0.6,0-0.7
	c0-1.1-0.2-1.8-0.7-2.2c-0.7-0.6-1.7-0.9-3-0.9c-1.2,0-2.1,0.2-2.7,0.7c-0.6,0.4-1,1.2-1.3,2.3l-2.5-0.3c0.2-1.1,0.6-2,1.1-2.6
	c0.5-0.7,1.3-1.2,2.3-1.5c1-0.4,2.2-0.6,3.5-0.6s2.4,0.2,3.2,0.5s1.4,0.7,1.8,1.2c0.4,0.4,0.7,1,0.8,1.8c0.1,0.4,0.2,1.2,0.2,2.4
	v3.5c0,2.4,0,3.9,0.2,4.6c0.1,0.7,0.3,1.3,0.7,1.9h-2.7C560,406.8,559.9,406.2,559.8,405.4z M539.8,407.3v-15.4h2.4v2.4
	c0.6-1.1,1.1-1.8,1.6-2.2c0.5-0.3,1.1-0.5,1.7-0.5c0.9,0,1.8,0.3,2.7,0.8l-0.9,2.4c-0.6-0.4-1.3-0.6-1.9-0.6c-0.6,0-1.1,0.2-1.5,0.5
	s-0.8,0.8-1,1.4c-0.3,0.9-0.4,1.9-0.4,3v8h-2.7V407.3z M532.2,407.3V394h-2.3v-2.1h2.3v-1.6c0-1.1,0.1-1.8,0.3-2.3
	c0.3-0.7,0.7-1.2,1.3-1.6c0.7-0.4,1.5-0.6,2.7-0.6c0.7,0,1.5,0.1,2.4,0.3l-0.4,2.3c-0.5-0.1-1-0.2-1.5-0.2c-0.8,0-1.4,0.2-1.7,0.5
	s-0.5,1-0.5,1.9v1.4h3v2.1h-3v13.3L532.2,407.3L532.2,407.3z M520.7,401v-2.6h8v2.6H520.7z M516.9,401.7l2.6,0.3
	c-0.3,1.8-1,3.2-2.2,4.2s-2.6,1.5-4.3,1.5c-2.1,0-3.8-0.7-5-2.1c-1.3-1.4-1.9-3.3-1.9-5.9c0-1.7,0.3-3.1,0.8-4.4
	c0.5-1.2,1.4-2.2,2.5-2.8c1.1-0.6,2.4-0.9,3.7-0.9c1.6,0,3,0.4,4.1,1.3c1.1,0.8,1.8,2,2.1,3.6l-2.5,0.4c-0.2-1-0.7-1.8-1.3-2.3
	s-1.4-0.8-2.2-0.8c-1.3,0-2.4,0.5-3.2,1.4c-0.8,0.9-1.2,2.4-1.2,4.4c0,2.1,0.4,3.6,1.2,4.5c0.8,0.9,1.8,1.4,3.1,1.4
	c1,0,1.9-0.3,2.6-0.9C516.3,404,516.8,403,516.9,401.7z M499.3,407.3V394H497v-2.1h2.3v-1.6c0-1.1,0.1-1.8,0.3-2.3
	c0.3-0.7,0.7-1.2,1.3-1.6c0.7-0.4,1.5-0.6,2.7-0.6c0.7,0,1.5,0.1,2.4,0.3l-0.4,2.3c-0.5-0.1-1-0.2-1.5-0.2c-0.8,0-1.4,0.2-1.7,0.5
	c-0.3,0.3-0.5,1-0.5,1.9v1.4h3v2.1h-3v13.3L499.3,407.3L499.3,407.3z M484.1,398.2h8.6c-0.1-1.3-0.4-2.3-1-2.9
	c-0.8-1-1.9-1.5-3.2-1.5c-1.2,0-2.2,0.4-3,1.2C484.7,395.8,484.2,396.8,484.1,398.2z M492.7,402.4l2.7,0.3c-0.4,1.6-1.3,2.8-2.4,3.7
	c-1.1,0.9-2.6,1.3-4.4,1.3c-2.2,0-4-0.7-5.4-2.1c-1.3-1.4-2-3.4-2-5.9c0-2.6,0.7-4.6,2-6s3.1-2.2,5.2-2.2s3.7,0.7,5,2.1s2,3.3,2,5.9
	c0,0.2,0,0.4,0,0.7h-11.5c0.1,1.7,0.6,3,1.4,3.9c0.9,0.9,1.9,1.3,3.2,1.3c1,0,1.8-0.2,2.4-0.7C491.7,404.3,492.3,403.5,492.7,402.4z
	 M468,399.7c0,2,0.4,3.5,1.2,4.4c0.8,0.9,1.8,1.4,2.9,1.4s2.1-0.5,2.9-1.4c0.9-1,1.3-2.5,1.3-4.6c0-2-0.4-3.4-1.2-4.4
	c-0.8-1-1.8-1.5-2.9-1.5s-2.1,0.5-2.9,1.6C468.4,396.3,468,397.8,468,399.7z M465.6,413.2v-21.3h2.4v2c0.6-0.8,1.2-1.4,1.9-1.8
	c0.7-0.4,1.6-0.6,2.6-0.6c1.3,0,2.5,0.3,3.5,1s1.8,1.6,2.3,2.8c0.5,1.2,0.8,2.6,0.8,4c0,1.6-0.3,3-0.9,4.3c-0.5,1.3-1.4,2.3-2.4,2.9
	c-1.1,0.7-2.2,1-3.4,1c-0.9,0-1.6-0.2-2.3-0.6c-0.7-0.4-1.3-0.8-1.7-1.4v7.5h-2.8V413.2z M458.1,407.3v-3h3v3H458.1z M438.8,407.3
	l-4.7-15.4h2.7l2.5,8.9l0.9,3.3c0-0.2,0.3-1.2,0.8-3.2l2.4-9h2.7l2.3,9l0.8,2.9l0.9-3l2.6-8.9h2.5l-4.8,15.4h-2.7l-2.5-9.2l-0.6-2.6
	l-3.1,11.9L438.8,407.3L438.8,407.3z M417.4,407.3l-4.7-15.4h2.7l2.5,8.9l0.9,3.3c0-0.2,0.3-1.2,0.8-3.2l2.4-9h2.7l2.3,9l0.8,2.9
	l0.9-3l2.6-8.9h2.5l-4.8,15.4h-2.7l-2.5-9.2l-0.6-2.6l-3.1,11.9L417.4,407.3L417.4,407.3z M395.9,407.3l-4.7-15.4h2.7l2.5,8.9
	l0.9,3.3c0-0.2,0.3-1.2,0.8-3.2l2.4-9h2.7l2.3,9l0.8,2.9l0.9-3l2.6-8.9h2.5l-4.8,15.4h-2.7l-2.5-9.2l-0.6-2.6l-3.1,11.9L395.9,407.3
	L395.9,407.3z"/>
<path class="st1" d="M665.6,197h8.6c-0.1-1.3-0.4-2.3-1-2.9c-0.8-1-1.9-1.5-3.2-1.5c-1.2,0-2.2,0.4-3,1.2
	C666.2,194.6,665.7,195.7,665.6,197 M674.2,201.2l2.7,0.3c-0.4,1.6-1.3,2.8-2.4,3.7c-1.1,0.9-2.6,1.3-4.4,1.3c-2.2,0-4-0.7-5.4-2.1
	c-1.3-1.4-2-3.4-2-5.9c0-2.6,0.7-4.6,2-6s3.1-2.2,5.2-2.2c2.1,0,3.7,0.7,5,2.1c1.3,1.4,2,3.3,2,5.9c0,0.2,0,0.4,0,0.7h-11.5
	c0.1,1.7,0.6,3,1.4,3.9c0.9,0.9,1.9,1.3,3.2,1.3c1,0,1.8-0.2,2.4-0.7C673.3,203.1,673.8,202.3,674.2,201.2z M648.9,198.5
	c0,2,0.4,3.4,1.2,4.4s1.8,1.4,2.9,1.4c1.1,0,2.1-0.5,2.9-1.4c0.8-0.9,1.2-2.4,1.2-4.3c0-2.1-0.4-3.6-1.2-4.6s-1.8-1.5-3-1.5
	s-2.1,0.5-2.9,1.4C649.3,195,648.9,196.5,648.9,198.5z M657.1,206.2v-2c-1,1.5-2.4,2.3-4.3,2.3c-1.2,0-2.3-0.3-3.4-1
	c-1-0.7-1.8-1.6-2.4-2.8c-0.6-1.2-0.8-2.6-0.8-4.2c0-1.5,0.3-2.9,0.8-4.2s1.3-2.2,2.3-2.9s2.2-1,3.5-1c0.9,0,1.8,0.2,2.5,0.6
	c0.7,0.4,1.3,0.9,1.8,1.5v-7.6h2.6v21.2L657.1,206.2L657.1,206.2z M632.5,206.2v-2.3c-1.2,1.8-2.8,2.6-4.9,2.6
	c-0.9,0-1.7-0.2-2.5-0.5c-0.8-0.4-1.4-0.8-1.8-1.3c-0.4-0.5-0.6-1.2-0.8-1.9c-0.1-0.5-0.2-1.3-0.2-2.5v-9.5h2.6v8.6
	c0,1.4,0.1,2.3,0.2,2.7c0.1,0.7,0.5,1.2,1,1.6c0.6,0.4,1.2,0.6,2,0.6s1.5-0.2,2.2-0.6c0.7-0.4,1.2-1,1.4-1.6c0.3-0.7,0.4-1.7,0.4-3
	v-8.2h2.6v15.4h-2.2V206.2z M606.5,201.6l2.6-0.4c0.1,1,0.5,1.8,1.2,2.4c0.7,0.6,1.6,0.8,2.8,0.8s2.1-0.2,2.7-0.7
	c0.6-0.5,0.9-1,0.9-1.7c0-0.6-0.3-1.1-0.8-1.4c-0.4-0.2-1.3-0.5-2.7-0.9c-1.9-0.5-3.3-0.9-4-1.2s-1.3-0.8-1.6-1.4
	c-0.4-0.6-0.6-1.3-0.6-2.1c0-0.7,0.2-1.3,0.5-1.9c0.3-0.6,0.7-1.1,1.3-1.5c0.4-0.3,1-0.5,1.6-0.7c0.7-0.2,1.5-0.3,2.3-0.3
	c1.2,0,2.3,0.2,3.1,0.5c0.9,0.3,1.6,0.8,2.1,1.4c0.4,0.6,0.8,1.4,0.9,2.4l-2.6,0.4c-0.1-0.8-0.4-1.4-1-1.9c-0.6-0.4-1.3-0.7-2.3-0.7
	c-1.2,0-2.1,0.2-2.6,0.6c-0.5,0.4-0.8,0.8-0.8,1.4c0,0.3,0.1,0.6,0.3,0.9c0.2,0.3,0.6,0.6,1,0.7c0.2,0.1,1,0.3,2.3,0.7
	c1.9,0.5,3.1,0.9,3.9,1.2c0.8,0.3,1.3,0.8,1.8,1.4c0.4,0.6,0.6,1.3,0.6,2.2s-0.3,1.7-0.8,2.5s-1.3,1.4-2.2,1.8
	c-0.9,0.4-2,0.6-3.2,0.6c-2,0-3.5-0.4-4.6-1.2C607.4,204.4,606.8,203.2,606.5,201.6z M591.7,201.6l2.6-0.4c0.1,1,0.5,1.8,1.2,2.4
	c0.7,0.6,1.6,0.8,2.8,0.8s2.1-0.2,2.7-0.7c0.6-0.5,0.9-1,0.9-1.7c0-0.6-0.3-1.1-0.8-1.4c-0.4-0.2-1.3-0.5-2.7-0.9
	c-1.9-0.5-3.3-0.9-4-1.2s-1.3-0.8-1.6-1.4c-0.4-0.6-0.6-1.3-0.6-2.1c0-0.7,0.2-1.3,0.5-1.9c0.3-0.6,0.7-1.1,1.3-1.5
	c0.4-0.3,1-0.5,1.6-0.7c0.7-0.2,1.5-0.3,2.3-0.3c1.2,0,2.3,0.2,3.1,0.5c0.9,0.3,1.6,0.8,2.1,1.4c0.4,0.6,0.8,1.4,0.9,2.4l-2.6,0.4
	c-0.1-0.8-0.4-1.4-1-1.9c-0.6-0.4-1.3-0.7-2.3-0.7c-1.2,0-2.1,0.2-2.6,0.6c-0.5,0.4-0.8,0.8-0.8,1.4c0,0.3,0.1,0.6,0.3,0.9
	c0.2,0.3,0.6,0.6,1,0.7c0.2,0.1,1,0.3,2.3,0.7c1.9,0.5,3.1,0.9,3.9,1.2c0.8,0.3,1.3,0.8,1.8,1.4c0.4,0.6,0.6,1.3,0.6,2.2
	s-0.3,1.7-0.8,2.5s-1.3,1.4-2.2,1.8c-0.9,0.4-2,0.6-3.2,0.6c-2,0-3.5-0.4-4.6-1.2C592.6,204.4,592,203.2,591.7,201.6z M586.1,206.2
	v-15.4h2.6v15.4H586.1z M586.1,187.9v-3h2.6v3H586.1z M575.3,203.9l0.4,2.3c-0.8,0.2-1.4,0.3-2,0.3c-1,0-1.7-0.2-2.2-0.5
	s-0.9-0.7-1.1-1.2c-0.2-0.5-0.3-1.5-0.3-3v-8.9h-1.9v-2.1h1.9V187l2.6-1.5v5.4h2.6v2.1h-2.6v9c0,0.8,0,1.2,0.1,1.4s0.3,0.4,0.5,0.5
	s0.5,0.2,0.9,0.2C574.5,204,574.9,203.9,575.3,203.9z M553.8,201.6l2.6-0.4c0.1,1,0.5,1.8,1.2,2.4c0.7,0.6,1.6,0.8,2.8,0.8
	s2.1-0.2,2.7-0.7c0.6-0.5,0.9-1,0.9-1.7c0-0.6-0.3-1.1-0.8-1.4c-0.4-0.2-1.3-0.5-2.7-0.9c-1.9-0.5-3.3-0.9-4-1.2s-1.3-0.8-1.6-1.4
	c-0.4-0.6-0.6-1.3-0.6-2.1c0-0.7,0.2-1.3,0.5-1.9c0.3-0.6,0.7-1.1,1.3-1.5c0.4-0.3,1-0.5,1.6-0.7c0.7-0.2,1.5-0.3,2.3-0.3
	c1.2,0,2.2,0.2,3.1,0.5c0.9,0.3,1.6,0.8,2.1,1.4c0.4,0.6,0.8,1.4,0.9,2.4l-2.6,0.4c-0.1-0.8-0.4-1.4-1-1.9c-0.5-0.4-1.3-0.7-2.3-0.7
	c-1.2,0-2.1,0.2-2.6,0.6c-0.5,0.4-0.8,0.8-0.8,1.4c0,0.3,0.1,0.6,0.3,0.9c0.2,0.3,0.6,0.6,1,0.7c0.2,0.1,1,0.3,2.3,0.7
	c1.9,0.5,3.1,0.9,3.9,1.2c0.8,0.3,1.3,0.8,1.8,1.4c0.4,0.6,0.6,1.3,0.6,2.2s-0.3,1.7-0.8,2.5s-1.3,1.4-2.2,1.8
	c-0.9,0.4-2,0.6-3.2,0.6c-2,0-3.5-0.4-4.6-1.2C554.7,204.4,554,203.2,553.8,201.6z M540.2,197h8.6c-0.1-1.3-0.4-2.3-1-2.9
	c-0.8-1-1.9-1.5-3.2-1.5c-1.2,0-2.2,0.4-3,1.2S540.3,195.7,540.2,197z M548.8,201.2l2.7,0.3c-0.4,1.6-1.3,2.8-2.4,3.7
	c-1.1,0.9-2.6,1.3-4.4,1.3c-2.2,0-4-0.7-5.4-2.1c-1.3-1.4-2-3.4-2-5.9c0-2.6,0.7-4.6,2-6s3.1-2.2,5.2-2.2c2.1,0,3.7,0.7,5,2.1
	c1.3,1.4,2,3.3,2,5.9c0,0.2,0,0.4,0,0.7H540c0.1,1.7,0.6,3,1.4,3.9c0.9,0.9,1.9,1.3,3.2,1.3c1,0,1.8-0.2,2.4-0.7
	C547.9,203.1,548.4,202.3,548.8,201.2z M527.5,203.9l0.4,2.3c-0.8,0.2-1.4,0.3-2,0.3c-1,0-1.7-0.2-2.2-0.5s-0.9-0.7-1.1-1.2
	c-0.2-0.5-0.3-1.5-0.3-3v-8.9h-1.9v-2.1h1.9V187l2.6-1.5v5.4h2.6v2.1h-2.6v9c0,0.8,0,1.2,0.1,1.4s0.3,0.4,0.5,0.5s0.5,0.2,0.9,0.2
	C526.6,204,527,203.9,527.5,203.9z M515.2,206.2v-15.4h2.6v15.4H515.2z M515.2,187.9v-3h2.6v3H515.2z M508.8,206.2v-2.3
	c-1.2,1.8-2.8,2.6-4.9,2.6c-0.9,0-1.7-0.2-2.5-0.5c-0.8-0.4-1.4-0.8-1.8-1.3s-0.6-1.2-0.8-1.9c-0.1-0.5-0.2-1.3-0.2-2.5v-9.5h2.6
	v8.6c0,1.4,0.1,2.3,0.2,2.7c0.1,0.7,0.5,1.2,1,1.6c0.6,0.4,1.2,0.6,2,0.6s1.5-0.2,2.2-0.6c0.7-0.4,1.2-1,1.4-1.6
	c0.3-0.7,0.4-1.7,0.4-3v-8.2h2.6v15.4h-2.2V206.2z M483.9,198.5c0,2,0.4,3.4,1.2,4.4c0.8,1,1.8,1.4,2.9,1.4s2.1-0.5,2.9-1.4
	s1.2-2.4,1.2-4.3c0-2.1-0.4-3.6-1.2-4.6c-0.8-1-1.8-1.5-3-1.5s-2.1,0.5-2.9,1.4C484.3,195,483.9,196.5,483.9,198.5z M492.2,206.2v-2
	c-1,1.5-2.4,2.3-4.3,2.3c-1.2,0-2.3-0.3-3.4-1c-1-0.7-1.8-1.6-2.4-2.8s-0.8-2.6-0.8-4.2c0-1.5,0.3-2.9,0.8-4.2s1.3-2.2,2.3-2.9
	s2.2-1,3.5-1c0.9,0,1.8,0.2,2.5,0.6c0.7,0.4,1.3,0.9,1.8,1.5v-7.6h2.6v21.2L492.2,206.2L492.2,206.2z M467.4,198.5
	c0,2,0.4,3.4,1.3,4.4s1.9,1.4,3.2,1.4s2.4-0.5,3.2-1.4c0.9-1,1.3-2.5,1.3-4.5c0-1.9-0.4-3.3-1.3-4.3s-1.9-1.5-3.2-1.5
	s-2.4,0.5-3.2,1.5C467.8,195,467.4,196.5,467.4,198.5z M464.7,198.5c0-2.9,0.8-5,2.4-6.3c1.3-1.1,3-1.7,4.8-1.7
	c2.1,0,3.9,0.7,5.2,2.1c1.3,1.4,2,3.3,2,5.7c0,2-0.3,3.6-0.9,4.7c-0.6,1.1-1.4,2-2.6,2.7c-1.1,0.6-2.4,0.9-3.7,0.9
	c-2.2,0-3.9-0.7-5.3-2.1C465.3,203.1,464.7,201.1,464.7,198.5z M455.7,206.2v-15.4h2.4v2.4c0.6-1.1,1.1-1.8,1.6-2.2
	c0.5-0.3,1.1-0.5,1.7-0.5c0.9,0,1.8,0.3,2.7,0.8l-0.9,2.4c-0.6-0.4-1.3-0.6-1.9-0.6c-0.5,0-1.1,0.2-1.5,0.5s-0.8,0.8-1,1.4
	c-0.3,0.9-0.4,1.9-0.4,3v8h-2.7V206.2z M441.6,198.5c0,2,0.4,3.5,1.2,4.4c0.8,0.9,1.8,1.4,2.9,1.4s2.1-0.5,2.9-1.4
	c0.9-1,1.3-2.5,1.3-4.6c0-2-0.4-3.4-1.2-4.4c-0.8-1-1.8-1.5-2.9-1.5s-2.1,0.5-2.9,1.6S441.6,196.6,441.6,198.5z M439.3,212v-21.3
	h2.4v2c0.5-0.8,1.2-1.4,1.9-1.8c0.7-0.4,1.6-0.6,2.6-0.6c1.3,0,2.5,0.3,3.5,1s1.8,1.6,2.3,2.8s0.8,2.6,0.8,4c0,1.6-0.3,3-0.9,4.3
	s-1.4,2.3-2.4,2.9c-1.1,0.7-2.2,1-3.4,1c-0.9,0-1.6-0.2-2.3-0.6c-0.7-0.4-1.3-0.8-1.7-1.4v7.5h-2.8V212z M416.5,197h8.6
	c-0.1-1.3-0.4-2.3-1-2.9c-0.8-1-1.9-1.5-3.2-1.5c-1.2,0-2.2,0.4-3,1.2C417,194.6,416.6,195.7,416.5,197z M425,201.2l2.7,0.3
	c-0.4,1.6-1.3,2.8-2.4,3.7s-2.6,1.3-4.4,1.3c-2.2,0-4-0.7-5.4-2.1c-1.3-1.4-2-3.4-2-5.9c0-2.6,0.7-4.6,2-6s3.1-2.2,5.2-2.2
	s3.7,0.7,5,2.1c1.3,1.4,2,3.3,2,5.9c0,0.2,0,0.4,0,0.7h-11.5c0.1,1.7,0.6,3,1.4,3.9c0.9,0.9,1.9,1.3,3.2,1.3c1,0,1.8-0.2,2.4-0.7
	C424.1,203.1,424.7,202.3,425,201.2z M408.6,198.7l2.8,0.7c-0.6,2.3-1.6,4.1-3.2,5.3c-1.5,1.2-3.4,1.8-5.6,1.8
	c-2.3,0-4.1-0.5-5.6-1.4c-1.4-0.9-2.5-2.3-3.3-4c-0.7-1.8-1.1-3.7-1.1-5.7c0-2.2,0.4-4.2,1.2-5.8c0.9-1.6,2.1-2.9,3.6-3.7
	c1.6-0.9,3.3-1.3,5.2-1.3c2.1,0,3.9,0.6,5.4,1.6c1.5,1.1,2.5,2.6,3,4.5l-2.8,0.6c-0.5-1.5-1.2-2.7-2.1-3.3c-0.9-0.7-2.1-1.1-3.6-1.1
	c-1.6,0-3,0.4-4.1,1.2s-1.9,1.9-2.3,3.2s-0.7,2.6-0.7,4c0,1.8,0.3,3.4,0.8,4.8c0.5,1.3,1.4,2.3,2.5,3s2.3,1,3.6,1
	c1.6,0,2.9-0.4,4-1.3C407.4,201.8,408.2,200.5,408.6,198.7z"/>
<path class="st1" d="M737,243.4l0.4,2.3c-0.8,0.2-1.4,0.3-2,0.3c-1,0-1.7-0.2-2.2-0.5s-0.9-0.7-1.1-1.2c-0.2-0.5-0.3-1.5-0.3-3v-8.9
	h-1.9v-2.1h1.9v-3.8l2.6-1.5v5.4h2.6v2.1h-2.6v9c0,0.8,0,1.2,0.1,1.4s0.3,0.4,0.5,0.5s0.5,0.2,0.9,0.2
	C736.2,243.5,736.6,243.5,737,243.4 M714.8,245.7v-15.4h2.4v2.2c1.1-1.7,2.7-2.5,4.9-2.5c0.9,0,1.8,0.2,2.5,0.5
	c0.8,0.3,1.4,0.7,1.8,1.3c0.4,0.5,0.7,1.2,0.8,1.9c0.1,0.5,0.2,1.3,0.2,2.5v9.5h-2.6v-9.4c0-1.1-0.1-1.9-0.3-2.4s-0.6-0.9-1.1-1.2
	s-1.1-0.5-1.8-0.5c-1.1,0-2.1,0.4-2.9,1.1c-0.8,0.7-1.2,2-1.2,4v8.4L714.8,245.7L714.8,245.7z M700.3,236.6h8.6
	c-0.1-1.3-0.4-2.3-1-2.9c-0.8-1-1.9-1.5-3.2-1.5c-1.2,0-2.2,0.4-3,1.2C700.8,234.2,700.4,235.2,700.3,236.6z M708.8,240.8l2.7,0.3
	c-0.4,1.6-1.3,2.8-2.4,3.7c-1.1,0.9-2.6,1.3-4.4,1.3c-2.2,0-4-0.7-5.4-2.1c-1.3-1.4-2-3.4-2-5.9c0-2.6,0.7-4.6,2-6s3.1-2.2,5.2-2.2
	c2.1,0,3.7,0.7,5,2.1c1.3,1.4,2,3.3,2,5.9c0,0.2,0,0.4,0,0.7H700c0.1,1.7,0.6,3,1.4,3.9c0.9,0.9,1.9,1.3,3.2,1.3
	c1,0,1.8-0.2,2.4-0.7C707.9,242.7,708.4,241.9,708.8,240.8z M673.6,245.7v-15.4h2.3v2.2c0.5-0.8,1.1-1.4,1.9-1.8
	c0.8-0.4,1.8-0.7,2.8-0.7c1.1,0,2.1,0.2,2.8,0.7c0.7,0.4,1.2,1.1,1.5,2c1.2-1.8,2.8-2.7,4.7-2.7c1.5,0,2.7,0.4,3.6,1.3
	c0.8,0.8,1.2,2.1,1.2,3.9v10.6h-2.6v-9.7c0-1.1-0.1-1.8-0.3-2.3c-0.1-0.4-0.4-0.8-0.9-1.1c-0.4-0.3-1-0.5-1.6-0.5
	c-1.1,0-2,0.4-2.7,1.1c-0.7,0.7-1.1,1.9-1.1,3.5v9h-2.6v-10c0-1.2-0.2-2-0.6-2.6c-0.4-0.6-1.1-0.9-2.1-0.9c-0.8,0-1.4,0.2-2.1,0.6
	c-0.6,0.4-1.1,0.9-1.3,1.7c-0.3,0.7-0.4,1.8-0.4,3.2v8h-2.5V245.7z M659,236.6h8.6c-0.1-1.3-0.4-2.3-1-2.9c-0.8-1-1.9-1.5-3.2-1.5
	c-1.2,0-2.2,0.4-3,1.2C659.6,234.2,659.1,235.2,659,236.6z M667.6,240.8l2.7,0.3c-0.4,1.6-1.3,2.8-2.4,3.7c-1.1,0.9-2.6,1.3-4.4,1.3
	c-2.2,0-4-0.7-5.4-2.1c-1.3-1.4-2-3.4-2-5.9c0-2.6,0.7-4.6,2-6s3.1-2.2,5.2-2.2c2.1,0,3.7,0.7,5,2.1c1.3,1.4,2,3.3,2,5.9
	c0,0.2,0,0.4,0,0.7h-11.5c0.1,1.7,0.6,3,1.4,3.9c0.9,0.9,1.9,1.3,3.2,1.3c1,0,1.8-0.2,2.4-0.7C666.7,242.7,667.2,241.9,667.6,240.8z
	 M650.4,245.7v-21.2h2.6v21.2H650.4z M636.3,237.9c0,1.9,0.3,3.2,0.8,4c0.8,1.3,1.9,2,3.3,2c1.2,0,2.2-0.5,3-1.5s1.2-2.5,1.2-4.4
	c0-2-0.4-3.5-1.2-4.4c-0.8-1-1.8-1.4-2.9-1.4c-1.2,0-2.2,0.5-3,1.5C636.8,234.6,636.3,236.1,636.3,237.9z M636.4,245.7H634v-21.2
	h2.6v7.6c1.1-1.4,2.5-2.1,4.2-2.1c1,0,1.9,0.2,2.7,0.6c0.9,0.4,1.6,0.9,2.1,1.6c0.6,0.7,1,1.5,1.3,2.5s0.5,2,0.5,3.1
	c0,2.6-0.7,4.7-2,6.1c-1.3,1.4-2.9,2.2-4.7,2.2s-3.2-0.8-4.3-2.3L636.4,245.7L636.4,245.7z M627.3,238c-1,0.4-2.4,0.7-4.3,1
	c-1.1,0.2-1.8,0.4-2.3,0.6c-0.4,0.2-0.8,0.4-1,0.8c-0.2,0.4-0.4,0.8-0.4,1.2c0,0.7,0.3,1.3,0.8,1.8c0.5,0.4,1.3,0.7,2.3,0.7
	s1.9-0.2,2.7-0.7c0.8-0.4,1.4-1,1.8-1.8c0.3-0.6,0.4-1.4,0.4-2.6V238z M627.5,243.8c-1,0.8-1.9,1.4-2.8,1.8
	c-0.9,0.3-1.9,0.5-2.9,0.5c-1.7,0-3-0.4-3.9-1.2s-1.3-1.9-1.3-3.2c0-0.8,0.2-1.4,0.5-2.1c0.3-0.6,0.8-1.1,1.3-1.5s1.2-0.7,1.9-0.9
	c0.5-0.1,1.3-0.2,2.3-0.4c2.1-0.2,3.7-0.5,4.7-0.9c0-0.3,0-0.6,0-0.7c0-1.1-0.2-1.8-0.7-2.2c-0.7-0.6-1.7-0.9-3-0.9
	c-1.2,0-2.1,0.2-2.7,0.7c-0.6,0.4-1,1.2-1.3,2.3l-2.5-0.3c0.2-1.1,0.6-2,1.1-2.6c0.6-0.7,1.3-1.2,2.3-1.5c1-0.4,2.2-0.6,3.5-0.6
	s2.4,0.2,3.2,0.5s1.4,0.7,1.8,1.2c0.4,0.4,0.7,1,0.8,1.8c0.1,0.4,0.2,1.2,0.2,2.4v3.5c0,2.4,0.1,3.9,0.2,4.6
	c0.1,0.7,0.3,1.3,0.7,1.9H628C627.8,245.2,627.6,244.6,627.5,243.8z M607.5,245.7v-15.4h2.4v2.4c0.6-1.1,1.1-1.8,1.6-2.2
	c0.5-0.3,1.1-0.5,1.7-0.5c0.9,0,1.8,0.3,2.7,0.8l-0.9,2.4c-0.6-0.4-1.3-0.6-1.9-0.6c-0.6,0-1.1,0.2-1.5,0.5s-0.8,0.8-1,1.4
	c-0.3,0.9-0.4,1.9-0.4,3v8h-2.7V245.7z M601.2,245.7v-2.3c-1.2,1.8-2.8,2.6-4.9,2.6c-0.9,0-1.7-0.2-2.5-0.5
	c-0.8-0.4-1.4-0.8-1.8-1.3c-0.4-0.5-0.6-1.2-0.8-1.9c-0.1-0.5-0.2-1.3-0.2-2.5v-9.5h2.6v8.6c0,1.4,0.1,2.3,0.2,2.7
	c0.1,0.7,0.5,1.2,1,1.6c0.6,0.4,1.2,0.6,2,0.6s1.5-0.2,2.2-0.6c0.7-0.4,1.2-1,1.4-1.6c0.3-0.7,0.4-1.7,0.4-3v-8.2h2.6v15.4h-2.2
	V245.7z M576.3,238.1c0,2,0.4,3.4,1.2,4.4s1.8,1.4,2.9,1.4c1.1,0,2.1-0.5,2.9-1.4c0.8-0.9,1.2-2.4,1.2-4.3c0-2.1-0.4-3.6-1.2-4.6
	s-1.8-1.5-3-1.5s-2.1,0.5-2.9,1.4C576.7,234.5,576.3,236,576.3,238.1z M584.6,245.7v-2c-1,1.5-2.4,2.3-4.3,2.3c-1.2,0-2.3-0.3-3.4-1
	c-1-0.7-1.8-1.6-2.4-2.8c-0.6-1.2-0.8-2.6-0.8-4.2c0-1.5,0.3-2.9,0.8-4.2s1.3-2.2,2.3-2.9s2.2-1,3.4-1c0.9,0,1.8,0.2,2.5,0.6
	c0.7,0.4,1.3,0.9,1.8,1.5v-7.6h2.6v21.2L584.6,245.7L584.6,245.7z M550.4,241.2l2.6-0.4c0.1,1,0.5,1.8,1.2,2.4
	c0.7,0.6,1.6,0.8,2.8,0.8s2.1-0.2,2.7-0.7c0.6-0.5,0.9-1,0.9-1.7c0-0.6-0.3-1.1-0.8-1.4c-0.4-0.2-1.3-0.5-2.7-0.9
	c-1.9-0.5-3.3-0.9-4-1.2s-1.3-0.8-1.6-1.4c-0.4-0.6-0.6-1.3-0.6-2.1c0-0.7,0.2-1.3,0.5-1.9c0.3-0.6,0.7-1.1,1.3-1.5
	c0.4-0.3,1-0.5,1.6-0.7c0.7-0.2,1.5-0.3,2.3-0.3c1.2,0,2.2,0.2,3.1,0.5c0.9,0.3,1.6,0.8,2.1,1.4c0.4,0.6,0.8,1.4,0.9,2.4l-2.6,0.4
	c-0.1-0.8-0.4-1.4-1-1.9c-0.5-0.4-1.3-0.7-2.3-0.7c-1.2,0-2.1,0.2-2.6,0.6c-0.5,0.4-0.8,0.8-0.8,1.4c0,0.3,0.1,0.6,0.3,0.9
	c0.2,0.3,0.6,0.6,1,0.7c0.2,0.1,1,0.3,2.3,0.7c1.9,0.5,3.1,0.9,3.9,1.2c0.8,0.3,1.3,0.8,1.8,1.4c0.4,0.6,0.6,1.3,0.6,2.2
	s-0.3,1.7-0.8,2.5s-1.3,1.4-2.2,1.8c-0.9,0.4-2,0.6-3.2,0.6c-2,0-3.5-0.4-4.6-1.2C551.4,244,550.7,242.8,550.4,241.2z M536.9,236.6
	h8.6c-0.1-1.3-0.4-2.3-1-2.9c-0.8-1-1.9-1.5-3.2-1.5c-1.2,0-2.2,0.4-3,1.2C537.5,234.2,537,235.2,536.9,236.6z M545.5,240.8l2.7,0.3
	c-0.4,1.6-1.3,2.8-2.4,3.7c-1.1,0.9-2.6,1.3-4.4,1.3c-2.2,0-4-0.7-5.4-2.1c-1.3-1.4-2-3.4-2-5.9c0-2.6,0.7-4.6,2-6s3.1-2.2,5.2-2.2
	c2.1,0,3.7,0.7,5,2.1c1.3,1.4,2,3.3,2,5.9c0,0.2,0,0.4,0,0.7h-11.5c0.1,1.7,0.6,3,1.4,3.9c0.9,0.9,1.9,1.3,3.2,1.3
	c1,0,1.8-0.2,2.4-0.7C544.6,242.7,545.1,241.9,545.5,240.8z M523,228.4l2-4.1h3.4l-3.2,4.1H523z M520.4,236.6h8.6
	c-0.1-1.3-0.4-2.3-1-2.9c-0.8-1-1.9-1.5-3.2-1.5c-1.2,0-2.2,0.4-3,1.2C521,234.2,520.5,235.2,520.4,236.6z M529,240.8l2.7,0.3
	c-0.4,1.6-1.3,2.8-2.4,3.7c-1.1,0.9-2.6,1.3-4.4,1.3c-2.2,0-4-0.7-5.4-2.1c-1.3-1.4-2-3.4-2-5.9c0-2.6,0.7-4.6,2-6s3.1-2.2,5.2-2.2
	c2.1,0,3.7,0.7,5,2.1c1.3,1.4,2,3.3,2,5.9c0,0.2,0,0.4,0,0.7h-11.5c0.1,1.7,0.6,3,1.4,3.9c0.9,0.9,1.9,1.3,3.2,1.3
	c1,0,1.8-0.2,2.4-0.7C528.1,242.7,528.6,241.9,529,240.8z M508.5,245.7v-15.4h2.4v2.4c0.6-1.1,1.1-1.8,1.6-2.2
	c0.5-0.3,1.1-0.5,1.7-0.5c0.9,0,1.8,0.3,2.7,0.8l-0.9,2.4c-0.6-0.4-1.3-0.6-1.9-0.6c-0.6,0-1.1,0.2-1.5,0.5s-0.8,0.8-1,1.4
	c-0.3,0.9-0.4,1.9-0.4,3v8h-2.7V245.7z M496.6,228.4l2-4.1h3.4l-3.2,4.1H496.6z M494,236.6h8.6c-0.1-1.3-0.4-2.3-1-2.9
	c-0.8-1-1.9-1.5-3.2-1.5c-1.2,0-2.2,0.4-3,1.2C494.6,234.2,494.1,235.2,494,236.6z M502.6,240.8l2.7,0.3c-0.4,1.6-1.3,2.8-2.4,3.7
	s-2.6,1.3-4.4,1.3c-2.2,0-4-0.7-5.4-2.1c-1.3-1.4-2-3.4-2-5.9c0-2.6,0.7-4.6,2-6s3.1-2.2,5.2-2.2s3.7,0.7,5,2.1c1.3,1.4,2,3.3,2,5.9
	c0,0.2,0,0.4,0,0.7h-11.5c0.1,1.7,0.6,3,1.4,3.9c0.9,0.9,1.9,1.3,3.2,1.3c1,0,1.8-0.2,2.4-0.7C501.7,242.7,502.2,241.9,502.6,240.8z
	 M477.3,237.8c0,2,0.4,3.5,1.2,4.4c0.8,0.9,1.8,1.4,3,1.4s2.2-0.5,3-1.4s1.2-2.4,1.2-4.3c0-1.9-0.4-3.3-1.3-4.3
	c-0.8-1-1.8-1.4-3-1.4s-2.2,0.5-3,1.4C477.7,234.5,477.3,235.9,477.3,237.8z M475.1,247l2.5,0.4c0.1,0.8,0.4,1.4,0.9,1.7
	c0.6,0.5,1.5,0.7,2.7,0.7s2.1-0.2,2.8-0.7c0.7-0.5,1.1-1.2,1.3-2c0.1-0.5,0.2-1.7,0.2-3.3c-1.1,1.3-2.5,2-4.2,2
	c-2.1,0-3.8-0.8-4.9-2.3s-1.7-3.4-1.7-5.5c0-1.5,0.3-2.8,0.8-4.1c0.5-1.2,1.3-2.2,2.3-2.8c1-0.7,2.2-1,3.6-1c1.8,0,3.3,0.7,4.5,2.2
	v-1.9h2.4v13.3c0,2.4-0.3,4.1-0.8,5.1s-1.3,1.8-2.3,2.4c-1,0.6-2.3,0.9-3.9,0.9c-1.9,0-3.3-0.4-4.5-1.2
	C475.6,249.9,475.1,248.7,475.1,247z M451.4,241.2l2.6-0.4c0.1,1,0.5,1.8,1.2,2.4c0.7,0.6,1.6,0.8,2.8,0.8c1.2,0,2.1-0.2,2.7-0.7
	s0.9-1,0.9-1.7c0-0.6-0.3-1.1-0.8-1.4c-0.4-0.2-1.3-0.5-2.7-0.9c-1.9-0.5-3.3-0.9-4-1.2s-1.3-0.8-1.6-1.4c-0.4-0.6-0.6-1.3-0.6-2.1
	c0-0.7,0.2-1.3,0.5-1.9c0.3-0.6,0.7-1.1,1.3-1.5c0.4-0.3,1-0.5,1.6-0.7c0.7-0.2,1.5-0.3,2.3-0.3c1.2,0,2.2,0.2,3.1,0.5
	s1.6,0.8,2.1,1.4c0.4,0.6,0.8,1.4,0.9,2.4l-2.6,0.4c-0.1-0.8-0.4-1.4-1-1.9c-0.5-0.4-1.3-0.7-2.3-0.7c-1.2,0-2.1,0.2-2.6,0.6
	c-0.5,0.4-0.8,0.8-0.8,1.4c0,0.3,0.1,0.6,0.3,0.9c0.2,0.3,0.6,0.6,1,0.7c0.2,0.1,1,0.3,2.3,0.7c1.9,0.5,3.1,0.9,3.9,1.2
	s1.3,0.8,1.8,1.4c0.4,0.6,0.6,1.3,0.6,2.2s-0.3,1.7-0.8,2.5s-1.3,1.4-2.2,1.8c-0.9,0.4-2,0.6-3.2,0.6c-2,0-3.5-0.4-4.6-1.2
	C452.4,244,451.7,242.8,451.4,241.2z M449.9,243.4l0.4,2.3c-0.8,0.2-1.4,0.3-2,0.3c-1,0-1.7-0.2-2.2-0.5s-0.9-0.7-1.1-1.2
	s-0.3-1.5-0.3-3v-8.9h-1.9v-2.1h1.9v-3.8l2.6-1.5v5.4h2.6v2.1h-2.6v9c0,0.8,0,1.2,0.1,1.4s0.3,0.4,0.5,0.5s0.5,0.2,0.9,0.2
	C449.1,243.5,449.5,243.5,449.9,243.4z M434.1,226l-1.6,2.5h-3l3.1-4.1h2.8l3.2,4.1h-2.9L434.1,226z M429.7,236.6h8.6
	c-0.1-1.3-0.4-2.3-1-2.9c-0.8-1-1.9-1.5-3.2-1.5c-1.2,0-2.2,0.4-3,1.2C430.2,234.2,429.8,235.2,429.7,236.6z M438.2,240.8l2.7,0.3
	c-0.4,1.6-1.3,2.8-2.4,3.7s-2.6,1.3-4.4,1.3c-2.2,0-4-0.7-5.4-2.1c-1.3-1.4-2-3.4-2-5.9c0-2.6,0.7-4.6,2-6s3.1-2.2,5.2-2.2
	s3.7,0.7,5,2.1c1.3,1.4,2,3.3,2,5.9c0,0.2,0,0.4,0,0.7h-11.5c0.1,1.7,0.6,3,1.4,3.9c0.9,0.9,1.9,1.3,3.2,1.3c1,0,1.8-0.2,2.4-0.7
	C437.3,242.7,437.9,241.9,438.2,240.8z M417.8,245.7v-15.4h2.4v2.4c0.6-1.1,1.1-1.8,1.6-2.2c0.5-0.3,1.1-0.5,1.7-0.5
	c0.9,0,1.8,0.3,2.7,0.8l-0.9,2.4c-0.6-0.4-1.3-0.6-1.9-0.6s-1.1,0.2-1.5,0.5s-0.8,0.8-1,1.4c-0.3,0.9-0.4,1.9-0.4,3v8h-2.7V245.7z
	 M403,238.1c0,2,0.4,3.4,1.3,4.4s1.9,1.4,3.2,1.4c1.3,0,2.4-0.5,3.2-1.4c0.9-1,1.3-2.5,1.3-4.5c0-1.9-0.4-3.3-1.3-4.3
	s-1.9-1.5-3.2-1.5c-1.3,0-2.4,0.5-3.2,1.5C403.5,234.6,403,236.1,403,238.1z M400.4,238.1c0-2.9,0.8-5,2.4-6.3
	c1.3-1.1,3-1.7,4.8-1.7c2.1,0,3.9,0.7,5.2,2.1c1.3,1.4,2,3.3,2,5.7c0,2-0.3,3.6-0.9,4.7c-0.6,1.1-1.4,2-2.6,2.7
	c-1.1,0.6-2.4,0.9-3.7,0.9c-2.2,0-3.9-0.7-5.3-2.1C401,242.6,400.4,240.6,400.4,238.1z M393.7,245.7v-13.3h-2.3v-2.1h2.3v-1.6
	c0-1.1,0.1-1.8,0.3-2.3c0.3-0.7,0.7-1.2,1.3-1.6c0.6-0.4,1.5-0.6,2.7-0.6c0.7,0,1.5,0.1,2.4,0.3l-0.4,2.3c-0.5-0.1-1-0.2-1.5-0.2
	c-0.8,0-1.4,0.2-1.7,0.5c-0.3,0.3-0.5,1-0.5,1.9v1.4h3v2.1h-3v13.3L393.7,245.7L393.7,245.7z"/>
<path class="st1" d="M700.6,280.7l2.6-0.4c0.1,1,0.5,1.8,1.2,2.4s1.6,0.8,2.8,0.8s2.1-0.2,2.7-0.7c0.6-0.5,0.9-1,0.9-1.7
	c0-0.6-0.3-1.1-0.8-1.4c-0.4-0.2-1.3-0.5-2.7-0.9c-1.9-0.5-3.3-0.9-4-1.2c-0.7-0.3-1.3-0.8-1.6-1.4c-0.4-0.6-0.6-1.3-0.6-2.1
	c0-0.7,0.2-1.3,0.5-1.9s0.7-1.1,1.3-1.5c0.4-0.3,1-0.5,1.6-0.7c0.7-0.2,1.5-0.3,2.3-0.3c1.2,0,2.3,0.2,3.1,0.5
	c0.9,0.3,1.6,0.8,2.1,1.4c0.4,0.6,0.8,1.4,0.9,2.4l-2.6,0.4c-0.1-0.8-0.4-1.4-1-1.9c-0.6-0.4-1.3-0.7-2.3-0.7
	c-1.2,0-2.1,0.2-2.6,0.6s-0.8,0.8-0.8,1.4c0,0.3,0.1,0.6,0.3,0.9s0.6,0.6,1,0.7c0.2,0.1,1,0.3,2.3,0.7c1.9,0.5,3.1,0.9,3.9,1.2
	c0.8,0.3,1.3,0.8,1.8,1.4c0.4,0.6,0.6,1.3,0.6,2.2c0,0.9-0.3,1.7-0.8,2.5s-1.3,1.4-2.2,1.8s-2,0.6-3.2,0.6c-2,0-3.5-0.4-4.6-1.2
	C701.5,283.6,700.9,282.3,700.6,280.7 M687.1,276.1h8.6c-0.1-1.3-0.4-2.3-1-2.9c-0.8-1-1.9-1.5-3.2-1.5c-1.2,0-2.2,0.4-3,1.2
	C687.6,273.7,687.2,274.8,687.1,276.1z M695.6,280.4l2.7,0.3c-0.4,1.6-1.3,2.8-2.4,3.7c-1.1,0.9-2.6,1.3-4.4,1.3
	c-2.2,0-4-0.7-5.4-2.1c-1.3-1.4-2-3.4-2-5.9c0-2.6,0.7-4.6,2-6s3.1-2.2,5.2-2.2c2.1,0,3.7,0.7,5,2.1s2,3.3,2,5.9c0,0.2,0,0.4,0,0.7
	h-11.5c0.1,1.7,0.6,3,1.4,3.9c0.9,0.9,1.9,1.3,3.2,1.3c1,0,1.8-0.2,2.4-0.7C694.7,282.3,695.2,281.5,695.6,280.4z M673.1,268l2-4.1
	h3.4l-3.2,4.1H673.1z M670.6,276.1h8.6c-0.1-1.3-0.4-2.3-1-2.9c-0.8-1-1.9-1.5-3.2-1.5c-1.2,0-2.2,0.4-3,1.2
	C671.1,273.7,670.7,274.8,670.6,276.1z M679.1,280.4l2.7,0.3c-0.4,1.6-1.3,2.8-2.4,3.7c-1.1,0.9-2.6,1.3-4.4,1.3
	c-2.2,0-4-0.7-5.4-2.1c-1.3-1.4-2-3.4-2-5.9c0-2.6,0.7-4.6,2-6s3.1-2.2,5.2-2.2c2.1,0,3.7,0.7,5,2.1s2,3.3,2,5.9c0,0.2,0,0.4,0,0.7
	h-11.5c0.1,1.7,0.6,3,1.4,3.9c0.9,0.9,1.9,1.3,3.2,1.3c1,0,1.8-0.2,2.4-0.7C678.2,282.3,678.7,281.5,679.1,280.4z M662,285.3v-21.2
	h2.6v21.2H662z M651.8,265.5l-1.6,2.5h-3l3.1-4.1h2.8l3.2,4.1h-2.9L651.8,265.5z M647.2,277.6c0,2,0.4,3.4,1.3,4.4
	c0.9,1,1.9,1.4,3.2,1.4s2.4-0.5,3.2-1.4c0.9-1,1.3-2.5,1.3-4.5c0-1.9-0.4-3.3-1.3-4.3c-0.9-1-1.9-1.5-3.2-1.5s-2.4,0.5-3.2,1.5
	C647.6,274.2,647.2,275.6,647.2,277.6z M644.5,277.6c0-2.9,0.8-5,2.4-6.3c1.3-1.1,3-1.7,4.8-1.7c2.1,0,3.9,0.7,5.2,2.1s2,3.3,2,5.7
	c0,2-0.3,3.6-0.9,4.7c-0.6,1.1-1.4,2-2.6,2.7c-1.1,0.6-2.4,0.9-3.7,0.9c-2.2,0-3.9-0.7-5.3-2.1C645.2,282.2,644.5,280.2,644.5,277.6
	z M635.6,285.3v-15.4h2.4v2.4c0.6-1.1,1.1-1.8,1.6-2.2c0.5-0.3,1.1-0.5,1.7-0.5c0.9,0,1.8,0.3,2.7,0.8l-0.9,2.4
	c-0.6-0.4-1.3-0.6-1.9-0.6c-0.6,0-1.1,0.2-1.5,0.5s-0.8,0.8-1,1.4c-0.3,0.9-0.4,1.9-0.4,3v8h-2.7V285.3z M633.1,283l0.4,2.3
	c-0.8,0.2-1.4,0.3-2,0.3c-1,0-1.7-0.2-2.2-0.5s-0.9-0.7-1.1-1.2c-0.2-0.5-0.3-1.5-0.3-3V272H626v-2.1h1.9v-3.8l2.6-1.5v5.4h2.6v2.1
	h-2.6v9c0,0.8,0,1.2,0.1,1.4c0.1,0.2,0.3,0.4,0.5,0.5s0.5,0.2,0.9,0.2C632.2,283.1,632.6,283.1,633.1,283z M610.9,285.3v-15.4h2.4
	v2.2c1.1-1.7,2.7-2.5,4.9-2.5c0.9,0,1.8,0.2,2.5,0.5c0.8,0.3,1.4,0.7,1.8,1.3c0.4,0.5,0.6,1.2,0.8,1.9c0.1,0.5,0.2,1.3,0.2,2.5v9.5
	h-2.6v-9.4c0-1.1-0.1-1.9-0.3-2.4s-0.6-0.9-1.1-1.2c-0.5-0.3-1.1-0.5-1.8-0.5c-1.1,0-2.1,0.4-2.9,1.1c-0.8,0.7-1.2,2-1.2,4v8.4
	H610.9z M596.1,277.6c0,2,0.4,3.4,1.3,4.4c0.9,1,1.9,1.4,3.2,1.4s2.4-0.5,3.2-1.4c0.9-1,1.3-2.5,1.3-4.5c0-1.9-0.4-3.3-1.3-4.3
	c-0.9-1-1.9-1.5-3.2-1.5s-2.4,0.5-3.2,1.5C596.5,274.2,596.1,275.6,596.1,277.6z M593.4,277.6c0-2.9,0.8-5,2.4-6.3
	c1.3-1.1,3-1.7,4.8-1.7c2.1,0,3.9,0.7,5.2,2.1s2,3.3,2,5.7c0,2-0.3,3.6-0.9,4.7c-0.6,1.1-1.4,2-2.6,2.7c-1.1,0.6-2.4,0.9-3.7,0.9
	c-2.2,0-3.9-0.7-5.3-2.1C594,282.2,593.4,280.2,593.4,277.6z M589.6,279.7l2.6,0.3c-0.3,1.8-1,3.2-2.2,4.2s-2.6,1.5-4.3,1.5
	c-2.1,0-3.8-0.7-5-2.1c-1.3-1.4-1.9-3.3-1.9-5.9c0-1.7,0.3-3.1,0.8-4.4c0.5-1.2,1.4-2.2,2.5-2.8c1.1-0.6,2.4-0.9,3.7-0.9
	c1.6,0,3,0.4,4.1,1.3c1.1,0.8,1.8,2,2.1,3.6l-2.5,0.4c-0.2-1-0.7-1.8-1.3-2.3s-1.4-0.8-2.2-0.8c-1.3,0-2.4,0.5-3.2,1.4
	s-1.2,2.4-1.2,4.4c0,2.1,0.4,3.6,1.2,4.5s1.8,1.4,3.1,1.4c1,0,1.9-0.3,2.6-0.9C589,282,589.4,281,589.6,279.7z M555.4,280.7l2.6-0.4
	c0.1,1,0.5,1.8,1.2,2.4s1.6,0.8,2.8,0.8s2.1-0.2,2.7-0.7c0.6-0.5,0.9-1,0.9-1.7c0-0.6-0.3-1.1-0.8-1.4c-0.4-0.2-1.3-0.5-2.7-0.9
	c-1.9-0.5-3.3-0.9-4-1.2c-0.7-0.3-1.3-0.8-1.6-1.4s-0.6-1.3-0.6-2.1c0-0.7,0.2-1.3,0.5-1.9s0.7-1.1,1.3-1.5c0.4-0.3,1-0.5,1.6-0.7
	c0.7-0.2,1.5-0.3,2.3-0.3c1.2,0,2.2,0.2,3.1,0.5c0.9,0.3,1.6,0.8,2.1,1.4c0.4,0.6,0.8,1.4,0.9,2.4l-2.6,0.4c-0.1-0.8-0.4-1.4-1-1.9
	c-0.6-0.4-1.3-0.7-2.3-0.7c-1.2,0-2.1,0.2-2.6,0.6s-0.8,0.8-0.8,1.4c0,0.3,0.1,0.6,0.3,0.9s0.5,0.6,1,0.7c0.2,0.1,1,0.3,2.3,0.7
	c1.9,0.5,3.1,0.9,3.9,1.2c0.8,0.3,1.3,0.8,1.8,1.4c0.4,0.6,0.6,1.3,0.6,2.2c0,0.9-0.3,1.7-0.8,2.5s-1.3,1.4-2.2,1.8s-2,0.6-3.2,0.6
	c-2,0-3.5-0.4-4.6-1.2C556.3,283.6,555.7,282.3,555.4,280.7z M541.9,276.1h8.6c-0.1-1.3-0.4-2.3-1-2.9c-0.8-1-1.9-1.5-3.2-1.5
	c-1.2,0-2.2,0.4-3,1.2C542.4,273.7,542,274.8,541.9,276.1z M550.4,280.4l2.7,0.3c-0.4,1.6-1.3,2.8-2.4,3.7c-1.1,0.9-2.6,1.3-4.4,1.3
	c-2.2,0-4-0.7-5.4-2.1c-1.3-1.4-2-3.4-2-5.9c0-2.6,0.7-4.6,2-6s3.1-2.2,5.2-2.2c2.1,0,3.7,0.7,5,2.1s2,3.3,2,5.9c0,0.2,0,0.4,0,0.7
	h-11.5c0.1,1.7,0.6,3,1.4,3.9c0.9,0.9,1.9,1.3,3.2,1.3c1,0,1.8-0.2,2.4-0.7C549.5,282.3,550.1,281.5,550.4,280.4z M535.1,279.7
	l2.6,0.3c-0.3,1.8-1,3.2-2.2,4.2s-2.6,1.5-4.3,1.5c-2.1,0-3.8-0.7-5-2.1c-1.3-1.4-1.9-3.3-1.9-5.9c0-1.7,0.3-3.1,0.8-4.4
	c0.5-1.2,1.4-2.2,2.5-2.8c1.1-0.6,2.4-0.9,3.7-0.9c1.6,0,3,0.4,4.1,1.3c1.1,0.8,1.8,2,2.1,3.6l-2.5,0.4c-0.2-1-0.7-1.8-1.3-2.3
	s-1.4-0.8-2.2-0.8c-1.3,0-2.4,0.5-3.2,1.4s-1.2,2.4-1.2,4.4c0,2.1,0.4,3.6,1.2,4.5s1.8,1.4,3.1,1.4c1,0,1.9-0.3,2.6-0.9
	C534.5,282,535,281,535.1,279.7z M515.1,285.3v-15.4h2.4v2.4c0.6-1.1,1.1-1.8,1.6-2.2c0.5-0.3,1.1-0.5,1.7-0.5
	c0.9,0,1.8,0.3,2.7,0.8l-0.9,2.4c-0.6-0.4-1.3-0.6-1.9-0.6c-0.6,0-1.1,0.2-1.5,0.5s-0.8,0.8-1,1.4c-0.3,0.9-0.4,1.9-0.4,3v8h-2.7
	V285.3z M508.8,285.3V283c-1.2,1.8-2.8,2.6-4.9,2.6c-0.9,0-1.7-0.2-2.5-0.5c-0.8-0.4-1.4-0.8-1.8-1.3s-0.6-1.2-0.8-1.9
	c-0.1-0.5-0.2-1.3-0.2-2.5v-9.5h2.6v8.6c0,1.4,0.1,2.3,0.2,2.7c0.1,0.7,0.5,1.2,1,1.6s1.2,0.6,2,0.6s1.5-0.2,2.2-0.6s1.2-1,1.4-1.6
	c0.3-0.7,0.4-1.7,0.4-3V270h2.6v15.4h-2.2V285.3z M483.9,277.6c0,2,0.4,3.4,1.3,4.4s1.9,1.4,3.2,1.4c1.3,0,2.4-0.5,3.2-1.4
	c0.9-1,1.3-2.5,1.3-4.5c0-1.9-0.4-3.3-1.3-4.3s-1.9-1.5-3.2-1.5c-1.3,0-2.4,0.5-3.2,1.5C484.3,274.2,483.9,275.6,483.9,277.6z
	 M481.2,277.6c0-2.9,0.8-5,2.4-6.3c1.3-1.1,3-1.7,4.8-1.7c2.1,0,3.9,0.7,5.2,2.1c1.3,1.4,2,3.3,2,5.7c0,2-0.3,3.6-0.9,4.7
	s-1.4,2-2.6,2.7c-1.1,0.6-2.4,0.9-3.7,0.9c-2.2,0-3.9-0.7-5.3-2.1C481.9,282.2,481.2,280.2,481.2,277.6z M466.3,280.7l2.6-0.4
	c0.1,1,0.5,1.8,1.2,2.4s1.6,0.8,2.8,0.8c1.2,0,2.1-0.2,2.7-0.7s0.9-1,0.9-1.7c0-0.6-0.3-1.1-0.8-1.4c-0.4-0.2-1.3-0.5-2.7-0.9
	c-1.9-0.5-3.3-0.9-4-1.2c-0.7-0.3-1.3-0.8-1.6-1.4c-0.4-0.6-0.6-1.3-0.6-2.1c0-0.7,0.2-1.3,0.5-1.9s0.7-1.1,1.3-1.5
	c0.4-0.3,1-0.5,1.6-0.7c0.7-0.2,1.5-0.3,2.3-0.3c1.2,0,2.2,0.2,3.1,0.5s1.6,0.8,2.1,1.4c0.4,0.6,0.8,1.4,0.9,2.4l-2.6,0.4
	c-0.1-0.8-0.4-1.4-1-1.9c-0.6-0.4-1.3-0.7-2.3-0.7c-1.2,0-2.1,0.2-2.6,0.6s-0.8,0.8-0.8,1.4c0,0.3,0.1,0.6,0.3,0.9
	c0.2,0.3,0.6,0.6,1,0.7c0.2,0.1,1,0.3,2.3,0.7c1.9,0.5,3.1,0.9,3.9,1.2c0.8,0.3,1.3,0.8,1.8,1.4c0.4,0.6,0.6,1.3,0.6,2.2
	c0,0.9-0.3,1.7-0.8,2.5s-1.3,1.4-2.2,1.8c-0.9,0.4-2,0.6-3.2,0.6c-2,0-3.5-0.4-4.6-1.2C467.2,283.6,466.6,282.3,466.3,280.7z
	 M444.6,276.1h8.6c-0.1-1.3-0.4-2.3-1-2.9c-0.8-1-1.9-1.5-3.2-1.5c-1.2,0-2.2,0.4-3,1.2C445.1,273.7,444.7,274.8,444.6,276.1z
	 M453.1,280.4l2.7,0.3c-0.4,1.6-1.3,2.8-2.4,3.7c-1.1,0.9-2.6,1.3-4.4,1.3c-2.2,0-4-0.7-5.4-2.1c-1.3-1.4-2-3.4-2-5.9
	c0-2.6,0.7-4.6,2-6s3.1-2.2,5.2-2.2s3.7,0.7,5,2.1s2,3.3,2,5.9c0,0.2,0,0.4,0,0.7h-11.5c0.1,1.7,0.6,3,1.4,3.9
	c0.9,0.9,1.9,1.3,3.2,1.3c1,0,1.8-0.2,2.4-0.7C452.2,282.3,452.7,281.5,453.1,280.4z M427.8,277.6c0,2,0.4,3.4,1.2,4.4
	c0.8,1,1.8,1.4,2.9,1.4s2.1-0.5,2.9-1.4s1.2-2.4,1.2-4.3c0-2.1-0.4-3.6-1.2-4.6c-0.8-1-1.8-1.5-3-1.5s-2.1,0.5-2.9,1.4
	C428.2,274.1,427.8,275.6,427.8,277.6z M436.1,285.3v-2c-1,1.5-2.4,2.3-4.3,2.3c-1.2,0-2.3-0.3-3.4-1c-1-0.7-1.8-1.6-2.4-2.8
	c-0.6-1.2-0.8-2.6-0.8-4.2c0-1.5,0.3-2.9,0.8-4.2c0.5-1.3,1.3-2.2,2.3-2.9c1-0.7,2.2-1,3.5-1c0.9,0,1.8,0.2,2.5,0.6s1.3,0.9,1.8,1.5
	V264h2.6v21.2h-2.6V285.3z M415.3,283l0.4,2.3c-0.8,0.2-1.4,0.3-2,0.3c-1,0-1.7-0.2-2.2-0.5s-0.9-0.7-1.1-1.2s-0.3-1.5-0.3-3V272
	h-1.9v-2.1h1.9v-3.8l2.6-1.5v5.4h2.6v2.1h-2.6v9c0,0.8,0,1.2,0.1,1.4c0.1,0.2,0.3,0.4,0.5,0.5s0.5,0.2,0.9,0.2
	C414.4,283.1,414.8,283.1,415.3,283z M395,276.1h8.6c-0.1-1.3-0.4-2.3-1-2.9c-0.8-1-1.9-1.5-3.2-1.5c-1.2,0-2.2,0.4-3,1.2
	C395.6,273.7,395.1,274.8,395,276.1z M403.6,280.4l2.7,0.3c-0.4,1.6-1.3,2.8-2.4,3.7c-1.1,0.9-2.6,1.3-4.4,1.3c-2.2,0-4-0.7-5.4-2.1
	c-1.3-1.4-2-3.4-2-5.9c0-2.6,0.7-4.6,2-6s3.1-2.2,5.2-2.2s3.7,0.7,5,2.1s2,3.3,2,5.9c0,0.2,0,0.4,0,0.7h-11.5c0.1,1.7,0.6,3,1.4,3.9
	c0.9,0.9,1.9,1.3,3.2,1.3c1,0,1.8-0.2,2.4-0.7C402.7,282.3,403.2,281.5,403.6,280.4z"/>
<path class="st1" d="M89.8,311.4H59.7V324h29.2c6.3,0,8.2,2.8,8.2,6.3c0,3.6-1.9,6.4-8.2,6.4H59.7v28.2h14.5v-15.6h15.6
	c13.2,0,21.9-8.4,21.9-19C111.6,319.7,103,311.4,89.8,311.4"/>
<polyline class="st1" points="125.4,364.9 173.6,364.9 173.6,352.3 140,352.3 140,343.9 162.9,343.9 162.9,331.3 140,331.3 140,324 
	173.6,324 173.6,311.4 125.4,311.4 125.4,364.9 "/>
<polyline class="st1" points="189.5,364.9 204,364.9 204,343.9 226.9,343.9 226.9,331.3 204,331.3 204,324 237.7,324 237.7,311.4 
	189.5,311.4 189.5,364.9 "/>
<path class="st1" d="M276.3,323c5,0,9.2,1.9,12.4,5.4l11.7-8.1c-6.4-6.7-15.2-9.9-24.1-9.9c-17.5,0-31.6,12.1-31.6,27.8
	c0,15.7,14.1,27.8,31.6,27.8c8.8,0,17.5-3.1,24-9.8l-11.8-7.6c-3,3-7.4,4.7-12.2,4.7c-8.7,0-16.6-6.7-16.6-15.2
	C259.7,329.7,267.6,323,276.3,323"/>
<path class="st1" d="M202.4,237.7v-24.4h34.5L191,119.4l-21.6,41c0.6,3,0.9,6.1,0.9,9.3c0,18.7-10.5,34.9-26,43.4l-0.8,0.3h35.9
	v24.4h23"/>
<path class="st1" d="M106,210.3v28.1h23v-27.6c18.3-4.7,31.8-21,31.8-40.4c0-23-19-41.7-42.5-41.7s-42.5,18.7-42.5,41.7
	C75.8,189.2,88.5,205.2,106,210.3"/>
<path class="st1" d="M94.8,124.7c2.3-1.2,4.7-2.2,7.2-3.1C125.2,97.7,157.4,82,189.5,82c50.8,0,82.8,39,74,88.2l20.3-18.9l13.5,15
	c6.8-55.6-31.1-98.8-89.9-98.8c-42.6,0-85.3,22.7-113.3,56.4c0,0-0.2,0.2,0.1,0.5C94.5,124.9,94.8,124.7,94.8,124.7"/>
<path class="st1" d="M152.9,291.9c62.5,0,125.3-48.9,141.4-109.7l-13.1-14.6l-22.8,21.2c-17.4,46.3-66.3,82.1-114.9,82.1
	c-50.1,0-82-38-74.3-86.5c-0.9-3.1-1.5-6.4-1.8-9.7c0,0,0-0.2-0.3-0.2c-0.2,0-0.3,0.2-0.3,0.2c-0.5,1.7-0.9,3.3-1.3,5
	C50.4,241.7,89.6,291.9,152.9,291.9"/>
<polyline class="st1" points="298.6,300.1 307.6,300.1 307.6,302.5 304.6,302.5 304.6,309.7 301.7,309.7 301.7,302.5 298.6,302.5 
	298.6,300.1 "/>
<polyline class="st1" points="308.9,300.1 312.9,300.1 314.3,305.9 315.8,300.1 319.7,300.1 319.7,309.7 317.3,309.7 317.3,302.4 
	315.4,309.7 313.2,309.7 311.4,302.4 311.4,309.7 308.9,309.7 308.9,300.1 "/>
</svg>
